<?xml version="1.0" encoding="UTF-8" standalone="no"?>
<!DOCTYPE svg PUBLIC "-//W3C//DTD SVG 1.1//EN"
 "http://www.w3.org/Graphics/SVG/1.1/DTD/svg11.dtd">
<!-- Generated by graphviz version 2.43.0 (0)
 -->
<!-- Title: Analysis.hpp Pages: 1 -->
<svg width="538pt" height="192pt"
 viewBox="0.00 0.00 538.00 192.00" xmlns="http://www.w3.org/2000/svg" xmlns:xlink="http://www.w3.org/1999/xlink">
<g id="graph0" class="graph" transform="scale(1 1) rotate(0) translate(4 188)">
<title>Analysis.hpp</title>
<!-- Node1 -->
<g id="Node000001" class="node">
<title>Node1</title>
<g id="a_Node000001"><a xlink:title="Discrete sequence analysis primitives for MayaFlux::Kinesis.">
<polygon fill="#999999" stroke="#666666" points="338.5,-184 259.5,-184 259.5,-165 338.5,-165 338.5,-184"/>
<text text-anchor="middle" x="299" y="-172" font-family="Helvetica,sans-Serif" font-size="10.00">Analysis.hpp</text>
</a>
</g>
</g>
<!-- Node2 -->
<g id="Node000002" class="node">
<title>Node2</title>
<g id="a_Node000002"><a xlink:href="Analysis_8cpp.html" target="_top" xlink:title=" ">
<polygon fill="white" stroke="#666666" points="78,-129 0,-129 0,-110 78,-110 78,-129"/>
<text text-anchor="middle" x="39" y="-117" font-family="Helvetica,sans-Serif" font-size="10.00">Analysis.cpp</text>
</a>
</g>
</g>
<!-- Node1&#45;&gt;Node2 -->
<g id="edge1_Node000001_Node000002" class="edge">
<title>Node1&#45;&gt;Node2</title>
<g id="a_edge1_Node000001_Node000002"><a xlink:title=" ">
<path fill="none" stroke="#63b8ff" d="M249.34,-163.38C199.6,-153.24 124.07,-137.84 78.34,-128.52"/>
<polygon fill="#63b8ff" stroke="#63b8ff" points="248.73,-166.82 259.23,-165.39 250.13,-159.97 248.73,-166.82"/>
</a>
</g>
</g>
<!-- Node3 -->
<g id="Node000003" class="node">
<title>Node3</title>
<g id="a_Node000003"><a xlink:href="EnergyAnalyzer_8hpp.html" target="_top" xlink:title="Span&#45;based energy analysis for digital signals in Maya Flux.">
<polygon fill="white" stroke="#666666" points="355.5,-129 242.5,-129 242.5,-110 355.5,-110 355.5,-129"/>
<text text-anchor="middle" x="299" y="-117" font-family="Helvetica,sans-Serif" font-size="10.00">EnergyAnalyzer.hpp</text>
</a>
</g>
</g>
<!-- Node1&#45;&gt;Node3 -->
<g id="edge2_Node000001_Node000003" class="edge">
<title>Node1&#45;&gt;Node3</title>
<g id="a_edge2_Node000001_Node000003"><a xlink:title=" ">
<path fill="none" stroke="#63b8ff" d="M299,-154.66C299,-145.93 299,-135.99 299,-129.09"/>
<polygon fill="#63b8ff" stroke="#63b8ff" points="295.5,-154.75 299,-164.75 302.5,-154.75 295.5,-154.75"/>
</a>
</g>
</g>
<!-- Node7 -->
<g id="Node000007" class="node">
<title>Node7</title>
<g id="a_Node000007"><a xlink:href="Yantra_8cpp.html" target="_top" xlink:title=" ">
<polygon fill="white" stroke="#666666" points="417.5,-74 350.5,-74 350.5,-55 417.5,-55 417.5,-74"/>
<text text-anchor="middle" x="384" y="-62" font-family="Helvetica,sans-Serif" font-size="10.00">Yantra.cpp</text>
</a>
</g>
</g>
<!-- Node1&#45;&gt;Node7 -->
<g id="edge12_Node000001_Node000007" class="edge">
<title>Node1&#45;&gt;Node7</title>
<g id="a_edge12_Node000001_Node000007"><a xlink:title=" ">
<path fill="none" stroke="#63b8ff" d="M327.61,-160C340.69,-152.53 355.38,-142.08 365,-129 377.41,-112.13 381.78,-87.15 383.27,-74.12"/>
<polygon fill="#63b8ff" stroke="#63b8ff" points="325.62,-157.1 318.46,-164.92 328.93,-163.27 325.62,-157.1"/>
</a>
</g>
</g>
<!-- Node8 -->
<g id="Node000008" class="node">
<title>Node8</title>
<g id="a_Node000008"><a xlink:href="ExtractionHelper_8cpp.html" target="_top" xlink:title=" ">
<polygon fill="white" stroke="#666666" points="530,-129 412,-129 412,-110 530,-110 530,-129"/>
<text text-anchor="middle" x="471" y="-117" font-family="Helvetica,sans-Serif" font-size="10.00">ExtractionHelper.cpp</text>
</a>
</g>
</g>
<!-- Node1&#45;&gt;Node8 -->
<g id="edge7_Node000001_Node000008" class="edge">
<title>Node1&#45;&gt;Node8</title>
<g id="a_edge7_Node000001_Node000008"><a xlink:title=" ">
<path fill="none" stroke="#63b8ff" d="M336.56,-161.93C368.68,-152.03 414.19,-138.01 443.15,-129.08"/>
<polygon fill="#63b8ff" stroke="#63b8ff" points="335.16,-158.69 326.63,-164.98 337.22,-165.38 335.16,-158.69"/>
</a>
</g>
</g>
<!-- Node9 -->
<g id="Node000009" class="node">
<title>Node9</title>
<g id="a_Node000009"><a xlink:href="StatisticalAnalyzer_8hpp.html" target="_top" xlink:title=" ">
<polygon fill="white" stroke="#666666" points="224,-129 96,-129 96,-110 224,-110 224,-129"/>
<text text-anchor="middle" x="160" y="-117" font-family="Helvetica,sans-Serif" font-size="10.00">StatisticalAnalyzer.hpp</text>
</a>
</g>
</g>
<!-- Node1&#45;&gt;Node9 -->
<g id="edge8_Node000001_Node000009" class="edge">
<title>Node1&#45;&gt;Node9</title>
<g id="a_edge8_Node000001_Node000009"><a xlink:title=" ">
<path fill="none" stroke="#63b8ff" d="M267.32,-161.42C241.53,-151.59 205.76,-137.95 182.74,-129.17"/>
<polygon fill="#63b8ff" stroke="#63b8ff" points="266.08,-164.69 276.67,-164.98 268.57,-158.15 266.08,-164.69"/>
</a>
</g>
</g>
<!-- Node4 -->
<g id="Node000004" class="node">
<title>Node4</title>
<g id="a_Node000004"><a xlink:href="GranularWorkflow_8hpp.html" target="_top" xlink:title=" ">
<polygon fill="white" stroke="#666666" points="332,-74 208,-74 208,-55 332,-55 332,-74"/>
<text text-anchor="middle" x="270" y="-62" font-family="Helvetica,sans-Serif" font-size="10.00">GranularWorkflow.hpp</text>
</a>
</g>
</g>
<!-- Node3&#45;&gt;Node4 -->
<g id="edge3_Node000003_Node000004" class="edge">
<title>Node3&#45;&gt;Node4</title>
<g id="a_edge3_Node000003_Node000004"><a xlink:title=" ">
<path fill="none" stroke="#63b8ff" d="M289.32,-100.82C284.4,-91.82 278.64,-81.29 274.7,-74.09"/>
<polygon fill="#63b8ff" stroke="#63b8ff" points="286.34,-102.66 294.21,-109.75 292.48,-99.3 286.34,-102.66"/>
</a>
</g>
</g>
<!-- Node6 -->
<g id="Node000006" class="node">
<title>Node6</title>
<g id="a_Node000006"><a xlink:href="MatrixHelper_8hpp.html" target="_top" xlink:title="Region&#45;aware and matrix transformation functions leveraging existing ecosystem.">
<polygon fill="white" stroke="#666666" points="189.5,-74 88.5,-74 88.5,-55 189.5,-55 189.5,-74"/>
<text text-anchor="middle" x="139" y="-62" font-family="Helvetica,sans-Serif" font-size="10.00">MatrixHelper.hpp</text>
</a>
</g>
</g>
<!-- Node3&#45;&gt;Node6 -->
<g id="edge5_Node000003_Node000006" class="edge">
<title>Node3&#45;&gt;Node6</title>
<g id="a_edge5_Node000003_Node000006"><a xlink:title=" ">
<path fill="none" stroke="#63b8ff" d="M263.67,-106.8C233.81,-96.91 191.73,-82.97 164.91,-74.08"/>
<polygon fill="#63b8ff" stroke="#63b8ff" points="262.7,-110.16 273.29,-109.98 264.9,-103.52 262.7,-110.16"/>
</a>
</g>
</g>
<!-- Node3&#45;&gt;Node7 -->
<g id="edge6_Node000003_Node000007" class="edge">
<title>Node3&#45;&gt;Node7</title>
<g id="a_edge6_Node000003_Node000007"><a xlink:title=" ">
<path fill="none" stroke="#63b8ff" d="M321.57,-104.42C337,-94.81 356.95,-82.37 370.09,-74.17"/>
<polygon fill="#63b8ff" stroke="#63b8ff" points="319.29,-101.72 312.66,-109.98 322.99,-107.66 319.29,-101.72"/>
</a>
</g>
</g>
<!-- Node5 -->
<g id="Node000005" class="node">
<title>Node5</title>
<g id="a_Node000005"><a xlink:href="GranularWorkflow_8cpp.html" target="_top" xlink:title=" ">
<polygon fill="white" stroke="#666666" points="331.5,-19 208.5,-19 208.5,0 331.5,0 331.5,-19"/>
<text text-anchor="middle" x="270" y="-7" font-family="Helvetica,sans-Serif" font-size="10.00">GranularWorkflow.cpp</text>
</a>
</g>
</g>
<!-- Node4&#45;&gt;Node5 -->
<g id="edge4_Node000004_Node000005" class="edge">
<title>Node4&#45;&gt;Node5</title>
<g id="a_edge4_Node000004_Node000005"><a xlink:title=" ">
<path fill="none" stroke="#63b8ff" d="M270,-44.66C270,-35.93 270,-25.99 270,-19.09"/>
<polygon fill="#63b8ff" stroke="#63b8ff" points="266.5,-44.75 270,-54.75 273.5,-44.75 266.5,-44.75"/>
</a>
</g>
</g>
<!-- Node9&#45;&gt;Node4 -->
<g id="edge9_Node000009_Node000004" class="edge">
<title>Node9&#45;&gt;Node4</title>
<g id="a_edge9_Node000009_Node000004"><a xlink:title=" ">
<path fill="none" stroke="#63b8ff" d="M186.7,-105.63C206.97,-95.87 234.27,-82.71 252.01,-74.17"/>
<polygon fill="#63b8ff" stroke="#63b8ff" points="185.16,-102.49 177.67,-109.98 188.2,-108.8 185.16,-102.49"/>
</a>
</g>
</g>
<!-- Node9&#45;&gt;Node6 -->
<g id="edge10_Node000009_Node000006" class="edge">
<title>Node9&#45;&gt;Node6</title>
<g id="a_edge10_Node000009_Node000006"><a xlink:title=" ">
<path fill="none" stroke="#63b8ff" d="M152.76,-100.24C149.25,-91.37 145.2,-81.14 142.4,-74.09"/>
<polygon fill="#63b8ff" stroke="#63b8ff" points="149.59,-101.74 156.53,-109.75 156.1,-99.16 149.59,-101.74"/>
</a>
</g>
</g>
<!-- Node9&#45;&gt;Node7 -->
<g id="edge11_Node000009_Node000007" class="edge">
<title>Node9&#45;&gt;Node7</title>
<g id="a_edge11_Node000009_Node000007"><a xlink:title=" ">
<path fill="none" stroke="#63b8ff" d="M205.9,-107.64C248.8,-97.49 311.86,-82.57 350.3,-73.47"/>
<polygon fill="#63b8ff" stroke="#63b8ff" points="204.91,-104.28 195.99,-109.98 206.53,-111.09 204.91,-104.28"/>
</a>
</g>
</g>
</g>
</svg>
