<?xml version="1.0" encoding="UTF-8" standalone="no"?>
<!DOCTYPE svg PUBLIC "-//W3C//DTD SVG 1.1//EN"
 "http://www.w3.org/Graphics/SVG/1.1/DTD/svg11.dtd">
<!-- Generated by graphviz version 2.43.0 (0)
 -->
<!-- Title: Bridge.hpp Pages: 1 -->
<svg width="797pt" height="566pt"
 viewBox="0.00 0.00 796.50 566.00" xmlns="http://www.w3.org/2000/svg" xmlns:xlink="http://www.w3.org/1999/xlink">
<g id="graph0" class="graph" transform="scale(1 1) rotate(0) translate(4 562)">
<title>Bridge.hpp</title>
<!-- Node1 -->
<g id="Node000001" class="node">
<title>Node1</title>
<g id="a_Node000001"><a xlink:title=" ">
<polygon fill="#999999" stroke="#666666" points="575.5,-558 506.5,-558 506.5,-539 575.5,-539 575.5,-558"/>
<text text-anchor="middle" x="541" y="-546" font-family="Helvetica,sans-Serif" font-size="10.00">Bridge.hpp</text>
</a>
</g>
</g>
<!-- Node2 -->
<g id="Node000002" class="node">
<title>Node2</title>
<g id="a_Node000002"><a xlink:href="Mapped_8hpp.html" target="_top" xlink:title=" ">
<polygon fill="white" stroke="#666666" points="605.5,-503 476.5,-503 476.5,-484 605.5,-484 605.5,-503"/>
<text text-anchor="middle" x="541" y="-491" font-family="Helvetica,sans-Serif" font-size="10.00">Primitives/Mapped.hpp</text>
</a>
</g>
</g>
<!-- Node1&#45;&gt;Node2 -->
<g id="edge1_Node000001_Node000002" class="edge">
<title>Node1&#45;&gt;Node2</title>
<g id="a_edge1_Node000001_Node000002"><a xlink:title=" ">
<path fill="none" stroke="#63b8ff" d="M541,-538.75C541,-531.8 541,-521.85 541,-513.13"/>
<polygon fill="#63b8ff" stroke="#63b8ff" points="544.5,-513.09 541,-503.09 537.5,-513.09 544.5,-513.09"/>
</a>
</g>
</g>
<!-- Node3 -->
<g id="Node000003" class="node">
<title>Node3</title>
<g id="a_Node000003"><a xlink:href="FormaBuffer_8hpp.html" target="_top" xlink:title=" ">
<polygon fill="white" stroke="#666666" points="563,-382 427,-382 427,-352 563,-352 563,-382"/>
<text text-anchor="start" x="435" y="-370" font-family="Helvetica,sans-Serif" font-size="10.00">MayaFlux/Buffers/Forma</text>
<text text-anchor="middle" x="495" y="-359" font-family="Helvetica,sans-Serif" font-size="10.00">/FormaBuffer.hpp</text>
</a>
</g>
</g>
<!-- Node2&#45;&gt;Node3 -->
<g id="edge2_Node000002_Node000003" class="edge">
<title>Node2&#45;&gt;Node3</title>
<g id="a_edge2_Node000002_Node000003"><a xlink:title=" ">
<path fill="none" stroke="#63b8ff" d="M534.54,-483.74C528.43,-475.06 519.42,-461.21 514,-448 506.65,-430.08 501.75,-408.68 498.77,-392.53"/>
<polygon fill="#63b8ff" stroke="#63b8ff" points="502.16,-391.55 497.01,-382.29 495.26,-392.74 502.16,-391.55"/>
</a>
</g>
</g>
<!-- Node15 -->
<g id="Node000015" class="node">
<title>Node15</title>
<g id="a_Node000015"><a xlink:href="Element_8hpp.html" target="_top" xlink:title=" ">
<polygon fill="white" stroke="#666666" points="653,-448 523,-448 523,-418 653,-418 653,-448"/>
<text text-anchor="start" x="531" y="-436" font-family="Helvetica,sans-Serif" font-size="10.00">MayaFlux/Portal/Forma</text>
<text text-anchor="middle" x="588" y="-425" font-family="Helvetica,sans-Serif" font-size="10.00">/Element.hpp</text>
</a>
</g>
</g>
<!-- Node2&#45;&gt;Node15 -->
<g id="edge17_Node000002_Node000015" class="edge">
<title>Node2&#45;&gt;Node15</title>
<g id="a_edge17_Node000002_Node000015"><a xlink:title=" ">
<path fill="none" stroke="#63b8ff" d="M547.94,-483.87C553.78,-476.59 562.41,-465.85 570.16,-456.2"/>
<polygon fill="#63b8ff" stroke="#63b8ff" points="573.13,-458.1 576.66,-448.11 567.67,-453.72 573.13,-458.1"/>
</a>
</g>
</g>
<!-- Node4 -->
<g id="Node000004" class="node">
<title>Node4</title>
<g id="a_Node000004"><a xlink:href="VKBuffer_8hpp.html" target="_top" xlink:title=" ">
<polygon fill="white" stroke="#666666" points="415,-316 247,-316 247,-297 415,-297 415,-316"/>
<text text-anchor="middle" x="331" y="-304" font-family="Helvetica,sans-Serif" font-size="10.00">MayaFlux/Buffers/VKBuffer.hpp</text>
</a>
</g>
</g>
<!-- Node3&#45;&gt;Node4 -->
<g id="edge3_Node000003_Node000004" class="edge">
<title>Node3&#45;&gt;Node4</title>
<g id="a_edge3_Node000003_Node000004"><a xlink:title=" ">
<path fill="none" stroke="#63b8ff" d="M455.72,-351.99C427.99,-342.1 391.22,-328.98 364.8,-319.56"/>
<polygon fill="#63b8ff" stroke="#63b8ff" points="365.81,-316.2 355.22,-316.14 363.46,-322.8 365.81,-316.2"/>
</a>
</g>
</g>
<!-- Node14 -->
<g id="Node000014" class="node">
<title>Node14</title>
<g id="a_Node000014"><a xlink:href="GraphicsUtils_8hpp.html" target="_top" xlink:title=" ">
<polygon fill="white" stroke="#666666" points="516.5,-195 413.5,-195 413.5,-176 516.5,-176 516.5,-195"/>
<text text-anchor="middle" x="465" y="-183" font-family="Helvetica,sans-Serif" font-size="10.00">GraphicsUtils.hpp</text>
</a>
</g>
</g>
<!-- Node3&#45;&gt;Node14 -->
<g id="edge16_Node000003_Node000014" class="edge">
<title>Node3&#45;&gt;Node14</title>
<g id="a_edge16_Node000003_Node000014"><a xlink:title=" ">
<path fill="none" stroke="#63b8ff" d="M497.66,-351.8C501.78,-326.76 507.95,-273.36 495,-231 491.91,-220.9 485.68,-211.02 479.69,-203.15"/>
<polygon fill="#63b8ff" stroke="#63b8ff" points="482.24,-200.74 473.21,-195.2 476.82,-205.16 482.24,-200.74"/>
</a>
</g>
</g>
<!-- Node5 -->
<g id="Node000005" class="node">
<title>Node5</title>
<g id="a_Node000005"><a xlink:href="Buffer_8hpp.html" target="_top" xlink:title=" ">
<polygon fill="white" stroke="#666666" points="486,-255.5 420,-255.5 420,-236.5 486,-236.5 486,-255.5"/>
<text text-anchor="middle" x="453" y="-243.5" font-family="Helvetica,sans-Serif" font-size="10.00">Buffer.hpp</text>
</a>
</g>
</g>
<!-- Node4&#45;&gt;Node5 -->
<g id="edge4_Node000004_Node000005" class="edge">
<title>Node4&#45;&gt;Node5</title>
<g id="a_edge4_Node000004_Node000005"><a xlink:title=" ">
<path fill="none" stroke="#63b8ff" d="M348.74,-296.99C369.07,-287.25 402.61,-271.16 426.14,-259.88"/>
<polygon fill="#63b8ff" stroke="#63b8ff" points="427.74,-263 435.24,-255.52 424.71,-256.68 427.74,-263"/>
</a>
</g>
</g>
<!-- Node6 -->
<g id="Node000006" class="node">
<title>Node6</title>
<g id="a_Node000006"><a xlink:href="BufferProcessor_8hpp.html" target="_top" xlink:title=" ">
<polygon fill="white" stroke="#666666" points="242,-255.5 40,-255.5 40,-236.5 242,-236.5 242,-255.5"/>
<text text-anchor="middle" x="141" y="-243.5" font-family="Helvetica,sans-Serif" font-size="10.00">MayaFlux/Buffers/BufferProcessor.hpp</text>
</a>
</g>
</g>
<!-- Node4&#45;&gt;Node6 -->
<g id="edge5_Node000004_Node000006" class="edge">
<title>Node4&#45;&gt;Node6</title>
<g id="a_edge5_Node000004_Node000006"><a xlink:title=" ">
<path fill="none" stroke="#63b8ff" d="M303.37,-296.99C270.45,-286.86 215.27,-269.87 178.51,-258.55"/>
<polygon fill="#63b8ff" stroke="#63b8ff" points="179.25,-255.11 168.66,-255.52 177.19,-261.8 179.25,-255.11"/>
</a>
</g>
</g>
<!-- Node8 -->
<g id="Node000008" class="node">
<title>Node8</title>
<g id="a_Node000008"><a xlink:href="ProcessingTokens_8hpp.html" target="_top" xlink:title=" ">
<polygon fill="white" stroke="#666666" points="146,-140 0,-140 0,-110 146,-110 146,-140"/>
<text text-anchor="start" x="8" y="-128" font-family="Helvetica,sans-Serif" font-size="10.00">MayaFlux/Core/Processing</text>
<text text-anchor="middle" x="73" y="-117" font-family="Helvetica,sans-Serif" font-size="10.00">Tokens.hpp</text>
</a>
</g>
</g>
<!-- Node4&#45;&gt;Node8 -->
<g id="edge11_Node000004_Node000008" class="edge">
<title>Node4&#45;&gt;Node8</title>
<g id="a_edge11_Node000004_Node000008"><a xlink:title=" ">
<path fill="none" stroke="#63b8ff" d="M246.95,-304.85C168.13,-302.25 58.43,-292.8 31,-261 2.98,-228.52 32.79,-177.48 54.53,-148.35"/>
<polygon fill="#63b8ff" stroke="#63b8ff" points="57.32,-150.46 60.67,-140.4 51.78,-146.18 57.32,-150.46"/>
</a>
</g>
</g>
<!-- Node12 -->
<g id="Node000012" class="node">
<title>Node12</title>
<g id="a_Node000012"><a xlink:href="ShaderUtils_8hpp.html" target="_top" xlink:title=" ">
<polygon fill="white" stroke="#666666" points="402,-261 260,-261 260,-231 402,-231 402,-261"/>
<text text-anchor="start" x="268" y="-249" font-family="Helvetica,sans-Serif" font-size="10.00">MayaFlux/Portal/Graphics</text>
<text text-anchor="middle" x="331" y="-238" font-family="Helvetica,sans-Serif" font-size="10.00">/ShaderUtils.hpp</text>
</a>
</g>
</g>
<!-- Node4&#45;&gt;Node12 -->
<g id="edge12_Node000004_Node000012" class="edge">
<title>Node4&#45;&gt;Node12</title>
<g id="a_edge12_Node000004_Node000012"><a xlink:title=" ">
<path fill="none" stroke="#63b8ff" d="M331,-296.87C331,-290.11 331,-280.35 331,-271.26"/>
<polygon fill="#63b8ff" stroke="#63b8ff" points="334.5,-271.11 331,-261.11 327.5,-271.11 334.5,-271.11"/>
</a>
</g>
</g>
<!-- Node7 -->
<g id="Node000007" class="node">
<title>Node7</title>
<g id="a_Node000007"><a xlink:href="BufferUtils_8hpp.html" target="_top" xlink:title=" ">
<polygon fill="white" stroke="#666666" points="182.5,-195 93.5,-195 93.5,-176 182.5,-176 182.5,-195"/>
<text text-anchor="middle" x="138" y="-183" font-family="Helvetica,sans-Serif" font-size="10.00">BufferUtils.hpp</text>
</a>
</g>
</g>
<!-- Node6&#45;&gt;Node7 -->
<g id="edge6_Node000006_Node000007" class="edge">
<title>Node6&#45;&gt;Node7</title>
<g id="a_edge6_Node000006_Node000007"><a xlink:title=" ">
<path fill="none" stroke="#63b8ff" d="M140.56,-236.37C140.14,-228.25 139.5,-215.81 138.97,-205.39"/>
<polygon fill="#63b8ff" stroke="#63b8ff" points="142.45,-204.97 138.44,-195.17 135.46,-205.33 142.45,-204.97"/>
</a>
</g>
</g>
<!-- Node7&#45;&gt;Node8 -->
<g id="edge7_Node000007_Node000008" class="edge">
<title>Node7&#45;&gt;Node8</title>
<g id="a_edge7_Node000007_Node000008"><a xlink:title=" ">
<path fill="none" stroke="#63b8ff" d="M128.41,-175.87C120,-168.3 107.42,-156.98 96.37,-147.04"/>
<polygon fill="#63b8ff" stroke="#63b8ff" points="98.46,-144.2 88.68,-140.11 93.77,-149.41 98.46,-144.2"/>
</a>
</g>
</g>
<!-- Node9 -->
<g id="Node000009" class="node">
<title>Node9</title>
<g id="a_Node000009"><a xlink:href="VertexLayout_8hpp.html" target="_top" xlink:title=" ">
<polygon fill="white" stroke="#666666" points="360.5,-140 209.5,-140 209.5,-110 360.5,-110 360.5,-140"/>
<text text-anchor="start" x="217.5" y="-128" font-family="Helvetica,sans-Serif" font-size="10.00">MayaFlux/Kakshya/NDData</text>
<text text-anchor="middle" x="285" y="-117" font-family="Helvetica,sans-Serif" font-size="10.00">/VertexLayout.hpp</text>
</a>
</g>
</g>
<!-- Node7&#45;&gt;Node9 -->
<g id="edge8_Node000007_Node000009" class="edge">
<title>Node7&#45;&gt;Node9</title>
<g id="a_edge8_Node000007_Node000009"><a xlink:title=" ">
<path fill="none" stroke="#63b8ff" d="M159.38,-175.99C180.44,-167.61 213.27,-154.55 240.08,-143.87"/>
<polygon fill="#63b8ff" stroke="#63b8ff" points="241.66,-147.01 249.66,-140.06 239.07,-140.51 241.66,-147.01"/>
</a>
</g>
</g>
<!-- Node10 -->
<g id="Node000010" class="node">
<title>Node10</title>
<g id="a_Node000010"><a xlink:href="NDData_8hpp.html" target="_top" xlink:title=" ">
<polygon fill="white" stroke="#666666" points="323,-74 247,-74 247,-55 323,-55 323,-74"/>
<text text-anchor="middle" x="285" y="-62" font-family="Helvetica,sans-Serif" font-size="10.00">NDData.hpp</text>
</a>
</g>
</g>
<!-- Node9&#45;&gt;Node10 -->
<g id="edge9_Node000009_Node000010" class="edge">
<title>Node9&#45;&gt;Node10</title>
<g id="a_edge9_Node000009_Node000010"><a xlink:title=" ">
<path fill="none" stroke="#63b8ff" d="M285,-109.84C285,-102.21 285,-92.7 285,-84.45"/>
<polygon fill="#63b8ff" stroke="#63b8ff" points="288.5,-84.27 285,-74.27 281.5,-84.27 288.5,-84.27"/>
</a>
</g>
</g>
<!-- Node11 -->
<g id="Node000011" class="node">
<title>Node11</title>
<g id="a_Node000011"><a xlink:title=" ">
<polygon fill="#e0e0e0" stroke="#999999" points="324,-19 246,-19 246,0 324,0 324,-19"/>
<text text-anchor="middle" x="285" y="-7" font-family="Helvetica,sans-Serif" font-size="10.00">glm/glm.hpp</text>
</a>
</g>
</g>
<!-- Node10&#45;&gt;Node11 -->
<g id="edge10_Node000010_Node000011" class="edge">
<title>Node10&#45;&gt;Node11</title>
<g id="a_edge10_Node000010_Node000011"><a xlink:title=" ">
<path fill="none" stroke="#63b8ff" d="M285,-54.75C285,-47.8 285,-37.85 285,-29.13"/>
<polygon fill="#63b8ff" stroke="#63b8ff" points="288.5,-29.09 285,-19.09 281.5,-29.09 288.5,-29.09"/>
</a>
</g>
</g>
<!-- Node12&#45;&gt;Node9 -->
<g id="edge15_Node000012_Node000009" class="edge">
<title>Node12&#45;&gt;Node9</title>
<g id="a_edge15_Node000012_Node000009"><a xlink:title=" ">
<path fill="none" stroke="#63b8ff" d="M328.74,-230.89C326.18,-216.68 321.39,-194.31 314,-176 310.29,-166.8 305.12,-157.26 300.18,-149"/>
<polygon fill="#63b8ff" stroke="#63b8ff" points="303.03,-146.96 294.78,-140.32 297.08,-150.66 303.03,-146.96"/>
</a>
</g>
</g>
<!-- Node13 -->
<g id="Node000013" class="node">
<title>Node13</title>
<g id="a_Node000013"><a xlink:title=" ">
<polygon fill="#e0e0e0" stroke="#999999" points="305.5,-195 200.5,-195 200.5,-176 305.5,-176 305.5,-195"/>
<text text-anchor="middle" x="253" y="-183" font-family="Helvetica,sans-Serif" font-size="10.00">vulkan/vulkan.hpp</text>
</a>
</g>
</g>
<!-- Node12&#45;&gt;Node13 -->
<g id="edge13_Node000012_Node000013" class="edge">
<title>Node12&#45;&gt;Node13</title>
<g id="a_edge13_Node000012_Node000013"><a xlink:title=" ">
<path fill="none" stroke="#63b8ff" d="M312.12,-230.84C300.22,-221.91 284.88,-210.41 272.8,-201.35"/>
<polygon fill="#63b8ff" stroke="#63b8ff" points="274.79,-198.47 264.69,-195.27 270.59,-204.07 274.79,-198.47"/>
</a>
</g>
</g>
<!-- Node12&#45;&gt;Node14 -->
<g id="edge14_Node000012_Node000014" class="edge">
<title>Node12&#45;&gt;Node14</title>
<g id="a_edge14_Node000012_Node000014"><a xlink:title=" ">
<path fill="none" stroke="#63b8ff" d="M363.1,-230.99C385.25,-221.31 414.48,-208.56 435.95,-199.18"/>
<polygon fill="#63b8ff" stroke="#63b8ff" points="437.45,-202.35 445.21,-195.14 434.65,-195.93 437.45,-202.35"/>
</a>
</g>
</g>
<!-- Node15&#45;&gt;Node3 -->
<g id="edge18_Node000015_Node000003" class="edge">
<title>Node15&#45;&gt;Node3</title>
<g id="a_edge18_Node000015_Node000003"><a xlink:title=" ">
<path fill="none" stroke="#63b8ff" d="M567.36,-417.8C554.6,-409.01 538.02,-397.61 523.96,-387.93"/>
<polygon fill="#63b8ff" stroke="#63b8ff" points="525.8,-384.95 515.58,-382.16 521.84,-390.72 525.8,-384.95"/>
</a>
</g>
</g>
<!-- Node16 -->
<g id="Node000016" class="node">
<title>Node16</title>
<g id="a_Node000016"><a xlink:href="Bounds_8hpp.html" target="_top" xlink:title=" ">
<polygon fill="white" stroke="#666666" points="721,-382 581,-382 581,-352 721,-352 721,-382"/>
<text text-anchor="start" x="589" y="-370" font-family="Helvetica,sans-Serif" font-size="10.00">MayaFlux/Kinesis/Spatial</text>
<text text-anchor="middle" x="651" y="-359" font-family="Helvetica,sans-Serif" font-size="10.00">/Bounds.hpp</text>
</a>
</g>
</g>
<!-- Node15&#45;&gt;Node16 -->
<g id="edge19_Node000015_Node000016" class="edge">
<title>Node15&#45;&gt;Node16</title>
<g id="a_edge19_Node000015_Node000016"><a xlink:title=" ">
<path fill="none" stroke="#63b8ff" d="M601.98,-417.8C610.22,-409.43 620.8,-398.68 630.02,-389.31"/>
<polygon fill="#63b8ff" stroke="#63b8ff" points="632.54,-391.75 637.06,-382.16 627.55,-386.84 632.54,-391.75"/>
</a>
</g>
</g>
<!-- Node17 -->
<g id="Node000017" class="node">
<title>Node17</title>
<g id="a_Node000017"><a xlink:title=" ">
<polygon fill="#e0e0e0" stroke="#999999" points="687.5,-316 578.5,-316 578.5,-297 687.5,-297 687.5,-316"/>
<text text-anchor="middle" x="633" y="-304" font-family="Helvetica,sans-Serif" font-size="10.00">glm/geometric.hpp</text>
</a>
</g>
</g>
<!-- Node16&#45;&gt;Node17 -->
<g id="edge20_Node000016_Node000017" class="edge">
<title>Node16&#45;&gt;Node17</title>
<g id="a_edge20_Node000016_Node000017"><a xlink:title=" ">
<path fill="none" stroke="#63b8ff" d="M646.64,-351.84C644.24,-344.04 641.24,-334.27 638.66,-325.89"/>
<polygon fill="#63b8ff" stroke="#63b8ff" points="641.98,-324.79 635.7,-316.27 635.29,-326.85 641.98,-324.79"/>
</a>
</g>
</g>
<!-- Node18 -->
<g id="Node000018" class="node">
<title>Node18</title>
<g id="a_Node000018"><a xlink:title=" ">
<polygon fill="#e0e0e0" stroke="#999999" points="788.5,-316 705.5,-316 705.5,-297 788.5,-297 788.5,-316"/>
<text text-anchor="middle" x="747" y="-304" font-family="Helvetica,sans-Serif" font-size="10.00">glm/vec2.hpp</text>
</a>
</g>
</g>
<!-- Node16&#45;&gt;Node18 -->
<g id="edge21_Node000016_Node000018" class="edge">
<title>Node16&#45;&gt;Node18</title>
<g id="a_edge21_Node000016_Node000018"><a xlink:title=" ">
<path fill="none" stroke="#63b8ff" d="M674.24,-351.84C689.4,-342.6 709.11,-330.59 724.19,-321.4"/>
<polygon fill="#63b8ff" stroke="#63b8ff" points="726.18,-324.29 732.9,-316.09 722.54,-318.31 726.18,-324.29"/>
</a>
</g>
</g>
</g>
</svg>
