<?xml version="1.0" encoding="UTF-8" standalone="no"?>
<!DOCTYPE svg PUBLIC "-//W3C//DTD SVG 1.1//EN"
 "http://www.w3.org/Graphics/SVG/1.1/DTD/svg11.dtd">
<!-- Generated by graphviz version 2.43.0 (0)
 -->
<!-- Title: BufferUploadProcessor.cpp Pages: 1 -->
<!--zoomable 467 -->

<svg id="main" version="1.1" xmlns="http://www.w3.org/2000/svg" xmlns:xlink="http://www.w3.org/1999/xlink" xml:space="preserve" onload="init(evt)">
<style type="text/css"><![CDATA[
.node, .edge {opacity: 0.7;}
.node.selected, .edge.selected {opacity: 1;}
.edge:hover path { stroke: red; }
.edge:hover polygon { stroke: red; fill: red; }
]]></style>

<defs>
  <circle id="rim" cx="0" cy="0" r="7"/>
  <circle id="rim2" cx="0" cy="0" r="3.5"/>
  <g id="zoomPlus">
    <use xlink:href="#rim" fill="#404040"><set attributeName="fill" to="#808080" begin="zoomplus.mouseover" end="zoomplus.mouseout"/></use>
    <path d="M-4,0h8M0,-4v8" fill="none" stroke="white" stroke-width="1.5" pointer-events="none"/>
  </g>
  <g id="zoomMin">
    <use xlink:href="#rim" fill="#404040"><set attributeName="fill" to="#808080" begin="zoomminus.mouseover" end="zoomminus.mouseout"/></use>
    <path d="M-4,0h8" fill="none" stroke="white" stroke-width="1.5" pointer-events="none"/>
  </g>
  <g id="arrowUp" transform="translate(30 24)">
    <use xlink:href="#rim"/>
    <path pointer-events="none" fill="none" stroke="white" stroke-width="1.5" d="M0,-3.0v7 M-2.5,-0.5L0,-3.0L2.5,-0.5"/>
  </g>
  <g id="arrowRight" transform="rotate(90) translate(36 -43)">
    <use xlink:href="#rim"/>
    <path pointer-events="none" fill="none" stroke="white" stroke-width="1.5" d="M0,-3.0v7 M-2.5,-0.5L0,-3.0L2.5,-0.5"/>
  </g>
  <g id="arrowDown" transform="rotate(180) translate(-30 -48)">
    <use xlink:href="#rim"/>
    <path pointer-events="none" fill="none" stroke="white" stroke-width="1.5" d="M0,-3.0v7 M-2.5,-0.5L0,-3.0L2.5,-0.5"/>
  </g>
  <g id="arrowLeft" transform="rotate(270) translate(-36 17)">
    <use xlink:href="#rim"/>
    <path pointer-events="none" fill="none" stroke="white" stroke-width="1.5" d="M0,-3.0v7 M-2.5,-0.5L0,-3.0L2.5,-0.5"/>
  </g>
  <g id="resetDef">
    <use xlink:href="#rim2" fill="#404040"><set attributeName="fill" to="#808080" begin="reset.mouseover" end="reset.mouseout"/></use>
  </g>
</defs>
<script type="application/ecmascript">
var viewWidth = 950;
var viewHeight = 467;
var sectionId = 'dynsection-0';
</script>
<script type="application/ecmascript" xlink:href="svg.min.js"/>
<svg id="graph" class="graph">
<g id="viewport">
<title>BufferUploadProcessor.cpp</title>
<!-- Node1 -->
<g id="Node000001" class="node">
<title>Node1</title>
<g id="a_Node000001"><a xlink:title=" ">
<polygon fill="#999999" stroke="#666666" points="766.5,-459 619.5,-459 619.5,-440 766.5,-440 766.5,-459"/>
<text text-anchor="middle" x="693" y="-447" font-family="Helvetica,sans-Serif" font-size="10.00">BufferUploadProcessor.cpp</text>
</a>
</g>
</g>
<!-- Node2 -->
<g id="Node000002" class="node">
<title>Node2</title>
<g id="a_Node000002"><a xlink:href="BufferUploadProcessor_8hpp.html" target="_top" xlink:title=" ">
<polygon fill="white" stroke="#666666" points="472,-398.5 324,-398.5 324,-379.5 472,-379.5 472,-398.5"/>
<text text-anchor="middle" x="398" y="-386.5" font-family="Helvetica,sans-Serif" font-size="10.00">BufferUploadProcessor.hpp</text>
</a>
</g>
</g>
<!-- Node1&#45;&gt;Node2 -->
<g id="edge1_Node000001_Node000002" class="edge">
<title>Node1&#45;&gt;Node2</title>
<g id="a_edge1_Node000001_Node000002"><a xlink:title=" ">
<path fill="none" stroke="#63b8ff" d="M650.1,-439.99C597.34,-429.53 507.79,-411.77 450.84,-400.48"/>
<polygon fill="#63b8ff" stroke="#63b8ff" points="451.44,-397.03 440.95,-398.52 450.08,-403.9 451.44,-397.03"/>
</a>
</g>
</g>
<!-- Node15 -->
<g id="Node000015" class="node">
<title>Node15</title>
<g id="a_Node000015"><a xlink:href="Archivist_8hpp.html" target="_top" xlink:title=" ">
<polygon fill="white" stroke="#666666" points="806,-266.5 638,-266.5 638,-247.5 806,-247.5 806,-266.5"/>
<text text-anchor="middle" x="722" y="-254.5" font-family="Helvetica,sans-Serif" font-size="10.00">MayaFlux/Journal/Archivist.hpp</text>
</a>
</g>
</g>
<!-- Node1&#45;&gt;Node15 -->
<g id="edge15_Node000001_Node000015" class="edge">
<title>Node1&#45;&gt;Node15</title>
<g id="a_edge15_Node000001_Node000015"><a xlink:title=" ">
<path fill="none" stroke="#63b8ff" d="M694.32,-439.82C698.73,-410.87 712.99,-317.2 719.14,-276.82"/>
<polygon fill="#63b8ff" stroke="#63b8ff" points="722.63,-277.14 720.67,-266.73 715.71,-276.09 722.63,-277.14"/>
</a>
</g>
</g>
<!-- Node22 -->
<g id="Node000022" class="node">
<title>Node22</title>
<g id="a_Node000022"><a xlink:href="BackendRegistry_8hpp.html" target="_top" xlink:title=" ">
<polygon fill="white" stroke="#666666" points="849,-85 697,-85 697,-55 849,-55 849,-85"/>
<text text-anchor="start" x="705" y="-73" font-family="Helvetica,sans-Serif" font-size="10.00">MayaFlux/Registry/Backend</text>
<text text-anchor="middle" x="773" y="-62" font-family="Helvetica,sans-Serif" font-size="10.00">Registry.hpp</text>
</a>
</g>
</g>
<!-- Node1&#45;&gt;Node22 -->
<g id="edge22_Node000001_Node000022" class="edge">
<title>Node1&#45;&gt;Node22</title>
<g id="a_edge22_Node000001_Node000022"><a xlink:title=" ">
<path fill="none" stroke="#63b8ff" d="M766.74,-442.33C839.84,-431.71 941,-402.77 941,-324 941,-324 941,-324 941,-195.5 941,-161.33 945.25,-146.04 922,-121 905.43,-103.15 882.3,-91.67 859.21,-84.29"/>
<polygon fill="#63b8ff" stroke="#63b8ff" points="859.91,-80.85 849.33,-81.37 857.93,-87.56 859.91,-80.85"/>
</a>
</g>
</g>
<!-- Node23 -->
<g id="Node000023" class="node">
<title>Node23</title>
<g id="a_Node000023"><a xlink:href="BufferService_8hpp.html" target="_top" xlink:title=" ">
<polygon fill="white" stroke="#666666" points="868.5,-404 721.5,-404 721.5,-374 868.5,-374 868.5,-404"/>
<text text-anchor="start" x="729.5" y="-392" font-family="Helvetica,sans-Serif" font-size="10.00">MayaFlux/Registry/Service</text>
<text text-anchor="middle" x="795" y="-381" font-family="Helvetica,sans-Serif" font-size="10.00">/BufferService.hpp</text>
</a>
</g>
</g>
<!-- Node1&#45;&gt;Node23 -->
<g id="edge24_Node000001_Node000023" class="edge">
<title>Node1&#45;&gt;Node23</title>
<g id="a_edge24_Node000001_Node000023"><a xlink:title=" ">
<path fill="none" stroke="#63b8ff" d="M708.05,-439.87C722.02,-431.86 743.31,-419.65 761.32,-409.31"/>
<polygon fill="#63b8ff" stroke="#63b8ff" points="763.46,-412.13 770.39,-404.11 759.97,-406.05 763.46,-412.13"/>
</a>
</g>
</g>
<!-- Node24 -->
<g id="Node000024" class="node">
<title>Node24</title>
<g id="a_Node000024"><a xlink:href="StagingUtils_8hpp.html" target="_top" xlink:title=" ">
<polygon fill="white" stroke="#666666" points="609.5,-398.5 512.5,-398.5 512.5,-379.5 609.5,-379.5 609.5,-398.5"/>
<text text-anchor="middle" x="561" y="-386.5" font-family="Helvetica,sans-Serif" font-size="10.00">StagingUtils.hpp</text>
</a>
</g>
</g>
<!-- Node1&#45;&gt;Node24 -->
<g id="edge25_Node000001_Node000024" class="edge">
<title>Node1&#45;&gt;Node24</title>
<g id="a_edge25_Node000001_Node000024"><a xlink:title=" ">
<path fill="none" stroke="#63b8ff" d="M673.81,-439.99C651.61,-430.16 614.88,-413.88 589.38,-402.58"/>
<polygon fill="#63b8ff" stroke="#63b8ff" points="590.78,-399.37 580.22,-398.52 587.94,-405.77 590.78,-399.37"/>
</a>
</g>
</g>
<!-- Node3 -->
<g id="Node000003" class="node">
<title>Node3</title>
<g id="a_Node000003"><a xlink:href="VKBuffer_8hpp.html" target="_top" xlink:title=" ">
<polygon fill="white" stroke="#666666" points="459,-332.5 291,-332.5 291,-313.5 459,-313.5 459,-332.5"/>
<text text-anchor="middle" x="375" y="-320.5" font-family="Helvetica,sans-Serif" font-size="10.00">MayaFlux/Buffers/VKBuffer.hpp</text>
</a>
</g>
</g>
<!-- Node2&#45;&gt;Node3 -->
<g id="edge2_Node000002_Node000003" class="edge">
<title>Node2&#45;&gt;Node3</title>
<g id="a_edge2_Node000002_Node000003"><a xlink:title=" ">
<path fill="none" stroke="#63b8ff" d="M394.9,-379.37C391.52,-369.97 386.02,-354.67 381.66,-342.53"/>
<polygon fill="#63b8ff" stroke="#63b8ff" points="384.88,-341.13 378.2,-332.91 378.29,-343.5 384.88,-341.13"/>
</a>
</g>
</g>
<!-- Node4 -->
<g id="Node000004" class="node">
<title>Node4</title>
<g id="a_Node000004"><a xlink:href="Buffer_8hpp.html" target="_top" xlink:title=" ">
<polygon fill="white" stroke="#666666" points="286,-266.5 220,-266.5 220,-247.5 286,-247.5 286,-266.5"/>
<text text-anchor="middle" x="253" y="-254.5" font-family="Helvetica,sans-Serif" font-size="10.00">Buffer.hpp</text>
</a>
</g>
</g>
<!-- Node3&#45;&gt;Node4 -->
<g id="edge3_Node000003_Node000004" class="edge">
<title>Node3&#45;&gt;Node4</title>
<g id="a_edge3_Node000003_Node000004"><a xlink:title=" ">
<path fill="none" stroke="#63b8ff" d="M358.55,-313.37C337.99,-302.59 302.6,-284.02 278.51,-271.38"/>
<polygon fill="#63b8ff" stroke="#63b8ff" points="280.06,-268.25 269.58,-266.7 276.81,-274.44 280.06,-268.25"/>
</a>
</g>
</g>
<!-- Node5 -->
<g id="Node000005" class="node">
<title>Node5</title>
<g id="a_Node000005"><a xlink:href="BufferProcessor_8hpp.html" target="_top" xlink:title=" ">
<polygon fill="white" stroke="#666666" points="202,-266.5 0,-266.5 0,-247.5 202,-247.5 202,-266.5"/>
<text text-anchor="middle" x="101" y="-254.5" font-family="Helvetica,sans-Serif" font-size="10.00">MayaFlux/Buffers/BufferProcessor.hpp</text>
</a>
</g>
</g>
<!-- Node3&#45;&gt;Node5 -->
<g id="edge4_Node000003_Node000005" class="edge">
<title>Node3&#45;&gt;Node5</title>
<g id="a_edge4_Node000003_Node000005"><a xlink:title=" ">
<path fill="none" stroke="#63b8ff" d="M338.33,-313.44C289.01,-301.92 201.29,-281.43 147.43,-268.84"/>
<polygon fill="#63b8ff" stroke="#63b8ff" points="147.99,-265.38 137.45,-266.51 146.39,-272.2 147.99,-265.38"/>
</a>
</g>
</g>
<!-- Node12 -->
<g id="Node000012" class="node">
<title>Node12</title>
<g id="a_Node000012"><a xlink:href="ShaderUtils_8hpp.html" target="_top" xlink:title=" ">
<polygon fill="white" stroke="#666666" points="446,-272 304,-272 304,-242 446,-242 446,-272"/>
<text text-anchor="start" x="312" y="-260" font-family="Helvetica,sans-Serif" font-size="10.00">MayaFlux/Portal/Graphics</text>
<text text-anchor="middle" x="375" y="-249" font-family="Helvetica,sans-Serif" font-size="10.00">/ShaderUtils.hpp</text>
</a>
</g>
</g>
<!-- Node3&#45;&gt;Node12 -->
<g id="edge11_Node000003_Node000012" class="edge">
<title>Node3&#45;&gt;Node12</title>
<g id="a_edge11_Node000003_Node000012"><a xlink:title=" ">
<path fill="none" stroke="#63b8ff" d="M375,-313.37C375,-305.49 375,-293.45 375,-282.6"/>
<polygon fill="#63b8ff" stroke="#63b8ff" points="378.5,-282.36 375,-272.36 371.5,-282.36 378.5,-282.36"/>
</a>
</g>
</g>
<!-- Node6 -->
<g id="Node000006" class="node">
<title>Node6</title>
<g id="a_Node000006"><a xlink:href="BufferUtils_8hpp.html" target="_top" xlink:title=" ">
<polygon fill="white" stroke="#666666" points="150.5,-206 61.5,-206 61.5,-187 150.5,-187 150.5,-206"/>
<text text-anchor="middle" x="106" y="-194" font-family="Helvetica,sans-Serif" font-size="10.00">BufferUtils.hpp</text>
</a>
</g>
</g>
<!-- Node5&#45;&gt;Node6 -->
<g id="edge5_Node000005_Node000006" class="edge">
<title>Node5&#45;&gt;Node6</title>
<g id="a_edge5_Node000005_Node000006"><a xlink:title=" ">
<path fill="none" stroke="#63b8ff" d="M101.74,-247.37C102.43,-239.25 103.5,-226.81 104.39,-216.39"/>
<polygon fill="#63b8ff" stroke="#63b8ff" points="107.89,-216.43 105.26,-206.17 100.92,-215.83 107.89,-216.43"/>
</a>
</g>
</g>
<!-- Node7 -->
<g id="Node000007" class="node">
<title>Node7</title>
<g id="a_Node000007"><a xlink:href="ProcessingTokens_8hpp.html" target="_top" xlink:title=" ">
<polygon fill="white" stroke="#666666" points="179,-151 33,-151 33,-121 179,-121 179,-151"/>
<text text-anchor="start" x="41" y="-139" font-family="Helvetica,sans-Serif" font-size="10.00">MayaFlux/Core/Processing</text>
<text text-anchor="middle" x="106" y="-128" font-family="Helvetica,sans-Serif" font-size="10.00">Tokens.hpp</text>
</a>
</g>
</g>
<!-- Node6&#45;&gt;Node7 -->
<g id="edge6_Node000006_Node000007" class="edge">
<title>Node6&#45;&gt;Node7</title>
<g id="a_edge6_Node000006_Node000007"><a xlink:title=" ">
<path fill="none" stroke="#63b8ff" d="M106,-186.87C106,-180.11 106,-170.35 106,-161.26"/>
<polygon fill="#63b8ff" stroke="#63b8ff" points="109.5,-161.11 106,-151.11 102.5,-161.11 109.5,-161.11"/>
</a>
</g>
</g>
<!-- Node8 -->
<g id="Node000008" class="node">
<title>Node8</title>
<g id="a_Node000008"><a xlink:href="VertexLayout_8hpp.html" target="_top" xlink:title=" ">
<polygon fill="white" stroke="#666666" points="445.5,-151 294.5,-151 294.5,-121 445.5,-121 445.5,-151"/>
<text text-anchor="start" x="302.5" y="-139" font-family="Helvetica,sans-Serif" font-size="10.00">MayaFlux/Kakshya/NDData</text>
<text text-anchor="middle" x="370" y="-128" font-family="Helvetica,sans-Serif" font-size="10.00">/VertexLayout.hpp</text>
</a>
</g>
</g>
<!-- Node6&#45;&gt;Node8 -->
<g id="edge7_Node000006_Node000008" class="edge">
<title>Node6&#45;&gt;Node8</title>
<g id="a_edge7_Node000006_Node000008"><a xlink:title=" ">
<path fill="none" stroke="#63b8ff" d="M144.39,-186.99C184.19,-178.17 247.39,-164.17 296.79,-153.22"/>
<polygon fill="#63b8ff" stroke="#63b8ff" points="297.78,-156.59 306.79,-151.01 296.27,-149.75 297.78,-156.59"/>
</a>
</g>
</g>
<!-- Node9 -->
<g id="Node000009" class="node">
<title>Node9</title>
<g id="a_Node000009"><a xlink:href="NDData_8hpp.html" target="_top" xlink:title=" ">
<polygon fill="white" stroke="#666666" points="512,-79.5 436,-79.5 436,-60.5 512,-60.5 512,-79.5"/>
<text text-anchor="middle" x="474" y="-67.5" font-family="Helvetica,sans-Serif" font-size="10.00">NDData.hpp</text>
</a>
</g>
</g>
<!-- Node8&#45;&gt;Node9 -->
<g id="edge8_Node000008_Node000009" class="edge">
<title>Node8&#45;&gt;Node9</title>
<g id="a_edge8_Node000008_Node000009"><a xlink:title=" ">
<path fill="none" stroke="#63b8ff" d="M392.82,-120.95C410.18,-110.27 433.94,-95.65 451.27,-84.98"/>
<polygon fill="#63b8ff" stroke="#63b8ff" points="453.48,-87.74 460.16,-79.52 449.81,-81.78 453.48,-87.74"/>
</a>
</g>
</g>
<!-- Node10 -->
<g id="Node000010" class="node">
<title>Node10</title>
<g id="a_Node000010"><a xlink:title=" ">
<polygon fill="#e0e0e0" stroke="#999999" points="513,-19 435,-19 435,0 513,0 513,-19"/>
<text text-anchor="middle" x="474" y="-7" font-family="Helvetica,sans-Serif" font-size="10.00">glm/glm.hpp</text>
</a>
</g>
</g>
<!-- Node9&#45;&gt;Node10 -->
<g id="edge9_Node000009_Node000010" class="edge">
<title>Node9&#45;&gt;Node10</title>
<g id="a_edge9_Node000009_Node000010"><a xlink:title=" ">
<path fill="none" stroke="#63b8ff" d="M474,-60.37C474,-52.25 474,-39.81 474,-29.39"/>
<polygon fill="#63b8ff" stroke="#63b8ff" points="477.5,-29.17 474,-19.17 470.5,-29.17 477.5,-29.17"/>
</a>
</g>
</g>
<!-- Node11 -->
<g id="Node000011" class="node">
<title>Node11</title>
<g id="a_Node000011"><a xlink:title=" ">
<polygon fill="#e0e0e0" stroke="#999999" points="617.5,-19 552.5,-19 552.5,0 617.5,0 617.5,-19"/>
<text text-anchor="middle" x="585" y="-7" font-family="Helvetica,sans-Serif" font-size="10.00">typeindex</text>
</a>
</g>
</g>
<!-- Node9&#45;&gt;Node11 -->
<g id="edge10_Node000009_Node000011" class="edge">
<title>Node9&#45;&gt;Node11</title>
<g id="a_edge10_Node000009_Node000011"><a xlink:title=" ">
<path fill="none" stroke="#63b8ff" d="M490.38,-60.37C508.58,-50.78 538.2,-35.17 559.45,-23.97"/>
<polygon fill="#63b8ff" stroke="#63b8ff" points="561.34,-26.93 568.55,-19.17 558.08,-20.73 561.34,-26.93"/>
</a>
</g>
</g>
<!-- Node12&#45;&gt;Node8 -->
<g id="edge14_Node000012_Node000008" class="edge">
<title>Node12&#45;&gt;Node8</title>
<g id="a_edge14_Node000012_Node000008"><a xlink:title=" ">
<path fill="none" stroke="#63b8ff" d="M391.26,-241.8C404.68,-228.25 420.42,-207 413,-187 409.12,-176.53 401.96,-166.79 394.58,-158.73"/>
<polygon fill="#63b8ff" stroke="#63b8ff" points="396.74,-155.94 387.23,-151.27 391.76,-160.85 396.74,-155.94"/>
</a>
</g>
</g>
<!-- Node13 -->
<g id="Node000013" class="node">
<title>Node13</title>
<g id="a_Node000013"><a xlink:title=" ">
<polygon fill="#e0e0e0" stroke="#999999" points="403.5,-206 298.5,-206 298.5,-187 403.5,-187 403.5,-206"/>
<text text-anchor="middle" x="351" y="-194" font-family="Helvetica,sans-Serif" font-size="10.00">vulkan/vulkan.hpp</text>
</a>
</g>
</g>
<!-- Node12&#45;&gt;Node13 -->
<g id="edge12_Node000012_Node000013" class="edge">
<title>Node12&#45;&gt;Node13</title>
<g id="a_edge12_Node000012_Node000013"><a xlink:title=" ">
<path fill="none" stroke="#63b8ff" d="M369.19,-241.84C365.96,-233.95 361.89,-224.05 358.43,-215.61"/>
<polygon fill="#63b8ff" stroke="#63b8ff" points="361.63,-214.19 354.6,-206.27 355.15,-216.85 361.63,-214.19"/>
</a>
</g>
</g>
<!-- Node14 -->
<g id="Node000014" class="node">
<title>Node14</title>
<g id="a_Node000014"><a xlink:href="GraphicsUtils_8hpp.html" target="_top" xlink:title=" ">
<polygon fill="white" stroke="#666666" points="280.5,-206 177.5,-206 177.5,-187 280.5,-187 280.5,-206"/>
<text text-anchor="middle" x="229" y="-194" font-family="Helvetica,sans-Serif" font-size="10.00">GraphicsUtils.hpp</text>
</a>
</g>
</g>
<!-- Node12&#45;&gt;Node14 -->
<g id="edge13_Node000012_Node000014" class="edge">
<title>Node12&#45;&gt;Node14</title>
<g id="a_edge13_Node000012_Node000014"><a xlink:title=" ">
<path fill="none" stroke="#63b8ff" d="M340.03,-241.99C315.67,-232.23 283.47,-219.33 260.03,-209.93"/>
<polygon fill="#63b8ff" stroke="#63b8ff" points="261.15,-206.61 250.56,-206.14 258.54,-213.11 261.15,-206.61"/>
</a>
</g>
</g>
<!-- Node16 -->
<g id="Node000016" class="node">
<title>Node16</title>
<g id="a_Node000016"><a xlink:href="JournalEntry_8hpp.html" target="_top" xlink:title=" ">
<polygon fill="white" stroke="#666666" points="750.5,-206 655.5,-206 655.5,-187 750.5,-187 750.5,-206"/>
<text text-anchor="middle" x="703" y="-194" font-family="Helvetica,sans-Serif" font-size="10.00">JournalEntry.hpp</text>
</a>
</g>
</g>
<!-- Node15&#45;&gt;Node16 -->
<g id="edge16_Node000015_Node000016" class="edge">
<title>Node15&#45;&gt;Node16</title>
<g id="a_edge16_Node000015_Node000016"><a xlink:title=" ">
<path fill="none" stroke="#63b8ff" d="M719.2,-247.37C716.5,-239.07 712.35,-226.28 708.92,-215.72"/>
<polygon fill="#63b8ff" stroke="#63b8ff" points="712.23,-214.6 705.82,-206.17 705.58,-216.76 712.23,-214.6"/>
</a>
</g>
</g>
<!-- Node21 -->
<g id="Node000021" class="node">
<title>Node21</title>
<g id="a_Node000021"><a xlink:title=" ">
<polygon fill="#e0e0e0" stroke="#999999" points="819,-206 769,-206 769,-187 819,-187 819,-206"/>
<text text-anchor="middle" x="794" y="-194" font-family="Helvetica,sans-Serif" font-size="10.00">format</text>
</a>
</g>
</g>
<!-- Node15&#45;&gt;Node21 -->
<g id="edge21_Node000015_Node000021" class="edge">
<title>Node15&#45;&gt;Node21</title>
<g id="a_edge21_Node000015_Node000021"><a xlink:title=" ">
<path fill="none" stroke="#63b8ff" d="M732.62,-247.37C743.9,-238.21 761.92,-223.56 775.53,-212.51"/>
<polygon fill="#63b8ff" stroke="#63b8ff" points="777.78,-215.19 783.33,-206.17 773.36,-209.76 777.78,-215.19"/>
</a>
</g>
</g>
<!-- Node17 -->
<g id="Node000017" class="node">
<title>Node17</title>
<g id="a_Node000017"><a xlink:href="EnumReflect_8hpp.html" target="_top" xlink:title=" ">
<polygon fill="white" stroke="#666666" points="641.5,-151 502.5,-151 502.5,-121 641.5,-121 641.5,-151"/>
<text text-anchor="start" x="510.5" y="-139" font-family="Helvetica,sans-Serif" font-size="10.00">MayaFlux/Transitive</text>
<text text-anchor="middle" x="572" y="-128" font-family="Helvetica,sans-Serif" font-size="10.00">/Reflect/EnumReflect.hpp</text>
</a>
</g>
</g>
<!-- Node16&#45;&gt;Node17 -->
<g id="edge17_Node000016_Node000017" class="edge">
<title>Node16&#45;&gt;Node17</title>
<g id="a_edge17_Node000016_Node000017"><a xlink:title=" ">
<path fill="none" stroke="#63b8ff" d="M683.95,-186.99C665.35,-178.68 636.44,-165.78 612.66,-155.16"/>
<polygon fill="#63b8ff" stroke="#63b8ff" points="614.05,-151.95 603.49,-151.06 611.2,-158.34 614.05,-151.95"/>
</a>
</g>
</g>
<!-- Node18 -->
<g id="Node000018" class="node">
<title>Node18</title>
<g id="a_Node000018"><a xlink:title=" ">
<polygon fill="#e0e0e0" stroke="#999999" points="710,-145.5 660,-145.5 660,-126.5 710,-126.5 710,-145.5"/>
<text text-anchor="middle" x="685" y="-133.5" font-family="Helvetica,sans-Serif" font-size="10.00">chrono</text>
</a>
</g>
</g>
<!-- Node16&#45;&gt;Node18 -->
<g id="edge18_Node000016_Node000018" class="edge">
<title>Node16&#45;&gt;Node18</title>
<g id="a_edge18_Node000016_Node000018"><a xlink:title=" ">
<path fill="none" stroke="#63b8ff" d="M700.34,-186.87C697.82,-178.66 693.94,-166.04 690.71,-155.55"/>
<polygon fill="#63b8ff" stroke="#63b8ff" points="693.95,-154.2 687.67,-145.67 687.26,-156.25 693.95,-154.2"/>
</a>
</g>
</g>
<!-- Node19 -->
<g id="Node000019" class="node">
<title>Node19</title>
<g id="a_Node000019"><a xlink:title=" ">
<polygon fill="#e0e0e0" stroke="#999999" points="821.5,-145.5 728.5,-145.5 728.5,-126.5 821.5,-126.5 821.5,-145.5"/>
<text text-anchor="middle" x="775" y="-133.5" font-family="Helvetica,sans-Serif" font-size="10.00">source_location</text>
</a>
</g>
</g>
<!-- Node16&#45;&gt;Node19 -->
<g id="edge19_Node000016_Node000019" class="edge">
<title>Node16&#45;&gt;Node19</title>
<g id="a_edge19_Node000016_Node000019"><a xlink:title=" ">
<path fill="none" stroke="#63b8ff" d="M713.62,-186.87C724.9,-177.71 742.92,-163.06 756.53,-152.01"/>
<polygon fill="#63b8ff" stroke="#63b8ff" points="758.78,-154.69 764.33,-145.67 754.36,-149.26 758.78,-154.69"/>
</a>
</g>
</g>
<!-- Node20 -->
<g id="Node000020" class="node">
<title>Node20</title>
<g id="a_Node000020"><a xlink:title=" ">
<polygon fill="#e0e0e0" stroke="#999999" points="912.5,-145.5 839.5,-145.5 839.5,-126.5 912.5,-126.5 912.5,-145.5"/>
<text text-anchor="middle" x="876" y="-133.5" font-family="Helvetica,sans-Serif" font-size="10.00">string_view</text>
</a>
</g>
</g>
<!-- Node16&#45;&gt;Node20 -->
<g id="edge20_Node000016_Node000020" class="edge">
<title>Node16&#45;&gt;Node20</title>
<g id="a_edge20_Node000016_Node000020"><a xlink:title=" ">
<path fill="none" stroke="#63b8ff" d="M728.16,-186.99C757.88,-176.94 807.52,-160.16 840.99,-148.84"/>
<polygon fill="#63b8ff" stroke="#63b8ff" points="842.46,-152.04 850.81,-145.52 840.22,-145.4 842.46,-152.04"/>
</a>
</g>
</g>
<!-- Node22&#45;&gt;Node11 -->
<g id="edge23_Node000022_Node000011" class="edge">
<title>Node22&#45;&gt;Node11</title>
<g id="a_edge23_Node000022_Node000011"><a xlink:title=" ">
<path fill="none" stroke="#63b8ff" d="M727.97,-54.99C695.66,-44.94 652.66,-31.55 622.27,-22.1"/>
<polygon fill="#63b8ff" stroke="#63b8ff" points="623.08,-18.68 612.49,-19.05 621,-25.37 623.08,-18.68"/>
</a>
</g>
</g>
<!-- Node24&#45;&gt;Node3 -->
<g id="edge26_Node000024_Node000003" class="edge">
<title>Node24&#45;&gt;Node3</title>
<g id="a_edge26_Node000024_Node000003"><a xlink:title=" ">
<path fill="none" stroke="#63b8ff" d="M535.92,-379.37C503.38,-368.17 446.45,-348.58 409.76,-335.96"/>
<polygon fill="#63b8ff" stroke="#63b8ff" points="410.58,-332.54 399.98,-332.6 408.3,-339.16 410.58,-332.54"/>
</a>
</g>
</g>
<!-- Node25 -->
<g id="Node000025" class="node">
<title>Node25</title>
<g id="a_Node000025"><a xlink:href="DataAccess_8hpp.html" target="_top" xlink:title=" ">
<polygon fill="white" stroke="#666666" points="636.5,-338 485.5,-338 485.5,-308 636.5,-308 636.5,-338"/>
<text text-anchor="start" x="493.5" y="-326" font-family="Helvetica,sans-Serif" font-size="10.00">MayaFlux/Kakshya/NDData</text>
<text text-anchor="middle" x="561" y="-315" font-family="Helvetica,sans-Serif" font-size="10.00">/DataAccess.hpp</text>
</a>
</g>
</g>
<!-- Node24&#45;&gt;Node25 -->
<g id="edge27_Node000024_Node000025" class="edge">
<title>Node24&#45;&gt;Node25</title>
<g id="a_edge27_Node000024_Node000025"><a xlink:title=" ">
<path fill="none" stroke="#63b8ff" d="M561,-379.37C561,-371.49 561,-359.45 561,-348.6"/>
<polygon fill="#63b8ff" stroke="#63b8ff" points="564.5,-348.36 561,-338.36 557.5,-348.36 564.5,-348.36"/>
</a>
</g>
</g>
<!-- Node25&#45;&gt;Node9 -->
<g id="edge28_Node000025_Node000009" class="edge">
<title>Node25&#45;&gt;Node9</title>
<g id="a_edge28_Node000025_Node000009"><a xlink:title=" ">
<path fill="none" stroke="#63b8ff" d="M532.31,-307.91C518.34,-299.49 502.71,-287.42 494,-272 460.38,-212.52 466.35,-127.14 471.12,-89.75"/>
<polygon fill="#63b8ff" stroke="#63b8ff" points="474.6,-90.15 472.52,-79.76 467.67,-89.18 474.6,-90.15"/>
</a>
</g>
</g>
<!-- Node25&#45;&gt;Node15 -->
<g id="edge30_Node000025_Node000015" class="edge">
<title>Node25&#45;&gt;Node15</title>
<g id="a_edge30_Node000025_Node000015"><a xlink:title=" ">
<path fill="none" stroke="#63b8ff" d="M596.33,-307.95C624.69,-296.68 664.11,-281.01 691.2,-270.25"/>
<polygon fill="#63b8ff" stroke="#63b8ff" points="692.57,-273.46 700.57,-266.52 689.99,-266.96 692.57,-273.46"/>
</a>
</g>
</g>
<!-- Node26 -->
<g id="Node000026" class="node">
<title>Node26</title>
<g id="a_Node000026"><a xlink:title=" ">
<polygon fill="#e0e0e0" stroke="#999999" points="619.5,-266.5 502.5,-266.5 502.5,-247.5 619.5,-247.5 619.5,-266.5"/>
<text text-anchor="middle" x="561" y="-254.5" font-family="Helvetica,sans-Serif" font-size="10.00">glm/gtc/type_ptr.hpp</text>
</a>
</g>
</g>
<!-- Node25&#45;&gt;Node26 -->
<g id="edge29_Node000025_Node000026" class="edge">
<title>Node25&#45;&gt;Node26</title>
<g id="a_edge29_Node000025_Node000026"><a xlink:title=" ">
<path fill="none" stroke="#63b8ff" d="M561,-307.8C561,-298.7 561,-286.79 561,-276.9"/>
<polygon fill="#63b8ff" stroke="#63b8ff" points="564.5,-276.84 561,-266.84 557.5,-276.84 564.5,-276.84"/>
</a>
</g>
</g>
</g>
</svg>

<g id="navigator" transform="translate(0 0)" fill="#404254">
  <rect fill="#f2f5e9" fill-opacity="0.5" stroke="#606060" stroke-width=".5" x="0" y="0" width="60" height="60"/>
  <use id="zoomplus" xlink:href="#zoomPlus" x="17" y="9" onmousedown="handleZoom(evt,'in')"/>
  <use id="zoomminus" xlink:href="#zoomMin" x="42" y="9" onmousedown="handleZoom(evt,'out')"/>
  <use id="reset" xlink:href="#resetDef" x="30" y="36" onmousedown="handleReset()"/>
   <use id="arrowup" xlink:href="#arrowUp" x="0" y="0" onmousedown="handlePan(0,-1)"/>
  <use id="arrowright" xlink:href="#arrowRight" x="0" y="0" onmousedown="handlePan(1,0)"/>
  <use id="arrowdown" xlink:href="#arrowDown" x="0" y="0" onmousedown="handlePan(0,1)"/>
  <use id="arrowleft" xlink:href="#arrowLeft" x="0" y="0" onmousedown="handlePan(-1,0)"/>
</g>
<svg viewBox="0 0 15 15" width="100%" height="30px" preserveAspectRatio="xMaxYMin meet">
 <g id="arrow_out" transform="scale(0.3 0.3)">
  <a xlink:href="BufferUploadProcessor_8cpp__incl_org.svg" target="_base">
   <rect id="button" ry="5" rx="5" y="6" x="6" height="38" width="38"
        fill="#f2f5e9" fill-opacity="0.5" stroke="#606060" stroke-width="1.0"/>
   <path id="arrow"
     d="M 11.500037,31.436501 C 11.940474,20.09759 22.043105,11.32322 32.158766,21.979434 L 37.068811,17.246167 C 37.068811,17.246167 37.088388,32 37.088388,32 L 22.160133,31.978069 C 22.160133,31.978069 26.997745,27.140456 26.997745,27.140456 C 18.528582,18.264221 13.291696,25.230495 11.500037,31.436501 z"
     style="fill:#404040;"/>
  </a>
 </g>
</svg>

<style type='text/css'>
<![CDATA[
[data-mouse-over-selected='false'] { opacity: 0.7; }
[data-mouse-over-selected='true']  { opacity: 1.0; }
]]>
</style>
<script type="application/ecmascript"><![CDATA[
document.addEventListener('DOMContentLoaded', (event) => {
  highlightEdges();
  highlightAdjacentNodes();
});
]]></script>
</svg>
