<?xml version="1.0" encoding="UTF-8" standalone="no"?>
<!DOCTYPE svg PUBLIC "-//W3C//DTD SVG 1.1//EN"
 "http://www.w3.org/Graphics/SVG/1.1/DTD/svg11.dtd">
<!-- Generated by graphviz version 2.43.0 (0)
 -->
<!-- Title: BufferPipeline.hpp Pages: 1 -->
<svg width="543pt" height="269pt"
 viewBox="0.00 0.00 542.50 269.00" xmlns="http://www.w3.org/2000/svg" xmlns:xlink="http://www.w3.org/1999/xlink">
<g id="graph0" class="graph" transform="scale(1 1) rotate(0) translate(4 265)">
<title>BufferPipeline.hpp</title>
<!-- Node1 -->
<g id="Node000001" class="node">
<title>Node1</title>
<g id="a_Node000001"><a xlink:title=" ">
<polygon fill="#999999" stroke="#666666" points="373,-261 267,-261 267,-242 373,-242 373,-261"/>
<text text-anchor="middle" x="320" y="-249" font-family="Helvetica,sans-Serif" font-size="10.00">BufferPipeline.hpp</text>
</a>
</g>
</g>
<!-- Node2 -->
<g id="Node000002" class="node">
<title>Node2</title>
<g id="a_Node000002"><a xlink:href="BufferOperation_8hpp.html" target="_top" xlink:title=" ">
<polygon fill="white" stroke="#666666" points="298.5,-206 183.5,-206 183.5,-187 298.5,-187 298.5,-206"/>
<text text-anchor="middle" x="241" y="-194" font-family="Helvetica,sans-Serif" font-size="10.00">BufferOperation.hpp</text>
</a>
</g>
</g>
<!-- Node1&#45;&gt;Node2 -->
<g id="edge1_Node000001_Node000002" class="edge">
<title>Node1&#45;&gt;Node2</title>
<g id="a_edge1_Node000001_Node000002"><a xlink:title=" ">
<path fill="none" stroke="#63b8ff" d="M307.31,-241.98C295.17,-233.84 276.64,-221.41 262.25,-211.76"/>
<polygon fill="#63b8ff" stroke="#63b8ff" points="264.18,-208.84 253.92,-206.17 260.28,-214.65 264.18,-208.84"/>
</a>
</g>
</g>
<!-- Node9 -->
<g id="Node000009" class="node">
<title>Node9</title>
<g id="a_Node000009"><a xlink:href="Scheduler_8hpp.html" target="_top" xlink:title=" ">
<polygon fill="white" stroke="#666666" points="491.5,-206 326.5,-206 326.5,-187 491.5,-187 491.5,-206"/>
<text text-anchor="middle" x="409" y="-194" font-family="Helvetica,sans-Serif" font-size="10.00">MayaFlux/Vruta/Scheduler.hpp</text>
</a>
</g>
</g>
<!-- Node1&#45;&gt;Node9 -->
<g id="edge8_Node000001_Node000009" class="edge">
<title>Node1&#45;&gt;Node9</title>
<g id="a_edge8_Node000001_Node000009"><a xlink:title=" ">
<path fill="none" stroke="#63b8ff" d="M334.3,-241.98C348.1,-233.77 369.24,-221.18 385.51,-211.49"/>
<polygon fill="#63b8ff" stroke="#63b8ff" points="387.64,-214.29 394.44,-206.17 384.06,-208.28 387.64,-214.29"/>
</a>
</g>
</g>
<!-- Node3 -->
<g id="Node000003" class="node">
<title>Node3</title>
<g id="a_Node000003"><a xlink:href="Capture_8hpp.html" target="_top" xlink:title=" ">
<polygon fill="white" stroke="#666666" points="122,-151 46,-151 46,-132 122,-132 122,-151"/>
<text text-anchor="middle" x="84" y="-139" font-family="Helvetica,sans-Serif" font-size="10.00">Capture.hpp</text>
</a>
</g>
</g>
<!-- Node2&#45;&gt;Node3 -->
<g id="edge2_Node000002_Node000003" class="edge">
<title>Node2&#45;&gt;Node3</title>
<g id="a_edge2_Node000002_Node000003"><a xlink:title=" ">
<path fill="none" stroke="#63b8ff" d="M215.78,-186.98C189.64,-178.16 148.6,-164.31 119.27,-154.41"/>
<polygon fill="#63b8ff" stroke="#63b8ff" points="120.02,-150.96 109.42,-151.08 117.78,-157.6 120.02,-150.96"/>
</a>
</g>
</g>
<!-- Node7 -->
<g id="Node000007" class="node">
<title>Node7</title>
<g id="a_Node000007"><a xlink:href="BufferSpec_8hpp.html" target="_top" xlink:title=" ">
<polygon fill="white" stroke="#666666" points="319.5,-151 140.5,-151 140.5,-132 319.5,-132 319.5,-151"/>
<text text-anchor="middle" x="230" y="-139" font-family="Helvetica,sans-Serif" font-size="10.00">MayaFlux/Buffers/BufferSpec.hpp</text>
</a>
</g>
</g>
<!-- Node2&#45;&gt;Node7 -->
<g id="edge6_Node000002_Node000007" class="edge">
<title>Node2&#45;&gt;Node7</title>
<g id="a_edge6_Node000002_Node000007"><a xlink:title=" ">
<path fill="none" stroke="#63b8ff" d="M239.18,-186.75C237.74,-179.8 235.68,-169.85 233.87,-161.13"/>
<polygon fill="#63b8ff" stroke="#63b8ff" points="237.24,-160.17 231.78,-151.09 230.39,-161.59 237.24,-160.17"/>
</a>
</g>
</g>
<!-- Node8 -->
<g id="Node000008" class="node">
<title>Node8</title>
<g id="a_Node000008"><a xlink:href="ProcessingTokens_8hpp.html" target="_top" xlink:title=" ">
<polygon fill="white" stroke="#666666" points="428,-30 282,-30 282,0 428,0 428,-30"/>
<text text-anchor="start" x="290" y="-18" font-family="Helvetica,sans-Serif" font-size="10.00">MayaFlux/Core/Processing</text>
<text text-anchor="middle" x="355" y="-7" font-family="Helvetica,sans-Serif" font-size="10.00">Tokens.hpp</text>
</a>
</g>
</g>
<!-- Node2&#45;&gt;Node8 -->
<g id="edge7_Node000002_Node000008" class="edge">
<title>Node2&#45;&gt;Node8</title>
<g id="a_edge7_Node000002_Node000008"><a xlink:title=" ">
<path fill="none" stroke="#63b8ff" d="M272.95,-186.86C291.78,-180.13 314.49,-168.86 328,-151 352.55,-118.55 356.39,-69.55 356.21,-40.37"/>
<polygon fill="#63b8ff" stroke="#63b8ff" points="359.7,-40.15 355.97,-30.23 352.7,-40.31 359.7,-40.15"/>
</a>
</g>
</g>
<!-- Node4 -->
<g id="Node000004" class="node">
<title>Node4</title>
<g id="a_Node000004"><a xlink:href="NDData_8hpp.html" target="_top" xlink:title=" ">
<polygon fill="white" stroke="#666666" points="159.5,-96 8.5,-96 8.5,-66 159.5,-66 159.5,-96"/>
<text text-anchor="start" x="16.5" y="-84" font-family="Helvetica,sans-Serif" font-size="10.00">MayaFlux/Kakshya/NDData</text>
<text text-anchor="middle" x="84" y="-73" font-family="Helvetica,sans-Serif" font-size="10.00">/NDData.hpp</text>
</a>
</g>
</g>
<!-- Node3&#45;&gt;Node4 -->
<g id="edge3_Node000003_Node000004" class="edge">
<title>Node3&#45;&gt;Node4</title>
<g id="a_edge3_Node000003_Node000004"><a xlink:title=" ">
<path fill="none" stroke="#63b8ff" d="M84,-131.87C84,-125.11 84,-115.35 84,-106.26"/>
<polygon fill="#63b8ff" stroke="#63b8ff" points="87.5,-106.11 84,-96.11 80.5,-106.11 87.5,-106.11"/>
</a>
</g>
</g>
<!-- Node5 -->
<g id="Node000005" class="node">
<title>Node5</title>
<g id="a_Node000005"><a xlink:title=" ">
<polygon fill="#e0e0e0" stroke="#999999" points="78,-24.5 0,-24.5 0,-5.5 78,-5.5 78,-24.5"/>
<text text-anchor="middle" x="39" y="-12.5" font-family="Helvetica,sans-Serif" font-size="10.00">glm/glm.hpp</text>
</a>
</g>
</g>
<!-- Node4&#45;&gt;Node5 -->
<g id="edge4_Node000004_Node000005" class="edge">
<title>Node4&#45;&gt;Node5</title>
<g id="a_edge4_Node000004_Node000005"><a xlink:title=" ">
<path fill="none" stroke="#63b8ff" d="M74.01,-65.8C67.27,-56.21 58.34,-43.5 51.18,-33.32"/>
<polygon fill="#63b8ff" stroke="#63b8ff" points="53.83,-31.01 45.22,-24.84 48.11,-35.04 53.83,-31.01"/>
</a>
</g>
</g>
<!-- Node6 -->
<g id="Node000006" class="node">
<title>Node6</title>
<g id="a_Node000006"><a xlink:title=" ">
<polygon fill="#e0e0e0" stroke="#999999" points="161.5,-24.5 96.5,-24.5 96.5,-5.5 161.5,-5.5 161.5,-24.5"/>
<text text-anchor="middle" x="129" y="-12.5" font-family="Helvetica,sans-Serif" font-size="10.00">typeindex</text>
</a>
</g>
</g>
<!-- Node4&#45;&gt;Node6 -->
<g id="edge5_Node000004_Node000006" class="edge">
<title>Node4&#45;&gt;Node6</title>
<g id="a_edge5_Node000004_Node000006"><a xlink:title=" ">
<path fill="none" stroke="#63b8ff" d="M93.99,-65.8C100.73,-56.21 109.66,-43.5 116.82,-33.32"/>
<polygon fill="#63b8ff" stroke="#63b8ff" points="119.89,-35.04 122.78,-24.84 114.17,-31.01 119.89,-35.04"/>
</a>
</g>
</g>
<!-- Node10 -->
<g id="Node000010" class="node">
<title>Node10</title>
<g id="a_Node000010"><a xlink:href="Clock_8hpp.html" target="_top" xlink:title=" ">
<polygon fill="white" stroke="#666666" points="441.5,-151 376.5,-151 376.5,-132 441.5,-132 441.5,-151"/>
<text text-anchor="middle" x="409" y="-139" font-family="Helvetica,sans-Serif" font-size="10.00">Clock.hpp</text>
</a>
</g>
</g>
<!-- Node9&#45;&gt;Node10 -->
<g id="edge9_Node000009_Node000010" class="edge">
<title>Node9&#45;&gt;Node10</title>
<g id="a_edge9_Node000009_Node000010"><a xlink:title=" ">
<path fill="none" stroke="#63b8ff" d="M409,-186.75C409,-179.8 409,-169.85 409,-161.13"/>
<polygon fill="#63b8ff" stroke="#63b8ff" points="412.5,-161.09 409,-151.09 405.5,-161.09 412.5,-161.09"/>
</a>
</g>
</g>
<!-- Node11 -->
<g id="Node000011" class="node">
<title>Node11</title>
<g id="a_Node000011"><a xlink:href="Routine_8hpp.html" target="_top" xlink:title=" ">
<polygon fill="white" stroke="#666666" points="534.5,-151 459.5,-151 459.5,-132 534.5,-132 534.5,-151"/>
<text text-anchor="middle" x="497" y="-139" font-family="Helvetica,sans-Serif" font-size="10.00">Routine.hpp</text>
</a>
</g>
</g>
<!-- Node9&#45;&gt;Node11 -->
<g id="edge10_Node000009_Node000011" class="edge">
<title>Node9&#45;&gt;Node11</title>
<g id="a_edge10_Node000009_Node000011"><a xlink:title=" ">
<path fill="none" stroke="#63b8ff" d="M423.14,-186.98C436.79,-178.77 457.69,-166.18 473.78,-156.49"/>
<polygon fill="#63b8ff" stroke="#63b8ff" points="475.84,-159.33 482.6,-151.17 472.23,-153.33 475.84,-159.33"/>
</a>
</g>
</g>
<!-- Node12 -->
<g id="Node000012" class="node">
<title>Node12</title>
<g id="a_Node000012"><a xlink:href="Promise_8hpp.html" target="_top" xlink:title=" ">
<polygon fill="white" stroke="#666666" points="528.5,-90.5 451.5,-90.5 451.5,-71.5 528.5,-71.5 528.5,-90.5"/>
<text text-anchor="middle" x="490" y="-78.5" font-family="Helvetica,sans-Serif" font-size="10.00">Promise.hpp</text>
</a>
</g>
</g>
<!-- Node11&#45;&gt;Node12 -->
<g id="edge11_Node000011_Node000012" class="edge">
<title>Node11&#45;&gt;Node12</title>
<g id="a_edge11_Node000011_Node000012"><a xlink:title=" ">
<path fill="none" stroke="#63b8ff" d="M495.97,-131.87C495,-123.75 493.51,-111.31 492.26,-100.89"/>
<polygon fill="#63b8ff" stroke="#63b8ff" points="495.7,-100.18 491.04,-90.67 488.75,-101.01 495.7,-100.18"/>
</a>
</g>
</g>
<!-- Node12&#45;&gt;Node8 -->
<g id="edge13_Node000012_Node000008" class="edge">
<title>Node12&#45;&gt;Node8</title>
<g id="a_edge13_Node000012_Node000008"><a xlink:title=" ">
<path fill="none" stroke="#63b8ff" d="M471.79,-71.37C451.92,-61.95 419.52,-46.59 393.88,-34.43"/>
<polygon fill="#63b8ff" stroke="#63b8ff" points="395.31,-31.24 384.78,-30.12 392.31,-37.56 395.31,-31.24"/>
</a>
</g>
</g>
<!-- Node13 -->
<g id="Node000013" class="node">
<title>Node13</title>
<g id="a_Node000013"><a xlink:title=" ">
<polygon fill="#e0e0e0" stroke="#999999" points="521,-24.5 459,-24.5 459,-5.5 521,-5.5 521,-24.5"/>
<text text-anchor="middle" x="490" y="-12.5" font-family="Helvetica,sans-Serif" font-size="10.00">coroutine</text>
</a>
</g>
</g>
<!-- Node12&#45;&gt;Node13 -->
<g id="edge12_Node000012_Node000013" class="edge">
<title>Node12&#45;&gt;Node13</title>
<g id="a_edge12_Node000012_Node000013"><a xlink:title=" ">
<path fill="none" stroke="#63b8ff" d="M490,-71.37C490,-62.16 490,-47.29 490,-35.27"/>
<polygon fill="#63b8ff" stroke="#63b8ff" points="493.5,-34.91 490,-24.91 486.5,-34.91 493.5,-34.91"/>
</a>
</g>
</g>
</g>
</svg>
