<?xml version="1.0" encoding="UTF-8" standalone="no"?>
<!DOCTYPE svg PUBLIC "-//W3C//DTD SVG 1.1//EN"
 "http://www.w3.org/Graphics/SVG/1.1/DTD/svg11.dtd">
<!-- Generated by graphviz version 2.43.0 (0)
 -->
<!-- Title: MayaFlux::Kakshya::PlotContainer::update_processing_state Pages: 1 -->
<svg width="455pt" height="230pt"
 viewBox="0.00 0.00 455.00 230.00" xmlns="http://www.w3.org/2000/svg" xmlns:xlink="http://www.w3.org/1999/xlink">
<g id="graph0" class="graph" transform="scale(1 1) rotate(0) translate(4 226)">
<title>MayaFlux::Kakshya::PlotContainer::update_processing_state</title>
<!-- Node1 -->
<g id="Node000001" class="node">
<title>Node1</title>
<g id="a_Node000001"><a xlink:title="Update the processing state of the container.">
<polygon fill="#999999" stroke="#666666" points="447,-131.5 325,-131.5 325,-90.5 447,-90.5 447,-131.5"/>
<text text-anchor="start" x="333" y="-119.5" font-family="Helvetica,sans-Serif" font-size="10.00">MayaFlux::Kakshya::</text>
<text text-anchor="start" x="333" y="-108.5" font-family="Helvetica,sans-Serif" font-size="10.00">PlotContainer::update</text>
<text text-anchor="middle" x="386" y="-97.5" font-family="Helvetica,sans-Serif" font-size="10.00">_processing_state</text>
</a>
</g>
</g>
<!-- Node2 -->
<g id="Node000002" class="node">
<title>Node2</title>
<g id="a_Node000002"><a xlink:href="classMayaFlux_1_1Kakshya_1_1PlotContainer_ac7030f8e52cf42f82f07a12da89f9bea.html#ac7030f8e52cf42f82f07a12da89f9bea" target="_top" xlink:title="Clear all data in the container.">
<polygon fill="white" stroke="#666666" points="285.5,-180 166.5,-180 166.5,-150 285.5,-150 285.5,-180"/>
<text text-anchor="start" x="174.5" y="-168" font-family="Helvetica,sans-Serif" font-size="10.00">MayaFlux::Kakshya::</text>
<text text-anchor="middle" x="226" y="-157" font-family="Helvetica,sans-Serif" font-size="10.00">PlotContainer::clear</text>
</a>
</g>
</g>
<!-- Node1&#45;&gt;Node2 -->
<g id="edge1_Node000001_Node000002" class="edge">
<title>Node1&#45;&gt;Node2</title>
<g id="a_edge1_Node000001_Node000002"><a xlink:title=" ">
<path fill="none" stroke="#63b8ff" d="M315.12,-134.88C300.23,-139.97 284.9,-145.21 271.29,-149.86"/>
<polygon fill="#63b8ff" stroke="#63b8ff" points="316.49,-138.12 324.82,-131.57 314.22,-131.49 316.49,-138.12"/>
</a>
</g>
</g>
<!-- Node3 -->
<g id="Node000003" class="node">
<title>Node3</title>
<g id="a_Node000003"><a xlink:href="classMayaFlux_1_1Kakshya_1_1PlotContainer_a24a62108828e0700c77eae7bb24b430f.html#a24a62108828e0700c77eae7bb24b430f" target="_top" xlink:title="Mark the container as ready or not ready for processing.">
<polygon fill="white" stroke="#666666" points="289,-131.5 163,-131.5 163,-90.5 289,-90.5 289,-131.5"/>
<text text-anchor="start" x="171" y="-119.5" font-family="Helvetica,sans-Serif" font-size="10.00">MayaFlux::Kakshya::</text>
<text text-anchor="start" x="171" y="-108.5" font-family="Helvetica,sans-Serif" font-size="10.00">PlotContainer::mark</text>
<text text-anchor="middle" x="226" y="-97.5" font-family="Helvetica,sans-Serif" font-size="10.00">_ready_for_processing</text>
</a>
</g>
</g>
<!-- Node1&#45;&gt;Node3 -->
<g id="edge2_Node000001_Node000003" class="edge">
<title>Node1&#45;&gt;Node3</title>
<g id="a_edge2_Node000001_Node000003"><a xlink:title=" ">
<path fill="none" stroke="#63b8ff" d="M314.56,-111C306.08,-111 297.47,-111 289.11,-111"/>
<polygon fill="#63b8ff" stroke="#63b8ff" points="314.82,-114.5 324.82,-111 314.82,-107.5 314.82,-114.5"/>
</a>
</g>
</g>
<!-- Node9 -->
<g id="Node000009" class="node">
<title>Node9</title>
<g id="a_Node000009"><a xlink:href="classMayaFlux_1_1Kakshya_1_1PlotContainer_aa931e0aa5ed93afec6f20a720c60ba16.html#aa931e0aa5ed93afec6f20a720c60ba16" target="_top" xlink:title="Process the container&#39;s data using the default processor.">
<polygon fill="white" stroke="#666666" points="289,-72.5 163,-72.5 163,-31.5 289,-31.5 289,-72.5"/>
<text text-anchor="start" x="171" y="-60.5" font-family="Helvetica,sans-Serif" font-size="10.00">MayaFlux::Kakshya::</text>
<text text-anchor="start" x="171" y="-49.5" font-family="Helvetica,sans-Serif" font-size="10.00">PlotContainer::process</text>
<text text-anchor="middle" x="226" y="-38.5" font-family="Helvetica,sans-Serif" font-size="10.00">_default</text>
</a>
</g>
</g>
<!-- Node1&#45;&gt;Node9 -->
<g id="edge8_Node000001_Node000009" class="edge">
<title>Node1&#45;&gt;Node9</title>
<g id="a_edge8_Node000001_Node000009"><a xlink:title=" ">
<path fill="none" stroke="#63b8ff" d="M320.16,-86.79C307.48,-82.05 294.29,-77.13 281.96,-72.52"/>
<polygon fill="#63b8ff" stroke="#63b8ff" points="319.15,-90.15 329.74,-90.36 321.6,-83.59 319.15,-90.15"/>
</a>
</g>
</g>
<!-- Node4 -->
<g id="Node000004" class="node">
<title>Node4</title>
<g id="a_Node000004"><a xlink:href="classMayaFlux_1_1Kakshya_1_1PlotContainer_acb65a08627ab0c088d2b7194d3cba36c.html#acb65a08627ab0c088d2b7194d3cba36c" target="_top" xlink:title="Bind a series to a callable.">
<polygon fill="white" stroke="#666666" points="123,-222 4,-222 4,-192 123,-192 123,-222"/>
<text text-anchor="start" x="12" y="-210" font-family="Helvetica,sans-Serif" font-size="10.00">MayaFlux::Kakshya::</text>
<text text-anchor="middle" x="63.5" y="-199" font-family="Helvetica,sans-Serif" font-size="10.00">PlotContainer::bind</text>
</a>
</g>
</g>
<!-- Node3&#45;&gt;Node4 -->
<g id="edge3_Node000003_Node000004" class="edge">
<title>Node3&#45;&gt;Node4</title>
<g id="a_edge3_Node000003_Node000004"><a xlink:title=" ">
<path fill="none" stroke="#63b8ff" d="M168.51,-137.03C166.61,-138.31 164.77,-139.64 163,-141 143.52,-156 147.09,-168.83 127,-183 122.25,-186.35 116.97,-189.31 111.55,-191.9"/>
<polygon fill="#63b8ff" stroke="#63b8ff" points="170.46,-139.93 177.08,-131.67 166.75,-134 170.46,-139.93"/>
</a>
</g>
</g>
<!-- Node5 -->
<g id="Node000005" class="node">
<title>Node5</title>
<g id="a_Node000005"><a xlink:href="classMayaFlux_1_1Kakshya_1_1PlotContainer_a3ab1b0f9519a336ffdd30d8cfa3d26ad.html#a3ab1b0f9519a336ffdd30d8cfa3d26ad" target="_top" xlink:title="Bind a series to an AudioBuffer.">
<polygon fill="white" stroke="#666666" points="123,-174 4,-174 4,-144 123,-144 123,-174"/>
<text text-anchor="start" x="12" y="-162" font-family="Helvetica,sans-Serif" font-size="10.00">MayaFlux::Kakshya::</text>
<text text-anchor="middle" x="63.5" y="-151" font-family="Helvetica,sans-Serif" font-size="10.00">PlotContainer::bind</text>
</a>
</g>
</g>
<!-- Node3&#45;&gt;Node5 -->
<g id="edge4_Node000003_Node000005" class="edge">
<title>Node3&#45;&gt;Node5</title>
<g id="a_edge4_Node000003_Node000005"><a xlink:title=" ">
<path fill="none" stroke="#63b8ff" d="M153.11,-132.5C140.15,-136.38 126.89,-140.34 114.72,-143.98"/>
<polygon fill="#63b8ff" stroke="#63b8ff" points="154.37,-135.78 162.95,-129.56 152.36,-129.07 154.37,-135.78"/>
</a>
</g>
</g>
<!-- Node6 -->
<g id="Node000006" class="node">
<title>Node6</title>
<g id="a_Node000006"><a xlink:href="classMayaFlux_1_1Kakshya_1_1PlotContainer_a91ea704eb99083d5316b68b514226f29.html#a91ea704eb99083d5316b68b514226f29" target="_top" xlink:title="Bind a series to a NodeNetwork with audio output.">
<polygon fill="white" stroke="#666666" points="123,-126 4,-126 4,-96 123,-96 123,-126"/>
<text text-anchor="start" x="12" y="-114" font-family="Helvetica,sans-Serif" font-size="10.00">MayaFlux::Kakshya::</text>
<text text-anchor="middle" x="63.5" y="-103" font-family="Helvetica,sans-Serif" font-size="10.00">PlotContainer::bind</text>
</a>
</g>
</g>
<!-- Node3&#45;&gt;Node6 -->
<g id="edge5_Node000003_Node000006" class="edge">
<title>Node3&#45;&gt;Node6</title>
<g id="a_edge5_Node000003_Node000006"><a xlink:title=" ">
<path fill="none" stroke="#63b8ff" d="M152.74,-111C142.86,-111 132.82,-111 123.23,-111"/>
<polygon fill="#63b8ff" stroke="#63b8ff" points="152.95,-114.5 162.95,-111 152.95,-107.5 152.95,-114.5"/>
</a>
</g>
</g>
<!-- Node7 -->
<g id="Node000007" class="node">
<title>Node7</title>
<g id="a_Node000007"><a xlink:href="classMayaFlux_1_1Kakshya_1_1PlotContainer_a0072a7307529a0ac932725dd009866e1.html#a0072a7307529a0ac932725dd009866e1" target="_top" xlink:title="Bind a series to a Node.">
<polygon fill="white" stroke="#666666" points="123,-78 4,-78 4,-48 123,-48 123,-78"/>
<text text-anchor="start" x="12" y="-66" font-family="Helvetica,sans-Serif" font-size="10.00">MayaFlux::Kakshya::</text>
<text text-anchor="middle" x="63.5" y="-55" font-family="Helvetica,sans-Serif" font-size="10.00">PlotContainer::bind</text>
</a>
</g>
</g>
<!-- Node3&#45;&gt;Node7 -->
<g id="edge6_Node000003_Node000007" class="edge">
<title>Node3&#45;&gt;Node7</title>
<g id="a_edge6_Node000003_Node000007"><a xlink:title=" ">
<path fill="none" stroke="#63b8ff" d="M153.11,-89.5C140.15,-85.62 126.89,-81.66 114.72,-78.02"/>
<polygon fill="#63b8ff" stroke="#63b8ff" points="152.36,-92.93 162.95,-92.44 154.37,-86.22 152.36,-92.93"/>
</a>
</g>
</g>
<!-- Node8 -->
<g id="Node000008" class="node">
<title>Node8</title>
<g id="a_Node000008"><a xlink:href="classMayaFlux_1_1Kakshya_1_1PlotContainer_ae3eb0422e37baf35f124e7d60942b354.html#ae3eb0422e37baf35f124e7d60942b354" target="_top" xlink:title="Push raw sample data into a series.">
<polygon fill="white" stroke="#666666" points="127,-30 0,-30 0,0 127,0 127,-30"/>
<text text-anchor="start" x="8" y="-18" font-family="Helvetica,sans-Serif" font-size="10.00">MayaFlux::Kakshya::</text>
<text text-anchor="middle" x="63.5" y="-7" font-family="Helvetica,sans-Serif" font-size="10.00">PlotContainer::set_raw</text>
</a>
</g>
</g>
<!-- Node3&#45;&gt;Node8 -->
<g id="edge7_Node000003_Node000008" class="edge">
<title>Node3&#45;&gt;Node8</title>
<g id="a_edge7_Node000003_Node000008"><a xlink:title=" ">
<path fill="none" stroke="#63b8ff" d="M167.2,-85.06C165.76,-84.07 164.36,-83.05 163,-82 143.24,-66.8 147.28,-53.49 127,-39 122.27,-35.62 117,-32.65 111.59,-30.05"/>
<polygon fill="#63b8ff" stroke="#63b8ff" points="165.43,-88.08 175.75,-90.46 169.17,-82.16 165.43,-88.08"/>
</a>
</g>
</g>
</g>
</svg>
