<?xml version="1.0" encoding="UTF-8" standalone="no"?>
<!DOCTYPE svg PUBLIC "-//W3C//DTD SVG 1.1//EN"
 "http://www.w3.org/Graphics/SVG/1.1/DTD/svg11.dtd">
<!-- Generated by graphviz version 2.43.0 (0)
 -->
<!-- Title: MayaFlux::Yantra::StatisticalAnalyzer::analyze_implementation Pages: 1 -->
<svg width="980pt" height="1320pt"
 viewBox="0.00 0.00 980.00 1320.00" xmlns="http://www.w3.org/2000/svg" xmlns:xlink="http://www.w3.org/1999/xlink">
<g id="graph0" class="graph" transform="scale(1 1) rotate(0) translate(4 1316)">
<title>MayaFlux::Yantra::StatisticalAnalyzer::analyze_implementation</title>
<!-- Node1 -->
<g id="Node000001" class="node">
<title>Node1</title>
<g id="a_Node000001"><a xlink:title="Core analysis implementation &#45; creates analysis result AND pipeline output.">
<polygon fill="#999999" stroke="#666666" points="187,-321 0,-321 0,-291 187,-291 187,-321"/>
<text text-anchor="start" x="8" y="-309" font-family="Helvetica,sans-Serif" font-size="10.00">MayaFlux::Yantra::Statistical</text>
<text text-anchor="middle" x="93.5" y="-298" font-family="Helvetica,sans-Serif" font-size="10.00">Analyzer::analyze_implementation</text>
</a>
</g>
</g>
<!-- Node2 -->
<g id="Node000002" class="node">
<title>Node2</title>
<g id="a_Node000002"><a xlink:href="classMayaFlux_1_1Yantra_1_1StatisticalAnalyzer_ac6b9656bbc2b37d4603de52ef0115d85.html#ac6b9656bbc2b37d4603de52ef0115d85" target="_top" xlink:title="Compute statistical values using span (zero&#45;copy processing)">
<polygon fill="white" stroke="#666666" points="422,-636 223,-636 223,-606 422,-606 422,-636"/>
<text text-anchor="start" x="231" y="-624" font-family="Helvetica,sans-Serif" font-size="10.00">MayaFlux::Yantra::Statistical</text>
<text text-anchor="middle" x="322.5" y="-613" font-family="Helvetica,sans-Serif" font-size="10.00">Analyzer::compute_statistical_values</text>
</a>
</g>
</g>
<!-- Node1&#45;&gt;Node2 -->
<g id="edge1_Node000001_Node000002" class="edge">
<title>Node1&#45;&gt;Node2</title>
<g id="a_edge1_Node000001_Node000002"><a xlink:title=" ">
<path fill="none" stroke="#63b8ff" d="M105.45,-321.19C142.08,-372.03 260.55,-536.42 304.7,-597.69"/>
<polygon fill="#63b8ff" stroke="#63b8ff" points="301.98,-599.89 310.66,-605.96 307.65,-595.8 301.98,-599.89"/>
</a>
</g>
</g>
<!-- Node24 -->
<g id="Node000024" class="node">
<title>Node24</title>
<g id="a_Node000024"><a xlink:href="classMayaFlux_1_1Yantra_1_1StatisticalAnalyzer_a853e8c531c62174e89938bf0eae8a7d9.html#a853e8c531c62174e89938bf0eae8a7d9" target="_top" xlink:title="Create comprehensive analysis result.">
<polygon fill="white" stroke="#666666" points="410,-1127 235,-1127 235,-1097 410,-1097 410,-1127"/>
<text text-anchor="start" x="243" y="-1115" font-family="Helvetica,sans-Serif" font-size="10.00">MayaFlux::Yantra::Statistical</text>
<text text-anchor="middle" x="322.5" y="-1104" font-family="Helvetica,sans-Serif" font-size="10.00">Analyzer::create_analysis_result</text>
</a>
</g>
</g>
<!-- Node1&#45;&gt;Node24 -->
<g id="edge40_Node000001_Node000024" class="edge">
<title>Node1&#45;&gt;Node24</title>
<g id="a_edge40_Node000001_Node000024"><a xlink:title=" ">
<path fill="none" stroke="#63b8ff" d="M98.73,-321.03C126.24,-418.71 279.65,-963.4 314.47,-1087.04"/>
<polygon fill="#63b8ff" stroke="#63b8ff" points="311.13,-1088.08 317.21,-1096.75 317.86,-1086.18 311.13,-1088.08"/>
</a>
</g>
</g>
<!-- Node26 -->
<g id="Node000026" class="node">
<title>Node26</title>
<g id="a_Node000026"><a xlink:href="classMayaFlux_1_1Yantra_1_1StatisticalAnalyzer_ad6f638b9c42a1ada446cedd0a2cbbd12.html#ad6f638b9c42a1ada446cedd0a2cbbd12" target="_top" xlink:title="Create pipeline output for operation chaining.">
<polygon fill="white" stroke="#666666" points="411,-321 234,-321 234,-291 411,-291 411,-321"/>
<text text-anchor="start" x="242" y="-309" font-family="Helvetica,sans-Serif" font-size="10.00">MayaFlux::Yantra::Statistical</text>
<text text-anchor="middle" x="322.5" y="-298" font-family="Helvetica,sans-Serif" font-size="10.00">Analyzer::create_pipeline_output</text>
</a>
</g>
</g>
<!-- Node1&#45;&gt;Node26 -->
<g id="edge48_Node000001_Node000026" class="edge">
<title>Node1&#45;&gt;Node26</title>
<g id="a_edge48_Node000001_Node000026"><a xlink:title=" ">
<path fill="none" stroke="#63b8ff" d="M187.16,-306C199.22,-306 211.62,-306 223.77,-306"/>
<polygon fill="#63b8ff" stroke="#63b8ff" points="223.9,-309.5 233.9,-306 223.9,-302.5 223.9,-309.5"/>
</a>
</g>
</g>
<!-- Node31 -->
<g id="Node000031" class="node">
<title>Node31</title>
<g id="a_Node000031"><a xlink:href="classMayaFlux_1_1Yantra_1_1OperationHelper_a86f4c84e8740ec41db439c868a93454a.html#a86f4c84e8740ec41db439c868a93454a" target="_top" xlink:title="Extract structured double data from Datum container or direct ComputeData with automatic container ha...">
<polygon fill="white" stroke="#666666" points="413.5,-273 231.5,-273 231.5,-243 413.5,-243 413.5,-273"/>
<text text-anchor="start" x="239.5" y="-261" font-family="Helvetica,sans-Serif" font-size="10.00">MayaFlux::Yantra::Operation</text>
<text text-anchor="middle" x="322.5" y="-250" font-family="Helvetica,sans-Serif" font-size="10.00">Helper::extract_structured_double</text>
</a>
</g>
</g>
<!-- Node1&#45;&gt;Node31 -->
<g id="edge53_Node000001_Node000031" class="edge">
<title>Node1&#45;&gt;Node31</title>
<g id="a_edge53_Node000001_Node000031"><a xlink:title=" ">
<path fill="none" stroke="#63b8ff" d="M165.7,-290.94C189.47,-285.92 216.13,-280.28 240.58,-275.11"/>
<polygon fill="#63b8ff" stroke="#63b8ff" points="241.49,-278.5 250.55,-273 240.04,-271.65 241.49,-278.5"/>
</a>
</g>
</g>
<!-- Node32 -->
<g id="Node000032" class="node">
<title>Node32</title>
<g id="a_Node000032"><a xlink:href="classMayaFlux_1_1Yantra_1_1UniversalAnalyzer_a8305bc7cd4bc78dfedb1c53d50826670.html#a8305bc7cd4bc78dfedb1c53d50826670" target="_top" xlink:title=" ">
<polygon fill="white" stroke="#666666" points="399,-224.5 246,-224.5 246,-183.5 399,-183.5 399,-224.5"/>
<text text-anchor="start" x="254" y="-212.5" font-family="Helvetica,sans-Serif" font-size="10.00">MayaFlux::Yantra::Universal</text>
<text text-anchor="start" x="254" y="-201.5" font-family="Helvetica,sans-Serif" font-size="10.00">Analyzer::store_current</text>
<text text-anchor="middle" x="322.5" y="-190.5" font-family="Helvetica,sans-Serif" font-size="10.00">_analysis</text>
</a>
</g>
</g>
<!-- Node1&#45;&gt;Node32 -->
<g id="edge54_Node000001_Node000032" class="edge">
<title>Node1&#45;&gt;Node32</title>
<g id="a_edge54_Node000001_Node000032"><a xlink:title=" ">
<path fill="none" stroke="#63b8ff" d="M117.87,-290.87C143.05,-275.07 184.66,-250.35 223,-234 227.93,-231.9 233.06,-229.87 238.27,-227.94"/>
<polygon fill="#63b8ff" stroke="#63b8ff" points="239.48,-231.23 247.72,-224.56 237.13,-224.63 239.48,-231.23"/>
</a>
</g>
</g>
<!-- Node3 -->
<g id="Node000003" class="node">
<title>Node3</title>
<g id="a_Node000003"><a xlink:href="classMayaFlux_1_1Yantra_1_1StatisticalAnalyzer_adc8986106dee05e89603eb8933e5c2f7.html#adc8986106dee05e89603eb8933e5c2f7" target="_top" xlink:title="Calculate number of windows for given data size.">
<polygon fill="white" stroke="#666666" points="643,-126 458,-126 458,-96 643,-96 643,-126"/>
<text text-anchor="start" x="466" y="-114" font-family="Helvetica,sans-Serif" font-size="10.00">MayaFlux::Yantra::Statistical</text>
<text text-anchor="middle" x="550.5" y="-103" font-family="Helvetica,sans-Serif" font-size="10.00">Analyzer::calculate_num_windows</text>
</a>
</g>
</g>
<!-- Node2&#45;&gt;Node3 -->
<g id="edge2_Node000002_Node000003" class="edge">
<title>Node2&#45;&gt;Node3</title>
<g id="a_edge2_Node000002_Node000003"><a xlink:title=" ">
<path fill="none" stroke="#63b8ff" d="M329.52,-605.78C346.27,-562.97 394.01,-437.63 422,-330 444.19,-244.71 398.03,-199.58 458,-135 458.78,-134.16 459.59,-133.34 460.42,-132.56"/>
<polygon fill="#63b8ff" stroke="#63b8ff" points="462.81,-135.13 468.49,-126.18 458.47,-129.63 462.81,-135.13"/>
</a>
</g>
</g>
<!-- Node4 -->
<g id="Node000004" class="node">
<title>Node4</title>
<g id="a_Node000004"><a xlink:href="namespaceMayaFlux_1_1Kinesis_1_1Discrete_a202a4ceffcbf4e8085f73395be1740b8.html#a202a4ceffcbf4e8085f73395be1740b8" target="_top" xlink:title="Coefficient of variation (std_dev / mean) per window.">
<polygon fill="white" stroke="#666666" points="607.5,-383.5 493.5,-383.5 493.5,-342.5 607.5,-342.5 607.5,-383.5"/>
<text text-anchor="start" x="501.5" y="-371.5" font-family="Helvetica,sans-Serif" font-size="10.00">MayaFlux::Kinesis::</text>
<text text-anchor="start" x="501.5" y="-360.5" font-family="Helvetica,sans-Serif" font-size="10.00">Discrete::coefficient</text>
<text text-anchor="middle" x="550.5" y="-349.5" font-family="Helvetica,sans-Serif" font-size="10.00">_of_variation</text>
</a>
</g>
</g>
<!-- Node2&#45;&gt;Node4 -->
<g id="edge3_Node000002_Node000004" class="edge">
<title>Node2&#45;&gt;Node4</title>
<g id="a_edge3_Node000002_Node000004"><a xlink:title=" ">
<path fill="none" stroke="#63b8ff" d="M329.84,-605.92C346.15,-568.6 392.9,-470.69 458,-411 467.39,-402.39 478.61,-394.86 489.92,-388.48"/>
<polygon fill="#63b8ff" stroke="#63b8ff" points="491.84,-391.43 498.99,-383.61 488.52,-385.26 491.84,-391.43"/>
</a>
</g>
</g>
<!-- Node7 -->
<g id="Node000007" class="node">
<title>Node7</title>
<g id="a_Node000007"><a xlink:href="namespaceMayaFlux_1_1Kinesis_1_1Discrete_ab6ab26c7bf0e5d7e17aa070b38a88220.html#ab6ab26c7bf0e5d7e17aa070b38a88220" target="_top" xlink:title="Sample count per window (as double for pipeline uniformity)">
<polygon fill="white" stroke="#666666" points="606.5,-450 494.5,-450 494.5,-420 606.5,-420 606.5,-450"/>
<text text-anchor="start" x="502.5" y="-438" font-family="Helvetica,sans-Serif" font-size="10.00">MayaFlux::Kinesis::</text>
<text text-anchor="middle" x="550.5" y="-427" font-family="Helvetica,sans-Serif" font-size="10.00">Discrete::count</text>
</a>
</g>
</g>
<!-- Node2&#45;&gt;Node7 -->
<g id="edge7_Node000002_Node000007" class="edge">
<title>Node2&#45;&gt;Node7</title>
<g id="a_edge7_Node000002_Node000007"><a xlink:title=" ">
<path fill="none" stroke="#63b8ff" d="M331.68,-605.81C349.88,-573.53 396.95,-497.89 458,-459 466.12,-453.83 475.32,-449.76 484.68,-446.57"/>
<polygon fill="#63b8ff" stroke="#63b8ff" points="485.93,-449.85 494.46,-443.56 483.87,-443.16 485.93,-449.85"/>
</a>
</g>
</g>
<!-- Node8 -->
<g id="Node000008" class="node">
<title>Node8</title>
<g id="a_Node000008"><a xlink:href="namespaceMayaFlux_1_1Kinesis_1_1Discrete_a4e5c09bc2d977fe11b61be40851b6c2e.html#a4e5c09bc2d977fe11b61be40851b6c2e" target="_top" xlink:title="Shannon entropy per window using Sturges&#45;rule histogram.">
<polygon fill="white" stroke="#666666" points="606.5,-306 494.5,-306 494.5,-276 606.5,-276 606.5,-306"/>
<text text-anchor="start" x="502.5" y="-294" font-family="Helvetica,sans-Serif" font-size="10.00">MayaFlux::Kinesis::</text>
<text text-anchor="middle" x="550.5" y="-283" font-family="Helvetica,sans-Serif" font-size="10.00">Discrete::entropy</text>
</a>
</g>
</g>
<!-- Node2&#45;&gt;Node8 -->
<g id="edge8_Node000002_Node000008" class="edge">
<title>Node2&#45;&gt;Node8</title>
<g id="a_edge8_Node000002_Node000008"><a xlink:title=" ">
<path fill="none" stroke="#63b8ff" d="M326.75,-605.79C337.42,-559.19 375.56,-416.53 458,-334 467.78,-324.21 480.22,-316.37 492.75,-310.21"/>
<polygon fill="#63b8ff" stroke="#63b8ff" points="494.23,-313.38 501.85,-306.01 491.31,-307.02 494.23,-313.38"/>
</a>
</g>
</g>
<!-- Node9 -->
<g id="Node000009" class="node">
<title>Node9</title>
<g id="a_Node000009"><a xlink:href="namespaceMayaFlux_1_1Kinesis_1_1Discrete_ad5688f2a766f5ba58a2bd6a00d5134f2.html#ad5688f2a766f5ba58a2bd6a00d5134f2" target="_top" xlink:title="Excess kurtosis (fourth central moment &#45; 3) per window.">
<polygon fill="white" stroke="#666666" points="606.5,-1160 494.5,-1160 494.5,-1130 606.5,-1130 606.5,-1160"/>
<text text-anchor="start" x="502.5" y="-1148" font-family="Helvetica,sans-Serif" font-size="10.00">MayaFlux::Kinesis::</text>
<text text-anchor="middle" x="550.5" y="-1137" font-family="Helvetica,sans-Serif" font-size="10.00">Discrete::kurtosis</text>
</a>
</g>
</g>
<!-- Node2&#45;&gt;Node9 -->
<g id="edge10_Node000002_Node000009" class="edge">
<title>Node2&#45;&gt;Node9</title>
<g id="a_edge10_Node000002_Node000009"><a xlink:title=" ">
<path fill="none" stroke="#63b8ff" d="M325.5,-636.03C335.85,-711.57 385.63,-1049.08 458,-1121 465.42,-1128.37 474.8,-1133.56 484.72,-1137.19"/>
<polygon fill="#63b8ff" stroke="#63b8ff" points="483.75,-1140.56 494.34,-1140.22 485.85,-1133.88 483.75,-1140.56"/>
</a>
</g>
</g>
<!-- Node10 -->
<g id="Node000010" class="node">
<title>Node10</title>
<g id="a_Node000010"><a xlink:href="namespaceMayaFlux_1_1Kinesis_1_1Discrete_aa366a73d24d8d4d6c6b3e34fa1330010.html#aa366a73d24d8d4d6c6b3e34fa1330010" target="_top" xlink:title="Median absolute deviation per window.">
<polygon fill="white" stroke="#666666" points="606.5,-240 494.5,-240 494.5,-210 606.5,-210 606.5,-240"/>
<text text-anchor="start" x="502.5" y="-228" font-family="Helvetica,sans-Serif" font-size="10.00">MayaFlux::Kinesis::</text>
<text text-anchor="middle" x="550.5" y="-217" font-family="Helvetica,sans-Serif" font-size="10.00">Discrete::mad</text>
</a>
</g>
</g>
<!-- Node2&#45;&gt;Node10 -->
<g id="edge12_Node000002_Node000010" class="edge">
<title>Node2&#45;&gt;Node10</title>
<g id="a_edge12_Node000002_Node000010"><a xlink:title=" ">
<path fill="none" stroke="#63b8ff" d="M328.52,-605.77C349.86,-541.41 433.02,-293.71 458,-267 466.67,-257.73 477.77,-250.34 489.24,-244.51"/>
<polygon fill="#63b8ff" stroke="#63b8ff" points="490.92,-247.59 498.48,-240.16 487.94,-241.26 490.92,-247.59"/>
</a>
</g>
</g>
<!-- Node11 -->
<g id="Node000011" class="node">
<title>Node11</title>
<g id="a_Node000011"><a xlink:href="namespaceMayaFlux_1_1Kinesis_1_1Discrete_a36874cd6d5db1b2e1769c5fcfd562e3e.html#a36874cd6d5db1b2e1769c5fcfd562e3e" target="_top" xlink:title="Maximum value per window.">
<polygon fill="white" stroke="#666666" points="606.5,-174 494.5,-174 494.5,-144 606.5,-144 606.5,-174"/>
<text text-anchor="start" x="502.5" y="-162" font-family="Helvetica,sans-Serif" font-size="10.00">MayaFlux::Kinesis::</text>
<text text-anchor="middle" x="550.5" y="-151" font-family="Helvetica,sans-Serif" font-size="10.00">Discrete::max</text>
</a>
</g>
</g>
<!-- Node2&#45;&gt;Node11 -->
<g id="edge14_Node000002_Node000011" class="edge">
<title>Node2&#45;&gt;Node11</title>
<g id="a_edge14_Node000002_Node000011"><a xlink:title=" ">
<path fill="none" stroke="#63b8ff" d="M328.92,-605.95C344.28,-563.07 389.14,-436.52 422,-330 439.55,-273.12 419.37,-246.28 458,-201 465.89,-191.75 476.24,-184.43 487.14,-178.67"/>
<polygon fill="#63b8ff" stroke="#63b8ff" points="488.91,-181.7 496.38,-174.19 485.85,-175.41 488.91,-181.7"/>
</a>
</g>
</g>
<!-- Node12 -->
<g id="Node000012" class="node">
<title>Node12</title>
<g id="a_Node000012"><a xlink:href="namespaceMayaFlux_1_1Kinesis_1_1Discrete_af50196710c144f7ee6c4ab9201202438.html#af50196710c144f7ee6c4ab9201202438" target="_top" xlink:title="Arithmetic mean per window.">
<polygon fill="white" stroke="#666666" points="606.5,-1226 494.5,-1226 494.5,-1196 606.5,-1196 606.5,-1226"/>
<text text-anchor="start" x="502.5" y="-1214" font-family="Helvetica,sans-Serif" font-size="10.00">MayaFlux::Kinesis::</text>
<text text-anchor="middle" x="550.5" y="-1203" font-family="Helvetica,sans-Serif" font-size="10.00">Discrete::mean</text>
</a>
</g>
</g>
<!-- Node2&#45;&gt;Node12 -->
<g id="edge16_Node000002_Node000012" class="edge">
<title>Node2&#45;&gt;Node12</title>
<g id="a_edge16_Node000002_Node000012"><a xlink:title=" ">
<path fill="none" stroke="#63b8ff" d="M326.63,-636.11C344.91,-724 437.66,-1166.19 458,-1187 465.31,-1194.48 474.64,-1199.72 484.53,-1203.38"/>
<polygon fill="#63b8ff" stroke="#63b8ff" points="483.56,-1206.74 494.15,-1206.42 485.67,-1200.07 483.56,-1206.74"/>
</a>
</g>
</g>
<!-- Node13 -->
<g id="Node000013" class="node">
<title>Node13</title>
<g id="a_Node000013"><a xlink:href="namespaceMayaFlux_1_1Kinesis_1_1Discrete_ae08b49d5d3b340ff0f5d1cb764ea5d10.html#ae08b49d5d3b340ff0f5d1cb764ea5d10" target="_top" xlink:title="Mean z&#45;score per window.">
<polygon fill="white" stroke="#666666" points="614.5,-858 486.5,-858 486.5,-828 614.5,-828 614.5,-858"/>
<text text-anchor="start" x="494.5" y="-846" font-family="Helvetica,sans-Serif" font-size="10.00">MayaFlux::Kinesis::</text>
<text text-anchor="middle" x="550.5" y="-835" font-family="Helvetica,sans-Serif" font-size="10.00">Discrete::mean_zscore</text>
</a>
</g>
</g>
<!-- Node2&#45;&gt;Node13 -->
<g id="edge18_Node000002_Node000013" class="edge">
<title>Node2&#45;&gt;Node13</title>
<g id="a_edge18_Node000002_Node000013"><a xlink:title=" ">
<path fill="none" stroke="#63b8ff" d="M329.33,-636.13C344.47,-673.39 388.77,-770.07 458,-819 463.68,-823.01 469.98,-826.35 476.54,-829.14"/>
<polygon fill="#63b8ff" stroke="#63b8ff" points="475.71,-832.57 486.3,-832.83 478.19,-826.02 475.71,-832.57"/>
</a>
</g>
</g>
<!-- Node14 -->
<g id="Node000014" class="node">
<title>Node14</title>
<g id="a_Node000014"><a xlink:href="namespaceMayaFlux_1_1Kinesis_1_1Discrete_adc3aa51d991e9b20ca3558ef96104395.html#adc3aa51d991e9b20ca3558ef96104395" target="_top" xlink:title="Median per window via nth_element partial sort.">
<polygon fill="white" stroke="#666666" points="606.5,-1094 494.5,-1094 494.5,-1064 606.5,-1064 606.5,-1094"/>
<text text-anchor="start" x="502.5" y="-1082" font-family="Helvetica,sans-Serif" font-size="10.00">MayaFlux::Kinesis::</text>
<text text-anchor="middle" x="550.5" y="-1071" font-family="Helvetica,sans-Serif" font-size="10.00">Discrete::median</text>
</a>
</g>
</g>
<!-- Node2&#45;&gt;Node14 -->
<g id="edge20_Node000002_Node000014" class="edge">
<title>Node2&#45;&gt;Node14</title>
<g id="a_edge20_Node000002_Node000014"><a xlink:title=" ">
<path fill="none" stroke="#63b8ff" d="M323.29,-636.36C323.32,-698.6 332.05,-934.47 458,-1055 465.39,-1062.07 474.59,-1067.12 484.29,-1070.71"/>
<polygon fill="#63b8ff" stroke="#63b8ff" points="483.52,-1074.14 494.11,-1073.84 485.65,-1067.47 483.52,-1074.14"/>
</a>
</g>
</g>
<!-- Node15 -->
<g id="Node000015" class="node">
<title>Node15</title>
<g id="a_Node000015"><a xlink:href="namespaceMayaFlux_1_1Kinesis_1_1Discrete_ad91c5a738f9cd53c5afba97bdef70e4f.html#ad91c5a738f9cd53c5afba97bdef70e4f" target="_top" xlink:title="Minimum value per window.">
<polygon fill="white" stroke="#666666" points="606.5,-792 494.5,-792 494.5,-762 606.5,-762 606.5,-792"/>
<text text-anchor="start" x="502.5" y="-780" font-family="Helvetica,sans-Serif" font-size="10.00">MayaFlux::Kinesis::</text>
<text text-anchor="middle" x="550.5" y="-769" font-family="Helvetica,sans-Serif" font-size="10.00">Discrete::min</text>
</a>
</g>
</g>
<!-- Node2&#45;&gt;Node15 -->
<g id="edge22_Node000002_Node000015" class="edge">
<title>Node2&#45;&gt;Node15</title>
<g id="a_edge22_Node000002_Node000015"><a xlink:title=" ">
<path fill="none" stroke="#63b8ff" d="M334.6,-636.24C355.53,-663.86 403.65,-722.15 458,-753 466.27,-757.69 475.48,-761.49 484.78,-764.56"/>
<polygon fill="#63b8ff" stroke="#63b8ff" points="483.88,-767.94 494.46,-767.5 485.91,-761.25 483.88,-767.94"/>
</a>
</g>
</g>
<!-- Node16 -->
<g id="Node000016" class="node">
<title>Node16</title>
<g id="a_Node000016"><a xlink:href="namespaceMayaFlux_1_1Kinesis_1_1Discrete_a8a9632407b2f535b5d92e919932b014d.html#a8a9632407b2f535b5d92e919932b014d" target="_top" xlink:title="Mode per window via tolerance&#45;bucketed frequency count.">
<polygon fill="white" stroke="#666666" points="606.5,-726 494.5,-726 494.5,-696 606.5,-696 606.5,-726"/>
<text text-anchor="start" x="502.5" y="-714" font-family="Helvetica,sans-Serif" font-size="10.00">MayaFlux::Kinesis::</text>
<text text-anchor="middle" x="550.5" y="-703" font-family="Helvetica,sans-Serif" font-size="10.00">Discrete::mode</text>
</a>
</g>
</g>
<!-- Node2&#45;&gt;Node16 -->
<g id="edge24_Node000002_Node000016" class="edge">
<title>Node2&#45;&gt;Node16</title>
<g id="a_edge24_Node000002_Node000016"><a xlink:title=" ">
<path fill="none" stroke="#63b8ff" d="M350.1,-636.03C376.74,-650.61 419.24,-672.57 458,-687 466.48,-690.16 475.54,-693.06 484.55,-695.69"/>
<polygon fill="#63b8ff" stroke="#63b8ff" points="483.7,-699.08 494.27,-698.42 485.59,-692.34 483.7,-699.08"/>
</a>
</g>
</g>
<!-- Node17 -->
<g id="Node000017" class="node">
<title>Node17</title>
<g id="a_Node000017"><a xlink:href="namespaceMayaFlux_1_1Kinesis_1_1Discrete_a7ebb649b9b72051f03813a079ebd6739.html#a7ebb649b9b72051f03813a079ebd6739" target="_top" xlink:title="Arbitrary percentile per window via linear interpolation.">
<polygon fill="white" stroke="#666666" points="606.5,-1028 494.5,-1028 494.5,-998 606.5,-998 606.5,-1028"/>
<text text-anchor="start" x="502.5" y="-1016" font-family="Helvetica,sans-Serif" font-size="10.00">MayaFlux::Kinesis::</text>
<text text-anchor="middle" x="550.5" y="-1005" font-family="Helvetica,sans-Serif" font-size="10.00">Discrete::percentile</text>
</a>
</g>
</g>
<!-- Node2&#45;&gt;Node17 -->
<g id="edge26_Node000002_Node000017" class="edge">
<title>Node2&#45;&gt;Node17</title>
<g id="a_edge26_Node000002_Node000017"><a xlink:title=" ">
<path fill="none" stroke="#63b8ff" d="M324.26,-636.32C327.91,-692.51 348.34,-889.18 458,-989 465.56,-995.88 474.85,-1000.84 484.59,-1004.39"/>
<polygon fill="#63b8ff" stroke="#63b8ff" points="483.84,-1007.83 494.43,-1007.5 485.95,-1001.15 483.84,-1007.83"/>
</a>
</g>
</g>
<!-- Node18 -->
<g id="Node000018" class="node">
<title>Node18</title>
<g id="a_Node000018"><a xlink:href="namespaceMayaFlux_1_1Kinesis_1_1Discrete_a56a8f65a0fb45ab3bc3231b853a1c491.html#a56a8f65a0fb45ab3bc3231b853a1c491" target="_top" xlink:title="Value range (max &#45; min) per window.">
<polygon fill="white" stroke="#666666" points="606.5,-660 494.5,-660 494.5,-630 606.5,-630 606.5,-660"/>
<text text-anchor="start" x="502.5" y="-648" font-family="Helvetica,sans-Serif" font-size="10.00">MayaFlux::Kinesis::</text>
<text text-anchor="middle" x="550.5" y="-637" font-family="Helvetica,sans-Serif" font-size="10.00">Discrete::range</text>
</a>
</g>
</g>
<!-- Node2&#45;&gt;Node18 -->
<g id="edge28_Node000002_Node000018" class="edge">
<title>Node2&#45;&gt;Node18</title>
<g id="a_edge28_Node000002_Node000018"><a xlink:title=" ">
<path fill="none" stroke="#63b8ff" d="M422.3,-631.49C443.24,-633.72 464.84,-636.01 484.17,-638.06"/>
<polygon fill="#63b8ff" stroke="#63b8ff" points="484.04,-641.57 494.35,-639.14 484.78,-634.61 484.04,-641.57"/>
</a>
</g>
</g>
<!-- Node19 -->
<g id="Node000019" class="node">
<title>Node19</title>
<g id="a_Node000019"><a xlink:href="namespaceMayaFlux_1_1Kinesis_1_1Discrete_ace9bc7c524eeeff35f5d23bf4b14a6ce.html#ace9bc7c524eeeff35f5d23bf4b14a6ce" target="_top" xlink:title="RMS energy per window.">
<polygon fill="white" stroke="#666666" points="606.5,-612 494.5,-612 494.5,-582 606.5,-582 606.5,-612"/>
<text text-anchor="start" x="502.5" y="-600" font-family="Helvetica,sans-Serif" font-size="10.00">MayaFlux::Kinesis::</text>
<text text-anchor="middle" x="550.5" y="-589" font-family="Helvetica,sans-Serif" font-size="10.00">Discrete::rms</text>
</a>
</g>
</g>
<!-- Node2&#45;&gt;Node19 -->
<g id="edge30_Node000002_Node000019" class="edge">
<title>Node2&#45;&gt;Node19</title>
<g id="a_edge30_Node000002_Node000019"><a xlink:title=" ">
<path fill="none" stroke="#63b8ff" d="M422.3,-610.51C443.24,-608.28 464.84,-605.99 484.17,-603.94"/>
<polygon fill="#63b8ff" stroke="#63b8ff" points="484.78,-607.39 494.35,-602.86 484.04,-600.43 484.78,-607.39"/>
</a>
</g>
</g>
<!-- Node20 -->
<g id="Node000020" class="node">
<title>Node20</title>
<g id="a_Node000020"><a xlink:href="namespaceMayaFlux_1_1Kinesis_1_1Discrete_ac8865896dfed30eea2b98dce0739b8e2.html#ac8865896dfed30eea2b98dce0739b8e2" target="_top" xlink:title="Skewness (standardised third central moment) per window.">
<polygon fill="white" stroke="#666666" points="606.5,-962 494.5,-962 494.5,-932 606.5,-932 606.5,-962"/>
<text text-anchor="start" x="502.5" y="-950" font-family="Helvetica,sans-Serif" font-size="10.00">MayaFlux::Kinesis::</text>
<text text-anchor="middle" x="550.5" y="-939" font-family="Helvetica,sans-Serif" font-size="10.00">Discrete::skewness</text>
</a>
</g>
</g>
<!-- Node2&#45;&gt;Node20 -->
<g id="edge31_Node000002_Node000020" class="edge">
<title>Node2&#45;&gt;Node20</title>
<g id="a_edge31_Node000002_Node000020"><a xlink:title=" ">
<path fill="none" stroke="#63b8ff" d="M325.92,-636.2C334.45,-684.78 367.64,-837.75 458,-918 465.74,-924.88 475.12,-930.12 484.88,-934.13"/>
<polygon fill="#63b8ff" stroke="#63b8ff" points="483.72,-937.43 494.31,-937.6 486.13,-930.86 483.72,-937.43"/>
</a>
</g>
</g>
<!-- Node21 -->
<g id="Node000021" class="node">
<title>Node21</title>
<g id="a_Node000021"><a xlink:href="namespaceMayaFlux_1_1Kinesis_1_1Discrete_a39acf9fc192194350dfbe43ed87633b2.html#a39acf9fc192194350dfbe43ed87633b2" target="_top" xlink:title="Standard deviation per window.">
<polygon fill="white" stroke="#666666" points="606.5,-498 494.5,-498 494.5,-468 606.5,-468 606.5,-498"/>
<text text-anchor="start" x="502.5" y="-486" font-family="Helvetica,sans-Serif" font-size="10.00">MayaFlux::Kinesis::</text>
<text text-anchor="middle" x="550.5" y="-475" font-family="Helvetica,sans-Serif" font-size="10.00">Discrete::std_dev</text>
</a>
</g>
</g>
<!-- Node2&#45;&gt;Node21 -->
<g id="edge33_Node000002_Node000021" class="edge">
<title>Node2&#45;&gt;Node21</title>
<g id="a_edge33_Node000002_Node000021"><a xlink:title=" ">
<path fill="none" stroke="#63b8ff" d="M336.84,-605.99C359.38,-581.55 407.49,-533.28 458,-507 466.33,-502.67 475.49,-499.07 484.71,-496.1"/>
<polygon fill="#63b8ff" stroke="#63b8ff" points="485.73,-499.45 494.31,-493.23 483.72,-492.75 485.73,-499.45"/>
</a>
</g>
</g>
<!-- Node22 -->
<g id="Node000022" class="node">
<title>Node22</title>
<g id="a_Node000022"><a xlink:href="namespaceMayaFlux_1_1Kinesis_1_1Discrete_a8f1992da8fa3cd5bf5fc140998b5137a.html#a8f1992da8fa3cd5bf5fc140998b5137a" target="_top" xlink:title="Variance per window.">
<polygon fill="white" stroke="#666666" points="808.5,-919 696.5,-919 696.5,-889 808.5,-889 808.5,-919"/>
<text text-anchor="start" x="704.5" y="-907" font-family="Helvetica,sans-Serif" font-size="10.00">MayaFlux::Kinesis::</text>
<text text-anchor="middle" x="752.5" y="-896" font-family="Helvetica,sans-Serif" font-size="10.00">Discrete::variance</text>
</a>
</g>
</g>
<!-- Node2&#45;&gt;Node22 -->
<g id="edge39_Node000002_Node000022" class="edge">
<title>Node2&#45;&gt;Node22</title>
<g id="a_edge39_Node000002_Node000022"><a xlink:title=" ">
<path fill="none" stroke="#63b8ff" d="M325.92,-636.07C334.3,-682.67 366.7,-824.9 458,-885 525.91,-929.7 622.89,-926.15 686.51,-917.07"/>
<polygon fill="#63b8ff" stroke="#63b8ff" points="687.05,-920.53 696.42,-915.57 686.01,-913.61 687.05,-920.53"/>
</a>
</g>
</g>
<!-- Node23 -->
<g id="Node000023" class="node">
<title>Node23</title>
<g id="a_Node000023"><a xlink:href="namespaceMayaFlux_1_1Kinesis_1_1Discrete_a0f0fc0b4cd893ccbb45ac82fcc93a549.html#a0f0fc0b4cd893ccbb45ac82fcc93a549" target="_top" xlink:title="Sum per window.">
<polygon fill="white" stroke="#666666" points="606.5,-546 494.5,-546 494.5,-516 606.5,-516 606.5,-546"/>
<text text-anchor="start" x="502.5" y="-534" font-family="Helvetica,sans-Serif" font-size="10.00">MayaFlux::Kinesis::</text>
<text text-anchor="middle" x="550.5" y="-523" font-family="Helvetica,sans-Serif" font-size="10.00">Discrete::sum</text>
</a>
</g>
</g>
<!-- Node2&#45;&gt;Node23 -->
<g id="edge37_Node000002_Node000023" class="edge">
<title>Node2&#45;&gt;Node23</title>
<g id="a_edge37_Node000002_Node000023"><a xlink:title=" ">
<path fill="none" stroke="#63b8ff" d="M361.33,-605.94C400.03,-590.52 460.27,-566.54 502.12,-549.87"/>
<polygon fill="#63b8ff" stroke="#63b8ff" points="503.55,-553.06 511.55,-546.11 500.96,-546.56 503.55,-553.06"/>
</a>
</g>
</g>
<!-- Node4&#45;&gt;Node4 -->
<g id="edge4_Node000004_Node000004" class="edge">
<title>Node4&#45;&gt;Node4</title>
<g id="a_edge4_Node000004_Node000004"><a xlink:title=" ">
<path fill="none" stroke="#63b8ff" d="M513.37,-383.6C509.32,-393.15 521.7,-401.5 550.5,-401.5 568.5,-401.5 580.08,-398.24 585.25,-393.46"/>
<polygon fill="#63b8ff" stroke="#63b8ff" points="588.69,-394.14 587.63,-383.6 581.88,-392.5 588.69,-394.14"/>
</a>
</g>
</g>
<!-- Node5 -->
<g id="Node000005" class="node">
<title>Node5</title>
<g id="a_Node000005"><a xlink:href="namespaceMayaFlux_ad2f0572dfef62bb7629c7ef74ff29449.html#ad2f0572dfef62bb7629c7ef74ff29449" target="_top" xlink:title="Calculate mean of single&#45;channel data.">
<polygon fill="white" stroke="#666666" points="801.5,-640.5 703.5,-640.5 703.5,-621.5 801.5,-621.5 801.5,-640.5"/>
<text text-anchor="middle" x="752.5" y="-628.5" font-family="Helvetica,sans-Serif" font-size="10.00">MayaFlux::mean</text>
</a>
</g>
</g>
<!-- Node4&#45;&gt;Node5 -->
<g id="edge5_Node000004_Node000005" class="edge">
<title>Node4&#45;&gt;Node5</title>
<g id="a_edge5_Node000004_Node000005"><a xlink:title=" ">
<path fill="none" stroke="#63b8ff" d="M604.23,-383.53C618.04,-390.71 632.1,-399.83 643,-411 701.96,-471.45 734.68,-570.24 746.43,-611.71"/>
<polygon fill="#63b8ff" stroke="#63b8ff" points="743.07,-612.67 749.09,-621.39 749.82,-610.82 743.07,-612.67"/>
</a>
</g>
</g>
<!-- Node6 -->
<g id="Node000006" class="node">
<title>Node6</title>
<g id="a_Node000006"><a xlink:href="namespaceMayaFlux_ac5d314d2c7c7550f063afda336d7a5c1.html#ac5d314d2c7c7550f063afda336d7a5c1" target="_top" xlink:title="Calculate standard deviation of single&#45;channel data.">
<polygon fill="white" stroke="#666666" points="807,-432.5 698,-432.5 698,-413.5 807,-413.5 807,-432.5"/>
<text text-anchor="middle" x="752.5" y="-420.5" font-family="Helvetica,sans-Serif" font-size="10.00">MayaFlux::std_dev</text>
</a>
</g>
</g>
<!-- Node4&#45;&gt;Node6 -->
<g id="edge6_Node000004_Node000006" class="edge">
<title>Node4&#45;&gt;Node6</title>
<g id="a_edge6_Node000004_Node000006"><a xlink:title=" ">
<path fill="none" stroke="#63b8ff" d="M607.74,-379.87C640.23,-389.62 680.4,-401.67 710.01,-410.55"/>
<polygon fill="#63b8ff" stroke="#63b8ff" points="709.04,-413.91 719.62,-413.44 711.05,-407.21 709.04,-413.91"/>
</a>
</g>
</g>
<!-- Node8&#45;&gt;Node8 -->
<g id="edge9_Node000008_Node000008" class="edge">
<title>Node8&#45;&gt;Node8</title>
<g id="a_edge9_Node000008_Node000008"><a xlink:title=" ">
<path fill="none" stroke="#63b8ff" d="M514.99,-306.28C507.1,-315.41 518.94,-324 550.5,-324 569.24,-324 581.03,-320.97 585.86,-316.6"/>
<polygon fill="#63b8ff" stroke="#63b8ff" points="589.36,-316.33 586.01,-306.28 582.36,-316.22 589.36,-316.33"/>
</a>
</g>
</g>
<!-- Node9&#45;&gt;Node9 -->
<g id="edge11_Node000009_Node000009" class="edge">
<title>Node9&#45;&gt;Node9</title>
<g id="a_edge11_Node000009_Node000009"><a xlink:title=" ">
<path fill="none" stroke="#63b8ff" d="M514.99,-1160.28C507.1,-1169.41 518.94,-1178 550.5,-1178 569.24,-1178 581.03,-1174.97 585.86,-1170.6"/>
<polygon fill="#63b8ff" stroke="#63b8ff" points="589.36,-1170.33 586.01,-1160.28 582.36,-1170.22 589.36,-1170.33"/>
</a>
</g>
</g>
<!-- Node10&#45;&gt;Node10 -->
<g id="edge13_Node000010_Node000010" class="edge">
<title>Node10&#45;&gt;Node10</title>
<g id="a_edge13_Node000010_Node000010"><a xlink:title=" ">
<path fill="none" stroke="#63b8ff" d="M514.99,-240.28C507.1,-249.41 518.94,-258 550.5,-258 569.24,-258 581.03,-254.97 585.86,-250.6"/>
<polygon fill="#63b8ff" stroke="#63b8ff" points="589.36,-250.33 586.01,-240.28 582.36,-250.22 589.36,-250.33"/>
</a>
</g>
</g>
<!-- Node11&#45;&gt;Node11 -->
<g id="edge15_Node000011_Node000011" class="edge">
<title>Node11&#45;&gt;Node11</title>
<g id="a_edge15_Node000011_Node000011"><a xlink:title=" ">
<path fill="none" stroke="#63b8ff" d="M514.99,-174.28C507.1,-183.41 518.94,-192 550.5,-192 569.24,-192 581.03,-188.97 585.86,-184.6"/>
<polygon fill="#63b8ff" stroke="#63b8ff" points="589.36,-184.33 586.01,-174.28 582.36,-184.22 589.36,-184.33"/>
</a>
</g>
</g>
<!-- Node12&#45;&gt;Node5 -->
<g id="edge17_Node000012_Node000005" class="edge">
<title>Node12&#45;&gt;Node5</title>
<g id="a_edge17_Node000012_Node000005"><a xlink:title=" ">
<path fill="none" stroke="#63b8ff" d="M606.7,-1207.41C620.37,-1203.87 633.73,-1197.66 643,-1187 688.06,-1135.16 665.35,-947.32 679,-880 696.66,-792.91 730.18,-692.11 744.61,-650.5"/>
<polygon fill="#63b8ff" stroke="#63b8ff" points="748,-651.41 748,-640.81 741.39,-649.1 748,-651.41"/>
</a>
</g>
</g>
<!-- Node13&#45;&gt;Node13 -->
<g id="edge19_Node000013_Node000013" class="edge">
<title>Node13&#45;&gt;Node13</title>
<g id="a_edge19_Node000013_Node000013"><a xlink:title=" ">
<path fill="none" stroke="#63b8ff" d="M514.99,-858.28C507.1,-867.41 518.94,-876 550.5,-876 569.24,-876 581.03,-872.97 585.86,-868.6"/>
<polygon fill="#63b8ff" stroke="#63b8ff" points="589.36,-868.33 586.01,-858.28 582.36,-868.22 589.36,-868.33"/>
</a>
</g>
</g>
<!-- Node14&#45;&gt;Node14 -->
<g id="edge21_Node000014_Node000014" class="edge">
<title>Node14&#45;&gt;Node14</title>
<g id="a_edge21_Node000014_Node000014"><a xlink:title=" ">
<path fill="none" stroke="#63b8ff" d="M514.99,-1094.28C507.1,-1103.41 518.94,-1112 550.5,-1112 569.24,-1112 581.03,-1108.97 585.86,-1104.6"/>
<polygon fill="#63b8ff" stroke="#63b8ff" points="589.36,-1104.33 586.01,-1094.28 582.36,-1104.22 589.36,-1104.33"/>
</a>
</g>
</g>
<!-- Node15&#45;&gt;Node15 -->
<g id="edge23_Node000015_Node000015" class="edge">
<title>Node15&#45;&gt;Node15</title>
<g id="a_edge23_Node000015_Node000015"><a xlink:title=" ">
<path fill="none" stroke="#63b8ff" d="M514.99,-792.28C507.1,-801.41 518.94,-810 550.5,-810 569.24,-810 581.03,-806.97 585.86,-802.6"/>
<polygon fill="#63b8ff" stroke="#63b8ff" points="589.36,-802.33 586.01,-792.28 582.36,-802.22 589.36,-802.33"/>
</a>
</g>
</g>
<!-- Node16&#45;&gt;Node16 -->
<g id="edge25_Node000016_Node000016" class="edge">
<title>Node16&#45;&gt;Node16</title>
<g id="a_edge25_Node000016_Node000016"><a xlink:title=" ">
<path fill="none" stroke="#63b8ff" d="M514.99,-726.28C507.1,-735.41 518.94,-744 550.5,-744 569.24,-744 581.03,-740.97 585.86,-736.6"/>
<polygon fill="#63b8ff" stroke="#63b8ff" points="589.36,-736.33 586.01,-726.28 582.36,-736.22 589.36,-736.33"/>
</a>
</g>
</g>
<!-- Node17&#45;&gt;Node17 -->
<g id="edge27_Node000017_Node000017" class="edge">
<title>Node17&#45;&gt;Node17</title>
<g id="a_edge27_Node000017_Node000017"><a xlink:title=" ">
<path fill="none" stroke="#63b8ff" d="M514.99,-1028.28C507.1,-1037.41 518.94,-1046 550.5,-1046 569.24,-1046 581.03,-1042.97 585.86,-1038.6"/>
<polygon fill="#63b8ff" stroke="#63b8ff" points="589.36,-1038.33 586.01,-1028.28 582.36,-1038.22 589.36,-1038.33"/>
</a>
</g>
</g>
<!-- Node18&#45;&gt;Node18 -->
<g id="edge29_Node000018_Node000018" class="edge">
<title>Node18&#45;&gt;Node18</title>
<g id="a_edge29_Node000018_Node000018"><a xlink:title=" ">
<path fill="none" stroke="#63b8ff" d="M514.99,-660.28C507.1,-669.41 518.94,-678 550.5,-678 569.24,-678 581.03,-674.97 585.86,-670.6"/>
<polygon fill="#63b8ff" stroke="#63b8ff" points="589.36,-670.33 586.01,-660.28 582.36,-670.22 589.36,-670.33"/>
</a>
</g>
</g>
<!-- Node20&#45;&gt;Node20 -->
<g id="edge32_Node000020_Node000020" class="edge">
<title>Node20&#45;&gt;Node20</title>
<g id="a_edge32_Node000020_Node000020"><a xlink:title=" ">
<path fill="none" stroke="#63b8ff" d="M514.99,-962.28C507.1,-971.41 518.94,-980 550.5,-980 569.24,-980 581.03,-976.97 585.86,-972.6"/>
<polygon fill="#63b8ff" stroke="#63b8ff" points="589.36,-972.33 586.01,-962.28 582.36,-972.22 589.36,-972.33"/>
</a>
</g>
</g>
<!-- Node21&#45;&gt;Node6 -->
<g id="edge34_Node000021_Node000006" class="edge">
<title>Node21&#45;&gt;Node6</title>
<g id="a_edge34_Node000021_Node000006"><a xlink:title=" ">
<path fill="none" stroke="#63b8ff" d="M606.82,-469.1C618.79,-465.92 631.35,-462.46 643,-459 667.15,-451.84 694.01,-442.93 714.97,-435.77"/>
<polygon fill="#63b8ff" stroke="#63b8ff" points="716.13,-439.07 724.45,-432.51 713.86,-432.45 716.13,-439.07"/>
</a>
</g>
</g>
<!-- Node21&#45;&gt;Node22 -->
<g id="edge35_Node000021_Node000022" class="edge">
<title>Node21&#45;&gt;Node22</title>
<g id="a_edge35_Node000021_Node000022"><a xlink:title=" ">
<path fill="none" stroke="#63b8ff" d="M606.77,-487.67C620.11,-491.24 633.29,-497.2 643,-507 689.11,-553.57 662,-586.7 679,-650 701.63,-734.26 730.66,-833.56 744.09,-879.01"/>
<polygon fill="#63b8ff" stroke="#63b8ff" points="740.81,-880.28 747,-888.87 747.52,-878.29 740.81,-880.28"/>
</a>
</g>
</g>
<!-- Node22&#45;&gt;Node22 -->
<g id="edge36_Node000022_Node000022" class="edge">
<title>Node22&#45;&gt;Node22</title>
<g id="a_edge36_Node000022_Node000022"><a xlink:title=" ">
<path fill="none" stroke="#63b8ff" d="M723.67,-919.28C717.27,-928.41 726.88,-937 752.5,-937 767.71,-937 777.28,-933.97 781.21,-929.6"/>
<polygon fill="#63b8ff" stroke="#63b8ff" points="784.71,-929.32 781.33,-919.28 777.71,-929.23 784.71,-929.32"/>
</a>
</g>
</g>
<!-- Node23&#45;&gt;Node23 -->
<g id="edge38_Node000023_Node000023" class="edge">
<title>Node23&#45;&gt;Node23</title>
<g id="a_edge38_Node000023_Node000023"><a xlink:title=" ">
<path fill="none" stroke="#63b8ff" d="M514.99,-546.28C507.1,-555.41 518.94,-564 550.5,-564 569.24,-564 581.03,-560.97 585.86,-556.6"/>
<polygon fill="#63b8ff" stroke="#63b8ff" points="589.36,-556.33 586.01,-546.28 582.36,-556.22 589.36,-556.33"/>
</a>
</g>
</g>
<!-- Node24&#45;&gt;Node9 -->
<g id="edge42_Node000024_Node000009" class="edge">
<title>Node24&#45;&gt;Node9</title>
<g id="a_edge42_Node000024_Node000009"><a xlink:title=" ">
<path fill="none" stroke="#63b8ff" d="M410.23,-1124.66C434.85,-1128.26 461.22,-1132.11 484.32,-1135.48"/>
<polygon fill="#63b8ff" stroke="#63b8ff" points="483.95,-1138.97 494.35,-1136.95 484.96,-1132.04 483.95,-1138.97"/>
</a>
</g>
</g>
<!-- Node24&#45;&gt;Node12 -->
<g id="edge43_Node000024_Node000012" class="edge">
<title>Node24&#45;&gt;Node12</title>
<g id="a_edge43_Node000024_Node000012"><a xlink:title=" ">
<path fill="none" stroke="#63b8ff" d="M346.42,-1127.15C372.5,-1143.81 416.83,-1170.43 458,-1187 466.39,-1190.38 475.41,-1193.41 484.39,-1196.1"/>
<polygon fill="#63b8ff" stroke="#63b8ff" points="483.52,-1199.49 494.1,-1198.87 485.44,-1192.76 483.52,-1199.49"/>
</a>
</g>
</g>
<!-- Node24&#45;&gt;Node14 -->
<g id="edge44_Node000024_Node000014" class="edge">
<title>Node24&#45;&gt;Node14</title>
<g id="a_edge44_Node000024_Node000014"><a xlink:title=" ">
<path fill="none" stroke="#63b8ff" d="M410.23,-1099.34C434.85,-1095.74 461.22,-1091.89 484.32,-1088.52"/>
<polygon fill="#63b8ff" stroke="#63b8ff" points="484.96,-1091.96 494.35,-1087.05 483.95,-1085.03 484.96,-1091.96"/>
</a>
</g>
</g>
<!-- Node24&#45;&gt;Node17 -->
<g id="edge45_Node000024_Node000017" class="edge">
<title>Node24&#45;&gt;Node17</title>
<g id="a_edge45_Node000024_Node000017"><a xlink:title=" ">
<path fill="none" stroke="#63b8ff" d="M357.82,-1096.96C397.43,-1079.61 462.64,-1051.05 505.82,-1032.13"/>
<polygon fill="#63b8ff" stroke="#63b8ff" points="507.47,-1035.23 515.22,-1028.01 504.66,-1028.82 507.47,-1035.23"/>
</a>
</g>
</g>
<!-- Node24&#45;&gt;Node20 -->
<g id="edge46_Node000024_Node000020" class="edge">
<title>Node24&#45;&gt;Node20</title>
<g id="a_edge46_Node000024_Node000020"><a xlink:title=" ">
<path fill="none" stroke="#63b8ff" d="M337.17,-1096.74C360.17,-1071.72 408.95,-1021.53 458,-989 471.14,-980.28 486.39,-972.49 500.62,-966.06"/>
<polygon fill="#63b8ff" stroke="#63b8ff" points="502.05,-969.26 509.8,-962.03 499.24,-962.85 502.05,-969.26"/>
</a>
</g>
</g>
<!-- Node24&#45;&gt;Node22 -->
<g id="edge47_Node000024_Node000022" class="edge">
<title>Node24&#45;&gt;Node22</title>
<g id="a_edge47_Node000024_Node000022"><a xlink:title=" ">
<path fill="none" stroke="#63b8ff" d="M333.9,-1127.1C354.03,-1154.82 401.37,-1213.01 458,-1235 534.65,-1264.76 576.42,-1283.24 643,-1235 743.45,-1162.21 752.59,-993.55 752.25,-929.39"/>
<polygon fill="#63b8ff" stroke="#63b8ff" points="755.75,-929.3 752.11,-919.34 748.75,-929.39 755.75,-929.3"/>
</a>
</g>
</g>
<!-- Node25 -->
<g id="Node000025" class="node">
<title>Node25</title>
<g id="a_Node000025"><a xlink:href="classMayaFlux_1_1Yantra_1_1StatisticalAnalyzer_aa92f02e82b3882b49a1465323d33a540.html#aa92f02e82b3882b49a1465323d33a540" target="_top" xlink:title="Classify statistical value qualitatively.">
<polygon fill="white" stroke="#666666" points="643,-1312 458,-1312 458,-1282 643,-1282 643,-1312"/>
<text text-anchor="start" x="466" y="-1300" font-family="Helvetica,sans-Serif" font-size="10.00">MayaFlux::Yantra::Statistical</text>
<text text-anchor="middle" x="550.5" y="-1289" font-family="Helvetica,sans-Serif" font-size="10.00">Analyzer::classify_statistical_level</text>
</a>
</g>
</g>
<!-- Node24&#45;&gt;Node25 -->
<g id="edge41_Node000024_Node000025" class="edge">
<title>Node24&#45;&gt;Node25</title>
<g id="a_edge41_Node000024_Node000025"><a xlink:title=" ">
<path fill="none" stroke="#63b8ff" d="M332.56,-1127.33C351.73,-1158.47 399.49,-1229.41 458,-1268 463.7,-1271.76 469.92,-1275.06 476.35,-1277.95"/>
<polygon fill="#63b8ff" stroke="#63b8ff" points="475.3,-1281.3 485.88,-1281.9 477.98,-1274.84 475.3,-1281.3"/>
</a>
</g>
</g>
<!-- Node27 -->
<g id="Node000027" class="node">
<title>Node27</title>
<g id="a_Node000027"><a xlink:href="classMayaFlux_1_1Yantra_1_1ComputeOperation_ac364bad27ce3e4d35add89333c9a24b8.html#ac364bad27ce3e4d35add89333c9a24b8" target="_top" xlink:title="Convert processed double data back to OutputType using metadata and optional callback.">
<polygon fill="white" stroke="#666666" points="626,-78 475,-78 475,-48 626,-48 626,-78"/>
<text text-anchor="start" x="483" y="-66" font-family="Helvetica,sans-Serif" font-size="10.00">MayaFlux::Yantra::Compute</text>
<text text-anchor="middle" x="550.5" y="-55" font-family="Helvetica,sans-Serif" font-size="10.00">Operation::convert_result</text>
</a>
</g>
</g>
<!-- Node26&#45;&gt;Node27 -->
<g id="edge49_Node000026_Node000027" class="edge">
<title>Node26&#45;&gt;Node27</title>
<g id="a_edge49_Node000026_Node000027"><a xlink:title=" ">
<path fill="none" stroke="#63b8ff" d="M411.11,-291.04C415.06,-288.45 418.74,-285.45 422,-282 482.54,-217.95 398.03,-151.58 458,-87 460.48,-84.33 463.21,-81.95 466.14,-79.81"/>
<polygon fill="#63b8ff" stroke="#63b8ff" points="468.18,-82.67 474.86,-74.45 464.51,-76.71 468.18,-82.67"/>
</a>
</g>
</g>
<!-- Node28 -->
<g id="Node000028" class="node">
<title>Node28</title>
<g id="a_Node000028"><a xlink:href="classMayaFlux_1_1Yantra_1_1StatisticalAnalyzer_ac292d7da9cf0e19d1146fede9c9f783b.html#ac292d7da9cf0e19d1146fede9c9f783b" target="_top" xlink:title="Convert statistical method enum to string.">
<polygon fill="white" stroke="#666666" points="628,-30 473,-30 473,0 628,0 628,-30"/>
<text text-anchor="start" x="481" y="-18" font-family="Helvetica,sans-Serif" font-size="10.00">MayaFlux::Yantra::Statistical</text>
<text text-anchor="middle" x="550.5" y="-7" font-family="Helvetica,sans-Serif" font-size="10.00">Analyzer::method_to_string</text>
</a>
</g>
</g>
<!-- Node26&#45;&gt;Node28 -->
<g id="edge50_Node000026_Node000028" class="edge">
<title>Node26&#45;&gt;Node28</title>
<g id="a_edge50_Node000026_Node000028"><a xlink:title=" ">
<path fill="none" stroke="#63b8ff" d="M411.26,-291.17C415.17,-288.55 418.8,-285.51 422,-282 495.57,-201.33 385.14,-120.31 458,-39 460,-36.76 462.19,-34.73 464.52,-32.87"/>
<polygon fill="#63b8ff" stroke="#63b8ff" points="466.58,-35.69 472.94,-27.22 462.68,-29.88 466.58,-35.69"/>
</a>
</g>
</g>
<!-- Node29 -->
<g id="Node000029" class="node">
<title>Node29</title>
<g id="a_Node000029"><a xlink:href="namespaceMayaFlux_1_1Reflect_a33dff0234606d8a7a9b4b026a3874e0a.html#a33dff0234606d8a7a9b4b026a3874e0a" target="_top" xlink:title="Universal enum to lowercase string converter using magic_enum.">
<polygon fill="white" stroke="#666666" points="826,-30 679,-30 679,0 826,0 826,-30"/>
<text text-anchor="start" x="687" y="-18" font-family="Helvetica,sans-Serif" font-size="10.00">MayaFlux::Reflect::</text>
<text text-anchor="middle" x="752.5" y="-7" font-family="Helvetica,sans-Serif" font-size="10.00">enum_to_lowercase_string</text>
</a>
</g>
</g>
<!-- Node28&#45;&gt;Node29 -->
<g id="edge51_Node000028_Node000029" class="edge">
<title>Node28&#45;&gt;Node29</title>
<g id="a_edge51_Node000028_Node000029"><a xlink:title=" ">
<path fill="none" stroke="#63b8ff" d="M628.25,-15C641.51,-15 655.34,-15 668.75,-15"/>
<polygon fill="#63b8ff" stroke="#63b8ff" points="668.9,-18.5 678.9,-15 668.9,-11.5 668.9,-18.5"/>
</a>
</g>
</g>
<!-- Node30 -->
<g id="Node000030" class="node">
<title>Node30</title>
<g id="a_Node000030"><a xlink:href="namespaceMayaFlux_1_1Reflect_ab5371cce72bc91cd1babe7826f27f39a.html#ab5371cce72bc91cd1babe7826f27f39a" target="_top" xlink:title="Convert string to lowercase.">
<polygon fill="white" stroke="#666666" points="972,-30 862,-30 862,0 972,0 972,-30"/>
<text text-anchor="start" x="870" y="-18" font-family="Helvetica,sans-Serif" font-size="10.00">MayaFlux::Reflect::</text>
<text text-anchor="middle" x="917" y="-7" font-family="Helvetica,sans-Serif" font-size="10.00">to_lowercase</text>
</a>
</g>
</g>
<!-- Node29&#45;&gt;Node30 -->
<g id="edge52_Node000029_Node000030" class="edge">
<title>Node29&#45;&gt;Node30</title>
<g id="a_edge52_Node000029_Node000030"><a xlink:title=" ">
<path fill="none" stroke="#63b8ff" d="M826.19,-15C834.73,-15 843.38,-15 851.79,-15"/>
<polygon fill="#63b8ff" stroke="#63b8ff" points="851.89,-18.5 861.89,-15 851.89,-11.5 851.89,-18.5"/>
</a>
</g>
</g>
</g>
</svg>
