<?xml version="1.0" encoding="UTF-8" standalone="no"?>
<!DOCTYPE svg PUBLIC "-//W3C//DTD SVG 1.1//EN"
 "http://www.w3.org/Graphics/SVG/1.1/DTD/svg11.dtd">
<!-- Generated by graphviz version 2.43.0 (0)
 -->
<!-- Title: MayaFlux::Yantra::UniversalSorter&lt; InputType, OutputType &gt; Pages: 1 -->
<!--zoomable 1357 -->

<svg id="main" version="1.1" xmlns="http://www.w3.org/2000/svg" xmlns:xlink="http://www.w3.org/1999/xlink" xml:space="preserve" onload="init(evt)">
<style type="text/css"><![CDATA[
.node, .edge {opacity: 0.7;}
.node.selected, .edge.selected {opacity: 1;}
.edge:hover path { stroke: red; }
.edge:hover polygon { stroke: red; fill: red; }
]]></style>

<defs>
  <circle id="rim" cx="0" cy="0" r="7"/>
  <circle id="rim2" cx="0" cy="0" r="3.5"/>
  <g id="zoomPlus">
    <use xlink:href="#rim" fill="#404040"><set attributeName="fill" to="#808080" begin="zoomplus.mouseover" end="zoomplus.mouseout"/></use>
    <path d="M-4,0h8M0,-4v8" fill="none" stroke="white" stroke-width="1.5" pointer-events="none"/>
  </g>
  <g id="zoomMin">
    <use xlink:href="#rim" fill="#404040"><set attributeName="fill" to="#808080" begin="zoomminus.mouseover" end="zoomminus.mouseout"/></use>
    <path d="M-4,0h8" fill="none" stroke="white" stroke-width="1.5" pointer-events="none"/>
  </g>
  <g id="arrowUp" transform="translate(30 24)">
    <use xlink:href="#rim"/>
    <path pointer-events="none" fill="none" stroke="white" stroke-width="1.5" d="M0,-3.0v7 M-2.5,-0.5L0,-3.0L2.5,-0.5"/>
  </g>
  <g id="arrowRight" transform="rotate(90) translate(36 -43)">
    <use xlink:href="#rim"/>
    <path pointer-events="none" fill="none" stroke="white" stroke-width="1.5" d="M0,-3.0v7 M-2.5,-0.5L0,-3.0L2.5,-0.5"/>
  </g>
  <g id="arrowDown" transform="rotate(180) translate(-30 -48)">
    <use xlink:href="#rim"/>
    <path pointer-events="none" fill="none" stroke="white" stroke-width="1.5" d="M0,-3.0v7 M-2.5,-0.5L0,-3.0L2.5,-0.5"/>
  </g>
  <g id="arrowLeft" transform="rotate(270) translate(-36 17)">
    <use xlink:href="#rim"/>
    <path pointer-events="none" fill="none" stroke="white" stroke-width="1.5" d="M0,-3.0v7 M-2.5,-0.5L0,-3.0L2.5,-0.5"/>
  </g>
  <g id="resetDef">
    <use xlink:href="#rim2" fill="#404040"><set attributeName="fill" to="#808080" begin="reset.mouseover" end="reset.mouseout"/></use>
  </g>
</defs>
<script type="application/ecmascript">
var viewWidth = 466;
var viewHeight = 1357;
var sectionId = 'dynsection-1';
</script>
<script type="application/ecmascript" xlink:href="svg.min.js"/>
<svg id="graph" class="graph">
<g id="viewport">
<title>MayaFlux::Yantra::UniversalSorter&lt; InputType, OutputType &gt;</title>
<!-- Node1 -->
<g id="Node000001" class="node">
<title>Node1</title>
<g id="a_Node000001"><a xlink:title="Template&#45;flexible sorter base with instance&#45;defined I/O types.">
<polygon fill="#999999" stroke="transparent" points="273,-536 101,-536 101,0 273,0 273,-536"/>
<text text-anchor="start" x="106.5" y="-524" font-family="Helvetica,sans-Serif" font-size="10.00">MayaFlux::Yantra::Universal</text>
<text text-anchor="start" x="106.5" y="-513" font-family="Helvetica,sans-Serif" font-size="10.00">Sorter&lt; InputType, OutputType &gt;</text>
<text text-anchor="start" x="105" y="-498" font-family="Helvetica,sans-Serif" font-size="10.00">#</text>
<text text-anchor="start" x="118" y="-498" font-family="Helvetica,sans-Serif" font-size="10.00">m_current_sorting</text>
<text text-anchor="start" x="107.5" y="-483" font-family="Helvetica,sans-Serif" font-size="10.00">&#45;</text>
<text text-anchor="start" x="118" y="-483" font-family="Helvetica,sans-Serif" font-size="10.00">m_custom_comparator</text>
<text text-anchor="start" x="107.5" y="-468" font-family="Helvetica,sans-Serif" font-size="10.00">&#45;</text>
<text text-anchor="start" x="118" y="-468" font-family="Helvetica,sans-Serif" font-size="10.00">m_direction</text>
<text text-anchor="start" x="107.5" y="-453" font-family="Helvetica,sans-Serif" font-size="10.00">&#45;</text>
<text text-anchor="start" x="118" y="-453" font-family="Helvetica,sans-Serif" font-size="10.00">m_granularity</text>
<text text-anchor="start" x="107.5" y="-438" font-family="Helvetica,sans-Serif" font-size="10.00">&#45;</text>
<text text-anchor="start" x="118" y="-438" font-family="Helvetica,sans-Serif" font-size="10.00">m_parameters</text>
<text text-anchor="start" x="107.5" y="-423" font-family="Helvetica,sans-Serif" font-size="10.00">&#45;</text>
<text text-anchor="start" x="118" y="-423" font-family="Helvetica,sans-Serif" font-size="10.00">m_sort_keys</text>
<text text-anchor="start" x="107.5" y="-408" font-family="Helvetica,sans-Serif" font-size="10.00">&#45;</text>
<text text-anchor="start" x="118" y="-408" font-family="Helvetica,sans-Serif" font-size="10.00">m_strategy</text>
<text text-anchor="start" x="105" y="-393" font-family="Helvetica,sans-Serif" font-size="10.00">+</text>
<text text-anchor="start" x="118" y="-393" font-family="Helvetica,sans-Serif" font-size="10.00">get_all_parameters()</text>
<text text-anchor="start" x="105" y="-378" font-family="Helvetica,sans-Serif" font-size="10.00">+</text>
<text text-anchor="start" x="118" y="-378" font-family="Helvetica,sans-Serif" font-size="10.00">get_direction()</text>
<text text-anchor="start" x="105" y="-363" font-family="Helvetica,sans-Serif" font-size="10.00">+</text>
<text text-anchor="start" x="118" y="-363" font-family="Helvetica,sans-Serif" font-size="10.00">get_granularity()</text>
<text text-anchor="start" x="105" y="-348" font-family="Helvetica,sans-Serif" font-size="10.00">+</text>
<text text-anchor="start" x="118" y="-348" font-family="Helvetica,sans-Serif" font-size="10.00">get_name()</text>
<text text-anchor="start" x="105" y="-333" font-family="Helvetica,sans-Serif" font-size="10.00">+</text>
<text text-anchor="start" x="118" y="-333" font-family="Helvetica,sans-Serif" font-size="10.00">get_operation_type()</text>
<text text-anchor="start" x="105" y="-318" font-family="Helvetica,sans-Serif" font-size="10.00">+</text>
<text text-anchor="start" x="118" y="-318" font-family="Helvetica,sans-Serif" font-size="10.00">get_parameter()</text>
<text text-anchor="start" x="105" y="-303" font-family="Helvetica,sans-Serif" font-size="10.00">+</text>
<text text-anchor="start" x="118" y="-303" font-family="Helvetica,sans-Serif" font-size="10.00">get_parameter_or_default()</text>
<text text-anchor="start" x="105" y="-288" font-family="Helvetica,sans-Serif" font-size="10.00">+</text>
<text text-anchor="start" x="118" y="-288" font-family="Helvetica,sans-Serif" font-size="10.00">get_sort_keys()</text>
<text text-anchor="start" x="105" y="-273" font-family="Helvetica,sans-Serif" font-size="10.00">+</text>
<text text-anchor="start" x="118" y="-273" font-family="Helvetica,sans-Serif" font-size="10.00">get_sorting_type()</text>
<text text-anchor="start" x="105" y="-258" font-family="Helvetica,sans-Serif" font-size="10.00">+</text>
<text text-anchor="start" x="118" y="-258" font-family="Helvetica,sans-Serif" font-size="10.00">get_strategy()</text>
<text text-anchor="start" x="118" y="-243" font-family="Helvetica,sans-Serif" font-size="10.00">and 7 more...</text>
<text text-anchor="start" x="105" y="-228" font-family="Helvetica,sans-Serif" font-size="10.00">#</text>
<text text-anchor="start" x="118" y="-228" font-family="Helvetica,sans-Serif" font-size="10.00">add_sorting_metadata()</text>
<text text-anchor="start" x="105" y="-213" font-family="Helvetica,sans-Serif" font-size="10.00">#</text>
<text text-anchor="start" x="118" y="-213" font-family="Helvetica,sans-Serif" font-size="10.00">apply_custom_comparator()</text>
<text text-anchor="start" x="105" y="-198" font-family="Helvetica,sans-Serif" font-size="10.00">#</text>
<text text-anchor="start" x="118" y="-198" font-family="Helvetica,sans-Serif" font-size="10.00">apply_granularity_formatting()</text>
<text text-anchor="start" x="105" y="-183" font-family="Helvetica,sans-Serif" font-size="10.00">#</text>
<text text-anchor="start" x="118" y="-183" font-family="Helvetica,sans-Serif" font-size="10.00">create_sorting_analysis()</text>
<text text-anchor="start" x="105" y="-168" font-family="Helvetica,sans-Serif" font-size="10.00">#</text>
<text text-anchor="start" x="118" y="-168" font-family="Helvetica,sans-Serif" font-size="10.00">get_all_sorting_parameters()</text>
<text text-anchor="start" x="105" y="-153" font-family="Helvetica,sans-Serif" font-size="10.00">#</text>
<text text-anchor="start" x="118" y="-153" font-family="Helvetica,sans-Serif" font-size="10.00">get_sorter_name()</text>
<text text-anchor="start" x="105" y="-138" font-family="Helvetica,sans-Serif" font-size="10.00">#</text>
<text text-anchor="start" x="118" y="-138" font-family="Helvetica,sans-Serif" font-size="10.00">get_sorting_parameter()</text>
<text text-anchor="start" x="105" y="-123" font-family="Helvetica,sans-Serif" font-size="10.00">#</text>
<text text-anchor="start" x="118" y="-123" font-family="Helvetica,sans-Serif" font-size="10.00">has_custom_comparator()</text>
<text text-anchor="start" x="105" y="-108" font-family="Helvetica,sans-Serif" font-size="10.00">#</text>
<text text-anchor="start" x="118" y="-108" font-family="Helvetica,sans-Serif" font-size="10.00">operation_function()</text>
<text text-anchor="start" x="105" y="-93" font-family="Helvetica,sans-Serif" font-size="10.00">#</text>
<text text-anchor="start" x="118" y="-93" font-family="Helvetica,sans-Serif" font-size="10.00">organize_into_groups()</text>
<text text-anchor="start" x="105" y="-78" font-family="Helvetica,sans-Serif" font-size="10.00">#</text>
<text text-anchor="start" x="118" y="-78" font-family="Helvetica,sans-Serif" font-size="10.00">set_sorting_parameter()</text>
<text text-anchor="start" x="105" y="-63" font-family="Helvetica,sans-Serif" font-size="10.00">#</text>
<text text-anchor="start" x="118" y="-63" font-family="Helvetica,sans-Serif" font-size="10.00">should_use_multi_key</text>
<text text-anchor="start" x="118" y="-52" font-family="Helvetica,sans-Serif" font-size="10.00">_sorting()</text>
<text text-anchor="start" x="105" y="-37" font-family="Helvetica,sans-Serif" font-size="10.00">#</text>
<text text-anchor="start" x="118" y="-37" font-family="Helvetica,sans-Serif" font-size="10.00">sort_implementation()</text>
<text text-anchor="start" x="105" y="-22" font-family="Helvetica,sans-Serif" font-size="10.00">#</text>
<text text-anchor="start" x="118" y="-22" font-family="Helvetica,sans-Serif" font-size="10.00">store_current_sorting()</text>
<text text-anchor="start" x="105" y="-7" font-family="Helvetica,sans-Serif" font-size="10.00">#</text>
<text text-anchor="start" x="118" y="-7" font-family="Helvetica,sans-Serif" font-size="10.00">validate_sorting_input()</text>
<polygon fill="#666666" stroke="#666666" points="101,-508 101,-508 273,-508 273,-508 101,-508"/>
<polygon fill="#666666" stroke="#666666" points="101,-403 101,-403 116,-403 116,-403 101,-403"/>
<polygon fill="#666666" stroke="#666666" points="116,-403 116,-403 273,-403 273,-403 116,-403"/>
<polygon fill="none" stroke="#666666" points="101,0 101,-536 273,-536 273,0 101,0"/>
</a>
</g>
</g>
<!-- Node2 -->
<g id="Node000002" class="node">
<title>Node2</title>
<g id="a_Node000002"><a xlink:href="classMayaFlux_1_1Yantra_1_1ComputeOperation.html" target="_top" xlink:title="Base interface for all computational operations in the processing pipeline.">
<polygon fill="white" stroke="transparent" points="190,-976 0,-976 0,-583 190,-583 190,-976"/>
<text text-anchor="start" x="5" y="-963.5" font-family="Helvetica,sans-Serif" font-size="10.00">MayaFlux::Yantra::Compute</text>
<text text-anchor="start" x="5" y="-952.5" font-family="Helvetica,sans-Serif" font-size="10.00">Operation&lt; InputType, OutputType &gt;</text>
<text text-anchor="start" x="12.5" y="-937.5" font-family="Helvetica,sans-Serif" font-size="10.00">#</text>
<text text-anchor="start" x="34" y="-937.5" font-family="Helvetica,sans-Serif" font-size="10.00">m_container</text>
<text text-anchor="start" x="15" y="-922.5" font-family="Helvetica,sans-Serif" font-size="10.00">&#45;</text>
<text text-anchor="start" x="34" y="-922.5" font-family="Helvetica,sans-Serif" font-size="10.00">m_dependencies</text>
<text text-anchor="start" x="15" y="-907.5" font-family="Helvetica,sans-Serif" font-size="10.00">&#45;</text>
<text text-anchor="start" x="34" y="-907.5" font-family="Helvetica,sans-Serif" font-size="10.00">m_gpu_backend</text>
<text text-anchor="start" x="12.5" y="-892.5" font-family="Helvetica,sans-Serif" font-size="10.00">+</text>
<text text-anchor="start" x="34" y="-892.5" font-family="Helvetica,sans-Serif" font-size="10.00">add_dependency()</text>
<text text-anchor="start" x="12.5" y="-877.5" font-family="Helvetica,sans-Serif" font-size="10.00">+</text>
<text text-anchor="start" x="34" y="-877.5" font-family="Helvetica,sans-Serif" font-size="10.00">apply_operation()</text>
<text text-anchor="start" x="12.5" y="-862.5" font-family="Helvetica,sans-Serif" font-size="10.00">+</text>
<text text-anchor="start" x="34" y="-862.5" font-family="Helvetica,sans-Serif" font-size="10.00">apply_operation_with</text>
<text text-anchor="start" x="34" y="-851.5" font-family="Helvetica,sans-Serif" font-size="10.00">_dependencies()</text>
<text text-anchor="start" x="12.5" y="-836.5" font-family="Helvetica,sans-Serif" font-size="10.00">+</text>
<text text-anchor="start" x="34" y="-836.5" font-family="Helvetica,sans-Serif" font-size="10.00">apply_to_data()</text>
<text text-anchor="start" x="12.5" y="-821.5" font-family="Helvetica,sans-Serif" font-size="10.00">+</text>
<text text-anchor="start" x="34" y="-821.5" font-family="Helvetica,sans-Serif" font-size="10.00">ComputeOperation()</text>
<text text-anchor="start" x="12.5" y="-806.5" font-family="Helvetica,sans-Serif" font-size="10.00">+</text>
<text text-anchor="start" x="34" y="-806.5" font-family="Helvetica,sans-Serif" font-size="10.00">execute()</text>
<text text-anchor="start" x="12.5" y="-791.5" font-family="Helvetica,sans-Serif" font-size="10.00">+</text>
<text text-anchor="start" x="34" y="-791.5" font-family="Helvetica,sans-Serif" font-size="10.00">get_all_parameters()</text>
<text text-anchor="start" x="12.5" y="-776.5" font-family="Helvetica,sans-Serif" font-size="10.00">+</text>
<text text-anchor="start" x="34" y="-776.5" font-family="Helvetica,sans-Serif" font-size="10.00">get_container_for_regions()</text>
<text text-anchor="start" x="12.5" y="-761.5" font-family="Helvetica,sans-Serif" font-size="10.00">+</text>
<text text-anchor="start" x="34" y="-761.5" font-family="Helvetica,sans-Serif" font-size="10.00">get_dependencies()</text>
<text text-anchor="start" x="12.5" y="-746.5" font-family="Helvetica,sans-Serif" font-size="10.00">+</text>
<text text-anchor="start" x="34" y="-746.5" font-family="Helvetica,sans-Serif" font-size="10.00">get_last_execution</text>
<text text-anchor="start" x="34" y="-735.5" font-family="Helvetica,sans-Serif" font-size="10.00">_context()</text>
<text text-anchor="start" x="34" y="-720.5" font-family="Helvetica,sans-Serif" font-size="10.00">and 14 more...</text>
<text text-anchor="start" x="12.5" y="-705.5" font-family="Helvetica,sans-Serif" font-size="10.00">#</text>
<text text-anchor="start" x="34" y="-705.5" font-family="Helvetica,sans-Serif" font-size="10.00">apply_hooks()</text>
<text text-anchor="start" x="12.5" y="-690.5" font-family="Helvetica,sans-Serif" font-size="10.00">#</text>
<text text-anchor="start" x="34" y="-690.5" font-family="Helvetica,sans-Serif" font-size="10.00">apply_operation_async()</text>
<text text-anchor="start" x="12.5" y="-675.5" font-family="Helvetica,sans-Serif" font-size="10.00">#</text>
<text text-anchor="start" x="34" y="-675.5" font-family="Helvetica,sans-Serif" font-size="10.00">apply_operation_chained()</text>
<text text-anchor="start" x="12.5" y="-660.5" font-family="Helvetica,sans-Serif" font-size="10.00">#</text>
<text text-anchor="start" x="34" y="-660.5" font-family="Helvetica,sans-Serif" font-size="10.00">apply_operation_internal()</text>
<text text-anchor="start" x="12.5" y="-645.5" font-family="Helvetica,sans-Serif" font-size="10.00">#</text>
<text text-anchor="start" x="34" y="-645.5" font-family="Helvetica,sans-Serif" font-size="10.00">apply_operation_parallel()</text>
<text text-anchor="start" x="12.5" y="-630.5" font-family="Helvetica,sans-Serif" font-size="10.00">#</text>
<text text-anchor="start" x="34" y="-630.5" font-family="Helvetica,sans-Serif" font-size="10.00">convert_result()</text>
<text text-anchor="start" x="12.5" y="-615.5" font-family="Helvetica,sans-Serif" font-size="10.00">#</text>
<text text-anchor="start" x="34" y="-615.5" font-family="Helvetica,sans-Serif" font-size="10.00">operation_function()</text>
<text text-anchor="start" x="15" y="-600.5" font-family="Helvetica,sans-Serif" font-size="10.00">&#45;</text>
<text text-anchor="start" x="34" y="-600.5" font-family="Helvetica,sans-Serif" font-size="10.00">validate_operation</text>
<text text-anchor="start" x="34" y="-589.5" font-family="Helvetica,sans-Serif" font-size="10.00">_data_types()</text>
<polygon fill="#666666" stroke="#666666" points="0,-947.5 0,-947.5 190,-947.5 190,-947.5 0,-947.5"/>
<polygon fill="#666666" stroke="#666666" points="0,-902.5 0,-902.5 32,-902.5 32,-902.5 0,-902.5"/>
<polygon fill="#666666" stroke="#666666" points="32,-902.5 32,-902.5 190,-902.5 190,-902.5 32,-902.5"/>
<polygon fill="none" stroke="#666666" points="0,-583 0,-976 190,-976 190,-583 0,-583"/>
</a>
</g>
</g>
<!-- Node2&#45;&gt;Node1 -->
<g id="edge1_Node000001_Node000002" class="edge">
<title>Node2&#45;&gt;Node1</title>
<g id="a_edge1_Node000001_Node000002"><a xlink:title=" ">
<path fill="none" stroke="#63b8ff" d="M132.13,-572.89C134.3,-560.85 136.5,-548.66 138.71,-536.42"/>
<polygon fill="none" stroke="#63b8ff" points="128.64,-572.51 130.31,-582.97 135.53,-573.75 128.64,-572.51"/>
</a>
</g>
</g>
<!-- Node3 -->
<g id="Node000003" class="node">
<title>Node3</title>
<g id="a_Node000003"><a xlink:href="structMayaFlux_1_1Yantra_1_1ExecutionContext.html" target="_top" xlink:title="Context information controlling how a compute operation executes.">
<polygon fill="white" stroke="transparent" points="169,-1349 21,-1349 21,-1034 169,-1034 169,-1349"/>
<text text-anchor="start" x="26" y="-1336.5" font-family="Helvetica,sans-Serif" font-size="10.00">MayaFlux::Yantra::Execution</text>
<text text-anchor="start" x="75.5" y="-1325.5" font-family="Helvetica,sans-Serif" font-size="10.00">Context</text>
<text text-anchor="start" x="27.5" y="-1310.5" font-family="Helvetica,sans-Serif" font-size="10.00">+</text>
<text text-anchor="start" x="43" y="-1310.5" font-family="Helvetica,sans-Serif" font-size="10.00">dependencies</text>
<text text-anchor="start" x="27.5" y="-1295.5" font-family="Helvetica,sans-Serif" font-size="10.00">+</text>
<text text-anchor="start" x="43" y="-1295.5" font-family="Helvetica,sans-Serif" font-size="10.00">execution_metadata</text>
<text text-anchor="start" x="27.5" y="-1280.5" font-family="Helvetica,sans-Serif" font-size="10.00">+</text>
<text text-anchor="start" x="43" y="-1280.5" font-family="Helvetica,sans-Serif" font-size="10.00">mode</text>
<text text-anchor="start" x="27.5" y="-1265.5" font-family="Helvetica,sans-Serif" font-size="10.00">+</text>
<text text-anchor="start" x="43" y="-1265.5" font-family="Helvetica,sans-Serif" font-size="10.00">post_execution_hook</text>
<text text-anchor="start" x="27.5" y="-1250.5" font-family="Helvetica,sans-Serif" font-size="10.00">+</text>
<text text-anchor="start" x="43" y="-1250.5" font-family="Helvetica,sans-Serif" font-size="10.00">pre_execution_hook</text>
<text text-anchor="start" x="27.5" y="-1235.5" font-family="Helvetica,sans-Serif" font-size="10.00">+</text>
<text text-anchor="start" x="43" y="-1235.5" font-family="Helvetica,sans-Serif" font-size="10.00">reconstruction_callback</text>
<text text-anchor="start" x="27.5" y="-1220.5" font-family="Helvetica,sans-Serif" font-size="10.00">+</text>
<text text-anchor="start" x="43" y="-1220.5" font-family="Helvetica,sans-Serif" font-size="10.00">thread_pool</text>
<text text-anchor="start" x="27.5" y="-1205.5" font-family="Helvetica,sans-Serif" font-size="10.00">+</text>
<text text-anchor="start" x="43" y="-1205.5" font-family="Helvetica,sans-Serif" font-size="10.00">timeout</text>
<text text-anchor="start" x="27.5" y="-1190.5" font-family="Helvetica,sans-Serif" font-size="10.00">+</text>
<text text-anchor="start" x="43" y="-1190.5" font-family="Helvetica,sans-Serif" font-size="10.00">contains()</text>
<text text-anchor="start" x="27.5" y="-1175.5" font-family="Helvetica,sans-Serif" font-size="10.00">+</text>
<text text-anchor="start" x="43" y="-1175.5" font-family="Helvetica,sans-Serif" font-size="10.00">depends_on()</text>
<text text-anchor="start" x="27.5" y="-1160.5" font-family="Helvetica,sans-Serif" font-size="10.00">+</text>
<text text-anchor="start" x="43" y="-1160.5" font-family="Helvetica,sans-Serif" font-size="10.00">get()</text>
<text text-anchor="start" x="27.5" y="-1145.5" font-family="Helvetica,sans-Serif" font-size="10.00">+</text>
<text text-anchor="start" x="43" y="-1145.5" font-family="Helvetica,sans-Serif" font-size="10.00">get_or()</text>
<text text-anchor="start" x="27.5" y="-1130.5" font-family="Helvetica,sans-Serif" font-size="10.00">+</text>
<text text-anchor="start" x="43" y="-1130.5" font-family="Helvetica,sans-Serif" font-size="10.00">get_or_throw()</text>
<text text-anchor="start" x="27.5" y="-1115.5" font-family="Helvetica,sans-Serif" font-size="10.00">+</text>
<text text-anchor="start" x="43" y="-1115.5" font-family="Helvetica,sans-Serif" font-size="10.00">on_post()</text>
<text text-anchor="start" x="27.5" y="-1100.5" font-family="Helvetica,sans-Serif" font-size="10.00">+</text>
<text text-anchor="start" x="43" y="-1100.5" font-family="Helvetica,sans-Serif" font-size="10.00">on_pre()</text>
<text text-anchor="start" x="27.5" y="-1085.5" font-family="Helvetica,sans-Serif" font-size="10.00">+</text>
<text text-anchor="start" x="43" y="-1085.5" font-family="Helvetica,sans-Serif" font-size="10.00">on_reconstruct()</text>
<text text-anchor="start" x="27.5" y="-1070.5" font-family="Helvetica,sans-Serif" font-size="10.00">+</text>
<text text-anchor="start" x="43" y="-1070.5" font-family="Helvetica,sans-Serif" font-size="10.00">set()</text>
<text text-anchor="start" x="27.5" y="-1055.5" font-family="Helvetica,sans-Serif" font-size="10.00">+</text>
<text text-anchor="start" x="43" y="-1055.5" font-family="Helvetica,sans-Serif" font-size="10.00">set_mode()</text>
<text text-anchor="start" x="27.5" y="-1040.5" font-family="Helvetica,sans-Serif" font-size="10.00">+</text>
<text text-anchor="start" x="43" y="-1040.5" font-family="Helvetica,sans-Serif" font-size="10.00">with_timeout()</text>
<polygon fill="#666666" stroke="#666666" points="21,-1320.5 21,-1320.5 169,-1320.5 169,-1320.5 21,-1320.5"/>
<polygon fill="#666666" stroke="#666666" points="21,-1200.5 21,-1200.5 41,-1200.5 41,-1200.5 21,-1200.5"/>
<polygon fill="#666666" stroke="#666666" points="41,-1200.5 41,-1200.5 169,-1200.5 169,-1200.5 41,-1200.5"/>
<polygon fill="none" stroke="#666666" points="21,-1034 21,-1349 169,-1349 169,-1034 21,-1034"/>
</a>
</g>
</g>
<!-- Node3&#45;&gt;Node2 -->
<g id="edge2_Node000002_Node000003" class="edge">
<title>Node3&#45;&gt;Node2</title>
<g id="a_edge2_Node000002_Node000003"><a xlink:title=" ">
<path fill="none" stroke="#63b8ff" d="M95,-1033.74C95,-1018.85 95,-1003.59 95,-988.32"/>
<polygon fill="none" stroke="#63b8ff" points="95,-988.07 91,-982.07 95,-976.07 99,-982.07 95,-988.07"/>
</a>
</g>
<text text-anchor="middle" x="164.5" y="-1002.5" font-family="Helvetica,sans-Serif" font-size="10.00" fill="grey"> #m_last_execution_context</text>
</g>
<!-- Node4 -->
<g id="Node000004" class="node">
<title>Node4</title>
<g id="a_Node000004"><a xlink:href="structMayaFlux_1_1Yantra_1_1Datum.html" target="_top" xlink:title=" ">
<polygon fill="white" stroke="transparent" points="353.5,-920 208.5,-920 208.5,-639 353.5,-639 353.5,-920"/>
<text text-anchor="start" x="219.5" y="-907.5" font-family="Helvetica,sans-Serif" font-size="10.00">MayaFlux::Yantra::Datum</text>
<text text-anchor="start" x="219.5" y="-896.5" font-family="Helvetica,sans-Serif" font-size="10.00">&lt; std::vector&lt; Kakshya</text>
<text text-anchor="start" x="238" y="-885.5" font-family="Helvetica,sans-Serif" font-size="10.00">::DataVariant &gt; &gt;</text>
<text text-anchor="start" x="213" y="-870.5" font-family="Helvetica,sans-Serif" font-size="10.00">+</text>
<text text-anchor="start" x="226" y="-870.5" font-family="Helvetica,sans-Serif" font-size="10.00">b_container_processing</text>
<text text-anchor="start" x="213" y="-855.5" font-family="Helvetica,sans-Serif" font-size="10.00">+</text>
<text text-anchor="start" x="226" y="-855.5" font-family="Helvetica,sans-Serif" font-size="10.00">container</text>
<text text-anchor="start" x="213" y="-840.5" font-family="Helvetica,sans-Serif" font-size="10.00">+</text>
<text text-anchor="start" x="226" y="-840.5" font-family="Helvetica,sans-Serif" font-size="10.00">dimensions</text>
<text text-anchor="start" x="213" y="-825.5" font-family="Helvetica,sans-Serif" font-size="10.00">+</text>
<text text-anchor="start" x="226" y="-825.5" font-family="Helvetica,sans-Serif" font-size="10.00">metadata</text>
<text text-anchor="start" x="213" y="-810.5" font-family="Helvetica,sans-Serif" font-size="10.00">+</text>
<text text-anchor="start" x="226" y="-810.5" font-family="Helvetica,sans-Serif" font-size="10.00">modality</text>
<text text-anchor="start" x="213" y="-795.5" font-family="Helvetica,sans-Serif" font-size="10.00">+</text>
<text text-anchor="start" x="226" y="-795.5" font-family="Helvetica,sans-Serif" font-size="10.00">Datum()</text>
<text text-anchor="start" x="213" y="-780.5" font-family="Helvetica,sans-Serif" font-size="10.00">+</text>
<text text-anchor="start" x="226" y="-780.5" font-family="Helvetica,sans-Serif" font-size="10.00">Datum()</text>
<text text-anchor="start" x="213" y="-765.5" font-family="Helvetica,sans-Serif" font-size="10.00">+</text>
<text text-anchor="start" x="226" y="-765.5" font-family="Helvetica,sans-Serif" font-size="10.00">Datum()</text>
<text text-anchor="start" x="213" y="-750.5" font-family="Helvetica,sans-Serif" font-size="10.00">+</text>
<text text-anchor="start" x="226" y="-750.5" font-family="Helvetica,sans-Serif" font-size="10.00">Datum()</text>
<text text-anchor="start" x="213" y="-735.5" font-family="Helvetica,sans-Serif" font-size="10.00">+</text>
<text text-anchor="start" x="226" y="-735.5" font-family="Helvetica,sans-Serif" font-size="10.00">Datum()</text>
<text text-anchor="start" x="213" y="-720.5" font-family="Helvetica,sans-Serif" font-size="10.00">+</text>
<text text-anchor="start" x="226" y="-720.5" font-family="Helvetica,sans-Serif" font-size="10.00">Datum()</text>
<text text-anchor="start" x="213" y="-705.5" font-family="Helvetica,sans-Serif" font-size="10.00">+</text>
<text text-anchor="start" x="226" y="-705.5" font-family="Helvetica,sans-Serif" font-size="10.00">Datum()</text>
<text text-anchor="start" x="213" y="-690.5" font-family="Helvetica,sans-Serif" font-size="10.00">+</text>
<text text-anchor="start" x="226" y="-690.5" font-family="Helvetica,sans-Serif" font-size="10.00">find_dimension_by_role()</text>
<text text-anchor="start" x="213" y="-675.5" font-family="Helvetica,sans-Serif" font-size="10.00">+</text>
<text text-anchor="start" x="226" y="-675.5" font-family="Helvetica,sans-Serif" font-size="10.00">get_metadata()</text>
<text text-anchor="start" x="213" y="-660.5" font-family="Helvetica,sans-Serif" font-size="10.00">+</text>
<text text-anchor="start" x="226" y="-660.5" font-family="Helvetica,sans-Serif" font-size="10.00">get_total_elements()</text>
<text text-anchor="start" x="226" y="-645.5" font-family="Helvetica,sans-Serif" font-size="10.00">and 10 more...</text>
<polygon fill="#666666" stroke="#666666" points="209,-880.5 209,-880.5 354,-880.5 354,-880.5 209,-880.5"/>
<polygon fill="#666666" stroke="#666666" points="209,-805.5 209,-805.5 224,-805.5 224,-805.5 209,-805.5"/>
<polygon fill="#666666" stroke="#666666" points="224,-805.5 224,-805.5 354,-805.5 354,-805.5 224,-805.5"/>
<polygon fill="none" stroke="#666666" points="208.5,-639 208.5,-920 353.5,-920 353.5,-639 208.5,-639"/>
</a>
</g>
</g>
<!-- Node4&#45;&gt;Node1 -->
<g id="edge3_Node000001_Node000004" class="edge">
<title>Node4&#45;&gt;Node1</title>
<g id="a_edge3_Node000001_Node000004"><a xlink:title=" ">
<path fill="none" stroke="#63b8ff" d="M255.25,-638.94C250,-610.46 244.3,-579.56 238.5,-548.15"/>
<polygon fill="none" stroke="#63b8ff" points="238.45,-547.89 233.43,-542.72 236.28,-536.09 241.3,-541.27 238.45,-547.89"/>
</a>
</g>
<text text-anchor="middle" x="289" y="-557" font-family="Helvetica,sans-Serif" font-size="10.00" fill="grey"> #m_current_output</text>
</g>
<!-- Node5 -->
<g id="Node000005" class="node">
<title>Node5</title>
<g id="a_Node000005"><a xlink:title=" ">
<polygon fill="white" stroke="transparent" points="277.5,-1216 260.5,-1216 260.5,-1167 277.5,-1167 277.5,-1216"/>
<text text-anchor="start" x="266" y="-1203.5" font-family="Helvetica,sans-Serif" font-size="10.00">T</text>
<text text-anchor="start" x="267.5" y="-1188.5" font-family="Helvetica,sans-Serif" font-size="10.00"> </text>
<text text-anchor="start" x="267.5" y="-1173.5" font-family="Helvetica,sans-Serif" font-size="10.00"> </text>
<polygon fill="#666666" stroke="#666666" points="261,-1198.5 261,-1198.5 278,-1198.5 278,-1198.5 261,-1198.5"/>
<polygon fill="#666666" stroke="#666666" points="261,-1183.5 261,-1183.5 278,-1183.5 278,-1183.5 261,-1183.5"/>
<polygon fill="none" stroke="#666666" points="260.5,-1167 260.5,-1216 277.5,-1216 277.5,-1167 260.5,-1167"/>
</a>
</g>
</g>
<!-- Node5&#45;&gt;Node4 -->
<g id="edge4_Node000004_Node000005" class="edge">
<title>Node5&#45;&gt;Node4</title>
<g id="a_edge4_Node000004_Node000005"><a xlink:title=" ">
<path fill="none" stroke="#63b8ff" d="M269.69,-1166.98C271.01,-1121.92 273.99,-1020.08 276.56,-932.25"/>
<polygon fill="none" stroke="#63b8ff" points="276.56,-932.22 272.74,-926.11 276.91,-920.23 280.73,-926.34 276.56,-932.22"/>
</a>
</g>
<text text-anchor="middle" x="292" y="-1002.5" font-family="Helvetica,sans-Serif" font-size="10.00" fill="grey"> +data</text>
</g>
<!-- Node6 -->
<g id="Node000006" class="node">
<title>Node6</title>
<g id="a_Node000006"><a xlink:href="structMayaFlux_1_1Yantra_1_1Datum.html" target="_top" xlink:title="Input/Output container for computation pipeline data flow with structure preservation.">
<polygon fill="white" stroke="transparent" points="458,-1328.5 296,-1328.5 296,-1054.5 458,-1054.5 458,-1328.5"/>
<text text-anchor="start" x="301" y="-1316.5" font-family="Helvetica,sans-Serif" font-size="10.00">MayaFlux::Yantra::Datum&lt; T &gt;</text>
<text text-anchor="start" x="304" y="-1301.5" font-family="Helvetica,sans-Serif" font-size="10.00">+</text>
<text text-anchor="start" x="321" y="-1301.5" font-family="Helvetica,sans-Serif" font-size="10.00">b_container_processing</text>
<text text-anchor="start" x="304" y="-1286.5" font-family="Helvetica,sans-Serif" font-size="10.00">+</text>
<text text-anchor="start" x="321" y="-1286.5" font-family="Helvetica,sans-Serif" font-size="10.00">container</text>
<text text-anchor="start" x="304" y="-1271.5" font-family="Helvetica,sans-Serif" font-size="10.00">+</text>
<text text-anchor="start" x="321" y="-1271.5" font-family="Helvetica,sans-Serif" font-size="10.00">data</text>
<text text-anchor="start" x="304" y="-1256.5" font-family="Helvetica,sans-Serif" font-size="10.00">+</text>
<text text-anchor="start" x="321" y="-1256.5" font-family="Helvetica,sans-Serif" font-size="10.00">dimensions</text>
<text text-anchor="start" x="304" y="-1241.5" font-family="Helvetica,sans-Serif" font-size="10.00">+</text>
<text text-anchor="start" x="321" y="-1241.5" font-family="Helvetica,sans-Serif" font-size="10.00">metadata</text>
<text text-anchor="start" x="304" y="-1226.5" font-family="Helvetica,sans-Serif" font-size="10.00">+</text>
<text text-anchor="start" x="321" y="-1226.5" font-family="Helvetica,sans-Serif" font-size="10.00">modality</text>
<text text-anchor="start" x="304" y="-1211.5" font-family="Helvetica,sans-Serif" font-size="10.00">+</text>
<text text-anchor="start" x="321" y="-1211.5" font-family="Helvetica,sans-Serif" font-size="10.00">Datum()</text>
<text text-anchor="start" x="304" y="-1196.5" font-family="Helvetica,sans-Serif" font-size="10.00">+</text>
<text text-anchor="start" x="321" y="-1196.5" font-family="Helvetica,sans-Serif" font-size="10.00">Datum()</text>
<text text-anchor="start" x="304" y="-1181.5" font-family="Helvetica,sans-Serif" font-size="10.00">+</text>
<text text-anchor="start" x="321" y="-1181.5" font-family="Helvetica,sans-Serif" font-size="10.00">Datum()</text>
<text text-anchor="start" x="304" y="-1166.5" font-family="Helvetica,sans-Serif" font-size="10.00">+</text>
<text text-anchor="start" x="321" y="-1166.5" font-family="Helvetica,sans-Serif" font-size="10.00">Datum()</text>
<text text-anchor="start" x="304" y="-1151.5" font-family="Helvetica,sans-Serif" font-size="10.00">+</text>
<text text-anchor="start" x="321" y="-1151.5" font-family="Helvetica,sans-Serif" font-size="10.00">Datum()</text>
<text text-anchor="start" x="304" y="-1136.5" font-family="Helvetica,sans-Serif" font-size="10.00">+</text>
<text text-anchor="start" x="321" y="-1136.5" font-family="Helvetica,sans-Serif" font-size="10.00">Datum()</text>
<text text-anchor="start" x="304" y="-1121.5" font-family="Helvetica,sans-Serif" font-size="10.00">+</text>
<text text-anchor="start" x="321" y="-1121.5" font-family="Helvetica,sans-Serif" font-size="10.00">Datum()</text>
<text text-anchor="start" x="304" y="-1106.5" font-family="Helvetica,sans-Serif" font-size="10.00">+</text>
<text text-anchor="start" x="321" y="-1106.5" font-family="Helvetica,sans-Serif" font-size="10.00">find_dimension_by_role()</text>
<text text-anchor="start" x="304" y="-1091.5" font-family="Helvetica,sans-Serif" font-size="10.00">+</text>
<text text-anchor="start" x="321" y="-1091.5" font-family="Helvetica,sans-Serif" font-size="10.00">get_metadata()</text>
<text text-anchor="start" x="304" y="-1076.5" font-family="Helvetica,sans-Serif" font-size="10.00">+</text>
<text text-anchor="start" x="321" y="-1076.5" font-family="Helvetica,sans-Serif" font-size="10.00">get_total_elements()</text>
<text text-anchor="start" x="321" y="-1061.5" font-family="Helvetica,sans-Serif" font-size="10.00">and 10 more...</text>
<polygon fill="#666666" stroke="#666666" points="296,-1311.5 296,-1311.5 458,-1311.5 458,-1311.5 296,-1311.5"/>
<polygon fill="#666666" stroke="#666666" points="296,-1221.5 296,-1221.5 319,-1221.5 319,-1221.5 296,-1221.5"/>
<polygon fill="#666666" stroke="#666666" points="319,-1221.5 319,-1221.5 458,-1221.5 458,-1221.5 319,-1221.5"/>
<polygon fill="none" stroke="#666666" points="296,-1054.5 296,-1328.5 458,-1328.5 458,-1054.5 296,-1054.5"/>
</a>
</g>
</g>
<!-- Node6&#45;&gt;Node4 -->
<g id="edge5_Node000004_Node000006" class="edge">
<title>Node6&#45;&gt;Node4</title>
<g id="a_edge5_Node000004_Node000006"><a xlink:title=" ">
<path fill="none" stroke="orange" d="M342.78,-1044.33C333.31,-1003.91 323.06,-960.15 313.69,-920.11"/>
<polygon fill="orange" stroke="orange" points="339.41,-1045.32 345.1,-1054.26 346.23,-1043.73 339.41,-1045.32"/>
</a>
</g>
<text text-anchor="start" x="335" y="-1008" font-family="Helvetica,sans-Serif" font-size="10.00" fill="grey"> &lt; std::vector&lt; Kakshya</text>
<text text-anchor="middle" x="395" y="-997" font-family="Helvetica,sans-Serif" font-size="10.00" fill="grey">::DataVariant &gt; &gt;</text>
</g>
</g>
</svg>

<g id="navigator" transform="translate(0 0)" fill="#404254">
  <rect fill="#f2f5e9" fill-opacity="0.5" stroke="#606060" stroke-width=".5" x="0" y="0" width="60" height="60"/>
  <use id="zoomplus" xlink:href="#zoomPlus" x="17" y="9" onmousedown="handleZoom(evt,'in')"/>
  <use id="zoomminus" xlink:href="#zoomMin" x="42" y="9" onmousedown="handleZoom(evt,'out')"/>
  <use id="reset" xlink:href="#resetDef" x="30" y="36" onmousedown="handleReset()"/>
   <use id="arrowup" xlink:href="#arrowUp" x="0" y="0" onmousedown="handlePan(0,-1)"/>
  <use id="arrowright" xlink:href="#arrowRight" x="0" y="0" onmousedown="handlePan(1,0)"/>
  <use id="arrowdown" xlink:href="#arrowDown" x="0" y="0" onmousedown="handlePan(0,1)"/>
  <use id="arrowleft" xlink:href="#arrowLeft" x="0" y="0" onmousedown="handlePan(-1,0)"/>
</g>
<svg viewBox="0 0 15 15" width="100%" height="30px" preserveAspectRatio="xMaxYMin meet">
 <g id="arrow_out" transform="scale(0.3 0.3)">
  <a xlink:href="classMayaFlux_1_1Yantra_1_1UniversalSorter__coll__graph_org.svg" target="_base">
   <rect id="button" ry="5" rx="5" y="6" x="6" height="38" width="38"
        fill="#f2f5e9" fill-opacity="0.5" stroke="#606060" stroke-width="1.0"/>
   <path id="arrow"
     d="M 11.500037,31.436501 C 11.940474,20.09759 22.043105,11.32322 32.158766,21.979434 L 37.068811,17.246167 C 37.068811,17.246167 37.088388,32 37.088388,32 L 22.160133,31.978069 C 22.160133,31.978069 26.997745,27.140456 26.997745,27.140456 C 18.528582,18.264221 13.291696,25.230495 11.500037,31.436501 z"
     style="fill:#404040;"/>
  </a>
 </g>
</svg>

<style type='text/css'>
<![CDATA[
[data-mouse-over-selected='false'] { opacity: 0.7; }
[data-mouse-over-selected='true']  { opacity: 1.0; }
]]>
</style>
<script type="application/ecmascript"><![CDATA[
document.addEventListener('DOMContentLoaded', (event) => {
  highlightEdges();
  highlightAdjacentNodes();
});
]]></script>
</svg>
