<?xml version="1.0" encoding="UTF-8" standalone="no"?>
<!DOCTYPE svg PUBLIC "-//W3C//DTD SVG 1.1//EN"
 "http://www.w3.org/Graphics/SVG/1.1/DTD/svg11.dtd">
<!-- Generated by graphviz version 2.43.0 (0)
 -->
<!-- Title: MayaFlux::IO::AudioEncodeContext::is_valid Pages: 1 -->
<svg width="744pt" height="86pt"
 viewBox="0.00 0.00 744.00 86.00" xmlns="http://www.w3.org/2000/svg" xmlns:xlink="http://www.w3.org/1999/xlink">
<g id="graph0" class="graph" transform="scale(1 1) rotate(0) translate(4 82)">
<title>MayaFlux::IO::AudioEncodeContext::is_valid</title>
<!-- Node1 -->
<g id="Node000001" class="node">
<title>Node1</title>
<g id="a_Node000001"><a xlink:title="True if codec, resampler, and FIFO are all ready.">
<polygon fill="#999999" stroke="#666666" points="736,-54 586,-54 586,-24 736,-24 736,-54"/>
<text text-anchor="start" x="594" y="-42" font-family="Helvetica,sans-Serif" font-size="10.00">MayaFlux::IO::AudioEncode</text>
<text text-anchor="middle" x="661" y="-31" font-family="Helvetica,sans-Serif" font-size="10.00">Context::is_valid</text>
</a>
</g>
</g>
<!-- Node2 -->
<g id="Node000002" class="node">
<title>Node2</title>
<g id="a_Node000002"><a xlink:href="classMayaFlux_1_1IO_1_1AudioEncodeContext_a3427a70cf468d913a2e05b481932e13e.html#a3427a70cf468d913a2e05b481932e13e" target="_top" xlink:title="Flush the FIFO remainder and encoder internal delay to the mux.">
<polygon fill="white" stroke="#666666" points="550,-78 400,-78 400,-48 550,-48 550,-78"/>
<text text-anchor="start" x="408" y="-66" font-family="Helvetica,sans-Serif" font-size="10.00">MayaFlux::IO::AudioEncode</text>
<text text-anchor="middle" x="475" y="-55" font-family="Helvetica,sans-Serif" font-size="10.00">Context::drain</text>
</a>
</g>
</g>
<!-- Node1&#45;&gt;Node2 -->
<g id="edge1_Node000001_Node000002" class="edge">
<title>Node1&#45;&gt;Node2</title>
<g id="a_edge1_Node000001_Node000002"><a xlink:title=" ">
<path fill="none" stroke="#63b8ff" d="M575.93,-49.97C567.35,-51.09 558.66,-52.22 550.19,-53.32"/>
<polygon fill="#63b8ff" stroke="#63b8ff" points="576.49,-53.42 585.96,-48.66 575.59,-46.48 576.49,-53.42"/>
</a>
</g>
</g>
<!-- Node5 -->
<g id="Node000005" class="node">
<title>Node5</title>
<g id="a_Node000005"><a xlink:href="classMayaFlux_1_1IO_1_1AudioEncodeContext_af4f3adaf13395558f0b8bbdf35a15787.html#af4f3adaf13395558f0b8bbdf35a15787" target="_top" xlink:title="Encode a block of interleaved double&#45;precision PCM frames.">
<polygon fill="white" stroke="#666666" points="550,-30 400,-30 400,0 550,0 550,-30"/>
<text text-anchor="start" x="408" y="-18" font-family="Helvetica,sans-Serif" font-size="10.00">MayaFlux::IO::AudioEncode</text>
<text text-anchor="middle" x="475" y="-7" font-family="Helvetica,sans-Serif" font-size="10.00">Context::encode_frames</text>
</a>
</g>
</g>
<!-- Node1&#45;&gt;Node5 -->
<g id="edge4_Node000001_Node000005" class="edge">
<title>Node1&#45;&gt;Node5</title>
<g id="a_edge4_Node000001_Node000005"><a xlink:title=" ">
<path fill="none" stroke="#63b8ff" d="M575.93,-28.03C567.35,-26.91 558.66,-25.78 550.19,-24.68"/>
<polygon fill="#63b8ff" stroke="#63b8ff" points="575.59,-31.52 585.96,-29.34 576.49,-24.58 575.59,-31.52"/>
</a>
</g>
</g>
<!-- Node3 -->
<g id="Node000003" class="node">
<title>Node3</title>
<g id="a_Node000003"><a xlink:href="classMayaFlux_1_1IO_1_1SoundFileWriter_afe05fe29e71e3b1f3f3c489669dab0eb.html#afe05fe29e71e3b1f3f3c489669dab0eb" target="_top" xlink:title=" ">
<polygon fill="white" stroke="#666666" points="364,-54 200,-54 200,-24 364,-24 364,-54"/>
<text text-anchor="start" x="208" y="-42" font-family="Helvetica,sans-Serif" font-size="10.00">MayaFlux::IO::SoundFileWriter</text>
<text text-anchor="middle" x="282" y="-31" font-family="Helvetica,sans-Serif" font-size="10.00">::worker_loop</text>
</a>
</g>
</g>
<!-- Node2&#45;&gt;Node3 -->
<g id="edge2_Node000002_Node000003" class="edge">
<title>Node2&#45;&gt;Node3</title>
<g id="a_edge2_Node000002_Node000003"><a xlink:title=" ">
<path fill="none" stroke="#63b8ff" d="M389.88,-52.43C381.3,-51.35 372.59,-50.26 364.04,-49.18"/>
<polygon fill="#63b8ff" stroke="#63b8ff" points="389.52,-55.91 399.88,-53.69 390.4,-48.97 389.52,-55.91"/>
</a>
</g>
</g>
<!-- Node4 -->
<g id="Node000004" class="node">
<title>Node4</title>
<g id="a_Node000004"><a xlink:href="classMayaFlux_1_1IO_1_1SoundFileWriter_a759a872c21f40482fee6d559b8b2567d.html#a759a872c21f40482fee6d559b8b2567d" target="_top" xlink:title="Open the output file and spawn the worker thread.">
<polygon fill="white" stroke="#666666" points="164,-54 0,-54 0,-24 164,-24 164,-54"/>
<text text-anchor="start" x="8" y="-42" font-family="Helvetica,sans-Serif" font-size="10.00">MayaFlux::IO::SoundFileWriter</text>
<text text-anchor="middle" x="82" y="-31" font-family="Helvetica,sans-Serif" font-size="10.00">::open</text>
</a>
</g>
</g>
<!-- Node3&#45;&gt;Node4 -->
<g id="edge3_Node000003_Node000004" class="edge">
<title>Node3&#45;&gt;Node4</title>
<g id="a_edge3_Node000003_Node000004"><a xlink:title=" ">
<path fill="none" stroke="#63b8ff" d="M189.64,-39C181.18,-39 172.65,-39 164.3,-39"/>
<polygon fill="#63b8ff" stroke="#63b8ff" points="189.89,-42.5 199.89,-39 189.89,-35.5 189.89,-42.5"/>
</a>
</g>
</g>
<!-- Node5&#45;&gt;Node3 -->
<g id="edge5_Node000005_Node000003" class="edge">
<title>Node5&#45;&gt;Node3</title>
<g id="a_edge5_Node000005_Node000003"><a xlink:title=" ">
<path fill="none" stroke="#63b8ff" d="M389.88,-25.57C381.3,-26.65 372.59,-27.74 364.04,-28.82"/>
<polygon fill="#63b8ff" stroke="#63b8ff" points="390.4,-29.03 399.88,-24.31 389.52,-22.09 390.4,-29.03"/>
</a>
</g>
</g>
</g>
</svg>
