<?xml version="1.0" encoding="UTF-8" standalone="no"?>
<!DOCTYPE svg PUBLIC "-//W3C//DTD SVG 1.1//EN"
 "http://www.w3.org/Graphics/SVG/1.1/DTD/svg11.dtd">
<!-- Generated by graphviz version 2.43.0 (0)
 -->
<!-- Title: MayaFlux::Core::PipewireStream Pages: 1 -->
<svg width="441pt" height="687pt"
 viewBox="0.00 0.00 441.00 687.00" xmlns="http://www.w3.org/2000/svg" xmlns:xlink="http://www.w3.org/1999/xlink">
<g id="graph0" class="graph" transform="scale(1 1) rotate(0) translate(4 683)">
<title>MayaFlux::Core::PipewireStream</title>
<!-- Node1 -->
<g id="Node000001" class="node">
<title>Node1</title>
<g id="a_Node000001"><a xlink:title="PipeWire implementation of the audio stream interface.">
<polygon fill="#999999" stroke="transparent" points="161.5,-255 26.5,-255 26.5,0 161.5,0 161.5,-255"/>
<text text-anchor="start" x="32" y="-242.5" font-family="Helvetica,sans-Serif" font-size="10.00">MayaFlux::Core::Pipewire</text>
<text text-anchor="start" x="76.5" y="-231.5" font-family="Helvetica,sans-Serif" font-size="10.00">Stream</text>
<text text-anchor="start" x="34" y="-216.5" font-family="Helvetica,sans-Serif" font-size="10.00">&#45;</text>
<text text-anchor="start" x="45" y="-216.5" font-family="Helvetica,sans-Serif" font-size="10.00">m_is_open</text>
<text text-anchor="start" x="34" y="-201.5" font-family="Helvetica,sans-Serif" font-size="10.00">&#45;</text>
<text text-anchor="start" x="45" y="-201.5" font-family="Helvetica,sans-Serif" font-size="10.00">m_is_paused</text>
<text text-anchor="start" x="34" y="-186.5" font-family="Helvetica,sans-Serif" font-size="10.00">&#45;</text>
<text text-anchor="start" x="45" y="-186.5" font-family="Helvetica,sans-Serif" font-size="10.00">m_is_running</text>
<text text-anchor="start" x="34" y="-171.5" font-family="Helvetica,sans-Serif" font-size="10.00">&#45;</text>
<text text-anchor="start" x="45" y="-171.5" font-family="Helvetica,sans-Serif" font-size="10.00">m_process_callback</text>
<text text-anchor="start" x="34" y="-156.5" font-family="Helvetica,sans-Serif" font-size="10.00">&#45;</text>
<text text-anchor="start" x="45" y="-156.5" font-family="Helvetica,sans-Serif" font-size="10.00">m_user_data</text>
<text text-anchor="start" x="31.5" y="-141.5" font-family="Helvetica,sans-Serif" font-size="10.00">+</text>
<text text-anchor="start" x="45" y="-141.5" font-family="Helvetica,sans-Serif" font-size="10.00">close()</text>
<text text-anchor="start" x="31.5" y="-126.5" font-family="Helvetica,sans-Serif" font-size="10.00">+</text>
<text text-anchor="start" x="45" y="-126.5" font-family="Helvetica,sans-Serif" font-size="10.00">is_open()</text>
<text text-anchor="start" x="31.5" y="-111.5" font-family="Helvetica,sans-Serif" font-size="10.00">+</text>
<text text-anchor="start" x="45" y="-111.5" font-family="Helvetica,sans-Serif" font-size="10.00">is_running()</text>
<text text-anchor="start" x="31.5" y="-96.5" font-family="Helvetica,sans-Serif" font-size="10.00">+</text>
<text text-anchor="start" x="45" y="-96.5" font-family="Helvetica,sans-Serif" font-size="10.00">open()</text>
<text text-anchor="start" x="31.5" y="-81.5" font-family="Helvetica,sans-Serif" font-size="10.00">+</text>
<text text-anchor="start" x="45" y="-81.5" font-family="Helvetica,sans-Serif" font-size="10.00">pause()</text>
<text text-anchor="start" x="31.5" y="-66.5" font-family="Helvetica,sans-Serif" font-size="10.00">+</text>
<text text-anchor="start" x="45" y="-66.5" font-family="Helvetica,sans-Serif" font-size="10.00">resume()</text>
<text text-anchor="start" x="31.5" y="-51.5" font-family="Helvetica,sans-Serif" font-size="10.00">+</text>
<text text-anchor="start" x="45" y="-51.5" font-family="Helvetica,sans-Serif" font-size="10.00">set_process_callback()</text>
<text text-anchor="start" x="31.5" y="-36.5" font-family="Helvetica,sans-Serif" font-size="10.00">+</text>
<text text-anchor="start" x="45" y="-36.5" font-family="Helvetica,sans-Serif" font-size="10.00">start()</text>
<text text-anchor="start" x="31.5" y="-21.5" font-family="Helvetica,sans-Serif" font-size="10.00">+</text>
<text text-anchor="start" x="45" y="-21.5" font-family="Helvetica,sans-Serif" font-size="10.00">stop()</text>
<text text-anchor="start" x="31.5" y="-6.5" font-family="Helvetica,sans-Serif" font-size="10.00">+</text>
<text text-anchor="start" x="45" y="-6.5" font-family="Helvetica,sans-Serif" font-size="10.00">~PipewireStream()</text>
<polygon fill="#666666" stroke="#666666" points="27,-226.5 27,-226.5 162,-226.5 162,-226.5 27,-226.5"/>
<polygon fill="#666666" stroke="#666666" points="27,-151.5 27,-151.5 43,-151.5 43,-151.5 27,-151.5"/>
<polygon fill="#666666" stroke="#666666" points="43,-151.5 43,-151.5 162,-151.5 162,-151.5 43,-151.5"/>
<polygon fill="none" stroke="#666666" points="26.5,0 26.5,-255 161.5,-255 161.5,0 26.5,0"/>
</a>
</g>
</g>
<!-- Node2 -->
<g id="Node000002" class="node">
<title>Node2</title>
<g id="a_Node000002"><a xlink:href="classMayaFlux_1_1Core_1_1AudioStream.html" target="_top" xlink:title="Manages digital audio data flow between the engine and hardware.">
<polygon fill="white" stroke="transparent" points="156,-501 0,-501 0,-317 156,-317 156,-501"/>
<text text-anchor="start" x="5" y="-489" font-family="Helvetica,sans-Serif" font-size="10.00">MayaFlux::Core::AudioStream</text>
<text text-anchor="start" x="76" y="-474" font-family="Helvetica,sans-Serif" font-size="10.00"> </text>
<text text-anchor="start" x="9.5" y="-459" font-family="Helvetica,sans-Serif" font-size="10.00">+</text>
<text text-anchor="start" x="28" y="-459" font-family="Helvetica,sans-Serif" font-size="10.00">close()</text>
<text text-anchor="start" x="9.5" y="-444" font-family="Helvetica,sans-Serif" font-size="10.00">+</text>
<text text-anchor="start" x="28" y="-444" font-family="Helvetica,sans-Serif" font-size="10.00">is_open()</text>
<text text-anchor="start" x="9.5" y="-429" font-family="Helvetica,sans-Serif" font-size="10.00">+</text>
<text text-anchor="start" x="28" y="-429" font-family="Helvetica,sans-Serif" font-size="10.00">is_running()</text>
<text text-anchor="start" x="9.5" y="-414" font-family="Helvetica,sans-Serif" font-size="10.00">+</text>
<text text-anchor="start" x="28" y="-414" font-family="Helvetica,sans-Serif" font-size="10.00">open()</text>
<text text-anchor="start" x="9.5" y="-399" font-family="Helvetica,sans-Serif" font-size="10.00">+</text>
<text text-anchor="start" x="28" y="-399" font-family="Helvetica,sans-Serif" font-size="10.00">pause()</text>
<text text-anchor="start" x="9.5" y="-384" font-family="Helvetica,sans-Serif" font-size="10.00">+</text>
<text text-anchor="start" x="28" y="-384" font-family="Helvetica,sans-Serif" font-size="10.00">resume()</text>
<text text-anchor="start" x="9.5" y="-369" font-family="Helvetica,sans-Serif" font-size="10.00">+</text>
<text text-anchor="start" x="28" y="-369" font-family="Helvetica,sans-Serif" font-size="10.00">set_process_callback()</text>
<text text-anchor="start" x="9.5" y="-354" font-family="Helvetica,sans-Serif" font-size="10.00">+</text>
<text text-anchor="start" x="28" y="-354" font-family="Helvetica,sans-Serif" font-size="10.00">start()</text>
<text text-anchor="start" x="9.5" y="-339" font-family="Helvetica,sans-Serif" font-size="10.00">+</text>
<text text-anchor="start" x="28" y="-339" font-family="Helvetica,sans-Serif" font-size="10.00">stop()</text>
<text text-anchor="start" x="9.5" y="-324" font-family="Helvetica,sans-Serif" font-size="10.00">+</text>
<text text-anchor="start" x="28" y="-324" font-family="Helvetica,sans-Serif" font-size="10.00">~AudioStream()</text>
<polygon fill="#666666" stroke="#666666" points="0,-484 0,-484 156,-484 156,-484 0,-484"/>
<polygon fill="#666666" stroke="#666666" points="0,-469 0,-469 156,-469 156,-469 0,-469"/>
<polygon fill="none" stroke="#666666" points="0,-317 0,-501 156,-501 156,-317 0,-317"/>
</a>
</g>
</g>
<!-- Node2&#45;&gt;Node1 -->
<g id="edge1_Node000001_Node000002" class="edge">
<title>Node2&#45;&gt;Node1</title>
<g id="a_edge1_Node000001_Node000002"><a xlink:title=" ">
<path fill="none" stroke="#63b8ff" d="M83.81,-306.56C84.76,-289.83 85.77,-272.3 86.76,-255.04"/>
<polygon fill="none" stroke="#63b8ff" points="80.29,-306.68 83.22,-316.87 87.28,-307.08 80.29,-306.68"/>
</a>
</g>
</g>
<!-- Node3 -->
<g id="Node000003" class="node">
<title>Node3</title>
<g id="a_Node000003"><a xlink:href="structMayaFlux_1_1Core_1_1GlobalStreamInfo.html" target="_top" xlink:title="Comprehensive configuration for digital audio stream processing.">
<polygon fill="white" stroke="transparent" points="353.5,-516 174.5,-516 174.5,-302 353.5,-302 353.5,-516"/>
<text text-anchor="start" x="180" y="-504" font-family="Helvetica,sans-Serif" font-size="10.00">MayaFlux::Core::GlobalStreamInfo</text>
<text text-anchor="start" x="192.5" y="-489" font-family="Helvetica,sans-Serif" font-size="10.00">+</text>
<text text-anchor="start" x="219" y="-489" font-family="Helvetica,sans-Serif" font-size="10.00">auto_convert_format</text>
<text text-anchor="start" x="192.5" y="-474" font-family="Helvetica,sans-Serif" font-size="10.00">+</text>
<text text-anchor="start" x="219" y="-474" font-family="Helvetica,sans-Serif" font-size="10.00">backend</text>
<text text-anchor="start" x="192.5" y="-459" font-family="Helvetica,sans-Serif" font-size="10.00">+</text>
<text text-anchor="start" x="219" y="-459" font-family="Helvetica,sans-Serif" font-size="10.00">backend_options</text>
<text text-anchor="start" x="192.5" y="-444" font-family="Helvetica,sans-Serif" font-size="10.00">+</text>
<text text-anchor="start" x="219" y="-444" font-family="Helvetica,sans-Serif" font-size="10.00">buffer_count</text>
<text text-anchor="start" x="192.5" y="-429" font-family="Helvetica,sans-Serif" font-size="10.00">+</text>
<text text-anchor="start" x="219" y="-429" font-family="Helvetica,sans-Serif" font-size="10.00">buffer_size</text>
<text text-anchor="start" x="192.5" y="-414" font-family="Helvetica,sans-Serif" font-size="10.00">+</text>
<text text-anchor="start" x="219" y="-414" font-family="Helvetica,sans-Serif" font-size="10.00">dither</text>
<text text-anchor="start" x="192.5" y="-399" font-family="Helvetica,sans-Serif" font-size="10.00">+</text>
<text text-anchor="start" x="219" y="-399" font-family="Helvetica,sans-Serif" font-size="10.00">format</text>
<text text-anchor="start" x="192.5" y="-384" font-family="Helvetica,sans-Serif" font-size="10.00">+</text>
<text text-anchor="start" x="219" y="-384" font-family="Helvetica,sans-Serif" font-size="10.00">handle_xruns</text>
<text text-anchor="start" x="192.5" y="-369" font-family="Helvetica,sans-Serif" font-size="10.00">+</text>
<text text-anchor="start" x="219" y="-369" font-family="Helvetica,sans-Serif" font-size="10.00">measure_latency</text>
<text text-anchor="start" x="192.5" y="-354" font-family="Helvetica,sans-Serif" font-size="10.00">+</text>
<text text-anchor="start" x="219" y="-354" font-family="Helvetica,sans-Serif" font-size="10.00">non_interleaved</text>
<text text-anchor="start" x="219" y="-339" font-family="Helvetica,sans-Serif" font-size="10.00">and 6 more...</text>
<text text-anchor="start" x="192.5" y="-324" font-family="Helvetica,sans-Serif" font-size="10.00">+</text>
<text text-anchor="start" x="219" y="-324" font-family="Helvetica,sans-Serif" font-size="10.00">get_num_channels()</text>
<text text-anchor="start" x="192.5" y="-309" font-family="Helvetica,sans-Serif" font-size="10.00">+</text>
<text text-anchor="start" x="219" y="-309" font-family="Helvetica,sans-Serif" font-size="10.00">get_total_channels()</text>
<polygon fill="#666666" stroke="#666666" points="175,-499 175,-499 354,-499 354,-499 175,-499"/>
<polygon fill="#666666" stroke="#666666" points="175,-334 175,-334 217,-334 217,-334 175,-334"/>
<polygon fill="#666666" stroke="#666666" points="217,-334 217,-334 354,-334 354,-334 217,-334"/>
<polygon fill="none" stroke="#666666" points="174.5,-302 174.5,-516 353.5,-516 353.5,-302 174.5,-302"/>
</a>
</g>
</g>
<!-- Node3&#45;&gt;Node1 -->
<g id="edge2_Node000001_Node000003" class="edge">
<title>Node3&#45;&gt;Node1</title>
<g id="a_edge2_Node000001_Node000003"><a xlink:title=" ">
<path fill="none" stroke="#63b8ff" d="M199.49,-301.93C189.22,-285.05 178.53,-267.47 168.06,-250.27"/>
<polygon fill="none" stroke="#63b8ff" points="167.82,-249.86 161.28,-246.81 161.58,-239.61 168.12,-242.66 167.82,-249.86"/>
</a>
</g>
<text text-anchor="middle" x="225.5" y="-276" font-family="Helvetica,sans-Serif" font-size="10.00" fill="grey"> &#45;m_stream_info</text>
</g>
<!-- Node4 -->
<g id="Node000004" class="node">
<title>Node4</title>
<g id="a_Node000004"><a xlink:href="structMayaFlux_1_1Core_1_1GlobalStreamInfo_1_1ChannelConfig.html" target="_top" xlink:title="Configuration for input or output data channels.">
<polygon fill="white" stroke="transparent" points="255,-679 95,-679 95,-574 255,-574 255,-679"/>
<text text-anchor="start" x="100" y="-666.5" font-family="Helvetica,sans-Serif" font-size="10.00">MayaFlux::Core::GlobalStream</text>
<text text-anchor="start" x="127" y="-655.5" font-family="Helvetica,sans-Serif" font-size="10.00">Info::ChannelConfig</text>
<text text-anchor="start" x="117" y="-640.5" font-family="Helvetica,sans-Serif" font-size="10.00">+</text>
<text text-anchor="start" x="148" y="-640.5" font-family="Helvetica,sans-Serif" font-size="10.00">channels</text>
<text text-anchor="start" x="117" y="-625.5" font-family="Helvetica,sans-Serif" font-size="10.00">+</text>
<text text-anchor="start" x="148" y="-625.5" font-family="Helvetica,sans-Serif" font-size="10.00">device_id</text>
<text text-anchor="start" x="117" y="-610.5" font-family="Helvetica,sans-Serif" font-size="10.00">+</text>
<text text-anchor="start" x="148" y="-610.5" font-family="Helvetica,sans-Serif" font-size="10.00">device_name</text>
<text text-anchor="start" x="117" y="-595.5" font-family="Helvetica,sans-Serif" font-size="10.00">+</text>
<text text-anchor="start" x="148" y="-595.5" font-family="Helvetica,sans-Serif" font-size="10.00">enabled</text>
<text text-anchor="start" x="173" y="-580.5" font-family="Helvetica,sans-Serif" font-size="10.00"> </text>
<polygon fill="#666666" stroke="#666666" points="95,-650.5 95,-650.5 255,-650.5 255,-650.5 95,-650.5"/>
<polygon fill="#666666" stroke="#666666" points="95,-590.5 95,-590.5 146,-590.5 146,-590.5 95,-590.5"/>
<polygon fill="#666666" stroke="#666666" points="146,-590.5 146,-590.5 255,-590.5 255,-590.5 146,-590.5"/>
<polygon fill="none" stroke="#666666" points="95,-574 95,-679 255,-679 255,-574 95,-574"/>
</a>
</g>
</g>
<!-- Node4&#45;&gt;Node3 -->
<g id="edge3_Node000003_Node000004" class="edge">
<title>Node4&#45;&gt;Node3</title>
<g id="a_edge3_Node000003_Node000004"><a xlink:title=" ">
<path fill="none" stroke="#63b8ff" d="M196.32,-573.88C202.17,-559.72 208.76,-543.76 215.47,-527.5"/>
<polygon fill="none" stroke="#63b8ff" points="215.55,-527.31 214.15,-520.23 220.13,-516.22 221.54,-523.29 215.55,-527.31"/>
</a>
</g>
<text text-anchor="middle" x="232" y="-548" font-family="Helvetica,sans-Serif" font-size="10.00" fill="grey"> +input</text>
<text text-anchor="middle" x="232" y="-537" font-family="Helvetica,sans-Serif" font-size="10.00" fill="grey">+output</text>
</g>
<!-- Node5 -->
<g id="Node000005" class="node">
<title>Node5</title>
<g id="a_Node000005"><a xlink:href="structMayaFlux_1_1Core_1_1GlobalStreamInfo_1_1MidiConfig.html" target="_top" xlink:title="Configuration for MIDI data channels.">
<polygon fill="white" stroke="transparent" points="433,-664 273,-664 273,-589 433,-589 433,-664"/>
<text text-anchor="start" x="278" y="-651.5" font-family="Helvetica,sans-Serif" font-size="10.00">MayaFlux::Core::GlobalStream</text>
<text text-anchor="start" x="314.5" y="-640.5" font-family="Helvetica,sans-Serif" font-size="10.00">Info::MidiConfig</text>
<text text-anchor="start" x="300" y="-625.5" font-family="Helvetica,sans-Serif" font-size="10.00">+</text>
<text text-anchor="start" x="336" y="-625.5" font-family="Helvetica,sans-Serif" font-size="10.00">device_id</text>
<text text-anchor="start" x="300" y="-610.5" font-family="Helvetica,sans-Serif" font-size="10.00">+</text>
<text text-anchor="start" x="336" y="-610.5" font-family="Helvetica,sans-Serif" font-size="10.00">enabled</text>
<text text-anchor="start" x="351" y="-595.5" font-family="Helvetica,sans-Serif" font-size="10.00"> </text>
<polygon fill="#666666" stroke="#666666" points="273,-635.5 273,-635.5 433,-635.5 433,-635.5 273,-635.5"/>
<polygon fill="#666666" stroke="#666666" points="273,-605.5 273,-605.5 334,-605.5 334,-605.5 273,-605.5"/>
<polygon fill="#666666" stroke="#666666" points="334,-605.5 334,-605.5 433,-605.5 433,-605.5 334,-605.5"/>
<polygon fill="none" stroke="#666666" points="273,-589 273,-664 433,-664 433,-589 273,-589"/>
</a>
</g>
</g>
<!-- Node5&#45;&gt;Node3 -->
<g id="edge4_Node000003_Node000005" class="edge">
<title>Node5&#45;&gt;Node3</title>
<g id="a_edge4_Node000003_Node000005"><a xlink:title=" ">
<path fill="none" stroke="#63b8ff" d="M337.9,-588.94C330.73,-571.58 321.72,-549.76 312.48,-527.38"/>
<polygon fill="none" stroke="#63b8ff" points="312.36,-527.09 306.37,-523.07 307.78,-516 313.77,-520.02 312.36,-527.09"/>
</a>
</g>
<text text-anchor="middle" x="357.5" y="-548" font-family="Helvetica,sans-Serif" font-size="10.00" fill="grey"> +midi_input</text>
<text text-anchor="middle" x="357.5" y="-537" font-family="Helvetica,sans-Serif" font-size="10.00" fill="grey">+midi_output</text>
</g>
</g>
</svg>
