<?xml version="1.0" encoding="UTF-8" standalone="no"?>
<!DOCTYPE svg PUBLIC "-//W3C//DTD SVG 1.1//EN"
 "http://www.w3.org/Graphics/SVG/1.1/DTD/svg11.dtd">
<!-- Generated by graphviz version 2.43.0 (0)
 -->
<!-- Title: MayaFlux::Core::GraphicsSubsystem::shutdown Pages: 1 -->
<!--zoomable 618 -->

<svg id="main" version="1.1" xmlns="http://www.w3.org/2000/svg" xmlns:xlink="http://www.w3.org/1999/xlink" xml:space="preserve" onload="init(evt)">
<style type="text/css"><![CDATA[
.node, .edge {opacity: 0.7;}
.node.selected, .edge.selected {opacity: 1;}
.edge:hover path { stroke: red; }
.edge:hover polygon { stroke: red; fill: red; }
]]></style>

<defs>
  <circle id="rim" cx="0" cy="0" r="7"/>
  <circle id="rim2" cx="0" cy="0" r="3.5"/>
  <g id="zoomPlus">
    <use xlink:href="#rim" fill="#404040"><set attributeName="fill" to="#808080" begin="zoomplus.mouseover" end="zoomplus.mouseout"/></use>
    <path d="M-4,0h8M0,-4v8" fill="none" stroke="white" stroke-width="1.5" pointer-events="none"/>
  </g>
  <g id="zoomMin">
    <use xlink:href="#rim" fill="#404040"><set attributeName="fill" to="#808080" begin="zoomminus.mouseover" end="zoomminus.mouseout"/></use>
    <path d="M-4,0h8" fill="none" stroke="white" stroke-width="1.5" pointer-events="none"/>
  </g>
  <g id="arrowUp" transform="translate(30 24)">
    <use xlink:href="#rim"/>
    <path pointer-events="none" fill="none" stroke="white" stroke-width="1.5" d="M0,-3.0v7 M-2.5,-0.5L0,-3.0L2.5,-0.5"/>
  </g>
  <g id="arrowRight" transform="rotate(90) translate(36 -43)">
    <use xlink:href="#rim"/>
    <path pointer-events="none" fill="none" stroke="white" stroke-width="1.5" d="M0,-3.0v7 M-2.5,-0.5L0,-3.0L2.5,-0.5"/>
  </g>
  <g id="arrowDown" transform="rotate(180) translate(-30 -48)">
    <use xlink:href="#rim"/>
    <path pointer-events="none" fill="none" stroke="white" stroke-width="1.5" d="M0,-3.0v7 M-2.5,-0.5L0,-3.0L2.5,-0.5"/>
  </g>
  <g id="arrowLeft" transform="rotate(270) translate(-36 17)">
    <use xlink:href="#rim"/>
    <path pointer-events="none" fill="none" stroke="white" stroke-width="1.5" d="M0,-3.0v7 M-2.5,-0.5L0,-3.0L2.5,-0.5"/>
  </g>
  <g id="resetDef">
    <use xlink:href="#rim2" fill="#404040"><set attributeName="fill" to="#808080" begin="reset.mouseover" end="reset.mouseout"/></use>
  </g>
</defs>
<script type="application/ecmascript">
var viewWidth = 1327;
var viewHeight = 618;
var sectionId = 'dynsection-0';
</script>
<script type="application/ecmascript" xlink:href="svg.min.js"/>
<svg id="graph" class="graph">
<g id="viewport">
<title>MayaFlux::Core::GraphicsSubsystem::shutdown</title>
<!-- Node1 -->
<g id="Node000001" class="node">
<title>Node1</title>
<g id="a_Node000001"><a xlink:title="Shutdown and cleanup subsystem resources.">
<polygon fill="#999999" stroke="#666666" points="142,-102 0,-102 0,-72 142,-72 142,-102"/>
<text text-anchor="start" x="8" y="-90" font-family="Helvetica,sans-Serif" font-size="10.00">MayaFlux::Core::Graphics</text>
<text text-anchor="middle" x="71" y="-79" font-family="Helvetica,sans-Serif" font-size="10.00">Subsystem::shutdown</text>
</a>
</g>
</g>
<!-- Node2 -->
<g id="Node000002" class="node">
<title>Node2</title>
<g id="a_Node000002"><a xlink:href="namespaceMayaFlux_1_1Portal_1_1Graphics_a3889f398a94af104f9e3d00b1d059006.html#a3889f398a94af104f9e3d00b1d059006" target="_top" xlink:title="Shutdown Portal::Graphics subsystem.">
<polygon fill="white" stroke="#666666" points="537,-366 389,-366 389,-336 537,-336 537,-366"/>
<text text-anchor="start" x="397" y="-354" font-family="Helvetica,sans-Serif" font-size="10.00">MayaFlux::Portal::Graphics</text>
<text text-anchor="middle" x="463" y="-343" font-family="Helvetica,sans-Serif" font-size="10.00">::shutdown</text>
</a>
</g>
</g>
<!-- Node1&#45;&gt;Node2 -->
<g id="edge1_Node000001_Node000002" class="edge">
<title>Node1&#45;&gt;Node2</title>
<g id="a_edge1_Node000001_Node000002"><a xlink:title=" ">
<path fill="none" stroke="#63b8ff" d="M94.37,-102.14C160.47,-146.89 355.03,-278.59 431.05,-330.05"/>
<polygon fill="#63b8ff" stroke="#63b8ff" points="429.48,-333.21 439.72,-335.92 433.4,-327.42 429.48,-333.21"/>
</a>
</g>
</g>
<!-- Node24 -->
<g id="Node000024" class="node">
<title>Node24</title>
<g id="a_Node000024"><a xlink:href="namespaceMayaFlux_1_1Portal_1_1Text_a7614567fe42437ca2d87a88e48bd7893.html#a7614567fe42437ca2d87a88e48bd7893" target="_top" xlink:title="Shutdown Portal::Text.">
<polygon fill="white" stroke="#666666" points="325.5,-78 200.5,-78 200.5,-48 325.5,-48 325.5,-78"/>
<text text-anchor="start" x="208.5" y="-66" font-family="Helvetica,sans-Serif" font-size="10.00">MayaFlux::Portal::Text</text>
<text text-anchor="middle" x="263" y="-55" font-family="Helvetica,sans-Serif" font-size="10.00">::shutdown</text>
</a>
</g>
</g>
<!-- Node1&#45;&gt;Node24 -->
<g id="edge31_Node000001_Node000024" class="edge">
<title>Node1&#45;&gt;Node24</title>
<g id="a_edge31_Node000001_Node000024"><a xlink:title=" ">
<path fill="none" stroke="#63b8ff" d="M142.21,-78.13C157.82,-76.16 174.39,-74.07 190.06,-72.09"/>
<polygon fill="#63b8ff" stroke="#63b8ff" points="190.74,-75.53 200.22,-70.8 189.86,-68.58 190.74,-75.53"/>
</a>
</g>
</g>
<!-- Node27 -->
<g id="Node000027" class="node">
<title>Node27</title>
<g id="a_Node000027"><a xlink:href="classMayaFlux_1_1Core_1_1GraphicsSubsystem_acc5c12947dbc44adb045c15c8471cb12.html#acc5c12947dbc44adb045c15c8471cb12" target="_top" xlink:title="Stop the subsystem&#39;s processing/event loops.">
<polygon fill="white" stroke="#666666" points="334,-126 192,-126 192,-96 334,-96 334,-126"/>
<text text-anchor="start" x="200" y="-114" font-family="Helvetica,sans-Serif" font-size="10.00">MayaFlux::Core::Graphics</text>
<text text-anchor="middle" x="263" y="-103" font-family="Helvetica,sans-Serif" font-size="10.00">Subsystem::stop</text>
</a>
</g>
</g>
<!-- Node1&#45;&gt;Node27 -->
<g id="edge34_Node000001_Node000027" class="edge">
<title>Node1&#45;&gt;Node27</title>
<g id="a_edge34_Node000001_Node000027"><a xlink:title=" ">
<path fill="none" stroke="#63b8ff" d="M142.21,-95.87C155.1,-97.5 168.64,-99.21 181.8,-100.87"/>
<polygon fill="#63b8ff" stroke="#63b8ff" points="181.4,-104.35 191.76,-102.13 182.28,-97.4 181.4,-104.35"/>
</a>
</g>
</g>
<!-- Node33 -->
<g id="Node000033" class="node">
<title>Node33</title>
<g id="a_Node000033"><a xlink:href="classMayaFlux_1_1Core_1_1GraphicsSubsystem_ad892744323b8ca3938696cb716a5d620.html#ad892744323b8ca3938696cb716a5d620" target="_top" xlink:title="Teardown all window resources during shutdown.">
<polygon fill="white" stroke="#666666" points="348,-30 178,-30 178,0 348,0 348,-30"/>
<text text-anchor="start" x="186" y="-18" font-family="Helvetica,sans-Serif" font-size="10.00">MayaFlux::Core::Graphics</text>
<text text-anchor="middle" x="263" y="-7" font-family="Helvetica,sans-Serif" font-size="10.00">Subsystem::teardown_windows</text>
</a>
</g>
</g>
<!-- Node1&#45;&gt;Node33 -->
<g id="edge45_Node000001_Node000033" class="edge">
<title>Node1&#45;&gt;Node33</title>
<g id="a_edge45_Node000001_Node000033"><a xlink:title=" ">
<path fill="none" stroke="#63b8ff" d="M102.12,-71.93C123.07,-61.8 151.83,-48.61 178,-39 183.56,-36.96 189.39,-34.98 195.26,-33.09"/>
<polygon fill="#63b8ff" stroke="#63b8ff" points="196.65,-36.33 205.15,-30.01 194.56,-29.64 196.65,-36.33"/>
</a>
</g>
</g>
<!-- Node3 -->
<g id="Node000003" class="node">
<title>Node3</title>
<g id="a_Node000003"><a xlink:href="classMayaFlux_1_1Portal_1_1Graphics_1_1ComputePress_a89b259adf28ef041294928959e03fa9c.html#a89b259adf28ef041294928959e03fa9c" target="_top" xlink:title=" ">
<polygon fill="white" stroke="#666666" points="726,-270 578,-270 578,-240 726,-240 726,-270"/>
<text text-anchor="start" x="586" y="-258" font-family="Helvetica,sans-Serif" font-size="10.00">MayaFlux::Portal::Graphics</text>
<text text-anchor="middle" x="652" y="-247" font-family="Helvetica,sans-Serif" font-size="10.00">::ComputePress::instance</text>
</a>
</g>
</g>
<!-- Node2&#45;&gt;Node3 -->
<g id="edge2_Node000002_Node000003" class="edge">
<title>Node2&#45;&gt;Node3</title>
<g id="a_edge2_Node000002_Node000003"><a xlink:title=" ">
<path fill="none" stroke="#63b8ff" d="M484.54,-335.84C506.71,-320.01 543.49,-295.27 578,-279 581.87,-277.18 585.91,-275.43 590.03,-273.78"/>
<polygon fill="#63b8ff" stroke="#63b8ff" points="591.62,-276.92 599.71,-270.08 589.12,-270.38 591.62,-276.92"/>
</a>
</g>
</g>
<!-- Node4 -->
<g id="Node000004" class="node">
<title>Node4</title>
<g id="a_Node000004"><a xlink:href="classMayaFlux_1_1Portal_1_1Graphics_1_1RenderFlow_a427f34bcec94e920d4dbbb76ae7f175f.html#a427f34bcec94e920d4dbbb76ae7f175f" target="_top" xlink:title=" ">
<polygon fill="white" stroke="#666666" points="726,-222 578,-222 578,-192 726,-192 726,-222"/>
<text text-anchor="start" x="586" y="-210" font-family="Helvetica,sans-Serif" font-size="10.00">MayaFlux::Portal::Graphics</text>
<text text-anchor="middle" x="652" y="-199" font-family="Helvetica,sans-Serif" font-size="10.00">::RenderFlow::instance</text>
</a>
</g>
</g>
<!-- Node2&#45;&gt;Node4 -->
<g id="edge3_Node000002_Node000004" class="edge">
<title>Node2&#45;&gt;Node4</title>
<g id="a_edge3_Node000002_Node000004"><a xlink:title=" ">
<path fill="none" stroke="#63b8ff" d="M474.49,-335.81C492.7,-310.52 532.6,-259.74 578,-231 580.62,-229.34 583.37,-227.79 586.2,-226.33"/>
<polygon fill="#63b8ff" stroke="#63b8ff" points="587.88,-229.41 595.45,-222 584.91,-223.07 587.88,-229.41"/>
</a>
</g>
</g>
<!-- Node5 -->
<g id="Node000005" class="node">
<title>Node5</title>
<g id="a_Node000005"><a xlink:href="classMayaFlux_1_1Portal_1_1Graphics_1_1SamplerForge_a880d0694e043c227ecf475a1beb906cb.html#a880d0694e043c227ecf475a1beb906cb" target="_top" xlink:title=" ">
<polygon fill="white" stroke="#666666" points="726,-366 578,-366 578,-336 726,-336 726,-366"/>
<text text-anchor="start" x="586" y="-354" font-family="Helvetica,sans-Serif" font-size="10.00">MayaFlux::Portal::Graphics</text>
<text text-anchor="middle" x="652" y="-343" font-family="Helvetica,sans-Serif" font-size="10.00">::SamplerForge::instance</text>
</a>
</g>
</g>
<!-- Node2&#45;&gt;Node5 -->
<g id="edge4_Node000002_Node000005" class="edge">
<title>Node2&#45;&gt;Node5</title>
<g id="a_edge4_Node000002_Node000005"><a xlink:title=" ">
<path fill="none" stroke="#63b8ff" d="M537.1,-351C547.17,-351 557.56,-351 567.79,-351"/>
<polygon fill="#63b8ff" stroke="#63b8ff" points="567.95,-354.5 577.95,-351 567.95,-347.5 567.95,-354.5"/>
</a>
</g>
</g>
<!-- Node6 -->
<g id="Node000006" class="node">
<title>Node6</title>
<g id="a_Node000006"><a xlink:href="classMayaFlux_1_1Portal_1_1Graphics_1_1ShaderFoundry_ab22eaae6b8210236918b85f409fc4c49.html#ab22eaae6b8210236918b85f409fc4c49" target="_top" xlink:title=" ">
<polygon fill="white" stroke="#666666" points="726,-174 578,-174 578,-144 726,-144 726,-174"/>
<text text-anchor="start" x="586" y="-162" font-family="Helvetica,sans-Serif" font-size="10.00">MayaFlux::Portal::Graphics</text>
<text text-anchor="middle" x="652" y="-151" font-family="Helvetica,sans-Serif" font-size="10.00">::ShaderFoundry::instance</text>
</a>
</g>
</g>
<!-- Node2&#45;&gt;Node6 -->
<g id="edge5_Node000002_Node000006" class="edge">
<title>Node2&#45;&gt;Node6</title>
<g id="a_edge5_Node000002_Node000006"><a xlink:title=" ">
<path fill="none" stroke="#63b8ff" d="M470.32,-335.51C484.56,-302.54 522.28,-225.02 578,-183 579.86,-181.6 581.81,-180.27 583.82,-179.03"/>
<polygon fill="#63b8ff" stroke="#63b8ff" points="585.89,-181.88 593,-174.02 582.54,-175.73 585.89,-181.88"/>
</a>
</g>
</g>
<!-- Node7 -->
<g id="Node000007" class="node">
<title>Node7</title>
<g id="a_Node000007"><a xlink:href="classMayaFlux_1_1Portal_1_1Graphics_1_1TextureLoom_a6887ad297693c2392be7960daab06002.html#a6887ad297693c2392be7960daab06002" target="_top" xlink:title=" ">
<polygon fill="white" stroke="#666666" points="726,-606 578,-606 578,-576 726,-576 726,-606"/>
<text text-anchor="start" x="586" y="-594" font-family="Helvetica,sans-Serif" font-size="10.00">MayaFlux::Portal::Graphics</text>
<text text-anchor="middle" x="652" y="-583" font-family="Helvetica,sans-Serif" font-size="10.00">::TextureLoom::instance</text>
</a>
</g>
</g>
<!-- Node2&#45;&gt;Node7 -->
<g id="edge6_Node000002_Node000007" class="edge">
<title>Node2&#45;&gt;Node7</title>
<g id="a_edge6_Node000002_Node000007"><a xlink:title=" ">
<path fill="none" stroke="#63b8ff" d="M467.71,-366.05C478.12,-405.12 511.27,-510.63 578,-567 579.53,-568.29 581.13,-569.51 582.79,-570.67"/>
<polygon fill="#63b8ff" stroke="#63b8ff" points="581.13,-573.76 591.5,-575.93 584.74,-567.76 581.13,-573.76"/>
</a>
</g>
</g>
<!-- Node8 -->
<g id="Node000008" class="node">
<title>Node8</title>
<g id="a_Node000008"><a xlink:href="classMayaFlux_1_1Portal_1_1Graphics_1_1ComputePress_a6948fbfdc469b8371205414a311c02a7.html#a6948fbfdc469b8371205414a311c02a7" target="_top" xlink:title=" ">
<polygon fill="white" stroke="#666666" points="726,-510 578,-510 578,-480 726,-480 726,-510"/>
<text text-anchor="start" x="586" y="-498" font-family="Helvetica,sans-Serif" font-size="10.00">MayaFlux::Portal::Graphics</text>
<text text-anchor="middle" x="652" y="-487" font-family="Helvetica,sans-Serif" font-size="10.00">::ComputePress::shutdown</text>
</a>
</g>
</g>
<!-- Node2&#45;&gt;Node8 -->
<g id="edge7_Node000002_Node000008" class="edge">
<title>Node2&#45;&gt;Node8</title>
<g id="a_edge7_Node000002_Node000008"><a xlink:title=" ">
<path fill="none" stroke="#63b8ff" d="M474.49,-366.19C492.7,-391.48 532.6,-442.26 578,-471 580.62,-472.66 583.37,-474.21 586.2,-475.67"/>
<polygon fill="#63b8ff" stroke="#63b8ff" points="584.91,-478.93 595.45,-480 587.88,-472.59 584.91,-478.93"/>
</a>
</g>
</g>
<!-- Node12 -->
<g id="Node000012" class="node">
<title>Node12</title>
<g id="a_Node000012"><a xlink:href="classMayaFlux_1_1Portal_1_1Graphics_1_1RenderFlow_abcf02a1cf894859ebc06d61963b54da5.html#abcf02a1cf894859ebc06d61963b54da5" target="_top" xlink:title=" ">
<polygon fill="white" stroke="#666666" points="726,-462 578,-462 578,-432 726,-432 726,-462"/>
<text text-anchor="start" x="586" y="-450" font-family="Helvetica,sans-Serif" font-size="10.00">MayaFlux::Portal::Graphics</text>
<text text-anchor="middle" x="652" y="-439" font-family="Helvetica,sans-Serif" font-size="10.00">::RenderFlow::shutdown</text>
</a>
</g>
</g>
<!-- Node2&#45;&gt;Node12 -->
<g id="edge12_Node000002_Node000012" class="edge">
<title>Node2&#45;&gt;Node12</title>
<g id="a_edge12_Node000002_Node000012"><a xlink:title=" ">
<path fill="none" stroke="#63b8ff" d="M484.54,-366.16C506.71,-381.99 543.49,-406.73 578,-423 581.87,-424.82 585.91,-426.57 590.03,-428.22"/>
<polygon fill="#63b8ff" stroke="#63b8ff" points="589.12,-431.62 599.71,-431.92 591.62,-425.08 589.12,-431.62"/>
</a>
</g>
</g>
<!-- Node14 -->
<g id="Node000014" class="node">
<title>Node14</title>
<g id="a_Node000014"><a xlink:href="classMayaFlux_1_1Portal_1_1Graphics_1_1SamplerForge_acc55d7263cab1f2e742b78bff02500ac.html#acc55d7263cab1f2e742b78bff02500ac" target="_top" xlink:title="Shutdown and cleanup all samplers.">
<polygon fill="white" stroke="#666666" points="726,-558 578,-558 578,-528 726,-528 726,-558"/>
<text text-anchor="start" x="586" y="-546" font-family="Helvetica,sans-Serif" font-size="10.00">MayaFlux::Portal::Graphics</text>
<text text-anchor="middle" x="652" y="-535" font-family="Helvetica,sans-Serif" font-size="10.00">::SamplerForge::shutdown</text>
</a>
</g>
</g>
<!-- Node2&#45;&gt;Node14 -->
<g id="edge17_Node000002_Node000014" class="edge">
<title>Node2&#45;&gt;Node14</title>
<g id="a_edge17_Node000002_Node000014"><a xlink:title=" ">
<path fill="none" stroke="#63b8ff" d="M470.32,-366.49C484.56,-399.46 522.28,-476.98 578,-519 579.86,-520.4 581.81,-521.73 583.82,-522.97"/>
<polygon fill="#63b8ff" stroke="#63b8ff" points="582.54,-526.27 593,-527.98 585.89,-520.12 582.54,-526.27"/>
</a>
</g>
</g>
<!-- Node15 -->
<g id="Node000015" class="node">
<title>Node15</title>
<g id="a_Node000015"><a xlink:href="classMayaFlux_1_1Portal_1_1Graphics_1_1ShaderFoundry_a152810902f8bea3d18b29debf3a6670f.html#a152810902f8bea3d18b29debf3a6670f" target="_top" xlink:title="Shutdown and cleanup all ShaderFoundry resources.">
<polygon fill="white" stroke="#666666" points="726,-414 578,-414 578,-384 726,-384 726,-414"/>
<text text-anchor="start" x="586" y="-402" font-family="Helvetica,sans-Serif" font-size="10.00">MayaFlux::Portal::Graphics</text>
<text text-anchor="middle" x="652" y="-391" font-family="Helvetica,sans-Serif" font-size="10.00">::ShaderFoundry::shutdown</text>
</a>
</g>
</g>
<!-- Node2&#45;&gt;Node15 -->
<g id="edge18_Node000002_Node000015" class="edge">
<title>Node2&#45;&gt;Node15</title>
<g id="a_edge18_Node000002_Node000015"><a xlink:title=" ">
<path fill="none" stroke="#63b8ff" d="M522.65,-366.06C541.71,-370.95 563.03,-376.42 582.73,-381.48"/>
<polygon fill="#63b8ff" stroke="#63b8ff" points="582,-384.9 592.55,-384 583.74,-378.12 582,-384.9"/>
</a>
</g>
</g>
<!-- Node20 -->
<g id="Node000020" class="node">
<title>Node20</title>
<g id="a_Node000020"><a xlink:href="classMayaFlux_1_1Portal_1_1Graphics_1_1TextureLoom_a912ecedf34625883158c33adddcf7726.html#a912ecedf34625883158c33adddcf7726" target="_top" xlink:title="Shutdown and cleanup all textures.">
<polygon fill="white" stroke="#666666" points="726,-318 578,-318 578,-288 726,-288 726,-318"/>
<text text-anchor="start" x="586" y="-306" font-family="Helvetica,sans-Serif" font-size="10.00">MayaFlux::Portal::Graphics</text>
<text text-anchor="middle" x="652" y="-295" font-family="Helvetica,sans-Serif" font-size="10.00">::TextureLoom::shutdown</text>
</a>
</g>
</g>
<!-- Node2&#45;&gt;Node20 -->
<g id="edge27_Node000002_Node000020" class="edge">
<title>Node2&#45;&gt;Node20</title>
<g id="a_edge27_Node000002_Node000020"><a xlink:title=" ">
<path fill="none" stroke="#63b8ff" d="M522.65,-335.94C541.71,-331.05 563.03,-325.58 582.73,-320.52"/>
<polygon fill="#63b8ff" stroke="#63b8ff" points="583.74,-323.88 592.55,-318 582,-317.1 583.74,-323.88"/>
</a>
</g>
</g>
<!-- Node9 -->
<g id="Node000009" class="node">
<title>Node9</title>
<g id="a_Node000009"><a xlink:href="classMayaFlux_1_1Portal_1_1Graphics_1_1ComputePress_ab671263215b8746ee368b33296894e84.html#ab671263215b8746ee368b33296894e84" target="_top" xlink:title=" ">
<polygon fill="white" stroke="#666666" points="928.5,-569.5 780.5,-569.5 780.5,-528.5 928.5,-528.5 928.5,-569.5"/>
<text text-anchor="start" x="788.5" y="-557.5" font-family="Helvetica,sans-Serif" font-size="10.00">MayaFlux::Portal::Graphics</text>
<text text-anchor="start" x="788.5" y="-546.5" font-family="Helvetica,sans-Serif" font-size="10.00">::ComputePress::cleanup</text>
<text text-anchor="middle" x="854.5" y="-535.5" font-family="Helvetica,sans-Serif" font-size="10.00">_pipelines</text>
</a>
</g>
</g>
<!-- Node8&#45;&gt;Node9 -->
<g id="edge8_Node000008_Node000009" class="edge">
<title>Node8&#45;&gt;Node9</title>
<g id="a_edge8_Node000008_Node000009"><a xlink:title=" ">
<path fill="none" stroke="#63b8ff" d="M708.85,-510.04C727.96,-515.19 749.76,-521.06 770.54,-526.66"/>
<polygon fill="#63b8ff" stroke="#63b8ff" points="769.75,-530.07 780.32,-529.29 771.57,-523.31 769.75,-530.07"/>
</a>
</g>
</g>
<!-- Node10 -->
<g id="Node000010" class="node">
<title>Node10</title>
<g id="a_Node000010"><a xlink:href="classMayaFlux_1_1Portal_1_1Graphics_1_1ShaderFoundry_a148fdbfbb76b1df59986ea791e772885.html#a148fdbfbb76b1df59986ea791e772885" target="_top" xlink:title="Get logical device handle.">
<polygon fill="white" stroke="#666666" points="1137,-370 983,-370 983,-340 1137,-340 1137,-370"/>
<text text-anchor="start" x="991" y="-358" font-family="Helvetica,sans-Serif" font-size="10.00">MayaFlux::Portal::Graphics</text>
<text text-anchor="middle" x="1060" y="-347" font-family="Helvetica,sans-Serif" font-size="10.00">::ShaderFoundry::get_device</text>
</a>
</g>
</g>
<!-- Node8&#45;&gt;Node10 -->
<g id="edge10_Node000008_Node000010" class="edge">
<title>Node8&#45;&gt;Node10</title>
<g id="a_edge10_Node000008_Node000010"><a xlink:title=" ">
<path fill="none" stroke="#63b8ff" d="M711.94,-510.13C716.95,-512.65 721.73,-515.59 726,-519 750.3,-538.41 734.94,-563.68 762,-579 833.55,-619.51 877.06,-622.23 947,-579 1018.86,-534.59 1046.16,-428.55 1055.14,-380.02"/>
<polygon fill="#63b8ff" stroke="#63b8ff" points="1058.61,-380.5 1056.88,-370.05 1051.71,-379.3 1058.61,-380.5"/>
</a>
</g>
</g>
<!-- Node11 -->
<g id="Node000011" class="node">
<title>Node11</title>
<g id="a_Node000011"><a xlink:href="classMayaFlux_1_1Portal_1_1Graphics_1_1ShaderFoundry_aa9c6a8bc1c6cc0082f4519bd71da28c5.html#aa9c6a8bc1c6cc0082f4519bd71da28c5" target="_top" xlink:title="Check if compiler is initialized.">
<polygon fill="white" stroke="#666666" points="935.5,-510 773.5,-510 773.5,-480 935.5,-480 935.5,-510"/>
<text text-anchor="start" x="781.5" y="-498" font-family="Helvetica,sans-Serif" font-size="10.00">MayaFlux::Portal::Graphics</text>
<text text-anchor="middle" x="854.5" y="-487" font-family="Helvetica,sans-Serif" font-size="10.00">::ShaderFoundry::is_initialized</text>
</a>
</g>
</g>
<!-- Node8&#45;&gt;Node11 -->
<g id="edge11_Node000008_Node000011" class="edge">
<title>Node8&#45;&gt;Node11</title>
<g id="a_edge11_Node000008_Node000011"><a xlink:title=" ">
<path fill="none" stroke="#63b8ff" d="M726.24,-495C738.21,-495 750.74,-495 763.07,-495"/>
<polygon fill="#63b8ff" stroke="#63b8ff" points="763.36,-498.5 773.36,-495 763.36,-491.5 763.36,-498.5"/>
</a>
</g>
</g>
<!-- Node9&#45;&gt;Node10 -->
<g id="edge9_Node000009_Node000010" class="edge">
<title>Node9&#45;&gt;Node10</title>
<g id="a_edge9_Node000009_Node000010"><a xlink:title=" ">
<path fill="none" stroke="#63b8ff" d="M928.65,-530C935.15,-526.86 941.39,-523.22 947,-519 996.89,-481.52 1032.22,-415.07 1048.64,-379.34"/>
<polygon fill="#63b8ff" stroke="#63b8ff" points="1051.87,-380.68 1052.76,-370.13 1045.48,-377.82 1051.87,-380.68"/>
</a>
</g>
</g>
<!-- Node12&#45;&gt;Node10 -->
<g id="edge15_Node000012_Node000010" class="edge">
<title>Node12&#45;&gt;Node10</title>
<g id="a_edge15_Node000012_Node000010"><a xlink:title=" ">
<path fill="none" stroke="#63b8ff" d="M726.07,-454.54C786.86,-458.25 874.8,-457.57 947,-433 981.41,-421.29 1014.8,-395.61 1036.03,-376.9"/>
<polygon fill="#63b8ff" stroke="#63b8ff" points="1038.47,-379.41 1043.55,-370.12 1033.78,-374.22 1038.47,-379.41"/>
</a>
</g>
</g>
<!-- Node12&#45;&gt;Node11 -->
<g id="edge16_Node000012_Node000011" class="edge">
<title>Node12&#45;&gt;Node11</title>
<g id="a_edge16_Node000012_Node000011"><a xlink:title=" ">
<path fill="none" stroke="#63b8ff" d="M715.89,-462.06C736.51,-466.99 759.59,-472.52 780.88,-477.61"/>
<polygon fill="#63b8ff" stroke="#63b8ff" points="780.29,-481.07 790.83,-480 781.92,-474.27 780.29,-481.07"/>
</a>
</g>
</g>
<!-- Node13 -->
<g id="Node000013" class="node">
<title>Node13</title>
<g id="a_Node000013"><a xlink:href="classMayaFlux_1_1Portal_1_1Graphics_1_1RenderFlow_a1e43017bfb14d53b675089780c009f0f.html#a1e43017bfb14d53b675089780c009f0f" target="_top" xlink:title=" ">
<polygon fill="white" stroke="#666666" points="941,-424 768,-424 768,-394 941,-394 941,-424"/>
<text text-anchor="start" x="776" y="-412" font-family="Helvetica,sans-Serif" font-size="10.00">MayaFlux::Portal::Graphics</text>
<text text-anchor="middle" x="854.5" y="-401" font-family="Helvetica,sans-Serif" font-size="10.00">::RenderFlow::cleanup_pipelines</text>
</a>
</g>
</g>
<!-- Node12&#45;&gt;Node13 -->
<g id="edge13_Node000012_Node000013" class="edge">
<title>Node12&#45;&gt;Node13</title>
<g id="a_edge13_Node000012_Node000013"><a xlink:title=" ">
<path fill="none" stroke="#63b8ff" d="M726.24,-433.12C738.51,-430.79 751.36,-428.36 763.98,-425.97"/>
<polygon fill="#63b8ff" stroke="#63b8ff" points="764.87,-429.36 774.04,-424.06 763.56,-422.48 764.87,-429.36"/>
</a>
</g>
</g>
<!-- Node13&#45;&gt;Node10 -->
<g id="edge14_Node000013_Node000010" class="edge">
<title>Node13&#45;&gt;Node10</title>
<g id="a_edge14_Node000013_Node000010"><a xlink:title=" ">
<path fill="none" stroke="#63b8ff" d="M913.11,-393.94C924.35,-390.99 936.05,-387.9 947,-385 962,-381.02 978.13,-376.72 993.34,-372.65"/>
<polygon fill="#63b8ff" stroke="#63b8ff" points="994.43,-375.98 1003.19,-370.01 992.62,-369.22 994.43,-375.98"/>
</a>
</g>
</g>
<!-- Node16 -->
<g id="Node000016" class="node">
<title>Node16</title>
<g id="a_Node000016"><a xlink:href="classMayaFlux_1_1Portal_1_1Graphics_1_1ShaderFoundry_a9a8e90ecb5a133113ecd0712fb0ff988.html#a9a8e90ecb5a133113ecd0712fb0ff988" target="_top" xlink:title=" ">
<polygon fill="white" stroke="#666666" points="928.5,-375.5 780.5,-375.5 780.5,-334.5 928.5,-334.5 928.5,-375.5"/>
<text text-anchor="start" x="788.5" y="-363.5" font-family="Helvetica,sans-Serif" font-size="10.00">MayaFlux::Portal::Graphics</text>
<text text-anchor="start" x="788.5" y="-352.5" font-family="Helvetica,sans-Serif" font-size="10.00">::ShaderFoundry::cleanup</text>
<text text-anchor="middle" x="854.5" y="-341.5" font-family="Helvetica,sans-Serif" font-size="10.00">_descriptor_resources</text>
</a>
</g>
</g>
<!-- Node15&#45;&gt;Node16 -->
<g id="edge19_Node000015_Node000016" class="edge">
<title>Node15&#45;&gt;Node16</title>
<g id="a_edge19_Node000015_Node000016"><a xlink:title=" ">
<path fill="none" stroke="#63b8ff" d="M721.44,-383.98C737.13,-380.54 753.98,-376.84 770.21,-373.28"/>
<polygon fill="#63b8ff" stroke="#63b8ff" points="771.21,-376.64 780.23,-371.08 769.71,-369.8 771.21,-376.64"/>
</a>
</g>
</g>
<!-- Node17 -->
<g id="Node000017" class="node">
<title>Node17</title>
<g id="a_Node000017"><a xlink:href="classMayaFlux_1_1Portal_1_1Graphics_1_1ShaderFoundry_a5246a7c29d3226e7c738749fb2b8e6aa.html#a5246a7c29d3226e7c738749fb2b8e6aa" target="_top" xlink:title=" ">
<polygon fill="white" stroke="#666666" points="928.5,-316.5 780.5,-316.5 780.5,-275.5 928.5,-275.5 928.5,-316.5"/>
<text text-anchor="start" x="788.5" y="-304.5" font-family="Helvetica,sans-Serif" font-size="10.00">MayaFlux::Portal::Graphics</text>
<text text-anchor="start" x="788.5" y="-293.5" font-family="Helvetica,sans-Serif" font-size="10.00">::ShaderFoundry::cleanup</text>
<text text-anchor="middle" x="854.5" y="-282.5" font-family="Helvetica,sans-Serif" font-size="10.00">_shader_modules</text>
</a>
</g>
</g>
<!-- Node15&#45;&gt;Node17 -->
<g id="edge21_Node000015_Node000017" class="edge">
<title>Node15&#45;&gt;Node17</title>
<g id="a_edge21_Node000015_Node000017"><a xlink:title=" ">
<path fill="none" stroke="#63b8ff" d="M710.49,-383.97C715.97,-381.42 721.25,-378.45 726,-375 747.88,-359.14 740.12,-341.86 762,-326 764.86,-323.93 767.88,-321.99 771,-320.18"/>
<polygon fill="#63b8ff" stroke="#63b8ff" points="772.81,-323.18 780.03,-315.43 769.55,-316.99 772.81,-323.18"/>
</a>
</g>
</g>
<!-- Node18 -->
<g id="Node000018" class="node">
<title>Node18</title>
<g id="a_Node000018"><a xlink:href="classMayaFlux_1_1Portal_1_1Graphics_1_1ShaderFoundry_a267b58fc1e1669a41fd969b3f93d76c6.html#a267b58fc1e1669a41fd969b3f93d76c6" target="_top" xlink:title=" ">
<polygon fill="white" stroke="#666666" points="928.5,-257.5 780.5,-257.5 780.5,-216.5 928.5,-216.5 928.5,-257.5"/>
<text text-anchor="start" x="788.5" y="-245.5" font-family="Helvetica,sans-Serif" font-size="10.00">MayaFlux::Portal::Graphics</text>
<text text-anchor="start" x="788.5" y="-234.5" font-family="Helvetica,sans-Serif" font-size="10.00">::ShaderFoundry::cleanup</text>
<text text-anchor="middle" x="854.5" y="-223.5" font-family="Helvetica,sans-Serif" font-size="10.00">_sync_objects</text>
</a>
</g>
</g>
<!-- Node15&#45;&gt;Node18 -->
<g id="edge23_Node000015_Node000018" class="edge">
<title>Node15&#45;&gt;Node18</title>
<g id="a_edge23_Node000015_Node000018"><a xlink:title=" ">
<path fill="none" stroke="#63b8ff" d="M714.54,-383.8C718.71,-381.3 722.6,-378.39 726,-375 761.85,-339.3 726.13,-302.69 762,-267 764.92,-264.1 768.12,-261.48 771.52,-259.11"/>
<polygon fill="#63b8ff" stroke="#63b8ff" points="773.63,-261.92 780.36,-253.73 769.99,-255.94 773.63,-261.92"/>
</a>
</g>
</g>
<!-- Node19 -->
<g id="Node000019" class="node">
<title>Node19</title>
<g id="a_Node000019"><a xlink:href="classMayaFlux_1_1Portal_1_1Graphics_1_1ShaderFoundry_a52651a5a78f0c50974d443de43c776ac.html#a52651a5a78f0c50974d443de43c776ac" target="_top" xlink:title="Free all allocated command buffers.">
<polygon fill="white" stroke="#666666" points="928.5,-198.5 780.5,-198.5 780.5,-157.5 928.5,-157.5 928.5,-198.5"/>
<text text-anchor="start" x="788.5" y="-186.5" font-family="Helvetica,sans-Serif" font-size="10.00">MayaFlux::Portal::Graphics</text>
<text text-anchor="start" x="788.5" y="-175.5" font-family="Helvetica,sans-Serif" font-size="10.00">::ShaderFoundry::free_all</text>
<text text-anchor="middle" x="854.5" y="-164.5" font-family="Helvetica,sans-Serif" font-size="10.00">_command_buffers</text>
</a>
</g>
</g>
<!-- Node15&#45;&gt;Node19 -->
<g id="edge25_Node000015_Node000019" class="edge">
<title>Node15&#45;&gt;Node19</title>
<g id="a_edge25_Node000015_Node000019"><a xlink:title=" ">
<path fill="none" stroke="#63b8ff" d="M715.3,-383.98C719.24,-381.44 722.88,-378.47 726,-375 776.79,-318.56 711.19,-264.42 762,-208 764.89,-204.79 768.14,-201.91 771.63,-199.35"/>
<polygon fill="#63b8ff" stroke="#63b8ff" points="773.63,-202.23 780.19,-193.91 769.87,-196.32 773.63,-202.23"/>
</a>
</g>
</g>
<!-- Node16&#45;&gt;Node10 -->
<g id="edge20_Node000016_Node000010" class="edge">
<title>Node16&#45;&gt;Node10</title>
<g id="a_edge20_Node000016_Node000010"><a xlink:title=" ">
<path fill="none" stroke="#63b8ff" d="M928.68,-355C942.94,-355 958.01,-355 972.65,-355"/>
<polygon fill="#63b8ff" stroke="#63b8ff" points="972.7,-358.5 982.7,-355 972.7,-351.5 972.7,-358.5"/>
</a>
</g>
</g>
<!-- Node17&#45;&gt;Node10 -->
<g id="edge22_Node000017_Node000010" class="edge">
<title>Node17&#45;&gt;Node10</title>
<g id="a_edge22_Node000017_Node000010"><a xlink:title=" ">
<path fill="none" stroke="#63b8ff" d="M926.39,-316.55C949.47,-323.24 974.89,-330.61 997.25,-337.1"/>
<polygon fill="#63b8ff" stroke="#63b8ff" points="996.38,-340.49 1006.96,-339.91 998.33,-333.76 996.38,-340.49"/>
</a>
</g>
</g>
<!-- Node18&#45;&gt;Node10 -->
<g id="edge24_Node000018_Node000010" class="edge">
<title>Node18&#45;&gt;Node10</title>
<g id="a_edge24_Node000018_Node000010"><a xlink:title=" ">
<path fill="none" stroke="#63b8ff" d="M926.48,-257.51C933.56,-260.37 940.51,-263.53 947,-267 980.79,-285.08 1014.71,-313.52 1036.22,-333.15"/>
<polygon fill="#63b8ff" stroke="#63b8ff" points="1033.85,-335.72 1043.56,-339.95 1038.61,-330.58 1033.85,-335.72"/>
</a>
</g>
</g>
<!-- Node19&#45;&gt;Node10 -->
<g id="edge26_Node000019_Node000010" class="edge">
<title>Node19&#45;&gt;Node10</title>
<g id="a_edge26_Node000019_Node000010"><a xlink:title=" ">
<path fill="none" stroke="#63b8ff" d="M928.89,-197.53C935.27,-200.56 941.41,-204.03 947,-208 993.16,-240.84 1028.93,-298.31 1046.68,-330.81"/>
<polygon fill="#63b8ff" stroke="#63b8ff" points="1043.6,-332.48 1051.4,-339.66 1049.78,-329.19 1043.6,-332.48"/>
</a>
</g>
</g>
<!-- Node21 -->
<g id="Node000021" class="node">
<title>Node21</title>
<g id="a_Node000021"><a xlink:href="classMayaFlux_1_1Core_1_1BackendResourceManager_a0d36804c3058228b8958634d74a89902.html#a0d36804c3058228b8958634d74a89902" target="_top" xlink:title="Cleanup a VKImage (destroy view, image, and free memory)">
<polygon fill="white" stroke="#666666" points="947,-101 762,-101 762,-71 947,-71 947,-101"/>
<text text-anchor="start" x="770" y="-89" font-family="Helvetica,sans-Serif" font-size="10.00">MayaFlux::Core::BackendResource</text>
<text text-anchor="middle" x="854.5" y="-78" font-family="Helvetica,sans-Serif" font-size="10.00">Manager::cleanup_image</text>
</a>
</g>
</g>
<!-- Node20&#45;&gt;Node21 -->
<g id="edge28_Node000020_Node000021" class="edge">
<title>Node20&#45;&gt;Node21</title>
<g id="a_edge28_Node000020_Node000021"><a xlink:title=" ">
<path fill="none" stroke="#63b8ff" d="M714.73,-287.99C718.86,-285.45 722.69,-282.48 726,-279 767.37,-235.61 727.22,-197.83 762,-149 774.67,-131.21 794.04,-116.83 811.7,-106.32"/>
<polygon fill="#63b8ff" stroke="#63b8ff" points="813.77,-109.17 820.74,-101.19 810.31,-103.09 813.77,-109.17"/>
</a>
</g>
</g>
<!-- Node22 -->
<g id="Node000022" class="node">
<title>Node22</title>
<g id="a_Node000022"><a xlink:href="classMayaFlux_1_1Core_1_1VKContext_a41228db586851246809c40f704b64292.html#a41228db586851246809c40f704b64292" target="_top" xlink:title="Get logical device.">
<polygon fill="white" stroke="#666666" points="1135,-101 985,-101 985,-71 1135,-71 1135,-101"/>
<text text-anchor="start" x="993" y="-89" font-family="Helvetica,sans-Serif" font-size="10.00">MayaFlux::Core::VKContext</text>
<text text-anchor="middle" x="1060" y="-78" font-family="Helvetica,sans-Serif" font-size="10.00">::get_device</text>
</a>
</g>
</g>
<!-- Node21&#45;&gt;Node22 -->
<g id="edge29_Node000021_Node000022" class="edge">
<title>Node21&#45;&gt;Node22</title>
<g id="a_edge29_Node000021_Node000022"><a xlink:title=" ">
<path fill="none" stroke="#63b8ff" d="M947.13,-86C956.33,-86 965.64,-86 974.75,-86"/>
<polygon fill="#63b8ff" stroke="#63b8ff" points="974.95,-89.5 984.95,-86 974.95,-82.5 974.95,-89.5"/>
</a>
</g>
</g>
<!-- Node23 -->
<g id="Node000023" class="node">
<title>Node23</title>
<g id="a_Node000023"><a xlink:href="classMayaFlux_1_1Core_1_1VKDevice_ac91623c4b7b52f1f5f7460ef91021583.html#ac91623c4b7b52f1f5f7460ef91021583" target="_top" xlink:title="Get logical device handle.">
<polygon fill="white" stroke="#666666" points="1319,-101 1173,-101 1173,-71 1319,-71 1319,-101"/>
<text text-anchor="start" x="1181" y="-89" font-family="Helvetica,sans-Serif" font-size="10.00">MayaFlux::Core::VKDevice</text>
<text text-anchor="middle" x="1246" y="-78" font-family="Helvetica,sans-Serif" font-size="10.00">::get_device</text>
</a>
</g>
</g>
<!-- Node22&#45;&gt;Node23 -->
<g id="edge30_Node000022_Node000023" class="edge">
<title>Node22&#45;&gt;Node23</title>
<g id="a_edge30_Node000022_Node000023"><a xlink:title=" ">
<path fill="none" stroke="#63b8ff" d="M1135.04,-86C1144.11,-86 1153.43,-86 1162.61,-86"/>
<polygon fill="#63b8ff" stroke="#63b8ff" points="1162.9,-89.5 1172.9,-86 1162.9,-82.5 1162.9,-89.5"/>
</a>
</g>
</g>
<!-- Node25 -->
<g id="Node000025" class="node">
<title>Node25</title>
<g id="a_Node000025"><a xlink:href="classMayaFlux_1_1Portal_1_1Text_1_1TypeFaceFoundry_a939375a455bfd4510f6a7a8f506b600d.html#a939375a455bfd4510f6a7a8f506b600d" target="_top" xlink:title=" ">
<polygon fill="white" stroke="#666666" points="539,-30 387,-30 387,0 539,0 539,-30"/>
<text text-anchor="start" x="395" y="-18" font-family="Helvetica,sans-Serif" font-size="10.00">MayaFlux::Portal::Text</text>
<text text-anchor="middle" x="463" y="-7" font-family="Helvetica,sans-Serif" font-size="10.00">::TypeFaceFoundry::instance</text>
</a>
</g>
</g>
<!-- Node24&#45;&gt;Node25 -->
<g id="edge32_Node000024_Node000025" class="edge">
<title>Node24&#45;&gt;Node25</title>
<g id="a_edge32_Node000024_Node000025"><a xlink:title=" ">
<path fill="none" stroke="#63b8ff" d="M325.56,-48.08C345.95,-43.13 368.82,-37.59 389.92,-32.47"/>
<polygon fill="#63b8ff" stroke="#63b8ff" points="390.9,-35.84 399.79,-30.08 389.25,-29.04 390.9,-35.84"/>
</a>
</g>
</g>
<!-- Node26 -->
<g id="Node000026" class="node">
<title>Node26</title>
<g id="a_Node000026"><a xlink:href="classMayaFlux_1_1Portal_1_1Text_1_1TypeFaceFoundry_ab4b0e7291ac0300c1c8f55b292ad250b.html#ab4b0e7291ac0300c1c8f55b292ad250b" target="_top" xlink:title="Release the FreeType library handle.">
<polygon fill="white" stroke="#666666" points="542,-78 384,-78 384,-48 542,-48 542,-78"/>
<text text-anchor="start" x="392" y="-66" font-family="Helvetica,sans-Serif" font-size="10.00">MayaFlux::Portal::Text</text>
<text text-anchor="middle" x="463" y="-55" font-family="Helvetica,sans-Serif" font-size="10.00">::TypeFaceFoundry::shutdown</text>
</a>
</g>
</g>
<!-- Node24&#45;&gt;Node26 -->
<g id="edge33_Node000024_Node000026" class="edge">
<title>Node24&#45;&gt;Node26</title>
<g id="a_edge33_Node000024_Node000026"><a xlink:title=" ">
<path fill="none" stroke="#63b8ff" d="M325.56,-63C340.79,-63 357.41,-63 373.64,-63"/>
<polygon fill="#63b8ff" stroke="#63b8ff" points="373.68,-66.5 383.68,-63 373.68,-59.5 373.68,-66.5"/>
</a>
</g>
</g>
<!-- Node28 -->
<g id="Node000028" class="node">
<title>Node28</title>
<g id="a_Node000028"><a xlink:href="namespaceMayaFlux_1_1Portal_1_1Graphics_a7eac68b14a1d7757329959630892b9cc.html#a7eac68b14a1d7757329959630892b9cc" target="_top" xlink:title="Check if Portal::Graphics is initialized.">
<polygon fill="white" stroke="#666666" points="537,-126 389,-126 389,-96 537,-96 537,-126"/>
<text text-anchor="start" x="397" y="-114" font-family="Helvetica,sans-Serif" font-size="10.00">MayaFlux::Portal::Graphics</text>
<text text-anchor="middle" x="463" y="-103" font-family="Helvetica,sans-Serif" font-size="10.00">::is_initialized</text>
</a>
</g>
</g>
<!-- Node27&#45;&gt;Node28 -->
<g id="edge35_Node000027_Node000028" class="edge">
<title>Node27&#45;&gt;Node28</title>
<g id="a_edge35_Node000027_Node000028"><a xlink:title=" ">
<path fill="none" stroke="#63b8ff" d="M334.09,-111C348.55,-111 363.91,-111 378.79,-111"/>
<polygon fill="#63b8ff" stroke="#63b8ff" points="378.99,-114.5 388.99,-111 378.99,-107.5 378.99,-114.5"/>
</a>
</g>
</g>
<!-- Node29 -->
<g id="Node000029" class="node">
<title>Node29</title>
<g id="a_Node000029"><a xlink:href="namespaceMayaFlux_1_1Portal_1_1Graphics_a13c39b9130452b3f5cb320082881b3fa.html#a13c39b9130452b3f5cb320082881b3fa" target="_top" xlink:title="Stop all Portal::Graphics operations.">
<polygon fill="white" stroke="#666666" points="537,-174 389,-174 389,-144 537,-144 537,-174"/>
<text text-anchor="start" x="397" y="-162" font-family="Helvetica,sans-Serif" font-size="10.00">MayaFlux::Portal::Graphics</text>
<text text-anchor="middle" x="463" y="-151" font-family="Helvetica,sans-Serif" font-size="10.00">::stop</text>
</a>
</g>
</g>
<!-- Node27&#45;&gt;Node29 -->
<g id="edge36_Node000027_Node000029" class="edge">
<title>Node27&#45;&gt;Node29</title>
<g id="a_edge36_Node000027_Node000029"><a xlink:title=" ">
<path fill="none" stroke="#63b8ff" d="M326.11,-126.06C346.47,-130.99 369.26,-136.52 390.28,-141.61"/>
<polygon fill="#63b8ff" stroke="#63b8ff" points="389.57,-145.04 400.12,-144 391.22,-138.24 389.57,-145.04"/>
</a>
</g>
</g>
<!-- Node29&#45;&gt;Node3 -->
<g id="edge37_Node000029_Node000003" class="edge">
<title>Node29&#45;&gt;Node3</title>
<g id="a_edge37_Node000029_Node000003"><a xlink:title=" ">
<path fill="none" stroke="#63b8ff" d="M484.54,-174.16C506.71,-189.99 543.49,-214.73 578,-231 581.87,-232.82 585.91,-234.57 590.03,-236.22"/>
<polygon fill="#63b8ff" stroke="#63b8ff" points="589.12,-239.62 599.71,-239.92 591.62,-233.08 589.12,-239.62"/>
</a>
</g>
</g>
<!-- Node29&#45;&gt;Node4 -->
<g id="edge38_Node000029_Node000004" class="edge">
<title>Node29&#45;&gt;Node4</title>
<g id="a_edge38_Node000029_Node000004"><a xlink:title=" ">
<path fill="none" stroke="#63b8ff" d="M522.65,-174.06C541.71,-178.95 563.03,-184.42 582.73,-189.48"/>
<polygon fill="#63b8ff" stroke="#63b8ff" points="582,-192.9 592.55,-192 583.74,-186.12 582,-192.9"/>
</a>
</g>
</g>
<!-- Node29&#45;&gt;Node6 -->
<g id="edge39_Node000029_Node000006" class="edge">
<title>Node29&#45;&gt;Node6</title>
<g id="a_edge39_Node000029_Node000006"><a xlink:title=" ">
<path fill="none" stroke="#63b8ff" d="M537.1,-159C547.17,-159 557.56,-159 567.79,-159"/>
<polygon fill="#63b8ff" stroke="#63b8ff" points="567.95,-162.5 577.95,-159 567.95,-155.5 567.95,-162.5"/>
</a>
</g>
</g>
<!-- Node30 -->
<g id="Node000030" class="node">
<title>Node30</title>
<g id="a_Node000030"><a xlink:href="classMayaFlux_1_1Portal_1_1Graphics_1_1ComputePress_a544f1fadb55c58459349ebcc9254eaf2.html#a544f1fadb55c58459349ebcc9254eaf2" target="_top" xlink:title=" ">
<polygon fill="white" stroke="#666666" points="726,-30 578,-30 578,0 726,0 726,-30"/>
<text text-anchor="start" x="586" y="-18" font-family="Helvetica,sans-Serif" font-size="10.00">MayaFlux::Portal::Graphics</text>
<text text-anchor="middle" x="652" y="-7" font-family="Helvetica,sans-Serif" font-size="10.00">::ComputePress::stop</text>
</a>
</g>
</g>
<!-- Node29&#45;&gt;Node30 -->
<g id="edge40_Node000029_Node000030" class="edge">
<title>Node29&#45;&gt;Node30</title>
<g id="a_edge40_Node000029_Node000030"><a xlink:title=" ">
<path fill="none" stroke="#63b8ff" d="M529.95,-143.82C534.31,-141.32 538.39,-138.4 542,-135 575.18,-103.76 545.12,-70.55 578,-39 579.11,-37.93 580.27,-36.91 581.48,-35.94"/>
<polygon fill="#63b8ff" stroke="#63b8ff" points="583.68,-38.67 589.95,-30.14 579.72,-32.9 583.68,-38.67"/>
</a>
</g>
</g>
<!-- Node31 -->
<g id="Node000031" class="node">
<title>Node31</title>
<g id="a_Node000031"><a xlink:href="classMayaFlux_1_1Portal_1_1Graphics_1_1RenderFlow_a5caaefa7ac32568cf867e030ad65a48e.html#a5caaefa7ac32568cf867e030ad65a48e" target="_top" xlink:title=" ">
<polygon fill="white" stroke="#666666" points="726,-78 578,-78 578,-48 726,-48 726,-78"/>
<text text-anchor="start" x="586" y="-66" font-family="Helvetica,sans-Serif" font-size="10.00">MayaFlux::Portal::Graphics</text>
<text text-anchor="middle" x="652" y="-55" font-family="Helvetica,sans-Serif" font-size="10.00">::RenderFlow::stop</text>
</a>
</g>
</g>
<!-- Node29&#45;&gt;Node31 -->
<g id="edge41_Node000029_Node000031" class="edge">
<title>Node29&#45;&gt;Node31</title>
<g id="a_edge41_Node000029_Node000031"><a xlink:title=" ">
<path fill="none" stroke="#63b8ff" d="M526.19,-143.9C531.76,-141.37 537.13,-138.42 542,-135 563.81,-119.66 556.33,-102.55 578,-87 580.09,-85.5 582.27,-84.09 584.53,-82.77"/>
<polygon fill="#63b8ff" stroke="#63b8ff" points="586.29,-85.8 593.54,-78.08 583.05,-79.59 586.29,-85.8"/>
</a>
</g>
</g>
<!-- Node32 -->
<g id="Node000032" class="node">
<title>Node32</title>
<g id="a_Node000032"><a xlink:href="classMayaFlux_1_1Portal_1_1Graphics_1_1ShaderFoundry_a801c60f0413377246f917c64dc54ad50.html#a801c60f0413377246f917c64dc54ad50" target="_top" xlink:title="Stop active command recording and free command buffers.">
<polygon fill="white" stroke="#666666" points="726,-126 578,-126 578,-96 726,-96 726,-126"/>
<text text-anchor="start" x="586" y="-114" font-family="Helvetica,sans-Serif" font-size="10.00">MayaFlux::Portal::Graphics</text>
<text text-anchor="middle" x="652" y="-103" font-family="Helvetica,sans-Serif" font-size="10.00">::ShaderFoundry::stop</text>
</a>
</g>
</g>
<!-- Node29&#45;&gt;Node32 -->
<g id="edge42_Node000029_Node000032" class="edge">
<title>Node29&#45;&gt;Node32</title>
<g id="a_edge42_Node000029_Node000032"><a xlink:title=" ">
<path fill="none" stroke="#63b8ff" d="M522.65,-143.94C541.71,-139.05 563.03,-133.58 582.73,-128.52"/>
<polygon fill="#63b8ff" stroke="#63b8ff" points="583.74,-131.88 592.55,-126 582,-125.1 583.74,-131.88"/>
</a>
</g>
</g>
<!-- Node32&#45;&gt;Node10 -->
<g id="edge44_Node000032_Node000010" class="edge">
<title>Node32&#45;&gt;Node10</title>
<g id="a_edge44_Node000032_Node000010"><a xlink:title=" ">
<path fill="none" stroke="#63b8ff" d="M726.13,-112.95C801.32,-116.26 912.19,-125.15 947,-149 1011.05,-192.88 1041.82,-285.71 1053.36,-330.2"/>
<polygon fill="#63b8ff" stroke="#63b8ff" points="1049.96,-331.06 1055.77,-339.92 1056.76,-329.37 1049.96,-331.06"/>
</a>
</g>
</g>
<!-- Node32&#45;&gt;Node19 -->
<g id="edge43_Node000032_Node000019" class="edge">
<title>Node32&#45;&gt;Node19</title>
<g id="a_edge43_Node000032_Node000019"><a xlink:title=" ">
<path fill="none" stroke="#63b8ff" d="M698.97,-126.05C707.94,-129.01 717.27,-132.09 726,-135 744.59,-141.19 764.69,-147.94 783.31,-154.22"/>
<polygon fill="#63b8ff" stroke="#63b8ff" points="782.3,-157.57 792.89,-157.45 784.54,-150.94 782.3,-157.57"/>
</a>
</g>
</g>
</g>
</svg>

<g id="navigator" transform="translate(0 0)" fill="#404254">
  <rect fill="#f2f5e9" fill-opacity="0.5" stroke="#606060" stroke-width=".5" x="0" y="0" width="60" height="60"/>
  <use id="zoomplus" xlink:href="#zoomPlus" x="17" y="9" onmousedown="handleZoom(evt,'in')"/>
  <use id="zoomminus" xlink:href="#zoomMin" x="42" y="9" onmousedown="handleZoom(evt,'out')"/>
  <use id="reset" xlink:href="#resetDef" x="30" y="36" onmousedown="handleReset()"/>
   <use id="arrowup" xlink:href="#arrowUp" x="0" y="0" onmousedown="handlePan(0,-1)"/>
  <use id="arrowright" xlink:href="#arrowRight" x="0" y="0" onmousedown="handlePan(1,0)"/>
  <use id="arrowdown" xlink:href="#arrowDown" x="0" y="0" onmousedown="handlePan(0,1)"/>
  <use id="arrowleft" xlink:href="#arrowLeft" x="0" y="0" onmousedown="handlePan(-1,0)"/>
</g>
<svg viewBox="0 0 15 15" width="100%" height="30px" preserveAspectRatio="xMaxYMin meet">
 <g id="arrow_out" transform="scale(0.3 0.3)">
  <a xlink:href="classMayaFlux_1_1Core_1_1GraphicsSubsystem_add3c53f617b297ce6b56ee3109fb931e_add3c53f617b297ce6b56ee3109fb931e_cgraph_org.svg" target="_base">
   <rect id="button" ry="5" rx="5" y="6" x="6" height="38" width="38"
        fill="#f2f5e9" fill-opacity="0.5" stroke="#606060" stroke-width="1.0"/>
   <path id="arrow"
     d="M 11.500037,31.436501 C 11.940474,20.09759 22.043105,11.32322 32.158766,21.979434 L 37.068811,17.246167 C 37.068811,17.246167 37.088388,32 37.088388,32 L 22.160133,31.978069 C 22.160133,31.978069 26.997745,27.140456 26.997745,27.140456 C 18.528582,18.264221 13.291696,25.230495 11.500037,31.436501 z"
     style="fill:#404040;"/>
  </a>
 </g>
</svg>

<style type='text/css'>
<![CDATA[
[data-mouse-over-selected='false'] { opacity: 0.7; }
[data-mouse-over-selected='true']  { opacity: 1.0; }
]]>
</style>
<script type="application/ecmascript"><![CDATA[
document.addEventListener('DOMContentLoaded', (event) => {
  highlightEdges();
  highlightAdjacentNodes();
});
]]></script>
</svg>
