<?xml version="1.0" encoding="UTF-8" standalone="no"?>
<!DOCTYPE svg PUBLIC "-//W3C//DTD SVG 1.1//EN"
 "http://www.w3.org/Graphics/SVG/1.1/DTD/svg11.dtd">
<!-- Generated by graphviz version 2.43.0 (0)
 -->
<!-- Title: MayaFlux::Buffers::DataWriteProcessor::is_vertex_modality Pages: 1 -->
<svg width="437pt" height="147pt"
 viewBox="0.00 0.00 437.00 147.00" xmlns="http://www.w3.org/2000/svg" xmlns:xlink="http://www.w3.org/1999/xlink">
<g id="graph0" class="graph" transform="scale(1 1) rotate(0) translate(4 143)">
<title>MayaFlux::Buffers::DataWriteProcessor::is_vertex_modality</title>
<!-- Node1 -->
<g id="Node000001" class="node">
<title>Node1</title>
<g id="a_Node000001"><a xlink:title=" ">
<polygon fill="#999999" stroke="#666666" points="429,-90 310,-90 310,-49 429,-49 429,-90"/>
<text text-anchor="start" x="318" y="-78" font-family="Helvetica,sans-Serif" font-size="10.00">MayaFlux::Buffers::</text>
<text text-anchor="start" x="318" y="-67" font-family="Helvetica,sans-Serif" font-size="10.00">DataWriteProcessor::</text>
<text text-anchor="middle" x="369.5" y="-56" font-family="Helvetica,sans-Serif" font-size="10.00">is_vertex_modality</text>
</a>
</g>
</g>
<!-- Node2 -->
<g id="Node000002" class="node">
<title>Node2</title>
<g id="a_Node000002"><a xlink:href="classMayaFlux_1_1Buffers_1_1DataWriteProcessor_aca8cf954a0c10aad3ed46ee95c2705d2.html#aca8cf954a0c10aad3ed46ee95c2705d2" target="_top" xlink:title="Called when this processor is attached to a buffer.">
<polygon fill="white" stroke="#666666" points="274,-139 155,-139 155,-98 274,-98 274,-139"/>
<text text-anchor="start" x="163" y="-127" font-family="Helvetica,sans-Serif" font-size="10.00">MayaFlux::Buffers::</text>
<text text-anchor="start" x="163" y="-116" font-family="Helvetica,sans-Serif" font-size="10.00">DataWriteProcessor::</text>
<text text-anchor="middle" x="214.5" y="-105" font-family="Helvetica,sans-Serif" font-size="10.00">on_attach</text>
</a>
</g>
</g>
<!-- Node1&#45;&gt;Node2 -->
<g id="edge1_Node000001_Node000002" class="edge">
<title>Node1&#45;&gt;Node2</title>
<g id="a_edge1_Node000001_Node000002"><a xlink:title=" ">
<path fill="none" stroke="#63b8ff" d="M300.07,-91.42C291.39,-94.2 282.57,-97.02 274.06,-99.75"/>
<polygon fill="#63b8ff" stroke="#63b8ff" points="301.33,-94.69 309.78,-88.3 299.19,-88.02 301.33,-94.69"/>
</a>
</g>
</g>
<!-- Node3 -->
<g id="Node000003" class="node">
<title>Node3</title>
<g id="a_Node000003"><a xlink:href="classMayaFlux_1_1Buffers_1_1DataWriteProcessor_a18dd4906836ca9a87f85379c327156e2.html#a18dd4906836ca9a87f85379c327156e2" target="_top" xlink:title="The core processing function that must be implemented by derived classes.">
<polygon fill="white" stroke="#666666" points="119,-65 0,-65 0,-24 119,-24 119,-65"/>
<text text-anchor="start" x="8" y="-53" font-family="Helvetica,sans-Serif" font-size="10.00">MayaFlux::Buffers::</text>
<text text-anchor="start" x="8" y="-42" font-family="Helvetica,sans-Serif" font-size="10.00">DataWriteProcessor::</text>
<text text-anchor="middle" x="59.5" y="-31" font-family="Helvetica,sans-Serif" font-size="10.00">processing_function</text>
</a>
</g>
</g>
<!-- Node1&#45;&gt;Node3 -->
<g id="edge2_Node000001_Node000003" class="edge">
<title>Node1&#45;&gt;Node3</title>
<g id="a_edge2_Node000001_Node000003"><a xlink:title=" ">
<path fill="none" stroke="#63b8ff" d="M299.62,-63.91C245.39,-59.51 170.62,-53.44 119.2,-49.26"/>
<polygon fill="#63b8ff" stroke="#63b8ff" points="299.59,-67.42 309.84,-64.74 300.16,-60.44 299.59,-67.42"/>
</a>
</g>
</g>
<!-- Node4 -->
<g id="Node000004" class="node">
<title>Node4</title>
<g id="a_Node000004"><a xlink:href="classMayaFlux_1_1Buffers_1_1DataWriteProcessor_aef00e0d69e0b2afcdf9cd0c1a7b6a3f5.html#aef00e0d69e0b2afcdf9cd0c1a7b6a3f5" target="_top" xlink:title=" ">
<polygon fill="white" stroke="#666666" points="274,-41 155,-41 155,0 274,0 274,-41"/>
<text text-anchor="start" x="163" y="-29" font-family="Helvetica,sans-Serif" font-size="10.00">MayaFlux::Buffers::</text>
<text text-anchor="start" x="163" y="-18" font-family="Helvetica,sans-Serif" font-size="10.00">DataWriteProcessor::</text>
<text text-anchor="middle" x="214.5" y="-7" font-family="Helvetica,sans-Serif" font-size="10.00">upload_primary</text>
</a>
</g>
</g>
<!-- Node1&#45;&gt;Node4 -->
<g id="edge3_Node000001_Node000004" class="edge">
<title>Node1&#45;&gt;Node4</title>
<g id="a_edge3_Node000001_Node000004"><a xlink:title=" ">
<path fill="none" stroke="#63b8ff" d="M300.07,-47.58C291.39,-44.8 282.57,-41.98 274.06,-39.25"/>
<polygon fill="#63b8ff" stroke="#63b8ff" points="299.19,-50.98 309.78,-50.7 301.33,-44.31 299.19,-50.98"/>
</a>
</g>
</g>
<!-- Node4&#45;&gt;Node3 -->
<g id="edge4_Node000004_Node000003" class="edge">
<title>Node4&#45;&gt;Node3</title>
<g id="a_edge4_Node000004_Node000003"><a xlink:title=" ">
<path fill="none" stroke="#63b8ff" d="M144.79,-31.28C136.2,-32.63 127.47,-33.99 119.06,-35.31"/>
<polygon fill="#63b8ff" stroke="#63b8ff" points="145.45,-34.72 154.78,-29.71 144.36,-27.8 145.45,-34.72"/>
</a>
</g>
</g>
</g>
</svg>
