<?xml version="1.0" encoding="UTF-8" standalone="no"?>
<!DOCTYPE svg PUBLIC "-//W3C//DTD SVG 1.1//EN"
 "http://www.w3.org/Graphics/SVG/1.1/DTD/svg11.dtd">
<!-- Generated by graphviz version 2.43.0 (0)
 -->
<!-- Title: MayaFlux::Kinesis::SpatialIndex::query_grid Pages: 1 -->
<svg width="314pt" height="172pt"
 viewBox="0.00 0.00 314.00 171.50" xmlns="http://www.w3.org/2000/svg" xmlns:xlink="http://www.w3.org/1999/xlink">

<svg id="main" version="1.1" xmlns="http://www.w3.org/2000/svg" xmlns:xlink="http://www.w3.org/1999/xlink" xml:space="preserve" onload="init(evt)">
<style type="text/css"><![CDATA[
.node, .edge {opacity: 0.7;}
.node.selected, .edge.selected {opacity: 1;}
.edge:hover path { stroke: red; }
.edge:hover polygon { stroke: red; fill: red; }
]]></style>
<script type="application/ecmascript" xlink:href="svg.min.js"/>
<svg id="graph" class="graph">
<g id="graph0" class="graph" transform="scale(1 1) rotate(0) translate(4 167.5)">
<title>MayaFlux::Kinesis::SpatialIndex::query_grid</title>
<!-- Node1 -->
<g id="Node000001" class="node">
<title>Node1</title>
<g id="a_Node000001"><a xlink:title=" ">
<polygon fill="#999999" stroke="#666666" points="135,-91.5 0,-91.5 0,-61.5 135,-61.5 135,-91.5"/>
<text text-anchor="start" x="8" y="-79.5" font-family="Helvetica,sans-Serif" font-size="10.00">MayaFlux::Kinesis::</text>
<text text-anchor="middle" x="67.5" y="-68.5" font-family="Helvetica,sans-Serif" font-size="10.00">SpatialIndex::query_grid</text>
</a>
</g>
</g>
<!-- Node2 -->
<g id="Node000002" class="node">
<title>Node2</title>
<g id="a_Node000002"><a xlink:href="namespaceMayaFlux_1_1Kinesis_1_1detail_ae3bbcb703b0c604d4f165c133aa4fec8.html#ae3bbcb703b0c604d4f165c133aa4fec8" target="_top" xlink:title=" ">
<polygon fill="white" stroke="#666666" points="299.5,-163.5 177.5,-163.5 177.5,-133.5 299.5,-133.5 299.5,-163.5"/>
<text text-anchor="start" x="185.5" y="-151.5" font-family="Helvetica,sans-Serif" font-size="10.00">MayaFlux::Kinesis::</text>
<text text-anchor="middle" x="238.5" y="-140.5" font-family="Helvetica,sans-Serif" font-size="10.00">detail::cell_coords_3d</text>
</a>
</g>
</g>
<!-- Node1&#45;&gt;Node2 -->
<g id="edge1_Node000001_Node000002" class="edge">
<title>Node1&#45;&gt;Node2</title>
<g id="a_edge1_Node000001_Node000002"><a xlink:title=" ">
<path fill="none" stroke="#63b8ff" d="M98.67,-91.52C118.92,-101.38 146.31,-114.29 171,-124.5 175.38,-126.31 179.95,-128.12 184.55,-129.89"/>
<polygon fill="#63b8ff" stroke="#63b8ff" points="183.4,-133.2 194,-133.45 185.87,-126.65 183.4,-133.2"/>
</a>
</g>
</g>
<!-- Node3 -->
<g id="Node000003" class="node">
<title>Node3</title>
<g id="a_Node000003"><a xlink:href="namespaceMayaFlux_1_1Kinesis_1_1detail_a88d918cb23a3287143dab2d8b23b8363.html#a88d918cb23a3287143dab2d8b23b8363" target="_top" xlink:title=" ">
<polygon fill="white" stroke="#666666" points="295,-115.5 182,-115.5 182,-85.5 295,-85.5 295,-115.5"/>
<text text-anchor="start" x="190" y="-103.5" font-family="Helvetica,sans-Serif" font-size="10.00">MayaFlux::Kinesis::</text>
<text text-anchor="middle" x="238.5" y="-92.5" font-family="Helvetica,sans-Serif" font-size="10.00">detail::hash_cell_3d</text>
</a>
</g>
</g>
<!-- Node1&#45;&gt;Node3 -->
<g id="edge2_Node000001_Node000003" class="edge">
<title>Node1&#45;&gt;Node3</title>
<g id="a_edge2_Node000001_Node000003"><a xlink:title=" ">
<path fill="none" stroke="#63b8ff" d="M135.29,-85.99C147.33,-87.69 159.87,-89.48 171.87,-91.18"/>
<polygon fill="#63b8ff" stroke="#63b8ff" points="171.42,-94.65 181.81,-92.59 172.4,-87.72 171.42,-94.65"/>
</a>
</g>
</g>
<!-- Node4 -->
<g id="Node000004" class="node">
<title>Node4</title>
<g id="a_Node000004"><a xlink:href="namespaceMayaFlux_1_1Kinesis_1_1detail_ac0e5f5322b9a660315380629ddfefd3e.html#ac0e5f5322b9a660315380629ddfefd3e" target="_top" xlink:title=" ">
<polygon fill="white" stroke="#666666" points="295,-67.5 182,-67.5 182,-37.5 295,-37.5 295,-67.5"/>
<text text-anchor="start" x="190" y="-55.5" font-family="Helvetica,sans-Serif" font-size="10.00">MayaFlux::Kinesis::</text>
<text text-anchor="middle" x="238.5" y="-44.5" font-family="Helvetica,sans-Serif" font-size="10.00">detail::hash_cell_nd</text>
</a>
</g>
</g>
<!-- Node1&#45;&gt;Node4 -->
<g id="edge3_Node000001_Node000004" class="edge">
<title>Node1&#45;&gt;Node4</title>
<g id="a_edge3_Node000001_Node000004"><a xlink:title=" ">
<path fill="none" stroke="#63b8ff" d="M135.29,-67.01C147.33,-65.31 159.87,-63.52 171.87,-61.82"/>
<polygon fill="#63b8ff" stroke="#63b8ff" points="172.4,-65.28 181.81,-60.41 171.42,-58.35 172.4,-65.28"/>
</a>
</g>
</g>
<!-- Node5 -->
<g id="Node000005" class="node">
<title>Node5</title>
<g id="a_Node000005"><a xlink:href="namespaceMayaFlux_1_1Kinesis_a31247312c35641202ffc7008252f088d.html#a31247312c35641202ffc7008252f088d" target="_top" xlink:title="Round x to the nearest multiple of step.">
<polygon fill="white" stroke="#666666" points="306,-19 171,-19 171,0 306,0 306,-19"/>
<text text-anchor="middle" x="238.5" y="-7" font-family="Helvetica,sans-Serif" font-size="10.00">MayaFlux::Kinesis::snap</text>
</a>
</g>
</g>
<!-- Node1&#45;&gt;Node5 -->
<g id="edge4_Node000001_Node000005" class="edge">
<title>Node1&#45;&gt;Node5</title>
<g id="a_edge4_Node000001_Node000005"><a xlink:title=" ">
<path fill="none" stroke="#63b8ff" d="M97.57,-61.37C117.8,-51.21 145.6,-38.01 171,-28.5 177.27,-26.15 183.97,-23.93 190.6,-21.88"/>
<polygon fill="#63b8ff" stroke="#63b8ff" points="191.64,-25.22 200.23,-19.02 189.64,-18.51 191.64,-25.22"/>
</a>
</g>
</g>
</g>
</svg>
</svg>

<style type='text/css'>
<![CDATA[
[data-mouse-over-selected='false'] { opacity: 0.7; }
[data-mouse-over-selected='true']  { opacity: 1.0; }
]]>
</style>
<script type="application/ecmascript"><![CDATA[
document.addEventListener('DOMContentLoaded', (event) => {
  highlightEdges();
  highlightAdjacentNodes();
});
]]></script>
</svg>
