<?xml version="1.0" encoding="UTF-8" standalone="no"?>
<!DOCTYPE svg PUBLIC "-//W3C//DTD SVG 1.1//EN"
 "http://www.w3.org/Graphics/SVG/1.1/DTD/svg11.dtd">
<!-- Generated by graphviz version 2.43.0 (0)
 -->
<!-- Title: MayaFlux::Nodes::Network::GraphicsOperator Pages: 1 -->
<svg width="158pt" height="385pt"
 viewBox="0.00 0.00 158.00 385.00" xmlns="http://www.w3.org/2000/svg" xmlns:xlink="http://www.w3.org/1999/xlink">
<g id="graph0" class="graph" transform="scale(1 1) rotate(0) translate(4 381)">
<title>MayaFlux::Nodes::Network::GraphicsOperator</title>
<!-- Node1 -->
<g id="Node000001" class="node">
<title>Node1</title>
<g id="a_Node000001"><a xlink:title="Operator that produces GPU&#45;renderable geometry.">
<polygon fill="#999999" stroke="transparent" points="150,-206 0,-206 0,0 150,0 150,-206"/>
<text text-anchor="start" x="8.5" y="-194" font-family="Helvetica,sans-Serif" font-size="10.00">MayaFlux::Nodes::Network</text>
<text text-anchor="start" x="29" y="-183" font-family="Helvetica,sans-Serif" font-size="10.00">::GraphicsOperator</text>
<text text-anchor="start" x="73" y="-168" font-family="Helvetica,sans-Serif" font-size="10.00"> </text>
<text text-anchor="start" x="4" y="-153" font-family="Helvetica,sans-Serif" font-size="10.00">+</text>
<text text-anchor="start" x="17" y="-153" font-family="Helvetica,sans-Serif" font-size="10.00">apply_one_to_one()</text>
<text text-anchor="start" x="4" y="-138" font-family="Helvetica,sans-Serif" font-size="10.00">+</text>
<text text-anchor="start" x="17" y="-138" font-family="Helvetica,sans-Serif" font-size="10.00">get_point_count()</text>
<text text-anchor="start" x="4" y="-123" font-family="Helvetica,sans-Serif" font-size="10.00">+</text>
<text text-anchor="start" x="17" y="-123" font-family="Helvetica,sans-Serif" font-size="10.00">get_vertex_count()</text>
<text text-anchor="start" x="4" y="-108" font-family="Helvetica,sans-Serif" font-size="10.00">+</text>
<text text-anchor="start" x="17" y="-108" font-family="Helvetica,sans-Serif" font-size="10.00">get_vertex_data()</text>
<text text-anchor="start" x="4" y="-93" font-family="Helvetica,sans-Serif" font-size="10.00">+</text>
<text text-anchor="start" x="17" y="-93" font-family="Helvetica,sans-Serif" font-size="10.00">get_vertex_data_for</text>
<text text-anchor="start" x="17" y="-82" font-family="Helvetica,sans-Serif" font-size="10.00">_collection()</text>
<text text-anchor="start" x="4" y="-67" font-family="Helvetica,sans-Serif" font-size="10.00">+</text>
<text text-anchor="start" x="17" y="-67" font-family="Helvetica,sans-Serif" font-size="10.00">get_vertex_layout()</text>
<text text-anchor="start" x="4" y="-52" font-family="Helvetica,sans-Serif" font-size="10.00">+</text>
<text text-anchor="start" x="17" y="-52" font-family="Helvetica,sans-Serif" font-size="10.00">get_vertex_type_name()</text>
<text text-anchor="start" x="4" y="-37" font-family="Helvetica,sans-Serif" font-size="10.00">+</text>
<text text-anchor="start" x="17" y="-37" font-family="Helvetica,sans-Serif" font-size="10.00">is_vertex_data_dirty()</text>
<text text-anchor="start" x="4" y="-22" font-family="Helvetica,sans-Serif" font-size="10.00">+</text>
<text text-anchor="start" x="17" y="-22" font-family="Helvetica,sans-Serif" font-size="10.00">mark_vertex_data_clean()</text>
<text text-anchor="start" x="4" y="-7" font-family="Helvetica,sans-Serif" font-size="10.00">#</text>
<text text-anchor="start" x="17" y="-7" font-family="Helvetica,sans-Serif" font-size="10.00">get_data_at()</text>
<polygon fill="#666666" stroke="#666666" points="0,-178 0,-178 150,-178 150,-178 0,-178"/>
<polygon fill="#666666" stroke="#666666" points="0,-163 0,-163 150,-163 150,-163 0,-163"/>
<polygon fill="none" stroke="#666666" points="0,0 0,-206 150,-206 150,0 0,0"/>
</a>
</g>
</g>
<!-- Node2 -->
<g id="Node000002" class="node">
<title>Node2</title>
<g id="a_Node000002"><a xlink:href="classMayaFlux_1_1Nodes_1_1Network_1_1NetworkOperator.html" target="_top" xlink:title="Domain&#45;agnostic interpretive lens for network processing.">
<polygon fill="white" stroke="transparent" points="146.5,-377 3.5,-377 3.5,-242 146.5,-242 146.5,-377"/>
<text text-anchor="start" x="9" y="-364.5" font-family="Helvetica,sans-Serif" font-size="10.00">MayaFlux::Nodes::Network</text>
<text text-anchor="start" x="30" y="-353.5" font-family="Helvetica,sans-Serif" font-size="10.00">::NetworkOperator</text>
<text text-anchor="start" x="73.5" y="-338.5" font-family="Helvetica,sans-Serif" font-size="10.00"> </text>
<text text-anchor="start" x="13.5" y="-323.5" font-family="Helvetica,sans-Serif" font-size="10.00">+</text>
<text text-anchor="start" x="32" y="-323.5" font-family="Helvetica,sans-Serif" font-size="10.00">apply_one_to_one()</text>
<text text-anchor="start" x="13.5" y="-308.5" font-family="Helvetica,sans-Serif" font-size="10.00">+</text>
<text text-anchor="start" x="32" y="-308.5" font-family="Helvetica,sans-Serif" font-size="10.00">get_type_name()</text>
<text text-anchor="start" x="13.5" y="-293.5" font-family="Helvetica,sans-Serif" font-size="10.00">+</text>
<text text-anchor="start" x="32" y="-293.5" font-family="Helvetica,sans-Serif" font-size="10.00">process()</text>
<text text-anchor="start" x="13.5" y="-278.5" font-family="Helvetica,sans-Serif" font-size="10.00">+</text>
<text text-anchor="start" x="32" y="-278.5" font-family="Helvetica,sans-Serif" font-size="10.00">query_state()</text>
<text text-anchor="start" x="13.5" y="-263.5" font-family="Helvetica,sans-Serif" font-size="10.00">+</text>
<text text-anchor="start" x="32" y="-263.5" font-family="Helvetica,sans-Serif" font-size="10.00">set_parameter()</text>
<text text-anchor="start" x="13.5" y="-248.5" font-family="Helvetica,sans-Serif" font-size="10.00">+</text>
<text text-anchor="start" x="32" y="-248.5" font-family="Helvetica,sans-Serif" font-size="10.00">~NetworkOperator()</text>
<polygon fill="#666666" stroke="#666666" points="4,-348.5 4,-348.5 147,-348.5 147,-348.5 4,-348.5"/>
<polygon fill="#666666" stroke="#666666" points="4,-333.5 4,-333.5 147,-333.5 147,-333.5 4,-333.5"/>
<polygon fill="none" stroke="#666666" points="3.5,-242 3.5,-377 146.5,-377 146.5,-242 3.5,-242"/>
</a>
</g>
</g>
<!-- Node2&#45;&gt;Node1 -->
<g id="edge1_Node000001_Node000002" class="edge">
<title>Node2&#45;&gt;Node1</title>
<g id="a_edge1_Node000001_Node000002"><a xlink:title=" ">
<path fill="none" stroke="#63b8ff" d="M75,-231.76C75,-223.4 75,-214.8 75,-206.2"/>
<polygon fill="none" stroke="#63b8ff" points="71.5,-231.82 75,-241.82 78.5,-231.82 71.5,-231.82"/>
</a>
</g>
</g>
</g>
</svg>
