<?xml version="1.0" encoding="UTF-8" standalone="no"?>
<!DOCTYPE svg PUBLIC "-//W3C//DTD SVG 1.1//EN"
 "http://www.w3.org/Graphics/SVG/1.1/DTD/svg11.dtd">
<!-- Generated by graphviz version 2.43.0 (0)
 -->
<!-- Title: MayaFlux::Yantra::EnergyAnalyzer::method_to_string Pages: 1 -->
<svg width="558pt" height="108pt"
 viewBox="0.00 0.00 558.00 108.00" xmlns="http://www.w3.org/2000/svg" xmlns:xlink="http://www.w3.org/1999/xlink">
<g id="graph0" class="graph" transform="scale(1 1) rotate(0) translate(4 104)">
<title>MayaFlux::Yantra::EnergyAnalyzer::method_to_string</title>
<!-- Node1 -->
<g id="Node000001" class="node">
<title>Node1</title>
<g id="a_Node000001"><a xlink:title="Convert energy method enum to string.">
<polygon fill="#999999" stroke="#666666" points="550,-64.5 399,-64.5 399,-34.5 550,-34.5 550,-64.5"/>
<text text-anchor="start" x="407" y="-52.5" font-family="Helvetica,sans-Serif" font-size="10.00">MayaFlux::Yantra::Energy</text>
<text text-anchor="middle" x="474.5" y="-41.5" font-family="Helvetica,sans-Serif" font-size="10.00">Analyzer::method_to_string</text>
</a>
</g>
</g>
<!-- Node2 -->
<g id="Node000002" class="node">
<title>Node2</title>
<g id="a_Node000002"><a xlink:href="classMayaFlux_1_1Yantra_1_1EnergyAnalyzer_a0a259b21ef9e7d4d2986d72902377ebd.html#a0a259b21ef9e7d4d2986d72902377ebd" target="_top" xlink:title="Create pipeline output from input and energy values.">
<polygon fill="white" stroke="#666666" points="363,-100 223,-100 223,-59 363,-59 363,-100"/>
<text text-anchor="start" x="231" y="-88" font-family="Helvetica,sans-Serif" font-size="10.00">MayaFlux::Yantra::Energy</text>
<text text-anchor="start" x="231" y="-77" font-family="Helvetica,sans-Serif" font-size="10.00">Analyzer::create_pipeline</text>
<text text-anchor="middle" x="293" y="-66" font-family="Helvetica,sans-Serif" font-size="10.00">_output</text>
</a>
</g>
</g>
<!-- Node1&#45;&gt;Node2 -->
<g id="edge1_Node000001_Node000002" class="edge">
<title>Node1&#45;&gt;Node2</title>
<g id="a_edge1_Node000001_Node000002"><a xlink:title=" ">
<path fill="none" stroke="#63b8ff" d="M388.87,-63.64C380.26,-65.08 371.58,-66.53 363.16,-67.94"/>
<polygon fill="#63b8ff" stroke="#63b8ff" points="389.65,-67.06 398.94,-61.96 388.5,-60.16 389.65,-67.06"/>
</a>
</g>
</g>
<!-- Node4 -->
<g id="Node000004" class="node">
<title>Node4</title>
<g id="a_Node000004"><a xlink:href="classMayaFlux_1_1Yantra_1_1EnergyAnalyzer_a7ca4b219c86938785732cdb7774792be.html#a7ca4b219c86938785732cdb7774792be" target="_top" xlink:title="Get analysis&#45;specific parameter.">
<polygon fill="white" stroke="#666666" points="363,-41 223,-41 223,0 363,0 363,-41"/>
<text text-anchor="start" x="231" y="-29" font-family="Helvetica,sans-Serif" font-size="10.00">MayaFlux::Yantra::Energy</text>
<text text-anchor="start" x="231" y="-18" font-family="Helvetica,sans-Serif" font-size="10.00">Analyzer::get_analysis</text>
<text text-anchor="middle" x="293" y="-7" font-family="Helvetica,sans-Serif" font-size="10.00">_parameter</text>
</a>
</g>
</g>
<!-- Node1&#45;&gt;Node4 -->
<g id="edge3_Node000001_Node000004" class="edge">
<title>Node1&#45;&gt;Node4</title>
<g id="a_edge3_Node000001_Node000004"><a xlink:title=" ">
<path fill="none" stroke="#63b8ff" d="M388.87,-35.83C380.26,-34.44 371.58,-33.03 363.16,-31.67"/>
<polygon fill="#63b8ff" stroke="#63b8ff" points="388.51,-39.31 398.94,-37.45 389.62,-32.4 388.51,-39.31"/>
</a>
</g>
</g>
<!-- Node3 -->
<g id="Node000003" class="node">
<title>Node3</title>
<g id="a_Node000003"><a xlink:href="classMayaFlux_1_1Yantra_1_1EnergyAnalyzer_a97561d0986bef72b733abe1670d3d6a7.html#a97561d0986bef72b733abe1670d3d6a7" target="_top" xlink:title="Core analysis implementation &#45; creates analysis result AND pipeline output.">
<polygon fill="white" stroke="#666666" points="187,-94.5 0,-94.5 0,-64.5 187,-64.5 187,-94.5"/>
<text text-anchor="start" x="8" y="-82.5" font-family="Helvetica,sans-Serif" font-size="10.00">MayaFlux::Yantra::Energy</text>
<text text-anchor="middle" x="93.5" y="-71.5" font-family="Helvetica,sans-Serif" font-size="10.00">Analyzer::analyze_implementation</text>
</a>
</g>
</g>
<!-- Node2&#45;&gt;Node3 -->
<g id="edge2_Node000002_Node000003" class="edge">
<title>Node2&#45;&gt;Node3</title>
<g id="a_edge2_Node000002_Node000003"><a xlink:title=" ">
<path fill="none" stroke="#63b8ff" d="M212.76,-79.5C204.33,-79.5 195.71,-79.5 187.14,-79.5"/>
<polygon fill="#63b8ff" stroke="#63b8ff" points="212.92,-83 222.92,-79.5 212.92,-76 212.92,-83"/>
</a>
</g>
</g>
</g>
</svg>
