<?xml version="1.0" encoding="UTF-8" standalone="no"?>
<!DOCTYPE svg PUBLIC "-//W3C//DTD SVG 1.1//EN"
 "http://www.w3.org/Graphics/SVG/1.1/DTD/svg11.dtd">
<!-- Generated by graphviz version 2.43.0 (0)
 -->
<!-- Title: MayaFlux::Yantra::FeatureExtractor&lt; InputType, OutputType &gt; Pages: 1 -->
<!--zoomable 1050 -->

<svg id="main" version="1.1" xmlns="http://www.w3.org/2000/svg" xmlns:xlink="http://www.w3.org/1999/xlink" xml:space="preserve" onload="init(evt)">
<style type="text/css"><![CDATA[
.node, .edge {opacity: 0.7;}
.node.selected, .edge.selected {opacity: 1;}
.edge:hover path { stroke: red; }
.edge:hover polygon { stroke: red; fill: red; }
]]></style>

<defs>
  <circle id="rim" cx="0" cy="0" r="7"/>
  <circle id="rim2" cx="0" cy="0" r="3.5"/>
  <g id="zoomPlus">
    <use xlink:href="#rim" fill="#404040"><set attributeName="fill" to="#808080" begin="zoomplus.mouseover" end="zoomplus.mouseout"/></use>
    <path d="M-4,0h8M0,-4v8" fill="none" stroke="white" stroke-width="1.5" pointer-events="none"/>
  </g>
  <g id="zoomMin">
    <use xlink:href="#rim" fill="#404040"><set attributeName="fill" to="#808080" begin="zoomminus.mouseover" end="zoomminus.mouseout"/></use>
    <path d="M-4,0h8" fill="none" stroke="white" stroke-width="1.5" pointer-events="none"/>
  </g>
  <g id="arrowUp" transform="translate(30 24)">
    <use xlink:href="#rim"/>
    <path pointer-events="none" fill="none" stroke="white" stroke-width="1.5" d="M0,-3.0v7 M-2.5,-0.5L0,-3.0L2.5,-0.5"/>
  </g>
  <g id="arrowRight" transform="rotate(90) translate(36 -43)">
    <use xlink:href="#rim"/>
    <path pointer-events="none" fill="none" stroke="white" stroke-width="1.5" d="M0,-3.0v7 M-2.5,-0.5L0,-3.0L2.5,-0.5"/>
  </g>
  <g id="arrowDown" transform="rotate(180) translate(-30 -48)">
    <use xlink:href="#rim"/>
    <path pointer-events="none" fill="none" stroke="white" stroke-width="1.5" d="M0,-3.0v7 M-2.5,-0.5L0,-3.0L2.5,-0.5"/>
  </g>
  <g id="arrowLeft" transform="rotate(270) translate(-36 17)">
    <use xlink:href="#rim"/>
    <path pointer-events="none" fill="none" stroke="white" stroke-width="1.5" d="M0,-3.0v7 M-2.5,-0.5L0,-3.0L2.5,-0.5"/>
  </g>
  <g id="resetDef">
    <use xlink:href="#rim2" fill="#404040"><set attributeName="fill" to="#808080" begin="reset.mouseover" end="reset.mouseout"/></use>
  </g>
</defs>
<script type="application/ecmascript">
var viewWidth = 230;
var viewHeight = 1050;
var sectionId = 'dynsection-0';
</script>
<script type="application/ecmascript" xlink:href="svg.min.js"/>
<svg id="graph" class="graph">
<g id="viewport">
<title>MayaFlux::Yantra::FeatureExtractor&lt; InputType, OutputType &gt;</title>
<!-- Node1 -->
<g id="Node000001" class="node">
<title>Node1</title>
<g id="a_Node000001"><a xlink:title="Analyzer&#45;guided feature extractor with enum&#45;based configuration.">
<polygon fill="#999999" stroke="transparent" points="186,-923 0,-923 0,-567 186,-567 186,-923"/>
<text text-anchor="start" x="5" y="-911" font-family="Helvetica,sans-Serif" font-size="10.00">MayaFlux::Yantra::Feature</text>
<text text-anchor="start" x="5" y="-900" font-family="Helvetica,sans-Serif" font-size="10.00">Extractor&lt; InputType, OutputType &gt;</text>
<text text-anchor="start" x="14" y="-885" font-family="Helvetica,sans-Serif" font-size="10.00">&#45;</text>
<text text-anchor="start" x="32" y="-885" font-family="Helvetica,sans-Serif" font-size="10.00">m_hop_size</text>
<text text-anchor="start" x="14" y="-870" font-family="Helvetica,sans-Serif" font-size="10.00">&#45;</text>
<text text-anchor="start" x="32" y="-870" font-family="Helvetica,sans-Serif" font-size="10.00">m_method</text>
<text text-anchor="start" x="14" y="-855" font-family="Helvetica,sans-Serif" font-size="10.00">&#45;</text>
<text text-anchor="start" x="32" y="-855" font-family="Helvetica,sans-Serif" font-size="10.00">m_window_size</text>
<text text-anchor="start" x="11.5" y="-840" font-family="Helvetica,sans-Serif" font-size="10.00">+</text>
<text text-anchor="start" x="32" y="-840" font-family="Helvetica,sans-Serif" font-size="10.00">FeatureExtractor()</text>
<text text-anchor="start" x="11.5" y="-825" font-family="Helvetica,sans-Serif" font-size="10.00">+</text>
<text text-anchor="start" x="32" y="-825" font-family="Helvetica,sans-Serif" font-size="10.00">get_available_methods()</text>
<text text-anchor="start" x="11.5" y="-810" font-family="Helvetica,sans-Serif" font-size="10.00">+</text>
<text text-anchor="start" x="32" y="-810" font-family="Helvetica,sans-Serif" font-size="10.00">get_extraction_method()</text>
<text text-anchor="start" x="11.5" y="-795" font-family="Helvetica,sans-Serif" font-size="10.00">+</text>
<text text-anchor="start" x="32" y="-795" font-family="Helvetica,sans-Serif" font-size="10.00">get_extraction_type()</text>
<text text-anchor="start" x="11.5" y="-780" font-family="Helvetica,sans-Serif" font-size="10.00">+</text>
<text text-anchor="start" x="32" y="-780" font-family="Helvetica,sans-Serif" font-size="10.00">get_extractor_name()</text>
<text text-anchor="start" x="11.5" y="-765" font-family="Helvetica,sans-Serif" font-size="10.00">+</text>
<text text-anchor="start" x="32" y="-765" font-family="Helvetica,sans-Serif" font-size="10.00">get_hop_size()</text>
<text text-anchor="start" x="11.5" y="-750" font-family="Helvetica,sans-Serif" font-size="10.00">+</text>
<text text-anchor="start" x="32" y="-750" font-family="Helvetica,sans-Serif" font-size="10.00">get_window_size()</text>
<text text-anchor="start" x="11.5" y="-735" font-family="Helvetica,sans-Serif" font-size="10.00">+</text>
<text text-anchor="start" x="32" y="-735" font-family="Helvetica,sans-Serif" font-size="10.00">set_extraction_method()</text>
<text text-anchor="start" x="11.5" y="-720" font-family="Helvetica,sans-Serif" font-size="10.00">+</text>
<text text-anchor="start" x="32" y="-720" font-family="Helvetica,sans-Serif" font-size="10.00">set_extraction_method()</text>
<text text-anchor="start" x="11.5" y="-705" font-family="Helvetica,sans-Serif" font-size="10.00">+</text>
<text text-anchor="start" x="32" y="-705" font-family="Helvetica,sans-Serif" font-size="10.00">set_hop_size()</text>
<text text-anchor="start" x="11.5" y="-690" font-family="Helvetica,sans-Serif" font-size="10.00">+</text>
<text text-anchor="start" x="32" y="-690" font-family="Helvetica,sans-Serif" font-size="10.00">set_window_size()</text>
<text text-anchor="start" x="11.5" y="-675" font-family="Helvetica,sans-Serif" font-size="10.00">+</text>
<text text-anchor="start" x="32" y="-675" font-family="Helvetica,sans-Serif" font-size="10.00">validate_extraction</text>
<text text-anchor="start" x="32" y="-664" font-family="Helvetica,sans-Serif" font-size="10.00">_input()</text>
<text text-anchor="start" x="11.5" y="-649" font-family="Helvetica,sans-Serif" font-size="10.00">+</text>
<text text-anchor="start" x="32" y="-649" font-family="Helvetica,sans-Serif" font-size="10.00">method_to_string()</text>
<text text-anchor="start" x="11.5" y="-634" font-family="Helvetica,sans-Serif" font-size="10.00">+</text>
<text text-anchor="start" x="32" y="-634" font-family="Helvetica,sans-Serif" font-size="10.00">string_to_method()</text>
<text text-anchor="start" x="11.5" y="-619" font-family="Helvetica,sans-Serif" font-size="10.00">#</text>
<text text-anchor="start" x="32" y="-619" font-family="Helvetica,sans-Serif" font-size="10.00">extract_implementation()</text>
<text text-anchor="start" x="11.5" y="-604" font-family="Helvetica,sans-Serif" font-size="10.00">#</text>
<text text-anchor="start" x="32" y="-604" font-family="Helvetica,sans-Serif" font-size="10.00">get_extraction_parameter()</text>
<text text-anchor="start" x="11.5" y="-589" font-family="Helvetica,sans-Serif" font-size="10.00">#</text>
<text text-anchor="start" x="32" y="-589" font-family="Helvetica,sans-Serif" font-size="10.00">set_extraction_parameter()</text>
<text text-anchor="start" x="14" y="-574" font-family="Helvetica,sans-Serif" font-size="10.00">&#45;</text>
<text text-anchor="start" x="32" y="-574" font-family="Helvetica,sans-Serif" font-size="10.00">validate_parameters()</text>
<polygon fill="#666666" stroke="#666666" points="0,-895 0,-895 186,-895 186,-895 0,-895"/>
<polygon fill="#666666" stroke="#666666" points="0,-850 0,-850 30,-850 30,-850 0,-850"/>
<polygon fill="#666666" stroke="#666666" points="30,-850 30,-850 186,-850 186,-850 30,-850"/>
<polygon fill="none" stroke="#666666" points="0,-567 0,-923 186,-923 186,-567 0,-567"/>
</a>
</g>
</g>
<!-- Node3 -->
<g id="Node000003" class="node">
<title>Node3</title>
<g id="a_Node000003"><a xlink:href="classMayaFlux_1_1Yantra_1_1FeatureExtractor.html" target="_top" xlink:title=" ">
<polygon fill="white" stroke="transparent" points="183,-509 3,-509 3,-142 183,-142 183,-509"/>
<text text-anchor="start" x="8" y="-496.5" font-family="Helvetica,sans-Serif" font-size="10.00">MayaFlux::Yantra::Feature</text>
<text text-anchor="start" x="8" y="-485.5" font-family="Helvetica,sans-Serif" font-size="10.00">Extractor&lt; Kakshya::RegionGroup,</text>
<text text-anchor="start" x="30" y="-474.5" font-family="Helvetica,sans-Serif" font-size="10.00"> Kakshya::RegionGroup &gt;</text>
<text text-anchor="start" x="15.5" y="-459.5" font-family="Helvetica,sans-Serif" font-size="10.00">&#45;</text>
<text text-anchor="start" x="32" y="-459.5" font-family="Helvetica,sans-Serif" font-size="10.00">m_hop_size</text>
<text text-anchor="start" x="15.5" y="-444.5" font-family="Helvetica,sans-Serif" font-size="10.00">&#45;</text>
<text text-anchor="start" x="32" y="-444.5" font-family="Helvetica,sans-Serif" font-size="10.00">m_method</text>
<text text-anchor="start" x="15.5" y="-429.5" font-family="Helvetica,sans-Serif" font-size="10.00">&#45;</text>
<text text-anchor="start" x="32" y="-429.5" font-family="Helvetica,sans-Serif" font-size="10.00">m_window_size</text>
<text text-anchor="start" x="13" y="-414.5" font-family="Helvetica,sans-Serif" font-size="10.00">+</text>
<text text-anchor="start" x="32" y="-414.5" font-family="Helvetica,sans-Serif" font-size="10.00">FeatureExtractor()</text>
<text text-anchor="start" x="13" y="-399.5" font-family="Helvetica,sans-Serif" font-size="10.00">+</text>
<text text-anchor="start" x="32" y="-399.5" font-family="Helvetica,sans-Serif" font-size="10.00">get_available_methods()</text>
<text text-anchor="start" x="13" y="-384.5" font-family="Helvetica,sans-Serif" font-size="10.00">+</text>
<text text-anchor="start" x="32" y="-384.5" font-family="Helvetica,sans-Serif" font-size="10.00">get_extraction_method()</text>
<text text-anchor="start" x="13" y="-369.5" font-family="Helvetica,sans-Serif" font-size="10.00">+</text>
<text text-anchor="start" x="32" y="-369.5" font-family="Helvetica,sans-Serif" font-size="10.00">get_extraction_type()</text>
<text text-anchor="start" x="13" y="-354.5" font-family="Helvetica,sans-Serif" font-size="10.00">+</text>
<text text-anchor="start" x="32" y="-354.5" font-family="Helvetica,sans-Serif" font-size="10.00">get_extractor_name()</text>
<text text-anchor="start" x="13" y="-339.5" font-family="Helvetica,sans-Serif" font-size="10.00">+</text>
<text text-anchor="start" x="32" y="-339.5" font-family="Helvetica,sans-Serif" font-size="10.00">get_hop_size()</text>
<text text-anchor="start" x="13" y="-324.5" font-family="Helvetica,sans-Serif" font-size="10.00">+</text>
<text text-anchor="start" x="32" y="-324.5" font-family="Helvetica,sans-Serif" font-size="10.00">get_window_size()</text>
<text text-anchor="start" x="13" y="-309.5" font-family="Helvetica,sans-Serif" font-size="10.00">+</text>
<text text-anchor="start" x="32" y="-309.5" font-family="Helvetica,sans-Serif" font-size="10.00">set_extraction_method()</text>
<text text-anchor="start" x="13" y="-294.5" font-family="Helvetica,sans-Serif" font-size="10.00">+</text>
<text text-anchor="start" x="32" y="-294.5" font-family="Helvetica,sans-Serif" font-size="10.00">set_extraction_method()</text>
<text text-anchor="start" x="13" y="-279.5" font-family="Helvetica,sans-Serif" font-size="10.00">+</text>
<text text-anchor="start" x="32" y="-279.5" font-family="Helvetica,sans-Serif" font-size="10.00">set_hop_size()</text>
<text text-anchor="start" x="13" y="-264.5" font-family="Helvetica,sans-Serif" font-size="10.00">+</text>
<text text-anchor="start" x="32" y="-264.5" font-family="Helvetica,sans-Serif" font-size="10.00">set_window_size()</text>
<text text-anchor="start" x="13" y="-249.5" font-family="Helvetica,sans-Serif" font-size="10.00">+</text>
<text text-anchor="start" x="32" y="-249.5" font-family="Helvetica,sans-Serif" font-size="10.00">validate_extraction</text>
<text text-anchor="start" x="32" y="-238.5" font-family="Helvetica,sans-Serif" font-size="10.00">_input()</text>
<text text-anchor="start" x="13" y="-223.5" font-family="Helvetica,sans-Serif" font-size="10.00">+</text>
<text text-anchor="start" x="32" y="-223.5" font-family="Helvetica,sans-Serif" font-size="10.00">method_to_string()</text>
<text text-anchor="start" x="13" y="-208.5" font-family="Helvetica,sans-Serif" font-size="10.00">+</text>
<text text-anchor="start" x="32" y="-208.5" font-family="Helvetica,sans-Serif" font-size="10.00">string_to_method()</text>
<text text-anchor="start" x="13" y="-193.5" font-family="Helvetica,sans-Serif" font-size="10.00">#</text>
<text text-anchor="start" x="32" y="-193.5" font-family="Helvetica,sans-Serif" font-size="10.00">extract_implementation()</text>
<text text-anchor="start" x="13" y="-178.5" font-family="Helvetica,sans-Serif" font-size="10.00">#</text>
<text text-anchor="start" x="32" y="-178.5" font-family="Helvetica,sans-Serif" font-size="10.00">get_extraction_parameter()</text>
<text text-anchor="start" x="13" y="-163.5" font-family="Helvetica,sans-Serif" font-size="10.00">#</text>
<text text-anchor="start" x="32" y="-163.5" font-family="Helvetica,sans-Serif" font-size="10.00">set_extraction_parameter()</text>
<text text-anchor="start" x="15.5" y="-148.5" font-family="Helvetica,sans-Serif" font-size="10.00">&#45;</text>
<text text-anchor="start" x="32" y="-148.5" font-family="Helvetica,sans-Serif" font-size="10.00">validate_parameters()</text>
<polygon fill="#666666" stroke="#666666" points="3,-469.5 3,-469.5 183,-469.5 183,-469.5 3,-469.5"/>
<polygon fill="#666666" stroke="#666666" points="3,-424.5 3,-424.5 30,-424.5 30,-424.5 3,-424.5"/>
<polygon fill="#666666" stroke="#666666" points="30,-424.5 30,-424.5 183,-424.5 183,-424.5 30,-424.5"/>
<polygon fill="none" stroke="#666666" points="3,-142 3,-509 183,-509 183,-142 3,-142"/>
</a>
</g>
</g>
<!-- Node1&#45;&gt;Node3 -->
<g id="edge2_Node000001_Node000003" class="edge">
<title>Node1&#45;&gt;Node3</title>
<g id="a_edge2_Node000001_Node000003"><a xlink:title=" ">
<path fill="none" stroke="orange" d="M93,-556.61C93,-540.84 93,-524.91 93,-509.18"/>
<polygon fill="orange" stroke="orange" points="89.5,-556.94 93,-566.94 96.5,-556.94 89.5,-556.94"/>
</a>
</g>
<text text-anchor="start" x="93" y="-541" font-family="Helvetica,sans-Serif" font-size="10.00" fill="grey"> &lt; Kakshya::RegionGroup,</text>
<text text-anchor="middle" x="157.5" y="-530" font-family="Helvetica,sans-Serif" font-size="10.00" fill="grey"> Kakshya::RegionGroup &gt;</text>
</g>
<!-- Node2 -->
<g id="Node000002" class="node">
<title>Node2</title>
<g id="a_Node000002"><a xlink:title=" ">
<polygon fill="white" stroke="transparent" points="179.5,-1042 6.5,-1042 6.5,-960 179.5,-960 179.5,-1042"/>
<text text-anchor="start" x="12" y="-1030" font-family="Helvetica,sans-Serif" font-size="10.00">UniversalExtractor</text>
<text text-anchor="start" x="12" y="-1019" font-family="Helvetica,sans-Serif" font-size="10.00">&lt; std::vector&lt;Kakshya</text>
<text text-anchor="start" x="12" y="-1008" font-family="Helvetica,sans-Serif" font-size="10.00">::DataVariant&gt; , std::</text>
<text text-anchor="start" x="12" y="-997" font-family="Helvetica,sans-Serif" font-size="10.00">vector&lt;std::vector&lt;double&gt;&gt; &#160;&gt;</text>
<text text-anchor="start" x="91.5" y="-982" font-family="Helvetica,sans-Serif" font-size="10.00"> </text>
<text text-anchor="start" x="91.5" y="-967" font-family="Helvetica,sans-Serif" font-size="10.00"> </text>
<polygon fill="#666666" stroke="#666666" points="7,-992 7,-992 180,-992 180,-992 7,-992"/>
<polygon fill="#666666" stroke="#666666" points="7,-977 7,-977 180,-977 180,-977 7,-977"/>
<polygon fill="none" stroke="#666666" points="6.5,-960 6.5,-1042 179.5,-1042 179.5,-960 6.5,-960"/>
</a>
</g>
</g>
<!-- Node2&#45;&gt;Node1 -->
<g id="edge1_Node000001_Node000002" class="edge">
<title>Node2&#45;&gt;Node1</title>
<g id="a_edge1_Node000001_Node000002"><a xlink:title=" ">
<path fill="none" stroke="#63b8ff" d="M93,-949.69C93,-941.44 93,-932.5 93,-923.12"/>
<polygon fill="none" stroke="#63b8ff" points="89.5,-949.75 93,-959.75 96.5,-949.75 89.5,-949.75"/>
</a>
</g>
</g>
<!-- Node4 -->
<g id="Node000004" class="node">
<title>Node4</title>
<g id="a_Node000004"><a xlink:href="classMayaFlux_1_1Yantra_1_1Granular_1_1SegmentOp.html" target="_top" xlink:title="Segments container audio into fixed hop&#45;size grain windows.">
<polygon fill="white" stroke="transparent" points="166.5,-105 19.5,-105 19.5,0 166.5,0 166.5,-105"/>
<text text-anchor="start" x="27" y="-92.5" font-family="Helvetica,sans-Serif" font-size="10.00">MayaFlux::Yantra::Granular</text>
<text text-anchor="start" x="61.5" y="-81.5" font-family="Helvetica,sans-Serif" font-size="10.00">::SegmentOp</text>
<text text-anchor="start" x="91.5" y="-66.5" font-family="Helvetica,sans-Serif" font-size="10.00"> </text>
<text text-anchor="start" x="24" y="-51.5" font-family="Helvetica,sans-Serif" font-size="10.00">+</text>
<text text-anchor="start" x="37" y="-51.5" font-family="Helvetica,sans-Serif" font-size="10.00">get_extraction_type()</text>
<text text-anchor="start" x="24" y="-36.5" font-family="Helvetica,sans-Serif" font-size="10.00">+</text>
<text text-anchor="start" x="37" y="-36.5" font-family="Helvetica,sans-Serif" font-size="10.00">SegmentOp()</text>
<text text-anchor="start" x="24" y="-21.5" font-family="Helvetica,sans-Serif" font-size="10.00">#</text>
<text text-anchor="start" x="37" y="-21.5" font-family="Helvetica,sans-Serif" font-size="10.00">extract_implementation()</text>
<text text-anchor="start" x="24" y="-6.5" font-family="Helvetica,sans-Serif" font-size="10.00">#</text>
<text text-anchor="start" x="37" y="-6.5" font-family="Helvetica,sans-Serif" font-size="10.00">get_extractor_name()</text>
<polygon fill="#666666" stroke="#666666" points="20,-76.5 20,-76.5 167,-76.5 167,-76.5 20,-76.5"/>
<polygon fill="#666666" stroke="#666666" points="20,-61.5 20,-61.5 167,-61.5 167,-61.5 20,-61.5"/>
<polygon fill="none" stroke="#666666" points="19.5,0 19.5,-105 166.5,-105 166.5,0 19.5,0"/>
</a>
</g>
</g>
<!-- Node3&#45;&gt;Node4 -->
<g id="edge3_Node000003_Node000004" class="edge">
<title>Node3&#45;&gt;Node4</title>
<g id="a_edge3_Node000003_Node000004"><a xlink:title=" ">
<path fill="none" stroke="#63b8ff" d="M93,-131.67C93,-122.43 93,-113.62 93,-105.48"/>
<polygon fill="none" stroke="#63b8ff" points="89.5,-131.86 93,-141.86 96.5,-131.86 89.5,-131.86"/>
</a>
</g>
</g>
</g>
</svg>

<g id="navigator" transform="translate(0 0)" fill="#404254">
  <rect fill="#f2f5e9" fill-opacity="0.5" stroke="#606060" stroke-width=".5" x="0" y="0" width="60" height="60"/>
  <use id="zoomplus" xlink:href="#zoomPlus" x="17" y="9" onmousedown="handleZoom(evt,'in')"/>
  <use id="zoomminus" xlink:href="#zoomMin" x="42" y="9" onmousedown="handleZoom(evt,'out')"/>
  <use id="reset" xlink:href="#resetDef" x="30" y="36" onmousedown="handleReset()"/>
   <use id="arrowup" xlink:href="#arrowUp" x="0" y="0" onmousedown="handlePan(0,-1)"/>
  <use id="arrowright" xlink:href="#arrowRight" x="0" y="0" onmousedown="handlePan(1,0)"/>
  <use id="arrowdown" xlink:href="#arrowDown" x="0" y="0" onmousedown="handlePan(0,1)"/>
  <use id="arrowleft" xlink:href="#arrowLeft" x="0" y="0" onmousedown="handlePan(-1,0)"/>
</g>
<svg viewBox="0 0 15 15" width="100%" height="30px" preserveAspectRatio="xMaxYMin meet">
 <g id="arrow_out" transform="scale(0.3 0.3)">
  <a xlink:href="classMayaFlux_1_1Yantra_1_1FeatureExtractor__inherit__graph_org.svg" target="_base">
   <rect id="button" ry="5" rx="5" y="6" x="6" height="38" width="38"
        fill="#f2f5e9" fill-opacity="0.5" stroke="#606060" stroke-width="1.0"/>
   <path id="arrow"
     d="M 11.500037,31.436501 C 11.940474,20.09759 22.043105,11.32322 32.158766,21.979434 L 37.068811,17.246167 C 37.068811,17.246167 37.088388,32 37.088388,32 L 22.160133,31.978069 C 22.160133,31.978069 26.997745,27.140456 26.997745,27.140456 C 18.528582,18.264221 13.291696,25.230495 11.500037,31.436501 z"
     style="fill:#404040;"/>
  </a>
 </g>
</svg>

<style type='text/css'>
<![CDATA[
[data-mouse-over-selected='false'] { opacity: 0.7; }
[data-mouse-over-selected='true']  { opacity: 1.0; }
]]>
</style>
<script type="application/ecmascript"><![CDATA[
document.addEventListener('DOMContentLoaded', (event) => {
  highlightEdges();
  highlightAdjacentNodes();
});
]]></script>
</svg>
