<?xml version="1.0" encoding="UTF-8" standalone="no"?>
<!DOCTYPE svg PUBLIC "-//W3C//DTD SVG 1.1//EN"
 "http://www.w3.org/Graphics/SVG/1.1/DTD/svg11.dtd">
<!-- Generated by graphviz version 2.43.0 (0)
 -->
<!-- Title: MayaFlux::Core::BackendResourceManager::flush_deferred_commands Pages: 1 -->
<!--zoomable 230 -->

<svg id="main" version="1.1" xmlns="http://www.w3.org/2000/svg" xmlns:xlink="http://www.w3.org/1999/xlink" xml:space="preserve" onload="init(evt)">
<style type="text/css"><![CDATA[
.node, .edge {opacity: 0.7;}
.node.selected, .edge.selected {opacity: 1;}
.edge:hover path { stroke: red; }
.edge:hover polygon { stroke: red; fill: red; }
]]></style>

<defs>
  <circle id="rim" cx="0" cy="0" r="7"/>
  <circle id="rim2" cx="0" cy="0" r="3.5"/>
  <g id="zoomPlus">
    <use xlink:href="#rim" fill="#404040"><set attributeName="fill" to="#808080" begin="zoomplus.mouseover" end="zoomplus.mouseout"/></use>
    <path d="M-4,0h8M0,-4v8" fill="none" stroke="white" stroke-width="1.5" pointer-events="none"/>
  </g>
  <g id="zoomMin">
    <use xlink:href="#rim" fill="#404040"><set attributeName="fill" to="#808080" begin="zoomminus.mouseover" end="zoomminus.mouseout"/></use>
    <path d="M-4,0h8" fill="none" stroke="white" stroke-width="1.5" pointer-events="none"/>
  </g>
  <g id="arrowUp" transform="translate(30 24)">
    <use xlink:href="#rim"/>
    <path pointer-events="none" fill="none" stroke="white" stroke-width="1.5" d="M0,-3.0v7 M-2.5,-0.5L0,-3.0L2.5,-0.5"/>
  </g>
  <g id="arrowRight" transform="rotate(90) translate(36 -43)">
    <use xlink:href="#rim"/>
    <path pointer-events="none" fill="none" stroke="white" stroke-width="1.5" d="M0,-3.0v7 M-2.5,-0.5L0,-3.0L2.5,-0.5"/>
  </g>
  <g id="arrowDown" transform="rotate(180) translate(-30 -48)">
    <use xlink:href="#rim"/>
    <path pointer-events="none" fill="none" stroke="white" stroke-width="1.5" d="M0,-3.0v7 M-2.5,-0.5L0,-3.0L2.5,-0.5"/>
  </g>
  <g id="arrowLeft" transform="rotate(270) translate(-36 17)">
    <use xlink:href="#rim"/>
    <path pointer-events="none" fill="none" stroke="white" stroke-width="1.5" d="M0,-3.0v7 M-2.5,-0.5L0,-3.0L2.5,-0.5"/>
  </g>
  <g id="resetDef">
    <use xlink:href="#rim2" fill="#404040"><set attributeName="fill" to="#808080" begin="reset.mouseover" end="reset.mouseout"/></use>
  </g>
</defs>
<script type="application/ecmascript">
var viewWidth = 608;
var viewHeight = 230;
var sectionId = 'dynsection-0';
</script>
<script type="application/ecmascript" xlink:href="svg.min.js"/>
<svg id="graph" class="graph">
<g id="viewport">
<title>MayaFlux::Core::BackendResourceManager::flush_deferred_commands</title>
<!-- Node1 -->
<g id="Node000001" class="node">
<title>Node1</title>
<g id="a_Node000001"><a xlink:title="Flush deferred commands and return a semaphore that signals when they are complete.">
<polygon fill="#999999" stroke="#666666" points="194,-126 0,-126 0,-96 194,-96 194,-126"/>
<text text-anchor="start" x="8" y="-114" font-family="Helvetica,sans-Serif" font-size="10.00">MayaFlux::Core::BackendResource</text>
<text text-anchor="middle" x="97" y="-103" font-family="Helvetica,sans-Serif" font-size="10.00">Manager::flush_deferred_commands</text>
</a>
</g>
</g>
<!-- Node2 -->
<g id="Node000002" class="node">
<title>Node2</title>
<g id="a_Node000002"><a xlink:href="classMayaFlux_1_1Core_1_1VKCommandManager_a844227808b6be8d0faa69c5e0eda7120.html#a844227808b6be8d0faa69c5e0eda7120" target="_top" xlink:title="Get the deferred command buffer (if any)">
<polygon fill="white" stroke="#666666" points="405,-222 243,-222 243,-192 405,-192 405,-222"/>
<text text-anchor="start" x="251" y="-210" font-family="Helvetica,sans-Serif" font-size="10.00">MayaFlux::Core::VKCommand</text>
<text text-anchor="middle" x="324" y="-199" font-family="Helvetica,sans-Serif" font-size="10.00">Manager::get_deferred_cmd</text>
</a>
</g>
</g>
<!-- Node1&#45;&gt;Node2 -->
<g id="edge1_Node000001_Node000002" class="edge">
<title>Node1&#45;&gt;Node2</title>
<g id="a_edge1_Node000001_Node000002"><a xlink:title=" ">
<path fill="none" stroke="#63b8ff" d="M121.46,-126.12C147.21,-142.15 190.18,-167.28 230,-183 235.37,-185.12 240.98,-187.1 246.68,-188.95"/>
<polygon fill="#63b8ff" stroke="#63b8ff" points="245.72,-192.32 256.31,-191.93 247.79,-185.63 245.72,-192.32"/>
</a>
</g>
</g>
<!-- Node3 -->
<g id="Node000003" class="node">
<title>Node3</title>
<g id="a_Node000003"><a xlink:href="classMayaFlux_1_1Core_1_1VKContext_a41228db586851246809c40f704b64292.html#a41228db586851246809c40f704b64292" target="_top" xlink:title="Get logical device.">
<polygon fill="white" stroke="#666666" points="399,-174 249,-174 249,-144 399,-144 399,-174"/>
<text text-anchor="start" x="257" y="-162" font-family="Helvetica,sans-Serif" font-size="10.00">MayaFlux::Core::VKContext</text>
<text text-anchor="middle" x="324" y="-151" font-family="Helvetica,sans-Serif" font-size="10.00">::get_device</text>
</a>
</g>
</g>
<!-- Node1&#45;&gt;Node3 -->
<g id="edge2_Node000001_Node000003" class="edge">
<title>Node1&#45;&gt;Node3</title>
<g id="a_edge2_Node000001_Node000003"><a xlink:title=" ">
<path fill="none" stroke="#63b8ff" d="M168.57,-126.06C192.13,-131.08 218.56,-136.72 242.8,-141.89"/>
<polygon fill="#63b8ff" stroke="#63b8ff" points="242.17,-145.33 252.68,-144 243.63,-138.49 242.17,-145.33"/>
</a>
</g>
</g>
<!-- Node5 -->
<g id="Node000005" class="node">
<title>Node5</title>
<g id="a_Node000005"><a xlink:href="classMayaFlux_1_1Core_1_1VKContext_a87b4589aa8858027f09e7370552b4d50.html#a87b4589aa8858027f09e7370552b4d50" target="_top" xlink:title="Get graphics queue.">
<polygon fill="white" stroke="#666666" points="399,-126 249,-126 249,-96 399,-96 399,-126"/>
<text text-anchor="start" x="257" y="-114" font-family="Helvetica,sans-Serif" font-size="10.00">MayaFlux::Core::VKContext</text>
<text text-anchor="middle" x="324" y="-103" font-family="Helvetica,sans-Serif" font-size="10.00">::get_graphics_queue</text>
</a>
</g>
</g>
<!-- Node1&#45;&gt;Node5 -->
<g id="edge4_Node000001_Node000005" class="edge">
<title>Node1&#45;&gt;Node5</title>
<g id="a_edge4_Node000001_Node000005"><a xlink:title=" ">
<path fill="none" stroke="#63b8ff" d="M194.07,-111C208.78,-111 223.87,-111 238.3,-111"/>
<polygon fill="#63b8ff" stroke="#63b8ff" points="238.68,-114.5 248.68,-111 238.68,-107.5 238.68,-114.5"/>
</a>
</g>
</g>
<!-- Node7 -->
<g id="Node000007" class="node">
<title>Node7</title>
<g id="a_Node000007"><a xlink:href="classMayaFlux_1_1Core_1_1VKCommandManager_a552209e738948f25a1c3f88877965488.html#a552209e738948f25a1c3f88877965488" target="_top" xlink:title="End and submit single&#45;time command for compute operations.">
<polygon fill="white" stroke="#666666" points="418,-78 230,-78 230,-48 418,-48 418,-78"/>
<text text-anchor="start" x="238" y="-66" font-family="Helvetica,sans-Serif" font-size="10.00">MayaFlux::Core::VKCommand</text>
<text text-anchor="middle" x="324" y="-55" font-family="Helvetica,sans-Serif" font-size="10.00">Manager::has_deferred_commands</text>
</a>
</g>
</g>
<!-- Node1&#45;&gt;Node7 -->
<g id="edge6_Node000001_Node000007" class="edge">
<title>Node1&#45;&gt;Node7</title>
<g id="a_edge6_Node000001_Node000007"><a xlink:title=" ">
<path fill="none" stroke="#63b8ff" d="M168.57,-95.94C192.13,-90.92 218.56,-85.28 242.8,-80.11"/>
<polygon fill="#63b8ff" stroke="#63b8ff" points="243.63,-83.51 252.68,-78 242.17,-76.67 243.63,-83.51"/>
</a>
</g>
</g>
<!-- Node8 -->
<g id="Node000008" class="node">
<title>Node8</title>
<g id="a_Node000008"><a xlink:href="classMayaFlux_1_1Core_1_1VKCommandManager_a1390987a3a60d41bbe44d485a3b4f3d4.html#a1390987a3a60d41bbe44d485a3b4f3d4" target="_top" xlink:title="Reset deferred command buffer and clear pending state.">
<polygon fill="white" stroke="#666666" points="405,-30 243,-30 243,0 405,0 405,-30"/>
<text text-anchor="start" x="251" y="-18" font-family="Helvetica,sans-Serif" font-size="10.00">MayaFlux::Core::VKCommand</text>
<text text-anchor="middle" x="324" y="-7" font-family="Helvetica,sans-Serif" font-size="10.00">Manager::reset_deferred</text>
</a>
</g>
</g>
<!-- Node1&#45;&gt;Node8 -->
<g id="edge7_Node000001_Node000008" class="edge">
<title>Node1&#45;&gt;Node8</title>
<g id="a_edge7_Node000001_Node000008"><a xlink:title=" ">
<path fill="none" stroke="#63b8ff" d="M121.46,-95.88C147.21,-79.85 190.18,-54.72 230,-39 235.37,-36.88 240.98,-34.9 246.68,-33.05"/>
<polygon fill="#63b8ff" stroke="#63b8ff" points="247.79,-36.37 256.31,-30.07 245.72,-29.68 247.79,-36.37"/>
</a>
</g>
</g>
<!-- Node4 -->
<g id="Node000004" class="node">
<title>Node4</title>
<g id="a_Node000004"><a xlink:href="classMayaFlux_1_1Core_1_1VKDevice_ac91623c4b7b52f1f5f7460ef91021583.html#ac91623c4b7b52f1f5f7460ef91021583" target="_top" xlink:title="Get logical device handle.">
<polygon fill="white" stroke="#666666" points="600,-174 454,-174 454,-144 600,-144 600,-174"/>
<text text-anchor="start" x="462" y="-162" font-family="Helvetica,sans-Serif" font-size="10.00">MayaFlux::Core::VKDevice</text>
<text text-anchor="middle" x="527" y="-151" font-family="Helvetica,sans-Serif" font-size="10.00">::get_device</text>
</a>
</g>
</g>
<!-- Node3&#45;&gt;Node4 -->
<g id="edge3_Node000003_Node000004" class="edge">
<title>Node3&#45;&gt;Node4</title>
<g id="a_edge3_Node000003_Node000004"><a xlink:title=" ">
<path fill="none" stroke="#63b8ff" d="M399.27,-159C413.72,-159 428.95,-159 443.64,-159"/>
<polygon fill="#63b8ff" stroke="#63b8ff" points="443.7,-162.5 453.7,-159 443.7,-155.5 443.7,-162.5"/>
</a>
</g>
</g>
<!-- Node6 -->
<g id="Node000006" class="node">
<title>Node6</title>
<g id="a_Node000006"><a xlink:href="classMayaFlux_1_1Core_1_1VKDevice_af1941d43ae76316ef044a61450e7aa1c.html#af1941d43ae76316ef044a61450e7aa1c" target="_top" xlink:title="Get graphics queue.">
<polygon fill="white" stroke="#666666" points="600,-126 454,-126 454,-96 600,-96 600,-126"/>
<text text-anchor="start" x="462" y="-114" font-family="Helvetica,sans-Serif" font-size="10.00">MayaFlux::Core::VKDevice</text>
<text text-anchor="middle" x="527" y="-103" font-family="Helvetica,sans-Serif" font-size="10.00">::get_graphics_queue</text>
</a>
</g>
</g>
<!-- Node5&#45;&gt;Node6 -->
<g id="edge5_Node000005_Node000006" class="edge">
<title>Node5&#45;&gt;Node6</title>
<g id="a_edge5_Node000005_Node000006"><a xlink:title=" ">
<path fill="none" stroke="#63b8ff" d="M399.27,-111C413.72,-111 428.95,-111 443.64,-111"/>
<polygon fill="#63b8ff" stroke="#63b8ff" points="443.7,-114.5 453.7,-111 443.7,-107.5 443.7,-114.5"/>
</a>
</g>
</g>
</g>
</svg>

<g id="navigator" transform="translate(0 0)" fill="#404254">
  <rect fill="#f2f5e9" fill-opacity="0.5" stroke="#606060" stroke-width=".5" x="0" y="0" width="60" height="60"/>
  <use id="zoomplus" xlink:href="#zoomPlus" x="17" y="9" onmousedown="handleZoom(evt,'in')"/>
  <use id="zoomminus" xlink:href="#zoomMin" x="42" y="9" onmousedown="handleZoom(evt,'out')"/>
  <use id="reset" xlink:href="#resetDef" x="30" y="36" onmousedown="handleReset()"/>
   <use id="arrowup" xlink:href="#arrowUp" x="0" y="0" onmousedown="handlePan(0,-1)"/>
  <use id="arrowright" xlink:href="#arrowRight" x="0" y="0" onmousedown="handlePan(1,0)"/>
  <use id="arrowdown" xlink:href="#arrowDown" x="0" y="0" onmousedown="handlePan(0,1)"/>
  <use id="arrowleft" xlink:href="#arrowLeft" x="0" y="0" onmousedown="handlePan(-1,0)"/>
</g>
<svg viewBox="0 0 15 15" width="100%" height="30px" preserveAspectRatio="xMaxYMin meet">
 <g id="arrow_out" transform="scale(0.3 0.3)">
  <a xlink:href="classMayaFlux_1_1Core_1_1BackendResourceManager_ae5bdab12f648e852beacba0ffa8fc256_ae5bdab12f648e852beacba0ffa8fc256_cgraph_org.svg" target="_base">
   <rect id="button" ry="5" rx="5" y="6" x="6" height="38" width="38"
        fill="#f2f5e9" fill-opacity="0.5" stroke="#606060" stroke-width="1.0"/>
   <path id="arrow"
     d="M 11.500037,31.436501 C 11.940474,20.09759 22.043105,11.32322 32.158766,21.979434 L 37.068811,17.246167 C 37.068811,17.246167 37.088388,32 37.088388,32 L 22.160133,31.978069 C 22.160133,31.978069 26.997745,27.140456 26.997745,27.140456 C 18.528582,18.264221 13.291696,25.230495 11.500037,31.436501 z"
     style="fill:#404040;"/>
  </a>
 </g>
</svg>

<style type='text/css'>
<![CDATA[
[data-mouse-over-selected='false'] { opacity: 0.7; }
[data-mouse-over-selected='true']  { opacity: 1.0; }
]]>
</style>
<script type="application/ecmascript"><![CDATA[
document.addEventListener('DOMContentLoaded', (event) => {
  highlightEdges();
  highlightAdjacentNodes();
});
]]></script>
</svg>
