<?xml version="1.0" encoding="UTF-8" standalone="no"?>
<!DOCTYPE svg PUBLIC "-//W3C//DTD SVG 1.1//EN"
 "http://www.w3.org/Graphics/SVG/1.1/DTD/svg11.dtd">
<!-- Generated by graphviz version 2.43.0 (0)
 -->
<!-- Title: MayaFlux::Nodes::StreamReaderNode::process_batch Pages: 1 -->
<svg width="824pt" height="38pt"
 viewBox="0.00 0.00 824.00 38.00" xmlns="http://www.w3.org/2000/svg" xmlns:xlink="http://www.w3.org/1999/xlink">
<g id="graph0" class="graph" transform="scale(1 1) rotate(0) translate(4 34)">
<title>MayaFlux::Nodes::StreamReaderNode::process_batch</title>
<!-- Node1 -->
<g id="Node000001" class="node">
<title>Node1</title>
<g id="a_Node000001"><a xlink:title="Processes multiple samples at once.">
<polygon fill="#999999" stroke="#666666" points="177,-30 0,-30 0,0 177,0 177,-30"/>
<text text-anchor="start" x="8" y="-18" font-family="Helvetica,sans-Serif" font-size="10.00">MayaFlux::Nodes::StreamReader</text>
<text text-anchor="middle" x="88.5" y="-7" font-family="Helvetica,sans-Serif" font-size="10.00">Node::process_batch</text>
</a>
</g>
</g>
<!-- Node2 -->
<g id="Node000002" class="node">
<title>Node2</title>
<g id="a_Node000002"><a xlink:href="classMayaFlux_1_1Nodes_1_1StreamReaderNode_a2bb39c4dc326b78e5bd7458453f14c22.html#a2bb39c4dc326b78e5bd7458453f14c22" target="_top" xlink:title="Processes a single data sample.">
<polygon fill="white" stroke="#666666" points="390,-30 213,-30 213,0 390,0 390,-30"/>
<text text-anchor="start" x="221" y="-18" font-family="Helvetica,sans-Serif" font-size="10.00">MayaFlux::Nodes::StreamReader</text>
<text text-anchor="middle" x="301.5" y="-7" font-family="Helvetica,sans-Serif" font-size="10.00">Node::process_sample</text>
</a>
</g>
</g>
<!-- Node1&#45;&gt;Node2 -->
<g id="edge1_Node000001_Node000002" class="edge">
<title>Node1&#45;&gt;Node2</title>
<g id="a_edge1_Node000001_Node000002"><a xlink:title=" ">
<path fill="none" stroke="#63b8ff" d="M177.15,-15C185.52,-15 194.05,-15 202.51,-15"/>
<polygon fill="#63b8ff" stroke="#63b8ff" points="202.78,-18.5 212.78,-15 202.78,-11.5 202.78,-18.5"/>
</a>
</g>
</g>
<!-- Node3 -->
<g id="Node000003" class="node">
<title>Node3</title>
<g id="a_Node000003"><a xlink:href="classMayaFlux_1_1Nodes_1_1StreamReaderNode_abafa1f96005daf7c347eeb6e903a6f03.html#abafa1f96005daf7c347eeb6e903a6f03" target="_top" xlink:title="Notifies all registered callbacks with the current context.">
<polygon fill="white" stroke="#666666" points="603,-30 426,-30 426,0 603,0 603,-30"/>
<text text-anchor="start" x="434" y="-18" font-family="Helvetica,sans-Serif" font-size="10.00">MayaFlux::Nodes::StreamReader</text>
<text text-anchor="middle" x="514.5" y="-7" font-family="Helvetica,sans-Serif" font-size="10.00">Node::notify_tick</text>
</a>
</g>
</g>
<!-- Node2&#45;&gt;Node3 -->
<g id="edge2_Node000002_Node000003" class="edge">
<title>Node2&#45;&gt;Node3</title>
<g id="a_edge2_Node000002_Node000003"><a xlink:title=" ">
<path fill="none" stroke="#63b8ff" d="M390.15,-15C398.52,-15 407.05,-15 415.51,-15"/>
<polygon fill="#63b8ff" stroke="#63b8ff" points="415.78,-18.5 425.78,-15 415.78,-11.5 415.78,-18.5"/>
</a>
</g>
</g>
<!-- Node4 -->
<g id="Node000004" class="node">
<title>Node4</title>
<g id="a_Node000004"><a xlink:href="classMayaFlux_1_1Nodes_1_1StreamReaderNode_a63213ce20874e262a8b81421aceefbd6.html#a63213ce20874e262a8b81421aceefbd6" target="_top" xlink:title="Updates the context object with the current node state.">
<polygon fill="white" stroke="#666666" points="816,-30 639,-30 639,0 816,0 816,-30"/>
<text text-anchor="start" x="647" y="-18" font-family="Helvetica,sans-Serif" font-size="10.00">MayaFlux::Nodes::StreamReader</text>
<text text-anchor="middle" x="727.5" y="-7" font-family="Helvetica,sans-Serif" font-size="10.00">Node::update_context</text>
</a>
</g>
</g>
<!-- Node3&#45;&gt;Node4 -->
<g id="edge3_Node000003_Node000004" class="edge">
<title>Node3&#45;&gt;Node4</title>
<g id="a_edge3_Node000003_Node000004"><a xlink:title=" ">
<path fill="none" stroke="#63b8ff" d="M603.15,-15C611.52,-15 620.05,-15 628.51,-15"/>
<polygon fill="#63b8ff" stroke="#63b8ff" points="628.78,-18.5 638.78,-15 628.78,-11.5 628.78,-18.5"/>
</a>
</g>
</g>
</g>
</svg>
