<?xml version="1.0" encoding="UTF-8" standalone="no"?>
<!DOCTYPE svg PUBLIC "-//W3C//DTD SVG 1.1//EN"
 "http://www.w3.org/Graphics/SVG/1.1/DTD/svg11.dtd">
<!-- Generated by graphviz version 2.43.0 (0)
 -->
<!-- Title: MayaFlux::Buffers::GeometryBindingsProcessor::upload_index_data Pages: 1 -->
<!--zoomable 194 -->

<svg id="main" version="1.1" xmlns="http://www.w3.org/2000/svg" xmlns:xlink="http://www.w3.org/1999/xlink" xml:space="preserve" onload="init(evt)">
<style type="text/css"><![CDATA[
.node, .edge {opacity: 0.7;}
.node.selected, .edge.selected {opacity: 1;}
.edge:hover path { stroke: red; }
.edge:hover polygon { stroke: red; fill: red; }
]]></style>

<defs>
  <circle id="rim" cx="0" cy="0" r="7"/>
  <circle id="rim2" cx="0" cy="0" r="3.5"/>
  <g id="zoomPlus">
    <use xlink:href="#rim" fill="#404040"><set attributeName="fill" to="#808080" begin="zoomplus.mouseover" end="zoomplus.mouseout"/></use>
    <path d="M-4,0h8M0,-4v8" fill="none" stroke="white" stroke-width="1.5" pointer-events="none"/>
  </g>
  <g id="zoomMin">
    <use xlink:href="#rim" fill="#404040"><set attributeName="fill" to="#808080" begin="zoomminus.mouseover" end="zoomminus.mouseout"/></use>
    <path d="M-4,0h8" fill="none" stroke="white" stroke-width="1.5" pointer-events="none"/>
  </g>
  <g id="arrowUp" transform="translate(30 24)">
    <use xlink:href="#rim"/>
    <path pointer-events="none" fill="none" stroke="white" stroke-width="1.5" d="M0,-3.0v7 M-2.5,-0.5L0,-3.0L2.5,-0.5"/>
  </g>
  <g id="arrowRight" transform="rotate(90) translate(36 -43)">
    <use xlink:href="#rim"/>
    <path pointer-events="none" fill="none" stroke="white" stroke-width="1.5" d="M0,-3.0v7 M-2.5,-0.5L0,-3.0L2.5,-0.5"/>
  </g>
  <g id="arrowDown" transform="rotate(180) translate(-30 -48)">
    <use xlink:href="#rim"/>
    <path pointer-events="none" fill="none" stroke="white" stroke-width="1.5" d="M0,-3.0v7 M-2.5,-0.5L0,-3.0L2.5,-0.5"/>
  </g>
  <g id="arrowLeft" transform="rotate(270) translate(-36 17)">
    <use xlink:href="#rim"/>
    <path pointer-events="none" fill="none" stroke="white" stroke-width="1.5" d="M0,-3.0v7 M-2.5,-0.5L0,-3.0L2.5,-0.5"/>
  </g>
  <g id="resetDef">
    <use xlink:href="#rim2" fill="#404040"><set attributeName="fill" to="#808080" begin="reset.mouseover" end="reset.mouseout"/></use>
  </g>
</defs>
<script type="application/ecmascript">
var viewWidth = 834;
var viewHeight = 194;
var sectionId = 'dynsection-0';
</script>
<script type="application/ecmascript" xlink:href="svg.min.js"/>
<svg id="graph" class="graph">
<g id="viewport">
<title>MayaFlux::Buffers::GeometryBindingsProcessor::upload_index_data</title>
<!-- Node1 -->
<g id="Node000001" class="node">
<title>Node1</title>
<g id="a_Node000001"><a xlink:title="Upload index data for one binding, creating or growing the GPU index buffer as needed.">
<polygon fill="#999999" stroke="#666666" points="155,-147.5 0,-147.5 0,-106.5 155,-106.5 155,-147.5"/>
<text text-anchor="start" x="8" y="-135.5" font-family="Helvetica,sans-Serif" font-size="10.00">MayaFlux::Buffers::</text>
<text text-anchor="start" x="8" y="-124.5" font-family="Helvetica,sans-Serif" font-size="10.00">GeometryBindingsProcessor</text>
<text text-anchor="middle" x="77.5" y="-113.5" font-family="Helvetica,sans-Serif" font-size="10.00">::upload_index_data</text>
</a>
</g>
</g>
<!-- Node2 -->
<g id="Node000002" class="node">
<title>Node2</title>
<g id="a_Node000002"><a xlink:href="namespaceMayaFlux_1_1Buffers_a64c6abe8842e398d178e4275a4d4b404.html#a64c6abe8842e398d178e4275a4d4b404" target="_top" xlink:title="Create staging buffer for transfers.">
<polygon fill="white" stroke="#666666" points="627,-126 505,-126 505,-96 627,-96 627,-126"/>
<text text-anchor="start" x="513" y="-114" font-family="Helvetica,sans-Serif" font-size="10.00">MayaFlux::Buffers::</text>
<text text-anchor="middle" x="566" y="-103" font-family="Helvetica,sans-Serif" font-size="10.00">create_staging_buffer</text>
</a>
</g>
</g>
<!-- Node1&#45;&gt;Node2 -->
<g id="edge1_Node000001_Node000002" class="edge">
<title>Node1&#45;&gt;Node2</title>
<g id="a_edge1_Node000001_Node000002"><a xlink:title=" ">
<path fill="none" stroke="#63b8ff" d="M155.05,-124.48C248.19,-121.42 404.17,-116.29 494.49,-113.32"/>
<polygon fill="#63b8ff" stroke="#63b8ff" points="494.76,-116.81 504.63,-112.99 494.52,-109.82 494.76,-116.81"/>
</a>
</g>
</g>
<!-- Node5 -->
<g id="Node000005" class="node">
<title>Node5</title>
<g id="a_Node000005"><a xlink:href="classMayaFlux_1_1Buffers_1_1VKBufferProcessor_ad871cad95dbb2a178d1752aa8573eabc.html#ad871cad95dbb2a178d1752aa8573eabc" target="_top" xlink:title=" ">
<polygon fill="white" stroke="#666666" points="639,-185.5 493,-185.5 493,-144.5 639,-144.5 639,-185.5"/>
<text text-anchor="start" x="501" y="-173.5" font-family="Helvetica,sans-Serif" font-size="10.00">MayaFlux::Buffers::</text>
<text text-anchor="start" x="501" y="-162.5" font-family="Helvetica,sans-Serif" font-size="10.00">VKBufferProcessor::ensure</text>
<text text-anchor="middle" x="566" y="-151.5" font-family="Helvetica,sans-Serif" font-size="10.00">_initialized</text>
</a>
</g>
</g>
<!-- Node1&#45;&gt;Node5 -->
<g id="edge4_Node000001_Node000005" class="edge">
<title>Node1&#45;&gt;Node5</title>
<g id="a_edge4_Node000001_Node000005"><a xlink:title=" ">
<path fill="none" stroke="#63b8ff" d="M155.05,-133.15C167.08,-134.11 179.38,-135.08 191,-136 291.3,-143.9 406.74,-152.83 482.52,-158.66"/>
<polygon fill="#63b8ff" stroke="#63b8ff" points="482.71,-162.19 492.95,-159.47 483.25,-155.21 482.71,-162.19"/>
</a>
</g>
</g>
<!-- Node6 -->
<g id="Node000006" class="node">
<title>Node6</title>
<g id="a_Node000006"><a xlink:href="namespaceMayaFlux_1_1Buffers_a293d7253b71f872b2cb68f8130a96ce4.html#a293d7253b71f872b2cb68f8130a96ce4" target="_top" xlink:title="Upload size bytes to target, growing both buffers first if needed.">
<polygon fill="white" stroke="#666666" points="302,-99 191,-99 191,-69 302,-69 302,-99"/>
<text text-anchor="start" x="199" y="-87" font-family="Helvetica,sans-Serif" font-size="10.00">MayaFlux::Buffers::</text>
<text text-anchor="middle" x="246.5" y="-76" font-family="Helvetica,sans-Serif" font-size="10.00">upload_resizing</text>
</a>
</g>
</g>
<!-- Node1&#45;&gt;Node6 -->
<g id="edge7_Node000001_Node000006" class="edge">
<title>Node1&#45;&gt;Node6</title>
<g id="a_edge7_Node000001_Node000006"><a xlink:title=" ">
<path fill="none" stroke="#63b8ff" d="M155.16,-107.26C163.79,-105.04 172.51,-102.79 180.96,-100.62"/>
<polygon fill="#63b8ff" stroke="#63b8ff" points="181.93,-103.98 190.74,-98.1 180.18,-97.2 181.93,-103.98"/>
</a>
</g>
</g>
<!-- Node3 -->
<g id="Node000003" class="node">
<title>Node3</title>
<g id="a_Node000003"><a xlink:href="classMayaFlux_1_1Registry_1_1BackendRegistry_a0c7a59c0847791ed0915dcd64e8df783.html#a0c7a59c0847791ed0915dcd64e8df783" target="_top" xlink:title="Query for a backend service.">
<polygon fill="white" stroke="#666666" points="813,-137.5 688,-137.5 688,-96.5 813,-96.5 813,-137.5"/>
<text text-anchor="start" x="696" y="-125.5" font-family="Helvetica,sans-Serif" font-size="10.00">MayaFlux::Registry</text>
<text text-anchor="start" x="696" y="-114.5" font-family="Helvetica,sans-Serif" font-size="10.00">::BackendRegistry::get</text>
<text text-anchor="middle" x="750.5" y="-103.5" font-family="Helvetica,sans-Serif" font-size="10.00">_service</text>
</a>
</g>
</g>
<!-- Node2&#45;&gt;Node3 -->
<g id="edge2_Node000002_Node000003" class="edge">
<title>Node2&#45;&gt;Node3</title>
<g id="a_edge2_Node000002_Node000003"><a xlink:title=" ">
<path fill="none" stroke="#63b8ff" d="M627.01,-112.97C643.18,-113.5 660.85,-114.09 677.6,-114.64"/>
<polygon fill="#63b8ff" stroke="#63b8ff" points="677.78,-118.14 687.89,-114.97 678.01,-111.15 677.78,-118.14"/>
</a>
</g>
</g>
<!-- Node4 -->
<g id="Node000004" class="node">
<title>Node4</title>
<g id="a_Node000004"><a xlink:href="classMayaFlux_1_1Registry_1_1BackendRegistry_aa28c6f5592e5893508bafb62aefcc496.html#aa28c6f5592e5893508bafb62aefcc496" target="_top" xlink:title="Get the global registry instance.">
<polygon fill="white" stroke="#666666" points="826,-78 675,-78 675,-48 826,-48 826,-78"/>
<text text-anchor="start" x="683" y="-66" font-family="Helvetica,sans-Serif" font-size="10.00">MayaFlux::Registry</text>
<text text-anchor="middle" x="750.5" y="-55" font-family="Helvetica,sans-Serif" font-size="10.00">::BackendRegistry::instance</text>
</a>
</g>
</g>
<!-- Node2&#45;&gt;Node4 -->
<g id="edge3_Node000002_Node000004" class="edge">
<title>Node2&#45;&gt;Node4</title>
<g id="a_edge3_Node000002_Node000004"><a xlink:title=" ">
<path fill="none" stroke="#63b8ff" d="M624.24,-95.94C642.76,-91.07 663.45,-85.63 682.61,-80.59"/>
<polygon fill="#63b8ff" stroke="#63b8ff" points="683.68,-83.93 692.46,-78 681.9,-77.16 683.68,-83.93"/>
</a>
</g>
</g>
<!-- Node5&#45;&gt;Node3 -->
<g id="edge5_Node000005_Node000003" class="edge">
<title>Node5&#45;&gt;Node3</title>
<g id="a_edge5_Node000005_Node000003"><a xlink:title=" ">
<path fill="none" stroke="#63b8ff" d="M639.13,-146.03C651.99,-142.65 665.38,-139.12 678.22,-135.75"/>
<polygon fill="#63b8ff" stroke="#63b8ff" points="679.13,-139.13 687.91,-133.2 677.35,-132.36 679.13,-139.13"/>
</a>
</g>
</g>
<!-- Node5&#45;&gt;Node4 -->
<g id="edge6_Node000005_Node000004" class="edge">
<title>Node5&#45;&gt;Node4</title>
<g id="a_edge6_Node000005_Node000004"><a xlink:title=" ">
<path fill="none" stroke="#63b8ff" d="M624.41,-144.48C629.56,-141.65 634.51,-138.49 639,-135 660.05,-118.63 653.29,-102.48 675,-87 677.08,-85.52 679.26,-84.12 681.51,-82.81"/>
<polygon fill="#63b8ff" stroke="#63b8ff" points="683.22,-85.86 690.48,-78.15 679.99,-79.65 683.22,-85.86"/>
</a>
</g>
</g>
<!-- Node7 -->
<g id="Node000007" class="node">
<title>Node7</title>
<g id="a_Node000007"><a xlink:href="namespaceMayaFlux_1_1Buffers_ac51ef5cd822b61ca97282bdbecef0e7d.html#ac51ef5cd822b61ca97282bdbecef0e7d" target="_top" xlink:title="Grow a GPU buffer (and its paired staging buffer) to fit required bytes.">
<polygon fill="white" stroke="#666666" points="457,-99 338,-99 338,-69 457,-69 457,-99"/>
<text text-anchor="start" x="346" y="-87" font-family="Helvetica,sans-Serif" font-size="10.00">MayaFlux::Buffers::</text>
<text text-anchor="middle" x="397.5" y="-76" font-family="Helvetica,sans-Serif" font-size="10.00">ensure_gpu_capacity</text>
</a>
</g>
</g>
<!-- Node6&#45;&gt;Node7 -->
<g id="edge8_Node000006_Node000007" class="edge">
<title>Node6&#45;&gt;Node7</title>
<g id="a_edge8_Node000006_Node000007"><a xlink:title=" ">
<path fill="none" stroke="#63b8ff" d="M302.14,-84C310.49,-84 319.21,-84 327.82,-84"/>
<polygon fill="#63b8ff" stroke="#63b8ff" points="327.86,-87.5 337.86,-84 327.86,-80.5 327.86,-87.5"/>
</a>
</g>
</g>
<!-- Node8 -->
<g id="Node000008" class="node">
<title>Node8</title>
<g id="a_Node000008"><a xlink:href="namespaceMayaFlux_1_1Buffers_ae5e547b4f569572df2c1ad0a3d7a38eb.html#ae5e547b4f569572df2c1ad0a3d7a38eb" target="_top" xlink:title="Upload raw data to GPU buffer (auto&#45;detects host&#45;visible vs device&#45;local)">
<polygon fill="white" stroke="#666666" points="453,-51 342,-51 342,-21 453,-21 453,-51"/>
<text text-anchor="start" x="350" y="-39" font-family="Helvetica,sans-Serif" font-size="10.00">MayaFlux::Buffers::</text>
<text text-anchor="middle" x="397.5" y="-28" font-family="Helvetica,sans-Serif" font-size="10.00">upload_to_gpu</text>
</a>
</g>
</g>
<!-- Node6&#45;&gt;Node8 -->
<g id="edge9_Node000006_Node000008" class="edge">
<title>Node6&#45;&gt;Node8</title>
<g id="a_edge9_Node000006_Node000008"><a xlink:title=" ">
<path fill="none" stroke="#63b8ff" d="M294.24,-68.94C308.8,-64.25 325.01,-59.03 340.16,-54.15"/>
<polygon fill="#63b8ff" stroke="#63b8ff" points="341.49,-57.4 349.93,-51 339.34,-50.74 341.49,-57.4"/>
</a>
</g>
</g>
<!-- Node8&#45;&gt;Node2 -->
<g id="edge10_Node000008_Node000002" class="edge">
<title>Node8&#45;&gt;Node2</title>
<g id="a_edge10_Node000008_Node000002"><a xlink:title=" ">
<path fill="none" stroke="#63b8ff" d="M439.1,-51.08C445.22,-53.8 451.37,-56.8 457,-60 474.39,-69.88 475.28,-77.72 493,-87 496.45,-88.81 500.06,-90.51 503.75,-92.12"/>
<polygon fill="#63b8ff" stroke="#63b8ff" points="502.45,-95.38 513.03,-95.92 505.1,-88.9 502.45,-95.38"/>
</a>
</g>
</g>
<!-- Node9 -->
<g id="Node000009" class="node">
<title>Node9</title>
<g id="a_Node000009"><a xlink:href="namespaceMayaFlux_1_1Buffers_a31f5983628d43dc3c83257330c321cc6.html#a31f5983628d43dc3c83257330c321cc6" target="_top" xlink:title="Upload data to a device&#45;local buffer using a staging buffer.">
<polygon fill="white" stroke="#666666" points="624,-78 508,-78 508,-48 624,-48 624,-78"/>
<text text-anchor="start" x="516" y="-66" font-family="Helvetica,sans-Serif" font-size="10.00">MayaFlux::Buffers::</text>
<text text-anchor="middle" x="566" y="-55" font-family="Helvetica,sans-Serif" font-size="10.00">upload_device_local</text>
</a>
</g>
</g>
<!-- Node8&#45;&gt;Node9 -->
<g id="edge11_Node000008_Node000009" class="edge">
<title>Node8&#45;&gt;Node9</title>
<g id="a_edge11_Node000008_Node000009"><a xlink:title=" ">
<path fill="none" stroke="#63b8ff" d="M453.02,-44.84C467.27,-47.15 482.81,-49.67 497.65,-52.08"/>
<polygon fill="#63b8ff" stroke="#63b8ff" points="497.35,-55.58 507.78,-53.72 498.47,-48.67 497.35,-55.58"/>
</a>
</g>
</g>
<!-- Node11 -->
<g id="Node000011" class="node">
<title>Node11</title>
<g id="a_Node000011"><a xlink:href="namespaceMayaFlux_1_1Buffers_a0749e7edaf3b6ec8a02a107a4f5b3a5a.html#a0749e7edaf3b6ec8a02a107a4f5b3a5a" target="_top" xlink:title="Upload data to a host&#45;visible buffer.">
<polygon fill="white" stroke="#666666" points="622.5,-30 509.5,-30 509.5,0 622.5,0 622.5,-30"/>
<text text-anchor="start" x="517.5" y="-18" font-family="Helvetica,sans-Serif" font-size="10.00">MayaFlux::Buffers::</text>
<text text-anchor="middle" x="566" y="-7" font-family="Helvetica,sans-Serif" font-size="10.00">upload_host_visible</text>
</a>
</g>
</g>
<!-- Node8&#45;&gt;Node11 -->
<g id="edge15_Node000008_Node000011" class="edge">
<title>Node8&#45;&gt;Node11</title>
<g id="a_edge15_Node000008_Node000011"><a xlink:title=" ">
<path fill="none" stroke="#63b8ff" d="M453.02,-29.12C467.8,-27.26 483.96,-25.22 499.29,-23.29"/>
<polygon fill="#63b8ff" stroke="#63b8ff" points="499.73,-26.76 509.22,-22.04 498.86,-19.81 499.73,-26.76"/>
</a>
</g>
</g>
<!-- Node9&#45;&gt;Node3 -->
<g id="edge12_Node000009_Node000003" class="edge">
<title>Node9&#45;&gt;Node3</title>
<g id="a_edge12_Node000009_Node000003"><a xlink:title=" ">
<path fill="none" stroke="#63b8ff" d="M617.84,-78.04C636.51,-83.57 658.01,-89.93 678.15,-95.89"/>
<polygon fill="#63b8ff" stroke="#63b8ff" points="677.33,-99.29 687.91,-98.78 679.31,-92.58 677.33,-99.29"/>
</a>
</g>
</g>
<!-- Node9&#45;&gt;Node4 -->
<g id="edge14_Node000009_Node000004" class="edge">
<title>Node9&#45;&gt;Node4</title>
<g id="a_edge14_Node000009_Node000004"><a xlink:title=" ">
<path fill="none" stroke="#63b8ff" d="M624.24,-63C636.99,-63 650.77,-63 664.36,-63"/>
<polygon fill="#63b8ff" stroke="#63b8ff" points="664.7,-66.5 674.7,-63 664.7,-59.5 664.7,-66.5"/>
</a>
</g>
</g>
<!-- Node10 -->
<g id="Node000010" class="node">
<title>Node10</title>
<g id="a_Node000010"><a xlink:href="classMayaFlux_1_1Kakshya_1_1DataAccess_a7893291a314cd16a4086b4af5547be3b.html#a7893291a314cd16a4086b4af5547be3b" target="_top" xlink:title="Get raw buffer info for GPU upload.">
<polygon fill="white" stroke="#666666" points="816,-30 685,-30 685,0 816,0 816,-30"/>
<text text-anchor="start" x="693" y="-18" font-family="Helvetica,sans-Serif" font-size="10.00">MayaFlux::Kakshya::</text>
<text text-anchor="middle" x="750.5" y="-7" font-family="Helvetica,sans-Serif" font-size="10.00">DataAccess::gpu_buffer</text>
</a>
</g>
</g>
<!-- Node9&#45;&gt;Node10 -->
<g id="edge13_Node000009_Node000010" class="edge">
<title>Node9&#45;&gt;Node10</title>
<g id="a_edge13_Node000009_Node000010"><a xlink:title=" ">
<path fill="none" stroke="#63b8ff" d="M624.24,-47.94C642.76,-43.07 663.45,-37.63 682.61,-32.59"/>
<polygon fill="#63b8ff" stroke="#63b8ff" points="683.68,-35.93 692.46,-30 681.9,-29.16 683.68,-35.93"/>
</a>
</g>
</g>
<!-- Node11&#45;&gt;Node3 -->
<g id="edge16_Node000011_Node000003" class="edge">
<title>Node11&#45;&gt;Node3</title>
<g id="a_edge16_Node000011_Node000003"><a xlink:title=" ">
<path fill="none" stroke="#63b8ff" d="M622.56,-29.63C628.37,-32.28 633.98,-35.38 639,-39 660.63,-54.59 653.85,-70.75 675,-87 676.84,-88.41 678.76,-89.77 680.73,-91.07"/>
<polygon fill="#63b8ff" stroke="#63b8ff" points="679.33,-94.31 689.71,-96.43 682.92,-88.3 679.33,-94.31"/>
</a>
</g>
</g>
<!-- Node11&#45;&gt;Node4 -->
<g id="edge18_Node000011_Node000004" class="edge">
<title>Node11&#45;&gt;Node4</title>
<g id="a_edge18_Node000011_Node000004"><a xlink:title=" ">
<path fill="none" stroke="#63b8ff" d="M622.75,-29.66C641.58,-34.62 662.8,-40.2 682.42,-45.36"/>
<polygon fill="#63b8ff" stroke="#63b8ff" points="681.64,-48.77 692.2,-47.93 683.42,-42 681.64,-48.77"/>
</a>
</g>
</g>
<!-- Node11&#45;&gt;Node10 -->
<g id="edge17_Node000011_Node000010" class="edge">
<title>Node11&#45;&gt;Node10</title>
<g id="a_edge17_Node000011_Node000010"><a xlink:title=" ">
<path fill="none" stroke="#63b8ff" d="M622.75,-15C639.13,-15 657.33,-15 674.7,-15"/>
<polygon fill="#63b8ff" stroke="#63b8ff" points="674.82,-18.5 684.82,-15 674.82,-11.5 674.82,-18.5"/>
</a>
</g>
</g>
</g>
</svg>

<g id="navigator" transform="translate(0 0)" fill="#404254">
  <rect fill="#f2f5e9" fill-opacity="0.5" stroke="#606060" stroke-width=".5" x="0" y="0" width="60" height="60"/>
  <use id="zoomplus" xlink:href="#zoomPlus" x="17" y="9" onmousedown="handleZoom(evt,'in')"/>
  <use id="zoomminus" xlink:href="#zoomMin" x="42" y="9" onmousedown="handleZoom(evt,'out')"/>
  <use id="reset" xlink:href="#resetDef" x="30" y="36" onmousedown="handleReset()"/>
   <use id="arrowup" xlink:href="#arrowUp" x="0" y="0" onmousedown="handlePan(0,-1)"/>
  <use id="arrowright" xlink:href="#arrowRight" x="0" y="0" onmousedown="handlePan(1,0)"/>
  <use id="arrowdown" xlink:href="#arrowDown" x="0" y="0" onmousedown="handlePan(0,1)"/>
  <use id="arrowleft" xlink:href="#arrowLeft" x="0" y="0" onmousedown="handlePan(-1,0)"/>
</g>
<svg viewBox="0 0 15 15" width="100%" height="30px" preserveAspectRatio="xMaxYMin meet">
 <g id="arrow_out" transform="scale(0.3 0.3)">
  <a xlink:href="classMayaFlux_1_1Buffers_1_1GeometryBindingsProcessor_a2a0c7674773776106e7f424905b1e0c5_a2a0c7674773776106e7f424905b1e0c5_cgraph_org.svg" target="_base">
   <rect id="button" ry="5" rx="5" y="6" x="6" height="38" width="38"
        fill="#f2f5e9" fill-opacity="0.5" stroke="#606060" stroke-width="1.0"/>
   <path id="arrow"
     d="M 11.500037,31.436501 C 11.940474,20.09759 22.043105,11.32322 32.158766,21.979434 L 37.068811,17.246167 C 37.068811,17.246167 37.088388,32 37.088388,32 L 22.160133,31.978069 C 22.160133,31.978069 26.997745,27.140456 26.997745,27.140456 C 18.528582,18.264221 13.291696,25.230495 11.500037,31.436501 z"
     style="fill:#404040;"/>
  </a>
 </g>
</svg>

<style type='text/css'>
<![CDATA[
[data-mouse-over-selected='false'] { opacity: 0.7; }
[data-mouse-over-selected='true']  { opacity: 1.0; }
]]>
</style>
<script type="application/ecmascript"><![CDATA[
document.addEventListener('DOMContentLoaded', (event) => {
  highlightEdges();
  highlightAdjacentNodes();
});
]]></script>
</svg>
