<?xml version="1.0" encoding="UTF-8" standalone="no"?>
<!DOCTYPE svg PUBLIC "-//W3C//DTD SVG 1.1//EN"
 "http://www.w3.org/Graphics/SVG/1.1/DTD/svg11.dtd">
<!-- Generated by graphviz version 2.43.0 (0)
 -->
<!-- Title: MayaFlux::Yantra::StatisticalAnalyzer::method_to_string Pages: 1 -->
<svg width="605pt" height="134pt"
 viewBox="0.00 0.00 605.00 134.00" xmlns="http://www.w3.org/2000/svg" xmlns:xlink="http://www.w3.org/1999/xlink">
<g id="graph0" class="graph" transform="scale(1 1) rotate(0) translate(4 130)">
<title>MayaFlux::Yantra::StatisticalAnalyzer::method_to_string</title>
<!-- Node1 -->
<g id="Node000001" class="node">
<title>Node1</title>
<g id="a_Node000001"><a xlink:title="Convert statistical method enum to string.">
<polygon fill="#999999" stroke="#666666" points="597,-78 442,-78 442,-48 597,-48 597,-78"/>
<text text-anchor="start" x="450" y="-66" font-family="Helvetica,sans-Serif" font-size="10.00">MayaFlux::Yantra::Statistical</text>
<text text-anchor="middle" x="519.5" y="-55" font-family="Helvetica,sans-Serif" font-size="10.00">Analyzer::method_to_string</text>
</a>
</g>
</g>
<!-- Node2 -->
<g id="Node000002" class="node">
<title>Node2</title>
<g id="a_Node000002"><a xlink:href="classMayaFlux_1_1Yantra_1_1StatisticalAnalyzer_ad6f638b9c42a1ada446cedd0a2cbbd12.html#ad6f638b9c42a1ada446cedd0a2cbbd12" target="_top" xlink:title="Create pipeline output for operation chaining.">
<polygon fill="white" stroke="#666666" points="403,-126 226,-126 226,-96 403,-96 403,-126"/>
<text text-anchor="start" x="234" y="-114" font-family="Helvetica,sans-Serif" font-size="10.00">MayaFlux::Yantra::Statistical</text>
<text text-anchor="middle" x="314.5" y="-103" font-family="Helvetica,sans-Serif" font-size="10.00">Analyzer::create_pipeline_output</text>
</a>
</g>
</g>
<!-- Node1&#45;&gt;Node2 -->
<g id="edge1_Node000001_Node000002" class="edge">
<title>Node1&#45;&gt;Node2</title>
<g id="a_edge1_Node000001_Node000002"><a xlink:title=" ">
<path fill="none" stroke="#63b8ff" d="M445.03,-80.37C423.39,-85.49 399.9,-91.04 378.95,-96"/>
<polygon fill="#63b8ff" stroke="#63b8ff" points="445.9,-83.76 454.83,-78.06 444.29,-76.95 445.9,-83.76"/>
</a>
</g>
</g>
<!-- Node4 -->
<g id="Node000004" class="node">
<title>Node4</title>
<g id="a_Node000004"><a xlink:href="classMayaFlux_1_1Yantra_1_1StatisticalAnalyzer_a0660ebf4e332b094663747d35563e49f.html#a0660ebf4e332b094663747d35563e49f" target="_top" xlink:title="Get analysis&#45;specific parameter.">
<polygon fill="white" stroke="#666666" points="406,-78 223,-78 223,-48 406,-48 406,-78"/>
<text text-anchor="start" x="231" y="-66" font-family="Helvetica,sans-Serif" font-size="10.00">MayaFlux::Yantra::Statistical</text>
<text text-anchor="middle" x="314.5" y="-55" font-family="Helvetica,sans-Serif" font-size="10.00">Analyzer::get_analysis_parameter</text>
</a>
</g>
</g>
<!-- Node1&#45;&gt;Node4 -->
<g id="edge3_Node000001_Node000004" class="edge">
<title>Node1&#45;&gt;Node4</title>
<g id="a_edge3_Node000001_Node000004"><a xlink:title=" ">
<path fill="none" stroke="#63b8ff" d="M431.63,-63C423.26,-63 414.75,-63 406.34,-63"/>
<polygon fill="#63b8ff" stroke="#63b8ff" points="431.75,-66.5 441.75,-63 431.75,-59.5 431.75,-66.5"/>
</a>
</g>
</g>
<!-- Node5 -->
<g id="Node000005" class="node">
<title>Node5</title>
<g id="a_Node000005"><a xlink:href="classMayaFlux_1_1Yantra_1_1StatisticalAnalyzer_ad1f110732d9dd25cc17f63fe22993735.html#ad1f110732d9dd25cc17f63fe22993735" target="_top" xlink:title="Set statistical analysis method.">
<polygon fill="white" stroke="#666666" points="392,-30 237,-30 237,0 392,0 392,-30"/>
<text text-anchor="start" x="245" y="-18" font-family="Helvetica,sans-Serif" font-size="10.00">MayaFlux::Yantra::Statistical</text>
<text text-anchor="middle" x="314.5" y="-7" font-family="Helvetica,sans-Serif" font-size="10.00">Analyzer::set_method</text>
</a>
</g>
</g>
<!-- Node1&#45;&gt;Node5 -->
<g id="edge4_Node000001_Node000005" class="edge">
<title>Node1&#45;&gt;Node5</title>
<g id="a_edge4_Node000001_Node000005"><a xlink:title=" ">
<path fill="none" stroke="#63b8ff" d="M445.03,-45.63C423.39,-40.51 399.9,-34.96 378.95,-30"/>
<polygon fill="#63b8ff" stroke="#63b8ff" points="444.29,-49.05 454.83,-47.94 445.9,-42.24 444.29,-49.05"/>
</a>
</g>
</g>
<!-- Node3 -->
<g id="Node000003" class="node">
<title>Node3</title>
<g id="a_Node000003"><a xlink:href="classMayaFlux_1_1Yantra_1_1StatisticalAnalyzer_ada59b9d30d969a895d8693fc96381700.html#ada59b9d30d969a895d8693fc96381700" target="_top" xlink:title="Core analysis implementation &#45; creates analysis result AND pipeline output.">
<polygon fill="white" stroke="#666666" points="187,-126 0,-126 0,-96 187,-96 187,-126"/>
<text text-anchor="start" x="8" y="-114" font-family="Helvetica,sans-Serif" font-size="10.00">MayaFlux::Yantra::Statistical</text>
<text text-anchor="middle" x="93.5" y="-103" font-family="Helvetica,sans-Serif" font-size="10.00">Analyzer::analyze_implementation</text>
</a>
</g>
</g>
<!-- Node2&#45;&gt;Node3 -->
<g id="edge2_Node000002_Node000003" class="edge">
<title>Node2&#45;&gt;Node3</title>
<g id="a_edge2_Node000002_Node000003"><a xlink:title=" ">
<path fill="none" stroke="#63b8ff" d="M215.56,-111C206.18,-111 196.68,-111 187.35,-111"/>
<polygon fill="#63b8ff" stroke="#63b8ff" points="215.69,-114.5 225.69,-111 215.69,-107.5 215.69,-114.5"/>
</a>
</g>
</g>
</g>
</svg>
