<?xml version="1.0" encoding="UTF-8" standalone="no"?>
<!DOCTYPE svg PUBLIC "-//W3C//DTD SVG 1.1//EN"
 "http://www.w3.org/Graphics/SVG/1.1/DTD/svg11.dtd">
<!-- Generated by graphviz version 2.43.0 (0)
 -->
<!-- Title: MayaFlux::Yantra::UniversalAnalyzer::operation_function Pages: 1 -->
<svg width="980pt" height="146pt"
 viewBox="0.00 0.00 980.00 146.00" xmlns="http://www.w3.org/2000/svg" xmlns:xlink="http://www.w3.org/1999/xlink">
<g id="graph0" class="graph" transform="scale(1 1) rotate(0) translate(4 142)">
<title>MayaFlux::Yantra::UniversalAnalyzer::operation_function</title>
<!-- Node1 -->
<g id="Node000001" class="node">
<title>Node1</title>
<g id="a_Node000001"><a xlink:title="Core analysis implementation &#45; must be overridden by derived classes.">
<polygon fill="#999999" stroke="#666666" points="157,-111 0,-111 0,-81 157,-81 157,-111"/>
<text text-anchor="start" x="8" y="-99" font-family="Helvetica,sans-Serif" font-size="10.00">MayaFlux::Yantra::Universal</text>
<text text-anchor="middle" x="78.5" y="-88" font-family="Helvetica,sans-Serif" font-size="10.00">Analyzer::operation_function</text>
</a>
</g>
</g>
<!-- Node2 -->
<g id="Node000002" class="node">
<title>Node2</title>
<g id="a_Node000002"><a xlink:href="classMayaFlux_1_1Yantra_1_1UniversalAnalyzer_a82f6111f03e56fbd7fcad1211a05e310.html#a82f6111f03e56fbd7fcad1211a05e310" target="_top" xlink:title="Pure virtual analysis implementation &#45; derived classes implement this.">
<polygon fill="white" stroke="#666666" points="380,-138 193,-138 193,-108 380,-108 380,-138"/>
<text text-anchor="start" x="201" y="-126" font-family="Helvetica,sans-Serif" font-size="10.00">MayaFlux::Yantra::Universal</text>
<text text-anchor="middle" x="286.5" y="-115" font-family="Helvetica,sans-Serif" font-size="10.00">Analyzer::analyze_implementation</text>
</a>
</g>
</g>
<!-- Node1&#45;&gt;Node2 -->
<g id="edge1_Node000001_Node000002" class="edge">
<title>Node1&#45;&gt;Node2</title>
<g id="a_edge1_Node000001_Node000002"><a xlink:title=" ">
<path fill="none" stroke="#63b8ff" d="M157.09,-106.17C165.45,-107.26 174.05,-108.39 182.65,-109.52"/>
<polygon fill="#63b8ff" stroke="#63b8ff" points="182.35,-113.01 192.72,-110.84 183.26,-106.07 182.35,-113.01"/>
</a>
</g>
</g>
<!-- Node3 -->
<g id="Node000003" class="node">
<title>Node3</title>
<g id="a_Node000003"><a xlink:href="classMayaFlux_1_1Yantra_1_1UniversalAnalyzer_aa17041f06b3f457a9ce9a1262c07821f.html#aa17041f06b3f457a9ce9a1262c07821f" target="_top" xlink:title="Apply granularity&#45;based output formatting.">
<polygon fill="white" stroke="#666666" points="363,-89.5 210,-89.5 210,-48.5 363,-48.5 363,-89.5"/>
<text text-anchor="start" x="218" y="-77.5" font-family="Helvetica,sans-Serif" font-size="10.00">MayaFlux::Yantra::Universal</text>
<text text-anchor="start" x="218" y="-66.5" font-family="Helvetica,sans-Serif" font-size="10.00">Analyzer::apply_granularity</text>
<text text-anchor="middle" x="286.5" y="-55.5" font-family="Helvetica,sans-Serif" font-size="10.00">_formatting</text>
</a>
</g>
</g>
<!-- Node1&#45;&gt;Node3 -->
<g id="edge2_Node000001_Node000003" class="edge">
<title>Node1&#45;&gt;Node3</title>
<g id="a_edge2_Node000001_Node000003"><a xlink:title=" ">
<path fill="none" stroke="#63b8ff" d="M157.09,-85.83C170.94,-84.01 185.46,-82.11 199.53,-80.27"/>
<polygon fill="#63b8ff" stroke="#63b8ff" points="200.23,-83.71 209.69,-78.94 199.32,-76.77 200.23,-83.71"/>
</a>
</g>
</g>
<!-- Node4 -->
<g id="Node000004" class="node">
<title>Node4</title>
<g id="a_Node000004"><a xlink:href="classMayaFlux_1_1Yantra_1_1UniversalAnalyzer_a1b40c841dc4fd2a704a855ca99454c13.html#a1b40c841dc4fd2a704a855ca99454c13" target="_top" xlink:title="Add attribution metadata to results (override for custom attribution)">
<polygon fill="white" stroke="#666666" points="775,-89.5 622,-89.5 622,-48.5 775,-48.5 775,-89.5"/>
<text text-anchor="start" x="630" y="-77.5" font-family="Helvetica,sans-Serif" font-size="10.00">MayaFlux::Yantra::Universal</text>
<text text-anchor="start" x="630" y="-66.5" font-family="Helvetica,sans-Serif" font-size="10.00">Analyzer::add_attribution</text>
<text text-anchor="middle" x="698.5" y="-55.5" font-family="Helvetica,sans-Serif" font-size="10.00">_metadata</text>
</a>
</g>
</g>
<!-- Node3&#45;&gt;Node4 -->
<g id="edge3_Node000003_Node000004" class="edge">
<title>Node3&#45;&gt;Node4</title>
<g id="a_edge3_Node000003_Node000004"><a xlink:title=" ">
<path fill="none" stroke="#63b8ff" d="M362.41,-89.53C379.87,-93.46 398.48,-96.98 416,-99 491.06,-107.65 511.1,-108.9 586,-99 598.07,-97.4 610.7,-94.88 622.93,-91.95"/>
<polygon fill="#63b8ff" stroke="#63b8ff" points="623.78,-95.34 632.64,-89.52 622.09,-88.55 623.78,-95.34"/>
</a>
</g>
</g>
<!-- Node7 -->
<g id="Node000007" class="node">
<title>Node7</title>
<g id="a_Node000007"><a xlink:href="classMayaFlux_1_1Yantra_1_1UniversalAnalyzer_ad2bc166262ab4cac5580db3854c9a1af.html#ad2bc166262ab4cac5580db3854c9a1af" target="_top" xlink:title="Create summary statistics from results (override for custom summaries)">
<polygon fill="white" stroke="#666666" points="577.5,-89.5 424.5,-89.5 424.5,-48.5 577.5,-48.5 577.5,-89.5"/>
<text text-anchor="start" x="432.5" y="-77.5" font-family="Helvetica,sans-Serif" font-size="10.00">MayaFlux::Yantra::Universal</text>
<text text-anchor="start" x="432.5" y="-66.5" font-family="Helvetica,sans-Serif" font-size="10.00">Analyzer::create_summary</text>
<text text-anchor="middle" x="501" y="-55.5" font-family="Helvetica,sans-Serif" font-size="10.00">_statistics</text>
</a>
</g>
</g>
<!-- Node3&#45;&gt;Node7 -->
<g id="edge6_Node000003_Node000007" class="edge">
<title>Node3&#45;&gt;Node7</title>
<g id="a_edge6_Node000003_Node000007"><a xlink:title=" ">
<path fill="none" stroke="#63b8ff" d="M363.02,-69C379.52,-69 397.1,-69 413.97,-69"/>
<polygon fill="#63b8ff" stroke="#63b8ff" points="414.37,-72.5 424.37,-69 414.37,-65.5 414.37,-72.5"/>
</a>
</g>
</g>
<!-- Node8 -->
<g id="Node000008" class="node">
<title>Node8</title>
<g id="a_Node000008"><a xlink:href="classMayaFlux_1_1Yantra_1_1UniversalAnalyzer_ab9a3fc19924f161a4371c3aec5c2f3fb.html#ab9a3fc19924f161a4371c3aec5c2f3fb" target="_top" xlink:title="Organize results into hierarchical groups (override for custom grouping)">
<polygon fill="white" stroke="#666666" points="586,-30 416,-30 416,0 586,0 586,-30"/>
<text text-anchor="start" x="424" y="-18" font-family="Helvetica,sans-Serif" font-size="10.00">MayaFlux::Yantra::Universal</text>
<text text-anchor="middle" x="501" y="-7" font-family="Helvetica,sans-Serif" font-size="10.00">Analyzer::organize_into_groups</text>
</a>
</g>
</g>
<!-- Node3&#45;&gt;Node8 -->
<g id="edge8_Node000003_Node000008" class="edge">
<title>Node3&#45;&gt;Node8</title>
<g id="a_edge8_Node000003_Node000008"><a xlink:title=" ">
<path fill="none" stroke="#63b8ff" d="M363.02,-49.81C385.16,-44.18 409.24,-38.06 430.96,-32.55"/>
<polygon fill="#63b8ff" stroke="#63b8ff" points="431.92,-35.91 440.75,-30.06 430.2,-29.13 431.92,-35.91"/>
</a>
</g>
</g>
<!-- Node5 -->
<g id="Node000005" class="node">
<title>Node5</title>
<g id="a_Node000005"><a xlink:href="classMayaFlux_1_1Yantra_1_1UniversalAnalyzer_a1c728257fcc6b2ffe3e7b01aaa41cf98.html#a1c728257fcc6b2ffe3e7b01aaa41cf98" target="_top" xlink:title="Gets the analysis type category for this analyzer.">
<polygon fill="white" stroke="#666666" points="968.5,-108 814.5,-108 814.5,-78 968.5,-78 968.5,-108"/>
<text text-anchor="start" x="822.5" y="-96" font-family="Helvetica,sans-Serif" font-size="10.00">MayaFlux::Yantra::Universal</text>
<text text-anchor="middle" x="891.5" y="-85" font-family="Helvetica,sans-Serif" font-size="10.00">Analyzer::get_analysis_type</text>
</a>
</g>
</g>
<!-- Node4&#45;&gt;Node5 -->
<g id="edge4_Node000004_Node000005" class="edge">
<title>Node4&#45;&gt;Node5</title>
<g id="a_edge4_Node000004_Node000005"><a xlink:title=" ">
<path fill="none" stroke="#63b8ff" d="M775.26,-78.52C784.77,-79.71 794.55,-80.94 804.21,-82.16"/>
<polygon fill="#63b8ff" stroke="#63b8ff" points="803.85,-85.64 814.2,-83.41 804.72,-78.69 803.85,-85.64"/>
</a>
</g>
</g>
<!-- Node6 -->
<g id="Node000006" class="node">
<title>Node6</title>
<g id="a_Node000006"><a xlink:href="classMayaFlux_1_1Yantra_1_1UniversalAnalyzer_accb8a50b514dc4d55f12ea261444f33e.html#accb8a50b514dc4d55f12ea261444f33e" target="_top" xlink:title="Get analyzer&#45;specific name (derived classes override this)">
<polygon fill="white" stroke="#666666" points="972,-60 811,-60 811,-30 972,-30 972,-60"/>
<text text-anchor="start" x="819" y="-48" font-family="Helvetica,sans-Serif" font-size="10.00">MayaFlux::Yantra::Universal</text>
<text text-anchor="middle" x="891.5" y="-37" font-family="Helvetica,sans-Serif" font-size="10.00">Analyzer::get_analyzer_name</text>
</a>
</g>
</g>
<!-- Node4&#45;&gt;Node6 -->
<g id="edge5_Node000004_Node000006" class="edge">
<title>Node4&#45;&gt;Node6</title>
<g id="a_edge5_Node000004_Node000006"><a xlink:title=" ">
<path fill="none" stroke="#63b8ff" d="M775.26,-59.48C783.65,-58.43 792.24,-57.35 800.78,-56.27"/>
<polygon fill="#63b8ff" stroke="#63b8ff" points="801.27,-59.74 810.75,-55.02 800.39,-52.79 801.27,-59.74"/>
</a>
</g>
</g>
<!-- Node7&#45;&gt;Node4 -->
<g id="edge7_Node000007_Node000004" class="edge">
<title>Node7&#45;&gt;Node4</title>
<g id="a_edge7_Node000007_Node000004"><a xlink:title=" ">
<path fill="none" stroke="#63b8ff" d="M577.59,-69C588.69,-69 600.2,-69 611.5,-69"/>
<polygon fill="#63b8ff" stroke="#63b8ff" points="611.79,-72.5 621.79,-69 611.79,-65.5 611.79,-72.5"/>
</a>
</g>
</g>
<!-- Node8&#45;&gt;Node4 -->
<g id="edge9_Node000008_Node000004" class="edge">
<title>Node8&#45;&gt;Node4</title>
<g id="a_edge9_Node000008_Node000004"><a xlink:title=" ">
<path fill="none" stroke="#63b8ff" d="M556.46,-30.04C574.15,-34.93 594.2,-40.47 613.53,-45.81"/>
<polygon fill="#63b8ff" stroke="#63b8ff" points="612.67,-49.2 623.24,-48.49 614.54,-42.45 612.67,-49.2"/>
</a>
</g>
</g>
</g>
</svg>
