<?xml version="1.0" encoding="UTF-8" standalone="no"?>
<!DOCTYPE svg PUBLIC "-//W3C//DTD SVG 1.1//EN"
 "http://www.w3.org/Graphics/SVG/1.1/DTD/svg11.dtd">
<!-- Generated by graphviz version 2.43.0 (0)
 -->
<!-- Title: MayaFlux::Portal::Graphics::TextureLoom::create_cubemap Pages: 1 -->
<svg width="1467pt" height="303pt"
 viewBox="0.00 0.00 1467.00 303.00" xmlns="http://www.w3.org/2000/svg" xmlns:xlink="http://www.w3.org/1999/xlink">
<g id="graph0" class="graph" transform="scale(1 1) rotate(0) translate(4 299)">
<title>MayaFlux::Portal::Graphics::TextureLoom::create_cubemap</title>
<!-- Node1 -->
<g id="Node000001" class="node">
<title>Node1</title>
<g id="a_Node000001"><a xlink:title="Create a cubemap texture.">
<polygon fill="#999999" stroke="#666666" points="173,-172.5 0,-172.5 0,-142.5 173,-142.5 173,-172.5"/>
<text text-anchor="start" x="8" y="-160.5" font-family="Helvetica,sans-Serif" font-size="10.00">MayaFlux::Portal::Graphics</text>
<text text-anchor="middle" x="86.5" y="-149.5" font-family="Helvetica,sans-Serif" font-size="10.00">::TextureLoom::create_cubemap</text>
</a>
</g>
</g>
<!-- Node2 -->
<g id="Node000002" class="node">
<title>Node2</title>
<g id="a_Node000002"><a xlink:href="classMayaFlux_1_1Portal_1_1Graphics_1_1TextureLoom_a26861705b8952f21e0b0c8363d6d43e2.html#a26861705b8952f21e0b0c8363d6d43e2" target="_top" xlink:title="Calculate image data size.">
<polygon fill="white" stroke="#666666" points="371.5,-295 223.5,-295 223.5,-254 371.5,-254 371.5,-295"/>
<text text-anchor="start" x="231.5" y="-283" font-family="Helvetica,sans-Serif" font-size="10.00">MayaFlux::Portal::Graphics</text>
<text text-anchor="start" x="231.5" y="-272" font-family="Helvetica,sans-Serif" font-size="10.00">::TextureLoom::calculate</text>
<text text-anchor="middle" x="297.5" y="-261" font-family="Helvetica,sans-Serif" font-size="10.00">_image_size</text>
</a>
</g>
</g>
<!-- Node1&#45;&gt;Node2 -->
<g id="edge1_Node000001_Node000002" class="edge">
<title>Node1&#45;&gt;Node2</title>
<g id="a_edge1_Node000001_Node000002"><a xlink:title=" ">
<path fill="none" stroke="#63b8ff" d="M107.31,-172.81C130.7,-190.43 171.22,-219.49 209,-239.5 215.81,-243.11 223.08,-246.57 230.4,-249.83"/>
<polygon fill="#63b8ff" stroke="#63b8ff" points="229.11,-253.08 239.68,-253.83 231.89,-246.65 229.11,-253.08"/>
</a>
</g>
</g>
<!-- Node4 -->
<g id="Node000004" class="node">
<title>Node4</title>
<g id="a_Node000004"><a xlink:href="classMayaFlux_1_1Core_1_1BackendResourceManager_a679073bdea75b683dc38931d4ad17d8c.html#a679073bdea75b683dc38931d4ad17d8c" target="_top" xlink:title="Initialize a VKImage (allocate VkImage, memory, and create image view)">
<polygon fill="white" stroke="#666666" points="828,-293.5 643,-293.5 643,-263.5 828,-263.5 828,-293.5"/>
<text text-anchor="start" x="651" y="-281.5" font-family="Helvetica,sans-Serif" font-size="10.00">MayaFlux::Core::BackendResource</text>
<text text-anchor="middle" x="735.5" y="-270.5" font-family="Helvetica,sans-Serif" font-size="10.00">Manager::initialize_image</text>
</a>
</g>
</g>
<!-- Node1&#45;&gt;Node4 -->
<g id="edge3_Node000001_Node000004" class="edge">
<title>Node1&#45;&gt;Node4</title>
<g id="a_edge3_Node000001_Node000004"><a xlink:title=" ">
<path fill="none" stroke="#63b8ff" d="M120.3,-172.55C144.34,-182.93 178.06,-196.14 209,-203.5 382.04,-244.66 431.98,-213.8 607,-245.5 610.36,-246.11 638.36,-253.34 667.27,-260.88"/>
<polygon fill="#63b8ff" stroke="#63b8ff" points="666.51,-264.3 677.07,-263.44 668.28,-257.52 666.51,-264.3"/>
</a>
</g>
</g>
<!-- Node10 -->
<g id="Node000010" class="node">
<title>Node10</title>
<g id="a_Node000010"><a xlink:href="classMayaFlux_1_1Portal_1_1Graphics_1_1TextureLoom_af23625d18fe68e281f157b63a0466073.html#af23625d18fe68e281f157b63a0466073" target="_top" xlink:title="Check if manager is initialized.">
<polygon fill="white" stroke="#666666" points="591,-149.5 438,-149.5 438,-119.5 591,-119.5 591,-149.5"/>
<text text-anchor="start" x="446" y="-137.5" font-family="Helvetica,sans-Serif" font-size="10.00">MayaFlux::Portal::Graphics</text>
<text text-anchor="middle" x="514.5" y="-126.5" font-family="Helvetica,sans-Serif" font-size="10.00">::TextureLoom::is_initialized</text>
</a>
</g>
</g>
<!-- Node1&#45;&gt;Node10 -->
<g id="edge9_Node000001_Node000010" class="edge">
<title>Node1&#45;&gt;Node10</title>
<g id="a_edge9_Node000001_Node000010"><a xlink:title=" ">
<path fill="none" stroke="#63b8ff" d="M173.2,-152.87C247.22,-148.88 353.65,-143.13 427.7,-139.13"/>
<polygon fill="#63b8ff" stroke="#63b8ff" points="428.13,-142.61 437.93,-138.58 427.76,-135.62 428.13,-142.61"/>
</a>
</g>
</g>
<!-- Node11 -->
<g id="Node000011" class="node">
<title>Node11</title>
<g id="a_Node000011"><a xlink:href="classMayaFlux_1_1Portal_1_1Graphics_1_1TextureLoom_a26fc4ebc243a75ef0d115344b95a5b0c.html#a26fc4ebc243a75ef0d115344b95a5b0c" target="_top" xlink:title="Convert Portal ImageFormat to Vulkan format.">
<polygon fill="white" stroke="#666666" points="386,-70.5 209,-70.5 209,-40.5 386,-40.5 386,-70.5"/>
<text text-anchor="start" x="217" y="-58.5" font-family="Helvetica,sans-Serif" font-size="10.00">MayaFlux::Portal::Graphics</text>
<text text-anchor="middle" x="297.5" y="-47.5" font-family="Helvetica,sans-Serif" font-size="10.00">::TextureLoom::to_vulkan_format</text>
</a>
</g>
</g>
<!-- Node1&#45;&gt;Node11 -->
<g id="edge10_Node000001_Node000011" class="edge">
<title>Node1&#45;&gt;Node11</title>
<g id="a_edge10_Node000001_Node000011"><a xlink:title=" ">
<path fill="none" stroke="#63b8ff" d="M109.52,-142.23C133.26,-126.26 172.55,-101.24 209,-84.5 217.33,-80.67 226.31,-77.11 235.24,-73.88"/>
<polygon fill="#63b8ff" stroke="#63b8ff" points="236.59,-77.11 244.87,-70.51 234.28,-70.51 236.59,-77.11"/>
</a>
</g>
</g>
<!-- Node12 -->
<g id="Node000012" class="node">
<title>Node12</title>
<g id="a_Node000012"><a xlink:href="classMayaFlux_1_1Core_1_1BackendResourceManager_ab9333b3ff9c0372c1bf8af57a449c3b0.html#ab9333b3ff9c0372c1bf8af57a449c3b0" target="_top" xlink:title="Transition image layout using a pipeline barrier.">
<polygon fill="white" stroke="#666666" points="607,-101.5 422,-101.5 422,-71.5 607,-71.5 607,-101.5"/>
<text text-anchor="start" x="430" y="-89.5" font-family="Helvetica,sans-Serif" font-size="10.00">MayaFlux::Core::BackendResource</text>
<text text-anchor="middle" x="514.5" y="-78.5" font-family="Helvetica,sans-Serif" font-size="10.00">Manager::transition_image_layout</text>
</a>
</g>
</g>
<!-- Node1&#45;&gt;Node12 -->
<g id="edge11_Node000001_Node000012" class="edge">
<title>Node1&#45;&gt;Node12</title>
<g id="a_edge11_Node000001_Node000012"><a xlink:title=" ">
<path fill="none" stroke="#63b8ff" d="M173.2,-143.22C242.46,-131.67 340.1,-115.4 413.04,-103.24"/>
<polygon fill="#63b8ff" stroke="#63b8ff" points="413.87,-106.65 423.16,-101.56 412.72,-99.75 413.87,-106.65"/>
</a>
</g>
</g>
<!-- Node20 -->
<g id="Node000020" class="node">
<title>Node20</title>
<g id="a_Node000020"><a xlink:href="classMayaFlux_1_1Portal_1_1Graphics_1_1TextureLoom_a3a42e83f8a57c6ea8cf2e15cbaaf3892.html#a3a42e83f8a57c6ea8cf2e15cbaaf3892" target="_top" xlink:title="Upload pixel data to an existing texture.">
<polygon fill="white" stroke="#666666" points="373.5,-194.5 221.5,-194.5 221.5,-164.5 373.5,-164.5 373.5,-194.5"/>
<text text-anchor="start" x="229.5" y="-182.5" font-family="Helvetica,sans-Serif" font-size="10.00">MayaFlux::Portal::Graphics</text>
<text text-anchor="middle" x="297.5" y="-171.5" font-family="Helvetica,sans-Serif" font-size="10.00">::TextureLoom::upload_data</text>
</a>
</g>
</g>
<!-- Node1&#45;&gt;Node20 -->
<g id="edge19_Node000001_Node000020" class="edge">
<title>Node1&#45;&gt;Node20</title>
<g id="a_edge19_Node000001_Node000020"><a xlink:title=" ">
<path fill="none" stroke="#63b8ff" d="M173.11,-166.51C185.74,-167.84 198.75,-169.21 211.38,-170.54"/>
<polygon fill="#63b8ff" stroke="#63b8ff" points="211.09,-174.03 221.4,-171.59 211.82,-167.07 211.09,-174.03"/>
</a>
</g>
</g>
<!-- Node3 -->
<g id="Node000003" class="node">
<title>Node3</title>
<g id="a_Node000003"><a xlink:href="classMayaFlux_1_1Portal_1_1Graphics_1_1TextureLoom_a1a8ce2b9ced17d9ff6137c563c58a0e0.html#a1a8ce2b9ced17d9ff6137c563c58a0e0" target="_top" xlink:title="Get bytes per pixel for a format.">
<polygon fill="white" stroke="#666666" points="588.5,-295 440.5,-295 440.5,-254 588.5,-254 588.5,-295"/>
<text text-anchor="start" x="448.5" y="-283" font-family="Helvetica,sans-Serif" font-size="10.00">MayaFlux::Portal::Graphics</text>
<text text-anchor="start" x="448.5" y="-272" font-family="Helvetica,sans-Serif" font-size="10.00">::TextureLoom::get_bytes</text>
<text text-anchor="middle" x="514.5" y="-261" font-family="Helvetica,sans-Serif" font-size="10.00">_per_pixel</text>
</a>
</g>
</g>
<!-- Node2&#45;&gt;Node3 -->
<g id="edge2_Node000002_Node000003" class="edge">
<title>Node2&#45;&gt;Node3</title>
<g id="a_edge2_Node000002_Node000003"><a xlink:title=" ">
<path fill="none" stroke="#63b8ff" d="M371.59,-274.5C390.46,-274.5 410.9,-274.5 430.25,-274.5"/>
<polygon fill="#63b8ff" stroke="#63b8ff" points="430.25,-278 440.25,-274.5 430.25,-271 430.25,-278"/>
</a>
</g>
</g>
<!-- Node5 -->
<g id="Node000005" class="node">
<title>Node5</title>
<g id="a_Node000005"><a xlink:href="classMayaFlux_1_1Core_1_1BackendResourceManager_ab4e39f5b542838628a267c0cfe94dba4.html#ab4e39f5b542838628a267c0cfe94dba4" target="_top" xlink:title="Find a suitable memory type for Vulkan buffer allocation.">
<polygon fill="white" stroke="#666666" points="1049,-293.5 864,-293.5 864,-263.5 1049,-263.5 1049,-293.5"/>
<text text-anchor="start" x="872" y="-281.5" font-family="Helvetica,sans-Serif" font-size="10.00">MayaFlux::Core::BackendResource</text>
<text text-anchor="middle" x="956.5" y="-270.5" font-family="Helvetica,sans-Serif" font-size="10.00">Manager::find_memory_type</text>
</a>
</g>
</g>
<!-- Node4&#45;&gt;Node5 -->
<g id="edge4_Node000004_Node000005" class="edge">
<title>Node4&#45;&gt;Node5</title>
<g id="a_edge4_Node000004_Node000005"><a xlink:title=" ">
<path fill="none" stroke="#63b8ff" d="M828.11,-278.5C836.62,-278.5 845.27,-278.5 853.86,-278.5"/>
<polygon fill="#63b8ff" stroke="#63b8ff" points="853.91,-282 863.91,-278.5 853.91,-275 853.91,-282"/>
</a>
</g>
</g>
<!-- Node8 -->
<g id="Node000008" class="node">
<title>Node8</title>
<g id="a_Node000008"><a xlink:href="classMayaFlux_1_1Core_1_1VKContext_a41228db586851246809c40f704b64292.html#a41228db586851246809c40f704b64292" target="_top" xlink:title="Get logical device.">
<polygon fill="white" stroke="#666666" points="1031.5,-197.5 881.5,-197.5 881.5,-167.5 1031.5,-167.5 1031.5,-197.5"/>
<text text-anchor="start" x="889.5" y="-185.5" font-family="Helvetica,sans-Serif" font-size="10.00">MayaFlux::Core::VKContext</text>
<text text-anchor="middle" x="956.5" y="-174.5" font-family="Helvetica,sans-Serif" font-size="10.00">::get_device</text>
</a>
</g>
</g>
<!-- Node4&#45;&gt;Node8 -->
<g id="edge7_Node000004_Node000008" class="edge">
<title>Node4&#45;&gt;Node8</title>
<g id="a_edge7_Node000004_Node000008"><a xlink:title=" ">
<path fill="none" stroke="#63b8ff" d="M811.75,-263.3C817.46,-260.8 822.96,-257.89 828,-254.5 850.13,-239.62 841.87,-221.38 864,-206.5 866.57,-204.77 869.27,-203.16 872.05,-201.67"/>
<polygon fill="#63b8ff" stroke="#63b8ff" points="873.68,-204.77 881.18,-197.3 870.65,-198.46 873.68,-204.77"/>
</a>
</g>
</g>
<!-- Node6 -->
<g id="Node000006" class="node">
<title>Node6</title>
<g id="a_Node000006"><a xlink:href="classMayaFlux_1_1Core_1_1VKContext_abb26eca0db297f0a9545aee095450aa1.html#abb26eca0db297f0a9545aee095450aa1" target="_top" xlink:title="Get physical device.">
<polygon fill="white" stroke="#666666" points="1256,-293.5 1106,-293.5 1106,-263.5 1256,-263.5 1256,-293.5"/>
<text text-anchor="start" x="1114" y="-281.5" font-family="Helvetica,sans-Serif" font-size="10.00">MayaFlux::Core::VKContext</text>
<text text-anchor="middle" x="1181" y="-270.5" font-family="Helvetica,sans-Serif" font-size="10.00">::get_physical_device</text>
</a>
</g>
</g>
<!-- Node5&#45;&gt;Node6 -->
<g id="edge5_Node000005_Node000006" class="edge">
<title>Node5&#45;&gt;Node6</title>
<g id="a_edge5_Node000005_Node000006"><a xlink:title=" ">
<path fill="none" stroke="#63b8ff" d="M1049.28,-278.5C1064.55,-278.5 1080.33,-278.5 1095.41,-278.5"/>
<polygon fill="#63b8ff" stroke="#63b8ff" points="1095.72,-282 1105.72,-278.5 1095.72,-275 1095.72,-282"/>
</a>
</g>
</g>
<!-- Node7 -->
<g id="Node000007" class="node">
<title>Node7</title>
<g id="a_Node000007"><a xlink:href="classMayaFlux_1_1Core_1_1VKDevice_a094d1ed720c72ced04293743f4b2a63e.html#a094d1ed720c72ced04293743f4b2a63e" target="_top" xlink:title="Get physical device handle.">
<polygon fill="white" stroke="#666666" points="1459,-293.5 1313,-293.5 1313,-263.5 1459,-263.5 1459,-293.5"/>
<text text-anchor="start" x="1321" y="-281.5" font-family="Helvetica,sans-Serif" font-size="10.00">MayaFlux::Core::VKDevice</text>
<text text-anchor="middle" x="1386" y="-270.5" font-family="Helvetica,sans-Serif" font-size="10.00">::get_physical_device</text>
</a>
</g>
</g>
<!-- Node6&#45;&gt;Node7 -->
<g id="edge6_Node000006_Node000007" class="edge">
<title>Node6&#45;&gt;Node7</title>
<g id="a_edge6_Node000006_Node000007"><a xlink:title=" ">
<path fill="none" stroke="#63b8ff" d="M1256.15,-278.5C1271.29,-278.5 1287.32,-278.5 1302.72,-278.5"/>
<polygon fill="#63b8ff" stroke="#63b8ff" points="1302.75,-282 1312.75,-278.5 1302.75,-275 1302.75,-282"/>
</a>
</g>
</g>
<!-- Node9 -->
<g id="Node000009" class="node">
<title>Node9</title>
<g id="a_Node000009"><a xlink:href="classMayaFlux_1_1Core_1_1VKDevice_ac91623c4b7b52f1f5f7460ef91021583.html#ac91623c4b7b52f1f5f7460ef91021583" target="_top" xlink:title="Get logical device handle.">
<polygon fill="white" stroke="#666666" points="1254,-197.5 1108,-197.5 1108,-167.5 1254,-167.5 1254,-197.5"/>
<text text-anchor="start" x="1116" y="-185.5" font-family="Helvetica,sans-Serif" font-size="10.00">MayaFlux::Core::VKDevice</text>
<text text-anchor="middle" x="1181" y="-174.5" font-family="Helvetica,sans-Serif" font-size="10.00">::get_device</text>
</a>
</g>
</g>
<!-- Node8&#45;&gt;Node9 -->
<g id="edge8_Node000008_Node000009" class="edge">
<title>Node8&#45;&gt;Node9</title>
<g id="a_edge8_Node000008_Node000009"><a xlink:title=" ">
<path fill="none" stroke="#63b8ff" d="M1031.59,-182.5C1052.76,-182.5 1075.96,-182.5 1097.6,-182.5"/>
<polygon fill="#63b8ff" stroke="#63b8ff" points="1097.75,-186 1107.75,-182.5 1097.75,-179 1097.75,-186"/>
</a>
</g>
</g>
<!-- Node13 -->
<g id="Node000013" class="node">
<title>Node13</title>
<g id="a_Node000013"><a xlink:href="classMayaFlux_1_1Core_1_1BackendResourceManager_a5dcf25547288ef33225a71929a05c358.html#a5dcf25547288ef33225a71929a05c358" target="_top" xlink:title="Execute immediate command recording for buffer operations.">
<polygon fill="white" stroke="#666666" points="828,-107 643,-107 643,-66 828,-66 828,-107"/>
<text text-anchor="start" x="651" y="-95" font-family="Helvetica,sans-Serif" font-size="10.00">MayaFlux::Core::BackendResource</text>
<text text-anchor="start" x="651" y="-84" font-family="Helvetica,sans-Serif" font-size="10.00">Manager::execute_immediate</text>
<text text-anchor="middle" x="735.5" y="-73" font-family="Helvetica,sans-Serif" font-size="10.00">_commands</text>
</a>
</g>
</g>
<!-- Node12&#45;&gt;Node13 -->
<g id="edge12_Node000012_Node000013" class="edge">
<title>Node12&#45;&gt;Node13</title>
<g id="a_edge12_Node000012_Node000013"><a xlink:title=" ">
<path fill="none" stroke="#63b8ff" d="M607.11,-86.5C615.62,-86.5 624.27,-86.5 632.86,-86.5"/>
<polygon fill="#63b8ff" stroke="#63b8ff" points="632.91,-90 642.91,-86.5 632.91,-83 632.91,-90"/>
</a>
</g>
</g>
<!-- Node14 -->
<g id="Node000014" class="node">
<title>Node14</title>
<g id="a_Node000014"><a xlink:href="classMayaFlux_1_1Core_1_1VKCommandManager_a8e859b77baae66a4cad3578d2a863f76.html#a8e859b77baae66a4cad3578d2a863f76" target="_top" xlink:title="Begin single&#45;time command (for transfers, etc.)">
<polygon fill="white" stroke="#666666" points="1037.5,-41 875.5,-41 875.5,0 1037.5,0 1037.5,-41"/>
<text text-anchor="start" x="883.5" y="-29" font-family="Helvetica,sans-Serif" font-size="10.00">MayaFlux::Core::VKCommand</text>
<text text-anchor="start" x="883.5" y="-18" font-family="Helvetica,sans-Serif" font-size="10.00">Manager::begin_single_time</text>
<text text-anchor="middle" x="956.5" y="-7" font-family="Helvetica,sans-Serif" font-size="10.00">_commands</text>
</a>
</g>
</g>
<!-- Node13&#45;&gt;Node14 -->
<g id="edge13_Node000013_Node000014" class="edge">
<title>Node13&#45;&gt;Node14</title>
<g id="a_edge13_Node000013_Node000014"><a xlink:title=" ">
<path fill="none" stroke="#63b8ff" d="M804.59,-65.98C827.77,-58.99 853.84,-51.14 877.72,-43.94"/>
<polygon fill="#63b8ff" stroke="#63b8ff" points="878.88,-47.25 887.45,-41.01 876.87,-40.54 878.88,-47.25"/>
</a>
</g>
</g>
<!-- Node16 -->
<g id="Node000016" class="node">
<title>Node16</title>
<g id="a_Node000016"><a xlink:href="classMayaFlux_1_1Core_1_1VKCommandManager_a37f459a66acc77d0b833ab5a993f8253.html#a37f459a66acc77d0b833ab5a993f8253" target="_top" xlink:title="End and submit single&#45;time command.">
<polygon fill="white" stroke="#666666" points="1037.5,-149 875.5,-149 875.5,-108 1037.5,-108 1037.5,-149"/>
<text text-anchor="start" x="883.5" y="-137" font-family="Helvetica,sans-Serif" font-size="10.00">MayaFlux::Core::VKCommand</text>
<text text-anchor="start" x="883.5" y="-126" font-family="Helvetica,sans-Serif" font-size="10.00">Manager::end_single_time</text>
<text text-anchor="middle" x="956.5" y="-115" font-family="Helvetica,sans-Serif" font-size="10.00">_commands</text>
</a>
</g>
</g>
<!-- Node13&#45;&gt;Node16 -->
<g id="edge15_Node000013_Node000016" class="edge">
<title>Node13&#45;&gt;Node16</title>
<g id="a_edge15_Node000013_Node000016"><a xlink:title=" ">
<path fill="none" stroke="#63b8ff" d="M828.11,-104.07C840.5,-106.45 853.21,-108.88 865.57,-111.25"/>
<polygon fill="#63b8ff" stroke="#63b8ff" points="864.92,-114.69 875.4,-113.14 866.24,-107.82 864.92,-114.69"/>
</a>
</g>
</g>
<!-- Node18 -->
<g id="Node000018" class="node">
<title>Node18</title>
<g id="a_Node000018"><a xlink:href="classMayaFlux_1_1Core_1_1VKContext_a87b4589aa8858027f09e7370552b4d50.html#a87b4589aa8858027f09e7370552b4d50" target="_top" xlink:title="Get graphics queue.">
<polygon fill="white" stroke="#666666" points="1031.5,-89.5 881.5,-89.5 881.5,-59.5 1031.5,-59.5 1031.5,-89.5"/>
<text text-anchor="start" x="889.5" y="-77.5" font-family="Helvetica,sans-Serif" font-size="10.00">MayaFlux::Core::VKContext</text>
<text text-anchor="middle" x="956.5" y="-66.5" font-family="Helvetica,sans-Serif" font-size="10.00">::get_graphics_queue</text>
</a>
</g>
</g>
<!-- Node13&#45;&gt;Node18 -->
<g id="edge17_Node000013_Node000018" class="edge">
<title>Node13&#45;&gt;Node18</title>
<g id="a_edge17_Node000013_Node000018"><a xlink:title=" ">
<path fill="none" stroke="#63b8ff" d="M828.11,-81.48C842.35,-80.7 857.01,-79.9 871.08,-79.13"/>
<polygon fill="#63b8ff" stroke="#63b8ff" points="871.42,-82.61 881.21,-78.57 871.03,-75.62 871.42,-82.61"/>
</a>
</g>
</g>
<!-- Node15 -->
<g id="Node000015" class="node">
<title>Node15</title>
<g id="a_Node000015"><a xlink:href="classMayaFlux_1_1Core_1_1VKCommandManager_ab25f2104b7f013fca0c7876ade0632b5.html#ab25f2104b7f013fca0c7876ade0632b5" target="_top" xlink:title="Allocate a command buffer with specified level.">
<polygon fill="white" stroke="#666666" points="1277,-35.5 1085,-35.5 1085,-5.5 1277,-5.5 1277,-35.5"/>
<text text-anchor="start" x="1093" y="-23.5" font-family="Helvetica,sans-Serif" font-size="10.00">MayaFlux::Core::VKCommand</text>
<text text-anchor="middle" x="1181" y="-12.5" font-family="Helvetica,sans-Serif" font-size="10.00">Manager::allocate_command_buffer</text>
</a>
</g>
</g>
<!-- Node14&#45;&gt;Node15 -->
<g id="edge14_Node000014_Node000015" class="edge">
<title>Node14&#45;&gt;Node15</title>
<g id="a_edge14_Node000014_Node000015"><a xlink:title=" ">
<path fill="none" stroke="#63b8ff" d="M1037.51,-20.5C1049.61,-20.5 1062.23,-20.5 1074.76,-20.5"/>
<polygon fill="#63b8ff" stroke="#63b8ff" points="1074.77,-24 1084.77,-20.5 1074.77,-17 1074.77,-24"/>
</a>
</g>
</g>
<!-- Node17 -->
<g id="Node000017" class="node">
<title>Node17</title>
<g id="a_Node000017"><a xlink:href="classMayaFlux_1_1Core_1_1VKCommandManager_a59f7b69e5c3f53d77c1c5e8f2e206d89.html#a59f7b69e5c3f53d77c1c5e8f2e206d89" target="_top" xlink:title="Free a command buffer back to the pool.">
<polygon fill="white" stroke="#666666" points="1267.5,-143.5 1094.5,-143.5 1094.5,-113.5 1267.5,-113.5 1267.5,-143.5"/>
<text text-anchor="start" x="1102.5" y="-131.5" font-family="Helvetica,sans-Serif" font-size="10.00">MayaFlux::Core::VKCommand</text>
<text text-anchor="middle" x="1181" y="-120.5" font-family="Helvetica,sans-Serif" font-size="10.00">Manager::free_command_buffer</text>
</a>
</g>
</g>
<!-- Node16&#45;&gt;Node17 -->
<g id="edge16_Node000016_Node000017" class="edge">
<title>Node16&#45;&gt;Node17</title>
<g id="a_edge16_Node000016_Node000017"><a xlink:title=" ">
<path fill="none" stroke="#63b8ff" d="M1037.51,-128.5C1052.64,-128.5 1068.6,-128.5 1084.16,-128.5"/>
<polygon fill="#63b8ff" stroke="#63b8ff" points="1084.31,-132 1094.31,-128.5 1084.31,-125 1084.31,-132"/>
</a>
</g>
</g>
<!-- Node19 -->
<g id="Node000019" class="node">
<title>Node19</title>
<g id="a_Node000019"><a xlink:href="classMayaFlux_1_1Core_1_1VKDevice_af1941d43ae76316ef044a61450e7aa1c.html#af1941d43ae76316ef044a61450e7aa1c" target="_top" xlink:title="Get graphics queue.">
<polygon fill="white" stroke="#666666" points="1254,-89.5 1108,-89.5 1108,-59.5 1254,-59.5 1254,-89.5"/>
<text text-anchor="start" x="1116" y="-77.5" font-family="Helvetica,sans-Serif" font-size="10.00">MayaFlux::Core::VKDevice</text>
<text text-anchor="middle" x="1181" y="-66.5" font-family="Helvetica,sans-Serif" font-size="10.00">::get_graphics_queue</text>
</a>
</g>
</g>
<!-- Node18&#45;&gt;Node19 -->
<g id="edge18_Node000018_Node000019" class="edge">
<title>Node18&#45;&gt;Node19</title>
<g id="a_edge18_Node000018_Node000019"><a xlink:title=" ">
<path fill="none" stroke="#63b8ff" d="M1031.59,-74.5C1052.76,-74.5 1075.96,-74.5 1097.6,-74.5"/>
<polygon fill="#63b8ff" stroke="#63b8ff" points="1097.75,-78 1107.75,-74.5 1097.75,-71 1097.75,-78"/>
</a>
</g>
</g>
<!-- Node20&#45;&gt;Node10 -->
<g id="edge20_Node000020_Node000010" class="edge">
<title>Node20&#45;&gt;Node10</title>
<g id="a_edge20_Node000020_Node000010"><a xlink:title=" ">
<path fill="none" stroke="#63b8ff" d="M370.39,-164.45C390.11,-160.33 411.64,-155.82 431.87,-151.59"/>
<polygon fill="#63b8ff" stroke="#63b8ff" points="432.61,-155.01 441.68,-149.53 431.17,-148.16 432.61,-155.01"/>
</a>
</g>
</g>
<!-- Node21 -->
<g id="Node000021" class="node">
<title>Node21</title>
<g id="a_Node000021"><a xlink:href="classMayaFlux_1_1Core_1_1BackendResourceManager_ae6ec7e3044b266267de2e7fcb3c0f2e4.html#ae6ec7e3044b266267de2e7fcb3c0f2e4" target="_top" xlink:title="Upload data to an image (creates staging buffer internally)">
<polygon fill="white" stroke="#666666" points="607,-197.5 422,-197.5 422,-167.5 607,-167.5 607,-197.5"/>
<text text-anchor="start" x="430" y="-185.5" font-family="Helvetica,sans-Serif" font-size="10.00">MayaFlux::Core::BackendResource</text>
<text text-anchor="middle" x="514.5" y="-174.5" font-family="Helvetica,sans-Serif" font-size="10.00">Manager::upload_image_data</text>
</a>
</g>
</g>
<!-- Node20&#45;&gt;Node21 -->
<g id="edge21_Node000020_Node000021" class="edge">
<title>Node20&#45;&gt;Node21</title>
<g id="a_edge21_Node000020_Node000021"><a xlink:title=" ">
<path fill="none" stroke="#63b8ff" d="M373.7,-180.55C385.93,-180.72 398.77,-180.9 411.51,-181.08"/>
<polygon fill="#63b8ff" stroke="#63b8ff" points="411.65,-184.58 421.7,-181.22 411.75,-177.58 411.65,-184.58"/>
</a>
</g>
</g>
<!-- Node21&#45;&gt;Node8 -->
<g id="edge25_Node000021_Node000008" class="edge">
<title>Node21&#45;&gt;Node8</title>
<g id="a_edge25_Node000021_Node000008"><a xlink:title=" ">
<path fill="none" stroke="#63b8ff" d="M582.33,-167.5C601.79,-163.79 623.15,-160.35 643,-158.5 724.87,-150.86 746.13,-150.86 828,-158.5 844.44,-160.03 861.91,-162.66 878.48,-165.62"/>
<polygon fill="#63b8ff" stroke="#63b8ff" points="878.2,-169.12 888.67,-167.5 879.47,-162.24 878.2,-169.12"/>
</a>
</g>
</g>
<!-- Node21&#45;&gt;Node13 -->
<g id="edge24_Node000021_Node000013" class="edge">
<title>Node21&#45;&gt;Node13</title>
<g id="a_edge24_Node000021_Node000013"><a xlink:title=" ">
<path fill="none" stroke="#63b8ff" d="M587.25,-167.33C594.1,-164.8 600.8,-161.88 607,-158.5 626.06,-148.11 624.75,-137.26 643,-125.5 650.97,-120.36 659.74,-115.63 668.58,-111.38"/>
<polygon fill="#63b8ff" stroke="#63b8ff" points="670.2,-114.49 677.8,-107.11 667.26,-108.13 670.2,-114.49"/>
</a>
</g>
</g>
<!-- Node22 -->
<g id="Node000022" class="node">
<title>Node22</title>
<g id="a_Node000022"><a xlink:href="classMayaFlux_1_1Core_1_1BackendResourceManager_a0db85a56fc0aa2720febc7f3e8c3dbf9.html#a0db85a56fc0aa2720febc7f3e8c3dbf9" target="_top" xlink:title="Cleanup a buffer and release associated resources.">
<polygon fill="white" stroke="#666666" points="828,-197.5 643,-197.5 643,-167.5 828,-167.5 828,-197.5"/>
<text text-anchor="start" x="651" y="-185.5" font-family="Helvetica,sans-Serif" font-size="10.00">MayaFlux::Core::BackendResource</text>
<text text-anchor="middle" x="735.5" y="-174.5" font-family="Helvetica,sans-Serif" font-size="10.00">Manager::cleanup_buffer</text>
</a>
</g>
</g>
<!-- Node21&#45;&gt;Node22 -->
<g id="edge22_Node000021_Node000022" class="edge">
<title>Node21&#45;&gt;Node22</title>
<g id="a_edge22_Node000021_Node000022"><a xlink:title=" ">
<path fill="none" stroke="#63b8ff" d="M607.11,-182.5C615.62,-182.5 624.27,-182.5 632.86,-182.5"/>
<polygon fill="#63b8ff" stroke="#63b8ff" points="632.91,-186 642.91,-182.5 632.91,-179 632.91,-186"/>
</a>
</g>
</g>
<!-- Node23 -->
<g id="Node000023" class="node">
<title>Node23</title>
<g id="a_Node000023"><a xlink:href="classMayaFlux_1_1Core_1_1BackendResourceManager_ad1bfc97eb921df611d3503d11e6e2347.html#ad1bfc97eb921df611d3503d11e6e2347" target="_top" xlink:title="Initialize a buffer for use with the graphics backend.">
<polygon fill="white" stroke="#666666" points="828,-245.5 643,-245.5 643,-215.5 828,-215.5 828,-245.5"/>
<text text-anchor="start" x="651" y="-233.5" font-family="Helvetica,sans-Serif" font-size="10.00">MayaFlux::Core::BackendResource</text>
<text text-anchor="middle" x="735.5" y="-222.5" font-family="Helvetica,sans-Serif" font-size="10.00">Manager::initialize_buffer</text>
</a>
</g>
</g>
<!-- Node21&#45;&gt;Node23 -->
<g id="edge26_Node000021_Node000023" class="edge">
<title>Node21&#45;&gt;Node23</title>
<g id="a_edge26_Node000021_Node000023"><a xlink:title=" ">
<path fill="none" stroke="#63b8ff" d="M584.19,-197.56C607.02,-202.56 632.61,-208.17 656.12,-213.32"/>
<polygon fill="#63b8ff" stroke="#63b8ff" points="655.53,-216.78 666.05,-215.5 657.03,-209.94 655.53,-216.78"/>
</a>
</g>
</g>
<!-- Node22&#45;&gt;Node8 -->
<g id="edge23_Node000022_Node000008" class="edge">
<title>Node22&#45;&gt;Node8</title>
<g id="a_edge23_Node000022_Node000008"><a xlink:title=" ">
<path fill="none" stroke="#63b8ff" d="M828.11,-182.5C842.35,-182.5 857.01,-182.5 871.08,-182.5"/>
<polygon fill="#63b8ff" stroke="#63b8ff" points="871.21,-186 881.21,-182.5 871.21,-179 871.21,-186"/>
</a>
</g>
</g>
<!-- Node23&#45;&gt;Node5 -->
<g id="edge27_Node000023_Node000005" class="edge">
<title>Node23&#45;&gt;Node5</title>
<g id="a_edge27_Node000023_Node000005"><a xlink:title=" ">
<path fill="none" stroke="#63b8ff" d="M805.19,-245.56C828.02,-250.56 853.61,-256.17 877.12,-261.32"/>
<polygon fill="#63b8ff" stroke="#63b8ff" points="876.53,-264.78 887.05,-263.5 878.03,-257.94 876.53,-264.78"/>
</a>
</g>
</g>
<!-- Node23&#45;&gt;Node8 -->
<g id="edge28_Node000023_Node000008" class="edge">
<title>Node23&#45;&gt;Node8</title>
<g id="a_edge28_Node000023_Node000008"><a xlink:title=" ">
<path fill="none" stroke="#63b8ff" d="M805.19,-215.44C828.02,-210.44 853.61,-204.83 877.12,-199.68"/>
<polygon fill="#63b8ff" stroke="#63b8ff" points="878.03,-203.06 887.05,-197.5 876.53,-196.22 878.03,-203.06"/>
</a>
</g>
</g>
<!-- Node24 -->
<g id="Node000024" class="node">
<title>Node24</title>
<g id="a_Node000024"><a xlink:href="namespaceMayaFlux_1_1Kakshya_aedc3538e77f59c4a4d91df28e181d066.html#aedc3538e77f59c4a4d91df28e181d066" target="_top" xlink:title="Convert DataModality enum to string representation.">
<polygon fill="white" stroke="#666666" points="1016,-245.5 897,-245.5 897,-215.5 1016,-215.5 1016,-245.5"/>
<text text-anchor="start" x="905" y="-233.5" font-family="Helvetica,sans-Serif" font-size="10.00">MayaFlux::Kakshya::</text>
<text text-anchor="middle" x="956.5" y="-222.5" font-family="Helvetica,sans-Serif" font-size="10.00">modality_to_string</text>
</a>
</g>
</g>
<!-- Node23&#45;&gt;Node24 -->
<g id="edge29_Node000023_Node000024" class="edge">
<title>Node23&#45;&gt;Node24</title>
<g id="a_edge29_Node000023_Node000024"><a xlink:title=" ">
<path fill="none" stroke="#63b8ff" d="M828.11,-230.5C847.69,-230.5 868.05,-230.5 886.61,-230.5"/>
<polygon fill="#63b8ff" stroke="#63b8ff" points="886.71,-234 896.71,-230.5 886.71,-227 886.71,-234"/>
</a>
</g>
</g>
<!-- Node25 -->
<g id="Node000025" class="node">
<title>Node25</title>
<g id="a_Node000025"><a xlink:href="namespaceMayaFlux_1_1Reflect_aad91118cbd25bd9e35a3ced9aa4e6dbd.html#aad91118cbd25bd9e35a3ced9aa4e6dbd" target="_top" xlink:title="Universal enum to string converter using magic_enum (original case)">
<polygon fill="white" stroke="#666666" points="1236,-245.5 1126,-245.5 1126,-215.5 1236,-215.5 1236,-245.5"/>
<text text-anchor="start" x="1134" y="-233.5" font-family="Helvetica,sans-Serif" font-size="10.00">MayaFlux::Reflect::</text>
<text text-anchor="middle" x="1181" y="-222.5" font-family="Helvetica,sans-Serif" font-size="10.00">enum_to_string</text>
</a>
</g>
</g>
<!-- Node24&#45;&gt;Node25 -->
<g id="edge30_Node000024_Node000025" class="edge">
<title>Node24&#45;&gt;Node25</title>
<g id="a_edge30_Node000024_Node000025"><a xlink:title=" ">
<path fill="none" stroke="#63b8ff" d="M1016.25,-230.5C1046.79,-230.5 1084.17,-230.5 1115.51,-230.5"/>
<polygon fill="#63b8ff" stroke="#63b8ff" points="1115.89,-234 1125.89,-230.5 1115.89,-227 1115.89,-234"/>
</a>
</g>
</g>
</g>
</svg>
