<?xml version="1.0" encoding="UTF-8" standalone="no"?>
<!DOCTYPE svg PUBLIC "-//W3C//DTD SVG 1.1//EN"
 "http://www.w3.org/Graphics/SVG/1.1/DTD/svg11.dtd">
<!-- Generated by graphviz version 2.43.0 (0)
 -->
<!-- Title: MayaFlux::Nodes::NodeGraphManager::set_channel_mask Pages: 1 -->
<svg width="566pt" height="38pt"
 viewBox="0.00 0.00 566.00 38.00" xmlns="http://www.w3.org/2000/svg" xmlns:xlink="http://www.w3.org/1999/xlink">
<g id="graph0" class="graph" transform="scale(1 1) rotate(0) translate(4 34)">
<title>MayaFlux::Nodes::NodeGraphManager::set_channel_mask</title>
<!-- Node1 -->
<g id="Node000001" class="node">
<title>Node1</title>
<g id="a_Node000001"><a xlink:title="Adds the specified channel mask to a node&#39;s global registration.">
<polygon fill="#999999" stroke="#666666" points="162,-30 0,-30 0,0 162,0 162,-30"/>
<text text-anchor="start" x="8" y="-18" font-family="Helvetica,sans-Serif" font-size="10.00">MayaFlux::Nodes::NodeGraph</text>
<text text-anchor="middle" x="81" y="-7" font-family="Helvetica,sans-Serif" font-size="10.00">Manager::set_channel_mask</text>
</a>
</g>
</g>
<!-- Node2 -->
<g id="Node000002" class="node">
<title>Node2</title>
<g id="a_Node000002"><a xlink:href="classMayaFlux_1_1Nodes_1_1NodeGraphManager_a7659ea2f416c5ebdd7beb68e93e98722.html#a7659ea2f416c5ebdd7beb68e93e98722" target="_top" xlink:title="Registers a node globally if not already registered.">
<polygon fill="white" stroke="#666666" points="360,-30 198,-30 198,0 360,0 360,-30"/>
<text text-anchor="start" x="206" y="-18" font-family="Helvetica,sans-Serif" font-size="10.00">MayaFlux::Nodes::NodeGraph</text>
<text text-anchor="middle" x="279" y="-7" font-family="Helvetica,sans-Serif" font-size="10.00">Manager::register_global</text>
</a>
</g>
</g>
<!-- Node1&#45;&gt;Node2 -->
<g id="edge1_Node000001_Node000002" class="edge">
<title>Node1&#45;&gt;Node2</title>
<g id="a_edge1_Node000001_Node000002"><a xlink:title=" ">
<path fill="none" stroke="#63b8ff" d="M162,-15C170.52,-15 179.23,-15 187.86,-15"/>
<polygon fill="#63b8ff" stroke="#63b8ff" points="187.93,-18.5 197.93,-15 187.93,-11.5 187.93,-18.5"/>
</a>
</g>
</g>
<!-- Node3 -->
<g id="Node000003" class="node">
<title>Node3</title>
<g id="a_Node000003"><a xlink:href="classMayaFlux_1_1Nodes_1_1NodeGraphManager_ab960be6ecd39c89e51248962d77f94ab.html#ab960be6ecd39c89e51248962d77f94ab" target="_top" xlink:title="Checks if a node is registered with this manager.">
<polygon fill="white" stroke="#666666" points="558,-30 396,-30 396,0 558,0 558,-30"/>
<text text-anchor="start" x="404" y="-18" font-family="Helvetica,sans-Serif" font-size="10.00">MayaFlux::Nodes::NodeGraph</text>
<text text-anchor="middle" x="477" y="-7" font-family="Helvetica,sans-Serif" font-size="10.00">Manager::is_node_registered</text>
</a>
</g>
</g>
<!-- Node2&#45;&gt;Node3 -->
<g id="edge2_Node000002_Node000003" class="edge">
<title>Node2&#45;&gt;Node3</title>
<g id="a_edge2_Node000002_Node000003"><a xlink:title=" ">
<path fill="none" stroke="#63b8ff" d="M360,-15C368.52,-15 377.23,-15 385.86,-15"/>
<polygon fill="#63b8ff" stroke="#63b8ff" points="385.93,-18.5 395.93,-15 385.93,-11.5 385.93,-18.5"/>
</a>
</g>
</g>
</g>
</svg>
