<?xml version="1.0" encoding="UTF-8" standalone="no"?>
<!DOCTYPE svg PUBLIC "-//W3C//DTD SVG 1.1//EN"
 "http://www.w3.org/Graphics/SVG/1.1/DTD/svg11.dtd">
<!-- Generated by graphviz version 2.43.0 (0)
 -->
<!-- Title: MayaFlux::Core::VKSwapchain::~VKSwapchain Pages: 1 -->
<svg width="943pt" height="38pt"
 viewBox="0.00 0.00 943.00 38.00" xmlns="http://www.w3.org/2000/svg" xmlns:xlink="http://www.w3.org/1999/xlink">
<g id="graph0" class="graph" transform="scale(1 1) rotate(0) translate(4 34)">
<title>MayaFlux::Core::VKSwapchain::~VKSwapchain</title>
<!-- Node1 -->
<g id="Node000001" class="node">
<title>Node1</title>
<g id="a_Node000001"><a xlink:title=" ">
<polygon fill="#999999" stroke="#666666" points="165,-30 0,-30 0,0 165,0 165,-30"/>
<text text-anchor="start" x="8" y="-18" font-family="Helvetica,sans-Serif" font-size="10.00">MayaFlux::Core::VKSwapchain</text>
<text text-anchor="middle" x="82.5" y="-7" font-family="Helvetica,sans-Serif" font-size="10.00">::~VKSwapchain</text>
</a>
</g>
</g>
<!-- Node2 -->
<g id="Node000002" class="node">
<title>Node2</title>
<g id="a_Node000002"><a xlink:href="classMayaFlux_1_1Core_1_1VKSwapchain_a81b9b3f6372e41b61f22e85927ff06e3.html#a81b9b3f6372e41b61f22e85927ff06e3" target="_top" xlink:title="Cleanup swapchain resources.">
<polygon fill="white" stroke="#666666" points="366,-30 201,-30 201,0 366,0 366,-30"/>
<text text-anchor="start" x="209" y="-18" font-family="Helvetica,sans-Serif" font-size="10.00">MayaFlux::Core::VKSwapchain</text>
<text text-anchor="middle" x="283.5" y="-7" font-family="Helvetica,sans-Serif" font-size="10.00">::cleanup</text>
</a>
</g>
</g>
<!-- Node1&#45;&gt;Node2 -->
<g id="edge1_Node000001_Node000002" class="edge">
<title>Node1&#45;&gt;Node2</title>
<g id="a_edge1_Node000001_Node000002"><a xlink:title=" ">
<path fill="none" stroke="#63b8ff" d="M165.02,-15C173.5,-15 182.17,-15 190.76,-15"/>
<polygon fill="#63b8ff" stroke="#63b8ff" points="190.79,-18.5 200.79,-15 190.79,-11.5 190.79,-18.5"/>
</a>
</g>
</g>
<!-- Node3 -->
<g id="Node000003" class="node">
<title>Node3</title>
<g id="a_Node000003"><a xlink:href="classMayaFlux_1_1Core_1_1VKSwapchain_abe5f9e7312b2874fd69f65d828aaafed.html#abe5f9e7312b2874fd69f65d828aaafed" target="_top" xlink:title="Cleanup old swapchain during recreation.">
<polygon fill="white" stroke="#666666" points="567,-30 402,-30 402,0 567,0 567,-30"/>
<text text-anchor="start" x="410" y="-18" font-family="Helvetica,sans-Serif" font-size="10.00">MayaFlux::Core::VKSwapchain</text>
<text text-anchor="middle" x="484.5" y="-7" font-family="Helvetica,sans-Serif" font-size="10.00">::cleanup_swapchain</text>
</a>
</g>
</g>
<!-- Node2&#45;&gt;Node3 -->
<g id="edge2_Node000002_Node000003" class="edge">
<title>Node2&#45;&gt;Node3</title>
<g id="a_edge2_Node000002_Node000003"><a xlink:title=" ">
<path fill="none" stroke="#63b8ff" d="M366.02,-15C374.5,-15 383.17,-15 391.76,-15"/>
<polygon fill="#63b8ff" stroke="#63b8ff" points="391.79,-18.5 401.79,-15 391.79,-11.5 391.79,-18.5"/>
</a>
</g>
</g>
<!-- Node4 -->
<g id="Node000004" class="node">
<title>Node4</title>
<g id="a_Node000004"><a xlink:href="classMayaFlux_1_1Core_1_1VKContext_a41228db586851246809c40f704b64292.html#a41228db586851246809c40f704b64292" target="_top" xlink:title="Get logical device.">
<polygon fill="white" stroke="#666666" points="753,-30 603,-30 603,0 753,0 753,-30"/>
<text text-anchor="start" x="611" y="-18" font-family="Helvetica,sans-Serif" font-size="10.00">MayaFlux::Core::VKContext</text>
<text text-anchor="middle" x="678" y="-7" font-family="Helvetica,sans-Serif" font-size="10.00">::get_device</text>
</a>
</g>
</g>
<!-- Node3&#45;&gt;Node4 -->
<g id="edge3_Node000003_Node000004" class="edge">
<title>Node3&#45;&gt;Node4</title>
<g id="a_edge3_Node000003_Node000004"><a xlink:title=" ">
<path fill="none" stroke="#63b8ff" d="M567.27,-15C575.65,-15 584.18,-15 592.59,-15"/>
<polygon fill="#63b8ff" stroke="#63b8ff" points="592.78,-18.5 602.78,-15 592.78,-11.5 592.78,-18.5"/>
</a>
</g>
</g>
<!-- Node5 -->
<g id="Node000005" class="node">
<title>Node5</title>
<g id="a_Node000005"><a xlink:href="classMayaFlux_1_1Core_1_1VKDevice_ac91623c4b7b52f1f5f7460ef91021583.html#ac91623c4b7b52f1f5f7460ef91021583" target="_top" xlink:title="Get logical device handle.">
<polygon fill="white" stroke="#666666" points="935,-30 789,-30 789,0 935,0 935,-30"/>
<text text-anchor="start" x="797" y="-18" font-family="Helvetica,sans-Serif" font-size="10.00">MayaFlux::Core::VKDevice</text>
<text text-anchor="middle" x="862" y="-7" font-family="Helvetica,sans-Serif" font-size="10.00">::get_device</text>
</a>
</g>
</g>
<!-- Node4&#45;&gt;Node5 -->
<g id="edge4_Node000004_Node000005" class="edge">
<title>Node4&#45;&gt;Node5</title>
<g id="a_edge4_Node000004_Node000005"><a xlink:title=" ">
<path fill="none" stroke="#63b8ff" d="M753.03,-15C761.51,-15 770.21,-15 778.79,-15"/>
<polygon fill="#63b8ff" stroke="#63b8ff" points="778.81,-18.5 788.81,-15 778.81,-11.5 778.81,-18.5"/>
</a>
</g>
</g>
</g>
</svg>
