<?xml version="1.0" encoding="UTF-8" standalone="no"?>
<!DOCTYPE svg PUBLIC "-//W3C//DTD SVG 1.1//EN"
 "http://www.w3.org/Graphics/SVG/1.1/DTD/svg11.dtd">
<!-- Generated by graphviz version 2.43.0 (0)
 -->
<!-- Title: MayaFlux::Core::AudioSubsystem Pages: 1 -->
<svg width="1401pt" height="1118pt"
 viewBox="0.00 0.00 1400.50 1118.00" xmlns="http://www.w3.org/2000/svg" xmlns:xlink="http://www.w3.org/1999/xlink">
<g id="graph0" class="graph" transform="scale(1 1) rotate(0) translate(4 1114)">
<title>MayaFlux::Core::AudioSubsystem</title>
<!-- Node1 -->
<g id="Node000001" class="node">
<title>Node1</title>
<g id="a_Node000001"><a xlink:title="Audio processing subsystem managing real&#45;time audio I/O and processing.">
<polygon fill="#999999" stroke="transparent" points="423.5,-405 248.5,-405 248.5,0 423.5,0 423.5,-405"/>
<text text-anchor="start" x="254" y="-392.5" font-family="Helvetica,sans-Serif" font-size="10.00">MayaFlux::Core::AudioSubsystem</text>
<text text-anchor="start" x="261" y="-377.5" font-family="Helvetica,sans-Serif" font-size="10.00">&#45;</text>
<text text-anchor="start" x="277" y="-377.5" font-family="Helvetica,sans-Serif" font-size="10.00">m_audio_backend_service</text>
<text text-anchor="start" x="261" y="-362.5" font-family="Helvetica,sans-Serif" font-size="10.00">&#45;</text>
<text text-anchor="start" x="277" y="-362.5" font-family="Helvetica,sans-Serif" font-size="10.00">m_audio_device</text>
<text text-anchor="start" x="261" y="-347.5" font-family="Helvetica,sans-Serif" font-size="10.00">&#45;</text>
<text text-anchor="start" x="277" y="-347.5" font-family="Helvetica,sans-Serif" font-size="10.00">m_audio_stream</text>
<text text-anchor="start" x="261" y="-332.5" font-family="Helvetica,sans-Serif" font-size="10.00">&#45;</text>
<text text-anchor="start" x="277" y="-332.5" font-family="Helvetica,sans-Serif" font-size="10.00">m_audiobackend</text>
<text text-anchor="start" x="261" y="-317.5" font-family="Helvetica,sans-Serif" font-size="10.00">&#45;</text>
<text text-anchor="start" x="277" y="-317.5" font-family="Helvetica,sans-Serif" font-size="10.00">m_callback_active</text>
<text text-anchor="start" x="261" y="-302.5" font-family="Helvetica,sans-Serif" font-size="10.00">&#45;</text>
<text text-anchor="start" x="277" y="-302.5" font-family="Helvetica,sans-Serif" font-size="10.00">m_is_paused</text>
<text text-anchor="start" x="261" y="-287.5" font-family="Helvetica,sans-Serif" font-size="10.00">&#45;</text>
<text text-anchor="start" x="277" y="-287.5" font-family="Helvetica,sans-Serif" font-size="10.00">m_is_ready</text>
<text text-anchor="start" x="261" y="-272.5" font-family="Helvetica,sans-Serif" font-size="10.00">&#45;</text>
<text text-anchor="start" x="277" y="-272.5" font-family="Helvetica,sans-Serif" font-size="10.00">m_is_running</text>
<text text-anchor="start" x="261" y="-257.5" font-family="Helvetica,sans-Serif" font-size="10.00">&#45;</text>
<text text-anchor="start" x="277" y="-257.5" font-family="Helvetica,sans-Serif" font-size="10.00">m_next_observer_id</text>
<text text-anchor="start" x="261" y="-242.5" font-family="Helvetica,sans-Serif" font-size="10.00">&#45;</text>
<text text-anchor="start" x="277" y="-242.5" font-family="Helvetica,sans-Serif" font-size="10.00">m_notify_running</text>
<text text-anchor="start" x="277" y="-227.5" font-family="Helvetica,sans-Serif" font-size="10.00">and 6 more...</text>
<text text-anchor="start" x="261" y="-212.5" font-family="Helvetica,sans-Serif" font-size="10.00">&#45;</text>
<text text-anchor="start" x="277" y="-212.5" font-family="Helvetica,sans-Serif" font-size="10.00">m_type</text>
<text text-anchor="start" x="258.5" y="-197.5" font-family="Helvetica,sans-Serif" font-size="10.00">+</text>
<text text-anchor="start" x="277" y="-197.5" font-family="Helvetica,sans-Serif" font-size="10.00">AudioSubsystem()</text>
<text text-anchor="start" x="258.5" y="-182.5" font-family="Helvetica,sans-Serif" font-size="10.00">+</text>
<text text-anchor="start" x="277" y="-182.5" font-family="Helvetica,sans-Serif" font-size="10.00">get_audio_backend()</text>
<text text-anchor="start" x="258.5" y="-167.5" font-family="Helvetica,sans-Serif" font-size="10.00">+</text>
<text text-anchor="start" x="277" y="-167.5" font-family="Helvetica,sans-Serif" font-size="10.00">get_device_manager()</text>
<text text-anchor="start" x="258.5" y="-152.5" font-family="Helvetica,sans-Serif" font-size="10.00">+</text>
<text text-anchor="start" x="277" y="-152.5" font-family="Helvetica,sans-Serif" font-size="10.00">get_processing_context</text>
<text text-anchor="start" x="277" y="-141.5" font-family="Helvetica,sans-Serif" font-size="10.00">_handle()</text>
<text text-anchor="start" x="258.5" y="-126.5" font-family="Helvetica,sans-Serif" font-size="10.00">+</text>
<text text-anchor="start" x="277" y="-126.5" font-family="Helvetica,sans-Serif" font-size="10.00">get_stream_info()</text>
<text text-anchor="start" x="258.5" y="-111.5" font-family="Helvetica,sans-Serif" font-size="10.00">+</text>
<text text-anchor="start" x="277" y="-111.5" font-family="Helvetica,sans-Serif" font-size="10.00">get_stream_manager()</text>
<text text-anchor="start" x="258.5" y="-96.5" font-family="Helvetica,sans-Serif" font-size="10.00">+</text>
<text text-anchor="start" x="277" y="-96.5" font-family="Helvetica,sans-Serif" font-size="10.00">get_tokens()</text>
<text text-anchor="start" x="258.5" y="-81.5" font-family="Helvetica,sans-Serif" font-size="10.00">+</text>
<text text-anchor="start" x="277" y="-81.5" font-family="Helvetica,sans-Serif" font-size="10.00">get_type()</text>
<text text-anchor="start" x="258.5" y="-66.5" font-family="Helvetica,sans-Serif" font-size="10.00">+</text>
<text text-anchor="start" x="277" y="-66.5" font-family="Helvetica,sans-Serif" font-size="10.00">initialize()</text>
<text text-anchor="start" x="258.5" y="-51.5" font-family="Helvetica,sans-Serif" font-size="10.00">+</text>
<text text-anchor="start" x="277" y="-51.5" font-family="Helvetica,sans-Serif" font-size="10.00">is_ready()</text>
<text text-anchor="start" x="277" y="-36.5" font-family="Helvetica,sans-Serif" font-size="10.00">and 12 more...</text>
<text text-anchor="start" x="261" y="-21.5" font-family="Helvetica,sans-Serif" font-size="10.00">&#45;</text>
<text text-anchor="start" x="277" y="-21.5" font-family="Helvetica,sans-Serif" font-size="10.00">notify_loop()</text>
<text text-anchor="start" x="261" y="-6.5" font-family="Helvetica,sans-Serif" font-size="10.00">&#45;</text>
<text text-anchor="start" x="277" y="-6.5" font-family="Helvetica,sans-Serif" font-size="10.00">register_backend_service()</text>
<polygon fill="#666666" stroke="#666666" points="249,-387.5 249,-387.5 424,-387.5 424,-387.5 249,-387.5"/>
<polygon fill="#666666" stroke="#666666" points="249,-207.5 249,-207.5 275,-207.5 275,-207.5 249,-207.5"/>
<polygon fill="#666666" stroke="#666666" points="275,-207.5 275,-207.5 424,-207.5 424,-207.5 275,-207.5"/>
<polygon fill="none" stroke="#666666" points="248.5,0 248.5,-405 423.5,-405 423.5,0 248.5,0"/>
</a>
</g>
</g>
<!-- Node2 -->
<g id="Node000002" class="node">
<title>Node2</title>
<g id="a_Node000002"><a xlink:href="classMayaFlux_1_1Core_1_1ISubsystem.html" target="_top" xlink:title="Base interface for all subsystems in the MayaFlux processing architecture.">
<polygon fill="white" stroke="transparent" points="150,-716.5 0,-716.5 0,-461.5 150,-461.5 150,-716.5"/>
<text text-anchor="start" x="5" y="-704" font-family="Helvetica,sans-Serif" font-size="10.00">MayaFlux::Core::ISubsystem</text>
<text text-anchor="start" x="73" y="-689" font-family="Helvetica,sans-Serif" font-size="10.00"> </text>
<text text-anchor="start" x="7" y="-674" font-family="Helvetica,sans-Serif" font-size="10.00">+</text>
<text text-anchor="start" x="23" y="-674" font-family="Helvetica,sans-Serif" font-size="10.00">get_processing_context</text>
<text text-anchor="start" x="23" y="-663" font-family="Helvetica,sans-Serif" font-size="10.00">_handle()</text>
<text text-anchor="start" x="7" y="-648" font-family="Helvetica,sans-Serif" font-size="10.00">+</text>
<text text-anchor="start" x="23" y="-648" font-family="Helvetica,sans-Serif" font-size="10.00">get_tokens()</text>
<text text-anchor="start" x="7" y="-633" font-family="Helvetica,sans-Serif" font-size="10.00">+</text>
<text text-anchor="start" x="23" y="-633" font-family="Helvetica,sans-Serif" font-size="10.00">get_type()</text>
<text text-anchor="start" x="7" y="-618" font-family="Helvetica,sans-Serif" font-size="10.00">+</text>
<text text-anchor="start" x="23" y="-618" font-family="Helvetica,sans-Serif" font-size="10.00">initialize()</text>
<text text-anchor="start" x="7" y="-603" font-family="Helvetica,sans-Serif" font-size="10.00">+</text>
<text text-anchor="start" x="23" y="-603" font-family="Helvetica,sans-Serif" font-size="10.00">is_ready()</text>
<text text-anchor="start" x="7" y="-588" font-family="Helvetica,sans-Serif" font-size="10.00">+</text>
<text text-anchor="start" x="23" y="-588" font-family="Helvetica,sans-Serif" font-size="10.00">is_running()</text>
<text text-anchor="start" x="7" y="-573" font-family="Helvetica,sans-Serif" font-size="10.00">+</text>
<text text-anchor="start" x="23" y="-573" font-family="Helvetica,sans-Serif" font-size="10.00">pause()</text>
<text text-anchor="start" x="7" y="-558" font-family="Helvetica,sans-Serif" font-size="10.00">+</text>
<text text-anchor="start" x="23" y="-558" font-family="Helvetica,sans-Serif" font-size="10.00">register_callbacks()</text>
<text text-anchor="start" x="7" y="-543" font-family="Helvetica,sans-Serif" font-size="10.00">+</text>
<text text-anchor="start" x="23" y="-543" font-family="Helvetica,sans-Serif" font-size="10.00">resume()</text>
<text text-anchor="start" x="7" y="-528" font-family="Helvetica,sans-Serif" font-size="10.00">+</text>
<text text-anchor="start" x="23" y="-528" font-family="Helvetica,sans-Serif" font-size="10.00">shutdown()</text>
<text text-anchor="start" x="7" y="-513" font-family="Helvetica,sans-Serif" font-size="10.00">+</text>
<text text-anchor="start" x="23" y="-513" font-family="Helvetica,sans-Serif" font-size="10.00">start()</text>
<text text-anchor="start" x="7" y="-498" font-family="Helvetica,sans-Serif" font-size="10.00">+</text>
<text text-anchor="start" x="23" y="-498" font-family="Helvetica,sans-Serif" font-size="10.00">stop()</text>
<text text-anchor="start" x="7" y="-483" font-family="Helvetica,sans-Serif" font-size="10.00">+</text>
<text text-anchor="start" x="23" y="-483" font-family="Helvetica,sans-Serif" font-size="10.00">wait_until_running()</text>
<text text-anchor="start" x="7" y="-468" font-family="Helvetica,sans-Serif" font-size="10.00">+</text>
<text text-anchor="start" x="23" y="-468" font-family="Helvetica,sans-Serif" font-size="10.00">~ISubsystem()</text>
<polygon fill="#666666" stroke="#666666" points="0,-699 0,-699 150,-699 150,-699 0,-699"/>
<polygon fill="#666666" stroke="#666666" points="0,-684 0,-684 150,-684 150,-684 0,-684"/>
<polygon fill="none" stroke="#666666" points="0,-461.5 0,-716.5 150,-716.5 150,-461.5 0,-461.5"/>
</a>
</g>
</g>
<!-- Node2&#45;&gt;Node1 -->
<g id="edge1_Node000001_Node000002" class="edge">
<title>Node2&#45;&gt;Node1</title>
<g id="a_edge1_Node000001_Node000002"><a xlink:title=" ">
<path fill="none" stroke="#63b8ff" d="M155.71,-456.98C156.81,-455.31 157.91,-453.65 159,-452 187.27,-409.42 219.38,-363.63 248.41,-323.1"/>
<polygon fill="none" stroke="#63b8ff" points="152.73,-455.15 150.18,-465.43 158.58,-458.98 152.73,-455.15"/>
</a>
</g>
</g>
<!-- Node3 -->
<g id="Node000003" class="node">
<title>Node3</title>
<g id="a_Node000003"><a xlink:href="structMayaFlux_1_1Core_1_1GlobalStreamInfo.html" target="_top" xlink:title="Comprehensive configuration for digital audio stream processing.">
<polygon fill="white" stroke="transparent" points="347.5,-726 168.5,-726 168.5,-452 347.5,-452 347.5,-726"/>
<text text-anchor="start" x="174" y="-714" font-family="Helvetica,sans-Serif" font-size="10.00">MayaFlux::Core::GlobalStreamInfo</text>
<text text-anchor="start" x="186.5" y="-699" font-family="Helvetica,sans-Serif" font-size="10.00">+</text>
<text text-anchor="start" x="213" y="-699" font-family="Helvetica,sans-Serif" font-size="10.00">auto_convert_format</text>
<text text-anchor="start" x="186.5" y="-684" font-family="Helvetica,sans-Serif" font-size="10.00">+</text>
<text text-anchor="start" x="213" y="-684" font-family="Helvetica,sans-Serif" font-size="10.00">backend_options</text>
<text text-anchor="start" x="186.5" y="-669" font-family="Helvetica,sans-Serif" font-size="10.00">+</text>
<text text-anchor="start" x="213" y="-669" font-family="Helvetica,sans-Serif" font-size="10.00">buffer_count</text>
<text text-anchor="start" x="186.5" y="-654" font-family="Helvetica,sans-Serif" font-size="10.00">+</text>
<text text-anchor="start" x="213" y="-654" font-family="Helvetica,sans-Serif" font-size="10.00">buffer_size</text>
<text text-anchor="start" x="186.5" y="-639" font-family="Helvetica,sans-Serif" font-size="10.00">+</text>
<text text-anchor="start" x="213" y="-639" font-family="Helvetica,sans-Serif" font-size="10.00">dither</text>
<text text-anchor="start" x="186.5" y="-624" font-family="Helvetica,sans-Serif" font-size="10.00">+</text>
<text text-anchor="start" x="213" y="-624" font-family="Helvetica,sans-Serif" font-size="10.00">format</text>
<text text-anchor="start" x="186.5" y="-609" font-family="Helvetica,sans-Serif" font-size="10.00">+</text>
<text text-anchor="start" x="213" y="-609" font-family="Helvetica,sans-Serif" font-size="10.00">handle_xruns</text>
<text text-anchor="start" x="186.5" y="-594" font-family="Helvetica,sans-Serif" font-size="10.00">+</text>
<text text-anchor="start" x="213" y="-594" font-family="Helvetica,sans-Serif" font-size="10.00">measure_latency</text>
<text text-anchor="start" x="186.5" y="-579" font-family="Helvetica,sans-Serif" font-size="10.00">+</text>
<text text-anchor="start" x="213" y="-579" font-family="Helvetica,sans-Serif" font-size="10.00">non_interleaved</text>
<text text-anchor="start" x="186.5" y="-564" font-family="Helvetica,sans-Serif" font-size="10.00">+</text>
<text text-anchor="start" x="213" y="-564" font-family="Helvetica,sans-Serif" font-size="10.00">priority</text>
<text text-anchor="start" x="186.5" y="-549" font-family="Helvetica,sans-Serif" font-size="10.00">+</text>
<text text-anchor="start" x="213" y="-549" font-family="Helvetica,sans-Serif" font-size="10.00">sample_rate</text>
<text text-anchor="start" x="186.5" y="-534" font-family="Helvetica,sans-Serif" font-size="10.00">+</text>
<text text-anchor="start" x="213" y="-534" font-family="Helvetica,sans-Serif" font-size="10.00">stream_latency_ms</text>
<text text-anchor="start" x="186.5" y="-519" font-family="Helvetica,sans-Serif" font-size="10.00">+</text>
<text text-anchor="start" x="213" y="-519" font-family="Helvetica,sans-Serif" font-size="10.00">use_callback</text>
<text text-anchor="start" x="186.5" y="-504" font-family="Helvetica,sans-Serif" font-size="10.00">+</text>
<text text-anchor="start" x="213" y="-504" font-family="Helvetica,sans-Serif" font-size="10.00">verbose_logging</text>
<text text-anchor="start" x="186.5" y="-489" font-family="Helvetica,sans-Serif" font-size="10.00">+</text>
<text text-anchor="start" x="213" y="-489" font-family="Helvetica,sans-Serif" font-size="10.00">get_num_channels()</text>
<text text-anchor="start" x="186.5" y="-474" font-family="Helvetica,sans-Serif" font-size="10.00">+</text>
<text text-anchor="start" x="213" y="-474" font-family="Helvetica,sans-Serif" font-size="10.00">get_total_channels()</text>
<text text-anchor="start" x="186.5" y="-459" font-family="Helvetica,sans-Serif" font-size="10.00">+</text>
<text text-anchor="start" x="213" y="-459" font-family="Helvetica,sans-Serif" font-size="10.00">describe()</text>
<polygon fill="#666666" stroke="#666666" points="169,-709 169,-709 348,-709 348,-709 169,-709"/>
<polygon fill="#666666" stroke="#666666" points="169,-499 169,-499 211,-499 211,-499 169,-499"/>
<polygon fill="#666666" stroke="#666666" points="211,-499 211,-499 348,-499 348,-499 211,-499"/>
<polygon fill="none" stroke="#666666" points="168.5,-452 168.5,-726 347.5,-726 347.5,-452 168.5,-452"/>
</a>
</g>
</g>
<!-- Node3&#45;&gt;Node1 -->
<g id="edge2_Node000001_Node000003" class="edge">
<title>Node3&#45;&gt;Node1</title>
<g id="a_edge2_Node000001_Node000003"><a xlink:title=" ">
<path fill="none" stroke="#63b8ff" d="M283.27,-451.98C285.18,-442.17 287.1,-432.43 289,-423 289.41,-420.96 289.82,-418.92 290.24,-416.86"/>
<polygon fill="none" stroke="#63b8ff" points="290.26,-416.76 287.53,-410.09 292.65,-405 295.37,-411.68 290.26,-416.76"/>
</a>
</g>
<text text-anchor="middle" x="329.5" y="-426" font-family="Helvetica,sans-Serif" font-size="10.00" fill="grey"> &#45;m_stream_info</text>
</g>
<!-- Node4 -->
<g id="Node000004" class="node">
<title>Node4</title>
<g id="a_Node000004"><a xlink:href="structMayaFlux_1_1Core_1_1GlobalStreamInfo_1_1ChannelConfig.html" target="_top" xlink:title="Configuration for input or output data channels.">
<polygon fill="white" stroke="transparent" points="292,-999.5 132,-999.5 132,-894.5 292,-894.5 292,-999.5"/>
<text text-anchor="start" x="137" y="-987" font-family="Helvetica,sans-Serif" font-size="10.00">MayaFlux::Core::GlobalStream</text>
<text text-anchor="start" x="164" y="-976" font-family="Helvetica,sans-Serif" font-size="10.00">Info::ChannelConfig</text>
<text text-anchor="start" x="154" y="-961" font-family="Helvetica,sans-Serif" font-size="10.00">+</text>
<text text-anchor="start" x="185" y="-961" font-family="Helvetica,sans-Serif" font-size="10.00">channels</text>
<text text-anchor="start" x="154" y="-946" font-family="Helvetica,sans-Serif" font-size="10.00">+</text>
<text text-anchor="start" x="185" y="-946" font-family="Helvetica,sans-Serif" font-size="10.00">device_id</text>
<text text-anchor="start" x="154" y="-931" font-family="Helvetica,sans-Serif" font-size="10.00">+</text>
<text text-anchor="start" x="185" y="-931" font-family="Helvetica,sans-Serif" font-size="10.00">device_name</text>
<text text-anchor="start" x="154" y="-916" font-family="Helvetica,sans-Serif" font-size="10.00">+</text>
<text text-anchor="start" x="185" y="-916" font-family="Helvetica,sans-Serif" font-size="10.00">enabled</text>
<text text-anchor="start" x="154" y="-901" font-family="Helvetica,sans-Serif" font-size="10.00">+</text>
<text text-anchor="start" x="185" y="-901" font-family="Helvetica,sans-Serif" font-size="10.00">describe()</text>
<polygon fill="#666666" stroke="#666666" points="132,-971 132,-971 292,-971 292,-971 132,-971"/>
<polygon fill="#666666" stroke="#666666" points="132,-911 132,-911 183,-911 183,-911 132,-911"/>
<polygon fill="#666666" stroke="#666666" points="183,-911 183,-911 292,-911 292,-911 183,-911"/>
<polygon fill="none" stroke="#666666" points="132,-894.5 132,-999.5 292,-999.5 292,-894.5 132,-894.5"/>
</a>
</g>
</g>
<!-- Node4&#45;&gt;Node3 -->
<g id="edge3_Node000003_Node000004" class="edge">
<title>Node4&#45;&gt;Node3</title>
<g id="a_edge3_Node000003_Node000004"><a xlink:title=" ">
<path fill="none" stroke="#63b8ff" d="M218.69,-894.23C223.99,-853.18 231.68,-793.67 238.86,-738.15"/>
<polygon fill="none" stroke="#63b8ff" points="238.89,-737.9 235.69,-731.44 240.43,-726 243.62,-732.47 238.89,-737.9"/>
</a>
</g>
<text text-anchor="middle" x="258" y="-758" font-family="Helvetica,sans-Serif" font-size="10.00" fill="grey"> +input</text>
<text text-anchor="middle" x="258" y="-747" font-family="Helvetica,sans-Serif" font-size="10.00" fill="grey">+output</text>
</g>
<!-- Node5 -->
<g id="Node000005" class="node">
<title>Node5</title>
<g id="a_Node000005"><a xlink:href="structMayaFlux_1_1Core_1_1SubsystemTokens.html" target="_top" xlink:title="Processing token configuration for subsystem operation.">
<polygon fill="white" stroke="transparent" points="457.5,-992 310.5,-992 310.5,-902 457.5,-902 457.5,-992"/>
<text text-anchor="start" x="316" y="-980" font-family="Helvetica,sans-Serif" font-size="10.00">MayaFlux::Core::Subsystem</text>
<text text-anchor="start" x="367.5" y="-969" font-family="Helvetica,sans-Serif" font-size="10.00">Tokens</text>
<text text-anchor="start" x="330" y="-954" font-family="Helvetica,sans-Serif" font-size="10.00">+</text>
<text text-anchor="start" x="358" y="-954" font-family="Helvetica,sans-Serif" font-size="10.00">Buffer</text>
<text text-anchor="start" x="330" y="-939" font-family="Helvetica,sans-Serif" font-size="10.00">+</text>
<text text-anchor="start" x="358" y="-939" font-family="Helvetica,sans-Serif" font-size="10.00">Node</text>
<text text-anchor="start" x="330" y="-924" font-family="Helvetica,sans-Serif" font-size="10.00">+</text>
<text text-anchor="start" x="358" y="-924" font-family="Helvetica,sans-Serif" font-size="10.00">Task</text>
<text text-anchor="start" x="330" y="-909" font-family="Helvetica,sans-Serif" font-size="10.00">+</text>
<text text-anchor="start" x="358" y="-909" font-family="Helvetica,sans-Serif" font-size="10.00">operator==()</text>
<polygon fill="#666666" stroke="#666666" points="311,-964 311,-964 458,-964 458,-964 311,-964"/>
<polygon fill="#666666" stroke="#666666" points="311,-919 311,-919 356,-919 356,-919 311,-919"/>
<polygon fill="#666666" stroke="#666666" points="356,-919 356,-919 458,-919 458,-919 356,-919"/>
<polygon fill="none" stroke="#666666" points="310.5,-902 310.5,-992 457.5,-992 457.5,-902 310.5,-902"/>
</a>
</g>
</g>
<!-- Node5&#45;&gt;Node1 -->
<g id="edge4_Node000001_Node000005" class="edge">
<title>Node5&#45;&gt;Node1</title>
<g id="a_edge4_Node000001_Node000005"><a xlink:title=" ">
<path fill="none" stroke="#63b8ff" d="M384.7,-901.81C385.73,-811.6 386,-599.85 370,-423 369.83,-421.08 369.65,-419.15 369.46,-417.21"/>
<polygon fill="none" stroke="#63b8ff" points="369.45,-417.16 364.87,-411.59 368.25,-405.22 372.83,-410.78 369.45,-417.16"/>
</a>
</g>
<text text-anchor="middle" x="441.5" y="-586.5" font-family="Helvetica,sans-Serif" font-size="10.00" fill="grey"> &#45;m_subsystem_tokens</text>
</g>
<!-- Node6 -->
<g id="Node000006" class="node">
<title>Node6</title>
<g id="a_Node000006"><a xlink:href="classMayaFlux_1_1Core_1_1SubsystemProcessingHandle.html" target="_top" xlink:title="Unified interface combining buffer and node processing for subsystems.">
<polygon fill="white" stroke="transparent" points="839,-634 669,-634 669,-544 839,-544 839,-634"/>
<text text-anchor="start" x="685.5" y="-622" font-family="Helvetica,sans-Serif" font-size="10.00">MayaFlux::Core::Subsystem</text>
<text text-anchor="start" x="710" y="-611" font-family="Helvetica,sans-Serif" font-size="10.00">ProcessingHandle</text>
<text text-anchor="start" x="673" y="-596" font-family="Helvetica,sans-Serif" font-size="10.00">+</text>
<text text-anchor="start" x="686" y="-596" font-family="Helvetica,sans-Serif" font-size="10.00">post_process_hooks</text>
<text text-anchor="start" x="673" y="-581" font-family="Helvetica,sans-Serif" font-size="10.00">+</text>
<text text-anchor="start" x="686" y="-581" font-family="Helvetica,sans-Serif" font-size="10.00">pre_process_hooks</text>
<text text-anchor="start" x="673" y="-566" font-family="Helvetica,sans-Serif" font-size="10.00">+</text>
<text text-anchor="start" x="686" y="-566" font-family="Helvetica,sans-Serif" font-size="10.00">get_tokens()</text>
<text text-anchor="start" x="673" y="-551" font-family="Helvetica,sans-Serif" font-size="10.00">+</text>
<text text-anchor="start" x="686" y="-551" font-family="Helvetica,sans-Serif" font-size="10.00">SubsystemProcessingHandle()</text>
<polygon fill="#666666" stroke="#666666" points="669,-606 669,-606 839,-606 839,-606 669,-606"/>
<polygon fill="#666666" stroke="#666666" points="669,-576 669,-576 684,-576 684,-576 669,-576"/>
<polygon fill="#666666" stroke="#666666" points="684,-576 684,-576 839,-576 839,-576 684,-576"/>
<polygon fill="none" stroke="#666666" points="669,-544 669,-634 839,-634 839,-544 669,-544"/>
</a>
</g>
</g>
<!-- Node5&#45;&gt;Node6 -->
<g id="edge11_Node000006_Node000005" class="edge">
<title>Node5&#45;&gt;Node6</title>
<g id="a_edge11_Node000006_Node000005"><a xlink:title=" ">
<path fill="none" stroke="#63b8ff" d="M399.26,-901.79C412.85,-867 435.33,-818.74 466,-784 519.92,-722.93 597.17,-672.27 658.09,-638.06"/>
<polygon fill="none" stroke="#63b8ff" points="658.38,-637.89 661.69,-631.49 668.87,-632.07 665.57,-638.48 658.38,-637.89"/>
</a>
</g>
<text text-anchor="middle" x="533.5" y="-752.5" font-family="Helvetica,sans-Serif" font-size="10.00" fill="grey"> &#45;m_tokens</text>
</g>
<!-- Node6&#45;&gt;Node1 -->
<g id="edge5_Node000001_Node000006" class="edge">
<title>Node6&#45;&gt;Node1</title>
<g id="a_edge5_Node000001_Node000006"><a xlink:title=" ">
<path fill="none" stroke="#63b8ff" d="M706.05,-543.89C639.67,-482.83 518.29,-371.18 432.68,-292.44"/>
<polygon fill="none" stroke="#63b8ff" points="432.57,-292.33 425.44,-291.21 423.73,-284.2 430.86,-285.32 432.57,-292.33"/>
</a>
</g>
<text text-anchor="middle" x="610.5" y="-426" font-family="Helvetica,sans-Serif" font-size="10.00" fill="grey"> &#45;m_handle</text>
</g>
<!-- Node7 -->
<g id="Node000007" class="node">
<title>Node7</title>
<g id="a_Node000007"><a xlink:href="classMayaFlux_1_1Core_1_1BufferProcessingHandle.html" target="_top" xlink:title="Thread&#45;safe interface for buffer operations within a processing domain.">
<polygon fill="white" stroke="transparent" points="650.5,-1110 475.5,-1110 475.5,-784 650.5,-784 650.5,-1110"/>
<text text-anchor="start" x="481" y="-1098" font-family="Helvetica,sans-Serif" font-size="10.00">MayaFlux::Core::BufferProcessing</text>
<text text-anchor="start" x="546" y="-1087" font-family="Helvetica,sans-Serif" font-size="10.00">Handle</text>
<text text-anchor="start" x="485" y="-1072" font-family="Helvetica,sans-Serif" font-size="10.00">&#45;</text>
<text text-anchor="start" x="498" y="-1072" font-family="Helvetica,sans-Serif" font-size="10.00">m_locked</text>
<text text-anchor="start" x="485" y="-1057" font-family="Helvetica,sans-Serif" font-size="10.00">&#45;</text>
<text text-anchor="start" x="498" y="-1057" font-family="Helvetica,sans-Serif" font-size="10.00">m_manager</text>
<text text-anchor="start" x="485" y="-1042" font-family="Helvetica,sans-Serif" font-size="10.00">&#45;</text>
<text text-anchor="start" x="498" y="-1042" font-family="Helvetica,sans-Serif" font-size="10.00">m_token</text>
<text text-anchor="start" x="482.5" y="-1027" font-family="Helvetica,sans-Serif" font-size="10.00">+</text>
<text text-anchor="start" x="498" y="-1027" font-family="Helvetica,sans-Serif" font-size="10.00">BufferProcessingHandle()</text>
<text text-anchor="start" x="482.5" y="-1012" font-family="Helvetica,sans-Serif" font-size="10.00">+</text>
<text text-anchor="start" x="498" y="-1012" font-family="Helvetica,sans-Serif" font-size="10.00">BufferProcessingHandle()</text>
<text text-anchor="start" x="482.5" y="-997" font-family="Helvetica,sans-Serif" font-size="10.00">+</text>
<text text-anchor="start" x="498" y="-997" font-family="Helvetica,sans-Serif" font-size="10.00">BufferProcessingHandle()</text>
<text text-anchor="start" x="482.5" y="-982" font-family="Helvetica,sans-Serif" font-size="10.00">+</text>
<text text-anchor="start" x="498" y="-982" font-family="Helvetica,sans-Serif" font-size="10.00">cleanup_completed_routing()</text>
<text text-anchor="start" x="482.5" y="-967" font-family="Helvetica,sans-Serif" font-size="10.00">+</text>
<text text-anchor="start" x="498" y="-967" font-family="Helvetica,sans-Serif" font-size="10.00">operator=()</text>
<text text-anchor="start" x="482.5" y="-952" font-family="Helvetica,sans-Serif" font-size="10.00">+</text>
<text text-anchor="start" x="498" y="-952" font-family="Helvetica,sans-Serif" font-size="10.00">operator=()</text>
<text text-anchor="start" x="482.5" y="-937" font-family="Helvetica,sans-Serif" font-size="10.00">+</text>
<text text-anchor="start" x="498" y="-937" font-family="Helvetica,sans-Serif" font-size="10.00">process()</text>
<text text-anchor="start" x="482.5" y="-922" font-family="Helvetica,sans-Serif" font-size="10.00">+</text>
<text text-anchor="start" x="498" y="-922" font-family="Helvetica,sans-Serif" font-size="10.00">process_channel()</text>
<text text-anchor="start" x="482.5" y="-907" font-family="Helvetica,sans-Serif" font-size="10.00">+</text>
<text text-anchor="start" x="498" y="-907" font-family="Helvetica,sans-Serif" font-size="10.00">process_channel_with</text>
<text text-anchor="start" x="498" y="-896" font-family="Helvetica,sans-Serif" font-size="10.00">_node_data()</text>
<text text-anchor="start" x="482.5" y="-881" font-family="Helvetica,sans-Serif" font-size="10.00">+</text>
<text text-anchor="start" x="498" y="-881" font-family="Helvetica,sans-Serif" font-size="10.00">process_input()</text>
<text text-anchor="start" x="482.5" y="-866" font-family="Helvetica,sans-Serif" font-size="10.00">+</text>
<text text-anchor="start" x="498" y="-866" font-family="Helvetica,sans-Serif" font-size="10.00">read_channel_data()</text>
<text text-anchor="start" x="482.5" y="-851" font-family="Helvetica,sans-Serif" font-size="10.00">+</text>
<text text-anchor="start" x="498" y="-851" font-family="Helvetica,sans-Serif" font-size="10.00">setup_channels()</text>
<text text-anchor="start" x="482.5" y="-836" font-family="Helvetica,sans-Serif" font-size="10.00">+</text>
<text text-anchor="start" x="498" y="-836" font-family="Helvetica,sans-Serif" font-size="10.00">update_routing_states()</text>
<text text-anchor="start" x="482.5" y="-821" font-family="Helvetica,sans-Serif" font-size="10.00">+</text>
<text text-anchor="start" x="498" y="-821" font-family="Helvetica,sans-Serif" font-size="10.00">write_channel_data()</text>
<text text-anchor="start" x="485" y="-806" font-family="Helvetica,sans-Serif" font-size="10.00">&#45;</text>
<text text-anchor="start" x="498" y="-806" font-family="Helvetica,sans-Serif" font-size="10.00">acquire_write_lock()</text>
<text text-anchor="start" x="485" y="-791" font-family="Helvetica,sans-Serif" font-size="10.00">&#45;</text>
<text text-anchor="start" x="498" y="-791" font-family="Helvetica,sans-Serif" font-size="10.00">ensure_valid()</text>
<polygon fill="#666666" stroke="#666666" points="476,-1082 476,-1082 651,-1082 651,-1082 476,-1082"/>
<polygon fill="#666666" stroke="#666666" points="476,-1037 476,-1037 496,-1037 496,-1037 476,-1037"/>
<polygon fill="#666666" stroke="#666666" points="496,-1037 496,-1037 651,-1037 651,-1037 496,-1037"/>
<polygon fill="none" stroke="#666666" points="475.5,-784 475.5,-1110 650.5,-1110 650.5,-784 475.5,-784"/>
</a>
</g>
</g>
<!-- Node7&#45;&gt;Node6 -->
<g id="edge6_Node000006_Node000007" class="edge">
<title>Node7&#45;&gt;Node6</title>
<g id="a_edge6_Node000006_Node000007"><a xlink:title=" ">
<path fill="none" stroke="#63b8ff" d="M649.98,-783.89C676.77,-733.94 704.47,-682.31 724.54,-644.9"/>
<polygon fill="none" stroke="#63b8ff" points="724.58,-644.83 723.89,-637.65 730.26,-634.26 730.94,-641.43 724.58,-644.83"/>
</a>
</g>
<text text-anchor="middle" x="693" y="-752.5" font-family="Helvetica,sans-Serif" font-size="10.00" fill="grey"> +buffers</text>
</g>
<!-- Node8 -->
<g id="Node000008" class="node">
<title>Node8</title>
<g id="a_Node000008"><a xlink:href="classMayaFlux_1_1Core_1_1NodeProcessingHandle.html" target="_top" xlink:title="Interface for node graph operations within a processing domain.">
<polygon fill="white" stroke="transparent" points="839.5,-1037 668.5,-1037 668.5,-857 839.5,-857 839.5,-1037"/>
<text text-anchor="start" x="674" y="-1025" font-family="Helvetica,sans-Serif" font-size="10.00">MayaFlux::Core::NodeProcessing</text>
<text text-anchor="start" x="737" y="-1014" font-family="Helvetica,sans-Serif" font-size="10.00">Handle</text>
<text text-anchor="start" x="677" y="-999" font-family="Helvetica,sans-Serif" font-size="10.00">&#45;</text>
<text text-anchor="start" x="689" y="-999" font-family="Helvetica,sans-Serif" font-size="10.00">m_manager</text>
<text text-anchor="start" x="677" y="-984" font-family="Helvetica,sans-Serif" font-size="10.00">&#45;</text>
<text text-anchor="start" x="689" y="-984" font-family="Helvetica,sans-Serif" font-size="10.00">m_token</text>
<text text-anchor="start" x="674.5" y="-969" font-family="Helvetica,sans-Serif" font-size="10.00">+</text>
<text text-anchor="start" x="689" y="-969" font-family="Helvetica,sans-Serif" font-size="10.00">cleanup_completed_routing()</text>
<text text-anchor="start" x="674.5" y="-954" font-family="Helvetica,sans-Serif" font-size="10.00">+</text>
<text text-anchor="start" x="689" y="-954" font-family="Helvetica,sans-Serif" font-size="10.00">create_node()</text>
<text text-anchor="start" x="674.5" y="-939" font-family="Helvetica,sans-Serif" font-size="10.00">+</text>
<text text-anchor="start" x="689" y="-939" font-family="Helvetica,sans-Serif" font-size="10.00">NodeProcessingHandle()</text>
<text text-anchor="start" x="674.5" y="-924" font-family="Helvetica,sans-Serif" font-size="10.00">+</text>
<text text-anchor="start" x="689" y="-924" font-family="Helvetica,sans-Serif" font-size="10.00">process()</text>
<text text-anchor="start" x="674.5" y="-909" font-family="Helvetica,sans-Serif" font-size="10.00">+</text>
<text text-anchor="start" x="689" y="-909" font-family="Helvetica,sans-Serif" font-size="10.00">process_audio_networks()</text>
<text text-anchor="start" x="674.5" y="-894" font-family="Helvetica,sans-Serif" font-size="10.00">+</text>
<text text-anchor="start" x="689" y="-894" font-family="Helvetica,sans-Serif" font-size="10.00">process_channel()</text>
<text text-anchor="start" x="674.5" y="-879" font-family="Helvetica,sans-Serif" font-size="10.00">+</text>
<text text-anchor="start" x="689" y="-879" font-family="Helvetica,sans-Serif" font-size="10.00">process_sample()</text>
<text text-anchor="start" x="674.5" y="-864" font-family="Helvetica,sans-Serif" font-size="10.00">+</text>
<text text-anchor="start" x="689" y="-864" font-family="Helvetica,sans-Serif" font-size="10.00">update_routing_states()</text>
<polygon fill="#666666" stroke="#666666" points="669,-1009 669,-1009 840,-1009 840,-1009 669,-1009"/>
<polygon fill="#666666" stroke="#666666" points="669,-979 669,-979 687,-979 687,-979 669,-979"/>
<polygon fill="#666666" stroke="#666666" points="687,-979 687,-979 840,-979 840,-979 687,-979"/>
<polygon fill="none" stroke="#666666" points="668.5,-857 668.5,-1037 839.5,-1037 839.5,-857 668.5,-857"/>
</a>
</g>
</g>
<!-- Node8&#45;&gt;Node6 -->
<g id="edge7_Node000006_Node000008" class="edge">
<title>Node8&#45;&gt;Node6</title>
<g id="a_edge7_Node000006_Node000008"><a xlink:title=" ">
<path fill="none" stroke="#63b8ff" d="M754,-856.63C754,-790.76 754,-703.15 754,-646.66"/>
<polygon fill="none" stroke="#63b8ff" points="754,-646.4 750,-640.4 754,-634.4 758,-640.4 754,-646.4"/>
</a>
</g>
<text text-anchor="middle" x="774.5" y="-752.5" font-family="Helvetica,sans-Serif" font-size="10.00" fill="grey"> +nodes</text>
</g>
<!-- Node9 -->
<g id="Node000009" class="node">
<title>Node9</title>
<g id="a_Node000009"><a xlink:href="classMayaFlux_1_1Core_1_1TaskSchedulerHandle.html" target="_top" xlink:title=" ">
<polygon fill="white" stroke="transparent" points="1020.5,-1022 857.5,-1022 857.5,-872 1020.5,-872 1020.5,-1022"/>
<text text-anchor="start" x="863" y="-1010" font-family="Helvetica,sans-Serif" font-size="10.00">MayaFlux::Core::TaskScheduler</text>
<text text-anchor="start" x="922" y="-999" font-family="Helvetica,sans-Serif" font-size="10.00">Handle</text>
<text text-anchor="start" x="867.5" y="-984" font-family="Helvetica,sans-Serif" font-size="10.00">&#45;</text>
<text text-anchor="start" x="881" y="-984" font-family="Helvetica,sans-Serif" font-size="10.00">m_scheduler</text>
<text text-anchor="start" x="867.5" y="-969" font-family="Helvetica,sans-Serif" font-size="10.00">&#45;</text>
<text text-anchor="start" x="881" y="-969" font-family="Helvetica,sans-Serif" font-size="10.00">m_token</text>
<text text-anchor="start" x="865" y="-954" font-family="Helvetica,sans-Serif" font-size="10.00">+</text>
<text text-anchor="start" x="881" y="-954" font-family="Helvetica,sans-Serif" font-size="10.00">is_valid()</text>
<text text-anchor="start" x="865" y="-939" font-family="Helvetica,sans-Serif" font-size="10.00">+</text>
<text text-anchor="start" x="881" y="-939" font-family="Helvetica,sans-Serif" font-size="10.00">process()</text>
<text text-anchor="start" x="865" y="-924" font-family="Helvetica,sans-Serif" font-size="10.00">+</text>
<text text-anchor="start" x="881" y="-924" font-family="Helvetica,sans-Serif" font-size="10.00">process_buffer_cycle()</text>
<text text-anchor="start" x="865" y="-909" font-family="Helvetica,sans-Serif" font-size="10.00">+</text>
<text text-anchor="start" x="881" y="-909" font-family="Helvetica,sans-Serif" font-size="10.00">register_clock()</text>
<text text-anchor="start" x="865" y="-894" font-family="Helvetica,sans-Serif" font-size="10.00">+</text>
<text text-anchor="start" x="881" y="-894" font-family="Helvetica,sans-Serif" font-size="10.00">register_token_processor()</text>
<text text-anchor="start" x="865" y="-879" font-family="Helvetica,sans-Serif" font-size="10.00">+</text>
<text text-anchor="start" x="881" y="-879" font-family="Helvetica,sans-Serif" font-size="10.00">TaskSchedulerHandle()</text>
<polygon fill="#666666" stroke="#666666" points="858,-994 858,-994 1021,-994 1021,-994 858,-994"/>
<polygon fill="#666666" stroke="#666666" points="858,-964 858,-964 879,-964 879,-964 858,-964"/>
<polygon fill="#666666" stroke="#666666" points="879,-964 879,-964 1021,-964 1021,-964 879,-964"/>
<polygon fill="none" stroke="#666666" points="857.5,-872 857.5,-1022 1020.5,-1022 1020.5,-872 857.5,-872"/>
</a>
</g>
</g>
<!-- Node9&#45;&gt;Node6 -->
<g id="edge8_Node000006_Node000009" class="edge">
<title>Node9&#45;&gt;Node6</title>
<g id="a_edge8_Node000006_Node000009"><a xlink:title=" ">
<path fill="none" stroke="#63b8ff" d="M900.44,-871.8C865.3,-804.18 814.2,-705.84 782.58,-645"/>
<polygon fill="none" stroke="#63b8ff" points="782.45,-644.74 776.13,-641.26 776.91,-634.09 783.23,-637.57 782.45,-644.74"/>
</a>
</g>
<text text-anchor="middle" x="860" y="-752.5" font-family="Helvetica,sans-Serif" font-size="10.00" fill="grey"> +tasks</text>
</g>
<!-- Node10 -->
<g id="Node000010" class="node">
<title>Node10</title>
<g id="a_Node000010"><a xlink:href="classMayaFlux_1_1Core_1_1WindowManagerHandle.html" target="_top" xlink:title=" ">
<polygon fill="white" stroke="transparent" points="1213.5,-992 1038.5,-992 1038.5,-902 1213.5,-902 1213.5,-992"/>
<text text-anchor="start" x="1044" y="-980" font-family="Helvetica,sans-Serif" font-size="10.00">MayaFlux::Core::WindowManager</text>
<text text-anchor="start" x="1109" y="-969" font-family="Helvetica,sans-Serif" font-size="10.00">Handle</text>
<text text-anchor="start" x="1051.5" y="-954" font-family="Helvetica,sans-Serif" font-size="10.00">&#45;</text>
<text text-anchor="start" x="1068" y="-954" font-family="Helvetica,sans-Serif" font-size="10.00">m_window_manager</text>
<text text-anchor="start" x="1049" y="-939" font-family="Helvetica,sans-Serif" font-size="10.00">+</text>
<text text-anchor="start" x="1068" y="-939" font-family="Helvetica,sans-Serif" font-size="10.00">get_processing_windows()</text>
<text text-anchor="start" x="1049" y="-924" font-family="Helvetica,sans-Serif" font-size="10.00">+</text>
<text text-anchor="start" x="1068" y="-924" font-family="Helvetica,sans-Serif" font-size="10.00">process()</text>
<text text-anchor="start" x="1049" y="-909" font-family="Helvetica,sans-Serif" font-size="10.00">+</text>
<text text-anchor="start" x="1068" y="-909" font-family="Helvetica,sans-Serif" font-size="10.00">WindowManagerHandle()</text>
<polygon fill="#666666" stroke="#666666" points="1039,-964 1039,-964 1214,-964 1214,-964 1039,-964"/>
<polygon fill="#666666" stroke="#666666" points="1039,-949 1039,-949 1066,-949 1066,-949 1039,-949"/>
<polygon fill="#666666" stroke="#666666" points="1066,-949 1066,-949 1214,-949 1214,-949 1066,-949"/>
<polygon fill="none" stroke="#666666" points="1038.5,-902 1038.5,-992 1213.5,-992 1213.5,-902 1038.5,-902"/>
</a>
</g>
</g>
<!-- Node10&#45;&gt;Node6 -->
<g id="edge9_Node000006_Node000010" class="edge">
<title>Node10&#45;&gt;Node6</title>
<g id="a_edge9_Node000006_Node000010"><a xlink:title=" ">
<path fill="none" stroke="#63b8ff" d="M1105.87,-901.76C1088.71,-867.17 1061.66,-819.21 1029,-784 975.41,-726.24 901.97,-675.5 844.46,-640.41"/>
<polygon fill="none" stroke="#63b8ff" points="844.19,-640.25 836.98,-640.57 833.92,-634.04 841.12,-633.72 844.19,-640.25"/>
</a>
</g>
<text text-anchor="middle" x="1037.5" y="-752.5" font-family="Helvetica,sans-Serif" font-size="10.00" fill="grey"> +windows</text>
</g>
<!-- Node11 -->
<g id="Node000011" class="node">
<title>Node11</title>
<g id="a_Node000011"><a xlink:href="classMayaFlux_1_1Core_1_1InputManagerHandle.html" target="_top" xlink:title=" ">
<polygon fill="white" stroke="transparent" points="1392.5,-1014.5 1231.5,-1014.5 1231.5,-879.5 1392.5,-879.5 1392.5,-1014.5"/>
<text text-anchor="start" x="1237" y="-1002" font-family="Helvetica,sans-Serif" font-size="10.00">MayaFlux::Core::InputManager</text>
<text text-anchor="start" x="1295" y="-991" font-family="Helvetica,sans-Serif" font-size="10.00">Handle</text>
<text text-anchor="start" x="1246" y="-976" font-family="Helvetica,sans-Serif" font-size="10.00">&#45;</text>
<text text-anchor="start" x="1264" y="-976" font-family="Helvetica,sans-Serif" font-size="10.00">m_input_manager</text>
<text text-anchor="start" x="1243.5" y="-961" font-family="Helvetica,sans-Serif" font-size="10.00">+</text>
<text text-anchor="start" x="1264" y="-961" font-family="Helvetica,sans-Serif" font-size="10.00">enqueue_input()</text>
<text text-anchor="start" x="1243.5" y="-946" font-family="Helvetica,sans-Serif" font-size="10.00">+</text>
<text text-anchor="start" x="1264" y="-946" font-family="Helvetica,sans-Serif" font-size="10.00">InputManagerHandle()</text>
<text text-anchor="start" x="1243.5" y="-931" font-family="Helvetica,sans-Serif" font-size="10.00">+</text>
<text text-anchor="start" x="1264" y="-931" font-family="Helvetica,sans-Serif" font-size="10.00">setup_osc_bridge()</text>
<text text-anchor="start" x="1243.5" y="-916" font-family="Helvetica,sans-Serif" font-size="10.00">+</text>
<text text-anchor="start" x="1264" y="-916" font-family="Helvetica,sans-Serif" font-size="10.00">start()</text>
<text text-anchor="start" x="1243.5" y="-901" font-family="Helvetica,sans-Serif" font-size="10.00">+</text>
<text text-anchor="start" x="1264" y="-901" font-family="Helvetica,sans-Serif" font-size="10.00">stop()</text>
<text text-anchor="start" x="1243.5" y="-886" font-family="Helvetica,sans-Serif" font-size="10.00">+</text>
<text text-anchor="start" x="1264" y="-886" font-family="Helvetica,sans-Serif" font-size="10.00">unregister()</text>
<polygon fill="#666666" stroke="#666666" points="1232,-986 1232,-986 1393,-986 1393,-986 1232,-986"/>
<polygon fill="#666666" stroke="#666666" points="1232,-971 1232,-971 1262,-971 1262,-971 1232,-971"/>
<polygon fill="#666666" stroke="#666666" points="1262,-971 1262,-971 1393,-971 1393,-971 1262,-971"/>
<polygon fill="none" stroke="#666666" points="1231.5,-879.5 1231.5,-1014.5 1392.5,-1014.5 1392.5,-879.5 1231.5,-879.5"/>
</a>
</g>
</g>
<!-- Node11&#45;&gt;Node6 -->
<g id="edge10_Node000006_Node000011" class="edge">
<title>Node11&#45;&gt;Node6</title>
<g id="a_edge10_Node000006_Node000011"><a xlink:title=" ">
<path fill="none" stroke="#63b8ff" d="M1287.62,-879.17C1273.04,-846.89 1251.69,-809.69 1223,-784 1115.66,-687.88 954.09,-635.4 851.36,-610.03"/>
<polygon fill="none" stroke="#63b8ff" points="851.11,-609.96 844.33,-612.44 839.44,-607.14 846.22,-604.66 851.11,-609.96"/>
</a>
</g>
<text text-anchor="middle" x="1213" y="-752.5" font-family="Helvetica,sans-Serif" font-size="10.00" fill="grey"> +inputs</text>
</g>
</g>
</svg>
