<?xml version="1.0" encoding="UTF-8" standalone="no"?>
<!DOCTYPE svg PUBLIC "-//W3C//DTD SVG 1.1//EN"
 "http://www.w3.org/Graphics/SVG/1.1/DTD/svg11.dtd">
<!-- Generated by graphviz version 2.43.0 (0)
 -->
<!-- Title: MayaFlux::Nodes::Network::PointCloudNetwork::reinitialize Pages: 1 -->
<svg width="879pt" height="86pt"
 viewBox="0.00 0.00 879.00 86.00" xmlns="http://www.w3.org/2000/svg" xmlns:xlink="http://www.w3.org/1999/xlink">
<g id="graph0" class="graph" transform="scale(1 1) rotate(0) translate(4 82)">
<title>MayaFlux::Nodes::Network::PointCloudNetwork::reinitialize</title>
<!-- Node1 -->
<g id="Node000001" class="node">
<title>Node1</title>
<g id="a_Node000001"><a xlink:title="Reinitialize point cloud with new parameters.">
<polygon fill="#999999" stroke="#666666" points="174,-54 0,-54 0,-24 174,-24 174,-54"/>
<text text-anchor="start" x="8" y="-42" font-family="Helvetica,sans-Serif" font-size="10.00">MayaFlux::Nodes::Network</text>
<text text-anchor="middle" x="87" y="-31" font-family="Helvetica,sans-Serif" font-size="10.00">::PointCloudNetwork::reinitialize</text>
</a>
</g>
</g>
<!-- Node2 -->
<g id="Node000002" class="node">
<title>Node2</title>
<g id="a_Node000002"><a xlink:href="classMayaFlux_1_1Nodes_1_1Network_1_1PointCloudNetwork_acc330c7695cd9d2d3e46e4acc38c0ee0.html#acc330c7695cd9d2d3e46e4acc38c0ee0" target="_top" xlink:title="Reset network to initial state.">
<polygon fill="white" stroke="#666666" points="359,-54 210,-54 210,-24 359,-24 359,-54"/>
<text text-anchor="start" x="218" y="-42" font-family="Helvetica,sans-Serif" font-size="10.00">MayaFlux::Nodes::Network</text>
<text text-anchor="middle" x="284.5" y="-31" font-family="Helvetica,sans-Serif" font-size="10.00">::PointCloudNetwork::reset</text>
</a>
</g>
</g>
<!-- Node1&#45;&gt;Node2 -->
<g id="edge1_Node000001_Node000002" class="edge">
<title>Node1&#45;&gt;Node2</title>
<g id="a_edge1_Node000001_Node000002"><a xlink:title=" ">
<path fill="none" stroke="#63b8ff" d="M174.03,-39C182.55,-39 191.2,-39 199.69,-39"/>
<polygon fill="#63b8ff" stroke="#63b8ff" points="199.97,-42.5 209.97,-39 199.97,-35.5 199.97,-42.5"/>
</a>
</g>
</g>
<!-- Node3 -->
<g id="Node000003" class="node">
<title>Node3</title>
<g id="a_Node000003"><a xlink:href="classMayaFlux_1_1Nodes_1_1Network_1_1PointCloudNetwork_a8c51a6028f5de39f80e605e1fa9066bf.html#a8c51a6028f5de39f80e605e1fa9066bf" target="_top" xlink:title=" ">
<polygon fill="white" stroke="#666666" points="561,-59.5 395,-59.5 395,-18.5 561,-18.5 561,-59.5"/>
<text text-anchor="start" x="403" y="-47.5" font-family="Helvetica,sans-Serif" font-size="10.00">MayaFlux::Nodes::Network</text>
<text text-anchor="start" x="403" y="-36.5" font-family="Helvetica,sans-Serif" font-size="10.00">::PointCloudNetwork::generate</text>
<text text-anchor="middle" x="478" y="-25.5" font-family="Helvetica,sans-Serif" font-size="10.00">_initial_positions</text>
</a>
</g>
</g>
<!-- Node2&#45;&gt;Node3 -->
<g id="edge2_Node000002_Node000003" class="edge">
<title>Node2&#45;&gt;Node3</title>
<g id="a_edge2_Node000002_Node000003"><a xlink:title=" ">
<path fill="none" stroke="#63b8ff" d="M359.26,-39C367.67,-39 376.32,-39 384.92,-39"/>
<polygon fill="#63b8ff" stroke="#63b8ff" points="384.99,-42.5 394.99,-39 384.99,-35.5 384.99,-42.5"/>
</a>
</g>
</g>
<!-- Node4 -->
<g id="Node000004" class="node">
<title>Node4</title>
<g id="a_Node000004"><a xlink:href="namespaceMayaFlux_1_1Kinesis_a19d772e5e14361691bb1f8f259e2b6e5.html#a19d772e5e14361691bb1f8f259e2b6e5" target="_top" xlink:title="Generate a batch of spatially distributed samples.">
<polygon fill="white" stroke="#666666" points="712.5,-78 600.5,-78 600.5,-48 712.5,-48 712.5,-78"/>
<text text-anchor="start" x="608.5" y="-66" font-family="Helvetica,sans-Serif" font-size="10.00">MayaFlux::Kinesis::</text>
<text text-anchor="middle" x="656.5" y="-55" font-family="Helvetica,sans-Serif" font-size="10.00">generate_samples</text>
</a>
</g>
</g>
<!-- Node3&#45;&gt;Node4 -->
<g id="edge3_Node000003_Node000004" class="edge">
<title>Node3&#45;&gt;Node4</title>
<g id="a_edge3_Node000003_Node000004"><a xlink:title=" ">
<path fill="none" stroke="#63b8ff" d="M561.05,-50.16C570.83,-51.49 580.72,-52.83 590.22,-54.12"/>
<polygon fill="#63b8ff" stroke="#63b8ff" points="589.98,-57.62 600.37,-55.5 590.93,-50.69 589.98,-57.62"/>
</a>
</g>
</g>
<!-- Node6 -->
<g id="Node000006" class="node">
<title>Node6</title>
<g id="a_Node000006"><a xlink:href="namespaceMayaFlux_1_1Kakshya_a7441ab81cd2158f91dfbf9d3e9c20bf9.html#a7441ab81cd2158f91dfbf9d3e9c20bf9" target="_top" xlink:title="Batch&#45;project raw Vertex vector to LineVertex.">
<polygon fill="white" stroke="#666666" points="716,-30 597,-30 597,0 716,0 716,-30"/>
<text text-anchor="start" x="605" y="-18" font-family="Helvetica,sans-Serif" font-size="10.00">MayaFlux::Kakshya::</text>
<text text-anchor="middle" x="656.5" y="-7" font-family="Helvetica,sans-Serif" font-size="10.00">to_line_vertices</text>
</a>
</g>
</g>
<!-- Node3&#45;&gt;Node6 -->
<g id="edge5_Node000003_Node000006" class="edge">
<title>Node3&#45;&gt;Node6</title>
<g id="a_edge5_Node000003_Node000006"><a xlink:title=" ">
<path fill="none" stroke="#63b8ff" d="M561.05,-27.84C569.63,-26.68 578.28,-25.5 586.69,-24.36"/>
<polygon fill="#63b8ff" stroke="#63b8ff" points="587.36,-27.8 596.8,-22.98 586.42,-20.86 587.36,-27.8"/>
</a>
</g>
</g>
<!-- Node5 -->
<g id="Node000005" class="node">
<title>Node5</title>
<g id="a_Node000005"><a xlink:href="namespaceMayaFlux_1_1Kinesis_a11764146779557d4e4b46d9214f8637d.html#a11764146779557d4e4b46d9214f8637d" target="_top" xlink:title="Generate a single sample at a specific index (for indexed/sequential modes).">
<polygon fill="white" stroke="#666666" points="869.5,-78 753.5,-78 753.5,-48 869.5,-48 869.5,-78"/>
<text text-anchor="start" x="761.5" y="-66" font-family="Helvetica,sans-Serif" font-size="10.00">MayaFlux::Kinesis::</text>
<text text-anchor="middle" x="811.5" y="-55" font-family="Helvetica,sans-Serif" font-size="10.00">generate_sample_at</text>
</a>
</g>
</g>
<!-- Node4&#45;&gt;Node5 -->
<g id="edge4_Node000004_Node000005" class="edge">
<title>Node4&#45;&gt;Node5</title>
<g id="a_edge4_Node000004_Node000005"><a xlink:title=" ">
<path fill="none" stroke="#63b8ff" d="M712.74,-63C722.62,-63 733.02,-63 743.2,-63"/>
<polygon fill="#63b8ff" stroke="#63b8ff" points="743.28,-66.5 753.28,-63 743.28,-59.5 743.28,-66.5"/>
</a>
</g>
</g>
<!-- Node7 -->
<g id="Node000007" class="node">
<title>Node7</title>
<g id="a_Node000007"><a xlink:href="namespaceMayaFlux_1_1Kakshya_a6e9ffdf831c97227ffa4e4aa0c99a515.html#a6e9ffdf831c97227ffa4e4aa0c99a515" target="_top" xlink:title="Project raw Vertex to LineVertex.">
<polygon fill="white" stroke="#666666" points="871,-30 752,-30 752,0 871,0 871,-30"/>
<text text-anchor="start" x="760" y="-18" font-family="Helvetica,sans-Serif" font-size="10.00">MayaFlux::Kakshya::</text>
<text text-anchor="middle" x="811.5" y="-7" font-family="Helvetica,sans-Serif" font-size="10.00">to_line_vertex</text>
</a>
</g>
</g>
<!-- Node6&#45;&gt;Node7 -->
<g id="edge6_Node000006_Node000007" class="edge">
<title>Node6&#45;&gt;Node7</title>
<g id="a_edge6_Node000006_Node000007"><a xlink:title=" ">
<path fill="none" stroke="#63b8ff" d="M716.22,-15C724.54,-15 733.17,-15 741.67,-15"/>
<polygon fill="#63b8ff" stroke="#63b8ff" points="741.94,-18.5 751.94,-15 741.94,-11.5 741.94,-18.5"/>
</a>
</g>
</g>
</g>
</svg>
