<?xml version="1.0" encoding="UTF-8" standalone="no"?>
<!DOCTYPE svg PUBLIC "-//W3C//DTD SVG 1.1//EN"
 "http://www.w3.org/Graphics/SVG/1.1/DTD/svg11.dtd">
<!-- Generated by graphviz version 2.43.0 (0)
 -->
<!-- Title: MayaFlux::Nodes::Generator::Generator Pages: 1 -->
<svg width="516pt" height="1155pt"
 viewBox="0.00 0.00 516.00 1155.00" xmlns="http://www.w3.org/2000/svg" xmlns:xlink="http://www.w3.org/1999/xlink">
<g id="graph0" class="graph" transform="scale(1 1) rotate(0) translate(4 1151)">
<title>MayaFlux::Nodes::Generator::Generator</title>
<!-- Node1 -->
<g id="Node000001" class="node">
<title>Node1</title>
<g id="a_Node000001"><a xlink:title="Base class for all signal and pattern generators in Maya Flux.">
<polygon fill="#999999" stroke="transparent" points="336.5,-240 186.5,-240 186.5,0 336.5,0 336.5,-240"/>
<text text-anchor="start" x="191.5" y="-228" font-family="Helvetica,sans-Serif" font-size="10.00">MayaFlux::Nodes::Generator</text>
<text text-anchor="start" x="234" y="-217" font-family="Helvetica,sans-Serif" font-size="10.00">::Generator</text>
<text text-anchor="start" x="193.5" y="-202" font-family="Helvetica,sans-Serif" font-size="10.00">#</text>
<text text-anchor="start" x="209.5" y="-202" font-family="Helvetica,sans-Serif" font-size="10.00">m_amplitude</text>
<text text-anchor="start" x="193.5" y="-187" font-family="Helvetica,sans-Serif" font-size="10.00">#</text>
<text text-anchor="start" x="209.5" y="-187" font-family="Helvetica,sans-Serif" font-size="10.00">m_frequency</text>
<text text-anchor="start" x="193.5" y="-172" font-family="Helvetica,sans-Serif" font-size="10.00">#</text>
<text text-anchor="start" x="209.5" y="-172" font-family="Helvetica,sans-Serif" font-size="10.00">m_phase</text>
<text text-anchor="start" x="193.5" y="-157" font-family="Helvetica,sans-Serif" font-size="10.00">+</text>
<text text-anchor="start" x="209.5" y="-157" font-family="Helvetica,sans-Serif" font-size="10.00">enable_mock_process()</text>
<text text-anchor="start" x="193.5" y="-142" font-family="Helvetica,sans-Serif" font-size="10.00">+</text>
<text text-anchor="start" x="209.5" y="-142" font-family="Helvetica,sans-Serif" font-size="10.00">get_amplitude()</text>
<text text-anchor="start" x="193.5" y="-127" font-family="Helvetica,sans-Serif" font-size="10.00">+</text>
<text text-anchor="start" x="209.5" y="-127" font-family="Helvetica,sans-Serif" font-size="10.00">get_last_context()</text>
<text text-anchor="start" x="193.5" y="-112" font-family="Helvetica,sans-Serif" font-size="10.00">+</text>
<text text-anchor="start" x="209.5" y="-112" font-family="Helvetica,sans-Serif" font-size="10.00">on_tick()</text>
<text text-anchor="start" x="193.5" y="-97" font-family="Helvetica,sans-Serif" font-size="10.00">+</text>
<text text-anchor="start" x="209.5" y="-97" font-family="Helvetica,sans-Serif" font-size="10.00">on_tick_if()</text>
<text text-anchor="start" x="193.5" y="-82" font-family="Helvetica,sans-Serif" font-size="10.00">+</text>
<text text-anchor="start" x="209.5" y="-82" font-family="Helvetica,sans-Serif" font-size="10.00">set_amplitude()</text>
<text text-anchor="start" x="193.5" y="-67" font-family="Helvetica,sans-Serif" font-size="10.00">+</text>
<text text-anchor="start" x="209.5" y="-67" font-family="Helvetica,sans-Serif" font-size="10.00">set_frequency()</text>
<text text-anchor="start" x="193.5" y="-52" font-family="Helvetica,sans-Serif" font-size="10.00">+</text>
<text text-anchor="start" x="209.5" y="-52" font-family="Helvetica,sans-Serif" font-size="10.00">should_mock_process()</text>
<text text-anchor="start" x="193.5" y="-37" font-family="Helvetica,sans-Serif" font-size="10.00">+</text>
<text text-anchor="start" x="209.5" y="-37" font-family="Helvetica,sans-Serif" font-size="10.00">update_context()</text>
<text text-anchor="start" x="193.5" y="-22" font-family="Helvetica,sans-Serif" font-size="10.00">+</text>
<text text-anchor="start" x="209.5" y="-22" font-family="Helvetica,sans-Serif" font-size="10.00">~Generator()</text>
<text text-anchor="start" x="193.5" y="-7" font-family="Helvetica,sans-Serif" font-size="10.00">#</text>
<text text-anchor="start" x="209.5" y="-7" font-family="Helvetica,sans-Serif" font-size="10.00">notify_tick()</text>
<polygon fill="#666666" stroke="#666666" points="186.5,-212 186.5,-212 336.5,-212 336.5,-212 186.5,-212"/>
<polygon fill="#666666" stroke="#666666" points="186.5,-167 186.5,-167 207.5,-167 207.5,-167 186.5,-167"/>
<polygon fill="#666666" stroke="#666666" points="207.5,-167 207.5,-167 336.5,-167 336.5,-167 207.5,-167"/>
<polygon fill="none" stroke="#666666" points="186.5,0 186.5,-240 336.5,-240 336.5,0 186.5,0"/>
</a>
</g>
</g>
<!-- Node2 -->
<g id="Node000002" class="node">
<title>Node2</title>
<g id="a_Node000002"><a xlink:href="classMayaFlux_1_1Nodes_1_1Node.html" target="_top" xlink:title="Base interface for all computational processing nodes.">
<polygon fill="white" stroke="transparent" points="164.5,-834 16.5,-834 16.5,-287 164.5,-287 164.5,-834"/>
<text text-anchor="start" x="32" y="-821.5" font-family="Helvetica,sans-Serif" font-size="10.00">MayaFlux::Nodes::Node</text>
<text text-anchor="start" x="20.5" y="-806.5" font-family="Helvetica,sans-Serif" font-size="10.00">+</text>
<text text-anchor="start" x="33.5" y="-806.5" font-family="Helvetica,sans-Serif" font-size="10.00">m_fire_events_during</text>
<text text-anchor="start" x="33.5" y="-795.5" font-family="Helvetica,sans-Serif" font-size="10.00">_snapshot</text>
<text text-anchor="start" x="20.5" y="-780.5" font-family="Helvetica,sans-Serif" font-size="10.00">+</text>
<text text-anchor="start" x="33.5" y="-780.5" font-family="Helvetica,sans-Serif" font-size="10.00">m_modulator_count</text>
<text text-anchor="start" x="20.5" y="-765.5" font-family="Helvetica,sans-Serif" font-size="10.00">+</text>
<text text-anchor="start" x="33.5" y="-765.5" font-family="Helvetica,sans-Serif" font-size="10.00">m_state</text>
<text text-anchor="start" x="20.5" y="-750.5" font-family="Helvetica,sans-Serif" font-size="10.00">#</text>
<text text-anchor="start" x="33.5" y="-750.5" font-family="Helvetica,sans-Serif" font-size="10.00">m_callbacks</text>
<text text-anchor="start" x="20.5" y="-735.5" font-family="Helvetica,sans-Serif" font-size="10.00">#</text>
<text text-anchor="start" x="33.5" y="-735.5" font-family="Helvetica,sans-Serif" font-size="10.00">m_conditional_callbacks</text>
<text text-anchor="start" x="20.5" y="-720.5" font-family="Helvetica,sans-Serif" font-size="10.00">#</text>
<text text-anchor="start" x="33.5" y="-720.5" font-family="Helvetica,sans-Serif" font-size="10.00">m_frame_rate</text>
<text text-anchor="start" x="20.5" y="-705.5" font-family="Helvetica,sans-Serif" font-size="10.00">#</text>
<text text-anchor="start" x="33.5" y="-705.5" font-family="Helvetica,sans-Serif" font-size="10.00">m_gpu_compatible</text>
<text text-anchor="start" x="20.5" y="-690.5" font-family="Helvetica,sans-Serif" font-size="10.00">#</text>
<text text-anchor="start" x="33.5" y="-690.5" font-family="Helvetica,sans-Serif" font-size="10.00">m_gpu_data_buffer</text>
<text text-anchor="start" x="20.5" y="-675.5" font-family="Helvetica,sans-Serif" font-size="10.00">#</text>
<text text-anchor="start" x="33.5" y="-675.5" font-family="Helvetica,sans-Serif" font-size="10.00">m_last_output</text>
<text text-anchor="start" x="20.5" y="-660.5" font-family="Helvetica,sans-Serif" font-size="10.00">#</text>
<text text-anchor="start" x="33.5" y="-660.5" font-family="Helvetica,sans-Serif" font-size="10.00">m_networked_node</text>
<text text-anchor="start" x="20.5" y="-645.5" font-family="Helvetica,sans-Serif" font-size="10.00">#</text>
<text text-anchor="start" x="33.5" y="-645.5" font-family="Helvetica,sans-Serif" font-size="10.00">m_node_capability</text>
<text text-anchor="start" x="20.5" y="-630.5" font-family="Helvetica,sans-Serif" font-size="10.00">#</text>
<text text-anchor="start" x="33.5" y="-630.5" font-family="Helvetica,sans-Serif" font-size="10.00">m_sample_rate</text>
<text text-anchor="start" x="20.5" y="-615.5" font-family="Helvetica,sans-Serif" font-size="10.00">#</text>
<text text-anchor="start" x="33.5" y="-615.5" font-family="Helvetica,sans-Serif" font-size="10.00">m_state_saved</text>
<text text-anchor="start" x="20.5" y="-600.5" font-family="Helvetica,sans-Serif" font-size="10.00">#</text>
<text text-anchor="start" x="33.5" y="-600.5" font-family="Helvetica,sans-Serif" font-size="10.00">m_timing_rate</text>
<text text-anchor="start" x="23" y="-585.5" font-family="Helvetica,sans-Serif" font-size="10.00">&#45;</text>
<text text-anchor="start" x="33.5" y="-585.5" font-family="Helvetica,sans-Serif" font-size="10.00">m_active_channels_mask</text>
<text text-anchor="start" x="23" y="-570.5" font-family="Helvetica,sans-Serif" font-size="10.00">&#45;</text>
<text text-anchor="start" x="33.5" y="-570.5" font-family="Helvetica,sans-Serif" font-size="10.00">m_buffer_count</text>
<text text-anchor="start" x="23" y="-555.5" font-family="Helvetica,sans-Serif" font-size="10.00">&#45;</text>
<text text-anchor="start" x="33.5" y="-555.5" font-family="Helvetica,sans-Serif" font-size="10.00">m_buffer_processed</text>
<text text-anchor="start" x="23" y="-540.5" font-family="Helvetica,sans-Serif" font-size="10.00">&#45;</text>
<text text-anchor="start" x="33.5" y="-540.5" font-family="Helvetica,sans-Serif" font-size="10.00">m_buffer_reset_count</text>
<text text-anchor="start" x="23" y="-525.5" font-family="Helvetica,sans-Serif" font-size="10.00">&#45;</text>
<text text-anchor="start" x="33.5" y="-525.5" font-family="Helvetica,sans-Serif" font-size="10.00">m_pending_reset_mask</text>
<text text-anchor="start" x="23" y="-510.5" font-family="Helvetica,sans-Serif" font-size="10.00">&#45;</text>
<text text-anchor="start" x="33.5" y="-510.5" font-family="Helvetica,sans-Serif" font-size="10.00">m_snapshot_context_id</text>
<text text-anchor="start" x="20.5" y="-495.5" font-family="Helvetica,sans-Serif" font-size="10.00">+</text>
<text text-anchor="start" x="33.5" y="-495.5" font-family="Helvetica,sans-Serif" font-size="10.00">add_buffer_reference()</text>
<text text-anchor="start" x="20.5" y="-480.5" font-family="Helvetica,sans-Serif" font-size="10.00">+</text>
<text text-anchor="start" x="33.5" y="-480.5" font-family="Helvetica,sans-Serif" font-size="10.00">get_active_snapshot</text>
<text text-anchor="start" x="33.5" y="-469.5" font-family="Helvetica,sans-Serif" font-size="10.00">_context()</text>
<text text-anchor="start" x="20.5" y="-454.5" font-family="Helvetica,sans-Serif" font-size="10.00">+</text>
<text text-anchor="start" x="33.5" y="-454.5" font-family="Helvetica,sans-Serif" font-size="10.00">get_channel_mask()</text>
<text text-anchor="start" x="20.5" y="-439.5" font-family="Helvetica,sans-Serif" font-size="10.00">+</text>
<text text-anchor="start" x="33.5" y="-439.5" font-family="Helvetica,sans-Serif" font-size="10.00">get_frame_rate()</text>
<text text-anchor="start" x="20.5" y="-424.5" font-family="Helvetica,sans-Serif" font-size="10.00">+</text>
<text text-anchor="start" x="33.5" y="-424.5" font-family="Helvetica,sans-Serif" font-size="10.00">get_gpu_data_buffer()</text>
<text text-anchor="start" x="20.5" y="-409.5" font-family="Helvetica,sans-Serif" font-size="10.00">+</text>
<text text-anchor="start" x="33.5" y="-409.5" font-family="Helvetica,sans-Serif" font-size="10.00">get_last_context()</text>
<text text-anchor="start" x="20.5" y="-394.5" font-family="Helvetica,sans-Serif" font-size="10.00">+</text>
<text text-anchor="start" x="33.5" y="-394.5" font-family="Helvetica,sans-Serif" font-size="10.00">get_last_output()</text>
<text text-anchor="start" x="20.5" y="-379.5" font-family="Helvetica,sans-Serif" font-size="10.00">+</text>
<text text-anchor="start" x="33.5" y="-379.5" font-family="Helvetica,sans-Serif" font-size="10.00">get_modulator_tree()</text>
<text text-anchor="start" x="20.5" y="-364.5" font-family="Helvetica,sans-Serif" font-size="10.00">+</text>
<text text-anchor="start" x="33.5" y="-364.5" font-family="Helvetica,sans-Serif" font-size="10.00">get_modulators()</text>
<text text-anchor="start" x="20.5" y="-349.5" font-family="Helvetica,sans-Serif" font-size="10.00">+</text>
<text text-anchor="start" x="33.5" y="-349.5" font-family="Helvetica,sans-Serif" font-size="10.00">get_routing_state()</text>
<text text-anchor="start" x="33.5" y="-334.5" font-family="Helvetica,sans-Serif" font-size="10.00">and 35 more...</text>
<text text-anchor="start" x="20.5" y="-319.5" font-family="Helvetica,sans-Serif" font-size="10.00">#</text>
<text text-anchor="start" x="33.5" y="-319.5" font-family="Helvetica,sans-Serif" font-size="10.00">notify_tick()</text>
<text text-anchor="start" x="20.5" y="-304.5" font-family="Helvetica,sans-Serif" font-size="10.00">#</text>
<text text-anchor="start" x="33.5" y="-304.5" font-family="Helvetica,sans-Serif" font-size="10.00">reset_processed_state</text>
<text text-anchor="start" x="33.5" y="-293.5" font-family="Helvetica,sans-Serif" font-size="10.00">_internal()</text>
<polygon fill="#666666" stroke="#666666" points="16.5,-816.5 16.5,-816.5 164.5,-816.5 164.5,-816.5 16.5,-816.5"/>
<polygon fill="#666666" stroke="#666666" points="16.5,-505.5 16.5,-505.5 31.5,-505.5 31.5,-505.5 16.5,-505.5"/>
<polygon fill="#666666" stroke="#666666" points="31.5,-505.5 31.5,-505.5 164.5,-505.5 164.5,-505.5 31.5,-505.5"/>
<polygon fill="none" stroke="#666666" points="16.5,-287 16.5,-834 164.5,-834 164.5,-287 16.5,-287"/>
</a>
</g>
</g>
<!-- Node2&#45;&gt;Node1 -->
<g id="edge1_Node000001_Node000002" class="edge">
<title>Node2&#45;&gt;Node1</title>
<g id="a_edge1_Node000001_Node000002"><a xlink:title=" ">
<path fill="none" stroke="#63b8ff" d="M168.19,-310.46C171.25,-302.52 174.35,-294.68 177.5,-287 183.8,-271.61 190.97,-255.69 198.4,-240.08"/>
<polygon fill="none" stroke="#63b8ff" points="164.91,-309.24 164.62,-319.83 171.45,-311.73 164.91,-309.24"/>
</a>
</g>
</g>
<!-- Node3 -->
<g id="Node000003" class="node">
<title>Node3</title>
<g id="a_Node000003"><a xlink:href="structMayaFlux_1_1Nodes_1_1RoutingState.html" target="_top" xlink:title="Represents the state of routing transitions for a node.">
<polygon fill="white" stroke="transparent" points="139,-1016 0,-1016 0,-881 139,-881 139,-1016"/>
<text text-anchor="start" x="5.5" y="-1003.5" font-family="Helvetica,sans-Serif" font-size="10.00">MayaFlux::Nodes::Routing</text>
<text text-anchor="start" x="57" y="-992.5" font-family="Helvetica,sans-Serif" font-size="10.00">State</text>
<text text-anchor="start" x="15" y="-977.5" font-family="Helvetica,sans-Serif" font-size="10.00">+</text>
<text text-anchor="start" x="38.5" y="-977.5" font-family="Helvetica,sans-Serif" font-size="10.00">amount</text>
<text text-anchor="start" x="15" y="-962.5" font-family="Helvetica,sans-Serif" font-size="10.00">+</text>
<text text-anchor="start" x="38.5" y="-962.5" font-family="Helvetica,sans-Serif" font-size="10.00">cycles_elapsed</text>
<text text-anchor="start" x="15" y="-947.5" font-family="Helvetica,sans-Serif" font-size="10.00">+</text>
<text text-anchor="start" x="38.5" y="-947.5" font-family="Helvetica,sans-Serif" font-size="10.00">fade_cycles</text>
<text text-anchor="start" x="15" y="-932.5" font-family="Helvetica,sans-Serif" font-size="10.00">+</text>
<text text-anchor="start" x="38.5" y="-932.5" font-family="Helvetica,sans-Serif" font-size="10.00">from_channels</text>
<text text-anchor="start" x="15" y="-917.5" font-family="Helvetica,sans-Serif" font-size="10.00">+</text>
<text text-anchor="start" x="38.5" y="-917.5" font-family="Helvetica,sans-Serif" font-size="10.00">NONE</text>
<text text-anchor="start" x="15" y="-902.5" font-family="Helvetica,sans-Serif" font-size="10.00">+</text>
<text text-anchor="start" x="38.5" y="-902.5" font-family="Helvetica,sans-Serif" font-size="10.00">to_channels</text>
<text text-anchor="start" x="68" y="-887.5" font-family="Helvetica,sans-Serif" font-size="10.00"> </text>
<polygon fill="#666666" stroke="#666666" points="0.5,-987.5 0.5,-987.5 139.5,-987.5 139.5,-987.5 0.5,-987.5"/>
<polygon fill="#666666" stroke="#666666" points="0.5,-897.5 0.5,-897.5 36.5,-897.5 36.5,-897.5 0.5,-897.5"/>
<polygon fill="#666666" stroke="#666666" points="36.5,-897.5 36.5,-897.5 139.5,-897.5 139.5,-897.5 36.5,-897.5"/>
<polygon fill="none" stroke="#666666" points="0,-881 0,-1016 139,-1016 139,-881 0,-881"/>
</a>
</g>
</g>
<!-- Node3&#45;&gt;Node2 -->
<g id="edge2_Node000002_Node000003" class="edge">
<title>Node3&#45;&gt;Node2</title>
<g id="a_edge2_Node000002_Node000003"><a xlink:title=" ">
<path fill="none" stroke="#63b8ff" d="M73.13,-880.7C73.71,-870.1 74.34,-858.6 75,-846.46"/>
<polygon fill="none" stroke="#63b8ff" points="75.02,-846.11 71.35,-839.9 75.67,-834.12 79.34,-840.33 75.02,-846.11"/>
</a>
</g>
<text text-anchor="middle" x="119" y="-855" font-family="Helvetica,sans-Serif" font-size="10.00" fill="grey"> &#45;m_routing_state</text>
</g>
<!-- Node4 -->
<g id="Node000004" class="node">
<title>Node4</title>
<g id="a_Node000004"><a xlink:href="classMayaFlux_1_1Nodes_1_1Generator_1_1GeneratorContext.html" target="_top" xlink:title="Specialized context for generator node callbacks.">
<polygon fill="white" stroke="transparent" points="500.5,-993.5 350.5,-993.5 350.5,-903.5 500.5,-903.5 500.5,-993.5"/>
<text text-anchor="start" x="355.5" y="-981.5" font-family="Helvetica,sans-Serif" font-size="10.00">MayaFlux::Nodes::Generator</text>
<text text-anchor="start" x="378.5" y="-970.5" font-family="Helvetica,sans-Serif" font-size="10.00">::GeneratorContext</text>
<text text-anchor="start" x="363" y="-955.5" font-family="Helvetica,sans-Serif" font-size="10.00">+</text>
<text text-anchor="start" x="384.5" y="-955.5" font-family="Helvetica,sans-Serif" font-size="10.00">amplitude</text>
<text text-anchor="start" x="363" y="-940.5" font-family="Helvetica,sans-Serif" font-size="10.00">+</text>
<text text-anchor="start" x="384.5" y="-940.5" font-family="Helvetica,sans-Serif" font-size="10.00">frequency</text>
<text text-anchor="start" x="363" y="-925.5" font-family="Helvetica,sans-Serif" font-size="10.00">+</text>
<text text-anchor="start" x="384.5" y="-925.5" font-family="Helvetica,sans-Serif" font-size="10.00">phase</text>
<text text-anchor="start" x="363" y="-910.5" font-family="Helvetica,sans-Serif" font-size="10.00">+</text>
<text text-anchor="start" x="384.5" y="-910.5" font-family="Helvetica,sans-Serif" font-size="10.00">GeneratorContext()</text>
<polygon fill="#666666" stroke="#666666" points="350.5,-965.5 350.5,-965.5 500.5,-965.5 500.5,-965.5 350.5,-965.5"/>
<polygon fill="#666666" stroke="#666666" points="350.5,-920.5 350.5,-920.5 382.5,-920.5 382.5,-920.5 350.5,-920.5"/>
<polygon fill="#666666" stroke="#666666" points="382.5,-920.5 382.5,-920.5 500.5,-920.5 500.5,-920.5 382.5,-920.5"/>
<polygon fill="none" stroke="#666666" points="350.5,-903.5 350.5,-993.5 500.5,-993.5 500.5,-903.5 350.5,-903.5"/>
</a>
</g>
</g>
<!-- Node4&#45;&gt;Node1 -->
<g id="edge3_Node000001_Node000004" class="edge">
<title>Node4&#45;&gt;Node1</title>
<g id="a_edge3_Node000001_Node000004"><a xlink:title=" ">
<path fill="none" stroke="#63b8ff" d="M427.96,-903.13C432.66,-791.16 435.96,-489.58 352.5,-258 349.57,-249.87 346.06,-241.76 342.16,-233.76"/>
<polygon fill="none" stroke="#63b8ff" points="342.08,-233.61 335.78,-230.1 336.6,-222.93 342.9,-226.44 342.08,-233.61"/>
</a>
</g>
<text text-anchor="middle" x="461.5" y="-558" font-family="Helvetica,sans-Serif" font-size="10.00" fill="grey"> #m_context</text>
</g>
<!-- Node6 -->
<g id="Node000006" class="node">
<title>Node6</title>
<g id="a_Node000006"><a xlink:href="classMayaFlux_1_1Nodes_1_1Generator_1_1GeneratorContextGpu.html" target="_top" xlink:title=" ">
<polygon fill="white" stroke="transparent" points="336.5,-590.5 186.5,-590.5 186.5,-530.5 336.5,-530.5 336.5,-590.5"/>
<text text-anchor="start" x="191.5" y="-578.5" font-family="Helvetica,sans-Serif" font-size="10.00">MayaFlux::Nodes::Generator</text>
<text text-anchor="start" x="205" y="-567.5" font-family="Helvetica,sans-Serif" font-size="10.00">::GeneratorContextGpu</text>
<text text-anchor="start" x="259.5" y="-552.5" font-family="Helvetica,sans-Serif" font-size="10.00"> </text>
<text text-anchor="start" x="194" y="-537.5" font-family="Helvetica,sans-Serif" font-size="10.00">+</text>
<text text-anchor="start" x="210.5" y="-537.5" font-family="Helvetica,sans-Serif" font-size="10.00">GeneratorContextGpu()</text>
<polygon fill="#666666" stroke="#666666" points="186.5,-562.5 186.5,-562.5 336.5,-562.5 336.5,-562.5 186.5,-562.5"/>
<polygon fill="#666666" stroke="#666666" points="186.5,-547.5 186.5,-547.5 336.5,-547.5 336.5,-547.5 186.5,-547.5"/>
<polygon fill="none" stroke="#666666" points="186.5,-530.5 186.5,-590.5 336.5,-590.5 336.5,-530.5 186.5,-530.5"/>
</a>
</g>
</g>
<!-- Node4&#45;&gt;Node6 -->
<g id="edge6_Node000006_Node000004" class="edge">
<title>Node4&#45;&gt;Node6</title>
<g id="a_edge6_Node000006_Node000004"><a xlink:title=" ">
<path fill="none" stroke="#63b8ff" d="M402.77,-893.99C367.61,-811.24 301.24,-655.04 273.83,-590.52"/>
<polygon fill="none" stroke="#63b8ff" points="399.56,-895.39 406.69,-903.22 406,-892.65 399.56,-895.39"/>
</a>
</g>
</g>
<!-- Node5 -->
<g id="Node000005" class="node">
<title>Node5</title>
<g id="a_Node000005"><a xlink:href="classMayaFlux_1_1Nodes_1_1NodeContext.html" target="_top" xlink:title="Base context class for node callbacks.">
<polygon fill="white" stroke="transparent" points="508,-1147 343,-1147 343,-1053 508,-1053 508,-1147"/>
<text text-anchor="start" x="348.5" y="-1135" font-family="Helvetica,sans-Serif" font-size="10.00">MayaFlux::Nodes::NodeContext</text>
<text text-anchor="start" x="363.5" y="-1120" font-family="Helvetica,sans-Serif" font-size="10.00">+</text>
<text text-anchor="start" x="392.5" y="-1120" font-family="Helvetica,sans-Serif" font-size="10.00">value</text>
<text text-anchor="start" x="363.5" y="-1105" font-family="Helvetica,sans-Serif" font-size="10.00">+</text>
<text text-anchor="start" x="392.5" y="-1105" font-family="Helvetica,sans-Serif" font-size="10.00">as()</text>
<text text-anchor="start" x="363.5" y="-1090" font-family="Helvetica,sans-Serif" font-size="10.00">+</text>
<text text-anchor="start" x="392.5" y="-1090" font-family="Helvetica,sans-Serif" font-size="10.00">as()</text>
<text text-anchor="start" x="363.5" y="-1075" font-family="Helvetica,sans-Serif" font-size="10.00">+</text>
<text text-anchor="start" x="392.5" y="-1075" font-family="Helvetica,sans-Serif" font-size="10.00">~NodeContext()</text>
<text text-anchor="start" x="363.5" y="-1060" font-family="Helvetica,sans-Serif" font-size="10.00">#</text>
<text text-anchor="start" x="392.5" y="-1060" font-family="Helvetica,sans-Serif" font-size="10.00">NodeContext()</text>
<polygon fill="#666666" stroke="#666666" points="343.5,-1130 343.5,-1130 508.5,-1130 508.5,-1130 343.5,-1130"/>
<polygon fill="#666666" stroke="#666666" points="343.5,-1115 343.5,-1115 390.5,-1115 390.5,-1115 343.5,-1115"/>
<polygon fill="#666666" stroke="#666666" points="390.5,-1115 390.5,-1115 508.5,-1115 508.5,-1115 390.5,-1115"/>
<polygon fill="none" stroke="#666666" points="343,-1053 343,-1147 508,-1147 508,-1053 343,-1053"/>
</a>
</g>
</g>
<!-- Node5&#45;&gt;Node4 -->
<g id="edge4_Node000004_Node000005" class="edge">
<title>Node5&#45;&gt;Node4</title>
<g id="a_edge4_Node000004_Node000005"><a xlink:title=" ">
<path fill="none" stroke="#63b8ff" d="M425.5,-1042.51C425.5,-1026.33 425.5,-1008.95 425.5,-993.63"/>
<polygon fill="none" stroke="#63b8ff" points="422,-1042.93 425.5,-1052.93 429,-1042.93 422,-1042.93"/>
</a>
</g>
</g>
<!-- Node6&#45;&gt;Node1 -->
<g id="edge5_Node000001_Node000006" class="edge">
<title>Node6&#45;&gt;Node1</title>
<g id="a_edge5_Node000001_Node000006"><a xlink:title=" ">
<path fill="none" stroke="#63b8ff" d="M261.5,-530.39C261.5,-474.57 261.5,-349.38 261.5,-252.04"/>
<polygon fill="none" stroke="#63b8ff" points="261.5,-252.01 257.5,-246.01 261.5,-240.01 265.5,-246.01 261.5,-252.01"/>
</a>
</g>
<text text-anchor="middle" x="305" y="-261" font-family="Helvetica,sans-Serif" font-size="10.00" fill="grey"> #m_context_gpu</text>
</g>
<!-- Node7 -->
<g id="Node000007" class="node">
<title>Node7</title>
<g id="a_Node000007"><a xlink:href="classMayaFlux_1_1Nodes_1_1GpuVectorData.html" target="_top" xlink:title="GPU&#45;uploadable 1D array data interface.">
<polygon fill="white" stroke="transparent" points="332,-1003 157,-1003 157,-894 332,-894 332,-1003"/>
<text text-anchor="start" x="162.5" y="-990.5" font-family="Helvetica,sans-Serif" font-size="10.00">MayaFlux::Nodes::GpuVectorData</text>
<text text-anchor="start" x="179.5" y="-975.5" font-family="Helvetica,sans-Serif" font-size="10.00">#</text>
<text text-anchor="start" x="210.5" y="-975.5" font-family="Helvetica,sans-Serif" font-size="10.00">m_gpu_data</text>
<text text-anchor="start" x="179.5" y="-960.5" font-family="Helvetica,sans-Serif" font-size="10.00">+</text>
<text text-anchor="start" x="210.5" y="-960.5" font-family="Helvetica,sans-Serif" font-size="10.00">gpu_data()</text>
<text text-anchor="start" x="179.5" y="-945.5" font-family="Helvetica,sans-Serif" font-size="10.00">+</text>
<text text-anchor="start" x="210.5" y="-945.5" font-family="Helvetica,sans-Serif" font-size="10.00">gpu_data_size()</text>
<text text-anchor="start" x="179.5" y="-930.5" font-family="Helvetica,sans-Serif" font-size="10.00">+</text>
<text text-anchor="start" x="210.5" y="-930.5" font-family="Helvetica,sans-Serif" font-size="10.00">GpuVectorData()</text>
<text text-anchor="start" x="179.5" y="-915.5" font-family="Helvetica,sans-Serif" font-size="10.00">+</text>
<text text-anchor="start" x="210.5" y="-915.5" font-family="Helvetica,sans-Serif" font-size="10.00">GpuVectorData()</text>
<text text-anchor="start" x="179.5" y="-900.5" font-family="Helvetica,sans-Serif" font-size="10.00">+</text>
<text text-anchor="start" x="210.5" y="-900.5" font-family="Helvetica,sans-Serif" font-size="10.00">has_gpu_data()</text>
<polygon fill="#666666" stroke="#666666" points="157.5,-985.5 157.5,-985.5 332.5,-985.5 332.5,-985.5 157.5,-985.5"/>
<polygon fill="#666666" stroke="#666666" points="157.5,-970.5 157.5,-970.5 208.5,-970.5 208.5,-970.5 157.5,-970.5"/>
<polygon fill="#666666" stroke="#666666" points="208.5,-970.5 208.5,-970.5 332.5,-970.5 332.5,-970.5 208.5,-970.5"/>
<polygon fill="none" stroke="#666666" points="157,-894 157,-1003 332,-1003 332,-894 157,-894"/>
</a>
</g>
</g>
<!-- Node7&#45;&gt;Node6 -->
<g id="edge7_Node000006_Node000007" class="edge">
<title>Node7&#45;&gt;Node6</title>
<g id="a_edge7_Node000006_Node000007"><a xlink:title=" ">
<path fill="none" stroke="#63b8ff" d="M247.3,-883.82C251.03,-799.15 257.47,-652.99 260.21,-590.84"/>
<polygon fill="none" stroke="#63b8ff" points="243.81,-883.68 246.86,-893.83 250.8,-883.99 243.81,-883.68"/>
</a>
</g>
</g>
</g>
</svg>
