<?xml version="1.0" encoding="UTF-8" standalone="no"?>
<!DOCTYPE svg PUBLIC "-//W3C//DTD SVG 1.1//EN"
 "http://www.w3.org/Graphics/SVG/1.1/DTD/svg11.dtd">
<!-- Generated by graphviz version 2.43.0 (0)
 -->
<!-- Title: MayaFlux::IO::VideoStreamContext::open_device Pages: 1 -->
<svg width="356pt" height="230pt"
 viewBox="0.00 0.00 356.00 230.00" xmlns="http://www.w3.org/2000/svg" xmlns:xlink="http://www.w3.org/1999/xlink">
<g id="graph0" class="graph" transform="scale(1 1) rotate(0) translate(4 226)">
<title>MayaFlux::IO::VideoStreamContext::open_device</title>
<!-- Node1 -->
<g id="Node000001" class="node">
<title>Node1</title>
<g id="a_Node000001"><a xlink:title="Open codec only, without initialising the SwsContext scaler.">
<polygon fill="#999999" stroke="#666666" points="150,-126 0,-126 0,-96 150,-96 150,-126"/>
<text text-anchor="start" x="8" y="-114" font-family="Helvetica,sans-Serif" font-size="10.00">MayaFlux::IO::VideoStream</text>
<text text-anchor="middle" x="75" y="-103" font-family="Helvetica,sans-Serif" font-size="10.00">Context::open_device</text>
</a>
</g>
</g>
<!-- Node2 -->
<g id="Node000002" class="node">
<title>Node2</title>
<g id="a_Node000002"><a xlink:href="classMayaFlux_1_1IO_1_1VideoStreamContext_a14482964c2c81868651a36fe90a69320.html#a14482964c2c81868651a36fe90a69320" target="_top" xlink:title="Release codec and scaler resources.">
<polygon fill="white" stroke="#666666" points="342,-222 192,-222 192,-192 342,-192 342,-222"/>
<text text-anchor="start" x="200" y="-210" font-family="Helvetica,sans-Serif" font-size="10.00">MayaFlux::IO::VideoStream</text>
<text text-anchor="middle" x="267" y="-199" font-family="Helvetica,sans-Serif" font-size="10.00">Context::close</text>
</a>
</g>
</g>
<!-- Node1&#45;&gt;Node2 -->
<g id="edge1_Node000001_Node000002" class="edge">
<title>Node1&#45;&gt;Node2</title>
<g id="a_edge1_Node000001_Node000002"><a xlink:title=" ">
<path fill="none" stroke="#63b8ff" d="M95.26,-126.09C116.46,-142.1 152.06,-167.21 186,-183 190.1,-184.91 194.4,-186.71 198.77,-188.4"/>
<polygon fill="#63b8ff" stroke="#63b8ff" points="197.84,-191.79 208.44,-191.92 200.24,-185.21 197.84,-191.79"/>
</a>
</g>
</g>
<!-- Node3 -->
<g id="Node000003" class="node">
<title>Node3</title>
<g id="a_Node000003"><a xlink:href="classMayaFlux_1_1IO_1_1FFmpegDemuxContext_abb390b1cd463e5df1e2a21f735bbeddb.html#abb390b1cd463e5df1e2a21f735bbeddb" target="_top" xlink:title="Find the best stream of the requested media type.">
<polygon fill="white" stroke="#666666" points="348,-174 186,-174 186,-144 348,-144 348,-174"/>
<text text-anchor="start" x="194" y="-162" font-family="Helvetica,sans-Serif" font-size="10.00">MayaFlux::IO::FFmpegDemux</text>
<text text-anchor="middle" x="267" y="-151" font-family="Helvetica,sans-Serif" font-size="10.00">Context::find_best_stream</text>
</a>
</g>
</g>
<!-- Node1&#45;&gt;Node3 -->
<g id="edge2_Node000001_Node000003" class="edge">
<title>Node1&#45;&gt;Node3</title>
<g id="a_edge2_Node000001_Node000003"><a xlink:title=" ">
<path fill="none" stroke="#63b8ff" d="M135.6,-126.06C155.05,-130.97 176.81,-136.47 196.9,-141.54"/>
<polygon fill="#63b8ff" stroke="#63b8ff" points="196.06,-144.94 206.62,-144 197.78,-138.15 196.06,-144.94"/>
</a>
</g>
</g>
<!-- Node4 -->
<g id="Node000004" class="node">
<title>Node4</title>
<g id="a_Node000004"><a xlink:href="classMayaFlux_1_1IO_1_1FFmpegDemuxContext_acb3638800c71f90df7d5da4094c34e77.html#acb3638800c71f90df7d5da4094c34e77" target="_top" xlink:title="Access a stream by index.">
<polygon fill="white" stroke="#666666" points="348,-126 186,-126 186,-96 348,-96 348,-126"/>
<text text-anchor="start" x="194" y="-114" font-family="Helvetica,sans-Serif" font-size="10.00">MayaFlux::IO::FFmpegDemux</text>
<text text-anchor="middle" x="267" y="-103" font-family="Helvetica,sans-Serif" font-size="10.00">Context::get_stream</text>
</a>
</g>
</g>
<!-- Node1&#45;&gt;Node4 -->
<g id="edge3_Node000001_Node000004" class="edge">
<title>Node1&#45;&gt;Node4</title>
<g id="a_edge3_Node000001_Node000004"><a xlink:title=" ">
<path fill="none" stroke="#63b8ff" d="M150,-111C158.47,-111 167.16,-111 175.81,-111"/>
<polygon fill="#63b8ff" stroke="#63b8ff" points="175.91,-114.5 185.91,-111 175.91,-107.5 175.91,-114.5"/>
</a>
</g>
</g>
<!-- Node5 -->
<g id="Node000005" class="node">
<title>Node5</title>
<g id="a_Node000005"><a xlink:href="classMayaFlux_1_1IO_1_1FFmpegDemuxContext_a8ea9c7c404909356ac05d7aa28270c3e.html#a8ea9c7c404909356ac05d7aa28270c3e" target="_top" xlink:title="Initialise FFmpeg logging level once per process.">
<polygon fill="white" stroke="#666666" points="348,-78 186,-78 186,-48 348,-48 348,-78"/>
<text text-anchor="start" x="194" y="-66" font-family="Helvetica,sans-Serif" font-size="10.00">MayaFlux::IO::FFmpegDemux</text>
<text text-anchor="middle" x="267" y="-55" font-family="Helvetica,sans-Serif" font-size="10.00">Context::init_ffmpeg</text>
</a>
</g>
</g>
<!-- Node1&#45;&gt;Node5 -->
<g id="edge4_Node000001_Node000005" class="edge">
<title>Node1&#45;&gt;Node5</title>
<g id="a_edge4_Node000001_Node000005"><a xlink:title=" ">
<path fill="none" stroke="#63b8ff" d="M135.6,-95.94C155.05,-91.03 176.81,-85.53 196.9,-80.46"/>
<polygon fill="#63b8ff" stroke="#63b8ff" points="197.78,-83.85 206.62,-78 196.06,-77.06 197.78,-83.85"/>
</a>
</g>
</g>
<!-- Node6 -->
<g id="Node000006" class="node">
<title>Node6</title>
<g id="a_Node000006"><a xlink:href="classMayaFlux_1_1IO_1_1FFmpegDemuxContext_afdbf5c19097333ea191544b545f000a7.html#afdbf5c19097333ea191544b545f000a7" target="_top" xlink:title="True if the format context is open and stream info was found.">
<polygon fill="white" stroke="#666666" points="348,-30 186,-30 186,0 348,0 348,-30"/>
<text text-anchor="start" x="194" y="-18" font-family="Helvetica,sans-Serif" font-size="10.00">MayaFlux::IO::FFmpegDemux</text>
<text text-anchor="middle" x="267" y="-7" font-family="Helvetica,sans-Serif" font-size="10.00">Context::is_open</text>
</a>
</g>
</g>
<!-- Node1&#45;&gt;Node6 -->
<g id="edge5_Node000001_Node000006" class="edge">
<title>Node1&#45;&gt;Node6</title>
<g id="a_edge5_Node000001_Node000006"><a xlink:title=" ">
<path fill="none" stroke="#63b8ff" d="M95.26,-95.91C116.46,-79.9 152.06,-54.79 186,-39 190.1,-37.09 194.4,-35.29 198.77,-33.6"/>
<polygon fill="#63b8ff" stroke="#63b8ff" points="200.24,-36.79 208.44,-30.08 197.84,-30.21 200.24,-36.79"/>
</a>
</g>
</g>
</g>
</svg>
