<?xml version="1.0" encoding="UTF-8" standalone="no"?>
<!DOCTYPE svg PUBLIC "-//W3C//DTD SVG 1.1//EN"
 "http://www.w3.org/Graphics/SVG/1.1/DTD/svg11.dtd">
<!-- Generated by graphviz version 2.43.0 (0)
 -->
<!-- Title: MayaFlux::Nodes::Network::InstanceNetwork Pages: 1 -->
<svg width="169pt" height="1007pt"
 viewBox="0.00 0.00 169.00 1007.00" xmlns="http://www.w3.org/2000/svg" xmlns:xlink="http://www.w3.org/1999/xlink">
<g id="graph0" class="graph" transform="scale(1 1) rotate(0) translate(4 1003)">
<title>MayaFlux::Nodes::Network::InstanceNetwork</title>
<!-- Node1 -->
<g id="Node000001" class="node">
<title>Node1</title>
<g id="a_Node000001"><a xlink:title="NodeNetwork whose slots are flat, peer GeometrySlots for instanced rendering.">
<polygon fill="#999999" stroke="transparent" points="145.5,-225 2.5,-225 2.5,0 145.5,0 145.5,-225"/>
<text text-anchor="start" x="8" y="-212.5" font-family="Helvetica,sans-Serif" font-size="10.00">MayaFlux::Nodes::Network</text>
<text text-anchor="start" x="30" y="-201.5" font-family="Helvetica,sans-Serif" font-size="10.00">::InstanceNetwork</text>
<text text-anchor="start" x="17.5" y="-186.5" font-family="Helvetica,sans-Serif" font-size="10.00">&#45;</text>
<text text-anchor="start" x="36" y="-186.5" font-family="Helvetica,sans-Serif" font-size="10.00">m_operator</text>
<text text-anchor="start" x="17.5" y="-171.5" font-family="Helvetica,sans-Serif" font-size="10.00">&#45;</text>
<text text-anchor="start" x="36" y="-171.5" font-family="Helvetica,sans-Serif" font-size="10.00">m_slots</text>
<text text-anchor="start" x="15" y="-156.5" font-family="Helvetica,sans-Serif" font-size="10.00">+</text>
<text text-anchor="start" x="36" y="-156.5" font-family="Helvetica,sans-Serif" font-size="10.00">add_slot()</text>
<text text-anchor="start" x="15" y="-141.5" font-family="Helvetica,sans-Serif" font-size="10.00">+</text>
<text text-anchor="start" x="36" y="-141.5" font-family="Helvetica,sans-Serif" font-size="10.00">create_operator()</text>
<text text-anchor="start" x="15" y="-126.5" font-family="Helvetica,sans-Serif" font-size="10.00">+</text>
<text text-anchor="start" x="36" y="-126.5" font-family="Helvetica,sans-Serif" font-size="10.00">find_slot()</text>
<text text-anchor="start" x="15" y="-111.5" font-family="Helvetica,sans-Serif" font-size="10.00">+</text>
<text text-anchor="start" x="36" y="-111.5" font-family="Helvetica,sans-Serif" font-size="10.00">find_slot()</text>
<text text-anchor="start" x="15" y="-96.5" font-family="Helvetica,sans-Serif" font-size="10.00">+</text>
<text text-anchor="start" x="36" y="-96.5" font-family="Helvetica,sans-Serif" font-size="10.00">get_metadata()</text>
<text text-anchor="start" x="15" y="-81.5" font-family="Helvetica,sans-Serif" font-size="10.00">+</text>
<text text-anchor="start" x="36" y="-81.5" font-family="Helvetica,sans-Serif" font-size="10.00">get_node_count()</text>
<text text-anchor="start" x="15" y="-66.5" font-family="Helvetica,sans-Serif" font-size="10.00">+</text>
<text text-anchor="start" x="36" y="-66.5" font-family="Helvetica,sans-Serif" font-size="10.00">get_node_output()</text>
<text text-anchor="start" x="15" y="-51.5" font-family="Helvetica,sans-Serif" font-size="10.00">+</text>
<text text-anchor="start" x="36" y="-51.5" font-family="Helvetica,sans-Serif" font-size="10.00">get_operator()</text>
<text text-anchor="start" x="15" y="-36.5" font-family="Helvetica,sans-Serif" font-size="10.00">+</text>
<text text-anchor="start" x="36" y="-36.5" font-family="Helvetica,sans-Serif" font-size="10.00">get_operator()</text>
<text text-anchor="start" x="15" y="-21.5" font-family="Helvetica,sans-Serif" font-size="10.00">+</text>
<text text-anchor="start" x="36" y="-21.5" font-family="Helvetica,sans-Serif" font-size="10.00">get_slot()</text>
<text text-anchor="start" x="36" y="-6.5" font-family="Helvetica,sans-Serif" font-size="10.00">and 10 more...</text>
<polygon fill="#666666" stroke="#666666" points="3,-196.5 3,-196.5 146,-196.5 146,-196.5 3,-196.5"/>
<polygon fill="#666666" stroke="#666666" points="3,-166.5 3,-166.5 34,-166.5 34,-166.5 3,-166.5"/>
<polygon fill="#666666" stroke="#666666" points="34,-166.5 34,-166.5 146,-166.5 146,-166.5 34,-166.5"/>
<polygon fill="none" stroke="#666666" points="2.5,0 2.5,-225 145.5,-225 145.5,0 2.5,0"/>
</a>
</g>
</g>
<!-- Node2 -->
<g id="Node000002" class="node">
<title>Node2</title>
<g id="a_Node000002"><a xlink:href="classMayaFlux_1_1Nodes_1_1Network_1_1NodeNetwork.html" target="_top" xlink:title="Abstract base class for structured collections of nodes with defined relationships.">
<polygon fill="white" stroke="transparent" points="148,-817 0,-817 0,-262 148,-262 148,-817"/>
<text text-anchor="start" x="7.5" y="-804.5" font-family="Helvetica,sans-Serif" font-size="10.00">MayaFlux::Nodes::Network</text>
<text text-anchor="start" x="37.5" y="-793.5" font-family="Helvetica,sans-Serif" font-size="10.00">::NodeNetwork</text>
<text text-anchor="start" x="4" y="-778.5" font-family="Helvetica,sans-Serif" font-size="10.00">#</text>
<text text-anchor="start" x="17" y="-778.5" font-family="Helvetica,sans-Serif" font-size="10.00">m_audio_buffer_lock</text>
<text text-anchor="start" x="4" y="-763.5" font-family="Helvetica,sans-Serif" font-size="10.00">#</text>
<text text-anchor="start" x="17" y="-763.5" font-family="Helvetica,sans-Serif" font-size="10.00">m_block_size</text>
<text text-anchor="start" x="4" y="-748.5" font-family="Helvetica,sans-Serif" font-size="10.00">#</text>
<text text-anchor="start" x="17" y="-748.5" font-family="Helvetica,sans-Serif" font-size="10.00">m_channel_mask</text>
<text text-anchor="start" x="4" y="-733.5" font-family="Helvetica,sans-Serif" font-size="10.00">#</text>
<text text-anchor="start" x="17" y="-733.5" font-family="Helvetica,sans-Serif" font-size="10.00">m_enabled</text>
<text text-anchor="start" x="4" y="-718.5" font-family="Helvetica,sans-Serif" font-size="10.00">#</text>
<text text-anchor="start" x="17" y="-718.5" font-family="Helvetica,sans-Serif" font-size="10.00">m_initialized</text>
<text text-anchor="start" x="4" y="-703.5" font-family="Helvetica,sans-Serif" font-size="10.00">#</text>
<text text-anchor="start" x="17" y="-703.5" font-family="Helvetica,sans-Serif" font-size="10.00">m_last_audio_buffer</text>
<text text-anchor="start" x="4" y="-688.5" font-family="Helvetica,sans-Serif" font-size="10.00">#</text>
<text text-anchor="start" x="17" y="-688.5" font-family="Helvetica,sans-Serif" font-size="10.00">m_operator_chain</text>
<text text-anchor="start" x="4" y="-673.5" font-family="Helvetica,sans-Serif" font-size="10.00">#</text>
<text text-anchor="start" x="17" y="-673.5" font-family="Helvetica,sans-Serif" font-size="10.00">m_output_mode</text>
<text text-anchor="start" x="4" y="-658.5" font-family="Helvetica,sans-Serif" font-size="10.00">#</text>
<text text-anchor="start" x="17" y="-658.5" font-family="Helvetica,sans-Serif" font-size="10.00">m_output_scale</text>
<text text-anchor="start" x="4" y="-643.5" font-family="Helvetica,sans-Serif" font-size="10.00">#</text>
<text text-anchor="start" x="17" y="-643.5" font-family="Helvetica,sans-Serif" font-size="10.00">m_parameter_mappings</text>
<text text-anchor="start" x="4" y="-628.5" font-family="Helvetica,sans-Serif" font-size="10.00">#</text>
<text text-anchor="start" x="17" y="-628.5" font-family="Helvetica,sans-Serif" font-size="10.00">m_pending_reset_mask</text>
<text text-anchor="start" x="4" y="-613.5" font-family="Helvetica,sans-Serif" font-size="10.00">#</text>
<text text-anchor="start" x="17" y="-613.5" font-family="Helvetica,sans-Serif" font-size="10.00">m_processed_this_cycle</text>
<text text-anchor="start" x="4" y="-598.5" font-family="Helvetica,sans-Serif" font-size="10.00">#</text>
<text text-anchor="start" x="17" y="-598.5" font-family="Helvetica,sans-Serif" font-size="10.00">m_processing_state</text>
<text text-anchor="start" x="4" y="-583.5" font-family="Helvetica,sans-Serif" font-size="10.00">#</text>
<text text-anchor="start" x="17" y="-583.5" font-family="Helvetica,sans-Serif" font-size="10.00">m_sample_rate</text>
<text text-anchor="start" x="4" y="-568.5" font-family="Helvetica,sans-Serif" font-size="10.00">#</text>
<text text-anchor="start" x="17" y="-568.5" font-family="Helvetica,sans-Serif" font-size="10.00">m_topology</text>
<text text-anchor="start" x="4" y="-553.5" font-family="Helvetica,sans-Serif" font-size="10.00">+</text>
<text text-anchor="start" x="17" y="-553.5" font-family="Helvetica,sans-Serif" font-size="10.00">add_channel_usage()</text>
<text text-anchor="start" x="4" y="-538.5" font-family="Helvetica,sans-Serif" font-size="10.00">+</text>
<text text-anchor="start" x="17" y="-538.5" font-family="Helvetica,sans-Serif" font-size="10.00">get_audio_buffer()</text>
<text text-anchor="start" x="4" y="-523.5" font-family="Helvetica,sans-Serif" font-size="10.00">+</text>
<text text-anchor="start" x="17" y="-523.5" font-family="Helvetica,sans-Serif" font-size="10.00">get_block_size()</text>
<text text-anchor="start" x="4" y="-508.5" font-family="Helvetica,sans-Serif" font-size="10.00">+</text>
<text text-anchor="start" x="17" y="-508.5" font-family="Helvetica,sans-Serif" font-size="10.00">get_channel_mask()</text>
<text text-anchor="start" x="4" y="-493.5" font-family="Helvetica,sans-Serif" font-size="10.00">+</text>
<text text-anchor="start" x="17" y="-493.5" font-family="Helvetica,sans-Serif" font-size="10.00">get_metadata()</text>
<text text-anchor="start" x="4" y="-478.5" font-family="Helvetica,sans-Serif" font-size="10.00">+</text>
<text text-anchor="start" x="17" y="-478.5" font-family="Helvetica,sans-Serif" font-size="10.00">get_node_audio_buffer()</text>
<text text-anchor="start" x="4" y="-463.5" font-family="Helvetica,sans-Serif" font-size="10.00">+</text>
<text text-anchor="start" x="17" y="-463.5" font-family="Helvetica,sans-Serif" font-size="10.00">get_node_count()</text>
<text text-anchor="start" x="4" y="-448.5" font-family="Helvetica,sans-Serif" font-size="10.00">+</text>
<text text-anchor="start" x="17" y="-448.5" font-family="Helvetica,sans-Serif" font-size="10.00">get_node_output()</text>
<text text-anchor="start" x="4" y="-433.5" font-family="Helvetica,sans-Serif" font-size="10.00">+</text>
<text text-anchor="start" x="17" y="-433.5" font-family="Helvetica,sans-Serif" font-size="10.00">get_operator()</text>
<text text-anchor="start" x="4" y="-418.5" font-family="Helvetica,sans-Serif" font-size="10.00">+</text>
<text text-anchor="start" x="17" y="-418.5" font-family="Helvetica,sans-Serif" font-size="10.00">get_operator()</text>
<text text-anchor="start" x="17" y="-403.5" font-family="Helvetica,sans-Serif" font-size="10.00">and 32 more...</text>
<text text-anchor="start" x="4" y="-388.5" font-family="Helvetica,sans-Serif" font-size="10.00">#</text>
<text text-anchor="start" x="17" y="-388.5" font-family="Helvetica,sans-Serif" font-size="10.00">apply_output_scale()</text>
<text text-anchor="start" x="4" y="-373.5" font-family="Helvetica,sans-Serif" font-size="10.00">#</text>
<text text-anchor="start" x="17" y="-373.5" font-family="Helvetica,sans-Serif" font-size="10.00">ensure_initialized()</text>
<text text-anchor="start" x="4" y="-358.5" font-family="Helvetica,sans-Serif" font-size="10.00">#</text>
<text text-anchor="start" x="17" y="-358.5" font-family="Helvetica,sans-Serif" font-size="10.00">build_chain_neighbors()</text>
<text text-anchor="start" x="4" y="-343.5" font-family="Helvetica,sans-Serif" font-size="10.00">#</text>
<text text-anchor="start" x="17" y="-343.5" font-family="Helvetica,sans-Serif" font-size="10.00">build_grid_2d_neighbors()</text>
<text text-anchor="start" x="4" y="-328.5" font-family="Helvetica,sans-Serif" font-size="10.00">#</text>
<text text-anchor="start" x="17" y="-328.5" font-family="Helvetica,sans-Serif" font-size="10.00">build_grid_3d_neighbors()</text>
<text text-anchor="start" x="4" y="-313.5" font-family="Helvetica,sans-Serif" font-size="10.00">#</text>
<text text-anchor="start" x="17" y="-313.5" font-family="Helvetica,sans-Serif" font-size="10.00">build_ring_neighbors()</text>
<text text-anchor="start" x="4" y="-298.5" font-family="Helvetica,sans-Serif" font-size="10.00">#</text>
<text text-anchor="start" x="17" y="-298.5" font-family="Helvetica,sans-Serif" font-size="10.00">extract_node_samples()</text>
<text text-anchor="start" x="6.5" y="-283.5" font-family="Helvetica,sans-Serif" font-size="10.00">&#45;</text>
<text text-anchor="start" x="17" y="-283.5" font-family="Helvetica,sans-Serif" font-size="10.00">output_mode_to_string()</text>
<text text-anchor="start" x="6.5" y="-268.5" font-family="Helvetica,sans-Serif" font-size="10.00">&#45;</text>
<text text-anchor="start" x="17" y="-268.5" font-family="Helvetica,sans-Serif" font-size="10.00">topology_to_string()</text>
<polygon fill="#666666" stroke="#666666" points="0,-788.5 0,-788.5 148,-788.5 148,-788.5 0,-788.5"/>
<polygon fill="#666666" stroke="#666666" points="0,-563.5 0,-563.5 15,-563.5 15,-563.5 0,-563.5"/>
<polygon fill="#666666" stroke="#666666" points="15,-563.5 15,-563.5 148,-563.5 148,-563.5 15,-563.5"/>
<polygon fill="none" stroke="#666666" points="0,-262 0,-817 148,-817 148,-262 0,-262"/>
</a>
</g>
</g>
<!-- Node2&#45;&gt;Node1 -->
<g id="edge1_Node000001_Node000002" class="edge">
<title>Node2&#45;&gt;Node1</title>
<g id="a_edge1_Node000001_Node000002"><a xlink:title=" ">
<path fill="none" stroke="#63b8ff" d="M74,-251.83C74,-242.67 74,-233.72 74,-225.07"/>
<polygon fill="none" stroke="#63b8ff" points="70.5,-251.85 74,-261.85 77.5,-251.85 70.5,-251.85"/>
</a>
</g>
</g>
<!-- Node3 -->
<g id="Node000003" class="node">
<title>Node3</title>
<g id="a_Node000003"><a xlink:href="structMayaFlux_1_1Nodes_1_1RoutingState.html" target="_top" xlink:title="Represents the state of routing transitions for a node.">
<polygon fill="white" stroke="transparent" points="143.5,-999 4.5,-999 4.5,-864 143.5,-864 143.5,-999"/>
<text text-anchor="start" x="10" y="-986.5" font-family="Helvetica,sans-Serif" font-size="10.00">MayaFlux::Nodes::Routing</text>
<text text-anchor="start" x="61.5" y="-975.5" font-family="Helvetica,sans-Serif" font-size="10.00">State</text>
<text text-anchor="start" x="19.5" y="-960.5" font-family="Helvetica,sans-Serif" font-size="10.00">+</text>
<text text-anchor="start" x="43" y="-960.5" font-family="Helvetica,sans-Serif" font-size="10.00">amount</text>
<text text-anchor="start" x="19.5" y="-945.5" font-family="Helvetica,sans-Serif" font-size="10.00">+</text>
<text text-anchor="start" x="43" y="-945.5" font-family="Helvetica,sans-Serif" font-size="10.00">cycles_elapsed</text>
<text text-anchor="start" x="19.5" y="-930.5" font-family="Helvetica,sans-Serif" font-size="10.00">+</text>
<text text-anchor="start" x="43" y="-930.5" font-family="Helvetica,sans-Serif" font-size="10.00">fade_cycles</text>
<text text-anchor="start" x="19.5" y="-915.5" font-family="Helvetica,sans-Serif" font-size="10.00">+</text>
<text text-anchor="start" x="43" y="-915.5" font-family="Helvetica,sans-Serif" font-size="10.00">from_channels</text>
<text text-anchor="start" x="19.5" y="-900.5" font-family="Helvetica,sans-Serif" font-size="10.00">+</text>
<text text-anchor="start" x="43" y="-900.5" font-family="Helvetica,sans-Serif" font-size="10.00">NONE</text>
<text text-anchor="start" x="19.5" y="-885.5" font-family="Helvetica,sans-Serif" font-size="10.00">+</text>
<text text-anchor="start" x="43" y="-885.5" font-family="Helvetica,sans-Serif" font-size="10.00">to_channels</text>
<text text-anchor="start" x="72.5" y="-870.5" font-family="Helvetica,sans-Serif" font-size="10.00"> </text>
<polygon fill="#666666" stroke="#666666" points="5,-970.5 5,-970.5 144,-970.5 144,-970.5 5,-970.5"/>
<polygon fill="#666666" stroke="#666666" points="5,-880.5 5,-880.5 41,-880.5 41,-880.5 5,-880.5"/>
<polygon fill="#666666" stroke="#666666" points="41,-880.5 41,-880.5 144,-880.5 144,-880.5 41,-880.5"/>
<polygon fill="none" stroke="#666666" points="4.5,-864 4.5,-999 143.5,-999 143.5,-864 4.5,-864"/>
</a>
</g>
</g>
<!-- Node3&#45;&gt;Node2 -->
<g id="edge2_Node000002_Node000003" class="edge">
<title>Node3&#45;&gt;Node2</title>
<g id="a_edge2_Node000002_Node000003"><a xlink:title=" ">
<path fill="none" stroke="#63b8ff" d="M74,-863.9C74,-853.29 74,-841.78 74,-829.62"/>
<polygon fill="none" stroke="#63b8ff" points="74,-829.25 70,-823.25 74,-817.25 78,-823.25 74,-829.25"/>
</a>
</g>
<text text-anchor="middle" x="117.5" y="-838" font-family="Helvetica,sans-Serif" font-size="10.00" fill="grey"> &#45;m_routing_state</text>
</g>
</g>
</svg>
