<?xml version="1.0" encoding="UTF-8" standalone="no"?>
<!DOCTYPE svg PUBLIC "-//W3C//DTD SVG 1.1//EN"
 "http://www.w3.org/Graphics/SVG/1.1/DTD/svg11.dtd">
<!-- Generated by graphviz version 2.43.0 (0)
 -->
<!-- Title: MayaFlux::Buffers::TransferProcessor::process_audio_to_gpu Pages: 1 -->
<svg width="802pt" height="146pt"
 viewBox="0.00 0.00 802.00 146.00" xmlns="http://www.w3.org/2000/svg" xmlns:xlink="http://www.w3.org/1999/xlink">
<g id="graph0" class="graph" transform="scale(1 1) rotate(0) translate(4 142)">
<title>MayaFlux::Buffers::TransferProcessor::process_audio_to_gpu</title>
<!-- Node1 -->
<g id="Node000001" class="node">
<title>Node1</title>
<g id="a_Node000001"><a xlink:title=" ">
<polygon fill="#999999" stroke="#666666" points="146,-92.5 0,-92.5 0,-51.5 146,-51.5 146,-92.5"/>
<text text-anchor="start" x="8" y="-80.5" font-family="Helvetica,sans-Serif" font-size="10.00">MayaFlux::Buffers::</text>
<text text-anchor="start" x="8" y="-69.5" font-family="Helvetica,sans-Serif" font-size="10.00">TransferProcessor::process</text>
<text text-anchor="middle" x="73" y="-58.5" font-family="Helvetica,sans-Serif" font-size="10.00">_audio_to_gpu</text>
</a>
</g>
</g>
<!-- Node2 -->
<g id="Node000002" class="node">
<title>Node2</title>
<g id="a_Node000002"><a xlink:href="namespaceMayaFlux_1_1Buffers_a256395c86418c75e6873a22e53420ffe.html#a256395c86418c75e6873a22e53420ffe" target="_top" xlink:title="Upload AudioBuffer to GPU (always double precision)">
<polygon fill="white" stroke="#666666" points="302,-87 182,-87 182,-57 302,-57 302,-87"/>
<text text-anchor="start" x="190" y="-75" font-family="Helvetica,sans-Serif" font-size="10.00">MayaFlux::Buffers::</text>
<text text-anchor="middle" x="242" y="-64" font-family="Helvetica,sans-Serif" font-size="10.00">upload_audio_to_gpu</text>
</a>
</g>
</g>
<!-- Node1&#45;&gt;Node2 -->
<g id="edge1_Node000001_Node000002" class="edge">
<title>Node1&#45;&gt;Node2</title>
<g id="a_edge1_Node000001_Node000002"><a xlink:title=" ">
<path fill="none" stroke="#63b8ff" d="M146.28,-72C154.74,-72 163.35,-72 171.77,-72"/>
<polygon fill="#63b8ff" stroke="#63b8ff" points="171.92,-75.5 181.92,-72 171.92,-68.5 171.92,-75.5"/>
</a>
</g>
</g>
<!-- Node3 -->
<g id="Node000003" class="node">
<title>Node3</title>
<g id="a_Node000003"><a xlink:href="namespaceMayaFlux_1_1Buffers_ae5e547b4f569572df2c1ad0a3d7a38eb.html#ae5e547b4f569572df2c1ad0a3d7a38eb" target="_top" xlink:title="Upload raw data to GPU buffer (auto&#45;detects host&#45;visible vs device&#45;local)">
<polygon fill="white" stroke="#666666" points="449,-87 338,-87 338,-57 449,-57 449,-87"/>
<text text-anchor="start" x="346" y="-75" font-family="Helvetica,sans-Serif" font-size="10.00">MayaFlux::Buffers::</text>
<text text-anchor="middle" x="393.5" y="-64" font-family="Helvetica,sans-Serif" font-size="10.00">upload_to_gpu</text>
</a>
</g>
</g>
<!-- Node2&#45;&gt;Node3 -->
<g id="edge2_Node000002_Node000003" class="edge">
<title>Node2&#45;&gt;Node3</title>
<g id="a_edge2_Node000002_Node000003"><a xlink:title=" ">
<path fill="none" stroke="#63b8ff" d="M302.09,-72C310.44,-72 319.07,-72 327.53,-72"/>
<polygon fill="#63b8ff" stroke="#63b8ff" points="327.73,-75.5 337.73,-72 327.73,-68.5 327.73,-75.5"/>
</a>
</g>
</g>
<!-- Node4 -->
<g id="Node000004" class="node">
<title>Node4</title>
<g id="a_Node000004"><a xlink:href="namespaceMayaFlux_1_1Buffers_a64c6abe8842e398d178e4275a4d4b404.html#a64c6abe8842e398d178e4275a4d4b404" target="_top" xlink:title="Create staging buffer for transfers.">
<polygon fill="white" stroke="#666666" points="607,-135 485,-135 485,-105 607,-105 607,-135"/>
<text text-anchor="start" x="493" y="-123" font-family="Helvetica,sans-Serif" font-size="10.00">MayaFlux::Buffers::</text>
<text text-anchor="middle" x="546" y="-112" font-family="Helvetica,sans-Serif" font-size="10.00">create_staging_buffer</text>
</a>
</g>
</g>
<!-- Node3&#45;&gt;Node4 -->
<g id="edge3_Node000003_Node000004" class="edge">
<title>Node3&#45;&gt;Node4</title>
<g id="a_edge3_Node000003_Node000004"><a xlink:title=" ">
<path fill="none" stroke="#63b8ff" d="M441.71,-87.06C456.41,-91.75 472.79,-96.97 488.09,-101.85"/>
<polygon fill="#63b8ff" stroke="#63b8ff" points="487.37,-105.29 497.96,-105 489.5,-98.62 487.37,-105.29"/>
</a>
</g>
</g>
<!-- Node7 -->
<g id="Node000007" class="node">
<title>Node7</title>
<g id="a_Node000007"><a xlink:href="namespaceMayaFlux_1_1Buffers_a31f5983628d43dc3c83257330c321cc6.html#a31f5983628d43dc3c83257330c321cc6" target="_top" xlink:title="Upload data to a device&#45;local buffer using a staging buffer.">
<polygon fill="white" stroke="#666666" points="604,-39 488,-39 488,-9 604,-9 604,-39"/>
<text text-anchor="start" x="496" y="-27" font-family="Helvetica,sans-Serif" font-size="10.00">MayaFlux::Buffers::</text>
<text text-anchor="middle" x="546" y="-16" font-family="Helvetica,sans-Serif" font-size="10.00">upload_device_local</text>
</a>
</g>
</g>
<!-- Node3&#45;&gt;Node7 -->
<g id="edge6_Node000003_Node000007" class="edge">
<title>Node3&#45;&gt;Node7</title>
<g id="a_edge6_Node000003_Node000007"><a xlink:title=" ">
<path fill="none" stroke="#63b8ff" d="M441.71,-56.94C456.41,-52.25 472.79,-47.03 488.09,-42.15"/>
<polygon fill="#63b8ff" stroke="#63b8ff" points="489.5,-45.38 497.96,-39 487.37,-38.71 489.5,-45.38"/>
</a>
</g>
</g>
<!-- Node9 -->
<g id="Node000009" class="node">
<title>Node9</title>
<g id="a_Node000009"><a xlink:href="namespaceMayaFlux_1_1Buffers_a0749e7edaf3b6ec8a02a107a4f5b3a5a.html#a0749e7edaf3b6ec8a02a107a4f5b3a5a" target="_top" xlink:title="Upload data to a host&#45;visible buffer.">
<polygon fill="white" stroke="#666666" points="602.5,-87 489.5,-87 489.5,-57 602.5,-57 602.5,-87"/>
<text text-anchor="start" x="497.5" y="-75" font-family="Helvetica,sans-Serif" font-size="10.00">MayaFlux::Buffers::</text>
<text text-anchor="middle" x="546" y="-64" font-family="Helvetica,sans-Serif" font-size="10.00">upload_host_visible</text>
</a>
</g>
</g>
<!-- Node3&#45;&gt;Node9 -->
<g id="edge10_Node000003_Node000009" class="edge">
<title>Node3&#45;&gt;Node9</title>
<g id="a_edge10_Node000003_Node000009"><a xlink:title=" ">
<path fill="none" stroke="#63b8ff" d="M449.26,-72C458.93,-72 469.09,-72 479.02,-72"/>
<polygon fill="#63b8ff" stroke="#63b8ff" points="479.27,-75.5 489.27,-72 479.27,-68.5 479.27,-75.5"/>
</a>
</g>
</g>
<!-- Node5 -->
<g id="Node000005" class="node">
<title>Node5</title>
<g id="a_Node000005"><a xlink:href="classMayaFlux_1_1Registry_1_1BackendRegistry_a0c7a59c0847791ed0915dcd64e8df783.html#a0c7a59c0847791ed0915dcd64e8df783" target="_top" xlink:title="Query for a backend service.">
<polygon fill="white" stroke="#666666" points="781,-89.5 656,-89.5 656,-48.5 781,-48.5 781,-89.5"/>
<text text-anchor="start" x="664" y="-77.5" font-family="Helvetica,sans-Serif" font-size="10.00">MayaFlux::Registry</text>
<text text-anchor="start" x="664" y="-66.5" font-family="Helvetica,sans-Serif" font-size="10.00">::BackendRegistry::get</text>
<text text-anchor="middle" x="718.5" y="-55.5" font-family="Helvetica,sans-Serif" font-size="10.00">_service</text>
</a>
</g>
</g>
<!-- Node4&#45;&gt;Node5 -->
<g id="edge4_Node000004_Node000005" class="edge">
<title>Node4&#45;&gt;Node5</title>
<g id="a_edge4_Node000004_Node000005"><a xlink:title=" ">
<path fill="none" stroke="#63b8ff" d="M597.23,-104.97C612.59,-100.38 629.78,-95.24 646.25,-90.31"/>
<polygon fill="#63b8ff" stroke="#63b8ff" points="647.27,-93.66 655.85,-87.44 645.26,-86.95 647.27,-93.66"/>
</a>
</g>
</g>
<!-- Node6 -->
<g id="Node000006" class="node">
<title>Node6</title>
<g id="a_Node000006"><a xlink:href="classMayaFlux_1_1Registry_1_1BackendRegistry_aa28c6f5592e5893508bafb62aefcc496.html#aa28c6f5592e5893508bafb62aefcc496" target="_top" xlink:title="Get the global registry instance.">
<polygon fill="white" stroke="#666666" points="794,-138 643,-138 643,-108 794,-108 794,-138"/>
<text text-anchor="start" x="651" y="-126" font-family="Helvetica,sans-Serif" font-size="10.00">MayaFlux::Registry</text>
<text text-anchor="middle" x="718.5" y="-115" font-family="Helvetica,sans-Serif" font-size="10.00">::BackendRegistry::instance</text>
</a>
</g>
</g>
<!-- Node4&#45;&gt;Node6 -->
<g id="edge5_Node000004_Node000006" class="edge">
<title>Node4&#45;&gt;Node6</title>
<g id="a_edge5_Node000004_Node000006"><a xlink:title=" ">
<path fill="none" stroke="#63b8ff" d="M607.11,-121.06C615.45,-121.2 624.14,-121.36 632.82,-121.51"/>
<polygon fill="#63b8ff" stroke="#63b8ff" points="632.93,-125.01 642.99,-121.69 633.05,-118.01 632.93,-125.01"/>
</a>
</g>
</g>
<!-- Node7&#45;&gt;Node5 -->
<g id="edge7_Node000007_Node000005" class="edge">
<title>Node7&#45;&gt;Node5</title>
<g id="a_edge7_Node000007_Node000005"><a xlink:title=" ">
<path fill="none" stroke="#63b8ff" d="M604.25,-39.11C617.56,-42.62 631.9,-46.41 645.75,-50.06"/>
<polygon fill="#63b8ff" stroke="#63b8ff" points="645.16,-53.53 655.72,-52.7 646.95,-46.76 645.16,-53.53"/>
</a>
</g>
</g>
<!-- Node7&#45;&gt;Node6 -->
<g id="edge9_Node000007_Node000006" class="edge">
<title>Node7&#45;&gt;Node6</title>
<g id="a_edge9_Node000007_Node000006"><a xlink:title=" ">
<path fill="none" stroke="#63b8ff" d="M592.78,-39.02C597.82,-41.61 602.69,-44.59 607,-48 628.78,-65.19 620.65,-82.57 643,-99 645.06,-100.51 647.22,-101.94 649.45,-103.27"/>
<polygon fill="#63b8ff" stroke="#63b8ff" points="647.9,-106.41 658.38,-107.99 651.18,-100.22 647.9,-106.41"/>
</a>
</g>
</g>
<!-- Node8 -->
<g id="Node000008" class="node">
<title>Node8</title>
<g id="a_Node000008"><a xlink:href="classMayaFlux_1_1Kakshya_1_1DataAccess_a7893291a314cd16a4086b4af5547be3b.html#a7893291a314cd16a4086b4af5547be3b" target="_top" xlink:title="Get raw buffer info for GPU upload.">
<polygon fill="white" stroke="#666666" points="784,-30 653,-30 653,0 784,0 784,-30"/>
<text text-anchor="start" x="661" y="-18" font-family="Helvetica,sans-Serif" font-size="10.00">MayaFlux::Kakshya::</text>
<text text-anchor="middle" x="718.5" y="-7" font-family="Helvetica,sans-Serif" font-size="10.00">DataAccess::gpu_buffer</text>
</a>
</g>
</g>
<!-- Node7&#45;&gt;Node8 -->
<g id="edge8_Node000007_Node000008" class="edge">
<title>Node7&#45;&gt;Node8</title>
<g id="a_edge8_Node000007_Node000008"><a xlink:title=" ">
<path fill="none" stroke="#63b8ff" d="M604.25,-20.98C616.54,-20.33 629.7,-19.63 642.55,-18.96"/>
<polygon fill="#63b8ff" stroke="#63b8ff" points="642.96,-22.44 652.76,-18.42 642.59,-15.45 642.96,-22.44"/>
</a>
</g>
</g>
<!-- Node9&#45;&gt;Node5 -->
<g id="edge11_Node000009_Node000005" class="edge">
<title>Node9&#45;&gt;Node5</title>
<g id="a_edge11_Node000009_Node000005"><a xlink:title=" ">
<path fill="none" stroke="#63b8ff" d="M602.83,-71.02C616.5,-70.78 631.33,-70.52 645.64,-70.26"/>
<polygon fill="#63b8ff" stroke="#63b8ff" points="646.01,-73.76 655.95,-70.08 645.89,-66.76 646.01,-73.76"/>
</a>
</g>
</g>
<!-- Node9&#45;&gt;Node6 -->
<g id="edge13_Node000009_Node000006" class="edge">
<title>Node9&#45;&gt;Node6</title>
<g id="a_edge13_Node000009_Node000006"><a xlink:title=" ">
<path fill="none" stroke="#63b8ff" d="M597.23,-87.03C616.14,-92.68 637.83,-99.17 657.54,-105.06"/>
<polygon fill="#63b8ff" stroke="#63b8ff" points="656.75,-108.48 667.33,-107.99 658.75,-101.77 656.75,-108.48"/>
</a>
</g>
</g>
<!-- Node9&#45;&gt;Node8 -->
<g id="edge12_Node000009_Node000008" class="edge">
<title>Node9&#45;&gt;Node8</title>
<g id="a_edge12_Node000009_Node000008"><a xlink:title=" ">
<path fill="none" stroke="#63b8ff" d="M590.43,-56.87C606.87,-51.2 625.78,-44.73 643,-39 648.62,-37.13 654.48,-35.2 660.34,-33.29"/>
<polygon fill="#63b8ff" stroke="#63b8ff" points="661.73,-36.52 670.16,-30.1 659.57,-29.86 661.73,-36.52"/>
</a>
</g>
</g>
</g>
</svg>
