<?xml version="1.0" encoding="UTF-8" standalone="no"?>
<!DOCTYPE svg PUBLIC "-//W3C//DTD SVG 1.1//EN"
 "http://www.w3.org/Graphics/SVG/1.1/DTD/svg11.dtd">
<!-- Generated by graphviz version 2.43.0 (0)
 -->
<!-- Title: MayaFlux::Core::GLFWSingleton::get_required_instance_extensions Pages: 1 -->
<svg width="615pt" height="38pt"
 viewBox="0.00 0.00 615.00 38.00" xmlns="http://www.w3.org/2000/svg" xmlns:xlink="http://www.w3.org/1999/xlink">
<g id="graph0" class="graph" transform="scale(1 1) rotate(0) translate(4 34)">
<title>MayaFlux::Core::GLFWSingleton::get_required_instance_extensions</title>
<!-- Node1 -->
<g id="Node000001" class="node">
<title>Node1</title>
<g id="a_Node000001"><a xlink:title="Retrieves the list of required Vulkan instance extensions for GLFW.">
<polygon fill="#999999" stroke="#666666" points="189,-30 0,-30 0,0 189,0 189,-30"/>
<text text-anchor="start" x="8" y="-18" font-family="Helvetica,sans-Serif" font-size="10.00">MayaFlux::Core::GLFWSingleton</text>
<text text-anchor="middle" x="94.5" y="-7" font-family="Helvetica,sans-Serif" font-size="10.00">::get_required_instance_extensions</text>
</a>
</g>
</g>
<!-- Node2 -->
<g id="Node000002" class="node">
<title>Node2</title>
<g id="a_Node000002"><a xlink:href="classMayaFlux_1_1Core_1_1GLFWSingleton_a59865076ee8f384943d796eea66a5acb.html#a59865076ee8f384943d796eea66a5acb" target="_top" xlink:title="Initializes the GLFW library if not already initialized.">
<polygon fill="white" stroke="#666666" points="398,-30 225,-30 225,0 398,0 398,-30"/>
<text text-anchor="start" x="233" y="-18" font-family="Helvetica,sans-Serif" font-size="10.00">MayaFlux::Core::GLFWSingleton</text>
<text text-anchor="middle" x="311.5" y="-7" font-family="Helvetica,sans-Serif" font-size="10.00">::initialize</text>
</a>
</g>
</g>
<!-- Node1&#45;&gt;Node2 -->
<g id="edge1_Node000001_Node000002" class="edge">
<title>Node1&#45;&gt;Node2</title>
<g id="a_edge1_Node000001_Node000002"><a xlink:title=" ">
<path fill="none" stroke="#63b8ff" d="M189.18,-15C197.62,-15 206.19,-15 214.65,-15"/>
<polygon fill="#63b8ff" stroke="#63b8ff" points="214.92,-18.5 224.92,-15 214.92,-11.5 214.92,-18.5"/>
</a>
</g>
</g>
<!-- Node3 -->
<g id="Node000003" class="node">
<title>Node3</title>
<g id="a_Node000003"><a xlink:href="classMayaFlux_1_1Core_1_1GLFWSingleton_ac4935bfb2f344c7d088d038690bd7375.html#ac4935bfb2f344c7d088d038690bd7375" target="_top" xlink:title="Configures GLFW with pre&#45;initialization hints.">
<polygon fill="white" stroke="#666666" points="607,-30 434,-30 434,0 607,0 607,-30"/>
<text text-anchor="start" x="442" y="-18" font-family="Helvetica,sans-Serif" font-size="10.00">MayaFlux::Core::GLFWSingleton</text>
<text text-anchor="middle" x="520.5" y="-7" font-family="Helvetica,sans-Serif" font-size="10.00">::configure</text>
</a>
</g>
</g>
<!-- Node2&#45;&gt;Node3 -->
<g id="edge2_Node000002_Node000003" class="edge">
<title>Node2&#45;&gt;Node3</title>
<g id="a_edge2_Node000002_Node000003"><a xlink:title=" ">
<path fill="none" stroke="#63b8ff" d="M398.19,-15C406.66,-15 415.3,-15 423.87,-15"/>
<polygon fill="#63b8ff" stroke="#63b8ff" points="423.88,-18.5 433.88,-15 423.88,-11.5 423.88,-18.5"/>
</a>
</g>
</g>
</g>
</svg>
