<?xml version="1.0" encoding="UTF-8" standalone="no"?>
<!DOCTYPE svg PUBLIC "-//W3C//DTD SVG 1.1//EN"
 "http://www.w3.org/Graphics/SVG/1.1/DTD/svg11.dtd">
<!-- Generated by graphviz version 2.43.0 (0)
 -->
<!-- Title: MayaFlux::Buffers::BufferAccessControl::get_audio_buffer_data Pages: 1 -->
<svg width="483pt" height="98pt"
 viewBox="0.00 0.00 483.00 97.50" xmlns="http://www.w3.org/2000/svg" xmlns:xlink="http://www.w3.org/1999/xlink">
<g id="graph0" class="graph" transform="scale(1 1) rotate(0) translate(4 93.5)">
<title>MayaFlux::Buffers::BufferAccessControl::get_audio_buffer_data</title>
<!-- Node1 -->
<g id="Node000001" class="node">
<title>Node1</title>
<g id="a_Node000001"><a xlink:title="Gets const reference to audio buffer data for a channel.">
<polygon fill="#999999" stroke="#666666" points="131,-68 0,-68 0,-27 131,-27 131,-68"/>
<text text-anchor="start" x="8" y="-56" font-family="Helvetica,sans-Serif" font-size="10.00">MayaFlux::Buffers::</text>
<text text-anchor="start" x="8" y="-45" font-family="Helvetica,sans-Serif" font-size="10.00">BufferAccessControl</text>
<text text-anchor="middle" x="65.5" y="-34" font-family="Helvetica,sans-Serif" font-size="10.00">::get_audio_buffer_data</text>
</a>
</g>
</g>
<!-- Node2 -->
<g id="Node000002" class="node">
<title>Node2</title>
<g id="a_Node000002"><a xlink:href="classMayaFlux_1_1Buffers_1_1BufferAccessControl_a80913dd63097628c0d5f88de77de55c1.html#a80913dd63097628c0d5f88de77de55c1" target="_top" xlink:title="Gets the root audio buffer for a specific token and channel.">
<polygon fill="white" stroke="#666666" points="296,-68 167,-68 167,-27 296,-27 296,-68"/>
<text text-anchor="start" x="175" y="-56" font-family="Helvetica,sans-Serif" font-size="10.00">MayaFlux::Buffers::</text>
<text text-anchor="start" x="175" y="-45" font-family="Helvetica,sans-Serif" font-size="10.00">BufferAccessControl</text>
<text text-anchor="middle" x="231.5" y="-34" font-family="Helvetica,sans-Serif" font-size="10.00">::get_root_audio_buffer</text>
</a>
</g>
</g>
<!-- Node1&#45;&gt;Node2 -->
<g id="edge1_Node000001_Node000002" class="edge">
<title>Node1&#45;&gt;Node2</title>
<g id="a_edge1_Node000001_Node000002"><a xlink:title=" ">
<path fill="none" stroke="#63b8ff" d="M131.32,-47.5C139.66,-47.5 148.24,-47.5 156.71,-47.5"/>
<polygon fill="#63b8ff" stroke="#63b8ff" points="156.96,-51 166.96,-47.5 156.96,-44 156.96,-51"/>
</a>
</g>
</g>
<!-- Node3 -->
<g id="Node000003" class="node">
<title>Node3</title>
<g id="a_Node000003"><a xlink:href="structMayaFlux_1_1Buffers_1_1RootAudioUnit_ab300ec63a12ad8cde8c5ef4e7092367b.html#ab300ec63a12ad8cde8c5ef4e7092367b" target="_top" xlink:title=" ">
<polygon fill="white" stroke="#666666" points="475,-89.5 332,-89.5 332,-59.5 475,-59.5 475,-89.5"/>
<text text-anchor="start" x="340" y="-77.5" font-family="Helvetica,sans-Serif" font-size="10.00">MayaFlux::Buffers::</text>
<text text-anchor="middle" x="403.5" y="-66.5" font-family="Helvetica,sans-Serif" font-size="10.00">RootAudioUnit::get_buffer</text>
</a>
</g>
</g>
<!-- Node2&#45;&gt;Node3 -->
<g id="edge2_Node000002_Node000003" class="edge">
<title>Node2&#45;&gt;Node3</title>
<g id="a_edge2_Node000002_Node000003"><a xlink:title=" ">
<path fill="none" stroke="#63b8ff" d="M296.29,-57.63C304.61,-58.95 313.23,-60.32 321.8,-61.68"/>
<polygon fill="#63b8ff" stroke="#63b8ff" points="321.37,-65.16 331.8,-63.27 322.47,-58.25 321.37,-65.16"/>
</a>
</g>
</g>
<!-- Node4 -->
<g id="Node000004" class="node">
<title>Node4</title>
<g id="a_Node000004"><a xlink:href="classMayaFlux_1_1Buffers_1_1TokenUnitManager_ac9fd8c50e96db19443030c7582b9cc20.html#ac9fd8c50e96db19443030c7582b9cc20" target="_top" xlink:title="Gets or creates a root audio unit for the specified token.">
<polygon fill="white" stroke="#666666" points="468,-41 339,-41 339,0 468,0 468,-41"/>
<text text-anchor="start" x="347" y="-29" font-family="Helvetica,sans-Serif" font-size="10.00">MayaFlux::Buffers::</text>
<text text-anchor="start" x="347" y="-18" font-family="Helvetica,sans-Serif" font-size="10.00">TokenUnitManager::get</text>
<text text-anchor="middle" x="403.5" y="-7" font-family="Helvetica,sans-Serif" font-size="10.00">_or_create_audio_unit</text>
</a>
</g>
</g>
<!-- Node2&#45;&gt;Node4 -->
<g id="edge3_Node000002_Node000004" class="edge">
<title>Node2&#45;&gt;Node4</title>
<g id="a_edge3_Node000002_Node000004"><a xlink:title=" ">
<path fill="none" stroke="#63b8ff" d="M296.29,-37.37C306.96,-35.67 318.11,-33.9 329.01,-32.17"/>
<polygon fill="#63b8ff" stroke="#63b8ff" points="329.6,-35.62 338.92,-30.6 328.5,-28.71 329.6,-35.62"/>
</a>
</g>
</g>
</g>
</svg>
