<?xml version="1.0" encoding="UTF-8" standalone="no"?>
<!DOCTYPE svg PUBLIC "-//W3C//DTD SVG 1.1//EN"
 "http://www.w3.org/Graphics/SVG/1.1/DTD/svg11.dtd">
<!-- Generated by graphviz version 2.43.0 (0)
 -->
<!-- Title: MayaFlux::Nodes::Generator::Phasor Pages: 1 -->
<!--zoomable 1347 -->

<svg id="main" version="1.1" xmlns="http://www.w3.org/2000/svg" xmlns:xlink="http://www.w3.org/1999/xlink" xml:space="preserve" onload="init(evt)">
<style type="text/css"><![CDATA[
.node, .edge {opacity: 0.7;}
.node.selected, .edge.selected {opacity: 1;}
.edge:hover path { stroke: red; }
.edge:hover polygon { stroke: red; fill: red; }
]]></style>

<defs>
  <circle id="rim" cx="0" cy="0" r="7"/>
  <circle id="rim2" cx="0" cy="0" r="3.5"/>
  <g id="zoomPlus">
    <use xlink:href="#rim" fill="#404040"><set attributeName="fill" to="#808080" begin="zoomplus.mouseover" end="zoomplus.mouseout"/></use>
    <path d="M-4,0h8M0,-4v8" fill="none" stroke="white" stroke-width="1.5" pointer-events="none"/>
  </g>
  <g id="zoomMin">
    <use xlink:href="#rim" fill="#404040"><set attributeName="fill" to="#808080" begin="zoomminus.mouseover" end="zoomminus.mouseout"/></use>
    <path d="M-4,0h8" fill="none" stroke="white" stroke-width="1.5" pointer-events="none"/>
  </g>
  <g id="arrowUp" transform="translate(30 24)">
    <use xlink:href="#rim"/>
    <path pointer-events="none" fill="none" stroke="white" stroke-width="1.5" d="M0,-3.0v7 M-2.5,-0.5L0,-3.0L2.5,-0.5"/>
  </g>
  <g id="arrowRight" transform="rotate(90) translate(36 -43)">
    <use xlink:href="#rim"/>
    <path pointer-events="none" fill="none" stroke="white" stroke-width="1.5" d="M0,-3.0v7 M-2.5,-0.5L0,-3.0L2.5,-0.5"/>
  </g>
  <g id="arrowDown" transform="rotate(180) translate(-30 -48)">
    <use xlink:href="#rim"/>
    <path pointer-events="none" fill="none" stroke="white" stroke-width="1.5" d="M0,-3.0v7 M-2.5,-0.5L0,-3.0L2.5,-0.5"/>
  </g>
  <g id="arrowLeft" transform="rotate(270) translate(-36 17)">
    <use xlink:href="#rim"/>
    <path pointer-events="none" fill="none" stroke="white" stroke-width="1.5" d="M0,-3.0v7 M-2.5,-0.5L0,-3.0L2.5,-0.5"/>
  </g>
  <g id="resetDef">
    <use xlink:href="#rim2" fill="#404040"><set attributeName="fill" to="#808080" begin="reset.mouseover" end="reset.mouseout"/></use>
  </g>
</defs>
<script type="application/ecmascript">
var viewWidth = 294;
var viewHeight = 1347;
var sectionId = 'dynsection-0';
</script>
<script type="application/ecmascript" xlink:href="svg.min.js"/>
<svg id="graph" class="graph">
<g id="viewport">
<title>MayaFlux::Nodes::Generator::Phasor</title>
<!-- Node1 -->
<g id="Node000001" class="node">
<title>Node1</title>
<g id="a_Node000001"><a xlink:title="Phase ramp generator node.">
<polygon fill="#999999" stroke="transparent" points="232.5,-435 69.5,-435 69.5,0 232.5,0 232.5,-435"/>
<text text-anchor="start" x="81.5" y="-422.5" font-family="Helvetica,sans-Serif" font-size="10.00">MayaFlux::Nodes::Generator</text>
<text text-anchor="start" x="131.5" y="-411.5" font-family="Helvetica,sans-Serif" font-size="10.00">::Phasor</text>
<text text-anchor="start" x="76.5" y="-396.5" font-family="Helvetica,sans-Serif" font-size="10.00">&#45;</text>
<text text-anchor="start" x="87" y="-396.5" font-family="Helvetica,sans-Serif" font-size="10.00">m_amplitude_modulator</text>
<text text-anchor="start" x="76.5" y="-381.5" font-family="Helvetica,sans-Serif" font-size="10.00">&#45;</text>
<text text-anchor="start" x="87" y="-381.5" font-family="Helvetica,sans-Serif" font-size="10.00">m_frequency_modulator</text>
<text text-anchor="start" x="76.5" y="-366.5" font-family="Helvetica,sans-Serif" font-size="10.00">&#45;</text>
<text text-anchor="start" x="87" y="-366.5" font-family="Helvetica,sans-Serif" font-size="10.00">m_offset</text>
<text text-anchor="start" x="76.5" y="-351.5" font-family="Helvetica,sans-Serif" font-size="10.00">&#45;</text>
<text text-anchor="start" x="87" y="-351.5" font-family="Helvetica,sans-Serif" font-size="10.00">m_phase_inc</text>
<text text-anchor="start" x="76.5" y="-336.5" font-family="Helvetica,sans-Serif" font-size="10.00">&#45;</text>
<text text-anchor="start" x="87" y="-336.5" font-family="Helvetica,sans-Serif" font-size="10.00">m_phase_wrap_callbacks</text>
<text text-anchor="start" x="76.5" y="-321.5" font-family="Helvetica,sans-Serif" font-size="10.00">&#45;</text>
<text text-anchor="start" x="87" y="-321.5" font-family="Helvetica,sans-Serif" font-size="10.00">m_phase_wrapped</text>
<text text-anchor="start" x="76.5" y="-306.5" font-family="Helvetica,sans-Serif" font-size="10.00">&#45;</text>
<text text-anchor="start" x="87" y="-306.5" font-family="Helvetica,sans-Serif" font-size="10.00">m_saved_frequency</text>
<text text-anchor="start" x="76.5" y="-291.5" font-family="Helvetica,sans-Serif" font-size="10.00">&#45;</text>
<text text-anchor="start" x="87" y="-291.5" font-family="Helvetica,sans-Serif" font-size="10.00">m_saved_last_output</text>
<text text-anchor="start" x="76.5" y="-276.5" font-family="Helvetica,sans-Serif" font-size="10.00">&#45;</text>
<text text-anchor="start" x="87" y="-276.5" font-family="Helvetica,sans-Serif" font-size="10.00">m_saved_offset</text>
<text text-anchor="start" x="76.5" y="-261.5" font-family="Helvetica,sans-Serif" font-size="10.00">&#45;</text>
<text text-anchor="start" x="87" y="-261.5" font-family="Helvetica,sans-Serif" font-size="10.00">m_saved_phase</text>
<text text-anchor="start" x="76.5" y="-246.5" font-family="Helvetica,sans-Serif" font-size="10.00">&#45;</text>
<text text-anchor="start" x="87" y="-246.5" font-family="Helvetica,sans-Serif" font-size="10.00">m_saved_phase_inc</text>
<text text-anchor="start" x="76.5" y="-231.5" font-family="Helvetica,sans-Serif" font-size="10.00">&#45;</text>
<text text-anchor="start" x="87" y="-231.5" font-family="Helvetica,sans-Serif" font-size="10.00">m_threshold_callbacks</text>
<text text-anchor="start" x="76.5" y="-216.5" font-family="Helvetica,sans-Serif" font-size="10.00">&#45;</text>
<text text-anchor="start" x="87" y="-216.5" font-family="Helvetica,sans-Serif" font-size="10.00">m_threshold_crossed</text>
<text text-anchor="start" x="74" y="-201.5" font-family="Helvetica,sans-Serif" font-size="10.00">+</text>
<text text-anchor="start" x="87" y="-201.5" font-family="Helvetica,sans-Serif" font-size="10.00">clear_modulators()</text>
<text text-anchor="start" x="74" y="-186.5" font-family="Helvetica,sans-Serif" font-size="10.00">+</text>
<text text-anchor="start" x="87" y="-186.5" font-family="Helvetica,sans-Serif" font-size="10.00">get_frequency()</text>
<text text-anchor="start" x="74" y="-171.5" font-family="Helvetica,sans-Serif" font-size="10.00">+</text>
<text text-anchor="start" x="87" y="-171.5" font-family="Helvetica,sans-Serif" font-size="10.00">get_modulators()</text>
<text text-anchor="start" x="74" y="-156.5" font-family="Helvetica,sans-Serif" font-size="10.00">+</text>
<text text-anchor="start" x="87" y="-156.5" font-family="Helvetica,sans-Serif" font-size="10.00">get_phase()</text>
<text text-anchor="start" x="74" y="-141.5" font-family="Helvetica,sans-Serif" font-size="10.00">+</text>
<text text-anchor="start" x="87" y="-141.5" font-family="Helvetica,sans-Serif" font-size="10.00">on_phase_wrap()</text>
<text text-anchor="start" x="74" y="-126.5" font-family="Helvetica,sans-Serif" font-size="10.00">+</text>
<text text-anchor="start" x="87" y="-126.5" font-family="Helvetica,sans-Serif" font-size="10.00">on_threshold()</text>
<text text-anchor="start" x="74" y="-111.5" font-family="Helvetica,sans-Serif" font-size="10.00">+</text>
<text text-anchor="start" x="87" y="-111.5" font-family="Helvetica,sans-Serif" font-size="10.00">Phasor()</text>
<text text-anchor="start" x="74" y="-96.5" font-family="Helvetica,sans-Serif" font-size="10.00">+</text>
<text text-anchor="start" x="87" y="-96.5" font-family="Helvetica,sans-Serif" font-size="10.00">Phasor()</text>
<text text-anchor="start" x="74" y="-81.5" font-family="Helvetica,sans-Serif" font-size="10.00">+</text>
<text text-anchor="start" x="87" y="-81.5" font-family="Helvetica,sans-Serif" font-size="10.00">Phasor()</text>
<text text-anchor="start" x="74" y="-66.5" font-family="Helvetica,sans-Serif" font-size="10.00">+</text>
<text text-anchor="start" x="87" y="-66.5" font-family="Helvetica,sans-Serif" font-size="10.00">Phasor()</text>
<text text-anchor="start" x="87" y="-51.5" font-family="Helvetica,sans-Serif" font-size="10.00">and 13 more...</text>
<text text-anchor="start" x="74" y="-36.5" font-family="Helvetica,sans-Serif" font-size="10.00">#</text>
<text text-anchor="start" x="87" y="-36.5" font-family="Helvetica,sans-Serif" font-size="10.00">notify_tick()</text>
<text text-anchor="start" x="74" y="-21.5" font-family="Helvetica,sans-Serif" font-size="10.00">#</text>
<text text-anchor="start" x="87" y="-21.5" font-family="Helvetica,sans-Serif" font-size="10.00">remove_threshold_callback()</text>
<text text-anchor="start" x="76.5" y="-6.5" font-family="Helvetica,sans-Serif" font-size="10.00">&#45;</text>
<text text-anchor="start" x="87" y="-6.5" font-family="Helvetica,sans-Serif" font-size="10.00">update_phase_increment()</text>
<polygon fill="#666666" stroke="#666666" points="70,-406.5 70,-406.5 233,-406.5 233,-406.5 70,-406.5"/>
<polygon fill="#666666" stroke="#666666" points="70,-211.5 70,-211.5 85,-211.5 85,-211.5 70,-211.5"/>
<polygon fill="#666666" stroke="#666666" points="85,-211.5 85,-211.5 233,-211.5 233,-211.5 85,-211.5"/>
<polygon fill="none" stroke="#666666" points="69.5,0 69.5,-435 232.5,-435 232.5,0 69.5,0"/>
</a>
</g>
</g>
<!-- Node2 -->
<g id="Node000002" class="node">
<title>Node2</title>
<g id="a_Node000002"><a xlink:href="classMayaFlux_1_1Nodes_1_1Generator_1_1Generator.html" target="_top" xlink:title="Base class for all signal and pattern generators in Maya Flux.">
<polygon fill="white" stroke="transparent" points="150,-741 0,-741 0,-471 150,-471 150,-741"/>
<text text-anchor="start" x="5" y="-729" font-family="Helvetica,sans-Serif" font-size="10.00">MayaFlux::Nodes::Generator</text>
<text text-anchor="start" x="47.5" y="-718" font-family="Helvetica,sans-Serif" font-size="10.00">::Generator</text>
<text text-anchor="start" x="7" y="-703" font-family="Helvetica,sans-Serif" font-size="10.00">#</text>
<text text-anchor="start" x="23" y="-703" font-family="Helvetica,sans-Serif" font-size="10.00">m_amplitude</text>
<text text-anchor="start" x="7" y="-688" font-family="Helvetica,sans-Serif" font-size="10.00">#</text>
<text text-anchor="start" x="23" y="-688" font-family="Helvetica,sans-Serif" font-size="10.00">m_context</text>
<text text-anchor="start" x="7" y="-673" font-family="Helvetica,sans-Serif" font-size="10.00">#</text>
<text text-anchor="start" x="23" y="-673" font-family="Helvetica,sans-Serif" font-size="10.00">m_context_gpu</text>
<text text-anchor="start" x="7" y="-658" font-family="Helvetica,sans-Serif" font-size="10.00">#</text>
<text text-anchor="start" x="23" y="-658" font-family="Helvetica,sans-Serif" font-size="10.00">m_frequency</text>
<text text-anchor="start" x="7" y="-643" font-family="Helvetica,sans-Serif" font-size="10.00">#</text>
<text text-anchor="start" x="23" y="-643" font-family="Helvetica,sans-Serif" font-size="10.00">m_phase</text>
<text text-anchor="start" x="7" y="-628" font-family="Helvetica,sans-Serif" font-size="10.00">+</text>
<text text-anchor="start" x="23" y="-628" font-family="Helvetica,sans-Serif" font-size="10.00">enable_mock_process()</text>
<text text-anchor="start" x="7" y="-613" font-family="Helvetica,sans-Serif" font-size="10.00">+</text>
<text text-anchor="start" x="23" y="-613" font-family="Helvetica,sans-Serif" font-size="10.00">get_amplitude()</text>
<text text-anchor="start" x="7" y="-598" font-family="Helvetica,sans-Serif" font-size="10.00">+</text>
<text text-anchor="start" x="23" y="-598" font-family="Helvetica,sans-Serif" font-size="10.00">get_last_context()</text>
<text text-anchor="start" x="7" y="-583" font-family="Helvetica,sans-Serif" font-size="10.00">+</text>
<text text-anchor="start" x="23" y="-583" font-family="Helvetica,sans-Serif" font-size="10.00">on_tick()</text>
<text text-anchor="start" x="7" y="-568" font-family="Helvetica,sans-Serif" font-size="10.00">+</text>
<text text-anchor="start" x="23" y="-568" font-family="Helvetica,sans-Serif" font-size="10.00">on_tick_if()</text>
<text text-anchor="start" x="7" y="-553" font-family="Helvetica,sans-Serif" font-size="10.00">+</text>
<text text-anchor="start" x="23" y="-553" font-family="Helvetica,sans-Serif" font-size="10.00">set_amplitude()</text>
<text text-anchor="start" x="7" y="-538" font-family="Helvetica,sans-Serif" font-size="10.00">+</text>
<text text-anchor="start" x="23" y="-538" font-family="Helvetica,sans-Serif" font-size="10.00">set_frequency()</text>
<text text-anchor="start" x="7" y="-523" font-family="Helvetica,sans-Serif" font-size="10.00">+</text>
<text text-anchor="start" x="23" y="-523" font-family="Helvetica,sans-Serif" font-size="10.00">should_mock_process()</text>
<text text-anchor="start" x="7" y="-508" font-family="Helvetica,sans-Serif" font-size="10.00">+</text>
<text text-anchor="start" x="23" y="-508" font-family="Helvetica,sans-Serif" font-size="10.00">update_context()</text>
<text text-anchor="start" x="7" y="-493" font-family="Helvetica,sans-Serif" font-size="10.00">+</text>
<text text-anchor="start" x="23" y="-493" font-family="Helvetica,sans-Serif" font-size="10.00">~Generator()</text>
<text text-anchor="start" x="7" y="-478" font-family="Helvetica,sans-Serif" font-size="10.00">#</text>
<text text-anchor="start" x="23" y="-478" font-family="Helvetica,sans-Serif" font-size="10.00">notify_tick()</text>
<polygon fill="#666666" stroke="#666666" points="0,-713 0,-713 150,-713 150,-713 0,-713"/>
<polygon fill="#666666" stroke="#666666" points="0,-638 0,-638 21,-638 21,-638 0,-638"/>
<polygon fill="#666666" stroke="#666666" points="21,-638 21,-638 150,-638 150,-638 21,-638"/>
<polygon fill="none" stroke="#666666" points="0,-471 0,-741 150,-741 150,-471 0,-471"/>
</a>
</g>
</g>
<!-- Node2&#45;&gt;Node1 -->
<g id="edge1_Node000001_Node000002" class="edge">
<title>Node2&#45;&gt;Node1</title>
<g id="a_edge1_Node000001_Node000002"><a xlink:title=" ">
<path fill="none" stroke="#63b8ff" d="M103.32,-460.99C104.99,-452.49 106.69,-443.85 108.4,-435.15"/>
<polygon fill="none" stroke="#63b8ff" points="99.86,-460.42 101.37,-470.91 106.73,-461.77 99.86,-460.42"/>
</a>
</g>
</g>
<!-- Node3 -->
<g id="Node000003" class="node">
<title>Node3</title>
<g id="a_Node000003"><a xlink:href="classMayaFlux_1_1Nodes_1_1Node.html" target="_top" xlink:title="Base interface for all computational processing nodes.">
<polygon fill="white" stroke="transparent" points="149,-1339 1,-1339 1,-777 149,-777 149,-1339"/>
<text text-anchor="start" x="16.5" y="-1327" font-family="Helvetica,sans-Serif" font-size="10.00">MayaFlux::Nodes::Node</text>
<text text-anchor="start" x="5" y="-1312" font-family="Helvetica,sans-Serif" font-size="10.00">+</text>
<text text-anchor="start" x="18" y="-1312" font-family="Helvetica,sans-Serif" font-size="10.00">m_fire_events_during</text>
<text text-anchor="start" x="18" y="-1301" font-family="Helvetica,sans-Serif" font-size="10.00">_snapshot</text>
<text text-anchor="start" x="5" y="-1286" font-family="Helvetica,sans-Serif" font-size="10.00">+</text>
<text text-anchor="start" x="18" y="-1286" font-family="Helvetica,sans-Serif" font-size="10.00">m_modulator_count</text>
<text text-anchor="start" x="5" y="-1271" font-family="Helvetica,sans-Serif" font-size="10.00">+</text>
<text text-anchor="start" x="18" y="-1271" font-family="Helvetica,sans-Serif" font-size="10.00">m_state</text>
<text text-anchor="start" x="5" y="-1256" font-family="Helvetica,sans-Serif" font-size="10.00">#</text>
<text text-anchor="start" x="18" y="-1256" font-family="Helvetica,sans-Serif" font-size="10.00">m_callbacks</text>
<text text-anchor="start" x="5" y="-1241" font-family="Helvetica,sans-Serif" font-size="10.00">#</text>
<text text-anchor="start" x="18" y="-1241" font-family="Helvetica,sans-Serif" font-size="10.00">m_conditional_callbacks</text>
<text text-anchor="start" x="5" y="-1226" font-family="Helvetica,sans-Serif" font-size="10.00">#</text>
<text text-anchor="start" x="18" y="-1226" font-family="Helvetica,sans-Serif" font-size="10.00">m_frame_rate</text>
<text text-anchor="start" x="5" y="-1211" font-family="Helvetica,sans-Serif" font-size="10.00">#</text>
<text text-anchor="start" x="18" y="-1211" font-family="Helvetica,sans-Serif" font-size="10.00">m_gpu_compatible</text>
<text text-anchor="start" x="5" y="-1196" font-family="Helvetica,sans-Serif" font-size="10.00">#</text>
<text text-anchor="start" x="18" y="-1196" font-family="Helvetica,sans-Serif" font-size="10.00">m_gpu_data_buffer</text>
<text text-anchor="start" x="5" y="-1181" font-family="Helvetica,sans-Serif" font-size="10.00">#</text>
<text text-anchor="start" x="18" y="-1181" font-family="Helvetica,sans-Serif" font-size="10.00">m_last_output</text>
<text text-anchor="start" x="5" y="-1166" font-family="Helvetica,sans-Serif" font-size="10.00">#</text>
<text text-anchor="start" x="18" y="-1166" font-family="Helvetica,sans-Serif" font-size="10.00">m_networked_node</text>
<text text-anchor="start" x="5" y="-1151" font-family="Helvetica,sans-Serif" font-size="10.00">#</text>
<text text-anchor="start" x="18" y="-1151" font-family="Helvetica,sans-Serif" font-size="10.00">m_node_capability</text>
<text text-anchor="start" x="5" y="-1136" font-family="Helvetica,sans-Serif" font-size="10.00">#</text>
<text text-anchor="start" x="18" y="-1136" font-family="Helvetica,sans-Serif" font-size="10.00">m_sample_rate</text>
<text text-anchor="start" x="5" y="-1121" font-family="Helvetica,sans-Serif" font-size="10.00">#</text>
<text text-anchor="start" x="18" y="-1121" font-family="Helvetica,sans-Serif" font-size="10.00">m_state_saved</text>
<text text-anchor="start" x="5" y="-1106" font-family="Helvetica,sans-Serif" font-size="10.00">#</text>
<text text-anchor="start" x="18" y="-1106" font-family="Helvetica,sans-Serif" font-size="10.00">m_timing_rate</text>
<text text-anchor="start" x="7.5" y="-1091" font-family="Helvetica,sans-Serif" font-size="10.00">&#45;</text>
<text text-anchor="start" x="18" y="-1091" font-family="Helvetica,sans-Serif" font-size="10.00">m_active_channels_mask</text>
<text text-anchor="start" x="7.5" y="-1076" font-family="Helvetica,sans-Serif" font-size="10.00">&#45;</text>
<text text-anchor="start" x="18" y="-1076" font-family="Helvetica,sans-Serif" font-size="10.00">m_buffer_count</text>
<text text-anchor="start" x="7.5" y="-1061" font-family="Helvetica,sans-Serif" font-size="10.00">&#45;</text>
<text text-anchor="start" x="18" y="-1061" font-family="Helvetica,sans-Serif" font-size="10.00">m_buffer_processed</text>
<text text-anchor="start" x="7.5" y="-1046" font-family="Helvetica,sans-Serif" font-size="10.00">&#45;</text>
<text text-anchor="start" x="18" y="-1046" font-family="Helvetica,sans-Serif" font-size="10.00">m_buffer_reset_count</text>
<text text-anchor="start" x="7.5" y="-1031" font-family="Helvetica,sans-Serif" font-size="10.00">&#45;</text>
<text text-anchor="start" x="18" y="-1031" font-family="Helvetica,sans-Serif" font-size="10.00">m_pending_reset_mask</text>
<text text-anchor="start" x="7.5" y="-1016" font-family="Helvetica,sans-Serif" font-size="10.00">&#45;</text>
<text text-anchor="start" x="18" y="-1016" font-family="Helvetica,sans-Serif" font-size="10.00">m_routing_state</text>
<text text-anchor="start" x="7.5" y="-1001" font-family="Helvetica,sans-Serif" font-size="10.00">&#45;</text>
<text text-anchor="start" x="18" y="-1001" font-family="Helvetica,sans-Serif" font-size="10.00">m_snapshot_context_id</text>
<text text-anchor="start" x="5" y="-986" font-family="Helvetica,sans-Serif" font-size="10.00">+</text>
<text text-anchor="start" x="18" y="-986" font-family="Helvetica,sans-Serif" font-size="10.00">add_buffer_reference()</text>
<text text-anchor="start" x="5" y="-971" font-family="Helvetica,sans-Serif" font-size="10.00">+</text>
<text text-anchor="start" x="18" y="-971" font-family="Helvetica,sans-Serif" font-size="10.00">get_active_snapshot</text>
<text text-anchor="start" x="18" y="-960" font-family="Helvetica,sans-Serif" font-size="10.00">_context()</text>
<text text-anchor="start" x="5" y="-945" font-family="Helvetica,sans-Serif" font-size="10.00">+</text>
<text text-anchor="start" x="18" y="-945" font-family="Helvetica,sans-Serif" font-size="10.00">get_channel_mask()</text>
<text text-anchor="start" x="5" y="-930" font-family="Helvetica,sans-Serif" font-size="10.00">+</text>
<text text-anchor="start" x="18" y="-930" font-family="Helvetica,sans-Serif" font-size="10.00">get_frame_rate()</text>
<text text-anchor="start" x="5" y="-915" font-family="Helvetica,sans-Serif" font-size="10.00">+</text>
<text text-anchor="start" x="18" y="-915" font-family="Helvetica,sans-Serif" font-size="10.00">get_gpu_data_buffer()</text>
<text text-anchor="start" x="5" y="-900" font-family="Helvetica,sans-Serif" font-size="10.00">+</text>
<text text-anchor="start" x="18" y="-900" font-family="Helvetica,sans-Serif" font-size="10.00">get_last_context()</text>
<text text-anchor="start" x="5" y="-885" font-family="Helvetica,sans-Serif" font-size="10.00">+</text>
<text text-anchor="start" x="18" y="-885" font-family="Helvetica,sans-Serif" font-size="10.00">get_last_output()</text>
<text text-anchor="start" x="5" y="-870" font-family="Helvetica,sans-Serif" font-size="10.00">+</text>
<text text-anchor="start" x="18" y="-870" font-family="Helvetica,sans-Serif" font-size="10.00">get_modulator_tree()</text>
<text text-anchor="start" x="5" y="-855" font-family="Helvetica,sans-Serif" font-size="10.00">+</text>
<text text-anchor="start" x="18" y="-855" font-family="Helvetica,sans-Serif" font-size="10.00">get_modulators()</text>
<text text-anchor="start" x="5" y="-840" font-family="Helvetica,sans-Serif" font-size="10.00">+</text>
<text text-anchor="start" x="18" y="-840" font-family="Helvetica,sans-Serif" font-size="10.00">get_routing_state()</text>
<text text-anchor="start" x="18" y="-825" font-family="Helvetica,sans-Serif" font-size="10.00">and 35 more...</text>
<text text-anchor="start" x="5" y="-810" font-family="Helvetica,sans-Serif" font-size="10.00">#</text>
<text text-anchor="start" x="18" y="-810" font-family="Helvetica,sans-Serif" font-size="10.00">notify_tick()</text>
<text text-anchor="start" x="5" y="-795" font-family="Helvetica,sans-Serif" font-size="10.00">#</text>
<text text-anchor="start" x="18" y="-795" font-family="Helvetica,sans-Serif" font-size="10.00">reset_processed_state</text>
<text text-anchor="start" x="18" y="-784" font-family="Helvetica,sans-Serif" font-size="10.00">_internal()</text>
<polygon fill="#666666" stroke="#666666" points="1,-1322 1,-1322 149,-1322 149,-1322 1,-1322"/>
<polygon fill="#666666" stroke="#666666" points="1,-996 1,-996 16,-996 16,-996 1,-996"/>
<polygon fill="#666666" stroke="#666666" points="16,-996 16,-996 149,-996 149,-996 16,-996"/>
<polygon fill="none" stroke="#666666" points="1,-777 1,-1339 149,-1339 149,-777 1,-777"/>
</a>
</g>
</g>
<!-- Node3&#45;&gt;Node2 -->
<g id="edge2_Node000002_Node000003" class="edge">
<title>Node3&#45;&gt;Node2</title>
<g id="a_edge2_Node000002_Node000003"><a xlink:title=" ">
<path fill="none" stroke="#63b8ff" d="M75,-766.62C75,-758 75,-749.52 75,-741.24"/>
<polygon fill="none" stroke="#63b8ff" points="71.5,-766.81 75,-776.81 78.5,-766.81 71.5,-766.81"/>
</a>
</g>
</g>
<!-- Node4 -->
<g id="Node000004" class="node">
<title>Node4</title>
<g id="a_Node000004"><a xlink:title=" ">
<polygon fill="white" stroke="transparent" points="286,-636 168,-636 168,-576 286,-576 286,-636"/>
<text text-anchor="start" x="173" y="-624" font-family="Helvetica,sans-Serif" font-size="10.00">std::enable_shared</text>
<text text-anchor="start" x="173" y="-613" font-family="Helvetica,sans-Serif" font-size="10.00">_from_this&lt; Phasor &gt;</text>
<text text-anchor="start" x="225" y="-598" font-family="Helvetica,sans-Serif" font-size="10.00"> </text>
<text text-anchor="start" x="225" y="-583" font-family="Helvetica,sans-Serif" font-size="10.00"> </text>
<polygon fill="#666666" stroke="#666666" points="168,-608 168,-608 286,-608 286,-608 168,-608"/>
<polygon fill="#666666" stroke="#666666" points="168,-593 168,-593 286,-593 286,-593 168,-593"/>
<polygon fill="none" stroke="#666666" points="168,-576 168,-636 286,-636 286,-576 168,-576"/>
</a>
</g>
</g>
<!-- Node4&#45;&gt;Node1 -->
<g id="edge3_Node000001_Node000004" class="edge">
<title>Node4&#45;&gt;Node1</title>
<g id="a_edge3_Node000001_Node000004"><a xlink:title=" ">
<path fill="none" stroke="#63b8ff" d="M219.35,-566.11C213.04,-533.99 203.52,-485.62 193.59,-435.08"/>
<polygon fill="none" stroke="#63b8ff" points="215.92,-566.81 221.29,-575.95 222.79,-565.46 215.92,-566.81"/>
</a>
</g>
</g>
</g>
</svg>

<g id="navigator" transform="translate(0 0)" fill="#404254">
  <rect fill="#f2f5e9" fill-opacity="0.5" stroke="#606060" stroke-width=".5" x="0" y="0" width="60" height="60"/>
  <use id="zoomplus" xlink:href="#zoomPlus" x="17" y="9" onmousedown="handleZoom(evt,'in')"/>
  <use id="zoomminus" xlink:href="#zoomMin" x="42" y="9" onmousedown="handleZoom(evt,'out')"/>
  <use id="reset" xlink:href="#resetDef" x="30" y="36" onmousedown="handleReset()"/>
   <use id="arrowup" xlink:href="#arrowUp" x="0" y="0" onmousedown="handlePan(0,-1)"/>
  <use id="arrowright" xlink:href="#arrowRight" x="0" y="0" onmousedown="handlePan(1,0)"/>
  <use id="arrowdown" xlink:href="#arrowDown" x="0" y="0" onmousedown="handlePan(0,1)"/>
  <use id="arrowleft" xlink:href="#arrowLeft" x="0" y="0" onmousedown="handlePan(-1,0)"/>
</g>
<svg viewBox="0 0 15 15" width="100%" height="30px" preserveAspectRatio="xMaxYMin meet">
 <g id="arrow_out" transform="scale(0.3 0.3)">
  <a xlink:href="classMayaFlux_1_1Nodes_1_1Generator_1_1Phasor__inherit__graph_org.svg" target="_base">
   <rect id="button" ry="5" rx="5" y="6" x="6" height="38" width="38"
        fill="#f2f5e9" fill-opacity="0.5" stroke="#606060" stroke-width="1.0"/>
   <path id="arrow"
     d="M 11.500037,31.436501 C 11.940474,20.09759 22.043105,11.32322 32.158766,21.979434 L 37.068811,17.246167 C 37.068811,17.246167 37.088388,32 37.088388,32 L 22.160133,31.978069 C 22.160133,31.978069 26.997745,27.140456 26.997745,27.140456 C 18.528582,18.264221 13.291696,25.230495 11.500037,31.436501 z"
     style="fill:#404040;"/>
  </a>
 </g>
</svg>

<style type='text/css'>
<![CDATA[
[data-mouse-over-selected='false'] { opacity: 0.7; }
[data-mouse-over-selected='true']  { opacity: 1.0; }
]]>
</style>
<script type="application/ecmascript"><![CDATA[
document.addEventListener('DOMContentLoaded', (event) => {
  highlightEdges();
  highlightAdjacentNodes();
});
]]></script>
</svg>
