<?xml version="1.0" encoding="UTF-8" standalone="no"?>
<!DOCTYPE svg PUBLIC "-//W3C//DTD SVG 1.1//EN"
 "http://www.w3.org/Graphics/SVG/1.1/DTD/svg11.dtd">
<!-- Generated by graphviz version 2.43.0 (0)
 -->
<!-- Title: MayaFlux::Buffers::MeshBuffer Pages: 1 -->
<svg width="171pt" height="1150pt"
 viewBox="0.00 0.00 171.00 1150.00" xmlns="http://www.w3.org/2000/svg" xmlns:xlink="http://www.w3.org/1999/xlink">
<g id="graph0" class="graph" transform="scale(1 1) rotate(0) translate(4 1146)">
<title>MayaFlux::Buffers::MeshBuffer</title>
<!-- Node1 -->
<g id="Node000001" class="node">
<title>Node1</title>
<g id="a_Node000001"><a xlink:title="VKBuffer subclass that owns a MeshData and manages its GPU upload.">
<polygon fill="#999999" stroke="transparent" points="148.5,-300 14.5,-300 14.5,0 148.5,0 148.5,-300"/>
<text text-anchor="start" x="34" y="-288" font-family="Helvetica,sans-Serif" font-size="10.00">MayaFlux::Buffers::</text>
<text text-anchor="start" x="53.5" y="-277" font-family="Helvetica,sans-Serif" font-size="10.00">MeshBuffer</text>
<text text-anchor="start" x="21" y="-262" font-family="Helvetica,sans-Serif" font-size="10.00">&#45;</text>
<text text-anchor="start" x="31.5" y="-262" font-family="Helvetica,sans-Serif" font-size="10.00">m_diffuse_binding</text>
<text text-anchor="start" x="21" y="-247" font-family="Helvetica,sans-Serif" font-size="10.00">&#45;</text>
<text text-anchor="start" x="31.5" y="-247" font-family="Helvetica,sans-Serif" font-size="10.00">m_diffuse_texture</text>
<text text-anchor="start" x="21" y="-232" font-family="Helvetica,sans-Serif" font-size="10.00">&#45;</text>
<text text-anchor="start" x="31.5" y="-232" font-family="Helvetica,sans-Serif" font-size="10.00">m_indices_dirty</text>
<text text-anchor="start" x="21" y="-217" font-family="Helvetica,sans-Serif" font-size="10.00">&#45;</text>
<text text-anchor="start" x="31.5" y="-217" font-family="Helvetica,sans-Serif" font-size="10.00">m_mesh_data</text>
<text text-anchor="start" x="21" y="-202" font-family="Helvetica,sans-Serif" font-size="10.00">&#45;</text>
<text text-anchor="start" x="31.5" y="-202" font-family="Helvetica,sans-Serif" font-size="10.00">m_mesh_processor</text>
<text text-anchor="start" x="21" y="-187" font-family="Helvetica,sans-Serif" font-size="10.00">&#45;</text>
<text text-anchor="start" x="31.5" y="-187" font-family="Helvetica,sans-Serif" font-size="10.00">m_render_processor</text>
<text text-anchor="start" x="21" y="-172" font-family="Helvetica,sans-Serif" font-size="10.00">&#45;</text>
<text text-anchor="start" x="31.5" y="-172" font-family="Helvetica,sans-Serif" font-size="10.00">m_vertices_dirty</text>
<text text-anchor="start" x="18.5" y="-157" font-family="Helvetica,sans-Serif" font-size="10.00">+</text>
<text text-anchor="start" x="31.5" y="-157" font-family="Helvetica,sans-Serif" font-size="10.00">access()</text>
<text text-anchor="start" x="18.5" y="-142" font-family="Helvetica,sans-Serif" font-size="10.00">+</text>
<text text-anchor="start" x="31.5" y="-142" font-family="Helvetica,sans-Serif" font-size="10.00">bind_diffuse_texture()</text>
<text text-anchor="start" x="18.5" y="-127" font-family="Helvetica,sans-Serif" font-size="10.00">+</text>
<text text-anchor="start" x="31.5" y="-127" font-family="Helvetica,sans-Serif" font-size="10.00">clear_indices_dirty()</text>
<text text-anchor="start" x="18.5" y="-112" font-family="Helvetica,sans-Serif" font-size="10.00">+</text>
<text text-anchor="start" x="31.5" y="-112" font-family="Helvetica,sans-Serif" font-size="10.00">clear_vertices_dirty()</text>
<text text-anchor="start" x="18.5" y="-97" font-family="Helvetica,sans-Serif" font-size="10.00">+</text>
<text text-anchor="start" x="31.5" y="-97" font-family="Helvetica,sans-Serif" font-size="10.00">get_diffuse_texture()</text>
<text text-anchor="start" x="18.5" y="-82" font-family="Helvetica,sans-Serif" font-size="10.00">+</text>
<text text-anchor="start" x="31.5" y="-82" font-family="Helvetica,sans-Serif" font-size="10.00">get_face_count()</text>
<text text-anchor="start" x="18.5" y="-67" font-family="Helvetica,sans-Serif" font-size="10.00">+</text>
<text text-anchor="start" x="31.5" y="-67" font-family="Helvetica,sans-Serif" font-size="10.00">get_index_count()</text>
<text text-anchor="start" x="18.5" y="-52" font-family="Helvetica,sans-Serif" font-size="10.00">+</text>
<text text-anchor="start" x="31.5" y="-52" font-family="Helvetica,sans-Serif" font-size="10.00">get_mesh_processor()</text>
<text text-anchor="start" x="18.5" y="-37" font-family="Helvetica,sans-Serif" font-size="10.00">+</text>
<text text-anchor="start" x="31.5" y="-37" font-family="Helvetica,sans-Serif" font-size="10.00">get_render_processor()</text>
<text text-anchor="start" x="18.5" y="-22" font-family="Helvetica,sans-Serif" font-size="10.00">+</text>
<text text-anchor="start" x="31.5" y="-22" font-family="Helvetica,sans-Serif" font-size="10.00">get_submeshes()</text>
<text text-anchor="start" x="31.5" y="-7" font-family="Helvetica,sans-Serif" font-size="10.00">and 12 more...</text>
<polygon fill="#666666" stroke="#666666" points="14.5,-272 14.5,-272 148.5,-272 148.5,-272 14.5,-272"/>
<polygon fill="#666666" stroke="#666666" points="14.5,-167 14.5,-167 29.5,-167 29.5,-167 14.5,-167"/>
<polygon fill="#666666" stroke="#666666" points="29.5,-167 29.5,-167 148.5,-167 148.5,-167 29.5,-167"/>
<polygon fill="none" stroke="#666666" points="14.5,0 14.5,-300 148.5,-300 148.5,0 14.5,0"/>
</a>
</g>
</g>
<!-- Node2 -->
<g id="Node000002" class="node">
<title>Node2</title>
<g id="a_Node000002"><a xlink:href="classMayaFlux_1_1Buffers_1_1VKBuffer.html" target="_top" xlink:title="Vulkan&#45;backed buffer wrapper used in processing chains.">
<polygon fill="white" stroke="transparent" points="163,-800 0,-800 0,-336 163,-336 163,-800"/>
<text text-anchor="start" x="34.5" y="-788" font-family="Helvetica,sans-Serif" font-size="10.00">MayaFlux::Buffers::</text>
<text text-anchor="start" x="60.5" y="-777" font-family="Helvetica,sans-Serif" font-size="10.00">VKBuffer</text>
<text text-anchor="start" x="4.5" y="-762" font-family="Helvetica,sans-Serif" font-size="10.00">#</text>
<text text-anchor="start" x="17.5" y="-762" font-family="Helvetica,sans-Serif" font-size="10.00">m_render_config</text>
<text text-anchor="start" x="4.5" y="-747" font-family="Helvetica,sans-Serif" font-size="10.00">#</text>
<text text-anchor="start" x="17.5" y="-747" font-family="Helvetica,sans-Serif" font-size="10.00">m_render_config_dirty</text>
<text text-anchor="start" x="7" y="-732" font-family="Helvetica,sans-Serif" font-size="10.00">&#45;</text>
<text text-anchor="start" x="17.5" y="-732" font-family="Helvetica,sans-Serif" font-size="10.00">m_default_processor</text>
<text text-anchor="start" x="7" y="-717" font-family="Helvetica,sans-Serif" font-size="10.00">&#45;</text>
<text text-anchor="start" x="17.5" y="-717" font-family="Helvetica,sans-Serif" font-size="10.00">m_dimensions</text>
<text text-anchor="start" x="7" y="-702" font-family="Helvetica,sans-Serif" font-size="10.00">&#45;</text>
<text text-anchor="start" x="17.5" y="-702" font-family="Helvetica,sans-Serif" font-size="10.00">m_dirty_ranges</text>
<text text-anchor="start" x="7" y="-687" font-family="Helvetica,sans-Serif" font-size="10.00">&#45;</text>
<text text-anchor="start" x="17.5" y="-687" font-family="Helvetica,sans-Serif" font-size="10.00">m_engine_context</text>
<text text-anchor="start" x="7" y="-672" font-family="Helvetica,sans-Serif" font-size="10.00">&#45;</text>
<text text-anchor="start" x="17.5" y="-672" font-family="Helvetica,sans-Serif" font-size="10.00">m_has_data</text>
<text text-anchor="start" x="7" y="-657" font-family="Helvetica,sans-Serif" font-size="10.00">&#45;</text>
<text text-anchor="start" x="17.5" y="-657" font-family="Helvetica,sans-Serif" font-size="10.00">m_internal_usage</text>
<text text-anchor="start" x="7" y="-642" font-family="Helvetica,sans-Serif" font-size="10.00">&#45;</text>
<text text-anchor="start" x="17.5" y="-642" font-family="Helvetica,sans-Serif" font-size="10.00">m_invalid_ranges</text>
<text text-anchor="start" x="7" y="-627" font-family="Helvetica,sans-Serif" font-size="10.00">&#45;</text>
<text text-anchor="start" x="17.5" y="-627" font-family="Helvetica,sans-Serif" font-size="10.00">m_is_processing</text>
<text text-anchor="start" x="7" y="-612" font-family="Helvetica,sans-Serif" font-size="10.00">&#45;</text>
<text text-anchor="start" x="17.5" y="-612" font-family="Helvetica,sans-Serif" font-size="10.00">m_modality</text>
<text text-anchor="start" x="7" y="-597" font-family="Helvetica,sans-Serif" font-size="10.00">&#45;</text>
<text text-anchor="start" x="17.5" y="-597" font-family="Helvetica,sans-Serif" font-size="10.00">m_needs_depth</text>
<text text-anchor="start" x="17.5" y="-582" font-family="Helvetica,sans-Serif" font-size="10.00">and 11 more...</text>
<text text-anchor="start" x="4.5" y="-567" font-family="Helvetica,sans-Serif" font-size="10.00">+</text>
<text text-anchor="start" x="17.5" y="-567" font-family="Helvetica,sans-Serif" font-size="10.00">clear()</text>
<text text-anchor="start" x="4.5" y="-552" font-family="Helvetica,sans-Serif" font-size="10.00">+</text>
<text text-anchor="start" x="17.5" y="-552" font-family="Helvetica,sans-Serif" font-size="10.00">clear_pipeline_commands()</text>
<text text-anchor="start" x="4.5" y="-537" font-family="Helvetica,sans-Serif" font-size="10.00">+</text>
<text text-anchor="start" x="17.5" y="-537" font-family="Helvetica,sans-Serif" font-size="10.00">clear_vertex_layout()</text>
<text text-anchor="start" x="4.5" y="-522" font-family="Helvetica,sans-Serif" font-size="10.00">+</text>
<text text-anchor="start" x="17.5" y="-522" font-family="Helvetica,sans-Serif" font-size="10.00">clone_to()</text>
<text text-anchor="start" x="4.5" y="-507" font-family="Helvetica,sans-Serif" font-size="10.00">+</text>
<text text-anchor="start" x="17.5" y="-507" font-family="Helvetica,sans-Serif" font-size="10.00">clone_to()</text>
<text text-anchor="start" x="4.5" y="-492" font-family="Helvetica,sans-Serif" font-size="10.00">+</text>
<text text-anchor="start" x="17.5" y="-492" font-family="Helvetica,sans-Serif" font-size="10.00">enforce_default_processing()</text>
<text text-anchor="start" x="4.5" y="-477" font-family="Helvetica,sans-Serif" font-size="10.00">+</text>
<text text-anchor="start" x="17.5" y="-477" font-family="Helvetica,sans-Serif" font-size="10.00">force_internal_usage()</text>
<text text-anchor="start" x="4.5" y="-462" font-family="Helvetica,sans-Serif" font-size="10.00">+</text>
<text text-anchor="start" x="17.5" y="-462" font-family="Helvetica,sans-Serif" font-size="10.00">get_and_clear_dirty</text>
<text text-anchor="start" x="17.5" y="-451" font-family="Helvetica,sans-Serif" font-size="10.00">_ranges()</text>
<text text-anchor="start" x="4.5" y="-436" font-family="Helvetica,sans-Serif" font-size="10.00">+</text>
<text text-anchor="start" x="17.5" y="-436" font-family="Helvetica,sans-Serif" font-size="10.00">get_and_clear_invalid</text>
<text text-anchor="start" x="17.5" y="-425" font-family="Helvetica,sans-Serif" font-size="10.00">_ranges()</text>
<text text-anchor="start" x="4.5" y="-410" font-family="Helvetica,sans-Serif" font-size="10.00">+</text>
<text text-anchor="start" x="17.5" y="-410" font-family="Helvetica,sans-Serif" font-size="10.00">get_buffer()</text>
<text text-anchor="start" x="17.5" y="-395" font-family="Helvetica,sans-Serif" font-size="10.00">and 65 more...</text>
<text text-anchor="start" x="4.5" y="-380" font-family="Helvetica,sans-Serif" font-size="10.00">#</text>
<text text-anchor="start" x="17.5" y="-380" font-family="Helvetica,sans-Serif" font-size="10.00">set_default_render</text>
<text text-anchor="start" x="17.5" y="-369" font-family="Helvetica,sans-Serif" font-size="10.00">_config()</text>
<text text-anchor="start" x="7" y="-354" font-family="Helvetica,sans-Serif" font-size="10.00">&#45;</text>
<text text-anchor="start" x="17.5" y="-354" font-family="Helvetica,sans-Serif" font-size="10.00">infer_dimensions_from</text>
<text text-anchor="start" x="17.5" y="-343" font-family="Helvetica,sans-Serif" font-size="10.00">_data()</text>
<polygon fill="#666666" stroke="#666666" points="0.5,-772 0.5,-772 163.5,-772 163.5,-772 0.5,-772"/>
<polygon fill="#666666" stroke="#666666" points="0.5,-577 0.5,-577 15.5,-577 15.5,-577 0.5,-577"/>
<polygon fill="#666666" stroke="#666666" points="15.5,-577 15.5,-577 163.5,-577 163.5,-577 15.5,-577"/>
<polygon fill="none" stroke="#666666" points="0,-336 0,-800 163,-800 163,-336 0,-336"/>
</a>
</g>
</g>
<!-- Node2&#45;&gt;Node1 -->
<g id="edge1_Node000001_Node000002" class="edge">
<title>Node2&#45;&gt;Node1</title>
<g id="a_edge1_Node000001_Node000002"><a xlink:title=" ">
<path fill="none" stroke="#63b8ff" d="M81.5,-325.74C81.5,-317.12 81.5,-308.58 81.5,-300.18"/>
<polygon fill="none" stroke="#63b8ff" points="78,-325.89 81.5,-335.89 85,-325.89 78,-325.89"/>
</a>
</g>
</g>
<!-- Node3 -->
<g id="Node000003" class="node">
<title>Node3</title>
<g id="a_Node000003"><a xlink:href="classMayaFlux_1_1Buffers_1_1Buffer.html" target="_top" xlink:title="Backend&#45;agnostic interface for sequential data storage and transformation.">
<polygon fill="white" stroke="transparent" points="163,-1046 0,-1046 0,-836 163,-836 163,-1046"/>
<text text-anchor="start" x="34.5" y="-1034" font-family="Helvetica,sans-Serif" font-size="10.00">MayaFlux::Buffers::</text>
<text text-anchor="start" x="67" y="-1023" font-family="Helvetica,sans-Serif" font-size="10.00">Buffer</text>
<text text-anchor="start" x="80" y="-1008" font-family="Helvetica,sans-Serif" font-size="10.00"> </text>
<text text-anchor="start" x="4.5" y="-993" font-family="Helvetica,sans-Serif" font-size="10.00">+</text>
<text text-anchor="start" x="17.5" y="-993" font-family="Helvetica,sans-Serif" font-size="10.00">clear()</text>
<text text-anchor="start" x="4.5" y="-978" font-family="Helvetica,sans-Serif" font-size="10.00">+</text>
<text text-anchor="start" x="17.5" y="-978" font-family="Helvetica,sans-Serif" font-size="10.00">clone_to()</text>
<text text-anchor="start" x="4.5" y="-963" font-family="Helvetica,sans-Serif" font-size="10.00">+</text>
<text text-anchor="start" x="17.5" y="-963" font-family="Helvetica,sans-Serif" font-size="10.00">enforce_default_processing()</text>
<text text-anchor="start" x="4.5" y="-948" font-family="Helvetica,sans-Serif" font-size="10.00">+</text>
<text text-anchor="start" x="17.5" y="-948" font-family="Helvetica,sans-Serif" font-size="10.00">force_internal_usage()</text>
<text text-anchor="start" x="4.5" y="-933" font-family="Helvetica,sans-Serif" font-size="10.00">+</text>
<text text-anchor="start" x="17.5" y="-933" font-family="Helvetica,sans-Serif" font-size="10.00">get_default_processor()</text>
<text text-anchor="start" x="4.5" y="-918" font-family="Helvetica,sans-Serif" font-size="10.00">+</text>
<text text-anchor="start" x="17.5" y="-918" font-family="Helvetica,sans-Serif" font-size="10.00">get_processing_chain()</text>
<text text-anchor="start" x="4.5" y="-903" font-family="Helvetica,sans-Serif" font-size="10.00">+</text>
<text text-anchor="start" x="17.5" y="-903" font-family="Helvetica,sans-Serif" font-size="10.00">has_data_for_cycle()</text>
<text text-anchor="start" x="4.5" y="-888" font-family="Helvetica,sans-Serif" font-size="10.00">+</text>
<text text-anchor="start" x="17.5" y="-888" font-family="Helvetica,sans-Serif" font-size="10.00">is_internal_only()</text>
<text text-anchor="start" x="4.5" y="-873" font-family="Helvetica,sans-Serif" font-size="10.00">+</text>
<text text-anchor="start" x="17.5" y="-873" font-family="Helvetica,sans-Serif" font-size="10.00">is_processing()</text>
<text text-anchor="start" x="4.5" y="-858" font-family="Helvetica,sans-Serif" font-size="10.00">+</text>
<text text-anchor="start" x="17.5" y="-858" font-family="Helvetica,sans-Serif" font-size="10.00">mark_for_processing()</text>
<text text-anchor="start" x="17.5" y="-843" font-family="Helvetica,sans-Serif" font-size="10.00">and 9 more...</text>
<polygon fill="#666666" stroke="#666666" points="0.5,-1018 0.5,-1018 163.5,-1018 163.5,-1018 0.5,-1018"/>
<polygon fill="#666666" stroke="#666666" points="0.5,-1003 0.5,-1003 163.5,-1003 163.5,-1003 0.5,-1003"/>
<polygon fill="none" stroke="#666666" points="0,-836 0,-1046 163,-1046 163,-836 0,-836"/>
</a>
</g>
</g>
<!-- Node3&#45;&gt;Node2 -->
<g id="edge2_Node000002_Node000003" class="edge">
<title>Node3&#45;&gt;Node2</title>
<g id="a_edge2_Node000002_Node000003"><a xlink:title=" ">
<path fill="none" stroke="#63b8ff" d="M81.5,-825.42C81.5,-817.24 81.5,-808.84 81.5,-800.3"/>
<polygon fill="none" stroke="#63b8ff" points="78,-825.67 81.5,-835.67 85,-825.67 78,-825.67"/>
</a>
</g>
</g>
<!-- Node4 -->
<g id="Node000004" class="node">
<title>Node4</title>
<g id="a_Node000004"><a xlink:title=" ">
<polygon fill="white" stroke="transparent" points="138.5,-1142 24.5,-1142 24.5,-1082 138.5,-1082 138.5,-1142"/>
<text text-anchor="start" x="29.5" y="-1130" font-family="Helvetica,sans-Serif" font-size="10.00">std::enable_shared</text>
<text text-anchor="start" x="29.5" y="-1119" font-family="Helvetica,sans-Serif" font-size="10.00">_from_this&lt; Buffer &gt;</text>
<text text-anchor="start" x="79.5" y="-1104" font-family="Helvetica,sans-Serif" font-size="10.00"> </text>
<text text-anchor="start" x="79.5" y="-1089" font-family="Helvetica,sans-Serif" font-size="10.00"> </text>
<polygon fill="#666666" stroke="#666666" points="24.5,-1114 24.5,-1114 138.5,-1114 138.5,-1114 24.5,-1114"/>
<polygon fill="#666666" stroke="#666666" points="24.5,-1099 24.5,-1099 138.5,-1099 138.5,-1099 24.5,-1099"/>
<polygon fill="none" stroke="#666666" points="24.5,-1082 24.5,-1142 138.5,-1142 138.5,-1082 24.5,-1082"/>
</a>
</g>
</g>
<!-- Node4&#45;&gt;Node3 -->
<g id="edge3_Node000003_Node000004" class="edge">
<title>Node4&#45;&gt;Node3</title>
<g id="a_edge3_Node000003_Node000004"><a xlink:title=" ">
<path fill="none" stroke="#63b8ff" d="M81.5,-1071.94C81.5,-1063.96 81.5,-1055.21 81.5,-1046.15"/>
<polygon fill="none" stroke="#63b8ff" points="78,-1071.95 81.5,-1081.95 85,-1071.95 78,-1071.95"/>
</a>
</g>
</g>
</g>
</svg>
