<?xml version="1.0" encoding="UTF-8" standalone="no"?>
<!DOCTYPE svg PUBLIC "-//W3C//DTD SVG 1.1//EN"
 "http://www.w3.org/Graphics/SVG/1.1/DTD/svg11.dtd">
<!-- Generated by graphviz version 2.43.0 (0)
 -->
<!-- Title: MayaFlux::Kriya::EventAwaiter::try_resume Pages: 1 -->
<svg width="375pt" height="86pt"
 viewBox="0.00 0.00 375.00 86.00" xmlns="http://www.w3.org/2000/svg" xmlns:xlink="http://www.w3.org/1999/xlink">
<g id="graph0" class="graph" transform="scale(1 1) rotate(0) translate(4 82)">
<title>MayaFlux::Kriya::EventAwaiter::try_resume</title>
<!-- Node1 -->
<g id="Node000001" class="node">
<title>Node1</title>
<g id="a_Node000001"><a xlink:title="Called by EventSource when event arrives.">
<polygon fill="#999999" stroke="#666666" points="167,-54 0,-54 0,-24 167,-24 167,-54"/>
<text text-anchor="start" x="8" y="-42" font-family="Helvetica,sans-Serif" font-size="10.00">MayaFlux::Kriya::EventAwaiter</text>
<text text-anchor="middle" x="83.5" y="-31" font-family="Helvetica,sans-Serif" font-size="10.00">::try_resume</text>
</a>
</g>
</g>
<!-- Node2 -->
<g id="Node000002" class="node">
<title>Node2</title>
<g id="a_Node000002"><a xlink:href="classMayaFlux_1_1Vruta_1_1EventSource_a5f09378b3daa7136d3940f664a55331f.html#a5f09378b3daa7136d3940f664a55331f" target="_top" xlink:title="Pop event matching filter from queue.">
<polygon fill="white" stroke="#666666" points="367,-78 203,-78 203,-48 367,-48 367,-78"/>
<text text-anchor="start" x="211" y="-66" font-family="Helvetica,sans-Serif" font-size="10.00">MayaFlux::Vruta::EventSource</text>
<text text-anchor="middle" x="285" y="-55" font-family="Helvetica,sans-Serif" font-size="10.00">::pop_event</text>
</a>
</g>
</g>
<!-- Node1&#45;&gt;Node2 -->
<g id="edge1_Node000001_Node000002" class="edge">
<title>Node1&#45;&gt;Node2</title>
<g id="a_edge1_Node000001_Node000002"><a xlink:title=" ">
<path fill="none" stroke="#63b8ff" d="M167.08,-48.93C175.56,-49.95 184.2,-50.99 192.77,-52.02"/>
<polygon fill="#63b8ff" stroke="#63b8ff" points="192.42,-55.51 202.76,-53.23 193.25,-48.56 192.42,-55.51"/>
</a>
</g>
</g>
<!-- Node3 -->
<g id="Node000003" class="node">
<title>Node3</title>
<g id="a_Node000003"><a xlink:href="classMayaFlux_1_1Vruta_1_1EventSource_ae4eeb6c32a8568bf43318001c7354f4a.html#ae4eeb6c32a8568bf43318001c7354f4a" target="_top" xlink:title=" ">
<polygon fill="white" stroke="#666666" points="367,-30 203,-30 203,0 367,0 367,-30"/>
<text text-anchor="start" x="211" y="-18" font-family="Helvetica,sans-Serif" font-size="10.00">MayaFlux::Vruta::EventSource</text>
<text text-anchor="middle" x="285" y="-7" font-family="Helvetica,sans-Serif" font-size="10.00">::unregister_waiter</text>
</a>
</g>
</g>
<!-- Node1&#45;&gt;Node3 -->
<g id="edge2_Node000001_Node000003" class="edge">
<title>Node1&#45;&gt;Node3</title>
<g id="a_edge2_Node000001_Node000003"><a xlink:title=" ">
<path fill="none" stroke="#63b8ff" d="M167.08,-29.07C175.56,-28.05 184.2,-27.01 192.77,-25.98"/>
<polygon fill="#63b8ff" stroke="#63b8ff" points="193.25,-29.44 202.76,-24.77 192.42,-22.49 193.25,-29.44"/>
</a>
</g>
</g>
</g>
</svg>
