<?xml version="1.0" encoding="UTF-8" standalone="no"?>
<!DOCTYPE svg PUBLIC "-//W3C//DTD SVG 1.1//EN"
 "http://www.w3.org/Graphics/SVG/1.1/DTD/svg11.dtd">
<!-- Generated by graphviz version 2.43.0 (0)
 -->
<!-- Title: MayaFlux::Registry::BackendRegistry::register_service Pages: 1 -->
<!--zoomable 182 -->

<svg id="main" version="1.1" xmlns="http://www.w3.org/2000/svg" xmlns:xlink="http://www.w3.org/1999/xlink" xml:space="preserve" onload="init(evt)">
<style type="text/css"><![CDATA[
.node, .edge {opacity: 0.7;}
.node.selected, .edge.selected {opacity: 1;}
.edge:hover path { stroke: red; }
.edge:hover polygon { stroke: red; fill: red; }
]]></style>

<defs>
  <circle id="rim" cx="0" cy="0" r="7"/>
  <circle id="rim2" cx="0" cy="0" r="3.5"/>
  <g id="zoomPlus">
    <use xlink:href="#rim" fill="#404040"><set attributeName="fill" to="#808080" begin="zoomplus.mouseover" end="zoomplus.mouseout"/></use>
    <path d="M-4,0h8M0,-4v8" fill="none" stroke="white" stroke-width="1.5" pointer-events="none"/>
  </g>
  <g id="zoomMin">
    <use xlink:href="#rim" fill="#404040"><set attributeName="fill" to="#808080" begin="zoomminus.mouseover" end="zoomminus.mouseout"/></use>
    <path d="M-4,0h8" fill="none" stroke="white" stroke-width="1.5" pointer-events="none"/>
  </g>
  <g id="arrowUp" transform="translate(30 24)">
    <use xlink:href="#rim"/>
    <path pointer-events="none" fill="none" stroke="white" stroke-width="1.5" d="M0,-3.0v7 M-2.5,-0.5L0,-3.0L2.5,-0.5"/>
  </g>
  <g id="arrowRight" transform="rotate(90) translate(36 -43)">
    <use xlink:href="#rim"/>
    <path pointer-events="none" fill="none" stroke="white" stroke-width="1.5" d="M0,-3.0v7 M-2.5,-0.5L0,-3.0L2.5,-0.5"/>
  </g>
  <g id="arrowDown" transform="rotate(180) translate(-30 -48)">
    <use xlink:href="#rim"/>
    <path pointer-events="none" fill="none" stroke="white" stroke-width="1.5" d="M0,-3.0v7 M-2.5,-0.5L0,-3.0L2.5,-0.5"/>
  </g>
  <g id="arrowLeft" transform="rotate(270) translate(-36 17)">
    <use xlink:href="#rim"/>
    <path pointer-events="none" fill="none" stroke="white" stroke-width="1.5" d="M0,-3.0v7 M-2.5,-0.5L0,-3.0L2.5,-0.5"/>
  </g>
  <g id="resetDef">
    <use xlink:href="#rim2" fill="#404040"><set attributeName="fill" to="#808080" begin="reset.mouseover" end="reset.mouseout"/></use>
  </g>
</defs>
<script type="application/ecmascript">
var viewWidth = 589;
var viewHeight = 182;
var sectionId = 'dynsection-0';
</script>
<script type="application/ecmascript" xlink:href="svg.min.js"/>
<svg id="graph" class="graph">
<g id="viewport">
<title>MayaFlux::Registry::BackendRegistry::register_service</title>
<!-- Node1 -->
<g id="Node000001" class="node">
<title>Node1</title>
<g id="a_Node000001"><a xlink:title="Register a backend service capability.">
<polygon fill="#999999" stroke="#666666" points="581,-107.5 434,-107.5 434,-66.5 581,-66.5 581,-107.5"/>
<text text-anchor="start" x="442" y="-95.5" font-family="Helvetica,sans-Serif" font-size="10.00">MayaFlux::Registry</text>
<text text-anchor="start" x="442" y="-84.5" font-family="Helvetica,sans-Serif" font-size="10.00">::BackendRegistry::register</text>
<text text-anchor="middle" x="507.5" y="-73.5" font-family="Helvetica,sans-Serif" font-size="10.00">_service</text>
</a>
</g>
</g>
<!-- Node2 -->
<g id="Node000002" class="node">
<title>Node2</title>
<g id="a_Node000002"><a xlink:href="classMayaFlux_1_1IO_1_1IOManager_ae5642453cd1ac1311cee14f7ff9b6278.html#ae5642453cd1ac1311cee14f7ff9b6278" target="_top" xlink:title="Construct IOManager and register the IOService into BackendRegistry.">
<polygon fill="white" stroke="#666666" points="377.5,-174 237.5,-174 237.5,-144 377.5,-144 377.5,-174"/>
<text text-anchor="start" x="245.5" y="-162" font-family="Helvetica,sans-Serif" font-size="10.00">MayaFlux::IO::IOManager</text>
<text text-anchor="middle" x="307.5" y="-151" font-family="Helvetica,sans-Serif" font-size="10.00">::IOManager</text>
</a>
</g>
</g>
<!-- Node1&#45;&gt;Node2 -->
<g id="edge1_Node000001_Node000002" class="edge">
<title>Node1&#45;&gt;Node2</title>
<g id="a_edge1_Node000001_Node000002"><a xlink:title=" ">
<path fill="none" stroke="#63b8ff" d="M454.52,-111.95C436.82,-119.92 416.77,-128.38 398,-135 388.9,-138.21 379.15,-141.24 369.55,-143.99"/>
<polygon fill="#63b8ff" stroke="#63b8ff" points="456.44,-114.92 464.08,-107.59 453.53,-108.55 456.44,-114.92"/>
</a>
</g>
</g>
<!-- Node3 -->
<g id="Node000003" class="node">
<title>Node3</title>
<g id="a_Node000003"><a xlink:href="classMayaFlux_1_1Core_1_1AudioSubsystem_a2ada5fcceecc70a2a49005d51d1977ee.html#a2ada5fcceecc70a2a49005d51d1977ee" target="_top" xlink:title=" ">
<polygon fill="white" stroke="#666666" points="398,-126 217,-126 217,-96 398,-96 398,-126"/>
<text text-anchor="start" x="225" y="-114" font-family="Helvetica,sans-Serif" font-size="10.00">MayaFlux::Core::AudioSubsystem</text>
<text text-anchor="middle" x="307.5" y="-103" font-family="Helvetica,sans-Serif" font-size="10.00">::register_backend_service</text>
</a>
</g>
</g>
<!-- Node1&#45;&gt;Node3 -->
<g id="edge2_Node000001_Node000003" class="edge">
<title>Node1&#45;&gt;Node3</title>
<g id="a_edge2_Node000001_Node000003"><a xlink:title=" ">
<path fill="none" stroke="#63b8ff" d="M423.73,-97.03C415.32,-98.05 406.75,-99.09 398.27,-100.12"/>
<polygon fill="#63b8ff" stroke="#63b8ff" points="424.39,-100.48 433.9,-95.8 423.55,-93.53 424.39,-100.48"/>
</a>
</g>
</g>
<!-- Node5 -->
<g id="Node000005" class="node">
<title>Node5</title>
<g id="a_Node000005"><a xlink:href="classMayaFlux_1_1IO_1_1CameraReader_a25ec3322a9e680a703b83504d18b3b2f.html#a25ec3322a9e680a703b83504d18b3b2f" target="_top" xlink:title="Setup an IOService for this reader with the given reader_id.">
<polygon fill="white" stroke="#666666" points="387.5,-78 227.5,-78 227.5,-48 387.5,-48 387.5,-78"/>
<text text-anchor="start" x="235.5" y="-66" font-family="Helvetica,sans-Serif" font-size="10.00">MayaFlux::IO::CameraReader</text>
<text text-anchor="middle" x="307.5" y="-55" font-family="Helvetica,sans-Serif" font-size="10.00">::setup_io_service</text>
</a>
</g>
</g>
<!-- Node1&#45;&gt;Node5 -->
<g id="edge4_Node000001_Node000005" class="edge">
<title>Node1&#45;&gt;Node5</title>
<g id="a_edge4_Node000001_Node000005"><a xlink:title=" ">
<path fill="none" stroke="#63b8ff" d="M423.94,-76.99C411.97,-75.54 399.67,-74.05 387.77,-72.61"/>
<polygon fill="#63b8ff" stroke="#63b8ff" points="423.55,-80.47 433.9,-78.2 424.39,-73.52 423.55,-80.47"/>
</a>
</g>
</g>
<!-- Node6 -->
<g id="Node000006" class="node">
<title>Node6</title>
<g id="a_Node000006"><a xlink:href="classMayaFlux_1_1IO_1_1VideoFileReader_ad5d3f1e3445da9ccf1dbe583e8609e28.html#ad5d3f1e3445da9ccf1dbe583e8609e28" target="_top" xlink:title="Internal setup for IOService integration.">
<polygon fill="white" stroke="#666666" points="391,-30 224,-30 224,0 391,0 391,-30"/>
<text text-anchor="start" x="232" y="-18" font-family="Helvetica,sans-Serif" font-size="10.00">MayaFlux::IO::VideoFileReader</text>
<text text-anchor="middle" x="307.5" y="-7" font-family="Helvetica,sans-Serif" font-size="10.00">::setup_io_service</text>
</a>
</g>
</g>
<!-- Node1&#45;&gt;Node6 -->
<g id="edge5_Node000001_Node000006" class="edge">
<title>Node1&#45;&gt;Node6</title>
<g id="a_edge5_Node000001_Node000006"><a xlink:title=" ">
<path fill="none" stroke="#63b8ff" d="M454.52,-62.05C436.82,-54.08 416.77,-45.62 398,-39 388.9,-35.79 379.15,-32.76 369.55,-30.01"/>
<polygon fill="#63b8ff" stroke="#63b8ff" points="453.53,-65.45 464.08,-66.41 456.44,-59.08 453.53,-65.45"/>
</a>
</g>
</g>
<!-- Node4 -->
<g id="Node000004" class="node">
<title>Node4</title>
<g id="a_Node000004"><a xlink:href="classMayaFlux_1_1Core_1_1AudioSubsystem_a03b7942476858271242fc8372d84f0f2.html#a03b7942476858271242fc8372d84f0f2" target="_top" xlink:title="Initialize audio processing with provided handle.">
<polygon fill="white" stroke="#666666" points="181,-126 0,-126 0,-96 181,-96 181,-126"/>
<text text-anchor="start" x="8" y="-114" font-family="Helvetica,sans-Serif" font-size="10.00">MayaFlux::Core::AudioSubsystem</text>
<text text-anchor="middle" x="90.5" y="-103" font-family="Helvetica,sans-Serif" font-size="10.00">::initialize</text>
</a>
</g>
</g>
<!-- Node3&#45;&gt;Node4 -->
<g id="edge3_Node000003_Node000004" class="edge">
<title>Node3&#45;&gt;Node4</title>
<g id="a_edge3_Node000003_Node000004"><a xlink:title=" ">
<path fill="none" stroke="#63b8ff" d="M206.63,-111C198.19,-111 189.68,-111 181.32,-111"/>
<polygon fill="#63b8ff" stroke="#63b8ff" points="206.88,-114.5 216.88,-111 206.88,-107.5 206.88,-114.5"/>
</a>
</g>
</g>
</g>
</svg>

<g id="navigator" transform="translate(0 0)" fill="#404254">
  <rect fill="#f2f5e9" fill-opacity="0.5" stroke="#606060" stroke-width=".5" x="0" y="0" width="60" height="60"/>
  <use id="zoomplus" xlink:href="#zoomPlus" x="17" y="9" onmousedown="handleZoom(evt,'in')"/>
  <use id="zoomminus" xlink:href="#zoomMin" x="42" y="9" onmousedown="handleZoom(evt,'out')"/>
  <use id="reset" xlink:href="#resetDef" x="30" y="36" onmousedown="handleReset()"/>
   <use id="arrowup" xlink:href="#arrowUp" x="0" y="0" onmousedown="handlePan(0,-1)"/>
  <use id="arrowright" xlink:href="#arrowRight" x="0" y="0" onmousedown="handlePan(1,0)"/>
  <use id="arrowdown" xlink:href="#arrowDown" x="0" y="0" onmousedown="handlePan(0,1)"/>
  <use id="arrowleft" xlink:href="#arrowLeft" x="0" y="0" onmousedown="handlePan(-1,0)"/>
</g>
<svg viewBox="0 0 15 15" width="100%" height="30px" preserveAspectRatio="xMaxYMin meet">
 <g id="arrow_out" transform="scale(0.3 0.3)">
  <a xlink:href="classMayaFlux_1_1Registry_1_1BackendRegistry_a22c6ffe496c721c1bdfe28c9a86c1c4f_a22c6ffe496c721c1bdfe28c9a86c1c4f_icgraph_org.svg" target="_base">
   <rect id="button" ry="5" rx="5" y="6" x="6" height="38" width="38"
        fill="#f2f5e9" fill-opacity="0.5" stroke="#606060" stroke-width="1.0"/>
   <path id="arrow"
     d="M 11.500037,31.436501 C 11.940474,20.09759 22.043105,11.32322 32.158766,21.979434 L 37.068811,17.246167 C 37.068811,17.246167 37.088388,32 37.088388,32 L 22.160133,31.978069 C 22.160133,31.978069 26.997745,27.140456 26.997745,27.140456 C 18.528582,18.264221 13.291696,25.230495 11.500037,31.436501 z"
     style="fill:#404040;"/>
  </a>
 </g>
</svg>

<style type='text/css'>
<![CDATA[
[data-mouse-over-selected='false'] { opacity: 0.7; }
[data-mouse-over-selected='true']  { opacity: 1.0; }
]]>
</style>
<script type="application/ecmascript"><![CDATA[
document.addEventListener('DOMContentLoaded', (event) => {
  highlightEdges();
  highlightAdjacentNodes();
});
]]></script>
</svg>
