<?xml version="1.0" encoding="UTF-8" standalone="no"?>
<!DOCTYPE svg PUBLIC "-//W3C//DTD SVG 1.1//EN"
 "http://www.w3.org/Graphics/SVG/1.1/DTD/svg11.dtd">
<!-- Generated by graphviz version 2.43.0 (0)
 -->
<!-- Title: MayaFlux::Nodes::Generator::Impulse::update_phase_increment Pages: 1 -->
<svg width="548pt" height="278pt"
 viewBox="0.00 0.00 548.00 278.00" xmlns="http://www.w3.org/2000/svg" xmlns:xlink="http://www.w3.org/1999/xlink">
<g id="graph0" class="graph" transform="scale(1 1) rotate(0) translate(4 274)">
<title>MayaFlux::Nodes::Generator::Impulse::update_phase_increment</title>
<!-- Node1 -->
<g id="Node000001" class="node">
<title>Node1</title>
<g id="a_Node000001"><a xlink:title="Updates the phase increment based on a new frequency.">
<polygon fill="#999999" stroke="#666666" points="540,-155.5 384,-155.5 384,-114.5 540,-114.5 540,-155.5"/>
<text text-anchor="start" x="392" y="-143.5" font-family="Helvetica,sans-Serif" font-size="10.00">MayaFlux::Nodes::Generator</text>
<text text-anchor="start" x="392" y="-132.5" font-family="Helvetica,sans-Serif" font-size="10.00">::Impulse::update_phase</text>
<text text-anchor="middle" x="462" y="-121.5" font-family="Helvetica,sans-Serif" font-size="10.00">_increment</text>
</a>
</g>
</g>
<!-- Node2 -->
<g id="Node000002" class="node">
<title>Node2</title>
<g id="a_Node000002"><a xlink:href="classMayaFlux_1_1Nodes_1_1Generator_1_1Impulse_a8978112944f7bc234c7ba9986bb243c5.html#a8978112944f7bc234c7ba9986bb243c5" target="_top" xlink:title="Constructor with both frequency and amplitude modulation.">
<polygon fill="white" stroke="#666666" points="348,-270 192,-270 192,-240 348,-240 348,-270"/>
<text text-anchor="start" x="200" y="-258" font-family="Helvetica,sans-Serif" font-size="10.00">MayaFlux::Nodes::Generator</text>
<text text-anchor="middle" x="270" y="-247" font-family="Helvetica,sans-Serif" font-size="10.00">::Impulse::Impulse</text>
</a>
</g>
</g>
<!-- Node1&#45;&gt;Node2 -->
<g id="edge1_Node000001_Node000002" class="edge">
<title>Node1&#45;&gt;Node2</title>
<g id="a_edge1_Node000001_Node000002"><a xlink:title=" ">
<path fill="none" stroke="#63b8ff" d="M434.49,-162.99C412.96,-184.28 380.88,-212.9 348,-231 341.87,-234.38 335.19,-237.35 328.42,-239.95"/>
<polygon fill="#63b8ff" stroke="#63b8ff" points="437.08,-165.35 441.65,-155.79 432.12,-160.41 437.08,-165.35"/>
</a>
</g>
</g>
<!-- Node3 -->
<g id="Node000003" class="node">
<title>Node3</title>
<g id="a_Node000003"><a xlink:href="classMayaFlux_1_1Nodes_1_1Generator_1_1Impulse_a21246de238980b6b5ac3d57dd335a8ce.html#a21246de238980b6b5ac3d57dd335a8ce" target="_top" xlink:title="Constructor with frequency modulation.">
<polygon fill="white" stroke="#666666" points="348,-222 192,-222 192,-192 348,-192 348,-222"/>
<text text-anchor="start" x="200" y="-210" font-family="Helvetica,sans-Serif" font-size="10.00">MayaFlux::Nodes::Generator</text>
<text text-anchor="middle" x="270" y="-199" font-family="Helvetica,sans-Serif" font-size="10.00">::Impulse::Impulse</text>
</a>
</g>
</g>
<!-- Node1&#45;&gt;Node3 -->
<g id="edge2_Node000001_Node000003" class="edge">
<title>Node1&#45;&gt;Node3</title>
<g id="a_edge2_Node000001_Node000003"><a xlink:title=" ">
<path fill="none" stroke="#63b8ff" d="M406.15,-159.6C387.81,-167.47 367.17,-175.96 348,-183 339.59,-186.09 330.57,-189.13 321.77,-191.96"/>
<polygon fill="#63b8ff" stroke="#63b8ff" points="407.72,-162.73 415.51,-155.55 404.94,-156.31 407.72,-162.73"/>
</a>
</g>
</g>
<!-- Node4 -->
<g id="Node000004" class="node">
<title>Node4</title>
<g id="a_Node000004"><a xlink:href="classMayaFlux_1_1Nodes_1_1Generator_1_1Impulse_ac9ed9f1533e9d1b4242c8cb17708545f.html#ac9ed9f1533e9d1b4242c8cb17708545f" target="_top" xlink:title="Constructor with amplitude modulation.">
<polygon fill="white" stroke="#666666" points="348,-174 192,-174 192,-144 348,-144 348,-174"/>
<text text-anchor="start" x="200" y="-162" font-family="Helvetica,sans-Serif" font-size="10.00">MayaFlux::Nodes::Generator</text>
<text text-anchor="middle" x="270" y="-151" font-family="Helvetica,sans-Serif" font-size="10.00">::Impulse::Impulse</text>
</a>
</g>
</g>
<!-- Node1&#45;&gt;Node4 -->
<g id="edge3_Node000001_Node000004" class="edge">
<title>Node1&#45;&gt;Node4</title>
<g id="a_edge3_Node000001_Node000004"><a xlink:title=" ">
<path fill="none" stroke="#63b8ff" d="M373.94,-146C365.32,-147.09 356.62,-148.18 348.12,-149.26"/>
<polygon fill="#63b8ff" stroke="#63b8ff" points="374.51,-149.45 383.99,-144.73 373.63,-142.51 374.51,-149.45"/>
</a>
</g>
</g>
<!-- Node5 -->
<g id="Node000005" class="node">
<title>Node5</title>
<g id="a_Node000005"><a xlink:href="classMayaFlux_1_1Nodes_1_1Generator_1_1Impulse_a500ccf163a3f170b485bdfd183948878.html#a500ccf163a3f170b485bdfd183948878" target="_top" xlink:title="Basic constructor with fixed parameters.">
<polygon fill="white" stroke="#666666" points="348,-126 192,-126 192,-96 348,-96 348,-126"/>
<text text-anchor="start" x="200" y="-114" font-family="Helvetica,sans-Serif" font-size="10.00">MayaFlux::Nodes::Generator</text>
<text text-anchor="middle" x="270" y="-103" font-family="Helvetica,sans-Serif" font-size="10.00">::Impulse::Impulse</text>
</a>
</g>
</g>
<!-- Node1&#45;&gt;Node5 -->
<g id="edge4_Node000001_Node000005" class="edge">
<title>Node1&#45;&gt;Node5</title>
<g id="a_edge4_Node000001_Node000005"><a xlink:title=" ">
<path fill="none" stroke="#63b8ff" d="M373.94,-124C365.32,-122.91 356.62,-121.82 348.12,-120.74"/>
<polygon fill="#63b8ff" stroke="#63b8ff" points="373.63,-127.49 383.99,-125.27 374.51,-120.55 373.63,-127.49"/>
</a>
</g>
</g>
<!-- Node6 -->
<g id="Node000006" class="node">
<title>Node6</title>
<g id="a_Node000006"><a xlink:href="classMayaFlux_1_1Nodes_1_1Generator_1_1Impulse_a871f16ab043c372dedbf9f5c69965960.html#a871f16ab043c372dedbf9f5c69965960" target="_top" xlink:title="Processes a single input sample and generates an impulse sample.">
<polygon fill="white" stroke="#666666" points="348,-78 192,-78 192,-48 348,-48 348,-78"/>
<text text-anchor="start" x="200" y="-66" font-family="Helvetica,sans-Serif" font-size="10.00">MayaFlux::Nodes::Generator</text>
<text text-anchor="middle" x="270" y="-55" font-family="Helvetica,sans-Serif" font-size="10.00">::Impulse::process_sample</text>
</a>
</g>
</g>
<!-- Node1&#45;&gt;Node6 -->
<g id="edge5_Node000001_Node000006" class="edge">
<title>Node1&#45;&gt;Node6</title>
<g id="a_edge5_Node000001_Node000006"><a xlink:title=" ">
<path fill="none" stroke="#63b8ff" d="M406.15,-110.4C387.81,-102.53 367.17,-94.04 348,-87 339.59,-83.91 330.57,-80.87 321.77,-78.04"/>
<polygon fill="#63b8ff" stroke="#63b8ff" points="404.94,-113.69 415.51,-114.45 407.72,-107.27 404.94,-113.69"/>
</a>
</g>
</g>
<!-- Node8 -->
<g id="Node000008" class="node">
<title>Node8</title>
<g id="a_Node000008"><a xlink:href="classMayaFlux_1_1Nodes_1_1Generator_1_1Impulse_ad790e37afbf5d86458bbf763c8d25d89.html#ad790e37afbf5d86458bbf763c8d25d89" target="_top" xlink:title="Sets the generator&#39;s frequency.">
<polygon fill="white" stroke="#666666" points="348,-30 192,-30 192,0 348,0 348,-30"/>
<text text-anchor="start" x="200" y="-18" font-family="Helvetica,sans-Serif" font-size="10.00">MayaFlux::Nodes::Generator</text>
<text text-anchor="middle" x="270" y="-7" font-family="Helvetica,sans-Serif" font-size="10.00">::Impulse::set_frequency</text>
</a>
</g>
</g>
<!-- Node1&#45;&gt;Node8 -->
<g id="edge7_Node000001_Node000008" class="edge">
<title>Node1&#45;&gt;Node8</title>
<g id="a_edge7_Node000001_Node000008"><a xlink:title=" ">
<path fill="none" stroke="#63b8ff" d="M434.49,-107.01C412.96,-85.72 380.88,-57.1 348,-39 341.87,-35.62 335.19,-32.65 328.42,-30.05"/>
<polygon fill="#63b8ff" stroke="#63b8ff" points="432.12,-109.59 441.65,-114.21 437.08,-104.65 432.12,-109.59"/>
</a>
</g>
</g>
<!-- Node7 -->
<g id="Node000007" class="node">
<title>Node7</title>
<g id="a_Node000007"><a xlink:href="classMayaFlux_1_1Nodes_1_1Generator_1_1Impulse_a5aa86d7acca466adab508d227acd428d.html#a5aa86d7acca466adab508d227acd428d" target="_top" xlink:title="Processes multiple samples at once.">
<polygon fill="white" stroke="#666666" points="156,-78 0,-78 0,-48 156,-48 156,-78"/>
<text text-anchor="start" x="8" y="-66" font-family="Helvetica,sans-Serif" font-size="10.00">MayaFlux::Nodes::Generator</text>
<text text-anchor="middle" x="78" y="-55" font-family="Helvetica,sans-Serif" font-size="10.00">::Impulse::process_batch</text>
</a>
</g>
</g>
<!-- Node6&#45;&gt;Node7 -->
<g id="edge6_Node000006_Node000007" class="edge">
<title>Node6&#45;&gt;Node7</title>
<g id="a_edge6_Node000006_Node000007"><a xlink:title=" ">
<path fill="none" stroke="#63b8ff" d="M181.94,-63C173.32,-63 164.62,-63 156.12,-63"/>
<polygon fill="#63b8ff" stroke="#63b8ff" points="181.99,-66.5 191.99,-63 181.99,-59.5 181.99,-66.5"/>
</a>
</g>
</g>
<!-- Node9 -->
<g id="Node000009" class="node">
<title>Node9</title>
<g id="a_Node000009"><a xlink:href="classMayaFlux_1_1Nodes_1_1Generator_1_1Impulse_a9ebb052b29b9cb47520b2bf54414ec2d.html#a9ebb052b29b9cb47520b2bf54414ec2d" target="_top" xlink:title="Resets the generator&#39;s phase and parameters.">
<polygon fill="white" stroke="#666666" points="156,-30 0,-30 0,0 156,0 156,-30"/>
<text text-anchor="start" x="8" y="-18" font-family="Helvetica,sans-Serif" font-size="10.00">MayaFlux::Nodes::Generator</text>
<text text-anchor="middle" x="78" y="-7" font-family="Helvetica,sans-Serif" font-size="10.00">::Impulse::reset</text>
</a>
</g>
</g>
<!-- Node8&#45;&gt;Node9 -->
<g id="edge8_Node000008_Node000009" class="edge">
<title>Node8&#45;&gt;Node9</title>
<g id="a_edge8_Node000008_Node000009"><a xlink:title=" ">
<path fill="none" stroke="#63b8ff" d="M181.94,-15C173.32,-15 164.62,-15 156.12,-15"/>
<polygon fill="#63b8ff" stroke="#63b8ff" points="181.99,-18.5 191.99,-15 181.99,-11.5 181.99,-18.5"/>
</a>
</g>
</g>
</g>
</svg>
