<?xml version="1.0" encoding="UTF-8" standalone="no"?>
<!DOCTYPE svg PUBLIC "-//W3C//DTD SVG 1.1//EN"
 "http://www.w3.org/Graphics/SVG/1.1/DTD/svg11.dtd">
<!-- Generated by graphviz version 2.43.0 (0)
 -->
<!-- Title: MayaFlux::Kakshya::SoundFileContainer::setup Pages: 1 -->
<svg width="834pt" height="338pt"
 viewBox="0.00 0.00 834.00 338.00" xmlns="http://www.w3.org/2000/svg" xmlns:xlink="http://www.w3.org/1999/xlink">
<g id="graph0" class="graph" transform="scale(1 1) rotate(0) translate(4 334)">
<title>MayaFlux::Kakshya::SoundFileContainer::setup</title>
<!-- Node1 -->
<g id="Node000001" class="node">
<title>Node1</title>
<g id="a_Node000001"><a xlink:title="Setup the container with file parameters.">
<polygon fill="#999999" stroke="#666666" points="144,-281 0,-281 0,-251 144,-251 144,-281"/>
<text text-anchor="start" x="8" y="-269" font-family="Helvetica,sans-Serif" font-size="10.00">MayaFlux::Kakshya::</text>
<text text-anchor="middle" x="72" y="-258" font-family="Helvetica,sans-Serif" font-size="10.00">SoundFileContainer::setup</text>
</a>
</g>
</g>
<!-- Node2 -->
<g id="Node000002" class="node">
<title>Node2</title>
<g id="a_Node000002"><a xlink:href="classMayaFlux_1_1Kakshya_1_1SoundStreamContainer_ac59ca8d9a3ed7bd4dbc766943227b44a.html#ac59ca8d9a3ed7bd4dbc766943227b44a" target="_top" xlink:title="Acquire a lock for thread&#45;safe access.">
<polygon fill="white" stroke="#666666" points="680,-330 525,-330 525,-300 680,-300 680,-330"/>
<text text-anchor="start" x="533" y="-318" font-family="Helvetica,sans-Serif" font-size="10.00">MayaFlux::Kakshya::</text>
<text text-anchor="middle" x="602.5" y="-307" font-family="Helvetica,sans-Serif" font-size="10.00">SoundStreamContainer::lock</text>
</a>
</g>
</g>
<!-- Node1&#45;&gt;Node2 -->
<g id="edge1_Node000001_Node000002" class="edge">
<title>Node1&#45;&gt;Node2</title>
<g id="a_edge1_Node000001_Node000002"><a xlink:title=" ">
<path fill="none" stroke="#63b8ff" d="M117.79,-281.02C136.76,-286.73 159.24,-292.67 180,-296 294.67,-314.41 428.99,-317.31 514.62,-316.84"/>
<polygon fill="#63b8ff" stroke="#63b8ff" points="514.85,-320.34 524.82,-316.77 514.8,-313.34 514.85,-320.34"/>
</a>
</g>
</g>
<!-- Node3 -->
<g id="Node000003" class="node">
<title>Node3</title>
<g id="a_Node000003"><a xlink:href="classMayaFlux_1_1Kakshya_1_1SoundStreamContainer_a46cf2a36bf81975f79bc304b56edc004.html#a46cf2a36bf81975f79bc304b56edc004" target="_top" xlink:title=" ">
<polygon fill="white" stroke="#666666" points="316.5,-222.5 187.5,-222.5 187.5,-181.5 316.5,-181.5 316.5,-222.5"/>
<text text-anchor="start" x="195.5" y="-210.5" font-family="Helvetica,sans-Serif" font-size="10.00">MayaFlux::Kakshya::</text>
<text text-anchor="start" x="195.5" y="-199.5" font-family="Helvetica,sans-Serif" font-size="10.00">SoundStreamContainer</text>
<text text-anchor="middle" x="252" y="-188.5" font-family="Helvetica,sans-Serif" font-size="10.00">::setup_dimensions</text>
</a>
</g>
</g>
<!-- Node1&#45;&gt;Node3 -->
<g id="edge2_Node000001_Node000003" class="edge">
<title>Node1&#45;&gt;Node3</title>
<g id="a_edge2_Node000001_Node000003"><a xlink:title=" ">
<path fill="none" stroke="#63b8ff" d="M114.73,-250.99C135.41,-243.56 160.89,-234.4 184.2,-226.02"/>
<polygon fill="#63b8ff" stroke="#63b8ff" points="185.47,-229.28 193.7,-222.6 183.1,-222.69 185.47,-229.28"/>
</a>
</g>
</g>
<!-- Node12 -->
<g id="Node000012" class="node">
<title>Node12</title>
<g id="a_Node000012"><a xlink:href="classMayaFlux_1_1Kakshya_1_1SoundStreamContainer_a5e0c8b987a5e6354c1e4d9c717b92b76.html#a5e0c8b987a5e6354c1e4d9c717b92b76" target="_top" xlink:title="Update the processing state of the container.">
<polygon fill="white" stroke="#666666" points="324,-286.5 180,-286.5 180,-245.5 324,-245.5 324,-286.5"/>
<text text-anchor="start" x="188" y="-274.5" font-family="Helvetica,sans-Serif" font-size="10.00">MayaFlux::Kakshya::</text>
<text text-anchor="start" x="188" y="-263.5" font-family="Helvetica,sans-Serif" font-size="10.00">SoundStreamContainer</text>
<text text-anchor="middle" x="252" y="-252.5" font-family="Helvetica,sans-Serif" font-size="10.00">::update_processing_state</text>
</a>
</g>
</g>
<!-- Node1&#45;&gt;Node12 -->
<g id="edge11_Node000001_Node000012" class="edge">
<title>Node1&#45;&gt;Node12</title>
<g id="a_edge11_Node000001_Node000012"><a xlink:title=" ">
<path fill="none" stroke="#63b8ff" d="M144.12,-266C152.61,-266 161.33,-266 169.94,-266"/>
<polygon fill="#63b8ff" stroke="#63b8ff" points="170,-269.5 180,-266 170,-262.5 170,-269.5"/>
</a>
</g>
</g>
<!-- Node4 -->
<g id="Node000004" class="node">
<title>Node4</title>
<g id="a_Node000004"><a xlink:href="structMayaFlux_1_1Kakshya_1_1DataDimension_ac71c3404aadefac0fe97e641021e1eba.html#ac71c3404aadefac0fe97e641021e1eba" target="_top" xlink:title="Create dimension descriptors for a data modality.">
<polygon fill="white" stroke="#666666" points="489,-179.5 360,-179.5 360,-138.5 489,-138.5 489,-179.5"/>
<text text-anchor="start" x="368" y="-167.5" font-family="Helvetica,sans-Serif" font-size="10.00">MayaFlux::Kakshya::</text>
<text text-anchor="start" x="368" y="-156.5" font-family="Helvetica,sans-Serif" font-size="10.00">DataDimension::create</text>
<text text-anchor="middle" x="424.5" y="-145.5" font-family="Helvetica,sans-Serif" font-size="10.00">_dimensions</text>
</a>
</g>
</g>
<!-- Node3&#45;&gt;Node4 -->
<g id="edge3_Node000003_Node000004" class="edge">
<title>Node3&#45;&gt;Node4</title>
<g id="a_edge3_Node000003_Node000004"><a xlink:title=" ">
<path fill="none" stroke="#63b8ff" d="M316.97,-185.87C327.68,-183.17 338.87,-180.34 349.79,-177.59"/>
<polygon fill="#63b8ff" stroke="#63b8ff" points="350.9,-180.92 359.74,-175.08 349.18,-174.13 350.9,-180.92"/>
</a>
</g>
</g>
<!-- Node5 -->
<g id="Node000005" class="node">
<title>Node5</title>
<g id="a_Node000005"><a xlink:href="structMayaFlux_1_1Kakshya_1_1DataDimension_aafb5f78e7e3682f8785ef62f77e5d77a.html#aafb5f78e7e3682f8785ef62f77e5d77a" target="_top" xlink:title="Calculate memory strides based on shape and layout.">
<polygon fill="white" stroke="#666666" points="674,-281.5 531,-281.5 531,-240.5 674,-240.5 674,-281.5"/>
<text text-anchor="start" x="539" y="-269.5" font-family="Helvetica,sans-Serif" font-size="10.00">MayaFlux::Kakshya::</text>
<text text-anchor="start" x="539" y="-258.5" font-family="Helvetica,sans-Serif" font-size="10.00">DataDimension::calculate</text>
<text text-anchor="middle" x="602.5" y="-247.5" font-family="Helvetica,sans-Serif" font-size="10.00">_strides</text>
</a>
</g>
</g>
<!-- Node4&#45;&gt;Node5 -->
<g id="edge4_Node000004_Node000005" class="edge">
<title>Node4&#45;&gt;Node5</title>
<g id="a_edge4_Node000004_Node000005"><a xlink:title=" ">
<path fill="none" stroke="#63b8ff" d="M450.09,-179.51C469.55,-195.05 497.87,-216.18 525,-231 528.26,-232.78 531.65,-234.51 535.1,-236.18"/>
<polygon fill="#63b8ff" stroke="#63b8ff" points="533.82,-239.44 544.37,-240.45 536.75,-233.09 533.82,-239.44"/>
</a>
</g>
</g>
<!-- Node6 -->
<g id="Node000006" class="node">
<title>Node6</title>
<g id="a_Node000006"><a xlink:href="structMayaFlux_1_1Kakshya_1_1DataDimension_afae79b6c7314e95d426e396efe81787a.html#afae79b6c7314e95d426e396efe81787a" target="_top" xlink:title="Convenience constructor for a channel dimension.">
<polygon fill="white" stroke="#666666" points="671,-222 534,-222 534,-192 671,-192 671,-222"/>
<text text-anchor="start" x="542" y="-210" font-family="Helvetica,sans-Serif" font-size="10.00">MayaFlux::Kakshya::</text>
<text text-anchor="middle" x="602.5" y="-199" font-family="Helvetica,sans-Serif" font-size="10.00">DataDimension::channel</text>
</a>
</g>
</g>
<!-- Node4&#45;&gt;Node6 -->
<g id="edge5_Node000004_Node000006" class="edge">
<title>Node4&#45;&gt;Node6</title>
<g id="a_edge5_Node000004_Node000006"><a xlink:title=" ">
<path fill="none" stroke="#63b8ff" d="M489.04,-176.33C504.47,-180.54 520.98,-185.04 536.48,-189.27"/>
<polygon fill="#63b8ff" stroke="#63b8ff" points="535.92,-192.74 546.49,-192 537.76,-185.99 535.92,-192.74"/>
</a>
</g>
</g>
<!-- Node7 -->
<g id="Node000007" class="node">
<title>Node7</title>
<g id="a_Node000007"><a xlink:href="structMayaFlux_1_1Kakshya_1_1DataDimension_a6a1656bc7eafe4add39ec634481345a7.html#a6a1656bc7eafe4add39ec634481345a7" target="_top" xlink:title="Convenience constructor for a frequency dimension.">
<polygon fill="white" stroke="#666666" points="676,-174 529,-174 529,-144 676,-144 676,-174"/>
<text text-anchor="start" x="537" y="-162" font-family="Helvetica,sans-Serif" font-size="10.00">MayaFlux::Kakshya::</text>
<text text-anchor="middle" x="602.5" y="-151" font-family="Helvetica,sans-Serif" font-size="10.00">DataDimension::frequency</text>
</a>
</g>
</g>
<!-- Node4&#45;&gt;Node7 -->
<g id="edge6_Node000004_Node000007" class="edge">
<title>Node4&#45;&gt;Node7</title>
<g id="a_edge6_Node000004_Node000007"><a xlink:title=" ">
<path fill="none" stroke="#63b8ff" d="M489.04,-159C498.61,-159 508.61,-159 518.51,-159"/>
<polygon fill="#63b8ff" stroke="#63b8ff" points="518.79,-162.5 528.79,-159 518.79,-155.5 518.79,-162.5"/>
</a>
</g>
</g>
<!-- Node8 -->
<g id="Node000008" class="node">
<title>Node8</title>
<g id="a_Node000008"><a xlink:href="namespaceMayaFlux_1_1Kakshya_aedc3538e77f59c4a4d91df28e181d066.html#aedc3538e77f59c4a4d91df28e181d066" target="_top" xlink:title="Convert DataModality enum to string representation.">
<polygon fill="white" stroke="#666666" points="662,-126 543,-126 543,-96 662,-96 662,-126"/>
<text text-anchor="start" x="551" y="-114" font-family="Helvetica,sans-Serif" font-size="10.00">MayaFlux::Kakshya::</text>
<text text-anchor="middle" x="602.5" y="-103" font-family="Helvetica,sans-Serif" font-size="10.00">modality_to_string</text>
</a>
</g>
</g>
<!-- Node4&#45;&gt;Node8 -->
<g id="edge7_Node000004_Node000008" class="edge">
<title>Node4&#45;&gt;Node8</title>
<g id="a_edge7_Node000004_Node000008"><a xlink:title=" ">
<path fill="none" stroke="#63b8ff" d="M489.04,-141.67C504.47,-137.46 520.98,-132.96 536.48,-128.73"/>
<polygon fill="#63b8ff" stroke="#63b8ff" points="537.76,-132.01 546.49,-126 535.92,-125.26 537.76,-132.01"/>
</a>
</g>
</g>
<!-- Node10 -->
<g id="Node000010" class="node">
<title>Node10</title>
<g id="a_Node000010"><a xlink:href="structMayaFlux_1_1Kakshya_1_1DataDimension_a54ded63656235da79ab98ef3a576d3d2.html#a54ded63656235da79ab98ef3a576d3d2" target="_top" xlink:title="Convenience constructor for a spatial dimension.">
<polygon fill="white" stroke="#666666" points="668,-78 537,-78 537,-48 668,-48 668,-78"/>
<text text-anchor="start" x="545" y="-66" font-family="Helvetica,sans-Serif" font-size="10.00">MayaFlux::Kakshya::</text>
<text text-anchor="middle" x="602.5" y="-55" font-family="Helvetica,sans-Serif" font-size="10.00">DataDimension::spatial</text>
</a>
</g>
</g>
<!-- Node4&#45;&gt;Node10 -->
<g id="edge9_Node000004_Node000010" class="edge">
<title>Node4&#45;&gt;Node10</title>
<g id="a_edge9_Node000004_Node000010"><a xlink:title=" ">
<path fill="none" stroke="#63b8ff" d="M449.41,-138.28C468.73,-122.42 497.18,-100.97 525,-87 528.71,-85.14 532.59,-83.38 536.56,-81.74"/>
<polygon fill="#63b8ff" stroke="#63b8ff" points="537.87,-84.99 545.92,-78.1 535.33,-78.46 537.87,-84.99"/>
</a>
</g>
</g>
<!-- Node11 -->
<g id="Node000011" class="node">
<title>Node11</title>
<g id="a_Node000011"><a xlink:href="structMayaFlux_1_1Kakshya_1_1DataDimension_aab0cac54b47602cb00e2fd99b50839c3.html#aab0cac54b47602cb00e2fd99b50839c3" target="_top" xlink:title="Convenience constructor for a temporal (time) dimension.">
<polygon fill="white" stroke="#666666" points="663,-30 542,-30 542,0 663,0 663,-30"/>
<text text-anchor="start" x="550" y="-18" font-family="Helvetica,sans-Serif" font-size="10.00">MayaFlux::Kakshya::</text>
<text text-anchor="middle" x="602.5" y="-7" font-family="Helvetica,sans-Serif" font-size="10.00">DataDimension::time</text>
</a>
</g>
</g>
<!-- Node4&#45;&gt;Node11 -->
<g id="edge10_Node000004_Node000011" class="edge">
<title>Node4&#45;&gt;Node11</title>
<g id="a_edge10_Node000004_Node000011"><a xlink:title=" ">
<path fill="none" stroke="#63b8ff" d="M437.27,-138.49C453.62,-111.78 485.68,-65.4 525,-39 527.44,-37.36 529.99,-35.83 532.63,-34.4"/>
<polygon fill="#63b8ff" stroke="#63b8ff" points="534.39,-37.44 541.86,-29.92 531.33,-31.14 534.39,-37.44"/>
</a>
</g>
</g>
<!-- Node9 -->
<g id="Node000009" class="node">
<title>Node9</title>
<g id="a_Node000009"><a xlink:href="namespaceMayaFlux_1_1Reflect_aad91118cbd25bd9e35a3ced9aa4e6dbd.html#aad91118cbd25bd9e35a3ced9aa4e6dbd" target="_top" xlink:title="Universal enum to string converter using magic_enum (original case)">
<polygon fill="white" stroke="#666666" points="826,-126 716,-126 716,-96 826,-96 826,-126"/>
<text text-anchor="start" x="724" y="-114" font-family="Helvetica,sans-Serif" font-size="10.00">MayaFlux::Reflect::</text>
<text text-anchor="middle" x="771" y="-103" font-family="Helvetica,sans-Serif" font-size="10.00">enum_to_string</text>
</a>
</g>
</g>
<!-- Node8&#45;&gt;Node9 -->
<g id="edge8_Node000008_Node000009" class="edge">
<title>Node8&#45;&gt;Node9</title>
<g id="a_edge8_Node000008_Node000009"><a xlink:title=" ">
<path fill="none" stroke="#63b8ff" d="M662.2,-111C676.21,-111 691.25,-111 705.51,-111"/>
<polygon fill="#63b8ff" stroke="#63b8ff" points="705.72,-114.5 715.72,-111 705.72,-107.5 705.72,-114.5"/>
</a>
</g>
</g>
<!-- Node12&#45;&gt;Node2 -->
<g id="edge12_Node000012_Node000002" class="edge">
<title>Node12&#45;&gt;Node2</title>
<g id="a_edge12_Node000012_Node000002"><a xlink:title=" ">
<path fill="none" stroke="#63b8ff" d="M324.37,-276.03C379.52,-283.79 456.11,-294.56 514.79,-302.81"/>
<polygon fill="#63b8ff" stroke="#63b8ff" points="514.4,-306.29 524.79,-304.21 515.37,-299.36 514.4,-306.29"/>
</a>
</g>
</g>
<!-- Node13 -->
<g id="Node000013" class="node">
<title>Node13</title>
<g id="a_Node000013"><a xlink:href="classMayaFlux_1_1Kakshya_1_1SoundStreamContainer_a6b017a7f21c67f1c3faa5a30dbdc0750.html#a6b017a7f21c67f1c3faa5a30dbdc0750" target="_top" xlink:title=" ">
<polygon fill="white" stroke="#666666" points="489,-267.5 360,-267.5 360,-226.5 489,-226.5 489,-267.5"/>
<text text-anchor="start" x="368" y="-255.5" font-family="Helvetica,sans-Serif" font-size="10.00">MayaFlux::Kakshya::</text>
<text text-anchor="start" x="368" y="-244.5" font-family="Helvetica,sans-Serif" font-size="10.00">SoundStreamContainer</text>
<text text-anchor="middle" x="424.5" y="-233.5" font-family="Helvetica,sans-Serif" font-size="10.00">::notify_state_change</text>
</a>
</g>
</g>
<!-- Node12&#45;&gt;Node13 -->
<g id="edge13_Node000012_Node000013" class="edge">
<title>Node12&#45;&gt;Node13</title>
<g id="a_edge13_Node000012_Node000013"><a xlink:title=" ">
<path fill="none" stroke="#63b8ff" d="M324.32,-258.05C332.69,-257.12 341.24,-256.17 349.64,-255.23"/>
<polygon fill="#63b8ff" stroke="#63b8ff" points="350.25,-258.69 359.8,-254.1 349.47,-251.73 350.25,-258.69"/>
</a>
</g>
</g>
<!-- Node13&#45;&gt;Node2 -->
<g id="edge14_Node000013_Node000002" class="edge">
<title>Node13&#45;&gt;Node2</title>
<g id="a_edge14_Node000013_Node000002"><a xlink:title=" ">
<path fill="none" stroke="#63b8ff" d="M469.14,-267.57C486.37,-275.35 506.44,-284.01 525,-291 530.13,-292.93 535.49,-294.84 540.89,-296.68"/>
<polygon fill="#63b8ff" stroke="#63b8ff" points="540.02,-300.08 550.61,-299.92 542.23,-293.44 540.02,-300.08"/>
</a>
</g>
</g>
</g>
</svg>
