<?xml version="1.0" encoding="UTF-8" standalone="no"?>
<!DOCTYPE svg PUBLIC "-//W3C//DTD SVG 1.1//EN"
 "http://www.w3.org/Graphics/SVG/1.1/DTD/svg11.dtd">
<!-- Generated by graphviz version 2.43.0 (0)
 -->
<!-- Title: MayaFlux::Core::Engine::operator= Pages: 1 -->
<!--zoomable 279 -->

<svg id="main" version="1.1" xmlns="http://www.w3.org/2000/svg" xmlns:xlink="http://www.w3.org/1999/xlink" xml:space="preserve" onload="init(evt)">
<style type="text/css"><![CDATA[
.node, .edge {opacity: 0.7;}
.node.selected, .edge.selected {opacity: 1;}
.edge:hover path { stroke: red; }
.edge:hover polygon { stroke: red; fill: red; }
]]></style>

<defs>
  <circle id="rim" cx="0" cy="0" r="7"/>
  <circle id="rim2" cx="0" cy="0" r="3.5"/>
  <g id="zoomPlus">
    <use xlink:href="#rim" fill="#404040"><set attributeName="fill" to="#808080" begin="zoomplus.mouseover" end="zoomplus.mouseout"/></use>
    <path d="M-4,0h8M0,-4v8" fill="none" stroke="white" stroke-width="1.5" pointer-events="none"/>
  </g>
  <g id="zoomMin">
    <use xlink:href="#rim" fill="#404040"><set attributeName="fill" to="#808080" begin="zoomminus.mouseover" end="zoomminus.mouseout"/></use>
    <path d="M-4,0h8" fill="none" stroke="white" stroke-width="1.5" pointer-events="none"/>
  </g>
  <g id="arrowUp" transform="translate(30 24)">
    <use xlink:href="#rim"/>
    <path pointer-events="none" fill="none" stroke="white" stroke-width="1.5" d="M0,-3.0v7 M-2.5,-0.5L0,-3.0L2.5,-0.5"/>
  </g>
  <g id="arrowRight" transform="rotate(90) translate(36 -43)">
    <use xlink:href="#rim"/>
    <path pointer-events="none" fill="none" stroke="white" stroke-width="1.5" d="M0,-3.0v7 M-2.5,-0.5L0,-3.0L2.5,-0.5"/>
  </g>
  <g id="arrowDown" transform="rotate(180) translate(-30 -48)">
    <use xlink:href="#rim"/>
    <path pointer-events="none" fill="none" stroke="white" stroke-width="1.5" d="M0,-3.0v7 M-2.5,-0.5L0,-3.0L2.5,-0.5"/>
  </g>
  <g id="arrowLeft" transform="rotate(270) translate(-36 17)">
    <use xlink:href="#rim"/>
    <path pointer-events="none" fill="none" stroke="white" stroke-width="1.5" d="M0,-3.0v7 M-2.5,-0.5L0,-3.0L2.5,-0.5"/>
  </g>
  <g id="resetDef">
    <use xlink:href="#rim2" fill="#404040"><set attributeName="fill" to="#808080" begin="reset.mouseover" end="reset.mouseout"/></use>
  </g>
</defs>
<script type="application/ecmascript">
var viewWidth = 1097;
var viewHeight = 279;
var sectionId = 'dynsection-0';
</script>
<script type="application/ecmascript" xlink:href="svg.min.js"/>
<svg id="graph" class="graph">
<g id="viewport">
<title>MayaFlux::Core::Engine::operator=</title>
<!-- Node1 -->
<g id="Node000001" class="node">
<title>Node1</title>
<g id="a_Node000001"><a xlink:title=" ">
<polygon fill="#999999" stroke="#666666" points="132,-186 0,-186 0,-156 132,-156 132,-186"/>
<text text-anchor="start" x="8" y="-174" font-family="Helvetica,sans-Serif" font-size="10.00">MayaFlux::Core::Engine</text>
<text text-anchor="middle" x="66" y="-163" font-family="Helvetica,sans-Serif" font-size="10.00">::operator=</text>
</a>
</g>
</g>
<!-- Node2 -->
<g id="Node000002" class="node">
<title>Node2</title>
<g id="a_Node000002"><a xlink:href="namespaceMayaFlux_afe8d554b31c372f2e0df38b03b51569a.html#afe8d554b31c372f2e0df38b03b51569a" target="_top" xlink:title="Stops and cleans up the default engine.">
<polygon fill="white" stroke="#666666" points="594.5,-263.5 505.5,-263.5 505.5,-244.5 594.5,-244.5 594.5,-263.5"/>
<text text-anchor="middle" x="550" y="-251.5" font-family="Helvetica,sans-Serif" font-size="10.00">MayaFlux::End</text>
</a>
</g>
</g>
<!-- Node1&#45;&gt;Node2 -->
<g id="edge1_Node000001_Node000002" class="edge">
<title>Node1&#45;&gt;Node2</title>
<g id="a_edge1_Node000001_Node000002"><a xlink:title=" ">
<path fill="none" stroke="#63b8ff" d="M86.16,-186.21C105.55,-200.64 137,-221.47 168,-231 280.37,-265.54 419.97,-263.25 495.09,-258.59"/>
<polygon fill="#63b8ff" stroke="#63b8ff" points="495.51,-262.07 505.25,-257.92 495.05,-255.09 495.51,-262.07"/>
</a>
</g>
</g>
<!-- Node8 -->
<g id="Node000008" class="node">
<title>Node8</title>
<g id="a_Node000008"><a xlink:href="namespaceMayaFlux_a7d2ef01625e07aeb15550318d3cfb708.html#a7d2ef01625e07aeb15550318d3cfb708" target="_top" xlink:title="Initializes the default engine with default settings.">
<polygon fill="white" stroke="#666666" points="266,-221.5 180,-221.5 180,-202.5 266,-202.5 266,-221.5"/>
<text text-anchor="middle" x="223" y="-209.5" font-family="Helvetica,sans-Serif" font-size="10.00">MayaFlux::Init</text>
</a>
</g>
</g>
<!-- Node1&#45;&gt;Node8 -->
<g id="edge7_Node000001_Node000008" class="edge">
<title>Node1&#45;&gt;Node8</title>
<g id="a_edge7_Node000001_Node000008"><a xlink:title=" ">
<path fill="none" stroke="#63b8ff" d="M123.84,-186.03C141.01,-190.58 159.64,-195.5 176.01,-199.84"/>
<polygon fill="#63b8ff" stroke="#63b8ff" points="175.32,-203.27 185.88,-202.45 177.11,-196.5 175.32,-203.27"/>
</a>
</g>
</g>
<!-- Node10 -->
<g id="Node000010" class="node">
<title>Node10</title>
<g id="a_Node000010"><a xlink:href="namespaceMayaFlux_a621f792c2b1f9e9d3f0d48c4cc7c2a4d.html#a621f792c2b1f9e9d3f0d48c4cc7c2a4d" target="_top" xlink:title="Pauses audio processing on the default engine.">
<polygon fill="white" stroke="#666666" points="272.5,-180.5 173.5,-180.5 173.5,-161.5 272.5,-161.5 272.5,-180.5"/>
<text text-anchor="middle" x="223" y="-168.5" font-family="Helvetica,sans-Serif" font-size="10.00">MayaFlux::Pause</text>
</a>
</g>
</g>
<!-- Node1&#45;&gt;Node10 -->
<g id="edge10_Node000001_Node000010" class="edge">
<title>Node1&#45;&gt;Node10</title>
<g id="a_edge10_Node000001_Node000010"><a xlink:title=" ">
<path fill="none" stroke="#63b8ff" d="M132.28,-171C142.48,-171 152.96,-171 163,-171"/>
<polygon fill="#63b8ff" stroke="#63b8ff" points="163.28,-174.5 173.28,-171 163.28,-167.5 163.28,-174.5"/>
</a>
</g>
</g>
<!-- Node13 -->
<g id="Node000013" class="node">
<title>Node13</title>
<g id="a_Node000013"><a xlink:href="namespaceMayaFlux_a22741f82eff8bc1d08b1a2f98e87bc16.html#a22741f82eff8bc1d08b1a2f98e87bc16" target="_top" xlink:title="Resumes audio processing on the default engine.">
<polygon fill="white" stroke="#666666" points="278,-140.5 168,-140.5 168,-121.5 278,-121.5 278,-140.5"/>
<text text-anchor="middle" x="223" y="-128.5" font-family="Helvetica,sans-Serif" font-size="10.00">MayaFlux::Resume</text>
</a>
</g>
</g>
<!-- Node1&#45;&gt;Node13 -->
<g id="edge14_Node000001_Node000013" class="edge">
<title>Node1&#45;&gt;Node13</title>
<g id="a_edge14_Node000001_Node000013"><a xlink:title=" ">
<path fill="none" stroke="#63b8ff" d="M125.16,-155.99C141.65,-151.74 159.38,-147.16 175.12,-143.1"/>
<polygon fill="#63b8ff" stroke="#63b8ff" points="176.32,-146.4 185.13,-140.51 174.57,-139.62 176.32,-146.4"/>
</a>
</g>
</g>
<!-- Node15 -->
<g id="Node000015" class="node">
<title>Node15</title>
<g id="a_Node000015"><a xlink:href="namespaceMayaFlux_a2955e2a3902c0ff3e7a7104fd584d27f.html#a2955e2a3902c0ff3e7a7104fd584d27f" target="_top" xlink:title="Starts audio processing on the default engine.">
<polygon fill="white" stroke="#666666" points="270,-103.5 176,-103.5 176,-84.5 270,-84.5 270,-103.5"/>
<text text-anchor="middle" x="223" y="-91.5" font-family="Helvetica,sans-Serif" font-size="10.00">MayaFlux::Start</text>
</a>
</g>
</g>
<!-- Node1&#45;&gt;Node15 -->
<g id="edge17_Node000001_Node000015" class="edge">
<title>Node1&#45;&gt;Node15</title>
<g id="a_edge17_Node000001_Node000015"><a xlink:title=" ">
<path fill="none" stroke="#63b8ff" d="M90.43,-155.9C110.49,-143.38 140.43,-125.64 168,-113 172.45,-110.96 177.19,-109 181.94,-107.17"/>
<polygon fill="#63b8ff" stroke="#63b8ff" points="183.45,-110.34 191.62,-103.59 181.03,-103.77 183.45,-110.34"/>
</a>
</g>
</g>
<!-- Node3 -->
<g id="Node000003" class="node">
<title>Node3</title>
<g id="a_Node000003"><a xlink:href="namespaceMayaFlux_1_1internal_a3cc5413e05c2f9c9f04372841aa0a5b1.html#a3cc5413e05c2f9c9f04372841aa0a5b1" target="_top" xlink:title=" ">
<polygon fill="white" stroke="#666666" points="762,-247 654,-247 654,-217 762,-217 762,-247"/>
<text text-anchor="start" x="662" y="-235" font-family="Helvetica,sans-Serif" font-size="10.00">MayaFlux::internal</text>
<text text-anchor="middle" x="708" y="-224" font-family="Helvetica,sans-Serif" font-size="10.00">::cleanup_engine</text>
</a>
</g>
</g>
<!-- Node2&#45;&gt;Node3 -->
<g id="edge2_Node000002_Node000003" class="edge">
<title>Node2&#45;&gt;Node3</title>
<g id="a_edge2_Node000002_Node000003"><a xlink:title=" ">
<path fill="none" stroke="#63b8ff" d="M594.87,-247.81C610.02,-245.68 627.31,-243.24 643.7,-240.93"/>
<polygon fill="#63b8ff" stroke="#63b8ff" points="644.35,-244.37 653.76,-239.51 643.37,-237.44 644.35,-244.37"/>
</a>
</g>
</g>
<!-- Node4 -->
<g id="Node000004" class="node">
<title>Node4</title>
<g id="a_Node000004"><a xlink:href="namespaceMayaFlux_1_1internal_ac4d6952d58cdfd56964a883d40aa655d.html#ac4d6952d58cdfd56964a883d40aa655d" target="_top" xlink:title=" ">
<polygon fill="white" stroke="#666666" points="943,-271 798,-271 798,-241 943,-241 943,-271"/>
<text text-anchor="start" x="806" y="-259" font-family="Helvetica,sans-Serif" font-size="10.00">MayaFlux::internal</text>
<text text-anchor="middle" x="870.5" y="-248" font-family="Helvetica,sans-Serif" font-size="10.00">::cleanup_persistent_store</text>
</a>
</g>
</g>
<!-- Node3&#45;&gt;Node4 -->
<g id="edge3_Node000003_Node000004" class="edge">
<title>Node3&#45;&gt;Node4</title>
<g id="a_edge3_Node000003_Node000004"><a xlink:title=" ">
<path fill="none" stroke="#63b8ff" d="M762.44,-239.99C770.57,-241.21 779.11,-242.48 787.68,-243.77"/>
<polygon fill="#63b8ff" stroke="#63b8ff" points="787.31,-247.25 797.72,-245.27 788.35,-240.33 787.31,-247.25"/>
</a>
</g>
</g>
<!-- Node6 -->
<g id="Node000006" class="node">
<title>Node6</title>
<g id="a_Node000006"><a xlink:href="classMayaFlux_1_1Journal_1_1Archivist_a82e2d12db8781df4afc43ef4c1fba2be.html#a82e2d12db8781df4afc43ef4c1fba2be" target="_top" xlink:title="Shutdown the logging system.">
<polygon fill="white" stroke="#666666" points="927,-223 814,-223 814,-193 927,-193 927,-223"/>
<text text-anchor="start" x="822" y="-211" font-family="Helvetica,sans-Serif" font-size="10.00">MayaFlux::Journal::</text>
<text text-anchor="middle" x="870.5" y="-200" font-family="Helvetica,sans-Serif" font-size="10.00">Archivist::shutdown</text>
</a>
</g>
</g>
<!-- Node3&#45;&gt;Node6 -->
<g id="edge5_Node000003_Node000006" class="edge">
<title>Node3&#45;&gt;Node6</title>
<g id="a_edge5_Node000003_Node000006"><a xlink:title=" ">
<path fill="none" stroke="#63b8ff" d="M762.44,-224.01C775.73,-222.02 790.11,-219.87 803.91,-217.81"/>
<polygon fill="#63b8ff" stroke="#63b8ff" points="804.44,-221.27 813.82,-216.33 803.41,-214.34 804.44,-221.27"/>
</a>
</g>
</g>
<!-- Node5 -->
<g id="Node000005" class="node">
<title>Node5</title>
<g id="a_Node000005"><a xlink:href="namespaceMayaFlux_1_1internal_ac26a7a92aa4af34c366aad03b68ea71e.html#ac26a7a92aa4af34c366aad03b68ea71e" target="_top" xlink:title=" ">
<polygon fill="white" stroke="#666666" points="1088,-271 980,-271 980,-241 1088,-241 1088,-271"/>
<text text-anchor="start" x="988" y="-259" font-family="Helvetica,sans-Serif" font-size="10.00">MayaFlux::internal</text>
<text text-anchor="middle" x="1034" y="-248" font-family="Helvetica,sans-Serif" font-size="10.00">::persistent_store</text>
</a>
</g>
</g>
<!-- Node4&#45;&gt;Node5 -->
<g id="edge4_Node000004_Node000005" class="edge">
<title>Node4&#45;&gt;Node5</title>
<g id="a_edge4_Node000004_Node000005"><a xlink:title=" ">
<path fill="none" stroke="#63b8ff" d="M943.28,-256C952.12,-256 961.1,-256 969.8,-256"/>
<polygon fill="#63b8ff" stroke="#63b8ff" points="969.86,-259.5 979.86,-256 969.86,-252.5 969.86,-259.5"/>
</a>
</g>
</g>
<!-- Node7 -->
<g id="Node000007" class="node">
<title>Node7</title>
<g id="a_Node000007"><a xlink:href="classMayaFlux_1_1Journal_1_1Archivist_a8b7829e34d79ec5bbbf02e3d4afbdab9.html#a8b7829e34d79ec5bbbf02e3d4afbdab9" target="_top" xlink:title="Get the singleton instance of the Archivist.">
<polygon fill="white" stroke="#666666" points="1089,-223 979,-223 979,-193 1089,-193 1089,-223"/>
<text text-anchor="start" x="987" y="-211" font-family="Helvetica,sans-Serif" font-size="10.00">MayaFlux::Journal::</text>
<text text-anchor="middle" x="1034" y="-200" font-family="Helvetica,sans-Serif" font-size="10.00">Archivist::instance</text>
</a>
</g>
</g>
<!-- Node6&#45;&gt;Node7 -->
<g id="edge6_Node000006_Node000007" class="edge">
<title>Node6&#45;&gt;Node7</title>
<g id="a_edge6_Node000006_Node000007"><a xlink:title=" ">
<path fill="none" stroke="#63b8ff" d="M927.08,-208C940.46,-208 954.86,-208 968.6,-208"/>
<polygon fill="#63b8ff" stroke="#63b8ff" points="968.96,-211.5 978.96,-208 968.96,-204.5 968.96,-211.5"/>
</a>
</g>
</g>
<!-- Node9 -->
<g id="Node000009" class="node">
<title>Node9</title>
<g id="a_Node000009"><a xlink:href="namespaceMayaFlux_1_1internal_ac0f0b4b1cae6af4441db0ea022e15583.html#ac0f0b4b1cae6af4441db0ea022e15583" target="_top" xlink:title=" ">
<polygon fill="white" stroke="#666666" points="614,-226 486,-226 486,-196 614,-196 614,-226"/>
<text text-anchor="start" x="494" y="-214" font-family="Helvetica,sans-Serif" font-size="10.00">MayaFlux::internal</text>
<text text-anchor="middle" x="550" y="-203" font-family="Helvetica,sans-Serif" font-size="10.00">::get_or_create_engine</text>
</a>
</g>
</g>
<!-- Node8&#45;&gt;Node9 -->
<g id="edge8_Node000008_Node000009" class="edge">
<title>Node8&#45;&gt;Node9</title>
<g id="a_edge8_Node000008_Node000009"><a xlink:title=" ">
<path fill="none" stroke="#63b8ff" d="M266.15,-211.87C319.14,-211.71 410.96,-211.42 475.58,-211.23"/>
<polygon fill="#63b8ff" stroke="#63b8ff" points="475.72,-214.73 485.71,-211.19 475.7,-207.73 475.72,-214.73"/>
</a>
</g>
</g>
<!-- Node9&#45;&gt;Node3 -->
<g id="edge9_Node000009_Node000003" class="edge">
<title>Node9&#45;&gt;Node3</title>
<g id="a_edge9_Node000009_Node000003"><a xlink:title=" ">
<path fill="none" stroke="#63b8ff" d="M614,-219.48C623.79,-220.8 633.91,-222.16 643.71,-223.48"/>
<polygon fill="#63b8ff" stroke="#63b8ff" points="643.4,-226.97 653.77,-224.83 644.33,-220.03 643.4,-226.97"/>
</a>
</g>
</g>
<!-- Node11 -->
<g id="Node000011" class="node">
<title>Node11</title>
<g id="a_Node000011"><a xlink:href="namespaceMayaFlux_ac4ab74951370ff0dd899203f3b94c775.html#ac4ab74951370ff0dd899203f3b94c775" target="_top" xlink:title="Gets the default engine instance.">
<polygon fill="white" stroke="#666666" points="444,-139.5 316,-139.5 316,-120.5 444,-120.5 444,-139.5"/>
<text text-anchor="middle" x="380" y="-127.5" font-family="Helvetica,sans-Serif" font-size="10.00">MayaFlux::get_context</text>
</a>
</g>
</g>
<!-- Node10&#45;&gt;Node11 -->
<g id="edge11_Node000010_Node000011" class="edge">
<title>Node10&#45;&gt;Node11</title>
<g id="a_edge11_Node000010_Node000011"><a xlink:title=" ">
<path fill="none" stroke="#63b8ff" d="M259.95,-161.49C281.78,-155.72 309.86,-148.29 333.26,-142.1"/>
<polygon fill="#63b8ff" stroke="#63b8ff" points="334.2,-145.47 342.98,-139.53 332.41,-138.7 334.2,-145.47"/>
</a>
</g>
</g>
<!-- Node12 -->
<g id="Node000012" class="node">
<title>Node12</title>
<g id="a_Node000012"><a xlink:href="classMayaFlux_1_1Core_1_1Engine_aa272d6acdfeb516d512bc005cafecc89.html#aa272d6acdfeb516d512bc005cafecc89" target="_top" xlink:title="Pauses all processing while maintaining system state.">
<polygon fill="white" stroke="#666666" points="446,-188 314,-188 314,-158 446,-158 446,-188"/>
<text text-anchor="start" x="322" y="-176" font-family="Helvetica,sans-Serif" font-size="10.00">MayaFlux::Core::Engine</text>
<text text-anchor="middle" x="380" y="-165" font-family="Helvetica,sans-Serif" font-size="10.00">::Pause</text>
</a>
</g>
</g>
<!-- Node10&#45;&gt;Node12 -->
<g id="edge13_Node000010_Node000012" class="edge">
<title>Node10&#45;&gt;Node12</title>
<g id="a_edge13_Node000010_Node000012"><a xlink:title=" ">
<path fill="none" stroke="#63b8ff" d="M272.62,-171.63C282.51,-171.75 293.13,-171.89 303.7,-172.03"/>
<polygon fill="#63b8ff" stroke="#63b8ff" points="303.74,-175.53 313.79,-172.16 303.83,-168.53 303.74,-175.53"/>
</a>
</g>
</g>
<!-- Node11&#45;&gt;Node9 -->
<g id="edge12_Node000011_Node000009" class="edge">
<title>Node11&#45;&gt;Node9</title>
<g id="a_edge12_Node000011_Node000009"><a xlink:title=" ">
<path fill="none" stroke="#63b8ff" d="M419.73,-139.55C428.52,-142.2 437.71,-145.37 446,-149 471.98,-160.39 499.4,-177.15 519.41,-190.38"/>
<polygon fill="#63b8ff" stroke="#63b8ff" points="517.52,-193.33 527.78,-195.99 521.42,-187.52 517.52,-193.33"/>
</a>
</g>
</g>
<!-- Node13&#45;&gt;Node11 -->
<g id="edge15_Node000013_Node000011" class="edge">
<title>Node13&#45;&gt;Node11</title>
<g id="a_edge15_Node000013_Node000011"><a xlink:title=" ">
<path fill="none" stroke="#63b8ff" d="M278.21,-130.65C287.12,-130.59 296.49,-130.53 305.77,-130.47"/>
<polygon fill="#63b8ff" stroke="#63b8ff" points="305.81,-133.97 315.78,-130.41 305.76,-126.97 305.81,-133.97"/>
</a>
</g>
</g>
<!-- Node14 -->
<g id="Node000014" class="node">
<title>Node14</title>
<g id="a_Node000014"><a xlink:href="classMayaFlux_1_1Core_1_1Engine_a309fd3ee908ef05ffa25abdb3b3aff17.html#a309fd3ee908ef05ffa25abdb3b3aff17" target="_top" xlink:title="Resumes processing from paused state.">
<polygon fill="white" stroke="#666666" points="446,-102 314,-102 314,-72 446,-72 446,-102"/>
<text text-anchor="start" x="322" y="-90" font-family="Helvetica,sans-Serif" font-size="10.00">MayaFlux::Core::Engine</text>
<text text-anchor="middle" x="380" y="-79" font-family="Helvetica,sans-Serif" font-size="10.00">::Resume</text>
</a>
</g>
</g>
<!-- Node13&#45;&gt;Node14 -->
<g id="edge16_Node000013_Node000014" class="edge">
<title>Node13&#45;&gt;Node14</title>
<g id="a_edge16_Node000013_Node000014"><a xlink:title=" ">
<path fill="none" stroke="#63b8ff" d="M257.63,-121.45C274.77,-116.59 296.18,-110.51 316.22,-104.82"/>
<polygon fill="#63b8ff" stroke="#63b8ff" points="317.26,-108.16 325.93,-102.07 315.35,-101.43 317.26,-108.16"/>
</a>
</g>
</g>
<!-- Node15&#45;&gt;Node11 -->
<g id="edge18_Node000015_Node000011" class="edge">
<title>Node15&#45;&gt;Node11</title>
<g id="a_edge18_Node000015_Node000011"><a xlink:title=" ">
<path fill="none" stroke="#63b8ff" d="M265.13,-103.55C284.48,-108.05 307.73,-113.45 328.17,-118.19"/>
<polygon fill="#63b8ff" stroke="#63b8ff" points="327.41,-121.61 337.95,-120.47 329,-114.79 327.41,-121.61"/>
</a>
</g>
</g>
<!-- Node16 -->
<g id="Node000016" class="node">
<title>Node16</title>
<g id="a_Node000016"><a xlink:href="classMayaFlux_1_1Core_1_1Engine_a780dcd6b2f3da01d574cba6e475e087c.html#a780dcd6b2f3da01d574cba6e475e087c" target="_top" xlink:title="Starts the coordinated processing of all subsystems.">
<polygon fill="white" stroke="#666666" points="446,-54 314,-54 314,-24 446,-24 446,-54"/>
<text text-anchor="start" x="322" y="-42" font-family="Helvetica,sans-Serif" font-size="10.00">MayaFlux::Core::Engine</text>
<text text-anchor="middle" x="380" y="-31" font-family="Helvetica,sans-Serif" font-size="10.00">::Start</text>
</a>
</g>
</g>
<!-- Node15&#45;&gt;Node16 -->
<g id="edge19_Node000015_Node000016" class="edge">
<title>Node15&#45;&gt;Node16</title>
<g id="a_edge19_Node000015_Node000016"><a xlink:title=" ">
<path fill="none" stroke="#63b8ff" d="M251,-84.42C271.92,-77 301.53,-66.49 327.01,-57.45"/>
<polygon fill="#63b8ff" stroke="#63b8ff" points="328.29,-60.71 336.54,-54.07 325.95,-54.11 328.29,-60.71"/>
</a>
</g>
</g>
<!-- Node17 -->
<g id="Node000017" class="node">
<title>Node17</title>
<g id="a_Node000017"><a xlink:href="classMayaFlux_1_1Core_1_1Engine_a0044b71bc1b400d9339a6e91312da074.html#a0044b71bc1b400d9339a6e91312da074" target="_top" xlink:title="Initializes all system components and prepares for processing.">
<polygon fill="white" stroke="#666666" points="616,-78 484,-78 484,-48 616,-48 616,-78"/>
<text text-anchor="start" x="492" y="-66" font-family="Helvetica,sans-Serif" font-size="10.00">MayaFlux::Core::Engine</text>
<text text-anchor="middle" x="550" y="-55" font-family="Helvetica,sans-Serif" font-size="10.00">::Init</text>
</a>
</g>
</g>
<!-- Node16&#45;&gt;Node17 -->
<g id="edge20_Node000016_Node000017" class="edge">
<title>Node16&#45;&gt;Node17</title>
<g id="a_edge20_Node000016_Node000017"><a xlink:title=" ">
<path fill="none" stroke="#63b8ff" d="M446.43,-48.35C455.34,-49.62 464.53,-50.93 473.59,-52.23"/>
<polygon fill="#63b8ff" stroke="#63b8ff" points="473.35,-55.73 483.74,-53.68 474.34,-48.8 473.35,-55.73"/>
</a>
</g>
</g>
<!-- Node18 -->
<g id="Node000018" class="node">
<title>Node18</title>
<g id="a_Node000018"><a xlink:href="namespaceMayaFlux_1_1Portal_1_1Forma_ae884428847183df6ad7f10994ff55095.html#ae884428847183df6ad7f10994ff55095" target="_top" xlink:title="Store engine&#45;level references for use by all subsequent Forma calls.">
<polygon fill="white" stroke="#666666" points="618,-30 482,-30 482,0 618,0 618,-30"/>
<text text-anchor="start" x="490" y="-18" font-family="Helvetica,sans-Serif" font-size="10.00">MayaFlux::Portal::Forma</text>
<text text-anchor="middle" x="550" y="-7" font-family="Helvetica,sans-Serif" font-size="10.00">::initialize</text>
</a>
</g>
</g>
<!-- Node16&#45;&gt;Node18 -->
<g id="edge22_Node000016_Node000018" class="edge">
<title>Node16&#45;&gt;Node18</title>
<g id="a_edge22_Node000016_Node000018"><a xlink:title=" ">
<path fill="none" stroke="#63b8ff" d="M446.43,-29.65C454.78,-28.46 463.38,-27.23 471.89,-26.02"/>
<polygon fill="#63b8ff" stroke="#63b8ff" points="472.4,-29.48 481.81,-24.6 471.41,-22.55 472.4,-29.48"/>
</a>
</g>
</g>
<!-- Node17&#45;&gt;Node17 -->
<g id="edge21_Node000017_Node000017" class="edge">
<title>Node17&#45;&gt;Node17</title>
<g id="a_edge21_Node000017_Node000017"><a xlink:title=" ">
<path fill="none" stroke="#63b8ff" d="M522.23,-78.28C516.05,-87.41 525.31,-96 550,-96 564.66,-96 573.88,-92.97 577.66,-88.6"/>
<polygon fill="#63b8ff" stroke="#63b8ff" points="581.16,-88.31 577.77,-78.28 574.16,-88.23 581.16,-88.31"/>
</a>
</g>
</g>
</g>
</svg>

<g id="navigator" transform="translate(0 0)" fill="#404254">
  <rect fill="#f2f5e9" fill-opacity="0.5" stroke="#606060" stroke-width=".5" x="0" y="0" width="60" height="60"/>
  <use id="zoomplus" xlink:href="#zoomPlus" x="17" y="9" onmousedown="handleZoom(evt,'in')"/>
  <use id="zoomminus" xlink:href="#zoomMin" x="42" y="9" onmousedown="handleZoom(evt,'out')"/>
  <use id="reset" xlink:href="#resetDef" x="30" y="36" onmousedown="handleReset()"/>
   <use id="arrowup" xlink:href="#arrowUp" x="0" y="0" onmousedown="handlePan(0,-1)"/>
  <use id="arrowright" xlink:href="#arrowRight" x="0" y="0" onmousedown="handlePan(1,0)"/>
  <use id="arrowdown" xlink:href="#arrowDown" x="0" y="0" onmousedown="handlePan(0,1)"/>
  <use id="arrowleft" xlink:href="#arrowLeft" x="0" y="0" onmousedown="handlePan(-1,0)"/>
</g>
<svg viewBox="0 0 15 15" width="100%" height="30px" preserveAspectRatio="xMaxYMin meet">
 <g id="arrow_out" transform="scale(0.3 0.3)">
  <a xlink:href="classMayaFlux_1_1Core_1_1Engine_afd59a3875597f3a7f239764e40104b6c_afd59a3875597f3a7f239764e40104b6c_cgraph_org.svg" target="_base">
   <rect id="button" ry="5" rx="5" y="6" x="6" height="38" width="38"
        fill="#f2f5e9" fill-opacity="0.5" stroke="#606060" stroke-width="1.0"/>
   <path id="arrow"
     d="M 11.500037,31.436501 C 11.940474,20.09759 22.043105,11.32322 32.158766,21.979434 L 37.068811,17.246167 C 37.068811,17.246167 37.088388,32 37.088388,32 L 22.160133,31.978069 C 22.160133,31.978069 26.997745,27.140456 26.997745,27.140456 C 18.528582,18.264221 13.291696,25.230495 11.500037,31.436501 z"
     style="fill:#404040;"/>
  </a>
 </g>
</svg>

<style type='text/css'>
<![CDATA[
[data-mouse-over-selected='false'] { opacity: 0.7; }
[data-mouse-over-selected='true']  { opacity: 1.0; }
]]>
</style>
<script type="application/ecmascript"><![CDATA[
document.addEventListener('DOMContentLoaded', (event) => {
  highlightEdges();
  highlightAdjacentNodes();
});
]]></script>
</svg>
