<?xml version="1.0" encoding="UTF-8" standalone="no"?>
<!DOCTYPE svg PUBLIC "-//W3C//DTD SVG 1.1//EN"
 "http://www.w3.org/Graphics/SVG/1.1/DTD/svg11.dtd">
<!-- Generated by graphviz version 2.43.0 (0)
 -->
<!-- Title: MayaFlux::Yantra::EnergyAnalyzer::compute_energy_values Pages: 1 -->
<!--zoomable 434 -->

<svg id="main" version="1.1" xmlns="http://www.w3.org/2000/svg" xmlns:xlink="http://www.w3.org/1999/xlink" xml:space="preserve" onload="init(evt)">
<style type="text/css"><![CDATA[
.node, .edge {opacity: 0.7;}
.node.selected, .edge.selected {opacity: 1;}
.edge:hover path { stroke: red; }
.edge:hover polygon { stroke: red; fill: red; }
]]></style>

<defs>
  <circle id="rim" cx="0" cy="0" r="7"/>
  <circle id="rim2" cx="0" cy="0" r="3.5"/>
  <g id="zoomPlus">
    <use xlink:href="#rim" fill="#404040"><set attributeName="fill" to="#808080" begin="zoomplus.mouseover" end="zoomplus.mouseout"/></use>
    <path d="M-4,0h8M0,-4v8" fill="none" stroke="white" stroke-width="1.5" pointer-events="none"/>
  </g>
  <g id="zoomMin">
    <use xlink:href="#rim" fill="#404040"><set attributeName="fill" to="#808080" begin="zoomminus.mouseover" end="zoomminus.mouseout"/></use>
    <path d="M-4,0h8" fill="none" stroke="white" stroke-width="1.5" pointer-events="none"/>
  </g>
  <g id="arrowUp" transform="translate(30 24)">
    <use xlink:href="#rim"/>
    <path pointer-events="none" fill="none" stroke="white" stroke-width="1.5" d="M0,-3.0v7 M-2.5,-0.5L0,-3.0L2.5,-0.5"/>
  </g>
  <g id="arrowRight" transform="rotate(90) translate(36 -43)">
    <use xlink:href="#rim"/>
    <path pointer-events="none" fill="none" stroke="white" stroke-width="1.5" d="M0,-3.0v7 M-2.5,-0.5L0,-3.0L2.5,-0.5"/>
  </g>
  <g id="arrowDown" transform="rotate(180) translate(-30 -48)">
    <use xlink:href="#rim"/>
    <path pointer-events="none" fill="none" stroke="white" stroke-width="1.5" d="M0,-3.0v7 M-2.5,-0.5L0,-3.0L2.5,-0.5"/>
  </g>
  <g id="arrowLeft" transform="rotate(270) translate(-36 17)">
    <use xlink:href="#rim"/>
    <path pointer-events="none" fill="none" stroke="white" stroke-width="1.5" d="M0,-3.0v7 M-2.5,-0.5L0,-3.0L2.5,-0.5"/>
  </g>
  <g id="resetDef">
    <use xlink:href="#rim2" fill="#404040"><set attributeName="fill" to="#808080" begin="reset.mouseover" end="reset.mouseout"/></use>
  </g>
</defs>
<script type="application/ecmascript">
var viewWidth = 544;
var viewHeight = 434;
var sectionId = 'dynsection-0';
</script>
<script type="application/ecmascript" xlink:href="svg.min.js"/>
<svg id="graph" class="graph">
<g id="viewport">
<title>MayaFlux::Yantra::EnergyAnalyzer::compute_energy_values</title>
<!-- Node1 -->
<g id="Node000001" class="node">
<title>Node1</title>
<g id="a_Node000001"><a xlink:title="Compute energy values using span (zero&#45;copy processing)">
<polygon fill="#999999" stroke="#666666" points="147,-221.5 0,-221.5 0,-180.5 147,-180.5 147,-221.5"/>
<text text-anchor="start" x="8" y="-209.5" font-family="Helvetica,sans-Serif" font-size="10.00">MayaFlux::Yantra::Energy</text>
<text text-anchor="start" x="8" y="-198.5" font-family="Helvetica,sans-Serif" font-size="10.00">Analyzer::compute_energy</text>
<text text-anchor="middle" x="73.5" y="-187.5" font-family="Helvetica,sans-Serif" font-size="10.00">_values</text>
</a>
</g>
</g>
<!-- Node2 -->
<g id="Node000002" class="node">
<title>Node2</title>
<g id="a_Node000002"><a xlink:href="classMayaFlux_1_1Yantra_1_1EnergyAnalyzer_a0489dcae47a0c85ad99ac2f458a49ae4.html#a0489dcae47a0c85ad99ac2f458a49ae4" target="_top" xlink:title="Calculate number of windows for given data size.">
<polygon fill="white" stroke="#666666" points="330.5,-425.5 190.5,-425.5 190.5,-384.5 330.5,-384.5 330.5,-425.5"/>
<text text-anchor="start" x="198.5" y="-413.5" font-family="Helvetica,sans-Serif" font-size="10.00">MayaFlux::Yantra::Energy</text>
<text text-anchor="start" x="198.5" y="-402.5" font-family="Helvetica,sans-Serif" font-size="10.00">Analyzer::calculate_num</text>
<text text-anchor="middle" x="260.5" y="-391.5" font-family="Helvetica,sans-Serif" font-size="10.00">_windows</text>
</a>
</g>
</g>
<!-- Node1&#45;&gt;Node2 -->
<g id="edge1_Node000001_Node000002" class="edge">
<title>Node1&#45;&gt;Node2</title>
<g id="a_edge1_Node000001_Node000002"><a xlink:title=" ">
<path fill="none" stroke="#63b8ff" d="M82.27,-221.68C96.78,-257.65 131.26,-331.99 183,-375 184.56,-376.3 186.19,-377.55 187.87,-378.74"/>
<polygon fill="#63b8ff" stroke="#63b8ff" points="186.31,-381.9 196.63,-384.33 190.07,-376 186.31,-381.9"/>
</a>
</g>
</g>
<!-- Node3 -->
<g id="Node000003" class="node">
<title>Node3</title>
<g id="a_Node000003"><a xlink:href="namespaceMayaFlux_1_1Kinesis_1_1Discrete_a61b99c5f7e008674f3514a3dc30c0934.html#a61b99c5f7e008674f3514a3dc30c0934" target="_top" xlink:title="Dynamic range in dB per window.">
<polygon fill="white" stroke="#666666" points="329.5,-366 191.5,-366 191.5,-336 329.5,-336 329.5,-366"/>
<text text-anchor="start" x="199.5" y="-354" font-family="Helvetica,sans-Serif" font-size="10.00">MayaFlux::Kinesis::</text>
<text text-anchor="middle" x="260.5" y="-343" font-family="Helvetica,sans-Serif" font-size="10.00">Discrete::dynamic_range</text>
</a>
</g>
</g>
<!-- Node1&#45;&gt;Node3 -->
<g id="edge2_Node000001_Node000003" class="edge">
<title>Node1&#45;&gt;Node3</title>
<g id="a_edge2_Node000001_Node000003"><a xlink:title=" ">
<path fill="none" stroke="#63b8ff" d="M86.93,-221.57C104.79,-249.43 140.31,-298.92 183,-327 185.45,-328.61 188.02,-330.12 190.67,-331.54"/>
<polygon fill="#63b8ff" stroke="#63b8ff" points="189.39,-334.81 199.92,-335.98 192.42,-328.5 189.39,-334.81"/>
</a>
</g>
</g>
<!-- Node4 -->
<g id="Node000004" class="node">
<title>Node4</title>
<g id="a_Node000004"><a xlink:href="namespaceMayaFlux_1_1Kinesis_1_1Discrete_a03f2f03915592b851e8b24778c4b814b.html#a03f2f03915592b851e8b24778c4b814b" target="_top" xlink:title="Low&#45;frequency spectral energy per window.">
<polygon fill="white" stroke="#666666" points="327.5,-299.5 193.5,-299.5 193.5,-258.5 327.5,-258.5 327.5,-299.5"/>
<text text-anchor="start" x="201.5" y="-287.5" font-family="Helvetica,sans-Serif" font-size="10.00">MayaFlux::Kinesis::</text>
<text text-anchor="start" x="201.5" y="-276.5" font-family="Helvetica,sans-Serif" font-size="10.00">Discrete::low_frequency</text>
<text text-anchor="middle" x="260.5" y="-265.5" font-family="Helvetica,sans-Serif" font-size="10.00">_energy</text>
</a>
</g>
</g>
<!-- Node1&#45;&gt;Node4 -->
<g id="edge3_Node000001_Node000004" class="edge">
<title>Node1&#45;&gt;Node4</title>
<g id="a_edge3_Node000001_Node000004"><a xlink:title=" ">
<path fill="none" stroke="#63b8ff" d="M119.71,-221.52C139.11,-230.19 162.09,-240.28 183,-249 187.46,-250.86 192.07,-252.75 196.72,-254.63"/>
<polygon fill="#63b8ff" stroke="#63b8ff" points="195.71,-258 206.29,-258.47 198.32,-251.5 195.71,-258"/>
</a>
</g>
</g>
<!-- Node5 -->
<g id="Node000005" class="node">
<title>Node5</title>
<g id="a_Node000005"><a xlink:href="namespaceMayaFlux_1_1Kinesis_1_1Discrete_a5970ee5660c02fb526cd5ad6f5895e4a.html#a5970ee5660c02fb526cd5ad6f5895e4a" target="_top" xlink:title="Peak amplitude per window.">
<polygon fill="white" stroke="#666666" points="316.5,-240 204.5,-240 204.5,-210 316.5,-210 316.5,-240"/>
<text text-anchor="start" x="212.5" y="-228" font-family="Helvetica,sans-Serif" font-size="10.00">MayaFlux::Kinesis::</text>
<text text-anchor="middle" x="260.5" y="-217" font-family="Helvetica,sans-Serif" font-size="10.00">Discrete::peak</text>
</a>
</g>
</g>
<!-- Node1&#45;&gt;Node5 -->
<g id="edge5_Node000001_Node000005" class="edge">
<title>Node1&#45;&gt;Node5</title>
<g id="a_edge5_Node000001_Node000005"><a xlink:title=" ">
<path fill="none" stroke="#63b8ff" d="M147.09,-210.42C162.55,-212.42 178.79,-214.53 193.97,-216.5"/>
<polygon fill="#63b8ff" stroke="#63b8ff" points="193.92,-220.02 204.29,-217.84 194.82,-213.08 193.92,-220.02"/>
</a>
</g>
</g>
<!-- Node6 -->
<g id="Node000006" class="node">
<title>Node6</title>
<g id="a_Node000006"><a xlink:href="namespaceMayaFlux_1_1Kinesis_1_1Discrete_a2fe753ad61d3b9669d7fcf5369bcb700.html#a2fe753ad61d3b9669d7fcf5369bcb700" target="_top" xlink:title="Power (sum of squares) per window.">
<polygon fill="white" stroke="#666666" points="316.5,-192 204.5,-192 204.5,-162 316.5,-162 316.5,-192"/>
<text text-anchor="start" x="212.5" y="-180" font-family="Helvetica,sans-Serif" font-size="10.00">MayaFlux::Kinesis::</text>
<text text-anchor="middle" x="260.5" y="-169" font-family="Helvetica,sans-Serif" font-size="10.00">Discrete::power</text>
</a>
</g>
</g>
<!-- Node1&#45;&gt;Node6 -->
<g id="edge6_Node000001_Node000006" class="edge">
<title>Node1&#45;&gt;Node6</title>
<g id="a_edge6_Node000001_Node000006"><a xlink:title=" ">
<path fill="none" stroke="#63b8ff" d="M147.09,-191.58C162.55,-189.58 178.79,-187.47 193.97,-185.5"/>
<polygon fill="#63b8ff" stroke="#63b8ff" points="194.82,-188.92 204.29,-184.16 193.92,-181.98 194.82,-188.92"/>
</a>
</g>
</g>
<!-- Node7 -->
<g id="Node000007" class="node">
<title>Node7</title>
<g id="a_Node000007"><a xlink:href="namespaceMayaFlux_1_1Kinesis_1_1Discrete_ace9bc7c524eeeff35f5d23bf4b14a6ce.html#ace9bc7c524eeeff35f5d23bf4b14a6ce" target="_top" xlink:title="RMS energy per window.">
<polygon fill="white" stroke="#666666" points="316.5,-144 204.5,-144 204.5,-114 316.5,-114 316.5,-144"/>
<text text-anchor="start" x="212.5" y="-132" font-family="Helvetica,sans-Serif" font-size="10.00">MayaFlux::Kinesis::</text>
<text text-anchor="middle" x="260.5" y="-121" font-family="Helvetica,sans-Serif" font-size="10.00">Discrete::rms</text>
</a>
</g>
</g>
<!-- Node1&#45;&gt;Node7 -->
<g id="edge7_Node000001_Node000007" class="edge">
<title>Node1&#45;&gt;Node7</title>
<g id="a_edge7_Node000001_Node000007"><a xlink:title=" ">
<path fill="none" stroke="#63b8ff" d="M117.85,-180.48C137.53,-171.52 161.22,-161.2 183,-153 188.13,-151.07 193.49,-149.16 198.89,-147.32"/>
<polygon fill="#63b8ff" stroke="#63b8ff" points="200.23,-150.56 208.61,-144.08 198.02,-143.92 200.23,-150.56"/>
</a>
</g>
</g>
<!-- Node8 -->
<g id="Node000008" class="node">
<title>Node8</title>
<g id="a_Node000008"><a xlink:href="namespaceMayaFlux_1_1Kinesis_1_1Discrete_a17e49f6396fb23a61d038d0d8f308666.html#a17e49f6396fb23a61d038d0d8f308666" target="_top" xlink:title="Spectral energy per window using Hann&#45;windowed FFT.">
<polygon fill="white" stroke="#666666" points="331,-78 190,-78 190,-48 331,-48 331,-78"/>
<text text-anchor="start" x="198" y="-66" font-family="Helvetica,sans-Serif" font-size="10.00">MayaFlux::Kinesis::</text>
<text text-anchor="middle" x="260.5" y="-55" font-family="Helvetica,sans-Serif" font-size="10.00">Discrete::spectral_energy</text>
</a>
</g>
</g>
<!-- Node1&#45;&gt;Node8 -->
<g id="edge8_Node000001_Node000008" class="edge">
<title>Node1&#45;&gt;Node8</title>
<g id="a_edge8_Node000001_Node000008"><a xlink:title=" ">
<path fill="none" stroke="#63b8ff" d="M94.95,-180.4C115.93,-159.87 150.09,-128.16 183,-105 194.35,-97.01 207.38,-89.36 219.43,-82.83"/>
<polygon fill="#63b8ff" stroke="#63b8ff" points="221.22,-85.84 228.41,-78.06 217.94,-79.66 221.22,-85.84"/>
</a>
</g>
</g>
<!-- Node9 -->
<g id="Node000009" class="node">
<title>Node9</title>
<g id="a_Node000009"><a xlink:href="namespaceMayaFlux_1_1Kinesis_1_1Discrete_acdf5fda9e4de1ead09e1b29a4fecd411.html#acdf5fda9e4de1ead09e1b29a4fecd411" target="_top" xlink:title="Zero&#45;crossing rate per window.">
<polygon fill="white" stroke="#666666" points="338,-30 183,-30 183,0 338,0 338,-30"/>
<text text-anchor="start" x="191" y="-18" font-family="Helvetica,sans-Serif" font-size="10.00">MayaFlux::Kinesis::</text>
<text text-anchor="middle" x="260.5" y="-7" font-family="Helvetica,sans-Serif" font-size="10.00">Discrete::zero_crossing_rate</text>
</a>
</g>
</g>
<!-- Node1&#45;&gt;Node9 -->
<g id="edge10_Node000001_Node000009" class="edge">
<title>Node1&#45;&gt;Node9</title>
<g id="a_edge10_Node000001_Node000009"><a xlink:title=" ">
<path fill="none" stroke="#63b8ff" d="M82.85,-180.3C97.78,-145.88 132.32,-76.92 183,-39 184.86,-37.61 186.8,-36.3 188.8,-35.07"/>
<polygon fill="#63b8ff" stroke="#63b8ff" points="190.8,-37.96 197.93,-30.12 187.47,-31.81 190.8,-37.96"/>
</a>
</g>
</g>
<!-- Node4&#45;&gt;Node4 -->
<g id="edge4_Node000004_Node000004" class="edge">
<title>Node4&#45;&gt;Node4</title>
<g id="a_edge4_Node000004_Node000004"><a xlink:title=" ">
<path fill="none" stroke="#63b8ff" d="M226.31,-299.6C222.59,-309.15 233.98,-317.5 260.5,-317.5 277.07,-317.5 287.74,-314.24 292.5,-309.46"/>
<polygon fill="#63b8ff" stroke="#63b8ff" points="295.94,-310.12 294.69,-299.6 289.11,-308.6 295.94,-310.12"/>
</a>
</g>
</g>
<!-- Node8&#45;&gt;Node8 -->
<g id="edge9_Node000008_Node000008" class="edge">
<title>Node8&#45;&gt;Node8</title>
<g id="a_edge9_Node000008_Node000008"><a xlink:title=" ">
<path fill="none" stroke="#63b8ff" d="M227.8,-78.28C220.54,-87.41 231.44,-96 260.5,-96 277.76,-96 288.61,-92.97 293.06,-88.6"/>
<polygon fill="#63b8ff" stroke="#63b8ff" points="296.56,-88.32 293.2,-78.28 289.56,-88.23 296.56,-88.32"/>
</a>
</g>
</g>
<!-- Node10 -->
<g id="Node000010" class="node">
<title>Node10</title>
<g id="a_Node000010"><a xlink:href="namespaceMayaFlux_a22c2d3948659bbf41f4f49b7ae524f35.html#a22c2d3948659bbf41f4f49b7ae524f35" target="_top" xlink:title="Calculate zero crossing rate for single&#45;channel data.">
<polygon fill="white" stroke="#666666" points="536,-24.5 374,-24.5 374,-5.5 536,-5.5 536,-24.5"/>
<text text-anchor="middle" x="455" y="-12.5" font-family="Helvetica,sans-Serif" font-size="10.00">MayaFlux::zero_crossing_rate</text>
</a>
</g>
</g>
<!-- Node9&#45;&gt;Node10 -->
<g id="edge11_Node000009_Node000010" class="edge">
<title>Node9&#45;&gt;Node10</title>
<g id="a_edge11_Node000009_Node000010"><a xlink:title=" ">
<path fill="none" stroke="#63b8ff" d="M338.13,-15C346.57,-15 355.22,-15 363.81,-15"/>
<polygon fill="#63b8ff" stroke="#63b8ff" points="363.84,-18.5 373.84,-15 363.84,-11.5 363.84,-18.5"/>
</a>
</g>
</g>
</g>
</svg>

<g id="navigator" transform="translate(0 0)" fill="#404254">
  <rect fill="#f2f5e9" fill-opacity="0.5" stroke="#606060" stroke-width=".5" x="0" y="0" width="60" height="60"/>
  <use id="zoomplus" xlink:href="#zoomPlus" x="17" y="9" onmousedown="handleZoom(evt,'in')"/>
  <use id="zoomminus" xlink:href="#zoomMin" x="42" y="9" onmousedown="handleZoom(evt,'out')"/>
  <use id="reset" xlink:href="#resetDef" x="30" y="36" onmousedown="handleReset()"/>
   <use id="arrowup" xlink:href="#arrowUp" x="0" y="0" onmousedown="handlePan(0,-1)"/>
  <use id="arrowright" xlink:href="#arrowRight" x="0" y="0" onmousedown="handlePan(1,0)"/>
  <use id="arrowdown" xlink:href="#arrowDown" x="0" y="0" onmousedown="handlePan(0,1)"/>
  <use id="arrowleft" xlink:href="#arrowLeft" x="0" y="0" onmousedown="handlePan(-1,0)"/>
</g>
<svg viewBox="0 0 15 15" width="100%" height="30px" preserveAspectRatio="xMaxYMin meet">
 <g id="arrow_out" transform="scale(0.3 0.3)">
  <a xlink:href="classMayaFlux_1_1Yantra_1_1EnergyAnalyzer_aae10121eaa04e3e509079717b90890ef_aae10121eaa04e3e509079717b90890ef_cgraph_org.svg" target="_base">
   <rect id="button" ry="5" rx="5" y="6" x="6" height="38" width="38"
        fill="#f2f5e9" fill-opacity="0.5" stroke="#606060" stroke-width="1.0"/>
   <path id="arrow"
     d="M 11.500037,31.436501 C 11.940474,20.09759 22.043105,11.32322 32.158766,21.979434 L 37.068811,17.246167 C 37.068811,17.246167 37.088388,32 37.088388,32 L 22.160133,31.978069 C 22.160133,31.978069 26.997745,27.140456 26.997745,27.140456 C 18.528582,18.264221 13.291696,25.230495 11.500037,31.436501 z"
     style="fill:#404040;"/>
  </a>
 </g>
</svg>

<style type='text/css'>
<![CDATA[
[data-mouse-over-selected='false'] { opacity: 0.7; }
[data-mouse-over-selected='true']  { opacity: 1.0; }
]]>
</style>
<script type="application/ecmascript"><![CDATA[
document.addEventListener('DOMContentLoaded', (event) => {
  highlightEdges();
  highlightAdjacentNodes();
});
]]></script>
</svg>
