<?xml version="1.0" encoding="UTF-8" standalone="no"?>
<!DOCTYPE svg PUBLIC "-//W3C//DTD SVG 1.1//EN"
 "http://www.w3.org/Graphics/SVG/1.1/DTD/svg11.dtd">
<!-- Generated by graphviz version 2.43.0 (0)
 -->
<!-- Title: MayaFlux::Kriya::EventChain::start Pages: 1 -->
<svg width="793pt" height="354pt"
 viewBox="0.00 0.00 793.00 354.00" xmlns="http://www.w3.org/2000/svg" xmlns:xlink="http://www.w3.org/1999/xlink">
<g id="graph0" class="graph" transform="scale(1 1) rotate(0) translate(4 350)">
<title>MayaFlux::Kriya::EventChain::start</title>
<!-- Node1 -->
<g id="Node000001" class="node">
<title>Node1</title>
<g id="a_Node000001"><a xlink:title="Starts executing the event chain.">
<polygon fill="#999999" stroke="#666666" points="158,-99 0,-99 0,-69 158,-69 158,-99"/>
<text text-anchor="start" x="8" y="-87" font-family="Helvetica,sans-Serif" font-size="10.00">MayaFlux::Kriya::EventChain</text>
<text text-anchor="middle" x="79" y="-76" font-family="Helvetica,sans-Serif" font-size="10.00">::start</text>
</a>
</g>
</g>
<!-- Node2 -->
<g id="Node000002" class="node">
<title>Node2</title>
<g id="a_Node000002"><a xlink:href="classMayaFlux_1_1Vruta_1_1TaskScheduler_a01f29b8e9975b80306f4bc0b534a09d8.html#a01f29b8e9975b80306f4bc0b534a09d8" target="_top" xlink:title="Add a routine to the scheduler based on its processing token.">
<polygon fill="white" stroke="#666666" points="367,-226 194,-226 194,-196 367,-196 367,-226"/>
<text text-anchor="start" x="202" y="-214" font-family="Helvetica,sans-Serif" font-size="10.00">MayaFlux::Vruta::TaskScheduler</text>
<text text-anchor="middle" x="280.5" y="-203" font-family="Helvetica,sans-Serif" font-size="10.00">::add_task</text>
</a>
</g>
</g>
<!-- Node1&#45;&gt;Node2 -->
<g id="edge1_Node000001_Node000002" class="edge">
<title>Node1&#45;&gt;Node2</title>
<g id="a_edge1_Node000001_Node000002"><a xlink:title=" ">
<path fill="none" stroke="#63b8ff" d="M103.67,-99.07C139.36,-121.79 207.06,-164.89 247.24,-190.47"/>
<polygon fill="#63b8ff" stroke="#63b8ff" points="245.55,-193.53 255.86,-195.95 249.31,-187.63 245.55,-193.53"/>
</a>
</g>
</g>
<!-- Node4 -->
<g id="Node000004" class="node">
<title>Node4</title>
<g id="a_Node000004"><a xlink:href="classMayaFlux_1_1Vruta_1_1TaskScheduler_a8c97edc92dee77f6fc9b6030a14637e7.html#a8c97edc92dee77f6fc9b6030a14637e7" target="_top" xlink:title="Generates a unique task ID for new tasks.">
<polygon fill="white" stroke="#666666" points="785,-186 612,-186 612,-156 785,-156 785,-186"/>
<text text-anchor="start" x="620" y="-174" font-family="Helvetica,sans-Serif" font-size="10.00">MayaFlux::Vruta::TaskScheduler</text>
<text text-anchor="middle" x="698.5" y="-163" font-family="Helvetica,sans-Serif" font-size="10.00">::get_next_task_id</text>
</a>
</g>
</g>
<!-- Node1&#45;&gt;Node4 -->
<g id="edge9_Node000001_Node000004" class="edge">
<title>Node1&#45;&gt;Node4</title>
<g id="a_edge9_Node000001_Node000004"><a xlink:title=" ">
<path fill="none" stroke="#63b8ff" d="M158.21,-87.8C277.36,-94.04 498.67,-107.53 576,-125 603.34,-131.18 632.76,-142.19 655.8,-151.9"/>
<polygon fill="#63b8ff" stroke="#63b8ff" points="654.69,-155.23 665.26,-155.96 657.45,-148.8 654.69,-155.23"/>
</a>
</g>
</g>
<!-- Node10 -->
<g id="Node000010" class="node">
<title>Node10</title>
<g id="a_Node000010"><a xlink:href="classMayaFlux_1_1Kriya_1_1EventChain_abdfc03558146e0d95019b88e287e81cf.html#abdfc03558146e0d95019b88e287e81cf" target="_top" xlink:title="Gets the repeat count for the entire chain.">
<polygon fill="white" stroke="#666666" points="359.5,-78 201.5,-78 201.5,-48 359.5,-48 359.5,-78"/>
<text text-anchor="start" x="209.5" y="-66" font-family="Helvetica,sans-Serif" font-size="10.00">MayaFlux::Kriya::EventChain</text>
<text text-anchor="middle" x="280.5" y="-55" font-family="Helvetica,sans-Serif" font-size="10.00">::repeat_count</text>
</a>
</g>
</g>
<!-- Node1&#45;&gt;Node10 -->
<g id="edge10_Node000001_Node000010" class="edge">
<title>Node1&#45;&gt;Node10</title>
<g id="a_edge10_Node000001_Node000010"><a xlink:title=" ">
<path fill="none" stroke="#63b8ff" d="M158.28,-75.76C169.14,-74.62 180.36,-73.44 191.39,-72.27"/>
<polygon fill="#63b8ff" stroke="#63b8ff" points="191.87,-75.74 201.45,-71.22 191.14,-68.78 191.87,-75.74"/>
</a>
</g>
</g>
<!-- Node11 -->
<g id="Node000011" class="node">
<title>Node11</title>
<g id="a_Node000011"><a xlink:href="namespaceMayaFlux_1_1Vruta_a7177bcc99955f63b0ee314154a6d4de4.html#a7177bcc99955f63b0ee314154a6d4de4" target="_top" xlink:title="Convert seconds to samples at a given sample rate.">
<polygon fill="white" stroke="#666666" points="352,-30 209,-30 209,0 352,0 352,-30"/>
<text text-anchor="start" x="217" y="-18" font-family="Helvetica,sans-Serif" font-size="10.00">MayaFlux::Vruta::seconds</text>
<text text-anchor="middle" x="280.5" y="-7" font-family="Helvetica,sans-Serif" font-size="10.00">_to_samples</text>
</a>
</g>
</g>
<!-- Node1&#45;&gt;Node11 -->
<g id="edge11_Node000001_Node000011" class="edge">
<title>Node1&#45;&gt;Node11</title>
<g id="a_edge11_Node000001_Node000011"><a xlink:title=" ">
<path fill="none" stroke="#63b8ff" d="M115.34,-68.97C137.68,-59.74 167.28,-48 194,-39 200.04,-36.97 206.36,-34.96 212.71,-33.03"/>
<polygon fill="#63b8ff" stroke="#63b8ff" points="214.09,-36.27 222.68,-30.07 212.1,-29.56 214.09,-36.27"/>
</a>
</g>
</g>
<!-- Node3 -->
<g id="Node000003" class="node">
<title>Node3</title>
<g id="a_Node000003"><a xlink:href="classMayaFlux_1_1Vruta_1_1TaskScheduler_a56a711df9c3a3f4e569e036ea6980559.html#a56a711df9c3a3f4e569e036ea6980559" target="_top" xlink:title="Generate automatic name for a routine based on its type.">
<polygon fill="white" stroke="#666666" points="576,-250 403,-250 403,-220 576,-220 576,-250"/>
<text text-anchor="start" x="411" y="-238" font-family="Helvetica,sans-Serif" font-size="10.00">MayaFlux::Vruta::TaskScheduler</text>
<text text-anchor="middle" x="489.5" y="-227" font-family="Helvetica,sans-Serif" font-size="10.00">::auto_generate_name</text>
</a>
</g>
</g>
<!-- Node2&#45;&gt;Node3 -->
<g id="edge2_Node000002_Node000003" class="edge">
<title>Node2&#45;&gt;Node3</title>
<g id="a_edge2_Node000002_Node000003"><a xlink:title=" ">
<path fill="none" stroke="#63b8ff" d="M367.19,-220.93C375.66,-221.92 384.3,-222.92 392.87,-223.91"/>
<polygon fill="#63b8ff" stroke="#63b8ff" points="392.54,-227.4 402.88,-225.07 393.34,-220.44 392.54,-227.4"/>
</a>
</g>
</g>
<!-- Node5 -->
<g id="Node000005" class="node">
<title>Node5</title>
<g id="a_Node000005"><a xlink:href="classMayaFlux_1_1Vruta_1_1TaskScheduler_a81c68c47d8ac2ce8f736f8d35f4fe20c.html#a81c68c47d8ac2ce8f736f8d35f4fe20c" target="_top" xlink:title="Initialize a processing domain if it doesn&#39;t exist.">
<polygon fill="white" stroke="#666666" points="576,-298 403,-298 403,-268 576,-268 576,-298"/>
<text text-anchor="start" x="411" y="-286" font-family="Helvetica,sans-Serif" font-size="10.00">MayaFlux::Vruta::TaskScheduler</text>
<text text-anchor="middle" x="489.5" y="-275" font-family="Helvetica,sans-Serif" font-size="10.00">::ensure_domain</text>
</a>
</g>
</g>
<!-- Node2&#45;&gt;Node5 -->
<g id="edge4_Node000002_Node000005" class="edge">
<title>Node2&#45;&gt;Node5</title>
<g id="a_edge4_Node000002_Node000005"><a xlink:title=" ">
<path fill="none" stroke="#63b8ff" d="M316.77,-226.04C340.83,-236.03 373.55,-249.08 403,-259 409.04,-261.04 415.36,-263.04 421.71,-264.97"/>
<polygon fill="#63b8ff" stroke="#63b8ff" points="421.1,-268.44 431.68,-267.93 423.09,-261.73 421.1,-268.44"/>
</a>
</g>
</g>
<!-- Node7 -->
<g id="Node000007" class="node">
<title>Node7</title>
<g id="a_Node000007"><a xlink:href="classMayaFlux_1_1Vruta_1_1TaskScheduler_a6cab5fd4999392badaec656a94ab3d16.html#a6cab5fd4999392badaec656a94ab3d16" target="_top" xlink:title="Find task entry by name.">
<polygon fill="white" stroke="#666666" points="576,-202 403,-202 403,-172 576,-172 576,-202"/>
<text text-anchor="start" x="411" y="-190" font-family="Helvetica,sans-Serif" font-size="10.00">MayaFlux::Vruta::TaskScheduler</text>
<text text-anchor="middle" x="489.5" y="-179" font-family="Helvetica,sans-Serif" font-size="10.00">::find_task_by_name</text>
</a>
</g>
</g>
<!-- Node2&#45;&gt;Node7 -->
<g id="edge6_Node000002_Node000007" class="edge">
<title>Node2&#45;&gt;Node7</title>
<g id="a_edge6_Node000002_Node000007"><a xlink:title=" ">
<path fill="none" stroke="#63b8ff" d="M367.19,-201.07C375.66,-200.08 384.3,-199.08 392.87,-198.09"/>
<polygon fill="#63b8ff" stroke="#63b8ff" points="393.34,-201.56 402.88,-196.93 392.54,-194.6 393.34,-201.56"/>
</a>
</g>
</g>
<!-- Node8 -->
<g id="Node000008" class="node">
<title>Node8</title>
<g id="a_Node000008"><a xlink:href="main_8cpp_a25a40b6614565f755233080a384c35f1.html#a25a40b6614565f755233080a384c35f1" target="_top" xlink:title=" ">
<polygon fill="white" stroke="#666666" points="519,-153.5 460,-153.5 460,-134.5 519,-134.5 519,-153.5"/>
<text text-anchor="middle" x="489.5" y="-141.5" font-family="Helvetica,sans-Serif" font-size="10.00">initialize</text>
</a>
</g>
</g>
<!-- Node2&#45;&gt;Node8 -->
<g id="edge7_Node000002_Node000008" class="edge">
<title>Node2&#45;&gt;Node8</title>
<g id="a_edge7_Node000002_Node000008"><a xlink:title=" ">
<path fill="none" stroke="#63b8ff" d="M315.29,-195.99C339.39,-185.69 372.75,-172.27 403,-163 418.12,-158.37 435.07,-154.36 449.86,-151.24"/>
<polygon fill="#63b8ff" stroke="#63b8ff" points="450.61,-154.66 459.71,-149.22 449.21,-147.8 450.61,-154.66"/>
</a>
</g>
</g>
<!-- Node9 -->
<g id="Node000009" class="node">
<title>Node9</title>
<g id="a_Node000009"><a xlink:href="classMayaFlux_1_1Vruta_1_1TaskScheduler_a09eae60c02e878e614b69c8ead276f14.html#a09eae60c02e878e614b69c8ead276f14" target="_top" xlink:title="Initialize a routine&#39;s state for a specific domain.">
<polygon fill="white" stroke="#666666" points="576,-346 403,-346 403,-316 576,-316 576,-346"/>
<text text-anchor="start" x="411" y="-334" font-family="Helvetica,sans-Serif" font-size="10.00">MayaFlux::Vruta::TaskScheduler</text>
<text text-anchor="middle" x="489.5" y="-323" font-family="Helvetica,sans-Serif" font-size="10.00">::initialize_routine_state</text>
</a>
</g>
</g>
<!-- Node2&#45;&gt;Node9 -->
<g id="edge8_Node000002_Node000009" class="edge">
<title>Node2&#45;&gt;Node9</title>
<g id="a_edge8_Node000002_Node000009"><a xlink:title=" ">
<path fill="none" stroke="#63b8ff" d="M296.59,-226.26C318.28,-247.35 360.36,-285.28 403,-307 406.71,-308.89 410.59,-310.65 414.56,-312.28"/>
<polygon fill="#63b8ff" stroke="#63b8ff" points="413.36,-315.57 423.95,-315.87 415.86,-309.03 413.36,-315.57"/>
</a>
</g>
</g>
<!-- Node3&#45;&gt;Node4 -->
<g id="edge3_Node000003_Node000004" class="edge">
<title>Node3&#45;&gt;Node4</title>
<g id="a_edge3_Node000003_Node000004"><a xlink:title=" ">
<path fill="none" stroke="#63b8ff" d="M545.34,-220C555.55,-217.09 566.12,-214.01 576,-211 598.28,-204.21 622.7,-196.27 643.77,-189.26"/>
<polygon fill="#63b8ff" stroke="#63b8ff" points="645.12,-192.5 653.5,-186.01 642.91,-185.86 645.12,-192.5"/>
</a>
</g>
</g>
<!-- Node6 -->
<g id="Node000006" class="node">
<title>Node6</title>
<g id="a_Node000006"><a xlink:href="classMayaFlux_1_1Vruta_1_1TaskScheduler_a219ff6ebd74ddb638ccf403556a0168c.html#a219ff6ebd74ddb638ccf403556a0168c" target="_top" xlink:title="Get the default rate for a processing token.">
<polygon fill="white" stroke="#666666" points="785,-298 612,-298 612,-268 785,-268 785,-298"/>
<text text-anchor="start" x="620" y="-286" font-family="Helvetica,sans-Serif" font-size="10.00">MayaFlux::Vruta::TaskScheduler</text>
<text text-anchor="middle" x="698.5" y="-275" font-family="Helvetica,sans-Serif" font-size="10.00">::get_default_rate</text>
</a>
</g>
</g>
<!-- Node5&#45;&gt;Node6 -->
<g id="edge5_Node000005_Node000006" class="edge">
<title>Node5&#45;&gt;Node6</title>
<g id="a_edge5_Node000005_Node000006"><a xlink:title=" ">
<path fill="none" stroke="#63b8ff" d="M576.19,-283C584.66,-283 593.3,-283 601.87,-283"/>
<polygon fill="#63b8ff" stroke="#63b8ff" points="601.88,-286.5 611.88,-283 601.88,-279.5 601.88,-286.5"/>
</a>
</g>
</g>
</g>
</svg>
