<?xml version="1.0" encoding="UTF-8" standalone="no"?>
<!DOCTYPE svg PUBLIC "-//W3C//DTD SVG 1.1//EN"
 "http://www.w3.org/Graphics/SVG/1.1/DTD/svg11.dtd">
<!-- Generated by graphviz version 2.43.0 (0)
 -->
<!-- Title: MayaFlux::Kriya::TemporalActivation::activate_node Pages: 1 -->
<svg width="1211pt" height="634pt"
 viewBox="0.00 0.00 1211.00 634.00" xmlns="http://www.w3.org/2000/svg" xmlns:xlink="http://www.w3.org/1999/xlink">
<g id="graph0" class="graph" transform="scale(1 1) rotate(0) translate(4 630)">
<title>MayaFlux::Kriya::TemporalActivation::activate_node</title>
<!-- Node1 -->
<g id="Node000001" class="node">
<title>Node1</title>
<g id="a_Node000001"><a xlink:title="Activates a node for a specified duration.">
<polygon fill="#999999" stroke="#666666" points="147,-452 0,-452 0,-422 147,-422 147,-452"/>
<text text-anchor="start" x="8" y="-440" font-family="Helvetica,sans-Serif" font-size="10.00">MayaFlux::Kriya::Temporal</text>
<text text-anchor="middle" x="73.5" y="-429" font-family="Helvetica,sans-Serif" font-size="10.00">Activation::activate_node</text>
</a>
</g>
</g>
<!-- Node2 -->
<g id="Node000002" class="node">
<title>Node2</title>
<g id="a_Node000002"><a xlink:href="classMayaFlux_1_1Nodes_1_1NodeGraphManager_ab23bef98f4641dfb378e3e6d916e3d0e.html#ab23bef98f4641dfb378e3e6d916e3d0e" target="_top" xlink:title="Add node to specific processing token and channel.">
<polygon fill="white" stroke="#666666" points="345,-578 183,-578 183,-548 345,-548 345,-578"/>
<text text-anchor="start" x="191" y="-566" font-family="Helvetica,sans-Serif" font-size="10.00">MayaFlux::Nodes::NodeGraph</text>
<text text-anchor="middle" x="264" y="-555" font-family="Helvetica,sans-Serif" font-size="10.00">Manager::add_to_root</text>
</a>
</g>
</g>
<!-- Node1&#45;&gt;Node2 -->
<g id="edge1_Node000001_Node000002" class="edge">
<title>Node1&#45;&gt;Node2</title>
<g id="a_edge1_Node000001_Node000002"><a xlink:title=" ">
<path fill="none" stroke="#63b8ff" d="M97.24,-452.2C130.87,-474.68 193.97,-516.86 231.87,-542.19"/>
<polygon fill="#63b8ff" stroke="#63b8ff" points="230.22,-545.3 240.48,-547.94 234.11,-539.48 230.22,-545.3"/>
</a>
</g>
</g>
<!-- Node7 -->
<g id="Node000007" class="node">
<title>Node7</title>
<g id="a_Node000007"><a xlink:href="classMayaFlux_1_1Kriya_1_1TemporalActivation_aa48d4567cb873962947e3e270191b7d3.html#aa48d4567cb873962947e3e270191b7d3" target="_top" xlink:title="Cancels any currently active node.">
<polygon fill="white" stroke="#666666" points="337.5,-425 190.5,-425 190.5,-395 337.5,-395 337.5,-425"/>
<text text-anchor="start" x="198.5" y="-413" font-family="Helvetica,sans-Serif" font-size="10.00">MayaFlux::Kriya::Temporal</text>
<text text-anchor="middle" x="264" y="-402" font-family="Helvetica,sans-Serif" font-size="10.00">Activation::cancel</text>
</a>
</g>
</g>
<!-- Node1&#45;&gt;Node7 -->
<g id="edge6_Node000001_Node000007" class="edge">
<title>Node1&#45;&gt;Node7</title>
<g id="a_edge6_Node000001_Node000007"><a xlink:title=" ">
<path fill="none" stroke="#63b8ff" d="M147.11,-426.6C157.99,-425.04 169.27,-423.43 180.34,-421.84"/>
<polygon fill="#63b8ff" stroke="#63b8ff" points="181.03,-425.28 190.43,-420.39 180.03,-418.35 181.03,-425.28"/>
</a>
</g>
</g>
<!-- Node11 -->
<g id="Node000011" class="node">
<title>Node11</title>
<g id="a_Node000011"><a xlink:href="classMayaFlux_1_1Kriya_1_1TemporalActivation_a65d420344629b85e2d038b9641496b03.html#a65d420344629b85e2d038b9641496b03" target="_top" xlink:title="Cleans up the current operation, disconnecting the entity and resetting state.">
<polygon fill="white" stroke="#666666" points="542.5,-481.5 392.5,-481.5 392.5,-440.5 542.5,-440.5 542.5,-481.5"/>
<text text-anchor="start" x="400.5" y="-469.5" font-family="Helvetica,sans-Serif" font-size="10.00">MayaFlux::Kriya::Temporal</text>
<text text-anchor="start" x="400.5" y="-458.5" font-family="Helvetica,sans-Serif" font-size="10.00">Activation::cleanup_current</text>
<text text-anchor="middle" x="467.5" y="-447.5" font-family="Helvetica,sans-Serif" font-size="10.00">_operation</text>
</a>
</g>
</g>
<!-- Node1&#45;&gt;Node11 -->
<g id="edge20_Node000001_Node000011" class="edge">
<title>Node1&#45;&gt;Node11</title>
<g id="a_edge20_Node000001_Node000011"><a xlink:title=" ">
<path fill="none" stroke="#63b8ff" d="M147.31,-441.46C213.89,-445.53 312.37,-451.56 382.31,-455.85"/>
<polygon fill="#63b8ff" stroke="#63b8ff" points="382.22,-459.35 392.41,-456.46 382.64,-452.36 382.22,-459.35"/>
</a>
</g>
</g>
<!-- Node19 -->
<g id="Node000019" class="node">
<title>Node19</title>
<g id="a_Node000019"><a xlink:href="classMayaFlux_1_1Kriya_1_1Timer_acf410f70434e3f2a2e3ae063f2aab581.html#acf410f70434e3f2a2e3ae063f2aab581" target="_top" xlink:title="Schedules a callback to execute after a delay.">
<polygon fill="white" stroke="#666666" points="329.5,-174 198.5,-174 198.5,-144 329.5,-144 329.5,-174"/>
<text text-anchor="start" x="206.5" y="-162" font-family="Helvetica,sans-Serif" font-size="10.00">MayaFlux::Kriya::Timer</text>
<text text-anchor="middle" x="264" y="-151" font-family="Helvetica,sans-Serif" font-size="10.00">::schedule</text>
</a>
</g>
</g>
<!-- Node1&#45;&gt;Node19 -->
<g id="edge21_Node000001_Node000019" class="edge">
<title>Node1&#45;&gt;Node19</title>
<g id="a_edge21_Node000001_Node000019"><a xlink:title=" ">
<path fill="none" stroke="#63b8ff" d="M84.9,-421.66C116.12,-375.62 209.17,-238.39 246.87,-182.79"/>
<polygon fill="#63b8ff" stroke="#63b8ff" points="249.91,-184.54 252.63,-174.3 244.12,-180.61 249.91,-184.54"/>
</a>
</g>
</g>
<!-- Node3 -->
<g id="Node000003" class="node">
<title>Node3</title>
<g id="a_Node000003"><a xlink:href="classMayaFlux_1_1Nodes_1_1NodeGraphManager_ab7485f6b5bd28a3d64ffaa5034d3ed9a.html#ab7485f6b5bd28a3d64ffaa5034d3ed9a" target="_top" xlink:title="Gets or creates the root node for a specific token and channel.">
<polygon fill="white" stroke="#666666" points="757.5,-578 595.5,-578 595.5,-548 757.5,-548 757.5,-578"/>
<text text-anchor="start" x="603.5" y="-566" font-family="Helvetica,sans-Serif" font-size="10.00">MayaFlux::Nodes::NodeGraph</text>
<text text-anchor="middle" x="676.5" y="-555" font-family="Helvetica,sans-Serif" font-size="10.00">Manager::get_root_node</text>
</a>
</g>
</g>
<!-- Node2&#45;&gt;Node3 -->
<g id="edge2_Node000002_Node000003" class="edge">
<title>Node2&#45;&gt;Node3</title>
<g id="a_edge2_Node000002_Node000003"><a xlink:title=" ">
<path fill="none" stroke="#63b8ff" d="M345.12,-563C413.95,-563 513.14,-563 584.85,-563"/>
<polygon fill="#63b8ff" stroke="#63b8ff" points="585.23,-566.5 595.23,-563 585.23,-559.5 585.23,-566.5"/>
</a>
</g>
</g>
<!-- Node5 -->
<g id="Node000005" class="node">
<title>Node5</title>
<g id="a_Node000005"><a xlink:href="classMayaFlux_1_1Nodes_1_1NodeGraphManager_aac0cc5e48a5b2e7ce20b7d754a9b6f53.html#aac0cc5e48a5b2e7ce20b7d754a9b6f53" target="_top" xlink:title="Adds the specified channel mask to a node&#39;s global registration.">
<polygon fill="white" stroke="#666666" points="548.5,-623 386.5,-623 386.5,-593 548.5,-593 548.5,-623"/>
<text text-anchor="start" x="394.5" y="-611" font-family="Helvetica,sans-Serif" font-size="10.00">MayaFlux::Nodes::NodeGraph</text>
<text text-anchor="middle" x="467.5" y="-600" font-family="Helvetica,sans-Serif" font-size="10.00">Manager::set_channel_mask</text>
</a>
</g>
</g>
<!-- Node2&#45;&gt;Node5 -->
<g id="edge4_Node000002_Node000005" class="edge">
<title>Node2&#45;&gt;Node5</title>
<g id="a_edge4_Node000002_Node000005"><a xlink:title=" ">
<path fill="none" stroke="#63b8ff" d="M332.38,-578.05C350.61,-582.12 370.48,-586.56 389.22,-590.74"/>
<polygon fill="#63b8ff" stroke="#63b8ff" points="388.66,-594.2 399.19,-592.97 390.19,-587.37 388.66,-594.2"/>
</a>
</g>
</g>
<!-- Node4 -->
<g id="Node000004" class="node">
<title>Node4</title>
<g id="a_Node000004"><a xlink:href="classMayaFlux_1_1Nodes_1_1NodeGraphManager_a9c43d6dbcd53013e4d61fa43f038384a.html#a9c43d6dbcd53013e4d61fa43f038384a" target="_top" xlink:title="Ensures a root node exists for the given token and channel.">
<polygon fill="white" stroke="#666666" points="977.5,-578 815.5,-578 815.5,-548 977.5,-548 977.5,-578"/>
<text text-anchor="start" x="823.5" y="-566" font-family="Helvetica,sans-Serif" font-size="10.00">MayaFlux::Nodes::NodeGraph</text>
<text text-anchor="middle" x="896.5" y="-555" font-family="Helvetica,sans-Serif" font-size="10.00">Manager::ensure_root_exists</text>
</a>
</g>
</g>
<!-- Node3&#45;&gt;Node4 -->
<g id="edge3_Node000003_Node000004" class="edge">
<title>Node3&#45;&gt;Node4</title>
<g id="a_edge3_Node000003_Node000004"><a xlink:title=" ">
<path fill="none" stroke="#63b8ff" d="M757.75,-563C773.18,-563 789.45,-563 805.18,-563"/>
<polygon fill="#63b8ff" stroke="#63b8ff" points="805.42,-566.5 815.42,-563 805.42,-559.5 805.42,-566.5"/>
</a>
</g>
</g>
<!-- Node6 -->
<g id="Node000006" class="node">
<title>Node6</title>
<g id="a_Node000006"><a xlink:href="classMayaFlux_1_1Nodes_1_1NodeGraphManager_a7659ea2f416c5ebdd7beb68e93e98722.html#a7659ea2f416c5ebdd7beb68e93e98722" target="_top" xlink:title="Registers a node globally if not already registered.">
<polygon fill="white" stroke="#666666" points="757.5,-626 595.5,-626 595.5,-596 757.5,-596 757.5,-626"/>
<text text-anchor="start" x="603.5" y="-614" font-family="Helvetica,sans-Serif" font-size="10.00">MayaFlux::Nodes::NodeGraph</text>
<text text-anchor="middle" x="676.5" y="-603" font-family="Helvetica,sans-Serif" font-size="10.00">Manager::register_global</text>
</a>
</g>
</g>
<!-- Node5&#45;&gt;Node6 -->
<g id="edge5_Node000005_Node000006" class="edge">
<title>Node5&#45;&gt;Node6</title>
<g id="a_edge5_Node000005_Node000006"><a xlink:title=" ">
<path fill="none" stroke="#63b8ff" d="M548.53,-609.16C560.53,-609.33 572.97,-609.51 585.17,-609.69"/>
<polygon fill="#63b8ff" stroke="#63b8ff" points="585.29,-613.19 595.34,-609.84 585.39,-606.19 585.29,-613.19"/>
</a>
</g>
</g>
<!-- Node8 -->
<g id="Node000008" class="node">
<title>Node8</title>
<g id="a_Node000008"><a xlink:href="classMayaFlux_1_1Kriya_1_1Timer_af3c122d5e399123a2d7a58e23269e8ad.html#af3c122d5e399123a2d7a58e23269e8ad" target="_top" xlink:title="Cancels any scheduled callback.">
<polygon fill="white" stroke="#666666" points="533,-356 402,-356 402,-326 533,-326 533,-356"/>
<text text-anchor="start" x="410" y="-344" font-family="Helvetica,sans-Serif" font-size="10.00">MayaFlux::Kriya::Timer</text>
<text text-anchor="middle" x="467.5" y="-333" font-family="Helvetica,sans-Serif" font-size="10.00">::cancel</text>
</a>
</g>
</g>
<!-- Node7&#45;&gt;Node8 -->
<g id="edge7_Node000007_Node000008" class="edge">
<title>Node7&#45;&gt;Node8</title>
<g id="a_edge7_Node000007_Node000008"><a xlink:title=" ">
<path fill="none" stroke="#63b8ff" d="M309.22,-394.86C339.67,-384.43 380.3,-370.52 412.63,-359.45"/>
<polygon fill="#63b8ff" stroke="#63b8ff" points="414.06,-362.66 422.38,-356.11 411.79,-356.04 414.06,-362.66"/>
</a>
</g>
</g>
<!-- Node7&#45;&gt;Node11 -->
<g id="edge11_Node000007_Node000011" class="edge">
<title>Node7&#45;&gt;Node11</title>
<g id="a_edge11_Node000007_Node000011"><a xlink:title=" ">
<path fill="none" stroke="#63b8ff" d="M324.37,-425.03C342.54,-429.63 362.89,-434.78 382.38,-439.71"/>
<polygon fill="#63b8ff" stroke="#63b8ff" points="381.62,-443.13 392.18,-442.19 383.34,-436.34 381.62,-443.13"/>
</a>
</g>
</g>
<!-- Node18 -->
<g id="Node000018" class="node">
<title>Node18</title>
<g id="a_Node000018"><a xlink:href="classMayaFlux_1_1Kriya_1_1Timer_a5432fa70b1f9585873e264bf76393760.html#a5432fa70b1f9585873e264bf76393760" target="_top" xlink:title="Checks if a callback is currently scheduled.">
<polygon fill="white" stroke="#666666" points="533,-422 402,-422 402,-392 533,-392 533,-422"/>
<text text-anchor="start" x="410" y="-410" font-family="Helvetica,sans-Serif" font-size="10.00">MayaFlux::Kriya::Timer</text>
<text text-anchor="middle" x="467.5" y="-399" font-family="Helvetica,sans-Serif" font-size="10.00">::is_active</text>
</a>
</g>
</g>
<!-- Node7&#45;&gt;Node18 -->
<g id="edge19_Node000007_Node000018" class="edge">
<title>Node7&#45;&gt;Node18</title>
<g id="a_edge19_Node000007_Node000018"><a xlink:title=" ">
<path fill="none" stroke="#63b8ff" d="M337.75,-408.92C355.27,-408.66 374.03,-408.38 391.65,-408.11"/>
<polygon fill="#63b8ff" stroke="#63b8ff" points="391.93,-411.61 401.88,-407.96 391.83,-404.61 391.93,-411.61"/>
</a>
</g>
</g>
<!-- Node9 -->
<g id="Node000009" class="node">
<title>Node9</title>
<g id="a_Node000009"><a xlink:href="classMayaFlux_1_1Vruta_1_1TaskScheduler_aefd214af5e476f686dc86cc7d7220c96.html#aefd214af5e476f686dc86cc7d7220c96" target="_top" xlink:title="Cancels and removes a task from the scheduler.">
<polygon fill="white" stroke="#666666" points="763,-356 590,-356 590,-326 763,-326 763,-356"/>
<text text-anchor="start" x="598" y="-344" font-family="Helvetica,sans-Serif" font-size="10.00">MayaFlux::Vruta::TaskScheduler</text>
<text text-anchor="middle" x="676.5" y="-333" font-family="Helvetica,sans-Serif" font-size="10.00">::cancel_task</text>
</a>
</g>
</g>
<!-- Node8&#45;&gt;Node9 -->
<g id="edge8_Node000008_Node000009" class="edge">
<title>Node8&#45;&gt;Node9</title>
<g id="a_edge8_Node000008_Node000009"><a xlink:title=" ">
<path fill="none" stroke="#63b8ff" d="M533.14,-341C547.84,-341 563.75,-341 579.44,-341"/>
<polygon fill="#63b8ff" stroke="#63b8ff" points="579.7,-344.5 589.7,-341 579.7,-337.5 579.7,-344.5"/>
</a>
</g>
</g>
<!-- Node9&#45;&gt;Node9 -->
<g id="edge9_Node000009_Node000009" class="edge">
<title>Node9&#45;&gt;Node9</title>
<g id="a_edge9_Node000009_Node000009"><a xlink:title=" ">
<path fill="none" stroke="#63b8ff" d="M639.94,-356.28C631.81,-365.41 644,-374 676.5,-374 695.8,-374 707.93,-370.97 712.91,-366.6"/>
<polygon fill="#63b8ff" stroke="#63b8ff" points="716.41,-366.33 713.06,-356.28 709.41,-366.22 716.41,-366.33"/>
</a>
</g>
</g>
<!-- Node10 -->
<g id="Node000010" class="node">
<title>Node10</title>
<g id="a_Node000010"><a xlink:href="classMayaFlux_1_1Vruta_1_1TaskScheduler_afb823dfb8ca7ec5182cfaa8e3ee93649.html#afb823dfb8ca7ec5182cfaa8e3ee93649" target="_top" xlink:title="Find task entry by routine pointer.">
<polygon fill="white" stroke="#666666" points="983,-356 810,-356 810,-326 983,-326 983,-356"/>
<text text-anchor="start" x="818" y="-344" font-family="Helvetica,sans-Serif" font-size="10.00">MayaFlux::Vruta::TaskScheduler</text>
<text text-anchor="middle" x="896.5" y="-333" font-family="Helvetica,sans-Serif" font-size="10.00">::find_task_by_routine</text>
</a>
</g>
</g>
<!-- Node9&#45;&gt;Node10 -->
<g id="edge10_Node000009_Node000010" class="edge">
<title>Node9&#45;&gt;Node10</title>
<g id="a_edge10_Node000009_Node000010"><a xlink:title=" ">
<path fill="none" stroke="#63b8ff" d="M763.03,-341C775.06,-341 787.48,-341 799.67,-341"/>
<polygon fill="#63b8ff" stroke="#63b8ff" points="799.86,-344.5 809.86,-341 799.86,-337.5 799.86,-344.5"/>
</a>
</g>
</g>
<!-- Node11&#45;&gt;Node3 -->
<g id="edge12_Node000011_Node000003" class="edge">
<title>Node11&#45;&gt;Node3</title>
<g id="a_edge12_Node000011_Node000003"><a xlink:title=" ">
<path fill="none" stroke="#63b8ff" d="M495.63,-481.77C519.41,-499.14 555.47,-523.49 590,-539 594.43,-540.99 599.06,-542.85 603.77,-544.59"/>
<polygon fill="#63b8ff" stroke="#63b8ff" points="602.94,-548 613.54,-547.98 605.24,-541.39 602.94,-548"/>
</a>
</g>
</g>
<!-- Node12 -->
<g id="Node000012" class="node">
<title>Node12</title>
<g id="a_Node000012"><a xlink:href="classMayaFlux_1_1Buffers_1_1BufferManager_ad22127b9243ca6e62b2464d6bb5e8f1a.html#ad22127b9243ca6e62b2464d6bb5e8f1a" target="_top" xlink:title="Removes a buffer from a token.">
<polygon fill="white" stroke="#666666" points="742.5,-481.5 610.5,-481.5 610.5,-440.5 742.5,-440.5 742.5,-481.5"/>
<text text-anchor="start" x="618.5" y="-469.5" font-family="Helvetica,sans-Serif" font-size="10.00">MayaFlux::Buffers::</text>
<text text-anchor="start" x="618.5" y="-458.5" font-family="Helvetica,sans-Serif" font-size="10.00">BufferManager::remove</text>
<text text-anchor="middle" x="676.5" y="-447.5" font-family="Helvetica,sans-Serif" font-size="10.00">_buffer</text>
</a>
</g>
</g>
<!-- Node11&#45;&gt;Node12 -->
<g id="edge13_Node000011_Node000012" class="edge">
<title>Node11&#45;&gt;Node12</title>
<g id="a_edge13_Node000011_Node000012"><a xlink:title=" ">
<path fill="none" stroke="#63b8ff" d="M542.65,-461C561.43,-461 581.62,-461 600.44,-461"/>
<polygon fill="#63b8ff" stroke="#63b8ff" points="600.45,-464.5 610.45,-461 600.45,-457.5 600.45,-464.5"/>
</a>
</g>
</g>
<!-- Node13 -->
<g id="Node000013" class="node">
<title>Node13</title>
<g id="a_Node000013"><a xlink:href="classMayaFlux_1_1Nodes_1_1NodeGraphManager_a08ad52a5c6a952fcaaea8bffce9f5795.html#a08ad52a5c6a952fcaaea8bffce9f5795" target="_top" xlink:title="Remove a network from a processing token.">
<polygon fill="white" stroke="#666666" points="757.5,-422 595.5,-422 595.5,-392 757.5,-392 757.5,-422"/>
<text text-anchor="start" x="603.5" y="-410" font-family="Helvetica,sans-Serif" font-size="10.00">MayaFlux::Nodes::NodeGraph</text>
<text text-anchor="middle" x="676.5" y="-399" font-family="Helvetica,sans-Serif" font-size="10.00">Manager::remove_network</text>
</a>
</g>
</g>
<!-- Node11&#45;&gt;Node13 -->
<g id="edge14_Node000011_Node000013" class="edge">
<title>Node11&#45;&gt;Node13</title>
<g id="a_edge14_Node000011_Node000013"><a xlink:title=" ">
<path fill="none" stroke="#63b8ff" d="M542.65,-441.66C563.98,-436.09 587.12,-430.05 608.03,-424.6"/>
<polygon fill="#63b8ff" stroke="#63b8ff" points="608.98,-427.97 617.78,-422.06 607.22,-421.2 608.98,-427.97"/>
</a>
</g>
</g>
<!-- Node15 -->
<g id="Node000015" class="node">
<title>Node15</title>
<g id="a_Node000015"><a xlink:href="classMayaFlux_1_1Nodes_1_1RootNode_a3223d79efd0c1efec1bbbc0ac0e70902.html#a3223d79efd0c1efec1bbbc0ac0e70902" target="_top" xlink:title="Removes a node from this root node.">
<polygon fill="white" stroke="#666666" points="754,-530 599,-530 599,-500 754,-500 754,-530"/>
<text text-anchor="start" x="607" y="-518" font-family="Helvetica,sans-Serif" font-size="10.00">MayaFlux::Nodes::RootNode</text>
<text text-anchor="middle" x="676.5" y="-507" font-family="Helvetica,sans-Serif" font-size="10.00">::unregister_node</text>
</a>
</g>
</g>
<!-- Node11&#45;&gt;Node15 -->
<g id="edge16_Node000011_Node000015" class="edge">
<title>Node11&#45;&gt;Node15</title>
<g id="a_edge16_Node000011_Node000015"><a xlink:title=" ">
<path fill="none" stroke="#63b8ff" d="M542.65,-480.34C563.98,-485.91 587.12,-491.95 608.03,-497.4"/>
<polygon fill="#63b8ff" stroke="#63b8ff" points="607.22,-500.8 617.78,-499.94 608.98,-494.03 607.22,-500.8"/>
</a>
</g>
</g>
<!-- Node14 -->
<g id="Node000014" class="node">
<title>Node14</title>
<g id="a_Node000014"><a xlink:href="classMayaFlux_1_1Nodes_1_1NodeGraphManager_adc75a7be1c84a5d43f4c4b71da4de404.html#adc75a7be1c84a5d43f4c4b71da4de404" target="_top" xlink:title="Unregister network globally.">
<polygon fill="white" stroke="#666666" points="994,-422 799,-422 799,-392 994,-392 994,-422"/>
<text text-anchor="start" x="807" y="-410" font-family="Helvetica,sans-Serif" font-size="10.00">MayaFlux::Nodes::NodeGraph</text>
<text text-anchor="middle" x="896.5" y="-399" font-family="Helvetica,sans-Serif" font-size="10.00">Manager::unregister_network_global</text>
</a>
</g>
</g>
<!-- Node13&#45;&gt;Node14 -->
<g id="edge15_Node000013_Node000014" class="edge">
<title>Node13&#45;&gt;Node14</title>
<g id="a_edge15_Node000013_Node000014"><a xlink:title=" ">
<path fill="none" stroke="#63b8ff" d="M757.75,-407C767.76,-407 778.13,-407 788.47,-407"/>
<polygon fill="#63b8ff" stroke="#63b8ff" points="788.79,-410.5 798.79,-407 788.79,-403.5 788.79,-410.5"/>
</a>
</g>
</g>
<!-- Node16 -->
<g id="Node000016" class="node">
<title>Node16</title>
<g id="a_Node000016"><a xlink:href="namespaceMayaFlux_1_1Nodes_a2b661b58f860423fa6cf1d12c5accbd8.html#a2b661b58f860423fa6cf1d12c5accbd8" target="_top" xlink:title="Atomically adds a flag to a node state.">
<polygon fill="white" stroke="#666666" points="967,-530 826,-530 826,-500 967,-500 967,-530"/>
<text text-anchor="start" x="834" y="-518" font-family="Helvetica,sans-Serif" font-size="10.00">MayaFlux::Nodes::atomic</text>
<text text-anchor="middle" x="896.5" y="-507" font-family="Helvetica,sans-Serif" font-size="10.00">_add_flag</text>
</a>
</g>
</g>
<!-- Node15&#45;&gt;Node16 -->
<g id="edge17_Node000015_Node000016" class="edge">
<title>Node15&#45;&gt;Node16</title>
<g id="a_edge17_Node000015_Node000016"><a xlink:title=" ">
<path fill="none" stroke="#63b8ff" d="M754.05,-515C773.99,-515 795.53,-515 815.64,-515"/>
<polygon fill="#63b8ff" stroke="#63b8ff" points="815.69,-518.5 825.69,-515 815.69,-511.5 815.69,-518.5"/>
</a>
</g>
</g>
<!-- Node17 -->
<g id="Node000017" class="node">
<title>Node17</title>
<g id="a_Node000017"><a xlink:href="namespaceMayaFlux_1_1Nodes_a8abc7b8f33819075e738d5ed027bd9ec.html#a8abc7b8f33819075e738d5ed027bd9ec" target="_top" xlink:title="Atomically sets a node state flag to a specific value.">
<polygon fill="white" stroke="#666666" points="967,-482 826,-482 826,-452 967,-452 967,-482"/>
<text text-anchor="start" x="834" y="-470" font-family="Helvetica,sans-Serif" font-size="10.00">MayaFlux::Nodes::atomic</text>
<text text-anchor="middle" x="896.5" y="-459" font-family="Helvetica,sans-Serif" font-size="10.00">_set_flag_strong</text>
</a>
</g>
</g>
<!-- Node15&#45;&gt;Node17 -->
<g id="edge18_Node000015_Node000017" class="edge">
<title>Node15&#45;&gt;Node17</title>
<g id="a_edge18_Node000015_Node000017"><a xlink:title=" ">
<path fill="none" stroke="#63b8ff" d="M745.88,-499.94C768.6,-494.94 794.08,-489.33 817.48,-484.18"/>
<polygon fill="#63b8ff" stroke="#63b8ff" points="818.35,-487.57 827.36,-482 816.85,-480.73 818.35,-487.57"/>
</a>
</g>
</g>
<!-- Node19&#45;&gt;Node8 -->
<g id="edge32_Node000019_Node000008" class="edge">
<title>Node19&#45;&gt;Node8</title>
<g id="a_edge32_Node000019_Node000008"><a xlink:title=" ">
<path fill="none" stroke="#63b8ff" d="M281.83,-174.2C317.55,-206.47 401.05,-281.89 442.41,-319.24"/>
<polygon fill="#63b8ff" stroke="#63b8ff" points="440.09,-321.86 449.86,-325.97 444.78,-316.67 440.09,-321.86"/>
</a>
</g>
</g>
<!-- Node20 -->
<g id="Node000020" class="node">
<title>Node20</title>
<g id="a_Node000020"><a xlink:href="classMayaFlux_1_1Vruta_1_1TaskScheduler_a01f29b8e9975b80306f4bc0b534a09d8.html#a01f29b8e9975b80306f4bc0b534a09d8" target="_top" xlink:title="Add a routine to the scheduler based on its processing token.">
<polygon fill="white" stroke="#666666" points="554,-210 381,-210 381,-180 554,-180 554,-210"/>
<text text-anchor="start" x="389" y="-198" font-family="Helvetica,sans-Serif" font-size="10.00">MayaFlux::Vruta::TaskScheduler</text>
<text text-anchor="middle" x="467.5" y="-187" font-family="Helvetica,sans-Serif" font-size="10.00">::add_task</text>
</a>
</g>
</g>
<!-- Node19&#45;&gt;Node20 -->
<g id="edge22_Node000019_Node000020" class="edge">
<title>Node19&#45;&gt;Node20</title>
<g id="a_edge22_Node000019_Node000020"><a xlink:title=" ">
<path fill="none" stroke="#63b8ff" d="M329.59,-170.54C343.24,-172.98 357.92,-175.6 372.41,-178.19"/>
<polygon fill="#63b8ff" stroke="#63b8ff" points="371.94,-181.66 382.4,-179.97 373.17,-174.77 371.94,-181.66"/>
</a>
</g>
</g>
<!-- Node30 -->
<g id="Node000030" class="node">
<title>Node30</title>
<g id="a_Node000030"><a xlink:href="classMayaFlux_1_1Vruta_1_1TaskScheduler_aad864fee29060836b9ae616386cf396a.html#aad864fee29060836b9ae616386cf396a" target="_top" xlink:title="Get current processing units for a domain.">
<polygon fill="white" stroke="#666666" points="554,-36 381,-36 381,-6 554,-6 554,-36"/>
<text text-anchor="start" x="389" y="-24" font-family="Helvetica,sans-Serif" font-size="10.00">MayaFlux::Vruta::TaskScheduler</text>
<text text-anchor="middle" x="467.5" y="-13" font-family="Helvetica,sans-Serif" font-size="10.00">::current_units</text>
</a>
</g>
</g>
<!-- Node19&#45;&gt;Node30 -->
<g id="edge33_Node000019_Node000030" class="edge">
<title>Node19&#45;&gt;Node30</title>
<g id="a_edge33_Node000019_Node000030"><a xlink:title=" ">
<path fill="none" stroke="#63b8ff" d="M276.08,-144C294.91,-119.58 335.56,-71.33 381,-45 384.03,-43.25 387.19,-41.61 390.44,-40.1"/>
<polygon fill="#63b8ff" stroke="#63b8ff" points="391.95,-43.26 399.78,-36.12 389.21,-36.82 391.95,-43.26"/>
</a>
</g>
</g>
<!-- Node32 -->
<g id="Node000032" class="node">
<title>Node32</title>
<g id="a_Node000032"><a xlink:href="classMayaFlux_1_1Vruta_1_1TaskScheduler_a99bd0b1b8f51d07e40aeaf1588342323.html#a99bd0b1b8f51d07e40aeaf1588342323" target="_top" xlink:title="Converts a time in seconds to a number of samples.">
<polygon fill="white" stroke="#666666" points="554,-138 381,-138 381,-108 554,-108 554,-138"/>
<text text-anchor="start" x="389" y="-126" font-family="Helvetica,sans-Serif" font-size="10.00">MayaFlux::Vruta::TaskScheduler</text>
<text text-anchor="middle" x="467.5" y="-115" font-family="Helvetica,sans-Serif" font-size="10.00">::seconds_to_samples</text>
</a>
</g>
</g>
<!-- Node19&#45;&gt;Node32 -->
<g id="edge35_Node000019_Node000032" class="edge">
<title>Node19&#45;&gt;Node32</title>
<g id="a_edge35_Node000019_Node000032"><a xlink:title=" ">
<path fill="none" stroke="#63b8ff" d="M329.59,-147.46C343.24,-145.02 357.92,-142.4 372.41,-139.81"/>
<polygon fill="#63b8ff" stroke="#63b8ff" points="373.17,-143.23 382.4,-138.03 371.94,-136.34 373.17,-143.23"/>
</a>
</g>
</g>
<!-- Node34 -->
<g id="Node000034" class="node">
<title>Node34</title>
<g id="a_Node000034"><a xlink:href="classMayaFlux_1_1Vruta_1_1TaskScheduler_a1799325adcf528acaaff698264a9ac42.html#a1799325adcf528acaaff698264a9ac42" target="_top" xlink:title="Convert seconds to processing units for a specific domain.">
<polygon fill="white" stroke="#666666" points="554,-84 381,-84 381,-54 554,-54 554,-84"/>
<text text-anchor="start" x="389" y="-72" font-family="Helvetica,sans-Serif" font-size="10.00">MayaFlux::Vruta::TaskScheduler</text>
<text text-anchor="middle" x="467.5" y="-61" font-family="Helvetica,sans-Serif" font-size="10.00">::seconds_to_units</text>
</a>
</g>
</g>
<!-- Node19&#45;&gt;Node34 -->
<g id="edge38_Node000019_Node000034" class="edge">
<title>Node19&#45;&gt;Node34</title>
<g id="a_edge38_Node000019_Node000034"><a xlink:title=" ">
<path fill="none" stroke="#63b8ff" d="M291.67,-143.85C314.86,-131 349.57,-112.57 381,-99 390.32,-94.98 400.37,-91.08 410.19,-87.5"/>
<polygon fill="#63b8ff" stroke="#63b8ff" points="411.66,-90.69 419.9,-84.03 409.3,-84.1 411.66,-90.69"/>
</a>
</g>
</g>
<!-- Node21 -->
<g id="Node000021" class="node">
<title>Node21</title>
<g id="a_Node000021"><a xlink:href="classMayaFlux_1_1Vruta_1_1TaskScheduler_a56a711df9c3a3f4e569e036ea6980559.html#a56a711df9c3a3f4e569e036ea6980559" target="_top" xlink:title="Generate automatic name for a routine based on its type.">
<polygon fill="white" stroke="#666666" points="763,-174 590,-174 590,-144 763,-144 763,-174"/>
<text text-anchor="start" x="598" y="-162" font-family="Helvetica,sans-Serif" font-size="10.00">MayaFlux::Vruta::TaskScheduler</text>
<text text-anchor="middle" x="676.5" y="-151" font-family="Helvetica,sans-Serif" font-size="10.00">::auto_generate_name</text>
</a>
</g>
</g>
<!-- Node20&#45;&gt;Node21 -->
<g id="edge23_Node000020_Node000021" class="edge">
<title>Node20&#45;&gt;Node21</title>
<g id="a_edge23_Node000020_Node000021"><a xlink:title=" ">
<path fill="none" stroke="#63b8ff" d="M554.19,-180.1C562.66,-178.62 571.3,-177.12 579.87,-175.63"/>
<polygon fill="#63b8ff" stroke="#63b8ff" points="580.62,-179.05 589.88,-173.89 579.42,-172.16 580.62,-179.05"/>
</a>
</g>
</g>
<!-- Node23 -->
<g id="Node000023" class="node">
<title>Node23</title>
<g id="a_Node000023"><a xlink:href="classMayaFlux_1_1Vruta_1_1TaskScheduler_a81c68c47d8ac2ce8f736f8d35f4fe20c.html#a81c68c47d8ac2ce8f736f8d35f4fe20c" target="_top" xlink:title="Initialize a processing domain if it doesn&#39;t exist.">
<polygon fill="white" stroke="#666666" points="763,-126 590,-126 590,-96 763,-96 763,-126"/>
<text text-anchor="start" x="598" y="-114" font-family="Helvetica,sans-Serif" font-size="10.00">MayaFlux::Vruta::TaskScheduler</text>
<text text-anchor="middle" x="676.5" y="-103" font-family="Helvetica,sans-Serif" font-size="10.00">::ensure_domain</text>
</a>
</g>
</g>
<!-- Node20&#45;&gt;Node23 -->
<g id="edge25_Node000020_Node000023" class="edge">
<title>Node20&#45;&gt;Node23</title>
<g id="a_edge25_Node000020_Node000023"><a xlink:title=" ">
<path fill="none" stroke="#63b8ff" d="M495.36,-179.94C519.56,-166.8 556.39,-147.89 590,-135 595.35,-132.95 600.95,-130.99 606.61,-129.13"/>
<polygon fill="#63b8ff" stroke="#63b8ff" points="607.68,-132.47 616.16,-126.12 605.57,-125.79 607.68,-132.47"/>
</a>
</g>
</g>
<!-- Node25 -->
<g id="Node000025" class="node">
<title>Node25</title>
<g id="a_Node000025"><a xlink:href="main_8cpp_a25a40b6614565f755233080a384c35f1.html#a25a40b6614565f755233080a384c35f1" target="_top" xlink:title=" ">
<polygon fill="white" stroke="#666666" points="706,-307.5 647,-307.5 647,-288.5 706,-288.5 706,-307.5"/>
<text text-anchor="middle" x="676.5" y="-295.5" font-family="Helvetica,sans-Serif" font-size="10.00">initialize</text>
</a>
</g>
</g>
<!-- Node20&#45;&gt;Node25 -->
<g id="edge27_Node000020_Node000025" class="edge">
<title>Node20&#45;&gt;Node25</title>
<g id="a_edge27_Node000020_Node000025"><a xlink:title=" ">
<path fill="none" stroke="#63b8ff" d="M485.71,-210.16C508.15,-229.12 549.34,-261.24 590,-279 604.72,-285.43 621.85,-289.79 636.89,-292.69"/>
<polygon fill="#63b8ff" stroke="#63b8ff" points="636.46,-296.17 646.92,-294.47 637.68,-289.27 636.46,-296.17"/>
</a>
</g>
</g>
<!-- Node26 -->
<g id="Node000026" class="node">
<title>Node26</title>
<g id="a_Node000026"><a xlink:href="classMayaFlux_1_1Vruta_1_1TaskScheduler_a09eae60c02e878e614b69c8ead276f14.html#a09eae60c02e878e614b69c8ead276f14" target="_top" xlink:title="Initialize a routine&#39;s state for a specific domain.">
<polygon fill="white" stroke="#666666" points="763,-270 590,-270 590,-240 763,-240 763,-270"/>
<text text-anchor="start" x="598" y="-258" font-family="Helvetica,sans-Serif" font-size="10.00">MayaFlux::Vruta::TaskScheduler</text>
<text text-anchor="middle" x="676.5" y="-247" font-family="Helvetica,sans-Serif" font-size="10.00">::initialize_routine_state</text>
</a>
</g>
</g>
<!-- Node20&#45;&gt;Node26 -->
<g id="edge28_Node000020_Node000026" class="edge">
<title>Node20&#45;&gt;Node26</title>
<g id="a_edge28_Node000020_Node000026"><a xlink:title=" ">
<path fill="none" stroke="#63b8ff" d="M518.7,-210.05C540.58,-216.56 566.54,-224.23 590,-231 596.93,-233 604.17,-235.07 611.39,-237.11"/>
<polygon fill="#63b8ff" stroke="#63b8ff" points="610.62,-240.53 621.19,-239.88 612.52,-233.79 610.62,-240.53"/>
</a>
</g>
</g>
<!-- Node27 -->
<g id="Node000027" class="node">
<title>Node27</title>
<g id="a_Node000027"><a xlink:href="classMayaFlux_1_1Vruta_1_1TaskScheduler_a4346f248dffefc61f410100f2812553a.html#a4346f248dffefc61f410100f2812553a" target="_top" xlink:title="Start the conditional task processing thread if not already running.">
<polygon fill="white" stroke="#666666" points="763,-222 590,-222 590,-192 763,-192 763,-222"/>
<text text-anchor="start" x="598" y="-210" font-family="Helvetica,sans-Serif" font-size="10.00">MayaFlux::Vruta::TaskScheduler</text>
<text text-anchor="middle" x="676.5" y="-199" font-family="Helvetica,sans-Serif" font-size="10.00">::start_conditional_thread</text>
</a>
</g>
</g>
<!-- Node20&#45;&gt;Node27 -->
<g id="edge29_Node000020_Node000027" class="edge">
<title>Node20&#45;&gt;Node27</title>
<g id="a_edge29_Node000020_Node000027"><a xlink:title=" ">
<path fill="none" stroke="#63b8ff" d="M554.19,-199.97C562.66,-200.46 571.3,-200.96 579.87,-201.46"/>
<polygon fill="#63b8ff" stroke="#63b8ff" points="579.69,-204.95 589.88,-202.04 580.09,-197.96 579.69,-204.95"/>
</a>
</g>
</g>
<!-- Node22 -->
<g id="Node000022" class="node">
<title>Node22</title>
<g id="a_Node000022"><a xlink:href="classMayaFlux_1_1Vruta_1_1TaskScheduler_a8c97edc92dee77f6fc9b6030a14637e7.html#a8c97edc92dee77f6fc9b6030a14637e7" target="_top" xlink:title="Generates a unique task ID for new tasks.">
<polygon fill="white" stroke="#666666" points="983,-174 810,-174 810,-144 983,-144 983,-174"/>
<text text-anchor="start" x="818" y="-162" font-family="Helvetica,sans-Serif" font-size="10.00">MayaFlux::Vruta::TaskScheduler</text>
<text text-anchor="middle" x="896.5" y="-151" font-family="Helvetica,sans-Serif" font-size="10.00">::get_next_task_id</text>
</a>
</g>
</g>
<!-- Node21&#45;&gt;Node22 -->
<g id="edge24_Node000021_Node000022" class="edge">
<title>Node21&#45;&gt;Node22</title>
<g id="a_edge24_Node000021_Node000022"><a xlink:title=" ">
<path fill="none" stroke="#63b8ff" d="M763.03,-159C775.06,-159 787.48,-159 799.67,-159"/>
<polygon fill="#63b8ff" stroke="#63b8ff" points="799.86,-162.5 809.86,-159 799.86,-155.5 799.86,-162.5"/>
</a>
</g>
</g>
<!-- Node24 -->
<g id="Node000024" class="node">
<title>Node24</title>
<g id="a_Node000024"><a xlink:href="classMayaFlux_1_1Vruta_1_1TaskScheduler_a219ff6ebd74ddb638ccf403556a0168c.html#a219ff6ebd74ddb638ccf403556a0168c" target="_top" xlink:title="Get the default rate for a processing token.">
<polygon fill="white" stroke="#666666" points="983,-102 810,-102 810,-72 983,-72 983,-102"/>
<text text-anchor="start" x="818" y="-90" font-family="Helvetica,sans-Serif" font-size="10.00">MayaFlux::Vruta::TaskScheduler</text>
<text text-anchor="middle" x="896.5" y="-79" font-family="Helvetica,sans-Serif" font-size="10.00">::get_default_rate</text>
</a>
</g>
</g>
<!-- Node23&#45;&gt;Node24 -->
<g id="edge26_Node000023_Node000024" class="edge">
<title>Node23&#45;&gt;Node24</title>
<g id="a_edge26_Node000023_Node000024"><a xlink:title=" ">
<path fill="none" stroke="#63b8ff" d="M763.03,-101.58C775.06,-100.26 787.48,-98.89 799.67,-97.55"/>
<polygon fill="#63b8ff" stroke="#63b8ff" points="800.3,-101 809.86,-96.43 799.53,-94.04 800.3,-101"/>
</a>
</g>
</g>
<!-- Node28 -->
<g id="Node000028" class="node">
<title>Node28</title>
<g id="a_Node000028"><a xlink:href="classMayaFlux_1_1Vruta_1_1TaskScheduler_a5a9f9fef1e94f2fe4bbd01b9773dbf87.html#a5a9f9fef1e94f2fe4bbd01b9773dbf87" target="_top" xlink:title="Pump the conditional task list in a separate thread.">
<polygon fill="white" stroke="#666666" points="983,-222 810,-222 810,-192 983,-192 983,-222"/>
<text text-anchor="start" x="818" y="-210" font-family="Helvetica,sans-Serif" font-size="10.00">MayaFlux::Vruta::TaskScheduler</text>
<text text-anchor="middle" x="896.5" y="-199" font-family="Helvetica,sans-Serif" font-size="10.00">::pump_conditional</text>
</a>
</g>
</g>
<!-- Node27&#45;&gt;Node28 -->
<g id="edge30_Node000027_Node000028" class="edge">
<title>Node27&#45;&gt;Node28</title>
<g id="a_edge30_Node000027_Node000028"><a xlink:title=" ">
<path fill="none" stroke="#63b8ff" d="M763.03,-207C775.06,-207 787.48,-207 799.67,-207"/>
<polygon fill="#63b8ff" stroke="#63b8ff" points="799.86,-210.5 809.86,-207 799.86,-203.5 799.86,-210.5"/>
</a>
</g>
</g>
<!-- Node29 -->
<g id="Node000029" class="node">
<title>Node29</title>
<g id="a_Node000029"><a xlink:href="classMayaFlux_1_1Vruta_1_1TaskScheduler_af8c8a82e6c4d76ffd846dc4bef4d8301.html#af8c8a82e6c4d76ffd846dc4bef4d8301" target="_top" xlink:title="Drain pending conditional task operations before processing.">
<polygon fill="white" stroke="#666666" points="1203,-222 1030,-222 1030,-192 1203,-192 1203,-222"/>
<text text-anchor="start" x="1038" y="-210" font-family="Helvetica,sans-Serif" font-size="10.00">MayaFlux::Vruta::TaskScheduler</text>
<text text-anchor="middle" x="1116.5" y="-199" font-family="Helvetica,sans-Serif" font-size="10.00">::drain_conditional_pending</text>
</a>
</g>
</g>
<!-- Node28&#45;&gt;Node29 -->
<g id="edge31_Node000028_Node000029" class="edge">
<title>Node28&#45;&gt;Node29</title>
<g id="a_edge31_Node000028_Node000029"><a xlink:title=" ">
<path fill="none" stroke="#63b8ff" d="M983.03,-207C995.06,-207 1007.48,-207 1019.67,-207"/>
<polygon fill="#63b8ff" stroke="#63b8ff" points="1019.86,-210.5 1029.86,-207 1019.86,-203.5 1019.86,-210.5"/>
</a>
</g>
</g>
<!-- Node31 -->
<g id="Node000031" class="node">
<title>Node31</title>
<g id="a_Node000031"><a xlink:href="classMayaFlux_1_1Vruta_1_1TaskScheduler_ae74f769a53c83a47360211ac21c2cbe2.html#ae74f769a53c83a47360211ac21c2cbe2" target="_top" xlink:title="Gets the primary clock (audio domain for legacy compatibility)">
<polygon fill="white" stroke="#666666" points="763,-30 590,-30 590,0 763,0 763,-30"/>
<text text-anchor="start" x="598" y="-18" font-family="Helvetica,sans-Serif" font-size="10.00">MayaFlux::Vruta::TaskScheduler</text>
<text text-anchor="middle" x="676.5" y="-7" font-family="Helvetica,sans-Serif" font-size="10.00">::get_clock</text>
</a>
</g>
</g>
<!-- Node30&#45;&gt;Node31 -->
<g id="edge34_Node000030_Node000031" class="edge">
<title>Node30&#45;&gt;Node31</title>
<g id="a_edge34_Node000030_Node000031"><a xlink:title=" ">
<path fill="none" stroke="#63b8ff" d="M554.19,-18.52C562.66,-18.27 571.3,-18.02 579.87,-17.77"/>
<polygon fill="#63b8ff" stroke="#63b8ff" points="579.98,-21.27 589.88,-17.48 579.78,-14.27 579.98,-21.27"/>
</a>
</g>
</g>
<!-- Node33 -->
<g id="Node000033" class="node">
<title>Node33</title>
<g id="a_Node000033"><a xlink:href="classMayaFlux_1_1Vruta_1_1TaskScheduler_ac441836158c7cf40639d9fec1d942f0a.html#ac441836158c7cf40639d9fec1d942f0a" target="_top" xlink:title="Get processing rate for a domain.">
<polygon fill="white" stroke="#666666" points="763,-78 590,-78 590,-48 763,-48 763,-78"/>
<text text-anchor="start" x="598" y="-66" font-family="Helvetica,sans-Serif" font-size="10.00">MayaFlux::Vruta::TaskScheduler</text>
<text text-anchor="middle" x="676.5" y="-55" font-family="Helvetica,sans-Serif" font-size="10.00">::get_rate</text>
</a>
</g>
</g>
<!-- Node32&#45;&gt;Node33 -->
<g id="edge36_Node000032_Node000033" class="edge">
<title>Node32&#45;&gt;Node33</title>
<g id="a_edge36_Node000032_Node000033"><a xlink:title=" ">
<path fill="none" stroke="#63b8ff" d="M518.7,-107.95C540.58,-101.44 566.54,-93.77 590,-87 596.93,-85 604.17,-82.93 611.39,-80.89"/>
<polygon fill="#63b8ff" stroke="#63b8ff" points="612.52,-84.21 621.19,-78.12 610.62,-77.47 612.52,-84.21"/>
</a>
</g>
</g>
<!-- Node33&#45;&gt;Node24 -->
<g id="edge37_Node000033_Node000024" class="edge">
<title>Node33&#45;&gt;Node24</title>
<g id="a_edge37_Node000033_Node000024"><a xlink:title=" ">
<path fill="none" stroke="#63b8ff" d="M763.03,-72.42C775.06,-73.74 787.48,-75.11 799.67,-76.45"/>
<polygon fill="#63b8ff" stroke="#63b8ff" points="799.53,-79.96 809.86,-77.57 800.3,-73 799.53,-79.96"/>
</a>
</g>
</g>
<!-- Node34&#45;&gt;Node33 -->
<g id="edge39_Node000034_Node000033" class="edge">
<title>Node34&#45;&gt;Node33</title>
<g id="a_edge39_Node000034_Node000033"><a xlink:title=" ">
<path fill="none" stroke="#63b8ff" d="M554.19,-66.52C562.66,-66.27 571.3,-66.02 579.87,-65.77"/>
<polygon fill="#63b8ff" stroke="#63b8ff" points="579.98,-69.27 589.88,-65.48 579.78,-62.27 579.98,-69.27"/>
</a>
</g>
</g>
</g>
</svg>
