<?xml version="1.0" encoding="UTF-8" standalone="no"?>
<!DOCTYPE svg PUBLIC "-//W3C//DTD SVG 1.1//EN"
 "http://www.w3.org/Graphics/SVG/1.1/DTD/svg11.dtd">
<!-- Generated by graphviz version 2.43.0 (0)
 -->
<!-- Title: MayaFlux::Yantra::UniversalAnalyzer::organize_into_groups Pages: 1 -->
<svg width="564pt" height="86pt"
 viewBox="0.00 0.00 564.00 86.00" xmlns="http://www.w3.org/2000/svg" xmlns:xlink="http://www.w3.org/1999/xlink">
<g id="graph0" class="graph" transform="scale(1 1) rotate(0) translate(4 82)">
<title>MayaFlux::Yantra::UniversalAnalyzer::organize_into_groups</title>
<!-- Node1 -->
<g id="Node000001" class="node">
<title>Node1</title>
<g id="a_Node000001"><a xlink:title="Organize results into hierarchical groups (override for custom grouping)">
<polygon fill="#999999" stroke="#666666" points="170,-54 0,-54 0,-24 170,-24 170,-54"/>
<text text-anchor="start" x="8" y="-42" font-family="Helvetica,sans-Serif" font-size="10.00">MayaFlux::Yantra::Universal</text>
<text text-anchor="middle" x="85" y="-31" font-family="Helvetica,sans-Serif" font-size="10.00">Analyzer::organize_into_groups</text>
</a>
</g>
</g>
<!-- Node2 -->
<g id="Node000002" class="node">
<title>Node2</title>
<g id="a_Node000002"><a xlink:href="classMayaFlux_1_1Yantra_1_1UniversalAnalyzer_a1b40c841dc4fd2a704a855ca99454c13.html#a1b40c841dc4fd2a704a855ca99454c13" target="_top" xlink:title="Add attribution metadata to results (override for custom attribution)">
<polygon fill="white" stroke="#666666" points="359,-59.5 206,-59.5 206,-18.5 359,-18.5 359,-59.5"/>
<text text-anchor="start" x="214" y="-47.5" font-family="Helvetica,sans-Serif" font-size="10.00">MayaFlux::Yantra::Universal</text>
<text text-anchor="start" x="214" y="-36.5" font-family="Helvetica,sans-Serif" font-size="10.00">Analyzer::add_attribution</text>
<text text-anchor="middle" x="282.5" y="-25.5" font-family="Helvetica,sans-Serif" font-size="10.00">_metadata</text>
</a>
</g>
</g>
<!-- Node1&#45;&gt;Node2 -->
<g id="edge1_Node000001_Node000002" class="edge">
<title>Node1&#45;&gt;Node2</title>
<g id="a_edge1_Node000001_Node000002"><a xlink:title=" ">
<path fill="none" stroke="#63b8ff" d="M170.04,-39C178.51,-39 187.11,-39 195.59,-39"/>
<polygon fill="#63b8ff" stroke="#63b8ff" points="195.85,-42.5 205.85,-39 195.85,-35.5 195.85,-42.5"/>
</a>
</g>
</g>
<!-- Node3 -->
<g id="Node000003" class="node">
<title>Node3</title>
<g id="a_Node000003"><a xlink:href="classMayaFlux_1_1Yantra_1_1UniversalAnalyzer_a1c728257fcc6b2ffe3e7b01aaa41cf98.html#a1c728257fcc6b2ffe3e7b01aaa41cf98" target="_top" xlink:title="Gets the analysis type category for this analyzer.">
<polygon fill="white" stroke="#666666" points="552.5,-78 398.5,-78 398.5,-48 552.5,-48 552.5,-78"/>
<text text-anchor="start" x="406.5" y="-66" font-family="Helvetica,sans-Serif" font-size="10.00">MayaFlux::Yantra::Universal</text>
<text text-anchor="middle" x="475.5" y="-55" font-family="Helvetica,sans-Serif" font-size="10.00">Analyzer::get_analysis_type</text>
</a>
</g>
</g>
<!-- Node2&#45;&gt;Node3 -->
<g id="edge2_Node000002_Node000003" class="edge">
<title>Node2&#45;&gt;Node3</title>
<g id="a_edge2_Node000002_Node000003"><a xlink:title=" ">
<path fill="none" stroke="#63b8ff" d="M359.26,-48.52C368.77,-49.71 378.55,-50.94 388.21,-52.16"/>
<polygon fill="#63b8ff" stroke="#63b8ff" points="387.85,-55.64 398.2,-53.41 388.72,-48.69 387.85,-55.64"/>
</a>
</g>
</g>
<!-- Node4 -->
<g id="Node000004" class="node">
<title>Node4</title>
<g id="a_Node000004"><a xlink:href="classMayaFlux_1_1Yantra_1_1UniversalAnalyzer_accb8a50b514dc4d55f12ea261444f33e.html#accb8a50b514dc4d55f12ea261444f33e" target="_top" xlink:title="Get analyzer&#45;specific name (derived classes override this)">
<polygon fill="white" stroke="#666666" points="556,-30 395,-30 395,0 556,0 556,-30"/>
<text text-anchor="start" x="403" y="-18" font-family="Helvetica,sans-Serif" font-size="10.00">MayaFlux::Yantra::Universal</text>
<text text-anchor="middle" x="475.5" y="-7" font-family="Helvetica,sans-Serif" font-size="10.00">Analyzer::get_analyzer_name</text>
</a>
</g>
</g>
<!-- Node2&#45;&gt;Node4 -->
<g id="edge3_Node000002_Node000004" class="edge">
<title>Node2&#45;&gt;Node4</title>
<g id="a_edge3_Node000002_Node000004"><a xlink:title=" ">
<path fill="none" stroke="#63b8ff" d="M359.26,-29.48C367.65,-28.43 376.24,-27.35 384.78,-26.27"/>
<polygon fill="#63b8ff" stroke="#63b8ff" points="385.27,-29.74 394.75,-25.02 384.39,-22.79 385.27,-29.74"/>
</a>
</g>
</g>
</g>
</svg>
