<?xml version="1.0" encoding="UTF-8" standalone="no"?>
<!DOCTYPE svg PUBLIC "-//W3C//DTD SVG 1.1//EN"
 "http://www.w3.org/Graphics/SVG/1.1/DTD/svg11.dtd">
<!-- Generated by graphviz version 2.43.0 (0)
 -->
<!-- Title: MayaFlux::Vruta::TaskScheduler::process_token Pages: 1 -->
<svg width="599pt" height="220pt"
 viewBox="0.00 0.00 599.00 220.00" xmlns="http://www.w3.org/2000/svg" xmlns:xlink="http://www.w3.org/1999/xlink">
<g id="graph0" class="graph" transform="scale(1 1) rotate(0) translate(4 216)">
<title>MayaFlux::Vruta::TaskScheduler::process_token</title>
<!-- Node1 -->
<g id="Node000001" class="node">
<title>Node1</title>
<g id="a_Node000001"><a xlink:title="Process all tasks for a specific processing domain.">
<polygon fill="#999999" stroke="#666666" points="173,-121 0,-121 0,-91 173,-91 173,-121"/>
<text text-anchor="start" x="8" y="-109" font-family="Helvetica,sans-Serif" font-size="10.00">MayaFlux::Vruta::TaskScheduler</text>
<text text-anchor="middle" x="86.5" y="-98" font-family="Helvetica,sans-Serif" font-size="10.00">::process_token</text>
</a>
</g>
</g>
<!-- Node2 -->
<g id="Node000002" class="node">
<title>Node2</title>
<g id="a_Node000002"><a xlink:href="classMayaFlux_1_1Vruta_1_1TaskScheduler_a322450eff89aa47c626d316b1b1f78f8.html#a322450eff89aa47c626d316b1b1f78f8" target="_top" xlink:title="Clean up completed tasks in a domain.">
<polygon fill="white" stroke="#666666" points="382,-212 209,-212 209,-182 382,-182 382,-212"/>
<text text-anchor="start" x="217" y="-200" font-family="Helvetica,sans-Serif" font-size="10.00">MayaFlux::Vruta::TaskScheduler</text>
<text text-anchor="middle" x="295.5" y="-189" font-family="Helvetica,sans-Serif" font-size="10.00">::cleanup_completed_tasks</text>
</a>
</g>
</g>
<!-- Node1&#45;&gt;Node2 -->
<g id="edge1_Node000001_Node000002" class="edge">
<title>Node1&#45;&gt;Node2</title>
<g id="a_edge1_Node000001_Node000002"><a xlink:title=" ">
<path fill="none" stroke="#63b8ff" d="M110.9,-121.04C134.79,-135.87 173.34,-158.39 209,-173 213.99,-175.05 219.22,-176.98 224.52,-178.8"/>
<polygon fill="#63b8ff" stroke="#63b8ff" points="223.52,-182.15 234.11,-181.94 225.7,-175.5 223.52,-182.15"/>
</a>
</g>
</g>
<!-- Node3 -->
<g id="Node000003" class="node">
<title>Node3</title>
<g id="a_Node000003"><a xlink:href="classMayaFlux_1_1Vruta_1_1TaskScheduler_aa493113c59d1aed358efb9450c606947.html#aa493113c59d1aed358efb9450c606947" target="_top" xlink:title="Drain pending task operations (additions/removals) before processing.">
<polygon fill="white" stroke="#666666" points="382,-164 209,-164 209,-134 382,-134 382,-164"/>
<text text-anchor="start" x="217" y="-152" font-family="Helvetica,sans-Serif" font-size="10.00">MayaFlux::Vruta::TaskScheduler</text>
<text text-anchor="middle" x="295.5" y="-141" font-family="Helvetica,sans-Serif" font-size="10.00">::drain_pending_tasks</text>
</a>
</g>
</g>
<!-- Node1&#45;&gt;Node3 -->
<g id="edge2_Node000001_Node000003" class="edge">
<title>Node1&#45;&gt;Node3</title>
<g id="a_edge2_Node000001_Node000003"><a xlink:title=" ">
<path fill="none" stroke="#63b8ff" d="M159.9,-121.04C176.76,-124.54 194.83,-128.3 212.09,-131.88"/>
<polygon fill="#63b8ff" stroke="#63b8ff" points="211.64,-135.36 222.14,-133.97 213.06,-128.51 211.64,-135.36"/>
</a>
</g>
</g>
<!-- Node5 -->
<g id="Node000005" class="node">
<title>Node5</title>
<g id="a_Node000005"><a xlink:href="classMayaFlux_1_1Vruta_1_1TaskScheduler_aa1e9585cf32c6b11e54b763c48c1398e.html#aa1e9585cf32c6b11e54b763c48c1398e" target="_top" xlink:title="Get all tasks for a specific processing domain.">
<polygon fill="white" stroke="#666666" points="591,-78 418,-78 418,-48 591,-48 591,-78"/>
<text text-anchor="start" x="426" y="-66" font-family="Helvetica,sans-Serif" font-size="10.00">MayaFlux::Vruta::TaskScheduler</text>
<text text-anchor="middle" x="504.5" y="-55" font-family="Helvetica,sans-Serif" font-size="10.00">::get_tasks_for_token</text>
</a>
</g>
</g>
<!-- Node1&#45;&gt;Node5 -->
<g id="edge4_Node000001_Node000005" class="edge">
<title>Node1&#45;&gt;Node5</title>
<g id="a_edge4_Node000001_Node000005"><a xlink:title=" ">
<path fill="none" stroke="#63b8ff" d="M173.16,-103.43C232.08,-100.94 312.02,-96.13 382,-87 396.2,-85.15 411.25,-82.63 425.72,-79.93"/>
<polygon fill="#63b8ff" stroke="#63b8ff" points="426.48,-83.35 435.64,-78.03 425.16,-76.47 426.48,-83.35"/>
</a>
</g>
</g>
<!-- Node6 -->
<g id="Node000006" class="node">
<title>Node6</title>
<g id="a_Node000006"><a xlink:href="classMayaFlux_1_1Vruta_1_1TaskScheduler_ab2435d77fd2b8b2ac0dc06770f94c023.html#ab2435d77fd2b8b2ac0dc06770f94c023" target="_top" xlink:title="Process tasks in a specific domain with default algorithm.">
<polygon fill="white" stroke="#666666" points="382,-78 209,-78 209,-48 382,-48 382,-78"/>
<text text-anchor="start" x="217" y="-66" font-family="Helvetica,sans-Serif" font-size="10.00">MayaFlux::Vruta::TaskScheduler</text>
<text text-anchor="middle" x="295.5" y="-55" font-family="Helvetica,sans-Serif" font-size="10.00">::process_default</text>
</a>
</g>
</g>
<!-- Node1&#45;&gt;Node6 -->
<g id="edge5_Node000001_Node000006" class="edge">
<title>Node1&#45;&gt;Node6</title>
<g id="a_edge5_Node000001_Node000006"><a xlink:title=" ">
<path fill="none" stroke="#63b8ff" d="M159.9,-90.96C176.76,-87.46 194.83,-83.7 212.09,-80.12"/>
<polygon fill="#63b8ff" stroke="#63b8ff" points="213.06,-83.49 222.14,-78.03 211.64,-76.64 213.06,-83.49"/>
</a>
</g>
</g>
<!-- Node7 -->
<g id="Node000007" class="node">
<title>Node7</title>
<g id="a_Node000007"><a xlink:href="classMayaFlux_1_1Vruta_1_1TaskScheduler_aa7488d9f0924a50a59fca69be51a355c.html#aa7488d9f0924a50a59fca69be51a355c" target="_top" xlink:title="Pump the MULTI_RATE list from one clock&#39;s context.">
<polygon fill="white" stroke="#666666" points="382,-30 209,-30 209,0 382,0 382,-30"/>
<text text-anchor="start" x="217" y="-18" font-family="Helvetica,sans-Serif" font-size="10.00">MayaFlux::Vruta::TaskScheduler</text>
<text text-anchor="middle" x="295.5" y="-7" font-family="Helvetica,sans-Serif" font-size="10.00">::pump_cross</text>
</a>
</g>
</g>
<!-- Node1&#45;&gt;Node7 -->
<g id="edge7_Node000001_Node000007" class="edge">
<title>Node1&#45;&gt;Node7</title>
<g id="a_edge7_Node000001_Node000007"><a xlink:title=" ">
<path fill="none" stroke="#63b8ff" d="M110.9,-90.96C134.79,-76.13 173.34,-53.61 209,-39 213.99,-36.95 219.22,-35.02 224.52,-33.2"/>
<polygon fill="#63b8ff" stroke="#63b8ff" points="225.7,-36.5 234.11,-30.06 223.52,-29.85 225.7,-36.5"/>
</a>
</g>
</g>
<!-- Node4 -->
<g id="Node000004" class="node">
<title>Node4</title>
<g id="a_Node000004"><a xlink:href="classMayaFlux_1_1Vruta_1_1TaskScheduler_a6cab5fd4999392badaec656a94ab3d16.html#a6cab5fd4999392badaec656a94ab3d16" target="_top" xlink:title="Find task entry by name.">
<polygon fill="white" stroke="#666666" points="591,-164 418,-164 418,-134 591,-134 591,-164"/>
<text text-anchor="start" x="426" y="-152" font-family="Helvetica,sans-Serif" font-size="10.00">MayaFlux::Vruta::TaskScheduler</text>
<text text-anchor="middle" x="504.5" y="-141" font-family="Helvetica,sans-Serif" font-size="10.00">::find_task_by_name</text>
</a>
</g>
</g>
<!-- Node3&#45;&gt;Node4 -->
<g id="edge3_Node000003_Node000004" class="edge">
<title>Node3&#45;&gt;Node4</title>
<g id="a_edge3_Node000003_Node000004"><a xlink:title=" ">
<path fill="none" stroke="#63b8ff" d="M382.19,-149C390.66,-149 399.3,-149 407.87,-149"/>
<polygon fill="#63b8ff" stroke="#63b8ff" points="407.88,-152.5 417.88,-149 407.88,-145.5 407.88,-152.5"/>
</a>
</g>
</g>
<!-- Node6&#45;&gt;Node5 -->
<g id="edge6_Node000006_Node000005" class="edge">
<title>Node6&#45;&gt;Node5</title>
<g id="a_edge6_Node000006_Node000005"><a xlink:title=" ">
<path fill="none" stroke="#63b8ff" d="M382.19,-63C390.66,-63 399.3,-63 407.87,-63"/>
<polygon fill="#63b8ff" stroke="#63b8ff" points="407.88,-66.5 417.88,-63 407.88,-59.5 407.88,-66.5"/>
</a>
</g>
</g>
<!-- Node7&#45;&gt;Node5 -->
<g id="edge8_Node000007_Node000005" class="edge">
<title>Node7&#45;&gt;Node5</title>
<g id="a_edge8_Node000007_Node000005"><a xlink:title=" ">
<path fill="none" stroke="#63b8ff" d="M361.43,-30.06C382.81,-35.01 406.77,-40.57 428.82,-45.68"/>
<polygon fill="#63b8ff" stroke="#63b8ff" points="428.27,-49.15 438.8,-48 429.85,-42.33 428.27,-49.15"/>
</a>
</g>
</g>
</g>
</svg>
