<?xml version="1.0" encoding="UTF-8" standalone="no"?>
<!DOCTYPE svg PUBLIC "-//W3C//DTD SVG 1.1//EN"
 "http://www.w3.org/Graphics/SVG/1.1/DTD/svg11.dtd">
<!-- Generated by graphviz version 2.43.0 (0)
 -->
<!-- Title: MayaFlux::Kakshya::VideoStreamContainer::get_frame_byte_size Pages: 1 -->
<!--zoomable 255 -->

<svg id="main" version="1.1" xmlns="http://www.w3.org/2000/svg" xmlns:xlink="http://www.w3.org/1999/xlink" xml:space="preserve" onload="init(evt)">
<style type="text/css"><![CDATA[
.node, .edge {opacity: 0.7;}
.node.selected, .edge.selected {opacity: 1;}
.edge:hover path { stroke: red; }
.edge:hover polygon { stroke: red; fill: red; }
]]></style>

<defs>
  <circle id="rim" cx="0" cy="0" r="7"/>
  <circle id="rim2" cx="0" cy="0" r="3.5"/>
  <g id="zoomPlus">
    <use xlink:href="#rim" fill="#404040"><set attributeName="fill" to="#808080" begin="zoomplus.mouseover" end="zoomplus.mouseout"/></use>
    <path d="M-4,0h8M0,-4v8" fill="none" stroke="white" stroke-width="1.5" pointer-events="none"/>
  </g>
  <g id="zoomMin">
    <use xlink:href="#rim" fill="#404040"><set attributeName="fill" to="#808080" begin="zoomminus.mouseover" end="zoomminus.mouseout"/></use>
    <path d="M-4,0h8" fill="none" stroke="white" stroke-width="1.5" pointer-events="none"/>
  </g>
  <g id="arrowUp" transform="translate(30 24)">
    <use xlink:href="#rim"/>
    <path pointer-events="none" fill="none" stroke="white" stroke-width="1.5" d="M0,-3.0v7 M-2.5,-0.5L0,-3.0L2.5,-0.5"/>
  </g>
  <g id="arrowRight" transform="rotate(90) translate(36 -43)">
    <use xlink:href="#rim"/>
    <path pointer-events="none" fill="none" stroke="white" stroke-width="1.5" d="M0,-3.0v7 M-2.5,-0.5L0,-3.0L2.5,-0.5"/>
  </g>
  <g id="arrowDown" transform="rotate(180) translate(-30 -48)">
    <use xlink:href="#rim"/>
    <path pointer-events="none" fill="none" stroke="white" stroke-width="1.5" d="M0,-3.0v7 M-2.5,-0.5L0,-3.0L2.5,-0.5"/>
  </g>
  <g id="arrowLeft" transform="rotate(270) translate(-36 17)">
    <use xlink:href="#rim"/>
    <path pointer-events="none" fill="none" stroke="white" stroke-width="1.5" d="M0,-3.0v7 M-2.5,-0.5L0,-3.0L2.5,-0.5"/>
  </g>
  <g id="resetDef">
    <use xlink:href="#rim2" fill="#404040"><set attributeName="fill" to="#808080" begin="reset.mouseover" end="reset.mouseout"/></use>
  </g>
</defs>
<script type="application/ecmascript">
var viewWidth = 1177;
var viewHeight = 255;
var sectionId = 'dynsection-0';
</script>
<script type="application/ecmascript" xlink:href="svg.min.js"/>
<svg id="graph" class="graph">
<g id="viewport">
<title>MayaFlux::Kakshya::VideoStreamContainer::get_frame_byte_size</title>
<!-- Node1 -->
<g id="Node000001" class="node">
<title>Node1</title>
<g id="a_Node000001"><a xlink:title="Get the total byte size of one frame (width * height * channels).">
<polygon fill="#999999" stroke="#666666" points="1169,-139 1042,-139 1042,-98 1169,-98 1169,-139"/>
<text text-anchor="start" x="1050" y="-127" font-family="Helvetica,sans-Serif" font-size="10.00">MayaFlux::Kakshya::</text>
<text text-anchor="start" x="1050" y="-116" font-family="Helvetica,sans-Serif" font-size="10.00">VideoStreamContainer</text>
<text text-anchor="middle" x="1105.5" y="-105" font-family="Helvetica,sans-Serif" font-size="10.00">::get_frame_byte_size</text>
</a>
</g>
</g>
<!-- Node2 -->
<g id="Node000002" class="node">
<title>Node2</title>
<g id="a_Node000002"><a xlink:href="classMayaFlux_1_1Kakshya_1_1CameraContainer_a9e3ec9cdb305962ff63fec2551149e6b.html#a9e3ec9cdb305962ff63fec2551149e6b" target="_top" xlink:title="Construct a CameraContainer with specified resolution.">
<polygon fill="white" stroke="#666666" points="1006,-246.5 812,-246.5 812,-216.5 1006,-216.5 1006,-246.5"/>
<text text-anchor="start" x="820" y="-234.5" font-family="Helvetica,sans-Serif" font-size="10.00">MayaFlux::Kakshya::</text>
<text text-anchor="middle" x="909" y="-223.5" font-family="Helvetica,sans-Serif" font-size="10.00">CameraContainer::CameraContainer</text>
</a>
</g>
</g>
<!-- Node1&#45;&gt;Node2 -->
<g id="edge1_Node000001_Node000002" class="edge">
<title>Node1&#45;&gt;Node2</title>
<g id="a_edge1_Node000001_Node000002"><a xlink:title=" ">
<path fill="none" stroke="#63b8ff" d="M1080.08,-146.47C1061.58,-165.99 1034.55,-191.2 1006,-206.5 998.79,-210.36 990.95,-213.66 982.96,-216.45"/>
<polygon fill="#63b8ff" stroke="#63b8ff" points="1082.74,-148.74 1086.98,-139.03 1077.61,-143.98 1082.74,-148.74"/>
</a>
</g>
</g>
<!-- Node3 -->
<g id="Node000003" class="node">
<title>Node3</title>
<g id="a_Node000003"><a xlink:href="classMayaFlux_1_1IO_1_1VideoFileReader_a06dbdf6b0f46662e6787d74f094e96dd.html#a06dbdf6b0f46662e6787d74f094e96dd" target="_top" xlink:title="Decode up to batch_size frames starting at m_decode_head.">
<polygon fill="white" stroke="#666666" points="776,-138.5 609,-138.5 609,-108.5 776,-108.5 776,-138.5"/>
<text text-anchor="start" x="617" y="-126.5" font-family="Helvetica,sans-Serif" font-size="10.00">MayaFlux::IO::VideoFileReader</text>
<text text-anchor="middle" x="692.5" y="-115.5" font-family="Helvetica,sans-Serif" font-size="10.00">::decode_batch</text>
</a>
</g>
</g>
<!-- Node1&#45;&gt;Node3 -->
<g id="edge2_Node000001_Node000003" class="edge">
<title>Node1&#45;&gt;Node3</title>
<g id="a_edge2_Node000001_Node000003"><a xlink:title=" ">
<path fill="none" stroke="#63b8ff" d="M1037.47,-95.21C1027.05,-92.43 1016.32,-90.04 1006,-88.5 920.72,-75.8 897.33,-76.16 812,-88.5 785.36,-92.35 756.36,-100.84 733.71,-108.49"/>
<polygon fill="#63b8ff" stroke="#63b8ff" points="1036.77,-98.65 1047.34,-97.98 1038.66,-91.91 1036.77,-98.65"/>
</a>
</g>
</g>
<!-- Node8 -->
<g id="Node000008" class="node">
<title>Node8</title>
<g id="a_Node000008"><a xlink:href="classMayaFlux_1_1Kakshya_1_1VideoStreamContainer_a9e5b883b500963e343de6fe357520f45.html#a9e5b883b500963e343de6fe357520f45" target="_top" xlink:title="Get raw pixel data for a single frame as uint8_t span.">
<polygon fill="white" stroke="#666666" points="972.5,-139 845.5,-139 845.5,-98 972.5,-98 972.5,-139"/>
<text text-anchor="start" x="853.5" y="-127" font-family="Helvetica,sans-Serif" font-size="10.00">MayaFlux::Kakshya::</text>
<text text-anchor="start" x="853.5" y="-116" font-family="Helvetica,sans-Serif" font-size="10.00">VideoStreamContainer</text>
<text text-anchor="middle" x="909" y="-105" font-family="Helvetica,sans-Serif" font-size="10.00">::get_frame_pixels</text>
</a>
</g>
</g>
<!-- Node1&#45;&gt;Node8 -->
<g id="edge9_Node000001_Node000008" class="edge">
<title>Node1&#45;&gt;Node8</title>
<g id="a_edge9_Node000001_Node000008"><a xlink:title=" ">
<path fill="none" stroke="#63b8ff" d="M1031.88,-118.5C1012.47,-118.5 991.66,-118.5 972.83,-118.5"/>
<polygon fill="#63b8ff" stroke="#63b8ff" points="1031.89,-122 1041.89,-118.5 1031.89,-115 1031.89,-122"/>
</a>
</g>
</g>
<!-- Node9 -->
<g id="Node000009" class="node">
<title>Node9</title>
<g id="a_Node000009"><a xlink:href="classMayaFlux_1_1Kakshya_1_1VideoStreamContainer_a26041c92754b0feb5214c3b34c1f0765.html#a26041c92754b0feb5214c3b34c1f0765" target="_top" xlink:title="Mutable pointer into m_data[0] for the decode thread to write into.">
<polygon fill="white" stroke="#666666" points="972.5,-198 845.5,-198 845.5,-157 972.5,-157 972.5,-198"/>
<text text-anchor="start" x="853.5" y="-186" font-family="Helvetica,sans-Serif" font-size="10.00">MayaFlux::Kakshya::</text>
<text text-anchor="start" x="853.5" y="-175" font-family="Helvetica,sans-Serif" font-size="10.00">VideoStreamContainer</text>
<text text-anchor="middle" x="909" y="-164" font-family="Helvetica,sans-Serif" font-size="10.00">::mutable_slot_ptr</text>
</a>
</g>
</g>
<!-- Node1&#45;&gt;Node9 -->
<g id="edge10_Node000001_Node000009" class="edge">
<title>Node1&#45;&gt;Node9</title>
<g id="a_edge10_Node000001_Node000009"><a xlink:title=" ">
<path fill="none" stroke="#63b8ff" d="M1032.15,-140.45C1012.66,-146.36 991.75,-152.7 972.83,-158.44"/>
<polygon fill="#63b8ff" stroke="#63b8ff" points="1033.33,-143.74 1041.89,-137.49 1031.3,-137.05 1033.33,-143.74"/>
</a>
</g>
</g>
<!-- Node10 -->
<g id="Node000010" class="node">
<title>Node10</title>
<g id="a_Node000010"><a xlink:href="classMayaFlux_1_1Kakshya_1_1VideoStreamContainer_aa5c16c61c3e6cc0ed20dc12f06b0f32a.html#aa5c16c61c3e6cc0ed20dc12f06b0f32a" target="_top" xlink:title="Allocate m_data[0] as a ring of ring_capacity frames.">
<polygon fill="white" stroke="#666666" points="972.5,-41 845.5,-41 845.5,0 972.5,0 972.5,-41"/>
<text text-anchor="start" x="853.5" y="-29" font-family="Helvetica,sans-Serif" font-size="10.00">MayaFlux::Kakshya::</text>
<text text-anchor="start" x="853.5" y="-18" font-family="Helvetica,sans-Serif" font-size="10.00">VideoStreamContainer</text>
<text text-anchor="middle" x="909" y="-7" font-family="Helvetica,sans-Serif" font-size="10.00">::setup_ring</text>
</a>
</g>
</g>
<!-- Node1&#45;&gt;Node10 -->
<g id="edge12_Node000001_Node000010" class="edge">
<title>Node1&#45;&gt;Node10</title>
<g id="a_edge12_Node000001_Node000010"><a xlink:title=" ">
<path fill="none" stroke="#63b8ff" d="M1067.29,-91.95C1049.32,-79.86 1027.11,-65.94 1006,-55.5 995.43,-50.27 983.87,-45.4 972.55,-41.04"/>
<polygon fill="#63b8ff" stroke="#63b8ff" points="1065.52,-94.98 1075.75,-97.72 1069.46,-89.2 1065.52,-94.98"/>
</a>
</g>
</g>
<!-- Node4 -->
<g id="Node000004" class="node">
<title>Node4</title>
<g id="a_Node000004"><a xlink:href="classMayaFlux_1_1IO_1_1VideoFileReader_a954440a576c3a9d5ff91202c4c62fb2c.html#a954440a576c3a9d5ff91202c4c62fb2c" target="_top" xlink:title=" ">
<polygon fill="white" stroke="#666666" points="573,-138.5 406,-138.5 406,-108.5 573,-108.5 573,-138.5"/>
<text text-anchor="start" x="414" y="-126.5" font-family="Helvetica,sans-Serif" font-size="10.00">MayaFlux::IO::VideoFileReader</text>
<text text-anchor="middle" x="489.5" y="-115.5" font-family="Helvetica,sans-Serif" font-size="10.00">::decode_thread_func</text>
</a>
</g>
</g>
<!-- Node3&#45;&gt;Node4 -->
<g id="edge3_Node000003_Node000004" class="edge">
<title>Node3&#45;&gt;Node4</title>
<g id="a_edge3_Node000003_Node000004"><a xlink:title=" ">
<path fill="none" stroke="#63b8ff" d="M598.85,-123.5C590.27,-123.5 581.61,-123.5 573.13,-123.5"/>
<polygon fill="#63b8ff" stroke="#63b8ff" points="598.88,-127 608.88,-123.5 598.88,-120 598.88,-127"/>
</a>
</g>
</g>
<!-- Node6 -->
<g id="Node000006" class="node">
<title>Node6</title>
<g id="a_Node000006"><a xlink:href="classMayaFlux_1_1IO_1_1VideoFileReader_a78b6b19d6d9126250ded73ea4b7b6629.html#a78b6b19d6d9126250ded73ea4b7b6629" target="_top" xlink:title="Load file data into an existing container.">
<polygon fill="white" stroke="#666666" points="167,-171.5 0,-171.5 0,-141.5 167,-141.5 167,-171.5"/>
<text text-anchor="start" x="8" y="-159.5" font-family="Helvetica,sans-Serif" font-size="10.00">MayaFlux::IO::VideoFileReader</text>
<text text-anchor="middle" x="83.5" y="-148.5" font-family="Helvetica,sans-Serif" font-size="10.00">::load_into_container</text>
</a>
</g>
</g>
<!-- Node3&#45;&gt;Node6 -->
<g id="edge7_Node000003_Node000006" class="edge">
<title>Node3&#45;&gt;Node6</title>
<g id="a_edge7_Node000003_Node000006"><a xlink:title=" ">
<path fill="none" stroke="#63b8ff" d="M618.04,-140.53C603.21,-143.36 587.66,-145.89 573,-147.5 431.13,-163.04 264.74,-162.04 167.33,-159.53"/>
<polygon fill="#63b8ff" stroke="#63b8ff" points="619.05,-143.9 628.18,-138.53 617.69,-137.03 619.05,-143.9"/>
</a>
</g>
</g>
<!-- Node7 -->
<g id="Node000007" class="node">
<title>Node7</title>
<g id="a_Node000007"><a xlink:href="classMayaFlux_1_1IO_1_1VideoFileReader_a67253a8d5bd744aa898d4f44b6814c95.html#a67253a8d5bd744aa898d4f44b6814c95" target="_top" xlink:title="Seek to a specific position in the file.">
<polygon fill="white" stroke="#666666" points="167,-114.5 0,-114.5 0,-84.5 167,-84.5 167,-114.5"/>
<text text-anchor="start" x="8" y="-102.5" font-family="Helvetica,sans-Serif" font-size="10.00">MayaFlux::IO::VideoFileReader</text>
<text text-anchor="middle" x="83.5" y="-91.5" font-family="Helvetica,sans-Serif" font-size="10.00">::seek</text>
</a>
</g>
</g>
<!-- Node3&#45;&gt;Node7 -->
<g id="edge8_Node000003_Node000007" class="edge">
<title>Node3&#45;&gt;Node7</title>
<g id="a_edge8_Node000003_Node000007"><a xlink:title=" ">
<path fill="none" stroke="#63b8ff" d="M619.27,-106.49C604.07,-103.58 588.08,-101.01 573,-99.5 431.02,-85.27 264.66,-89.74 167.29,-94.48"/>
<polygon fill="#63b8ff" stroke="#63b8ff" points="618.64,-109.93 629.13,-108.44 620,-103.06 618.64,-109.93"/>
</a>
</g>
</g>
<!-- Node5 -->
<g id="Node000005" class="node">
<title>Node5</title>
<g id="a_Node000005"><a xlink:href="classMayaFlux_1_1IO_1_1VideoFileReader_a12ac2bea1489c574b3eedb216bb1d18c.html#a12ac2bea1489c574b3eedb216bb1d18c" target="_top" xlink:title=" ">
<polygon fill="white" stroke="#666666" points="370,-138.5 203,-138.5 203,-108.5 370,-108.5 370,-138.5"/>
<text text-anchor="start" x="211" y="-126.5" font-family="Helvetica,sans-Serif" font-size="10.00">MayaFlux::IO::VideoFileReader</text>
<text text-anchor="middle" x="286.5" y="-115.5" font-family="Helvetica,sans-Serif" font-size="10.00">::start_decode_thread</text>
</a>
</g>
</g>
<!-- Node4&#45;&gt;Node5 -->
<g id="edge4_Node000004_Node000005" class="edge">
<title>Node4&#45;&gt;Node5</title>
<g id="a_edge4_Node000004_Node000005"><a xlink:title=" ">
<path fill="none" stroke="#63b8ff" d="M395.85,-123.5C387.27,-123.5 378.61,-123.5 370.13,-123.5"/>
<polygon fill="#63b8ff" stroke="#63b8ff" points="395.88,-127 405.88,-123.5 395.88,-120 395.88,-127"/>
</a>
</g>
</g>
<!-- Node5&#45;&gt;Node6 -->
<g id="edge5_Node000005_Node000006" class="edge">
<title>Node5&#45;&gt;Node6</title>
<g id="a_edge5_Node000005_Node000006"><a xlink:title=" ">
<path fill="none" stroke="#63b8ff" d="M192.85,-138.71C184.27,-140.12 175.61,-141.54 167.13,-142.93"/>
<polygon fill="#63b8ff" stroke="#63b8ff" points="193.57,-142.14 202.88,-137.07 192.44,-135.23 193.57,-142.14"/>
</a>
</g>
</g>
<!-- Node5&#45;&gt;Node7 -->
<g id="edge6_Node000005_Node000007" class="edge">
<title>Node5&#45;&gt;Node7</title>
<g id="a_edge6_Node000005_Node000007"><a xlink:title=" ">
<path fill="none" stroke="#63b8ff" d="M192.85,-112.44C184.27,-111.41 175.61,-110.38 167.13,-109.37"/>
<polygon fill="#63b8ff" stroke="#63b8ff" points="192.53,-115.92 202.88,-113.63 193.36,-108.97 192.53,-115.92"/>
</a>
</g>
</g>
<!-- Node9&#45;&gt;Node3 -->
<g id="edge11_Node000009_Node000003" class="edge">
<title>Node9&#45;&gt;Node3</title>
<g id="a_edge11_Node000009_Node000003"><a xlink:title=" ">
<path fill="none" stroke="#63b8ff" d="M835.67,-159.29C808.87,-152.54 778.8,-144.97 753.25,-138.54"/>
<polygon fill="#63b8ff" stroke="#63b8ff" points="834.83,-162.69 845.38,-161.74 836.54,-155.9 834.83,-162.69"/>
</a>
</g>
</g>
</g>
</svg>

<g id="navigator" transform="translate(0 0)" fill="#404254">
  <rect fill="#f2f5e9" fill-opacity="0.5" stroke="#606060" stroke-width=".5" x="0" y="0" width="60" height="60"/>
  <use id="zoomplus" xlink:href="#zoomPlus" x="17" y="9" onmousedown="handleZoom(evt,'in')"/>
  <use id="zoomminus" xlink:href="#zoomMin" x="42" y="9" onmousedown="handleZoom(evt,'out')"/>
  <use id="reset" xlink:href="#resetDef" x="30" y="36" onmousedown="handleReset()"/>
   <use id="arrowup" xlink:href="#arrowUp" x="0" y="0" onmousedown="handlePan(0,-1)"/>
  <use id="arrowright" xlink:href="#arrowRight" x="0" y="0" onmousedown="handlePan(1,0)"/>
  <use id="arrowdown" xlink:href="#arrowDown" x="0" y="0" onmousedown="handlePan(0,1)"/>
  <use id="arrowleft" xlink:href="#arrowLeft" x="0" y="0" onmousedown="handlePan(-1,0)"/>
</g>
<svg viewBox="0 0 15 15" width="100%" height="30px" preserveAspectRatio="xMaxYMin meet">
 <g id="arrow_out" transform="scale(0.3 0.3)">
  <a xlink:href="classMayaFlux_1_1Kakshya_1_1VideoStreamContainer_acd69a7c5e27cc6fd492c480c481ee9ea_acd69a7c5e27cc6fd492c480c481ee9ea_icgraph_org.svg" target="_base">
   <rect id="button" ry="5" rx="5" y="6" x="6" height="38" width="38"
        fill="#f2f5e9" fill-opacity="0.5" stroke="#606060" stroke-width="1.0"/>
   <path id="arrow"
     d="M 11.500037,31.436501 C 11.940474,20.09759 22.043105,11.32322 32.158766,21.979434 L 37.068811,17.246167 C 37.068811,17.246167 37.088388,32 37.088388,32 L 22.160133,31.978069 C 22.160133,31.978069 26.997745,27.140456 26.997745,27.140456 C 18.528582,18.264221 13.291696,25.230495 11.500037,31.436501 z"
     style="fill:#404040;"/>
  </a>
 </g>
</svg>

<style type='text/css'>
<![CDATA[
[data-mouse-over-selected='false'] { opacity: 0.7; }
[data-mouse-over-selected='true']  { opacity: 1.0; }
]]>
</style>
<script type="application/ecmascript"><![CDATA[
document.addEventListener('DOMContentLoaded', (event) => {
  highlightEdges();
  highlightAdjacentNodes();
});
]]></script>
</svg>
