<?xml version="1.0" encoding="UTF-8" standalone="no"?>
<!DOCTYPE svg PUBLIC "-//W3C//DTD SVG 1.1//EN"
 "http://www.w3.org/Graphics/SVG/1.1/DTD/svg11.dtd">
<!-- Generated by graphviz version 2.43.0 (0)
 -->
<!-- Title: MayaFlux::Kakshya::PlotContainer::update_processing_state Pages: 1 -->
<svg width="467pt" height="264pt"
 viewBox="0.00 0.00 467.00 263.50" xmlns="http://www.w3.org/2000/svg" xmlns:xlink="http://www.w3.org/1999/xlink">
<g id="graph0" class="graph" transform="scale(1 1) rotate(0) translate(4 259.5)">
<title>MayaFlux::Kakshya::PlotContainer::update_processing_state</title>
<!-- Node1 -->
<g id="Node000001" class="node">
<title>Node1</title>
<g id="a_Node000001"><a xlink:title="Update the processing state of the container.">
<polygon fill="#999999" stroke="#666666" points="459,-137.5 337,-137.5 337,-96.5 459,-96.5 459,-137.5"/>
<text text-anchor="start" x="345" y="-125.5" font-family="Helvetica,sans-Serif" font-size="10.00">MayaFlux::Kakshya::</text>
<text text-anchor="start" x="345" y="-114.5" font-family="Helvetica,sans-Serif" font-size="10.00">PlotContainer::update</text>
<text text-anchor="middle" x="398" y="-103.5" font-family="Helvetica,sans-Serif" font-size="10.00">_processing_state</text>
</a>
</g>
</g>
<!-- Node2 -->
<g id="Node000002" class="node">
<title>Node2</title>
<g id="a_Node000002"><a xlink:href="classMayaFlux_1_1Kakshya_1_1PlotContainer_ac7030f8e52cf42f82f07a12da89f9bea.html#ac7030f8e52cf42f82f07a12da89f9bea" target="_top" xlink:title="Clear all data in the container.">
<polygon fill="white" stroke="#666666" points="297.5,-186 178.5,-186 178.5,-156 297.5,-156 297.5,-186"/>
<text text-anchor="start" x="186.5" y="-174" font-family="Helvetica,sans-Serif" font-size="10.00">MayaFlux::Kakshya::</text>
<text text-anchor="middle" x="238" y="-163" font-family="Helvetica,sans-Serif" font-size="10.00">PlotContainer::clear</text>
</a>
</g>
</g>
<!-- Node1&#45;&gt;Node2 -->
<g id="edge1_Node000001_Node000002" class="edge">
<title>Node1&#45;&gt;Node2</title>
<g id="a_edge1_Node000001_Node000002"><a xlink:title=" ">
<path fill="none" stroke="#63b8ff" d="M327.12,-140.88C312.23,-145.97 296.9,-151.21 283.29,-155.86"/>
<polygon fill="#63b8ff" stroke="#63b8ff" points="328.49,-144.12 336.82,-137.57 326.22,-137.49 328.49,-144.12"/>
</a>
</g>
</g>
<!-- Node3 -->
<g id="Node000003" class="node">
<title>Node3</title>
<g id="a_Node000003"><a xlink:href="classMayaFlux_1_1Kakshya_1_1PlotContainer_a24a62108828e0700c77eae7bb24b430f.html#a24a62108828e0700c77eae7bb24b430f" target="_top" xlink:title="Mark the container as ready or not ready for processing.">
<polygon fill="white" stroke="#666666" points="301,-137.5 175,-137.5 175,-96.5 301,-96.5 301,-137.5"/>
<text text-anchor="start" x="183" y="-125.5" font-family="Helvetica,sans-Serif" font-size="10.00">MayaFlux::Kakshya::</text>
<text text-anchor="start" x="183" y="-114.5" font-family="Helvetica,sans-Serif" font-size="10.00">PlotContainer::mark</text>
<text text-anchor="middle" x="238" y="-103.5" font-family="Helvetica,sans-Serif" font-size="10.00">_ready_for_processing</text>
</a>
</g>
</g>
<!-- Node1&#45;&gt;Node3 -->
<g id="edge2_Node000001_Node000003" class="edge">
<title>Node1&#45;&gt;Node3</title>
<g id="a_edge2_Node000001_Node000003"><a xlink:title=" ">
<path fill="none" stroke="#63b8ff" d="M326.56,-117C318.08,-117 309.47,-117 301.11,-117"/>
<polygon fill="#63b8ff" stroke="#63b8ff" points="326.82,-120.5 336.82,-117 326.82,-113.5 326.82,-120.5"/>
</a>
</g>
</g>
<!-- Node9 -->
<g id="Node000009" class="node">
<title>Node9</title>
<g id="a_Node000009"><a xlink:href="classMayaFlux_1_1Kakshya_1_1PlotContainer_aa931e0aa5ed93afec6f20a720c60ba16.html#aa931e0aa5ed93afec6f20a720c60ba16" target="_top" xlink:title="Process the container&#39;s data using the default processor.">
<polygon fill="white" stroke="#666666" points="301,-78.5 175,-78.5 175,-37.5 301,-37.5 301,-78.5"/>
<text text-anchor="start" x="183" y="-66.5" font-family="Helvetica,sans-Serif" font-size="10.00">MayaFlux::Kakshya::</text>
<text text-anchor="start" x="183" y="-55.5" font-family="Helvetica,sans-Serif" font-size="10.00">PlotContainer::process</text>
<text text-anchor="middle" x="238" y="-44.5" font-family="Helvetica,sans-Serif" font-size="10.00">_default</text>
</a>
</g>
</g>
<!-- Node1&#45;&gt;Node9 -->
<g id="edge8_Node000001_Node000009" class="edge">
<title>Node1&#45;&gt;Node9</title>
<g id="a_edge8_Node000001_Node000009"><a xlink:title=" ">
<path fill="none" stroke="#63b8ff" d="M332.16,-92.79C319.48,-88.05 306.29,-83.13 293.96,-78.52"/>
<polygon fill="#63b8ff" stroke="#63b8ff" points="331.15,-96.15 341.74,-96.36 333.6,-89.59 331.15,-96.15"/>
</a>
</g>
</g>
<!-- Node4 -->
<g id="Node000004" class="node">
<title>Node4</title>
<g id="a_Node000004"><a xlink:href="classMayaFlux_1_1Kakshya_1_1PlotContainer_a954668ecdca389715f92808c737b54c4.html#a954668ecdca389715f92808c737b54c4" target="_top" xlink:title="Bind a series to an AudioBuffer.">
<polygon fill="white" stroke="#666666" points="129,-255.5 10,-255.5 10,-214.5 129,-214.5 129,-255.5"/>
<text text-anchor="start" x="18" y="-243.5" font-family="Helvetica,sans-Serif" font-size="10.00">MayaFlux::Kakshya::</text>
<text text-anchor="start" x="18" y="-232.5" font-family="Helvetica,sans-Serif" font-size="10.00">PlotContainer::bind</text>
<text text-anchor="middle" x="69.5" y="-221.5" font-family="Helvetica,sans-Serif" font-size="10.00">_audio_buffer</text>
</a>
</g>
</g>
<!-- Node3&#45;&gt;Node4 -->
<g id="edge3_Node000003_Node000004" class="edge">
<title>Node3&#45;&gt;Node4</title>
<g id="a_edge3_Node000003_Node000004"><a xlink:title=" ">
<path fill="none" stroke="#63b8ff" d="M179.08,-143.55C177.67,-144.66 176.31,-145.81 175,-147 152.25,-167.64 162.26,-185.94 139,-206 135.38,-209.12 131.38,-211.95 127.18,-214.49"/>
<polygon fill="#63b8ff" stroke="#63b8ff" points="181.41,-146.19 187.57,-137.57 177.38,-140.47 181.41,-146.19"/>
</a>
</g>
</g>
<!-- Node5 -->
<g id="Node000005" class="node">
<title>Node5</title>
<g id="a_Node000005"><a xlink:href="classMayaFlux_1_1Kakshya_1_1PlotContainer_a2a0e2bc2b74cfaf0eac594b153cb4520.html#a2a0e2bc2b74cfaf0eac594b153cb4520" target="_top" xlink:title="Bind a series to a callable.">
<polygon fill="white" stroke="#666666" points="129,-196.5 10,-196.5 10,-155.5 129,-155.5 129,-196.5"/>
<text text-anchor="start" x="18" y="-184.5" font-family="Helvetica,sans-Serif" font-size="10.00">MayaFlux::Kakshya::</text>
<text text-anchor="start" x="18" y="-173.5" font-family="Helvetica,sans-Serif" font-size="10.00">PlotContainer::bind</text>
<text text-anchor="middle" x="69.5" y="-162.5" font-family="Helvetica,sans-Serif" font-size="10.00">_callable</text>
</a>
</g>
</g>
<!-- Node3&#45;&gt;Node5 -->
<g id="edge4_Node000003_Node000005" class="edge">
<title>Node3&#45;&gt;Node5</title>
<g id="a_edge4_Node000003_Node000005"><a xlink:title=" ">
<path fill="none" stroke="#63b8ff" d="M169.06,-141.07C155.58,-145.85 141.54,-150.83 128.42,-155.48"/>
<polygon fill="#63b8ff" stroke="#63b8ff" points="170.51,-144.27 178.77,-137.64 168.17,-137.68 170.51,-144.27"/>
</a>
</g>
</g>
<!-- Node6 -->
<g id="Node000006" class="node">
<title>Node6</title>
<g id="a_Node000006"><a xlink:href="classMayaFlux_1_1Kakshya_1_1PlotContainer_a15b81954ea2f11067cf123203b51e2d6.html#a15b81954ea2f11067cf123203b51e2d6" target="_top" xlink:title="Bind a series to a NodeNetwork with audio output.">
<polygon fill="white" stroke="#666666" points="129,-137.5 10,-137.5 10,-96.5 129,-96.5 129,-137.5"/>
<text text-anchor="start" x="18" y="-125.5" font-family="Helvetica,sans-Serif" font-size="10.00">MayaFlux::Kakshya::</text>
<text text-anchor="start" x="18" y="-114.5" font-family="Helvetica,sans-Serif" font-size="10.00">PlotContainer::bind</text>
<text text-anchor="middle" x="69.5" y="-103.5" font-family="Helvetica,sans-Serif" font-size="10.00">_network</text>
</a>
</g>
</g>
<!-- Node3&#45;&gt;Node6 -->
<g id="edge5_Node000003_Node000006" class="edge">
<title>Node3&#45;&gt;Node6</title>
<g id="a_edge5_Node000003_Node000006"><a xlink:title=" ">
<path fill="none" stroke="#63b8ff" d="M164.31,-117C152.57,-117 140.55,-117 129.19,-117"/>
<polygon fill="#63b8ff" stroke="#63b8ff" points="164.53,-120.5 174.53,-117 164.53,-113.5 164.53,-120.5"/>
</a>
</g>
</g>
<!-- Node7 -->
<g id="Node000007" class="node">
<title>Node7</title>
<g id="a_Node000007"><a xlink:href="classMayaFlux_1_1Kakshya_1_1PlotContainer_a7f1cac51388f7c375f6b5d0eefb60870.html#a7f1cac51388f7c375f6b5d0eefb60870" target="_top" xlink:title="Bind a series to a Node.">
<polygon fill="white" stroke="#666666" points="139,-78 0,-78 0,-48 139,-48 139,-78"/>
<text text-anchor="start" x="8" y="-66" font-family="Helvetica,sans-Serif" font-size="10.00">MayaFlux::Kakshya::</text>
<text text-anchor="middle" x="69.5" y="-55" font-family="Helvetica,sans-Serif" font-size="10.00">PlotContainer::bind_node</text>
</a>
</g>
</g>
<!-- Node3&#45;&gt;Node7 -->
<g id="edge6_Node000003_Node000007" class="edge">
<title>Node3&#45;&gt;Node7</title>
<g id="a_edge6_Node000003_Node000007"><a xlink:title=" ">
<path fill="none" stroke="#63b8ff" d="M164.56,-93.51C148.41,-88.27 131.7,-82.85 116.93,-78.06"/>
<polygon fill="#63b8ff" stroke="#63b8ff" points="163.94,-96.98 174.53,-96.74 166.1,-90.32 163.94,-96.98"/>
</a>
</g>
</g>
<!-- Node8 -->
<g id="Node000008" class="node">
<title>Node8</title>
<g id="a_Node000008"><a xlink:href="classMayaFlux_1_1Kakshya_1_1PlotContainer_ae3eb0422e37baf35f124e7d60942b354.html#ae3eb0422e37baf35f124e7d60942b354" target="_top" xlink:title="Push raw sample data into a series.">
<polygon fill="white" stroke="#666666" points="133,-30 6,-30 6,0 133,0 133,-30"/>
<text text-anchor="start" x="14" y="-18" font-family="Helvetica,sans-Serif" font-size="10.00">MayaFlux::Kakshya::</text>
<text text-anchor="middle" x="69.5" y="-7" font-family="Helvetica,sans-Serif" font-size="10.00">PlotContainer::set_raw</text>
</a>
</g>
</g>
<!-- Node3&#45;&gt;Node8 -->
<g id="edge7_Node000003_Node000008" class="edge">
<title>Node3&#45;&gt;Node8</title>
<g id="a_edge7_Node000003_Node000008"><a xlink:title=" ">
<path fill="none" stroke="#63b8ff" d="M178.55,-90.76C177.33,-89.86 176.15,-88.94 175,-88 154.11,-70.85 160.72,-55.08 139,-39 134.44,-35.63 129.37,-32.7 124.1,-30.16"/>
<polygon fill="#63b8ff" stroke="#63b8ff" points="176.65,-93.7 186.91,-96.34 180.54,-87.88 176.65,-93.7"/>
</a>
</g>
</g>
</g>
</svg>
