<?xml version="1.0" encoding="UTF-8" standalone="no"?>
<!DOCTYPE svg PUBLIC "-//W3C//DTD SVG 1.1//EN"
 "http://www.w3.org/Graphics/SVG/1.1/DTD/svg11.dtd">
<!-- Generated by graphviz version 2.43.0 (0)
 -->
<!-- Title: MayaFlux::Yantra::OperationHelper::setup_operation_buffer Pages: 1 -->
<svg width="928pt" height="508pt"
 viewBox="0.00 0.00 928.00 508.00" xmlns="http://www.w3.org/2000/svg" xmlns:xlink="http://www.w3.org/1999/xlink">
<g id="graph0" class="graph" transform="scale(1 1) rotate(0) translate(4 504)">
<title>MayaFlux::Yantra::OperationHelper::setup_operation_buffer</title>
<!-- Node1 -->
<g id="Node000001" class="node">
<title>Node1</title>
<g id="a_Node000001"><a xlink:title="Setup operation buffer from Datum or ComputeData type.">
<polygon fill="#999999" stroke="#666666" points="920,-270 753,-270 753,-240 920,-240 920,-270"/>
<text text-anchor="start" x="761" y="-258" font-family="Helvetica,sans-Serif" font-size="10.00">MayaFlux::Yantra::Operation</text>
<text text-anchor="middle" x="836.5" y="-247" font-family="Helvetica,sans-Serif" font-size="10.00">Helper::setup_operation_buffer</text>
</a>
</g>
</g>
<!-- Node2 -->
<g id="Node000002" class="node">
<title>Node2</title>
<g id="a_Node000002"><a xlink:href="classMayaFlux_1_1Yantra_1_1StandardSorter_ae3e20d978ec259004392586103feac14.html#ae3e20d978ec259004392586103feac14" target="_top" xlink:title="Handle type conversion scenarios.">
<polygon fill="white" stroke="#666666" points="526,-500 376,-500 376,-470 526,-470 526,-500"/>
<text text-anchor="start" x="384" y="-488" font-family="Helvetica,sans-Serif" font-size="10.00">MayaFlux::Yantra::Standard</text>
<text text-anchor="middle" x="451" y="-477" font-family="Helvetica,sans-Serif" font-size="10.00">Sorter::convert_and_sort</text>
</a>
</g>
</g>
<!-- Node1&#45;&gt;Node2 -->
<g id="edge1_Node000001_Node000002" class="edge">
<title>Node1&#45;&gt;Node2</title>
<g id="a_edge1_Node000001_Node000002"><a xlink:title=" ">
<path fill="none" stroke="#63b8ff" d="M829.24,-280.08C816.56,-325.03 783.26,-418.57 717,-461 660.49,-497.18 582.8,-500.03 526.15,-495.73"/>
<polygon fill="#63b8ff" stroke="#63b8ff" points="832.66,-280.83 831.9,-270.26 825.91,-279 832.66,-280.83"/>
</a>
</g>
</g>
<!-- Node5 -->
<g id="Node000005" class="node">
<title>Node5</title>
<g id="a_Node000005"><a xlink:href="namespaceMayaFlux_1_1Yantra_a36d84e2b85966327017d25ebdca20625.html#a36d84e2b85966327017d25ebdca20625" target="_top" xlink:title="Universal sort function &#45; returns sorted copy.">
<polygon fill="white" stroke="#666666" points="705,-452 574,-452 574,-422 705,-422 705,-452"/>
<text text-anchor="start" x="582" y="-440" font-family="Helvetica,sans-Serif" font-size="10.00">MayaFlux::Yantra::sort</text>
<text text-anchor="middle" x="639.5" y="-429" font-family="Helvetica,sans-Serif" font-size="10.00">_compute_data_extract</text>
</a>
</g>
</g>
<!-- Node1&#45;&gt;Node5 -->
<g id="edge4_Node000001_Node000005" class="edge">
<title>Node1&#45;&gt;Node5</title>
<g id="a_edge4_Node000001_Node000005"><a xlink:title=" ">
<path fill="none" stroke="#63b8ff" d="M823.71,-279.04C805.53,-313.68 767.41,-377.34 717,-413 712.11,-416.46 706.71,-419.43 701.1,-421.98"/>
<polygon fill="#63b8ff" stroke="#63b8ff" points="826.85,-280.59 828.31,-270.09 820.63,-277.39 826.85,-280.59"/>
</a>
</g>
</g>
<!-- Node6 -->
<g id="Node000006" class="node">
<title>Node6</title>
<g id="a_Node000006"><a xlink:href="namespaceMayaFlux_1_1Yantra_aefd8d29775269d3755674992909e379f.html#aefd8d29775269d3755674992909e379f" target="_top" xlink:title="Universal sort function &#45; returns sorted copy.">
<polygon fill="white" stroke="#666666" points="705,-404 574,-404 574,-374 705,-374 705,-404"/>
<text text-anchor="start" x="582" y="-392" font-family="Helvetica,sans-Serif" font-size="10.00">MayaFlux::Yantra::sort</text>
<text text-anchor="middle" x="639.5" y="-381" font-family="Helvetica,sans-Serif" font-size="10.00">_compute_data_extract</text>
</a>
</g>
</g>
<!-- Node1&#45;&gt;Node6 -->
<g id="edge5_Node000001_Node000006" class="edge">
<title>Node1&#45;&gt;Node6</title>
<g id="a_edge5_Node000001_Node000006"><a xlink:title=" ">
<path fill="none" stroke="#63b8ff" d="M814.97,-277.49C792.72,-300.76 755.25,-336.88 717,-360 708.13,-365.36 698.09,-370.03 688.28,-373.95"/>
<polygon fill="#63b8ff" stroke="#63b8ff" points="817.6,-279.81 821.91,-270.13 812.5,-275 817.6,-279.81"/>
</a>
</g>
</g>
<!-- Node11 -->
<g id="Node000011" class="node">
<title>Node11</title>
<g id="a_Node000011"><a xlink:href="classMayaFlux_1_1Yantra_1_1StandardSorter_ab0cab009ecf55edb7831341dfafb4dbd.html#ab0cab009ecf55edb7831341dfafb4dbd" target="_top" xlink:title="Copy&#45;based sorting (preserves input)">
<polygon fill="white" stroke="#666666" points="526,-289 376,-289 376,-259 526,-259 526,-289"/>
<text text-anchor="start" x="384" y="-277" font-family="Helvetica,sans-Serif" font-size="10.00">MayaFlux::Yantra::Standard</text>
<text text-anchor="middle" x="451" y="-266" font-family="Helvetica,sans-Serif" font-size="10.00">Sorter::sort_copy</text>
</a>
</g>
</g>
<!-- Node1&#45;&gt;Node11 -->
<g id="edge12_Node000001_Node000011" class="edge">
<title>Node1&#45;&gt;Node11</title>
<g id="a_edge12_Node000001_Node000011"><a xlink:title=" ">
<path fill="none" stroke="#63b8ff" d="M809.6,-276.54C786.82,-293.99 751.94,-317.22 717,-327 650.66,-345.57 629.16,-342.34 562,-327 530.17,-319.73 496.83,-302.03 475.32,-289.08"/>
<polygon fill="#63b8ff" stroke="#63b8ff" points="812,-279.11 817.71,-270.18 807.68,-273.6 812,-279.11"/>
</a>
</g>
</g>
<!-- Node15 -->
<g id="Node000015" class="node">
<title>Node15</title>
<g id="a_Node000015"><a xlink:href="namespaceMayaFlux_1_1Yantra_ad8c64d8ffad815590c4e76d03081b92b.html#ad8c64d8ffad815590c4e76d03081b92b" target="_top" xlink:title="Energy&#45;based transformation using existing EnergyAnalyzer (OUT&#45;OF&#45;PLACE)">
<polygon fill="white" stroke="#666666" points="717,-318 562,-318 562,-288 717,-288 717,-318"/>
<text text-anchor="start" x="570" y="-306" font-family="Helvetica,sans-Serif" font-size="10.00">MayaFlux::Yantra::transform</text>
<text text-anchor="middle" x="639.5" y="-295" font-family="Helvetica,sans-Serif" font-size="10.00">_by_energy</text>
</a>
</g>
</g>
<!-- Node1&#45;&gt;Node15 -->
<g id="edge20_Node000001_Node000015" class="edge">
<title>Node1&#45;&gt;Node15</title>
<g id="a_edge20_Node000001_Node000015"><a xlink:title=" ">
<path fill="none" stroke="#63b8ff" d="M764.36,-272.51C743.73,-277.59 721.4,-283.09 701.45,-288"/>
<polygon fill="#63b8ff" stroke="#63b8ff" points="765.46,-275.84 774.34,-270.06 763.79,-269.05 765.46,-275.84"/>
</a>
</g>
</g>
<!-- Node16 -->
<g id="Node000016" class="node">
<title>Node16</title>
<g id="a_Node000016"><a xlink:href="namespaceMayaFlux_1_1Yantra_ae5ef5ea9a3dbd393bd6a31ded62b023b.html#ae5ef5ea9a3dbd393bd6a31ded62b023b" target="_top" xlink:title="Channel operations using C++20 ranges (OUT&#45;OF&#45;PLACE)">
<polygon fill="white" stroke="#666666" points="717,-270 562,-270 562,-240 717,-240 717,-270"/>
<text text-anchor="start" x="570" y="-258" font-family="Helvetica,sans-Serif" font-size="10.00">MayaFlux::Yantra::transform</text>
<text text-anchor="middle" x="639.5" y="-247" font-family="Helvetica,sans-Serif" font-size="10.00">_channel_operation</text>
</a>
</g>
</g>
<!-- Node1&#45;&gt;Node16 -->
<g id="edge21_Node000001_Node000016" class="edge">
<title>Node1&#45;&gt;Node16</title>
<g id="a_edge21_Node000001_Node000016"><a xlink:title=" ">
<path fill="none" stroke="#63b8ff" d="M742.76,-255C734.18,-255 725.54,-255 717.13,-255"/>
<polygon fill="#63b8ff" stroke="#63b8ff" points="742.8,-258.5 752.8,-255 742.8,-251.5 742.8,-258.5"/>
</a>
</g>
</g>
<!-- Node17 -->
<g id="Node000017" class="node">
<title>Node17</title>
<g id="a_Node000017"><a xlink:href="namespaceMayaFlux_1_1Yantra_a6484597fe08b733e68371d05e1f9cb71.html#a6484597fe08b733e68371d05e1f9cb71" target="_top" xlink:title="Cross&#45;fade between regions with smooth transitions (OUT&#45;OF&#45;PLACE)">
<polygon fill="white" stroke="#666666" points="717,-222 562,-222 562,-192 717,-192 717,-222"/>
<text text-anchor="start" x="570" y="-210" font-family="Helvetica,sans-Serif" font-size="10.00">MayaFlux::Yantra::transform</text>
<text text-anchor="middle" x="639.5" y="-199" font-family="Helvetica,sans-Serif" font-size="10.00">_crossfade_regions</text>
</a>
</g>
</g>
<!-- Node1&#45;&gt;Node17 -->
<g id="edge22_Node000001_Node000017" class="edge">
<title>Node1&#45;&gt;Node17</title>
<g id="a_edge22_Node000001_Node000017"><a xlink:title=" ">
<path fill="none" stroke="#63b8ff" d="M764.36,-237.49C743.73,-232.41 721.4,-226.91 701.45,-222"/>
<polygon fill="#63b8ff" stroke="#63b8ff" points="763.79,-240.95 774.34,-239.94 765.46,-234.16 763.79,-240.95"/>
</a>
</g>
</g>
<!-- Node18 -->
<g id="Node000018" class="node">
<title>Node18</title>
<g id="a_Node000018"><a xlink:href="namespaceMayaFlux_1_1Yantra_a0967ddc4a7f1090abb647f978810c65a.html#a0967ddc4a7f1090abb647f978810c65a" target="_top" xlink:title="Matrix transformation using existing infrastructure (OUT&#45;OF&#45;PLACE)">
<polygon fill="white" stroke="#666666" points="717,-174 562,-174 562,-144 717,-144 717,-174"/>
<text text-anchor="start" x="570" y="-162" font-family="Helvetica,sans-Serif" font-size="10.00">MayaFlux::Yantra::transform</text>
<text text-anchor="middle" x="639.5" y="-151" font-family="Helvetica,sans-Serif" font-size="10.00">_matrix</text>
</a>
</g>
</g>
<!-- Node1&#45;&gt;Node18 -->
<g id="edge23_Node000001_Node000018" class="edge">
<title>Node1&#45;&gt;Node18</title>
<g id="a_edge23_Node000001_Node000018"><a xlink:title=" ">
<path fill="none" stroke="#63b8ff" d="M805.7,-234.1C782.38,-218.44 748.7,-197.35 717,-183 709.77,-179.73 701.97,-176.72 694.21,-174.03"/>
<polygon fill="#63b8ff" stroke="#63b8ff" points="803.86,-237.08 814.1,-239.8 807.79,-231.29 803.86,-237.08"/>
</a>
</g>
</g>
<!-- Node19 -->
<g id="Node000019" class="node">
<title>Node19</title>
<g id="a_Node000019"><a xlink:href="namespaceMayaFlux_1_1Yantra_a0671817a1768c1c6f02048c930ff16a0.html#a0671817a1768c1c6f02048c930ff16a0" target="_top" xlink:title="Multi&#45;channel matrix transformation with error handling (OUT&#45;OF&#45;PLACE)">
<polygon fill="white" stroke="#666666" points="717,-126 562,-126 562,-96 717,-96 717,-126"/>
<text text-anchor="start" x="570" y="-114" font-family="Helvetica,sans-Serif" font-size="10.00">MayaFlux::Yantra::transform</text>
<text text-anchor="middle" x="639.5" y="-103" font-family="Helvetica,sans-Serif" font-size="10.00">_matrix_multichannel</text>
</a>
</g>
</g>
<!-- Node1&#45;&gt;Node19 -->
<g id="edge24_Node000001_Node000019" class="edge">
<title>Node1&#45;&gt;Node19</title>
<g id="a_edge24_Node000001_Node000019"><a xlink:title=" ">
<path fill="none" stroke="#63b8ff" d="M818.28,-231.65C797.24,-204.68 759.17,-160.73 717,-135 711.42,-131.59 705.3,-128.63 699.04,-126.06"/>
<polygon fill="#63b8ff" stroke="#63b8ff" points="815.64,-233.95 824.5,-239.76 821.2,-229.7 815.64,-233.95"/>
</a>
</g>
</g>
<!-- Node20 -->
<g id="Node000020" class="node">
<title>Node20</title>
<g id="a_Node000020"><a xlink:href="namespaceMayaFlux_1_1Yantra_a1c3431c18eae2938e19ad5bb781953ee.html#a1c3431c18eae2938e19ad5bb781953ee" target="_top" xlink:title="Statistical outlier transformation using existing StatisticalAnalyzer (OUT&#45;OF&#45;PLACE)">
<polygon fill="white" stroke="#666666" points="717,-78 562,-78 562,-48 717,-48 717,-78"/>
<text text-anchor="start" x="570" y="-66" font-family="Helvetica,sans-Serif" font-size="10.00">MayaFlux::Yantra::transform</text>
<text text-anchor="middle" x="639.5" y="-55" font-family="Helvetica,sans-Serif" font-size="10.00">_outliers</text>
</a>
</g>
</g>
<!-- Node1&#45;&gt;Node20 -->
<g id="edge25_Node000001_Node000020" class="edge">
<title>Node1&#45;&gt;Node20</title>
<g id="a_edge25_Node000001_Node000020"><a xlink:title=" ">
<path fill="none" stroke="#63b8ff" d="M824.65,-230.54C807.19,-193.97 769.45,-125.26 717,-87 712.28,-83.55 707.04,-80.59 701.6,-78.05"/>
<polygon fill="#63b8ff" stroke="#63b8ff" points="821.63,-232.36 829.03,-239.95 827.98,-229.41 821.63,-232.36"/>
</a>
</g>
</g>
<!-- Node21 -->
<g id="Node000021" class="node">
<title>Node21</title>
<g id="a_Node000021"><a xlink:href="namespaceMayaFlux_1_1Yantra_ae2cb746881bbc621ce72b28f453a55c7.html#ae2cb746881bbc621ce72b28f453a55c7" target="_top" xlink:title="Region&#45;selective transformation using container&#45;based extraction (OUT&#45;OF&#45;PLACE)">
<polygon fill="white" stroke="#666666" points="717,-30 562,-30 562,0 717,0 717,-30"/>
<text text-anchor="start" x="570" y="-18" font-family="Helvetica,sans-Serif" font-size="10.00">MayaFlux::Yantra::transform</text>
<text text-anchor="middle" x="639.5" y="-7" font-family="Helvetica,sans-Serif" font-size="10.00">_regions</text>
</a>
</g>
</g>
<!-- Node1&#45;&gt;Node21 -->
<g id="edge26_Node000001_Node000021" class="edge">
<title>Node1&#45;&gt;Node21</title>
<g id="a_edge26_Node000001_Node000021"><a xlink:title=" ">
<path fill="none" stroke="#63b8ff" d="M828.62,-230.11C814.95,-185.25 780.09,-90.7 717,-39 712.8,-35.56 708.11,-32.61 703.16,-30.08"/>
<polygon fill="#63b8ff" stroke="#63b8ff" points="825.32,-231.29 831.5,-239.89 832.03,-229.31 825.32,-231.29"/>
</a>
</g>
</g>
<!-- Node3 -->
<g id="Node000003" class="node">
<title>Node3</title>
<g id="a_Node000003"><a xlink:href="classMayaFlux_1_1Yantra_1_1StandardSorter_a2be279c3839f376f80f50dc50c325d7c.html#a2be279c3839f376f80f50dc50c325d7c" target="_top" xlink:title="Partial sorting (top&#45;K elements)">
<polygon fill="white" stroke="#666666" points="340,-423 190,-423 190,-393 340,-393 340,-423"/>
<text text-anchor="start" x="198" y="-411" font-family="Helvetica,sans-Serif" font-size="10.00">MayaFlux::Yantra::Standard</text>
<text text-anchor="middle" x="265" y="-400" font-family="Helvetica,sans-Serif" font-size="10.00">Sorter::sort_partial</text>
</a>
</g>
</g>
<!-- Node2&#45;&gt;Node3 -->
<g id="edge2_Node000002_Node000003" class="edge">
<title>Node2&#45;&gt;Node3</title>
<g id="a_edge2_Node000002_Node000003"><a xlink:title=" ">
<path fill="none" stroke="#63b8ff" d="M390.68,-466.55C385.69,-464.76 380.74,-462.9 376,-461 347.67,-449.64 316.4,-434.29 294.47,-423.03"/>
<polygon fill="#63b8ff" stroke="#63b8ff" points="389.71,-469.92 400.31,-469.91 392.02,-463.31 389.71,-469.92"/>
</a>
</g>
</g>
<!-- Node4 -->
<g id="Node000004" class="node">
<title>Node4</title>
<g id="a_Node000004"><a xlink:href="classMayaFlux_1_1Yantra_1_1StandardSorter_a6413f024a99f05c81b4f461ed4e4d7ee.html#a6413f024a99f05c81b4f461ed4e4d7ee" target="_top" xlink:title="Main sorting implementation with type dispatch.">
<polygon fill="white" stroke="#666666" points="154,-310 0,-310 0,-280 154,-280 154,-310"/>
<text text-anchor="start" x="8" y="-298" font-family="Helvetica,sans-Serif" font-size="10.00">MayaFlux::Yantra::Standard</text>
<text text-anchor="middle" x="77" y="-287" font-family="Helvetica,sans-Serif" font-size="10.00">Sorter::sort_implementation</text>
</a>
</g>
</g>
<!-- Node3&#45;&gt;Node4 -->
<g id="edge3_Node000003_Node000004" class="edge">
<title>Node3&#45;&gt;Node4</title>
<g id="a_edge3_Node000003_Node000004"><a xlink:title=" ">
<path fill="none" stroke="#63b8ff" d="M200.25,-388.99C196.73,-387.43 193.29,-385.76 190,-384 151.92,-363.57 113.87,-329.79 93.39,-310.25"/>
<polygon fill="#63b8ff" stroke="#63b8ff" points="199.13,-392.31 209.71,-392.9 201.8,-385.84 199.13,-392.31"/>
</a>
</g>
</g>
<!-- Node7 -->
<g id="Node000007" class="node">
<title>Node7</title>
<g id="a_Node000007"><a xlink:href="namespaceMayaFlux_1_1Yantra_a3deb7abab695c99ec7389cc32ef73abc.html#a3deb7abab695c99ec7389cc32ef73abc" target="_top" xlink:title="Convenience function with default algorithm.">
<polygon fill="white" stroke="#666666" points="513.5,-452 388.5,-452 388.5,-422 513.5,-422 513.5,-452"/>
<text text-anchor="start" x="396.5" y="-440" font-family="Helvetica,sans-Serif" font-size="10.00">MayaFlux::Yantra::sort</text>
<text text-anchor="middle" x="451" y="-429" font-family="Helvetica,sans-Serif" font-size="10.00">_compute_data</text>
</a>
</g>
</g>
<!-- Node6&#45;&gt;Node7 -->
<g id="edge6_Node000006_Node000007" class="edge">
<title>Node6&#45;&gt;Node7</title>
<g id="a_edge6_Node000006_Node000007"><a xlink:title=" ">
<path fill="none" stroke="#63b8ff" d="M570.19,-406.58C550.54,-411.64 529.28,-417.11 510.29,-422"/>
<polygon fill="#63b8ff" stroke="#63b8ff" points="571.19,-409.94 580,-404.06 569.45,-403.16 571.19,-409.94"/>
</a>
</g>
</g>
<!-- Node8 -->
<g id="Node000008" class="node">
<title>Node8</title>
<g id="a_Node000008"><a xlink:href="classMayaFlux_1_1Yantra_1_1StandardSorter_a4354ccfd82da15a220f84dc53a5676e0.html#a4354ccfd82da15a220f84dc53a5676e0" target="_top" xlink:title="Sort data with copy semantics.">
<polygon fill="white" stroke="#666666" points="526,-356 376,-356 376,-326 526,-326 526,-356"/>
<text text-anchor="start" x="384" y="-344" font-family="Helvetica,sans-Serif" font-size="10.00">MayaFlux::Yantra::Standard</text>
<text text-anchor="middle" x="451" y="-333" font-family="Helvetica,sans-Serif" font-size="10.00">Sorter::sort_data_copy</text>
</a>
</g>
</g>
<!-- Node6&#45;&gt;Node8 -->
<g id="edge7_Node000006_Node000008" class="edge">
<title>Node6&#45;&gt;Node8</title>
<g id="a_edge7_Node000006_Node000008"><a xlink:title=" ">
<path fill="none" stroke="#63b8ff" d="M570.19,-371.42C550.54,-366.36 529.28,-360.89 510.29,-356"/>
<polygon fill="#63b8ff" stroke="#63b8ff" points="569.45,-374.84 580,-373.94 571.19,-368.06 569.45,-374.84"/>
</a>
</g>
</g>
<!-- Node10 -->
<g id="Node000010" class="node">
<title>Node10</title>
<g id="a_Node000010"><a xlink:href="classMayaFlux_1_1Yantra_1_1StandardSorter_a1ec28359434d38d74bfd4a6e9cd0fe49.html#a1ec28359434d38d74bfd4a6e9cd0fe49" target="_top" xlink:title="Partial sorting implementation.">
<polygon fill="white" stroke="#666666" points="526,-404 376,-404 376,-374 526,-374 526,-404"/>
<text text-anchor="start" x="384" y="-392" font-family="Helvetica,sans-Serif" font-size="10.00">MayaFlux::Yantra::Standard</text>
<text text-anchor="middle" x="451" y="-381" font-family="Helvetica,sans-Serif" font-size="10.00">Sorter::sort_data_partial</text>
</a>
</g>
</g>
<!-- Node6&#45;&gt;Node10 -->
<g id="edge10_Node000006_Node000010" class="edge">
<title>Node6&#45;&gt;Node10</title>
<g id="a_edge10_Node000006_Node000010"><a xlink:title=" ">
<path fill="none" stroke="#63b8ff" d="M563.57,-389C551.25,-389 538.49,-389 526.18,-389"/>
<polygon fill="#63b8ff" stroke="#63b8ff" points="563.79,-392.5 573.79,-389 563.79,-385.5 563.79,-392.5"/>
</a>
</g>
</g>
<!-- Node9 -->
<g id="Node000009" class="node">
<title>Node9</title>
<g id="a_Node000009"><a xlink:href="classMayaFlux_1_1Yantra_1_1StandardSorter_a23b5d6fc1ca885f8971ee0cf3b30b8fb.html#a23b5d6fc1ca885f8971ee0cf3b30b8fb" target="_top" xlink:title="Chunked sorting implementation.">
<polygon fill="white" stroke="#666666" points="340,-375 190,-375 190,-345 340,-345 340,-375"/>
<text text-anchor="start" x="198" y="-363" font-family="Helvetica,sans-Serif" font-size="10.00">MayaFlux::Yantra::Standard</text>
<text text-anchor="middle" x="265" y="-352" font-family="Helvetica,sans-Serif" font-size="10.00">Sorter::sort_chunked</text>
</a>
</g>
</g>
<!-- Node8&#45;&gt;Node9 -->
<g id="edge8_Node000008_Node000009" class="edge">
<title>Node8&#45;&gt;Node9</title>
<g id="a_edge8_Node000008_Node000009"><a xlink:title=" ">
<path fill="none" stroke="#63b8ff" d="M365.93,-349.68C357.35,-350.57 348.66,-351.46 340.19,-352.34"/>
<polygon fill="#63b8ff" stroke="#63b8ff" points="366.37,-353.15 375.96,-348.65 365.65,-346.19 366.37,-353.15"/>
</a>
</g>
</g>
<!-- Node9&#45;&gt;Node4 -->
<g id="edge9_Node000009_Node000004" class="edge">
<title>Node9&#45;&gt;Node4</title>
<g id="a_edge9_Node000009_Node000004"><a xlink:title=" ">
<path fill="none" stroke="#63b8ff" d="M211.08,-341.51C182.65,-331.57 148.03,-319.47 121.23,-310.11"/>
<polygon fill="#63b8ff" stroke="#63b8ff" points="210.27,-344.93 220.86,-344.92 212.57,-338.32 210.27,-344.93"/>
</a>
</g>
</g>
<!-- Node10&#45;&gt;Node3 -->
<g id="edge11_Node000010_Node000003" class="edge">
<title>Node10&#45;&gt;Node3</title>
<g id="a_edge11_Node000010_Node000003"><a xlink:title=" ">
<path fill="none" stroke="#63b8ff" d="M365.93,-397.68C357.35,-398.57 348.66,-399.46 340.19,-400.34"/>
<polygon fill="#63b8ff" stroke="#63b8ff" points="366.37,-401.15 375.96,-396.65 365.65,-394.19 366.37,-401.15"/>
</a>
</g>
</g>
<!-- Node11&#45;&gt;Node4 -->
<g id="edge13_Node000011_Node000004" class="edge">
<title>Node11&#45;&gt;Node4</title>
<g id="a_edge13_Node000011_Node000004"><a xlink:title=" ">
<path fill="none" stroke="#63b8ff" d="M382.2,-291.18C368.33,-294.02 353.76,-296.52 340,-298 277.7,-304.72 206.59,-303.34 154.18,-300.63"/>
<polygon fill="#63b8ff" stroke="#63b8ff" points="383.1,-294.56 392.15,-289.06 381.64,-287.72 383.1,-294.56"/>
</a>
</g>
</g>
<!-- Node12 -->
<g id="Node000012" class="node">
<title>Node12</title>
<g id="a_Node000012"><a xlink:href="classMayaFlux_1_1Yantra_1_1StandardSorter_a6b81e2c2a8916cee453f4ce66320a9d7.html#a6b81e2c2a8916cee453f4ce66320a9d7" target="_top" xlink:title="In&#45;place sorting (modifies input)">
<polygon fill="white" stroke="#666666" points="340,-289 190,-289 190,-259 340,-259 340,-289"/>
<text text-anchor="start" x="198" y="-277" font-family="Helvetica,sans-Serif" font-size="10.00">MayaFlux::Yantra::Standard</text>
<text text-anchor="middle" x="265" y="-266" font-family="Helvetica,sans-Serif" font-size="10.00">Sorter::sort_in_place</text>
</a>
</g>
</g>
<!-- Node11&#45;&gt;Node12 -->
<g id="edge14_Node000011_Node000012" class="edge">
<title>Node11&#45;&gt;Node12</title>
<g id="a_edge14_Node000011_Node000012"><a xlink:title=" ">
<path fill="none" stroke="#63b8ff" d="M365.93,-274C357.35,-274 348.66,-274 340.19,-274"/>
<polygon fill="#63b8ff" stroke="#63b8ff" points="365.96,-277.5 375.96,-274 365.96,-270.5 365.96,-277.5"/>
</a>
</g>
</g>
<!-- Node13 -->
<g id="Node000013" class="node">
<title>Node13</title>
<g id="a_Node000013"><a xlink:href="classMayaFlux_1_1Yantra_1_1StandardSorter_a1187d263424d60d6834853aa7230e081.html#a1187d263424d60d6834853aa7230e081" target="_top" xlink:title="Generate sort indices only.">
<polygon fill="white" stroke="#666666" points="340,-241 190,-241 190,-211 340,-211 340,-241"/>
<text text-anchor="start" x="198" y="-229" font-family="Helvetica,sans-Serif" font-size="10.00">MayaFlux::Yantra::Standard</text>
<text text-anchor="middle" x="265" y="-218" font-family="Helvetica,sans-Serif" font-size="10.00">Sorter::sort_indices_only</text>
</a>
</g>
</g>
<!-- Node11&#45;&gt;Node13 -->
<g id="edge16_Node000011_Node000013" class="edge">
<title>Node11&#45;&gt;Node13</title>
<g id="a_edge16_Node000011_Node000013"><a xlink:title=" ">
<path fill="none" stroke="#63b8ff" d="M382.61,-256.42C363.22,-251.36 342.25,-245.89 323.51,-241"/>
<polygon fill="#63b8ff" stroke="#63b8ff" points="381.73,-259.81 392.29,-258.94 383.49,-253.03 381.73,-259.81"/>
</a>
</g>
</g>
<!-- Node14 -->
<g id="Node000014" class="node">
<title>Node14</title>
<g id="a_Node000014"><a xlink:href="classMayaFlux_1_1Yantra_1_1StandardSorter_a0e2d9acadf8b88678d56a9bbf134c88f.html#a0e2d9acadf8b88678d56a9bbf134c88f" target="_top" xlink:title="Parallel sorting.">
<polygon fill="white" stroke="#666666" points="340,-193 190,-193 190,-163 340,-163 340,-193"/>
<text text-anchor="start" x="198" y="-181" font-family="Helvetica,sans-Serif" font-size="10.00">MayaFlux::Yantra::Standard</text>
<text text-anchor="middle" x="265" y="-170" font-family="Helvetica,sans-Serif" font-size="10.00">Sorter::sort_parallel</text>
</a>
</g>
</g>
<!-- Node11&#45;&gt;Node14 -->
<g id="edge18_Node000011_Node000014" class="edge">
<title>Node11&#45;&gt;Node14</title>
<g id="a_edge18_Node000011_Node000014"><a xlink:title=" ">
<path fill="none" stroke="#63b8ff" d="M421.95,-252.62C400.42,-236.99 369.49,-216.12 340,-202 333.18,-198.73 325.8,-195.75 318.44,-193.08"/>
<polygon fill="#63b8ff" stroke="#63b8ff" points="420.15,-255.65 430.28,-258.76 424.3,-250.01 420.15,-255.65"/>
</a>
</g>
</g>
<!-- Node12&#45;&gt;Node4 -->
<g id="edge15_Node000012_Node000004" class="edge">
<title>Node12&#45;&gt;Node4</title>
<g id="a_edge15_Node000012_Node000004"><a xlink:title=" ">
<path fill="none" stroke="#63b8ff" d="M179.96,-283.49C171.38,-284.46 162.71,-285.44 154.23,-286.39"/>
<polygon fill="#63b8ff" stroke="#63b8ff" points="180.41,-286.96 189.95,-282.36 179.62,-280 180.41,-286.96"/>
</a>
</g>
</g>
<!-- Node13&#45;&gt;Node4 -->
<g id="edge17_Node000013_Node000004" class="edge">
<title>Node13&#45;&gt;Node4</title>
<g id="a_edge17_Node000013_Node000004"><a xlink:title=" ">
<path fill="none" stroke="#63b8ff" d="M206.2,-244.32C200.71,-246.19 195.24,-248.1 190,-250 164.19,-259.36 135.47,-270.92 113.57,-279.98"/>
<polygon fill="#63b8ff" stroke="#63b8ff" points="207.7,-247.51 216.07,-241.02 205.47,-240.88 207.7,-247.51"/>
</a>
</g>
</g>
<!-- Node14&#45;&gt;Node4 -->
<g id="edge19_Node000014_Node000004" class="edge">
<title>Node14&#45;&gt;Node4</title>
<g id="a_edge19_Node000014_Node000004"><a xlink:title=" ">
<path fill="none" stroke="#63b8ff" d="M200,-197.02C196.56,-198.57 193.21,-200.24 190,-202 151.03,-223.45 112.71,-259.37 92.56,-279.72"/>
<polygon fill="#63b8ff" stroke="#63b8ff" points="201.39,-200.23 209.25,-193.13 198.67,-193.78 201.39,-200.23"/>
</a>
</g>
</g>
</g>
</svg>
