<?xml version="1.0" encoding="UTF-8" standalone="no"?>
<!DOCTYPE svg PUBLIC "-//W3C//DTD SVG 1.1//EN"
 "http://www.w3.org/Graphics/SVG/1.1/DTD/svg11.dtd">
<!-- Generated by graphviz version 2.43.0 (0)
 -->
<!-- Title: MayaFlux::Kakshya::VideoStreamContainer::lock Pages: 1 -->
<!--zoomable 820 -->

<svg id="main" version="1.1" xmlns="http://www.w3.org/2000/svg" xmlns:xlink="http://www.w3.org/1999/xlink" xml:space="preserve" onload="init(evt)">
<style type="text/css"><![CDATA[
.node, .edge {opacity: 0.7;}
.node.selected, .edge.selected {opacity: 1;}
.edge:hover path { stroke: red; }
.edge:hover polygon { stroke: red; fill: red; }
]]></style>

<defs>
  <circle id="rim" cx="0" cy="0" r="7"/>
  <circle id="rim2" cx="0" cy="0" r="3.5"/>
  <g id="zoomPlus">
    <use xlink:href="#rim" fill="#404040"><set attributeName="fill" to="#808080" begin="zoomplus.mouseover" end="zoomplus.mouseout"/></use>
    <path d="M-4,0h8M0,-4v8" fill="none" stroke="white" stroke-width="1.5" pointer-events="none"/>
  </g>
  <g id="zoomMin">
    <use xlink:href="#rim" fill="#404040"><set attributeName="fill" to="#808080" begin="zoomminus.mouseover" end="zoomminus.mouseout"/></use>
    <path d="M-4,0h8" fill="none" stroke="white" stroke-width="1.5" pointer-events="none"/>
  </g>
  <g id="arrowUp" transform="translate(30 24)">
    <use xlink:href="#rim"/>
    <path pointer-events="none" fill="none" stroke="white" stroke-width="1.5" d="M0,-3.0v7 M-2.5,-0.5L0,-3.0L2.5,-0.5"/>
  </g>
  <g id="arrowRight" transform="rotate(90) translate(36 -43)">
    <use xlink:href="#rim"/>
    <path pointer-events="none" fill="none" stroke="white" stroke-width="1.5" d="M0,-3.0v7 M-2.5,-0.5L0,-3.0L2.5,-0.5"/>
  </g>
  <g id="arrowDown" transform="rotate(180) translate(-30 -48)">
    <use xlink:href="#rim"/>
    <path pointer-events="none" fill="none" stroke="white" stroke-width="1.5" d="M0,-3.0v7 M-2.5,-0.5L0,-3.0L2.5,-0.5"/>
  </g>
  <g id="arrowLeft" transform="rotate(270) translate(-36 17)">
    <use xlink:href="#rim"/>
    <path pointer-events="none" fill="none" stroke="white" stroke-width="1.5" d="M0,-3.0v7 M-2.5,-0.5L0,-3.0L2.5,-0.5"/>
  </g>
  <g id="resetDef">
    <use xlink:href="#rim2" fill="#404040"><set attributeName="fill" to="#808080" begin="reset.mouseover" end="reset.mouseout"/></use>
  </g>
</defs>
<script type="application/ecmascript">
var viewWidth = 896;
var viewHeight = 820;
var sectionId = 'dynsection-0';
</script>
<script type="application/ecmascript" xlink:href="svg.min.js"/>
<svg id="graph" class="graph">
<g id="viewport">
<title>MayaFlux::Kakshya::VideoStreamContainer::lock</title>
<!-- Node1 -->
<g id="Node000001" class="node">
<title>Node1</title>
<g id="a_Node000001"><a xlink:title="Acquire a lock for thread&#45;safe access.">
<polygon fill="#999999" stroke="#666666" points="888,-442 735,-442 735,-412 888,-412 888,-442"/>
<text text-anchor="start" x="743" y="-430" font-family="Helvetica,sans-Serif" font-size="10.00">MayaFlux::Kakshya::</text>
<text text-anchor="middle" x="811.5" y="-419" font-family="Helvetica,sans-Serif" font-size="10.00">VideoStreamContainer::lock</text>
</a>
</g>
</g>
<!-- Node2 -->
<g id="Node000002" class="node">
<title>Node2</title>
<g id="a_Node000002"><a xlink:href="classMayaFlux_1_1Kakshya_1_1VideoStreamContainer_a61b41aef9f9f3f03566b45c1c246f905.html#a61b41aef9f9f3f03566b45c1c246f905" target="_top" xlink:title="Add a named group of regions to the container.">
<polygon fill="white" stroke="#666666" points="691,-811.5 564,-811.5 564,-770.5 691,-770.5 691,-811.5"/>
<text text-anchor="start" x="572" y="-799.5" font-family="Helvetica,sans-Serif" font-size="10.00">MayaFlux::Kakshya::</text>
<text text-anchor="start" x="572" y="-788.5" font-family="Helvetica,sans-Serif" font-size="10.00">VideoStreamContainer</text>
<text text-anchor="middle" x="627.5" y="-777.5" font-family="Helvetica,sans-Serif" font-size="10.00">::add_region_group</text>
</a>
</g>
</g>
<!-- Node1&#45;&gt;Node2 -->
<g id="edge1_Node000001_Node000002" class="edge">
<title>Node1&#45;&gt;Node2</title>
<g id="a_edge1_Node000001_Node000002"><a xlink:title=" ">
<path fill="none" stroke="#63b8ff" d="M808.45,-452.14C802.34,-511.86 779.34,-664.1 699,-756 694.14,-761.56 688.2,-766.32 681.84,-770.39"/>
<polygon fill="#63b8ff" stroke="#63b8ff" points="811.94,-452.39 809.4,-442.1 804.97,-451.73 811.94,-452.39"/>
</a>
</g>
</g>
<!-- Node3 -->
<g id="Node000003" class="node">
<title>Node3</title>
<g id="a_Node000003"><a xlink:href="classMayaFlux_1_1Kakshya_1_1VideoStreamContainer_a781d2b3f28836b0fddf6cb48ec60e2a9.html#a781d2b3f28836b0fddf6cb48ec60e2a9" target="_top" xlink:title="Clear all data in the container.">
<polygon fill="white" stroke="#666666" points="324.5,-772.5 197.5,-772.5 197.5,-731.5 324.5,-731.5 324.5,-772.5"/>
<text text-anchor="start" x="205.5" y="-760.5" font-family="Helvetica,sans-Serif" font-size="10.00">MayaFlux::Kakshya::</text>
<text text-anchor="start" x="205.5" y="-749.5" font-family="Helvetica,sans-Serif" font-size="10.00">VideoStreamContainer</text>
<text text-anchor="middle" x="261" y="-738.5" font-family="Helvetica,sans-Serif" font-size="10.00">::clear</text>
</a>
</g>
</g>
<!-- Node1&#45;&gt;Node3 -->
<g id="edge2_Node000001_Node000003" class="edge">
<title>Node1&#45;&gt;Node3</title>
<g id="a_edge2_Node000001_Node000003"><a xlink:title=" ">
<path fill="none" stroke="#63b8ff" d="M809.57,-452.56C805.92,-511.52 787.86,-657.06 699,-723 641.37,-765.76 431.16,-761.23 324.7,-755.9"/>
<polygon fill="#63b8ff" stroke="#63b8ff" points="813.08,-452.45 810.12,-442.28 806.09,-452.08 813.08,-452.45"/>
</a>
</g>
</g>
<!-- Node4 -->
<g id="Node000004" class="node">
<title>Node4</title>
<g id="a_Node000004"><a xlink:href="classMayaFlux_1_1Kakshya_1_1VideoStreamContainer_aeefc9b67ac2269cc0996cd1505e502f6.html#aeefc9b67ac2269cc0996cd1505e502f6" target="_top" xlink:title="Get all region groups in the container.">
<polygon fill="white" stroke="#666666" points="692.5,-595.5 562.5,-595.5 562.5,-554.5 692.5,-554.5 692.5,-595.5"/>
<text text-anchor="start" x="570.5" y="-583.5" font-family="Helvetica,sans-Serif" font-size="10.00">MayaFlux::Kakshya::</text>
<text text-anchor="start" x="570.5" y="-572.5" font-family="Helvetica,sans-Serif" font-size="10.00">VideoStreamContainer</text>
<text text-anchor="middle" x="627.5" y="-561.5" font-family="Helvetica,sans-Serif" font-size="10.00">::get_all_region_groups</text>
</a>
</g>
</g>
<!-- Node1&#45;&gt;Node4 -->
<g id="edge3_Node000001_Node000004" class="edge">
<title>Node1&#45;&gt;Node4</title>
<g id="a_edge3_Node000001_Node000004"><a xlink:title=" ">
<path fill="none" stroke="#63b8ff" d="M793.59,-450.36C773.55,-476.63 737.94,-519.13 699,-546 694.64,-549.01 689.93,-551.78 685.07,-554.32"/>
<polygon fill="#63b8ff" stroke="#63b8ff" points="796.57,-452.22 799.77,-442.12 790.97,-448.02 796.57,-452.22"/>
</a>
</g>
</g>
<!-- Node5 -->
<g id="Node000005" class="node">
<title>Node5</title>
<g id="a_Node000005"><a xlink:href="classMayaFlux_1_1Kakshya_1_1VideoStreamContainer_a940580b7c744aab1fddc3da9eb64e583.html#a940580b7c744aab1fddc3da9eb64e583" target="_top" xlink:title="Get the current default data processor.">
<polygon fill="white" stroke="#666666" points="693,-536.5 562,-536.5 562,-495.5 693,-495.5 693,-536.5"/>
<text text-anchor="start" x="570" y="-524.5" font-family="Helvetica,sans-Serif" font-size="10.00">MayaFlux::Kakshya::</text>
<text text-anchor="start" x="570" y="-513.5" font-family="Helvetica,sans-Serif" font-size="10.00">VideoStreamContainer</text>
<text text-anchor="middle" x="627.5" y="-502.5" font-family="Helvetica,sans-Serif" font-size="10.00">::get_default_processor</text>
</a>
</g>
</g>
<!-- Node1&#45;&gt;Node5 -->
<g id="edge4_Node000001_Node000005" class="edge">
<title>Node1&#45;&gt;Node5</title>
<g id="a_edge4_Node000001_Node000005"><a xlink:title=" ">
<path fill="none" stroke="#63b8ff" d="M774.49,-447.05C752.84,-458.85 724.61,-473.8 699,-486 692.4,-489.15 685.37,-492.32 678.42,-495.38"/>
<polygon fill="#63b8ff" stroke="#63b8ff" points="776.25,-450.07 783.33,-442.2 772.88,-443.94 776.25,-450.07"/>
</a>
</g>
</g>
<!-- Node6 -->
<g id="Node000006" class="node">
<title>Node6</title>
<g id="a_Node000006"><a xlink:href="classMayaFlux_1_1Kakshya_1_1VideoStreamContainer_a9e5b883b500963e343de6fe357520f45.html#a9e5b883b500963e343de6fe357520f45" target="_top" xlink:title="Get raw pixel data for a single frame as uint8_t span.">
<polygon fill="white" stroke="#666666" points="691,-477.5 564,-477.5 564,-436.5 691,-436.5 691,-477.5"/>
<text text-anchor="start" x="572" y="-465.5" font-family="Helvetica,sans-Serif" font-size="10.00">MayaFlux::Kakshya::</text>
<text text-anchor="start" x="572" y="-454.5" font-family="Helvetica,sans-Serif" font-size="10.00">VideoStreamContainer</text>
<text text-anchor="middle" x="627.5" y="-443.5" font-family="Helvetica,sans-Serif" font-size="10.00">::get_frame_pixels</text>
</a>
</g>
</g>
<!-- Node1&#45;&gt;Node6 -->
<g id="edge5_Node000001_Node000006" class="edge">
<title>Node1&#45;&gt;Node6</title>
<g id="a_edge5_Node000001_Node000006"><a xlink:title=" ">
<path fill="none" stroke="#63b8ff" d="M724.94,-441.1C713.56,-442.98 702.06,-444.87 691.16,-446.67"/>
<polygon fill="#63b8ff" stroke="#63b8ff" points="725.6,-444.54 734.9,-439.46 724.46,-437.64 725.6,-444.54"/>
</a>
</g>
</g>
<!-- Node7 -->
<g id="Node000007" class="node">
<title>Node7</title>
<g id="a_Node000007"><a xlink:href="classMayaFlux_1_1Kakshya_1_1VideoStreamContainer_a7981d89610650c9af324a71a7615451f.html#a7981d89610650c9af324a71a7615451f" target="_top" xlink:title="Get data for a specific region.">
<polygon fill="white" stroke="#666666" points="691,-418.5 564,-418.5 564,-377.5 691,-377.5 691,-418.5"/>
<text text-anchor="start" x="572" y="-406.5" font-family="Helvetica,sans-Serif" font-size="10.00">MayaFlux::Kakshya::</text>
<text text-anchor="start" x="572" y="-395.5" font-family="Helvetica,sans-Serif" font-size="10.00">VideoStreamContainer</text>
<text text-anchor="middle" x="627.5" y="-384.5" font-family="Helvetica,sans-Serif" font-size="10.00">::get_region_data</text>
</a>
</g>
</g>
<!-- Node1&#45;&gt;Node7 -->
<g id="edge6_Node000001_Node000007" class="edge">
<title>Node1&#45;&gt;Node7</title>
<g id="a_edge6_Node000001_Node000007"><a xlink:title=" ">
<path fill="none" stroke="#63b8ff" d="M724.94,-413.37C713.56,-411.55 702.06,-409.72 691.16,-407.99"/>
<polygon fill="#63b8ff" stroke="#63b8ff" points="724.47,-416.84 734.9,-414.95 725.57,-409.92 724.47,-416.84"/>
</a>
</g>
</g>
<!-- Node8 -->
<g id="Node000008" class="node">
<title>Node8</title>
<g id="a_Node000008"><a xlink:href="classMayaFlux_1_1Kakshya_1_1VideoStreamContainer_a93bc5fdbddf8f2ea5348a0c8a9db6181.html#a93bc5fdbddf8f2ea5348a0c8a9db6181" target="_top" xlink:title="Get a region group by name.">
<polygon fill="white" stroke="#666666" points="691,-359.5 564,-359.5 564,-318.5 691,-318.5 691,-359.5"/>
<text text-anchor="start" x="572" y="-347.5" font-family="Helvetica,sans-Serif" font-size="10.00">MayaFlux::Kakshya::</text>
<text text-anchor="start" x="572" y="-336.5" font-family="Helvetica,sans-Serif" font-size="10.00">VideoStreamContainer</text>
<text text-anchor="middle" x="627.5" y="-325.5" font-family="Helvetica,sans-Serif" font-size="10.00">::get_region_group</text>
</a>
</g>
</g>
<!-- Node1&#45;&gt;Node8 -->
<g id="edge7_Node000001_Node000008" class="edge">
<title>Node1&#45;&gt;Node8</title>
<g id="a_edge7_Node000001_Node000008"><a xlink:title=" ">
<path fill="none" stroke="#63b8ff" d="M774.98,-407.08C753.29,-395.2 724.85,-380.12 699,-368 693.01,-365.19 686.67,-362.37 680.34,-359.66"/>
<polygon fill="#63b8ff" stroke="#63b8ff" points="773.38,-410.2 783.83,-411.96 776.76,-404.06 773.38,-410.2"/>
</a>
</g>
</g>
<!-- Node9 -->
<g id="Node000009" class="node">
<title>Node9</title>
<g id="a_Node000009"><a xlink:href="classMayaFlux_1_1Kakshya_1_1VideoStreamContainer_a72093012e355f8799805e09eb8f66b2c.html#a72093012e355f8799805e09eb8f66b2c" target="_top" xlink:title="Get data for multiple regions efficiently.">
<polygon fill="white" stroke="#666666" points="694.5,-300.5 560.5,-300.5 560.5,-259.5 694.5,-259.5 694.5,-300.5"/>
<text text-anchor="start" x="568.5" y="-288.5" font-family="Helvetica,sans-Serif" font-size="10.00">MayaFlux::Kakshya::</text>
<text text-anchor="start" x="568.5" y="-277.5" font-family="Helvetica,sans-Serif" font-size="10.00">VideoStreamContainer</text>
<text text-anchor="middle" x="627.5" y="-266.5" font-family="Helvetica,sans-Serif" font-size="10.00">::get_region_group_data</text>
</a>
</g>
</g>
<!-- Node1&#45;&gt;Node9 -->
<g id="edge8_Node000001_Node000009" class="edge">
<title>Node1&#45;&gt;Node9</title>
<g id="a_edge8_Node000001_Node000009"><a xlink:title=" ">
<path fill="none" stroke="#63b8ff" d="M793.22,-403.42C773.09,-377.35 737.61,-335.53 699,-309 694.53,-305.93 689.68,-303.09 684.69,-300.5"/>
<polygon fill="#63b8ff" stroke="#63b8ff" points="790.61,-405.77 799.44,-411.62 796.18,-401.54 790.61,-405.77"/>
</a>
</g>
</g>
<!-- Node10 -->
<g id="Node000010" class="node">
<title>Node10</title>
<g id="a_Node000010"><a xlink:href="classMayaFlux_1_1Kakshya_1_1VideoStreamContainer_a2a9a92b977cee80dd304486b60198fcf.html#a2a9a92b977cee80dd304486b60198fcf" target="_top" xlink:title="Get data for multiple region segments efficiently.">
<polygon fill="white" stroke="#666666" points="691,-241.5 564,-241.5 564,-200.5 691,-200.5 691,-241.5"/>
<text text-anchor="start" x="572" y="-229.5" font-family="Helvetica,sans-Serif" font-size="10.00">MayaFlux::Kakshya::</text>
<text text-anchor="start" x="572" y="-218.5" font-family="Helvetica,sans-Serif" font-size="10.00">VideoStreamContainer</text>
<text text-anchor="middle" x="627.5" y="-207.5" font-family="Helvetica,sans-Serif" font-size="10.00">::get_segments_data</text>
</a>
</g>
</g>
<!-- Node1&#45;&gt;Node10 -->
<g id="edge9_Node000001_Node000010" class="edge">
<title>Node1&#45;&gt;Node10</title>
<g id="a_edge9_Node000001_Node000010"><a xlink:title=" ">
<path fill="none" stroke="#63b8ff" d="M800.71,-402.07C784.73,-364.34 749.68,-292.64 699,-250 695.35,-246.93 691.34,-244.15 687.13,-241.64"/>
<polygon fill="#63b8ff" stroke="#63b8ff" points="797.66,-403.85 804.71,-411.76 804.13,-401.18 797.66,-403.85"/>
</a>
</g>
</g>
<!-- Node11 -->
<g id="Node000011" class="node">
<title>Node11</title>
<g id="a_Node000011"><a xlink:href="classMayaFlux_1_1Kakshya_1_1VideoStreamContainer_a81b10d1b0774357ee5f3a2fbc794c0a3.html#a81b10d1b0774357ee5f3a2fbc794c0a3" target="_top" xlink:title="Check if the container currently holds any data.">
<polygon fill="white" stroke="#666666" points="691,-654.5 564,-654.5 564,-613.5 691,-613.5 691,-654.5"/>
<text text-anchor="start" x="572" y="-642.5" font-family="Helvetica,sans-Serif" font-size="10.00">MayaFlux::Kakshya::</text>
<text text-anchor="start" x="572" y="-631.5" font-family="Helvetica,sans-Serif" font-size="10.00">VideoStreamContainer</text>
<text text-anchor="middle" x="627.5" y="-620.5" font-family="Helvetica,sans-Serif" font-size="10.00">::has_data</text>
</a>
</g>
</g>
<!-- Node1&#45;&gt;Node11 -->
<g id="edge10_Node000001_Node000011" class="edge">
<title>Node1&#45;&gt;Node11</title>
<g id="a_edge10_Node000001_Node000011"><a xlink:title=" ">
<path fill="none" stroke="#63b8ff" d="M800.87,-451.79C785,-489.65 749.96,-562.02 699,-605 695.36,-608.07 691.35,-610.85 687.14,-613.37"/>
<polygon fill="#63b8ff" stroke="#63b8ff" points="804.29,-452.66 804.83,-442.08 797.81,-450.01 804.29,-452.66"/>
</a>
</g>
</g>
<!-- Node17 -->
<g id="Node000017" class="node">
<title>Node17</title>
<g id="a_Node000017"><a xlink:href="classMayaFlux_1_1Kakshya_1_1VideoStreamContainer_ab34266e533acd546a7042209fa6ce6d0.html#ab34266e533acd546a7042209fa6ce6d0" target="_top" xlink:title=" ">
<polygon fill="white" stroke="#666666" points="691,-713.5 564,-713.5 564,-672.5 691,-672.5 691,-713.5"/>
<text text-anchor="start" x="572" y="-701.5" font-family="Helvetica,sans-Serif" font-size="10.00">MayaFlux::Kakshya::</text>
<text text-anchor="start" x="572" y="-690.5" font-family="Helvetica,sans-Serif" font-size="10.00">VideoStreamContainer</text>
<text text-anchor="middle" x="627.5" y="-679.5" font-family="Helvetica,sans-Serif" font-size="10.00">::notify_state_change</text>
</a>
</g>
</g>
<!-- Node1&#45;&gt;Node17 -->
<g id="edge16_Node000001_Node000017" class="edge">
<title>Node1&#45;&gt;Node17</title>
<g id="a_edge16_Node000001_Node000017"><a xlink:title=" ">
<path fill="none" stroke="#63b8ff" d="M805.1,-452.07C793.63,-499.61 762.54,-603.53 699,-664 695.74,-667.1 692.1,-669.89 688.25,-672.4"/>
<polygon fill="#63b8ff" stroke="#63b8ff" points="808.52,-452.82 807.37,-442.29 801.7,-451.24 808.52,-452.82"/>
</a>
</g>
</g>
<!-- Node20 -->
<g id="Node000020" class="node">
<title>Node20</title>
<g id="a_Node000020"><a xlink:href="classMayaFlux_1_1Kakshya_1_1VideoStreamContainer_aceb60676c8c64ebe948a8c9acdec946d.html#aceb60676c8c64ebe948a8c9acdec946d" target="_top" xlink:title="Register a callback to be invoked on processing state changes.">
<polygon fill="white" stroke="#666666" points="693,-182 562,-182 562,-130 693,-130 693,-182"/>
<text text-anchor="start" x="570" y="-170" font-family="Helvetica,sans-Serif" font-size="10.00">MayaFlux::Kakshya::</text>
<text text-anchor="start" x="570" y="-159" font-family="Helvetica,sans-Serif" font-size="10.00">VideoStreamContainer</text>
<text text-anchor="start" x="570" y="-148" font-family="Helvetica,sans-Serif" font-size="10.00">::register_state_change</text>
<text text-anchor="middle" x="627.5" y="-137" font-family="Helvetica,sans-Serif" font-size="10.00">_callback</text>
</a>
</g>
</g>
<!-- Node1&#45;&gt;Node20 -->
<g id="edge22_Node000001_Node000020" class="edge">
<title>Node1&#45;&gt;Node20</title>
<g id="a_edge22_Node000001_Node000020"><a xlink:title=" ">
<path fill="none" stroke="#63b8ff" d="M804.51,-401.8C792.19,-354.85 759.93,-253.13 699,-191 695.84,-187.78 692.33,-184.81 688.6,-182.08"/>
<polygon fill="#63b8ff" stroke="#63b8ff" points="801.18,-402.9 807.03,-411.73 807.96,-401.18 801.18,-402.9"/>
</a>
</g>
</g>
<!-- Node21 -->
<g id="Node000021" class="node">
<title>Node21</title>
<g id="a_Node000021"><a xlink:href="classMayaFlux_1_1Kakshya_1_1VideoStreamContainer_a94f357f78d77755540ed7cead5926f10.html#a94f357f78d77755540ed7cead5926f10" target="_top" xlink:title="Remove a region group by name.">
<polygon fill="white" stroke="#666666" points="692,-111.5 563,-111.5 563,-70.5 692,-70.5 692,-111.5"/>
<text text-anchor="start" x="571" y="-99.5" font-family="Helvetica,sans-Serif" font-size="10.00">MayaFlux::Kakshya::</text>
<text text-anchor="start" x="571" y="-88.5" font-family="Helvetica,sans-Serif" font-size="10.00">VideoStreamContainer</text>
<text text-anchor="middle" x="627.5" y="-77.5" font-family="Helvetica,sans-Serif" font-size="10.00">::remove_region_group</text>
</a>
</g>
</g>
<!-- Node1&#45;&gt;Node21 -->
<g id="edge23_Node000001_Node000021" class="edge">
<title>Node1&#45;&gt;Node21</title>
<g id="a_edge23_Node000001_Node000021"><a xlink:title=" ">
<path fill="none" stroke="#63b8ff" d="M808.06,-401.75C801.24,-344.47 777.04,-203.28 699,-121 695.7,-117.53 691.94,-114.44 687.91,-111.69"/>
<polygon fill="#63b8ff" stroke="#63b8ff" points="804.59,-402.19 809.17,-411.74 811.54,-401.42 804.59,-402.19"/>
</a>
</g>
</g>
<!-- Node22 -->
<g id="Node000022" class="node">
<title>Node22</title>
<g id="a_Node000022"><a xlink:href="classMayaFlux_1_1Kakshya_1_1VideoStreamContainer_a5d83160bce806be33a5733a70135ac68.html#a5d83160bce806be33a5733a70135ac68" target="_top" xlink:title="Unregister the state change callback, if any.">
<polygon fill="white" stroke="#666666" points="699,-52 556,-52 556,0 699,0 699,-52"/>
<text text-anchor="start" x="564" y="-40" font-family="Helvetica,sans-Serif" font-size="10.00">MayaFlux::Kakshya::</text>
<text text-anchor="start" x="564" y="-29" font-family="Helvetica,sans-Serif" font-size="10.00">VideoStreamContainer</text>
<text text-anchor="start" x="564" y="-18" font-family="Helvetica,sans-Serif" font-size="10.00">::unregister_state_change</text>
<text text-anchor="middle" x="627.5" y="-7" font-family="Helvetica,sans-Serif" font-size="10.00">_callback</text>
</a>
</g>
</g>
<!-- Node1&#45;&gt;Node22 -->
<g id="edge24_Node000001_Node000022" class="edge">
<title>Node1&#45;&gt;Node22</title>
<g id="a_edge24_Node000001_Node000022"><a xlink:title=" ">
<path fill="none" stroke="#63b8ff" d="M809.48,-401.71C805.59,-337.32 787.08,-164.97 699,-61 696.26,-57.77 693.15,-54.81 689.8,-52.09"/>
<polygon fill="#63b8ff" stroke="#63b8ff" points="805.98,-401.96 810.01,-411.76 812.97,-401.59 805.98,-401.96"/>
</a>
</g>
</g>
<!-- Node12 -->
<g id="Node000012" class="node">
<title>Node12</title>
<g id="a_Node000012"><a xlink:href="classMayaFlux_1_1Kakshya_1_1VideoStreamContainer_a31e3538cf16d50c5502c03d36e5a5697.html#a31e3538cf16d50c5502c03d36e5a5697" target="_top" xlink:title="Check if the stream is ready for reading.">
<polygon fill="white" stroke="#666666" points="511.5,-595.5 384.5,-595.5 384.5,-554.5 511.5,-554.5 511.5,-595.5"/>
<text text-anchor="start" x="392.5" y="-583.5" font-family="Helvetica,sans-Serif" font-size="10.00">MayaFlux::Kakshya::</text>
<text text-anchor="start" x="392.5" y="-572.5" font-family="Helvetica,sans-Serif" font-size="10.00">VideoStreamContainer</text>
<text text-anchor="middle" x="448" y="-561.5" font-family="Helvetica,sans-Serif" font-size="10.00">::is_ready</text>
</a>
</g>
</g>
<!-- Node11&#45;&gt;Node12 -->
<g id="edge11_Node000011_Node000012" class="edge">
<title>Node11&#45;&gt;Node12</title>
<g id="a_edge11_Node000011_Node000012"><a xlink:title=" ">
<path fill="none" stroke="#63b8ff" d="M554.91,-610.21C540.28,-605.34 525,-600.26 510.75,-595.52"/>
<polygon fill="#63b8ff" stroke="#63b8ff" points="553.83,-613.53 564.42,-613.36 556.03,-606.89 553.83,-613.53"/>
</a>
</g>
</g>
<!-- Node13 -->
<g id="Node000013" class="node">
<title>Node13</title>
<g id="a_Node000013"><a xlink:href="classMayaFlux_1_1Kakshya_1_1VideoStreamContainer_ae11a6aebfd95ab9dafcb84ac2d2fa7ab.html#ae11a6aebfd95ab9dafcb84ac2d2fa7ab" target="_top" xlink:title="Check if the container is ready for processing.">
<polygon fill="white" stroke="#666666" points="518,-654.5 378,-654.5 378,-613.5 518,-613.5 518,-654.5"/>
<text text-anchor="start" x="386" y="-642.5" font-family="Helvetica,sans-Serif" font-size="10.00">MayaFlux::Kakshya::</text>
<text text-anchor="start" x="386" y="-631.5" font-family="Helvetica,sans-Serif" font-size="10.00">VideoStreamContainer</text>
<text text-anchor="middle" x="448" y="-620.5" font-family="Helvetica,sans-Serif" font-size="10.00">::is_ready_for_processing</text>
</a>
</g>
</g>
<!-- Node11&#45;&gt;Node13 -->
<g id="edge12_Node000011_Node000013" class="edge">
<title>Node11&#45;&gt;Node13</title>
<g id="a_edge12_Node000011_Node000013"><a xlink:title=" ">
<path fill="none" stroke="#63b8ff" d="M553.74,-634C542.01,-634 529.9,-634 518.27,-634"/>
<polygon fill="#63b8ff" stroke="#63b8ff" points="553.92,-637.5 563.92,-634 553.92,-630.5 553.92,-637.5"/>
</a>
</g>
</g>
<!-- Node16 -->
<g id="Node000016" class="node">
<title>Node16</title>
<g id="a_Node000016"><a xlink:href="classMayaFlux_1_1Kakshya_1_1VideoStreamContainer_acc9379a359299f4bb6632afa6f6aeabe.html#acc9379a359299f4bb6632afa6f6aeabe" target="_top" xlink:title="Mark the container as ready or not ready for processing.">
<polygon fill="white" stroke="#666666" points="340,-571.5 182,-571.5 182,-530.5 340,-530.5 340,-571.5"/>
<text text-anchor="start" x="190" y="-559.5" font-family="Helvetica,sans-Serif" font-size="10.00">MayaFlux::Kakshya::</text>
<text text-anchor="start" x="190" y="-548.5" font-family="Helvetica,sans-Serif" font-size="10.00">VideoStreamContainer</text>
<text text-anchor="middle" x="261" y="-537.5" font-family="Helvetica,sans-Serif" font-size="10.00">::mark_ready_for_processing</text>
</a>
</g>
</g>
<!-- Node11&#45;&gt;Node16 -->
<g id="edge15_Node000011_Node000016" class="edge">
<title>Node11&#45;&gt;Node16</title>
<g id="a_edge15_Node000011_Node000016"><a xlink:title=" ">
<path fill="none" stroke="#63b8ff" d="M559.5,-607.81C558.3,-606.9 557.13,-605.97 556,-605 532.64,-585.06 546.79,-561.04 520,-546 464.33,-514.75 390.7,-519.84 336.34,-530.5"/>
<polygon fill="#63b8ff" stroke="#63b8ff" points="557.57,-610.73 567.82,-613.41 561.48,-604.92 557.57,-610.73"/>
</a>
</g>
</g>
<!-- Node14 -->
<g id="Node000014" class="node">
<title>Node14</title>
<g id="a_Node000014"><a xlink:href="classMayaFlux_1_1Kakshya_1_1VideoStreamContainer_ad119ceeea666b00728bcb4d087d54f19.html#ad119ceeea666b00728bcb4d087d54f19" target="_top" xlink:title="Process the container&#39;s data using the default processor.">
<polygon fill="white" stroke="#666666" points="324.5,-654.5 197.5,-654.5 197.5,-613.5 324.5,-613.5 324.5,-654.5"/>
<text text-anchor="start" x="205.5" y="-642.5" font-family="Helvetica,sans-Serif" font-size="10.00">MayaFlux::Kakshya::</text>
<text text-anchor="start" x="205.5" y="-631.5" font-family="Helvetica,sans-Serif" font-size="10.00">VideoStreamContainer</text>
<text text-anchor="middle" x="261" y="-620.5" font-family="Helvetica,sans-Serif" font-size="10.00">::process_default</text>
</a>
</g>
</g>
<!-- Node13&#45;&gt;Node14 -->
<g id="edge13_Node000013_Node000014" class="edge">
<title>Node13&#45;&gt;Node14</title>
<g id="a_edge13_Node000013_Node000014"><a xlink:title=" ">
<path fill="none" stroke="#63b8ff" d="M367.51,-634C353.18,-634 338.43,-634 324.66,-634"/>
<polygon fill="#63b8ff" stroke="#63b8ff" points="367.85,-637.5 377.85,-634 367.85,-630.5 367.85,-637.5"/>
</a>
</g>
</g>
<!-- Node15 -->
<g id="Node000015" class="node">
<title>Node15</title>
<g id="a_Node000015"><a xlink:href="classMayaFlux_1_1Kakshya_1_1CameraContainer_a55cca5bc67bab9ac239a43d15646419e.html#a55cca5bc67bab9ac239a43d15646419e" target="_top" xlink:title="Override to fire request_frame after each processor cycle.">
<polygon fill="white" stroke="#666666" points="146,-654.5 0,-654.5 0,-613.5 146,-613.5 146,-654.5"/>
<text text-anchor="start" x="8" y="-642.5" font-family="Helvetica,sans-Serif" font-size="10.00">MayaFlux::Kakshya::</text>
<text text-anchor="start" x="8" y="-631.5" font-family="Helvetica,sans-Serif" font-size="10.00">CameraContainer::process</text>
<text text-anchor="middle" x="73" y="-620.5" font-family="Helvetica,sans-Serif" font-size="10.00">_default</text>
</a>
</g>
</g>
<!-- Node14&#45;&gt;Node15 -->
<g id="edge14_Node000014_Node000015" class="edge">
<title>Node14&#45;&gt;Node15</title>
<g id="a_edge14_Node000014_Node000015"><a xlink:title=" ">
<path fill="none" stroke="#63b8ff" d="M187.11,-634C173.62,-634 159.53,-634 146.06,-634"/>
<polygon fill="#63b8ff" stroke="#63b8ff" points="187.29,-637.5 197.29,-634 187.29,-630.5 187.29,-637.5"/>
</a>
</g>
</g>
<!-- Node18 -->
<g id="Node000018" class="node">
<title>Node18</title>
<g id="a_Node000018"><a xlink:href="classMayaFlux_1_1Kakshya_1_1VideoStreamContainer_aef2e149bad77bf7dbb1c088b9c7fb1f9.html#aef2e149bad77bf7dbb1c088b9c7fb1f9" target="_top" xlink:title="Update the processing state of the container.">
<polygon fill="white" stroke="#666666" points="520,-713.5 376,-713.5 376,-672.5 520,-672.5 520,-713.5"/>
<text text-anchor="start" x="384" y="-701.5" font-family="Helvetica,sans-Serif" font-size="10.00">MayaFlux::Kakshya::</text>
<text text-anchor="start" x="384" y="-690.5" font-family="Helvetica,sans-Serif" font-size="10.00">VideoStreamContainer</text>
<text text-anchor="middle" x="448" y="-679.5" font-family="Helvetica,sans-Serif" font-size="10.00">::update_processing_state</text>
</a>
</g>
</g>
<!-- Node17&#45;&gt;Node18 -->
<g id="edge17_Node000017_Node000018" class="edge">
<title>Node17&#45;&gt;Node18</title>
<g id="a_edge17_Node000017_Node000018"><a xlink:title=" ">
<path fill="none" stroke="#63b8ff" d="M553.81,-693C542.68,-693 531.2,-693 520.1,-693"/>
<polygon fill="#63b8ff" stroke="#63b8ff" points="553.92,-696.5 563.92,-693 553.92,-689.5 553.92,-696.5"/>
</a>
</g>
</g>
<!-- Node18&#45;&gt;Node3 -->
<g id="edge18_Node000018_Node000003" class="edge">
<title>Node18&#45;&gt;Node3</title>
<g id="a_edge18_Node000018_Node000003"><a xlink:title=" ">
<path fill="none" stroke="#63b8ff" d="M372.74,-716.68C356.8,-721.77 340.11,-727.09 324.65,-732.02"/>
<polygon fill="#63b8ff" stroke="#63b8ff" points="374.09,-719.93 382.56,-713.55 371.96,-713.26 374.09,-719.93"/>
</a>
</g>
</g>
<!-- Node18&#45;&gt;Node14 -->
<g id="edge20_Node000018_Node000014" class="edge">
<title>Node18&#45;&gt;Node14</title>
<g id="a_edge20_Node000018_Node000014"><a xlink:title=" ">
<path fill="none" stroke="#63b8ff" d="M372.74,-669.32C356.8,-664.23 340.11,-658.91 324.65,-653.98"/>
<polygon fill="#63b8ff" stroke="#63b8ff" points="371.96,-672.74 382.56,-672.45 374.09,-666.07 371.96,-672.74"/>
</a>
</g>
</g>
<!-- Node18&#45;&gt;Node16 -->
<g id="edge19_Node000018_Node000016" class="edge">
<title>Node18&#45;&gt;Node16</title>
<g id="a_edge19_Node000018_Node000016"><a xlink:title=" ">
<path fill="none" stroke="#63b8ff" d="M379.53,-666.83C378.32,-665.91 377.14,-664.97 376,-664 352.61,-644.09 361.09,-627.34 340,-605 327.9,-592.18 312.29,-580.65 298.22,-571.56"/>
<polygon fill="#63b8ff" stroke="#63b8ff" points="377.65,-669.78 387.9,-672.44 381.55,-663.97 377.65,-669.78"/>
</a>
</g>
</g>
<!-- Node19 -->
<g id="Node000019" class="node">
<title>Node19</title>
<g id="a_Node000019"><a xlink:href="classMayaFlux_1_1Kakshya_1_1VideoStreamContainer_aa5c16c61c3e6cc0ed20dc12f06b0f32a.html#aa5c16c61c3e6cc0ed20dc12f06b0f32a" target="_top" xlink:title="Allocate m_data[0] as a ring of ring_capacity frames.">
<polygon fill="white" stroke="#666666" points="324.5,-713.5 197.5,-713.5 197.5,-672.5 324.5,-672.5 324.5,-713.5"/>
<text text-anchor="start" x="205.5" y="-701.5" font-family="Helvetica,sans-Serif" font-size="10.00">MayaFlux::Kakshya::</text>
<text text-anchor="start" x="205.5" y="-690.5" font-family="Helvetica,sans-Serif" font-size="10.00">VideoStreamContainer</text>
<text text-anchor="middle" x="261" y="-679.5" font-family="Helvetica,sans-Serif" font-size="10.00">::setup_ring</text>
</a>
</g>
</g>
<!-- Node18&#45;&gt;Node19 -->
<g id="edge21_Node000018_Node000019" class="edge">
<title>Node18&#45;&gt;Node19</title>
<g id="a_edge21_Node000018_Node000019"><a xlink:title=" ">
<path fill="none" stroke="#63b8ff" d="M365.4,-693C351.78,-693 337.83,-693 324.77,-693"/>
<polygon fill="#63b8ff" stroke="#63b8ff" points="365.74,-696.5 375.74,-693 365.74,-689.5 365.74,-696.5"/>
</a>
</g>
</g>
</g>
</svg>

<g id="navigator" transform="translate(0 0)" fill="#404254">
  <rect fill="#f2f5e9" fill-opacity="0.5" stroke="#606060" stroke-width=".5" x="0" y="0" width="60" height="60"/>
  <use id="zoomplus" xlink:href="#zoomPlus" x="17" y="9" onmousedown="handleZoom(evt,'in')"/>
  <use id="zoomminus" xlink:href="#zoomMin" x="42" y="9" onmousedown="handleZoom(evt,'out')"/>
  <use id="reset" xlink:href="#resetDef" x="30" y="36" onmousedown="handleReset()"/>
   <use id="arrowup" xlink:href="#arrowUp" x="0" y="0" onmousedown="handlePan(0,-1)"/>
  <use id="arrowright" xlink:href="#arrowRight" x="0" y="0" onmousedown="handlePan(1,0)"/>
  <use id="arrowdown" xlink:href="#arrowDown" x="0" y="0" onmousedown="handlePan(0,1)"/>
  <use id="arrowleft" xlink:href="#arrowLeft" x="0" y="0" onmousedown="handlePan(-1,0)"/>
</g>
<svg viewBox="0 0 15 15" width="100%" height="30px" preserveAspectRatio="xMaxYMin meet">
 <g id="arrow_out" transform="scale(0.3 0.3)">
  <a xlink:href="classMayaFlux_1_1Kakshya_1_1VideoStreamContainer_ae700cb6f780df3a568fdc9013168089c_ae700cb6f780df3a568fdc9013168089c_icgraph_org.svg" target="_base">
   <rect id="button" ry="5" rx="5" y="6" x="6" height="38" width="38"
        fill="#f2f5e9" fill-opacity="0.5" stroke="#606060" stroke-width="1.0"/>
   <path id="arrow"
     d="M 11.500037,31.436501 C 11.940474,20.09759 22.043105,11.32322 32.158766,21.979434 L 37.068811,17.246167 C 37.068811,17.246167 37.088388,32 37.088388,32 L 22.160133,31.978069 C 22.160133,31.978069 26.997745,27.140456 26.997745,27.140456 C 18.528582,18.264221 13.291696,25.230495 11.500037,31.436501 z"
     style="fill:#404040;"/>
  </a>
 </g>
</svg>

<style type='text/css'>
<![CDATA[
[data-mouse-over-selected='false'] { opacity: 0.7; }
[data-mouse-over-selected='true']  { opacity: 1.0; }
]]>
</style>
<script type="application/ecmascript"><![CDATA[
document.addEventListener('DOMContentLoaded', (event) => {
  highlightEdges();
  highlightAdjacentNodes();
});
]]></script>
</svg>
