<?xml version="1.0" encoding="UTF-8" standalone="no"?>
<!DOCTYPE svg PUBLIC "-//W3C//DTD SVG 1.1//EN"
 "http://www.w3.org/Graphics/SVG/1.1/DTD/svg11.dtd">
<!-- Generated by graphviz version 2.43.0 (0)
 -->
<!-- Title: MayaFlux::IO::SoundFileReader::read_region Pages: 1 -->
<!--zoomable 150 -->

<svg id="main" version="1.1" xmlns="http://www.w3.org/2000/svg" xmlns:xlink="http://www.w3.org/1999/xlink" xml:space="preserve" onload="init(evt)">
<style type="text/css"><![CDATA[
.node, .edge {opacity: 0.7;}
.node.selected, .edge.selected {opacity: 1;}
.edge:hover path { stroke: red; }
.edge:hover polygon { stroke: red; fill: red; }
]]></style>

<defs>
  <circle id="rim" cx="0" cy="0" r="7"/>
  <circle id="rim2" cx="0" cy="0" r="3.5"/>
  <g id="zoomPlus">
    <use xlink:href="#rim" fill="#404040"><set attributeName="fill" to="#808080" begin="zoomplus.mouseover" end="zoomplus.mouseout"/></use>
    <path d="M-4,0h8M0,-4v8" fill="none" stroke="white" stroke-width="1.5" pointer-events="none"/>
  </g>
  <g id="zoomMin">
    <use xlink:href="#rim" fill="#404040"><set attributeName="fill" to="#808080" begin="zoomminus.mouseover" end="zoomminus.mouseout"/></use>
    <path d="M-4,0h8" fill="none" stroke="white" stroke-width="1.5" pointer-events="none"/>
  </g>
  <g id="arrowUp" transform="translate(30 24)">
    <use xlink:href="#rim"/>
    <path pointer-events="none" fill="none" stroke="white" stroke-width="1.5" d="M0,-3.0v7 M-2.5,-0.5L0,-3.0L2.5,-0.5"/>
  </g>
  <g id="arrowRight" transform="rotate(90) translate(36 -43)">
    <use xlink:href="#rim"/>
    <path pointer-events="none" fill="none" stroke="white" stroke-width="1.5" d="M0,-3.0v7 M-2.5,-0.5L0,-3.0L2.5,-0.5"/>
  </g>
  <g id="arrowDown" transform="rotate(180) translate(-30 -48)">
    <use xlink:href="#rim"/>
    <path pointer-events="none" fill="none" stroke="white" stroke-width="1.5" d="M0,-3.0v7 M-2.5,-0.5L0,-3.0L2.5,-0.5"/>
  </g>
  <g id="arrowLeft" transform="rotate(270) translate(-36 17)">
    <use xlink:href="#rim"/>
    <path pointer-events="none" fill="none" stroke="white" stroke-width="1.5" d="M0,-3.0v7 M-2.5,-0.5L0,-3.0L2.5,-0.5"/>
  </g>
  <g id="resetDef">
    <use xlink:href="#rim2" fill="#404040"><set attributeName="fill" to="#808080" begin="reset.mouseover" end="reset.mouseout"/></use>
  </g>
</defs>
<script type="application/ecmascript">
var viewWidth = 792;
var viewHeight = 150;
var sectionId = 'dynsection-0';
</script>
<script type="application/ecmascript" xlink:href="svg.min.js"/>
<svg id="graph" class="graph">
<g id="viewport">
<title>MayaFlux::IO::SoundFileReader::read_region</title>
<!-- Node1 -->
<g id="Node000001" class="node">
<title>Node1</title>
<g id="a_Node000001"><a xlink:title="Read a specific region from the file.">
<polygon fill="#999999" stroke="#666666" points="169,-34.04 0,-34.04 0,-4.04 169,-4.04 169,-34.04"/>
<text text-anchor="start" x="8" y="-22.04" font-family="Helvetica,sans-Serif" font-size="10.00">MayaFlux::IO::SoundFileReader</text>
<text text-anchor="middle" x="84.5" y="-11.04" font-family="Helvetica,sans-Serif" font-size="10.00">::read_region</text>
</a>
</g>
</g>
<!-- Node2 -->
<g id="Node000002" class="node">
<title>Node2</title>
<g id="a_Node000002"><a xlink:href="classMayaFlux_1_1IO_1_1SoundFileReader_a8bfd1aa043b76cab1172b2d00705066f.html#a8bfd1aa043b76cab1172b2d00705066f" target="_top" xlink:title="Read a specific number of frames from the file.">
<polygon fill="white" stroke="#666666" points="374,-77.04 205,-77.04 205,-47.04 374,-47.04 374,-77.04"/>
<text text-anchor="start" x="213" y="-65.04" font-family="Helvetica,sans-Serif" font-size="10.00">MayaFlux::IO::SoundFileReader</text>
<text text-anchor="middle" x="289.5" y="-54.04" font-family="Helvetica,sans-Serif" font-size="10.00">::read_frames</text>
</a>
</g>
</g>
<!-- Node1&#45;&gt;Node2 -->
<g id="edge1_Node000001_Node000002" class="edge">
<title>Node1&#45;&gt;Node2</title>
<g id="a_edge1_Node000001_Node000002"><a xlink:title=" ">
<path fill="none" stroke="#63b8ff" d="M156.5,-34.08C173.03,-37.58 190.76,-41.34 207.68,-44.92"/>
<polygon fill="#63b8ff" stroke="#63b8ff" points="207.03,-48.36 217.54,-47.01 208.48,-41.51 207.03,-48.36"/>
</a>
</g>
</g>
<!-- Node4 -->
<g id="Node000004" class="node">
<title>Node4</title>
<g id="a_Node000004"><a xlink:href="classMayaFlux_1_1IO_1_1SoundFileReader_a800c7fe05bac701dcfa6a826ad78c22e.html#a800c7fe05bac701dcfa6a826ad78c22e" target="_top" xlink:title="Set the last error message.">
<polygon fill="white" stroke="#666666" points="784,-77.04 615,-77.04 615,-47.04 784,-47.04 784,-77.04"/>
<text text-anchor="start" x="623" y="-65.04" font-family="Helvetica,sans-Serif" font-size="10.00">MayaFlux::IO::SoundFileReader</text>
<text text-anchor="middle" x="699.5" y="-54.04" font-family="Helvetica,sans-Serif" font-size="10.00">::set_error</text>
</a>
</g>
</g>
<!-- Node1&#45;&gt;Node4 -->
<g id="edge7_Node000001_Node000004" class="edge">
<title>Node1&#45;&gt;Node4</title>
<g id="a_edge7_Node000001_Node000004"><a xlink:title=" ">
<path fill="none" stroke="#63b8ff" d="M169.27,-9.44C268.11,-0.23 436.97,8.82 579,-17.04 606.48,-22.04 635.86,-33.02 658.61,-42.88"/>
<polygon fill="#63b8ff" stroke="#63b8ff" points="657.37,-46.16 667.93,-47.02 660.21,-39.76 657.37,-46.16"/>
</a>
</g>
</g>
<!-- Node3 -->
<g id="Node000003" class="node">
<title>Node3</title>
<g id="a_Node000003"><a xlink:href="classMayaFlux_1_1IO_1_1SoundFileReader_a6b31f93de0d059ff79310a277024cf97.html#a6b31f93de0d059ff79310a277024cf97" target="_top" xlink:title="Decode num_frames PCM frames starting at offset.">
<polygon fill="white" stroke="#666666" points="579,-142.04 410,-142.04 410,-112.04 579,-112.04 579,-142.04"/>
<text text-anchor="start" x="418" y="-130.04" font-family="Helvetica,sans-Serif" font-size="10.00">MayaFlux::IO::SoundFileReader</text>
<text text-anchor="middle" x="494.5" y="-119.04" font-family="Helvetica,sans-Serif" font-size="10.00">::decode_frames</text>
</a>
</g>
</g>
<!-- Node2&#45;&gt;Node3 -->
<g id="edge2_Node000002_Node000003" class="edge">
<title>Node2&#45;&gt;Node3</title>
<g id="a_edge2_Node000002_Node000003"><a xlink:title=" ">
<path fill="none" stroke="#63b8ff" d="M337.58,-77.12C367.07,-86.56 405.26,-98.78 436.46,-108.77"/>
<polygon fill="#63b8ff" stroke="#63b8ff" points="435.73,-112.22 446.32,-111.93 437.87,-105.55 435.73,-112.22"/>
</a>
</g>
</g>
<!-- Node2&#45;&gt;Node4 -->
<g id="edge6_Node000002_Node000004" class="edge">
<title>Node2&#45;&gt;Node4</title>
<g id="a_edge6_Node000002_Node000004"><a xlink:title=" ">
<path fill="none" stroke="#63b8ff" d="M374.07,-64.41C386.12,-64.67 398.38,-64.89 410,-65.04 485.11,-65.98 503.89,-65.98 579,-65.04 587.35,-64.94 596.03,-64.79 604.73,-64.62"/>
<polygon fill="#63b8ff" stroke="#63b8ff" points="605.01,-68.11 614.93,-64.41 604.86,-61.11 605.01,-68.11"/>
</a>
</g>
</g>
<!-- Node5 -->
<g id="Node000005" class="node">
<title>Node5</title>
<g id="a_Node000005"><a xlink:href="classMayaFlux_1_1IO_1_1SoundFileReader_a556fc1aa59ae42f3ecb37e33238d4642.html#a556fc1aa59ae42f3ecb37e33238d4642" target="_top" xlink:title="Seek the demuxer and flush the codec to the given frame position.">
<polygon fill="white" stroke="#666666" points="579,-56.04 410,-56.04 410,-26.04 579,-26.04 579,-56.04"/>
<text text-anchor="start" x="418" y="-44.04" font-family="Helvetica,sans-Serif" font-size="10.00">MayaFlux::IO::SoundFileReader</text>
<text text-anchor="middle" x="494.5" y="-33.04" font-family="Helvetica,sans-Serif" font-size="10.00">::seek_internal</text>
</a>
</g>
</g>
<!-- Node2&#45;&gt;Node5 -->
<g id="edge4_Node000002_Node000005" class="edge">
<title>Node2&#45;&gt;Node5</title>
<g id="a_edge4_Node000002_Node000005"><a xlink:title=" ">
<path fill="none" stroke="#63b8ff" d="M374.24,-53.38C382.72,-52.5 391.37,-51.61 399.94,-50.72"/>
<polygon fill="#63b8ff" stroke="#63b8ff" points="400.37,-54.19 409.95,-49.68 399.65,-47.23 400.37,-54.19"/>
</a>
</g>
</g>
<!-- Node3&#45;&gt;Node4 -->
<g id="edge3_Node000003_Node000004" class="edge">
<title>Node3&#45;&gt;Node4</title>
<g id="a_edge3_Node000003_Node000004"><a xlink:title=" ">
<path fill="none" stroke="#63b8ff" d="M542.58,-111.96C572.07,-102.52 610.26,-90.3 641.46,-80.31"/>
<polygon fill="#63b8ff" stroke="#63b8ff" points="642.87,-83.53 651.32,-77.15 640.73,-76.86 642.87,-83.53"/>
</a>
</g>
</g>
<!-- Node5&#45;&gt;Node4 -->
<g id="edge5_Node000005_Node000004" class="edge">
<title>Node5&#45;&gt;Node4</title>
<g id="a_edge5_Node000005_Node000004"><a xlink:title=" ">
<path fill="none" stroke="#63b8ff" d="M579.24,-49.7C587.72,-50.58 596.37,-51.47 604.94,-52.36"/>
<polygon fill="#63b8ff" stroke="#63b8ff" points="604.65,-55.85 614.95,-53.4 605.37,-48.89 604.65,-55.85"/>
</a>
</g>
</g>
</g>
</svg>

<g id="navigator" transform="translate(0 0)" fill="#404254">
  <rect fill="#f2f5e9" fill-opacity="0.5" stroke="#606060" stroke-width=".5" x="0" y="0" width="60" height="60"/>
  <use id="zoomplus" xlink:href="#zoomPlus" x="17" y="9" onmousedown="handleZoom(evt,'in')"/>
  <use id="zoomminus" xlink:href="#zoomMin" x="42" y="9" onmousedown="handleZoom(evt,'out')"/>
  <use id="reset" xlink:href="#resetDef" x="30" y="36" onmousedown="handleReset()"/>
   <use id="arrowup" xlink:href="#arrowUp" x="0" y="0" onmousedown="handlePan(0,-1)"/>
  <use id="arrowright" xlink:href="#arrowRight" x="0" y="0" onmousedown="handlePan(1,0)"/>
  <use id="arrowdown" xlink:href="#arrowDown" x="0" y="0" onmousedown="handlePan(0,1)"/>
  <use id="arrowleft" xlink:href="#arrowLeft" x="0" y="0" onmousedown="handlePan(-1,0)"/>
</g>
<svg viewBox="0 0 15 15" width="100%" height="30px" preserveAspectRatio="xMaxYMin meet">
 <g id="arrow_out" transform="scale(0.3 0.3)">
  <a xlink:href="classMayaFlux_1_1IO_1_1SoundFileReader_a8b9c5ab6495003a5a1b17edaf5cc4e3f_a8b9c5ab6495003a5a1b17edaf5cc4e3f_cgraph_org.svg" target="_base">
   <rect id="button" ry="5" rx="5" y="6" x="6" height="38" width="38"
        fill="#f2f5e9" fill-opacity="0.5" stroke="#606060" stroke-width="1.0"/>
   <path id="arrow"
     d="M 11.500037,31.436501 C 11.940474,20.09759 22.043105,11.32322 32.158766,21.979434 L 37.068811,17.246167 C 37.068811,17.246167 37.088388,32 37.088388,32 L 22.160133,31.978069 C 22.160133,31.978069 26.997745,27.140456 26.997745,27.140456 C 18.528582,18.264221 13.291696,25.230495 11.500037,31.436501 z"
     style="fill:#404040;"/>
  </a>
 </g>
</svg>

<style type='text/css'>
<![CDATA[
[data-mouse-over-selected='false'] { opacity: 0.7; }
[data-mouse-over-selected='true']  { opacity: 1.0; }
]]>
</style>
<script type="application/ecmascript"><![CDATA[
document.addEventListener('DOMContentLoaded', (event) => {
  highlightEdges();
  highlightAdjacentNodes();
});
]]></script>
</svg>
