<?xml version="1.0" encoding="UTF-8" standalone="no"?>
<!DOCTYPE svg PUBLIC "-//W3C//DTD SVG 1.1//EN"
 "http://www.w3.org/Graphics/SVG/1.1/DTD/svg11.dtd">
<!-- Generated by graphviz version 2.43.0 (0)
 -->
<!-- Title: MayaFlux::Nodes::GpuSync::GlyphGeometryNode::write_vertices Pages: 1 -->
<svg width="679pt" height="140pt"
 viewBox="0.00 0.00 679.00 140.00" xmlns="http://www.w3.org/2000/svg" xmlns:xlink="http://www.w3.org/1999/xlink">
<g id="graph0" class="graph" transform="scale(1 1) rotate(0) translate(4 136)">
<title>MayaFlux::Nodes::GpuSync::GlyphGeometryNode::write_vertices</title>
<!-- Node1 -->
<g id="Node000001" class="node">
<title>Node1</title>
<g id="a_Node000001"><a xlink:title=" ">
<polygon fill="#999999" stroke="#666666" points="671,-110.5 515,-110.5 515,-69.5 671,-69.5 671,-110.5"/>
<text text-anchor="start" x="523" y="-98.5" font-family="Helvetica,sans-Serif" font-size="10.00">MayaFlux::Nodes::GpuSync</text>
<text text-anchor="start" x="523" y="-87.5" font-family="Helvetica,sans-Serif" font-size="10.00">::GlyphGeometryNode::write</text>
<text text-anchor="middle" x="593" y="-76.5" font-family="Helvetica,sans-Serif" font-size="10.00">_vertices</text>
</a>
</g>
</g>
<!-- Node2 -->
<g id="Node000002" class="node">
<title>Node2</title>
<g id="a_Node000002"><a xlink:href="classMayaFlux_1_1Nodes_1_1GpuSync_1_1GlyphGeometryNode_a019687268deed85de64e95138367164c.html#a019687268deed85de64e95138367164c" target="_top" xlink:title="Upload cached vertex data if dirty.">
<polygon fill="white" stroke="#666666" points="479,-132 270,-132 270,-102 479,-102 479,-132"/>
<text text-anchor="start" x="278" y="-120" font-family="Helvetica,sans-Serif" font-size="10.00">MayaFlux::Nodes::GpuSync</text>
<text text-anchor="middle" x="374.5" y="-109" font-family="Helvetica,sans-Serif" font-size="10.00">::GlyphGeometryNode::compute_frame</text>
</a>
</g>
</g>
<!-- Node1&#45;&gt;Node2 -->
<g id="edge1_Node000001_Node000002" class="edge">
<title>Node1&#45;&gt;Node2</title>
<g id="a_edge1_Node000001_Node000002"><a xlink:title=" ">
<path fill="none" stroke="#63b8ff" d="M504.64,-100.9C496.26,-101.94 487.71,-103.01 479.19,-104.07"/>
<polygon fill="#63b8ff" stroke="#63b8ff" points="505.27,-104.34 514.76,-99.63 504.4,-97.4 505.27,-104.34"/>
</a>
</g>
</g>
<!-- Node3 -->
<g id="Node000003" class="node">
<title>Node3</title>
<g id="a_Node000003"><a xlink:href="classMayaFlux_1_1Nodes_1_1GpuSync_1_1GlyphGeometryNode_a39969c549307dc7b874fb9e794b4fb16.html#a39969c549307dc7b874fb9e794b4fb16" target="_top" xlink:title="Rebuild outline geometry from the current text and pen settings.">
<polygon fill="white" stroke="#666666" points="457,-83.5 292,-83.5 292,-42.5 457,-42.5 457,-83.5"/>
<text text-anchor="start" x="300" y="-71.5" font-family="Helvetica,sans-Serif" font-size="10.00">MayaFlux::Nodes::GpuSync</text>
<text text-anchor="start" x="300" y="-60.5" font-family="Helvetica,sans-Serif" font-size="10.00">::GlyphGeometryNode::rebuild</text>
<text text-anchor="middle" x="374.5" y="-49.5" font-family="Helvetica,sans-Serif" font-size="10.00">_outlines</text>
</a>
</g>
</g>
<!-- Node1&#45;&gt;Node3 -->
<g id="edge2_Node000001_Node000003" class="edge">
<title>Node1&#45;&gt;Node3</title>
<g id="a_edge2_Node000001_Node000003"><a xlink:title=" ">
<path fill="none" stroke="#63b8ff" d="M504.56,-79.1C488.89,-77.14 472.61,-75.11 457.11,-73.18"/>
<polygon fill="#63b8ff" stroke="#63b8ff" points="504.4,-82.6 514.76,-80.37 505.27,-75.66 504.4,-82.6"/>
</a>
</g>
</g>
<!-- Node4 -->
<g id="Node000004" class="node">
<title>Node4</title>
<g id="a_Node000004"><a xlink:href="classMayaFlux_1_1Nodes_1_1GpuSync_1_1GlyphGeometryNode_aa2c050b302cf38e5125047fd4f1cd6d7.html#aa2c050b302cf38e5125047fd4f1cd6d7" target="_top" xlink:title="Construct from a UTF&#45;8 string with an explicit FontFace.">
<polygon fill="white" stroke="#666666" points="234,-126 0,-126 0,-96 234,-96 234,-126"/>
<text text-anchor="start" x="8" y="-114" font-family="Helvetica,sans-Serif" font-size="10.00">MayaFlux::Nodes::GpuSync</text>
<text text-anchor="middle" x="117" y="-103" font-family="Helvetica,sans-Serif" font-size="10.00">::GlyphGeometryNode::GlyphGeometryNode</text>
</a>
</g>
</g>
<!-- Node3&#45;&gt;Node4 -->
<g id="edge3_Node000003_Node000004" class="edge">
<title>Node3&#45;&gt;Node4</title>
<g id="a_edge3_Node000003_Node000004"><a xlink:title=" ">
<path fill="none" stroke="#63b8ff" d="M281.95,-80.2C254.47,-85.36 224.56,-90.98 197.9,-95.99"/>
<polygon fill="#63b8ff" stroke="#63b8ff" points="282.77,-83.61 291.96,-78.32 281.48,-76.73 282.77,-83.61"/>
</a>
</g>
</g>
<!-- Node5 -->
<g id="Node000005" class="node">
<title>Node5</title>
<g id="a_Node000005"><a xlink:href="classMayaFlux_1_1Nodes_1_1GpuSync_1_1GlyphGeometryNode_ae6d0646f782caeb8a210c8344e63130b.html#ae6d0646f782caeb8a210c8344e63130b" target="_top" xlink:title="Construct from a UTF&#45;8 string using the default font.">
<polygon fill="white" stroke="#666666" points="234,-78 0,-78 0,-48 234,-48 234,-78"/>
<text text-anchor="start" x="8" y="-66" font-family="Helvetica,sans-Serif" font-size="10.00">MayaFlux::Nodes::GpuSync</text>
<text text-anchor="middle" x="117" y="-55" font-family="Helvetica,sans-Serif" font-size="10.00">::GlyphGeometryNode::GlyphGeometryNode</text>
</a>
</g>
</g>
<!-- Node3&#45;&gt;Node5 -->
<g id="edge4_Node000003_Node000005" class="edge">
<title>Node3&#45;&gt;Node5</title>
<g id="a_edge4_Node000003_Node000005"><a xlink:title=" ">
<path fill="none" stroke="#63b8ff" d="M281.9,-63C266.42,-63 250.17,-63 234.16,-63"/>
<polygon fill="#63b8ff" stroke="#63b8ff" points="281.96,-66.5 291.96,-63 281.96,-59.5 281.96,-66.5"/>
</a>
</g>
</g>
<!-- Node6 -->
<g id="Node000006" class="node">
<title>Node6</title>
<g id="a_Node000006"><a xlink:href="classMayaFlux_1_1Nodes_1_1GpuSync_1_1GlyphGeometryNode_ad5ec71c50169fad44dcd56ed9fc04bcf.html#ad5ec71c50169fad44dcd56ed9fc04bcf" target="_top" xlink:title="Replace the text string and rebuild outlines.">
<polygon fill="white" stroke="#666666" points="202.5,-30 31.5,-30 31.5,0 202.5,0 202.5,-30"/>
<text text-anchor="start" x="39.5" y="-18" font-family="Helvetica,sans-Serif" font-size="10.00">MayaFlux::Nodes::GpuSync</text>
<text text-anchor="middle" x="117" y="-7" font-family="Helvetica,sans-Serif" font-size="10.00">::GlyphGeometryNode::set_text</text>
</a>
</g>
</g>
<!-- Node3&#45;&gt;Node6 -->
<g id="edge5_Node000003_Node000006" class="edge">
<title>Node3&#45;&gt;Node6</title>
<g id="a_edge5_Node000003_Node000006"><a xlink:title=" ">
<path fill="none" stroke="#63b8ff" d="M281.95,-45.8C254.47,-40.64 224.56,-35.02 197.9,-30.01"/>
<polygon fill="#63b8ff" stroke="#63b8ff" points="281.48,-49.27 291.96,-47.68 282.77,-42.39 281.48,-49.27"/>
</a>
</g>
</g>
</g>
</svg>
