<?xml version="1.0" encoding="UTF-8" standalone="no"?>
<!DOCTYPE svg PUBLIC "-//W3C//DTD SVG 1.1//EN"
 "http://www.w3.org/Graphics/SVG/1.1/DTD/svg11.dtd">
<!-- Generated by graphviz version 2.43.0 (0)
 -->
<!-- Title: MayaFlux::Portal::Forma::Inspector::event Pages: 1 -->
<!--zoomable 692 -->

<svg id="main" version="1.1" xmlns="http://www.w3.org/2000/svg" xmlns:xlink="http://www.w3.org/1999/xlink" xml:space="preserve" onload="init(evt)">
<style type="text/css"><![CDATA[
.node, .edge {opacity: 0.7;}
.node.selected, .edge.selected {opacity: 1;}
.edge:hover path { stroke: red; }
.edge:hover polygon { stroke: red; fill: red; }
]]></style>

<defs>
  <circle id="rim" cx="0" cy="0" r="7"/>
  <circle id="rim2" cx="0" cy="0" r="3.5"/>
  <g id="zoomPlus">
    <use xlink:href="#rim" fill="#404040"><set attributeName="fill" to="#808080" begin="zoomplus.mouseover" end="zoomplus.mouseout"/></use>
    <path d="M-4,0h8M0,-4v8" fill="none" stroke="white" stroke-width="1.5" pointer-events="none"/>
  </g>
  <g id="zoomMin">
    <use xlink:href="#rim" fill="#404040"><set attributeName="fill" to="#808080" begin="zoomminus.mouseover" end="zoomminus.mouseout"/></use>
    <path d="M-4,0h8" fill="none" stroke="white" stroke-width="1.5" pointer-events="none"/>
  </g>
  <g id="arrowUp" transform="translate(30 24)">
    <use xlink:href="#rim"/>
    <path pointer-events="none" fill="none" stroke="white" stroke-width="1.5" d="M0,-3.0v7 M-2.5,-0.5L0,-3.0L2.5,-0.5"/>
  </g>
  <g id="arrowRight" transform="rotate(90) translate(36 -43)">
    <use xlink:href="#rim"/>
    <path pointer-events="none" fill="none" stroke="white" stroke-width="1.5" d="M0,-3.0v7 M-2.5,-0.5L0,-3.0L2.5,-0.5"/>
  </g>
  <g id="arrowDown" transform="rotate(180) translate(-30 -48)">
    <use xlink:href="#rim"/>
    <path pointer-events="none" fill="none" stroke="white" stroke-width="1.5" d="M0,-3.0v7 M-2.5,-0.5L0,-3.0L2.5,-0.5"/>
  </g>
  <g id="arrowLeft" transform="rotate(270) translate(-36 17)">
    <use xlink:href="#rim"/>
    <path pointer-events="none" fill="none" stroke="white" stroke-width="1.5" d="M0,-3.0v7 M-2.5,-0.5L0,-3.0L2.5,-0.5"/>
  </g>
  <g id="resetDef">
    <use xlink:href="#rim2" fill="#404040"><set attributeName="fill" to="#808080" begin="reset.mouseover" end="reset.mouseout"/></use>
  </g>
</defs>
<script type="application/ecmascript">
var viewWidth = 1034;
var viewHeight = 692;
var sectionId = 'dynsection-0';
</script>
<script type="application/ecmascript" xlink:href="svg.min.js"/>
<svg id="graph" class="graph">
<g id="viewport">
<title>MayaFlux::Portal::Forma::Inspector::event</title>
<!-- Node1 -->
<g id="Node000001" class="node">
<title>Node1</title>
<g id="a_Node000001"><a xlink:title="Inspect a single Event by name and pointer.">
<polygon fill="#999999" stroke="#666666" points="136,-360 0,-360 0,-330 136,-330 136,-360"/>
<text text-anchor="start" x="8" y="-348" font-family="Helvetica,sans-Serif" font-size="10.00">MayaFlux::Portal::Forma</text>
<text text-anchor="middle" x="68" y="-337" font-family="Helvetica,sans-Serif" font-size="10.00">::Inspector::event</text>
</a>
</g>
</g>
<!-- Node2 -->
<g id="Node000002" class="node">
<title>Node2</title>
<g id="a_Node000002"><a xlink:href="namespaceMayaFlux_1_1Reflect_aad91118cbd25bd9e35a3ced9aa4e6dbd.html#aad91118cbd25bd9e35a3ced9aa4e6dbd" target="_top" xlink:title="Universal enum to string converter using magic_enum (original case)">
<polygon fill="white" stroke="#666666" points="295,-446 185,-446 185,-416 295,-416 295,-446"/>
<text text-anchor="start" x="193" y="-434" font-family="Helvetica,sans-Serif" font-size="10.00">MayaFlux::Reflect::</text>
<text text-anchor="middle" x="240" y="-423" font-family="Helvetica,sans-Serif" font-size="10.00">enum_to_string</text>
</a>
</g>
</g>
<!-- Node1&#45;&gt;Node2 -->
<g id="edge1_Node000001_Node000002" class="edge">
<title>Node1&#45;&gt;Node2</title>
<g id="a_edge1_Node000001_Node000002"><a xlink:title=" ">
<path fill="none" stroke="#63b8ff" d="M94.88,-360.24C115.49,-372.15 145.22,-388.83 172,-402 178.73,-405.31 185.92,-408.63 193,-411.79"/>
<polygon fill="#63b8ff" stroke="#63b8ff" points="191.98,-415.17 202.54,-415.98 194.8,-408.76 191.98,-415.17"/>
</a>
</g>
</g>
<!-- Node3 -->
<g id="Node000003" class="node">
<title>Node3</title>
<g id="a_Node000003"><a xlink:href="classMayaFlux_1_1Portal_1_1Forma_1_1Inspector_a83e60e81cc2b615d59658a49365bc57d.html#a83e60e81cc2b615d59658a49365bc57d" target="_top" xlink:title=" ">
<polygon fill="white" stroke="#666666" points="488,-617.5 352,-617.5 352,-576.5 488,-576.5 488,-617.5"/>
<text text-anchor="start" x="360" y="-605.5" font-family="Helvetica,sans-Serif" font-size="10.00">MayaFlux::Portal::Forma</text>
<text text-anchor="start" x="360" y="-594.5" font-family="Helvetica,sans-Serif" font-size="10.00">::Inspector::make_row</text>
<text text-anchor="middle" x="420" y="-583.5" font-family="Helvetica,sans-Serif" font-size="10.00">_buffer</text>
</a>
</g>
</g>
<!-- Node1&#45;&gt;Node3 -->
<g id="edge2_Node000001_Node000003" class="edge">
<title>Node1&#45;&gt;Node3</title>
<g id="a_edge2_Node000001_Node000003"><a xlink:title=" ">
<path fill="none" stroke="#63b8ff" d="M133.24,-360.02C201.81,-376.3 301.55,-400.79 308,-407 348.11,-445.62 314.63,-479.7 344,-527 353.97,-543.06 368.57,-557.84 382.25,-569.64"/>
<polygon fill="#63b8ff" stroke="#63b8ff" points="380.23,-572.51 390.15,-576.23 384.71,-567.14 380.23,-572.51"/>
</a>
</g>
</g>
<!-- Node9 -->
<g id="Node000009" class="node">
<title>Node9</title>
<g id="a_Node000009"><a xlink:href="namespaceMayaFlux_1_1Portal_1_1Forma_a3ca53de12e4f64955aecb2d7b0596c40.html#a3ca53de12e4f64955aecb2d7b0596c40" target="_top" xlink:title="Construct a collapsible header followed by N value rows under it.">
<polygon fill="white" stroke="#666666" points="308,-360 172,-360 172,-330 308,-330 308,-360"/>
<text text-anchor="start" x="180" y="-348" font-family="Helvetica,sans-Serif" font-size="10.00">MayaFlux::Portal::Forma</text>
<text text-anchor="middle" x="240" y="-337" font-family="Helvetica,sans-Serif" font-size="10.00">::make_value_group</text>
</a>
</g>
</g>
<!-- Node1&#45;&gt;Node9 -->
<g id="edge8_Node000001_Node000009" class="edge">
<title>Node1&#45;&gt;Node9</title>
<g id="a_edge8_Node000001_Node000009"><a xlink:title=" ">
<path fill="none" stroke="#63b8ff" d="M136.19,-345C144.5,-345 153.05,-345 161.51,-345"/>
<polygon fill="#63b8ff" stroke="#63b8ff" points="161.74,-348.5 171.74,-345 161.74,-341.5 161.74,-348.5"/>
</a>
</g>
</g>
<!-- Node30 -->
<g id="Node000030" class="node">
<title>Node30</title>
<g id="a_Node000030"><a xlink:href="namespaceMayaFlux_1_1Portal_1_1Forma_afbdef7b72e223d7f234fe5b3681ed58f.html#afbdef7b72e223d7f234fe5b3681ed58f" target="_top" xlink:title="Convert an NDC row rect into integer pixel dimensions.">
<polygon fill="white" stroke="#666666" points="308,-261 172,-261 172,-231 308,-231 308,-261"/>
<text text-anchor="start" x="180" y="-249" font-family="Helvetica,sans-Serif" font-size="10.00">MayaFlux::Portal::Forma</text>
<text text-anchor="middle" x="240" y="-238" font-family="Helvetica,sans-Serif" font-size="10.00">::row_pixel_dims</text>
</a>
</g>
</g>
<!-- Node1&#45;&gt;Node30 -->
<g id="edge37_Node000001_Node000030" class="edge">
<title>Node1&#45;&gt;Node30</title>
<g id="a_edge37_Node000001_Node000030"><a xlink:title=" ">
<path fill="none" stroke="#63b8ff" d="M94.82,-329.96C124.11,-312.91 172.02,-285.01 204.49,-266.09"/>
<polygon fill="#63b8ff" stroke="#63b8ff" points="206.34,-269.07 213.22,-261.01 202.81,-263.02 206.34,-269.07"/>
</a>
</g>
</g>
<!-- Node33 -->
<g id="Node000033" class="node">
<title>Node33</title>
<g id="a_Node000033"><a xlink:href="classMayaFlux_1_1Portal_1_1Forma_1_1Surface_a4e6ecdf8a69c8a139b4bba050ab6803d.html#a4e6ecdf8a69c8a139b4bba050ab6803d" target="_top" xlink:title="Access the rendering target window.">
<polygon fill="white" stroke="#666666" points="308,-213 172,-213 172,-183 308,-183 308,-213"/>
<text text-anchor="start" x="180" y="-201" font-family="Helvetica,sans-Serif" font-size="10.00">MayaFlux::Portal::Forma</text>
<text text-anchor="middle" x="240" y="-190" font-family="Helvetica,sans-Serif" font-size="10.00">::Surface::window</text>
</a>
</g>
</g>
<!-- Node1&#45;&gt;Node33 -->
<g id="edge40_Node000001_Node000033" class="edge">
<title>Node1&#45;&gt;Node33</title>
<g id="a_edge40_Node000001_Node000033"><a xlink:title=" ">
<path fill="none" stroke="#63b8ff" d="M77.85,-329.91C93.63,-304.24 129.05,-251.95 172,-222 174.13,-220.52 176.36,-219.11 178.66,-217.79"/>
<polygon fill="#63b8ff" stroke="#63b8ff" points="180.53,-220.76 187.82,-213.07 177.33,-214.54 180.53,-220.76"/>
</a>
</g>
</g>
<!-- Node4 -->
<g id="Node000004" class="node">
<title>Node4</title>
<g id="a_Node000004"><a xlink:href="classMayaFlux_1_1Buffers_1_1BufferManager_af51cd72c5f1d259a03a3e82371e55bab.html#af51cd72c5f1d259a03a3e82371e55bab" target="_top" xlink:title="Adds a buffer to a token and channel.">
<polygon fill="white" stroke="#666666" points="678,-684 532,-684 532,-654 678,-654 678,-684"/>
<text text-anchor="start" x="540" y="-672" font-family="Helvetica,sans-Serif" font-size="10.00">MayaFlux::Buffers::</text>
<text text-anchor="middle" x="605" y="-661" font-family="Helvetica,sans-Serif" font-size="10.00">BufferManager::add_buffer</text>
</a>
</g>
</g>
<!-- Node3&#45;&gt;Node4 -->
<g id="edge3_Node000003_Node000004" class="edge">
<title>Node3&#45;&gt;Node4</title>
<g id="a_edge3_Node000003_Node000004"><a xlink:title=" ">
<path fill="none" stroke="#63b8ff" d="M466,-617.51C486.04,-626.37 510.03,-636.61 532,-645 537,-646.91 542.23,-648.82 547.48,-650.68"/>
<polygon fill="#63b8ff" stroke="#63b8ff" points="546.33,-653.98 556.93,-653.96 548.63,-647.37 546.33,-653.98"/>
</a>
</g>
</g>
<!-- Node5 -->
<g id="Node000005" class="node">
<title>Node5</title>
<g id="a_Node000005"><a xlink:href="structMayaFlux_1_1Kakshya_1_1VertexLayout_a7b7a30b2a13cb2676713a352f298f607.html#a7b7a30b2a13cb2676713a352f298f607" target="_top" xlink:title="Factory: layout for MeshVertex (position, color, weight, uv, normal, tangent)">
<polygon fill="white" stroke="#666666" points="677,-588 533,-588 533,-558 677,-558 677,-588"/>
<text text-anchor="start" x="541" y="-576" font-family="Helvetica,sans-Serif" font-size="10.00">MayaFlux::Kakshya::</text>
<text text-anchor="middle" x="605" y="-565" font-family="Helvetica,sans-Serif" font-size="10.00">VertexLayout::for_meshes</text>
</a>
</g>
</g>
<!-- Node3&#45;&gt;Node5 -->
<g id="edge4_Node000003_Node000005" class="edge">
<title>Node3&#45;&gt;Node5</title>
<g id="a_edge4_Node000003_Node000005"><a xlink:title=" ">
<path fill="none" stroke="#63b8ff" d="M488.1,-588.2C499.39,-586.72 511.2,-585.17 522.79,-583.65"/>
<polygon fill="#63b8ff" stroke="#63b8ff" points="523.45,-587.09 532.91,-582.32 522.54,-580.15 523.45,-587.09"/>
</a>
</g>
</g>
<!-- Node6 -->
<g id="Node000006" class="node">
<title>Node6</title>
<g id="a_Node000006"><a xlink:href="namespaceMayaFlux_1_1Portal_1_1Text_a71c27b0dcd02ac59fe97eb2acbac7053.html#a71c27b0dcd02ac59fe97eb2acbac7053" target="_top" xlink:title="Composite a UTF&#45;8 string into a new TextBuffer.">
<polygon fill="white" stroke="#666666" points="667.5,-636 542.5,-636 542.5,-606 667.5,-606 667.5,-636"/>
<text text-anchor="start" x="550.5" y="-624" font-family="Helvetica,sans-Serif" font-size="10.00">MayaFlux::Portal::Text</text>
<text text-anchor="middle" x="605" y="-613" font-family="Helvetica,sans-Serif" font-size="10.00">::press</text>
</a>
</g>
</g>
<!-- Node3&#45;&gt;Node6 -->
<g id="edge5_Node000003_Node000006" class="edge">
<title>Node3&#45;&gt;Node6</title>
<g id="a_edge5_Node000003_Node000006"><a xlink:title=" ">
<path fill="none" stroke="#63b8ff" d="M488.1,-605.8C502.52,-607.69 517.82,-609.7 532.4,-611.61"/>
<polygon fill="#63b8ff" stroke="#63b8ff" points="532,-615.09 542.37,-612.92 532.91,-608.15 532,-615.09"/>
</a>
</g>
</g>
<!-- Node7 -->
<g id="Node000007" class="node">
<title>Node7</title>
<g id="a_Node000007"><a xlink:href="classMayaFlux_1_1Portal_1_1Text_1_1GlyphAtlas_abcf654455e02ba66cb60f60dc3aa6880.html#abcf654455e02ba66cb60f60dc3aa6880" target="_top" xlink:title="Line advance in pixels for this atlas&#39;s pixel_size.">
<polygon fill="white" stroke="#666666" points="857.5,-588 721.5,-588 721.5,-558 857.5,-558 857.5,-588"/>
<text text-anchor="start" x="729.5" y="-576" font-family="Helvetica,sans-Serif" font-size="10.00">MayaFlux::Portal::Text</text>
<text text-anchor="middle" x="789.5" y="-565" font-family="Helvetica,sans-Serif" font-size="10.00">::GlyphAtlas::line_height</text>
</a>
</g>
</g>
<!-- Node6&#45;&gt;Node7 -->
<g id="edge6_Node000006_Node000007" class="edge">
<title>Node6&#45;&gt;Node7</title>
<g id="a_edge6_Node000006_Node000007"><a xlink:title=" ">
<path fill="none" stroke="#63b8ff" d="M663.24,-605.94C681.76,-601.07 702.45,-595.63 721.61,-590.59"/>
<polygon fill="#63b8ff" stroke="#63b8ff" points="722.68,-593.93 731.46,-588 720.9,-587.16 722.68,-593.93"/>
</a>
</g>
</g>
<!-- Node8 -->
<g id="Node000008" class="node">
<title>Node8</title>
<g id="a_Node000008"><a xlink:href="classMayaFlux_1_1Portal_1_1Text_1_1FontFace_accda82c104b9bee41559e89f118f5e5f.html#accda82c104b9bee41559e89f118f5e5f" target="_top" xlink:title="Raw FT_Face handle for use by GlyphAtlas.">
<polygon fill="white" stroke="#666666" points="1026,-588 901,-588 901,-558 1026,-558 1026,-588"/>
<text text-anchor="start" x="909" y="-576" font-family="Helvetica,sans-Serif" font-size="10.00">MayaFlux::Portal::Text</text>
<text text-anchor="middle" x="963.5" y="-565" font-family="Helvetica,sans-Serif" font-size="10.00">::FontFace::get_face</text>
</a>
</g>
</g>
<!-- Node7&#45;&gt;Node8 -->
<g id="edge7_Node000007_Node000008" class="edge">
<title>Node7&#45;&gt;Node8</title>
<g id="a_edge7_Node000007_Node000008"><a xlink:title=" ">
<path fill="none" stroke="#63b8ff" d="M857.99,-573C868.68,-573 879.78,-573 890.58,-573"/>
<polygon fill="#63b8ff" stroke="#63b8ff" points="890.81,-576.5 900.81,-573 890.81,-569.5 890.81,-576.5"/>
</a>
</g>
</g>
<!-- Node10 -->
<g id="Node000010" class="node">
<title>Node10</title>
<g id="a_Node000010"><a xlink:href="structMayaFlux_1_1Portal_1_1Forma_1_1Collapsible_a380b87d16d450af712d06e8ca36ed35f.html#a380b87d16d450af712d06e8ca36ed35f" target="_top" xlink:title=" ">
<polygon fill="white" stroke="#666666" points="491.5,-288 348.5,-288 348.5,-258 491.5,-258 491.5,-288"/>
<text text-anchor="start" x="356.5" y="-276" font-family="Helvetica,sans-Serif" font-size="10.00">MayaFlux::Portal::Forma</text>
<text text-anchor="middle" x="420" y="-265" font-family="Helvetica,sans-Serif" font-size="10.00">::Collapsible::closed_color</text>
</a>
</g>
</g>
<!-- Node9&#45;&gt;Node10 -->
<g id="edge9_Node000009_Node000010" class="edge">
<title>Node9&#45;&gt;Node10</title>
<g id="a_edge9_Node000009_Node000010"><a xlink:title=" ">
<path fill="none" stroke="#63b8ff" d="M270.76,-329.91C291.1,-319.9 318.83,-306.85 344,-297 349.01,-295.04 354.26,-293.11 359.55,-291.26"/>
<polygon fill="#63b8ff" stroke="#63b8ff" points="360.74,-294.55 369.07,-288 358.47,-287.93 360.74,-294.55"/>
</a>
</g>
</g>
<!-- Node11 -->
<g id="Node000011" class="node">
<title>Node11</title>
<g id="a_Node000011"><a xlink:href="structMayaFlux_1_1Portal_1_1Forma_1_1Collapsible_accb3621ef8c5a03cd932f7afabc35113.html#accb3621ef8c5a03cd932f7afabc35113" target="_top" xlink:title=" ">
<polygon fill="white" stroke="#666666" points="494.5,-240 345.5,-240 345.5,-210 494.5,-210 494.5,-240"/>
<text text-anchor="start" x="353.5" y="-228" font-family="Helvetica,sans-Serif" font-size="10.00">MayaFlux::Portal::Forma</text>
<text text-anchor="middle" x="420" y="-217" font-family="Helvetica,sans-Serif" font-size="10.00">::Collapsible::initially_open</text>
</a>
</g>
</g>
<!-- Node9&#45;&gt;Node11 -->
<g id="edge10_Node000009_Node000011" class="edge">
<title>Node9&#45;&gt;Node11</title>
<g id="a_edge10_Node000009_Node000011"><a xlink:title=" ">
<path fill="none" stroke="#63b8ff" d="M253.4,-329.82C271.33,-308.82 306.46,-271 344,-249 346.98,-247.25 350.1,-245.62 353.31,-244.09"/>
<polygon fill="#63b8ff" stroke="#63b8ff" points="354.77,-247.27 362.53,-240.06 351.96,-240.86 354.77,-247.27"/>
</a>
</g>
</g>
<!-- Node12 -->
<g id="Node000012" class="node">
<title>Node12</title>
<g id="a_Node000012"><a xlink:href="structMayaFlux_1_1Portal_1_1Forma_1_1Collapsible_a88052ad6b5f9e6263cd21d7cd5da848f.html#a88052ad6b5f9e6263cd21d7cd5da848f" target="_top" xlink:title="Attach a GPU image overlaid on the header as a text label.">
<polygon fill="white" stroke="#666666" points="488,-518 352,-518 352,-488 488,-488 488,-518"/>
<text text-anchor="start" x="360" y="-506" font-family="Helvetica,sans-Serif" font-size="10.00">MayaFlux::Portal::Forma</text>
<text text-anchor="middle" x="420" y="-495" font-family="Helvetica,sans-Serif" font-size="10.00">::Collapsible::label</text>
</a>
</g>
</g>
<!-- Node9&#45;&gt;Node12 -->
<g id="edge11_Node000009_Node000012" class="edge">
<title>Node9&#45;&gt;Node12</title>
<g id="a_edge11_Node000009_Node000012"><a xlink:title=" ">
<path fill="none" stroke="#63b8ff" d="M289.6,-360.15C296.41,-363.86 302.84,-368.42 308,-374 341.49,-410.22 308.76,-444.48 344,-479 345.1,-480.08 346.25,-481.1 347.43,-482.09"/>
<polygon fill="#63b8ff" stroke="#63b8ff" points="345.61,-485.08 355.82,-487.92 349.61,-479.34 345.61,-485.08"/>
</a>
</g>
</g>
<!-- Node13 -->
<g id="Node000013" class="node">
<title>Node13</title>
<g id="a_Node000013"><a xlink:href="classMayaFlux_1_1Portal_1_1Forma_1_1Surface_a75c1be61d11b8a157158eee48c4e5992.html#a75c1be61d11b8a157158eee48c4e5992" target="_top" xlink:title="Access the spatial registry.">
<polygon fill="white" stroke="#666666" points="673,-492 537,-492 537,-462 673,-462 673,-492"/>
<text text-anchor="start" x="545" y="-480" font-family="Helvetica,sans-Serif" font-size="10.00">MayaFlux::Portal::Forma</text>
<text text-anchor="middle" x="605" y="-469" font-family="Helvetica,sans-Serif" font-size="10.00">::Surface::layer</text>
</a>
</g>
</g>
<!-- Node9&#45;&gt;Node13 -->
<g id="edge12_Node000009_Node000013" class="edge">
<title>Node9&#45;&gt;Node13</title>
<g id="a_edge12_Node000009_Node000013"><a xlink:title=" ">
<path fill="none" stroke="#63b8ff" d="M277.39,-360.15C287.38,-364.47 298.17,-369.29 308,-374 324.31,-381.82 327.1,-386.54 344,-393 409.04,-417.88 431.77,-404.09 496,-431 513.29,-438.25 515,-445.1 532,-453 536.01,-454.86 540.2,-456.65 544.46,-458.35"/>
<polygon fill="#63b8ff" stroke="#63b8ff" points="543.26,-461.63 553.85,-461.92 545.75,-455.09 543.26,-461.63"/>
</a>
</g>
</g>
<!-- Node14 -->
<g id="Node000014" class="node">
<title>Node14</title>
<g id="a_Node000014"><a xlink:href="namespaceMayaFlux_1_1Portal_1_1Forma_a907a8160c00b52ab0f72dd2e7711e0cd.html#a907a8160c00b52ab0f72dd2e7711e0cd" target="_top" xlink:title="Construct one labeled value row, advance the cursor, and return it.">
<polygon fill="white" stroke="#666666" points="488,-384 352,-384 352,-354 488,-354 488,-384"/>
<text text-anchor="start" x="360" y="-372" font-family="Helvetica,sans-Serif" font-size="10.00">MayaFlux::Portal::Forma</text>
<text text-anchor="middle" x="420" y="-361" font-family="Helvetica,sans-Serif" font-size="10.00">::make_value_row</text>
</a>
</g>
</g>
<!-- Node9&#45;&gt;Node14 -->
<g id="edge13_Node000009_Node000014" class="edge">
<title>Node9&#45;&gt;Node14</title>
<g id="a_edge13_Node000009_Node000014"><a xlink:title=" ">
<path fill="none" stroke="#63b8ff" d="M308.04,-354.04C318.98,-355.51 330.39,-357.05 341.56,-358.56"/>
<polygon fill="#63b8ff" stroke="#63b8ff" points="341.35,-362.06 351.72,-359.93 342.28,-355.12 341.35,-362.06"/>
</a>
</g>
</g>
<!-- Node22 -->
<g id="Node000022" class="node">
<title>Node22</title>
<g id="a_Node000022"><a xlink:href="structMayaFlux_1_1Portal_1_1Forma_1_1Collapsible_a8497a27c58c543ef3b0434538ff73cfe.html#a8497a27c58c543ef3b0434538ff73cfe" target="_top" xlink:title=" ">
<polygon fill="white" stroke="#666666" points="488,-470 352,-470 352,-440 488,-440 488,-470"/>
<text text-anchor="start" x="360" y="-458" font-family="Helvetica,sans-Serif" font-size="10.00">MayaFlux::Portal::Forma</text>
<text text-anchor="middle" x="420" y="-447" font-family="Helvetica,sans-Serif" font-size="10.00">::Collapsible::open_color</text>
</a>
</g>
</g>
<!-- Node9&#45;&gt;Node22 -->
<g id="edge24_Node000009_Node000022" class="edge">
<title>Node9&#45;&gt;Node22</title>
<g id="a_edge24_Node000009_Node000022"><a xlink:title=" ">
<path fill="none" stroke="#63b8ff" d="M285.55,-360.11C293.48,-363.93 301.34,-368.53 308,-374 329.73,-391.82 321.92,-408.61 344,-426 348.39,-429.45 353.23,-432.54 358.29,-435.28"/>
<polygon fill="#63b8ff" stroke="#63b8ff" points="357.05,-438.57 367.56,-439.86 360.15,-432.29 357.05,-438.57"/>
</a>
</g>
</g>
<!-- Node23 -->
<g id="Node000023" class="node">
<title>Node23</title>
<g id="a_Node000023"><a xlink:href="structMayaFlux_1_1Portal_1_1Forma_1_1Collapsible_aa488320153c36924e2e82312d3b36eb1.html#aa488320153c36924e2e82312d3b36eb1" target="_top" xlink:title="Register the header element and wire the toggle callback.">
<polygon fill="white" stroke="#666666" points="488,-336 352,-336 352,-306 488,-306 488,-336"/>
<text text-anchor="start" x="360" y="-324" font-family="Helvetica,sans-Serif" font-size="10.00">MayaFlux::Portal::Forma</text>
<text text-anchor="middle" x="420" y="-313" font-family="Helvetica,sans-Serif" font-size="10.00">::Collapsible::place</text>
</a>
</g>
</g>
<!-- Node9&#45;&gt;Node23 -->
<g id="edge25_Node000009_Node000023" class="edge">
<title>Node9&#45;&gt;Node23</title>
<g id="a_edge25_Node000009_Node000023"><a xlink:title=" ">
<path fill="none" stroke="#63b8ff" d="M308.04,-335.96C318.98,-334.49 330.39,-332.95 341.56,-331.44"/>
<polygon fill="#63b8ff" stroke="#63b8ff" points="342.28,-334.88 351.72,-330.07 341.35,-327.94 342.28,-334.88"/>
</a>
</g>
</g>
<!-- Node14&#45;&gt;Node5 -->
<g id="edge19_Node000014_Node000005" class="edge">
<title>Node14&#45;&gt;Node5</title>
<g id="a_edge19_Node000014_Node000005"><a xlink:title=" ">
<path fill="none" stroke="#63b8ff" d="M445.87,-384.01C462.28,-395.1 483.07,-411.6 496,-431 526.42,-476.62 493.73,-509.73 532,-549 532.93,-549.96 533.9,-550.87 534.91,-551.75"/>
<polygon fill="#63b8ff" stroke="#63b8ff" points="533.07,-554.74 543.21,-557.82 537.2,-549.09 533.07,-554.74"/>
</a>
</g>
</g>
<!-- Node14&#45;&gt;Node13 -->
<g id="edge20_Node000014_Node000013" class="edge">
<title>Node14&#45;&gt;Node13</title>
<g id="a_edge20_Node000014_Node000013"><a xlink:title=" ">
<path fill="none" stroke="#63b8ff" d="M472.95,-384.16C481.15,-387.9 489.16,-392.47 496,-398 518.72,-416.37 508.86,-435.17 532,-453 533.82,-454.4 535.73,-455.73 537.71,-456.98"/>
<polygon fill="#63b8ff" stroke="#63b8ff" points="536.29,-460.19 546.73,-461.99 539.69,-454.07 536.29,-460.19"/>
</a>
</g>
</g>
<!-- Node15 -->
<g id="Node000015" class="node">
<title>Node15</title>
<g id="a_Node000015"><a xlink:href="classMayaFlux_1_1Portal_1_1Forma_1_1Layer_ad60e0b647ec7b8f3cab248eb7b771af9.html#ad60e0b647ec7b8f3cab248eb7b771af9" target="_top" xlink:title="Add an element to the layer.">
<polygon fill="white" stroke="#666666" points="673,-384 537,-384 537,-354 673,-354 673,-384"/>
<text text-anchor="start" x="545" y="-372" font-family="Helvetica,sans-Serif" font-size="10.00">MayaFlux::Portal::Forma</text>
<text text-anchor="middle" x="605" y="-361" font-family="Helvetica,sans-Serif" font-size="10.00">::Layer::add</text>
</a>
</g>
</g>
<!-- Node14&#45;&gt;Node15 -->
<g id="edge14_Node000014_Node000015" class="edge">
<title>Node14&#45;&gt;Node15</title>
<g id="a_edge14_Node000014_Node000015"><a xlink:title=" ">
<path fill="none" stroke="#63b8ff" d="M488.1,-369C500.66,-369 513.88,-369 526.71,-369"/>
<polygon fill="#63b8ff" stroke="#63b8ff" points="526.9,-372.5 536.9,-369 526.9,-365.5 526.9,-372.5"/>
</a>
</g>
</g>
<!-- Node16 -->
<g id="Node000016" class="node">
<title>Node16</title>
<g id="a_Node000016"><a xlink:href="classMayaFlux_1_1Portal_1_1Forma_1_1LayoutCursor_aceb0d4953387c267513e1ecaba767f36.html#aceb0d4953387c267513e1ecaba767f36" target="_top" xlink:title="Advance the cursor downward by height and return the NDC AABB occupied by the primitive just placed.">
<polygon fill="white" stroke="#666666" points="673,-288 537,-288 537,-258 673,-258 673,-288"/>
<text text-anchor="start" x="545" y="-276" font-family="Helvetica,sans-Serif" font-size="10.00">MayaFlux::Portal::Forma</text>
<text text-anchor="middle" x="605" y="-265" font-family="Helvetica,sans-Serif" font-size="10.00">::LayoutCursor::advance</text>
</a>
</g>
</g>
<!-- Node14&#45;&gt;Node16 -->
<g id="edge15_Node000014_Node000016" class="edge">
<title>Node14&#45;&gt;Node16</title>
<g id="a_edge15_Node000014_Node000016"><a xlink:title=" ">
<path fill="none" stroke="#63b8ff" d="M480.42,-353.88C485.91,-351.35 491.21,-348.41 496,-345 517.73,-329.54 510.37,-312.59 532,-297 534.06,-295.52 536.21,-294.12 538.44,-292.81"/>
<polygon fill="#63b8ff" stroke="#63b8ff" points="540.1,-295.89 547.33,-288.14 536.85,-289.69 540.1,-295.89"/>
</a>
</g>
</g>
<!-- Node17 -->
<g id="Node000017" class="node">
<title>Node17</title>
<g id="a_Node000017"><a xlink:href="namespaceMayaFlux_1_1Buffers_a18cd4cb90edc64b2da0254917a13bfe3.html#a18cd4cb90edc64b2da0254917a13bfe3" target="_top" xlink:title="Allocate a persistent host&#45;visible staging buffer sized for repeated streaming uploads to an image of...">
<polygon fill="white" stroke="#666666" points="667.5,-443.5 542.5,-443.5 542.5,-402.5 667.5,-402.5 667.5,-443.5"/>
<text text-anchor="start" x="550.5" y="-431.5" font-family="Helvetica,sans-Serif" font-size="10.00">MayaFlux::Buffers::</text>
<text text-anchor="start" x="550.5" y="-420.5" font-family="Helvetica,sans-Serif" font-size="10.00">create_image_staging</text>
<text text-anchor="middle" x="605" y="-409.5" font-family="Helvetica,sans-Serif" font-size="10.00">_buffer</text>
</a>
</g>
</g>
<!-- Node14&#45;&gt;Node17 -->
<g id="edge16_Node000014_Node000017" class="edge">
<title>Node14&#45;&gt;Node17</title>
<g id="a_edge16_Node000014_Node000017"><a xlink:title=" ">
<path fill="none" stroke="#63b8ff" d="M471.98,-384.04C490.7,-389.57 512.26,-395.93 532.45,-401.89"/>
<polygon fill="#63b8ff" stroke="#63b8ff" points="531.66,-405.3 542.24,-404.78 533.64,-398.59 531.66,-405.3"/>
</a>
</g>
</g>
<!-- Node20 -->
<g id="Node000020" class="node">
<title>Node20</title>
<g id="a_Node000020"><a xlink:href="namespaceMayaFlux_1_1Portal_1_1Text_a6480718359b5f4bcb74f0cdcf475a0da.html#a6480718359b5f4bcb74f0cdcf475a0da" target="_top" xlink:title="Re&#45;composite a UTF&#45;8 string into an existing TextBuffer.">
<polygon fill="white" stroke="#666666" points="667.5,-540 542.5,-540 542.5,-510 667.5,-510 667.5,-540"/>
<text text-anchor="start" x="550.5" y="-528" font-family="Helvetica,sans-Serif" font-size="10.00">MayaFlux::Portal::Text</text>
<text text-anchor="middle" x="605" y="-517" font-family="Helvetica,sans-Serif" font-size="10.00">::repress</text>
</a>
</g>
</g>
<!-- Node14&#45;&gt;Node20 -->
<g id="edge21_Node000014_Node000020" class="edge">
<title>Node14&#45;&gt;Node20</title>
<g id="a_edge21_Node000014_Node000020"><a xlink:title=" ">
<path fill="none" stroke="#63b8ff" d="M443.77,-384.06C459.83,-395.52 481.07,-412.44 496,-431 517.93,-458.26 505.44,-478.23 532,-501 533.5,-502.29 535.07,-503.5 536.7,-504.66"/>
<polygon fill="#63b8ff" stroke="#63b8ff" points="534.91,-507.67 545.27,-509.9 538.57,-501.7 534.91,-507.67"/>
</a>
</g>
</g>
<!-- Node21 -->
<g id="Node000021" class="node">
<title>Node21</title>
<g id="a_Node000021"><a xlink:href="classMayaFlux_1_1Portal_1_1Forma_1_1LayoutCursor_ad15e0e35509aefa2dadcdb6526727695.html#ad15e0e35509aefa2dadcdb6526727695" target="_top" xlink:title=" ">
<polygon fill="white" stroke="#666666" points="673,-336 537,-336 537,-306 673,-306 673,-336"/>
<text text-anchor="start" x="545" y="-324" font-family="Helvetica,sans-Serif" font-size="10.00">MayaFlux::Portal::Forma</text>
<text text-anchor="middle" x="605" y="-313" font-family="Helvetica,sans-Serif" font-size="10.00">::LayoutCursor::y</text>
</a>
</g>
</g>
<!-- Node14&#45;&gt;Node21 -->
<g id="edge23_Node000014_Node000021" class="edge">
<title>Node14&#45;&gt;Node21</title>
<g id="a_edge23_Node000014_Node000021"><a xlink:title=" ">
<path fill="none" stroke="#63b8ff" d="M478.4,-353.94C496.97,-349.07 517.72,-343.63 536.92,-338.59"/>
<polygon fill="#63b8ff" stroke="#63b8ff" points="538.02,-341.93 546.8,-336 536.24,-335.15 538.02,-341.93"/>
</a>
</g>
</g>
<!-- Node18 -->
<g id="Node000018" class="node">
<title>Node18</title>
<g id="a_Node000018"><a xlink:href="classMayaFlux_1_1Registry_1_1BackendRegistry_a0c7a59c0847791ed0915dcd64e8df783.html#a0c7a59c0847791ed0915dcd64e8df783" target="_top" xlink:title="Query for a backend service.">
<polygon fill="white" stroke="#666666" points="852,-467.5 727,-467.5 727,-426.5 852,-426.5 852,-467.5"/>
<text text-anchor="start" x="735" y="-455.5" font-family="Helvetica,sans-Serif" font-size="10.00">MayaFlux::Registry</text>
<text text-anchor="start" x="735" y="-444.5" font-family="Helvetica,sans-Serif" font-size="10.00">::BackendRegistry::get</text>
<text text-anchor="middle" x="789.5" y="-433.5" font-family="Helvetica,sans-Serif" font-size="10.00">_service</text>
</a>
</g>
</g>
<!-- Node17&#45;&gt;Node18 -->
<g id="edge17_Node000017_Node000018" class="edge">
<title>Node17&#45;&gt;Node18</title>
<g id="a_edge17_Node000017_Node000018"><a xlink:title=" ">
<path fill="none" stroke="#63b8ff" d="M667.53,-431.09C683.39,-433.18 700.58,-435.44 716.9,-437.58"/>
<polygon fill="#63b8ff" stroke="#63b8ff" points="716.55,-441.07 726.93,-438.9 717.47,-434.13 716.55,-441.07"/>
</a>
</g>
</g>
<!-- Node19 -->
<g id="Node000019" class="node">
<title>Node19</title>
<g id="a_Node000019"><a xlink:href="classMayaFlux_1_1Registry_1_1BackendRegistry_aa28c6f5592e5893508bafb62aefcc496.html#aa28c6f5592e5893508bafb62aefcc496" target="_top" xlink:title="Get the global registry instance.">
<polygon fill="white" stroke="#666666" points="865,-408 714,-408 714,-378 865,-378 865,-408"/>
<text text-anchor="start" x="722" y="-396" font-family="Helvetica,sans-Serif" font-size="10.00">MayaFlux::Registry</text>
<text text-anchor="middle" x="789.5" y="-385" font-family="Helvetica,sans-Serif" font-size="10.00">::BackendRegistry::instance</text>
</a>
</g>
</g>
<!-- Node17&#45;&gt;Node19 -->
<g id="edge18_Node000017_Node000019" class="edge">
<title>Node17&#45;&gt;Node19</title>
<g id="a_edge18_Node000017_Node000019"><a xlink:title=" ">
<path fill="none" stroke="#63b8ff" d="M667.53,-412.89C679.17,-410.97 691.54,-408.94 703.75,-406.93"/>
<polygon fill="#63b8ff" stroke="#63b8ff" points="704.65,-410.33 713.95,-405.25 703.51,-403.42 704.65,-410.33"/>
</a>
</g>
</g>
<!-- Node20&#45;&gt;Node7 -->
<g id="edge22_Node000020_Node000007" class="edge">
<title>Node20&#45;&gt;Node7</title>
<g id="a_edge22_Node000020_Node000007"><a xlink:title=" ">
<path fill="none" stroke="#63b8ff" d="M663.24,-540.06C681.76,-544.93 702.45,-550.37 721.61,-555.41"/>
<polygon fill="#63b8ff" stroke="#63b8ff" points="720.9,-558.84 731.46,-558 722.68,-552.07 720.9,-558.84"/>
</a>
</g>
</g>
<!-- Node23&#45;&gt;Node13 -->
<g id="edge29_Node000023_Node000013" class="edge">
<title>Node23&#45;&gt;Node13</title>
<g id="a_edge29_Node000023_Node000013"><a xlink:title=" ">
<path fill="none" stroke="#63b8ff" d="M484.21,-336.05C488.5,-338.58 492.5,-341.54 496,-345 531.99,-380.56 496.22,-417.22 532,-453 533.08,-454.08 534.2,-455.11 535.37,-456.09"/>
<polygon fill="#63b8ff" stroke="#63b8ff" points="533.46,-459.02 543.65,-461.93 537.49,-453.3 533.46,-459.02"/>
</a>
</g>
</g>
<!-- Node23&#45;&gt;Node15 -->
<g id="edge26_Node000023_Node000015" class="edge">
<title>Node23&#45;&gt;Node15</title>
<g id="a_edge26_Node000023_Node000015"><a xlink:title=" ">
<path fill="none" stroke="#63b8ff" d="M478.4,-336.06C496.97,-340.93 517.72,-346.37 536.92,-351.41"/>
<polygon fill="#63b8ff" stroke="#63b8ff" points="536.24,-354.85 546.8,-354 538.02,-348.07 536.24,-354.85"/>
</a>
</g>
</g>
<!-- Node23&#45;&gt;Node16 -->
<g id="edge27_Node000023_Node000016" class="edge">
<title>Node23&#45;&gt;Node16</title>
<g id="a_edge27_Node000023_Node000016"><a xlink:title=" ">
<path fill="none" stroke="#63b8ff" d="M478.4,-305.94C496.97,-301.07 517.72,-295.63 536.92,-290.59"/>
<polygon fill="#63b8ff" stroke="#63b8ff" points="538.02,-293.93 546.8,-288 536.24,-287.15 538.02,-293.93"/>
</a>
</g>
</g>
<!-- Node23&#45;&gt;Node21 -->
<g id="edge36_Node000023_Node000021" class="edge">
<title>Node23&#45;&gt;Node21</title>
<g id="a_edge36_Node000023_Node000021"><a xlink:title=" ">
<path fill="none" stroke="#63b8ff" d="M488.1,-321C500.66,-321 513.88,-321 526.71,-321"/>
<polygon fill="#63b8ff" stroke="#63b8ff" points="526.9,-324.5 536.9,-321 526.9,-317.5 526.9,-324.5"/>
</a>
</g>
</g>
<!-- Node24 -->
<g id="Node000024" class="node">
<title>Node24</title>
<g id="a_Node000024"><a xlink:href="classMayaFlux_1_1Portal_1_1Forma_1_1Surface_a59632cf950ca32272134390bb45ee7ab.html#a59632cf950ca32272134390bb45ee7ab" target="_top" xlink:title="Access the event router.">
<polygon fill="white" stroke="#666666" points="673,-192 537,-192 537,-162 673,-162 673,-192"/>
<text text-anchor="start" x="545" y="-180" font-family="Helvetica,sans-Serif" font-size="10.00">MayaFlux::Portal::Forma</text>
<text text-anchor="middle" x="605" y="-169" font-family="Helvetica,sans-Serif" font-size="10.00">::Surface::ctx</text>
</a>
</g>
</g>
<!-- Node23&#45;&gt;Node24 -->
<g id="edge28_Node000023_Node000024" class="edge">
<title>Node23&#45;&gt;Node24</title>
<g id="a_edge28_Node000023_Node000024"><a xlink:title=" ">
<path fill="none" stroke="#63b8ff" d="M484.07,-305.81C488.39,-303.31 492.44,-300.39 496,-297 529,-265.58 499.19,-232.62 532,-201 533.13,-199.91 534.3,-198.88 535.52,-197.89"/>
<polygon fill="#63b8ff" stroke="#63b8ff" points="537.85,-200.54 544.13,-192.01 533.9,-194.76 537.85,-200.54"/>
</a>
</g>
</g>
<!-- Node25 -->
<g id="Node000025" class="node">
<title>Node25</title>
<g id="a_Node000025"><a xlink:href="classMayaFlux_1_1Portal_1_1Forma_1_1Context_ad0761e5a7699167e0151d2a97fe89a2c.html#ad0761e5a7699167e0151d2a97fe89a2c" target="_top" xlink:title="Called when a mouse button is pressed over an element.">
<polygon fill="white" stroke="#666666" points="673,-30 537,-30 537,0 673,0 673,-30"/>
<text text-anchor="start" x="545" y="-18" font-family="Helvetica,sans-Serif" font-size="10.00">MayaFlux::Portal::Forma</text>
<text text-anchor="middle" x="605" y="-7" font-family="Helvetica,sans-Serif" font-size="10.00">::Context::on_press</text>
</a>
</g>
</g>
<!-- Node23&#45;&gt;Node25 -->
<g id="edge30_Node000023_Node000025" class="edge">
<title>Node23&#45;&gt;Node25</title>
<g id="a_edge30_Node000023_Node000025"><a xlink:title=" ">
<path fill="none" stroke="#63b8ff" d="M485.97,-305.95C489.69,-303.41 493.09,-300.45 496,-297 570.57,-208.44 457.96,-128.01 532,-39 532.72,-38.14 533.46,-37.31 534.24,-36.51"/>
<polygon fill="#63b8ff" stroke="#63b8ff" points="536.51,-39.17 541.94,-30.07 532.02,-33.8 536.51,-39.17"/>
</a>
</g>
</g>
<!-- Node26 -->
<g id="Node000026" class="node">
<title>Node26</title>
<g id="a_Node000026"><a xlink:href="classMayaFlux_1_1Portal_1_1Forma_1_1Layer_a6e754bd6d21a776d1094d585cf027dda.html#a6e754bd6d21a776d1094d585cf027dda" target="_top" xlink:title="Return the ids related to primary_id, or empty if none.">
<polygon fill="white" stroke="#666666" points="673,-78 537,-78 537,-48 673,-48 673,-78"/>
<text text-anchor="start" x="545" y="-66" font-family="Helvetica,sans-Serif" font-size="10.00">MayaFlux::Portal::Forma</text>
<text text-anchor="middle" x="605" y="-55" font-family="Helvetica,sans-Serif" font-size="10.00">::Layer::related_ids</text>
</a>
</g>
</g>
<!-- Node23&#45;&gt;Node26 -->
<g id="edge31_Node000023_Node000026" class="edge">
<title>Node23&#45;&gt;Node26</title>
<g id="a_edge31_Node000023_Node000026"><a xlink:title=" ">
<path fill="none" stroke="#63b8ff" d="M485.85,-305.85C489.6,-303.33 493.04,-300.41 496,-297 558.11,-225.52 470.32,-158.85 532,-87 532.73,-86.15 533.49,-85.33 534.28,-84.54"/>
<polygon fill="#63b8ff" stroke="#63b8ff" points="536.53,-87.22 542.06,-78.17 532.1,-81.8 536.53,-87.22"/>
</a>
</g>
</g>
<!-- Node27 -->
<g id="Node000027" class="node">
<title>Node27</title>
<g id="a_Node000027"><a xlink:href="classMayaFlux_1_1Portal_1_1Forma_1_1Layer_a216ba1e08aa5782474bc89594fa5ccad.html#a216ba1e08aa5782474bc89594fa5ccad" target="_top" xlink:title=" ">
<polygon fill="white" stroke="#666666" points="673,-126 537,-126 537,-96 673,-96 673,-126"/>
<text text-anchor="start" x="545" y="-114" font-family="Helvetica,sans-Serif" font-size="10.00">MayaFlux::Portal::Forma</text>
<text text-anchor="middle" x="605" y="-103" font-family="Helvetica,sans-Serif" font-size="10.00">::Layer::set_visible</text>
</a>
</g>
</g>
<!-- Node23&#45;&gt;Node27 -->
<g id="edge32_Node000023_Node000027" class="edge">
<title>Node23&#45;&gt;Node27</title>
<g id="a_edge32_Node000023_Node000027"><a xlink:title=" ">
<path fill="none" stroke="#63b8ff" d="M485.21,-305.81C489.16,-303.31 492.82,-300.39 496,-297 541.11,-248.87 492.4,-205.76 532,-153 538.58,-144.23 547.58,-136.97 556.99,-131.09"/>
<polygon fill="#63b8ff" stroke="#63b8ff" points="558.76,-134.11 565.68,-126.09 555.27,-128.04 558.76,-134.11"/>
</a>
</g>
</g>
<!-- Node29 -->
<g id="Node000029" class="node">
<title>Node29</title>
<g id="a_Node000029"><a xlink:href="structMayaFlux_1_1Portal_1_1Forma_1_1Mapped_aa8f77bb5a140bca651201b90cec41e8d.html#aa8f77bb5a140bca651201b90cec41e8d" target="_top" xlink:title="Call once per graphics tick.">
<polygon fill="white" stroke="#666666" points="673,-240 537,-240 537,-210 673,-210 673,-240"/>
<text text-anchor="start" x="545" y="-228" font-family="Helvetica,sans-Serif" font-size="10.00">MayaFlux::Portal::Forma</text>
<text text-anchor="middle" x="605" y="-217" font-family="Helvetica,sans-Serif" font-size="10.00">::Mapped::sync</text>
</a>
</g>
</g>
<!-- Node23&#45;&gt;Node29 -->
<g id="edge35_Node000023_Node000029" class="edge">
<title>Node23&#45;&gt;Node29</title>
<g id="a_edge35_Node000023_Node000029"><a xlink:title=" ">
<path fill="none" stroke="#63b8ff" d="M480.42,-305.88C485.91,-303.35 491.21,-300.41 496,-297 517.73,-281.54 510.37,-264.59 532,-249 534.06,-247.52 536.21,-246.12 538.44,-244.81"/>
<polygon fill="#63b8ff" stroke="#63b8ff" points="540.1,-247.89 547.33,-240.14 536.85,-241.69 540.1,-247.89"/>
</a>
</g>
</g>
<!-- Node27&#45;&gt;Node27 -->
<g id="edge34_Node000027_Node000027" class="edge">
<title>Node27&#45;&gt;Node27</title>
<g id="a_edge34_Node000027_Node000027"><a xlink:title=" ">
<path fill="none" stroke="#63b8ff" d="M572.66,-126.28C565.47,-135.41 576.25,-144 605,-144 622.07,-144 632.81,-140.97 637.21,-136.6"/>
<polygon fill="#63b8ff" stroke="#63b8ff" points="640.71,-136.32 637.34,-126.28 633.71,-136.23 640.71,-136.32"/>
</a>
</g>
</g>
<!-- Node28 -->
<g id="Node000028" class="node">
<title>Node28</title>
<g id="a_Node000028"><a xlink:href="classMayaFlux_1_1Portal_1_1Forma_1_1Layer_a6a279bbd434c7f805d6d21f4bf1e2155.html#a6a279bbd434c7f805d6d21f4bf1e2155" target="_top" xlink:title=" ">
<polygon fill="white" stroke="#666666" points="857.5,-126 721.5,-126 721.5,-96 857.5,-96 857.5,-126"/>
<text text-anchor="start" x="729.5" y="-114" font-family="Helvetica,sans-Serif" font-size="10.00">MayaFlux::Portal::Forma</text>
<text text-anchor="middle" x="789.5" y="-103" font-family="Helvetica,sans-Serif" font-size="10.00">::Layer::get</text>
</a>
</g>
</g>
<!-- Node27&#45;&gt;Node28 -->
<g id="edge33_Node000027_Node000028" class="edge">
<title>Node27&#45;&gt;Node28</title>
<g id="a_edge33_Node000027_Node000028"><a xlink:title=" ">
<path fill="none" stroke="#63b8ff" d="M673.18,-111C685.61,-111 698.68,-111 711.38,-111"/>
<polygon fill="#63b8ff" stroke="#63b8ff" points="711.46,-114.5 721.46,-111 711.46,-107.5 711.46,-114.5"/>
</a>
</g>
</g>
<!-- Node31 -->
<g id="Node000031" class="node">
<title>Node31</title>
<g id="a_Node000031"><a xlink:href="classMayaFlux_1_1Portal_1_1Text_1_1TypeFaceFoundry_a33297f10cf0efb8394bd219ba56f0f12.html#a33297f10cf0efb8394bd219ba56f0f12" target="_top" xlink:title="Return the default GlyphAtlas, or nullptr if set_default_font() has not been called successfully.">
<polygon fill="white" stroke="#666666" points="483.5,-191.5 356.5,-191.5 356.5,-150.5 483.5,-150.5 483.5,-191.5"/>
<text text-anchor="start" x="364.5" y="-179.5" font-family="Helvetica,sans-Serif" font-size="10.00">MayaFlux::Portal::Text</text>
<text text-anchor="start" x="364.5" y="-168.5" font-family="Helvetica,sans-Serif" font-size="10.00">::TypeFaceFoundry::get</text>
<text text-anchor="middle" x="420" y="-157.5" font-family="Helvetica,sans-Serif" font-size="10.00">_default_glyph_atlas</text>
</a>
</g>
</g>
<!-- Node30&#45;&gt;Node31 -->
<g id="edge38_Node000030_Node000031" class="edge">
<title>Node30&#45;&gt;Node31</title>
<g id="a_edge38_Node000030_Node000031"><a xlink:title=" ">
<path fill="none" stroke="#63b8ff" d="M286.51,-230.98C293.79,-228.21 301.17,-225.18 308,-222 324.79,-214.18 327.36,-209.13 344,-201 347.76,-199.17 351.66,-197.35 355.61,-195.58"/>
<polygon fill="#63b8ff" stroke="#63b8ff" points="357.14,-198.73 364.91,-191.52 354.35,-192.31 357.14,-198.73"/>
</a>
</g>
</g>
<!-- Node32 -->
<g id="Node000032" class="node">
<title>Node32</title>
<g id="a_Node000032"><a xlink:href="classMayaFlux_1_1Portal_1_1Text_1_1TypeFaceFoundry_a939375a455bfd4510f6a7a8f506b600d.html#a939375a455bfd4510f6a7a8f506b600d" target="_top" xlink:title=" ">
<polygon fill="white" stroke="#666666" points="496,-132 344,-132 344,-102 496,-102 496,-132"/>
<text text-anchor="start" x="352" y="-120" font-family="Helvetica,sans-Serif" font-size="10.00">MayaFlux::Portal::Text</text>
<text text-anchor="middle" x="420" y="-109" font-family="Helvetica,sans-Serif" font-size="10.00">::TypeFaceFoundry::instance</text>
</a>
</g>
</g>
<!-- Node30&#45;&gt;Node32 -->
<g id="edge39_Node000030_Node000032" class="edge">
<title>Node30&#45;&gt;Node32</title>
<g id="a_edge39_Node000030_Node000032"><a xlink:title=" ">
<path fill="none" stroke="#63b8ff" d="M295.52,-230.92C300.03,-228.39 304.28,-225.44 308,-222 336.64,-195.54 315.07,-168.14 344,-142 345.74,-140.43 347.58,-138.96 349.5,-137.58"/>
<polygon fill="#63b8ff" stroke="#63b8ff" points="351.69,-140.33 358.36,-132.1 348.01,-134.38 351.69,-140.33"/>
</a>
</g>
</g>
</g>
</svg>

<g id="navigator" transform="translate(0 0)" fill="#404254">
  <rect fill="#f2f5e9" fill-opacity="0.5" stroke="#606060" stroke-width=".5" x="0" y="0" width="60" height="60"/>
  <use id="zoomplus" xlink:href="#zoomPlus" x="17" y="9" onmousedown="handleZoom(evt,'in')"/>
  <use id="zoomminus" xlink:href="#zoomMin" x="42" y="9" onmousedown="handleZoom(evt,'out')"/>
  <use id="reset" xlink:href="#resetDef" x="30" y="36" onmousedown="handleReset()"/>
   <use id="arrowup" xlink:href="#arrowUp" x="0" y="0" onmousedown="handlePan(0,-1)"/>
  <use id="arrowright" xlink:href="#arrowRight" x="0" y="0" onmousedown="handlePan(1,0)"/>
  <use id="arrowdown" xlink:href="#arrowDown" x="0" y="0" onmousedown="handlePan(0,1)"/>
  <use id="arrowleft" xlink:href="#arrowLeft" x="0" y="0" onmousedown="handlePan(-1,0)"/>
</g>
<svg viewBox="0 0 15 15" width="100%" height="30px" preserveAspectRatio="xMaxYMin meet">
 <g id="arrow_out" transform="scale(0.3 0.3)">
  <a xlink:href="classMayaFlux_1_1Portal_1_1Forma_1_1Inspector_a7ce0ab8a91e874fc10dca39c6ea9eed5_a7ce0ab8a91e874fc10dca39c6ea9eed5_cgraph_org.svg" target="_base">
   <rect id="button" ry="5" rx="5" y="6" x="6" height="38" width="38"
        fill="#f2f5e9" fill-opacity="0.5" stroke="#606060" stroke-width="1.0"/>
   <path id="arrow"
     d="M 11.500037,31.436501 C 11.940474,20.09759 22.043105,11.32322 32.158766,21.979434 L 37.068811,17.246167 C 37.068811,17.246167 37.088388,32 37.088388,32 L 22.160133,31.978069 C 22.160133,31.978069 26.997745,27.140456 26.997745,27.140456 C 18.528582,18.264221 13.291696,25.230495 11.500037,31.436501 z"
     style="fill:#404040;"/>
  </a>
 </g>
</svg>

<style type='text/css'>
<![CDATA[
[data-mouse-over-selected='false'] { opacity: 0.7; }
[data-mouse-over-selected='true']  { opacity: 1.0; }
]]>
</style>
<script type="application/ecmascript"><![CDATA[
document.addEventListener('DOMContentLoaded', (event) => {
  highlightEdges();
  highlightAdjacentNodes();
});
]]></script>
</svg>
