<?xml version="1.0" encoding="UTF-8" standalone="no"?>
<!DOCTYPE svg PUBLIC "-//W3C//DTD SVG 1.1//EN"
 "http://www.w3.org/Graphics/SVG/1.1/DTD/svg11.dtd">
<!-- Generated by graphviz version 2.43.0 (0)
 -->
<!-- Title: MayaFlux::Buffers::DescriptorBindingsProcessor::update_descriptor_data Pages: 1 -->
<svg width="937pt" height="203pt"
 viewBox="0.00 0.00 937.00 203.00" xmlns="http://www.w3.org/2000/svg" xmlns:xlink="http://www.w3.org/1999/xlink">
<g id="graph0" class="graph" transform="scale(1 1) rotate(0) translate(4 199)">
<title>MayaFlux::Buffers::DescriptorBindingsProcessor::update_descriptor_data</title>
<!-- Node1 -->
<g id="Node000001" class="node">
<title>Node1</title>
<g id="a_Node000001"><a xlink:title="Update descriptor from binding source (node, audio buffer, etc.)">
<polygon fill="#999999" stroke="#666666" points="156,-122.5 0,-122.5 0,-81.5 156,-81.5 156,-122.5"/>
<text text-anchor="start" x="8" y="-110.5" font-family="Helvetica,sans-Serif" font-size="10.00">MayaFlux::Buffers::</text>
<text text-anchor="start" x="8" y="-99.5" font-family="Helvetica,sans-Serif" font-size="10.00">DescriptorBindingsProcessor</text>
<text text-anchor="middle" x="78" y="-88.5" font-family="Helvetica,sans-Serif" font-size="10.00">::update_descriptor_data</text>
</a>
</g>
</g>
<!-- Node2 -->
<g id="Node000002" class="node">
<title>Node2</title>
<g id="a_Node000002"><a xlink:href="classMayaFlux_1_1Buffers_1_1DescriptorBindingsProcessor_ab90b0847540a860cfbeb6fb9649ae0e1.html#ab90b0847540a860cfbeb6fb9649ae0e1" target="_top" xlink:title=" ">
<polygon fill="white" stroke="#666666" points="348,-122.5 192,-122.5 192,-81.5 348,-81.5 348,-122.5"/>
<text text-anchor="start" x="200" y="-110.5" font-family="Helvetica,sans-Serif" font-size="10.00">MayaFlux::Buffers::</text>
<text text-anchor="start" x="200" y="-99.5" font-family="Helvetica,sans-Serif" font-size="10.00">DescriptorBindingsProcessor</text>
<text text-anchor="middle" x="270" y="-88.5" font-family="Helvetica,sans-Serif" font-size="10.00">::update_from_buffer</text>
</a>
</g>
</g>
<!-- Node1&#45;&gt;Node2 -->
<g id="edge1_Node000001_Node000002" class="edge">
<title>Node1&#45;&gt;Node2</title>
<g id="a_edge1_Node000001_Node000002"><a xlink:title=" ">
<path fill="none" stroke="#63b8ff" d="M156.01,-102C164.51,-102 173.21,-102 181.83,-102"/>
<polygon fill="#63b8ff" stroke="#63b8ff" points="181.88,-105.5 191.88,-102 181.88,-98.5 181.88,-105.5"/>
</a>
</g>
</g>
<!-- Node11 -->
<g id="Node000011" class="node">
<title>Node11</title>
<g id="a_Node000011"><a xlink:href="classMayaFlux_1_1Buffers_1_1DescriptorBindingsProcessor_ae11e2177a6d99ff2f85d4b1f52cfff55.html#ae11e2177a6d99ff2f85d4b1f52cfff55" target="_top" xlink:title=" ">
<polygon fill="white" stroke="#666666" points="348,-63.5 192,-63.5 192,-22.5 348,-22.5 348,-63.5"/>
<text text-anchor="start" x="200" y="-51.5" font-family="Helvetica,sans-Serif" font-size="10.00">MayaFlux::Buffers::</text>
<text text-anchor="start" x="200" y="-40.5" font-family="Helvetica,sans-Serif" font-size="10.00">DescriptorBindingsProcessor</text>
<text text-anchor="middle" x="270" y="-29.5" font-family="Helvetica,sans-Serif" font-size="10.00">::update_from_network</text>
</a>
</g>
</g>
<!-- Node1&#45;&gt;Node11 -->
<g id="edge15_Node000001_Node000011" class="edge">
<title>Node1&#45;&gt;Node11</title>
<g id="a_edge15_Node000001_Node000011"><a xlink:title=" ">
<path fill="none" stroke="#63b8ff" d="M145.19,-81.45C160.62,-76.66 177.17,-71.52 192.99,-66.6"/>
<polygon fill="#63b8ff" stroke="#63b8ff" points="194.22,-69.89 202.73,-63.58 192.14,-63.2 194.22,-69.89"/>
</a>
</g>
</g>
<!-- Node13 -->
<g id="Node000013" class="node">
<title>Node13</title>
<g id="a_Node000013"><a xlink:href="classMayaFlux_1_1Buffers_1_1DescriptorBindingsProcessor_a8f82e6151c65aeda64bffe59a8ce801b.html#a8f82e6151c65aeda64bffe59a8ce801b" target="_top" xlink:title=" ">
<polygon fill="white" stroke="#666666" points="348,-181.5 192,-181.5 192,-140.5 348,-140.5 348,-181.5"/>
<text text-anchor="start" x="200" y="-169.5" font-family="Helvetica,sans-Serif" font-size="10.00">MayaFlux::Buffers::</text>
<text text-anchor="start" x="200" y="-158.5" font-family="Helvetica,sans-Serif" font-size="10.00">DescriptorBindingsProcessor</text>
<text text-anchor="middle" x="270" y="-147.5" font-family="Helvetica,sans-Serif" font-size="10.00">::update_from_node</text>
</a>
</g>
</g>
<!-- Node1&#45;&gt;Node13 -->
<g id="edge19_Node000001_Node000013" class="edge">
<title>Node1&#45;&gt;Node13</title>
<g id="a_edge19_Node000001_Node000013"><a xlink:title=" ">
<path fill="none" stroke="#63b8ff" d="M145.19,-122.55C160.62,-127.34 177.17,-132.48 192.99,-137.4"/>
<polygon fill="#63b8ff" stroke="#63b8ff" points="192.14,-140.8 202.73,-140.42 194.22,-134.11 192.14,-140.8"/>
</a>
</g>
</g>
<!-- Node3 -->
<g id="Node000003" class="node">
<title>Node3</title>
<g id="a_Node000003"><a xlink:href="classMayaFlux_1_1Buffers_1_1DescriptorBindingsProcessor_a899a9ef911a90e749c2fdead4ae9593d.html#a899a9ef911a90e749c2fdead4ae9593d" target="_top" xlink:title="Ensure descriptor buffer has sufficient capacity.">
<polygon fill="white" stroke="#666666" points="540,-146.5 384,-146.5 384,-105.5 540,-105.5 540,-146.5"/>
<text text-anchor="start" x="392" y="-134.5" font-family="Helvetica,sans-Serif" font-size="10.00">MayaFlux::Buffers::</text>
<text text-anchor="start" x="392" y="-123.5" font-family="Helvetica,sans-Serif" font-size="10.00">DescriptorBindingsProcessor</text>
<text text-anchor="middle" x="462" y="-112.5" font-family="Helvetica,sans-Serif" font-size="10.00">::ensure_buffer_capacity</text>
</a>
</g>
</g>
<!-- Node2&#45;&gt;Node3 -->
<g id="edge2_Node000002_Node000003" class="edge">
<title>Node2&#45;&gt;Node3</title>
<g id="a_edge2_Node000002_Node000003"><a xlink:title=" ">
<path fill="none" stroke="#63b8ff" d="M348.01,-111.73C356.51,-112.8 365.21,-113.9 373.83,-114.99"/>
<polygon fill="#63b8ff" stroke="#63b8ff" points="373.52,-118.48 383.88,-116.26 374.4,-111.53 373.52,-118.48"/>
</a>
</g>
</g>
<!-- Node4 -->
<g id="Node000004" class="node">
<title>Node4</title>
<g id="a_Node000004"><a xlink:href="namespaceMayaFlux_1_1Buffers_ae5e547b4f569572df2c1ad0a3d7a38eb.html#ae5e547b4f569572df2c1ad0a3d7a38eb" target="_top" xlink:title="Upload raw data to GPU buffer (auto&#45;detects host&#45;visible vs device&#45;local)">
<polygon fill="white" stroke="#666666" points="517.5,-87 406.5,-87 406.5,-57 517.5,-57 517.5,-87"/>
<text text-anchor="start" x="414.5" y="-75" font-family="Helvetica,sans-Serif" font-size="10.00">MayaFlux::Buffers::</text>
<text text-anchor="middle" x="462" y="-64" font-family="Helvetica,sans-Serif" font-size="10.00">upload_to_gpu</text>
</a>
</g>
</g>
<!-- Node2&#45;&gt;Node4 -->
<g id="edge3_Node000002_Node000004" class="edge">
<title>Node2&#45;&gt;Node4</title>
<g id="a_edge3_Node000002_Node000004"><a xlink:title=" ">
<path fill="none" stroke="#63b8ff" d="M348.01,-89.84C364.04,-87.31 380.78,-84.67 396.32,-82.21"/>
<polygon fill="#63b8ff" stroke="#63b8ff" points="397,-85.65 406.33,-80.63 395.91,-78.73 397,-85.65"/>
</a>
</g>
</g>
<!-- Node5 -->
<g id="Node000005" class="node">
<title>Node5</title>
<g id="a_Node000005"><a xlink:href="namespaceMayaFlux_1_1Buffers_a64c6abe8842e398d178e4275a4d4b404.html#a64c6abe8842e398d178e4275a4d4b404" target="_top" xlink:title="Create staging buffer for transfers.">
<polygon fill="white" stroke="#666666" points="720,-135 598,-135 598,-105 720,-105 720,-135"/>
<text text-anchor="start" x="606" y="-123" font-family="Helvetica,sans-Serif" font-size="10.00">MayaFlux::Buffers::</text>
<text text-anchor="middle" x="659" y="-112" font-family="Helvetica,sans-Serif" font-size="10.00">create_staging_buffer</text>
</a>
</g>
</g>
<!-- Node4&#45;&gt;Node5 -->
<g id="edge4_Node000004_Node000005" class="edge">
<title>Node4&#45;&gt;Node5</title>
<g id="a_edge4_Node000004_Node000005"><a xlink:title=" ">
<path fill="none" stroke="#63b8ff" d="M517.58,-85.43C539.46,-90.82 564.96,-97.1 588.17,-102.81"/>
<polygon fill="#63b8ff" stroke="#63b8ff" points="587.41,-106.23 597.96,-105.22 589.08,-99.43 587.41,-106.23"/>
</a>
</g>
</g>
<!-- Node8 -->
<g id="Node000008" class="node">
<title>Node8</title>
<g id="a_Node000008"><a xlink:href="namespaceMayaFlux_1_1Buffers_a31f5983628d43dc3c83257330c321cc6.html#a31f5983628d43dc3c83257330c321cc6" target="_top" xlink:title="Upload data to a device&#45;local buffer using a staging buffer.">
<polygon fill="white" stroke="#666666" points="717,-87 601,-87 601,-57 717,-57 717,-87"/>
<text text-anchor="start" x="609" y="-75" font-family="Helvetica,sans-Serif" font-size="10.00">MayaFlux::Buffers::</text>
<text text-anchor="middle" x="659" y="-64" font-family="Helvetica,sans-Serif" font-size="10.00">upload_device_local</text>
</a>
</g>
</g>
<!-- Node4&#45;&gt;Node8 -->
<g id="edge7_Node000004_Node000008" class="edge">
<title>Node4&#45;&gt;Node8</title>
<g id="a_edge7_Node000004_Node000008"><a xlink:title=" ">
<path fill="none" stroke="#63b8ff" d="M517.58,-72C540.25,-72 566.8,-72 590.67,-72"/>
<polygon fill="#63b8ff" stroke="#63b8ff" points="590.71,-75.5 600.71,-72 590.71,-68.5 590.71,-75.5"/>
</a>
</g>
</g>
<!-- Node10 -->
<g id="Node000010" class="node">
<title>Node10</title>
<g id="a_Node000010"><a xlink:href="namespaceMayaFlux_1_1Buffers_a0749e7edaf3b6ec8a02a107a4f5b3a5a.html#a0749e7edaf3b6ec8a02a107a4f5b3a5a" target="_top" xlink:title="Upload data to a host&#45;visible buffer.">
<polygon fill="white" stroke="#666666" points="715.5,-39 602.5,-39 602.5,-9 715.5,-9 715.5,-39"/>
<text text-anchor="start" x="610.5" y="-27" font-family="Helvetica,sans-Serif" font-size="10.00">MayaFlux::Buffers::</text>
<text text-anchor="middle" x="659" y="-16" font-family="Helvetica,sans-Serif" font-size="10.00">upload_host_visible</text>
</a>
</g>
</g>
<!-- Node4&#45;&gt;Node10 -->
<g id="edge11_Node000004_Node000010" class="edge">
<title>Node4&#45;&gt;Node10</title>
<g id="a_edge11_Node000004_Node000010"><a xlink:title=" ">
<path fill="none" stroke="#63b8ff" d="M517.58,-58.57C540.85,-52.84 568.2,-46.11 592.54,-40.11"/>
<polygon fill="#63b8ff" stroke="#63b8ff" points="593.55,-43.47 602.42,-37.68 591.87,-36.67 593.55,-43.47"/>
</a>
</g>
</g>
<!-- Node6 -->
<g id="Node000006" class="node">
<title>Node6</title>
<g id="a_Node000006"><a xlink:href="classMayaFlux_1_1Registry_1_1BackendRegistry_a0c7a59c0847791ed0915dcd64e8df783.html#a0c7a59c0847791ed0915dcd64e8df783" target="_top" xlink:title="Query for a backend service.">
<polygon fill="white" stroke="#666666" points="916,-89.5 791,-89.5 791,-48.5 916,-48.5 916,-89.5"/>
<text text-anchor="start" x="799" y="-77.5" font-family="Helvetica,sans-Serif" font-size="10.00">MayaFlux::Registry</text>
<text text-anchor="start" x="799" y="-66.5" font-family="Helvetica,sans-Serif" font-size="10.00">::BackendRegistry::get</text>
<text text-anchor="middle" x="853.5" y="-55.5" font-family="Helvetica,sans-Serif" font-size="10.00">_service</text>
</a>
</g>
</g>
<!-- Node5&#45;&gt;Node6 -->
<g id="edge5_Node000005_Node000006" class="edge">
<title>Node5&#45;&gt;Node6</title>
<g id="a_edge5_Node000005_Node000006"><a xlink:title=" ">
<path fill="none" stroke="#63b8ff" d="M716.72,-104.97C736.82,-99.65 759.71,-93.58 780.9,-87.97"/>
<polygon fill="#63b8ff" stroke="#63b8ff" points="782.04,-91.29 790.81,-85.34 780.25,-84.52 782.04,-91.29"/>
</a>
</g>
</g>
<!-- Node7 -->
<g id="Node000007" class="node">
<title>Node7</title>
<g id="a_Node000007"><a xlink:href="classMayaFlux_1_1Registry_1_1BackendRegistry_aa28c6f5592e5893508bafb62aefcc496.html#aa28c6f5592e5893508bafb62aefcc496" target="_top" xlink:title="Get the global registry instance.">
<polygon fill="white" stroke="#666666" points="929,-138 778,-138 778,-108 929,-108 929,-138"/>
<text text-anchor="start" x="786" y="-126" font-family="Helvetica,sans-Serif" font-size="10.00">MayaFlux::Registry</text>
<text text-anchor="middle" x="853.5" y="-115" font-family="Helvetica,sans-Serif" font-size="10.00">::BackendRegistry::instance</text>
</a>
</g>
</g>
<!-- Node5&#45;&gt;Node7 -->
<g id="edge6_Node000005_Node000007" class="edge">
<title>Node5&#45;&gt;Node7</title>
<g id="a_edge6_Node000005_Node000007"><a xlink:title=" ">
<path fill="none" stroke="#63b8ff" d="M720.12,-120.94C735.14,-121.17 751.53,-121.43 767.51,-121.68"/>
<polygon fill="#63b8ff" stroke="#63b8ff" points="767.88,-125.18 777.93,-121.84 767.98,-118.18 767.88,-125.18"/>
</a>
</g>
</g>
<!-- Node8&#45;&gt;Node6 -->
<g id="edge8_Node000008_Node000006" class="edge">
<title>Node8&#45;&gt;Node6</title>
<g id="a_edge8_Node000008_Node000006"><a xlink:title=" ">
<path fill="none" stroke="#63b8ff" d="M717.24,-71.11C737.14,-70.8 759.73,-70.45 780.66,-70.12"/>
<polygon fill="#63b8ff" stroke="#63b8ff" points="780.84,-73.62 790.79,-69.96 780.73,-66.62 780.84,-73.62"/>
</a>
</g>
</g>
<!-- Node8&#45;&gt;Node7 -->
<g id="edge10_Node000008_Node000007" class="edge">
<title>Node8&#45;&gt;Node7</title>
<g id="a_edge10_Node000008_Node000007"><a xlink:title=" ">
<path fill="none" stroke="#63b8ff" d="M716.72,-87.03C738.45,-92.78 763.44,-99.41 786.02,-105.39"/>
<polygon fill="#63b8ff" stroke="#63b8ff" points="785.29,-108.82 795.86,-107.99 787.09,-102.05 785.29,-108.82"/>
</a>
</g>
</g>
<!-- Node9 -->
<g id="Node000009" class="node">
<title>Node9</title>
<g id="a_Node000009"><a xlink:href="classMayaFlux_1_1Kakshya_1_1DataAccess_a7893291a314cd16a4086b4af5547be3b.html#a7893291a314cd16a4086b4af5547be3b" target="_top" xlink:title="Get raw buffer info for GPU upload.">
<polygon fill="white" stroke="#666666" points="919,-30 788,-30 788,0 919,0 919,-30"/>
<text text-anchor="start" x="796" y="-18" font-family="Helvetica,sans-Serif" font-size="10.00">MayaFlux::Kakshya::</text>
<text text-anchor="middle" x="853.5" y="-7" font-family="Helvetica,sans-Serif" font-size="10.00">DataAccess::gpu_buffer</text>
</a>
</g>
</g>
<!-- Node8&#45;&gt;Node9 -->
<g id="edge9_Node000008_Node000009" class="edge">
<title>Node8&#45;&gt;Node9</title>
<g id="a_edge9_Node000008_Node000009"><a xlink:title=" ">
<path fill="none" stroke="#63b8ff" d="M711.63,-56.94C721.7,-53.98 732.18,-50.9 742,-48 758.38,-43.16 776.11,-37.88 792.47,-32.99"/>
<polygon fill="#63b8ff" stroke="#63b8ff" points="793.88,-36.22 802.46,-30.01 791.88,-29.52 793.88,-36.22"/>
</a>
</g>
</g>
<!-- Node10&#45;&gt;Node6 -->
<g id="edge12_Node000010_Node000006" class="edge">
<title>Node10&#45;&gt;Node6</title>
<g id="a_edge12_Node000010_Node000006"><a xlink:title=" ">
<path fill="none" stroke="#63b8ff" d="M715.68,-37.02C736.09,-41.79 759.49,-47.26 781.09,-52.31"/>
<polygon fill="#63b8ff" stroke="#63b8ff" points="780.34,-55.73 790.87,-54.59 781.93,-48.91 780.34,-55.73"/>
</a>
</g>
</g>
<!-- Node10&#45;&gt;Node7 -->
<g id="edge14_Node000010_Node000007" class="edge">
<title>Node10&#45;&gt;Node7</title>
<g id="a_edge14_Node000010_Node000007"><a xlink:title=" ">
<path fill="none" stroke="#63b8ff" d="M715.68,-34.84C724.97,-38.14 734.13,-42.43 742,-48 764.35,-63.82 755.96,-81.75 778,-98 780.5,-99.84 783.14,-101.56 785.89,-103.15"/>
<polygon fill="#63b8ff" stroke="#63b8ff" points="784.44,-106.34 794.93,-107.83 787.66,-100.12 784.44,-106.34"/>
</a>
</g>
</g>
<!-- Node10&#45;&gt;Node9 -->
<g id="edge13_Node000010_Node000009" class="edge">
<title>Node10&#45;&gt;Node9</title>
<g id="a_edge13_Node000010_Node000009"><a xlink:title=" ">
<path fill="none" stroke="#63b8ff" d="M715.68,-21.4C735.05,-20.49 757.11,-19.46 777.77,-18.49"/>
<polygon fill="#63b8ff" stroke="#63b8ff" points="777.95,-21.99 787.78,-18.03 777.63,-15 777.95,-21.99"/>
</a>
</g>
</g>
<!-- Node11&#45;&gt;Node3 -->
<g id="edge16_Node000011_Node000003" class="edge">
<title>Node11&#45;&gt;Node3</title>
<g id="a_edge16_Node000011_Node000003"><a xlink:title=" ">
<path fill="none" stroke="#63b8ff" d="M330.04,-63.65C336.19,-66.27 342.28,-69.07 348,-72 365.11,-80.78 366.94,-87.12 384,-96 387.48,-97.81 391.1,-99.58 394.78,-101.29"/>
<polygon fill="#63b8ff" stroke="#63b8ff" points="393.47,-104.54 404.03,-105.42 396.32,-98.14 393.47,-104.54"/>
</a>
</g>
</g>
<!-- Node11&#45;&gt;Node4 -->
<g id="edge18_Node000011_Node000004" class="edge">
<title>Node11&#45;&gt;Node4</title>
<g id="a_edge18_Node000011_Node000004"><a xlink:title=" ">
<path fill="none" stroke="#63b8ff" d="M348.01,-54.75C364.04,-57.2 380.78,-59.76 396.32,-62.13"/>
<polygon fill="#63b8ff" stroke="#63b8ff" points="395.92,-65.61 406.33,-63.66 396.97,-58.69 395.92,-65.61"/>
</a>
</g>
</g>
<!-- Node12 -->
<g id="Node000012" class="node">
<title>Node12</title>
<g id="a_Node000012"><a xlink:href="namespaceMayaFlux_1_1Buffers_ab1ec6afdd6a02006bb923d88c7c33708.html#ab1ec6afdd6a02006bb923d88c7c33708" target="_top" xlink:title="Extract GPU geometry data from a NodeNetwork via its GraphicsOperator.">
<polygon fill="white" stroke="#666666" points="535,-39 389,-39 389,-9 535,-9 535,-39"/>
<text text-anchor="start" x="397" y="-27" font-family="Helvetica,sans-Serif" font-size="10.00">MayaFlux::Buffers::</text>
<text text-anchor="middle" x="462" y="-16" font-family="Helvetica,sans-Serif" font-size="10.00">extract_network_gpu_data</text>
</a>
</g>
</g>
<!-- Node11&#45;&gt;Node12 -->
<g id="edge17_Node000011_Node000012" class="edge">
<title>Node11&#45;&gt;Node12</title>
<g id="a_edge17_Node000011_Node000012"><a xlink:title=" ">
<path fill="none" stroke="#63b8ff" d="M348.01,-35.3C358.11,-34.29 368.5,-33.25 378.69,-32.23"/>
<polygon fill="#63b8ff" stroke="#63b8ff" points="379.2,-35.7 388.8,-31.22 378.5,-28.73 379.2,-35.7"/>
</a>
</g>
</g>
<!-- Node13&#45;&gt;Node3 -->
<g id="edge20_Node000013_Node000003" class="edge">
<title>Node13&#45;&gt;Node3</title>
<g id="a_edge20_Node000013_Node000003"><a xlink:title=" ">
<path fill="none" stroke="#63b8ff" d="M348.01,-146.81C356.51,-145.25 365.21,-143.65 373.83,-142.06"/>
<polygon fill="#63b8ff" stroke="#63b8ff" points="374.68,-145.46 383.88,-140.21 373.42,-138.58 374.68,-145.46"/>
</a>
</g>
</g>
<!-- Node13&#45;&gt;Node4 -->
<g id="edge23_Node000013_Node000004" class="edge">
<title>Node13&#45;&gt;Node4</title>
<g id="a_edge23_Node000013_Node000004"><a xlink:title=" ">
<path fill="none" stroke="#63b8ff" d="M331.03,-140.38C336.93,-137.54 342.69,-134.41 348,-131 366.77,-118.93 364.82,-107.41 384,-96 388.07,-93.58 392.41,-91.37 396.88,-89.38"/>
<polygon fill="#63b8ff" stroke="#63b8ff" points="398.26,-92.6 406.19,-85.56 395.61,-86.12 398.26,-92.6"/>
</a>
</g>
</g>
<!-- Node14 -->
<g id="Node000014" class="node">
<title>Node14</title>
<g id="a_Node000014"><a xlink:href="namespaceMayaFlux_1_1Buffers_a982f4ec490b359e813ad8eb63bcfab37.html#a982f4ec490b359e813ad8eb63bcfab37" target="_top" xlink:title="Extract a single sample from a node with proper snapshot management.">
<polygon fill="white" stroke="#666666" points="525.5,-195 398.5,-195 398.5,-165 525.5,-165 525.5,-195"/>
<text text-anchor="start" x="406.5" y="-183" font-family="Helvetica,sans-Serif" font-size="10.00">MayaFlux::Buffers::</text>
<text text-anchor="middle" x="462" y="-172" font-family="Helvetica,sans-Serif" font-size="10.00">extract_single_sample</text>
</a>
</g>
</g>
<!-- Node13&#45;&gt;Node14 -->
<g id="edge21_Node000013_Node000014" class="edge">
<title>Node13&#45;&gt;Node14</title>
<g id="a_edge21_Node000013_Node000014"><a xlink:title=" ">
<path fill="none" stroke="#63b8ff" d="M348.01,-168.7C361.37,-170.04 375.22,-171.42 388.46,-172.75"/>
<polygon fill="#63b8ff" stroke="#63b8ff" points="388.14,-176.23 398.44,-173.74 388.84,-169.27 388.14,-176.23"/>
</a>
</g>
</g>
<!-- Node15 -->
<g id="Node000015" class="node">
<title>Node15</title>
<g id="a_Node000015"><a xlink:href="namespaceMayaFlux_1_1Buffers_ae642092d63445f1884326aba3d9b5189.html#ae642092d63445f1884326aba3d9b5189" target="_top" xlink:title="Wait for an active snapshot context to complete using exponential backoff.">
<polygon fill="white" stroke="#666666" points="742,-195 576,-195 576,-165 742,-165 742,-195"/>
<text text-anchor="start" x="584" y="-183" font-family="Helvetica,sans-Serif" font-size="10.00">MayaFlux::Buffers::</text>
<text text-anchor="middle" x="659" y="-172" font-family="Helvetica,sans-Serif" font-size="10.00">wait_for_snapshot_completion</text>
</a>
</g>
</g>
<!-- Node14&#45;&gt;Node15 -->
<g id="edge22_Node000014_Node000015" class="edge">
<title>Node14&#45;&gt;Node15</title>
<g id="a_edge22_Node000014_Node000015"><a xlink:title=" ">
<path fill="none" stroke="#63b8ff" d="M525.5,-180C538.29,-180 552,-180 565.57,-180"/>
<polygon fill="#63b8ff" stroke="#63b8ff" points="565.91,-183.5 575.91,-180 565.91,-176.5 565.91,-183.5"/>
</a>
</g>
</g>
</g>
</svg>
