<?xml version="1.0" encoding="UTF-8" standalone="no"?>
<!DOCTYPE svg PUBLIC "-//W3C//DTD SVG 1.1//EN"
 "http://www.w3.org/Graphics/SVG/1.1/DTD/svg11.dtd">
<!-- Generated by graphviz version 2.43.0 (0)
 -->
<!-- Title: MayaFlux::Kinesis::Vision::VisionSequence::Builder::extract_peaks Pages: 1 -->
<svg width="472pt" height="73pt"
 viewBox="0.00 0.00 472.00 73.00" xmlns="http://www.w3.org/2000/svg" xmlns:xlink="http://www.w3.org/1999/xlink">
<g id="graph0" class="graph" transform="scale(1 1) rotate(0) translate(4 69)">
<title>MayaFlux::Kinesis::Vision::VisionSequence::Builder::extract_peaks</title>
<!-- Node1 -->
<g id="Node000001" class="node">
<title>Node1</title>
<g id="a_Node000001"><a xlink:title=" ">
<polygon fill="#999999" stroke="#666666" points="132,-65 0,-65 0,-24 132,-24 132,-65"/>
<text text-anchor="start" x="8" y="-53" font-family="Helvetica,sans-Serif" font-size="10.00">MayaFlux::Kinesis::</text>
<text text-anchor="start" x="8" y="-42" font-family="Helvetica,sans-Serif" font-size="10.00">Vision::VisionSequence</text>
<text text-anchor="middle" x="66" y="-31" font-family="Helvetica,sans-Serif" font-size="10.00">::Builder::extract_peaks</text>
</a>
</g>
</g>
<!-- Node2 -->
<g id="Node000002" class="node">
<title>Node2</title>
<g id="a_Node000002"><a xlink:href="classMayaFlux_1_1Kinesis_1_1Vision_1_1VisionSequence_1_1Builder_ab1497dd10897aa284e2847c8ab9b711f.html#ab1497dd10897aa284e2847c8ab9b711f" target="_top" xlink:title=" ">
<polygon fill="white" stroke="#666666" points="464,-65 334,-65 334,-24 464,-24 464,-65"/>
<text text-anchor="start" x="342" y="-53" font-family="Helvetica,sans-Serif" font-size="10.00">MayaFlux::Kinesis::</text>
<text text-anchor="start" x="342" y="-42" font-family="Helvetica,sans-Serif" font-size="10.00">Vision::VisionSequence</text>
<text text-anchor="middle" x="399" y="-31" font-family="Helvetica,sans-Serif" font-size="10.00">::Builder::push</text>
</a>
</g>
</g>
<!-- Node1&#45;&gt;Node2 -->
<g id="edge1_Node000001_Node000002" class="edge">
<title>Node1&#45;&gt;Node2</title>
<g id="a_edge1_Node000001_Node000002"><a xlink:title=" ">
<path fill="none" stroke="#63b8ff" d="M132.17,-48.94C144.09,-49.59 156.41,-50.16 168,-50.5 225.75,-52.21 240.25,-52.23 298,-50.5 306.31,-50.25 315,-49.89 323.64,-49.46"/>
<polygon fill="#63b8ff" stroke="#63b8ff" points="323.94,-52.95 333.74,-48.93 323.57,-45.96 323.94,-52.95"/>
</a>
</g>
</g>
<!-- Node3 -->
<g id="Node000003" class="node">
<title>Node3</title>
<g id="a_Node000003"><a xlink:href="classMayaFlux_1_1Kinesis_1_1Vision_1_1VisionSequence_1_1Builder_a9a818cd8cc9a1b5a7e9b11b23249ff59.html#a9a818cd8cc9a1b5a7e9b11b23249ff59" target="_top" xlink:title=" ">
<polygon fill="white" stroke="#666666" points="298,-41 168,-41 168,0 298,0 298,-41"/>
<text text-anchor="start" x="176" y="-29" font-family="Helvetica,sans-Serif" font-size="10.00">MayaFlux::Kinesis::</text>
<text text-anchor="start" x="176" y="-18" font-family="Helvetica,sans-Serif" font-size="10.00">Vision::VisionSequence</text>
<text text-anchor="middle" x="233" y="-7" font-family="Helvetica,sans-Serif" font-size="10.00">::Builder::threshold</text>
</a>
</g>
</g>
<!-- Node1&#45;&gt;Node3 -->
<g id="edge2_Node000001_Node000003" class="edge">
<title>Node1&#45;&gt;Node3</title>
<g id="a_edge2_Node000001_Node000003"><a xlink:title=" ">
<path fill="none" stroke="#63b8ff" d="M132.21,-35.01C140.63,-33.79 149.3,-32.53 157.84,-31.29"/>
<polygon fill="#63b8ff" stroke="#63b8ff" points="158.41,-34.74 167.8,-29.84 157.4,-27.81 158.41,-34.74"/>
</a>
</g>
</g>
<!-- Node3&#45;&gt;Node2 -->
<g id="edge3_Node000003_Node000002" class="edge">
<title>Node3&#45;&gt;Node2</title>
<g id="a_edge3_Node000003_Node000002"><a xlink:title=" ">
<path fill="none" stroke="#63b8ff" d="M298.35,-29.92C306.73,-31.14 315.37,-32.41 323.9,-33.66"/>
<polygon fill="#63b8ff" stroke="#63b8ff" points="323.44,-37.13 333.84,-35.11 324.45,-30.2 323.44,-37.13"/>
</a>
</g>
</g>
</g>
</svg>
