<?xml version="1.0" encoding="UTF-8" standalone="no"?>
<!DOCTYPE svg PUBLIC "-//W3C//DTD SVG 1.1//EN"
 "http://www.w3.org/Graphics/SVG/1.1/DTD/svg11.dtd">
<!-- Generated by graphviz version 2.43.0 (0)
 -->
<!-- Title: MayaFlux::Kakshya::DataAccess::view Pages: 1 -->
<svg width="690pt" height="140pt"
 viewBox="0.00 0.00 690.00 139.50" xmlns="http://www.w3.org/2000/svg" xmlns:xlink="http://www.w3.org/1999/xlink">
<g id="graph0" class="graph" transform="scale(1 1) rotate(0) translate(4 135.5)">
<title>MayaFlux::Kakshya::DataAccess::view</title>
<!-- Node1 -->
<g id="Node000001" class="node">
<title>Node1</title>
<g id="a_Node000001"><a xlink:title="Get explicit typed view of data.">
<polygon fill="#999999" stroke="#666666" points="682,-78 563,-78 563,-48 682,-48 682,-78"/>
<text text-anchor="start" x="571" y="-66" font-family="Helvetica,sans-Serif" font-size="10.00">MayaFlux::Kakshya::</text>
<text text-anchor="middle" x="622.5" y="-55" font-family="Helvetica,sans-Serif" font-size="10.00">DataAccess::view</text>
</a>
</g>
</g>
<!-- Node2 -->
<g id="Node000002" class="node">
<title>Node2</title>
<g id="a_Node000002"><a xlink:href="namespaceMayaFlux_1_1Buffers_a7dbb34a80a731e87a2c34d293aaf691c.html#a7dbb34a80a731e87a2c34d293aaf691c" target="_top" xlink:title="Download GPU buffer to AudioBuffer (expects double precision)">
<polygon fill="white" stroke="#666666" points="527,-126 379,-126 379,-96 527,-96 527,-126"/>
<text text-anchor="start" x="387" y="-114" font-family="Helvetica,sans-Serif" font-size="10.00">MayaFlux::Buffers::</text>
<text text-anchor="middle" x="453" y="-103" font-family="Helvetica,sans-Serif" font-size="10.00">download_audio_from_gpu</text>
</a>
</g>
</g>
<!-- Node1&#45;&gt;Node2 -->
<g id="edge1_Node000001_Node000002" class="edge">
<title>Node1&#45;&gt;Node2</title>
<g id="a_edge1_Node000001_Node000002"><a xlink:title=" ">
<path fill="none" stroke="#63b8ff" d="M558.94,-80.93C541.63,-85.89 523.02,-91.22 506.35,-96"/>
<polygon fill="#63b8ff" stroke="#63b8ff" points="560.31,-84.18 568.96,-78.06 558.38,-77.45 560.31,-84.18"/>
</a>
</g>
</g>
<!-- Node5 -->
<g id="Node000005" class="node">
<title>Node5</title>
<g id="a_Node000005"><a xlink:href="namespaceMayaFlux_1_1Buffers_ab91dc7fea50f8badadc42ab1cea40a06.html#ab91dc7fea50f8badadc42ab1cea40a06" target="_top" xlink:title="Upload data from DataAccess view to GPU buffer (precision&#45;preserving)">
<polygon fill="white" stroke="#666666" points="508.5,-78 397.5,-78 397.5,-48 508.5,-48 508.5,-78"/>
<text text-anchor="start" x="405.5" y="-66" font-family="Helvetica,sans-Serif" font-size="10.00">MayaFlux::Buffers::</text>
<text text-anchor="middle" x="453" y="-55" font-family="Helvetica,sans-Serif" font-size="10.00">upload_from_view</text>
</a>
</g>
</g>
<!-- Node1&#45;&gt;Node5 -->
<g id="edge4_Node000001_Node000005" class="edge">
<title>Node1&#45;&gt;Node5</title>
<g id="a_edge4_Node000001_Node000005"><a xlink:title=" ">
<path fill="none" stroke="#63b8ff" d="M552.84,-63C538.11,-63 522.73,-63 508.62,-63"/>
<polygon fill="#63b8ff" stroke="#63b8ff" points="552.92,-66.5 562.92,-63 552.92,-59.5 552.92,-66.5"/>
</a>
</g>
</g>
<!-- Node6 -->
<g id="Node000006" class="node">
<title>Node6</title>
<g id="a_Node000006"><a xlink:href="namespaceMayaFlux_1_1Buffers_a269e2e2fe557f37f522dedeec5837da4.html#a269e2e2fe557f37f522dedeec5837da4" target="_top" xlink:title="Upload structured data with GLM double&#45;precision types.">
<polygon fill="white" stroke="#666666" points="519.5,-30 386.5,-30 386.5,0 519.5,0 519.5,-30"/>
<text text-anchor="start" x="394.5" y="-18" font-family="Helvetica,sans-Serif" font-size="10.00">MayaFlux::Buffers::</text>
<text text-anchor="middle" x="453" y="-7" font-family="Helvetica,sans-Serif" font-size="10.00">upload_structured_view</text>
</a>
</g>
</g>
<!-- Node1&#45;&gt;Node6 -->
<g id="edge5_Node000001_Node000006" class="edge">
<title>Node1&#45;&gt;Node6</title>
<g id="a_edge5_Node000001_Node000006"><a xlink:title=" ">
<path fill="none" stroke="#63b8ff" d="M558.94,-45.07C541.63,-40.11 523.02,-34.78 506.35,-30"/>
<polygon fill="#63b8ff" stroke="#63b8ff" points="558.38,-48.55 568.96,-47.94 560.31,-41.82 558.38,-48.55"/>
</a>
</g>
</g>
<!-- Node3 -->
<g id="Node000003" class="node">
<title>Node3</title>
<g id="a_Node000003"><a xlink:href="classMayaFlux_1_1Buffers_1_1TransferProcessor_a9df8346f192d67c6c0f7f61ee19dfc56.html#a9df8346f192d67c6c0f7f61ee19dfc56" target="_top" xlink:title=" ">
<polygon fill="white" stroke="#666666" points="343,-131.5 197,-131.5 197,-90.5 343,-90.5 343,-131.5"/>
<text text-anchor="start" x="205" y="-119.5" font-family="Helvetica,sans-Serif" font-size="10.00">MayaFlux::Buffers::</text>
<text text-anchor="start" x="205" y="-108.5" font-family="Helvetica,sans-Serif" font-size="10.00">TransferProcessor::process</text>
<text text-anchor="middle" x="270" y="-97.5" font-family="Helvetica,sans-Serif" font-size="10.00">_gpu_to_audio</text>
</a>
</g>
</g>
<!-- Node2&#45;&gt;Node3 -->
<g id="edge2_Node000002_Node000003" class="edge">
<title>Node2&#45;&gt;Node3</title>
<g id="a_edge2_Node000002_Node000003"><a xlink:title=" ">
<path fill="none" stroke="#63b8ff" d="M368.89,-111C360.31,-111 351.64,-111 343.19,-111"/>
<polygon fill="#63b8ff" stroke="#63b8ff" points="368.9,-114.5 378.9,-111 368.9,-107.5 368.9,-114.5"/>
</a>
</g>
</g>
<!-- Node4 -->
<g id="Node000004" class="node">
<title>Node4</title>
<g id="a_Node000004"><a xlink:href="classMayaFlux_1_1Buffers_1_1TransferProcessor_a1aa8adc7dc5d176a81893bf932cb493f.html#a1aa8adc7dc5d176a81893bf932cb493f" target="_top" xlink:title="The core processing function that must be implemented by derived classes.">
<polygon fill="white" stroke="#666666" points="161,-131.5 0,-131.5 0,-90.5 161,-90.5 161,-131.5"/>
<text text-anchor="start" x="8" y="-119.5" font-family="Helvetica,sans-Serif" font-size="10.00">MayaFlux::Buffers::</text>
<text text-anchor="start" x="8" y="-108.5" font-family="Helvetica,sans-Serif" font-size="10.00">TransferProcessor::processing</text>
<text text-anchor="middle" x="80.5" y="-97.5" font-family="Helvetica,sans-Serif" font-size="10.00">_function</text>
</a>
</g>
</g>
<!-- Node3&#45;&gt;Node4 -->
<g id="edge3_Node000003_Node000004" class="edge">
<title>Node3&#45;&gt;Node4</title>
<g id="a_edge3_Node000003_Node000004"><a xlink:title=" ">
<path fill="none" stroke="#63b8ff" d="M186.57,-111C178.13,-111 169.57,-111 161.17,-111"/>
<polygon fill="#63b8ff" stroke="#63b8ff" points="186.78,-114.5 196.78,-111 186.78,-107.5 186.78,-114.5"/>
</a>
</g>
</g>
</g>
</svg>
