<?xml version="1.0" encoding="UTF-8" standalone="no"?>
<!DOCTYPE svg PUBLIC "-//W3C//DTD SVG 1.1//EN"
 "http://www.w3.org/Graphics/SVG/1.1/DTD/svg11.dtd">
<!-- Generated by graphviz version 2.43.0 (0)
 -->
<!-- Title: MayaFlux::Nodes::Network::PhysicsOperator::process Pages: 1 -->
<svg width="733pt" height="270pt"
 viewBox="0.00 0.00 733.00 270.00" xmlns="http://www.w3.org/2000/svg" xmlns:xlink="http://www.w3.org/1999/xlink">
<g id="graph0" class="graph" transform="scale(1 1) rotate(0) translate(4 266)">
<title>MayaFlux::Nodes::Network::PhysicsOperator::process</title>
<!-- Node1 -->
<g id="Node000001" class="node">
<title>Node1</title>
<g id="a_Node000001"><a xlink:title="Process for one batch cycle.">
<polygon fill="#999999" stroke="#666666" points="149,-116.5 0,-116.5 0,-86.5 149,-86.5 149,-116.5"/>
<text text-anchor="start" x="8" y="-104.5" font-family="Helvetica,sans-Serif" font-size="10.00">MayaFlux::Nodes::Network</text>
<text text-anchor="middle" x="74.5" y="-93.5" font-family="Helvetica,sans-Serif" font-size="10.00">::PhysicsOperator::process</text>
</a>
</g>
</g>
<!-- Node2 -->
<g id="Node000002" class="node">
<title>Node2</title>
<g id="a_Node000002"><a xlink:href="classMayaFlux_1_1Nodes_1_1Network_1_1PhysicsOperator_a48bae9ef972d36bc989c901f2fed1c64.html#a48bae9ef972d36bc989c901f2fed1c64" target="_top" xlink:title=" ">
<polygon fill="white" stroke="#666666" points="355,-197.5 185,-197.5 185,-167.5 355,-167.5 355,-197.5"/>
<text text-anchor="start" x="193" y="-185.5" font-family="Helvetica,sans-Serif" font-size="10.00">MayaFlux::Nodes::Network</text>
<text text-anchor="middle" x="270" y="-174.5" font-family="Helvetica,sans-Serif" font-size="10.00">::PhysicsOperator::apply_forces</text>
</a>
</g>
</g>
<!-- Node1&#45;&gt;Node2 -->
<g id="edge1_Node000001_Node000002" class="edge">
<title>Node1&#45;&gt;Node2</title>
<g id="a_edge1_Node000001_Node000002"><a xlink:title=" ">
<path fill="none" stroke="#63b8ff" d="M101.86,-116.72C123.65,-128.87 155.66,-145.75 185,-157.5 190.84,-159.84 196.98,-162.07 203.18,-164.18"/>
<polygon fill="#63b8ff" stroke="#63b8ff" points="202.34,-167.59 212.93,-167.37 204.52,-160.93 202.34,-167.59"/>
</a>
</g>
</g>
<!-- Node8 -->
<g id="Node000008" class="node">
<title>Node8</title>
<g id="a_Node000008"><a xlink:href="classMayaFlux_1_1Nodes_1_1Network_1_1PhysicsOperator_a8bb910e17153109db8f2f4bd4cb6837a.html#a8bb910e17153109db8f2f4bd4cb6837a" target="_top" xlink:title=" ">
<polygon fill="white" stroke="#666666" points="344.5,-149 195.5,-149 195.5,-108 344.5,-108 344.5,-149"/>
<text text-anchor="start" x="203.5" y="-137" font-family="Helvetica,sans-Serif" font-size="10.00">MayaFlux::Nodes::Network</text>
<text text-anchor="start" x="203.5" y="-126" font-family="Helvetica,sans-Serif" font-size="10.00">::PhysicsOperator::handle</text>
<text text-anchor="middle" x="270" y="-115" font-family="Helvetica,sans-Serif" font-size="10.00">_boundary_conditions</text>
</a>
</g>
</g>
<!-- Node1&#45;&gt;Node8 -->
<g id="edge7_Node000001_Node000008" class="edge">
<title>Node1&#45;&gt;Node8</title>
<g id="a_edge7_Node000001_Node000008"><a xlink:title=" ">
<path fill="none" stroke="#63b8ff" d="M149.21,-111.78C161.05,-113.44 173.39,-115.16 185.45,-116.84"/>
<polygon fill="#63b8ff" stroke="#63b8ff" points="185.11,-120.33 195.5,-118.24 186.08,-113.4 185.11,-120.33"/>
</a>
</g>
</g>
<!-- Node9 -->
<g id="Node000009" class="node">
<title>Node9</title>
<g id="a_Node000009"><a xlink:href="classMayaFlux_1_1Nodes_1_1Network_1_1PhysicsOperator_a52f7979e872761071e5f639622e5fa9c.html#a52f7979e872761071e5f639622e5fa9c" target="_top" xlink:title=" ">
<polygon fill="white" stroke="#666666" points="346,-89.5 194,-89.5 194,-59.5 346,-59.5 346,-89.5"/>
<text text-anchor="start" x="202" y="-77.5" font-family="Helvetica,sans-Serif" font-size="10.00">MayaFlux::Nodes::Network</text>
<text text-anchor="middle" x="270" y="-66.5" font-family="Helvetica,sans-Serif" font-size="10.00">::PhysicsOperator::integrate</text>
</a>
</g>
</g>
<!-- Node1&#45;&gt;Node9 -->
<g id="edge8_Node000001_Node000009" class="edge">
<title>Node1&#45;&gt;Node9</title>
<g id="a_edge8_Node000001_Node000009"><a xlink:title=" ">
<path fill="none" stroke="#63b8ff" d="M149.21,-91.22C160.52,-89.64 172.29,-87.99 183.83,-86.38"/>
<polygon fill="#63b8ff" stroke="#63b8ff" points="184.47,-89.83 193.89,-84.98 183.51,-82.9 184.47,-89.83"/>
</a>
</g>
</g>
<!-- Node10 -->
<g id="Node000010" class="node">
<title>Node10</title>
<g id="a_Node000010"><a xlink:href="classMayaFlux_1_1Nodes_1_1Network_1_1PhysicsOperator_a82aaa0865e5861710b1949086663a6d1.html#a82aaa0865e5861710b1949086663a6d1" target="_top" xlink:title=" ">
<polygon fill="white" stroke="#666666" points="344.5,-41 195.5,-41 195.5,0 344.5,0 344.5,-41"/>
<text text-anchor="start" x="203.5" y="-29" font-family="Helvetica,sans-Serif" font-size="10.00">MayaFlux::Nodes::Network</text>
<text text-anchor="start" x="203.5" y="-18" font-family="Helvetica,sans-Serif" font-size="10.00">::PhysicsOperator::sync</text>
<text text-anchor="middle" x="270" y="-7" font-family="Helvetica,sans-Serif" font-size="10.00">_to_point_collection</text>
</a>
</g>
</g>
<!-- Node1&#45;&gt;Node10 -->
<g id="edge9_Node000001_Node000010" class="edge">
<title>Node1&#45;&gt;Node10</title>
<g id="a_edge9_Node000001_Node000010"><a xlink:title=" ">
<path fill="none" stroke="#63b8ff" d="M105.84,-86.44C127.64,-75.85 157.84,-61.65 185,-50.5 189.71,-48.57 194.6,-46.63 199.55,-44.73"/>
<polygon fill="#63b8ff" stroke="#63b8ff" points="200.97,-47.94 209.09,-41.13 198.49,-41.39 200.97,-47.94"/>
</a>
</g>
</g>
<!-- Node3 -->
<g id="Node000003" class="node">
<title>Node3</title>
<g id="a_Node000003"><a xlink:href="classMayaFlux_1_1Nodes_1_1Network_1_1PhysicsOperator_ac0b10c54fd28110a2d53b1f639e73d8d.html#ac0b10c54fd28110a2d53b1f639e73d8d" target="_top" xlink:title=" ">
<polygon fill="white" stroke="#666666" points="540,-262 391,-262 391,-221 540,-221 540,-262"/>
<text text-anchor="start" x="399" y="-250" font-family="Helvetica,sans-Serif" font-size="10.00">MayaFlux::Nodes::Network</text>
<text text-anchor="start" x="399" y="-239" font-family="Helvetica,sans-Serif" font-size="10.00">::PhysicsOperator::apply</text>
<text text-anchor="middle" x="465.5" y="-228" font-family="Helvetica,sans-Serif" font-size="10.00">_attraction_forces</text>
</a>
</g>
</g>
<!-- Node2&#45;&gt;Node3 -->
<g id="edge2_Node000002_Node000003" class="edge">
<title>Node2&#45;&gt;Node3</title>
<g id="a_edge2_Node000002_Node000003"><a xlink:title=" ">
<path fill="none" stroke="#63b8ff" d="M320.33,-197.54C340.71,-203.75 364.82,-211.11 387.43,-218"/>
<polygon fill="#63b8ff" stroke="#63b8ff" points="386.42,-221.35 397.01,-220.92 388.47,-214.66 386.42,-221.35"/>
</a>
</g>
</g>
<!-- Node5 -->
<g id="Node000005" class="node">
<title>Node5</title>
<g id="a_Node000005"><a xlink:href="classMayaFlux_1_1Nodes_1_1Network_1_1PhysicsOperator_ad891719253bca529bd4e07a545ff5266.html#ad891719253bca529bd4e07a545ff5266" target="_top" xlink:title=" ">
<polygon fill="white" stroke="#666666" points="540,-203 391,-203 391,-162 540,-162 540,-203"/>
<text text-anchor="start" x="399" y="-191" font-family="Helvetica,sans-Serif" font-size="10.00">MayaFlux::Nodes::Network</text>
<text text-anchor="start" x="399" y="-180" font-family="Helvetica,sans-Serif" font-size="10.00">::PhysicsOperator::apply</text>
<text text-anchor="middle" x="465.5" y="-169" font-family="Helvetica,sans-Serif" font-size="10.00">_spatial_interactions</text>
</a>
</g>
</g>
<!-- Node2&#45;&gt;Node5 -->
<g id="edge4_Node000002_Node000005" class="edge">
<title>Node2&#45;&gt;Node5</title>
<g id="a_edge4_Node000002_Node000005"><a xlink:title=" ">
<path fill="none" stroke="#63b8ff" d="M355.03,-182.5C363.51,-182.5 372.13,-182.5 380.61,-182.5"/>
<polygon fill="#63b8ff" stroke="#63b8ff" points="380.87,-186 390.87,-182.5 380.87,-179 380.87,-186"/>
</a>
</g>
</g>
<!-- Node6 -->
<g id="Node000006" class="node">
<title>Node6</title>
<g id="a_Node000006"><a xlink:href="classMayaFlux_1_1Nodes_1_1Network_1_1PhysicsOperator_a638c82022a7ce3c277fab3fa4a9e7cfb.html#a638c82022a7ce3c277fab3fa4a9e7cfb" target="_top" xlink:title=" ">
<polygon fill="white" stroke="#666666" points="540,-144 391,-144 391,-103 540,-103 540,-144"/>
<text text-anchor="start" x="399" y="-132" font-family="Helvetica,sans-Serif" font-size="10.00">MayaFlux::Nodes::Network</text>
<text text-anchor="start" x="399" y="-121" font-family="Helvetica,sans-Serif" font-size="10.00">::PhysicsOperator::apply</text>
<text text-anchor="middle" x="465.5" y="-110" font-family="Helvetica,sans-Serif" font-size="10.00">_turbulence</text>
</a>
</g>
</g>
<!-- Node2&#45;&gt;Node6 -->
<g id="edge5_Node000002_Node000006" class="edge">
<title>Node2&#45;&gt;Node6</title>
<g id="a_edge5_Node000002_Node000006"><a xlink:title=" ">
<path fill="none" stroke="#63b8ff" d="M322.11,-167.39C332.98,-164.15 344.37,-160.73 355,-157.5 366.08,-154.13 377.79,-150.53 389.26,-146.99"/>
<polygon fill="#63b8ff" stroke="#63b8ff" points="390.3,-150.33 398.82,-144.03 388.23,-143.64 390.3,-150.33"/>
</a>
</g>
</g>
<!-- Node4 -->
<g id="Node000004" class="node">
<title>Node4</title>
<g id="a_Node000004"><a xlink:href="namespaceMayaFlux_1_1Kinesis_1_1ForceFields_a85b6f3bf5529817d45160e3cc217165c.html#a85b6f3bf5529817d45160e3cc217165c" target="_top" xlink:title="Radial attraction/repulsion toward an anchor point.">
<polygon fill="white" stroke="#666666" points="725,-256.5 576,-256.5 576,-226.5 725,-226.5 725,-256.5"/>
<text text-anchor="start" x="584" y="-244.5" font-family="Helvetica,sans-Serif" font-size="10.00">MayaFlux::Kinesis::</text>
<text text-anchor="middle" x="650.5" y="-233.5" font-family="Helvetica,sans-Serif" font-size="10.00">ForceFields::point_attractor</text>
</a>
</g>
</g>
<!-- Node3&#45;&gt;Node4 -->
<g id="edge3_Node000003_Node000004" class="edge">
<title>Node3&#45;&gt;Node4</title>
<g id="a_edge3_Node000003_Node000004"><a xlink:title=" ">
<path fill="none" stroke="#63b8ff" d="M540.14,-241.5C548.47,-241.5 557.01,-241.5 565.46,-241.5"/>
<polygon fill="#63b8ff" stroke="#63b8ff" points="565.71,-245 575.71,-241.5 565.71,-238 565.71,-245"/>
</a>
</g>
</g>
<!-- Node7 -->
<g id="Node000007" class="node">
<title>Node7</title>
<g id="a_Node000007"><a xlink:href="namespaceMayaFlux_1_1Kinesis_1_1ForceFields_a7a6728f92cb51165672304fad2e2643b.html#a7a6728f92cb51165672304fad2e2643b" target="_top" xlink:title="Uniform random force field using Stochastic infrastructure.">
<polygon fill="white" stroke="#666666" points="715,-138.5 586,-138.5 586,-108.5 715,-108.5 715,-138.5"/>
<text text-anchor="start" x="594" y="-126.5" font-family="Helvetica,sans-Serif" font-size="10.00">MayaFlux::Kinesis::</text>
<text text-anchor="middle" x="650.5" y="-115.5" font-family="Helvetica,sans-Serif" font-size="10.00">ForceFields::turbulence</text>
</a>
</g>
</g>
<!-- Node6&#45;&gt;Node7 -->
<g id="edge6_Node000006_Node000007" class="edge">
<title>Node6&#45;&gt;Node7</title>
<g id="a_edge6_Node000006_Node000007"><a xlink:title=" ">
<path fill="none" stroke="#63b8ff" d="M540.14,-123.5C551.82,-123.5 563.9,-123.5 575.58,-123.5"/>
<polygon fill="#63b8ff" stroke="#63b8ff" points="575.72,-127 585.72,-123.5 575.72,-120 575.72,-127"/>
</a>
</g>
</g>
</g>
</svg>
