<?xml version="1.0" encoding="UTF-8" standalone="no"?>
<!DOCTYPE svg PUBLIC "-//W3C//DTD SVG 1.1//EN"
 "http://www.w3.org/Graphics/SVG/1.1/DTD/svg11.dtd">
<!-- Generated by graphviz version 2.43.0 (0)
 -->
<!-- Title: MayaFlux::Kriya::SamplingPipeline Pages: 1 -->
<!--zoomable 1641 -->

<svg id="main" version="1.1" xmlns="http://www.w3.org/2000/svg" xmlns:xlink="http://www.w3.org/1999/xlink" xml:space="preserve" onload="init(evt)">
<style type="text/css"><![CDATA[
.node, .edge {opacity: 0.7;}
.node.selected, .edge.selected {opacity: 1;}
.edge:hover path { stroke: red; }
.edge:hover polygon { stroke: red; fill: red; }
]]></style>

<defs>
  <circle id="rim" cx="0" cy="0" r="7"/>
  <circle id="rim2" cx="0" cy="0" r="3.5"/>
  <g id="zoomPlus">
    <use xlink:href="#rim" fill="#404040"><set attributeName="fill" to="#808080" begin="zoomplus.mouseover" end="zoomplus.mouseout"/></use>
    <path d="M-4,0h8M0,-4v8" fill="none" stroke="white" stroke-width="1.5" pointer-events="none"/>
  </g>
  <g id="zoomMin">
    <use xlink:href="#rim" fill="#404040"><set attributeName="fill" to="#808080" begin="zoomminus.mouseover" end="zoomminus.mouseout"/></use>
    <path d="M-4,0h8" fill="none" stroke="white" stroke-width="1.5" pointer-events="none"/>
  </g>
  <g id="arrowUp" transform="translate(30 24)">
    <use xlink:href="#rim"/>
    <path pointer-events="none" fill="none" stroke="white" stroke-width="1.5" d="M0,-3.0v7 M-2.5,-0.5L0,-3.0L2.5,-0.5"/>
  </g>
  <g id="arrowRight" transform="rotate(90) translate(36 -43)">
    <use xlink:href="#rim"/>
    <path pointer-events="none" fill="none" stroke="white" stroke-width="1.5" d="M0,-3.0v7 M-2.5,-0.5L0,-3.0L2.5,-0.5"/>
  </g>
  <g id="arrowDown" transform="rotate(180) translate(-30 -48)">
    <use xlink:href="#rim"/>
    <path pointer-events="none" fill="none" stroke="white" stroke-width="1.5" d="M0,-3.0v7 M-2.5,-0.5L0,-3.0L2.5,-0.5"/>
  </g>
  <g id="arrowLeft" transform="rotate(270) translate(-36 17)">
    <use xlink:href="#rim"/>
    <path pointer-events="none" fill="none" stroke="white" stroke-width="1.5" d="M0,-3.0v7 M-2.5,-0.5L0,-3.0L2.5,-0.5"/>
  </g>
  <g id="resetDef">
    <use xlink:href="#rim2" fill="#404040"><set attributeName="fill" to="#808080" begin="reset.mouseover" end="reset.mouseout"/></use>
  </g>
</defs>
<script type="application/ecmascript">
var viewWidth = 537;
var viewHeight = 1641;
var sectionId = 'dynsection-0';
</script>
<script type="application/ecmascript" xlink:href="svg.min.js"/>
<svg id="graph" class="graph">
<g id="viewport">
<title>MayaFlux::Kriya::SamplingPipeline</title>
<!-- Node1 -->
<g id="Node000001" class="node">
<title>Node1</title>
<g id="a_Node000001"><a xlink:title="Pipeline&#45;coordinated polyphonic playback of a bounded audio stream.">
<polygon fill="#999999" stroke="transparent" points="333.5,-315 191.5,-315 191.5,0 333.5,0 333.5,-315"/>
<text text-anchor="start" x="196.5" y="-302.5" font-family="Helvetica,sans-Serif" font-size="10.00">MayaFlux::Kriya::Sampling</text>
<text text-anchor="start" x="242.5" y="-291.5" font-family="Helvetica,sans-Serif" font-size="10.00">Pipeline</text>
<text text-anchor="start" x="210.5" y="-276.5" font-family="Helvetica,sans-Serif" font-size="10.00">&#45;</text>
<text text-anchor="start" x="233.5" y="-276.5" font-family="Helvetica,sans-Serif" font-size="10.00">m_buf_size</text>
<text text-anchor="start" x="210.5" y="-261.5" font-family="Helvetica,sans-Serif" font-size="10.00">&#45;</text>
<text text-anchor="start" x="233.5" y="-261.5" font-family="Helvetica,sans-Serif" font-size="10.00">m_buffer</text>
<text text-anchor="start" x="210.5" y="-246.5" font-family="Helvetica,sans-Serif" font-size="10.00">&#45;</text>
<text text-anchor="start" x="233.5" y="-246.5" font-family="Helvetica,sans-Serif" font-size="10.00">m_built</text>
<text text-anchor="start" x="210.5" y="-231.5" font-family="Helvetica,sans-Serif" font-size="10.00">&#45;</text>
<text text-anchor="start" x="233.5" y="-231.5" font-family="Helvetica,sans-Serif" font-size="10.00">m_channel</text>
<text text-anchor="start" x="210.5" y="-216.5" font-family="Helvetica,sans-Serif" font-size="10.00">&#45;</text>
<text text-anchor="start" x="233.5" y="-216.5" font-family="Helvetica,sans-Serif" font-size="10.00">m_pipeline</text>
<text text-anchor="start" x="210.5" y="-201.5" font-family="Helvetica,sans-Serif" font-size="10.00">&#45;</text>
<text text-anchor="start" x="233.5" y="-201.5" font-family="Helvetica,sans-Serif" font-size="10.00">m_processor</text>
<text text-anchor="start" x="210.5" y="-186.5" font-family="Helvetica,sans-Serif" font-size="10.00">&#45;</text>
<text text-anchor="start" x="233.5" y="-186.5" font-family="Helvetica,sans-Serif" font-size="10.00">m_stream</text>
<text text-anchor="start" x="208" y="-171.5" font-family="Helvetica,sans-Serif" font-size="10.00">+</text>
<text text-anchor="start" x="233.5" y="-171.5" font-family="Helvetica,sans-Serif" font-size="10.00">build()</text>
<text text-anchor="start" x="208" y="-156.5" font-family="Helvetica,sans-Serif" font-size="10.00">+</text>
<text text-anchor="start" x="233.5" y="-156.5" font-family="Helvetica,sans-Serif" font-size="10.00">build_for()</text>
<text text-anchor="start" x="208" y="-141.5" font-family="Helvetica,sans-Serif" font-size="10.00">+</text>
<text text-anchor="start" x="233.5" y="-141.5" font-family="Helvetica,sans-Serif" font-size="10.00">capture()</text>
<text text-anchor="start" x="208" y="-126.5" font-family="Helvetica,sans-Serif" font-size="10.00">+</text>
<text text-anchor="start" x="233.5" y="-126.5" font-family="Helvetica,sans-Serif" font-size="10.00">get_buffer()</text>
<text text-anchor="start" x="208" y="-111.5" font-family="Helvetica,sans-Serif" font-size="10.00">+</text>
<text text-anchor="start" x="233.5" y="-111.5" font-family="Helvetica,sans-Serif" font-size="10.00">get_stream()</text>
<text text-anchor="start" x="208" y="-96.5" font-family="Helvetica,sans-Serif" font-size="10.00">+</text>
<text text-anchor="start" x="233.5" y="-96.5" font-family="Helvetica,sans-Serif" font-size="10.00">load()</text>
<text text-anchor="start" x="208" y="-81.5" font-family="Helvetica,sans-Serif" font-size="10.00">+</text>
<text text-anchor="start" x="233.5" y="-81.5" font-family="Helvetica,sans-Serif" font-size="10.00">operator=()</text>
<text text-anchor="start" x="208" y="-66.5" font-family="Helvetica,sans-Serif" font-size="10.00">+</text>
<text text-anchor="start" x="233.5" y="-66.5" font-family="Helvetica,sans-Serif" font-size="10.00">pipeline()</text>
<text text-anchor="start" x="208" y="-51.5" font-family="Helvetica,sans-Serif" font-size="10.00">+</text>
<text text-anchor="start" x="233.5" y="-51.5" font-family="Helvetica,sans-Serif" font-size="10.00">play()</text>
<text text-anchor="start" x="208" y="-36.5" font-family="Helvetica,sans-Serif" font-size="10.00">+</text>
<text text-anchor="start" x="233.5" y="-36.5" font-family="Helvetica,sans-Serif" font-size="10.00">play()</text>
<text text-anchor="start" x="233.5" y="-21.5" font-family="Helvetica,sans-Serif" font-size="10.00">and 10 more...</text>
<text text-anchor="start" x="210.5" y="-6.5" font-family="Helvetica,sans-Serif" font-size="10.00">&#45;</text>
<text text-anchor="start" x="233.5" y="-6.5" font-family="Helvetica,sans-Serif" font-size="10.00">any_active()</text>
<polygon fill="#666666" stroke="#666666" points="191.5,-286.5 191.5,-286.5 333.5,-286.5 333.5,-286.5 191.5,-286.5"/>
<polygon fill="#666666" stroke="#666666" points="191.5,-181.5 191.5,-181.5 231.5,-181.5 231.5,-181.5 191.5,-181.5"/>
<polygon fill="#666666" stroke="#666666" points="231.5,-181.5 231.5,-181.5 333.5,-181.5 333.5,-181.5 231.5,-181.5"/>
<polygon fill="none" stroke="#666666" points="191.5,0 191.5,-315 333.5,-315 333.5,0 191.5,0"/>
</a>
</g>
</g>
<!-- Node2 -->
<g id="Node000002" class="node">
<title>Node2</title>
<g id="a_Node000002"><a xlink:href="classMayaFlux_1_1Buffers_1_1BufferManager.html" target="_top" xlink:title="Token&#45;based multimodal buffer management system for unified data stream processing.">
<polygon fill="white" stroke="transparent" points="160.5,-862 22.5,-862 22.5,-514 160.5,-514 160.5,-862"/>
<text text-anchor="start" x="44" y="-850" font-family="Helvetica,sans-Serif" font-size="10.00">MayaFlux::Buffers::</text>
<text text-anchor="start" x="55" y="-839" font-family="Helvetica,sans-Serif" font-size="10.00">BufferManager</text>
<text text-anchor="start" x="29" y="-824" font-family="Helvetica,sans-Serif" font-size="10.00">&#45;</text>
<text text-anchor="start" x="39.5" y="-824" font-family="Helvetica,sans-Serif" font-size="10.00">m_access_control</text>
<text text-anchor="start" x="29" y="-809" font-family="Helvetica,sans-Serif" font-size="10.00">&#45;</text>
<text text-anchor="start" x="39.5" y="-809" font-family="Helvetica,sans-Serif" font-size="10.00">m_global_processing</text>
<text text-anchor="start" x="39.5" y="-798" font-family="Helvetica,sans-Serif" font-size="10.00">_chain</text>
<text text-anchor="start" x="29" y="-783" font-family="Helvetica,sans-Serif" font-size="10.00">&#45;</text>
<text text-anchor="start" x="39.5" y="-783" font-family="Helvetica,sans-Serif" font-size="10.00">m_input_control</text>
<text text-anchor="start" x="29" y="-768" font-family="Helvetica,sans-Serif" font-size="10.00">&#45;</text>
<text text-anchor="start" x="39.5" y="-768" font-family="Helvetica,sans-Serif" font-size="10.00">m_processor_control</text>
<text text-anchor="start" x="29" y="-753" font-family="Helvetica,sans-Serif" font-size="10.00">&#45;</text>
<text text-anchor="start" x="39.5" y="-753" font-family="Helvetica,sans-Serif" font-size="10.00">m_supply_mixing</text>
<text text-anchor="start" x="29" y="-738" font-family="Helvetica,sans-Serif" font-size="10.00">&#45;</text>
<text text-anchor="start" x="39.5" y="-738" font-family="Helvetica,sans-Serif" font-size="10.00">m_unit_manager</text>
<text text-anchor="start" x="26.5" y="-723" font-family="Helvetica,sans-Serif" font-size="10.00">+</text>
<text text-anchor="start" x="39.5" y="-723" font-family="Helvetica,sans-Serif" font-size="10.00">add_buffer()</text>
<text text-anchor="start" x="26.5" y="-708" font-family="Helvetica,sans-Serif" font-size="10.00">+</text>
<text text-anchor="start" x="39.5" y="-708" font-family="Helvetica,sans-Serif" font-size="10.00">add_processor()</text>
<text text-anchor="start" x="26.5" y="-693" font-family="Helvetica,sans-Serif" font-size="10.00">+</text>
<text text-anchor="start" x="39.5" y="-693" font-family="Helvetica,sans-Serif" font-size="10.00">add_processor()</text>
<text text-anchor="start" x="26.5" y="-678" font-family="Helvetica,sans-Serif" font-size="10.00">+</text>
<text text-anchor="start" x="39.5" y="-678" font-family="Helvetica,sans-Serif" font-size="10.00">add_processor()</text>
<text text-anchor="start" x="26.5" y="-663" font-family="Helvetica,sans-Serif" font-size="10.00">+</text>
<text text-anchor="start" x="39.5" y="-663" font-family="Helvetica,sans-Serif" font-size="10.00">attach_quick_process()</text>
<text text-anchor="start" x="26.5" y="-648" font-family="Helvetica,sans-Serif" font-size="10.00">+</text>
<text text-anchor="start" x="39.5" y="-648" font-family="Helvetica,sans-Serif" font-size="10.00">attach_quick_process()</text>
<text text-anchor="start" x="26.5" y="-633" font-family="Helvetica,sans-Serif" font-size="10.00">+</text>
<text text-anchor="start" x="39.5" y="-633" font-family="Helvetica,sans-Serif" font-size="10.00">attach_quick_process()</text>
<text text-anchor="start" x="26.5" y="-618" font-family="Helvetica,sans-Serif" font-size="10.00">+</text>
<text text-anchor="start" x="39.5" y="-618" font-family="Helvetica,sans-Serif" font-size="10.00">attach_quick_process()</text>
<text text-anchor="start" x="26.5" y="-603" font-family="Helvetica,sans-Serif" font-size="10.00">+</text>
<text text-anchor="start" x="39.5" y="-603" font-family="Helvetica,sans-Serif" font-size="10.00">attach_quick_process()</text>
<text text-anchor="start" x="26.5" y="-588" font-family="Helvetica,sans-Serif" font-size="10.00">+</text>
<text text-anchor="start" x="39.5" y="-588" font-family="Helvetica,sans-Serif" font-size="10.00">BufferManager()</text>
<text text-anchor="start" x="39.5" y="-573" font-family="Helvetica,sans-Serif" font-size="10.00">and 46 more...</text>
<text text-anchor="start" x="29" y="-558" font-family="Helvetica,sans-Serif" font-size="10.00">&#45;</text>
<text text-anchor="start" x="39.5" y="-558" font-family="Helvetica,sans-Serif" font-size="10.00">process_audio_token</text>
<text text-anchor="start" x="39.5" y="-547" font-family="Helvetica,sans-Serif" font-size="10.00">_default()</text>
<text text-anchor="start" x="29" y="-532" font-family="Helvetica,sans-Serif" font-size="10.00">&#45;</text>
<text text-anchor="start" x="39.5" y="-532" font-family="Helvetica,sans-Serif" font-size="10.00">process_graphics_token</text>
<text text-anchor="start" x="39.5" y="-521" font-family="Helvetica,sans-Serif" font-size="10.00">_default()</text>
<polygon fill="#666666" stroke="#666666" points="22.5,-834 22.5,-834 160.5,-834 160.5,-834 22.5,-834"/>
<polygon fill="#666666" stroke="#666666" points="22.5,-733 22.5,-733 37.5,-733 37.5,-733 22.5,-733"/>
<polygon fill="#666666" stroke="#666666" points="37.5,-733 37.5,-733 160.5,-733 160.5,-733 37.5,-733"/>
<polygon fill="none" stroke="#666666" points="22.5,-514 22.5,-862 160.5,-862 160.5,-514 22.5,-514"/>
</a>
</g>
</g>
<!-- Node2&#45;&gt;Node1 -->
<g id="edge1_Node000001_Node000002" class="edge">
<title>Node2&#45;&gt;Node1</title>
<g id="a_edge1_Node000001_Node000002"><a xlink:title=" ">
<path fill="none" stroke="#63b8ff" d="M126.58,-513.6C138.35,-464.07 152.8,-410.41 169.5,-362 174.67,-347 180.56,-331.61 186.81,-316.34"/>
<polygon fill="none" stroke="#63b8ff" points="186.81,-316.32 185.42,-309.25 191.41,-305.24 192.8,-312.31 186.81,-316.32"/>
</a>
</g>
<text text-anchor="middle" x="201.5" y="-336" font-family="Helvetica,sans-Serif" font-size="10.00" fill="grey"> &#45;m_mgr</text>
</g>
<!-- Node3 -->
<g id="Node000003" class="node">
<title>Node3</title>
<g id="a_Node000003"><a xlink:href="classMayaFlux_1_1Vruta_1_1TaskScheduler.html" target="_top" xlink:title="Token&#45;based multimodal task scheduling system for unified coroutine processing.">
<polygon fill="white" stroke="transparent" points="346.5,-1014 178.5,-1014 178.5,-362 346.5,-362 346.5,-1014"/>
<text text-anchor="start" x="184" y="-1002" font-family="Helvetica,sans-Serif" font-size="10.00">MayaFlux::Vruta::TaskScheduler</text>
<text text-anchor="start" x="185" y="-987" font-family="Helvetica,sans-Serif" font-size="10.00">&#45;</text>
<text text-anchor="start" x="195.5" y="-987" font-family="Helvetica,sans-Serif" font-size="10.00">m_cleanup_threshold</text>
<text text-anchor="start" x="185" y="-972" font-family="Helvetica,sans-Serif" font-size="10.00">&#45;</text>
<text text-anchor="start" x="195.5" y="-972" font-family="Helvetica,sans-Serif" font-size="10.00">m_conditional_pending</text>
<text text-anchor="start" x="195.5" y="-961" font-family="Helvetica,sans-Serif" font-size="10.00">_count</text>
<text text-anchor="start" x="185" y="-946" font-family="Helvetica,sans-Serif" font-size="10.00">&#45;</text>
<text text-anchor="start" x="195.5" y="-946" font-family="Helvetica,sans-Serif" font-size="10.00">m_conditional_tasks</text>
<text text-anchor="start" x="185" y="-931" font-family="Helvetica,sans-Serif" font-size="10.00">&#45;</text>
<text text-anchor="start" x="195.5" y="-931" font-family="Helvetica,sans-Serif" font-size="10.00">m_conditional_thread</text>
<text text-anchor="start" x="185" y="-916" font-family="Helvetica,sans-Serif" font-size="10.00">&#45;</text>
<text text-anchor="start" x="195.5" y="-916" font-family="Helvetica,sans-Serif" font-size="10.00">m_current_buffer_cycle</text>
<text text-anchor="start" x="185" y="-901" font-family="Helvetica,sans-Serif" font-size="10.00">&#45;</text>
<text text-anchor="start" x="195.5" y="-901" font-family="Helvetica,sans-Serif" font-size="10.00">m_next_task_id</text>
<text text-anchor="start" x="185" y="-886" font-family="Helvetica,sans-Serif" font-size="10.00">&#45;</text>
<text text-anchor="start" x="195.5" y="-886" font-family="Helvetica,sans-Serif" font-size="10.00">m_pending_count</text>
<text text-anchor="start" x="185" y="-871" font-family="Helvetica,sans-Serif" font-size="10.00">&#45;</text>
<text text-anchor="start" x="195.5" y="-871" font-family="Helvetica,sans-Serif" font-size="10.00">m_registered_frame_rate</text>
<text text-anchor="start" x="185" y="-856" font-family="Helvetica,sans-Serif" font-size="10.00">&#45;</text>
<text text-anchor="start" x="195.5" y="-856" font-family="Helvetica,sans-Serif" font-size="10.00">m_registered_sample_rate</text>
<text text-anchor="start" x="185" y="-841" font-family="Helvetica,sans-Serif" font-size="10.00">&#45;</text>
<text text-anchor="start" x="195.5" y="-841" font-family="Helvetica,sans-Serif" font-size="10.00">m_tasks</text>
<text text-anchor="start" x="185" y="-826" font-family="Helvetica,sans-Serif" font-size="10.00">&#45;</text>
<text text-anchor="start" x="195.5" y="-826" font-family="Helvetica,sans-Serif" font-size="10.00">m_token_clocks</text>
<text text-anchor="start" x="185" y="-811" font-family="Helvetica,sans-Serif" font-size="10.00">&#45;</text>
<text text-anchor="start" x="195.5" y="-811" font-family="Helvetica,sans-Serif" font-size="10.00">m_token_processors</text>
<text text-anchor="start" x="185" y="-796" font-family="Helvetica,sans-Serif" font-size="10.00">&#45;</text>
<text text-anchor="start" x="195.5" y="-796" font-family="Helvetica,sans-Serif" font-size="10.00">m_token_rates</text>
<text text-anchor="start" x="185" y="-781" font-family="Helvetica,sans-Serif" font-size="10.00">&#45;</text>
<text text-anchor="start" x="195.5" y="-781" font-family="Helvetica,sans-Serif" font-size="10.00">MAX_PENDING_CONDITIONAL</text>
<text text-anchor="start" x="185" y="-766" font-family="Helvetica,sans-Serif" font-size="10.00">&#45;</text>
<text text-anchor="start" x="195.5" y="-766" font-family="Helvetica,sans-Serif" font-size="10.00">MAX_PENDING_TASKS</text>
<text text-anchor="start" x="182.5" y="-751" font-family="Helvetica,sans-Serif" font-size="10.00">+</text>
<text text-anchor="start" x="195.5" y="-751" font-family="Helvetica,sans-Serif" font-size="10.00">add_task()</text>
<text text-anchor="start" x="182.5" y="-736" font-family="Helvetica,sans-Serif" font-size="10.00">+</text>
<text text-anchor="start" x="195.5" y="-736" font-family="Helvetica,sans-Serif" font-size="10.00">cancel_task()</text>
<text text-anchor="start" x="182.5" y="-721" font-family="Helvetica,sans-Serif" font-size="10.00">+</text>
<text text-anchor="start" x="195.5" y="-721" font-family="Helvetica,sans-Serif" font-size="10.00">cancel_task()</text>
<text text-anchor="start" x="182.5" y="-706" font-family="Helvetica,sans-Serif" font-size="10.00">+</text>
<text text-anchor="start" x="195.5" y="-706" font-family="Helvetica,sans-Serif" font-size="10.00">create_value_accessor()</text>
<text text-anchor="start" x="182.5" y="-691" font-family="Helvetica,sans-Serif" font-size="10.00">+</text>
<text text-anchor="start" x="195.5" y="-691" font-family="Helvetica,sans-Serif" font-size="10.00">current_units()</text>
<text text-anchor="start" x="182.5" y="-676" font-family="Helvetica,sans-Serif" font-size="10.00">+</text>
<text text-anchor="start" x="195.5" y="-676" font-family="Helvetica,sans-Serif" font-size="10.00">get_all_tasks()</text>
<text text-anchor="start" x="182.5" y="-661" font-family="Helvetica,sans-Serif" font-size="10.00">+</text>
<text text-anchor="start" x="195.5" y="-661" font-family="Helvetica,sans-Serif" font-size="10.00">get_cleanup_threshold()</text>
<text text-anchor="start" x="182.5" y="-646" font-family="Helvetica,sans-Serif" font-size="10.00">+</text>
<text text-anchor="start" x="195.5" y="-646" font-family="Helvetica,sans-Serif" font-size="10.00">get_clock()</text>
<text text-anchor="start" x="182.5" y="-631" font-family="Helvetica,sans-Serif" font-size="10.00">+</text>
<text text-anchor="start" x="195.5" y="-631" font-family="Helvetica,sans-Serif" font-size="10.00">get_clock()</text>
<text text-anchor="start" x="182.5" y="-616" font-family="Helvetica,sans-Serif" font-size="10.00">+</text>
<text text-anchor="start" x="195.5" y="-616" font-family="Helvetica,sans-Serif" font-size="10.00">get_current_buffer</text>
<text text-anchor="start" x="195.5" y="-605" font-family="Helvetica,sans-Serif" font-size="10.00">_cycle()</text>
<text text-anchor="start" x="195.5" y="-590" font-family="Helvetica,sans-Serif" font-size="10.00">and 25 more...</text>
<text text-anchor="start" x="185" y="-575" font-family="Helvetica,sans-Serif" font-size="10.00">&#45;</text>
<text text-anchor="start" x="195.5" y="-575" font-family="Helvetica,sans-Serif" font-size="10.00">auto_generate_name()</text>
<text text-anchor="start" x="185" y="-560" font-family="Helvetica,sans-Serif" font-size="10.00">&#45;</text>
<text text-anchor="start" x="195.5" y="-560" font-family="Helvetica,sans-Serif" font-size="10.00">cleanup_completed_tasks()</text>
<text text-anchor="start" x="185" y="-545" font-family="Helvetica,sans-Serif" font-size="10.00">&#45;</text>
<text text-anchor="start" x="195.5" y="-545" font-family="Helvetica,sans-Serif" font-size="10.00">drain_conditional_pending()</text>
<text text-anchor="start" x="185" y="-530" font-family="Helvetica,sans-Serif" font-size="10.00">&#45;</text>
<text text-anchor="start" x="195.5" y="-530" font-family="Helvetica,sans-Serif" font-size="10.00">drain_pending_tasks()</text>
<text text-anchor="start" x="185" y="-515" font-family="Helvetica,sans-Serif" font-size="10.00">&#45;</text>
<text text-anchor="start" x="195.5" y="-515" font-family="Helvetica,sans-Serif" font-size="10.00">ensure_domain()</text>
<text text-anchor="start" x="185" y="-500" font-family="Helvetica,sans-Serif" font-size="10.00">&#45;</text>
<text text-anchor="start" x="195.5" y="-500" font-family="Helvetica,sans-Serif" font-size="10.00">find_task_by_name()</text>
<text text-anchor="start" x="185" y="-485" font-family="Helvetica,sans-Serif" font-size="10.00">&#45;</text>
<text text-anchor="start" x="195.5" y="-485" font-family="Helvetica,sans-Serif" font-size="10.00">find_task_by_name()</text>
<text text-anchor="start" x="185" y="-470" font-family="Helvetica,sans-Serif" font-size="10.00">&#45;</text>
<text text-anchor="start" x="195.5" y="-470" font-family="Helvetica,sans-Serif" font-size="10.00">find_task_by_routine()</text>
<text text-anchor="start" x="185" y="-455" font-family="Helvetica,sans-Serif" font-size="10.00">&#45;</text>
<text text-anchor="start" x="195.5" y="-455" font-family="Helvetica,sans-Serif" font-size="10.00">get_default_rate()</text>
<text text-anchor="start" x="185" y="-440" font-family="Helvetica,sans-Serif" font-size="10.00">&#45;</text>
<text text-anchor="start" x="195.5" y="-440" font-family="Helvetica,sans-Serif" font-size="10.00">initialize_routine</text>
<text text-anchor="start" x="195.5" y="-429" font-family="Helvetica,sans-Serif" font-size="10.00">_state()</text>
<text text-anchor="start" x="185" y="-414" font-family="Helvetica,sans-Serif" font-size="10.00">&#45;</text>
<text text-anchor="start" x="195.5" y="-414" font-family="Helvetica,sans-Serif" font-size="10.00">process_default()</text>
<text text-anchor="start" x="185" y="-399" font-family="Helvetica,sans-Serif" font-size="10.00">&#45;</text>
<text text-anchor="start" x="195.5" y="-399" font-family="Helvetica,sans-Serif" font-size="10.00">pump_conditional()</text>
<text text-anchor="start" x="185" y="-384" font-family="Helvetica,sans-Serif" font-size="10.00">&#45;</text>
<text text-anchor="start" x="195.5" y="-384" font-family="Helvetica,sans-Serif" font-size="10.00">pump_cross()</text>
<text text-anchor="start" x="185" y="-369" font-family="Helvetica,sans-Serif" font-size="10.00">&#45;</text>
<text text-anchor="start" x="195.5" y="-369" font-family="Helvetica,sans-Serif" font-size="10.00">start_conditional_thread()</text>
<polygon fill="#666666" stroke="#666666" points="178.5,-997 178.5,-997 346.5,-997 346.5,-997 178.5,-997"/>
<polygon fill="#666666" stroke="#666666" points="178.5,-761 178.5,-761 193.5,-761 193.5,-761 178.5,-761"/>
<polygon fill="#666666" stroke="#666666" points="193.5,-761 193.5,-761 346.5,-761 346.5,-761 193.5,-761"/>
<polygon fill="none" stroke="#666666" points="178.5,-362 178.5,-1014 346.5,-1014 346.5,-362 178.5,-362"/>
</a>
</g>
</g>
<!-- Node3&#45;&gt;Node1 -->
<g id="edge2_Node000001_Node000003" class="edge">
<title>Node3&#45;&gt;Node1</title>
<g id="a_edge2_Node000001_Node000003"><a xlink:title=" ">
<path fill="none" stroke="#63b8ff" d="M262.5,-361.7C262.5,-349.98 262.5,-338.43 262.5,-327.15"/>
<polygon fill="none" stroke="#63b8ff" points="262.5,-327.03 258.5,-321.03 262.5,-315.03 266.5,-321.03 262.5,-327.03"/>
</a>
</g>
<text text-anchor="middle" x="297.5" y="-336" font-family="Helvetica,sans-Serif" font-size="10.00" fill="grey"> &#45;m_scheduler</text>
</g>
<!-- Node4 -->
<g id="Node000004" class="node">
<title>Node4</title>
<g id="a_Node000004"><a xlink:href="classMayaFlux_1_1Vruta_1_1SampleClock.html" target="_top" xlink:title="Sample&#45;accurate timing system for audio processing domain.">
<polygon fill="white" stroke="transparent" points="161,-1357 0,-1357 0,-1188 161,-1188 161,-1357"/>
<text text-anchor="start" x="5.5" y="-1344.5" font-family="Helvetica,sans-Serif" font-size="10.00">MayaFlux::Vruta::SampleClock</text>
<text text-anchor="start" x="19" y="-1329.5" font-family="Helvetica,sans-Serif" font-size="10.00">&#45;</text>
<text text-anchor="start" x="41.5" y="-1329.5" font-family="Helvetica,sans-Serif" font-size="10.00">m_current_sample</text>
<text text-anchor="start" x="19" y="-1314.5" font-family="Helvetica,sans-Serif" font-size="10.00">&#45;</text>
<text text-anchor="start" x="41.5" y="-1314.5" font-family="Helvetica,sans-Serif" font-size="10.00">m_sample_rate</text>
<text text-anchor="start" x="16.5" y="-1299.5" font-family="Helvetica,sans-Serif" font-size="10.00">+</text>
<text text-anchor="start" x="41.5" y="-1299.5" font-family="Helvetica,sans-Serif" font-size="10.00">current_position()</text>
<text text-anchor="start" x="16.5" y="-1284.5" font-family="Helvetica,sans-Serif" font-size="10.00">+</text>
<text text-anchor="start" x="41.5" y="-1284.5" font-family="Helvetica,sans-Serif" font-size="10.00">current_sample()</text>
<text text-anchor="start" x="16.5" y="-1269.5" font-family="Helvetica,sans-Serif" font-size="10.00">+</text>
<text text-anchor="start" x="41.5" y="-1269.5" font-family="Helvetica,sans-Serif" font-size="10.00">current_time()</text>
<text text-anchor="start" x="16.5" y="-1254.5" font-family="Helvetica,sans-Serif" font-size="10.00">+</text>
<text text-anchor="start" x="41.5" y="-1254.5" font-family="Helvetica,sans-Serif" font-size="10.00">rate()</text>
<text text-anchor="start" x="16.5" y="-1239.5" font-family="Helvetica,sans-Serif" font-size="10.00">+</text>
<text text-anchor="start" x="41.5" y="-1239.5" font-family="Helvetica,sans-Serif" font-size="10.00">reset()</text>
<text text-anchor="start" x="16.5" y="-1224.5" font-family="Helvetica,sans-Serif" font-size="10.00">+</text>
<text text-anchor="start" x="41.5" y="-1224.5" font-family="Helvetica,sans-Serif" font-size="10.00">sample_rate()</text>
<text text-anchor="start" x="16.5" y="-1209.5" font-family="Helvetica,sans-Serif" font-size="10.00">+</text>
<text text-anchor="start" x="41.5" y="-1209.5" font-family="Helvetica,sans-Serif" font-size="10.00">SampleClock()</text>
<text text-anchor="start" x="16.5" y="-1194.5" font-family="Helvetica,sans-Serif" font-size="10.00">+</text>
<text text-anchor="start" x="41.5" y="-1194.5" font-family="Helvetica,sans-Serif" font-size="10.00">tick()</text>
<polygon fill="#666666" stroke="#666666" points="0.5,-1339.5 0.5,-1339.5 161.5,-1339.5 161.5,-1339.5 0.5,-1339.5"/>
<polygon fill="#666666" stroke="#666666" points="0.5,-1309.5 0.5,-1309.5 39.5,-1309.5 39.5,-1309.5 0.5,-1309.5"/>
<polygon fill="#666666" stroke="#666666" points="39.5,-1309.5 39.5,-1309.5 161.5,-1309.5 161.5,-1309.5 39.5,-1309.5"/>
<polygon fill="none" stroke="#666666" points="0,-1188 0,-1357 161,-1357 161,-1188 0,-1188"/>
</a>
</g>
</g>
<!-- Node4&#45;&gt;Node3 -->
<g id="edge3_Node000003_Node000004" class="edge">
<title>Node4&#45;&gt;Node3</title>
<g id="a_edge3_Node000003_Node000004"><a xlink:title=" ">
<path fill="none" stroke="#63b8ff" d="M110.71,-1187.8C128.5,-1137.62 151.06,-1072.41 169.5,-1014 171.26,-1008.43 173.02,-1002.81 174.78,-997.14"/>
<polygon fill="none" stroke="#63b8ff" points="174.85,-996.91 172.8,-990 178.4,-985.44 180.44,-992.36 174.85,-996.91"/>
</a>
</g>
<text text-anchor="middle" x="187.5" y="-1046" font-family="Helvetica,sans-Serif" font-size="10.00" fill="grey"> &#45;m_clock</text>
</g>
<!-- Node5 -->
<g id="Node000005" class="node">
<title>Node5</title>
<g id="a_Node000005"><a xlink:href="classMayaFlux_1_1Vruta_1_1IClock.html" target="_top" xlink:title="Abstract base interface for all clock types in the multimodal scheduling system.">
<polygon fill="white" stroke="transparent" points="144,-1633 17,-1633 17,-1509 144,-1509 144,-1633"/>
<text text-anchor="start" x="22.5" y="-1621" font-family="Helvetica,sans-Serif" font-size="10.00">MayaFlux::Vruta::IClock</text>
<text text-anchor="start" x="79" y="-1606" font-family="Helvetica,sans-Serif" font-size="10.00"> </text>
<text text-anchor="start" x="26" y="-1591" font-family="Helvetica,sans-Serif" font-size="10.00">+</text>
<text text-anchor="start" x="43.5" y="-1591" font-family="Helvetica,sans-Serif" font-size="10.00">current_position()</text>
<text text-anchor="start" x="26" y="-1576" font-family="Helvetica,sans-Serif" font-size="10.00">+</text>
<text text-anchor="start" x="43.5" y="-1576" font-family="Helvetica,sans-Serif" font-size="10.00">current_time()</text>
<text text-anchor="start" x="26" y="-1561" font-family="Helvetica,sans-Serif" font-size="10.00">+</text>
<text text-anchor="start" x="43.5" y="-1561" font-family="Helvetica,sans-Serif" font-size="10.00">rate()</text>
<text text-anchor="start" x="26" y="-1546" font-family="Helvetica,sans-Serif" font-size="10.00">+</text>
<text text-anchor="start" x="43.5" y="-1546" font-family="Helvetica,sans-Serif" font-size="10.00">reset()</text>
<text text-anchor="start" x="26" y="-1531" font-family="Helvetica,sans-Serif" font-size="10.00">+</text>
<text text-anchor="start" x="43.5" y="-1531" font-family="Helvetica,sans-Serif" font-size="10.00">tick()</text>
<text text-anchor="start" x="26" y="-1516" font-family="Helvetica,sans-Serif" font-size="10.00">+</text>
<text text-anchor="start" x="43.5" y="-1516" font-family="Helvetica,sans-Serif" font-size="10.00">~IClock()</text>
<polygon fill="#666666" stroke="#666666" points="17.5,-1616 17.5,-1616 144.5,-1616 144.5,-1616 17.5,-1616"/>
<polygon fill="#666666" stroke="#666666" points="17.5,-1601 17.5,-1601 144.5,-1601 144.5,-1601 17.5,-1601"/>
<polygon fill="none" stroke="#666666" points="17,-1509 17,-1633 144,-1633 144,-1509 17,-1509"/>
</a>
</g>
</g>
<!-- Node5&#45;&gt;Node4 -->
<g id="edge4_Node000004_Node000005" class="edge">
<title>Node5&#45;&gt;Node4</title>
<g id="a_edge4_Node000004_Node000005"><a xlink:title=" ">
<path fill="none" stroke="#63b8ff" d="M80.5,-1498.92C80.5,-1456.32 80.5,-1401.94 80.5,-1357.26"/>
<polygon fill="none" stroke="#63b8ff" points="77,-1498.92 80.5,-1508.92 84,-1498.92 77,-1498.92"/>
</a>
</g>
</g>
<!-- Node6 -->
<g id="Node000006" class="node">
<title>Node6</title>
<g id="a_Node000006"><a xlink:href="structMayaFlux_1_1Vruta_1_1TaskScheduler_1_1PendingTaskOp.html" target="_top" xlink:title=" ">
<polygon fill="white" stroke="transparent" points="346,-1310 179,-1310 179,-1235 346,-1235 346,-1310"/>
<text text-anchor="start" x="184.5" y="-1297.5" font-family="Helvetica,sans-Serif" font-size="10.00">MayaFlux::Vruta::TaskScheduler</text>
<text text-anchor="start" x="222.5" y="-1286.5" font-family="Helvetica,sans-Serif" font-size="10.00">::PendingTaskOp</text>
<text text-anchor="start" x="206.5" y="-1271.5" font-family="Helvetica,sans-Serif" font-size="10.00">+</text>
<text text-anchor="start" x="242.5" y="-1271.5" font-family="Helvetica,sans-Serif" font-size="10.00">active</text>
<text text-anchor="start" x="206.5" y="-1256.5" font-family="Helvetica,sans-Serif" font-size="10.00">+</text>
<text text-anchor="start" x="242.5" y="-1256.5" font-family="Helvetica,sans-Serif" font-size="10.00">is_addition</text>
<text text-anchor="start" x="261" y="-1241.5" font-family="Helvetica,sans-Serif" font-size="10.00"> </text>
<polygon fill="#666666" stroke="#666666" points="179.5,-1281.5 179.5,-1281.5 346.5,-1281.5 346.5,-1281.5 179.5,-1281.5"/>
<polygon fill="#666666" stroke="#666666" points="179.5,-1251.5 179.5,-1251.5 240.5,-1251.5 240.5,-1251.5 179.5,-1251.5"/>
<polygon fill="#666666" stroke="#666666" points="240.5,-1251.5 240.5,-1251.5 346.5,-1251.5 346.5,-1251.5 240.5,-1251.5"/>
<polygon fill="none" stroke="#666666" points="179,-1235 179,-1310 346,-1310 346,-1235 179,-1235"/>
</a>
</g>
</g>
<!-- Node6&#45;&gt;Node3 -->
<g id="edge5_Node000003_Node000006" class="edge">
<title>Node6&#45;&gt;Node3</title>
<g id="a_edge5_Node000003_Node000006"><a xlink:title=" ">
<path fill="none" stroke="#63b8ff" d="M262.5,-1234.62C262.5,-1190.24 262.5,-1111.07 262.5,-1026.57"/>
<polygon fill="none" stroke="#63b8ff" points="262.5,-1026.34 258.5,-1020.34 262.5,-1014.34 266.5,-1020.34 262.5,-1026.34"/>
</a>
</g>
<text text-anchor="start" x="262.5" y="-1057" font-family="Helvetica,sans-Serif" font-size="10.00" fill="grey"> &#45;m_conditional_pending</text>
<text text-anchor="middle" x="323" y="-1046" font-family="Helvetica,sans-Serif" font-size="10.00" fill="grey">_ops</text>
<text text-anchor="middle" x="323" y="-1035" font-family="Helvetica,sans-Serif" font-size="10.00" fill="grey">&#45;m_pending_ops</text>
</g>
<!-- Node7 -->
<g id="Node000007" class="node">
<title>Node7</title>
<g id="a_Node000007"><a xlink:href="structMayaFlux_1_1Vruta_1_1TaskEntry.html" target="_top" xlink:title=" ">
<polygon fill="white" stroke="transparent" points="334.5,-1603 190.5,-1603 190.5,-1539 334.5,-1539 334.5,-1603"/>
<text text-anchor="start" x="195.5" y="-1591" font-family="Helvetica,sans-Serif" font-size="10.00">MayaFlux::Vruta::TaskEntry</text>
<text text-anchor="start" x="211.5" y="-1576" font-family="Helvetica,sans-Serif" font-size="10.00">+</text>
<text text-anchor="start" x="241.5" y="-1576" font-family="Helvetica,sans-Serif" font-size="10.00">name</text>
<text text-anchor="start" x="211.5" y="-1561" font-family="Helvetica,sans-Serif" font-size="10.00">+</text>
<text text-anchor="start" x="241.5" y="-1561" font-family="Helvetica,sans-Serif" font-size="10.00">routine</text>
<text text-anchor="start" x="211.5" y="-1546" font-family="Helvetica,sans-Serif" font-size="10.00">+</text>
<text text-anchor="start" x="241.5" y="-1546" font-family="Helvetica,sans-Serif" font-size="10.00">TaskEntry()</text>
<polygon fill="#666666" stroke="#666666" points="190.5,-1586 190.5,-1586 334.5,-1586 334.5,-1586 190.5,-1586"/>
<polygon fill="#666666" stroke="#666666" points="190.5,-1556 190.5,-1556 239.5,-1556 239.5,-1556 190.5,-1556"/>
<polygon fill="#666666" stroke="#666666" points="239.5,-1556 239.5,-1556 334.5,-1556 334.5,-1556 239.5,-1556"/>
<polygon fill="none" stroke="#666666" points="190.5,-1539 190.5,-1603 334.5,-1603 334.5,-1539 190.5,-1539"/>
</a>
</g>
</g>
<!-- Node7&#45;&gt;Node6 -->
<g id="edge6_Node000006_Node000007" class="edge">
<title>Node7&#45;&gt;Node6</title>
<g id="a_edge6_Node000006_Node000007"><a xlink:title=" ">
<path fill="none" stroke="#63b8ff" d="M262.5,-1538.83C262.5,-1487.22 262.5,-1383.65 262.5,-1322.29"/>
<polygon fill="none" stroke="#63b8ff" points="262.5,-1322.23 258.5,-1316.23 262.5,-1310.23 266.5,-1316.23 262.5,-1322.23"/>
</a>
</g>
<text text-anchor="middle" x="281" y="-1483" font-family="Helvetica,sans-Serif" font-size="10.00" fill="grey"> +entry</text>
</g>
<!-- Node8 -->
<g id="Node000008" class="node">
<title>Node8</title>
<g id="a_Node000008"><a xlink:href="classMayaFlux_1_1Kriya_1_1CaptureBuilder.html" target="_top" xlink:title="Fluent builder interface for constructing BufferCapture configurations.">
<polygon fill="white" stroke="transparent" points="519,-823 368,-823 368,-553 519,-553 519,-823"/>
<text text-anchor="start" x="382" y="-811" font-family="Helvetica,sans-Serif" font-size="10.00">MayaFlux::Kriya::Capture</text>
<text text-anchor="start" x="426.5" y="-800" font-family="Helvetica,sans-Serif" font-size="10.00">Builder</text>
<text text-anchor="start" x="442" y="-785" font-family="Helvetica,sans-Serif" font-size="10.00"> </text>
<text text-anchor="start" x="372.5" y="-770" font-family="Helvetica,sans-Serif" font-size="10.00">+</text>
<text text-anchor="start" x="385.5" y="-770" font-family="Helvetica,sans-Serif" font-size="10.00">as_circular()</text>
<text text-anchor="start" x="372.5" y="-755" font-family="Helvetica,sans-Serif" font-size="10.00">+</text>
<text text-anchor="start" x="385.5" y="-755" font-family="Helvetica,sans-Serif" font-size="10.00">auto_processing()</text>
<text text-anchor="start" x="372.5" y="-740" font-family="Helvetica,sans-Serif" font-size="10.00">+</text>
<text text-anchor="start" x="385.5" y="-740" font-family="Helvetica,sans-Serif" font-size="10.00">CaptureBuilder()</text>
<text text-anchor="start" x="372.5" y="-725" font-family="Helvetica,sans-Serif" font-size="10.00">+</text>
<text text-anchor="start" x="385.5" y="-725" font-family="Helvetica,sans-Serif" font-size="10.00">for_cycles()</text>
<text text-anchor="start" x="372.5" y="-710" font-family="Helvetica,sans-Serif" font-size="10.00">+</text>
<text text-anchor="start" x="385.5" y="-710" font-family="Helvetica,sans-Serif" font-size="10.00">get_tag()</text>
<text text-anchor="start" x="372.5" y="-695" font-family="Helvetica,sans-Serif" font-size="10.00">+</text>
<text text-anchor="start" x="385.5" y="-695" font-family="Helvetica,sans-Serif" font-size="10.00">manual_processing()</text>
<text text-anchor="start" x="372.5" y="-680" font-family="Helvetica,sans-Serif" font-size="10.00">+</text>
<text text-anchor="start" x="385.5" y="-680" font-family="Helvetica,sans-Serif" font-size="10.00">on_capture_processing()</text>
<text text-anchor="start" x="372.5" y="-665" font-family="Helvetica,sans-Serif" font-size="10.00">+</text>
<text text-anchor="start" x="385.5" y="-665" font-family="Helvetica,sans-Serif" font-size="10.00">on_cycle_complete()</text>
<text text-anchor="start" x="372.5" y="-650" font-family="Helvetica,sans-Serif" font-size="10.00">+</text>
<text text-anchor="start" x="385.5" y="-650" font-family="Helvetica,sans-Serif" font-size="10.00">on_data_expired()</text>
<text text-anchor="start" x="372.5" y="-635" font-family="Helvetica,sans-Serif" font-size="10.00">+</text>
<text text-anchor="start" x="385.5" y="-635" font-family="Helvetica,sans-Serif" font-size="10.00">on_data_ready()</text>
<text text-anchor="start" x="372.5" y="-620" font-family="Helvetica,sans-Serif" font-size="10.00">+</text>
<text text-anchor="start" x="385.5" y="-620" font-family="Helvetica,sans-Serif" font-size="10.00">operator BufferOperation()</text>
<text text-anchor="start" x="372.5" y="-605" font-family="Helvetica,sans-Serif" font-size="10.00">+</text>
<text text-anchor="start" x="385.5" y="-605" font-family="Helvetica,sans-Serif" font-size="10.00">until_condition()</text>
<text text-anchor="start" x="372.5" y="-590" font-family="Helvetica,sans-Serif" font-size="10.00">+</text>
<text text-anchor="start" x="385.5" y="-590" font-family="Helvetica,sans-Serif" font-size="10.00">with_metadata()</text>
<text text-anchor="start" x="372.5" y="-575" font-family="Helvetica,sans-Serif" font-size="10.00">+</text>
<text text-anchor="start" x="385.5" y="-575" font-family="Helvetica,sans-Serif" font-size="10.00">with_tag()</text>
<text text-anchor="start" x="372.5" y="-560" font-family="Helvetica,sans-Serif" font-size="10.00">+</text>
<text text-anchor="start" x="385.5" y="-560" font-family="Helvetica,sans-Serif" font-size="10.00">with_window()</text>
<polygon fill="#666666" stroke="#666666" points="368.5,-795 368.5,-795 519.5,-795 519.5,-795 368.5,-795"/>
<polygon fill="#666666" stroke="#666666" points="368.5,-780 368.5,-780 519.5,-780 519.5,-780 368.5,-780"/>
<polygon fill="none" stroke="#666666" points="368,-553 368,-823 519,-823 519,-553 368,-553"/>
</a>
</g>
</g>
<!-- Node8&#45;&gt;Node1 -->
<g id="edge7_Node000001_Node000008" class="edge">
<title>Node8&#45;&gt;Node1</title>
<g id="a_edge7_Node000001_Node000008"><a xlink:title=" ">
<path fill="none" stroke="#63b8ff" d="M412.4,-552.64C397.36,-493.48 377.74,-423.58 355.5,-362 350.27,-347.52 344.43,-332.64 338.29,-317.83"/>
<polygon fill="none" stroke="#63b8ff" points="338.19,-317.6 332.18,-313.62 333.55,-306.54 339.56,-310.52 338.19,-317.6"/>
</a>
</g>
<text text-anchor="middle" x="377" y="-336" font-family="Helvetica,sans-Serif" font-size="10.00" fill="grey"> &#45;m_capture</text>
</g>
<!-- Node9 -->
<g id="Node000009" class="node">
<title>Node9</title>
<g id="a_Node000009"><a xlink:href="classMayaFlux_1_1Kriya_1_1BufferCapture.html" target="_top" xlink:title="Flexible data capture interface for buffer&#45;based processing pipelines.">
<polygon fill="white" stroke="transparent" points="528.5,-1462 364.5,-1462 364.5,-1083 528.5,-1083 528.5,-1462"/>
<text text-anchor="start" x="369.5" y="-1449.5" font-family="Helvetica,sans-Serif" font-size="10.00">MayaFlux::Kriya::BufferCapture</text>
<text text-anchor="start" x="375.5" y="-1434.5" font-family="Helvetica,sans-Serif" font-size="10.00">&#45;</text>
<text text-anchor="start" x="390.5" y="-1434.5" font-family="Helvetica,sans-Serif" font-size="10.00">m_buffer</text>
<text text-anchor="start" x="375.5" y="-1419.5" font-family="Helvetica,sans-Serif" font-size="10.00">&#45;</text>
<text text-anchor="start" x="390.5" y="-1419.5" font-family="Helvetica,sans-Serif" font-size="10.00">m_circular_size</text>
<text text-anchor="start" x="375.5" y="-1404.5" font-family="Helvetica,sans-Serif" font-size="10.00">&#45;</text>
<text text-anchor="start" x="390.5" y="-1404.5" font-family="Helvetica,sans-Serif" font-size="10.00">m_cycle_callback</text>
<text text-anchor="start" x="375.5" y="-1389.5" font-family="Helvetica,sans-Serif" font-size="10.00">&#45;</text>
<text text-anchor="start" x="390.5" y="-1389.5" font-family="Helvetica,sans-Serif" font-size="10.00">m_cycle_count</text>
<text text-anchor="start" x="375.5" y="-1374.5" font-family="Helvetica,sans-Serif" font-size="10.00">&#45;</text>
<text text-anchor="start" x="390.5" y="-1374.5" font-family="Helvetica,sans-Serif" font-size="10.00">m_data_expired_callback</text>
<text text-anchor="start" x="375.5" y="-1359.5" font-family="Helvetica,sans-Serif" font-size="10.00">&#45;</text>
<text text-anchor="start" x="390.5" y="-1359.5" font-family="Helvetica,sans-Serif" font-size="10.00">m_data_ready_callback</text>
<text text-anchor="start" x="375.5" y="-1344.5" font-family="Helvetica,sans-Serif" font-size="10.00">&#45;</text>
<text text-anchor="start" x="390.5" y="-1344.5" font-family="Helvetica,sans-Serif" font-size="10.00">m_metadata</text>
<text text-anchor="start" x="375.5" y="-1329.5" font-family="Helvetica,sans-Serif" font-size="10.00">&#45;</text>
<text text-anchor="start" x="390.5" y="-1329.5" font-family="Helvetica,sans-Serif" font-size="10.00">m_mode</text>
<text text-anchor="start" x="375.5" y="-1314.5" font-family="Helvetica,sans-Serif" font-size="10.00">&#45;</text>
<text text-anchor="start" x="390.5" y="-1314.5" font-family="Helvetica,sans-Serif" font-size="10.00">m_overlap_ratio</text>
<text text-anchor="start" x="375.5" y="-1299.5" font-family="Helvetica,sans-Serif" font-size="10.00">&#45;</text>
<text text-anchor="start" x="390.5" y="-1299.5" font-family="Helvetica,sans-Serif" font-size="10.00">m_processing_control</text>
<text text-anchor="start" x="375.5" y="-1284.5" font-family="Helvetica,sans-Serif" font-size="10.00">&#45;</text>
<text text-anchor="start" x="390.5" y="-1284.5" font-family="Helvetica,sans-Serif" font-size="10.00">m_stop_condition</text>
<text text-anchor="start" x="375.5" y="-1269.5" font-family="Helvetica,sans-Serif" font-size="10.00">&#45;</text>
<text text-anchor="start" x="390.5" y="-1269.5" font-family="Helvetica,sans-Serif" font-size="10.00">m_tag</text>
<text text-anchor="start" x="375.5" y="-1254.5" font-family="Helvetica,sans-Serif" font-size="10.00">&#45;</text>
<text text-anchor="start" x="390.5" y="-1254.5" font-family="Helvetica,sans-Serif" font-size="10.00">m_window_size</text>
<text text-anchor="start" x="373" y="-1239.5" font-family="Helvetica,sans-Serif" font-size="10.00">+</text>
<text text-anchor="start" x="390.5" y="-1239.5" font-family="Helvetica,sans-Serif" font-size="10.00">as_circular()</text>
<text text-anchor="start" x="373" y="-1224.5" font-family="Helvetica,sans-Serif" font-size="10.00">+</text>
<text text-anchor="start" x="390.5" y="-1224.5" font-family="Helvetica,sans-Serif" font-size="10.00">BufferCapture()</text>
<text text-anchor="start" x="373" y="-1209.5" font-family="Helvetica,sans-Serif" font-size="10.00">+</text>
<text text-anchor="start" x="390.5" y="-1209.5" font-family="Helvetica,sans-Serif" font-size="10.00">for_cycles()</text>
<text text-anchor="start" x="373" y="-1194.5" font-family="Helvetica,sans-Serif" font-size="10.00">+</text>
<text text-anchor="start" x="390.5" y="-1194.5" font-family="Helvetica,sans-Serif" font-size="10.00">get_buffer()</text>
<text text-anchor="start" x="373" y="-1179.5" font-family="Helvetica,sans-Serif" font-size="10.00">+</text>
<text text-anchor="start" x="390.5" y="-1179.5" font-family="Helvetica,sans-Serif" font-size="10.00">get_circular_size()</text>
<text text-anchor="start" x="373" y="-1164.5" font-family="Helvetica,sans-Serif" font-size="10.00">+</text>
<text text-anchor="start" x="390.5" y="-1164.5" font-family="Helvetica,sans-Serif" font-size="10.00">get_cycle_count()</text>
<text text-anchor="start" x="373" y="-1149.5" font-family="Helvetica,sans-Serif" font-size="10.00">+</text>
<text text-anchor="start" x="390.5" y="-1149.5" font-family="Helvetica,sans-Serif" font-size="10.00">get_mode()</text>
<text text-anchor="start" x="373" y="-1134.5" font-family="Helvetica,sans-Serif" font-size="10.00">+</text>
<text text-anchor="start" x="390.5" y="-1134.5" font-family="Helvetica,sans-Serif" font-size="10.00">get_overlap_ratio()</text>
<text text-anchor="start" x="373" y="-1119.5" font-family="Helvetica,sans-Serif" font-size="10.00">+</text>
<text text-anchor="start" x="390.5" y="-1119.5" font-family="Helvetica,sans-Serif" font-size="10.00">get_processing_control()</text>
<text text-anchor="start" x="373" y="-1104.5" font-family="Helvetica,sans-Serif" font-size="10.00">+</text>
<text text-anchor="start" x="390.5" y="-1104.5" font-family="Helvetica,sans-Serif" font-size="10.00">get_tag()</text>
<text text-anchor="start" x="390.5" y="-1089.5" font-family="Helvetica,sans-Serif" font-size="10.00">and 10 more...</text>
<polygon fill="#666666" stroke="#666666" points="364.5,-1444.5 364.5,-1444.5 528.5,-1444.5 528.5,-1444.5 364.5,-1444.5"/>
<polygon fill="#666666" stroke="#666666" points="364.5,-1249.5 364.5,-1249.5 388.5,-1249.5 388.5,-1249.5 364.5,-1249.5"/>
<polygon fill="#666666" stroke="#666666" points="388.5,-1249.5 388.5,-1249.5 528.5,-1249.5 528.5,-1249.5 388.5,-1249.5"/>
<polygon fill="none" stroke="#666666" points="364.5,-1083 364.5,-1462 528.5,-1462 528.5,-1083 364.5,-1083"/>
</a>
</g>
</g>
<!-- Node9&#45;&gt;Node8 -->
<g id="edge8_Node000008_Node000009" class="edge">
<title>Node9&#45;&gt;Node8</title>
<g id="a_edge8_Node000008_Node000009"><a xlink:title=" ">
<path fill="none" stroke="#63b8ff" d="M445.53,-1082.78C445.12,-1002.67 444.64,-910.7 444.26,-835.79"/>
<polygon fill="none" stroke="#63b8ff" points="444.25,-835.45 440.22,-829.47 444.19,-823.45 448.22,-829.43 444.25,-835.45"/>
</a>
</g>
<text text-anchor="middle" x="475" y="-1046" font-family="Helvetica,sans-Serif" font-size="10.00" fill="grey"> &#45;m_capture</text>
</g>
</g>
</svg>

<g id="navigator" transform="translate(0 0)" fill="#404254">
  <rect fill="#f2f5e9" fill-opacity="0.5" stroke="#606060" stroke-width=".5" x="0" y="0" width="60" height="60"/>
  <use id="zoomplus" xlink:href="#zoomPlus" x="17" y="9" onmousedown="handleZoom(evt,'in')"/>
  <use id="zoomminus" xlink:href="#zoomMin" x="42" y="9" onmousedown="handleZoom(evt,'out')"/>
  <use id="reset" xlink:href="#resetDef" x="30" y="36" onmousedown="handleReset()"/>
   <use id="arrowup" xlink:href="#arrowUp" x="0" y="0" onmousedown="handlePan(0,-1)"/>
  <use id="arrowright" xlink:href="#arrowRight" x="0" y="0" onmousedown="handlePan(1,0)"/>
  <use id="arrowdown" xlink:href="#arrowDown" x="0" y="0" onmousedown="handlePan(0,1)"/>
  <use id="arrowleft" xlink:href="#arrowLeft" x="0" y="0" onmousedown="handlePan(-1,0)"/>
</g>
<svg viewBox="0 0 15 15" width="100%" height="30px" preserveAspectRatio="xMaxYMin meet">
 <g id="arrow_out" transform="scale(0.3 0.3)">
  <a xlink:href="classMayaFlux_1_1Kriya_1_1SamplingPipeline__coll__graph_org.svg" target="_base">
   <rect id="button" ry="5" rx="5" y="6" x="6" height="38" width="38"
        fill="#f2f5e9" fill-opacity="0.5" stroke="#606060" stroke-width="1.0"/>
   <path id="arrow"
     d="M 11.500037,31.436501 C 11.940474,20.09759 22.043105,11.32322 32.158766,21.979434 L 37.068811,17.246167 C 37.068811,17.246167 37.088388,32 37.088388,32 L 22.160133,31.978069 C 22.160133,31.978069 26.997745,27.140456 26.997745,27.140456 C 18.528582,18.264221 13.291696,25.230495 11.500037,31.436501 z"
     style="fill:#404040;"/>
  </a>
 </g>
</svg>

<style type='text/css'>
<![CDATA[
[data-mouse-over-selected='false'] { opacity: 0.7; }
[data-mouse-over-selected='true']  { opacity: 1.0; }
]]>
</style>
<script type="application/ecmascript"><![CDATA[
document.addEventListener('DOMContentLoaded', (event) => {
  highlightEdges();
  highlightAdjacentNodes();
});
]]></script>
</svg>
