<?xml version="1.0" encoding="UTF-8" standalone="no"?>
<!DOCTYPE svg PUBLIC "-//W3C//DTD SVG 1.1//EN"
 "http://www.w3.org/Graphics/SVG/1.1/DTD/svg11.dtd">
<!-- Generated by graphviz version 2.43.0 (0)
 -->
<!-- Title: MayaFlux::Buffers::BufferProcessingChain::process_complete Pages: 1 -->
<svg width="844pt" height="269pt"
 viewBox="0.00 0.00 844.00 269.00" xmlns="http://www.w3.org/2000/svg" xmlns:xlink="http://www.w3.org/1999/xlink">
<g id="graph0" class="graph" transform="scale(1 1) rotate(0) translate(4 265)">
<title>MayaFlux::Buffers::BufferProcessingChain::process_complete</title>
<!-- Node1 -->
<g id="Node000001" class="node">
<title>Node1</title>
<g id="a_Node000001"><a xlink:title="Applies preprocessors, processing chain, post processors and final processors sequentially to a buffe...">
<polygon fill="#999999" stroke="#666666" points="126,-172 0,-172 0,-131 126,-131 126,-172"/>
<text text-anchor="start" x="8" y="-160" font-family="Helvetica,sans-Serif" font-size="10.00">MayaFlux::Buffers::</text>
<text text-anchor="start" x="8" y="-149" font-family="Helvetica,sans-Serif" font-size="10.00">BufferProcessingChain</text>
<text text-anchor="middle" x="63" y="-138" font-family="Helvetica,sans-Serif" font-size="10.00">::process_complete</text>
</a>
</g>
</g>
<!-- Node2 -->
<g id="Node000002" class="node">
<title>Node2</title>
<g id="a_Node000002"><a xlink:href="classMayaFlux_1_1Buffers_1_1BufferProcessingChain_ac9aa6d5e80eb500bc9d6c7f8aab2efe2.html#ac9aa6d5e80eb500bc9d6c7f8aab2efe2" target="_top" xlink:title="Applies the postprocessor to a buffer.">
<polygon fill="white" stroke="#666666" points="288,-261 162,-261 162,-220 288,-220 288,-261"/>
<text text-anchor="start" x="170" y="-249" font-family="Helvetica,sans-Serif" font-size="10.00">MayaFlux::Buffers::</text>
<text text-anchor="start" x="170" y="-238" font-family="Helvetica,sans-Serif" font-size="10.00">BufferProcessingChain</text>
<text text-anchor="middle" x="225" y="-227" font-family="Helvetica,sans-Serif" font-size="10.00">::postprocess</text>
</a>
</g>
</g>
<!-- Node1&#45;&gt;Node2 -->
<g id="edge1_Node000001_Node000002" class="edge">
<title>Node1&#45;&gt;Node2</title>
<g id="a_edge1_Node000001_Node000002"><a xlink:title=" ">
<path fill="none" stroke="#63b8ff" d="M95.69,-172.15C114.63,-184.17 139.34,-199.31 162,-211.5 164.37,-212.78 166.81,-214.05 169.28,-215.32"/>
<polygon fill="#63b8ff" stroke="#63b8ff" points="167.83,-218.51 178.34,-219.85 170.96,-212.25 167.83,-218.51"/>
</a>
</g>
</g>
<!-- Node3 -->
<g id="Node000003" class="node">
<title>Node3</title>
<g id="a_Node000003"><a xlink:href="classMayaFlux_1_1Buffers_1_1BufferProcessingChain_a5c55c0ccf9ea289065ef17d5d70ae412.html#a5c55c0ccf9ea289065ef17d5d70ae412" target="_top" xlink:title="Applies the preprocessor to a buffer.">
<polygon fill="white" stroke="#666666" points="288,-202 162,-202 162,-161 288,-161 288,-202"/>
<text text-anchor="start" x="170" y="-190" font-family="Helvetica,sans-Serif" font-size="10.00">MayaFlux::Buffers::</text>
<text text-anchor="start" x="170" y="-179" font-family="Helvetica,sans-Serif" font-size="10.00">BufferProcessingChain</text>
<text text-anchor="middle" x="225" y="-168" font-family="Helvetica,sans-Serif" font-size="10.00">::preprocess</text>
</a>
</g>
</g>
<!-- Node1&#45;&gt;Node3 -->
<g id="edge2_Node000001_Node000003" class="edge">
<title>Node1&#45;&gt;Node3</title>
<g id="a_edge2_Node000001_Node000003"><a xlink:title=" ">
<path fill="none" stroke="#63b8ff" d="M126.32,-163.18C134.71,-164.76 143.37,-166.38 151.91,-167.98"/>
<polygon fill="#63b8ff" stroke="#63b8ff" points="151.38,-171.44 161.85,-169.85 152.67,-164.56 151.38,-171.44"/>
</a>
</g>
</g>
<!-- Node4 -->
<g id="Node000004" class="node">
<title>Node4</title>
<g id="a_Node000004"><a xlink:href="classMayaFlux_1_1Buffers_1_1BufferProcessingChain_a23d4172a12da9ea88c8487ff720c824d.html#a23d4172a12da9ea88c8487ff720c824d" target="_top" xlink:title="Applies the transformation pipeline to a buffer with intelligent execution.">
<polygon fill="white" stroke="#666666" points="288,-143 162,-143 162,-102 288,-102 288,-143"/>
<text text-anchor="start" x="170" y="-131" font-family="Helvetica,sans-Serif" font-size="10.00">MayaFlux::Buffers::</text>
<text text-anchor="start" x="170" y="-120" font-family="Helvetica,sans-Serif" font-size="10.00">BufferProcessingChain</text>
<text text-anchor="middle" x="225" y="-109" font-family="Helvetica,sans-Serif" font-size="10.00">::process</text>
</a>
</g>
</g>
<!-- Node1&#45;&gt;Node4 -->
<g id="edge3_Node000001_Node000004" class="edge">
<title>Node1&#45;&gt;Node4</title>
<g id="a_edge3_Node000001_Node000004"><a xlink:title=" ">
<path fill="none" stroke="#63b8ff" d="M126.32,-140.2C134.71,-138.68 143.37,-137.11 151.91,-135.57"/>
<polygon fill="#63b8ff" stroke="#63b8ff" points="152.64,-138.99 161.85,-133.76 151.39,-132.1 152.64,-138.99"/>
</a>
</g>
</g>
<!-- Node10 -->
<g id="Node000010" class="node">
<title>Node10</title>
<g id="a_Node000010"><a xlink:href="classMayaFlux_1_1Buffers_1_1BufferProcessingChain_aef03e6bad560939aaebd406607c7676b.html#aef03e6bad560939aaebd406607c7676b" target="_top" xlink:title="Applies the final processor to a buffer with guaranteed execution.">
<polygon fill="white" stroke="#666666" points="288,-84 162,-84 162,-43 288,-43 288,-84"/>
<text text-anchor="start" x="170" y="-72" font-family="Helvetica,sans-Serif" font-size="10.00">MayaFlux::Buffers::</text>
<text text-anchor="start" x="170" y="-61" font-family="Helvetica,sans-Serif" font-size="10.00">BufferProcessingChain</text>
<text text-anchor="middle" x="225" y="-50" font-family="Helvetica,sans-Serif" font-size="10.00">::process_final</text>
</a>
</g>
</g>
<!-- Node1&#45;&gt;Node10 -->
<g id="edge11_Node000001_Node000010" class="edge">
<title>Node1&#45;&gt;Node10</title>
<g id="a_edge11_Node000001_Node000010"><a xlink:title=" ">
<path fill="none" stroke="#63b8ff" d="M97.17,-130.93C115.97,-119.51 140.05,-105.28 162,-93.5 165.04,-91.87 168.19,-90.22 171.37,-88.59"/>
<polygon fill="#63b8ff" stroke="#63b8ff" points="173.06,-91.66 180.41,-84.02 169.9,-85.41 173.06,-91.66"/>
</a>
</g>
</g>
<!-- Node5 -->
<g id="Node000005" class="node">
<title>Node5</title>
<g id="a_Node000005"><a xlink:href="namespaceMayaFlux_1_1Buffers_a38e5853247532e5155b787a4d89b20cb.html#a38e5853247532e5155b787a4d89b20cb" target="_top" xlink:title="Determines if two processing tokens are compatible for joint execution.">
<polygon fill="white" stroke="#666666" points="836,-143.5 706,-143.5 706,-113.5 836,-113.5 836,-143.5"/>
<text text-anchor="start" x="714" y="-131.5" font-family="Helvetica,sans-Serif" font-size="10.00">MayaFlux::Buffers::</text>
<text text-anchor="middle" x="771" y="-120.5" font-family="Helvetica,sans-Serif" font-size="10.00">are_tokens_compatible</text>
</a>
</g>
</g>
<!-- Node4&#45;&gt;Node5 -->
<g id="edge4_Node000004_Node000005" class="edge">
<title>Node4&#45;&gt;Node5</title>
<g id="a_edge4_Node000004_Node000005"><a xlink:title=" ">
<path fill="none" stroke="#63b8ff" d="M282.86,-143.02C296.19,-146.95 310.45,-150.47 324,-152.5 453.78,-171.92 606.87,-155.18 695.75,-141.6"/>
<polygon fill="#63b8ff" stroke="#63b8ff" points="696.39,-145.04 705.73,-140.04 695.31,-138.12 696.39,-145.04"/>
</a>
</g>
</g>
<!-- Node6 -->
<g id="Node000006" class="node">
<title>Node6</title>
<g id="a_Node000006"><a xlink:href="classMayaFlux_1_1Buffers_1_1BufferProcessingChain_aac98ea3bb4f2cdf37b341a7226caa779.html#aac98ea3bb4f2cdf37b341a7226caa779" target="_top" xlink:title="Validates the processing token against the chain&#39;s preferred token.">
<polygon fill="white" stroke="#666666" points="488,-143 324,-143 324,-102 488,-102 488,-143"/>
<text text-anchor="start" x="332" y="-131" font-family="Helvetica,sans-Serif" font-size="10.00">MayaFlux::Buffers::</text>
<text text-anchor="start" x="332" y="-120" font-family="Helvetica,sans-Serif" font-size="10.00">BufferProcessingChain</text>
<text text-anchor="middle" x="406" y="-109" font-family="Helvetica,sans-Serif" font-size="10.00">::cleanup_rejected_processors</text>
</a>
</g>
</g>
<!-- Node4&#45;&gt;Node6 -->
<g id="edge5_Node000004_Node000006" class="edge">
<title>Node4&#45;&gt;Node6</title>
<g id="a_edge5_Node000004_Node000006"><a xlink:title=" ">
<path fill="none" stroke="#63b8ff" d="M288.1,-122.5C296.38,-122.5 305,-122.5 313.64,-122.5"/>
<polygon fill="#63b8ff" stroke="#63b8ff" points="313.78,-126 323.78,-122.5 313.78,-119 313.78,-126"/>
</a>
</g>
</g>
<!-- Node7 -->
<g id="Node000007" class="node">
<title>Node7</title>
<g id="a_Node000007"><a xlink:href="classMayaFlux_1_1Buffers_1_1BufferProcessingChain_ab06548041e8f068a9d83945bcac22a90.html#ab06548041e8f068a9d83945bcac22a90" target="_top" xlink:title="Process pending processor operations.">
<polygon fill="white" stroke="#666666" points="484.5,-83.5 327.5,-83.5 327.5,-31.5 484.5,-31.5 484.5,-83.5"/>
<text text-anchor="start" x="335.5" y="-71.5" font-family="Helvetica,sans-Serif" font-size="10.00">MayaFlux::Buffers::</text>
<text text-anchor="start" x="335.5" y="-60.5" font-family="Helvetica,sans-Serif" font-size="10.00">BufferProcessingChain</text>
<text text-anchor="start" x="335.5" y="-49.5" font-family="Helvetica,sans-Serif" font-size="10.00">::process_pending_processor</text>
<text text-anchor="middle" x="406" y="-38.5" font-family="Helvetica,sans-Serif" font-size="10.00">_operations</text>
</a>
</g>
</g>
<!-- Node4&#45;&gt;Node7 -->
<g id="edge7_Node000004_Node000007" class="edge">
<title>Node4&#45;&gt;Node7</title>
<g id="a_edge7_Node000004_Node000007"><a xlink:title=" ">
<path fill="none" stroke="#63b8ff" d="M282.64,-101.93C295.7,-97.19 309.85,-92.05 323.74,-87.01"/>
<polygon fill="#63b8ff" stroke="#63b8ff" points="325.08,-90.24 333.29,-83.54 322.7,-83.66 325.08,-90.24"/>
</a>
</g>
</g>
<!-- Node6&#45;&gt;Node5 -->
<g id="edge6_Node000006_Node000005" class="edge">
<title>Node6&#45;&gt;Node5</title>
<g id="a_edge6_Node000006_Node000005"><a xlink:title=" ">
<path fill="none" stroke="#63b8ff" d="M488.01,-123.84C550.13,-124.87 635.19,-126.27 695.6,-127.27"/>
<polygon fill="#63b8ff" stroke="#63b8ff" points="695.77,-130.77 705.83,-127.44 695.89,-123.77 695.77,-130.77"/>
</a>
</g>
</g>
<!-- Node8 -->
<g id="Node000008" class="node">
<title>Node8</title>
<g id="a_Node000008"><a xlink:href="classMayaFlux_1_1Buffers_1_1BufferProcessingChain_aef4792499996ee8634cf1b7ed0ee7aaa.html#aef4792499996ee8634cf1b7ed0ee7aaa" target="_top" xlink:title=" ">
<polygon fill="white" stroke="#666666" points="660,-100 534,-100 534,-59 660,-59 660,-100"/>
<text text-anchor="start" x="542" y="-88" font-family="Helvetica,sans-Serif" font-size="10.00">MayaFlux::Buffers::</text>
<text text-anchor="start" x="542" y="-77" font-family="Helvetica,sans-Serif" font-size="10.00">BufferProcessingChain</text>
<text text-anchor="middle" x="597" y="-66" font-family="Helvetica,sans-Serif" font-size="10.00">::add_processor_direct</text>
</a>
</g>
</g>
<!-- Node7&#45;&gt;Node8 -->
<g id="edge8_Node000007_Node000008" class="edge">
<title>Node7&#45;&gt;Node8</title>
<g id="a_edge8_Node000007_Node000008"><a xlink:title=" ">
<path fill="none" stroke="#63b8ff" d="M484.69,-66.54C497.63,-68.05 510.99,-69.61 523.79,-71.09"/>
<polygon fill="#63b8ff" stroke="#63b8ff" points="523.56,-74.59 533.9,-72.27 524.37,-67.64 523.56,-74.59"/>
</a>
</g>
</g>
<!-- Node9 -->
<g id="Node000009" class="node">
<title>Node9</title>
<g id="a_Node000009"><a xlink:href="classMayaFlux_1_1Buffers_1_1BufferProcessingChain_ac7fd9f1f3cf9d993aac0a4d64b1601b0.html#ac7fd9f1f3cf9d993aac0a4d64b1601b0" target="_top" xlink:title=" ">
<polygon fill="white" stroke="#666666" points="670,-41 524,-41 524,0 670,0 670,-41"/>
<text text-anchor="start" x="532" y="-29" font-family="Helvetica,sans-Serif" font-size="10.00">MayaFlux::Buffers::</text>
<text text-anchor="start" x="532" y="-18" font-family="Helvetica,sans-Serif" font-size="10.00">BufferProcessingChain</text>
<text text-anchor="middle" x="597" y="-7" font-family="Helvetica,sans-Serif" font-size="10.00">::remove_processor_direct</text>
</a>
</g>
</g>
<!-- Node7&#45;&gt;Node9 -->
<g id="edge10_Node000007_Node000009" class="edge">
<title>Node7&#45;&gt;Node9</title>
<g id="a_edge10_Node000007_Node000009"><a xlink:title=" ">
<path fill="none" stroke="#63b8ff" d="M484.69,-42.29C494.29,-40.41 504.12,-38.49 513.79,-36.59"/>
<polygon fill="#63b8ff" stroke="#63b8ff" points="514.63,-40 523.77,-34.64 513.29,-33.13 514.63,-40"/>
</a>
</g>
</g>
<!-- Node8&#45;&gt;Node5 -->
<g id="edge9_Node000008_Node000005" class="edge">
<title>Node8&#45;&gt;Node5</title>
<g id="a_edge9_Node000008_Node000005"><a xlink:title=" ">
<path fill="none" stroke="#63b8ff" d="M660.1,-97.19C675.41,-101.55 691.82,-106.23 707.17,-110.6"/>
<polygon fill="#63b8ff" stroke="#63b8ff" points="706.5,-114.05 717.08,-113.42 708.42,-107.32 706.5,-114.05"/>
</a>
</g>
</g>
</g>
</svg>
