<?xml version="1.0" encoding="UTF-8" standalone="no"?>
<!DOCTYPE svg PUBLIC "-//W3C//DTD SVG 1.1//EN"
 "http://www.w3.org/Graphics/SVG/1.1/DTD/svg11.dtd">
<!-- Generated by graphviz version 2.43.0 (0)
 -->
<!-- Title: MayaFlux::Nodes::Network::InstanceOperator Pages: 1 -->
<svg width="151pt" height="314pt"
 viewBox="0.00 0.00 151.00 314.00" xmlns="http://www.w3.org/2000/svg" xmlns:xlink="http://www.w3.org/1999/xlink">
<g id="graph0" class="graph" transform="scale(1 1) rotate(0) translate(4 310)">
<title>MayaFlux::Nodes::Network::InstanceOperator</title>
<!-- Node1 -->
<g id="Node000001" class="node">
<title>Node1</title>
<g id="a_Node000001"><a xlink:title="Abstract base for operators that process InstanceNetwork slots.">
<polygon fill="#999999" stroke="transparent" points="143,-135 0,-135 0,0 143,0 143,-135"/>
<text text-anchor="start" x="5.5" y="-122.5" font-family="Helvetica,sans-Serif" font-size="10.00">MayaFlux::Nodes::Network</text>
<text text-anchor="start" x="26.5" y="-111.5" font-family="Helvetica,sans-Serif" font-size="10.00">::InstanceOperator</text>
<text text-anchor="start" x="10" y="-96.5" font-family="Helvetica,sans-Serif" font-size="10.00">#</text>
<text text-anchor="start" x="28.5" y="-96.5" font-family="Helvetica,sans-Serif" font-size="10.00">m_slots</text>
<text text-anchor="start" x="10" y="-81.5" font-family="Helvetica,sans-Serif" font-size="10.00">+</text>
<text text-anchor="start" x="28.5" y="-81.5" font-family="Helvetica,sans-Serif" font-size="10.00">process()</text>
<text text-anchor="start" x="10" y="-66.5" font-family="Helvetica,sans-Serif" font-size="10.00">+</text>
<text text-anchor="start" x="28.5" y="-66.5" font-family="Helvetica,sans-Serif" font-size="10.00">process_slot()</text>
<text text-anchor="start" x="10" y="-51.5" font-family="Helvetica,sans-Serif" font-size="10.00">+</text>
<text text-anchor="start" x="28.5" y="-51.5" font-family="Helvetica,sans-Serif" font-size="10.00">query_state()</text>
<text text-anchor="start" x="10" y="-36.5" font-family="Helvetica,sans-Serif" font-size="10.00">+</text>
<text text-anchor="start" x="28.5" y="-36.5" font-family="Helvetica,sans-Serif" font-size="10.00">set_parameter()</text>
<text text-anchor="start" x="10" y="-21.5" font-family="Helvetica,sans-Serif" font-size="10.00">+</text>
<text text-anchor="start" x="28.5" y="-21.5" font-family="Helvetica,sans-Serif" font-size="10.00">set_slots()</text>
<text text-anchor="start" x="10" y="-6.5" font-family="Helvetica,sans-Serif" font-size="10.00">+</text>
<text text-anchor="start" x="28.5" y="-6.5" font-family="Helvetica,sans-Serif" font-size="10.00">~InstanceOperator()</text>
<polygon fill="#666666" stroke="#666666" points="0.5,-106.5 0.5,-106.5 143.5,-106.5 143.5,-106.5 0.5,-106.5"/>
<polygon fill="#666666" stroke="#666666" points="0.5,-91.5 0.5,-91.5 26.5,-91.5 26.5,-91.5 0.5,-91.5"/>
<polygon fill="#666666" stroke="#666666" points="26.5,-91.5 26.5,-91.5 143.5,-91.5 143.5,-91.5 26.5,-91.5"/>
<polygon fill="none" stroke="#666666" points="0,0 0,-135 143,-135 143,0 0,0"/>
</a>
</g>
</g>
<!-- Node2 -->
<g id="Node000002" class="node">
<title>Node2</title>
<g id="a_Node000002"><a xlink:href="classMayaFlux_1_1Nodes_1_1Network_1_1NetworkOperator.html" target="_top" xlink:title="Domain&#45;agnostic interpretive lens for network processing.">
<polygon fill="white" stroke="transparent" points="143,-306 0,-306 0,-171 143,-171 143,-306"/>
<text text-anchor="start" x="5.5" y="-293.5" font-family="Helvetica,sans-Serif" font-size="10.00">MayaFlux::Nodes::Network</text>
<text text-anchor="start" x="26.5" y="-282.5" font-family="Helvetica,sans-Serif" font-size="10.00">::NetworkOperator</text>
<text text-anchor="start" x="70" y="-267.5" font-family="Helvetica,sans-Serif" font-size="10.00"> </text>
<text text-anchor="start" x="10" y="-252.5" font-family="Helvetica,sans-Serif" font-size="10.00">+</text>
<text text-anchor="start" x="28.5" y="-252.5" font-family="Helvetica,sans-Serif" font-size="10.00">apply_one_to_one()</text>
<text text-anchor="start" x="10" y="-237.5" font-family="Helvetica,sans-Serif" font-size="10.00">+</text>
<text text-anchor="start" x="28.5" y="-237.5" font-family="Helvetica,sans-Serif" font-size="10.00">get_type_name()</text>
<text text-anchor="start" x="10" y="-222.5" font-family="Helvetica,sans-Serif" font-size="10.00">+</text>
<text text-anchor="start" x="28.5" y="-222.5" font-family="Helvetica,sans-Serif" font-size="10.00">process()</text>
<text text-anchor="start" x="10" y="-207.5" font-family="Helvetica,sans-Serif" font-size="10.00">+</text>
<text text-anchor="start" x="28.5" y="-207.5" font-family="Helvetica,sans-Serif" font-size="10.00">query_state()</text>
<text text-anchor="start" x="10" y="-192.5" font-family="Helvetica,sans-Serif" font-size="10.00">+</text>
<text text-anchor="start" x="28.5" y="-192.5" font-family="Helvetica,sans-Serif" font-size="10.00">set_parameter()</text>
<text text-anchor="start" x="10" y="-177.5" font-family="Helvetica,sans-Serif" font-size="10.00">+</text>
<text text-anchor="start" x="28.5" y="-177.5" font-family="Helvetica,sans-Serif" font-size="10.00">~NetworkOperator()</text>
<polygon fill="#666666" stroke="#666666" points="0.5,-277.5 0.5,-277.5 143.5,-277.5 143.5,-277.5 0.5,-277.5"/>
<polygon fill="#666666" stroke="#666666" points="0.5,-262.5 0.5,-262.5 143.5,-262.5 143.5,-262.5 0.5,-262.5"/>
<polygon fill="none" stroke="#666666" points="0,-171 0,-306 143,-306 143,-171 0,-171"/>
</a>
</g>
</g>
<!-- Node2&#45;&gt;Node1 -->
<g id="edge1_Node000001_Node000002" class="edge">
<title>Node2&#45;&gt;Node1</title>
<g id="a_edge1_Node000001_Node000002"><a xlink:title=" ">
<path fill="none" stroke="#63b8ff" d="M71.5,-160.45C71.5,-151.98 71.5,-143.41 71.5,-135.08"/>
<polygon fill="none" stroke="#63b8ff" points="68,-160.71 71.5,-170.71 75,-160.71 68,-160.71"/>
</a>
</g>
</g>
</g>
</svg>
