<?xml version="1.0" encoding="UTF-8" standalone="no"?>
<!DOCTYPE svg PUBLIC "-//W3C//DTD SVG 1.1//EN"
 "http://www.w3.org/Graphics/SVG/1.1/DTD/svg11.dtd">
<!-- Generated by graphviz version 2.43.0 (0)
 -->
<!-- Title: MayaFlux::Nodes::GpuSync::ComputeOutNode Pages: 1 -->
<svg width="533pt" height="1211pt"
 viewBox="0.00 0.00 532.50 1211.00" xmlns="http://www.w3.org/2000/svg" xmlns:xlink="http://www.w3.org/1999/xlink">
<g id="graph0" class="graph" transform="scale(1 1) rotate(0) translate(4 1207)">
<title>MayaFlux::Nodes::GpuSync::ComputeOutNode</title>
<!-- Node1 -->
<g id="Node000001" class="node">
<title>Node1</title>
<g id="a_Node000001"><a xlink:title="Node that reads back data from GPU buffer to CPU.">
<polygon fill="#999999" stroke="transparent" points="236,-240 92,-240 92,0 236,0 236,-240"/>
<text text-anchor="start" x="97" y="-228" font-family="Helvetica,sans-Serif" font-size="10.00">MayaFlux::Nodes::GpuSync</text>
<text text-anchor="start" x="117" y="-217" font-family="Helvetica,sans-Serif" font-size="10.00">::ComputeOutNode</text>
<text text-anchor="start" x="96.5" y="-202" font-family="Helvetica,sans-Serif" font-size="10.00">#</text>
<text text-anchor="start" x="110" y="-202" font-family="Helvetica,sans-Serif" font-size="10.00">m_readback_float_buffer</text>
<text text-anchor="start" x="99" y="-187" font-family="Helvetica,sans-Serif" font-size="10.00">&#45;</text>
<text text-anchor="start" x="110" y="-187" font-family="Helvetica,sans-Serif" font-size="10.00">m_element_count</text>
<text text-anchor="start" x="99" y="-172" font-family="Helvetica,sans-Serif" font-size="10.00">&#45;</text>
<text text-anchor="start" x="110" y="-172" font-family="Helvetica,sans-Serif" font-size="10.00">m_gpu_buffer</text>
<text text-anchor="start" x="99" y="-157" font-family="Helvetica,sans-Serif" font-size="10.00">&#45;</text>
<text text-anchor="start" x="110" y="-157" font-family="Helvetica,sans-Serif" font-size="10.00">m_readback_data</text>
<text text-anchor="start" x="96.5" y="-142" font-family="Helvetica,sans-Serif" font-size="10.00">+</text>
<text text-anchor="start" x="110" y="-142" font-family="Helvetica,sans-Serif" font-size="10.00">clear_gpu_update_flag()</text>
<text text-anchor="start" x="96.5" y="-127" font-family="Helvetica,sans-Serif" font-size="10.00">+</text>
<text text-anchor="start" x="110" y="-127" font-family="Helvetica,sans-Serif" font-size="10.00">compute_frame()</text>
<text text-anchor="start" x="96.5" y="-112" font-family="Helvetica,sans-Serif" font-size="10.00">+</text>
<text text-anchor="start" x="110" y="-112" font-family="Helvetica,sans-Serif" font-size="10.00">ComputeOutNode()</text>
<text text-anchor="start" x="96.5" y="-97" font-family="Helvetica,sans-Serif" font-size="10.00">+</text>
<text text-anchor="start" x="110" y="-97" font-family="Helvetica,sans-Serif" font-size="10.00">get_element()</text>
<text text-anchor="start" x="96.5" y="-82" font-family="Helvetica,sans-Serif" font-size="10.00">+</text>
<text text-anchor="start" x="110" y="-82" font-family="Helvetica,sans-Serif" font-size="10.00">get_element_count()</text>
<text text-anchor="start" x="96.5" y="-67" font-family="Helvetica,sans-Serif" font-size="10.00">+</text>
<text text-anchor="start" x="110" y="-67" font-family="Helvetica,sans-Serif" font-size="10.00">get_gpu_buffer()</text>
<text text-anchor="start" x="96.5" y="-52" font-family="Helvetica,sans-Serif" font-size="10.00">+</text>
<text text-anchor="start" x="110" y="-52" font-family="Helvetica,sans-Serif" font-size="10.00">get_last_context()</text>
<text text-anchor="start" x="96.5" y="-37" font-family="Helvetica,sans-Serif" font-size="10.00">+</text>
<text text-anchor="start" x="110" y="-37" font-family="Helvetica,sans-Serif" font-size="10.00">get_readback_data()</text>
<text text-anchor="start" x="96.5" y="-22" font-family="Helvetica,sans-Serif" font-size="10.00">+</text>
<text text-anchor="start" x="110" y="-22" font-family="Helvetica,sans-Serif" font-size="10.00">needs_gpu_update()</text>
<text text-anchor="start" x="96.5" y="-7" font-family="Helvetica,sans-Serif" font-size="10.00">+</text>
<text text-anchor="start" x="110" y="-7" font-family="Helvetica,sans-Serif" font-size="10.00">update_context()</text>
<polygon fill="#666666" stroke="#666666" points="92,-212 92,-212 236,-212 236,-212 92,-212"/>
<polygon fill="#666666" stroke="#666666" points="92,-152 92,-152 108,-152 108,-152 92,-152"/>
<polygon fill="#666666" stroke="#666666" points="108,-152 108,-152 236,-152 236,-152 108,-152"/>
<polygon fill="none" stroke="#666666" points="92,0 92,-240 236,-240 236,0 92,0"/>
</a>
</g>
</g>
<!-- Node2 -->
<g id="Node000002" class="node">
<title>Node2</title>
<g id="a_Node000002"><a xlink:href="classMayaFlux_1_1Nodes_1_1GpuSync_1_1GpuSync.html" target="_top" xlink:title=" ">
<polygon fill="white" stroke="transparent" points="156,-437 12,-437 12,-287 156,-287 156,-437"/>
<text text-anchor="start" x="17" y="-425" font-family="Helvetica,sans-Serif" font-size="10.00">MayaFlux::Nodes::GpuSync</text>
<text text-anchor="start" x="59.5" y="-414" font-family="Helvetica,sans-Serif" font-size="10.00">::GpuSync</text>
<text text-anchor="start" x="82" y="-399" font-family="Helvetica,sans-Serif" font-size="10.00"> </text>
<text text-anchor="start" x="17" y="-384" font-family="Helvetica,sans-Serif" font-size="10.00">+</text>
<text text-anchor="start" x="31" y="-384" font-family="Helvetica,sans-Serif" font-size="10.00">clear_gpu_update_flag()</text>
<text text-anchor="start" x="17" y="-369" font-family="Helvetica,sans-Serif" font-size="10.00">+</text>
<text text-anchor="start" x="31" y="-369" font-family="Helvetica,sans-Serif" font-size="10.00">compute_frame()</text>
<text text-anchor="start" x="17" y="-354" font-family="Helvetica,sans-Serif" font-size="10.00">+</text>
<text text-anchor="start" x="31" y="-354" font-family="Helvetica,sans-Serif" font-size="10.00">needs_gpu_update()</text>
<text text-anchor="start" x="17" y="-339" font-family="Helvetica,sans-Serif" font-size="10.00">+</text>
<text text-anchor="start" x="31" y="-339" font-family="Helvetica,sans-Serif" font-size="10.00">process_batch()</text>
<text text-anchor="start" x="17" y="-324" font-family="Helvetica,sans-Serif" font-size="10.00">+</text>
<text text-anchor="start" x="31" y="-324" font-family="Helvetica,sans-Serif" font-size="10.00">process_sample()</text>
<text text-anchor="start" x="17" y="-309" font-family="Helvetica,sans-Serif" font-size="10.00">+</text>
<text text-anchor="start" x="31" y="-309" font-family="Helvetica,sans-Serif" font-size="10.00">~GpuSync()</text>
<text text-anchor="start" x="17" y="-294" font-family="Helvetica,sans-Serif" font-size="10.00">#</text>
<text text-anchor="start" x="31" y="-294" font-family="Helvetica,sans-Serif" font-size="10.00">notify_tick()</text>
<polygon fill="#666666" stroke="#666666" points="12,-409 12,-409 156,-409 156,-409 12,-409"/>
<polygon fill="#666666" stroke="#666666" points="12,-394 12,-394 156,-394 156,-394 12,-394"/>
<polygon fill="none" stroke="#666666" points="12,-287 12,-437 156,-437 156,-287 12,-287"/>
</a>
</g>
</g>
<!-- Node2&#45;&gt;Node1 -->
<g id="edge1_Node000001_Node000002" class="edge">
<title>Node2&#45;&gt;Node1</title>
<g id="a_edge1_Node000001_Node000002"><a xlink:title=" ">
<path fill="none" stroke="#63b8ff" d="M112.03,-276.9C115.98,-265.06 120.1,-252.71 124.21,-240.37"/>
<polygon fill="none" stroke="#63b8ff" points="108.61,-276.11 108.76,-286.71 115.25,-278.33 108.61,-276.11"/>
</a>
</g>
</g>
<!-- Node3 -->
<g id="Node000003" class="node">
<title>Node3</title>
<g id="a_Node000003"><a xlink:href="classMayaFlux_1_1Nodes_1_1Node.html" target="_top" xlink:title="Base interface for all computational processing nodes.">
<polygon fill="white" stroke="transparent" points="148,-1021 0,-1021 0,-474 148,-474 148,-1021"/>
<text text-anchor="start" x="15.5" y="-1008.5" font-family="Helvetica,sans-Serif" font-size="10.00">MayaFlux::Nodes::Node</text>
<text text-anchor="start" x="4" y="-993.5" font-family="Helvetica,sans-Serif" font-size="10.00">+</text>
<text text-anchor="start" x="17" y="-993.5" font-family="Helvetica,sans-Serif" font-size="10.00">m_fire_events_during</text>
<text text-anchor="start" x="17" y="-982.5" font-family="Helvetica,sans-Serif" font-size="10.00">_snapshot</text>
<text text-anchor="start" x="4" y="-967.5" font-family="Helvetica,sans-Serif" font-size="10.00">+</text>
<text text-anchor="start" x="17" y="-967.5" font-family="Helvetica,sans-Serif" font-size="10.00">m_modulator_count</text>
<text text-anchor="start" x="4" y="-952.5" font-family="Helvetica,sans-Serif" font-size="10.00">+</text>
<text text-anchor="start" x="17" y="-952.5" font-family="Helvetica,sans-Serif" font-size="10.00">m_state</text>
<text text-anchor="start" x="4" y="-937.5" font-family="Helvetica,sans-Serif" font-size="10.00">#</text>
<text text-anchor="start" x="17" y="-937.5" font-family="Helvetica,sans-Serif" font-size="10.00">m_callbacks</text>
<text text-anchor="start" x="4" y="-922.5" font-family="Helvetica,sans-Serif" font-size="10.00">#</text>
<text text-anchor="start" x="17" y="-922.5" font-family="Helvetica,sans-Serif" font-size="10.00">m_conditional_callbacks</text>
<text text-anchor="start" x="4" y="-907.5" font-family="Helvetica,sans-Serif" font-size="10.00">#</text>
<text text-anchor="start" x="17" y="-907.5" font-family="Helvetica,sans-Serif" font-size="10.00">m_frame_rate</text>
<text text-anchor="start" x="4" y="-892.5" font-family="Helvetica,sans-Serif" font-size="10.00">#</text>
<text text-anchor="start" x="17" y="-892.5" font-family="Helvetica,sans-Serif" font-size="10.00">m_gpu_compatible</text>
<text text-anchor="start" x="4" y="-877.5" font-family="Helvetica,sans-Serif" font-size="10.00">#</text>
<text text-anchor="start" x="17" y="-877.5" font-family="Helvetica,sans-Serif" font-size="10.00">m_gpu_data_buffer</text>
<text text-anchor="start" x="4" y="-862.5" font-family="Helvetica,sans-Serif" font-size="10.00">#</text>
<text text-anchor="start" x="17" y="-862.5" font-family="Helvetica,sans-Serif" font-size="10.00">m_last_output</text>
<text text-anchor="start" x="4" y="-847.5" font-family="Helvetica,sans-Serif" font-size="10.00">#</text>
<text text-anchor="start" x="17" y="-847.5" font-family="Helvetica,sans-Serif" font-size="10.00">m_networked_node</text>
<text text-anchor="start" x="4" y="-832.5" font-family="Helvetica,sans-Serif" font-size="10.00">#</text>
<text text-anchor="start" x="17" y="-832.5" font-family="Helvetica,sans-Serif" font-size="10.00">m_node_capability</text>
<text text-anchor="start" x="4" y="-817.5" font-family="Helvetica,sans-Serif" font-size="10.00">#</text>
<text text-anchor="start" x="17" y="-817.5" font-family="Helvetica,sans-Serif" font-size="10.00">m_sample_rate</text>
<text text-anchor="start" x="4" y="-802.5" font-family="Helvetica,sans-Serif" font-size="10.00">#</text>
<text text-anchor="start" x="17" y="-802.5" font-family="Helvetica,sans-Serif" font-size="10.00">m_state_saved</text>
<text text-anchor="start" x="4" y="-787.5" font-family="Helvetica,sans-Serif" font-size="10.00">#</text>
<text text-anchor="start" x="17" y="-787.5" font-family="Helvetica,sans-Serif" font-size="10.00">m_timing_rate</text>
<text text-anchor="start" x="6.5" y="-772.5" font-family="Helvetica,sans-Serif" font-size="10.00">&#45;</text>
<text text-anchor="start" x="17" y="-772.5" font-family="Helvetica,sans-Serif" font-size="10.00">m_active_channels_mask</text>
<text text-anchor="start" x="6.5" y="-757.5" font-family="Helvetica,sans-Serif" font-size="10.00">&#45;</text>
<text text-anchor="start" x="17" y="-757.5" font-family="Helvetica,sans-Serif" font-size="10.00">m_buffer_count</text>
<text text-anchor="start" x="6.5" y="-742.5" font-family="Helvetica,sans-Serif" font-size="10.00">&#45;</text>
<text text-anchor="start" x="17" y="-742.5" font-family="Helvetica,sans-Serif" font-size="10.00">m_buffer_processed</text>
<text text-anchor="start" x="6.5" y="-727.5" font-family="Helvetica,sans-Serif" font-size="10.00">&#45;</text>
<text text-anchor="start" x="17" y="-727.5" font-family="Helvetica,sans-Serif" font-size="10.00">m_buffer_reset_count</text>
<text text-anchor="start" x="6.5" y="-712.5" font-family="Helvetica,sans-Serif" font-size="10.00">&#45;</text>
<text text-anchor="start" x="17" y="-712.5" font-family="Helvetica,sans-Serif" font-size="10.00">m_pending_reset_mask</text>
<text text-anchor="start" x="6.5" y="-697.5" font-family="Helvetica,sans-Serif" font-size="10.00">&#45;</text>
<text text-anchor="start" x="17" y="-697.5" font-family="Helvetica,sans-Serif" font-size="10.00">m_snapshot_context_id</text>
<text text-anchor="start" x="4" y="-682.5" font-family="Helvetica,sans-Serif" font-size="10.00">+</text>
<text text-anchor="start" x="17" y="-682.5" font-family="Helvetica,sans-Serif" font-size="10.00">add_buffer_reference()</text>
<text text-anchor="start" x="4" y="-667.5" font-family="Helvetica,sans-Serif" font-size="10.00">+</text>
<text text-anchor="start" x="17" y="-667.5" font-family="Helvetica,sans-Serif" font-size="10.00">get_active_snapshot</text>
<text text-anchor="start" x="17" y="-656.5" font-family="Helvetica,sans-Serif" font-size="10.00">_context()</text>
<text text-anchor="start" x="4" y="-641.5" font-family="Helvetica,sans-Serif" font-size="10.00">+</text>
<text text-anchor="start" x="17" y="-641.5" font-family="Helvetica,sans-Serif" font-size="10.00">get_channel_mask()</text>
<text text-anchor="start" x="4" y="-626.5" font-family="Helvetica,sans-Serif" font-size="10.00">+</text>
<text text-anchor="start" x="17" y="-626.5" font-family="Helvetica,sans-Serif" font-size="10.00">get_frame_rate()</text>
<text text-anchor="start" x="4" y="-611.5" font-family="Helvetica,sans-Serif" font-size="10.00">+</text>
<text text-anchor="start" x="17" y="-611.5" font-family="Helvetica,sans-Serif" font-size="10.00">get_gpu_data_buffer()</text>
<text text-anchor="start" x="4" y="-596.5" font-family="Helvetica,sans-Serif" font-size="10.00">+</text>
<text text-anchor="start" x="17" y="-596.5" font-family="Helvetica,sans-Serif" font-size="10.00">get_last_context()</text>
<text text-anchor="start" x="4" y="-581.5" font-family="Helvetica,sans-Serif" font-size="10.00">+</text>
<text text-anchor="start" x="17" y="-581.5" font-family="Helvetica,sans-Serif" font-size="10.00">get_last_output()</text>
<text text-anchor="start" x="4" y="-566.5" font-family="Helvetica,sans-Serif" font-size="10.00">+</text>
<text text-anchor="start" x="17" y="-566.5" font-family="Helvetica,sans-Serif" font-size="10.00">get_routing_state()</text>
<text text-anchor="start" x="4" y="-551.5" font-family="Helvetica,sans-Serif" font-size="10.00">+</text>
<text text-anchor="start" x="17" y="-551.5" font-family="Helvetica,sans-Serif" font-size="10.00">get_routing_state()</text>
<text text-anchor="start" x="4" y="-536.5" font-family="Helvetica,sans-Serif" font-size="10.00">+</text>
<text text-anchor="start" x="17" y="-536.5" font-family="Helvetica,sans-Serif" font-size="10.00">get_sample_rate()</text>
<text text-anchor="start" x="17" y="-521.5" font-family="Helvetica,sans-Serif" font-size="10.00">and 33 more...</text>
<text text-anchor="start" x="4" y="-506.5" font-family="Helvetica,sans-Serif" font-size="10.00">#</text>
<text text-anchor="start" x="17" y="-506.5" font-family="Helvetica,sans-Serif" font-size="10.00">notify_tick()</text>
<text text-anchor="start" x="4" y="-491.5" font-family="Helvetica,sans-Serif" font-size="10.00">#</text>
<text text-anchor="start" x="17" y="-491.5" font-family="Helvetica,sans-Serif" font-size="10.00">reset_processed_state</text>
<text text-anchor="start" x="17" y="-480.5" font-family="Helvetica,sans-Serif" font-size="10.00">_internal()</text>
<polygon fill="#666666" stroke="#666666" points="0,-1003.5 0,-1003.5 148,-1003.5 148,-1003.5 0,-1003.5"/>
<polygon fill="#666666" stroke="#666666" points="0,-692.5 0,-692.5 15,-692.5 15,-692.5 0,-692.5"/>
<polygon fill="#666666" stroke="#666666" points="15,-692.5 15,-692.5 148,-692.5 148,-692.5 15,-692.5"/>
<polygon fill="none" stroke="#666666" points="0,-474 0,-1021 148,-1021 148,-474 0,-474"/>
</a>
</g>
</g>
<!-- Node3&#45;&gt;Node2 -->
<g id="edge2_Node000002_Node000003" class="edge">
<title>Node3&#45;&gt;Node2</title>
<g id="a_edge2_Node000002_Node000003"><a xlink:title=" ">
<path fill="none" stroke="#63b8ff" d="M81.37,-463.75C81.61,-454.5 81.85,-445.62 82.06,-437.23"/>
<polygon fill="none" stroke="#63b8ff" points="77.87,-463.84 81.11,-473.92 84.87,-464.02 77.87,-463.84"/>
</a>
</g>
</g>
<!-- Node4 -->
<g id="Node000004" class="node">
<title>Node4</title>
<g id="a_Node000004"><a xlink:href="structMayaFlux_1_1Nodes_1_1RoutingState.html" target="_top" xlink:title="Represents the state of routing transitions for a node.">
<polygon fill="white" stroke="transparent" points="143.5,-1203 4.5,-1203 4.5,-1068 143.5,-1068 143.5,-1203"/>
<text text-anchor="start" x="10" y="-1190.5" font-family="Helvetica,sans-Serif" font-size="10.00">MayaFlux::Nodes::Routing</text>
<text text-anchor="start" x="61.5" y="-1179.5" font-family="Helvetica,sans-Serif" font-size="10.00">State</text>
<text text-anchor="start" x="19.5" y="-1164.5" font-family="Helvetica,sans-Serif" font-size="10.00">+</text>
<text text-anchor="start" x="43" y="-1164.5" font-family="Helvetica,sans-Serif" font-size="10.00">amount</text>
<text text-anchor="start" x="19.5" y="-1149.5" font-family="Helvetica,sans-Serif" font-size="10.00">+</text>
<text text-anchor="start" x="43" y="-1149.5" font-family="Helvetica,sans-Serif" font-size="10.00">cycles_elapsed</text>
<text text-anchor="start" x="19.5" y="-1134.5" font-family="Helvetica,sans-Serif" font-size="10.00">+</text>
<text text-anchor="start" x="43" y="-1134.5" font-family="Helvetica,sans-Serif" font-size="10.00">fade_cycles</text>
<text text-anchor="start" x="19.5" y="-1119.5" font-family="Helvetica,sans-Serif" font-size="10.00">+</text>
<text text-anchor="start" x="43" y="-1119.5" font-family="Helvetica,sans-Serif" font-size="10.00">from_channels</text>
<text text-anchor="start" x="19.5" y="-1104.5" font-family="Helvetica,sans-Serif" font-size="10.00">+</text>
<text text-anchor="start" x="43" y="-1104.5" font-family="Helvetica,sans-Serif" font-size="10.00">NONE</text>
<text text-anchor="start" x="19.5" y="-1089.5" font-family="Helvetica,sans-Serif" font-size="10.00">+</text>
<text text-anchor="start" x="43" y="-1089.5" font-family="Helvetica,sans-Serif" font-size="10.00">to_channels</text>
<text text-anchor="start" x="72.5" y="-1074.5" font-family="Helvetica,sans-Serif" font-size="10.00"> </text>
<polygon fill="#666666" stroke="#666666" points="5,-1174.5 5,-1174.5 144,-1174.5 144,-1174.5 5,-1174.5"/>
<polygon fill="#666666" stroke="#666666" points="5,-1084.5 5,-1084.5 41,-1084.5 41,-1084.5 5,-1084.5"/>
<polygon fill="#666666" stroke="#666666" points="41,-1084.5 41,-1084.5 144,-1084.5 144,-1084.5 41,-1084.5"/>
<polygon fill="none" stroke="#666666" points="4.5,-1068 4.5,-1203 143.5,-1203 143.5,-1068 4.5,-1068"/>
</a>
</g>
</g>
<!-- Node4&#45;&gt;Node3 -->
<g id="edge3_Node000003_Node000004" class="edge">
<title>Node4&#45;&gt;Node3</title>
<g id="a_edge3_Node000003_Node000004"><a xlink:title=" ">
<path fill="none" stroke="#63b8ff" d="M74,-1067.7C74,-1057.1 74,-1045.6 74,-1033.46"/>
<polygon fill="none" stroke="#63b8ff" points="74,-1033.12 70,-1027.12 74,-1021.12 78,-1027.12 74,-1033.12"/>
</a>
</g>
<text text-anchor="middle" x="117.5" y="-1042" font-family="Helvetica,sans-Serif" font-size="10.00" fill="grey"> &#45;m_routing_state</text>
</g>
<!-- Node5 -->
<g id="Node000005" class="node">
<title>Node5</title>
<g id="a_Node000005"><a xlink:href="classMayaFlux_1_1Nodes_1_1GpuSync_1_1ComputeOutContext.html" target="_top" xlink:title="Context for ComputeOutNode &#45; provides readback buffer access.">
<polygon fill="white" stroke="transparent" points="321,-392 177,-392 177,-332 321,-332 321,-392"/>
<text text-anchor="start" x="182" y="-380" font-family="Helvetica,sans-Serif" font-size="10.00">MayaFlux::Nodes::GpuSync</text>
<text text-anchor="start" x="196" y="-369" font-family="Helvetica,sans-Serif" font-size="10.00">::ComputeOutContext</text>
<text text-anchor="start" x="184.5" y="-354" font-family="Helvetica,sans-Serif" font-size="10.00">+</text>
<text text-anchor="start" x="201" y="-354" font-family="Helvetica,sans-Serif" font-size="10.00">element_count</text>
<text text-anchor="start" x="184.5" y="-339" font-family="Helvetica,sans-Serif" font-size="10.00">+</text>
<text text-anchor="start" x="201" y="-339" font-family="Helvetica,sans-Serif" font-size="10.00">ComputeOutContext()</text>
<polygon fill="#666666" stroke="#666666" points="177,-364 177,-364 321,-364 321,-364 177,-364"/>
<polygon fill="#666666" stroke="#666666" points="177,-349 177,-349 199,-349 199,-349 177,-349"/>
<polygon fill="#666666" stroke="#666666" points="199,-349 199,-349 321,-349 321,-349 199,-349"/>
<polygon fill="none" stroke="#666666" points="177,-332 177,-392 321,-392 321,-332 177,-332"/>
</a>
</g>
</g>
<!-- Node5&#45;&gt;Node1 -->
<g id="edge4_Node000001_Node000005" class="edge">
<title>Node5&#45;&gt;Node1</title>
<g id="a_edge4_Node000001_Node000005"><a xlink:title=" ">
<path fill="none" stroke="#63b8ff" d="M238.58,-331.57C231.27,-310.93 220.93,-281.73 210.27,-251.64"/>
<polygon fill="none" stroke="#63b8ff" points="210.18,-251.39 204.41,-247.07 206.17,-240.08 211.95,-244.4 210.18,-251.39"/>
</a>
</g>
<text text-anchor="middle" x="247" y="-261" font-family="Helvetica,sans-Serif" font-size="10.00" fill="grey"> #m_context</text>
</g>
<!-- Node6 -->
<g id="Node000006" class="node">
<title>Node6</title>
<g id="a_Node000006"><a xlink:href="classMayaFlux_1_1Nodes_1_1NodeContext.html" target="_top" xlink:title="Base context class for node callbacks.">
<polygon fill="white" stroke="transparent" points="331.5,-802 166.5,-802 166.5,-693 331.5,-693 331.5,-802"/>
<text text-anchor="start" x="172" y="-789.5" font-family="Helvetica,sans-Serif" font-size="10.00">MayaFlux::Nodes::NodeContext</text>
<text text-anchor="start" x="187" y="-774.5" font-family="Helvetica,sans-Serif" font-size="10.00">+</text>
<text text-anchor="start" x="216" y="-774.5" font-family="Helvetica,sans-Serif" font-size="10.00">type_id</text>
<text text-anchor="start" x="187" y="-759.5" font-family="Helvetica,sans-Serif" font-size="10.00">+</text>
<text text-anchor="start" x="216" y="-759.5" font-family="Helvetica,sans-Serif" font-size="10.00">value</text>
<text text-anchor="start" x="187" y="-744.5" font-family="Helvetica,sans-Serif" font-size="10.00">+</text>
<text text-anchor="start" x="216" y="-744.5" font-family="Helvetica,sans-Serif" font-size="10.00">as()</text>
<text text-anchor="start" x="187" y="-729.5" font-family="Helvetica,sans-Serif" font-size="10.00">+</text>
<text text-anchor="start" x="216" y="-729.5" font-family="Helvetica,sans-Serif" font-size="10.00">as()</text>
<text text-anchor="start" x="187" y="-714.5" font-family="Helvetica,sans-Serif" font-size="10.00">+</text>
<text text-anchor="start" x="216" y="-714.5" font-family="Helvetica,sans-Serif" font-size="10.00">~NodeContext()</text>
<text text-anchor="start" x="187" y="-699.5" font-family="Helvetica,sans-Serif" font-size="10.00">#</text>
<text text-anchor="start" x="216" y="-699.5" font-family="Helvetica,sans-Serif" font-size="10.00">NodeContext()</text>
<polygon fill="#666666" stroke="#666666" points="167,-784.5 167,-784.5 332,-784.5 332,-784.5 167,-784.5"/>
<polygon fill="#666666" stroke="#666666" points="167,-754.5 167,-754.5 214,-754.5 214,-754.5 167,-754.5"/>
<polygon fill="#666666" stroke="#666666" points="214,-754.5 214,-754.5 332,-754.5 332,-754.5 214,-754.5"/>
<polygon fill="none" stroke="#666666" points="166.5,-693 166.5,-802 331.5,-802 331.5,-693 166.5,-693"/>
</a>
</g>
</g>
<!-- Node6&#45;&gt;Node5 -->
<g id="edge5_Node000005_Node000006" class="edge">
<title>Node6&#45;&gt;Node5</title>
<g id="a_edge5_Node000005_Node000006"><a xlink:title=" ">
<path fill="none" stroke="#63b8ff" d="M249,-682.56C249,-598.31 249,-453.63 249,-392.08"/>
<polygon fill="none" stroke="#63b8ff" points="245.5,-682.77 249,-692.77 252.5,-682.77 245.5,-682.77"/>
</a>
</g>
</g>
<!-- Node7 -->
<g id="Node000007" class="node">
<title>Node7</title>
<g id="a_Node000007"><a xlink:href="classMayaFlux_1_1Nodes_1_1GpuVectorData.html" target="_top" xlink:title="GPU&#45;uploadable 1D array data interface.">
<polygon fill="white" stroke="transparent" points="524.5,-802 349.5,-802 349.5,-693 524.5,-693 524.5,-802"/>
<text text-anchor="start" x="355" y="-789.5" font-family="Helvetica,sans-Serif" font-size="10.00">MayaFlux::Nodes::GpuVectorData</text>
<text text-anchor="start" x="372" y="-774.5" font-family="Helvetica,sans-Serif" font-size="10.00">#</text>
<text text-anchor="start" x="403" y="-774.5" font-family="Helvetica,sans-Serif" font-size="10.00">m_gpu_data</text>
<text text-anchor="start" x="372" y="-759.5" font-family="Helvetica,sans-Serif" font-size="10.00">+</text>
<text text-anchor="start" x="403" y="-759.5" font-family="Helvetica,sans-Serif" font-size="10.00">gpu_data()</text>
<text text-anchor="start" x="372" y="-744.5" font-family="Helvetica,sans-Serif" font-size="10.00">+</text>
<text text-anchor="start" x="403" y="-744.5" font-family="Helvetica,sans-Serif" font-size="10.00">gpu_data_size()</text>
<text text-anchor="start" x="372" y="-729.5" font-family="Helvetica,sans-Serif" font-size="10.00">+</text>
<text text-anchor="start" x="403" y="-729.5" font-family="Helvetica,sans-Serif" font-size="10.00">GpuVectorData()</text>
<text text-anchor="start" x="372" y="-714.5" font-family="Helvetica,sans-Serif" font-size="10.00">+</text>
<text text-anchor="start" x="403" y="-714.5" font-family="Helvetica,sans-Serif" font-size="10.00">GpuVectorData()</text>
<text text-anchor="start" x="372" y="-699.5" font-family="Helvetica,sans-Serif" font-size="10.00">+</text>
<text text-anchor="start" x="403" y="-699.5" font-family="Helvetica,sans-Serif" font-size="10.00">has_gpu_data()</text>
<polygon fill="#666666" stroke="#666666" points="350,-784.5 350,-784.5 525,-784.5 525,-784.5 350,-784.5"/>
<polygon fill="#666666" stroke="#666666" points="350,-769.5 350,-769.5 401,-769.5 401,-769.5 350,-769.5"/>
<polygon fill="#666666" stroke="#666666" points="401,-769.5 401,-769.5 525,-769.5 525,-769.5 401,-769.5"/>
<polygon fill="none" stroke="#666666" points="349.5,-693 349.5,-802 524.5,-802 524.5,-693 349.5,-693"/>
</a>
</g>
</g>
<!-- Node7&#45;&gt;Node5 -->
<g id="edge6_Node000005_Node000007" class="edge">
<title>Node7&#45;&gt;Node5</title>
<g id="a_edge6_Node000005_Node000007"><a xlink:title=" ">
<path fill="none" stroke="#63b8ff" d="M421.12,-683C405.34,-626.01 377.99,-541.23 340,-474 322.84,-443.63 297.23,-413.28 277.55,-392.01"/>
<polygon fill="none" stroke="#63b8ff" points="417.83,-684.23 423.84,-692.96 424.58,-682.39 417.83,-684.23"/>
</a>
</g>
</g>
</g>
</svg>
