<?xml version="1.0" encoding="UTF-8" standalone="no"?>
<!DOCTYPE svg PUBLIC "-//W3C//DTD SVG 1.1//EN"
 "http://www.w3.org/Graphics/SVG/1.1/DTD/svg11.dtd">
<!-- Generated by graphviz version 2.43.0 (0)
 -->
<!-- Title: MayaFlux::Core::GraphicsSubsystem::start Pages: 1 -->
<!--zoomable 360 -->

<svg id="main" version="1.1" xmlns="http://www.w3.org/2000/svg" xmlns:xlink="http://www.w3.org/1999/xlink" xml:space="preserve" onload="init(evt)">
<style type="text/css"><![CDATA[
.node, .edge {opacity: 0.7;}
.node.selected, .edge.selected {opacity: 1;}
.edge:hover path { stroke: red; }
.edge:hover polygon { stroke: red; fill: red; }
]]></style>

<defs>
  <circle id="rim" cx="0" cy="0" r="7"/>
  <circle id="rim2" cx="0" cy="0" r="3.5"/>
  <g id="zoomPlus">
    <use xlink:href="#rim" fill="#404040"><set attributeName="fill" to="#808080" begin="zoomplus.mouseover" end="zoomplus.mouseout"/></use>
    <path d="M-4,0h8M0,-4v8" fill="none" stroke="white" stroke-width="1.5" pointer-events="none"/>
  </g>
  <g id="zoomMin">
    <use xlink:href="#rim" fill="#404040"><set attributeName="fill" to="#808080" begin="zoomminus.mouseover" end="zoomminus.mouseout"/></use>
    <path d="M-4,0h8" fill="none" stroke="white" stroke-width="1.5" pointer-events="none"/>
  </g>
  <g id="arrowUp" transform="translate(30 24)">
    <use xlink:href="#rim"/>
    <path pointer-events="none" fill="none" stroke="white" stroke-width="1.5" d="M0,-3.0v7 M-2.5,-0.5L0,-3.0L2.5,-0.5"/>
  </g>
  <g id="arrowRight" transform="rotate(90) translate(36 -43)">
    <use xlink:href="#rim"/>
    <path pointer-events="none" fill="none" stroke="white" stroke-width="1.5" d="M0,-3.0v7 M-2.5,-0.5L0,-3.0L2.5,-0.5"/>
  </g>
  <g id="arrowDown" transform="rotate(180) translate(-30 -48)">
    <use xlink:href="#rim"/>
    <path pointer-events="none" fill="none" stroke="white" stroke-width="1.5" d="M0,-3.0v7 M-2.5,-0.5L0,-3.0L2.5,-0.5"/>
  </g>
  <g id="arrowLeft" transform="rotate(270) translate(-36 17)">
    <use xlink:href="#rim"/>
    <path pointer-events="none" fill="none" stroke="white" stroke-width="1.5" d="M0,-3.0v7 M-2.5,-0.5L0,-3.0L2.5,-0.5"/>
  </g>
  <g id="resetDef">
    <use xlink:href="#rim2" fill="#404040"><set attributeName="fill" to="#808080" begin="reset.mouseover" end="reset.mouseout"/></use>
  </g>
</defs>
<script type="application/ecmascript">
var viewWidth = 979;
var viewHeight = 360;
var sectionId = 'dynsection-0';
</script>
<script type="application/ecmascript" xlink:href="svg.min.js"/>
<svg id="graph" class="graph">
<g id="viewport">
<title>MayaFlux::Core::GraphicsSubsystem::start</title>
<!-- Node1 -->
<g id="Node000001" class="node">
<title>Node1</title>
<g id="a_Node000001"><a xlink:title="Start the subsystem&#39;s processing/event loops.">
<polygon fill="#999999" stroke="#666666" points="142,-196.5 0,-196.5 0,-166.5 142,-166.5 142,-196.5"/>
<text text-anchor="start" x="8" y="-184.5" font-family="Helvetica,sans-Serif" font-size="10.00">MayaFlux::Core::Graphics</text>
<text text-anchor="middle" x="71" y="-173.5" font-family="Helvetica,sans-Serif" font-size="10.00">Subsystem::start</text>
</a>
</g>
</g>
<!-- Node2 -->
<g id="Node000002" class="node">
<title>Node2</title>
<g id="a_Node000002"><a xlink:href="classMayaFlux_1_1Core_1_1GraphicsSubsystem_a5570e0e163a26bb602d622048a29c73f.html#a5570e0e163a26bb602d622048a29c73f" target="_top" xlink:title="Graphics thread main loop.">
<polygon fill="white" stroke="#666666" points="359,-196.5 178,-196.5 178,-166.5 359,-166.5 359,-196.5"/>
<text text-anchor="start" x="186" y="-184.5" font-family="Helvetica,sans-Serif" font-size="10.00">MayaFlux::Core::Graphics</text>
<text text-anchor="middle" x="268.5" y="-173.5" font-family="Helvetica,sans-Serif" font-size="10.00">Subsystem::graphics_thread_loop</text>
</a>
</g>
</g>
<!-- Node1&#45;&gt;Node2 -->
<g id="edge1_Node000001_Node000002" class="edge">
<title>Node1&#45;&gt;Node2</title>
<g id="a_edge1_Node000001_Node000002"><a xlink:title=" ">
<path fill="none" stroke="#63b8ff" d="M142.03,-181.5C150.38,-181.5 159.02,-181.5 167.68,-181.5"/>
<polygon fill="#63b8ff" stroke="#63b8ff" points="167.84,-185 177.84,-181.5 167.84,-178 167.84,-185"/>
</a>
</g>
</g>
<!-- Node3 -->
<g id="Node000003" class="node">
<title>Node3</title>
<g id="a_Node000003"><a xlink:href="classMayaFlux_1_1Core_1_1GraphicsSubsystem_af7661b41b9eb2e292868aca2f7116b9a.html#af7661b41b9eb2e292868aca2f7116b9a" target="_top" xlink:title="Unified processing callback (alternative to separate methods)">
<polygon fill="white" stroke="#666666" points="537,-196.5 395,-196.5 395,-166.5 537,-166.5 537,-196.5"/>
<text text-anchor="start" x="403" y="-184.5" font-family="Helvetica,sans-Serif" font-size="10.00">MayaFlux::Core::Graphics</text>
<text text-anchor="middle" x="466" y="-173.5" font-family="Helvetica,sans-Serif" font-size="10.00">Subsystem::process</text>
</a>
</g>
</g>
<!-- Node2&#45;&gt;Node3 -->
<g id="edge2_Node000002_Node000003" class="edge">
<title>Node2&#45;&gt;Node3</title>
<g id="a_edge2_Node000002_Node000003"><a xlink:title=" ">
<path fill="none" stroke="#63b8ff" d="M359.24,-181.5C367.73,-181.5 376.3,-181.5 384.7,-181.5"/>
<polygon fill="#63b8ff" stroke="#63b8ff" points="384.84,-185 394.84,-181.5 384.84,-178 384.84,-185"/>
</a>
</g>
</g>
<!-- Node4 -->
<g id="Node000004" class="node">
<title>Node4</title>
<g id="a_Node000004"><a xlink:href="classMayaFlux_1_1Core_1_1GraphicsSubsystem_a28ff7831678b8f7db1ada479ad23acc5.html#a28ff7831678b8f7db1ada479ad23acc5" target="_top" xlink:title="Cleanup resources for windows that have been closed.">
<polygon fill="white" stroke="#666666" points="739.5,-352 587.5,-352 587.5,-311 739.5,-311 739.5,-352"/>
<text text-anchor="start" x="595.5" y="-340" font-family="Helvetica,sans-Serif" font-size="10.00">MayaFlux::Core::Graphics</text>
<text text-anchor="start" x="595.5" y="-329" font-family="Helvetica,sans-Serif" font-size="10.00">Subsystem::cleanup_closed</text>
<text text-anchor="middle" x="663.5" y="-318" font-family="Helvetica,sans-Serif" font-size="10.00">_windows</text>
</a>
</g>
</g>
<!-- Node3&#45;&gt;Node4 -->
<g id="edge3_Node000003_Node000004" class="edge">
<title>Node3&#45;&gt;Node4</title>
<g id="a_edge3_Node000003_Node000004"><a xlink:title=" ">
<path fill="none" stroke="#63b8ff" d="M476.51,-196.69C493.08,-221.99 529.67,-272.78 573,-301.5 575.58,-303.21 578.27,-304.83 581.03,-306.37"/>
<polygon fill="#63b8ff" stroke="#63b8ff" points="579.58,-309.56 590.08,-310.99 582.77,-303.32 579.58,-309.56"/>
</a>
</g>
</g>
<!-- Node5 -->
<g id="Node000005" class="node">
<title>Node5</title>
<g id="a_Node000005"><a xlink:href="classMayaFlux_1_1Core_1_1WindowManagerHandle_a84cdc55033d8eb11b3762489117a927f.html#a84cdc55033d8eb11b3762489117a927f" target="_top" xlink:title="Process window events and frame hooks.">
<polygon fill="white" stroke="#666666" points="754,-292.5 573,-292.5 573,-262.5 754,-262.5 754,-292.5"/>
<text text-anchor="start" x="581" y="-280.5" font-family="Helvetica,sans-Serif" font-size="10.00">MayaFlux::Core::WindowManager</text>
<text text-anchor="middle" x="663.5" y="-269.5" font-family="Helvetica,sans-Serif" font-size="10.00">Handle::process</text>
</a>
</g>
</g>
<!-- Node3&#45;&gt;Node5 -->
<g id="edge4_Node000003_Node000005" class="edge">
<title>Node3&#45;&gt;Node5</title>
<g id="a_edge4_Node000003_Node000005"><a xlink:title=" ">
<path fill="none" stroke="#63b8ff" d="M485.01,-196.53C505.24,-212.73 539.62,-238.22 573,-253.5 577.34,-255.49 581.88,-257.34 586.51,-259.05"/>
<polygon fill="#63b8ff" stroke="#63b8ff" points="585.52,-262.42 596.12,-262.39 587.82,-255.8 585.52,-262.42"/>
</a>
</g>
</g>
<!-- Node6 -->
<g id="Node000006" class="node">
<title>Node6</title>
<g id="a_Node000006"><a xlink:href="classMayaFlux_1_1Core_1_1NodeProcessingHandle_a209dc2ace5e26fa22b730a4b14202d57.html#a209dc2ace5e26fa22b730a4b14202d57" target="_top" xlink:title="Process all nodes in token domain.">
<polygon fill="white" stroke="#666666" points="752,-244.5 575,-244.5 575,-214.5 752,-214.5 752,-244.5"/>
<text text-anchor="start" x="583" y="-232.5" font-family="Helvetica,sans-Serif" font-size="10.00">MayaFlux::Core::NodeProcessing</text>
<text text-anchor="middle" x="663.5" y="-221.5" font-family="Helvetica,sans-Serif" font-size="10.00">Handle::process</text>
</a>
</g>
</g>
<!-- Node3&#45;&gt;Node6 -->
<g id="edge5_Node000003_Node000006" class="edge">
<title>Node3&#45;&gt;Node6</title>
<g id="a_edge5_Node000003_Node000006"><a xlink:title=" ">
<path fill="none" stroke="#63b8ff" d="M528.32,-196.56C548.34,-201.47 570.73,-206.97 591.4,-212.04"/>
<polygon fill="#63b8ff" stroke="#63b8ff" points="590.85,-215.51 601.4,-214.5 592.52,-208.71 590.85,-215.51"/>
</a>
</g>
</g>
<!-- Node7 -->
<g id="Node000007" class="node">
<title>Node7</title>
<g id="a_Node000007"><a xlink:href="classMayaFlux_1_1Core_1_1BufferProcessingHandle_a71843f9187ec9d8a3b9e67c789c77fa4.html#a71843f9187ec9d8a3b9e67c789c77fa4" target="_top" xlink:title="Process all channels in token domain.">
<polygon fill="white" stroke="#666666" points="754,-196.5 573,-196.5 573,-166.5 754,-166.5 754,-196.5"/>
<text text-anchor="start" x="581" y="-184.5" font-family="Helvetica,sans-Serif" font-size="10.00">MayaFlux::Core::BufferProcessing</text>
<text text-anchor="middle" x="663.5" y="-173.5" font-family="Helvetica,sans-Serif" font-size="10.00">Handle::process</text>
</a>
</g>
</g>
<!-- Node3&#45;&gt;Node7 -->
<g id="edge6_Node000003_Node000007" class="edge">
<title>Node3&#45;&gt;Node7</title>
<g id="a_edge6_Node000003_Node000007"><a xlink:title=" ">
<path fill="none" stroke="#63b8ff" d="M537.03,-181.5C545.38,-181.5 554.02,-181.5 562.68,-181.5"/>
<polygon fill="#63b8ff" stroke="#63b8ff" points="562.84,-185 572.84,-181.5 562.84,-178 562.84,-185"/>
</a>
</g>
</g>
<!-- Node9 -->
<g id="Node000009" class="node">
<title>Node9</title>
<g id="a_Node000009"><a xlink:href="classMayaFlux_1_1Core_1_1TaskSchedulerHandle_ae8a8e2300b2064c3d22c6e9c5a1dd123.html#ae8a8e2300b2064c3d22c6e9c5a1dd123" target="_top" xlink:title="Process all tasks in token domain.">
<polygon fill="white" stroke="#666666" points="748,-148.5 579,-148.5 579,-118.5 748,-118.5 748,-148.5"/>
<text text-anchor="start" x="587" y="-136.5" font-family="Helvetica,sans-Serif" font-size="10.00">MayaFlux::Core::TaskScheduler</text>
<text text-anchor="middle" x="663.5" y="-125.5" font-family="Helvetica,sans-Serif" font-size="10.00">Handle::process</text>
</a>
</g>
</g>
<!-- Node3&#45;&gt;Node9 -->
<g id="edge8_Node000003_Node000009" class="edge">
<title>Node3&#45;&gt;Node9</title>
<g id="a_edge8_Node000003_Node000009"><a xlink:title=" ">
<path fill="none" stroke="#63b8ff" d="M528.32,-166.44C548.34,-161.53 570.73,-156.03 591.4,-150.96"/>
<polygon fill="#63b8ff" stroke="#63b8ff" points="592.52,-154.29 601.4,-148.5 590.85,-147.49 592.52,-154.29"/>
</a>
</g>
</g>
<!-- Node10 -->
<g id="Node000010" class="node">
<title>Node10</title>
<g id="a_Node000010"><a xlink:href="classMayaFlux_1_1Core_1_1GraphicsSubsystem_a4abeb27756b788566c82fd5f6b4c2603.html#a4abeb27756b788566c82fd5f6b4c2603" target="_top" xlink:title="Register markend windows from window manager for swapchain processing.">
<polygon fill="white" stroke="#666666" points="744.5,-100 582.5,-100 582.5,-59 744.5,-59 744.5,-100"/>
<text text-anchor="start" x="590.5" y="-88" font-family="Helvetica,sans-Serif" font-size="10.00">MayaFlux::Core::Graphics</text>
<text text-anchor="start" x="590.5" y="-77" font-family="Helvetica,sans-Serif" font-size="10.00">Subsystem::register_windows</text>
<text text-anchor="middle" x="663.5" y="-66" font-family="Helvetica,sans-Serif" font-size="10.00">_for_processing</text>
</a>
</g>
</g>
<!-- Node3&#45;&gt;Node10 -->
<g id="edge9_Node000003_Node000010" class="edge">
<title>Node3&#45;&gt;Node10</title>
<g id="a_edge9_Node000003_Node000010"><a xlink:title=" ">
<path fill="none" stroke="#63b8ff" d="M485.94,-166.27C506.42,-150.39 540.51,-125.6 573,-109.5 576.8,-107.62 580.75,-105.81 584.77,-104.08"/>
<polygon fill="#63b8ff" stroke="#63b8ff" points="586.34,-107.22 594.27,-100.19 583.69,-100.74 586.34,-107.22"/>
</a>
</g>
</g>
<!-- Node12 -->
<g id="Node000012" class="node">
<title>Node12</title>
<g id="a_Node000012"><a xlink:href="classMayaFlux_1_1Core_1_1GraphicsSubsystem_a6fdf5dfa50f9032ed8733328b2e97094.html#a6fdf5dfa50f9032ed8733328b2e97094" target="_top" xlink:title="Render all registered windows.">
<polygon fill="white" stroke="#666666" points="734.5,-41 592.5,-41 592.5,0 734.5,0 734.5,-41"/>
<text text-anchor="start" x="600.5" y="-29" font-family="Helvetica,sans-Serif" font-size="10.00">MayaFlux::Core::Graphics</text>
<text text-anchor="start" x="600.5" y="-18" font-family="Helvetica,sans-Serif" font-size="10.00">Subsystem::render_all</text>
<text text-anchor="middle" x="663.5" y="-7" font-family="Helvetica,sans-Serif" font-size="10.00">_windows</text>
</a>
</g>
</g>
<!-- Node3&#45;&gt;Node12 -->
<g id="edge11_Node000003_Node000012" class="edge">
<title>Node3&#45;&gt;Node12</title>
<g id="a_edge11_Node000003_Node000012"><a xlink:title=" ">
<path fill="none" stroke="#63b8ff" d="M475.09,-166.46C490.53,-139.16 526.79,-81.37 573,-49.5 576.24,-47.27 579.65,-45.2 583.19,-43.28"/>
<polygon fill="#63b8ff" stroke="#63b8ff" points="584.78,-46.4 592.19,-38.83 581.68,-40.13 584.78,-46.4"/>
</a>
</g>
</g>
<!-- Node8 -->
<g id="Node000008" class="node">
<title>Node8</title>
<g id="a_Node000008"><a xlink:href="classMayaFlux_1_1Core_1_1BufferProcessingHandle_afc0b5cf904eecf62523920f49fecff3d.html#afc0b5cf904eecf62523920f49fecff3d" target="_top" xlink:title=" ">
<polygon fill="white" stroke="#666666" points="971,-196.5 790,-196.5 790,-166.5 971,-166.5 971,-196.5"/>
<text text-anchor="start" x="798" y="-184.5" font-family="Helvetica,sans-Serif" font-size="10.00">MayaFlux::Core::BufferProcessing</text>
<text text-anchor="middle" x="880.5" y="-173.5" font-family="Helvetica,sans-Serif" font-size="10.00">Handle::ensure_valid</text>
</a>
</g>
</g>
<!-- Node7&#45;&gt;Node8 -->
<g id="edge7_Node000007_Node000008" class="edge">
<title>Node7&#45;&gt;Node8</title>
<g id="a_edge7_Node000007_Node000008"><a xlink:title=" ">
<path fill="none" stroke="#63b8ff" d="M754.12,-181.5C762.48,-181.5 770.98,-181.5 779.42,-181.5"/>
<polygon fill="#63b8ff" stroke="#63b8ff" points="779.68,-185 789.68,-181.5 779.68,-178 779.68,-185"/>
</a>
</g>
</g>
<!-- Node11 -->
<g id="Node000011" class="node">
<title>Node11</title>
<g id="a_Node000011"><a xlink:href="classMayaFlux_1_1Core_1_1WindowManagerHandle_ae63e157392390f419832c039578a54dd.html#ae63e157392390f419832c039578a54dd" target="_top" xlink:title="Get list of windows that are open and not minimized.">
<polygon fill="white" stroke="#666666" points="971,-94.5 790,-94.5 790,-64.5 971,-64.5 971,-94.5"/>
<text text-anchor="start" x="798" y="-82.5" font-family="Helvetica,sans-Serif" font-size="10.00">MayaFlux::Core::WindowManager</text>
<text text-anchor="middle" x="880.5" y="-71.5" font-family="Helvetica,sans-Serif" font-size="10.00">Handle::get_processing_windows</text>
</a>
</g>
</g>
<!-- Node10&#45;&gt;Node11 -->
<g id="edge10_Node000010_Node000011" class="edge">
<title>Node10&#45;&gt;Node11</title>
<g id="a_edge10_Node000010_Node000011"><a xlink:title=" ">
<path fill="none" stroke="#63b8ff" d="M744.56,-79.5C756.01,-79.5 767.9,-79.5 779.68,-79.5"/>
<polygon fill="#63b8ff" stroke="#63b8ff" points="779.97,-83 789.97,-79.5 779.97,-76 779.97,-83"/>
</a>
</g>
</g>
</g>
</svg>

<g id="navigator" transform="translate(0 0)" fill="#404254">
  <rect fill="#f2f5e9" fill-opacity="0.5" stroke="#606060" stroke-width=".5" x="0" y="0" width="60" height="60"/>
  <use id="zoomplus" xlink:href="#zoomPlus" x="17" y="9" onmousedown="handleZoom(evt,'in')"/>
  <use id="zoomminus" xlink:href="#zoomMin" x="42" y="9" onmousedown="handleZoom(evt,'out')"/>
  <use id="reset" xlink:href="#resetDef" x="30" y="36" onmousedown="handleReset()"/>
   <use id="arrowup" xlink:href="#arrowUp" x="0" y="0" onmousedown="handlePan(0,-1)"/>
  <use id="arrowright" xlink:href="#arrowRight" x="0" y="0" onmousedown="handlePan(1,0)"/>
  <use id="arrowdown" xlink:href="#arrowDown" x="0" y="0" onmousedown="handlePan(0,1)"/>
  <use id="arrowleft" xlink:href="#arrowLeft" x="0" y="0" onmousedown="handlePan(-1,0)"/>
</g>
<svg viewBox="0 0 15 15" width="100%" height="30px" preserveAspectRatio="xMaxYMin meet">
 <g id="arrow_out" transform="scale(0.3 0.3)">
  <a xlink:href="classMayaFlux_1_1Core_1_1GraphicsSubsystem_a34118595a38cba09a09a08824f4d0283_a34118595a38cba09a09a08824f4d0283_cgraph_org.svg" target="_base">
   <rect id="button" ry="5" rx="5" y="6" x="6" height="38" width="38"
        fill="#f2f5e9" fill-opacity="0.5" stroke="#606060" stroke-width="1.0"/>
   <path id="arrow"
     d="M 11.500037,31.436501 C 11.940474,20.09759 22.043105,11.32322 32.158766,21.979434 L 37.068811,17.246167 C 37.068811,17.246167 37.088388,32 37.088388,32 L 22.160133,31.978069 C 22.160133,31.978069 26.997745,27.140456 26.997745,27.140456 C 18.528582,18.264221 13.291696,25.230495 11.500037,31.436501 z"
     style="fill:#404040;"/>
  </a>
 </g>
</svg>

<style type='text/css'>
<![CDATA[
[data-mouse-over-selected='false'] { opacity: 0.7; }
[data-mouse-over-selected='true']  { opacity: 1.0; }
]]>
</style>
<script type="application/ecmascript"><![CDATA[
document.addEventListener('DOMContentLoaded', (event) => {
  highlightEdges();
  highlightAdjacentNodes();
});
]]></script>
</svg>
