<?xml version="1.0" encoding="UTF-8" standalone="no"?>
<!DOCTYPE svg PUBLIC "-//W3C//DTD SVG 1.1//EN"
 "http://www.w3.org/Graphics/SVG/1.1/DTD/svg11.dtd">
<!-- Generated by graphviz version 2.43.0 (0)
 -->
<!-- Title: MayaFlux::Nodes::Network::MeshFieldOperator Pages: 1 -->
<svg width="151pt" height="590pt"
 viewBox="0.00 0.00 151.00 590.00" xmlns="http://www.w3.org/2000/svg" xmlns:xlink="http://www.w3.org/1999/xlink">
<g id="graph0" class="graph" transform="scale(1 1) rotate(0) translate(4 586)">
<title>MayaFlux::Nodes::Network::MeshFieldOperator</title>
<!-- Node1 -->
<g id="Node000001" class="node">
<title>Node1</title>
<g id="a_Node000001"><a xlink:title="Chain operator that applies Tendency field deformation to the vertex data of individual MeshNetwork s...">
<polygon fill="#999999" stroke="transparent" points="143,-225 0,-225 0,0 143,0 143,-225"/>
<text text-anchor="start" x="5.5" y="-212.5" font-family="Helvetica,sans-Serif" font-size="10.00">MayaFlux::Nodes::Network</text>
<text text-anchor="start" x="22.5" y="-201.5" font-family="Helvetica,sans-Serif" font-size="10.00">::MeshFieldOperator</text>
<text text-anchor="start" x="10" y="-186.5" font-family="Helvetica,sans-Serif" font-size="10.00">&#45;</text>
<text text-anchor="start" x="23.5" y="-186.5" font-family="Helvetica,sans-Serif" font-size="10.00">m_field_ops</text>
<text text-anchor="start" x="7.5" y="-171.5" font-family="Helvetica,sans-Serif" font-size="10.00">+</text>
<text text-anchor="start" x="23.5" y="-171.5" font-family="Helvetica,sans-Serif" font-size="10.00">bind()</text>
<text text-anchor="start" x="7.5" y="-156.5" font-family="Helvetica,sans-Serif" font-size="10.00">+</text>
<text text-anchor="start" x="23.5" y="-156.5" font-family="Helvetica,sans-Serif" font-size="10.00">bind()</text>
<text text-anchor="start" x="7.5" y="-141.5" font-family="Helvetica,sans-Serif" font-size="10.00">+</text>
<text text-anchor="start" x="23.5" y="-141.5" font-family="Helvetica,sans-Serif" font-size="10.00">bind()</text>
<text text-anchor="start" x="7.5" y="-126.5" font-family="Helvetica,sans-Serif" font-size="10.00">+</text>
<text text-anchor="start" x="23.5" y="-126.5" font-family="Helvetica,sans-Serif" font-size="10.00">get_type_name()</text>
<text text-anchor="start" x="7.5" y="-111.5" font-family="Helvetica,sans-Serif" font-size="10.00">+</text>
<text text-anchor="start" x="23.5" y="-111.5" font-family="Helvetica,sans-Serif" font-size="10.00">MeshFieldOperator()</text>
<text text-anchor="start" x="7.5" y="-96.5" font-family="Helvetica,sans-Serif" font-size="10.00">+</text>
<text text-anchor="start" x="23.5" y="-96.5" font-family="Helvetica,sans-Serif" font-size="10.00">process_slot()</text>
<text text-anchor="start" x="7.5" y="-81.5" font-family="Helvetica,sans-Serif" font-size="10.00">+</text>
<text text-anchor="start" x="23.5" y="-81.5" font-family="Helvetica,sans-Serif" font-size="10.00">set_mode()</text>
<text text-anchor="start" x="7.5" y="-66.5" font-family="Helvetica,sans-Serif" font-size="10.00">+</text>
<text text-anchor="start" x="23.5" y="-66.5" font-family="Helvetica,sans-Serif" font-size="10.00">unbind()</text>
<text text-anchor="start" x="7.5" y="-51.5" font-family="Helvetica,sans-Serif" font-size="10.00">+</text>
<text text-anchor="start" x="23.5" y="-51.5" font-family="Helvetica,sans-Serif" font-size="10.00">unbind_all()</text>
<text text-anchor="start" x="7.5" y="-36.5" font-family="Helvetica,sans-Serif" font-size="10.00">+</text>
<text text-anchor="start" x="23.5" y="-36.5" font-family="Helvetica,sans-Serif" font-size="10.00">unbind_slot()</text>
<text text-anchor="start" x="7.5" y="-21.5" font-family="Helvetica,sans-Serif" font-size="10.00">+</text>
<text text-anchor="start" x="23.5" y="-21.5" font-family="Helvetica,sans-Serif" font-size="10.00">~MeshFieldOperator()</text>
<text text-anchor="start" x="10" y="-6.5" font-family="Helvetica,sans-Serif" font-size="10.00">&#45;</text>
<text text-anchor="start" x="23.5" y="-6.5" font-family="Helvetica,sans-Serif" font-size="10.00">get_or_create()</text>
<polygon fill="#666666" stroke="#666666" points="0.5,-196.5 0.5,-196.5 143.5,-196.5 143.5,-196.5 0.5,-196.5"/>
<polygon fill="#666666" stroke="#666666" points="0.5,-181.5 0.5,-181.5 21.5,-181.5 21.5,-181.5 0.5,-181.5"/>
<polygon fill="#666666" stroke="#666666" points="21.5,-181.5 21.5,-181.5 143.5,-181.5 143.5,-181.5 21.5,-181.5"/>
<polygon fill="none" stroke="#666666" points="0,0 0,-225 143,-225 143,0 0,0"/>
</a>
</g>
</g>
<!-- Node2 -->
<g id="Node000002" class="node">
<title>Node2</title>
<g id="a_Node000002"><a xlink:href="classMayaFlux_1_1Nodes_1_1Network_1_1MeshOperator.html" target="_top" xlink:title="Abstract base for operators that process MeshNetwork slots.">
<polygon fill="white" stroke="transparent" points="143,-411 0,-411 0,-261 143,-261 143,-411"/>
<text text-anchor="start" x="5.5" y="-399" font-family="Helvetica,sans-Serif" font-size="10.00">MayaFlux::Nodes::Network</text>
<text text-anchor="start" x="34" y="-388" font-family="Helvetica,sans-Serif" font-size="10.00">::MeshOperator</text>
<text text-anchor="start" x="13.5" y="-373" font-family="Helvetica,sans-Serif" font-size="10.00">#</text>
<text text-anchor="start" x="35.5" y="-373" font-family="Helvetica,sans-Serif" font-size="10.00">m_order</text>
<text text-anchor="start" x="13.5" y="-358" font-family="Helvetica,sans-Serif" font-size="10.00">#</text>
<text text-anchor="start" x="35.5" y="-358" font-family="Helvetica,sans-Serif" font-size="10.00">m_slots</text>
<text text-anchor="start" x="13.5" y="-343" font-family="Helvetica,sans-Serif" font-size="10.00">+</text>
<text text-anchor="start" x="35.5" y="-343" font-family="Helvetica,sans-Serif" font-size="10.00">process()</text>
<text text-anchor="start" x="13.5" y="-328" font-family="Helvetica,sans-Serif" font-size="10.00">+</text>
<text text-anchor="start" x="35.5" y="-328" font-family="Helvetica,sans-Serif" font-size="10.00">process_slot()</text>
<text text-anchor="start" x="13.5" y="-313" font-family="Helvetica,sans-Serif" font-size="10.00">+</text>
<text text-anchor="start" x="35.5" y="-313" font-family="Helvetica,sans-Serif" font-size="10.00">query_state()</text>
<text text-anchor="start" x="13.5" y="-298" font-family="Helvetica,sans-Serif" font-size="10.00">+</text>
<text text-anchor="start" x="35.5" y="-298" font-family="Helvetica,sans-Serif" font-size="10.00">set_parameter()</text>
<text text-anchor="start" x="13.5" y="-283" font-family="Helvetica,sans-Serif" font-size="10.00">+</text>
<text text-anchor="start" x="35.5" y="-283" font-family="Helvetica,sans-Serif" font-size="10.00">set_slots()</text>
<text text-anchor="start" x="13.5" y="-268" font-family="Helvetica,sans-Serif" font-size="10.00">+</text>
<text text-anchor="start" x="35.5" y="-268" font-family="Helvetica,sans-Serif" font-size="10.00">~MeshOperator()</text>
<polygon fill="#666666" stroke="#666666" points="0.5,-383 0.5,-383 143.5,-383 143.5,-383 0.5,-383"/>
<polygon fill="#666666" stroke="#666666" points="0.5,-353 0.5,-353 33.5,-353 33.5,-353 0.5,-353"/>
<polygon fill="#666666" stroke="#666666" points="33.5,-353 33.5,-353 143.5,-353 143.5,-353 33.5,-353"/>
<polygon fill="none" stroke="#666666" points="0,-261 0,-411 143,-411 143,-261 0,-261"/>
</a>
</g>
</g>
<!-- Node2&#45;&gt;Node1 -->
<g id="edge1_Node000001_Node000002" class="edge">
<title>Node2&#45;&gt;Node1</title>
<g id="a_edge1_Node000001_Node000002"><a xlink:title=" ">
<path fill="none" stroke="#63b8ff" d="M71.5,-250.77C71.5,-242.33 71.5,-233.67 71.5,-225.01"/>
<polygon fill="none" stroke="#63b8ff" points="68,-250.94 71.5,-260.94 75,-250.94 68,-250.94"/>
</a>
</g>
</g>
<!-- Node3 -->
<g id="Node000003" class="node">
<title>Node3</title>
<g id="a_Node000003"><a xlink:href="classMayaFlux_1_1Nodes_1_1Network_1_1NetworkOperator.html" target="_top" xlink:title="Domain&#45;agnostic interpretive lens for network processing.">
<polygon fill="white" stroke="transparent" points="143,-582 0,-582 0,-447 143,-447 143,-582"/>
<text text-anchor="start" x="5.5" y="-569.5" font-family="Helvetica,sans-Serif" font-size="10.00">MayaFlux::Nodes::Network</text>
<text text-anchor="start" x="26.5" y="-558.5" font-family="Helvetica,sans-Serif" font-size="10.00">::NetworkOperator</text>
<text text-anchor="start" x="70" y="-543.5" font-family="Helvetica,sans-Serif" font-size="10.00"> </text>
<text text-anchor="start" x="10" y="-528.5" font-family="Helvetica,sans-Serif" font-size="10.00">+</text>
<text text-anchor="start" x="28.5" y="-528.5" font-family="Helvetica,sans-Serif" font-size="10.00">apply_one_to_one()</text>
<text text-anchor="start" x="10" y="-513.5" font-family="Helvetica,sans-Serif" font-size="10.00">+</text>
<text text-anchor="start" x="28.5" y="-513.5" font-family="Helvetica,sans-Serif" font-size="10.00">get_type_name()</text>
<text text-anchor="start" x="10" y="-498.5" font-family="Helvetica,sans-Serif" font-size="10.00">+</text>
<text text-anchor="start" x="28.5" y="-498.5" font-family="Helvetica,sans-Serif" font-size="10.00">process()</text>
<text text-anchor="start" x="10" y="-483.5" font-family="Helvetica,sans-Serif" font-size="10.00">+</text>
<text text-anchor="start" x="28.5" y="-483.5" font-family="Helvetica,sans-Serif" font-size="10.00">query_state()</text>
<text text-anchor="start" x="10" y="-468.5" font-family="Helvetica,sans-Serif" font-size="10.00">+</text>
<text text-anchor="start" x="28.5" y="-468.5" font-family="Helvetica,sans-Serif" font-size="10.00">set_parameter()</text>
<text text-anchor="start" x="10" y="-453.5" font-family="Helvetica,sans-Serif" font-size="10.00">+</text>
<text text-anchor="start" x="28.5" y="-453.5" font-family="Helvetica,sans-Serif" font-size="10.00">~NetworkOperator()</text>
<polygon fill="#666666" stroke="#666666" points="0.5,-553.5 0.5,-553.5 143.5,-553.5 143.5,-553.5 0.5,-553.5"/>
<polygon fill="#666666" stroke="#666666" points="0.5,-538.5 0.5,-538.5 143.5,-538.5 143.5,-538.5 0.5,-538.5"/>
<polygon fill="none" stroke="#666666" points="0,-447 0,-582 143,-582 143,-447 0,-447"/>
</a>
</g>
</g>
<!-- Node3&#45;&gt;Node2 -->
<g id="edge2_Node000002_Node000003" class="edge">
<title>Node3&#45;&gt;Node2</title>
<g id="a_edge2_Node000002_Node000003"><a xlink:title=" ">
<path fill="none" stroke="#63b8ff" d="M71.5,-436.59C71.5,-428.16 71.5,-419.6 71.5,-411.21"/>
<polygon fill="none" stroke="#63b8ff" points="68,-436.77 71.5,-446.77 75,-436.77 68,-436.77"/>
</a>
</g>
</g>
</g>
</svg>
