<?xml version="1.0" encoding="UTF-8" standalone="no"?>
<!DOCTYPE svg PUBLIC "-//W3C//DTD SVG 1.1//EN"
 "http://www.w3.org/Graphics/SVG/1.1/DTD/svg11.dtd">
<!-- Generated by graphviz version 2.43.0 (0)
 -->
<!-- Title: MayaFlux::Nodes::Filters::Filter::setBCoefficients Pages: 1 -->
<svg width="526pt" height="98pt"
 viewBox="0.00 0.00 526.00 97.50" xmlns="http://www.w3.org/2000/svg" xmlns:xlink="http://www.w3.org/1999/xlink">
<g id="graph0" class="graph" transform="scale(1 1) rotate(0) translate(4 93.5)">
<title>MayaFlux::Nodes::Filters::Filter::setBCoefficients</title>
<!-- Node1 -->
<g id="Node000001" class="node">
<title>Node1</title>
<g id="a_Node000001"><a xlink:title="Updates the feedforward (numerator) coefficients.">
<polygon fill="#999999" stroke="#666666" points="518,-62.5 381,-62.5 381,-32.5 518,-32.5 518,-62.5"/>
<text text-anchor="start" x="389" y="-50.5" font-family="Helvetica,sans-Serif" font-size="10.00">MayaFlux::Nodes::Filters</text>
<text text-anchor="middle" x="449.5" y="-39.5" font-family="Helvetica,sans-Serif" font-size="10.00">::Filter::setBCoefficients</text>
</a>
</g>
</g>
<!-- Node2 -->
<g id="Node000002" class="node">
<title>Node2</title>
<g id="a_Node000002"><a xlink:href="classMayaFlux_1_1Nodes_1_1Filters_1_1Filter_a8cd162f87760b9a64c48121254f8bc3a.html#a8cd162f87760b9a64c48121254f8bc3a" target="_top" xlink:title="Updates filter coefficients.">
<polygon fill="white" stroke="#666666" points="345,-62.5 208,-62.5 208,-32.5 345,-32.5 345,-62.5"/>
<text text-anchor="start" x="216" y="-50.5" font-family="Helvetica,sans-Serif" font-size="10.00">MayaFlux::Nodes::Filters</text>
<text text-anchor="middle" x="276.5" y="-39.5" font-family="Helvetica,sans-Serif" font-size="10.00">::Filter::set_coefs</text>
</a>
</g>
</g>
<!-- Node1&#45;&gt;Node2 -->
<g id="edge1_Node000001_Node000002" class="edge">
<title>Node1&#45;&gt;Node2</title>
<g id="a_edge1_Node000001_Node000002"><a xlink:title=" ">
<path fill="none" stroke="#63b8ff" d="M370.9,-47.5C362.31,-47.5 353.61,-47.5 345.15,-47.5"/>
<polygon fill="#63b8ff" stroke="#63b8ff" points="370.92,-51 380.92,-47.5 370.92,-44 370.92,-51"/>
</a>
</g>
</g>
<!-- Node3 -->
<g id="Node000003" class="node">
<title>Node3</title>
<g id="a_Node000003"><a xlink:href="classMayaFlux_1_1Nodes_1_1Filters_1_1Filter_a7d07e8bc8e8878e350dacf49920245ee.html#a7d07e8bc8e8878e350dacf49920245ee" target="_top" xlink:title="Updates coefficients from the filter&#39;s own input.">
<polygon fill="white" stroke="#666666" points="172,-89.5 0,-89.5 0,-59.5 172,-59.5 172,-89.5"/>
<text text-anchor="start" x="8" y="-77.5" font-family="Helvetica,sans-Serif" font-size="10.00">MayaFlux::Nodes::Filters</text>
<text text-anchor="middle" x="86" y="-66.5" font-family="Helvetica,sans-Serif" font-size="10.00">::Filter::update_coef_from_input</text>
</a>
</g>
</g>
<!-- Node2&#45;&gt;Node3 -->
<g id="edge2_Node000002_Node000003" class="edge">
<title>Node2&#45;&gt;Node3</title>
<g id="a_edge2_Node000002_Node000003"><a xlink:title=" ">
<path fill="none" stroke="#63b8ff" d="M198.05,-58.59C189.51,-59.82 180.77,-61.07 172.14,-62.31"/>
<polygon fill="#63b8ff" stroke="#63b8ff" points="198.58,-62.05 207.98,-57.17 197.58,-55.12 198.58,-62.05"/>
</a>
</g>
</g>
<!-- Node4 -->
<g id="Node000004" class="node">
<title>Node4</title>
<g id="a_Node000004"><a xlink:href="classMayaFlux_1_1Nodes_1_1Filters_1_1Filter_ac1c4cbbfac734333d4c0c675c41be306.html#ac1c4cbbfac734333d4c0c675c41be306" target="_top" xlink:title="Updates coefficients from another node&#39;s output.">
<polygon fill="white" stroke="#666666" points="154.5,-41 17.5,-41 17.5,0 154.5,0 154.5,-41"/>
<text text-anchor="start" x="25.5" y="-29" font-family="Helvetica,sans-Serif" font-size="10.00">MayaFlux::Nodes::Filters</text>
<text text-anchor="start" x="25.5" y="-18" font-family="Helvetica,sans-Serif" font-size="10.00">::Filter::update_coefs</text>
<text text-anchor="middle" x="86" y="-7" font-family="Helvetica,sans-Serif" font-size="10.00">_from_node</text>
</a>
</g>
</g>
<!-- Node2&#45;&gt;Node4 -->
<g id="edge3_Node000002_Node000004" class="edge">
<title>Node2&#45;&gt;Node4</title>
<g id="a_edge3_Node000002_Node000004"><a xlink:title=" ">
<path fill="none" stroke="#63b8ff" d="M197.7,-36.36C183.42,-34.31 168.63,-32.19 154.68,-30.19"/>
<polygon fill="#63b8ff" stroke="#63b8ff" points="197.58,-39.88 207.98,-37.83 198.58,-32.95 197.58,-39.88"/>
</a>
</g>
</g>
</g>
</svg>
