<?xml version="1.0" encoding="UTF-8" standalone="no"?>
<!DOCTYPE svg PUBLIC "-//W3C//DTD SVG 1.1//EN"
 "http://www.w3.org/Graphics/SVG/1.1/DTD/svg11.dtd">
<!-- Generated by graphviz version 2.43.0 (0)
 -->
<!-- Title: MayaFlux::Portal::Graphics::ShaderFoundry::get_vk_shader_module Pages: 1 -->
<svg width="603pt" height="86pt"
 viewBox="0.00 0.00 603.00 86.00" xmlns="http://www.w3.org/2000/svg" xmlns:xlink="http://www.w3.org/1999/xlink">
<g id="graph0" class="graph" transform="scale(1 1) rotate(0) translate(4 82)">
<title>MayaFlux::Portal::Graphics::ShaderFoundry::get_vk_shader_module</title>
<!-- Node1 -->
<g id="Node000001" class="node">
<title>Node1</title>
<g id="a_Node000001"><a xlink:title=" ">
<polygon fill="#999999" stroke="#666666" points="595,-59.5 447,-59.5 447,-18.5 595,-18.5 595,-59.5"/>
<text text-anchor="start" x="455" y="-47.5" font-family="Helvetica,sans-Serif" font-size="10.00">MayaFlux::Portal::Graphics</text>
<text text-anchor="start" x="455" y="-36.5" font-family="Helvetica,sans-Serif" font-size="10.00">::ShaderFoundry::get_vk</text>
<text text-anchor="middle" x="521" y="-25.5" font-family="Helvetica,sans-Serif" font-size="10.00">_shader_module</text>
</a>
</g>
</g>
<!-- Node2 -->
<g id="Node000002" class="node">
<title>Node2</title>
<g id="a_Node000002"><a xlink:href="classMayaFlux_1_1Portal_1_1Graphics_1_1RenderFlow_ae9388c1a899276d6d021dcbff1326eea.html#ae9388c1a899276d6d021dcbff1326eea" target="_top" xlink:title="Create graphics pipeline for dynamic rendering (no render pass object)">
<polygon fill="white" stroke="#666666" points="404.5,-78 243.5,-78 243.5,-48 404.5,-48 404.5,-78"/>
<text text-anchor="start" x="251.5" y="-66" font-family="Helvetica,sans-Serif" font-size="10.00">MayaFlux::Portal::Graphics</text>
<text text-anchor="middle" x="324" y="-55" font-family="Helvetica,sans-Serif" font-size="10.00">::RenderFlow::create_pipeline</text>
</a>
</g>
</g>
<!-- Node1&#45;&gt;Node2 -->
<g id="edge1_Node000001_Node000002" class="edge">
<title>Node1&#45;&gt;Node2</title>
<g id="a_edge1_Node000001_Node000002"><a xlink:title=" ">
<path fill="none" stroke="#63b8ff" d="M436.76,-49.25C426.16,-50.55 415.33,-51.88 404.78,-53.18"/>
<polygon fill="#63b8ff" stroke="#63b8ff" points="437.34,-52.7 446.83,-48 436.48,-45.75 437.34,-52.7"/>
</a>
</g>
</g>
<!-- Node3 -->
<g id="Node000003" class="node">
<title>Node3</title>
<g id="a_Node000003"><a xlink:href="classMayaFlux_1_1Portal_1_1Graphics_1_1ComputePress_a92da11722411d5f02bed2ba7dcf02278.html#a92da11722411d5f02bed2ba7dcf02278" target="_top" xlink:title="Create compute pipeline.">
<polygon fill="white" stroke="#666666" points="411,-30 237,-30 237,0 411,0 411,-30"/>
<text text-anchor="start" x="245" y="-18" font-family="Helvetica,sans-Serif" font-size="10.00">MayaFlux::Portal::Graphics</text>
<text text-anchor="middle" x="324" y="-7" font-family="Helvetica,sans-Serif" font-size="10.00">::ComputePress::create_pipeline</text>
</a>
</g>
</g>
<!-- Node1&#45;&gt;Node3 -->
<g id="edge2_Node000001_Node000003" class="edge">
<title>Node1&#45;&gt;Node3</title>
<g id="a_edge2_Node000001_Node000003"><a xlink:title=" ">
<path fill="none" stroke="#63b8ff" d="M436.88,-28.77C428.34,-27.72 419.64,-26.65 411.06,-25.59"/>
<polygon fill="#63b8ff" stroke="#63b8ff" points="436.48,-32.25 446.83,-30 437.34,-25.3 436.48,-32.25"/>
</a>
</g>
</g>
<!-- Node4 -->
<g id="Node000004" class="node">
<title>Node4</title>
<g id="a_Node000004"><a xlink:href="classMayaFlux_1_1Portal_1_1Graphics_1_1ComputePress_ad0f8d812bde066c3f0a74005057322ad.html#ad0f8d812bde066c3f0a74005057322ad" target="_top" xlink:title="Create pipeline with auto&#45;reflection.">
<polygon fill="white" stroke="#666666" points="201,-30 0,-30 0,0 201,0 201,-30"/>
<text text-anchor="start" x="8" y="-18" font-family="Helvetica,sans-Serif" font-size="10.00">MayaFlux::Portal::Graphics</text>
<text text-anchor="middle" x="100.5" y="-7" font-family="Helvetica,sans-Serif" font-size="10.00">::ComputePress::create_pipeline_auto</text>
</a>
</g>
</g>
<!-- Node3&#45;&gt;Node4 -->
<g id="edge3_Node000003_Node000004" class="edge">
<title>Node3&#45;&gt;Node4</title>
<g id="a_edge3_Node000003_Node000004"><a xlink:title=" ">
<path fill="none" stroke="#63b8ff" d="M226.53,-15C218.12,-15 209.59,-15 201.15,-15"/>
<polygon fill="#63b8ff" stroke="#63b8ff" points="226.73,-18.5 236.73,-15 226.73,-11.5 226.73,-18.5"/>
</a>
</g>
</g>
</g>
</svg>
