<?xml version="1.0" encoding="UTF-8" standalone="no"?>
<!DOCTYPE svg PUBLIC "-//W3C//DTD SVG 1.1//EN"
 "http://www.w3.org/Graphics/SVG/1.1/DTD/svg11.dtd">
<!-- Generated by graphviz version 2.43.0 (0)
 -->
<!-- Title: MayaFlux::Yantra::StandardSorter::sort_parallel Pages: 1 -->
<svg width="889pt" height="206pt"
 viewBox="0.00 0.00 889.00 206.00" xmlns="http://www.w3.org/2000/svg" xmlns:xlink="http://www.w3.org/1999/xlink">
<g id="graph0" class="graph" transform="scale(1 1) rotate(0) translate(4 202)">
<title>MayaFlux::Yantra::StandardSorter::sort_parallel</title>
<!-- Node1 -->
<g id="Node000001" class="node">
<title>Node1</title>
<g id="a_Node000001"><a xlink:title="Parallel sorting.">
<polygon fill="#999999" stroke="#666666" points="150,-126 0,-126 0,-96 150,-96 150,-126"/>
<text text-anchor="start" x="8" y="-114" font-family="Helvetica,sans-Serif" font-size="10.00">MayaFlux::Yantra::Standard</text>
<text text-anchor="middle" x="75" y="-103" font-family="Helvetica,sans-Serif" font-size="10.00">Sorter::sort_parallel</text>
</a>
</g>
</g>
<!-- Node2 -->
<g id="Node000002" class="node">
<title>Node2</title>
<g id="a_Node000002"><a xlink:href="classMayaFlux_1_1Yantra_1_1StandardSorter_ab0cab009ecf55edb7831341dfafb4dbd.html#ab0cab009ecf55edb7831341dfafb4dbd" target="_top" xlink:title="Copy&#45;based sorting (preserves input)">
<polygon fill="white" stroke="#666666" points="336,-126 186,-126 186,-96 336,-96 336,-126"/>
<text text-anchor="start" x="194" y="-114" font-family="Helvetica,sans-Serif" font-size="10.00">MayaFlux::Yantra::Standard</text>
<text text-anchor="middle" x="261" y="-103" font-family="Helvetica,sans-Serif" font-size="10.00">Sorter::sort_copy</text>
</a>
</g>
</g>
<!-- Node1&#45;&gt;Node2 -->
<g id="edge1_Node000001_Node000002" class="edge">
<title>Node1&#45;&gt;Node2</title>
<g id="a_edge1_Node000001_Node000002"><a xlink:title=" ">
<path fill="none" stroke="#63b8ff" d="M150.04,-111C158.51,-111 167.19,-111 175.78,-111"/>
<polygon fill="#63b8ff" stroke="#63b8ff" points="175.81,-114.5 185.81,-111 175.81,-107.5 175.81,-114.5"/>
</a>
</g>
</g>
<!-- Node3 -->
<g id="Node000003" class="node">
<title>Node3</title>
<g id="a_Node000003"><a xlink:href="classMayaFlux_1_1Yantra_1_1ComputeOperation_ac364bad27ce3e4d35add89333c9a24b8.html#ac364bad27ce3e4d35add89333c9a24b8" target="_top" xlink:title="Convert processed double data back to OutputType using metadata and optional callback.">
<polygon fill="white" stroke="#666666" points="531,-198 380,-198 380,-168 531,-168 531,-198"/>
<text text-anchor="start" x="388" y="-186" font-family="Helvetica,sans-Serif" font-size="10.00">MayaFlux::Yantra::Compute</text>
<text text-anchor="middle" x="455.5" y="-175" font-family="Helvetica,sans-Serif" font-size="10.00">Operation::convert_result</text>
</a>
</g>
</g>
<!-- Node2&#45;&gt;Node3 -->
<g id="edge2_Node000002_Node000003" class="edge">
<title>Node2&#45;&gt;Node3</title>
<g id="a_edge2_Node000002_Node000003"><a xlink:title=" ">
<path fill="none" stroke="#63b8ff" d="M293.81,-126.18C315.54,-136.22 345.16,-149.28 372,-159 377.57,-161.02 383.4,-162.98 389.27,-164.87"/>
<polygon fill="#63b8ff" stroke="#63b8ff" points="388.57,-168.32 399.16,-167.96 390.66,-161.64 388.57,-168.32"/>
</a>
</g>
</g>
<!-- Node4 -->
<g id="Node000004" class="node">
<title>Node4</title>
<g id="a_Node000004"><a xlink:href="classMayaFlux_1_1Yantra_1_1UniversalSorter_ad0c240a1fcea4c743508eb14c938b30d.html#ad0c240a1fcea4c743508eb14c938b30d" target="_top" xlink:title=" ">
<polygon fill="white" stroke="#666666" points="532,-150 379,-150 379,-120 532,-120 532,-150"/>
<text text-anchor="start" x="387" y="-138" font-family="Helvetica,sans-Serif" font-size="10.00">MayaFlux::Yantra::Universal</text>
<text text-anchor="middle" x="455.5" y="-127" font-family="Helvetica,sans-Serif" font-size="10.00">Sorter::get_direction</text>
</a>
</g>
</g>
<!-- Node2&#45;&gt;Node4 -->
<g id="edge3_Node000002_Node000004" class="edge">
<title>Node2&#45;&gt;Node4</title>
<g id="a_edge3_Node000002_Node000004"><a xlink:title=" ">
<path fill="none" stroke="#63b8ff" d="M336.15,-120.24C346.85,-121.58 357.94,-122.96 368.85,-124.32"/>
<polygon fill="#63b8ff" stroke="#63b8ff" points="368.44,-127.8 378.8,-125.56 369.31,-120.85 368.44,-127.8"/>
</a>
</g>
</g>
<!-- Node5 -->
<g id="Node000005" class="node">
<title>Node5</title>
<g id="a_Node000005"><a xlink:href="classMayaFlux_1_1Yantra_1_1OperationHelper_ab87e318fc808c4e06d895135af6097e2.html#ab87e318fc808c4e06d895135af6097e2" target="_top" xlink:title="Setup operation buffer from Datum or ComputeData type.">
<polygon fill="white" stroke="#666666" points="539,-102 372,-102 372,-72 539,-72 539,-102"/>
<text text-anchor="start" x="380" y="-90" font-family="Helvetica,sans-Serif" font-size="10.00">MayaFlux::Yantra::Operation</text>
<text text-anchor="middle" x="455.5" y="-79" font-family="Helvetica,sans-Serif" font-size="10.00">Helper::setup_operation_buffer</text>
</a>
</g>
</g>
<!-- Node2&#45;&gt;Node5 -->
<g id="edge4_Node000002_Node000005" class="edge">
<title>Node2&#45;&gt;Node5</title>
<g id="a_edge4_Node000002_Node000005"><a xlink:title=" ">
<path fill="none" stroke="#63b8ff" d="M336.15,-101.76C344.52,-100.71 353.13,-99.64 361.71,-98.57"/>
<polygon fill="#63b8ff" stroke="#63b8ff" points="362.25,-102.03 371.74,-97.32 361.38,-95.08 362.25,-102.03"/>
</a>
</g>
</g>
<!-- Node6 -->
<g id="Node000006" class="node">
<title>Node6</title>
<g id="a_Node000006"><a xlink:href="namespaceMayaFlux_1_1Kinesis_1_1Discrete_ac7f402db2f5f9039a9ccbb276a39d30a.html#ac7f402db2f5f9039a9ccbb276a39d30a" target="_top" xlink:title="Sort all channels in&#45;place.">
<polygon fill="white" stroke="#666666" points="521,-54 390,-54 390,-24 521,-24 521,-54"/>
<text text-anchor="start" x="398" y="-42" font-family="Helvetica,sans-Serif" font-size="10.00">MayaFlux::Kinesis::</text>
<text text-anchor="middle" x="455.5" y="-31" font-family="Helvetica,sans-Serif" font-size="10.00">Discrete::sort_channels</text>
</a>
</g>
</g>
<!-- Node2&#45;&gt;Node6 -->
<g id="edge5_Node000002_Node000006" class="edge">
<title>Node2&#45;&gt;Node6</title>
<g id="a_edge5_Node000002_Node000006"><a xlink:title=" ">
<path fill="none" stroke="#63b8ff" d="M293.81,-95.82C315.54,-85.78 345.16,-72.72 372,-63 377.57,-60.98 383.4,-59.02 389.27,-57.13"/>
<polygon fill="#63b8ff" stroke="#63b8ff" points="390.66,-60.36 399.16,-54.04 388.57,-53.68 390.66,-60.36"/>
</a>
</g>
</g>
<!-- Node7 -->
<g id="Node000007" class="node">
<title>Node7</title>
<g id="a_Node000007"><a xlink:href="namespaceMayaFlux_1_1Kinesis_1_1Discrete_a9349c772343fcafbd79eeedb913199ae.html#a9349c772343fcafbd79eeedb913199ae" target="_top" xlink:title="Sort a single span in&#45;place.">
<polygon fill="white" stroke="#666666" points="687,-54 575,-54 575,-24 687,-24 687,-54"/>
<text text-anchor="start" x="583" y="-42" font-family="Helvetica,sans-Serif" font-size="10.00">MayaFlux::Kinesis::</text>
<text text-anchor="middle" x="631" y="-31" font-family="Helvetica,sans-Serif" font-size="10.00">Discrete::sort_span</text>
</a>
</g>
</g>
<!-- Node6&#45;&gt;Node7 -->
<g id="edge6_Node000006_Node000007" class="edge">
<title>Node6&#45;&gt;Node7</title>
<g id="a_edge6_Node000006_Node000007"><a xlink:title=" ">
<path fill="none" stroke="#63b8ff" d="M521.1,-39C535.29,-39 550.33,-39 564.55,-39"/>
<polygon fill="#63b8ff" stroke="#63b8ff" points="564.73,-42.5 574.73,-39 564.73,-35.5 564.73,-42.5"/>
</a>
</g>
</g>
<!-- Node8 -->
<g id="Node000008" class="node">
<title>Node8</title>
<g id="a_Node000008"><a xlink:href="namespaceMayaFlux_1_1Kinesis_1_1Discrete_aa24f42ad7fac830cc8ebd7d7f8c9c839.html#aa24f42ad7fac830cc8ebd7d7f8c9c839" target="_top" xlink:title="Direction&#45;based comparator for doubles.">
<polygon fill="white" stroke="#666666" points="881,-78 723,-78 723,-48 881,-48 881,-78"/>
<text text-anchor="start" x="731" y="-66" font-family="Helvetica,sans-Serif" font-size="10.00">MayaFlux::Kinesis::</text>
<text text-anchor="middle" x="802" y="-55" font-family="Helvetica,sans-Serif" font-size="10.00">Discrete::double_comparator</text>
</a>
</g>
</g>
<!-- Node7&#45;&gt;Node8 -->
<g id="edge7_Node000007_Node000008" class="edge">
<title>Node7&#45;&gt;Node8</title>
<g id="a_edge7_Node000007_Node000008"><a xlink:title=" ">
<path fill="none" stroke="#63b8ff" d="M687.34,-46.86C695.5,-48.02 704.08,-49.24 712.71,-50.46"/>
<polygon fill="#63b8ff" stroke="#63b8ff" points="712.45,-53.96 722.85,-51.9 713.44,-47.03 712.45,-53.96"/>
</a>
</g>
</g>
<!-- Node9 -->
<g id="Node000009" class="node">
<title>Node9</title>
<g id="a_Node000009"><a xlink:href="namespaceMayaFlux_1_1Kinesis_1_1Discrete_ac31338d47679ac6672a20b378ed0e6ee.html#ac31338d47679ac6672a20b378ed0e6ee" target="_top" xlink:title="Execute a sorting algorithm on an iterator range.">
<polygon fill="white" stroke="#666666" points="858,-30 746,-30 746,0 858,0 858,-30"/>
<text text-anchor="start" x="754" y="-18" font-family="Helvetica,sans-Serif" font-size="10.00">MayaFlux::Kinesis::</text>
<text text-anchor="middle" x="802" y="-7" font-family="Helvetica,sans-Serif" font-size="10.00">Discrete::execute</text>
</a>
</g>
</g>
<!-- Node7&#45;&gt;Node9 -->
<g id="edge8_Node000007_Node000009" class="edge">
<title>Node7&#45;&gt;Node9</title>
<g id="a_edge8_Node000007_Node000009"><a xlink:title=" ">
<path fill="none" stroke="#63b8ff" d="M687.34,-31.14C702.74,-28.95 719.61,-26.56 735.53,-24.3"/>
<polygon fill="#63b8ff" stroke="#63b8ff" points="736.42,-27.71 745.83,-22.84 735.43,-20.78 736.42,-27.71"/>
</a>
</g>
</g>
</g>
</svg>
