<?xml version="1.0" encoding="UTF-8" standalone="no"?>
<!DOCTYPE svg PUBLIC "-//W3C//DTD SVG 1.1//EN"
 "http://www.w3.org/Graphics/SVG/1.1/DTD/svg11.dtd">
<!-- Generated by graphviz version 2.43.0 (0)
 -->
<!-- Title: MayaFlux::IO::FileReader::regions_to_groups Pages: 1 -->
<svg width="555pt" height="60pt"
 viewBox="0.00 0.00 555.00 60.00" xmlns="http://www.w3.org/2000/svg" xmlns:xlink="http://www.w3.org/1999/xlink">
<g id="graph0" class="graph" transform="scale(1 1) rotate(0) translate(4 56)">
<title>MayaFlux::IO::FileReader::regions_to_groups</title>
<!-- Node1 -->
<g id="Node000001" class="node">
<title>Node1</title>
<g id="a_Node000001"><a xlink:title="Convert file regions to region groups.">
<polygon fill="#999999" stroke="#666666" points="547,-30 408,-30 408,0 547,0 547,-30"/>
<text text-anchor="start" x="416" y="-18" font-family="Helvetica,sans-Serif" font-size="10.00">MayaFlux::IO::FileReader</text>
<text text-anchor="middle" x="477.5" y="-7" font-family="Helvetica,sans-Serif" font-size="10.00">::regions_to_groups</text>
</a>
</g>
</g>
<!-- Node2 -->
<g id="Node000002" class="node">
<title>Node2</title>
<g id="a_Node000002"><a xlink:href="classMayaFlux_1_1IO_1_1SoundFileReader_a4f0317d6147160c47dbbc3c2663f1756.html#a4f0317d6147160c47dbbc3c2663f1756" target="_top" xlink:title="Load file data into an existing SignalSourceContainer.">
<polygon fill="white" stroke="#666666" points="372,-52 203,-52 203,-22 372,-22 372,-52"/>
<text text-anchor="start" x="211" y="-40" font-family="Helvetica,sans-Serif" font-size="10.00">MayaFlux::IO::SoundFileReader</text>
<text text-anchor="middle" x="287.5" y="-29" font-family="Helvetica,sans-Serif" font-size="10.00">::load_into_container</text>
</a>
</g>
</g>
<!-- Node1&#45;&gt;Node2 -->
<g id="edge1_Node000001_Node000002" class="edge">
<title>Node1&#45;&gt;Node2</title>
<g id="a_edge1_Node000001_Node000002"><a xlink:title=" ">
<path fill="none" stroke="#63b8ff" d="M397.89,-24.2C389.34,-25.2 380.62,-26.22 372.01,-27.23"/>
<polygon fill="#63b8ff" stroke="#63b8ff" points="398.3,-27.67 407.83,-23.04 397.49,-20.72 398.3,-27.67"/>
</a>
</g>
</g>
<!-- Node3 -->
<g id="Node000003" class="node">
<title>Node3</title>
<g id="a_Node000003"><a xlink:href="classMayaFlux_1_1IO_1_1VideoFileReader_a78b6b19d6d9126250ded73ea4b7b6629.html#a78b6b19d6d9126250ded73ea4b7b6629" target="_top" xlink:title="Load file data into an existing container.">
<polygon fill="white" stroke="#666666" points="167,-30 0,-30 0,0 167,0 167,-30"/>
<text text-anchor="start" x="8" y="-18" font-family="Helvetica,sans-Serif" font-size="10.00">MayaFlux::IO::VideoFileReader</text>
<text text-anchor="middle" x="83.5" y="-7" font-family="Helvetica,sans-Serif" font-size="10.00">::load_into_container</text>
</a>
</g>
</g>
<!-- Node1&#45;&gt;Node3 -->
<g id="edge3_Node000001_Node000003" class="edge">
<title>Node1&#45;&gt;Node3</title>
<g id="a_edge3_Node000001_Node000003"><a xlink:title=" ">
<path fill="none" stroke="#63b8ff" d="M397.76,-13.33C389.07,-13.2 380.35,-13.08 372,-13 296.89,-12.28 278.11,-12.37 203,-13 191.38,-13.1 179.11,-13.25 167.05,-13.43"/>
<polygon fill="#63b8ff" stroke="#63b8ff" points="397.87,-16.83 407.92,-13.5 397.98,-9.83 397.87,-16.83"/>
</a>
</g>
</g>
<!-- Node2&#45;&gt;Node3 -->
<g id="edge2_Node000002_Node000003" class="edge">
<title>Node2&#45;&gt;Node3</title>
<g id="a_edge2_Node000002_Node000003"><a xlink:title=" ">
<path fill="none" stroke="#63b8ff" d="M192.84,-26.8C184.24,-25.86 175.57,-24.92 167.08,-23.99"/>
<polygon fill="#63b8ff" stroke="#63b8ff" points="192.56,-30.29 202.88,-27.89 193.32,-23.33 192.56,-30.29"/>
</a>
</g>
</g>
</g>
</svg>
