<?xml version="1.0" encoding="UTF-8" standalone="no"?>
<!DOCTYPE svg PUBLIC "-//W3C//DTD SVG 1.1//EN"
 "http://www.w3.org/Graphics/SVG/1.1/DTD/svg11.dtd">
<!-- Generated by graphviz version 2.43.0 (0)
 -->
<!-- Title: MayaFlux::Buffers::SDFMeshProcessor Pages: 1 -->
<svg width="548pt" height="1966pt"
 viewBox="0.00 0.00 547.50 1966.00" xmlns="http://www.w3.org/2000/svg" xmlns:xlink="http://www.w3.org/1999/xlink">
<g id="graph0" class="graph" transform="scale(1 1) rotate(0) translate(4 1962)">
<title>MayaFlux::Buffers::SDFMeshProcessor</title>
<!-- Node1 -->
<g id="Node000001" class="node">
<title>Node1</title>
<g id="a_Node000001"><a xlink:title="ComputeProcessor that dispatches mc_emit.comp directly into the owning VKBuffer (Usage::VERTEX),...">
<polygon fill="#999999" stroke="transparent" points="461.5,-510 319.5,-510 319.5,0 461.5,0 461.5,-510"/>
<text text-anchor="start" x="343" y="-498" font-family="Helvetica,sans-Serif" font-size="10.00">MayaFlux::Buffers::</text>
<text text-anchor="start" x="343.5" y="-487" font-family="Helvetica,sans-Serif" font-size="10.00">SDFMeshProcessor</text>
<text text-anchor="start" x="326" y="-472" font-family="Helvetica,sans-Serif" font-size="10.00">&#45;</text>
<text text-anchor="start" x="336.5" y="-472" font-family="Helvetica,sans-Serif" font-size="10.00">m_bounds_max</text>
<text text-anchor="start" x="326" y="-457" font-family="Helvetica,sans-Serif" font-size="10.00">&#45;</text>
<text text-anchor="start" x="336.5" y="-457" font-family="Helvetica,sans-Serif" font-size="10.00">m_bounds_min</text>
<text text-anchor="start" x="326" y="-442" font-family="Helvetica,sans-Serif" font-size="10.00">&#45;</text>
<text text-anchor="start" x="336.5" y="-442" font-family="Helvetica,sans-Serif" font-size="10.00">m_counter_buf</text>
<text text-anchor="start" x="326" y="-427" font-family="Helvetica,sans-Serif" font-size="10.00">&#45;</text>
<text text-anchor="start" x="336.5" y="-427" font-family="Helvetica,sans-Serif" font-size="10.00">m_dirty</text>
<text text-anchor="start" x="326" y="-412" font-family="Helvetica,sans-Serif" font-size="10.00">&#45;</text>
<text text-anchor="start" x="336.5" y="-412" font-family="Helvetica,sans-Serif" font-size="10.00">m_edge_buf</text>
<text text-anchor="start" x="326" y="-397" font-family="Helvetica,sans-Serif" font-size="10.00">&#45;</text>
<text text-anchor="start" x="336.5" y="-397" font-family="Helvetica,sans-Serif" font-size="10.00">m_field</text>
<text text-anchor="start" x="326" y="-382" font-family="Helvetica,sans-Serif" font-size="10.00">&#45;</text>
<text text-anchor="start" x="336.5" y="-382" font-family="Helvetica,sans-Serif" font-size="10.00">m_grid_buf</text>
<text text-anchor="start" x="326" y="-367" font-family="Helvetica,sans-Serif" font-size="10.00">&#45;</text>
<text text-anchor="start" x="336.5" y="-367" font-family="Helvetica,sans-Serif" font-size="10.00">m_iso_level</text>
<text text-anchor="start" x="326" y="-352" font-family="Helvetica,sans-Serif" font-size="10.00">&#45;</text>
<text text-anchor="start" x="336.5" y="-352" font-family="Helvetica,sans-Serif" font-size="10.00">m_owns_buffers</text>
<text text-anchor="start" x="326" y="-337" font-family="Helvetica,sans-Serif" font-size="10.00">&#45;</text>
<text text-anchor="start" x="336.5" y="-337" font-family="Helvetica,sans-Serif" font-size="10.00">m_res_x</text>
<text text-anchor="start" x="326" y="-322" font-family="Helvetica,sans-Serif" font-size="10.00">&#45;</text>
<text text-anchor="start" x="336.5" y="-322" font-family="Helvetica,sans-Serif" font-size="10.00">m_res_y</text>
<text text-anchor="start" x="326" y="-307" font-family="Helvetica,sans-Serif" font-size="10.00">&#45;</text>
<text text-anchor="start" x="336.5" y="-307" font-family="Helvetica,sans-Serif" font-size="10.00">m_res_z</text>
<text text-anchor="start" x="326" y="-292" font-family="Helvetica,sans-Serif" font-size="10.00">&#45;</text>
<text text-anchor="start" x="336.5" y="-292" font-family="Helvetica,sans-Serif" font-size="10.00">m_tri_buf</text>
<text text-anchor="start" x="323.5" y="-277" font-family="Helvetica,sans-Serif" font-size="10.00">+</text>
<text text-anchor="start" x="336.5" y="-277" font-family="Helvetica,sans-Serif" font-size="10.00">is_dirty()</text>
<text text-anchor="start" x="323.5" y="-262" font-family="Helvetica,sans-Serif" font-size="10.00">+</text>
<text text-anchor="start" x="336.5" y="-262" font-family="Helvetica,sans-Serif" font-size="10.00">SDFMeshProcessor()</text>
<text text-anchor="start" x="323.5" y="-247" font-family="Helvetica,sans-Serif" font-size="10.00">+</text>
<text text-anchor="start" x="336.5" y="-247" font-family="Helvetica,sans-Serif" font-size="10.00">SDFMeshProcessor()</text>
<text text-anchor="start" x="323.5" y="-232" font-family="Helvetica,sans-Serif" font-size="10.00">+</text>
<text text-anchor="start" x="336.5" y="-232" font-family="Helvetica,sans-Serif" font-size="10.00">set_bounds()</text>
<text text-anchor="start" x="323.5" y="-217" font-family="Helvetica,sans-Serif" font-size="10.00">+</text>
<text text-anchor="start" x="336.5" y="-217" font-family="Helvetica,sans-Serif" font-size="10.00">set_dirty()</text>
<text text-anchor="start" x="323.5" y="-202" font-family="Helvetica,sans-Serif" font-size="10.00">+</text>
<text text-anchor="start" x="336.5" y="-202" font-family="Helvetica,sans-Serif" font-size="10.00">set_field()</text>
<text text-anchor="start" x="323.5" y="-187" font-family="Helvetica,sans-Serif" font-size="10.00">+</text>
<text text-anchor="start" x="336.5" y="-187" font-family="Helvetica,sans-Serif" font-size="10.00">set_iso_level()</text>
<text text-anchor="start" x="323.5" y="-172" font-family="Helvetica,sans-Serif" font-size="10.00">+</text>
<text text-anchor="start" x="336.5" y="-172" font-family="Helvetica,sans-Serif" font-size="10.00">set_resolution()</text>
<text text-anchor="start" x="323.5" y="-157" font-family="Helvetica,sans-Serif" font-size="10.00">+</text>
<text text-anchor="start" x="336.5" y="-157" font-family="Helvetica,sans-Serif" font-size="10.00">~SDFMeshProcessor()</text>
<text text-anchor="start" x="323.5" y="-142" font-family="Helvetica,sans-Serif" font-size="10.00">#</text>
<text text-anchor="start" x="336.5" y="-142" font-family="Helvetica,sans-Serif" font-size="10.00">on_after_execute()</text>
<text text-anchor="start" x="323.5" y="-127" font-family="Helvetica,sans-Serif" font-size="10.00">#</text>
<text text-anchor="start" x="336.5" y="-127" font-family="Helvetica,sans-Serif" font-size="10.00">on_attach()</text>
<text text-anchor="start" x="323.5" y="-112" font-family="Helvetica,sans-Serif" font-size="10.00">#</text>
<text text-anchor="start" x="336.5" y="-112" font-family="Helvetica,sans-Serif" font-size="10.00">on_before_execute()</text>
<text text-anchor="start" x="323.5" y="-97" font-family="Helvetica,sans-Serif" font-size="10.00">#</text>
<text text-anchor="start" x="336.5" y="-97" font-family="Helvetica,sans-Serif" font-size="10.00">on_descriptors_created()</text>
<text text-anchor="start" x="326" y="-82" font-family="Helvetica,sans-Serif" font-size="10.00">&#45;</text>
<text text-anchor="start" x="336.5" y="-82" font-family="Helvetica,sans-Serif" font-size="10.00">corner_count()</text>
<text text-anchor="start" x="326" y="-67" font-family="Helvetica,sans-Serif" font-size="10.00">&#45;</text>
<text text-anchor="start" x="336.5" y="-67" font-family="Helvetica,sans-Serif" font-size="10.00">evaluate_grid()</text>
<text text-anchor="start" x="326" y="-52" font-family="Helvetica,sans-Serif" font-size="10.00">&#45;</text>
<text text-anchor="start" x="336.5" y="-52" font-family="Helvetica,sans-Serif" font-size="10.00">rebuild_lookup_buffers()</text>
<text text-anchor="start" x="326" y="-37" font-family="Helvetica,sans-Serif" font-size="10.00">&#45;</text>
<text text-anchor="start" x="336.5" y="-37" font-family="Helvetica,sans-Serif" font-size="10.00">rebuild_owned_buffers()</text>
<text text-anchor="start" x="326" y="-22" font-family="Helvetica,sans-Serif" font-size="10.00">&#45;</text>
<text text-anchor="start" x="336.5" y="-22" font-family="Helvetica,sans-Serif" font-size="10.00">voxel_count()</text>
<text text-anchor="start" x="326" y="-7" font-family="Helvetica,sans-Serif" font-size="10.00">&#45;</text>
<text text-anchor="start" x="336.5" y="-7" font-family="Helvetica,sans-Serif" font-size="10.00">worst_case_vertices()</text>
<polygon fill="#666666" stroke="#666666" points="319.5,-482 319.5,-482 461.5,-482 461.5,-482 319.5,-482"/>
<polygon fill="#666666" stroke="#666666" points="319.5,-287 319.5,-287 334.5,-287 334.5,-287 319.5,-287"/>
<polygon fill="#666666" stroke="#666666" points="334.5,-287 334.5,-287 461.5,-287 461.5,-287 334.5,-287"/>
<polygon fill="none" stroke="#666666" points="319.5,0 319.5,-510 461.5,-510 461.5,0 319.5,0"/>
</a>
</g>
</g>
<!-- Node2 -->
<g id="Node000002" class="node">
<title>Node2</title>
<g id="a_Node000002"><a xlink:href="classMayaFlux_1_1Buffers_1_1ComputeProcessor.html" target="_top" xlink:title="Specialized ShaderProcessor for Compute Pipelines.">
<polygon fill="white" stroke="transparent" points="457,-783 324,-783 324,-547 457,-547 457,-783"/>
<text text-anchor="start" x="343.5" y="-771" font-family="Helvetica,sans-Serif" font-size="10.00">MayaFlux::Buffers::</text>
<text text-anchor="start" x="345" y="-760" font-family="Helvetica,sans-Serif" font-size="10.00">ComputeProcessor</text>
<text text-anchor="start" x="331" y="-745" font-family="Helvetica,sans-Serif" font-size="10.00">&#45;</text>
<text text-anchor="start" x="341.5" y="-745" font-family="Helvetica,sans-Serif" font-size="10.00">m_pipeline_id</text>
<text text-anchor="start" x="328.5" y="-730" font-family="Helvetica,sans-Serif" font-size="10.00">+</text>
<text text-anchor="start" x="341.5" y="-730" font-family="Helvetica,sans-Serif" font-size="10.00">ComputeProcessor()</text>
<text text-anchor="start" x="328.5" y="-715" font-family="Helvetica,sans-Serif" font-size="10.00">+</text>
<text text-anchor="start" x="341.5" y="-715" font-family="Helvetica,sans-Serif" font-size="10.00">get_dispatch_config()</text>
<text text-anchor="start" x="328.5" y="-700" font-family="Helvetica,sans-Serif" font-size="10.00">+</text>
<text text-anchor="start" x="341.5" y="-700" font-family="Helvetica,sans-Serif" font-size="10.00">is_pipeline_ready()</text>
<text text-anchor="start" x="328.5" y="-685" font-family="Helvetica,sans-Serif" font-size="10.00">+</text>
<text text-anchor="start" x="341.5" y="-685" font-family="Helvetica,sans-Serif" font-size="10.00">set_custom_dispatch()</text>
<text text-anchor="start" x="328.5" y="-670" font-family="Helvetica,sans-Serif" font-size="10.00">+</text>
<text text-anchor="start" x="341.5" y="-670" font-family="Helvetica,sans-Serif" font-size="10.00">set_dispatch_mode()</text>
<text text-anchor="start" x="328.5" y="-655" font-family="Helvetica,sans-Serif" font-size="10.00">+</text>
<text text-anchor="start" x="341.5" y="-655" font-family="Helvetica,sans-Serif" font-size="10.00">set_manual_dispatch()</text>
<text text-anchor="start" x="328.5" y="-640" font-family="Helvetica,sans-Serif" font-size="10.00">+</text>
<text text-anchor="start" x="341.5" y="-640" font-family="Helvetica,sans-Serif" font-size="10.00">set_workgroup_size()</text>
<text text-anchor="start" x="328.5" y="-625" font-family="Helvetica,sans-Serif" font-size="10.00">#</text>
<text text-anchor="start" x="341.5" y="-625" font-family="Helvetica,sans-Serif" font-size="10.00">calculate_dispatch</text>
<text text-anchor="start" x="341.5" y="-614" font-family="Helvetica,sans-Serif" font-size="10.00">_size()</text>
<text text-anchor="start" x="328.5" y="-599" font-family="Helvetica,sans-Serif" font-size="10.00">#</text>
<text text-anchor="start" x="341.5" y="-599" font-family="Helvetica,sans-Serif" font-size="10.00">cleanup()</text>
<text text-anchor="start" x="328.5" y="-584" font-family="Helvetica,sans-Serif" font-size="10.00">#</text>
<text text-anchor="start" x="341.5" y="-584" font-family="Helvetica,sans-Serif" font-size="10.00">initialize_descriptors()</text>
<text text-anchor="start" x="328.5" y="-569" font-family="Helvetica,sans-Serif" font-size="10.00">#</text>
<text text-anchor="start" x="341.5" y="-569" font-family="Helvetica,sans-Serif" font-size="10.00">initialize_pipeline()</text>
<text text-anchor="start" x="331" y="-554" font-family="Helvetica,sans-Serif" font-size="10.00">&#45;</text>
<text text-anchor="start" x="341.5" y="-554" font-family="Helvetica,sans-Serif" font-size="10.00">execute_shader()</text>
<polygon fill="#666666" stroke="#666666" points="324.5,-755 324.5,-755 457.5,-755 457.5,-755 324.5,-755"/>
<polygon fill="#666666" stroke="#666666" points="324.5,-740 324.5,-740 339.5,-740 339.5,-740 324.5,-740"/>
<polygon fill="#666666" stroke="#666666" points="339.5,-740 339.5,-740 457.5,-740 457.5,-740 339.5,-740"/>
<polygon fill="none" stroke="#666666" points="324,-547 324,-783 457,-783 457,-547 324,-547"/>
</a>
</g>
</g>
<!-- Node2&#45;&gt;Node1 -->
<g id="edge1_Node000001_Node000002" class="edge">
<title>Node2&#45;&gt;Node1</title>
<g id="a_edge1_Node000001_Node000002"><a xlink:title=" ">
<path fill="none" stroke="#63b8ff" d="M390.5,-536.77C390.5,-528.13 390.5,-519.27 390.5,-510.28"/>
<polygon fill="none" stroke="#63b8ff" points="387,-536.81 390.5,-546.81 394,-536.81 387,-536.81"/>
</a>
</g>
</g>
<!-- Node3 -->
<g id="Node000003" class="node">
<title>Node3</title>
<g id="a_Node000003"><a xlink:href="classMayaFlux_1_1Buffers_1_1ShaderProcessor.html" target="_top" xlink:title="Abstract base class for shader&#45;based buffer processing.">
<polygon fill="white" stroke="transparent" points="385,-1459 236,-1459 236,-830 385,-830 385,-1459"/>
<text text-anchor="start" x="263.5" y="-1446.5" font-family="Helvetica,sans-Serif" font-size="10.00">MayaFlux::Buffers::</text>
<text text-anchor="start" x="270" y="-1435.5" font-family="Helvetica,sans-Serif" font-size="10.00">ShaderProcessor</text>
<text text-anchor="start" x="240.5" y="-1420.5" font-family="Helvetica,sans-Serif" font-size="10.00">#</text>
<text text-anchor="start" x="253.5" y="-1420.5" font-family="Helvetica,sans-Serif" font-size="10.00">m_auto_bind_index</text>
<text text-anchor="start" x="240.5" y="-1405.5" font-family="Helvetica,sans-Serif" font-size="10.00">#</text>
<text text-anchor="start" x="253.5" y="-1405.5" font-family="Helvetica,sans-Serif" font-size="10.00">m_bound_buffers</text>
<text text-anchor="start" x="240.5" y="-1390.5" font-family="Helvetica,sans-Serif" font-size="10.00">#</text>
<text text-anchor="start" x="253.5" y="-1390.5" font-family="Helvetica,sans-Serif" font-size="10.00">m_descriptor_set_ids</text>
<text text-anchor="start" x="240.5" y="-1375.5" font-family="Helvetica,sans-Serif" font-size="10.00">#</text>
<text text-anchor="start" x="253.5" y="-1375.5" font-family="Helvetica,sans-Serif" font-size="10.00">m_engine_owns_set_zero</text>
<text text-anchor="start" x="240.5" y="-1360.5" font-family="Helvetica,sans-Serif" font-size="10.00">#</text>
<text text-anchor="start" x="253.5" y="-1360.5" font-family="Helvetica,sans-Serif" font-size="10.00">m_initialized</text>
<text text-anchor="start" x="240.5" y="-1345.5" font-family="Helvetica,sans-Serif" font-size="10.00">#</text>
<text text-anchor="start" x="253.5" y="-1345.5" font-family="Helvetica,sans-Serif" font-size="10.00">m_last_command_buffer</text>
<text text-anchor="start" x="240.5" y="-1330.5" font-family="Helvetica,sans-Serif" font-size="10.00">#</text>
<text text-anchor="start" x="253.5" y="-1330.5" font-family="Helvetica,sans-Serif" font-size="10.00">m_last_processed_buffer</text>
<text text-anchor="start" x="240.5" y="-1315.5" font-family="Helvetica,sans-Serif" font-size="10.00">#</text>
<text text-anchor="start" x="253.5" y="-1315.5" font-family="Helvetica,sans-Serif" font-size="10.00">m_needs_descriptor</text>
<text text-anchor="start" x="253.5" y="-1304.5" font-family="Helvetica,sans-Serif" font-size="10.00">_rebuild</text>
<text text-anchor="start" x="240.5" y="-1289.5" font-family="Helvetica,sans-Serif" font-size="10.00">#</text>
<text text-anchor="start" x="253.5" y="-1289.5" font-family="Helvetica,sans-Serif" font-size="10.00">m_needs_pipeline_rebuild</text>
<text text-anchor="start" x="240.5" y="-1274.5" font-family="Helvetica,sans-Serif" font-size="10.00">#</text>
<text text-anchor="start" x="253.5" y="-1274.5" font-family="Helvetica,sans-Serif" font-size="10.00">m_push_constant_data</text>
<text text-anchor="start" x="240.5" y="-1259.5" font-family="Helvetica,sans-Serif" font-size="10.00">#</text>
<text text-anchor="start" x="253.5" y="-1259.5" font-family="Helvetica,sans-Serif" font-size="10.00">m_shader_id</text>
<text text-anchor="start" x="240.5" y="-1244.5" font-family="Helvetica,sans-Serif" font-size="10.00">+</text>
<text text-anchor="start" x="253.5" y="-1244.5" font-family="Helvetica,sans-Serif" font-size="10.00">add_binding()</text>
<text text-anchor="start" x="240.5" y="-1229.5" font-family="Helvetica,sans-Serif" font-size="10.00">+</text>
<text text-anchor="start" x="253.5" y="-1229.5" font-family="Helvetica,sans-Serif" font-size="10.00">are_bindings_complete()</text>
<text text-anchor="start" x="240.5" y="-1214.5" font-family="Helvetica,sans-Serif" font-size="10.00">+</text>
<text text-anchor="start" x="253.5" y="-1214.5" font-family="Helvetica,sans-Serif" font-size="10.00">are_descriptors_ready()</text>
<text text-anchor="start" x="240.5" y="-1199.5" font-family="Helvetica,sans-Serif" font-size="10.00">+</text>
<text text-anchor="start" x="253.5" y="-1199.5" font-family="Helvetica,sans-Serif" font-size="10.00">auto_bind_buffer()</text>
<text text-anchor="start" x="240.5" y="-1184.5" font-family="Helvetica,sans-Serif" font-size="10.00">+</text>
<text text-anchor="start" x="253.5" y="-1184.5" font-family="Helvetica,sans-Serif" font-size="10.00">bind_buffer()</text>
<text text-anchor="start" x="240.5" y="-1169.5" font-family="Helvetica,sans-Serif" font-size="10.00">+</text>
<text text-anchor="start" x="253.5" y="-1169.5" font-family="Helvetica,sans-Serif" font-size="10.00">clear_specialization</text>
<text text-anchor="start" x="253.5" y="-1158.5" font-family="Helvetica,sans-Serif" font-size="10.00">_constants()</text>
<text text-anchor="start" x="240.5" y="-1143.5" font-family="Helvetica,sans-Serif" font-size="10.00">+</text>
<text text-anchor="start" x="253.5" y="-1143.5" font-family="Helvetica,sans-Serif" font-size="10.00">get_binding_names()</text>
<text text-anchor="start" x="240.5" y="-1128.5" font-family="Helvetica,sans-Serif" font-size="10.00">+</text>
<text text-anchor="start" x="253.5" y="-1128.5" font-family="Helvetica,sans-Serif" font-size="10.00">get_bound_buffer()</text>
<text text-anchor="start" x="240.5" y="-1113.5" font-family="Helvetica,sans-Serif" font-size="10.00">+</text>
<text text-anchor="start" x="253.5" y="-1113.5" font-family="Helvetica,sans-Serif" font-size="10.00">get_bound_buffer_count()</text>
<text text-anchor="start" x="240.5" y="-1098.5" font-family="Helvetica,sans-Serif" font-size="10.00">+</text>
<text text-anchor="start" x="253.5" y="-1098.5" font-family="Helvetica,sans-Serif" font-size="10.00">get_buffer_usage_hint()</text>
<text text-anchor="start" x="253.5" y="-1083.5" font-family="Helvetica,sans-Serif" font-size="10.00">and 25 more...</text>
<text text-anchor="start" x="240.5" y="-1068.5" font-family="Helvetica,sans-Serif" font-size="10.00">#</text>
<text text-anchor="start" x="253.5" y="-1068.5" font-family="Helvetica,sans-Serif" font-size="10.00">cleanup()</text>
<text text-anchor="start" x="240.5" y="-1053.5" font-family="Helvetica,sans-Serif" font-size="10.00">#</text>
<text text-anchor="start" x="253.5" y="-1053.5" font-family="Helvetica,sans-Serif" font-size="10.00">execute_shader()</text>
<text text-anchor="start" x="240.5" y="-1038.5" font-family="Helvetica,sans-Serif" font-size="10.00">#</text>
<text text-anchor="start" x="253.5" y="-1038.5" font-family="Helvetica,sans-Serif" font-size="10.00">initialize_descriptors()</text>
<text text-anchor="start" x="240.5" y="-1023.5" font-family="Helvetica,sans-Serif" font-size="10.00">#</text>
<text text-anchor="start" x="253.5" y="-1023.5" font-family="Helvetica,sans-Serif" font-size="10.00">initialize_pipeline()</text>
<text text-anchor="start" x="240.5" y="-1008.5" font-family="Helvetica,sans-Serif" font-size="10.00">#</text>
<text text-anchor="start" x="253.5" y="-1008.5" font-family="Helvetica,sans-Serif" font-size="10.00">on_after_execute()</text>
<text text-anchor="start" x="240.5" y="-993.5" font-family="Helvetica,sans-Serif" font-size="10.00">#</text>
<text text-anchor="start" x="253.5" y="-993.5" font-family="Helvetica,sans-Serif" font-size="10.00">on_before_compile()</text>
<text text-anchor="start" x="240.5" y="-978.5" font-family="Helvetica,sans-Serif" font-size="10.00">#</text>
<text text-anchor="start" x="253.5" y="-978.5" font-family="Helvetica,sans-Serif" font-size="10.00">on_before_descriptors</text>
<text text-anchor="start" x="253.5" y="-967.5" font-family="Helvetica,sans-Serif" font-size="10.00">_create()</text>
<text text-anchor="start" x="240.5" y="-952.5" font-family="Helvetica,sans-Serif" font-size="10.00">#</text>
<text text-anchor="start" x="253.5" y="-952.5" font-family="Helvetica,sans-Serif" font-size="10.00">on_before_execute()</text>
<text text-anchor="start" x="240.5" y="-937.5" font-family="Helvetica,sans-Serif" font-size="10.00">#</text>
<text text-anchor="start" x="253.5" y="-937.5" font-family="Helvetica,sans-Serif" font-size="10.00">on_before_pipeline</text>
<text text-anchor="start" x="253.5" y="-926.5" font-family="Helvetica,sans-Serif" font-size="10.00">_create()</text>
<text text-anchor="start" x="240.5" y="-911.5" font-family="Helvetica,sans-Serif" font-size="10.00">#</text>
<text text-anchor="start" x="253.5" y="-911.5" font-family="Helvetica,sans-Serif" font-size="10.00">on_descriptors_created()</text>
<text text-anchor="start" x="240.5" y="-896.5" font-family="Helvetica,sans-Serif" font-size="10.00">#</text>
<text text-anchor="start" x="253.5" y="-896.5" font-family="Helvetica,sans-Serif" font-size="10.00">on_pipeline_created()</text>
<text text-anchor="start" x="240.5" y="-881.5" font-family="Helvetica,sans-Serif" font-size="10.00">#</text>
<text text-anchor="start" x="253.5" y="-881.5" font-family="Helvetica,sans-Serif" font-size="10.00">on_shader_loaded()</text>
<text text-anchor="start" x="240.5" y="-866.5" font-family="Helvetica,sans-Serif" font-size="10.00">#</text>
<text text-anchor="start" x="253.5" y="-866.5" font-family="Helvetica,sans-Serif" font-size="10.00">resolve_ds_index()</text>
<text text-anchor="start" x="240.5" y="-851.5" font-family="Helvetica,sans-Serif" font-size="10.00">#</text>
<text text-anchor="start" x="253.5" y="-851.5" font-family="Helvetica,sans-Serif" font-size="10.00">update_descriptors()</text>
<text text-anchor="start" x="243" y="-836.5" font-family="Helvetica,sans-Serif" font-size="10.00">&#45;</text>
<text text-anchor="start" x="253.5" y="-836.5" font-family="Helvetica,sans-Serif" font-size="10.00">initialize_shader()</text>
<polygon fill="#666666" stroke="#666666" points="236.5,-1430.5 236.5,-1430.5 385.5,-1430.5 385.5,-1430.5 236.5,-1430.5"/>
<polygon fill="#666666" stroke="#666666" points="236.5,-1254.5 236.5,-1254.5 251.5,-1254.5 251.5,-1254.5 236.5,-1254.5"/>
<polygon fill="#666666" stroke="#666666" points="251.5,-1254.5 251.5,-1254.5 385.5,-1254.5 385.5,-1254.5 251.5,-1254.5"/>
<polygon fill="none" stroke="#666666" points="236,-830 236,-1459 385,-1459 385,-830 236,-830"/>
</a>
</g>
</g>
<!-- Node3&#45;&gt;Node2 -->
<g id="edge2_Node000002_Node000003" class="edge">
<title>Node3&#45;&gt;Node2</title>
<g id="a_edge2_Node000002_Node000003"><a xlink:title=" ">
<path fill="none" stroke="#63b8ff" d="M364.72,-819.85C366.83,-807.29 368.87,-795.09 370.83,-783.42"/>
<polygon fill="none" stroke="#63b8ff" points="361.23,-819.55 363.02,-829.99 368.13,-820.71 361.23,-819.55"/>
</a>
</g>
</g>
<!-- Node4 -->
<g id="Node000004" class="node">
<title>Node4</title>
<g id="a_Node000004"><a xlink:href="classMayaFlux_1_1Buffers_1_1VKBufferProcessor.html" target="_top" xlink:title=" ">
<polygon fill="white" stroke="transparent" points="302,-1631.5 157,-1631.5 157,-1530.5 302,-1530.5 302,-1631.5"/>
<text text-anchor="start" x="182.5" y="-1619" font-family="Helvetica,sans-Serif" font-size="10.00">MayaFlux::Buffers::</text>
<text text-anchor="start" x="184.5" y="-1608" font-family="Helvetica,sans-Serif" font-size="10.00">VKBufferProcessor</text>
<text text-anchor="start" x="228" y="-1593" font-family="Helvetica,sans-Serif" font-size="10.00"> </text>
<text text-anchor="start" x="161.5" y="-1578" font-family="Helvetica,sans-Serif" font-size="10.00">#</text>
<text text-anchor="start" x="174.5" y="-1578" font-family="Helvetica,sans-Serif" font-size="10.00">ensure_initialized()</text>
<text text-anchor="start" x="161.5" y="-1563" font-family="Helvetica,sans-Serif" font-size="10.00">#</text>
<text text-anchor="start" x="174.5" y="-1563" font-family="Helvetica,sans-Serif" font-size="10.00">initialize_buffer_service()</text>
<text text-anchor="start" x="161.5" y="-1548" font-family="Helvetica,sans-Serif" font-size="10.00">#</text>
<text text-anchor="start" x="174.5" y="-1548" font-family="Helvetica,sans-Serif" font-size="10.00">initialize_compute</text>
<text text-anchor="start" x="174.5" y="-1537" font-family="Helvetica,sans-Serif" font-size="10.00">_service()</text>
<polygon fill="#666666" stroke="#666666" points="157.5,-1603 157.5,-1603 302.5,-1603 302.5,-1603 157.5,-1603"/>
<polygon fill="#666666" stroke="#666666" points="157.5,-1588 157.5,-1588 302.5,-1588 302.5,-1588 157.5,-1588"/>
<polygon fill="none" stroke="#666666" points="157,-1530.5 157,-1631.5 302,-1631.5 302,-1530.5 157,-1530.5"/>
</a>
</g>
</g>
<!-- Node4&#45;&gt;Node3 -->
<g id="edge3_Node000003_Node000004" class="edge">
<title>Node4&#45;&gt;Node3</title>
<g id="a_edge3_Node000003_Node000004"><a xlink:title=" ">
<path fill="none" stroke="#63b8ff" d="M240.67,-1520.08C243.97,-1502.36 247.84,-1481.62 252.03,-1459.16"/>
<polygon fill="none" stroke="#63b8ff" points="237.18,-1519.69 238.79,-1530.16 244.07,-1520.97 237.18,-1519.69"/>
</a>
</g>
</g>
<!-- Node5 -->
<g id="Node000005" class="node">
<title>Node5</title>
<g id="a_Node000005"><a xlink:href="classMayaFlux_1_1Buffers_1_1BufferProcessor.html" target="_top" xlink:title="Central computational transformation interface for continuous buffer processing.">
<polygon fill="white" stroke="transparent" points="135,-1928 0,-1928 0,-1733 135,-1733 135,-1928"/>
<text text-anchor="start" x="20.5" y="-1915.5" font-family="Helvetica,sans-Serif" font-size="10.00">MayaFlux::Buffers::</text>
<text text-anchor="start" x="29.5" y="-1904.5" font-family="Helvetica,sans-Serif" font-size="10.00">BufferProcessor</text>
<text text-anchor="start" x="4.5" y="-1889.5" font-family="Helvetica,sans-Serif" font-size="10.00">#</text>
<text text-anchor="start" x="17.5" y="-1889.5" font-family="Helvetica,sans-Serif" font-size="10.00">m_processing_token</text>
<text text-anchor="start" x="7" y="-1874.5" font-family="Helvetica,sans-Serif" font-size="10.00">&#45;</text>
<text text-anchor="start" x="17.5" y="-1874.5" font-family="Helvetica,sans-Serif" font-size="10.00">m_active_processing</text>
<text text-anchor="start" x="4.5" y="-1859.5" font-family="Helvetica,sans-Serif" font-size="10.00">+</text>
<text text-anchor="start" x="17.5" y="-1859.5" font-family="Helvetica,sans-Serif" font-size="10.00">get_processing_token()</text>
<text text-anchor="start" x="4.5" y="-1844.5" font-family="Helvetica,sans-Serif" font-size="10.00">+</text>
<text text-anchor="start" x="17.5" y="-1844.5" font-family="Helvetica,sans-Serif" font-size="10.00">is_compatible_with()</text>
<text text-anchor="start" x="4.5" y="-1829.5" font-family="Helvetica,sans-Serif" font-size="10.00">+</text>
<text text-anchor="start" x="17.5" y="-1829.5" font-family="Helvetica,sans-Serif" font-size="10.00">on_attach()</text>
<text text-anchor="start" x="4.5" y="-1814.5" font-family="Helvetica,sans-Serif" font-size="10.00">+</text>
<text text-anchor="start" x="17.5" y="-1814.5" font-family="Helvetica,sans-Serif" font-size="10.00">on_detach()</text>
<text text-anchor="start" x="4.5" y="-1799.5" font-family="Helvetica,sans-Serif" font-size="10.00">+</text>
<text text-anchor="start" x="17.5" y="-1799.5" font-family="Helvetica,sans-Serif" font-size="10.00">process()</text>
<text text-anchor="start" x="4.5" y="-1784.5" font-family="Helvetica,sans-Serif" font-size="10.00">+</text>
<text text-anchor="start" x="17.5" y="-1784.5" font-family="Helvetica,sans-Serif" font-size="10.00">processing_function()</text>
<text text-anchor="start" x="4.5" y="-1769.5" font-family="Helvetica,sans-Serif" font-size="10.00">+</text>
<text text-anchor="start" x="17.5" y="-1769.5" font-family="Helvetica,sans-Serif" font-size="10.00">set_processing_token()</text>
<text text-anchor="start" x="4.5" y="-1754.5" font-family="Helvetica,sans-Serif" font-size="10.00">+</text>
<text text-anchor="start" x="17.5" y="-1754.5" font-family="Helvetica,sans-Serif" font-size="10.00">~BufferProcessor()</text>
<text text-anchor="start" x="7" y="-1739.5" font-family="Helvetica,sans-Serif" font-size="10.00">&#45;</text>
<text text-anchor="start" x="17.5" y="-1739.5" font-family="Helvetica,sans-Serif" font-size="10.00">process_non_owning()</text>
<polygon fill="#666666" stroke="#666666" points="0.5,-1899.5 0.5,-1899.5 135.5,-1899.5 135.5,-1899.5 0.5,-1899.5"/>
<polygon fill="#666666" stroke="#666666" points="0.5,-1869.5 0.5,-1869.5 15.5,-1869.5 15.5,-1869.5 0.5,-1869.5"/>
<polygon fill="#666666" stroke="#666666" points="15.5,-1869.5 15.5,-1869.5 135.5,-1869.5 135.5,-1869.5 15.5,-1869.5"/>
<polygon fill="none" stroke="#666666" points="0,-1733 0,-1928 135,-1928 135,-1733 0,-1733"/>
</a>
</g>
</g>
<!-- Node5&#45;&gt;Node4 -->
<g id="edge4_Node000004_Node000005" class="edge">
<title>Node5&#45;&gt;Node4</title>
<g id="a_edge4_Node000004_Node000005"><a xlink:title=" ">
<path fill="none" stroke="#63b8ff" d="M130.85,-1724.24C135.42,-1717.02 140,-1709.88 144.5,-1703 160.11,-1679.16 178.16,-1653.24 193.6,-1631.53"/>
<polygon fill="none" stroke="#63b8ff" points="127.86,-1722.41 125.5,-1732.74 133.79,-1726.14 127.86,-1722.41"/>
</a>
</g>
</g>
<!-- Node6 -->
<g id="Node000006" class="node">
<title>Node6</title>
<g id="a_Node000006"><a xlink:href="structMayaFlux_1_1Registry_1_1Service_1_1BufferService.html" target="_top" xlink:title="Backend buffer management service interface.">
<polygon fill="white" stroke="transparent" points="305.5,-1958 153.5,-1958 153.5,-1703 305.5,-1703 305.5,-1958"/>
<text text-anchor="start" x="172.5" y="-1945.5" font-family="Helvetica,sans-Serif" font-size="10.00">MayaFlux::Registry</text>
<text text-anchor="start" x="172.5" y="-1934.5" font-family="Helvetica,sans-Serif" font-size="10.00">::Service::BufferService</text>
<text text-anchor="start" x="157.5" y="-1919.5" font-family="Helvetica,sans-Serif" font-size="10.00">+</text>
<text text-anchor="start" x="170.5" y="-1919.5" font-family="Helvetica,sans-Serif" font-size="10.00">copy_buffer</text>
<text text-anchor="start" x="157.5" y="-1904.5" font-family="Helvetica,sans-Serif" font-size="10.00">+</text>
<text text-anchor="start" x="170.5" y="-1904.5" font-family="Helvetica,sans-Serif" font-size="10.00">copy_buffer_fenced</text>
<text text-anchor="start" x="157.5" y="-1889.5" font-family="Helvetica,sans-Serif" font-size="10.00">+</text>
<text text-anchor="start" x="170.5" y="-1889.5" font-family="Helvetica,sans-Serif" font-size="10.00">destroy_buffer</text>
<text text-anchor="start" x="157.5" y="-1874.5" font-family="Helvetica,sans-Serif" font-size="10.00">+</text>
<text text-anchor="start" x="170.5" y="-1874.5" font-family="Helvetica,sans-Serif" font-size="10.00">execute_fenced</text>
<text text-anchor="start" x="157.5" y="-1859.5" font-family="Helvetica,sans-Serif" font-size="10.00">+</text>
<text text-anchor="start" x="170.5" y="-1859.5" font-family="Helvetica,sans-Serif" font-size="10.00">execute_immediate</text>
<text text-anchor="start" x="157.5" y="-1844.5" font-family="Helvetica,sans-Serif" font-size="10.00">+</text>
<text text-anchor="start" x="170.5" y="-1844.5" font-family="Helvetica,sans-Serif" font-size="10.00">flush_range</text>
<text text-anchor="start" x="157.5" y="-1829.5" font-family="Helvetica,sans-Serif" font-size="10.00">+</text>
<text text-anchor="start" x="170.5" y="-1829.5" font-family="Helvetica,sans-Serif" font-size="10.00">get_buffer_device_address</text>
<text text-anchor="start" x="157.5" y="-1814.5" font-family="Helvetica,sans-Serif" font-size="10.00">+</text>
<text text-anchor="start" x="170.5" y="-1814.5" font-family="Helvetica,sans-Serif" font-size="10.00">initialize_buffer</text>
<text text-anchor="start" x="157.5" y="-1799.5" font-family="Helvetica,sans-Serif" font-size="10.00">+</text>
<text text-anchor="start" x="170.5" y="-1799.5" font-family="Helvetica,sans-Serif" font-size="10.00">invalidate_range</text>
<text text-anchor="start" x="157.5" y="-1784.5" font-family="Helvetica,sans-Serif" font-size="10.00">+</text>
<text text-anchor="start" x="170.5" y="-1784.5" font-family="Helvetica,sans-Serif" font-size="10.00">map_buffer</text>
<text text-anchor="start" x="157.5" y="-1769.5" font-family="Helvetica,sans-Serif" font-size="10.00">+</text>
<text text-anchor="start" x="170.5" y="-1769.5" font-family="Helvetica,sans-Serif" font-size="10.00">record_deferred</text>
<text text-anchor="start" x="157.5" y="-1754.5" font-family="Helvetica,sans-Serif" font-size="10.00">+</text>
<text text-anchor="start" x="170.5" y="-1754.5" font-family="Helvetica,sans-Serif" font-size="10.00">release_fenced</text>
<text text-anchor="start" x="157.5" y="-1739.5" font-family="Helvetica,sans-Serif" font-size="10.00">+</text>
<text text-anchor="start" x="170.5" y="-1739.5" font-family="Helvetica,sans-Serif" font-size="10.00">unmap_buffer</text>
<text text-anchor="start" x="157.5" y="-1724.5" font-family="Helvetica,sans-Serif" font-size="10.00">+</text>
<text text-anchor="start" x="170.5" y="-1724.5" font-family="Helvetica,sans-Serif" font-size="10.00">wait_fenced</text>
<text text-anchor="start" x="227.5" y="-1709.5" font-family="Helvetica,sans-Serif" font-size="10.00"> </text>
<polygon fill="#666666" stroke="#666666" points="153.5,-1929.5 153.5,-1929.5 305.5,-1929.5 305.5,-1929.5 153.5,-1929.5"/>
<polygon fill="#666666" stroke="#666666" points="153.5,-1719.5 153.5,-1719.5 168.5,-1719.5 168.5,-1719.5 153.5,-1719.5"/>
<polygon fill="#666666" stroke="#666666" points="168.5,-1719.5 168.5,-1719.5 305.5,-1719.5 305.5,-1719.5 168.5,-1719.5"/>
<polygon fill="none" stroke="#666666" points="153.5,-1703 153.5,-1958 305.5,-1958 305.5,-1703 153.5,-1703"/>
</a>
</g>
</g>
<!-- Node6&#45;&gt;Node4 -->
<g id="edge5_Node000004_Node000006" class="edge">
<title>Node6&#45;&gt;Node4</title>
<g id="a_edge5_Node000004_Node000006"><a xlink:title=" ">
<path fill="none" stroke="#63b8ff" d="M229.5,-1702.85C229.5,-1682.27 229.5,-1661.79 229.5,-1643.7"/>
<polygon fill="none" stroke="#63b8ff" points="229.5,-1643.59 225.5,-1637.59 229.5,-1631.59 233.5,-1637.59 229.5,-1643.59"/>
</a>
</g>
<text text-anchor="middle" x="277.5" y="-1677" font-family="Helvetica,sans-Serif" font-size="10.00" fill="grey"> #m_buffer_service</text>
</g>
<!-- Node7 -->
<g id="Node000007" class="node">
<title>Node7</title>
<g id="a_Node000007"><a xlink:href="structMayaFlux_1_1Registry_1_1Service_1_1ComputeService.html" target="_top" xlink:title="Backend compute shader and pipeline service interface.">
<polygon fill="white" stroke="transparent" points="479,-1898 324,-1898 324,-1763 479,-1763 479,-1898"/>
<text text-anchor="start" x="337.5" y="-1885.5" font-family="Helvetica,sans-Serif" font-size="10.00">MayaFlux::Registry</text>
<text text-anchor="start" x="337.5" y="-1874.5" font-family="Helvetica,sans-Serif" font-size="10.00">::Service::ComputeService</text>
<text text-anchor="start" x="328.5" y="-1859.5" font-family="Helvetica,sans-Serif" font-size="10.00">+</text>
<text text-anchor="start" x="341.5" y="-1859.5" font-family="Helvetica,sans-Serif" font-size="10.00">cleanup_resource</text>
<text text-anchor="start" x="328.5" y="-1844.5" font-family="Helvetica,sans-Serif" font-size="10.00">+</text>
<text text-anchor="start" x="341.5" y="-1844.5" font-family="Helvetica,sans-Serif" font-size="10.00">create_compute_pipeline</text>
<text text-anchor="start" x="328.5" y="-1829.5" font-family="Helvetica,sans-Serif" font-size="10.00">+</text>
<text text-anchor="start" x="341.5" y="-1829.5" font-family="Helvetica,sans-Serif" font-size="10.00">create_descriptor_layout</text>
<text text-anchor="start" x="328.5" y="-1814.5" font-family="Helvetica,sans-Serif" font-size="10.00">+</text>
<text text-anchor="start" x="341.5" y="-1814.5" font-family="Helvetica,sans-Serif" font-size="10.00">create_descriptor_manager</text>
<text text-anchor="start" x="328.5" y="-1799.5" font-family="Helvetica,sans-Serif" font-size="10.00">+</text>
<text text-anchor="start" x="341.5" y="-1799.5" font-family="Helvetica,sans-Serif" font-size="10.00">create_shader_module</text>
<text text-anchor="start" x="328.5" y="-1784.5" font-family="Helvetica,sans-Serif" font-size="10.00">+</text>
<text text-anchor="start" x="341.5" y="-1784.5" font-family="Helvetica,sans-Serif" font-size="10.00">dispatch_compute</text>
<text text-anchor="start" x="400" y="-1769.5" font-family="Helvetica,sans-Serif" font-size="10.00"> </text>
<polygon fill="#666666" stroke="#666666" points="324.5,-1869.5 324.5,-1869.5 479.5,-1869.5 479.5,-1869.5 324.5,-1869.5"/>
<polygon fill="#666666" stroke="#666666" points="324.5,-1779.5 324.5,-1779.5 339.5,-1779.5 339.5,-1779.5 324.5,-1779.5"/>
<polygon fill="#666666" stroke="#666666" points="339.5,-1779.5 339.5,-1779.5 479.5,-1779.5 479.5,-1779.5 339.5,-1779.5"/>
<polygon fill="none" stroke="#666666" points="324,-1763 324,-1898 479,-1898 479,-1763 324,-1763"/>
</a>
</g>
</g>
<!-- Node7&#45;&gt;Node4 -->
<g id="edge6_Node000004_Node000007" class="edge">
<title>Node7&#45;&gt;Node4</title>
<g id="a_edge6_Node000004_Node000007"><a xlink:title=" ">
<path fill="none" stroke="#63b8ff" d="M377.43,-1762.8C365.38,-1734.05 349.14,-1700.92 329.5,-1674 327.75,-1671.6 311.94,-1656.89 293.39,-1639.91"/>
<polygon fill="none" stroke="#63b8ff" points="293.28,-1639.8 286.15,-1638.71 284.42,-1631.71 291.54,-1632.8 293.28,-1639.8"/>
</a>
</g>
<text text-anchor="middle" x="390.5" y="-1677" font-family="Helvetica,sans-Serif" font-size="10.00" fill="grey"> #m_compute_service</text>
</g>
<!-- Node8 -->
<g id="Node000008" class="node">
<title>Node8</title>
<g id="a_Node000008"><a xlink:href="structMayaFlux_1_1Buffers_1_1ShaderConfig.html" target="_top" xlink:title=" ">
<polygon fill="white" stroke="transparent" points="462.5,-1656 320.5,-1656 320.5,-1506 462.5,-1506 462.5,-1656"/>
<text text-anchor="start" x="344" y="-1644" font-family="Helvetica,sans-Serif" font-size="10.00">MayaFlux::Buffers::</text>
<text text-anchor="start" x="359" y="-1633" font-family="Helvetica,sans-Serif" font-size="10.00">ShaderConfig</text>
<text text-anchor="start" x="324.5" y="-1618" font-family="Helvetica,sans-Serif" font-size="10.00">+</text>
<text text-anchor="start" x="337.5" y="-1618" font-family="Helvetica,sans-Serif" font-size="10.00">bindings</text>
<text text-anchor="start" x="324.5" y="-1603" font-family="Helvetica,sans-Serif" font-size="10.00">+</text>
<text text-anchor="start" x="337.5" y="-1603" font-family="Helvetica,sans-Serif" font-size="10.00">entry_point</text>
<text text-anchor="start" x="324.5" y="-1588" font-family="Helvetica,sans-Serif" font-size="10.00">+</text>
<text text-anchor="start" x="337.5" y="-1588" font-family="Helvetica,sans-Serif" font-size="10.00">push_constant_size</text>
<text text-anchor="start" x="324.5" y="-1573" font-family="Helvetica,sans-Serif" font-size="10.00">+</text>
<text text-anchor="start" x="337.5" y="-1573" font-family="Helvetica,sans-Serif" font-size="10.00">shader_path</text>
<text text-anchor="start" x="324.5" y="-1558" font-family="Helvetica,sans-Serif" font-size="10.00">+</text>
<text text-anchor="start" x="337.5" y="-1558" font-family="Helvetica,sans-Serif" font-size="10.00">specialization_constants</text>
<text text-anchor="start" x="324.5" y="-1543" font-family="Helvetica,sans-Serif" font-size="10.00">+</text>
<text text-anchor="start" x="337.5" y="-1543" font-family="Helvetica,sans-Serif" font-size="10.00">stage</text>
<text text-anchor="start" x="324.5" y="-1528" font-family="Helvetica,sans-Serif" font-size="10.00">+</text>
<text text-anchor="start" x="337.5" y="-1528" font-family="Helvetica,sans-Serif" font-size="10.00">ShaderConfig()</text>
<text text-anchor="start" x="324.5" y="-1513" font-family="Helvetica,sans-Serif" font-size="10.00">+</text>
<text text-anchor="start" x="337.5" y="-1513" font-family="Helvetica,sans-Serif" font-size="10.00">ShaderConfig()</text>
<polygon fill="#666666" stroke="#666666" points="320.5,-1628 320.5,-1628 462.5,-1628 462.5,-1628 320.5,-1628"/>
<polygon fill="#666666" stroke="#666666" points="320.5,-1538 320.5,-1538 335.5,-1538 335.5,-1538 320.5,-1538"/>
<polygon fill="#666666" stroke="#666666" points="335.5,-1538 335.5,-1538 462.5,-1538 462.5,-1538 335.5,-1538"/>
<polygon fill="none" stroke="#666666" points="320.5,-1506 320.5,-1656 462.5,-1656 462.5,-1506 320.5,-1506"/>
</a>
</g>
</g>
<!-- Node8&#45;&gt;Node3 -->
<g id="edge7_Node000003_Node000008" class="edge">
<title>Node8&#45;&gt;Node3</title>
<g id="a_edge7_Node000003_Node000008"><a xlink:title=" ">
<path fill="none" stroke="#63b8ff" d="M377.67,-1505.8C375.66,-1495.06 373.5,-1483.47 371.23,-1471.27"/>
<polygon fill="none" stroke="#63b8ff" points="371.22,-1471.19 366.18,-1466.02 369.02,-1459.39 374.05,-1464.56 371.22,-1471.19"/>
</a>
</g>
<text text-anchor="middle" x="402.5" y="-1480" font-family="Helvetica,sans-Serif" font-size="10.00" fill="grey"> #m_config</text>
</g>
<!-- Node9 -->
<g id="Node000009" class="node">
<title>Node9</title>
<g id="a_Node000009"><a xlink:href="structMayaFlux_1_1Buffers_1_1ShaderDispatchConfig.html" target="_top" xlink:title="Configuration for compute shader dispatch.">
<polygon fill="white" stroke="transparent" points="539.5,-1227 403.5,-1227 403.5,-1062 539.5,-1062 539.5,-1227"/>
<text text-anchor="start" x="417.5" y="-1214.5" font-family="Helvetica,sans-Serif" font-size="10.00">MayaFlux::Buffers::</text>
<text text-anchor="start" x="417.5" y="-1203.5" font-family="Helvetica,sans-Serif" font-size="10.00">ShaderDispatchConfig</text>
<text text-anchor="start" x="407.5" y="-1188.5" font-family="Helvetica,sans-Serif" font-size="10.00">+</text>
<text text-anchor="start" x="420.5" y="-1188.5" font-family="Helvetica,sans-Serif" font-size="10.00">custom_calculator</text>
<text text-anchor="start" x="407.5" y="-1173.5" font-family="Helvetica,sans-Serif" font-size="10.00">+</text>
<text text-anchor="start" x="420.5" y="-1173.5" font-family="Helvetica,sans-Serif" font-size="10.00">group_count_x</text>
<text text-anchor="start" x="407.5" y="-1158.5" font-family="Helvetica,sans-Serif" font-size="10.00">+</text>
<text text-anchor="start" x="420.5" y="-1158.5" font-family="Helvetica,sans-Serif" font-size="10.00">group_count_y</text>
<text text-anchor="start" x="407.5" y="-1143.5" font-family="Helvetica,sans-Serif" font-size="10.00">+</text>
<text text-anchor="start" x="420.5" y="-1143.5" font-family="Helvetica,sans-Serif" font-size="10.00">group_count_z</text>
<text text-anchor="start" x="407.5" y="-1128.5" font-family="Helvetica,sans-Serif" font-size="10.00">+</text>
<text text-anchor="start" x="420.5" y="-1128.5" font-family="Helvetica,sans-Serif" font-size="10.00">mode</text>
<text text-anchor="start" x="407.5" y="-1113.5" font-family="Helvetica,sans-Serif" font-size="10.00">+</text>
<text text-anchor="start" x="420.5" y="-1113.5" font-family="Helvetica,sans-Serif" font-size="10.00">workgroup_x</text>
<text text-anchor="start" x="407.5" y="-1098.5" font-family="Helvetica,sans-Serif" font-size="10.00">+</text>
<text text-anchor="start" x="420.5" y="-1098.5" font-family="Helvetica,sans-Serif" font-size="10.00">workgroup_y</text>
<text text-anchor="start" x="407.5" y="-1083.5" font-family="Helvetica,sans-Serif" font-size="10.00">+</text>
<text text-anchor="start" x="420.5" y="-1083.5" font-family="Helvetica,sans-Serif" font-size="10.00">workgroup_z</text>
<text text-anchor="start" x="407.5" y="-1068.5" font-family="Helvetica,sans-Serif" font-size="10.00">+</text>
<text text-anchor="start" x="420.5" y="-1068.5" font-family="Helvetica,sans-Serif" font-size="10.00">ShaderDispatchConfig()</text>
<polygon fill="#666666" stroke="#666666" points="403.5,-1198.5 403.5,-1198.5 539.5,-1198.5 539.5,-1198.5 403.5,-1198.5"/>
<polygon fill="#666666" stroke="#666666" points="403.5,-1078.5 403.5,-1078.5 418.5,-1078.5 418.5,-1078.5 403.5,-1078.5"/>
<polygon fill="#666666" stroke="#666666" points="418.5,-1078.5 418.5,-1078.5 539.5,-1078.5 539.5,-1078.5 418.5,-1078.5"/>
<polygon fill="none" stroke="#666666" points="403.5,-1062 403.5,-1227 539.5,-1227 539.5,-1062 403.5,-1062"/>
</a>
</g>
</g>
<!-- Node9&#45;&gt;Node2 -->
<g id="edge8_Node000002_Node000009" class="edge">
<title>Node9&#45;&gt;Node2</title>
<g id="a_edge8_Node000002_Node000009"><a xlink:title=" ">
<path fill="none" stroke="#63b8ff" d="M457.67,-1061.96C445.24,-988.69 426.78,-879.87 412.35,-794.83"/>
<polygon fill="none" stroke="#63b8ff" points="412.35,-794.83 407.41,-789.59 410.35,-783 415.29,-788.25 412.35,-794.83"/>
</a>
</g>
<text text-anchor="middle" x="463.5" y="-804" font-family="Helvetica,sans-Serif" font-size="10.00" fill="grey"> &#45;m_dispatch_config</text>
</g>
</g>
</svg>
