<?xml version="1.0" encoding="UTF-8" standalone="no"?>
<!DOCTYPE svg PUBLIC "-//W3C//DTD SVG 1.1//EN"
 "http://www.w3.org/Graphics/SVG/1.1/DTD/svg11.dtd">
<!-- Generated by graphviz version 2.43.0 (0)
 -->
<!-- Title: MayaFlux::Nexus::StateEncoder::encode Pages: 1 -->
<!--zoomable 417 -->

<svg id="main" version="1.1" xmlns="http://www.w3.org/2000/svg" xmlns:xlink="http://www.w3.org/1999/xlink" xml:space="preserve" onload="init(evt)">
<style type="text/css"><![CDATA[
.node, .edge {opacity: 0.7;}
.node.selected, .edge.selected {opacity: 1;}
.edge:hover path { stroke: red; }
.edge:hover polygon { stroke: red; fill: red; }
]]></style>

<defs>
  <circle id="rim" cx="0" cy="0" r="7"/>
  <circle id="rim2" cx="0" cy="0" r="3.5"/>
  <g id="zoomPlus">
    <use xlink:href="#rim" fill="#404040"><set attributeName="fill" to="#808080" begin="zoomplus.mouseover" end="zoomplus.mouseout"/></use>
    <path d="M-4,0h8M0,-4v8" fill="none" stroke="white" stroke-width="1.5" pointer-events="none"/>
  </g>
  <g id="zoomMin">
    <use xlink:href="#rim" fill="#404040"><set attributeName="fill" to="#808080" begin="zoomminus.mouseover" end="zoomminus.mouseout"/></use>
    <path d="M-4,0h8" fill="none" stroke="white" stroke-width="1.5" pointer-events="none"/>
  </g>
  <g id="arrowUp" transform="translate(30 24)">
    <use xlink:href="#rim"/>
    <path pointer-events="none" fill="none" stroke="white" stroke-width="1.5" d="M0,-3.0v7 M-2.5,-0.5L0,-3.0L2.5,-0.5"/>
  </g>
  <g id="arrowRight" transform="rotate(90) translate(36 -43)">
    <use xlink:href="#rim"/>
    <path pointer-events="none" fill="none" stroke="white" stroke-width="1.5" d="M0,-3.0v7 M-2.5,-0.5L0,-3.0L2.5,-0.5"/>
  </g>
  <g id="arrowDown" transform="rotate(180) translate(-30 -48)">
    <use xlink:href="#rim"/>
    <path pointer-events="none" fill="none" stroke="white" stroke-width="1.5" d="M0,-3.0v7 M-2.5,-0.5L0,-3.0L2.5,-0.5"/>
  </g>
  <g id="arrowLeft" transform="rotate(270) translate(-36 17)">
    <use xlink:href="#rim"/>
    <path pointer-events="none" fill="none" stroke="white" stroke-width="1.5" d="M0,-3.0v7 M-2.5,-0.5L0,-3.0L2.5,-0.5"/>
  </g>
  <g id="resetDef">
    <use xlink:href="#rim2" fill="#404040"><set attributeName="fill" to="#808080" begin="reset.mouseover" end="reset.mouseout"/></use>
  </g>
</defs>
<script type="application/ecmascript">
var viewWidth = 512;
var viewHeight = 417;
var sectionId = 'dynsection-0';
</script>
<script type="application/ecmascript" xlink:href="svg.min.js"/>
<svg id="graph" class="graph">
<g id="viewport">
<title>MayaFlux::Nexus::StateEncoder::encode</title>
<!-- Node1 -->
<g id="Node000001" class="node">
<title>Node1</title>
<g id="a_Node000001"><a xlink:title="Encode the given Fabric to {base_path}.exr and {base_path}.json.">
<polygon fill="#999999" stroke="#666666" points="172,-217 0,-217 0,-187 172,-187 172,-217"/>
<text text-anchor="start" x="8" y="-205" font-family="Helvetica,sans-Serif" font-size="10.00">MayaFlux::Nexus::StateEncoder</text>
<text text-anchor="middle" x="86" y="-194" font-family="Helvetica,sans-Serif" font-size="10.00">::encode</text>
</a>
</g>
</g>
<!-- Node2 -->
<g id="Node000002" class="node">
<title>Node2</title>
<g id="a_Node000002"><a xlink:href="classMayaFlux_1_1Nexus_1_1Fabric_a2557668b6dec4b19b327a57384589f95.html#a2557668b6dec4b19b327a57384589f95" target="_top" xlink:title="List all registered entity ids in insertion order.">
<polygon fill="white" stroke="#666666" points="350,-409 214,-409 214,-379 350,-379 350,-409"/>
<text text-anchor="start" x="222" y="-397" font-family="Helvetica,sans-Serif" font-size="10.00">MayaFlux::Nexus::Fabric</text>
<text text-anchor="middle" x="282" y="-386" font-family="Helvetica,sans-Serif" font-size="10.00">::all_ids</text>
</a>
</g>
</g>
<!-- Node1&#45;&gt;Node2 -->
<g id="edge1_Node000001_Node000002" class="edge">
<title>Node1&#45;&gt;Node2</title>
<g id="a_edge1_Node000001_Node000002"><a xlink:title=" ">
<path fill="none" stroke="#63b8ff" d="M93.98,-217.49C109.6,-250.45 150.58,-327.95 208,-370 209.88,-371.38 211.84,-372.68 213.87,-373.91"/>
<polygon fill="#63b8ff" stroke="#63b8ff" points="212.63,-377.21 223.1,-378.84 215.93,-371.04 212.63,-377.21"/>
</a>
</g>
</g>
<!-- Node3 -->
<g id="Node000003" class="node">
<title>Node3</title>
<g id="a_Node000003"><a xlink:href="classMayaFlux_1_1IO_1_1ImageWriterRegistry_a2460e4fa98bf558cbbd92facd212b0a5.html#a2460e4fa98bf558cbbd92facd212b0a5" target="_top" xlink:title=" ">
<polygon fill="white" stroke="#666666" points="356,-361 208,-361 208,-331 356,-331 356,-361"/>
<text text-anchor="start" x="216" y="-349" font-family="Helvetica,sans-Serif" font-size="10.00">MayaFlux::IO::ImageWriter</text>
<text text-anchor="middle" x="282" y="-338" font-family="Helvetica,sans-Serif" font-size="10.00">Registry::create_writer</text>
</a>
</g>
</g>
<!-- Node1&#45;&gt;Node3 -->
<g id="edge2_Node000001_Node000003" class="edge">
<title>Node1&#45;&gt;Node3</title>
<g id="a_edge2_Node000001_Node000003"><a xlink:title=" ">
<path fill="none" stroke="#63b8ff" d="M98.35,-217.16C118,-242.4 160.82,-293.11 208,-322 210.79,-323.71 213.71,-325.31 216.72,-326.8"/>
<polygon fill="#63b8ff" stroke="#63b8ff" points="215.38,-330.04 225.93,-331 218.28,-323.67 215.38,-330.04"/>
</a>
</g>
</g>
<!-- Node4 -->
<g id="Node000004" class="node">
<title>Node4</title>
<g id="a_Node000004"><a xlink:href="classMayaFlux_1_1Nexus_1_1Fabric_ab79a83afbad5b153aa846fef92f2e4fc.html#ab79a83afbad5b153aa846fef92f2e4fc" target="_top" xlink:title="Get the Agent registered under id.">
<polygon fill="white" stroke="#666666" points="350,-313 214,-313 214,-283 350,-283 350,-313"/>
<text text-anchor="start" x="222" y="-301" font-family="Helvetica,sans-Serif" font-size="10.00">MayaFlux::Nexus::Fabric</text>
<text text-anchor="middle" x="282" y="-290" font-family="Helvetica,sans-Serif" font-size="10.00">::get_agent</text>
</a>
</g>
</g>
<!-- Node1&#45;&gt;Node4 -->
<g id="edge3_Node000001_Node000004" class="edge">
<title>Node1&#45;&gt;Node4</title>
<g id="a_edge3_Node000001_Node000004"><a xlink:title=" ">
<path fill="none" stroke="#63b8ff" d="M108.95,-217.07C132.6,-232.82 171.74,-257.49 208,-274 212.07,-275.85 216.33,-277.63 220.65,-279.33"/>
<polygon fill="#63b8ff" stroke="#63b8ff" points="219.59,-282.67 230.18,-282.89 222.04,-276.11 219.59,-282.67"/>
</a>
</g>
</g>
<!-- Node5 -->
<g id="Node000005" class="node">
<title>Node5</title>
<g id="a_Node000005"><a xlink:href="classMayaFlux_1_1Nexus_1_1Fabric_ae00cd0d71eb5d5cb4795d7fe6153456a.html#ae00cd0d71eb5d5cb4795d7fe6153456a" target="_top" xlink:title="Get the Emitter registered under id.">
<polygon fill="white" stroke="#666666" points="350,-265 214,-265 214,-235 350,-235 350,-265"/>
<text text-anchor="start" x="222" y="-253" font-family="Helvetica,sans-Serif" font-size="10.00">MayaFlux::Nexus::Fabric</text>
<text text-anchor="middle" x="282" y="-242" font-family="Helvetica,sans-Serif" font-size="10.00">::get_emitter</text>
</a>
</g>
</g>
<!-- Node1&#45;&gt;Node5 -->
<g id="edge4_Node000001_Node000005" class="edge">
<title>Node1&#45;&gt;Node5</title>
<g id="a_edge4_Node000001_Node000005"><a xlink:title=" ">
<path fill="none" stroke="#63b8ff" d="M147.85,-217.06C167.71,-221.97 189.94,-227.47 210.45,-232.54"/>
<polygon fill="#63b8ff" stroke="#63b8ff" points="209.82,-235.99 220.37,-235 211.5,-229.2 209.82,-235.99"/>
</a>
</g>
</g>
<!-- Node6 -->
<g id="Node000006" class="node">
<title>Node6</title>
<g id="a_Node000006"><a xlink:href="classMayaFlux_1_1Nexus_1_1Fabric_a0bc3c28aabf0452b2692e724162a5fb6.html#a0bc3c28aabf0452b2692e724162a5fb6" target="_top" xlink:title="Get the Sensor registered under id.">
<polygon fill="white" stroke="#666666" points="350,-217 214,-217 214,-187 350,-187 350,-217"/>
<text text-anchor="start" x="222" y="-205" font-family="Helvetica,sans-Serif" font-size="10.00">MayaFlux::Nexus::Fabric</text>
<text text-anchor="middle" x="282" y="-194" font-family="Helvetica,sans-Serif" font-size="10.00">::get_sensor</text>
</a>
</g>
</g>
<!-- Node1&#45;&gt;Node6 -->
<g id="edge5_Node000001_Node000006" class="edge">
<title>Node1&#45;&gt;Node6</title>
<g id="a_edge5_Node000001_Node000006"><a xlink:title=" ">
<path fill="none" stroke="#63b8ff" d="M172.09,-202C182.55,-202 193.2,-202 203.54,-202"/>
<polygon fill="#63b8ff" stroke="#63b8ff" points="203.76,-205.5 213.76,-202 203.76,-198.5 203.76,-205.5"/>
</a>
</g>
</g>
<!-- Node7 -->
<g id="Node000007" class="node">
<title>Node7</title>
<g id="a_Node000007"><a xlink:href="classMayaFlux_1_1IO_1_1ImageWriterRegistry_a25caa467f66d3d18650bdffcc77b8125.html#a25caa467f66d3d18650bdffcc77b8125" target="_top" xlink:title=" ">
<polygon fill="white" stroke="#666666" points="356,-169 208,-169 208,-139 356,-139 356,-169"/>
<text text-anchor="start" x="216" y="-157" font-family="Helvetica,sans-Serif" font-size="10.00">MayaFlux::IO::ImageWriter</text>
<text text-anchor="middle" x="282" y="-146" font-family="Helvetica,sans-Serif" font-size="10.00">Registry::instance</text>
</a>
</g>
</g>
<!-- Node1&#45;&gt;Node7 -->
<g id="edge6_Node000001_Node000007" class="edge">
<title>Node1&#45;&gt;Node7</title>
<g id="a_edge6_Node000001_Node000007"><a xlink:title=" ">
<path fill="none" stroke="#63b8ff" d="M147.85,-186.94C167.71,-182.03 189.94,-176.53 210.45,-171.46"/>
<polygon fill="#63b8ff" stroke="#63b8ff" points="211.5,-174.8 220.37,-169 209.82,-168.01 211.5,-174.8"/>
</a>
</g>
</g>
<!-- Node8 -->
<g id="Node000008" class="node">
<title>Node8</title>
<g id="a_Node000008"><a xlink:href="classMayaFlux_1_1Nexus_1_1Fabric_abf266806b445883a743ada674ecc06d0.html#abf266806b445883a743ada674ecc06d0" target="_top" xlink:title="Return the kind of entity registered under id.">
<polygon fill="white" stroke="#666666" points="350,-121 214,-121 214,-91 350,-91 350,-121"/>
<text text-anchor="start" x="222" y="-109" font-family="Helvetica,sans-Serif" font-size="10.00">MayaFlux::Nexus::Fabric</text>
<text text-anchor="middle" x="282" y="-98" font-family="Helvetica,sans-Serif" font-size="10.00">::kind</text>
</a>
</g>
</g>
<!-- Node1&#45;&gt;Node8 -->
<g id="edge7_Node000001_Node000008" class="edge">
<title>Node1&#45;&gt;Node8</title>
<g id="a_edge7_Node000001_Node000008"><a xlink:title=" ">
<path fill="none" stroke="#63b8ff" d="M108.95,-186.93C132.6,-171.18 171.74,-146.51 208,-130 212.07,-128.15 216.33,-126.37 220.65,-124.67"/>
<polygon fill="#63b8ff" stroke="#63b8ff" points="222.04,-127.89 230.18,-121.11 219.59,-121.33 222.04,-127.89"/>
</a>
</g>
</g>
<!-- Node9 -->
<g id="Node000009" class="node">
<title>Node9</title>
<g id="a_Node000009"><a xlink:href="classMayaFlux_1_1Nexus_1_1Fabric_abe4bf318d5e96e6abd7e0d8a06368407.html#abe4bf318d5e96e6abd7e0d8a06368407" target="_top" xlink:title="Assigned name, empty if the Fabric was constructed outside a Tapestry.">
<polygon fill="white" stroke="#666666" points="350,-73 214,-73 214,-43 350,-43 350,-73"/>
<text text-anchor="start" x="222" y="-61" font-family="Helvetica,sans-Serif" font-size="10.00">MayaFlux::Nexus::Fabric</text>
<text text-anchor="middle" x="282" y="-50" font-family="Helvetica,sans-Serif" font-size="10.00">::name</text>
</a>
</g>
</g>
<!-- Node1&#45;&gt;Node9 -->
<g id="edge8_Node000001_Node000009" class="edge">
<title>Node1&#45;&gt;Node9</title>
<g id="a_edge8_Node000001_Node000009"><a xlink:title=" ">
<path fill="none" stroke="#63b8ff" d="M98.35,-186.84C118,-161.6 160.82,-110.89 208,-82 210.79,-80.29 213.71,-78.69 216.72,-77.2"/>
<polygon fill="#63b8ff" stroke="#63b8ff" points="218.28,-80.33 225.93,-73 215.38,-73.96 218.28,-80.33"/>
</a>
</g>
</g>
<!-- Node10 -->
<g id="Node000010" class="node">
<title>Node10</title>
<g id="a_Node000010"><a xlink:href="namespaceMayaFlux_a878fe1820a72f64efebc516b1749f77d.html#a878fe1820a72f64efebc516b1749f77d" target="_top" xlink:title="Normalize single&#45;channel data to specified peak level (in&#45;place)">
<polygon fill="white" stroke="#666666" points="341.5,-24.5 222.5,-24.5 222.5,-5.5 341.5,-5.5 341.5,-24.5"/>
<text text-anchor="middle" x="282" y="-12.5" font-family="Helvetica,sans-Serif" font-size="10.00">MayaFlux::normalize</text>
</a>
</g>
</g>
<!-- Node1&#45;&gt;Node10 -->
<g id="edge9_Node000001_Node000010" class="edge">
<title>Node1&#45;&gt;Node10</title>
<g id="a_edge9_Node000001_Node000010"><a xlink:title=" ">
<path fill="none" stroke="#63b8ff" d="M93.44,-186.98C108.4,-153.92 148.84,-74.53 208,-34 210.9,-32.02 213.99,-30.24 217.2,-28.65"/>
<polygon fill="#63b8ff" stroke="#63b8ff" points="218.71,-31.81 226.51,-24.63 215.95,-25.38 218.71,-31.81"/>
</a>
</g>
</g>
<!-- Node11 -->
<g id="Node000011" class="node">
<title>Node11</title>
<g id="a_Node000011"><a xlink:href="namespaceMayaFlux_1_1Kinesis_1_1Discrete_aa7fcdee057518b1d482864a610ee0b5a.html#aa7fcdee057518b1d482864a610ee0b5a" target="_top" xlink:title="Normalize to [target_min, target_max] in&#45;place Single&#45;pass min/max reduction followed by a single tra...">
<polygon fill="white" stroke="#666666" points="504,-30 392,-30 392,0 504,0 504,-30"/>
<text text-anchor="start" x="400" y="-18" font-family="Helvetica,sans-Serif" font-size="10.00">MayaFlux::Kinesis::</text>
<text text-anchor="middle" x="448" y="-7" font-family="Helvetica,sans-Serif" font-size="10.00">Discrete::normalize</text>
</a>
</g>
</g>
<!-- Node10&#45;&gt;Node11 -->
<g id="edge10_Node000010_Node000011" class="edge">
<title>Node10&#45;&gt;Node11</title>
<g id="a_edge10_Node000010_Node000011"><a xlink:title=" ">
<path fill="none" stroke="#63b8ff" d="M341.74,-15C354.78,-15 368.67,-15 381.95,-15"/>
<polygon fill="#63b8ff" stroke="#63b8ff" points="381.95,-18.5 391.95,-15 381.95,-11.5 381.95,-18.5"/>
</a>
</g>
</g>
</g>
</svg>

<g id="navigator" transform="translate(0 0)" fill="#404254">
  <rect fill="#f2f5e9" fill-opacity="0.5" stroke="#606060" stroke-width=".5" x="0" y="0" width="60" height="60"/>
  <use id="zoomplus" xlink:href="#zoomPlus" x="17" y="9" onmousedown="handleZoom(evt,'in')"/>
  <use id="zoomminus" xlink:href="#zoomMin" x="42" y="9" onmousedown="handleZoom(evt,'out')"/>
  <use id="reset" xlink:href="#resetDef" x="30" y="36" onmousedown="handleReset()"/>
   <use id="arrowup" xlink:href="#arrowUp" x="0" y="0" onmousedown="handlePan(0,-1)"/>
  <use id="arrowright" xlink:href="#arrowRight" x="0" y="0" onmousedown="handlePan(1,0)"/>
  <use id="arrowdown" xlink:href="#arrowDown" x="0" y="0" onmousedown="handlePan(0,1)"/>
  <use id="arrowleft" xlink:href="#arrowLeft" x="0" y="0" onmousedown="handlePan(-1,0)"/>
</g>
<svg viewBox="0 0 15 15" width="100%" height="30px" preserveAspectRatio="xMaxYMin meet">
 <g id="arrow_out" transform="scale(0.3 0.3)">
  <a xlink:href="classMayaFlux_1_1Nexus_1_1StateEncoder_ad8fc616eab6adf9f0af8ec03db3f3b3e_ad8fc616eab6adf9f0af8ec03db3f3b3e_cgraph_org.svg" target="_base">
   <rect id="button" ry="5" rx="5" y="6" x="6" height="38" width="38"
        fill="#f2f5e9" fill-opacity="0.5" stroke="#606060" stroke-width="1.0"/>
   <path id="arrow"
     d="M 11.500037,31.436501 C 11.940474,20.09759 22.043105,11.32322 32.158766,21.979434 L 37.068811,17.246167 C 37.068811,17.246167 37.088388,32 37.088388,32 L 22.160133,31.978069 C 22.160133,31.978069 26.997745,27.140456 26.997745,27.140456 C 18.528582,18.264221 13.291696,25.230495 11.500037,31.436501 z"
     style="fill:#404040;"/>
  </a>
 </g>
</svg>

<style type='text/css'>
<![CDATA[
[data-mouse-over-selected='false'] { opacity: 0.7; }
[data-mouse-over-selected='true']  { opacity: 1.0; }
]]>
</style>
<script type="application/ecmascript"><![CDATA[
document.addEventListener('DOMContentLoaded', (event) => {
  highlightEdges();
  highlightAdjacentNodes();
});
]]></script>
</svg>
