<?xml version="1.0" encoding="UTF-8" standalone="no"?>
<!DOCTYPE svg PUBLIC "-//W3C//DTD SVG 1.1//EN"
 "http://www.w3.org/Graphics/SVG/1.1/DTD/svg11.dtd">
<!-- Generated by graphviz version 2.43.0 (0)
 -->
<!-- Title: MayaFlux::IO::ImageWriter Pages: 1 -->
<svg width="344pt" height="367pt"
 viewBox="0.00 0.00 344.00 367.00" xmlns="http://www.w3.org/2000/svg" xmlns:xlink="http://www.w3.org/1999/xlink">

<svg id="main" version="1.1" xmlns="http://www.w3.org/2000/svg" xmlns:xlink="http://www.w3.org/1999/xlink" xml:space="preserve" onload="init(evt)">
<style type="text/css"><![CDATA[
.node, .edge {opacity: 0.7;}
.node.selected, .edge.selected {opacity: 1;}
.edge:hover path { stroke: red; }
.edge:hover polygon { stroke: red; fill: red; }
]]></style>
<script type="application/ecmascript" xlink:href="svg.min.js"/>
<svg id="graph" class="graph">
<g id="graph0" class="graph" transform="scale(1 1) rotate(0) translate(4 363)">
<title>MayaFlux::IO::ImageWriter</title>
<!-- Node1 -->
<g id="Node000001" class="node">
<title>Node1</title>
<g id="a_Node000001"><a xlink:title="Abstract base for image format writers.">
<polygon fill="#999999" stroke="transparent" points="245,-359 88,-359 88,-250 245,-250 245,-359"/>
<text text-anchor="start" x="101" y="-346.5" font-family="Helvetica,sans-Serif" font-size="10.00">MayaFlux::IO::ImageWriter</text>
<text text-anchor="start" x="165" y="-331.5" font-family="Helvetica,sans-Serif" font-size="10.00"> </text>
<text text-anchor="start" x="92.5" y="-316.5" font-family="Helvetica,sans-Serif" font-size="10.00">+</text>
<text text-anchor="start" x="105.5" y="-316.5" font-family="Helvetica,sans-Serif" font-size="10.00">can_write()</text>
<text text-anchor="start" x="92.5" y="-301.5" font-family="Helvetica,sans-Serif" font-size="10.00">+</text>
<text text-anchor="start" x="105.5" y="-301.5" font-family="Helvetica,sans-Serif" font-size="10.00">get_last_error()</text>
<text text-anchor="start" x="92.5" y="-286.5" font-family="Helvetica,sans-Serif" font-size="10.00">+</text>
<text text-anchor="start" x="105.5" y="-286.5" font-family="Helvetica,sans-Serif" font-size="10.00">get_supported_extensions()</text>
<text text-anchor="start" x="92.5" y="-271.5" font-family="Helvetica,sans-Serif" font-size="10.00">+</text>
<text text-anchor="start" x="105.5" y="-271.5" font-family="Helvetica,sans-Serif" font-size="10.00">write()</text>
<text text-anchor="start" x="92.5" y="-256.5" font-family="Helvetica,sans-Serif" font-size="10.00">+</text>
<text text-anchor="start" x="105.5" y="-256.5" font-family="Helvetica,sans-Serif" font-size="10.00">~ImageWriter()</text>
<polygon fill="#666666" stroke="#666666" points="88.5,-341.5 88.5,-341.5 245.5,-341.5 245.5,-341.5 88.5,-341.5"/>
<polygon fill="#666666" stroke="#666666" points="88.5,-326.5 88.5,-326.5 245.5,-326.5 245.5,-326.5 88.5,-326.5"/>
<polygon fill="none" stroke="#666666" points="88,-250 88,-359 245,-359 245,-250 88,-250"/>
</a>
</g>
</g>
<!-- Node2 -->
<g id="Node000002" class="node">
<title>Node2</title>
<g id="a_Node000002"><a xlink:href="classMayaFlux_1_1IO_1_1EXRWriter.html" target="_top" xlink:title="ImageWriter implementation backed by tinyexr.">
<polygon fill="white" stroke="transparent" points="157,-191.5 0,-191.5 0,-22.5 157,-22.5 157,-191.5"/>
<text text-anchor="start" x="18.5" y="-179" font-family="Helvetica,sans-Serif" font-size="10.00">MayaFlux::IO::EXRWriter</text>
<text text-anchor="start" x="7" y="-164" font-family="Helvetica,sans-Serif" font-size="10.00">&#45;</text>
<text text-anchor="start" x="17.5" y="-164" font-family="Helvetica,sans-Serif" font-size="10.00">m_last_error</text>
<text text-anchor="start" x="4.5" y="-149" font-family="Helvetica,sans-Serif" font-size="10.00">+</text>
<text text-anchor="start" x="17.5" y="-149" font-family="Helvetica,sans-Serif" font-size="10.00">can_write()</text>
<text text-anchor="start" x="4.5" y="-134" font-family="Helvetica,sans-Serif" font-size="10.00">+</text>
<text text-anchor="start" x="17.5" y="-134" font-family="Helvetica,sans-Serif" font-size="10.00">EXRWriter()</text>
<text text-anchor="start" x="4.5" y="-119" font-family="Helvetica,sans-Serif" font-size="10.00">+</text>
<text text-anchor="start" x="17.5" y="-119" font-family="Helvetica,sans-Serif" font-size="10.00">get_last_error()</text>
<text text-anchor="start" x="4.5" y="-104" font-family="Helvetica,sans-Serif" font-size="10.00">+</text>
<text text-anchor="start" x="17.5" y="-104" font-family="Helvetica,sans-Serif" font-size="10.00">get_supported_extensions()</text>
<text text-anchor="start" x="4.5" y="-89" font-family="Helvetica,sans-Serif" font-size="10.00">+</text>
<text text-anchor="start" x="17.5" y="-89" font-family="Helvetica,sans-Serif" font-size="10.00">write()</text>
<text text-anchor="start" x="4.5" y="-74" font-family="Helvetica,sans-Serif" font-size="10.00">+</text>
<text text-anchor="start" x="17.5" y="-74" font-family="Helvetica,sans-Serif" font-size="10.00">~EXRWriter()</text>
<text text-anchor="start" x="4.5" y="-59" font-family="Helvetica,sans-Serif" font-size="10.00">+</text>
<text text-anchor="start" x="17.5" y="-59" font-family="Helvetica,sans-Serif" font-size="10.00">register_with_registry()</text>
<text text-anchor="start" x="7" y="-44" font-family="Helvetica,sans-Serif" font-size="10.00">&#45;</text>
<text text-anchor="start" x="17.5" y="-44" font-family="Helvetica,sans-Serif" font-size="10.00">resolve_channel_names()</text>
<text text-anchor="start" x="7" y="-29" font-family="Helvetica,sans-Serif" font-size="10.00">&#45;</text>
<text text-anchor="start" x="17.5" y="-29" font-family="Helvetica,sans-Serif" font-size="10.00">deinterleave()</text>
<polygon fill="#666666" stroke="#666666" points="0.5,-174 0.5,-174 157.5,-174 157.5,-174 0.5,-174"/>
<polygon fill="#666666" stroke="#666666" points="0.5,-159 0.5,-159 15.5,-159 15.5,-159 0.5,-159"/>
<polygon fill="#666666" stroke="#666666" points="15.5,-159 15.5,-159 157.5,-159 157.5,-159 15.5,-159"/>
<polygon fill="none" stroke="#666666" points="0,-22.5 0,-191.5 157,-191.5 157,-22.5 0,-22.5"/>
</a>
</g>
</g>
<!-- Node1&#45;&gt;Node2 -->
<g id="edge1_Node000001_Node000002" class="edge">
<title>Node1&#45;&gt;Node2</title>
<g id="a_edge1_Node000001_Node000002"><a xlink:title=" ">
<path fill="none" stroke="#63b8ff" d="M138.07,-240.35C131.09,-224.83 123.5,-207.97 116.15,-191.65"/>
<polygon fill="none" stroke="#63b8ff" points="135.04,-242.14 142.34,-249.82 141.42,-239.26 135.04,-242.14"/>
</a>
</g>
</g>
<!-- Node3 -->
<g id="Node000003" class="node">
<title>Node3</title>
<g id="a_Node000003"><a xlink:href="classMayaFlux_1_1IO_1_1STBImageWriter.html" target="_top" xlink:title="ImageWriter implementation backed by stb_image_write.">
<polygon fill="white" stroke="transparent" points="336,-214 175,-214 175,0 336,0 336,-214"/>
<text text-anchor="start" x="180.5" y="-202" font-family="Helvetica,sans-Serif" font-size="10.00">MayaFlux::IO::STBImageWriter</text>
<text text-anchor="start" x="183" y="-187" font-family="Helvetica,sans-Serif" font-size="10.00">&#45;</text>
<text text-anchor="start" x="194.5" y="-187" font-family="Helvetica,sans-Serif" font-size="10.00">m_last_error</text>
<text text-anchor="start" x="180.5" y="-172" font-family="Helvetica,sans-Serif" font-size="10.00">+</text>
<text text-anchor="start" x="194.5" y="-172" font-family="Helvetica,sans-Serif" font-size="10.00">can_write()</text>
<text text-anchor="start" x="180.5" y="-157" font-family="Helvetica,sans-Serif" font-size="10.00">+</text>
<text text-anchor="start" x="194.5" y="-157" font-family="Helvetica,sans-Serif" font-size="10.00">get_last_error()</text>
<text text-anchor="start" x="180.5" y="-142" font-family="Helvetica,sans-Serif" font-size="10.00">+</text>
<text text-anchor="start" x="194.5" y="-142" font-family="Helvetica,sans-Serif" font-size="10.00">get_supported_extensions()</text>
<text text-anchor="start" x="180.5" y="-127" font-family="Helvetica,sans-Serif" font-size="10.00">+</text>
<text text-anchor="start" x="194.5" y="-127" font-family="Helvetica,sans-Serif" font-size="10.00">STBImageWriter()</text>
<text text-anchor="start" x="180.5" y="-112" font-family="Helvetica,sans-Serif" font-size="10.00">+</text>
<text text-anchor="start" x="194.5" y="-112" font-family="Helvetica,sans-Serif" font-size="10.00">write()</text>
<text text-anchor="start" x="180.5" y="-97" font-family="Helvetica,sans-Serif" font-size="10.00">+</text>
<text text-anchor="start" x="194.5" y="-97" font-family="Helvetica,sans-Serif" font-size="10.00">~STBImageWriter()</text>
<text text-anchor="start" x="180.5" y="-82" font-family="Helvetica,sans-Serif" font-size="10.00">+</text>
<text text-anchor="start" x="194.5" y="-82" font-family="Helvetica,sans-Serif" font-size="10.00">register_with_registry()</text>
<text text-anchor="start" x="183" y="-67" font-family="Helvetica,sans-Serif" font-size="10.00">&#45;</text>
<text text-anchor="start" x="194.5" y="-67" font-family="Helvetica,sans-Serif" font-size="10.00">write_bmp()</text>
<text text-anchor="start" x="183" y="-52" font-family="Helvetica,sans-Serif" font-size="10.00">&#45;</text>
<text text-anchor="start" x="194.5" y="-52" font-family="Helvetica,sans-Serif" font-size="10.00">write_hdr()</text>
<text text-anchor="start" x="183" y="-37" font-family="Helvetica,sans-Serif" font-size="10.00">&#45;</text>
<text text-anchor="start" x="194.5" y="-37" font-family="Helvetica,sans-Serif" font-size="10.00">write_jpg()</text>
<text text-anchor="start" x="183" y="-22" font-family="Helvetica,sans-Serif" font-size="10.00">&#45;</text>
<text text-anchor="start" x="194.5" y="-22" font-family="Helvetica,sans-Serif" font-size="10.00">write_png()</text>
<text text-anchor="start" x="183" y="-7" font-family="Helvetica,sans-Serif" font-size="10.00">&#45;</text>
<text text-anchor="start" x="194.5" y="-7" font-family="Helvetica,sans-Serif" font-size="10.00">write_tga()</text>
<polygon fill="#666666" stroke="#666666" points="175.5,-197 175.5,-197 336.5,-197 336.5,-197 175.5,-197"/>
<polygon fill="#666666" stroke="#666666" points="175.5,-182 175.5,-182 192.5,-182 192.5,-182 175.5,-182"/>
<polygon fill="#666666" stroke="#666666" points="192.5,-182 192.5,-182 336.5,-182 336.5,-182 192.5,-182"/>
<polygon fill="none" stroke="#666666" points="175,0 175,-214 336,-214 336,0 175,0"/>
</a>
</g>
</g>
<!-- Node1&#45;&gt;Node3 -->
<g id="edge2_Node000001_Node000003" class="edge">
<title>Node1&#45;&gt;Node3</title>
<g id="a_edge2_Node000001_Node000003"><a xlink:title=" ">
<path fill="none" stroke="#63b8ff" d="M195.08,-240.71C198.98,-232.15 203.06,-223.18 207.19,-214.12"/>
<polygon fill="none" stroke="#63b8ff" points="191.9,-239.27 190.94,-249.82 198.27,-242.17 191.9,-239.27"/>
</a>
</g>
</g>
</g>
</svg>
</svg>

<style type='text/css'>
<![CDATA[
[data-mouse-over-selected='false'] { opacity: 0.7; }
[data-mouse-over-selected='true']  { opacity: 1.0; }
]]>
</style>
<script type="application/ecmascript"><![CDATA[
document.addEventListener('DOMContentLoaded', (event) => {
  highlightEdges();
  highlightAdjacentNodes();
});
]]></script>
</svg>
