<?xml version="1.0" encoding="UTF-8" standalone="no"?>
<!DOCTYPE svg PUBLIC "-//W3C//DTD SVG 1.1//EN"
 "http://www.w3.org/Graphics/SVG/1.1/DTD/svg11.dtd">
<!-- Generated by graphviz version 2.43.0 (0)
 -->
<!-- Title: MayaFlux::Yantra::OperationHelper::reconstruct_data_variant_from_double Pages: 1 -->
<svg width="831pt" height="159pt"
 viewBox="0.00 0.00 831.00 159.00" xmlns="http://www.w3.org/2000/svg" xmlns:xlink="http://www.w3.org/1999/xlink">
<g id="graph0" class="graph" transform="scale(1 1) rotate(0) translate(4 155)">
<title>MayaFlux::Yantra::OperationHelper::reconstruct_data_variant_from_double</title>
<!-- Node1 -->
<g id="Node000001" class="node">
<title>Node1</title>
<g id="a_Node000001"><a xlink:title="Reconstruct DataVariant from double data and structure info.">
<polygon fill="#999999" stroke="#666666" points="155,-83.5 0,-83.5 0,-42.5 155,-42.5 155,-83.5"/>
<text text-anchor="start" x="8" y="-71.5" font-family="Helvetica,sans-Serif" font-size="10.00">MayaFlux::Yantra::Operation</text>
<text text-anchor="start" x="8" y="-60.5" font-family="Helvetica,sans-Serif" font-size="10.00">Helper::reconstruct_data</text>
<text text-anchor="middle" x="77.5" y="-49.5" font-family="Helvetica,sans-Serif" font-size="10.00">_variant_from_double</text>
</a>
</g>
</g>
<!-- Node2 -->
<g id="Node000002" class="node">
<title>Node2</title>
<g id="a_Node000002"><a xlink:href="namespaceMayaFlux_1_1Kakshya_a0a210554c3428315f7daa96220a8cab8.html#a0a210554c3428315f7daa96220a8cab8" target="_top" xlink:title="Convenience function for direct conversion.">
<polygon fill="white" stroke="#666666" points="327,-126 208,-126 208,-96 327,-96 327,-126"/>
<text text-anchor="start" x="216" y="-114" font-family="Helvetica,sans-Serif" font-size="10.00">MayaFlux::Kakshya::</text>
<text text-anchor="middle" x="267.5" y="-103" font-family="Helvetica,sans-Serif" font-size="10.00">from_eigen_matrix</text>
</a>
</g>
</g>
<!-- Node1&#45;&gt;Node2 -->
<g id="edge1_Node000001_Node000002" class="edge">
<title>Node1&#45;&gt;Node2</title>
<g id="a_edge1_Node000001_Node000002"><a xlink:title=" ">
<path fill="none" stroke="#63b8ff" d="M155.24,-82.59C169.37,-86.2 184.05,-89.95 197.92,-93.49"/>
<polygon fill="#63b8ff" stroke="#63b8ff" points="197.31,-96.95 207.86,-96.03 199.04,-90.16 197.31,-96.95"/>
</a>
</g>
</g>
<!-- Node7 -->
<g id="Node000007" class="node">
<title>Node7</title>
<g id="a_Node000007"><a xlink:href="namespaceMayaFlux_1_1Yantra_1_1detail_a2a101dcc98958b1a60de44445909c3df.html#a2a101dcc98958b1a60de44445909c3df" target="_top" xlink:title=" ">
<polygon fill="white" stroke="#666666" points="340,-78 195,-78 195,-48 340,-48 340,-78"/>
<text text-anchor="start" x="203" y="-66" font-family="Helvetica,sans-Serif" font-size="10.00">MayaFlux::Yantra::detail</text>
<text text-anchor="middle" x="267.5" y="-55" font-family="Helvetica,sans-Serif" font-size="10.00">::interpretation_row_count</text>
</a>
</g>
</g>
<!-- Node1&#45;&gt;Node7 -->
<g id="edge7_Node000001_Node000007" class="edge">
<title>Node1&#45;&gt;Node7</title>
<g id="a_edge7_Node000001_Node000007"><a xlink:title=" ">
<path fill="none" stroke="#63b8ff" d="M155.24,-63C164.96,-63 174.93,-63 184.73,-63"/>
<polygon fill="#63b8ff" stroke="#63b8ff" points="184.85,-66.5 194.85,-63 184.85,-59.5 184.85,-66.5"/>
</a>
</g>
</g>
<!-- Node8 -->
<g id="Node000008" class="node">
<title>Node8</title>
<g id="a_Node000008"><a xlink:href="namespaceMayaFlux_1_1Yantra_1_1detail_aad2e66f3c95306683880495b079fda07.html#aad2e66f3c95306683880495b079fda07" target="_top" xlink:title=" ">
<polygon fill="white" stroke="#666666" points="344,-30 191,-30 191,0 344,0 344,-30"/>
<text text-anchor="start" x="199" y="-18" font-family="Helvetica,sans-Serif" font-size="10.00">MayaFlux::Yantra::detail</text>
<text text-anchor="middle" x="267.5" y="-7" font-family="Helvetica,sans-Serif" font-size="10.00">::modality_to_interpretation</text>
</a>
</g>
</g>
<!-- Node1&#45;&gt;Node8 -->
<g id="edge8_Node000001_Node000008" class="edge">
<title>Node1&#45;&gt;Node8</title>
<g id="a_edge8_Node000001_Node000008"><a xlink:title=" ">
<path fill="none" stroke="#63b8ff" d="M155.24,-43.41C169.29,-39.82 183.88,-36.1 197.68,-32.57"/>
<polygon fill="#63b8ff" stroke="#63b8ff" points="198.75,-35.91 207.57,-30.05 197.02,-29.13 198.75,-35.91"/>
</a>
</g>
</g>
<!-- Node3 -->
<g id="Node000003" class="node">
<title>Node3</title>
<g id="a_Node000003"><a xlink:href="classMayaFlux_1_1Kakshya_1_1EigenInsertion_afae4fdb884bcfc31ef058a55e18ab229.html#afae4fdb884bcfc31ef058a55e18ab229" target="_top" xlink:title="Insert Eigen matrix with automatic interpretation.">
<polygon fill="white" stroke="#666666" points="500,-131.5 380,-131.5 380,-90.5 500,-90.5 500,-131.5"/>
<text text-anchor="start" x="388" y="-119.5" font-family="Helvetica,sans-Serif" font-size="10.00">MayaFlux::Kakshya::</text>
<text text-anchor="start" x="388" y="-108.5" font-family="Helvetica,sans-Serif" font-size="10.00">EigenInsertion::insert</text>
<text text-anchor="middle" x="440" y="-97.5" font-family="Helvetica,sans-Serif" font-size="10.00">_matrix</text>
</a>
</g>
</g>
<!-- Node2&#45;&gt;Node3 -->
<g id="edge2_Node000002_Node000003" class="edge">
<title>Node2&#45;&gt;Node3</title>
<g id="a_edge2_Node000002_Node000003"><a xlink:title=" ">
<path fill="none" stroke="#63b8ff" d="M327.18,-111C340.9,-111 355.64,-111 369.77,-111"/>
<polygon fill="#63b8ff" stroke="#63b8ff" points="369.93,-114.5 379.93,-111 369.93,-107.5 369.93,-114.5"/>
</a>
</g>
</g>
<!-- Node4 -->
<g id="Node000004" class="node">
<title>Node4</title>
<g id="a_Node000004"><a xlink:href="namespaceMayaFlux_1_1Reflect_aad91118cbd25bd9e35a3ced9aa4e6dbd.html#aad91118cbd25bd9e35a3ced9aa4e6dbd" target="_top" xlink:title="Universal enum to string converter using magic_enum (original case)">
<polygon fill="white" stroke="#666666" points="818.5,-151 708.5,-151 708.5,-121 818.5,-121 818.5,-151"/>
<text text-anchor="start" x="716.5" y="-139" font-family="Helvetica,sans-Serif" font-size="10.00">MayaFlux::Reflect::</text>
<text text-anchor="middle" x="763.5" y="-128" font-family="Helvetica,sans-Serif" font-size="10.00">enum_to_string</text>
</a>
</g>
</g>
<!-- Node3&#45;&gt;Node4 -->
<g id="edge3_Node000003_Node000004" class="edge">
<title>Node3&#45;&gt;Node4</title>
<g id="a_edge3_Node000003_Node000004"><a xlink:title=" ">
<path fill="none" stroke="#63b8ff" d="M500.34,-115.61C556.48,-119.98 640.51,-126.51 698.22,-131"/>
<polygon fill="#63b8ff" stroke="#63b8ff" points="698.08,-134.5 708.32,-131.79 698.62,-127.52 698.08,-134.5"/>
</a>
</g>
</g>
<!-- Node5 -->
<g id="Node000005" class="node">
<title>Node5</title>
<g id="a_Node000005"><a xlink:href="classMayaFlux_1_1Kakshya_1_1EigenInsertion_ae3c16477974cf354497bad6e2ba47932.html#ae3c16477974cf354497bad6e2ba47932" target="_top" xlink:title=" ">
<polygon fill="white" stroke="#666666" points="668,-107.5 536,-107.5 536,-66.5 668,-66.5 668,-107.5"/>
<text text-anchor="start" x="544" y="-95.5" font-family="Helvetica,sans-Serif" font-size="10.00">MayaFlux::Kakshya::</text>
<text text-anchor="start" x="544" y="-84.5" font-family="Helvetica,sans-Serif" font-size="10.00">EigenInsertion::validate</text>
<text text-anchor="middle" x="602" y="-73.5" font-family="Helvetica,sans-Serif" font-size="10.00">_matrix_dimensions</text>
</a>
</g>
</g>
<!-- Node3&#45;&gt;Node5 -->
<g id="edge4_Node000003_Node000005" class="edge">
<title>Node3&#45;&gt;Node5</title>
<g id="a_edge4_Node000003_Node000005"><a xlink:title=" ">
<path fill="none" stroke="#63b8ff" d="M500.12,-102.13C508.51,-100.87 517.22,-99.57 525.85,-98.27"/>
<polygon fill="#63b8ff" stroke="#63b8ff" points="526.56,-101.71 535.93,-96.76 525.52,-94.78 526.56,-101.71"/>
</a>
</g>
</g>
<!-- Node5&#45;&gt;Node4 -->
<g id="edge5_Node000005_Node000004" class="edge">
<title>Node5&#45;&gt;Node4</title>
<g id="a_edge5_Node000005_Node000004"><a xlink:title=" ">
<path fill="none" stroke="#63b8ff" d="M668.33,-107.07C680.16,-110.71 692.43,-114.47 704.05,-118.04"/>
<polygon fill="#63b8ff" stroke="#63b8ff" points="703.04,-121.4 713.63,-120.99 705.1,-114.7 703.04,-121.4"/>
</a>
</g>
</g>
<!-- Node6 -->
<g id="Node000006" class="node">
<title>Node6</title>
<g id="a_Node000006"><a xlink:href="classMayaFlux_1_1Kakshya_1_1EigenInsertion_a01143be19f9ec5a48a84add79e896c48.html#a01143be19f9ec5a48a84add79e896c48" target="_top" xlink:title=" ">
<polygon fill="white" stroke="#666666" points="823,-102.5 704,-102.5 704,-61.5 823,-61.5 823,-102.5"/>
<text text-anchor="start" x="712" y="-90.5" font-family="Helvetica,sans-Serif" font-size="10.00">MayaFlux::Kakshya::</text>
<text text-anchor="start" x="712" y="-79.5" font-family="Helvetica,sans-Serif" font-size="10.00">EigenInsertion::get</text>
<text text-anchor="middle" x="763.5" y="-68.5" font-family="Helvetica,sans-Serif" font-size="10.00">_expected_rows</text>
</a>
</g>
</g>
<!-- Node5&#45;&gt;Node6 -->
<g id="edge6_Node000005_Node000006" class="edge">
<title>Node5&#45;&gt;Node6</title>
<g id="a_edge6_Node000005_Node000006"><a xlink:title=" ">
<path fill="none" stroke="#63b8ff" d="M668.33,-84.95C676.71,-84.69 685.31,-84.42 693.75,-84.16"/>
<polygon fill="#63b8ff" stroke="#63b8ff" points="694.04,-87.65 703.92,-83.84 693.82,-80.65 694.04,-87.65"/>
</a>
</g>
</g>
</g>
</svg>
