<?xml version="1.0" encoding="UTF-8" standalone="no"?>
<!DOCTYPE svg PUBLIC "-//W3C//DTD SVG 1.1//EN"
 "http://www.w3.org/Graphics/SVG/1.1/DTD/svg11.dtd">
<!-- Generated by graphviz version 2.43.0 (0)
 -->
<!-- Title: MayaFlux::Yantra::GpuDispatchCore::ensure_gpu_ready Pages: 1 -->
<svg width="752pt" height="134pt"
 viewBox="0.00 0.00 752.00 134.00" xmlns="http://www.w3.org/2000/svg" xmlns:xlink="http://www.w3.org/1999/xlink">
<g id="graph0" class="graph" transform="scale(1 1) rotate(0) translate(4 130)">
<title>MayaFlux::Yantra::GpuDispatchCore::ensure_gpu_ready</title>
<!-- Node1 -->
<g id="Node000001" class="node">
<title>Node1</title>
<g id="a_Node000001"><a xlink:title="Ensure GPU resources are initialised.">
<polygon fill="#999999" stroke="#666666" points="169,-78 0,-78 0,-48 169,-48 169,-78"/>
<text text-anchor="start" x="8" y="-66" font-family="Helvetica,sans-Serif" font-size="10.00">MayaFlux::Yantra::GpuDispatch</text>
<text text-anchor="middle" x="84.5" y="-55" font-family="Helvetica,sans-Serif" font-size="10.00">Core::ensure_gpu_ready</text>
</a>
</g>
</g>
<!-- Node2 -->
<g id="Node000002" class="node">
<title>Node2</title>
<g id="a_Node000002"><a xlink:href="classMayaFlux_1_1Yantra_1_1GpuDispatchCore_af387940eb126638c393e0ad18760bbdf.html#af387940eb126638c393e0ad18760bbdf" target="_top" xlink:title="Declare the storage buffers the shader expects.">
<polygon fill="white" stroke="#666666" points="375,-126 206,-126 206,-96 375,-96 375,-126"/>
<text text-anchor="start" x="214" y="-114" font-family="Helvetica,sans-Serif" font-size="10.00">MayaFlux::Yantra::GpuDispatch</text>
<text text-anchor="middle" x="290.5" y="-103" font-family="Helvetica,sans-Serif" font-size="10.00">Core::declare_buffer_bindings</text>
</a>
</g>
</g>
<!-- Node1&#45;&gt;Node2 -->
<g id="edge1_Node000001_Node000002" class="edge">
<title>Node1&#45;&gt;Node2</title>
<g id="a_edge1_Node000001_Node000002"><a xlink:title=" ">
<path fill="none" stroke="#63b8ff" d="M149.49,-78.06C170.56,-83.01 194.17,-88.57 215.9,-93.68"/>
<polygon fill="#63b8ff" stroke="#63b8ff" points="215.2,-97.11 225.74,-96 216.81,-90.3 215.2,-97.11"/>
</a>
</g>
</g>
<!-- Node3 -->
<g id="Node000003" class="node">
<title>Node3</title>
<g id="a_Node000003"><a xlink:href="classMayaFlux_1_1Yantra_1_1GpuResourceManager_a6c7b7b2833da29e54b237003ad4bf74d.html#a6c7b7b2833da29e54b237003ad4bf74d" target="_top" xlink:title=" ">
<polygon fill="white" stroke="#666666" points="376,-78 205,-78 205,-48 376,-48 376,-78"/>
<text text-anchor="start" x="213" y="-66" font-family="Helvetica,sans-Serif" font-size="10.00">MayaFlux::Yantra::GpuResource</text>
<text text-anchor="middle" x="290.5" y="-55" font-family="Helvetica,sans-Serif" font-size="10.00">Manager::initialise</text>
</a>
</g>
</g>
<!-- Node1&#45;&gt;Node3 -->
<g id="edge2_Node000001_Node000003" class="edge">
<title>Node1&#45;&gt;Node3</title>
<g id="a_edge2_Node000001_Node000003"><a xlink:title=" ">
<path fill="none" stroke="#63b8ff" d="M169.06,-63C177.53,-63 186.16,-63 194.73,-63"/>
<polygon fill="#63b8ff" stroke="#63b8ff" points="194.75,-66.5 204.75,-63 194.75,-59.5 194.75,-66.5"/>
</a>
</g>
</g>
<!-- Node8 -->
<g id="Node000008" class="node">
<title>Node8</title>
<g id="a_Node000008"><a xlink:href="classMayaFlux_1_1Yantra_1_1GpuResourceManager_abb600e526226555b9adb258bbe9b0f4e.html#abb600e526226555b9adb258bbe9b0f4e" target="_top" xlink:title=" ">
<polygon fill="white" stroke="#666666" points="376,-30 205,-30 205,0 376,0 376,-30"/>
<text text-anchor="start" x="213" y="-18" font-family="Helvetica,sans-Serif" font-size="10.00">MayaFlux::Yantra::GpuResource</text>
<text text-anchor="middle" x="290.5" y="-7" font-family="Helvetica,sans-Serif" font-size="10.00">Manager::is_ready</text>
</a>
</g>
</g>
<!-- Node1&#45;&gt;Node8 -->
<g id="edge7_Node000001_Node000008" class="edge">
<title>Node1&#45;&gt;Node8</title>
<g id="a_edge7_Node000001_Node000008"><a xlink:title=" ">
<path fill="none" stroke="#63b8ff" d="M149.49,-47.94C170.56,-42.99 194.17,-37.43 215.9,-32.32"/>
<polygon fill="#63b8ff" stroke="#63b8ff" points="216.81,-35.7 225.74,-30 215.2,-28.89 216.81,-35.7"/>
</a>
</g>
</g>
<!-- Node4 -->
<g id="Node000004" class="node">
<title>Node4</title>
<g id="a_Node000004"><a xlink:href="namespaceMayaFlux_1_1Portal_1_1Graphics_af50ca0aa0cb7511c99eaf758430efdce.html#af50ca0aa0cb7511c99eaf758430efdce" target="_top" xlink:title=" ">
<polygon fill="white" stroke="#666666" points="560,-102 412,-102 412,-72 560,-72 560,-102"/>
<text text-anchor="start" x="420" y="-90" font-family="Helvetica,sans-Serif" font-size="10.00">MayaFlux::Portal::Graphics</text>
<text text-anchor="middle" x="486" y="-79" font-family="Helvetica,sans-Serif" font-size="10.00">::get_compute_press</text>
</a>
</g>
</g>
<!-- Node3&#45;&gt;Node4 -->
<g id="edge3_Node000003_Node000004" class="edge">
<title>Node3&#45;&gt;Node4</title>
<g id="a_edge3_Node000003_Node000004"><a xlink:title=" ">
<path fill="none" stroke="#63b8ff" d="M376.09,-73.49C384.64,-74.55 393.32,-75.63 401.86,-76.69"/>
<polygon fill="#63b8ff" stroke="#63b8ff" points="401.44,-80.16 411.8,-77.92 402.3,-73.22 401.44,-80.16"/>
</a>
</g>
</g>
<!-- Node6 -->
<g id="Node000006" class="node">
<title>Node6</title>
<g id="a_Node000006"><a xlink:href="namespaceMayaFlux_1_1Portal_1_1Graphics_a715d57394465ff2924727d7c82d87e7b.html#a715d57394465ff2924727d7c82d87e7b" target="_top" xlink:title="Get the global shader compiler instance.">
<polygon fill="white" stroke="#666666" points="560,-54 412,-54 412,-24 560,-24 560,-54"/>
<text text-anchor="start" x="420" y="-42" font-family="Helvetica,sans-Serif" font-size="10.00">MayaFlux::Portal::Graphics</text>
<text text-anchor="middle" x="486" y="-31" font-family="Helvetica,sans-Serif" font-size="10.00">::get_shader_foundry</text>
</a>
</g>
</g>
<!-- Node3&#45;&gt;Node6 -->
<g id="edge5_Node000003_Node000006" class="edge">
<title>Node3&#45;&gt;Node6</title>
<g id="a_edge5_Node000003_Node000006"><a xlink:title=" ">
<path fill="none" stroke="#63b8ff" d="M376.09,-52.51C384.64,-51.45 393.32,-50.37 401.86,-49.31"/>
<polygon fill="#63b8ff" stroke="#63b8ff" points="402.3,-52.78 411.8,-48.08 401.44,-45.84 402.3,-52.78"/>
</a>
</g>
</g>
<!-- Node5 -->
<g id="Node000005" class="node">
<title>Node5</title>
<g id="a_Node000005"><a xlink:href="classMayaFlux_1_1Portal_1_1Graphics_1_1ComputePress_a89b259adf28ef041294928959e03fa9c.html#a89b259adf28ef041294928959e03fa9c" target="_top" xlink:title=" ">
<polygon fill="white" stroke="#666666" points="744,-102 596,-102 596,-72 744,-72 744,-102"/>
<text text-anchor="start" x="604" y="-90" font-family="Helvetica,sans-Serif" font-size="10.00">MayaFlux::Portal::Graphics</text>
<text text-anchor="middle" x="670" y="-79" font-family="Helvetica,sans-Serif" font-size="10.00">::ComputePress::instance</text>
</a>
</g>
</g>
<!-- Node4&#45;&gt;Node5 -->
<g id="edge4_Node000004_Node000005" class="edge">
<title>Node4&#45;&gt;Node5</title>
<g id="a_edge4_Node000004_Node000005"><a xlink:title=" ">
<path fill="none" stroke="#63b8ff" d="M560.24,-87C568.6,-87 577.16,-87 585.64,-87"/>
<polygon fill="#63b8ff" stroke="#63b8ff" points="585.91,-90.5 595.91,-87 585.91,-83.5 585.91,-90.5"/>
</a>
</g>
</g>
<!-- Node7 -->
<g id="Node000007" class="node">
<title>Node7</title>
<g id="a_Node000007"><a xlink:href="classMayaFlux_1_1Portal_1_1Graphics_1_1ShaderFoundry_ab22eaae6b8210236918b85f409fc4c49.html#ab22eaae6b8210236918b85f409fc4c49" target="_top" xlink:title=" ">
<polygon fill="white" stroke="#666666" points="744,-54 596,-54 596,-24 744,-24 744,-54"/>
<text text-anchor="start" x="604" y="-42" font-family="Helvetica,sans-Serif" font-size="10.00">MayaFlux::Portal::Graphics</text>
<text text-anchor="middle" x="670" y="-31" font-family="Helvetica,sans-Serif" font-size="10.00">::ShaderFoundry::instance</text>
</a>
</g>
</g>
<!-- Node6&#45;&gt;Node7 -->
<g id="edge6_Node000006_Node000007" class="edge">
<title>Node6&#45;&gt;Node7</title>
<g id="a_edge6_Node000006_Node000007"><a xlink:title=" ">
<path fill="none" stroke="#63b8ff" d="M560.24,-39C568.6,-39 577.16,-39 585.64,-39"/>
<polygon fill="#63b8ff" stroke="#63b8ff" points="585.91,-42.5 595.91,-39 585.91,-35.5 585.91,-42.5"/>
</a>
</g>
</g>
</g>
</svg>
