<?xml version="1.0" encoding="UTF-8" standalone="no"?>
<!DOCTYPE svg PUBLIC "-//W3C//DTD SVG 1.1//EN"
 "http://www.w3.org/Graphics/SVG/1.1/DTD/svg11.dtd">
<!-- Generated by graphviz version 2.43.0 (0)
 -->
<!-- Title: MayaFlux::Nodes::Network::ParticleNetwork::generate_initial_vertices Pages: 1 -->
<svg width="748pt" height="155pt"
 viewBox="0.00 0.00 748.00 155.00" xmlns="http://www.w3.org/2000/svg" xmlns:xlink="http://www.w3.org/1999/xlink">
<g id="graph0" class="graph" transform="scale(1 1) rotate(0) translate(4 151)">
<title>MayaFlux::Nodes::Network::ParticleNetwork::generate_initial_vertices</title>
<!-- Node1 -->
<g id="Node000001" class="node">
<title>Node1</title>
<g id="a_Node000001"><a xlink:title=" ">
<polygon fill="#999999" stroke="#666666" points="740,-95 591,-95 591,-54 740,-54 740,-95"/>
<text text-anchor="start" x="599" y="-83" font-family="Helvetica,sans-Serif" font-size="10.00">MayaFlux::Nodes::Network</text>
<text text-anchor="start" x="599" y="-72" font-family="Helvetica,sans-Serif" font-size="10.00">::ParticleNetwork::generate</text>
<text text-anchor="middle" x="665.5" y="-61" font-family="Helvetica,sans-Serif" font-size="10.00">_initial_vertices</text>
</a>
</g>
</g>
<!-- Node2 -->
<g id="Node000002" class="node">
<title>Node2</title>
<g id="a_Node000002"><a xlink:href="classMayaFlux_1_1Nodes_1_1Network_1_1ParticleNetwork_a81e5263c6517931983abac0c0adc8970.html#a81e5263c6517931983abac0c0adc8970" target="_top" xlink:title="Called once before first process_batch()">
<polygon fill="white" stroke="#666666" points="555,-140.5 406,-140.5 406,-110.5 555,-110.5 555,-140.5"/>
<text text-anchor="start" x="414" y="-128.5" font-family="Helvetica,sans-Serif" font-size="10.00">MayaFlux::Nodes::Network</text>
<text text-anchor="middle" x="480.5" y="-117.5" font-family="Helvetica,sans-Serif" font-size="10.00">::ParticleNetwork::initialize</text>
</a>
</g>
</g>
<!-- Node1&#45;&gt;Node2 -->
<g id="edge1_Node000001_Node000002" class="edge">
<title>Node1&#45;&gt;Node2</title>
<g id="a_edge1_Node000001_Node000002"><a xlink:title=" ">
<path fill="none" stroke="#63b8ff" d="M580.82,-97.82C565.45,-102.1 549.79,-106.47 535.58,-110.43"/>
<polygon fill="#63b8ff" stroke="#63b8ff" points="582.16,-101.08 590.86,-95.02 580.29,-94.34 582.16,-101.08"/>
</a>
</g>
</g>
<!-- Node5 -->
<g id="Node000005" class="node">
<title>Node5</title>
<g id="a_Node000005"><a xlink:href="classMayaFlux_1_1Nodes_1_1Network_1_1ParticleNetwork_ac50a6227e62bf163fe2cf5d199709a3b.html#ac50a6227e62bf163fe2cf5d199709a3b" target="_top" xlink:title="Reset network to initial state.">
<polygon fill="white" stroke="#666666" points="555,-89.5 406,-89.5 406,-59.5 555,-59.5 555,-89.5"/>
<text text-anchor="start" x="414" y="-77.5" font-family="Helvetica,sans-Serif" font-size="10.00">MayaFlux::Nodes::Network</text>
<text text-anchor="middle" x="480.5" y="-66.5" font-family="Helvetica,sans-Serif" font-size="10.00">::ParticleNetwork::reset</text>
</a>
</g>
</g>
<!-- Node1&#45;&gt;Node5 -->
<g id="edge4_Node000001_Node000005" class="edge">
<title>Node1&#45;&gt;Node5</title>
<g id="a_edge4_Node000001_Node000005"><a xlink:title=" ">
<path fill="none" stroke="#63b8ff" d="M580.61,-74.5C572.16,-74.5 563.62,-74.5 555.29,-74.5"/>
<polygon fill="#63b8ff" stroke="#63b8ff" points="580.86,-78 590.86,-74.5 580.86,-71 580.86,-78"/>
</a>
</g>
</g>
<!-- Node7 -->
<g id="Node000007" class="node">
<title>Node7</title>
<g id="a_Node000007"><a xlink:href="classMayaFlux_1_1Nodes_1_1Network_1_1ParticleNetwork_a3194e1c3764102f30ffece92df9fa8e6.html#a3194e1c3764102f30ffece92df9fa8e6" target="_top" xlink:title="Set active operator (runtime switching)">
<polygon fill="white" stroke="#666666" points="555,-41 406,-41 406,0 555,0 555,-41"/>
<text text-anchor="start" x="414" y="-29" font-family="Helvetica,sans-Serif" font-size="10.00">MayaFlux::Nodes::Network</text>
<text text-anchor="start" x="414" y="-18" font-family="Helvetica,sans-Serif" font-size="10.00">::ParticleNetwork::set</text>
<text text-anchor="middle" x="480.5" y="-7" font-family="Helvetica,sans-Serif" font-size="10.00">_operator</text>
</a>
</g>
</g>
<!-- Node1&#45;&gt;Node7 -->
<g id="edge6_Node000001_Node000007" class="edge">
<title>Node1&#45;&gt;Node7</title>
<g id="a_edge6_Node000001_Node000007"><a xlink:title=" ">
<path fill="none" stroke="#63b8ff" d="M584.95,-51.02C573.65,-47.69 562.1,-44.28 551.01,-41.01"/>
<polygon fill="#63b8ff" stroke="#63b8ff" points="584.21,-54.46 594.79,-53.93 586.19,-47.74 584.21,-54.46"/>
</a>
</g>
</g>
<!-- Node3 -->
<g id="Node000003" class="node">
<title>Node3</title>
<g id="a_Node000003"><a xlink:href="classMayaFlux_1_1Nodes_1_1Network_1_1ParticleNetwork_a56930da405bb0bf40987b645a0da4a7f.html#a56930da405bb0bf40987b645a0da4a7f" target="_top" xlink:title=" ">
<polygon fill="white" stroke="#666666" points="365.5,-147 216.5,-147 216.5,-106 365.5,-106 365.5,-147"/>
<text text-anchor="start" x="224.5" y="-135" font-family="Helvetica,sans-Serif" font-size="10.00">MayaFlux::Nodes::Network</text>
<text text-anchor="start" x="224.5" y="-124" font-family="Helvetica,sans-Serif" font-size="10.00">::ParticleNetwork::ensure</text>
<text text-anchor="middle" x="291" y="-113" font-family="Helvetica,sans-Serif" font-size="10.00">_initialized</text>
</a>
</g>
</g>
<!-- Node2&#45;&gt;Node3 -->
<g id="edge2_Node000002_Node000003" class="edge">
<title>Node2&#45;&gt;Node3</title>
<g id="a_edge2_Node000002_Node000003"><a xlink:title=" ">
<path fill="none" stroke="#63b8ff" d="M395.92,-125.95C385.83,-126 375.59,-126.05 365.66,-126.11"/>
<polygon fill="#63b8ff" stroke="#63b8ff" points="395.95,-129.45 405.93,-125.89 395.91,-122.45 395.95,-129.45"/>
</a>
</g>
</g>
<!-- Node4 -->
<g id="Node000004" class="node">
<title>Node4</title>
<g id="a_Node000004"><a xlink:href="classMayaFlux_1_1Nodes_1_1Network_1_1ParticleNetwork_a3f43ec4fb1893a9042bcd6891cbb3648.html#a3f43ec4fb1893a9042bcd6891cbb3648" target="_top" xlink:title="Process the network for the given number of samples.">
<polygon fill="white" stroke="#666666" points="176,-141.5 0,-141.5 0,-111.5 176,-111.5 176,-141.5"/>
<text text-anchor="start" x="8" y="-129.5" font-family="Helvetica,sans-Serif" font-size="10.00">MayaFlux::Nodes::Network</text>
<text text-anchor="middle" x="88" y="-118.5" font-family="Helvetica,sans-Serif" font-size="10.00">::ParticleNetwork::process_batch</text>
</a>
</g>
</g>
<!-- Node3&#45;&gt;Node4 -->
<g id="edge3_Node000003_Node000004" class="edge">
<title>Node3&#45;&gt;Node4</title>
<g id="a_edge3_Node000003_Node000004"><a xlink:title=" ">
<path fill="none" stroke="#63b8ff" d="M206.13,-126.5C196.29,-126.5 186.22,-126.5 176.33,-126.5"/>
<polygon fill="#63b8ff" stroke="#63b8ff" points="206.3,-130 216.3,-126.5 206.3,-123 206.3,-130"/>
</a>
</g>
</g>
<!-- Node6 -->
<g id="Node000006" class="node">
<title>Node6</title>
<g id="a_Node000006"><a xlink:href="classMayaFlux_1_1Nodes_1_1Network_1_1ParticleNetwork_a596180c5f4df659207e0207c0224b8fd.html#a596180c5f4df659207e0207c0224b8fd" target="_top" xlink:title="Reinitialize particle network with new parameters.">
<polygon fill="white" stroke="#666666" points="370,-87.5 212,-87.5 212,-57.5 370,-57.5 370,-87.5"/>
<text text-anchor="start" x="220" y="-75.5" font-family="Helvetica,sans-Serif" font-size="10.00">MayaFlux::Nodes::Network</text>
<text text-anchor="middle" x="291" y="-64.5" font-family="Helvetica,sans-Serif" font-size="10.00">::ParticleNetwork::reinitialize</text>
</a>
</g>
</g>
<!-- Node5&#45;&gt;Node6 -->
<g id="edge5_Node000005_Node000006" class="edge">
<title>Node5&#45;&gt;Node6</title>
<g id="a_edge5_Node000005_Node000006"><a xlink:title=" ">
<path fill="none" stroke="#63b8ff" d="M395.7,-73.61C387.25,-73.52 378.69,-73.42 370.3,-73.34"/>
<polygon fill="#63b8ff" stroke="#63b8ff" points="395.9,-77.11 405.93,-73.72 395.97,-70.11 395.9,-77.11"/>
</a>
</g>
</g>
</g>
</svg>
