<?xml version="1.0" encoding="UTF-8" standalone="no"?>
<!DOCTYPE svg PUBLIC "-//W3C//DTD SVG 1.1//EN"
 "http://www.w3.org/Graphics/SVG/1.1/DTD/svg11.dtd">
<!-- Generated by graphviz version 2.43.0 (0)
 -->
<!-- Title: MayaFlux::IO::VideoFileWriter::set_error Pages: 1 -->
<svg width="764pt" height="74pt"
 viewBox="0.00 0.00 764.00 74.50" xmlns="http://www.w3.org/2000/svg" xmlns:xlink="http://www.w3.org/1999/xlink">
<g id="graph0" class="graph" transform="scale(1 1) rotate(0) translate(4 70.5)">
<title>MayaFlux::IO::VideoFileWriter::set_error</title>
<!-- Node1 -->
<g id="Node000001" class="node">
<title>Node1</title>
<g id="a_Node000001"><a xlink:title=" ">
<polygon fill="#999999" stroke="#666666" points="756,-52 594,-52 594,-22 756,-22 756,-52"/>
<text text-anchor="start" x="602" y="-40" font-family="Helvetica,sans-Serif" font-size="10.00">MayaFlux::IO::VideoFileWriter</text>
<text text-anchor="middle" x="675" y="-29" font-family="Helvetica,sans-Serif" font-size="10.00">::set_error</text>
</a>
</g>
</g>
<!-- Node2 -->
<g id="Node000002" class="node">
<title>Node2</title>
<g id="a_Node000002"><a xlink:href="classMayaFlux_1_1IO_1_1VideoFileWriter_a2fd67ecbf341032261b25a5a835c288f.html#a2fd67ecbf341032261b25a5a835c288f" target="_top" xlink:title=" ">
<polygon fill="white" stroke="#666666" points="360,-52 198,-52 198,-22 360,-22 360,-52"/>
<text text-anchor="start" x="206" y="-40" font-family="Helvetica,sans-Serif" font-size="10.00">MayaFlux::IO::VideoFileWriter</text>
<text text-anchor="middle" x="279" y="-29" font-family="Helvetica,sans-Serif" font-size="10.00">::open</text>
</a>
</g>
</g>
<!-- Node1&#45;&gt;Node2 -->
<g id="edge1_Node000001_Node000002" class="edge">
<title>Node1&#45;&gt;Node2</title>
<g id="a_edge1_Node000001_Node000002"><a xlink:title=" ">
<path fill="none" stroke="#63b8ff" d="M602.89,-54.1C588.13,-56.97 572.63,-59.5 558,-61 486.37,-68.33 467.63,-68.33 396,-61 378,-59.16 358.66,-55.75 341.04,-52.06"/>
<polygon fill="#63b8ff" stroke="#63b8ff" points="603.85,-57.47 612.96,-52.06 602.46,-50.61 603.85,-57.47"/>
</a>
</g>
</g>
<!-- Node3 -->
<g id="Node000003" class="node">
<title>Node3</title>
<g id="a_Node000003"><a xlink:href="classMayaFlux_1_1IO_1_1VideoFileWriter_a65a25d8b5e52b1d9b54806c73b4d89aa.html#a65a25d8b5e52b1d9b54806c73b4d89aa" target="_top" xlink:title=" ">
<polygon fill="white" stroke="#666666" points="162,-30 0,-30 0,0 162,0 162,-30"/>
<text text-anchor="start" x="8" y="-18" font-family="Helvetica,sans-Serif" font-size="10.00">MayaFlux::IO::VideoFileWriter</text>
<text text-anchor="middle" x="81" y="-7" font-family="Helvetica,sans-Serif" font-size="10.00">::record</text>
</a>
</g>
</g>
<!-- Node1&#45;&gt;Node3 -->
<g id="edge3_Node000001_Node000003" class="edge">
<title>Node1&#45;&gt;Node3</title>
<g id="a_edge3_Node000001_Node000003"><a xlink:title=" ">
<path fill="none" stroke="#63b8ff" d="M602.89,-19.9C588.13,-17.03 572.63,-14.5 558,-13 419.48,1.18 257.09,-4.17 162.26,-9.49"/>
<polygon fill="#63b8ff" stroke="#63b8ff" points="602.46,-23.39 612.96,-21.94 603.85,-16.53 602.46,-23.39"/>
</a>
</g>
</g>
<!-- Node4 -->
<g id="Node000004" class="node">
<title>Node4</title>
<g id="a_Node000004"><a xlink:href="classMayaFlux_1_1IO_1_1VideoFileWriter_a696c64fcff4d95462a6640f48495c71f.html#a696c64fcff4d95462a6640f48495c71f" target="_top" xlink:title=" ">
<polygon fill="white" stroke="#666666" points="558,-52 396,-52 396,-22 558,-22 558,-52"/>
<text text-anchor="start" x="404" y="-40" font-family="Helvetica,sans-Serif" font-size="10.00">MayaFlux::IO::VideoFileWriter</text>
<text text-anchor="middle" x="477" y="-29" font-family="Helvetica,sans-Serif" font-size="10.00">::worker_loop</text>
</a>
</g>
</g>
<!-- Node1&#45;&gt;Node4 -->
<g id="edge4_Node000001_Node000004" class="edge">
<title>Node1&#45;&gt;Node4</title>
<g id="a_edge4_Node000001_Node000004"><a xlink:title=" ">
<path fill="none" stroke="#63b8ff" d="M583.92,-37C575.3,-37 566.59,-37 558.07,-37"/>
<polygon fill="#63b8ff" stroke="#63b8ff" points="584,-40.5 594,-37 584,-33.5 584,-40.5"/>
</a>
</g>
</g>
<!-- Node2&#45;&gt;Node3 -->
<g id="edge2_Node000002_Node000003" class="edge">
<title>Node2&#45;&gt;Node3</title>
<g id="a_edge2_Node000002_Node000003"><a xlink:title=" ">
<path fill="none" stroke="#63b8ff" d="M187.92,-26.89C179.3,-25.92 170.59,-24.94 162.07,-23.99"/>
<polygon fill="#63b8ff" stroke="#63b8ff" points="187.67,-30.38 198,-28.02 188.45,-23.43 187.67,-30.38"/>
</a>
</g>
</g>
<!-- Node4&#45;&gt;Node2 -->
<g id="edge5_Node000004_Node000002" class="edge">
<title>Node4&#45;&gt;Node2</title>
<g id="a_edge5_Node000004_Node000002"><a xlink:title=" ">
<path fill="none" stroke="#63b8ff" d="M385.92,-37C377.3,-37 368.59,-37 360.07,-37"/>
<polygon fill="#63b8ff" stroke="#63b8ff" points="386,-40.5 396,-37 386,-33.5 386,-40.5"/>
</a>
</g>
</g>
</g>
</svg>
