<?xml version="1.0" encoding="UTF-8" standalone="no"?>
<!DOCTYPE svg PUBLIC "-//W3C//DTD SVG 1.1//EN"
 "http://www.w3.org/Graphics/SVG/1.1/DTD/svg11.dtd">
<!-- Generated by graphviz version 2.43.0 (0)
 -->
<!-- Title: MayaFlux::Yantra::UniversalAnalyzer::get_analysis_parameter Pages: 1 -->
<!--zoomable 98 -->

<svg id="main" version="1.1" xmlns="http://www.w3.org/2000/svg" xmlns:xlink="http://www.w3.org/1999/xlink" xml:space="preserve" onload="init(evt)">
<style type="text/css"><![CDATA[
.node, .edge {opacity: 0.7;}
.node.selected, .edge.selected {opacity: 1;}
.edge:hover path { stroke: red; }
.edge:hover polygon { stroke: red; fill: red; }
]]></style>

<defs>
  <circle id="rim" cx="0" cy="0" r="7"/>
  <circle id="rim2" cx="0" cy="0" r="3.5"/>
  <g id="zoomPlus">
    <use xlink:href="#rim" fill="#404040"><set attributeName="fill" to="#808080" begin="zoomplus.mouseover" end="zoomplus.mouseout"/></use>
    <path d="M-4,0h8M0,-4v8" fill="none" stroke="white" stroke-width="1.5" pointer-events="none"/>
  </g>
  <g id="zoomMin">
    <use xlink:href="#rim" fill="#404040"><set attributeName="fill" to="#808080" begin="zoomminus.mouseover" end="zoomminus.mouseout"/></use>
    <path d="M-4,0h8" fill="none" stroke="white" stroke-width="1.5" pointer-events="none"/>
  </g>
  <g id="arrowUp" transform="translate(30 24)">
    <use xlink:href="#rim"/>
    <path pointer-events="none" fill="none" stroke="white" stroke-width="1.5" d="M0,-3.0v7 M-2.5,-0.5L0,-3.0L2.5,-0.5"/>
  </g>
  <g id="arrowRight" transform="rotate(90) translate(36 -43)">
    <use xlink:href="#rim"/>
    <path pointer-events="none" fill="none" stroke="white" stroke-width="1.5" d="M0,-3.0v7 M-2.5,-0.5L0,-3.0L2.5,-0.5"/>
  </g>
  <g id="arrowDown" transform="rotate(180) translate(-30 -48)">
    <use xlink:href="#rim"/>
    <path pointer-events="none" fill="none" stroke="white" stroke-width="1.5" d="M0,-3.0v7 M-2.5,-0.5L0,-3.0L2.5,-0.5"/>
  </g>
  <g id="arrowLeft" transform="rotate(270) translate(-36 17)">
    <use xlink:href="#rim"/>
    <path pointer-events="none" fill="none" stroke="white" stroke-width="1.5" d="M0,-3.0v7 M-2.5,-0.5L0,-3.0L2.5,-0.5"/>
  </g>
  <g id="resetDef">
    <use xlink:href="#rim2" fill="#404040"><set attributeName="fill" to="#808080" begin="reset.mouseover" end="reset.mouseout"/></use>
  </g>
</defs>
<script type="application/ecmascript">
var viewWidth = 816;
var viewHeight = 98;
var sectionId = 'dynsection-0';
</script>
<script type="application/ecmascript" xlink:href="svg.min.js"/>
<svg id="graph" class="graph">
<g id="viewport">
<title>MayaFlux::Yantra::UniversalAnalyzer::get_analysis_parameter</title>
<!-- Node1 -->
<g id="Node000001" class="node">
<title>Node1</title>
<g id="a_Node000001"><a xlink:title=" ">
<polygon fill="#999999" stroke="#666666" points="808,-62.5 625,-62.5 625,-32.5 808,-32.5 808,-62.5"/>
<text text-anchor="start" x="633" y="-50.5" font-family="Helvetica,sans-Serif" font-size="10.00">MayaFlux::Yantra::Universal</text>
<text text-anchor="middle" x="716.5" y="-39.5" font-family="Helvetica,sans-Serif" font-size="10.00">Analyzer::get_analysis_parameter</text>
</a>
</g>
</g>
<!-- Node2 -->
<g id="Node000002" class="node">
<title>Node2</title>
<g id="a_Node000002"><a xlink:href="classMayaFlux_1_1Yantra_1_1UniversalAnalyzer_a12452f009e8a87275c71cfe10271769b.html#a12452f009e8a87275c71cfe10271769b" target="_top" xlink:title="Retrieves a parameter&#39;s current value.">
<polygon fill="white" stroke="#666666" points="589,-89.5 436,-89.5 436,-59.5 589,-59.5 589,-89.5"/>
<text text-anchor="start" x="444" y="-77.5" font-family="Helvetica,sans-Serif" font-size="10.00">MayaFlux::Yantra::Universal</text>
<text text-anchor="middle" x="512.5" y="-66.5" font-family="Helvetica,sans-Serif" font-size="10.00">Analyzer::get_parameter</text>
</a>
</g>
</g>
<!-- Node1&#45;&gt;Node2 -->
<g id="edge1_Node000001_Node000002" class="edge">
<title>Node1&#45;&gt;Node2</title>
<g id="a_edge1_Node000001_Node000002"><a xlink:title=" ">
<path fill="none" stroke="#63b8ff" d="M614.72,-60.97C606.09,-62.12 597.45,-63.28 589.06,-64.4"/>
<polygon fill="#63b8ff" stroke="#63b8ff" points="615.39,-64.41 624.84,-59.62 614.46,-57.47 615.39,-64.41"/>
</a>
</g>
</g>
<!-- Node5 -->
<g id="Node000005" class="node">
<title>Node5</title>
<g id="a_Node000005"><a xlink:href="classMayaFlux_1_1Yantra_1_1UniversalAnalyzer_a0d2ef215adba4f5c31a61dcbd8cc98b0.html#a0d2ef215adba4f5c31a61dcbd8cc98b0" target="_top" xlink:title="Helper to get typed parameter with default value.">
<polygon fill="white" stroke="#666666" points="589,-41 436,-41 436,0 589,0 589,-41"/>
<text text-anchor="start" x="444" y="-29" font-family="Helvetica,sans-Serif" font-size="10.00">MayaFlux::Yantra::Universal</text>
<text text-anchor="start" x="444" y="-18" font-family="Helvetica,sans-Serif" font-size="10.00">Analyzer::get_parameter</text>
<text text-anchor="middle" x="512.5" y="-7" font-family="Helvetica,sans-Serif" font-size="10.00">_or_default</text>
</a>
</g>
</g>
<!-- Node1&#45;&gt;Node5 -->
<g id="edge5_Node000001_Node000005" class="edge">
<title>Node1&#45;&gt;Node5</title>
<g id="a_edge5_Node000001_Node000005"><a xlink:title=" ">
<path fill="none" stroke="#63b8ff" d="M614.72,-34.03C606.09,-32.88 597.45,-31.72 589.06,-30.6"/>
<polygon fill="#63b8ff" stroke="#63b8ff" points="614.46,-37.53 624.84,-35.38 615.39,-30.59 614.46,-37.53"/>
</a>
</g>
</g>
<!-- Node3 -->
<g id="Node000003" class="node">
<title>Node3</title>
<g id="a_Node000003"><a xlink:href="classMayaFlux_1_1Yantra_1_1Granular_1_1AttributeOp_a3b8505dc9c46902e93719604cb89927c.html#a3b8505dc9c46902e93719604cb89927c" target="_top" xlink:title=" ">
<polygon fill="white" stroke="#666666" points="206,-88.5 0,-88.5 0,-58.5 206,-58.5 206,-88.5"/>
<text text-anchor="start" x="8" y="-76.5" font-family="Helvetica,sans-Serif" font-size="10.00">MayaFlux::Yantra::Granular</text>
<text text-anchor="middle" x="103" y="-65.5" font-family="Helvetica,sans-Serif" font-size="10.00">::AttributeOp::analyze_implementation</text>
</a>
</g>
</g>
<!-- Node2&#45;&gt;Node3 -->
<g id="edge2_Node000002_Node000003" class="edge">
<title>Node2&#45;&gt;Node3</title>
<g id="a_edge2_Node000002_Node000003"><a xlink:title=" ">
<path fill="none" stroke="#63b8ff" d="M425.75,-77.89C417.05,-78.14 408.35,-78.35 400,-78.5 329.79,-79.76 312.21,-79.77 242,-78.5 230.37,-78.29 218.2,-77.98 206.1,-77.61"/>
<polygon fill="#63b8ff" stroke="#63b8ff" points="426.05,-81.38 435.94,-77.58 425.84,-74.38 426.05,-81.38"/>
</a>
</g>
</g>
<!-- Node4 -->
<g id="Node000004" class="node">
<title>Node4</title>
<g id="a_Node000004"><a xlink:href="classMayaFlux_1_1Yantra_1_1Granular_1_1AttributeOp_a76fb1bc499ea5c2bd72510855b247c00.html#a76fb1bc499ea5c2bd72510855b247c00" target="_top" xlink:title="Resolve and execute attribution for a single grain.">
<polygon fill="white" stroke="#666666" points="400,-70 242,-70 242,-29 400,-29 400,-70"/>
<text text-anchor="start" x="250" y="-58" font-family="Helvetica,sans-Serif" font-size="10.00">MayaFlux::Yantra::Granular</text>
<text text-anchor="start" x="250" y="-47" font-family="Helvetica,sans-Serif" font-size="10.00">::AttributeOp::compute_grain</text>
<text text-anchor="middle" x="321" y="-36" font-family="Helvetica,sans-Serif" font-size="10.00">_attribute</text>
</a>
</g>
</g>
<!-- Node2&#45;&gt;Node4 -->
<g id="edge3_Node000002_Node000004" class="edge">
<title>Node2&#45;&gt;Node4</title>
<g id="a_edge3_Node000002_Node000004"><a xlink:title=" ">
<path fill="none" stroke="#63b8ff" d="M425.79,-63.19C417.22,-62.06 408.56,-60.92 400.07,-59.8"/>
<polygon fill="#63b8ff" stroke="#63b8ff" points="425.42,-66.67 435.79,-64.51 426.33,-59.73 425.42,-66.67"/>
</a>
</g>
</g>
<!-- Node4&#45;&gt;Node3 -->
<g id="edge4_Node000004_Node000003" class="edge">
<title>Node4&#45;&gt;Node3</title>
<g id="a_edge4_Node000004_Node000003"><a xlink:title=" ">
<path fill="none" stroke="#63b8ff" d="M231.55,-59.33C223.14,-60.26 214.57,-61.21 206.05,-62.16"/>
<polygon fill="#63b8ff" stroke="#63b8ff" points="232.16,-62.78 241.71,-58.2 231.39,-55.82 232.16,-62.78"/>
</a>
</g>
</g>
</g>
</svg>

<g id="navigator" transform="translate(0 0)" fill="#404254">
  <rect fill="#f2f5e9" fill-opacity="0.5" stroke="#606060" stroke-width=".5" x="0" y="0" width="60" height="60"/>
  <use id="zoomplus" xlink:href="#zoomPlus" x="17" y="9" onmousedown="handleZoom(evt,'in')"/>
  <use id="zoomminus" xlink:href="#zoomMin" x="42" y="9" onmousedown="handleZoom(evt,'out')"/>
  <use id="reset" xlink:href="#resetDef" x="30" y="36" onmousedown="handleReset()"/>
   <use id="arrowup" xlink:href="#arrowUp" x="0" y="0" onmousedown="handlePan(0,-1)"/>
  <use id="arrowright" xlink:href="#arrowRight" x="0" y="0" onmousedown="handlePan(1,0)"/>
  <use id="arrowdown" xlink:href="#arrowDown" x="0" y="0" onmousedown="handlePan(0,1)"/>
  <use id="arrowleft" xlink:href="#arrowLeft" x="0" y="0" onmousedown="handlePan(-1,0)"/>
</g>
<svg viewBox="0 0 15 15" width="100%" height="30px" preserveAspectRatio="xMaxYMin meet">
 <g id="arrow_out" transform="scale(0.3 0.3)">
  <a xlink:href="classMayaFlux_1_1Yantra_1_1UniversalAnalyzer_a66445526c6230a6d296b9639a9b5a010_a66445526c6230a6d296b9639a9b5a010_icgraph_org.svg" target="_base">
   <rect id="button" ry="5" rx="5" y="6" x="6" height="38" width="38"
        fill="#f2f5e9" fill-opacity="0.5" stroke="#606060" stroke-width="1.0"/>
   <path id="arrow"
     d="M 11.500037,31.436501 C 11.940474,20.09759 22.043105,11.32322 32.158766,21.979434 L 37.068811,17.246167 C 37.068811,17.246167 37.088388,32 37.088388,32 L 22.160133,31.978069 C 22.160133,31.978069 26.997745,27.140456 26.997745,27.140456 C 18.528582,18.264221 13.291696,25.230495 11.500037,31.436501 z"
     style="fill:#404040;"/>
  </a>
 </g>
</svg>

<style type='text/css'>
<![CDATA[
[data-mouse-over-selected='false'] { opacity: 0.7; }
[data-mouse-over-selected='true']  { opacity: 1.0; }
]]>
</style>
<script type="application/ecmascript"><![CDATA[
document.addEventListener('DOMContentLoaded', (event) => {
  highlightEdges();
  highlightAdjacentNodes();
});
]]></script>
</svg>
