<?xml version="1.0" encoding="UTF-8" standalone="no"?>
<!DOCTYPE svg PUBLIC "-//W3C//DTD SVG 1.1//EN"
 "http://www.w3.org/Graphics/SVG/1.1/DTD/svg11.dtd">
<!-- Generated by graphviz version 2.43.0 (0)
 -->
<!-- Title: MayaFlux::Nodes::Network::PointCloudNetwork Pages: 1 -->
<svg width="448pt" height="1092pt"
 viewBox="0.00 0.00 448.00 1092.00" xmlns="http://www.w3.org/2000/svg" xmlns:xlink="http://www.w3.org/1999/xlink">
<g id="graph0" class="graph" transform="scale(1 1) rotate(0) translate(4 1088)">
<title>MayaFlux::Nodes::Network::PointCloudNetwork</title>
<!-- Node1 -->
<g id="Node000001" class="node">
<title>Node1</title>
<g id="a_Node000001"><a xlink:title="Spatial relational network operating on unordered point sets.">
<polygon fill="#999999" stroke="transparent" points="303.5,-285 134.5,-285 134.5,0 303.5,0 303.5,-285"/>
<text text-anchor="start" x="153" y="-272.5" font-family="Helvetica,sans-Serif" font-size="10.00">MayaFlux::Nodes::Network</text>
<text text-anchor="start" x="169.5" y="-261.5" font-family="Helvetica,sans-Serif" font-size="10.00">::PointCloudNetwork</text>
<text text-anchor="start" x="141.5" y="-246.5" font-family="Helvetica,sans-Serif" font-size="10.00">&#45;</text>
<text text-anchor="start" x="152" y="-246.5" font-family="Helvetica,sans-Serif" font-size="10.00">m_cached_vertices</text>
<text text-anchor="start" x="141.5" y="-231.5" font-family="Helvetica,sans-Serif" font-size="10.00">&#45;</text>
<text text-anchor="start" x="152" y="-231.5" font-family="Helvetica,sans-Serif" font-size="10.00">m_init_mode</text>
<text text-anchor="start" x="141.5" y="-216.5" font-family="Helvetica,sans-Serif" font-size="10.00">&#45;</text>
<text text-anchor="start" x="152" y="-216.5" font-family="Helvetica,sans-Serif" font-size="10.00">m_num_points</text>
<text text-anchor="start" x="141.5" y="-201.5" font-family="Helvetica,sans-Serif" font-size="10.00">&#45;</text>
<text text-anchor="start" x="152" y="-201.5" font-family="Helvetica,sans-Serif" font-size="10.00">m_operator</text>
<text text-anchor="start" x="139" y="-186.5" font-family="Helvetica,sans-Serif" font-size="10.00">+</text>
<text text-anchor="start" x="152" y="-186.5" font-family="Helvetica,sans-Serif" font-size="10.00">apply_color_gradient()</text>
<text text-anchor="start" x="139" y="-171.5" font-family="Helvetica,sans-Serif" font-size="10.00">+</text>
<text text-anchor="start" x="152" y="-171.5" font-family="Helvetica,sans-Serif" font-size="10.00">apply_radial_gradient()</text>
<text text-anchor="start" x="139" y="-156.5" font-family="Helvetica,sans-Serif" font-size="10.00">+</text>
<text text-anchor="start" x="152" y="-156.5" font-family="Helvetica,sans-Serif" font-size="10.00">create_operator()</text>
<text text-anchor="start" x="139" y="-141.5" font-family="Helvetica,sans-Serif" font-size="10.00">+</text>
<text text-anchor="start" x="152" y="-141.5" font-family="Helvetica,sans-Serif" font-size="10.00">get_metadata()</text>
<text text-anchor="start" x="139" y="-126.5" font-family="Helvetica,sans-Serif" font-size="10.00">+</text>
<text text-anchor="start" x="152" y="-126.5" font-family="Helvetica,sans-Serif" font-size="10.00">get_node_count()</text>
<text text-anchor="start" x="139" y="-111.5" font-family="Helvetica,sans-Serif" font-size="10.00">+</text>
<text text-anchor="start" x="152" y="-111.5" font-family="Helvetica,sans-Serif" font-size="10.00">get_node_output()</text>
<text text-anchor="start" x="139" y="-96.5" font-family="Helvetica,sans-Serif" font-size="10.00">+</text>
<text text-anchor="start" x="152" y="-96.5" font-family="Helvetica,sans-Serif" font-size="10.00">get_operator()</text>
<text text-anchor="start" x="139" y="-81.5" font-family="Helvetica,sans-Serif" font-size="10.00">+</text>
<text text-anchor="start" x="152" y="-81.5" font-family="Helvetica,sans-Serif" font-size="10.00">get_operator()</text>
<text text-anchor="start" x="139" y="-66.5" font-family="Helvetica,sans-Serif" font-size="10.00">+</text>
<text text-anchor="start" x="152" y="-66.5" font-family="Helvetica,sans-Serif" font-size="10.00">get_vertices()</text>
<text text-anchor="start" x="139" y="-51.5" font-family="Helvetica,sans-Serif" font-size="10.00">+</text>
<text text-anchor="start" x="152" y="-51.5" font-family="Helvetica,sans-Serif" font-size="10.00">has_operator()</text>
<text text-anchor="start" x="152" y="-36.5" font-family="Helvetica,sans-Serif" font-size="10.00">and 16 more...</text>
<text text-anchor="start" x="141.5" y="-21.5" font-family="Helvetica,sans-Serif" font-size="10.00">&#45;</text>
<text text-anchor="start" x="152" y="-21.5" font-family="Helvetica,sans-Serif" font-size="10.00">generate_initial_positions()</text>
<text text-anchor="start" x="141.5" y="-6.5" font-family="Helvetica,sans-Serif" font-size="10.00">&#45;</text>
<text text-anchor="start" x="152" y="-6.5" font-family="Helvetica,sans-Serif" font-size="10.00">update_mapped_parameters()</text>
<polygon fill="#666666" stroke="#666666" points="135,-256.5 135,-256.5 304,-256.5 304,-256.5 135,-256.5"/>
<polygon fill="#666666" stroke="#666666" points="135,-196.5 135,-196.5 150,-196.5 150,-196.5 135,-196.5"/>
<polygon fill="#666666" stroke="#666666" points="150,-196.5 150,-196.5 304,-196.5 304,-196.5 150,-196.5"/>
<polygon fill="none" stroke="#666666" points="134.5,0 134.5,-285 303.5,-285 303.5,0 134.5,0"/>
</a>
</g>
</g>
<!-- Node2 -->
<g id="Node000002" class="node">
<title>Node2</title>
<g id="a_Node000002"><a xlink:href="classMayaFlux_1_1Nodes_1_1Network_1_1NodeNetwork.html" target="_top" xlink:title="Abstract base class for structured collections of nodes with defined relationships.">
<polygon fill="white" stroke="transparent" points="148,-887 0,-887 0,-332 148,-332 148,-887"/>
<text text-anchor="start" x="7.5" y="-874.5" font-family="Helvetica,sans-Serif" font-size="10.00">MayaFlux::Nodes::Network</text>
<text text-anchor="start" x="37.5" y="-863.5" font-family="Helvetica,sans-Serif" font-size="10.00">::NodeNetwork</text>
<text text-anchor="start" x="4" y="-848.5" font-family="Helvetica,sans-Serif" font-size="10.00">#</text>
<text text-anchor="start" x="17" y="-848.5" font-family="Helvetica,sans-Serif" font-size="10.00">m_audio_buffer_lock</text>
<text text-anchor="start" x="4" y="-833.5" font-family="Helvetica,sans-Serif" font-size="10.00">#</text>
<text text-anchor="start" x="17" y="-833.5" font-family="Helvetica,sans-Serif" font-size="10.00">m_block_size</text>
<text text-anchor="start" x="4" y="-818.5" font-family="Helvetica,sans-Serif" font-size="10.00">#</text>
<text text-anchor="start" x="17" y="-818.5" font-family="Helvetica,sans-Serif" font-size="10.00">m_channel_mask</text>
<text text-anchor="start" x="4" y="-803.5" font-family="Helvetica,sans-Serif" font-size="10.00">#</text>
<text text-anchor="start" x="17" y="-803.5" font-family="Helvetica,sans-Serif" font-size="10.00">m_enabled</text>
<text text-anchor="start" x="4" y="-788.5" font-family="Helvetica,sans-Serif" font-size="10.00">#</text>
<text text-anchor="start" x="17" y="-788.5" font-family="Helvetica,sans-Serif" font-size="10.00">m_initialized</text>
<text text-anchor="start" x="4" y="-773.5" font-family="Helvetica,sans-Serif" font-size="10.00">#</text>
<text text-anchor="start" x="17" y="-773.5" font-family="Helvetica,sans-Serif" font-size="10.00">m_last_audio_buffer</text>
<text text-anchor="start" x="4" y="-758.5" font-family="Helvetica,sans-Serif" font-size="10.00">#</text>
<text text-anchor="start" x="17" y="-758.5" font-family="Helvetica,sans-Serif" font-size="10.00">m_operator_chain</text>
<text text-anchor="start" x="4" y="-743.5" font-family="Helvetica,sans-Serif" font-size="10.00">#</text>
<text text-anchor="start" x="17" y="-743.5" font-family="Helvetica,sans-Serif" font-size="10.00">m_output_mode</text>
<text text-anchor="start" x="4" y="-728.5" font-family="Helvetica,sans-Serif" font-size="10.00">#</text>
<text text-anchor="start" x="17" y="-728.5" font-family="Helvetica,sans-Serif" font-size="10.00">m_output_scale</text>
<text text-anchor="start" x="4" y="-713.5" font-family="Helvetica,sans-Serif" font-size="10.00">#</text>
<text text-anchor="start" x="17" y="-713.5" font-family="Helvetica,sans-Serif" font-size="10.00">m_parameter_mappings</text>
<text text-anchor="start" x="4" y="-698.5" font-family="Helvetica,sans-Serif" font-size="10.00">#</text>
<text text-anchor="start" x="17" y="-698.5" font-family="Helvetica,sans-Serif" font-size="10.00">m_pending_reset_mask</text>
<text text-anchor="start" x="4" y="-683.5" font-family="Helvetica,sans-Serif" font-size="10.00">#</text>
<text text-anchor="start" x="17" y="-683.5" font-family="Helvetica,sans-Serif" font-size="10.00">m_processed_this_cycle</text>
<text text-anchor="start" x="4" y="-668.5" font-family="Helvetica,sans-Serif" font-size="10.00">#</text>
<text text-anchor="start" x="17" y="-668.5" font-family="Helvetica,sans-Serif" font-size="10.00">m_processing_state</text>
<text text-anchor="start" x="4" y="-653.5" font-family="Helvetica,sans-Serif" font-size="10.00">#</text>
<text text-anchor="start" x="17" y="-653.5" font-family="Helvetica,sans-Serif" font-size="10.00">m_sample_rate</text>
<text text-anchor="start" x="4" y="-638.5" font-family="Helvetica,sans-Serif" font-size="10.00">#</text>
<text text-anchor="start" x="17" y="-638.5" font-family="Helvetica,sans-Serif" font-size="10.00">m_topology</text>
<text text-anchor="start" x="4" y="-623.5" font-family="Helvetica,sans-Serif" font-size="10.00">+</text>
<text text-anchor="start" x="17" y="-623.5" font-family="Helvetica,sans-Serif" font-size="10.00">add_channel_usage()</text>
<text text-anchor="start" x="4" y="-608.5" font-family="Helvetica,sans-Serif" font-size="10.00">+</text>
<text text-anchor="start" x="17" y="-608.5" font-family="Helvetica,sans-Serif" font-size="10.00">get_audio_buffer()</text>
<text text-anchor="start" x="4" y="-593.5" font-family="Helvetica,sans-Serif" font-size="10.00">+</text>
<text text-anchor="start" x="17" y="-593.5" font-family="Helvetica,sans-Serif" font-size="10.00">get_block_size()</text>
<text text-anchor="start" x="4" y="-578.5" font-family="Helvetica,sans-Serif" font-size="10.00">+</text>
<text text-anchor="start" x="17" y="-578.5" font-family="Helvetica,sans-Serif" font-size="10.00">get_channel_mask()</text>
<text text-anchor="start" x="4" y="-563.5" font-family="Helvetica,sans-Serif" font-size="10.00">+</text>
<text text-anchor="start" x="17" y="-563.5" font-family="Helvetica,sans-Serif" font-size="10.00">get_metadata()</text>
<text text-anchor="start" x="4" y="-548.5" font-family="Helvetica,sans-Serif" font-size="10.00">+</text>
<text text-anchor="start" x="17" y="-548.5" font-family="Helvetica,sans-Serif" font-size="10.00">get_node_audio_buffer()</text>
<text text-anchor="start" x="4" y="-533.5" font-family="Helvetica,sans-Serif" font-size="10.00">+</text>
<text text-anchor="start" x="17" y="-533.5" font-family="Helvetica,sans-Serif" font-size="10.00">get_node_count()</text>
<text text-anchor="start" x="4" y="-518.5" font-family="Helvetica,sans-Serif" font-size="10.00">+</text>
<text text-anchor="start" x="17" y="-518.5" font-family="Helvetica,sans-Serif" font-size="10.00">get_node_output()</text>
<text text-anchor="start" x="4" y="-503.5" font-family="Helvetica,sans-Serif" font-size="10.00">+</text>
<text text-anchor="start" x="17" y="-503.5" font-family="Helvetica,sans-Serif" font-size="10.00">get_operator()</text>
<text text-anchor="start" x="4" y="-488.5" font-family="Helvetica,sans-Serif" font-size="10.00">+</text>
<text text-anchor="start" x="17" y="-488.5" font-family="Helvetica,sans-Serif" font-size="10.00">get_operator()</text>
<text text-anchor="start" x="17" y="-473.5" font-family="Helvetica,sans-Serif" font-size="10.00">and 32 more...</text>
<text text-anchor="start" x="4" y="-458.5" font-family="Helvetica,sans-Serif" font-size="10.00">#</text>
<text text-anchor="start" x="17" y="-458.5" font-family="Helvetica,sans-Serif" font-size="10.00">apply_output_scale()</text>
<text text-anchor="start" x="4" y="-443.5" font-family="Helvetica,sans-Serif" font-size="10.00">#</text>
<text text-anchor="start" x="17" y="-443.5" font-family="Helvetica,sans-Serif" font-size="10.00">ensure_initialized()</text>
<text text-anchor="start" x="4" y="-428.5" font-family="Helvetica,sans-Serif" font-size="10.00">#</text>
<text text-anchor="start" x="17" y="-428.5" font-family="Helvetica,sans-Serif" font-size="10.00">build_chain_neighbors()</text>
<text text-anchor="start" x="4" y="-413.5" font-family="Helvetica,sans-Serif" font-size="10.00">#</text>
<text text-anchor="start" x="17" y="-413.5" font-family="Helvetica,sans-Serif" font-size="10.00">build_grid_2d_neighbors()</text>
<text text-anchor="start" x="4" y="-398.5" font-family="Helvetica,sans-Serif" font-size="10.00">#</text>
<text text-anchor="start" x="17" y="-398.5" font-family="Helvetica,sans-Serif" font-size="10.00">build_grid_3d_neighbors()</text>
<text text-anchor="start" x="4" y="-383.5" font-family="Helvetica,sans-Serif" font-size="10.00">#</text>
<text text-anchor="start" x="17" y="-383.5" font-family="Helvetica,sans-Serif" font-size="10.00">build_ring_neighbors()</text>
<text text-anchor="start" x="4" y="-368.5" font-family="Helvetica,sans-Serif" font-size="10.00">#</text>
<text text-anchor="start" x="17" y="-368.5" font-family="Helvetica,sans-Serif" font-size="10.00">extract_node_samples()</text>
<text text-anchor="start" x="6.5" y="-353.5" font-family="Helvetica,sans-Serif" font-size="10.00">&#45;</text>
<text text-anchor="start" x="17" y="-353.5" font-family="Helvetica,sans-Serif" font-size="10.00">output_mode_to_string()</text>
<text text-anchor="start" x="6.5" y="-338.5" font-family="Helvetica,sans-Serif" font-size="10.00">&#45;</text>
<text text-anchor="start" x="17" y="-338.5" font-family="Helvetica,sans-Serif" font-size="10.00">topology_to_string()</text>
<polygon fill="#666666" stroke="#666666" points="0,-858.5 0,-858.5 148,-858.5 148,-858.5 0,-858.5"/>
<polygon fill="#666666" stroke="#666666" points="0,-633.5 0,-633.5 15,-633.5 15,-633.5 0,-633.5"/>
<polygon fill="#666666" stroke="#666666" points="15,-633.5 15,-633.5 148,-633.5 148,-633.5 15,-633.5"/>
<polygon fill="none" stroke="#666666" points="0,-332 0,-887 148,-887 148,-332 0,-332"/>
</a>
</g>
</g>
<!-- Node2&#45;&gt;Node1 -->
<g id="edge1_Node000001_Node000002" class="edge">
<title>Node2&#45;&gt;Node1</title>
<g id="a_edge1_Node000001_Node000002"><a xlink:title=" ">
<path fill="none" stroke="#63b8ff" d="M151.11,-350.81C153.09,-344.47 155.05,-338.2 157,-332 161.78,-316.8 166.86,-300.94 171.97,-285.15"/>
<polygon fill="none" stroke="#63b8ff" points="147.63,-350.22 148.01,-360.81 154.32,-352.3 147.63,-350.22"/>
</a>
</g>
</g>
<!-- Node3 -->
<g id="Node000003" class="node">
<title>Node3</title>
<g id="a_Node000003"><a xlink:href="structMayaFlux_1_1Nodes_1_1RoutingState.html" target="_top" xlink:title="Represents the state of routing transitions for a node.">
<polygon fill="white" stroke="transparent" points="143.5,-1076.5 4.5,-1076.5 4.5,-941.5 143.5,-941.5 143.5,-1076.5"/>
<text text-anchor="start" x="10" y="-1064" font-family="Helvetica,sans-Serif" font-size="10.00">MayaFlux::Nodes::Routing</text>
<text text-anchor="start" x="61.5" y="-1053" font-family="Helvetica,sans-Serif" font-size="10.00">State</text>
<text text-anchor="start" x="19.5" y="-1038" font-family="Helvetica,sans-Serif" font-size="10.00">+</text>
<text text-anchor="start" x="43" y="-1038" font-family="Helvetica,sans-Serif" font-size="10.00">amount</text>
<text text-anchor="start" x="19.5" y="-1023" font-family="Helvetica,sans-Serif" font-size="10.00">+</text>
<text text-anchor="start" x="43" y="-1023" font-family="Helvetica,sans-Serif" font-size="10.00">cycles_elapsed</text>
<text text-anchor="start" x="19.5" y="-1008" font-family="Helvetica,sans-Serif" font-size="10.00">+</text>
<text text-anchor="start" x="43" y="-1008" font-family="Helvetica,sans-Serif" font-size="10.00">fade_cycles</text>
<text text-anchor="start" x="19.5" y="-993" font-family="Helvetica,sans-Serif" font-size="10.00">+</text>
<text text-anchor="start" x="43" y="-993" font-family="Helvetica,sans-Serif" font-size="10.00">from_channels</text>
<text text-anchor="start" x="19.5" y="-978" font-family="Helvetica,sans-Serif" font-size="10.00">+</text>
<text text-anchor="start" x="43" y="-978" font-family="Helvetica,sans-Serif" font-size="10.00">NONE</text>
<text text-anchor="start" x="19.5" y="-963" font-family="Helvetica,sans-Serif" font-size="10.00">+</text>
<text text-anchor="start" x="43" y="-963" font-family="Helvetica,sans-Serif" font-size="10.00">to_channels</text>
<text text-anchor="start" x="72.5" y="-948" font-family="Helvetica,sans-Serif" font-size="10.00"> </text>
<polygon fill="#666666" stroke="#666666" points="5,-1048 5,-1048 144,-1048 144,-1048 5,-1048"/>
<polygon fill="#666666" stroke="#666666" points="5,-958 5,-958 41,-958 41,-958 5,-958"/>
<polygon fill="#666666" stroke="#666666" points="41,-958 41,-958 144,-958 144,-958 41,-958"/>
<polygon fill="none" stroke="#666666" points="4.5,-941.5 4.5,-1076.5 143.5,-1076.5 143.5,-941.5 4.5,-941.5"/>
</a>
</g>
</g>
<!-- Node3&#45;&gt;Node2 -->
<g id="edge2_Node000002_Node000003" class="edge">
<title>Node3&#45;&gt;Node2</title>
<g id="a_edge2_Node000002_Node000003"><a xlink:title=" ">
<path fill="none" stroke="#63b8ff" d="M74,-941.47C74,-928.65 74,-914.49 74,-899.45"/>
<polygon fill="none" stroke="#63b8ff" points="74,-899.22 70,-893.22 74,-887.22 78,-893.22 74,-899.22"/>
</a>
</g>
<text text-anchor="middle" x="117.5" y="-908" font-family="Helvetica,sans-Serif" font-size="10.00" fill="grey"> &#45;m_routing_state</text>
</g>
<!-- Node4 -->
<g id="Node000004" class="node">
<title>Node4</title>
<g id="a_Node000004"><a xlink:href="structMayaFlux_1_1Kinesis_1_1SamplerBounds.html" target="_top" xlink:title="Spatial domain for vertex generation.">
<polygon fill="white" stroke="transparent" points="272,-662 166,-662 166,-557 272,-557 272,-662"/>
<text text-anchor="start" x="171" y="-649.5" font-family="Helvetica,sans-Serif" font-size="10.00">MayaFlux::Kinesis::</text>
<text text-anchor="start" x="180.5" y="-638.5" font-family="Helvetica,sans-Serif" font-size="10.00">SamplerBounds</text>
<text text-anchor="start" x="175" y="-623.5" font-family="Helvetica,sans-Serif" font-size="10.00">+</text>
<text text-anchor="start" x="193" y="-623.5" font-family="Helvetica,sans-Serif" font-size="10.00">max</text>
<text text-anchor="start" x="175" y="-608.5" font-family="Helvetica,sans-Serif" font-size="10.00">+</text>
<text text-anchor="start" x="193" y="-608.5" font-family="Helvetica,sans-Serif" font-size="10.00">min</text>
<text text-anchor="start" x="175" y="-593.5" font-family="Helvetica,sans-Serif" font-size="10.00">+</text>
<text text-anchor="start" x="193" y="-593.5" font-family="Helvetica,sans-Serif" font-size="10.00">center()</text>
<text text-anchor="start" x="175" y="-578.5" font-family="Helvetica,sans-Serif" font-size="10.00">+</text>
<text text-anchor="start" x="193" y="-578.5" font-family="Helvetica,sans-Serif" font-size="10.00">extent()</text>
<text text-anchor="start" x="175" y="-563.5" font-family="Helvetica,sans-Serif" font-size="10.00">+</text>
<text text-anchor="start" x="193" y="-563.5" font-family="Helvetica,sans-Serif" font-size="10.00">max_radius()</text>
<polygon fill="#666666" stroke="#666666" points="166,-633.5 166,-633.5 272,-633.5 272,-633.5 166,-633.5"/>
<polygon fill="#666666" stroke="#666666" points="166,-603.5 166,-603.5 191,-603.5 191,-603.5 166,-603.5"/>
<polygon fill="#666666" stroke="#666666" points="191,-603.5 191,-603.5 272,-603.5 272,-603.5 191,-603.5"/>
<polygon fill="none" stroke="#666666" points="166,-557 166,-662 272,-662 272,-557 166,-557"/>
</a>
</g>
</g>
<!-- Node4&#45;&gt;Node1 -->
<g id="edge3_Node000001_Node000004" class="edge">
<title>Node4&#45;&gt;Node1</title>
<g id="a_edge3_Node000001_Node000004"><a xlink:title=" ">
<path fill="none" stroke="#63b8ff" d="M219,-556.96C219,-494.73 219,-387.25 219,-297.47"/>
<polygon fill="none" stroke="#63b8ff" points="219,-297.21 215,-291.21 219,-285.21 223,-291.21 219,-297.21"/>
</a>
</g>
<text text-anchor="middle" x="248" y="-306" font-family="Helvetica,sans-Serif" font-size="10.00" fill="grey"> &#45;m_bounds</text>
</g>
<!-- Node5 -->
<g id="Node000005" class="node">
<title>Node5</title>
<g id="a_Node000005"><a xlink:href="classMayaFlux_1_1Kinesis_1_1Stochastic_1_1Stochastic.html" target="_top" xlink:title="Unified generative infrastructure for stochastic and procedural algorithms.">
<polygon fill="white" stroke="transparent" points="440,-860.5 290,-860.5 290,-358.5 440,-358.5 440,-860.5"/>
<text text-anchor="start" x="311.5" y="-848.5" font-family="Helvetica,sans-Serif" font-size="10.00">MayaFlux::Kinesis::</text>
<text text-anchor="start" x="311.5" y="-837.5" font-family="Helvetica,sans-Serif" font-size="10.00">Stochastic::Stochastic</text>
<text text-anchor="start" x="296.5" y="-822.5" font-family="Helvetica,sans-Serif" font-size="10.00">&#45;</text>
<text text-anchor="start" x="307" y="-822.5" font-family="Helvetica,sans-Serif" font-size="10.00">m_algorithm</text>
<text text-anchor="start" x="296.5" y="-807.5" font-family="Helvetica,sans-Serif" font-size="10.00">&#45;</text>
<text text-anchor="start" x="307" y="-807.5" font-family="Helvetica,sans-Serif" font-size="10.00">m_cached_max</text>
<text text-anchor="start" x="296.5" y="-792.5" font-family="Helvetica,sans-Serif" font-size="10.00">&#45;</text>
<text text-anchor="start" x="307" y="-792.5" font-family="Helvetica,sans-Serif" font-size="10.00">m_cached_min</text>
<text text-anchor="start" x="296.5" y="-777.5" font-family="Helvetica,sans-Serif" font-size="10.00">&#45;</text>
<text text-anchor="start" x="307" y="-777.5" font-family="Helvetica,sans-Serif" font-size="10.00">m_config</text>
<text text-anchor="start" x="296.5" y="-762.5" font-family="Helvetica,sans-Serif" font-size="10.00">&#45;</text>
<text text-anchor="start" x="307" y="-762.5" font-family="Helvetica,sans-Serif" font-size="10.00">m_dist_dirty</text>
<text text-anchor="start" x="296.5" y="-747.5" font-family="Helvetica,sans-Serif" font-size="10.00">&#45;</text>
<text text-anchor="start" x="307" y="-747.5" font-family="Helvetica,sans-Serif" font-size="10.00">m_engine</text>
<text text-anchor="start" x="296.5" y="-732.5" font-family="Helvetica,sans-Serif" font-size="10.00">&#45;</text>
<text text-anchor="start" x="307" y="-732.5" font-family="Helvetica,sans-Serif" font-size="10.00">m_exponential_dist</text>
<text text-anchor="start" x="296.5" y="-717.5" font-family="Helvetica,sans-Serif" font-size="10.00">&#45;</text>
<text text-anchor="start" x="307" y="-717.5" font-family="Helvetica,sans-Serif" font-size="10.00">m_normal_dist</text>
<text text-anchor="start" x="296.5" y="-702.5" font-family="Helvetica,sans-Serif" font-size="10.00">&#45;</text>
<text text-anchor="start" x="307" y="-702.5" font-family="Helvetica,sans-Serif" font-size="10.00">m_xorshift_state</text>
<text text-anchor="start" x="294" y="-687.5" font-family="Helvetica,sans-Serif" font-size="10.00">+</text>
<text text-anchor="start" x="307" y="-687.5" font-family="Helvetica,sans-Serif" font-size="10.00">at()</text>
<text text-anchor="start" x="294" y="-672.5" font-family="Helvetica,sans-Serif" font-size="10.00">+</text>
<text text-anchor="start" x="307" y="-672.5" font-family="Helvetica,sans-Serif" font-size="10.00">batch()</text>
<text text-anchor="start" x="294" y="-657.5" font-family="Helvetica,sans-Serif" font-size="10.00">+</text>
<text text-anchor="start" x="307" y="-657.5" font-family="Helvetica,sans-Serif" font-size="10.00">configure()</text>
<text text-anchor="start" x="294" y="-642.5" font-family="Helvetica,sans-Serif" font-size="10.00">+</text>
<text text-anchor="start" x="307" y="-642.5" font-family="Helvetica,sans-Serif" font-size="10.00">get_algorithm()</text>
<text text-anchor="start" x="294" y="-627.5" font-family="Helvetica,sans-Serif" font-size="10.00">+</text>
<text text-anchor="start" x="307" y="-627.5" font-family="Helvetica,sans-Serif" font-size="10.00">get_config()</text>
<text text-anchor="start" x="294" y="-612.5" font-family="Helvetica,sans-Serif" font-size="10.00">+</text>
<text text-anchor="start" x="307" y="-612.5" font-family="Helvetica,sans-Serif" font-size="10.00">operator()()</text>
<text text-anchor="start" x="294" y="-597.5" font-family="Helvetica,sans-Serif" font-size="10.00">+</text>
<text text-anchor="start" x="307" y="-597.5" font-family="Helvetica,sans-Serif" font-size="10.00">reset_state()</text>
<text text-anchor="start" x="294" y="-582.5" font-family="Helvetica,sans-Serif" font-size="10.00">+</text>
<text text-anchor="start" x="307" y="-582.5" font-family="Helvetica,sans-Serif" font-size="10.00">seed()</text>
<text text-anchor="start" x="294" y="-567.5" font-family="Helvetica,sans-Serif" font-size="10.00">+</text>
<text text-anchor="start" x="307" y="-567.5" font-family="Helvetica,sans-Serif" font-size="10.00">set_algorithm()</text>
<text text-anchor="start" x="294" y="-552.5" font-family="Helvetica,sans-Serif" font-size="10.00">+</text>
<text text-anchor="start" x="307" y="-552.5" font-family="Helvetica,sans-Serif" font-size="10.00">state()</text>
<text text-anchor="start" x="294" y="-537.5" font-family="Helvetica,sans-Serif" font-size="10.00">+</text>
<text text-anchor="start" x="307" y="-537.5" font-family="Helvetica,sans-Serif" font-size="10.00">state_mutable()</text>
<text text-anchor="start" x="294" y="-522.5" font-family="Helvetica,sans-Serif" font-size="10.00">+</text>
<text text-anchor="start" x="307" y="-522.5" font-family="Helvetica,sans-Serif" font-size="10.00">Stochastic()</text>
<text text-anchor="start" x="296.5" y="-507.5" font-family="Helvetica,sans-Serif" font-size="10.00">&#45;</text>
<text text-anchor="start" x="307" y="-507.5" font-family="Helvetica,sans-Serif" font-size="10.00">fast_uniform()</text>
<text text-anchor="start" x="296.5" y="-492.5" font-family="Helvetica,sans-Serif" font-size="10.00">&#45;</text>
<text text-anchor="start" x="307" y="-492.5" font-family="Helvetica,sans-Serif" font-size="10.00">generate_brownian_impl()</text>
<text text-anchor="start" x="296.5" y="-477.5" font-family="Helvetica,sans-Serif" font-size="10.00">&#45;</text>
<text text-anchor="start" x="307" y="-477.5" font-family="Helvetica,sans-Serif" font-size="10.00">generate_colored_noise</text>
<text text-anchor="start" x="307" y="-466.5" font-family="Helvetica,sans-Serif" font-size="10.00">_impl()</text>
<text text-anchor="start" x="296.5" y="-451.5" font-family="Helvetica,sans-Serif" font-size="10.00">&#45;</text>
<text text-anchor="start" x="307" y="-451.5" font-family="Helvetica,sans-Serif" font-size="10.00">generate_gendy_impl()</text>
<text text-anchor="start" x="296.5" y="-436.5" font-family="Helvetica,sans-Serif" font-size="10.00">&#45;</text>
<text text-anchor="start" x="307" y="-436.5" font-family="Helvetica,sans-Serif" font-size="10.00">generate_memoryless()</text>
<text text-anchor="start" x="296.5" y="-421.5" font-family="Helvetica,sans-Serif" font-size="10.00">&#45;</text>
<text text-anchor="start" x="307" y="-421.5" font-family="Helvetica,sans-Serif" font-size="10.00">generate_perlin_impl()</text>
<text text-anchor="start" x="296.5" y="-406.5" font-family="Helvetica,sans-Serif" font-size="10.00">&#45;</text>
<text text-anchor="start" x="307" y="-406.5" font-family="Helvetica,sans-Serif" font-size="10.00">generate_stateful()</text>
<text text-anchor="start" x="296.5" y="-391.5" font-family="Helvetica,sans-Serif" font-size="10.00">&#45;</text>
<text text-anchor="start" x="307" y="-391.5" font-family="Helvetica,sans-Serif" font-size="10.00">rebuild_distributions</text>
<text text-anchor="start" x="307" y="-380.5" font-family="Helvetica,sans-Serif" font-size="10.00">_if_needed()</text>
<text text-anchor="start" x="296.5" y="-365.5" font-family="Helvetica,sans-Serif" font-size="10.00">&#45;</text>
<text text-anchor="start" x="307" y="-365.5" font-family="Helvetica,sans-Serif" font-size="10.00">validate_range()</text>
<polygon fill="#666666" stroke="#666666" points="290,-832.5 290,-832.5 440,-832.5 440,-832.5 290,-832.5"/>
<polygon fill="#666666" stroke="#666666" points="290,-697.5 290,-697.5 305,-697.5 305,-697.5 290,-697.5"/>
<polygon fill="#666666" stroke="#666666" points="305,-697.5 305,-697.5 440,-697.5 440,-697.5 305,-697.5"/>
<polygon fill="none" stroke="#666666" points="290,-358.5 290,-860.5 440,-860.5 440,-358.5 290,-358.5"/>
</a>
</g>
</g>
<!-- Node5&#45;&gt;Node1 -->
<g id="edge4_Node000001_Node000005" class="edge">
<title>Node5&#45;&gt;Node1</title>
<g id="a_edge4_Node000001_Node000005"><a xlink:title=" ">
<path fill="none" stroke="#63b8ff" d="M298.43,-358.2C292.76,-339.45 286.92,-320.89 281,-303 280.34,-301.01 279.67,-299.01 279,-297"/>
<polygon fill="none" stroke="#63b8ff" points="278.91,-296.76 273.18,-292.39 275.01,-285.42 280.75,-289.79 278.91,-296.76"/>
</a>
</g>
<text text-anchor="middle" x="324.5" y="-306" font-family="Helvetica,sans-Serif" font-size="10.00" fill="grey"> &#45;m_random_gen</text>
</g>
<!-- Node6 -->
<g id="Node000006" class="node">
<title>Node6</title>
<g id="a_Node000006"><a xlink:href="structMayaFlux_1_1Kinesis_1_1Stochastic_1_1GeneratorState.html" target="_top" xlink:title="Encapsulates internal state for stateful generators.">
<polygon fill="white" stroke="transparent" points="435.5,-1084 294.5,-1084 294.5,-934 435.5,-934 435.5,-1084"/>
<text text-anchor="start" x="300" y="-1072" font-family="Helvetica,sans-Serif" font-size="10.00">MayaFlux::Kinesis::</text>
<text text-anchor="start" x="300" y="-1061" font-family="Helvetica,sans-Serif" font-size="10.00">Stochastic::GeneratorState</text>
<text text-anchor="start" x="306.5" y="-1046" font-family="Helvetica,sans-Serif" font-size="10.00">+</text>
<text text-anchor="start" x="327" y="-1046" font-family="Helvetica,sans-Serif" font-size="10.00">algorithm_specific</text>
<text text-anchor="start" x="306.5" y="-1031" font-family="Helvetica,sans-Serif" font-size="10.00">+</text>
<text text-anchor="start" x="327" y="-1031" font-family="Helvetica,sans-Serif" font-size="10.00">current_value</text>
<text text-anchor="start" x="306.5" y="-1016" font-family="Helvetica,sans-Serif" font-size="10.00">+</text>
<text text-anchor="start" x="327" y="-1016" font-family="Helvetica,sans-Serif" font-size="10.00">internal_buffer</text>
<text text-anchor="start" x="306.5" y="-1001" font-family="Helvetica,sans-Serif" font-size="10.00">+</text>
<text text-anchor="start" x="327" y="-1001" font-family="Helvetica,sans-Serif" font-size="10.00">phase</text>
<text text-anchor="start" x="306.5" y="-986" font-family="Helvetica,sans-Serif" font-size="10.00">+</text>
<text text-anchor="start" x="327" y="-986" font-family="Helvetica,sans-Serif" font-size="10.00">previous_value</text>
<text text-anchor="start" x="306.5" y="-971" font-family="Helvetica,sans-Serif" font-size="10.00">+</text>
<text text-anchor="start" x="327" y="-971" font-family="Helvetica,sans-Serif" font-size="10.00">step_count</text>
<text text-anchor="start" x="306.5" y="-956" font-family="Helvetica,sans-Serif" font-size="10.00">+</text>
<text text-anchor="start" x="327" y="-956" font-family="Helvetica,sans-Serif" font-size="10.00">velocity</text>
<text text-anchor="start" x="306.5" y="-941" font-family="Helvetica,sans-Serif" font-size="10.00">+</text>
<text text-anchor="start" x="327" y="-941" font-family="Helvetica,sans-Serif" font-size="10.00">reset()</text>
<polygon fill="#666666" stroke="#666666" points="295,-1056 295,-1056 436,-1056 436,-1056 295,-1056"/>
<polygon fill="#666666" stroke="#666666" points="295,-951 295,-951 325,-951 325,-951 295,-951"/>
<polygon fill="#666666" stroke="#666666" points="325,-951 325,-951 436,-951 436,-951 325,-951"/>
<polygon fill="none" stroke="#666666" points="294.5,-934 294.5,-1084 435.5,-1084 435.5,-934 294.5,-934"/>
</a>
</g>
</g>
<!-- Node6&#45;&gt;Node5 -->
<g id="edge5_Node000005_Node000006" class="edge">
<title>Node6&#45;&gt;Node5</title>
<g id="a_edge5_Node000005_Node000006"><a xlink:title=" ">
<path fill="none" stroke="#63b8ff" d="M365,-933.7C365,-915.4 365,-894.75 365,-872.96"/>
<polygon fill="none" stroke="#63b8ff" points="365,-872.74 361,-866.74 365,-860.74 369,-866.74 365,-872.74"/>
</a>
</g>
<text text-anchor="middle" x="388.5" y="-908" font-family="Helvetica,sans-Serif" font-size="10.00" fill="grey"> &#45;m_state</text>
</g>
</g>
</svg>
