<?xml version="1.0" encoding="UTF-8" standalone="no"?>
<!DOCTYPE svg PUBLIC "-//W3C//DTD SVG 1.1//EN"
 "http://www.w3.org/Graphics/SVG/1.1/DTD/svg11.dtd">
<!-- Generated by graphviz version 2.43.0 (0)
 -->
<!-- Title: MayaFlux::Buffers::AggregateBindingsProcessor Pages: 1 -->
<svg width="487pt" height="613pt"
 viewBox="0.00 0.00 487.00 613.00" xmlns="http://www.w3.org/2000/svg" xmlns:xlink="http://www.w3.org/1999/xlink">
<g id="graph0" class="graph" transform="scale(1 1) rotate(0) translate(4 609)">
<title>MayaFlux::Buffers::AggregateBindingsProcessor</title>
<!-- Node1 -->
<g id="Node000001" class="node">
<title>Node1</title>
<g id="a_Node000001"><a xlink:title="BufferProcessor that aggregates multiple node outputs into GPU buffers.">
<polygon fill="#999999" stroke="transparent" points="314,-195 145,-195 145,0 314,0 314,-195"/>
<text text-anchor="start" x="160" y="-182.5" font-family="Helvetica,sans-Serif" font-size="10.00">MayaFlux::Buffers::</text>
<text text-anchor="start" x="160" y="-171.5" font-family="Helvetica,sans-Serif" font-size="10.00">AggregateBindingsProcessor</text>
<text text-anchor="start" x="152" y="-156.5" font-family="Helvetica,sans-Serif" font-size="10.00">&#45;</text>
<text text-anchor="start" x="162.5" y="-156.5" font-family="Helvetica,sans-Serif" font-size="10.00">m_aggregates</text>
<text text-anchor="start" x="149.5" y="-141.5" font-family="Helvetica,sans-Serif" font-size="10.00">+</text>
<text text-anchor="start" x="162.5" y="-141.5" font-family="Helvetica,sans-Serif" font-size="10.00">add_node()</text>
<text text-anchor="start" x="149.5" y="-126.5" font-family="Helvetica,sans-Serif" font-size="10.00">+</text>
<text text-anchor="start" x="162.5" y="-126.5" font-family="Helvetica,sans-Serif" font-size="10.00">AggregateBindingsProcessor()</text>
<text text-anchor="start" x="149.5" y="-111.5" font-family="Helvetica,sans-Serif" font-size="10.00">+</text>
<text text-anchor="start" x="162.5" y="-111.5" font-family="Helvetica,sans-Serif" font-size="10.00">clear_aggregate()</text>
<text text-anchor="start" x="149.5" y="-96.5" font-family="Helvetica,sans-Serif" font-size="10.00">+</text>
<text text-anchor="start" x="162.5" y="-96.5" font-family="Helvetica,sans-Serif" font-size="10.00">clear_all_aggregates()</text>
<text text-anchor="start" x="149.5" y="-81.5" font-family="Helvetica,sans-Serif" font-size="10.00">+</text>
<text text-anchor="start" x="162.5" y="-81.5" font-family="Helvetica,sans-Serif" font-size="10.00">get_aggregate_count()</text>
<text text-anchor="start" x="149.5" y="-66.5" font-family="Helvetica,sans-Serif" font-size="10.00">+</text>
<text text-anchor="start" x="162.5" y="-66.5" font-family="Helvetica,sans-Serif" font-size="10.00">get_aggregate_names()</text>
<text text-anchor="start" x="149.5" y="-51.5" font-family="Helvetica,sans-Serif" font-size="10.00">+</text>
<text text-anchor="start" x="162.5" y="-51.5" font-family="Helvetica,sans-Serif" font-size="10.00">get_node_count()</text>
<text text-anchor="start" x="149.5" y="-36.5" font-family="Helvetica,sans-Serif" font-size="10.00">+</text>
<text text-anchor="start" x="162.5" y="-36.5" font-family="Helvetica,sans-Serif" font-size="10.00">get_total_node_count()</text>
<text text-anchor="start" x="149.5" y="-21.5" font-family="Helvetica,sans-Serif" font-size="10.00">+</text>
<text text-anchor="start" x="162.5" y="-21.5" font-family="Helvetica,sans-Serif" font-size="10.00">processing_function()</text>
<text text-anchor="start" x="149.5" y="-6.5" font-family="Helvetica,sans-Serif" font-size="10.00">+</text>
<text text-anchor="start" x="162.5" y="-6.5" font-family="Helvetica,sans-Serif" font-size="10.00">remove_node()</text>
<polygon fill="#666666" stroke="#666666" points="145.5,-166.5 145.5,-166.5 314.5,-166.5 314.5,-166.5 145.5,-166.5"/>
<polygon fill="#666666" stroke="#666666" points="145.5,-151.5 145.5,-151.5 160.5,-151.5 160.5,-151.5 145.5,-151.5"/>
<polygon fill="#666666" stroke="#666666" points="160.5,-151.5 160.5,-151.5 314.5,-151.5 314.5,-151.5 160.5,-151.5"/>
<polygon fill="none" stroke="#666666" points="145,0 145,-195 314,-195 314,0 145,0"/>
</a>
</g>
</g>
<!-- Node2 -->
<g id="Node000002" class="node">
<title>Node2</title>
<g id="a_Node000002"><a xlink:href="classMayaFlux_1_1Buffers_1_1VKBufferProcessor.html" target="_top" xlink:title=" ">
<polygon fill="white" stroke="transparent" points="302,-333 157,-333 157,-232 302,-232 302,-333"/>
<text text-anchor="start" x="182.5" y="-320.5" font-family="Helvetica,sans-Serif" font-size="10.00">MayaFlux::Buffers::</text>
<text text-anchor="start" x="184.5" y="-309.5" font-family="Helvetica,sans-Serif" font-size="10.00">VKBufferProcessor</text>
<text text-anchor="start" x="228" y="-294.5" font-family="Helvetica,sans-Serif" font-size="10.00"> </text>
<text text-anchor="start" x="161.5" y="-279.5" font-family="Helvetica,sans-Serif" font-size="10.00">#</text>
<text text-anchor="start" x="174.5" y="-279.5" font-family="Helvetica,sans-Serif" font-size="10.00">ensure_initialized()</text>
<text text-anchor="start" x="161.5" y="-264.5" font-family="Helvetica,sans-Serif" font-size="10.00">#</text>
<text text-anchor="start" x="174.5" y="-264.5" font-family="Helvetica,sans-Serif" font-size="10.00">initialize_buffer_service()</text>
<text text-anchor="start" x="161.5" y="-249.5" font-family="Helvetica,sans-Serif" font-size="10.00">#</text>
<text text-anchor="start" x="174.5" y="-249.5" font-family="Helvetica,sans-Serif" font-size="10.00">initialize_compute</text>
<text text-anchor="start" x="174.5" y="-238.5" font-family="Helvetica,sans-Serif" font-size="10.00">_service()</text>
<polygon fill="#666666" stroke="#666666" points="157.5,-304.5 157.5,-304.5 302.5,-304.5 302.5,-304.5 157.5,-304.5"/>
<polygon fill="#666666" stroke="#666666" points="157.5,-289.5 157.5,-289.5 302.5,-289.5 302.5,-289.5 157.5,-289.5"/>
<polygon fill="none" stroke="#666666" points="157,-232 157,-333 302,-333 302,-232 157,-232"/>
</a>
</g>
</g>
<!-- Node2&#45;&gt;Node1 -->
<g id="edge1_Node000001_Node000002" class="edge">
<title>Node2&#45;&gt;Node1</title>
<g id="a_edge1_Node000001_Node000002"><a xlink:title=" ">
<path fill="none" stroke="#63b8ff" d="M229.5,-221.81C229.5,-213.28 229.5,-204.33 229.5,-195.31"/>
<polygon fill="none" stroke="#63b8ff" points="226,-221.98 229.5,-231.98 233,-221.98 226,-221.98"/>
</a>
</g>
</g>
<!-- Node3 -->
<g id="Node000003" class="node">
<title>Node3</title>
<g id="a_Node000003"><a xlink:href="classMayaFlux_1_1Buffers_1_1BufferProcessor.html" target="_top" xlink:title="Central computational transformation interface for continuous buffer processing.">
<polygon fill="white" stroke="transparent" points="135,-590 0,-590 0,-395 135,-395 135,-590"/>
<text text-anchor="start" x="20.5" y="-577.5" font-family="Helvetica,sans-Serif" font-size="10.00">MayaFlux::Buffers::</text>
<text text-anchor="start" x="29.5" y="-566.5" font-family="Helvetica,sans-Serif" font-size="10.00">BufferProcessor</text>
<text text-anchor="start" x="4.5" y="-551.5" font-family="Helvetica,sans-Serif" font-size="10.00">#</text>
<text text-anchor="start" x="17.5" y="-551.5" font-family="Helvetica,sans-Serif" font-size="10.00">m_processing_token</text>
<text text-anchor="start" x="7" y="-536.5" font-family="Helvetica,sans-Serif" font-size="10.00">&#45;</text>
<text text-anchor="start" x="17.5" y="-536.5" font-family="Helvetica,sans-Serif" font-size="10.00">m_active_processing</text>
<text text-anchor="start" x="4.5" y="-521.5" font-family="Helvetica,sans-Serif" font-size="10.00">+</text>
<text text-anchor="start" x="17.5" y="-521.5" font-family="Helvetica,sans-Serif" font-size="10.00">get_processing_token()</text>
<text text-anchor="start" x="4.5" y="-506.5" font-family="Helvetica,sans-Serif" font-size="10.00">+</text>
<text text-anchor="start" x="17.5" y="-506.5" font-family="Helvetica,sans-Serif" font-size="10.00">is_compatible_with()</text>
<text text-anchor="start" x="4.5" y="-491.5" font-family="Helvetica,sans-Serif" font-size="10.00">+</text>
<text text-anchor="start" x="17.5" y="-491.5" font-family="Helvetica,sans-Serif" font-size="10.00">on_attach()</text>
<text text-anchor="start" x="4.5" y="-476.5" font-family="Helvetica,sans-Serif" font-size="10.00">+</text>
<text text-anchor="start" x="17.5" y="-476.5" font-family="Helvetica,sans-Serif" font-size="10.00">on_detach()</text>
<text text-anchor="start" x="4.5" y="-461.5" font-family="Helvetica,sans-Serif" font-size="10.00">+</text>
<text text-anchor="start" x="17.5" y="-461.5" font-family="Helvetica,sans-Serif" font-size="10.00">process()</text>
<text text-anchor="start" x="4.5" y="-446.5" font-family="Helvetica,sans-Serif" font-size="10.00">+</text>
<text text-anchor="start" x="17.5" y="-446.5" font-family="Helvetica,sans-Serif" font-size="10.00">processing_function()</text>
<text text-anchor="start" x="4.5" y="-431.5" font-family="Helvetica,sans-Serif" font-size="10.00">+</text>
<text text-anchor="start" x="17.5" y="-431.5" font-family="Helvetica,sans-Serif" font-size="10.00">set_processing_token()</text>
<text text-anchor="start" x="4.5" y="-416.5" font-family="Helvetica,sans-Serif" font-size="10.00">+</text>
<text text-anchor="start" x="17.5" y="-416.5" font-family="Helvetica,sans-Serif" font-size="10.00">~BufferProcessor()</text>
<text text-anchor="start" x="7" y="-401.5" font-family="Helvetica,sans-Serif" font-size="10.00">&#45;</text>
<text text-anchor="start" x="17.5" y="-401.5" font-family="Helvetica,sans-Serif" font-size="10.00">process_non_owning()</text>
<polygon fill="#666666" stroke="#666666" points="0.5,-561.5 0.5,-561.5 135.5,-561.5 135.5,-561.5 0.5,-561.5"/>
<polygon fill="#666666" stroke="#666666" points="0.5,-531.5 0.5,-531.5 15.5,-531.5 15.5,-531.5 0.5,-531.5"/>
<polygon fill="#666666" stroke="#666666" points="15.5,-531.5 15.5,-531.5 135.5,-531.5 135.5,-531.5 15.5,-531.5"/>
<polygon fill="none" stroke="#666666" points="0,-395 0,-590 135,-590 135,-395 0,-395"/>
</a>
</g>
</g>
<!-- Node3&#45;&gt;Node2 -->
<g id="edge2_Node000002_Node000003" class="edge">
<title>Node3&#45;&gt;Node2</title>
<g id="a_edge2_Node000002_Node000003"><a xlink:title=" ">
<path fill="none" stroke="#63b8ff" d="M139.19,-386.88C140.96,-384.56 142.73,-382.26 144.5,-380 156.73,-364.34 170.73,-347.91 183.8,-333.13"/>
<polygon fill="none" stroke="#63b8ff" points="136.38,-384.79 133.16,-394.89 141.97,-389.01 136.38,-384.79"/>
</a>
</g>
</g>
<!-- Node4 -->
<g id="Node000004" class="node">
<title>Node4</title>
<g id="a_Node000004"><a xlink:href="structMayaFlux_1_1Registry_1_1Service_1_1BufferService.html" target="_top" xlink:title="Backend buffer management service interface.">
<polygon fill="white" stroke="transparent" points="305.5,-605 153.5,-605 153.5,-380 305.5,-380 305.5,-605"/>
<text text-anchor="start" x="172.5" y="-592.5" font-family="Helvetica,sans-Serif" font-size="10.00">MayaFlux::Registry</text>
<text text-anchor="start" x="172.5" y="-581.5" font-family="Helvetica,sans-Serif" font-size="10.00">::Service::BufferService</text>
<text text-anchor="start" x="157.5" y="-566.5" font-family="Helvetica,sans-Serif" font-size="10.00">+</text>
<text text-anchor="start" x="170.5" y="-566.5" font-family="Helvetica,sans-Serif" font-size="10.00">destroy_buffer</text>
<text text-anchor="start" x="157.5" y="-551.5" font-family="Helvetica,sans-Serif" font-size="10.00">+</text>
<text text-anchor="start" x="170.5" y="-551.5" font-family="Helvetica,sans-Serif" font-size="10.00">execute_fenced</text>
<text text-anchor="start" x="157.5" y="-536.5" font-family="Helvetica,sans-Serif" font-size="10.00">+</text>
<text text-anchor="start" x="170.5" y="-536.5" font-family="Helvetica,sans-Serif" font-size="10.00">execute_immediate</text>
<text text-anchor="start" x="157.5" y="-521.5" font-family="Helvetica,sans-Serif" font-size="10.00">+</text>
<text text-anchor="start" x="170.5" y="-521.5" font-family="Helvetica,sans-Serif" font-size="10.00">flush_range</text>
<text text-anchor="start" x="157.5" y="-506.5" font-family="Helvetica,sans-Serif" font-size="10.00">+</text>
<text text-anchor="start" x="170.5" y="-506.5" font-family="Helvetica,sans-Serif" font-size="10.00">get_buffer_device_address</text>
<text text-anchor="start" x="157.5" y="-491.5" font-family="Helvetica,sans-Serif" font-size="10.00">+</text>
<text text-anchor="start" x="170.5" y="-491.5" font-family="Helvetica,sans-Serif" font-size="10.00">initialize_buffer</text>
<text text-anchor="start" x="157.5" y="-476.5" font-family="Helvetica,sans-Serif" font-size="10.00">+</text>
<text text-anchor="start" x="170.5" y="-476.5" font-family="Helvetica,sans-Serif" font-size="10.00">invalidate_range</text>
<text text-anchor="start" x="157.5" y="-461.5" font-family="Helvetica,sans-Serif" font-size="10.00">+</text>
<text text-anchor="start" x="170.5" y="-461.5" font-family="Helvetica,sans-Serif" font-size="10.00">map_buffer</text>
<text text-anchor="start" x="157.5" y="-446.5" font-family="Helvetica,sans-Serif" font-size="10.00">+</text>
<text text-anchor="start" x="170.5" y="-446.5" font-family="Helvetica,sans-Serif" font-size="10.00">record_deferred</text>
<text text-anchor="start" x="157.5" y="-431.5" font-family="Helvetica,sans-Serif" font-size="10.00">+</text>
<text text-anchor="start" x="170.5" y="-431.5" font-family="Helvetica,sans-Serif" font-size="10.00">release_fenced</text>
<text text-anchor="start" x="157.5" y="-416.5" font-family="Helvetica,sans-Serif" font-size="10.00">+</text>
<text text-anchor="start" x="170.5" y="-416.5" font-family="Helvetica,sans-Serif" font-size="10.00">unmap_buffer</text>
<text text-anchor="start" x="157.5" y="-401.5" font-family="Helvetica,sans-Serif" font-size="10.00">+</text>
<text text-anchor="start" x="170.5" y="-401.5" font-family="Helvetica,sans-Serif" font-size="10.00">wait_fenced</text>
<text text-anchor="start" x="227.5" y="-386.5" font-family="Helvetica,sans-Serif" font-size="10.00"> </text>
<polygon fill="#666666" stroke="#666666" points="153.5,-576.5 153.5,-576.5 305.5,-576.5 305.5,-576.5 153.5,-576.5"/>
<polygon fill="#666666" stroke="#666666" points="153.5,-396.5 153.5,-396.5 168.5,-396.5 168.5,-396.5 153.5,-396.5"/>
<polygon fill="#666666" stroke="#666666" points="168.5,-396.5 168.5,-396.5 305.5,-396.5 305.5,-396.5 168.5,-396.5"/>
<polygon fill="none" stroke="#666666" points="153.5,-380 153.5,-605 305.5,-605 305.5,-380 153.5,-380"/>
</a>
</g>
</g>
<!-- Node4&#45;&gt;Node2 -->
<g id="edge3_Node000002_Node000004" class="edge">
<title>Node4&#45;&gt;Node2</title>
<g id="a_edge3_Node000002_Node000004"><a xlink:title=" ">
<path fill="none" stroke="#63b8ff" d="M229.5,-379.89C229.5,-367.99 229.5,-356.22 229.5,-345.21"/>
<polygon fill="none" stroke="#63b8ff" points="229.5,-345.14 225.5,-339.14 229.5,-333.14 233.5,-339.14 229.5,-345.14"/>
</a>
</g>
<text text-anchor="middle" x="277.5" y="-354" font-family="Helvetica,sans-Serif" font-size="10.00" fill="grey"> #m_buffer_service</text>
</g>
<!-- Node5 -->
<g id="Node000005" class="node">
<title>Node5</title>
<g id="a_Node000005"><a xlink:href="structMayaFlux_1_1Registry_1_1Service_1_1ComputeService.html" target="_top" xlink:title="Backend compute shader and pipeline service interface.">
<polygon fill="white" stroke="transparent" points="479,-560 324,-560 324,-425 479,-425 479,-560"/>
<text text-anchor="start" x="337.5" y="-547.5" font-family="Helvetica,sans-Serif" font-size="10.00">MayaFlux::Registry</text>
<text text-anchor="start" x="337.5" y="-536.5" font-family="Helvetica,sans-Serif" font-size="10.00">::Service::ComputeService</text>
<text text-anchor="start" x="328.5" y="-521.5" font-family="Helvetica,sans-Serif" font-size="10.00">+</text>
<text text-anchor="start" x="341.5" y="-521.5" font-family="Helvetica,sans-Serif" font-size="10.00">cleanup_resource</text>
<text text-anchor="start" x="328.5" y="-506.5" font-family="Helvetica,sans-Serif" font-size="10.00">+</text>
<text text-anchor="start" x="341.5" y="-506.5" font-family="Helvetica,sans-Serif" font-size="10.00">create_compute_pipeline</text>
<text text-anchor="start" x="328.5" y="-491.5" font-family="Helvetica,sans-Serif" font-size="10.00">+</text>
<text text-anchor="start" x="341.5" y="-491.5" font-family="Helvetica,sans-Serif" font-size="10.00">create_descriptor_layout</text>
<text text-anchor="start" x="328.5" y="-476.5" font-family="Helvetica,sans-Serif" font-size="10.00">+</text>
<text text-anchor="start" x="341.5" y="-476.5" font-family="Helvetica,sans-Serif" font-size="10.00">create_descriptor_manager</text>
<text text-anchor="start" x="328.5" y="-461.5" font-family="Helvetica,sans-Serif" font-size="10.00">+</text>
<text text-anchor="start" x="341.5" y="-461.5" font-family="Helvetica,sans-Serif" font-size="10.00">create_shader_module</text>
<text text-anchor="start" x="328.5" y="-446.5" font-family="Helvetica,sans-Serif" font-size="10.00">+</text>
<text text-anchor="start" x="341.5" y="-446.5" font-family="Helvetica,sans-Serif" font-size="10.00">dispatch_compute</text>
<text text-anchor="start" x="400" y="-431.5" font-family="Helvetica,sans-Serif" font-size="10.00"> </text>
<polygon fill="#666666" stroke="#666666" points="324.5,-531.5 324.5,-531.5 479.5,-531.5 479.5,-531.5 324.5,-531.5"/>
<polygon fill="#666666" stroke="#666666" points="324.5,-441.5 324.5,-441.5 339.5,-441.5 339.5,-441.5 324.5,-441.5"/>
<polygon fill="#666666" stroke="#666666" points="339.5,-441.5 339.5,-441.5 479.5,-441.5 479.5,-441.5 339.5,-441.5"/>
<polygon fill="none" stroke="#666666" points="324,-425 324,-560 479,-560 479,-425 324,-425"/>
</a>
</g>
</g>
<!-- Node5&#45;&gt;Node2 -->
<g id="edge4_Node000002_Node000005" class="edge">
<title>Node5&#45;&gt;Node2</title>
<g id="a_edge4_Node000002_Node000005"><a xlink:title=" ">
<path fill="none" stroke="#63b8ff" d="M375.83,-425C364.13,-400.04 348.59,-372.54 329.5,-351 324.13,-344.94 318.11,-339.18 311.75,-333.76"/>
<polygon fill="none" stroke="#63b8ff" points="311.55,-333.6 304.37,-332.94 302.22,-326.06 309.4,-326.72 311.55,-333.6"/>
</a>
</g>
<text text-anchor="middle" x="392.5" y="-354" font-family="Helvetica,sans-Serif" font-size="10.00" fill="grey"> #m_compute_service</text>
</g>
</g>
</svg>
