<?xml version="1.0" encoding="UTF-8" standalone="no"?>
<!DOCTYPE svg PUBLIC "-//W3C//DTD SVG 1.1//EN"
 "http://www.w3.org/Graphics/SVG/1.1/DTD/svg11.dtd">
<!-- Generated by graphviz version 2.43.0 (0)
 -->
<!-- Title: MayaFlux::Vruta::EventFilter Pages: 1 -->
<svg width="172pt" height="213pt"
 viewBox="0.00 0.00 172.00 213.00" xmlns="http://www.w3.org/2000/svg" xmlns:xlink="http://www.w3.org/1999/xlink">
<g id="graph0" class="graph" transform="scale(1 1) rotate(0) translate(4 209)">
<title>MayaFlux::Vruta::EventFilter</title>
<!-- Node1 -->
<g id="Node000001" class="node">
<title>Node1</title>
<g id="a_Node000001"><a xlink:title="Base for event filters used by EventSources to match signals to awaiters.">
<polygon fill="#999999" stroke="transparent" points="156.5,-205 7.5,-205 7.5,-156 156.5,-156 156.5,-205"/>
<text text-anchor="start" x="13" y="-192.5" font-family="Helvetica,sans-Serif" font-size="10.00">MayaFlux::Vruta::EventFilter</text>
<text text-anchor="start" x="80.5" y="-177.5" font-family="Helvetica,sans-Serif" font-size="10.00"> </text>
<text text-anchor="start" x="26.5" y="-162.5" font-family="Helvetica,sans-Serif" font-size="10.00">+</text>
<text text-anchor="start" x="54" y="-162.5" font-family="Helvetica,sans-Serif" font-size="10.00">~EventFilter()</text>
<polygon fill="#666666" stroke="#666666" points="8,-187.5 8,-187.5 157,-187.5 157,-187.5 8,-187.5"/>
<polygon fill="#666666" stroke="#666666" points="8,-172.5 8,-172.5 157,-172.5 157,-172.5 8,-172.5"/>
<polygon fill="none" stroke="#666666" points="7.5,-156 7.5,-205 156.5,-205 156.5,-156 7.5,-156"/>
</a>
</g>
</g>
<!-- Node2 -->
<g id="Node000002" class="node">
<title>Node2</title>
<g id="a_Node000002"><a xlink:href="structMayaFlux_1_1Vruta_1_1WindowEventFilter.html" target="_top" xlink:title="Filter criteria for GLFW window input events.">
<polygon fill="white" stroke="transparent" points="164,-120 0,-120 0,0 164,0 164,-120"/>
<text text-anchor="start" x="5" y="-108" font-family="Helvetica,sans-Serif" font-size="10.00">MayaFlux::Vruta::WindowEvent</text>
<text text-anchor="start" x="69.5" y="-97" font-family="Helvetica,sans-Serif" font-size="10.00">Filter</text>
<text text-anchor="start" x="14.5" y="-82" font-family="Helvetica,sans-Serif" font-size="10.00">+</text>
<text text-anchor="start" x="38" y="-82" font-family="Helvetica,sans-Serif" font-size="10.00">button</text>
<text text-anchor="start" x="14.5" y="-67" font-family="Helvetica,sans-Serif" font-size="10.00">+</text>
<text text-anchor="start" x="38" y="-67" font-family="Helvetica,sans-Serif" font-size="10.00">event_type</text>
<text text-anchor="start" x="14.5" y="-52" font-family="Helvetica,sans-Serif" font-size="10.00">+</text>
<text text-anchor="start" x="38" y="-52" font-family="Helvetica,sans-Serif" font-size="10.00">key_code</text>
<text text-anchor="start" x="14.5" y="-37" font-family="Helvetica,sans-Serif" font-size="10.00">+</text>
<text text-anchor="start" x="38" y="-37" font-family="Helvetica,sans-Serif" font-size="10.00">WindowEventFilter()</text>
<text text-anchor="start" x="14.5" y="-22" font-family="Helvetica,sans-Serif" font-size="10.00">+</text>
<text text-anchor="start" x="38" y="-22" font-family="Helvetica,sans-Serif" font-size="10.00">WindowEventFilter()</text>
<text text-anchor="start" x="14.5" y="-7" font-family="Helvetica,sans-Serif" font-size="10.00">+</text>
<text text-anchor="start" x="38" y="-7" font-family="Helvetica,sans-Serif" font-size="10.00">WindowEventFilter()</text>
<polygon fill="#666666" stroke="#666666" points="0,-92 0,-92 164,-92 164,-92 0,-92"/>
<polygon fill="#666666" stroke="#666666" points="0,-47 0,-47 36,-47 36,-47 0,-47"/>
<polygon fill="#666666" stroke="#666666" points="36,-47 36,-47 164,-47 164,-47 36,-47"/>
<polygon fill="none" stroke="#666666" points="0,0 0,-120 164,-120 164,0 0,0"/>
</a>
</g>
</g>
<!-- Node1&#45;&gt;Node2 -->
<g id="edge1_Node000001_Node000002" class="edge">
<title>Node1&#45;&gt;Node2</title>
<g id="a_edge1_Node000001_Node000002"><a xlink:title=" ">
<path fill="none" stroke="#63b8ff" d="M82,-145.59C82,-137.71 82,-129.09 82,-120.47"/>
<polygon fill="none" stroke="#63b8ff" points="78.5,-145.8 82,-155.8 85.5,-145.8 78.5,-145.8"/>
</a>
</g>
</g>
</g>
</svg>
