<?xml version="1.0" encoding="UTF-8" standalone="no"?>
<!DOCTYPE svg PUBLIC "-//W3C//DTD SVG 1.1//EN"
 "http://www.w3.org/Graphics/SVG/1.1/DTD/svg11.dtd">
<!-- Generated by graphviz version 2.43.0 (0)
 -->
<!-- Title: MayaFlux::Core::VKGraphicsPipeline::create Pages: 1 -->
<svg width="397pt" height="530pt"
 viewBox="0.00 0.00 397.00 530.00" xmlns="http://www.w3.org/2000/svg" xmlns:xlink="http://www.w3.org/1999/xlink">
<g id="graph0" class="graph" transform="scale(1 1) rotate(0) translate(4 526)">
<title>MayaFlux::Core::VKGraphicsPipeline::create</title>
<!-- Node1 -->
<g id="Node000001" class="node">
<title>Node1</title>
<g id="a_Node000001"><a xlink:title="Create graphics pipeline from configuration.">
<polygon fill="#999999" stroke="#666666" points="155,-282 0,-282 0,-252 155,-252 155,-282"/>
<text text-anchor="start" x="8" y="-270" font-family="Helvetica,sans-Serif" font-size="10.00">MayaFlux::Core::VKGraphics</text>
<text text-anchor="middle" x="77.5" y="-259" font-family="Helvetica,sans-Serif" font-size="10.00">Pipeline::create</text>
</a>
</g>
</g>
<!-- Node2 -->
<g id="Node000002" class="node">
<title>Node2</title>
<g id="a_Node000002"><a xlink:href="classMayaFlux_1_1Core_1_1VKGraphicsPipeline_ab6ff30279d339f7d992f88d45bf12cba.html#ab6ff30279d339f7d992f88d45bf12cba" target="_top" xlink:title="Build color blend state.">
<polygon fill="white" stroke="#666666" points="378.5,-522 201.5,-522 201.5,-492 378.5,-492 378.5,-522"/>
<text text-anchor="start" x="209.5" y="-510" font-family="Helvetica,sans-Serif" font-size="10.00">MayaFlux::Core::VKGraphics</text>
<text text-anchor="middle" x="290" y="-499" font-family="Helvetica,sans-Serif" font-size="10.00">Pipeline::build_color_blend_state</text>
</a>
</g>
</g>
<!-- Node1&#45;&gt;Node2 -->
<g id="edge1_Node000001_Node000002" class="edge">
<title>Node1&#45;&gt;Node2</title>
<g id="a_edge1_Node000001_Node000002"><a xlink:title=" ">
<path fill="none" stroke="#63b8ff" d="M81.79,-282.06C91.24,-321.61 122.31,-429.1 191,-483 192.79,-484.41 194.65,-485.73 196.57,-486.98"/>
<polygon fill="#63b8ff" stroke="#63b8ff" points="194.92,-490.06 205.34,-491.98 198.39,-483.98 194.92,-490.06"/>
</a>
</g>
</g>
<!-- Node3 -->
<g id="Node000003" class="node">
<title>Node3</title>
<g id="a_Node000003"><a xlink:href="classMayaFlux_1_1Core_1_1VKGraphicsPipeline_a221e362b563394cd2c7eabb878546295.html#a221e362b563394cd2c7eabb878546295" target="_top" xlink:title="Build depth stencil state.">
<polygon fill="white" stroke="#666666" points="383,-474 197,-474 197,-444 383,-444 383,-474"/>
<text text-anchor="start" x="205" y="-462" font-family="Helvetica,sans-Serif" font-size="10.00">MayaFlux::Core::VKGraphics</text>
<text text-anchor="middle" x="290" y="-451" font-family="Helvetica,sans-Serif" font-size="10.00">Pipeline::build_depth_stencil_state</text>
</a>
</g>
</g>
<!-- Node1&#45;&gt;Node3 -->
<g id="edge2_Node000001_Node000003" class="edge">
<title>Node1&#45;&gt;Node3</title>
<g id="a_edge2_Node000001_Node000003"><a xlink:title=" ">
<path fill="none" stroke="#63b8ff" d="M84.14,-282.07C97.35,-315.25 133.62,-394.86 191,-435 193.14,-436.49 195.35,-437.89 197.64,-439.21"/>
<polygon fill="#63b8ff" stroke="#63b8ff" points="196.24,-442.43 206.74,-443.86 199.42,-436.19 196.24,-442.43"/>
</a>
</g>
</g>
<!-- Node4 -->
<g id="Node000004" class="node">
<title>Node4</title>
<g id="a_Node000004"><a xlink:href="classMayaFlux_1_1Core_1_1VKGraphicsPipeline_aee2061e15e9e478e06284ad4f6b7bbec.html#aee2061e15e9e478e06284ad4f6b7bbec" target="_top" xlink:title="Build dynamic state.">
<polygon fill="white" stroke="#666666" points="371.5,-426 208.5,-426 208.5,-396 371.5,-396 371.5,-426"/>
<text text-anchor="start" x="216.5" y="-414" font-family="Helvetica,sans-Serif" font-size="10.00">MayaFlux::Core::VKGraphics</text>
<text text-anchor="middle" x="290" y="-403" font-family="Helvetica,sans-Serif" font-size="10.00">Pipeline::build_dynamic_state</text>
</a>
</g>
</g>
<!-- Node1&#45;&gt;Node4 -->
<g id="edge3_Node000001_Node000004" class="edge">
<title>Node1&#45;&gt;Node4</title>
<g id="a_edge3_Node000001_Node000004"><a xlink:title=" ">
<path fill="none" stroke="#63b8ff" d="M88.28,-282.17C105.7,-307.89 144.65,-359.91 191,-387 194.04,-388.78 197.21,-390.42 200.47,-391.95"/>
<polygon fill="#63b8ff" stroke="#63b8ff" points="199.27,-395.24 209.84,-395.93 202.01,-388.8 199.27,-395.24"/>
</a>
</g>
</g>
<!-- Node5 -->
<g id="Node000005" class="node">
<title>Node5</title>
<g id="a_Node000005"><a xlink:href="classMayaFlux_1_1Core_1_1VKGraphicsPipeline_a3b61e6d221fb36f549e803cc72aba5b0.html#a3b61e6d221fb36f549e803cc72aba5b0" target="_top" xlink:title="Build input assembly state.">
<polygon fill="white" stroke="#666666" points="389,-378 191,-378 191,-348 389,-348 389,-378"/>
<text text-anchor="start" x="199" y="-366" font-family="Helvetica,sans-Serif" font-size="10.00">MayaFlux::Core::VKGraphics</text>
<text text-anchor="middle" x="290" y="-355" font-family="Helvetica,sans-Serif" font-size="10.00">Pipeline::build_input_assembly_state</text>
</a>
</g>
</g>
<!-- Node1&#45;&gt;Node5 -->
<g id="edge4_Node000001_Node000005" class="edge">
<title>Node1&#45;&gt;Node5</title>
<g id="a_edge4_Node000001_Node000005"><a xlink:title=" ">
<path fill="none" stroke="#63b8ff" d="M97.71,-282.11C119.26,-298.38 155.83,-323.93 191,-339 195.93,-341.11 201.08,-343.06 206.34,-344.86"/>
<polygon fill="#63b8ff" stroke="#63b8ff" points="205.28,-348.2 215.87,-347.93 207.43,-341.53 205.28,-348.2"/>
</a>
</g>
</g>
<!-- Node6 -->
<g id="Node000006" class="node">
<title>Node6</title>
<g id="a_Node000006"><a xlink:href="classMayaFlux_1_1Core_1_1VKGraphicsPipeline_a5acef35af1f584d2a955d5cd87d74477.html#a5acef35af1f584d2a955d5cd87d74477" target="_top" xlink:title="Build multisample state.">
<polygon fill="white" stroke="#666666" points="381,-330 199,-330 199,-300 381,-300 381,-330"/>
<text text-anchor="start" x="207" y="-318" font-family="Helvetica,sans-Serif" font-size="10.00">MayaFlux::Core::VKGraphics</text>
<text text-anchor="middle" x="290" y="-307" font-family="Helvetica,sans-Serif" font-size="10.00">Pipeline::build_multisample_state</text>
</a>
</g>
</g>
<!-- Node1&#45;&gt;Node6 -->
<g id="edge5_Node000001_Node000006" class="edge">
<title>Node1&#45;&gt;Node6</title>
<g id="a_edge5_Node000001_Node000006"><a xlink:title=" ">
<path fill="none" stroke="#63b8ff" d="M144.53,-282.06C166.37,-287.04 190.85,-292.62 213.36,-297.75"/>
<polygon fill="#63b8ff" stroke="#63b8ff" points="212.68,-301.19 223.21,-300 214.24,-294.36 212.68,-301.19"/>
</a>
</g>
</g>
<!-- Node7 -->
<g id="Node000007" class="node">
<title>Node7</title>
<g id="a_Node000007"><a xlink:href="classMayaFlux_1_1Core_1_1VKGraphicsPipeline_a61aab59444f4b41db8e1447d57c066c3.html#a61aab59444f4b41db8e1447d57c066c3" target="_top" xlink:title="Build rasterization state.">
<polygon fill="white" stroke="#666666" points="381,-282 199,-282 199,-252 381,-252 381,-282"/>
<text text-anchor="start" x="207" y="-270" font-family="Helvetica,sans-Serif" font-size="10.00">MayaFlux::Core::VKGraphics</text>
<text text-anchor="middle" x="290" y="-259" font-family="Helvetica,sans-Serif" font-size="10.00">Pipeline::build_rasterization_state</text>
</a>
</g>
</g>
<!-- Node1&#45;&gt;Node7 -->
<g id="edge6_Node000001_Node000007" class="edge">
<title>Node1&#45;&gt;Node7</title>
<g id="a_edge6_Node000001_Node000007"><a xlink:title=" ">
<path fill="none" stroke="#63b8ff" d="M155.09,-267C165.98,-267 177.31,-267 188.57,-267"/>
<polygon fill="#63b8ff" stroke="#63b8ff" points="188.88,-270.5 198.88,-267 188.88,-263.5 188.88,-270.5"/>
</a>
</g>
</g>
<!-- Node8 -->
<g id="Node000008" class="node">
<title>Node8</title>
<g id="a_Node000008"><a xlink:href="classMayaFlux_1_1Core_1_1VKGraphicsPipeline_a76e72158bc7406be6bdb8bf7ded6248b.html#a76e72158bc7406be6bdb8bf7ded6248b" target="_top" xlink:title="Build tessellation state.">
<polygon fill="white" stroke="#666666" points="379,-234 201,-234 201,-204 379,-204 379,-234"/>
<text text-anchor="start" x="209" y="-222" font-family="Helvetica,sans-Serif" font-size="10.00">MayaFlux::Core::VKGraphics</text>
<text text-anchor="middle" x="290" y="-211" font-family="Helvetica,sans-Serif" font-size="10.00">Pipeline::build_tessellation_state</text>
</a>
</g>
</g>
<!-- Node1&#45;&gt;Node8 -->
<g id="edge7_Node000001_Node000008" class="edge">
<title>Node1&#45;&gt;Node8</title>
<g id="a_edge7_Node000001_Node000008"><a xlink:title=" ">
<path fill="none" stroke="#63b8ff" d="M144.53,-251.94C166.37,-246.96 190.85,-241.38 213.36,-236.25"/>
<polygon fill="#63b8ff" stroke="#63b8ff" points="214.24,-239.64 223.21,-234 212.68,-232.81 214.24,-239.64"/>
</a>
</g>
</g>
<!-- Node9 -->
<g id="Node000009" class="node">
<title>Node9</title>
<g id="a_Node000009"><a xlink:href="classMayaFlux_1_1Core_1_1VKGraphicsPipeline_a741cf0976f7c8c42a2634d0ac162d6bc.html#a741cf0976f7c8c42a2634d0ac162d6bc" target="_top" xlink:title="Build vertex input state from config.">
<polygon fill="white" stroke="#666666" points="367.5,-185.5 212.5,-185.5 212.5,-144.5 367.5,-144.5 367.5,-185.5"/>
<text text-anchor="start" x="220.5" y="-173.5" font-family="Helvetica,sans-Serif" font-size="10.00">MayaFlux::Core::VKGraphics</text>
<text text-anchor="start" x="220.5" y="-162.5" font-family="Helvetica,sans-Serif" font-size="10.00">Pipeline::build_vertex</text>
<text text-anchor="middle" x="290" y="-151.5" font-family="Helvetica,sans-Serif" font-size="10.00">_input_state</text>
</a>
</g>
</g>
<!-- Node1&#45;&gt;Node9 -->
<g id="edge8_Node000001_Node000009" class="edge">
<title>Node1&#45;&gt;Node9</title>
<g id="a_edge8_Node000001_Node000009"><a xlink:title=" ">
<path fill="none" stroke="#63b8ff" d="M98.27,-251.97C120.02,-236.02 156.48,-210.96 191,-195 195.41,-192.96 200,-191.01 204.67,-189.16"/>
<polygon fill="#63b8ff" stroke="#63b8ff" points="206.23,-192.31 214.35,-185.51 203.76,-185.77 206.23,-192.31"/>
</a>
</g>
</g>
<!-- Node10 -->
<g id="Node000010" class="node">
<title>Node10</title>
<g id="a_Node000010"><a xlink:href="classMayaFlux_1_1Core_1_1VKGraphicsPipeline_aef9a7fc2d415c6868c0719c660db6ddb.html#aef9a7fc2d415c6868c0719c660db6ddb" target="_top" xlink:title="Build viewport state.">
<polygon fill="white" stroke="#666666" points="372,-126 208,-126 208,-96 372,-96 372,-126"/>
<text text-anchor="start" x="216" y="-114" font-family="Helvetica,sans-Serif" font-size="10.00">MayaFlux::Core::VKGraphics</text>
<text text-anchor="middle" x="290" y="-103" font-family="Helvetica,sans-Serif" font-size="10.00">Pipeline::build_viewport_state</text>
</a>
</g>
</g>
<!-- Node1&#45;&gt;Node10 -->
<g id="edge9_Node000001_Node000010" class="edge">
<title>Node1&#45;&gt;Node10</title>
<g id="a_edge9_Node000001_Node000010"><a xlink:title=" ">
<path fill="none" stroke="#63b8ff" d="M87.17,-251.79C103.67,-224.26 142.35,-166.2 191,-136 194.43,-133.87 198.03,-131.93 201.74,-130.15"/>
<polygon fill="#63b8ff" stroke="#63b8ff" points="203.4,-133.24 211.18,-126.05 200.62,-126.82 203.4,-133.24"/>
</a>
</g>
</g>
<!-- Node11 -->
<g id="Node000011" class="node">
<title>Node11</title>
<g id="a_Node000011"><a xlink:href="classMayaFlux_1_1Core_1_1VKGraphicsPipeline_aa6643cad280ab52dc2e7f5e985c57dd1.html#aa6643cad280ab52dc2e7f5e985c57dd1" target="_top" xlink:title="Create pipeline layout from config.">
<polygon fill="white" stroke="#666666" points="376.5,-78 203.5,-78 203.5,-48 376.5,-48 376.5,-78"/>
<text text-anchor="start" x="211.5" y="-66" font-family="Helvetica,sans-Serif" font-size="10.00">MayaFlux::Core::VKGraphics</text>
<text text-anchor="middle" x="290" y="-55" font-family="Helvetica,sans-Serif" font-size="10.00">Pipeline::create_pipeline_layout</text>
</a>
</g>
</g>
<!-- Node1&#45;&gt;Node11 -->
<g id="edge10_Node000001_Node000011" class="edge">
<title>Node1&#45;&gt;Node11</title>
<g id="a_edge10_Node000001_Node000011"><a xlink:title=" ">
<path fill="none" stroke="#63b8ff" d="M83.44,-251.92C95.68,-217.05 130.83,-130.52 191,-87 192.9,-85.62 194.88,-84.33 196.9,-83.1"/>
<polygon fill="#63b8ff" stroke="#63b8ff" points="198.94,-85.98 206.13,-78.19 195.66,-79.8 198.94,-85.98"/>
</a>
</g>
</g>
<!-- Node12 -->
<g id="Node000012" class="node">
<title>Node12</title>
<g id="a_Node000012"><a xlink:href="classMayaFlux_1_1Core_1_1VKGraphicsPipeline_a0224f6bfab5d7e61c4e122dfb646a60c.html#a0224f6bfab5d7e61c4e122dfb646a60c" target="_top" xlink:title="Validate shader stages.">
<polygon fill="white" stroke="#666666" points="367.5,-30 212.5,-30 212.5,0 367.5,0 367.5,-30"/>
<text text-anchor="start" x="220.5" y="-18" font-family="Helvetica,sans-Serif" font-size="10.00">MayaFlux::Core::VKGraphics</text>
<text text-anchor="middle" x="290" y="-7" font-family="Helvetica,sans-Serif" font-size="10.00">Pipeline::validate_shaders</text>
</a>
</g>
</g>
<!-- Node1&#45;&gt;Node12 -->
<g id="edge11_Node000001_Node000012" class="edge">
<title>Node1&#45;&gt;Node12</title>
<g id="a_edge11_Node000001_Node000012"><a xlink:title=" ">
<path fill="none" stroke="#63b8ff" d="M81.39,-251.72C90.02,-210.51 119.57,-96.33 191,-39 194.63,-36.08 198.57,-33.52 202.71,-31.25"/>
<polygon fill="#63b8ff" stroke="#63b8ff" points="204.54,-34.25 212.04,-26.77 201.51,-27.94 204.54,-34.25"/>
</a>
</g>
</g>
</g>
</svg>
