<?xml version="1.0" encoding="UTF-8" standalone="no"?>
<!DOCTYPE svg PUBLIC "-//W3C//DTD SVG 1.1//EN"
 "http://www.w3.org/Graphics/SVG/1.1/DTD/svg11.dtd">
<!-- Generated by graphviz version 2.43.0 (0)
 -->
<!-- Title: MayaFlux::Buffers::TextBuffer::setup_rendering Pages: 1 -->
<svg width="545pt" height="210pt"
 viewBox="0.00 0.00 545.00 209.50" xmlns="http://www.w3.org/2000/svg" xmlns:xlink="http://www.w3.org/1999/xlink">
<g id="graph0" class="graph" transform="scale(1 1) rotate(0) translate(4 205.5)">
<title>MayaFlux::Buffers::TextBuffer::setup_rendering</title>
<!-- Node1 -->
<g id="Node000001" class="node">
<title>Node1</title>
<g id="a_Node000001"><a xlink:title="Delegates to TextureBuffer::setup_rendering, then enables streaming mode on the TextureProcessor and ...">
<polygon fill="#999999" stroke="#666666" points="151,-137 0,-137 0,-107 151,-107 151,-137"/>
<text text-anchor="start" x="8" y="-125" font-family="Helvetica,sans-Serif" font-size="10.00">MayaFlux::Buffers::</text>
<text text-anchor="middle" x="75.5" y="-114" font-family="Helvetica,sans-Serif" font-size="10.00">TextBuffer::setup_rendering</text>
</a>
</g>
</g>
<!-- Node2 -->
<g id="Node000002" class="node">
<title>Node2</title>
<g id="a_Node000002"><a xlink:href="classMayaFlux_1_1Buffers_1_1VKBuffer_a7017d137d730b0d43e2a1e956ad8c6d2.html#a7017d137d730b0d43e2a1e956ad8c6d2" target="_top" xlink:title="Get a RenderProcessor suitable for rendering this buffer.">
<polygon fill="white" stroke="#666666" points="318,-201.5 200,-201.5 200,-160.5 318,-160.5 318,-201.5"/>
<text text-anchor="start" x="208" y="-189.5" font-family="Helvetica,sans-Serif" font-size="10.00">MayaFlux::Buffers::</text>
<text text-anchor="start" x="208" y="-178.5" font-family="Helvetica,sans-Serif" font-size="10.00">VKBuffer::get_render</text>
<text text-anchor="middle" x="259" y="-167.5" font-family="Helvetica,sans-Serif" font-size="10.00">_processor</text>
</a>
</g>
</g>
<!-- Node1&#45;&gt;Node2 -->
<g id="edge1_Node000001_Node000002" class="edge">
<title>Node1&#45;&gt;Node2</title>
<g id="a_edge1_Node000001_Node000002"><a xlink:title=" ">
<path fill="none" stroke="#63b8ff" d="M122.77,-137.04C143.17,-143.67 167.56,-151.6 189.97,-158.89"/>
<polygon fill="#63b8ff" stroke="#63b8ff" points="189.18,-162.31 199.77,-162.07 191.34,-155.65 189.18,-162.31"/>
</a>
</g>
</g>
<!-- Node3 -->
<g id="Node000003" class="node">
<title>Node3</title>
<g id="a_Node000003"><a xlink:href="classMayaFlux_1_1Buffers_1_1TextureBuffer_a29e4156e10ad0af811e2e1fa253ced09.html#a29e4156e10ad0af811e2e1fa253ced09" target="_top" xlink:title=" ">
<polygon fill="white" stroke="#666666" points="331,-142.5 187,-142.5 187,-101.5 331,-101.5 331,-142.5"/>
<text text-anchor="start" x="195" y="-130.5" font-family="Helvetica,sans-Serif" font-size="10.00">MayaFlux::Buffers::</text>
<text text-anchor="start" x="195" y="-119.5" font-family="Helvetica,sans-Serif" font-size="10.00">TextureBuffer::get_texture</text>
<text text-anchor="middle" x="259" y="-108.5" font-family="Helvetica,sans-Serif" font-size="10.00">_processor</text>
</a>
</g>
</g>
<!-- Node1&#45;&gt;Node3 -->
<g id="edge2_Node000001_Node000003" class="edge">
<title>Node1&#45;&gt;Node3</title>
<g id="a_edge2_Node000001_Node000003"><a xlink:title=" ">
<path fill="none" stroke="#63b8ff" d="M151.11,-122C159.61,-122 168.31,-122 176.89,-122"/>
<polygon fill="#63b8ff" stroke="#63b8ff" points="176.9,-125.5 186.9,-122 176.9,-118.5 176.9,-125.5"/>
</a>
</g>
</g>
<!-- Node4 -->
<g id="Node000004" class="node">
<title>Node4</title>
<g id="a_Node000004"><a xlink:href="classMayaFlux_1_1Buffers_1_1TextureBuffer_a8246ebf4f6657f85f2d0c7c0854249d1.html#a8246ebf4f6657f85f2d0c7c0854249d1" target="_top" xlink:title="Setup rendering with RenderProcessor.">
<polygon fill="white" stroke="#666666" points="316.5,-83.5 201.5,-83.5 201.5,-42.5 316.5,-42.5 316.5,-83.5"/>
<text text-anchor="start" x="209.5" y="-71.5" font-family="Helvetica,sans-Serif" font-size="10.00">MayaFlux::Buffers::</text>
<text text-anchor="start" x="209.5" y="-60.5" font-family="Helvetica,sans-Serif" font-size="10.00">TextureBuffer::setup</text>
<text text-anchor="middle" x="259" y="-49.5" font-family="Helvetica,sans-Serif" font-size="10.00">_rendering</text>
</a>
</g>
</g>
<!-- Node1&#45;&gt;Node4 -->
<g id="edge3_Node000001_Node000004" class="edge">
<title>Node1&#45;&gt;Node4</title>
<g id="a_edge3_Node000001_Node000004"><a xlink:title=" ">
<path fill="none" stroke="#63b8ff" d="M122.77,-106.96C143.72,-100.15 168.88,-91.97 191.78,-84.53"/>
<polygon fill="#63b8ff" stroke="#63b8ff" points="193.01,-87.81 201.44,-81.39 190.85,-81.15 193.01,-87.81"/>
</a>
</g>
</g>
<!-- Node5 -->
<g id="Node000005" class="node">
<title>Node5</title>
<g id="a_Node000005"><a xlink:href="classMayaFlux_1_1Buffers_1_1VKBuffer_aa9370fdd8ef512d6503c1c7ccdb0afda.html#aa9370fdd8ef512d6503c1c7ccdb0afda" target="_top" xlink:title="Configure the internal m_render_processor from a RenderConfig.">
<polygon fill="white" stroke="#666666" points="516.5,-137.5 387.5,-137.5 387.5,-96.5 516.5,-96.5 516.5,-137.5"/>
<text text-anchor="start" x="395.5" y="-125.5" font-family="Helvetica,sans-Serif" font-size="10.00">MayaFlux::Buffers::</text>
<text text-anchor="start" x="395.5" y="-114.5" font-family="Helvetica,sans-Serif" font-size="10.00">VKBuffer::apply_render</text>
<text text-anchor="middle" x="452" y="-103.5" font-family="Helvetica,sans-Serif" font-size="10.00">_config</text>
</a>
</g>
</g>
<!-- Node4&#45;&gt;Node5 -->
<g id="edge4_Node000004_Node000005" class="edge">
<title>Node4&#45;&gt;Node5</title>
<g id="a_edge4_Node000004_Node000005"><a xlink:title=" ">
<path fill="none" stroke="#63b8ff" d="M316.53,-78.98C335.63,-84.38 357.23,-90.49 377.45,-96.21"/>
<polygon fill="#63b8ff" stroke="#63b8ff" points="376.67,-99.62 387.25,-98.98 378.57,-92.89 376.67,-99.62"/>
</a>
</g>
</g>
<!-- Node6 -->
<g id="Node000006" class="node">
<title>Node6</title>
<g id="a_Node000006"><a xlink:href="classMayaFlux_1_1Buffers_1_1VKBuffer_a6cf409969c192851ab2cf7f0315d2a49.html#a6cf409969c192851ab2cf7f0315d2a49" target="_top" xlink:title="Access the buffer&#39;s processing chain.">
<polygon fill="white" stroke="#666666" points="537,-78 367,-78 367,-48 537,-48 537,-78"/>
<text text-anchor="start" x="375" y="-66" font-family="Helvetica,sans-Serif" font-size="10.00">MayaFlux::Buffers::</text>
<text text-anchor="middle" x="452" y="-55" font-family="Helvetica,sans-Serif" font-size="10.00">VKBuffer::get_processing_chain</text>
</a>
</g>
</g>
<!-- Node4&#45;&gt;Node6 -->
<g id="edge6_Node000004_Node000006" class="edge">
<title>Node4&#45;&gt;Node6</title>
<g id="a_edge6_Node000004_Node000006"><a xlink:title=" ">
<path fill="none" stroke="#63b8ff" d="M316.53,-63C329.07,-63 342.68,-63 356.28,-63"/>
<polygon fill="#63b8ff" stroke="#63b8ff" points="356.65,-66.5 366.65,-63 356.65,-59.5 356.65,-66.5"/>
</a>
</g>
</g>
<!-- Node7 -->
<g id="Node000007" class="node">
<title>Node7</title>
<g id="a_Node000007"><a xlink:href="classMayaFlux_1_1Buffers_1_1TextureBuffer_aca801508ceb4f2c6936df5f5df65455a.html#aca801508ceb4f2c6936df5f5df65455a" target="_top" xlink:title="Get GPU texture image Suitable for binding to shaders via RenderProcessor::bind_texture()">
<polygon fill="white" stroke="#666666" points="524,-30 380,-30 380,0 524,0 524,-30"/>
<text text-anchor="start" x="388" y="-18" font-family="Helvetica,sans-Serif" font-size="10.00">MayaFlux::Buffers::</text>
<text text-anchor="middle" x="452" y="-7" font-family="Helvetica,sans-Serif" font-size="10.00">TextureBuffer::get_texture</text>
</a>
</g>
</g>
<!-- Node4&#45;&gt;Node7 -->
<g id="edge7_Node000004_Node000007" class="edge">
<title>Node4&#45;&gt;Node7</title>
<g id="a_edge7_Node000004_Node000007"><a xlink:title=" ">
<path fill="none" stroke="#63b8ff" d="M316.53,-48.79C336.85,-43.69 360.02,-37.86 381.33,-32.51"/>
<polygon fill="#63b8ff" stroke="#63b8ff" points="382.45,-35.84 391.29,-30.01 380.74,-29.05 382.45,-35.84"/>
</a>
</g>
</g>
<!-- Node5&#45;&gt;Node5 -->
<g id="edge5_Node000005_Node000005" class="edge">
<title>Node5&#45;&gt;Node5</title>
<g id="a_edge5_Node000005_Node000005"><a xlink:title=" ">
<path fill="none" stroke="#63b8ff" d="M416.71,-137.6C412.86,-147.15 424.62,-155.5 452,-155.5 469.11,-155.5 480.12,-152.24 485.03,-147.46"/>
<polygon fill="#63b8ff" stroke="#63b8ff" points="488.47,-148.13 487.29,-137.6 481.65,-146.56 488.47,-148.13"/>
</a>
</g>
</g>
</g>
</svg>
