<?xml version="1.0" encoding="UTF-8" standalone="no"?>
<!DOCTYPE svg PUBLIC "-//W3C//DTD SVG 1.1//EN"
 "http://www.w3.org/Graphics/SVG/1.1/DTD/svg11.dtd">
<!-- Generated by graphviz version 2.43.0 (0)
 -->
<!-- Title: MayaFlux::Yantra::StandardSorter::sort_data_in_place Pages: 1 -->
<svg width="908pt" height="233pt"
 viewBox="0.00 0.00 908.00 233.00" xmlns="http://www.w3.org/2000/svg" xmlns:xlink="http://www.w3.org/1999/xlink">
<g id="graph0" class="graph" transform="scale(1 1) rotate(0) translate(4 229)">
<title>MayaFlux::Yantra::StandardSorter::sort_data_in_place</title>
<!-- Node1 -->
<g id="Node000001" class="node">
<title>Node1</title>
<g id="a_Node000001"><a xlink:title="Sort data in&#45;place.">
<polygon fill="#999999" stroke="#666666" points="150,-126 0,-126 0,-96 150,-96 150,-126"/>
<text text-anchor="start" x="8" y="-114" font-family="Helvetica,sans-Serif" font-size="10.00">MayaFlux::Yantra::Standard</text>
<text text-anchor="middle" x="75" y="-103" font-family="Helvetica,sans-Serif" font-size="10.00">Sorter::sort_data_in_place</text>
</a>
</g>
</g>
<!-- Node2 -->
<g id="Node000002" class="node">
<title>Node2</title>
<g id="a_Node000002"><a xlink:href="namespaceMayaFlux_1_1Yantra_ab5e04174c73268eb0ce8a18f9d746e53.html#ab5e04174c73268eb0ce8a18f9d746e53" target="_top" xlink:title="Universal sort function &#45; handles extraction/conversion internally.">
<polygon fill="white" stroke="#666666" points="318,-126 186,-126 186,-96 318,-96 318,-126"/>
<text text-anchor="start" x="194" y="-114" font-family="Helvetica,sans-Serif" font-size="10.00">MayaFlux::Yantra::sort</text>
<text text-anchor="middle" x="252" y="-103" font-family="Helvetica,sans-Serif" font-size="10.00">_compute_data_inplace</text>
</a>
</g>
</g>
<!-- Node1&#45;&gt;Node2 -->
<g id="edge1_Node000001_Node000002" class="edge">
<title>Node1&#45;&gt;Node2</title>
<g id="a_edge1_Node000001_Node000002"><a xlink:title=" ">
<path fill="none" stroke="#63b8ff" d="M150.22,-111C158.63,-111 167.21,-111 175.63,-111"/>
<polygon fill="#63b8ff" stroke="#63b8ff" points="175.81,-114.5 185.81,-111 175.81,-107.5 175.81,-114.5"/>
</a>
</g>
</g>
<!-- Node3 -->
<g id="Node000003" class="node">
<title>Node3</title>
<g id="a_Node000003"><a xlink:href="classMayaFlux_1_1Yantra_1_1OperationHelper_ad367bd6ef37555bb3918e5545cac03bd.html#ad367bd6ef37555bb3918e5545cac03bd" target="_top" xlink:title="extract numeric data from single&#45;variant types">
<polygon fill="white" stroke="#666666" points="515,-198 354,-198 354,-168 515,-168 515,-198"/>
<text text-anchor="start" x="362" y="-186" font-family="Helvetica,sans-Serif" font-size="10.00">MayaFlux::Yantra::Operation</text>
<text text-anchor="middle" x="434.5" y="-175" font-family="Helvetica,sans-Serif" font-size="10.00">Helper::extract_numeric_data</text>
</a>
</g>
</g>
<!-- Node2&#45;&gt;Node3 -->
<g id="edge2_Node000002_Node000003" class="edge">
<title>Node2&#45;&gt;Node3</title>
<g id="a_edge2_Node000002_Node000003"><a xlink:title=" ">
<path fill="none" stroke="#63b8ff" d="M281.66,-126.04C301.61,-136.16 329.01,-149.35 354,-159 359.13,-160.98 364.49,-162.9 369.91,-164.74"/>
<polygon fill="#63b8ff" stroke="#63b8ff" points="369.08,-168.15 379.67,-167.95 371.27,-161.5 369.08,-168.15"/>
</a>
</g>
</g>
<!-- Node6 -->
<g id="Node000006" class="node">
<title>Node6</title>
<g id="a_Node000006"><a xlink:href="structMayaFlux_1_1Yantra_1_1Datum_a9ad1f90d17c3c7eccac742b64652c325.html#a9ad1f90d17c3c7eccac742b64652c325" target="_top" xlink:title="Check if a container reference is associated.">
<polygon fill="white" stroke="#666666" points="504.5,-150 364.5,-150 364.5,-120 504.5,-120 504.5,-150"/>
<text text-anchor="start" x="372.5" y="-138" font-family="Helvetica,sans-Serif" font-size="10.00">MayaFlux::Yantra::Datum</text>
<text text-anchor="middle" x="434.5" y="-127" font-family="Helvetica,sans-Serif" font-size="10.00">::has_container</text>
</a>
</g>
</g>
<!-- Node2&#45;&gt;Node6 -->
<g id="edge5_Node000002_Node000006" class="edge">
<title>Node2&#45;&gt;Node6</title>
<g id="a_edge5_Node000002_Node000006"><a xlink:title=" ">
<path fill="none" stroke="#63b8ff" d="M318.16,-119.66C329.92,-121.23 342.29,-122.87 354.39,-124.48"/>
<polygon fill="#63b8ff" stroke="#63b8ff" points="354.1,-127.97 364.47,-125.82 355.02,-121.03 354.1,-127.97"/>
</a>
</g>
</g>
<!-- Node7 -->
<g id="Node000007" class="node">
<title>Node7</title>
<g id="a_Node000007"><a xlink:href="structMayaFlux_1_1Yantra_1_1Datum_aa424632a0bf48cad57dc947c63cf947c.html#aa424632a0bf48cad57dc947c63cf947c" target="_top" xlink:title="Check if processing is needed (for container types)">
<polygon fill="white" stroke="#666666" points="504.5,-102 364.5,-102 364.5,-72 504.5,-72 504.5,-102"/>
<text text-anchor="start" x="372.5" y="-90" font-family="Helvetica,sans-Serif" font-size="10.00">MayaFlux::Yantra::Datum</text>
<text text-anchor="middle" x="434.5" y="-79" font-family="Helvetica,sans-Serif" font-size="10.00">::needs_processig</text>
</a>
</g>
</g>
<!-- Node2&#45;&gt;Node7 -->
<g id="edge6_Node000002_Node000007" class="edge">
<title>Node2&#45;&gt;Node7</title>
<g id="a_edge6_Node000002_Node000007"><a xlink:title=" ">
<path fill="none" stroke="#63b8ff" d="M318.16,-102.34C329.92,-100.77 342.29,-99.13 354.39,-97.52"/>
<polygon fill="#63b8ff" stroke="#63b8ff" points="355.02,-100.97 364.47,-96.18 354.1,-94.03 355.02,-100.97"/>
</a>
</g>
</g>
<!-- Node8 -->
<g id="Node000008" class="node">
<title>Node8</title>
<g id="a_Node000008"><a xlink:href="namespaceMayaFlux_1_1Kinesis_1_1Discrete_a228de4d084e51b84b80a61e2153d96e7.html#a228de4d084e51b84b80a61e2153d96e7" target="_top" xlink:title="Sort all channels in&#45;place.">
<polygon fill="white" stroke="#666666" points="500,-54 369,-54 369,-24 500,-24 500,-54"/>
<text text-anchor="start" x="377" y="-42" font-family="Helvetica,sans-Serif" font-size="10.00">MayaFlux::Kinesis::</text>
<text text-anchor="middle" x="434.5" y="-31" font-family="Helvetica,sans-Serif" font-size="10.00">Discrete::sort_channels</text>
</a>
</g>
</g>
<!-- Node2&#45;&gt;Node8 -->
<g id="edge7_Node000002_Node000008" class="edge">
<title>Node2&#45;&gt;Node8</title>
<g id="a_edge7_Node000002_Node000008"><a xlink:title=" ">
<path fill="none" stroke="#63b8ff" d="M281.66,-95.96C301.61,-85.84 329.01,-72.65 354,-63 359.13,-61.02 364.49,-59.1 369.91,-57.26"/>
<polygon fill="#63b8ff" stroke="#63b8ff" points="371.27,-60.5 379.67,-54.05 369.08,-53.85 371.27,-60.5"/>
</a>
</g>
</g>
<!-- Node4 -->
<g id="Node000004" class="node">
<title>Node4</title>
<g id="a_Node000004"><a xlink:href="namespaceMayaFlux_1_1Kakshya_a619cf8d723774bd3554af2e67230fb10.html#a619cf8d723774bd3554af2e67230fb10" target="_top" xlink:title="Convert variant to double span.">
<polygon fill="white" stroke="#666666" points="701.5,-225 555.5,-225 555.5,-195 701.5,-195 701.5,-225"/>
<text text-anchor="start" x="563.5" y="-213" font-family="Helvetica,sans-Serif" font-size="10.00">MayaFlux::Kakshya::</text>
<text text-anchor="middle" x="628.5" y="-202" font-family="Helvetica,sans-Serif" font-size="10.00">convert_variant_to_double</text>
</a>
</g>
</g>
<!-- Node3&#45;&gt;Node4 -->
<g id="edge3_Node000003_Node000004" class="edge">
<title>Node3&#45;&gt;Node4</title>
<g id="a_edge3_Node000003_Node000004"><a xlink:title=" ">
<path fill="none" stroke="#63b8ff" d="M515.26,-194.22C525.23,-195.62 535.43,-197.05 545.44,-198.46"/>
<polygon fill="#63b8ff" stroke="#63b8ff" points="544.96,-201.93 555.35,-199.85 545.94,-195 544.96,-201.93"/>
</a>
</g>
</g>
<!-- Node5 -->
<g id="Node000005" class="node">
<title>Node5</title>
<g id="a_Node000005"><a xlink:href="classMayaFlux_1_1Yantra_1_1OperationHelper_ae302865851bb6340051d6bca19881848.html#ae302865851bb6340051d6bca19881848" target="_top" xlink:title="Create DataVariant from Eigen matrix/vector.">
<polygon fill="white" stroke="#666666" points="706,-176.5 551,-176.5 551,-135.5 706,-135.5 706,-176.5"/>
<text text-anchor="start" x="559" y="-164.5" font-family="Helvetica,sans-Serif" font-size="10.00">MayaFlux::Yantra::Operation</text>
<text text-anchor="start" x="559" y="-153.5" font-family="Helvetica,sans-Serif" font-size="10.00">Helper::create_data_variant</text>
<text text-anchor="middle" x="628.5" y="-142.5" font-family="Helvetica,sans-Serif" font-size="10.00">_from_eigen</text>
</a>
</g>
</g>
<!-- Node3&#45;&gt;Node5 -->
<g id="edge4_Node000003_Node000005" class="edge">
<title>Node3&#45;&gt;Node5</title>
<g id="a_edge4_Node000003_Node000005"><a xlink:title=" ">
<path fill="none" stroke="#63b8ff" d="M515.26,-171.78C523.7,-170.6 532.31,-169.39 540.83,-168.19"/>
<polygon fill="#63b8ff" stroke="#63b8ff" points="541.35,-171.65 550.77,-166.79 540.38,-164.72 541.35,-171.65"/>
</a>
</g>
</g>
<!-- Node9 -->
<g id="Node000009" class="node">
<title>Node9</title>
<g id="a_Node000009"><a xlink:href="namespaceMayaFlux_1_1Kinesis_1_1Discrete_a344dfa7f9b1b7721dacc8c0c3ea31d24.html#a344dfa7f9b1b7721dacc8c0c3ea31d24" target="_top" xlink:title="Sort a single span in&#45;place.">
<polygon fill="white" stroke="#666666" points="684.5,-54 572.5,-54 572.5,-24 684.5,-24 684.5,-54"/>
<text text-anchor="start" x="580.5" y="-42" font-family="Helvetica,sans-Serif" font-size="10.00">MayaFlux::Kinesis::</text>
<text text-anchor="middle" x="628.5" y="-31" font-family="Helvetica,sans-Serif" font-size="10.00">Discrete::sort_span</text>
</a>
</g>
</g>
<!-- Node8&#45;&gt;Node9 -->
<g id="edge8_Node000008_Node000009" class="edge">
<title>Node8&#45;&gt;Node9</title>
<g id="a_edge8_Node000008_Node000009"><a xlink:title=" ">
<path fill="none" stroke="#63b8ff" d="M500.23,-39C520.17,-39 542.12,-39 562.09,-39"/>
<polygon fill="#63b8ff" stroke="#63b8ff" points="562.34,-42.5 572.34,-39 562.34,-35.5 562.34,-42.5"/>
</a>
</g>
</g>
<!-- Node10 -->
<g id="Node000010" class="node">
<title>Node10</title>
<g id="a_Node000010"><a xlink:href="namespaceMayaFlux_1_1Kinesis_1_1Discrete_aa24f42ad7fac830cc8ebd7d7f8c9c839.html#aa24f42ad7fac830cc8ebd7d7f8c9c839" target="_top" xlink:title="Direction&#45;based comparator for doubles.">
<polygon fill="white" stroke="#666666" points="900,-78 742,-78 742,-48 900,-48 900,-78"/>
<text text-anchor="start" x="750" y="-66" font-family="Helvetica,sans-Serif" font-size="10.00">MayaFlux::Kinesis::</text>
<text text-anchor="middle" x="821" y="-55" font-family="Helvetica,sans-Serif" font-size="10.00">Discrete::double_comparator</text>
</a>
</g>
</g>
<!-- Node9&#45;&gt;Node10 -->
<g id="edge9_Node000009_Node000010" class="edge">
<title>Node9&#45;&gt;Node10</title>
<g id="a_edge9_Node000009_Node000010"><a xlink:title=" ">
<path fill="none" stroke="#63b8ff" d="M684.6,-45.94C699.43,-47.81 715.86,-49.88 732,-51.91"/>
<polygon fill="#63b8ff" stroke="#63b8ff" points="731.64,-55.4 742,-53.17 732.51,-48.45 731.64,-55.4"/>
</a>
</g>
</g>
<!-- Node11 -->
<g id="Node000011" class="node">
<title>Node11</title>
<g id="a_Node000011"><a xlink:href="namespaceMayaFlux_1_1Kinesis_1_1Discrete_ac31338d47679ac6672a20b378ed0e6ee.html#ac31338d47679ac6672a20b378ed0e6ee" target="_top" xlink:title="Execute a sorting algorithm on an iterator range.">
<polygon fill="white" stroke="#666666" points="877,-30 765,-30 765,0 877,0 877,-30"/>
<text text-anchor="start" x="773" y="-18" font-family="Helvetica,sans-Serif" font-size="10.00">MayaFlux::Kinesis::</text>
<text text-anchor="middle" x="821" y="-7" font-family="Helvetica,sans-Serif" font-size="10.00">Discrete::execute</text>
</a>
</g>
</g>
<!-- Node9&#45;&gt;Node11 -->
<g id="edge10_Node000009_Node000011" class="edge">
<title>Node9&#45;&gt;Node11</title>
<g id="a_edge10_Node000009_Node000011"><a xlink:title=" ">
<path fill="none" stroke="#63b8ff" d="M684.6,-32.06C706.52,-29.3 731.91,-26.1 754.75,-23.22"/>
<polygon fill="#63b8ff" stroke="#63b8ff" points="755.21,-26.69 764.69,-21.97 754.33,-19.75 755.21,-26.69"/>
</a>
</g>
</g>
</g>
</svg>
