<?xml version="1.0" encoding="UTF-8" standalone="no"?>
<!DOCTYPE svg PUBLIC "-//W3C//DTD SVG 1.1//EN"
 "http://www.w3.org/Graphics/SVG/1.1/DTD/svg11.dtd">
<!-- Generated by graphviz version 2.43.0 (0)
 -->
<!-- Title: MayaFlux::Kakshya::WindowAccessProcessor::on_attach Pages: 1 -->
<svg width="476pt" height="134pt"
 viewBox="0.00 0.00 476.00 134.00" xmlns="http://www.w3.org/2000/svg" xmlns:xlink="http://www.w3.org/1999/xlink">
<g id="graph0" class="graph" transform="scale(1 1) rotate(0) translate(4 130)">
<title>MayaFlux::Kakshya::WindowAccessProcessor::on_attach</title>
<!-- Node1 -->
<g id="Node000001" class="node">
<title>Node1</title>
<g id="a_Node000001"><a xlink:title="Attach to a WindowContainer.">
<polygon fill="#999999" stroke="#666666" points="137,-83.5 0,-83.5 0,-42.5 137,-42.5 137,-83.5"/>
<text text-anchor="start" x="8" y="-71.5" font-family="Helvetica,sans-Serif" font-size="10.00">MayaFlux::Kakshya::</text>
<text text-anchor="start" x="8" y="-60.5" font-family="Helvetica,sans-Serif" font-size="10.00">WindowAccessProcessor</text>
<text text-anchor="middle" x="68.5" y="-49.5" font-family="Helvetica,sans-Serif" font-size="10.00">::on_attach</text>
</a>
</g>
</g>
<!-- Node2 -->
<g id="Node000002" class="node">
<title>Node2</title>
<g id="a_Node000002"><a xlink:href="namespaceMayaFlux_1_1Kakshya_ae1dd319d71f7aa09fa3cca52132be64a.html#ae1dd319d71f7aa09fa3cca52132be64a" target="_top" xlink:title="Query the actual vk::Format in use by the window&#39;s live swapchain, translated back to the MayaFlux su...">
<polygon fill="white" stroke="#666666" points="303.5,-126 179.5,-126 179.5,-96 303.5,-96 303.5,-126"/>
<text text-anchor="start" x="187.5" y="-114" font-family="Helvetica,sans-Serif" font-size="10.00">MayaFlux::Kakshya::</text>
<text text-anchor="middle" x="241.5" y="-103" font-family="Helvetica,sans-Serif" font-size="10.00">query_surface_format</text>
</a>
</g>
</g>
<!-- Node1&#45;&gt;Node2 -->
<g id="edge1_Node000001_Node000002" class="edge">
<title>Node1&#45;&gt;Node2</title>
<g id="a_edge1_Node000001_Node000002"><a xlink:title=" ">
<path fill="none" stroke="#63b8ff" d="M137.08,-81.97C150.25,-85.67 164.01,-89.53 177.04,-93.19"/>
<polygon fill="#63b8ff" stroke="#63b8ff" points="176.26,-96.6 186.84,-95.94 178.16,-89.86 176.26,-96.6"/>
</a>
</g>
</g>
<!-- Node4 -->
<g id="Node000004" class="node">
<title>Node4</title>
<g id="a_Node000004"><a xlink:href="namespaceMayaFlux_1_1Core_a54d468030300d13e49f95e8db19b6a70.html#a54d468030300d13e49f95e8db19b6a70" target="_top" xlink:title=" ">
<polygon fill="white" stroke="#666666" points="296,-78 187,-78 187,-48 296,-48 296,-78"/>
<text text-anchor="start" x="195" y="-66" font-family="Helvetica,sans-Serif" font-size="10.00">MayaFlux::Core::to</text>
<text text-anchor="middle" x="241.5" y="-55" font-family="Helvetica,sans-Serif" font-size="10.00">_vk_format</text>
</a>
</g>
</g>
<!-- Node1&#45;&gt;Node4 -->
<g id="edge3_Node000001_Node000004" class="edge">
<title>Node1&#45;&gt;Node4</title>
<g id="a_edge3_Node000001_Node000004"><a xlink:title=" ">
<path fill="none" stroke="#63b8ff" d="M137.08,-63C150.12,-63 163.74,-63 176.66,-63"/>
<polygon fill="#63b8ff" stroke="#63b8ff" points="176.84,-66.5 186.84,-63 176.84,-59.5 176.84,-66.5"/>
</a>
</g>
</g>
<!-- Node5 -->
<g id="Node000005" class="node">
<title>Node5</title>
<g id="a_Node000005"><a xlink:href="namespaceMayaFlux_1_1Core_a78d9f935bef82a58cc0eedeb4fea4934.html#a78d9f935bef82a58cc0eedeb4fea4934" target="_top" xlink:title="Byte width of a single pixel for a given Vulkan format.">
<polygon fill="white" stroke="#666666" points="310,-30 173,-30 173,0 310,0 310,-30"/>
<text text-anchor="start" x="181" y="-18" font-family="Helvetica,sans-Serif" font-size="10.00">MayaFlux::Core::vk</text>
<text text-anchor="middle" x="241.5" y="-7" font-family="Helvetica,sans-Serif" font-size="10.00">_format_bytes_per_pixel</text>
</a>
</g>
</g>
<!-- Node1&#45;&gt;Node5 -->
<g id="edge4_Node000001_Node000005" class="edge">
<title>Node1&#45;&gt;Node5</title>
<g id="a_edge4_Node000001_Node000005"><a xlink:title=" ">
<path fill="none" stroke="#63b8ff" d="M137.08,-44.03C150.25,-40.33 164.01,-36.47 177.04,-32.81"/>
<polygon fill="#63b8ff" stroke="#63b8ff" points="178.16,-36.14 186.84,-30.06 176.26,-29.4 178.16,-36.14"/>
</a>
</g>
</g>
<!-- Node3 -->
<g id="Node000003" class="node">
<title>Node3</title>
<g id="a_Node000003"><a xlink:href="namespaceMayaFlux_1_1Core_a536f388ac516606e0df343ebf0047db6.html#a536f388ac516606e0df343ebf0047db6" target="_top" xlink:title="Reverse&#45;map a vk::Format to the nearest GraphicsSurfaceInfo::SurfaceFormat.">
<polygon fill="white" stroke="#666666" points="468,-126 346,-126 346,-96 468,-96 468,-126"/>
<text text-anchor="start" x="354" y="-114" font-family="Helvetica,sans-Serif" font-size="10.00">MayaFlux::Core::from</text>
<text text-anchor="middle" x="407" y="-103" font-family="Helvetica,sans-Serif" font-size="10.00">_vk_format</text>
</a>
</g>
</g>
<!-- Node2&#45;&gt;Node3 -->
<g id="edge2_Node000002_Node000003" class="edge">
<title>Node2&#45;&gt;Node3</title>
<g id="a_edge2_Node000002_Node000003"><a xlink:title=" ">
<path fill="none" stroke="#63b8ff" d="M303.85,-111C314.28,-111 325.2,-111 335.84,-111"/>
<polygon fill="#63b8ff" stroke="#63b8ff" points="335.94,-114.5 345.94,-111 335.94,-107.5 335.94,-114.5"/>
</a>
</g>
</g>
</g>
</svg>
