<?xml version="1.0" encoding="UTF-8" standalone="no"?>
<!DOCTYPE svg PUBLIC "-//W3C//DTD SVG 1.1//EN"
 "http://www.w3.org/Graphics/SVG/1.1/DTD/svg11.dtd">
<!-- Generated by graphviz version 2.43.0 (0)
 -->
<!-- Title: MayaFlux::Buffers::AudioBuffer::enforce_default_processing Pages: 1 -->
<svg width="459pt" height="108pt"
 viewBox="0.00 0.00 459.00 108.00" xmlns="http://www.w3.org/2000/svg" xmlns:xlink="http://www.w3.org/1999/xlink">
<g id="graph0" class="graph" transform="scale(1 1) rotate(0) translate(4 104)">
<title>MayaFlux::Buffers::AudioBuffer::enforce_default_processing</title>
<!-- Node1 -->
<g id="Node000001" class="node">
<title>Node1</title>
<g id="a_Node000001"><a xlink:title="Controls whether the audio buffer should use default processing.">
<polygon fill="#999999" stroke="#666666" points="451,-65 335,-65 335,-24 451,-24 451,-65"/>
<text text-anchor="start" x="343" y="-53" font-family="Helvetica,sans-Serif" font-size="10.00">MayaFlux::Buffers::</text>
<text text-anchor="start" x="343" y="-42" font-family="Helvetica,sans-Serif" font-size="10.00">AudioBuffer::enforce</text>
<text text-anchor="middle" x="393" y="-31" font-family="Helvetica,sans-Serif" font-size="10.00">_default_processing</text>
</a>
</g>
</g>
<!-- Node2 -->
<g id="Node000002" class="node">
<title>Node2</title>
<g id="a_Node000002"><a xlink:href="classMayaFlux_1_1Buffers_1_1SoundContainerBuffer_a249c5d9818c533d2a1ab266be6a1994c.html#a249c5d9818c533d2a1ab266be6a1994c" target="_top" xlink:title="Initialize the buffer after construction.">
<polygon fill="white" stroke="#666666" points="299,-90 176,-90 176,-49 299,-49 299,-90"/>
<text text-anchor="start" x="184" y="-78" font-family="Helvetica,sans-Serif" font-size="10.00">MayaFlux::Buffers::</text>
<text text-anchor="start" x="184" y="-67" font-family="Helvetica,sans-Serif" font-size="10.00">SoundContainerBuffer</text>
<text text-anchor="middle" x="237.5" y="-56" font-family="Helvetica,sans-Serif" font-size="10.00">::initialize</text>
</a>
</g>
</g>
<!-- Node1&#45;&gt;Node2 -->
<g id="edge1_Node000001_Node000002" class="edge">
<title>Node1&#45;&gt;Node2</title>
<g id="a_edge1_Node000001_Node000002"><a xlink:title=" ">
<path fill="none" stroke="#63b8ff" d="M324.86,-55.43C316.27,-56.83 307.52,-58.26 299.05,-59.64"/>
<polygon fill="#63b8ff" stroke="#63b8ff" points="325.53,-58.87 334.84,-53.81 324.41,-51.96 325.53,-58.87"/>
</a>
</g>
</g>
<!-- Node4 -->
<g id="Node000004" class="node">
<title>Node4</title>
<g id="a_Node000004"><a xlink:href="classMayaFlux_1_1Buffers_1_1SoundFileBridge_a3a43b63b870c20526d908c5bc296b8ba.html#a3a43b63b870c20526d908c5bc296b8ba" target="_top" xlink:title="Setup the processing chain with automatic input/output.">
<polygon fill="white" stroke="#666666" points="134,-41 6,-41 6,0 134,0 134,-41"/>
<text text-anchor="start" x="14" y="-29" font-family="Helvetica,sans-Serif" font-size="10.00">MayaFlux::Buffers::</text>
<text text-anchor="start" x="14" y="-18" font-family="Helvetica,sans-Serif" font-size="10.00">SoundFileBridge::setup</text>
<text text-anchor="middle" x="70" y="-7" font-family="Helvetica,sans-Serif" font-size="10.00">_processors</text>
</a>
</g>
</g>
<!-- Node1&#45;&gt;Node4 -->
<g id="edge4_Node000001_Node000004" class="edge">
<title>Node1&#45;&gt;Node4</title>
<g id="a_edge4_Node000001_Node000004"><a xlink:title=" ">
<path fill="none" stroke="#63b8ff" d="M324.77,-39.47C268.6,-35.27 189.07,-29.33 134.08,-25.22"/>
<polygon fill="#63b8ff" stroke="#63b8ff" points="324.75,-42.98 334.98,-40.24 325.27,-36 324.75,-42.98"/>
</a>
</g>
</g>
<!-- Node3 -->
<g id="Node000003" class="node">
<title>Node3</title>
<g id="a_Node000003"><a xlink:href="classMayaFlux_1_1IO_1_1IOManager_a379f2b3ed14f3c441c69796073d75de2.html#a379f2b3ed14f3c441c69796073d75de2" target="_top" xlink:title="Wire a SoundFileContainer to the audio buffer system.">
<polygon fill="white" stroke="#666666" points="140,-100 0,-100 0,-59 140,-59 140,-100"/>
<text text-anchor="start" x="8" y="-88" font-family="Helvetica,sans-Serif" font-size="10.00">MayaFlux::IO::IOManager</text>
<text text-anchor="start" x="8" y="-77" font-family="Helvetica,sans-Serif" font-size="10.00">::hook_audio_container</text>
<text text-anchor="middle" x="70" y="-66" font-family="Helvetica,sans-Serif" font-size="10.00">_to_buffers</text>
</a>
</g>
</g>
<!-- Node2&#45;&gt;Node3 -->
<g id="edge2_Node000002_Node000003" class="edge">
<title>Node2&#45;&gt;Node3</title>
<g id="a_edge2_Node000002_Node000003"><a xlink:title=" ">
<path fill="none" stroke="#63b8ff" d="M165.6,-73.78C157.14,-74.3 148.51,-74.82 140.07,-75.33"/>
<polygon fill="#63b8ff" stroke="#63b8ff" points="166.04,-77.26 175.81,-73.17 165.62,-70.28 166.04,-77.26"/>
</a>
</g>
</g>
<!-- Node2&#45;&gt;Node4 -->
<g id="edge3_Node000002_Node000004" class="edge">
<title>Node2&#45;&gt;Node4</title>
<g id="a_edge3_Node000002_Node000004"><a xlink:title=" ">
<path fill="none" stroke="#63b8ff" d="M166.16,-48.67C155.54,-45.53 144.64,-42.3 134.18,-39.21"/>
<polygon fill="#63b8ff" stroke="#63b8ff" points="165.23,-52.05 175.81,-51.53 167.22,-45.34 165.23,-52.05"/>
</a>
</g>
</g>
</g>
</svg>
