<?xml version="1.0" encoding="UTF-8" standalone="no"?>
<!DOCTYPE svg PUBLIC "-//W3C//DTD SVG 1.1//EN"
 "http://www.w3.org/Graphics/SVG/1.1/DTD/svg11.dtd">
<!-- Generated by graphviz version 2.43.0 (0)
 -->
<!-- Title: MayaFlux::Buffers::NetworkGeometryBuffer::setup_rendering Pages: 1 -->
<svg width="350pt" height="175pt"
 viewBox="0.00 0.00 350.00 175.00" xmlns="http://www.w3.org/2000/svg" xmlns:xlink="http://www.w3.org/1999/xlink">
<g id="graph0" class="graph" transform="scale(1 1) rotate(0) translate(4 171)">
<title>MayaFlux::Buffers::NetworkGeometryBuffer::setup_rendering</title>
<!-- Node1 -->
<g id="Node000001" class="node">
<title>Node1</title>
<g id="a_Node000001"><a xlink:title="Setup rendering with RenderProcessor.">
<polygon fill="#999999" stroke="#666666" points="136,-95 0,-95 0,-54 136,-54 136,-95"/>
<text text-anchor="start" x="8" y="-83" font-family="Helvetica,sans-Serif" font-size="10.00">MayaFlux::Buffers::</text>
<text text-anchor="start" x="8" y="-72" font-family="Helvetica,sans-Serif" font-size="10.00">NetworkGeometryBuffer</text>
<text text-anchor="middle" x="68" y="-61" font-family="Helvetica,sans-Serif" font-size="10.00">::setup_rendering</text>
</a>
</g>
</g>
<!-- Node2 -->
<g id="Node000002" class="node">
<title>Node2</title>
<g id="a_Node000002"><a xlink:href="classMayaFlux_1_1Buffers_1_1VKBuffer_aa9370fdd8ef512d6503c1c7ccdb0afda.html#aa9370fdd8ef512d6503c1c7ccdb0afda" target="_top" xlink:title="Configure the internal m_render_processor from a RenderConfig.">
<polygon fill="white" stroke="#666666" points="321.5,-149 192.5,-149 192.5,-108 321.5,-108 321.5,-149"/>
<text text-anchor="start" x="200.5" y="-137" font-family="Helvetica,sans-Serif" font-size="10.00">MayaFlux::Buffers::</text>
<text text-anchor="start" x="200.5" y="-126" font-family="Helvetica,sans-Serif" font-size="10.00">VKBuffer::apply_render</text>
<text text-anchor="middle" x="257" y="-115" font-family="Helvetica,sans-Serif" font-size="10.00">_config</text>
</a>
</g>
</g>
<!-- Node1&#45;&gt;Node2 -->
<g id="edge1_Node000001_Node000002" class="edge">
<title>Node1&#45;&gt;Node2</title>
<g id="a_edge1_Node000001_Node000002"><a xlink:title=" ">
<path fill="none" stroke="#63b8ff" d="M136.25,-93.92C151.28,-98.26 167.3,-102.88 182.56,-107.29"/>
<polygon fill="#63b8ff" stroke="#63b8ff" points="181.89,-110.74 192.47,-110.15 183.83,-104.02 181.89,-110.74"/>
</a>
</g>
</g>
<!-- Node3 -->
<g id="Node000003" class="node">
<title>Node3</title>
<g id="a_Node000003"><a xlink:href="classMayaFlux_1_1Buffers_1_1VKBuffer_a6cf409969c192851ab2cf7f0315d2a49.html#a6cf409969c192851ab2cf7f0315d2a49" target="_top" xlink:title="Access the buffer&#39;s processing chain.">
<polygon fill="white" stroke="#666666" points="342,-89.5 172,-89.5 172,-59.5 342,-59.5 342,-89.5"/>
<text text-anchor="start" x="180" y="-77.5" font-family="Helvetica,sans-Serif" font-size="10.00">MayaFlux::Buffers::</text>
<text text-anchor="middle" x="257" y="-66.5" font-family="Helvetica,sans-Serif" font-size="10.00">VKBuffer::get_processing_chain</text>
</a>
</g>
</g>
<!-- Node1&#45;&gt;Node3 -->
<g id="edge3_Node000001_Node000003" class="edge">
<title>Node1&#45;&gt;Node3</title>
<g id="a_edge3_Node000001_Node000003"><a xlink:title=" ">
<path fill="none" stroke="#63b8ff" d="M136.25,-74.5C144.53,-74.5 153.1,-74.5 161.69,-74.5"/>
<polygon fill="#63b8ff" stroke="#63b8ff" points="161.76,-78 171.76,-74.5 161.76,-71 161.76,-78"/>
</a>
</g>
</g>
<!-- Node4 -->
<g id="Node000004" class="node">
<title>Node4</title>
<g id="a_Node000004"><a xlink:href="classMayaFlux_1_1Buffers_1_1VKBuffer_acb563960a9f338d6e93cf7bae6f64f46.html#acb563960a9f338d6e93cf7bae6f64f46" target="_top" xlink:title="Called by derived classes to set their context&#45;specific defaults.">
<polygon fill="white" stroke="#666666" points="317,-41 197,-41 197,0 317,0 317,-41"/>
<text text-anchor="start" x="205" y="-29" font-family="Helvetica,sans-Serif" font-size="10.00">MayaFlux::Buffers::</text>
<text text-anchor="start" x="205" y="-18" font-family="Helvetica,sans-Serif" font-size="10.00">VKBuffer::set_default</text>
<text text-anchor="middle" x="257" y="-7" font-family="Helvetica,sans-Serif" font-size="10.00">_render_config</text>
</a>
</g>
</g>
<!-- Node1&#45;&gt;Node4 -->
<g id="edge4_Node000001_Node000004" class="edge">
<title>Node1&#45;&gt;Node4</title>
<g id="a_edge4_Node000001_Node000004"><a xlink:title=" ">
<path fill="none" stroke="#63b8ff" d="M136.25,-55.08C152.79,-50.3 170.53,-45.18 187.14,-40.38"/>
<polygon fill="#63b8ff" stroke="#63b8ff" points="188.15,-43.74 196.78,-37.6 186.2,-37.01 188.15,-43.74"/>
</a>
</g>
</g>
<!-- Node2&#45;&gt;Node2 -->
<g id="edge2_Node000002_Node000002" class="edge">
<title>Node2&#45;&gt;Node2</title>
<g id="a_edge2_Node000002_Node000002"><a xlink:title=" ">
<path fill="none" stroke="#63b8ff" d="M222.45,-149.1C218.68,-158.65 230.2,-167 257,-167 273.75,-167 284.53,-163.74 289.34,-158.96"/>
<polygon fill="#63b8ff" stroke="#63b8ff" points="292.78,-159.62 291.55,-149.1 285.95,-158.09 292.78,-159.62"/>
</a>
</g>
</g>
</g>
</svg>
