<?xml version="1.0" encoding="UTF-8" standalone="no"?>
<!DOCTYPE svg PUBLIC "-//W3C//DTD SVG 1.1//EN"
 "http://www.w3.org/Graphics/SVG/1.1/DTD/svg11.dtd">
<!-- Generated by graphviz version 2.43.0 (0)
 -->
<!-- Title: MayaFlux::Yantra::StandardSorter::sort_implementation Pages: 1 -->
<svg width="1303pt" height="571pt"
 viewBox="0.00 0.00 1303.00 570.50" xmlns="http://www.w3.org/2000/svg" xmlns:xlink="http://www.w3.org/1999/xlink">
<g id="graph0" class="graph" transform="scale(1 1) rotate(0) translate(4 566.5)">
<title>MayaFlux::Yantra::StandardSorter::sort_implementation</title>
<!-- Node1 -->
<g id="Node000001" class="node">
<title>Node1</title>
<g id="a_Node000001"><a xlink:title="Main sorting implementation with type dispatch.">
<polygon fill="#999999" stroke="#666666" points="154,-370.5 0,-370.5 0,-340.5 154,-340.5 154,-370.5"/>
<text text-anchor="start" x="8" y="-358.5" font-family="Helvetica,sans-Serif" font-size="10.00">MayaFlux::Yantra::Standard</text>
<text text-anchor="middle" x="77" y="-347.5" font-family="Helvetica,sans-Serif" font-size="10.00">Sorter::sort_implementation</text>
</a>
</g>
</g>
<!-- Node2 -->
<g id="Node000002" class="node">
<title>Node2</title>
<g id="a_Node000002"><a xlink:href="classMayaFlux_1_1Yantra_1_1UniversalSorter_a2e0f28d2460f3b021949d436a18cb8c0.html#a2e0f28d2460f3b021949d436a18cb8c0" target="_top" xlink:title=" ">
<polygon fill="white" stroke="#666666" points="343,-514.5 190,-514.5 190,-484.5 343,-484.5 343,-514.5"/>
<text text-anchor="start" x="198" y="-502.5" font-family="Helvetica,sans-Serif" font-size="10.00">MayaFlux::Yantra::Universal</text>
<text text-anchor="middle" x="266.5" y="-491.5" font-family="Helvetica,sans-Serif" font-size="10.00">Sorter::get_strategy</text>
</a>
</g>
</g>
<!-- Node1&#45;&gt;Node2 -->
<g id="edge1_Node000001_Node000002" class="edge">
<title>Node1&#45;&gt;Node2</title>
<g id="a_edge1_Node000001_Node000002"><a xlink:title=" ">
<path fill="none" stroke="#63b8ff" d="M88.21,-370.75C105.96,-396.12 144.96,-447.02 190,-475.5 192.59,-477.14 195.3,-478.67 198.09,-480.11"/>
<polygon fill="#63b8ff" stroke="#63b8ff" points="196.69,-483.32 207.23,-484.37 199.65,-476.97 196.69,-483.32"/>
</a>
</g>
</g>
<!-- Node3 -->
<g id="Node000003" class="node">
<title>Node3</title>
<g id="a_Node000003"><a xlink:href="classMayaFlux_1_1Yantra_1_1StandardSorter_a23b5d6fc1ca885f8971ee0cf3b30b8fb.html#a23b5d6fc1ca885f8971ee0cf3b30b8fb" target="_top" xlink:title="Chunked sorting implementation.">
<polygon fill="white" stroke="#666666" points="341.5,-466.5 191.5,-466.5 191.5,-436.5 341.5,-436.5 341.5,-466.5"/>
<text text-anchor="start" x="199.5" y="-454.5" font-family="Helvetica,sans-Serif" font-size="10.00">MayaFlux::Yantra::Standard</text>
<text text-anchor="middle" x="266.5" y="-443.5" font-family="Helvetica,sans-Serif" font-size="10.00">Sorter::sort_chunked</text>
</a>
</g>
</g>
<!-- Node1&#45;&gt;Node3 -->
<g id="edge2_Node000001_Node000003" class="edge">
<title>Node1&#45;&gt;Node3</title>
<g id="a_edge2_Node000001_Node000003"><a xlink:title=" ">
<path fill="none" stroke="#63b8ff" d="M98.1,-370.75C119.82,-386.66 155.9,-411.47 190,-427.5 194.03,-429.39 198.25,-431.19 202.54,-432.89"/>
<polygon fill="#63b8ff" stroke="#63b8ff" points="201.43,-436.21 212.02,-436.44 203.88,-429.66 201.43,-436.21"/>
</a>
</g>
</g>
<!-- Node17 -->
<g id="Node000017" class="node">
<title>Node17</title>
<g id="a_Node000017"><a xlink:href="classMayaFlux_1_1Yantra_1_1StandardSorter_ab0cab009ecf55edb7831341dfafb4dbd.html#ab0cab009ecf55edb7831341dfafb4dbd" target="_top" xlink:title="Copy&#45;based sorting (preserves input)">
<polygon fill="white" stroke="#666666" points="545,-284.5 395,-284.5 395,-254.5 545,-254.5 545,-284.5"/>
<text text-anchor="start" x="403" y="-272.5" font-family="Helvetica,sans-Serif" font-size="10.00">MayaFlux::Yantra::Standard</text>
<text text-anchor="middle" x="470" y="-261.5" font-family="Helvetica,sans-Serif" font-size="10.00">Sorter::sort_copy</text>
</a>
</g>
</g>
<!-- Node1&#45;&gt;Node17 -->
<g id="edge18_Node000001_Node000017" class="edge">
<title>Node1&#45;&gt;Node17</title>
<g id="a_edge18_Node000001_Node000017"><a xlink:title=" ">
<path fill="none" stroke="#63b8ff" d="M95.13,-340.34C115.91,-323 152.81,-295.44 190,-283.5 253.03,-263.26 328.17,-260.62 384.58,-262.57"/>
<polygon fill="#63b8ff" stroke="#63b8ff" points="384.76,-266.08 394.89,-262.99 385.04,-259.09 384.76,-266.08"/>
</a>
</g>
</g>
<!-- Node18 -->
<g id="Node000018" class="node">
<title>Node18</title>
<g id="a_Node000018"><a xlink:href="classMayaFlux_1_1Yantra_1_1StandardSorter_a6b81e2c2a8916cee453f4ce66320a9d7.html#a6b81e2c2a8916cee453f4ce66320a9d7" target="_top" xlink:title="In&#45;place sorting (modifies input)">
<polygon fill="white" stroke="#666666" points="341.5,-236.5 191.5,-236.5 191.5,-206.5 341.5,-206.5 341.5,-236.5"/>
<text text-anchor="start" x="199.5" y="-224.5" font-family="Helvetica,sans-Serif" font-size="10.00">MayaFlux::Yantra::Standard</text>
<text text-anchor="middle" x="266.5" y="-213.5" font-family="Helvetica,sans-Serif" font-size="10.00">Sorter::sort_in_place</text>
</a>
</g>
</g>
<!-- Node1&#45;&gt;Node18 -->
<g id="edge23_Node000001_Node000018" class="edge">
<title>Node1&#45;&gt;Node18</title>
<g id="a_edge23_Node000001_Node000018"><a xlink:title=" ">
<path fill="none" stroke="#63b8ff" d="M90.68,-340.34C110.06,-318 149.13,-276.12 190,-250.5 195.76,-246.89 202.03,-243.61 208.43,-240.67"/>
<polygon fill="#63b8ff" stroke="#63b8ff" points="210.05,-243.78 217.83,-236.59 207.27,-237.35 210.05,-243.78"/>
</a>
</g>
</g>
<!-- Node23 -->
<g id="Node000023" class="node">
<title>Node23</title>
<g id="a_Node000023"><a xlink:href="classMayaFlux_1_1Yantra_1_1StandardSorter_a1187d263424d60d6834853aa7230e081.html#a1187d263424d60d6834853aa7230e081" target="_top" xlink:title="Generate sort indices only.">
<polygon fill="white" stroke="#666666" points="341.5,-370.5 191.5,-370.5 191.5,-340.5 341.5,-340.5 341.5,-370.5"/>
<text text-anchor="start" x="199.5" y="-358.5" font-family="Helvetica,sans-Serif" font-size="10.00">MayaFlux::Yantra::Standard</text>
<text text-anchor="middle" x="266.5" y="-347.5" font-family="Helvetica,sans-Serif" font-size="10.00">Sorter::sort_indices_only</text>
</a>
</g>
</g>
<!-- Node1&#45;&gt;Node23 -->
<g id="edge32_Node000001_Node000023" class="edge">
<title>Node1&#45;&gt;Node23</title>
<g id="a_edge32_Node000001_Node000023"><a xlink:title=" ">
<path fill="none" stroke="#63b8ff" d="M154.26,-355.5C163.18,-355.5 172.31,-355.5 181.32,-355.5"/>
<polygon fill="#63b8ff" stroke="#63b8ff" points="181.43,-359 191.43,-355.5 181.43,-352 181.43,-359"/>
</a>
</g>
</g>
<!-- Node27 -->
<g id="Node000027" class="node">
<title>Node27</title>
<g id="a_Node000027"><a xlink:href="classMayaFlux_1_1Yantra_1_1StandardSorter_a0e2d9acadf8b88678d56a9bbf134c88f.html#a0e2d9acadf8b88678d56a9bbf134c88f" target="_top" xlink:title="Parallel sorting.">
<polygon fill="white" stroke="#666666" points="341.5,-322.5 191.5,-322.5 191.5,-292.5 341.5,-292.5 341.5,-322.5"/>
<text text-anchor="start" x="199.5" y="-310.5" font-family="Helvetica,sans-Serif" font-size="10.00">MayaFlux::Yantra::Standard</text>
<text text-anchor="middle" x="266.5" y="-299.5" font-family="Helvetica,sans-Serif" font-size="10.00">Sorter::sort_parallel</text>
</a>
</g>
</g>
<!-- Node1&#45;&gt;Node27 -->
<g id="edge42_Node000001_Node000027" class="edge">
<title>Node1&#45;&gt;Node27</title>
<g id="a_edge42_Node000001_Node000027"><a xlink:title=" ">
<path fill="none" stroke="#63b8ff" d="M136.81,-340.44C155.92,-335.55 177.29,-330.08 197.04,-325.02"/>
<polygon fill="#63b8ff" stroke="#63b8ff" points="198.08,-328.37 206.9,-322.5 196.34,-321.59 198.08,-328.37"/>
</a>
</g>
</g>
<!-- Node28 -->
<g id="Node000028" class="node">
<title>Node28</title>
<g id="a_Node000028"><a xlink:href="classMayaFlux_1_1Yantra_1_1StandardSorter_a2be279c3839f376f80f50dc50c325d7c.html#a2be279c3839f376f80f50dc50c325d7c" target="_top" xlink:title="Partial sorting (top&#45;K elements)">
<polygon fill="white" stroke="#666666" points="341.5,-418.5 191.5,-418.5 191.5,-388.5 341.5,-388.5 341.5,-418.5"/>
<text text-anchor="start" x="199.5" y="-406.5" font-family="Helvetica,sans-Serif" font-size="10.00">MayaFlux::Yantra::Standard</text>
<text text-anchor="middle" x="266.5" y="-395.5" font-family="Helvetica,sans-Serif" font-size="10.00">Sorter::sort_partial</text>
</a>
</g>
</g>
<!-- Node1&#45;&gt;Node28 -->
<g id="edge44_Node000001_Node000028" class="edge">
<title>Node1&#45;&gt;Node28</title>
<g id="a_edge44_Node000001_Node000028"><a xlink:title=" ">
<path fill="none" stroke="#63b8ff" d="M136.81,-370.56C155.92,-375.45 177.29,-380.92 197.04,-385.98"/>
<polygon fill="#63b8ff" stroke="#63b8ff" points="196.34,-389.41 206.9,-388.5 198.08,-382.63 196.34,-389.41"/>
</a>
</g>
</g>
<!-- Node4 -->
<g id="Node000004" class="node">
<title>Node4</title>
<g id="a_Node000004"><a xlink:href="classMayaFlux_1_1Yantra_1_1StandardSorter_af4e5f28000163cedbc0fda0a1696f344.html#af4e5f28000163cedbc0fda0a1696f344" target="_top" xlink:title=" ">
<polygon fill="white" stroke="#666666" points="549.5,-562.5 390.5,-562.5 390.5,-532.5 549.5,-532.5 549.5,-562.5"/>
<text text-anchor="start" x="398.5" y="-550.5" font-family="Helvetica,sans-Serif" font-size="10.00">MayaFlux::Yantra::Standard</text>
<text text-anchor="middle" x="470" y="-539.5" font-family="Helvetica,sans-Serif" font-size="10.00">Sorter::extract_chunked_data</text>
</a>
</g>
</g>
<!-- Node3&#45;&gt;Node4 -->
<g id="edge3_Node000003_Node000004" class="edge">
<title>Node3&#45;&gt;Node4</title>
<g id="a_edge3_Node000003_Node000004"><a xlink:title=" ">
<path fill="none" stroke="#63b8ff" d="M327.31,-466.58C332.85,-469.12 338.18,-472.08 343,-475.5 364.74,-490.94 356.9,-508.58 379,-523.5 381.39,-525.11 383.88,-526.62 386.45,-528.02"/>
<polygon fill="#63b8ff" stroke="#63b8ff" points="384.92,-531.17 395.44,-532.41 387.99,-524.88 384.92,-531.17"/>
</a>
</g>
</g>
<!-- Node9 -->
<g id="Node000009" class="node">
<title>Node9</title>
<g id="a_Node000009"><a xlink:href="classMayaFlux_1_1Yantra_1_1OperationHelper_a86f4c84e8740ec41db439c868a93454a.html#a86f4c84e8740ec41db439c868a93454a" target="_top" xlink:title="Extract structured double data from Datum container or direct ComputeData with automatic container ha...">
<polygon fill="white" stroke="#666666" points="561,-514.5 379,-514.5 379,-484.5 561,-484.5 561,-514.5"/>
<text text-anchor="start" x="387" y="-502.5" font-family="Helvetica,sans-Serif" font-size="10.00">MayaFlux::Yantra::Operation</text>
<text text-anchor="middle" x="470" y="-491.5" font-family="Helvetica,sans-Serif" font-size="10.00">Helper::extract_structured_double</text>
</a>
</g>
</g>
<!-- Node3&#45;&gt;Node9 -->
<g id="edge8_Node000003_Node000009" class="edge">
<title>Node3&#45;&gt;Node9</title>
<g id="a_edge8_Node000003_Node000009"><a xlink:title=" ">
<path fill="none" stroke="#63b8ff" d="M330.7,-466.56C351.43,-471.49 374.63,-477.02 396.01,-482.11"/>
<polygon fill="#63b8ff" stroke="#63b8ff" points="395.48,-485.58 406.02,-484.5 397.1,-478.78 395.48,-485.58"/>
</a>
</g>
</g>
<!-- Node10 -->
<g id="Node000010" class="node">
<title>Node10</title>
<g id="a_Node000010"><a xlink:href="classMayaFlux_1_1Yantra_1_1StandardSorter_ad0f3d15e5826ab75d2b6765c14b6148a.html#ad0f3d15e5826ab75d2b6765c14b6148a" target="_top" xlink:title="Merge chunks back to single result.">
<polygon fill="white" stroke="#666666" points="555.5,-188.5 384.5,-188.5 384.5,-158.5 555.5,-158.5 555.5,-188.5"/>
<text text-anchor="start" x="392.5" y="-176.5" font-family="Helvetica,sans-Serif" font-size="10.00">MayaFlux::Yantra::Standard</text>
<text text-anchor="middle" x="470" y="-165.5" font-family="Helvetica,sans-Serif" font-size="10.00">Sorter::merge_chunks_to_result</text>
</a>
</g>
</g>
<!-- Node3&#45;&gt;Node10 -->
<g id="edge9_Node000003_Node000010" class="edge">
<title>Node3&#45;&gt;Node10</title>
<g id="a_edge9_Node000003_Node000010"><a xlink:title=" ">
<path fill="none" stroke="#63b8ff" d="M332.83,-436.43C336.6,-433.9 340.04,-430.94 343,-427.5 410.38,-348.98 309.79,-274.41 379,-197.5 379.76,-196.66 380.54,-195.85 381.35,-195.06"/>
<polygon fill="#63b8ff" stroke="#63b8ff" points="383.64,-197.71 389.2,-188.69 379.23,-192.27 383.64,-197.71"/>
</a>
</g>
</g>
<!-- Node13 -->
<g id="Node000013" class="node">
<title>Node13</title>
<g id="a_Node000013"><a xlink:href="classMayaFlux_1_1Yantra_1_1StandardSorter_a4354ccfd82da15a220f84dc53a5676e0.html#a4354ccfd82da15a220f84dc53a5676e0" target="_top" xlink:title="Sort data with copy semantics.">
<polygon fill="white" stroke="#666666" points="545,-466.5 395,-466.5 395,-436.5 545,-436.5 545,-466.5"/>
<text text-anchor="start" x="403" y="-454.5" font-family="Helvetica,sans-Serif" font-size="10.00">MayaFlux::Yantra::Standard</text>
<text text-anchor="middle" x="470" y="-443.5" font-family="Helvetica,sans-Serif" font-size="10.00">Sorter::sort_data_copy</text>
</a>
</g>
</g>
<!-- Node3&#45;&gt;Node13 -->
<g id="edge12_Node000003_Node000013" class="edge">
<title>Node3&#45;&gt;Node13</title>
<g id="a_edge12_Node000003_Node000013"><a xlink:title=" ">
<path fill="none" stroke="#63b8ff" d="M341.67,-451.5C355.67,-451.5 370.4,-451.5 384.68,-451.5"/>
<polygon fill="#63b8ff" stroke="#63b8ff" points="384.98,-455 394.98,-451.5 384.98,-448 384.98,-455"/>
</a>
</g>
</g>
<!-- Node5 -->
<g id="Node000005" class="node">
<title>Node5</title>
<g id="a_Node000005"><a xlink:href="classMayaFlux_1_1Yantra_1_1UniversalSorter_ad0c240a1fcea4c743508eb14c938b30d.html#ad0c240a1fcea4c743508eb14c938b30d" target="_top" xlink:title=" ">
<polygon fill="white" stroke="#666666" points="750,-418.5 597,-418.5 597,-388.5 750,-388.5 750,-418.5"/>
<text text-anchor="start" x="605" y="-406.5" font-family="Helvetica,sans-Serif" font-size="10.00">MayaFlux::Yantra::Universal</text>
<text text-anchor="middle" x="673.5" y="-395.5" font-family="Helvetica,sans-Serif" font-size="10.00">Sorter::get_direction</text>
</a>
</g>
</g>
<!-- Node4&#45;&gt;Node5 -->
<g id="edge4_Node000004_Node000005" class="edge">
<title>Node4&#45;&gt;Node5</title>
<g id="a_edge4_Node000004_Node000005"><a xlink:title=" ">
<path fill="none" stroke="#63b8ff" d="M548.75,-532.27C553.15,-529.77 557.29,-526.87 561,-523.5 594.76,-492.9 563.97,-458.89 597,-427.5 598.12,-426.43 599.29,-425.42 600.5,-424.44"/>
<polygon fill="#63b8ff" stroke="#63b8ff" points="602.71,-427.17 609.01,-418.65 598.77,-421.38 602.71,-427.17"/>
</a>
</g>
</g>
<!-- Node6 -->
<g id="Node000006" class="node">
<title>Node6</title>
<g id="a_Node000006"><a xlink:href="namespaceMayaFlux_1_1Kinesis_1_1Discrete_a9349c772343fcafbd79eeedb913199ae.html#a9349c772343fcafbd79eeedb913199ae" target="_top" xlink:title="Sort a single span in&#45;place.">
<polygon fill="white" stroke="#666666" points="1101,-299.5 989,-299.5 989,-269.5 1101,-269.5 1101,-299.5"/>
<text text-anchor="start" x="997" y="-287.5" font-family="Helvetica,sans-Serif" font-size="10.00">MayaFlux::Kinesis::</text>
<text text-anchor="middle" x="1045" y="-276.5" font-family="Helvetica,sans-Serif" font-size="10.00">Discrete::sort_span</text>
</a>
</g>
</g>
<!-- Node4&#45;&gt;Node6 -->
<g id="edge5_Node000004_Node000006" class="edge">
<title>Node4&#45;&gt;Node6</title>
<g id="a_edge5_Node000004_Node000006"><a xlink:title=" ">
<path fill="none" stroke="#63b8ff" d="M549.8,-535.72C651.1,-517.45 828.71,-474.55 953,-384.5 983.04,-362.74 1010.67,-329.74 1027.41,-307.67"/>
<polygon fill="#63b8ff" stroke="#63b8ff" points="1030.33,-309.62 1033.49,-299.51 1024.71,-305.44 1030.33,-309.62"/>
</a>
</g>
</g>
<!-- Node7 -->
<g id="Node000007" class="node">
<title>Node7</title>
<g id="a_Node000007"><a xlink:href="namespaceMayaFlux_1_1Kinesis_1_1Discrete_aa24f42ad7fac830cc8ebd7d7f8c9c839.html#aa24f42ad7fac830cc8ebd7d7f8c9c839" target="_top" xlink:title="Direction&#45;based comparator for doubles.">
<polygon fill="white" stroke="#666666" points="1295,-182.5 1137,-182.5 1137,-152.5 1295,-152.5 1295,-182.5"/>
<text text-anchor="start" x="1145" y="-170.5" font-family="Helvetica,sans-Serif" font-size="10.00">MayaFlux::Kinesis::</text>
<text text-anchor="middle" x="1216" y="-159.5" font-family="Helvetica,sans-Serif" font-size="10.00">Discrete::double_comparator</text>
</a>
</g>
</g>
<!-- Node6&#45;&gt;Node7 -->
<g id="edge6_Node000006_Node000007" class="edge">
<title>Node6&#45;&gt;Node7</title>
<g id="a_edge6_Node000006_Node000007"><a xlink:title=" ">
<path fill="none" stroke="#63b8ff" d="M1067.75,-269.44C1097.45,-248.88 1150.87,-211.9 1184.54,-188.59"/>
<polygon fill="#63b8ff" stroke="#63b8ff" points="1186.84,-191.25 1193.07,-182.68 1182.85,-185.5 1186.84,-191.25"/>
</a>
</g>
</g>
<!-- Node8 -->
<g id="Node000008" class="node">
<title>Node8</title>
<g id="a_Node000008"><a xlink:href="namespaceMayaFlux_1_1Kinesis_1_1Discrete_ac31338d47679ac6672a20b378ed0e6ee.html#ac31338d47679ac6672a20b378ed0e6ee" target="_top" xlink:title="Execute a sorting algorithm on an iterator range.">
<polygon fill="white" stroke="#666666" points="1272,-299.5 1160,-299.5 1160,-269.5 1272,-269.5 1272,-299.5"/>
<text text-anchor="start" x="1168" y="-287.5" font-family="Helvetica,sans-Serif" font-size="10.00">MayaFlux::Kinesis::</text>
<text text-anchor="middle" x="1216" y="-276.5" font-family="Helvetica,sans-Serif" font-size="10.00">Discrete::execute</text>
</a>
</g>
</g>
<!-- Node6&#45;&gt;Node8 -->
<g id="edge7_Node000006_Node000008" class="edge">
<title>Node6&#45;&gt;Node8</title>
<g id="a_edge7_Node000006_Node000008"><a xlink:title=" ">
<path fill="none" stroke="#63b8ff" d="M1101.34,-284.5C1116.74,-284.5 1133.61,-284.5 1149.53,-284.5"/>
<polygon fill="#63b8ff" stroke="#63b8ff" points="1149.83,-288 1159.83,-284.5 1149.83,-281 1149.83,-288"/>
</a>
</g>
</g>
<!-- Node11 -->
<g id="Node000011" class="node">
<title>Node11</title>
<g id="a_Node000011"><a xlink:href="classMayaFlux_1_1Yantra_1_1ComputeOperation_ac364bad27ce3e4d35add89333c9a24b8.html#ac364bad27ce3e4d35add89333c9a24b8" target="_top" xlink:title="Convert processed double data back to OutputType using metadata and optional callback.">
<polygon fill="white" stroke="#666666" points="749,-294.5 598,-294.5 598,-264.5 749,-264.5 749,-294.5"/>
<text text-anchor="start" x="606" y="-282.5" font-family="Helvetica,sans-Serif" font-size="10.00">MayaFlux::Yantra::Compute</text>
<text text-anchor="middle" x="673.5" y="-271.5" font-family="Helvetica,sans-Serif" font-size="10.00">Operation::convert_result</text>
</a>
</g>
</g>
<!-- Node10&#45;&gt;Node11 -->
<g id="edge10_Node000010_Node000011" class="edge">
<title>Node10&#45;&gt;Node11</title>
<g id="a_edge10_Node000010_Node000011"><a xlink:title=" ">
<path fill="none" stroke="#63b8ff" d="M538.83,-188.64C546.46,-191.2 554,-194.14 561,-197.5 593.85,-213.26 626.9,-239.12 648.39,-257.58"/>
<polygon fill="#63b8ff" stroke="#63b8ff" points="646.2,-260.32 656.04,-264.26 650.81,-255.05 646.2,-260.32"/>
</a>
</g>
</g>
<!-- Node12 -->
<g id="Node000012" class="node">
<title>Node12</title>
<g id="a_Node000012"><a xlink:href="classMayaFlux_1_1Yantra_1_1OperationHelper_ad367bd6ef37555bb3918e5545cac03bd.html#ad367bd6ef37555bb3918e5545cac03bd" target="_top" xlink:title="extract numeric data from single&#45;variant types">
<polygon fill="white" stroke="#666666" points="950,-127.5 789,-127.5 789,-97.5 950,-97.5 950,-127.5"/>
<text text-anchor="start" x="797" y="-115.5" font-family="Helvetica,sans-Serif" font-size="10.00">MayaFlux::Yantra::Operation</text>
<text text-anchor="middle" x="869.5" y="-104.5" font-family="Helvetica,sans-Serif" font-size="10.00">Helper::extract_numeric_data</text>
</a>
</g>
</g>
<!-- Node10&#45;&gt;Node12 -->
<g id="edge11_Node000010_Node000012" class="edge">
<title>Node10&#45;&gt;Node12</title>
<g id="a_edge11_Node000010_Node000012"><a xlink:title=" ">
<path fill="none" stroke="#63b8ff" d="M507.83,-158.49C532.6,-149.07 566.24,-137.6 597,-131.5 656.87,-119.62 725.45,-114.9 778.7,-113.13"/>
<polygon fill="#63b8ff" stroke="#63b8ff" points="778.91,-116.62 788.8,-112.82 778.7,-109.62 778.91,-116.62"/>
</a>
</g>
</g>
<!-- Node13&#45;&gt;Node5 -->
<g id="edge13_Node000013_Node000005" class="edge">
<title>Node13&#45;&gt;Node5</title>
<g id="a_edge13_Node000013_Node000005"><a xlink:title=" ">
<path fill="none" stroke="#63b8ff" d="M534.2,-436.44C554.93,-431.51 578.13,-425.98 599.51,-420.89"/>
<polygon fill="#63b8ff" stroke="#63b8ff" points="600.6,-424.22 609.52,-418.5 598.98,-417.42 600.6,-424.22"/>
</a>
</g>
</g>
<!-- Node14 -->
<g id="Node000014" class="node">
<title>Node14</title>
<g id="a_Node000014"><a xlink:href="namespaceMayaFlux_1_1Yantra_aefd8d29775269d3755674992909e379f.html#aefd8d29775269d3755674992909e379f" target="_top" xlink:title="Universal sort function &#45; returns sorted copy.">
<polygon fill="white" stroke="#666666" points="739,-466.5 608,-466.5 608,-436.5 739,-436.5 739,-466.5"/>
<text text-anchor="start" x="616" y="-454.5" font-family="Helvetica,sans-Serif" font-size="10.00">MayaFlux::Yantra::sort</text>
<text text-anchor="middle" x="673.5" y="-443.5" font-family="Helvetica,sans-Serif" font-size="10.00">_compute_data_extract</text>
</a>
</g>
</g>
<!-- Node13&#45;&gt;Node14 -->
<g id="edge14_Node000013_Node000014" class="edge">
<title>Node13&#45;&gt;Node14</title>
<g id="a_edge14_Node000013_Node000014"><a xlink:title=" ">
<path fill="none" stroke="#63b8ff" d="M545.17,-451.5C562.18,-451.5 580.27,-451.5 597.32,-451.5"/>
<polygon fill="#63b8ff" stroke="#63b8ff" points="597.78,-455 607.78,-451.5 597.78,-448 597.78,-455"/>
</a>
</g>
</g>
<!-- Node15 -->
<g id="Node000015" class="node">
<title>Node15</title>
<g id="a_Node000015"><a xlink:href="classMayaFlux_1_1Yantra_1_1OperationHelper_ab87e318fc808c4e06d895135af6097e2.html#ab87e318fc808c4e06d895135af6097e2" target="_top" xlink:title="Setup operation buffer from Datum or ComputeData type.">
<polygon fill="white" stroke="#666666" points="953,-375.5 786,-375.5 786,-345.5 953,-345.5 953,-375.5"/>
<text text-anchor="start" x="794" y="-363.5" font-family="Helvetica,sans-Serif" font-size="10.00">MayaFlux::Yantra::Operation</text>
<text text-anchor="middle" x="869.5" y="-352.5" font-family="Helvetica,sans-Serif" font-size="10.00">Helper::setup_operation_buffer</text>
</a>
</g>
</g>
<!-- Node14&#45;&gt;Node15 -->
<g id="edge15_Node000014_Node000015" class="edge">
<title>Node14&#45;&gt;Node15</title>
<g id="a_edge15_Node000014_Node000015"><a xlink:title=" ">
<path fill="none" stroke="#63b8ff" d="M726.6,-436.5C734.54,-433.77 742.56,-430.74 750,-427.5 780.41,-414.24 813.1,-395.38 836.42,-381.04"/>
<polygon fill="#63b8ff" stroke="#63b8ff" points="838.54,-383.85 845.19,-375.6 834.85,-377.9 838.54,-383.85"/>
</a>
</g>
</g>
<!-- Node16 -->
<g id="Node000016" class="node">
<title>Node16</title>
<g id="a_Node000016"><a xlink:href="namespaceMayaFlux_1_1Kinesis_1_1Discrete_ac7f402db2f5f9039a9ccbb276a39d30a.html#ac7f402db2f5f9039a9ccbb276a39d30a" target="_top" xlink:title="Sort all channels in&#45;place.">
<polygon fill="white" stroke="#666666" points="935,-299.5 804,-299.5 804,-269.5 935,-269.5 935,-299.5"/>
<text text-anchor="start" x="812" y="-287.5" font-family="Helvetica,sans-Serif" font-size="10.00">MayaFlux::Kinesis::</text>
<text text-anchor="middle" x="869.5" y="-276.5" font-family="Helvetica,sans-Serif" font-size="10.00">Discrete::sort_channels</text>
</a>
</g>
</g>
<!-- Node14&#45;&gt;Node16 -->
<g id="edge16_Node000014_Node000016" class="edge">
<title>Node14&#45;&gt;Node16</title>
<g id="a_edge16_Node000014_Node000016"><a xlink:title=" ">
<path fill="none" stroke="#63b8ff" d="M737.56,-436.48C742.06,-433.94 746.28,-430.97 750,-427.5 781.8,-397.82 758.23,-369.97 786,-336.5 796.64,-323.67 811.3,-313.02 825.31,-304.77"/>
<polygon fill="#63b8ff" stroke="#63b8ff" points="827.36,-307.63 834.37,-299.7 823.94,-301.53 827.36,-307.63"/>
</a>
</g>
</g>
<!-- Node16&#45;&gt;Node6 -->
<g id="edge17_Node000016_Node000006" class="edge">
<title>Node16&#45;&gt;Node6</title>
<g id="a_edge17_Node000016_Node000006"><a xlink:title=" ">
<path fill="none" stroke="#63b8ff" d="M935.1,-284.5C949.29,-284.5 964.33,-284.5 978.55,-284.5"/>
<polygon fill="#63b8ff" stroke="#63b8ff" points="978.73,-288 988.73,-284.5 978.73,-281 978.73,-288"/>
</a>
</g>
</g>
<!-- Node17&#45;&gt;Node5 -->
<g id="edge20_Node000017_Node000005" class="edge">
<title>Node17&#45;&gt;Node5</title>
<g id="a_edge20_Node000017_Node000005"><a xlink:title=" ">
<path fill="none" stroke="#63b8ff" d="M541.7,-284.53C548.42,-287.08 554.96,-290.05 561,-293.5 600.02,-315.82 635.14,-355.18 655.13,-380.27"/>
<polygon fill="#63b8ff" stroke="#63b8ff" points="652.39,-382.46 661.31,-388.19 657.91,-378.15 652.39,-382.46"/>
</a>
</g>
</g>
<!-- Node17&#45;&gt;Node11 -->
<g id="edge19_Node000017_Node000011" class="edge">
<title>Node17&#45;&gt;Node11</title>
<g id="a_edge19_Node000017_Node000011"><a xlink:title=" ">
<path fill="none" stroke="#63b8ff" d="M545.17,-273.18C558.99,-273.87 573.52,-274.59 587.63,-275.29"/>
<polygon fill="#63b8ff" stroke="#63b8ff" points="587.65,-278.79 597.81,-275.79 588,-271.8 587.65,-278.79"/>
</a>
</g>
</g>
<!-- Node17&#45;&gt;Node15 -->
<g id="edge21_Node000017_Node000015" class="edge">
<title>Node17&#45;&gt;Node15</title>
<g id="a_edge21_Node000017_Node000015"><a xlink:title=" ">
<path fill="none" stroke="#63b8ff" d="M545.14,-257.36C615.61,-247.32 715.77,-237.37 750,-255.5 775.16,-268.83 765.52,-288.71 786,-308.5 798.7,-320.78 814.76,-331.68 829.32,-340.3"/>
<polygon fill="#63b8ff" stroke="#63b8ff" points="827.73,-343.42 838.15,-345.36 831.21,-337.35 827.73,-343.42"/>
</a>
</g>
</g>
<!-- Node17&#45;&gt;Node16 -->
<g id="edge22_Node000017_Node000016" class="edge">
<title>Node17&#45;&gt;Node16</title>
<g id="a_edge22_Node000017_Node000016"><a xlink:title=" ">
<path fill="none" stroke="#63b8ff" d="M537.19,-254.37C545.34,-251.77 553.45,-248.82 561,-245.5 578.38,-237.85 578.78,-227.82 597,-222.5 662.27,-203.43 683.97,-206.27 750,-222.5 782.45,-230.48 815.86,-249.07 838.9,-263.83"/>
<polygon fill="#63b8ff" stroke="#63b8ff" points="837.22,-266.92 847.5,-269.47 841.05,-261.06 837.22,-266.92"/>
</a>
</g>
</g>
<!-- Node18&#45;&gt;Node17 -->
<g id="edge24_Node000018_Node000017" class="edge">
<title>Node18&#45;&gt;Node17</title>
<g id="a_edge24_Node000018_Node000017"><a xlink:title=" ">
<path fill="none" stroke="#63b8ff" d="M330.7,-236.56C351.43,-241.49 374.63,-247.02 396.01,-252.11"/>
<polygon fill="#63b8ff" stroke="#63b8ff" points="395.48,-255.58 406.02,-254.5 397.1,-248.78 395.48,-255.58"/>
</a>
</g>
</g>
<!-- Node19 -->
<g id="Node000019" class="node">
<title>Node19</title>
<g id="a_Node000019"><a xlink:href="classMayaFlux_1_1Yantra_1_1StandardSorter_ae15eaee8a080129c10acf51df0510867.html#ae15eaee8a080129c10acf51df0510867" target="_top" xlink:title="Sort data in&#45;place.">
<polygon fill="white" stroke="#666666" points="545,-236.5 395,-236.5 395,-206.5 545,-206.5 545,-236.5"/>
<text text-anchor="start" x="403" y="-224.5" font-family="Helvetica,sans-Serif" font-size="10.00">MayaFlux::Yantra::Standard</text>
<text text-anchor="middle" x="470" y="-213.5" font-family="Helvetica,sans-Serif" font-size="10.00">Sorter::sort_data_in_place</text>
</a>
</g>
</g>
<!-- Node18&#45;&gt;Node19 -->
<g id="edge25_Node000018_Node000019" class="edge">
<title>Node18&#45;&gt;Node19</title>
<g id="a_edge25_Node000018_Node000019"><a xlink:title=" ">
<path fill="none" stroke="#63b8ff" d="M341.67,-221.5C355.67,-221.5 370.4,-221.5 384.68,-221.5"/>
<polygon fill="#63b8ff" stroke="#63b8ff" points="384.98,-225 394.98,-221.5 384.98,-218 384.98,-225"/>
</a>
</g>
</g>
<!-- Node19&#45;&gt;Node5 -->
<g id="edge26_Node000019_Node000005" class="edge">
<title>Node19&#45;&gt;Node5</title>
<g id="a_edge26_Node000019_Node000005"><a xlink:title=" ">
<path fill="none" stroke="#63b8ff" d="M545.35,-236.32C550.9,-238.9 556.19,-241.94 561,-245.5 585.37,-263.57 579.84,-278.48 597,-303.5 615.52,-330.5 638.35,-360.32 654.03,-380.3"/>
<polygon fill="#63b8ff" stroke="#63b8ff" points="651.34,-382.55 660.28,-388.23 656.84,-378.21 651.34,-382.55"/>
</a>
</g>
</g>
<!-- Node20 -->
<g id="Node000020" class="node">
<title>Node20</title>
<g id="a_Node000020"><a xlink:href="namespaceMayaFlux_1_1Yantra_ab5e04174c73268eb0ce8a18f9d746e53.html#ab5e04174c73268eb0ce8a18f9d746e53" target="_top" xlink:title="Universal sort function &#45; handles extraction/conversion internally.">
<polygon fill="white" stroke="#666666" points="739.5,-170.5 607.5,-170.5 607.5,-140.5 739.5,-140.5 739.5,-170.5"/>
<text text-anchor="start" x="615.5" y="-158.5" font-family="Helvetica,sans-Serif" font-size="10.00">MayaFlux::Yantra::sort</text>
<text text-anchor="middle" x="673.5" y="-147.5" font-family="Helvetica,sans-Serif" font-size="10.00">_compute_data_inplace</text>
</a>
</g>
</g>
<!-- Node19&#45;&gt;Node20 -->
<g id="edge27_Node000019_Node000020" class="edge">
<title>Node19&#45;&gt;Node20</title>
<g id="a_edge27_Node000019_Node000020"><a xlink:title=" ">
<path fill="none" stroke="#63b8ff" d="M530.79,-206.45C540.92,-203.65 551.3,-200.61 561,-197.5 567.48,-195.42 596.72,-184.4 623.63,-174.17"/>
<polygon fill="#63b8ff" stroke="#63b8ff" points="624.91,-177.42 633.01,-170.6 622.42,-170.88 624.91,-177.42"/>
</a>
</g>
</g>
<!-- Node20&#45;&gt;Node12 -->
<g id="edge28_Node000020_Node000012" class="edge">
<title>Node20&#45;&gt;Node12</title>
<g id="a_edge28_Node000020_Node000012"><a xlink:title=" ">
<path fill="none" stroke="#63b8ff" d="M739.64,-141.06C756.02,-137.43 773.76,-133.5 790.69,-129.75"/>
<polygon fill="#63b8ff" stroke="#63b8ff" points="791.54,-133.14 800.55,-127.56 790.03,-126.31 791.54,-133.14"/>
</a>
</g>
</g>
<!-- Node20&#45;&gt;Node16 -->
<g id="edge31_Node000020_Node000016" class="edge">
<title>Node20&#45;&gt;Node16</title>
<g id="a_edge31_Node000020_Node000016"><a xlink:title=" ">
<path fill="none" stroke="#63b8ff" d="M725.71,-170.65C734.27,-174.42 742.72,-179 750,-184.5 771.28,-200.57 766.39,-214.42 786,-232.5 799.09,-244.57 815.35,-255.5 829.96,-264.19"/>
<polygon fill="#63b8ff" stroke="#63b8ff" points="828.4,-267.33 838.81,-269.3 831.9,-261.26 828.4,-267.33"/>
</a>
</g>
</g>
<!-- Node21 -->
<g id="Node000021" class="node">
<title>Node21</title>
<g id="a_Node000021"><a xlink:href="structMayaFlux_1_1Yantra_1_1Datum_a9ad1f90d17c3c7eccac742b64652c325.html#a9ad1f90d17c3c7eccac742b64652c325" target="_top" xlink:title="Check if a container reference is associated.">
<polygon fill="white" stroke="#666666" points="939.5,-223.5 799.5,-223.5 799.5,-193.5 939.5,-193.5 939.5,-223.5"/>
<text text-anchor="start" x="807.5" y="-211.5" font-family="Helvetica,sans-Serif" font-size="10.00">MayaFlux::Yantra::Datum</text>
<text text-anchor="middle" x="869.5" y="-200.5" font-family="Helvetica,sans-Serif" font-size="10.00">::has_container</text>
</a>
</g>
</g>
<!-- Node20&#45;&gt;Node21 -->
<g id="edge29_Node000020_Node000021" class="edge">
<title>Node20&#45;&gt;Node21</title>
<g id="a_edge29_Node000020_Node000021"><a xlink:title=" ">
<path fill="none" stroke="#63b8ff" d="M729.57,-170.55C752.61,-176.84 779.56,-184.2 803.56,-190.76"/>
<polygon fill="#63b8ff" stroke="#63b8ff" points="802.72,-194.16 813.29,-193.42 804.56,-187.4 802.72,-194.16"/>
</a>
</g>
</g>
<!-- Node22 -->
<g id="Node000022" class="node">
<title>Node22</title>
<g id="a_Node000022"><a xlink:href="structMayaFlux_1_1Yantra_1_1Datum_aa424632a0bf48cad57dc947c63cf947c.html#aa424632a0bf48cad57dc947c63cf947c" target="_top" xlink:title="Check if processing is needed (for container types)">
<polygon fill="white" stroke="#666666" points="939.5,-175.5 799.5,-175.5 799.5,-145.5 939.5,-145.5 939.5,-175.5"/>
<text text-anchor="start" x="807.5" y="-163.5" font-family="Helvetica,sans-Serif" font-size="10.00">MayaFlux::Yantra::Datum</text>
<text text-anchor="middle" x="869.5" y="-152.5" font-family="Helvetica,sans-Serif" font-size="10.00">::needs_processig</text>
</a>
</g>
</g>
<!-- Node20&#45;&gt;Node22 -->
<g id="edge30_Node000020_Node000022" class="edge">
<title>Node20&#45;&gt;Node22</title>
<g id="a_edge30_Node000020_Node000022"><a xlink:title=" ">
<path fill="none" stroke="#63b8ff" d="M739.64,-157.18C755.5,-157.59 772.64,-158.03 789.08,-158.45"/>
<polygon fill="#63b8ff" stroke="#63b8ff" points="789.13,-161.96 799.21,-158.71 789.31,-154.96 789.13,-161.96"/>
</a>
</g>
</g>
<!-- Node23&#45;&gt;Node5 -->
<g id="edge40_Node000023_Node000005" class="edge">
<title>Node23&#45;&gt;Node5</title>
<g id="a_edge40_Node000023_Node000005"><a xlink:title=" ">
<path fill="none" stroke="#63b8ff" d="M341.69,-358.89C401.21,-362.25 486.78,-368.53 561,-379.5 573.52,-381.35 586.74,-383.77 599.53,-386.37"/>
<polygon fill="#63b8ff" stroke="#63b8ff" points="599.16,-389.87 609.67,-388.48 600.59,-383.01 599.16,-389.87"/>
</a>
</g>
</g>
<!-- Node23&#45;&gt;Node17 -->
<g id="edge41_Node000023_Node000017" class="edge">
<title>Node23&#45;&gt;Node17</title>
<g id="a_edge41_Node000023_Node000017"><a xlink:title=" ">
<path fill="none" stroke="#63b8ff" d="M325.35,-340.5C331.51,-337.92 337.52,-334.93 343,-331.5 362.71,-319.14 359,-305.39 379,-293.5 381.85,-291.81 384.82,-290.23 387.87,-288.76"/>
<polygon fill="#63b8ff" stroke="#63b8ff" points="389.47,-291.88 397.24,-284.68 386.68,-285.46 389.47,-291.88"/>
</a>
</g>
</g>
<!-- Node24 -->
<g id="Node000024" class="node">
<title>Node24</title>
<g id="a_Node000024"><a xlink:href="namespaceMayaFlux_1_1Yantra_a50bfcff81fce3d8535a738866b9e32ba.html#a50bfcff81fce3d8535a738866b9e32ba" target="_top" xlink:title="Generate sort indices for any ComputeData type.">
<polygon fill="white" stroke="#666666" points="748.5,-84.5 598.5,-84.5 598.5,-54.5 748.5,-54.5 748.5,-84.5"/>
<text text-anchor="start" x="606.5" y="-72.5" font-family="Helvetica,sans-Serif" font-size="10.00">MayaFlux::Yantra::generate</text>
<text text-anchor="middle" x="673.5" y="-61.5" font-family="Helvetica,sans-Serif" font-size="10.00">_compute_data_indices</text>
</a>
</g>
</g>
<!-- Node23&#45;&gt;Node24 -->
<g id="edge33_Node000023_Node000024" class="edge">
<title>Node23&#45;&gt;Node24</title>
<g id="a_edge33_Node000023_Node000024"><a xlink:title=" ">
<path fill="none" stroke="#63b8ff" d="M332.68,-340.3C336.48,-337.8 339.98,-334.88 343,-331.5 397.94,-270.01 322.8,-209.83 379,-149.5 432.25,-92.34 521.94,-74.53 588.19,-69.67"/>
<polygon fill="#63b8ff" stroke="#63b8ff" points="588.44,-73.16 598.2,-69.02 587.99,-66.18 588.44,-73.16"/>
</a>
</g>
</g>
<!-- Node24&#45;&gt;Node12 -->
<g id="edge37_Node000024_Node000012" class="edge">
<title>Node24&#45;&gt;Node12</title>
<g id="a_edge37_Node000024_Node000012"><a xlink:title=" ">
<path fill="none" stroke="#63b8ff" d="M742.35,-84.54C758.01,-88.01 774.78,-91.73 790.81,-95.28"/>
<polygon fill="#63b8ff" stroke="#63b8ff" points="790.17,-98.72 800.69,-97.47 791.68,-91.89 790.17,-98.72"/>
</a>
</g>
</g>
<!-- Node24&#45;&gt;Node22 -->
<g id="edge38_Node000024_Node000022" class="edge">
<title>Node24&#45;&gt;Node22</title>
<g id="a_edge38_Node000024_Node000022"><a xlink:title=" ">
<path fill="none" stroke="#63b8ff" d="M695.81,-84.59C717.61,-99.47 752.89,-122.03 786,-136.5 790.46,-138.45 795.13,-140.29 799.88,-142.03"/>
<polygon fill="#63b8ff" stroke="#63b8ff" points="799.1,-145.46 809.69,-145.42 801.39,-138.85 799.1,-145.46"/>
</a>
</g>
</g>
<!-- Node25 -->
<g id="Node000025" class="node">
<title>Node25</title>
<g id="a_Node000025"><a xlink:href="namespaceMayaFlux_1_1Kinesis_1_1Discrete_a58fb6ebc04ea9849db050e4c38478706.html#a58fb6ebc04ea9849db050e4c38478706" target="_top" xlink:title="Per&#45;channel sort indices.">
<polygon fill="white" stroke="#666666" points="935,-41 804,-41 804,0 935,0 935,-41"/>
<text text-anchor="start" x="812" y="-29" font-family="Helvetica,sans-Serif" font-size="10.00">MayaFlux::Kinesis::</text>
<text text-anchor="start" x="812" y="-18" font-family="Helvetica,sans-Serif" font-size="10.00">Discrete::channels_sort</text>
<text text-anchor="middle" x="869.5" y="-7" font-family="Helvetica,sans-Serif" font-size="10.00">_indices</text>
</a>
</g>
</g>
<!-- Node24&#45;&gt;Node25 -->
<g id="edge34_Node000024_Node000025" class="edge">
<title>Node24&#45;&gt;Node25</title>
<g id="a_edge34_Node000024_Node000025"><a xlink:title=" ">
<path fill="none" stroke="#63b8ff" d="M734.02,-54.47C752.89,-49.7 773.99,-44.37 793.78,-39.37"/>
<polygon fill="#63b8ff" stroke="#63b8ff" points="794.85,-42.71 803.69,-36.87 793.13,-35.93 794.85,-42.71"/>
</a>
</g>
</g>
<!-- Node26 -->
<g id="Node000026" class="node">
<title>Node26</title>
<g id="a_Node000026"><a xlink:href="namespaceMayaFlux_1_1Kinesis_1_1Discrete_ac1acd8498376dc3069021b4f97ace051.html#ac1acd8498376dc3069021b4f97ace051" target="_top" xlink:title="Indices that would sort a span in the given direction.">
<polygon fill="white" stroke="#666666" points="1101,-90 989,-90 989,-49 1101,-49 1101,-90"/>
<text text-anchor="start" x="997" y="-78" font-family="Helvetica,sans-Serif" font-size="10.00">MayaFlux::Kinesis::</text>
<text text-anchor="start" x="997" y="-67" font-family="Helvetica,sans-Serif" font-size="10.00">Discrete::span_sort</text>
<text text-anchor="middle" x="1045" y="-56" font-family="Helvetica,sans-Serif" font-size="10.00">_indices</text>
</a>
</g>
</g>
<!-- Node24&#45;&gt;Node26 -->
<g id="edge39_Node000024_Node000026" class="edge">
<title>Node24&#45;&gt;Node26</title>
<g id="a_edge39_Node000024_Node000026"><a xlink:title=" ">
<path fill="none" stroke="#63b8ff" d="M748.83,-69.5C816.14,-69.5 914.35,-69.5 978.7,-69.5"/>
<polygon fill="#63b8ff" stroke="#63b8ff" points="978.73,-73 988.73,-69.5 978.73,-66 978.73,-73"/>
</a>
</g>
</g>
<!-- Node25&#45;&gt;Node26 -->
<g id="edge35_Node000025_Node000026" class="edge">
<title>Node25&#45;&gt;Node26</title>
<g id="a_edge35_Node000025_Node000026"><a xlink:title=" ">
<path fill="none" stroke="#63b8ff" d="M935.1,-38.75C949.43,-42.79 964.62,-47.08 978.96,-51.13"/>
<polygon fill="#63b8ff" stroke="#63b8ff" points="978.16,-54.54 988.73,-53.89 980.06,-47.81 978.16,-54.54"/>
</a>
</g>
</g>
<!-- Node26&#45;&gt;Node7 -->
<g id="edge36_Node000026_Node000007" class="edge">
<title>Node26&#45;&gt;Node7</title>
<g id="a_edge36_Node000026_Node000007"><a xlink:title=" ">
<path fill="none" stroke="#63b8ff" d="M1081.43,-90.04C1110.42,-106.86 1151.22,-130.51 1180.08,-147.25"/>
<polygon fill="#63b8ff" stroke="#63b8ff" points="1178.59,-150.43 1189,-152.42 1182.1,-144.38 1178.59,-150.43"/>
</a>
</g>
</g>
<!-- Node27&#45;&gt;Node17 -->
<g id="edge43_Node000027_Node000017" class="edge">
<title>Node27&#45;&gt;Node17</title>
<g id="a_edge43_Node000027_Node000017"><a xlink:title=" ">
<path fill="none" stroke="#63b8ff" d="M341.67,-293.51C355.8,-290.85 370.69,-288.04 385.1,-285.32"/>
<polygon fill="#63b8ff" stroke="#63b8ff" points="385.81,-288.75 394.98,-283.46 384.51,-281.87 385.81,-288.75"/>
</a>
</g>
</g>
<!-- Node29 -->
<g id="Node000029" class="node">
<title>Node29</title>
<g id="a_Node000029"><a xlink:href="classMayaFlux_1_1Yantra_1_1StandardSorter_ae3e20d978ec259004392586103feac14.html#ae3e20d978ec259004392586103feac14" target="_top" xlink:title="Handle type conversion scenarios.">
<polygon fill="white" stroke="#666666" points="545,-332.5 395,-332.5 395,-302.5 545,-302.5 545,-332.5"/>
<text text-anchor="start" x="403" y="-320.5" font-family="Helvetica,sans-Serif" font-size="10.00">MayaFlux::Yantra::Standard</text>
<text text-anchor="middle" x="470" y="-309.5" font-family="Helvetica,sans-Serif" font-size="10.00">Sorter::convert_and_sort</text>
</a>
</g>
</g>
<!-- Node28&#45;&gt;Node29 -->
<g id="edge45_Node000028_Node000029" class="edge">
<title>Node28&#45;&gt;Node29</title>
<g id="a_edge45_Node000028_Node000029"><a xlink:title=" ">
<path fill="none" stroke="#63b8ff" d="M318.63,-388.39C326.86,-385.63 335.22,-382.63 343,-379.5 373.89,-367.07 407.67,-350.26 432.48,-337.28"/>
<polygon fill="#63b8ff" stroke="#63b8ff" points="434.31,-340.27 441.52,-332.51 431.04,-334.08 434.31,-340.27"/>
</a>
</g>
</g>
<!-- Node30 -->
<g id="Node000030" class="node">
<title>Node30</title>
<g id="a_Node000030"><a xlink:href="classMayaFlux_1_1Yantra_1_1StandardSorter_a1ec28359434d38d74bfd4a6e9cd0fe49.html#a1ec28359434d38d74bfd4a6e9cd0fe49" target="_top" xlink:title="Partial sorting implementation.">
<polygon fill="white" stroke="#666666" points="545,-418.5 395,-418.5 395,-388.5 545,-388.5 545,-418.5"/>
<text text-anchor="start" x="403" y="-406.5" font-family="Helvetica,sans-Serif" font-size="10.00">MayaFlux::Yantra::Standard</text>
<text text-anchor="middle" x="470" y="-395.5" font-family="Helvetica,sans-Serif" font-size="10.00">Sorter::sort_data_partial</text>
</a>
</g>
</g>
<!-- Node28&#45;&gt;Node30 -->
<g id="edge50_Node000028_Node000030" class="edge">
<title>Node28&#45;&gt;Node30</title>
<g id="a_edge50_Node000028_Node000030"><a xlink:title=" ">
<path fill="none" stroke="#63b8ff" d="M341.67,-403.5C355.67,-403.5 370.4,-403.5 384.68,-403.5"/>
<polygon fill="#63b8ff" stroke="#63b8ff" points="384.98,-407 394.98,-403.5 384.98,-400 384.98,-407"/>
</a>
</g>
</g>
<!-- Node29&#45;&gt;Node5 -->
<g id="edge47_Node000029_Node000005" class="edge">
<title>Node29&#45;&gt;Node5</title>
<g id="a_edge47_Node000029_Node000005"><a xlink:title=" ">
<path fill="none" stroke="#63b8ff" d="M527.93,-332.51C539.19,-336.4 550.7,-341.05 561,-346.5 578.92,-355.97 579.35,-364.54 597,-374.5 603.39,-378.11 610.32,-381.45 617.29,-384.48"/>
<polygon fill="#63b8ff" stroke="#63b8ff" points="616.22,-387.83 626.79,-388.43 618.9,-381.36 616.22,-387.83"/>
</a>
</g>
</g>
<!-- Node29&#45;&gt;Node11 -->
<g id="edge46_Node000029_Node000011" class="edge">
<title>Node29&#45;&gt;Node11</title>
<g id="a_edge46_Node000029_Node000011"><a xlink:title=" ">
<path fill="none" stroke="#63b8ff" d="M545.17,-303.51C558.99,-300.91 573.52,-298.17 587.63,-295.51"/>
<polygon fill="#63b8ff" stroke="#63b8ff" points="588.63,-298.88 597.81,-293.59 587.34,-292 588.63,-298.88"/>
</a>
</g>
</g>
<!-- Node29&#45;&gt;Node15 -->
<g id="edge48_Node000029_Node000015" class="edge">
<title>Node29&#45;&gt;Node15</title>
<g id="a_edge48_Node000029_Node000015"><a xlink:title=" ">
<path fill="none" stroke="#63b8ff" d="M545.3,-325.54C610.52,-332.59 705.65,-342.88 775.82,-350.47"/>
<polygon fill="#63b8ff" stroke="#63b8ff" points="775.67,-353.98 785.99,-351.57 776.42,-347.02 775.67,-353.98"/>
</a>
</g>
</g>
<!-- Node29&#45;&gt;Node16 -->
<g id="edge49_Node000029_Node000016" class="edge">
<title>Node29&#45;&gt;Node16</title>
<g id="a_edge49_Node000029_Node000016"><a xlink:title=" ">
<path fill="none" stroke="#63b8ff" d="M545.18,-315.97C601.5,-314.28 680.78,-310.76 750,-303.5 764.23,-302.01 779.35,-299.95 793.86,-297.73"/>
<polygon fill="#63b8ff" stroke="#63b8ff" points="794.45,-301.18 803.78,-296.18 793.36,-294.27 794.45,-301.18"/>
</a>
</g>
</g>
<!-- Node30&#45;&gt;Node5 -->
<g id="edge51_Node000030_Node000005" class="edge">
<title>Node30&#45;&gt;Node5</title>
<g id="a_edge51_Node000030_Node000005"><a xlink:title=" ">
<path fill="none" stroke="#63b8ff" d="M545.17,-403.5C558.59,-403.5 572.68,-403.5 586.4,-403.5"/>
<polygon fill="#63b8ff" stroke="#63b8ff" points="586.8,-407 596.8,-403.5 586.8,-400 586.8,-407"/>
</a>
</g>
</g>
<!-- Node30&#45;&gt;Node14 -->
<g id="edge52_Node000030_Node000014" class="edge">
<title>Node30&#45;&gt;Node14</title>
<g id="a_edge52_Node000030_Node000014"><a xlink:title=" ">
<path fill="none" stroke="#63b8ff" d="M534.2,-418.56C554.93,-423.49 578.13,-429.02 599.51,-434.11"/>
<polygon fill="#63b8ff" stroke="#63b8ff" points="598.98,-437.58 609.52,-436.5 600.6,-430.78 598.98,-437.58"/>
</a>
</g>
</g>
</g>
</svg>
