<?xml version="1.0" encoding="UTF-8" standalone="no"?>
<!DOCTYPE svg PUBLIC "-//W3C//DTD SVG 1.1//EN"
 "http://www.w3.org/Graphics/SVG/1.1/DTD/svg11.dtd">
<!-- Generated by graphviz version 2.43.0 (0)
 -->
<!-- Title: MayaFlux::Core::BackendResourceManager::transition_image_layout Pages: 1 -->
<svg width="840pt" height="157pt"
 viewBox="0.00 0.00 840.00 156.50" xmlns="http://www.w3.org/2000/svg" xmlns:xlink="http://www.w3.org/1999/xlink">
<g id="graph0" class="graph" transform="scale(1 1) rotate(0) translate(4 152.5)">
<title>MayaFlux::Core::BackendResourceManager::transition_image_layout</title>
<!-- Node1 -->
<g id="Node000001" class="node">
<title>Node1</title>
<g id="a_Node000001"><a xlink:title="Transition image layout using a pipeline barrier.">
<polygon fill="#999999" stroke="#666666" points="185,-84 0,-84 0,-54 185,-54 185,-84"/>
<text text-anchor="start" x="8" y="-72" font-family="Helvetica,sans-Serif" font-size="10.00">MayaFlux::Core::BackendResource</text>
<text text-anchor="middle" x="92.5" y="-61" font-family="Helvetica,sans-Serif" font-size="10.00">Manager::transition_image_layout</text>
</a>
</g>
</g>
<!-- Node2 -->
<g id="Node000002" class="node">
<title>Node2</title>
<g id="a_Node000002"><a xlink:href="classMayaFlux_1_1Core_1_1BackendResourceManager_a5dcf25547288ef33225a71929a05c358.html#a5dcf25547288ef33225a71929a05c358" target="_top" xlink:title="Execute immediate command recording for buffer operations.">
<polygon fill="white" stroke="#666666" points="406,-89.5 221,-89.5 221,-48.5 406,-48.5 406,-89.5"/>
<text text-anchor="start" x="229" y="-77.5" font-family="Helvetica,sans-Serif" font-size="10.00">MayaFlux::Core::BackendResource</text>
<text text-anchor="start" x="229" y="-66.5" font-family="Helvetica,sans-Serif" font-size="10.00">Manager::execute_immediate</text>
<text text-anchor="middle" x="313.5" y="-55.5" font-family="Helvetica,sans-Serif" font-size="10.00">_commands</text>
</a>
</g>
</g>
<!-- Node1&#45;&gt;Node2 -->
<g id="edge1_Node000001_Node000002" class="edge">
<title>Node1&#45;&gt;Node2</title>
<g id="a_edge1_Node000001_Node000002"><a xlink:title=" ">
<path fill="none" stroke="#63b8ff" d="M185.11,-69C193.62,-69 202.27,-69 210.86,-69"/>
<polygon fill="#63b8ff" stroke="#63b8ff" points="210.91,-72.5 220.91,-69 210.91,-65.5 210.91,-72.5"/>
</a>
</g>
</g>
<!-- Node3 -->
<g id="Node000003" class="node">
<title>Node3</title>
<g id="a_Node000003"><a xlink:href="classMayaFlux_1_1Core_1_1VKCommandManager_a8e859b77baae66a4cad3578d2a863f76.html#a8e859b77baae66a4cad3578d2a863f76" target="_top" xlink:title="Begin single&#45;time command (for transfers, etc.)">
<polygon fill="white" stroke="#666666" points="604,-148.5 442,-148.5 442,-107.5 604,-107.5 604,-148.5"/>
<text text-anchor="start" x="450" y="-136.5" font-family="Helvetica,sans-Serif" font-size="10.00">MayaFlux::Core::VKCommand</text>
<text text-anchor="start" x="450" y="-125.5" font-family="Helvetica,sans-Serif" font-size="10.00">Manager::begin_single_time</text>
<text text-anchor="middle" x="523" y="-114.5" font-family="Helvetica,sans-Serif" font-size="10.00">_commands</text>
</a>
</g>
</g>
<!-- Node2&#45;&gt;Node3 -->
<g id="edge2_Node000002_Node000003" class="edge">
<title>Node2&#45;&gt;Node3</title>
<g id="a_edge2_Node000002_Node000003"><a xlink:title=" ">
<path fill="none" stroke="#63b8ff" d="M386.78,-89.55C403.95,-94.43 422.4,-99.68 439.97,-104.67"/>
<polygon fill="#63b8ff" stroke="#63b8ff" points="439.05,-108.05 449.63,-107.42 440.96,-101.32 439.05,-108.05"/>
</a>
</g>
</g>
<!-- Node5 -->
<g id="Node000005" class="node">
<title>Node5</title>
<g id="a_Node000005"><a xlink:href="classMayaFlux_1_1Core_1_1VKCommandManager_a37f459a66acc77d0b833ab5a993f8253.html#a37f459a66acc77d0b833ab5a993f8253" target="_top" xlink:title="End and submit single&#45;time command.">
<polygon fill="white" stroke="#666666" points="604,-89.5 442,-89.5 442,-48.5 604,-48.5 604,-89.5"/>
<text text-anchor="start" x="450" y="-77.5" font-family="Helvetica,sans-Serif" font-size="10.00">MayaFlux::Core::VKCommand</text>
<text text-anchor="start" x="450" y="-66.5" font-family="Helvetica,sans-Serif" font-size="10.00">Manager::end_single_time</text>
<text text-anchor="middle" x="523" y="-55.5" font-family="Helvetica,sans-Serif" font-size="10.00">_commands</text>
</a>
</g>
</g>
<!-- Node2&#45;&gt;Node5 -->
<g id="edge4_Node000002_Node000005" class="edge">
<title>Node2&#45;&gt;Node5</title>
<g id="a_edge4_Node000002_Node000005"><a xlink:title=" ">
<path fill="none" stroke="#63b8ff" d="M406.12,-69C414.61,-69 423.21,-69 431.69,-69"/>
<polygon fill="#63b8ff" stroke="#63b8ff" points="431.95,-72.5 441.95,-69 431.95,-65.5 431.95,-72.5"/>
</a>
</g>
</g>
<!-- Node7 -->
<g id="Node000007" class="node">
<title>Node7</title>
<g id="a_Node000007"><a xlink:href="classMayaFlux_1_1Core_1_1VKContext_a87b4589aa8858027f09e7370552b4d50.html#a87b4589aa8858027f09e7370552b4d50" target="_top" xlink:title="Get graphics queue.">
<polygon fill="white" stroke="#666666" points="598,-30 448,-30 448,0 598,0 598,-30"/>
<text text-anchor="start" x="456" y="-18" font-family="Helvetica,sans-Serif" font-size="10.00">MayaFlux::Core::VKContext</text>
<text text-anchor="middle" x="523" y="-7" font-family="Helvetica,sans-Serif" font-size="10.00">::get_graphics_queue</text>
</a>
</g>
</g>
<!-- Node2&#45;&gt;Node7 -->
<g id="edge6_Node000002_Node000007" class="edge">
<title>Node2&#45;&gt;Node7</title>
<g id="a_edge6_Node000002_Node000007"><a xlink:title=" ">
<path fill="none" stroke="#63b8ff" d="M393.54,-48.43C413.62,-43.2 435.02,-37.64 454.48,-32.57"/>
<polygon fill="#63b8ff" stroke="#63b8ff" points="455.36,-35.96 464.15,-30.05 453.59,-29.19 455.36,-35.96"/>
</a>
</g>
</g>
<!-- Node4 -->
<g id="Node000004" class="node">
<title>Node4</title>
<g id="a_Node000004"><a xlink:href="classMayaFlux_1_1Core_1_1VKCommandManager_ab25f2104b7f013fca0c7876ade0632b5.html#ab25f2104b7f013fca0c7876ade0632b5" target="_top" xlink:title="Allocate a command buffer with specified level.">
<polygon fill="white" stroke="#666666" points="832,-143 640,-143 640,-113 832,-113 832,-143"/>
<text text-anchor="start" x="648" y="-131" font-family="Helvetica,sans-Serif" font-size="10.00">MayaFlux::Core::VKCommand</text>
<text text-anchor="middle" x="736" y="-120" font-family="Helvetica,sans-Serif" font-size="10.00">Manager::allocate_command_buffer</text>
</a>
</g>
</g>
<!-- Node3&#45;&gt;Node4 -->
<g id="edge3_Node000003_Node000004" class="edge">
<title>Node3&#45;&gt;Node4</title>
<g id="a_edge3_Node000003_Node000004"><a xlink:title=" ">
<path fill="none" stroke="#63b8ff" d="M604.07,-128C612.45,-128 621.06,-128 629.66,-128"/>
<polygon fill="#63b8ff" stroke="#63b8ff" points="629.75,-131.5 639.75,-128 629.75,-124.5 629.75,-131.5"/>
</a>
</g>
</g>
<!-- Node6 -->
<g id="Node000006" class="node">
<title>Node6</title>
<g id="a_Node000006"><a xlink:href="classMayaFlux_1_1Core_1_1VKCommandManager_a59f7b69e5c3f53d77c1c5e8f2e206d89.html#a59f7b69e5c3f53d77c1c5e8f2e206d89" target="_top" xlink:title="Free a command buffer back to the pool.">
<polygon fill="white" stroke="#666666" points="822.5,-84 649.5,-84 649.5,-54 822.5,-54 822.5,-84"/>
<text text-anchor="start" x="657.5" y="-72" font-family="Helvetica,sans-Serif" font-size="10.00">MayaFlux::Core::VKCommand</text>
<text text-anchor="middle" x="736" y="-61" font-family="Helvetica,sans-Serif" font-size="10.00">Manager::free_command_buffer</text>
</a>
</g>
</g>
<!-- Node5&#45;&gt;Node6 -->
<g id="edge5_Node000005_Node000006" class="edge">
<title>Node5&#45;&gt;Node6</title>
<g id="a_edge5_Node000005_Node000006"><a xlink:title=" ">
<path fill="none" stroke="#63b8ff" d="M604.07,-69C615.52,-69 627.4,-69 639.12,-69"/>
<polygon fill="#63b8ff" stroke="#63b8ff" points="639.36,-72.5 649.36,-69 639.36,-65.5 639.36,-72.5"/>
</a>
</g>
</g>
<!-- Node8 -->
<g id="Node000008" class="node">
<title>Node8</title>
<g id="a_Node000008"><a xlink:href="classMayaFlux_1_1Core_1_1VKDevice_af1941d43ae76316ef044a61450e7aa1c.html#af1941d43ae76316ef044a61450e7aa1c" target="_top" xlink:title="Get graphics queue.">
<polygon fill="white" stroke="#666666" points="809,-30 663,-30 663,0 809,0 809,-30"/>
<text text-anchor="start" x="671" y="-18" font-family="Helvetica,sans-Serif" font-size="10.00">MayaFlux::Core::VKDevice</text>
<text text-anchor="middle" x="736" y="-7" font-family="Helvetica,sans-Serif" font-size="10.00">::get_graphics_queue</text>
</a>
</g>
</g>
<!-- Node7&#45;&gt;Node8 -->
<g id="edge7_Node000007_Node000008" class="edge">
<title>Node7&#45;&gt;Node8</title>
<g id="a_edge7_Node000007_Node000008"><a xlink:title=" ">
<path fill="none" stroke="#63b8ff" d="M598.09,-15C615.75,-15 634.69,-15 652.68,-15"/>
<polygon fill="#63b8ff" stroke="#63b8ff" points="652.86,-18.5 662.86,-15 652.86,-11.5 652.86,-18.5"/>
</a>
</g>
</g>
</g>
</svg>
