<?xml version="1.0" encoding="UTF-8" standalone="no"?>
<!DOCTYPE svg PUBLIC "-//W3C//DTD SVG 1.1//EN"
 "http://www.w3.org/Graphics/SVG/1.1/DTD/svg11.dtd">
<!-- Generated by graphviz version 2.43.0 (0)
 -->
<!-- Title: MayaFlux::Nodes::Network::OperatorChain Pages: 1 -->
<svg width="151pt" height="218pt"
 viewBox="0.00 0.00 151.00 218.00" xmlns="http://www.w3.org/2000/svg" xmlns:xlink="http://www.w3.org/1999/xlink">
<g id="graph0" class="graph" transform="scale(1 1) rotate(0) translate(4 214)">
<title>MayaFlux::Nodes::Network::OperatorChain</title>
<!-- Node1 -->
<g id="Node000001" class="node">
<title>Node1</title>
<g id="a_Node000001"><a xlink:title="Ordered sequence of secondary operators applied after the primary operator.">
<polygon fill="#999999" stroke="transparent" points="143,-210 0,-210 0,0 143,0 143,-210"/>
<text text-anchor="start" x="5.5" y="-198" font-family="Helvetica,sans-Serif" font-size="10.00">MayaFlux::Nodes::Network</text>
<text text-anchor="start" x="33.5" y="-187" font-family="Helvetica,sans-Serif" font-size="10.00">::OperatorChain</text>
<text text-anchor="start" x="17.5" y="-172" font-family="Helvetica,sans-Serif" font-size="10.00">&#45;</text>
<text text-anchor="start" x="38.5" y="-172" font-family="Helvetica,sans-Serif" font-size="10.00">m_operators</text>
<text text-anchor="start" x="15" y="-157" font-family="Helvetica,sans-Serif" font-size="10.00">+</text>
<text text-anchor="start" x="38.5" y="-157" font-family="Helvetica,sans-Serif" font-size="10.00">add()</text>
<text text-anchor="start" x="15" y="-142" font-family="Helvetica,sans-Serif" font-size="10.00">+</text>
<text text-anchor="start" x="38.5" y="-142" font-family="Helvetica,sans-Serif" font-size="10.00">clear()</text>
<text text-anchor="start" x="15" y="-127" font-family="Helvetica,sans-Serif" font-size="10.00">+</text>
<text text-anchor="start" x="38.5" y="-127" font-family="Helvetica,sans-Serif" font-size="10.00">emplace()</text>
<text text-anchor="start" x="15" y="-112" font-family="Helvetica,sans-Serif" font-size="10.00">+</text>
<text text-anchor="start" x="38.5" y="-112" font-family="Helvetica,sans-Serif" font-size="10.00">empty()</text>
<text text-anchor="start" x="15" y="-97" font-family="Helvetica,sans-Serif" font-size="10.00">+</text>
<text text-anchor="start" x="38.5" y="-97" font-family="Helvetica,sans-Serif" font-size="10.00">find()</text>
<text text-anchor="start" x="15" y="-82" font-family="Helvetica,sans-Serif" font-size="10.00">+</text>
<text text-anchor="start" x="38.5" y="-82" font-family="Helvetica,sans-Serif" font-size="10.00">get()</text>
<text text-anchor="start" x="15" y="-67" font-family="Helvetica,sans-Serif" font-size="10.00">+</text>
<text text-anchor="start" x="38.5" y="-67" font-family="Helvetica,sans-Serif" font-size="10.00">operator=()</text>
<text text-anchor="start" x="15" y="-52" font-family="Helvetica,sans-Serif" font-size="10.00">+</text>
<text text-anchor="start" x="38.5" y="-52" font-family="Helvetica,sans-Serif" font-size="10.00">operator=()</text>
<text text-anchor="start" x="15" y="-37" font-family="Helvetica,sans-Serif" font-size="10.00">+</text>
<text text-anchor="start" x="38.5" y="-37" font-family="Helvetica,sans-Serif" font-size="10.00">OperatorChain()</text>
<text text-anchor="start" x="15" y="-22" font-family="Helvetica,sans-Serif" font-size="10.00">+</text>
<text text-anchor="start" x="38.5" y="-22" font-family="Helvetica,sans-Serif" font-size="10.00">OperatorChain()</text>
<text text-anchor="start" x="38.5" y="-7" font-family="Helvetica,sans-Serif" font-size="10.00">and 6 more...</text>
<polygon fill="#666666" stroke="#666666" points="0.5,-182 0.5,-182 143.5,-182 143.5,-182 0.5,-182"/>
<polygon fill="#666666" stroke="#666666" points="0.5,-167 0.5,-167 36.5,-167 36.5,-167 0.5,-167"/>
<polygon fill="#666666" stroke="#666666" points="36.5,-167 36.5,-167 143.5,-167 143.5,-167 36.5,-167"/>
<polygon fill="none" stroke="#666666" points="0,0 0,-210 143,-210 143,0 0,0"/>
</a>
</g>
</g>
</g>
</svg>
