<?xml version="1.0" encoding="UTF-8" standalone="no"?>
<!DOCTYPE svg PUBLIC "-//W3C//DTD SVG 1.1//EN"
 "http://www.w3.org/Graphics/SVG/1.1/DTD/svg11.dtd">
<!-- Generated by graphviz version 2.43.0 (0)
 -->
<!-- Title: MayaFlux::Yantra::TemporalTransformer::TemporalTransformer Pages: 1 -->
<svg width="780pt" height="49pt"
 viewBox="0.00 0.00 780.00 49.00" xmlns="http://www.w3.org/2000/svg" xmlns:xlink="http://www.w3.org/1999/xlink">
<g id="graph0" class="graph" transform="scale(1 1) rotate(0) translate(4 45)">
<title>MayaFlux::Yantra::TemporalTransformer::TemporalTransformer</title>
<!-- Node1 -->
<g id="Node000001" class="node">
<title>Node1</title>
<g id="a_Node000001"><a xlink:title="Constructs a TemporalTransformer with specified operation.">
<polygon fill="#999999" stroke="#666666" points="185,-35.5 0,-35.5 0,-5.5 185,-5.5 185,-35.5"/>
<text text-anchor="start" x="8" y="-23.5" font-family="Helvetica,sans-Serif" font-size="10.00">MayaFlux::Yantra::Temporal</text>
<text text-anchor="middle" x="92.5" y="-12.5" font-family="Helvetica,sans-Serif" font-size="10.00">Transformer::TemporalTransformer</text>
</a>
</g>
</g>
<!-- Node2 -->
<g id="Node000002" class="node">
<title>Node2</title>
<g id="a_Node000002"><a xlink:href="classMayaFlux_1_1Yantra_1_1TemporalTransformer_af000b192db7f38c8afc54bb790e723e1.html#af000b192db7f38c8afc54bb790e723e1" target="_top" xlink:title="Sets default parameter values for all temporal operations.">
<polygon fill="white" stroke="#666666" points="373,-41 221,-41 221,0 373,0 373,-41"/>
<text text-anchor="start" x="229" y="-29" font-family="Helvetica,sans-Serif" font-size="10.00">MayaFlux::Yantra::Temporal</text>
<text text-anchor="start" x="229" y="-18" font-family="Helvetica,sans-Serif" font-size="10.00">Transformer::set_default</text>
<text text-anchor="middle" x="297" y="-7" font-family="Helvetica,sans-Serif" font-size="10.00">_parameters</text>
</a>
</g>
</g>
<!-- Node1&#45;&gt;Node2 -->
<g id="edge1_Node000001_Node000002" class="edge">
<title>Node1&#45;&gt;Node2</title>
<g id="a_edge1_Node000001_Node000002"><a xlink:title=" ">
<path fill="none" stroke="#63b8ff" d="M185.27,-20.5C193.75,-20.5 202.32,-20.5 210.74,-20.5"/>
<polygon fill="#63b8ff" stroke="#63b8ff" points="210.92,-24 220.92,-20.5 210.92,-17 210.92,-24"/>
</a>
</g>
</g>
<!-- Node3 -->
<g id="Node000003" class="node">
<title>Node3</title>
<g id="a_Node000003"><a xlink:href="classMayaFlux_1_1Yantra_1_1UniversalTransformer_aa787bdc8f1e1eb6da36f4ae9d000f623.html#aa787bdc8f1e1eb6da36f4ae9d000f623" target="_top" xlink:title="Type&#45;safe parameter management with transformation&#45;specific defaults.">
<polygon fill="white" stroke="#666666" points="562,-35.5 409,-35.5 409,-5.5 562,-5.5 562,-35.5"/>
<text text-anchor="start" x="417" y="-23.5" font-family="Helvetica,sans-Serif" font-size="10.00">MayaFlux::Yantra::Universal</text>
<text text-anchor="middle" x="485.5" y="-12.5" font-family="Helvetica,sans-Serif" font-size="10.00">Transformer::set_parameter</text>
</a>
</g>
</g>
<!-- Node2&#45;&gt;Node3 -->
<g id="edge2_Node000002_Node000003" class="edge">
<title>Node2&#45;&gt;Node3</title>
<g id="a_edge2_Node000002_Node000003"><a xlink:title=" ">
<path fill="none" stroke="#63b8ff" d="M373.05,-20.5C381.56,-20.5 390.28,-20.5 398.92,-20.5"/>
<polygon fill="#63b8ff" stroke="#63b8ff" points="399,-24 409,-20.5 399,-17 399,-24"/>
</a>
</g>
</g>
<!-- Node4 -->
<g id="Node000004" class="node">
<title>Node4</title>
<g id="a_Node000004"><a xlink:href="classMayaFlux_1_1Yantra_1_1UniversalTransformer_ae86a6743c591b4585419dbbd8698c4b4.html#ae86a6743c591b4585419dbbd8698c4b4" target="_top" xlink:title="Transformation&#45;specific parameter handling (override for custom parameters)">
<polygon fill="white" stroke="#666666" points="772,-41 598,-41 598,0 772,0 772,-41"/>
<text text-anchor="start" x="606" y="-29" font-family="Helvetica,sans-Serif" font-size="10.00">MayaFlux::Yantra::Universal</text>
<text text-anchor="start" x="606" y="-18" font-family="Helvetica,sans-Serif" font-size="10.00">Transformer::set_transformation</text>
<text text-anchor="middle" x="685" y="-7" font-family="Helvetica,sans-Serif" font-size="10.00">_parameter</text>
</a>
</g>
</g>
<!-- Node3&#45;&gt;Node4 -->
<g id="edge3_Node000003_Node000004" class="edge">
<title>Node3&#45;&gt;Node4</title>
<g id="a_edge3_Node000003_Node000004"><a xlink:title=" ">
<path fill="none" stroke="#63b8ff" d="M562.01,-20.5C570.46,-20.5 579.16,-20.5 587.83,-20.5"/>
<polygon fill="#63b8ff" stroke="#63b8ff" points="587.97,-24 597.97,-20.5 587.97,-17 587.97,-24"/>
</a>
</g>
</g>
</g>
</svg>
