<?xml version="1.0" encoding="UTF-8" standalone="no"?>
<!DOCTYPE svg PUBLIC "-//W3C//DTD SVG 1.1//EN"
 "http://www.w3.org/Graphics/SVG/1.1/DTD/svg11.dtd">
<!-- Generated by graphviz version 2.43.0 (0)
 -->
<!-- Title: MayaFlux::Core::VKSwapchain::cleanup_swapchain Pages: 1 -->
<svg width="575pt" height="107pt"
 viewBox="0.00 0.00 575.00 107.00" xmlns="http://www.w3.org/2000/svg" xmlns:xlink="http://www.w3.org/1999/xlink">
<g id="graph0" class="graph" transform="scale(1 1) rotate(0) translate(4 103)">
<title>MayaFlux::Core::VKSwapchain::cleanup_swapchain</title>
<!-- Node1 -->
<g id="Node000001" class="node">
<title>Node1</title>
<g id="a_Node000001"><a xlink:title="Cleanup old swapchain during recreation.">
<polygon fill="#999999" stroke="#666666" points="567,-51 402,-51 402,-21 567,-21 567,-51"/>
<text text-anchor="start" x="410" y="-39" font-family="Helvetica,sans-Serif" font-size="10.00">MayaFlux::Core::VKSwapchain</text>
<text text-anchor="middle" x="484.5" y="-28" font-family="Helvetica,sans-Serif" font-size="10.00">::cleanup_swapchain</text>
</a>
</g>
</g>
<!-- Node2 -->
<g id="Node000002" class="node">
<title>Node2</title>
<g id="a_Node000002"><a xlink:href="classMayaFlux_1_1Core_1_1VKSwapchain_a81b9b3f6372e41b61f22e85927ff06e3.html#a81b9b3f6372e41b61f22e85927ff06e3" target="_top" xlink:title="Cleanup swapchain resources.">
<polygon fill="white" stroke="#666666" points="366,-99 201,-99 201,-69 366,-69 366,-99"/>
<text text-anchor="start" x="209" y="-87" font-family="Helvetica,sans-Serif" font-size="10.00">MayaFlux::Core::VKSwapchain</text>
<text text-anchor="middle" x="283.5" y="-76" font-family="Helvetica,sans-Serif" font-size="10.00">::cleanup</text>
</a>
</g>
</g>
<!-- Node1&#45;&gt;Node2 -->
<g id="edge1_Node000001_Node000002" class="edge">
<title>Node1&#45;&gt;Node2</title>
<g id="a_edge1_Node000001_Node000002"><a xlink:title=" ">
<path fill="none" stroke="#63b8ff" d="M411.19,-53.44C390.05,-58.54 367.15,-64.07 346.7,-69"/>
<polygon fill="#63b8ff" stroke="#63b8ff" points="412.18,-56.8 421.08,-51.06 410.54,-50 412.18,-56.8"/>
</a>
</g>
</g>
<!-- Node4 -->
<g id="Node000004" class="node">
<title>Node4</title>
<g id="a_Node000004"><a xlink:href="classMayaFlux_1_1Core_1_1VKSwapchain_ae4e56dd203c0a1860f59d00e0d50604f.html#ae4e56dd203c0a1860f59d00e0d50604f" target="_top" xlink:title="Create swapchain for the given surface using VKContext.">
<polygon fill="white" stroke="#666666" points="366,-51 201,-51 201,-21 366,-21 366,-51"/>
<text text-anchor="start" x="209" y="-39" font-family="Helvetica,sans-Serif" font-size="10.00">MayaFlux::Core::VKSwapchain</text>
<text text-anchor="middle" x="283.5" y="-28" font-family="Helvetica,sans-Serif" font-size="10.00">::create</text>
</a>
</g>
</g>
<!-- Node1&#45;&gt;Node4 -->
<g id="edge3_Node000001_Node000004" class="edge">
<title>Node1&#45;&gt;Node4</title>
<g id="a_edge3_Node000001_Node000004"><a xlink:title=" ">
<path fill="none" stroke="#63b8ff" d="M391.96,-36C383.37,-36 374.7,-36 366.21,-36"/>
<polygon fill="#63b8ff" stroke="#63b8ff" points="391.98,-39.5 401.98,-36 391.98,-32.5 391.98,-39.5"/>
</a>
</g>
</g>
<!-- Node5 -->
<g id="Node000005" class="node">
<title>Node5</title>
<g id="a_Node000005"><a xlink:href="classMayaFlux_1_1Core_1_1VKSwapchain_a77fe883ab4d94277b8d68aac94c9d76c.html#a77fe883ab4d94277b8d68aac94c9d76c" target="_top" xlink:title="Recreate swapchain (for window resize)">
<polygon fill="white" stroke="#666666" points="165,-30 0,-30 0,0 165,0 165,-30"/>
<text text-anchor="start" x="8" y="-18" font-family="Helvetica,sans-Serif" font-size="10.00">MayaFlux::Core::VKSwapchain</text>
<text text-anchor="middle" x="82.5" y="-7" font-family="Helvetica,sans-Serif" font-size="10.00">::recreate</text>
</a>
</g>
</g>
<!-- Node1&#45;&gt;Node5 -->
<g id="edge5_Node000001_Node000005" class="edge">
<title>Node1&#45;&gt;Node5</title>
<g id="a_edge5_Node000001_Node000005"><a xlink:title=" ">
<path fill="none" stroke="#63b8ff" d="M411.46,-18.9C396.51,-16.03 380.81,-13.5 366,-12 298.54,-5.18 221.55,-6.6 165,-9.35"/>
<polygon fill="#63b8ff" stroke="#63b8ff" points="411.17,-22.41 421.66,-20.94 412.54,-15.55 411.17,-22.41"/>
</a>
</g>
</g>
<!-- Node3 -->
<g id="Node000003" class="node">
<title>Node3</title>
<g id="a_Node000003"><a xlink:href="classMayaFlux_1_1Core_1_1VKSwapchain_ac71013f9fa55c4dca07057a872329562.html#ac71013f9fa55c4dca07057a872329562" target="_top" xlink:title=" ">
<polygon fill="white" stroke="#666666" points="165,-99 0,-99 0,-69 165,-69 165,-99"/>
<text text-anchor="start" x="8" y="-87" font-family="Helvetica,sans-Serif" font-size="10.00">MayaFlux::Core::VKSwapchain</text>
<text text-anchor="middle" x="82.5" y="-76" font-family="Helvetica,sans-Serif" font-size="10.00">::~VKSwapchain</text>
</a>
</g>
</g>
<!-- Node2&#45;&gt;Node3 -->
<g id="edge2_Node000002_Node000003" class="edge">
<title>Node2&#45;&gt;Node3</title>
<g id="a_edge2_Node000002_Node000003"><a xlink:title=" ">
<path fill="none" stroke="#63b8ff" d="M190.96,-84C182.37,-84 173.7,-84 165.21,-84"/>
<polygon fill="#63b8ff" stroke="#63b8ff" points="190.98,-87.5 200.98,-84 190.98,-80.5 190.98,-87.5"/>
</a>
</g>
</g>
<!-- Node4&#45;&gt;Node5 -->
<g id="edge4_Node000004_Node000005" class="edge">
<title>Node4&#45;&gt;Node5</title>
<g id="a_edge4_Node000004_Node000005"><a xlink:title=" ">
<path fill="none" stroke="#63b8ff" d="M190.96,-26.34C182.37,-25.43 173.7,-24.52 165.21,-23.62"/>
<polygon fill="#63b8ff" stroke="#63b8ff" points="190.67,-29.83 200.98,-27.4 191.41,-22.87 190.67,-29.83"/>
</a>
</g>
</g>
</g>
</svg>
