<?xml version="1.0" encoding="UTF-8" standalone="no"?>
<!DOCTYPE svg PUBLIC "-//W3C//DTD SVG 1.1//EN"
 "http://www.w3.org/Graphics/SVG/1.1/DTD/svg11.dtd">
<!-- Generated by graphviz version 2.43.0 (0)
 -->
<!-- Title: MayaFlux::IO::VideoFileReader::seek Pages: 1 -->
<svg width="1126pt" height="248pt"
 viewBox="0.00 0.00 1126.00 247.50" xmlns="http://www.w3.org/2000/svg" xmlns:xlink="http://www.w3.org/1999/xlink">
<g id="graph0" class="graph" transform="scale(1 1) rotate(0) translate(4 243.5)">
<title>MayaFlux::IO::VideoFileReader::seek</title>
<!-- Node1 -->
<g id="Node000001" class="node">
<title>Node1</title>
<g id="a_Node000001"><a xlink:title="Seek to a specific position in the file.">
<polygon fill="#999999" stroke="#666666" points="167,-116 0,-116 0,-86 167,-86 167,-116"/>
<text text-anchor="start" x="8" y="-104" font-family="Helvetica,sans-Serif" font-size="10.00">MayaFlux::IO::VideoFileReader</text>
<text text-anchor="middle" x="83.5" y="-93" font-family="Helvetica,sans-Serif" font-size="10.00">::seek</text>
</a>
</g>
</g>
<!-- Node2 -->
<g id="Node000002" class="node">
<title>Node2</title>
<g id="a_Node000002"><a xlink:href="classMayaFlux_1_1IO_1_1VideoFileReader_a06dbdf6b0f46662e6787d74f094e96dd.html#a06dbdf6b0f46662e6787d74f094e96dd" target="_top" xlink:title="Decode up to batch_size frames starting at m_decode_head.">
<polygon fill="white" stroke="#666666" points="776,-145 609,-145 609,-115 776,-115 776,-145"/>
<text text-anchor="start" x="617" y="-133" font-family="Helvetica,sans-Serif" font-size="10.00">MayaFlux::IO::VideoFileReader</text>
<text text-anchor="middle" x="692.5" y="-122" font-family="Helvetica,sans-Serif" font-size="10.00">::decode_batch</text>
</a>
</g>
</g>
<!-- Node1&#45;&gt;Node2 -->
<g id="edge1_Node000001_Node000002" class="edge">
<title>Node1&#45;&gt;Node2</title>
<g id="a_edge1_Node000001_Node000002"><a xlink:title=" ">
<path fill="none" stroke="#63b8ff" d="M118.25,-116.06C141.57,-125.76 173.57,-137.7 203,-144 363.93,-178.46 409.6,-178.7 573,-159 592.34,-156.67 613.08,-152.27 631.71,-147.59"/>
<polygon fill="#63b8ff" stroke="#63b8ff" points="632.73,-150.94 641.54,-145.05 630.98,-144.16 632.73,-150.94"/>
</a>
</g>
</g>
<!-- Node9 -->
<g id="Node000009" class="node">
<title>Node9</title>
<g id="a_Node000009"><a xlink:href="classMayaFlux_1_1IO_1_1VideoFileReader_a774e1c881d755787f843108eb918009a.html#a774e1c881d755787f843108eb918009a" target="_top" xlink:title=" ">
<polygon fill="white" stroke="#666666" points="370,-116 203,-116 203,-86 370,-86 370,-116"/>
<text text-anchor="start" x="211" y="-104" font-family="Helvetica,sans-Serif" font-size="10.00">MayaFlux::IO::VideoFileReader</text>
<text text-anchor="middle" x="286.5" y="-93" font-family="Helvetica,sans-Serif" font-size="10.00">::seek_internal</text>
</a>
</g>
</g>
<!-- Node1&#45;&gt;Node9 -->
<g id="edge10_Node000001_Node000009" class="edge">
<title>Node1&#45;&gt;Node9</title>
<g id="a_edge10_Node000001_Node000009"><a xlink:title=" ">
<path fill="none" stroke="#63b8ff" d="M167.12,-101C175.61,-101 184.27,-101 192.85,-101"/>
<polygon fill="#63b8ff" stroke="#63b8ff" points="192.87,-104.5 202.87,-101 192.87,-97.5 192.87,-104.5"/>
</a>
</g>
</g>
<!-- Node10 -->
<g id="Node000010" class="node">
<title>Node10</title>
<g id="a_Node000010"><a xlink:href="classMayaFlux_1_1IO_1_1VideoFileReader_a09abc9942e369bd26c7fd3bf43ee87e6.html#a09abc9942e369bd26c7fd3bf43ee87e6" target="_top" xlink:title=" ">
<polygon fill="white" stroke="#666666" points="573,-150 406,-150 406,-120 573,-120 573,-150"/>
<text text-anchor="start" x="414" y="-138" font-family="Helvetica,sans-Serif" font-size="10.00">MayaFlux::IO::VideoFileReader</text>
<text text-anchor="middle" x="489.5" y="-127" font-family="Helvetica,sans-Serif" font-size="10.00">::set_error</text>
</a>
</g>
</g>
<!-- Node1&#45;&gt;Node10 -->
<g id="edge12_Node000001_Node000010" class="edge">
<title>Node1&#45;&gt;Node10</title>
<g id="a_edge12_Node000001_Node000010"><a xlink:title=" ">
<path fill="none" stroke="#63b8ff" d="M148.77,-116.02C166.26,-119.56 185.28,-122.91 203,-125 266.99,-132.55 339.56,-135.01 395.52,-135.61"/>
<polygon fill="#63b8ff" stroke="#63b8ff" points="395.74,-139.11 405.77,-135.7 395.8,-132.11 395.74,-139.11"/>
</a>
</g>
</g>
<!-- Node11 -->
<g id="Node000011" class="node">
<title>Node11</title>
<g id="a_Node000011"><a xlink:href="classMayaFlux_1_1IO_1_1VideoFileReader_a12ac2bea1489c574b3eedb216bb1d18c.html#a12ac2bea1489c574b3eedb216bb1d18c" target="_top" xlink:title=" ">
<polygon fill="white" stroke="#666666" points="370,-68 203,-68 203,-38 370,-38 370,-68"/>
<text text-anchor="start" x="211" y="-56" font-family="Helvetica,sans-Serif" font-size="10.00">MayaFlux::IO::VideoFileReader</text>
<text text-anchor="middle" x="286.5" y="-45" font-family="Helvetica,sans-Serif" font-size="10.00">::start_decode_thread</text>
</a>
</g>
</g>
<!-- Node1&#45;&gt;Node11 -->
<g id="edge13_Node000001_Node000011" class="edge">
<title>Node1&#45;&gt;Node11</title>
<g id="a_edge13_Node000001_Node000011"><a xlink:title=" ">
<path fill="none" stroke="#63b8ff" d="M147.55,-85.94C168.22,-81.01 191.36,-75.48 212.69,-70.39"/>
<polygon fill="#63b8ff" stroke="#63b8ff" points="213.76,-73.73 222.68,-68 212.14,-66.92 213.76,-73.73"/>
</a>
</g>
</g>
<!-- Node13 -->
<g id="Node000013" class="node">
<title>Node13</title>
<g id="a_Node000013"><a xlink:href="classMayaFlux_1_1IO_1_1VideoFileReader_aacb36f0a6a4373bef947e1d618cc6074.html#aacb36f0a6a4373bef947e1d618cc6074" target="_top" xlink:title=" ">
<polygon fill="white" stroke="#666666" points="573,-30 406,-30 406,0 573,0 573,-30"/>
<text text-anchor="start" x="414" y="-18" font-family="Helvetica,sans-Serif" font-size="10.00">MayaFlux::IO::VideoFileReader</text>
<text text-anchor="middle" x="489.5" y="-7" font-family="Helvetica,sans-Serif" font-size="10.00">::stop_decode_thread</text>
</a>
</g>
</g>
<!-- Node1&#45;&gt;Node13 -->
<g id="edge17_Node000001_Node000013" class="edge">
<title>Node1&#45;&gt;Node13</title>
<g id="a_edge17_Node000001_Node000013"><a xlink:title=" ">
<path fill="none" stroke="#63b8ff" d="M102.78,-85.84C124.92,-68.48 164.1,-40.93 203,-29 265.33,-9.89 338.86,-6.71 395.69,-8.14"/>
<polygon fill="#63b8ff" stroke="#63b8ff" points="395.64,-11.64 405.74,-8.44 395.86,-4.64 395.64,-11.64"/>
</a>
</g>
</g>
<!-- Node3 -->
<g id="Node000003" class="node">
<title>Node3</title>
<g id="a_Node000003"><a xlink:href="classMayaFlux_1_1Kakshya_1_1VideoStreamContainer_aee686a4ac3fd58dac2c142f6388c31e2.html#aee686a4ac3fd58dac2c142f6388c31e2" target="_top" xlink:title="Publish a decoded frame.">
<polygon fill="white" stroke="#666666" points="947,-239.5 820,-239.5 820,-198.5 947,-198.5 947,-239.5"/>
<text text-anchor="start" x="828" y="-227.5" font-family="Helvetica,sans-Serif" font-size="10.00">MayaFlux::Kakshya::</text>
<text text-anchor="start" x="828" y="-216.5" font-family="Helvetica,sans-Serif" font-size="10.00">VideoStreamContainer</text>
<text text-anchor="middle" x="883.5" y="-205.5" font-family="Helvetica,sans-Serif" font-size="10.00">::commit_frame</text>
</a>
</g>
</g>
<!-- Node2&#45;&gt;Node3 -->
<g id="edge2_Node000002_Node000003" class="edge">
<title>Node2&#45;&gt;Node3</title>
<g id="a_edge2_Node000002_Node000003"><a xlink:title=" ">
<path fill="none" stroke="#63b8ff" d="M721.93,-145.19C745.74,-157.71 780.76,-175.69 812,-190 815.16,-191.45 818.42,-192.91 821.72,-194.36"/>
<polygon fill="#63b8ff" stroke="#63b8ff" points="820.52,-197.65 831.08,-198.4 823.29,-191.22 820.52,-197.65"/>
</a>
</g>
</g>
<!-- Node6 -->
<g id="Node000006" class="node">
<title>Node6</title>
<g id="a_Node000006"><a xlink:href="classMayaFlux_1_1Kakshya_1_1VideoStreamContainer_acd69a7c5e27cc6fd492c480c481ee9ea.html#acd69a7c5e27cc6fd492c480c481ee9ea" target="_top" xlink:title="Get the total byte size of one frame (width * height * channels).">
<polygon fill="white" stroke="#666666" points="1118,-97.5 991,-97.5 991,-56.5 1118,-56.5 1118,-97.5"/>
<text text-anchor="start" x="999" y="-85.5" font-family="Helvetica,sans-Serif" font-size="10.00">MayaFlux::Kakshya::</text>
<text text-anchor="start" x="999" y="-74.5" font-family="Helvetica,sans-Serif" font-size="10.00">VideoStreamContainer</text>
<text text-anchor="middle" x="1054.5" y="-63.5" font-family="Helvetica,sans-Serif" font-size="10.00">::get_frame_byte_size</text>
</a>
</g>
</g>
<!-- Node2&#45;&gt;Node6 -->
<g id="edge5_Node000002_Node000006" class="edge">
<title>Node2&#45;&gt;Node6</title>
<g id="a_edge5_Node000002_Node000006"><a xlink:title=" ">
<path fill="none" stroke="#63b8ff" d="M715.89,-114.88C738.87,-100.36 776.21,-79.42 812,-71 867.55,-57.94 932.28,-60.45 980.73,-65.68"/>
<polygon fill="#63b8ff" stroke="#63b8ff" points="980.48,-69.18 990.81,-66.83 981.28,-62.22 980.48,-69.18"/>
</a>
</g>
</g>
<!-- Node7 -->
<g id="Node000007" class="node">
<title>Node7</title>
<g id="a_Node000007"><a xlink:href="classMayaFlux_1_1Kakshya_1_1VideoStreamContainer_ad3bf57ef175a27594bc76e90767acf59.html#ad3bf57ef175a27594bc76e90767acf59" target="_top" xlink:title=" ">
<polygon fill="white" stroke="#666666" points="955,-121.5 812,-121.5 812,-80.5 955,-80.5 955,-121.5"/>
<text text-anchor="start" x="820" y="-109.5" font-family="Helvetica,sans-Serif" font-size="10.00">MayaFlux::Kakshya::</text>
<text text-anchor="start" x="820" y="-98.5" font-family="Helvetica,sans-Serif" font-size="10.00">VideoStreamContainer</text>
<text text-anchor="middle" x="883.5" y="-87.5" font-family="Helvetica,sans-Serif" font-size="10.00">::get_total_source_frames</text>
</a>
</g>
</g>
<!-- Node2&#45;&gt;Node7 -->
<g id="edge6_Node000002_Node000007" class="edge">
<title>Node2&#45;&gt;Node7</title>
<g id="a_edge6_Node000002_Node000007"><a xlink:title=" ">
<path fill="none" stroke="#63b8ff" d="M776.12,-117.32C784.69,-116.01 793.39,-114.67 801.93,-113.36"/>
<polygon fill="#63b8ff" stroke="#63b8ff" points="802.52,-116.81 811.88,-111.84 801.46,-109.89 802.52,-116.81"/>
</a>
</g>
</g>
<!-- Node8 -->
<g id="Node000008" class="node">
<title>Node8</title>
<g id="a_Node000008"><a xlink:href="classMayaFlux_1_1Kakshya_1_1VideoStreamContainer_a26041c92754b0feb5214c3b34c1f0765.html#a26041c92754b0feb5214c3b34c1f0765" target="_top" xlink:title="Mutable pointer into m_data[0] for the decode thread to write into.">
<polygon fill="white" stroke="#666666" points="947,-180.5 820,-180.5 820,-139.5 947,-139.5 947,-180.5"/>
<text text-anchor="start" x="828" y="-168.5" font-family="Helvetica,sans-Serif" font-size="10.00">MayaFlux::Kakshya::</text>
<text text-anchor="start" x="828" y="-157.5" font-family="Helvetica,sans-Serif" font-size="10.00">VideoStreamContainer</text>
<text text-anchor="middle" x="883.5" y="-146.5" font-family="Helvetica,sans-Serif" font-size="10.00">::mutable_slot_ptr</text>
</a>
</g>
</g>
<!-- Node2&#45;&gt;Node8 -->
<g id="edge7_Node000002_Node000008" class="edge">
<title>Node2&#45;&gt;Node8</title>
<g id="a_edge7_Node000002_Node000008"><a xlink:title=" ">
<path fill="none" stroke="#63b8ff" d="M776.12,-143.11C787.38,-144.9 798.86,-146.72 809.92,-148.48"/>
<polygon fill="#63b8ff" stroke="#63b8ff" points="809.52,-151.96 819.94,-150.07 810.61,-145.05 809.52,-151.96"/>
</a>
</g>
</g>
<!-- Node4 -->
<g id="Node000004" class="node">
<title>Node4</title>
<g id="a_Node000004"><a xlink:href="classMayaFlux_1_1Kakshya_1_1VideoStreamContainer_aa25d1fa23ecc67bed538b4e281f95c7c.html#aa25d1fa23ecc67bed538b4e281f95c7c" target="_top" xlink:title="Advance the container&#39;s view of how many frames have been decoded.">
<polygon fill="white" stroke="#666666" points="1118,-239.5 991,-239.5 991,-198.5 1118,-198.5 1118,-239.5"/>
<text text-anchor="start" x="999" y="-227.5" font-family="Helvetica,sans-Serif" font-size="10.00">MayaFlux::Kakshya::</text>
<text text-anchor="start" x="999" y="-216.5" font-family="Helvetica,sans-Serif" font-size="10.00">VideoStreamContainer</text>
<text text-anchor="middle" x="1054.5" y="-205.5" font-family="Helvetica,sans-Serif" font-size="10.00">::advance_cache_head</text>
</a>
</g>
</g>
<!-- Node3&#45;&gt;Node4 -->
<g id="edge3_Node000003_Node000004" class="edge">
<title>Node3&#45;&gt;Node4</title>
<g id="a_edge3_Node000003_Node000004"><a xlink:title=" ">
<path fill="none" stroke="#63b8ff" d="M947.43,-219C958.28,-219 969.64,-219 980.72,-219"/>
<polygon fill="#63b8ff" stroke="#63b8ff" points="980.8,-222.5 990.8,-219 980.8,-215.5 980.8,-222.5"/>
</a>
</g>
</g>
<!-- Node5 -->
<g id="Node000005" class="node">
<title>Node5</title>
<g id="a_Node000005"><a xlink:href="classMayaFlux_1_1Kakshya_1_1VideoStreamContainer_ac5764b3010fc7824fd6b5da810d65f50.html#ac5764b3010fc7824fd6b5da810d65f50" target="_top" xlink:title=" ">
<polygon fill="white" stroke="#666666" points="1118,-180.5 991,-180.5 991,-139.5 1118,-139.5 1118,-180.5"/>
<text text-anchor="start" x="999" y="-168.5" font-family="Helvetica,sans-Serif" font-size="10.00">MayaFlux::Kakshya::</text>
<text text-anchor="start" x="999" y="-157.5" font-family="Helvetica,sans-Serif" font-size="10.00">VideoStreamContainer</text>
<text text-anchor="middle" x="1054.5" y="-146.5" font-family="Helvetica,sans-Serif" font-size="10.00">::slot_for</text>
</a>
</g>
</g>
<!-- Node3&#45;&gt;Node5 -->
<g id="edge4_Node000003_Node000005" class="edge">
<title>Node3&#45;&gt;Node5</title>
<g id="a_edge4_Node000003_Node000005"><a xlink:title=" ">
<path fill="none" stroke="#63b8ff" d="M943.61,-198.36C956.94,-193.71 971.19,-188.73 984.87,-183.96"/>
<polygon fill="#63b8ff" stroke="#63b8ff" points="986.42,-187.12 994.71,-180.52 984.12,-180.52 986.42,-187.12"/>
</a>
</g>
</g>
<!-- Node8&#45;&gt;Node5 -->
<g id="edge9_Node000008_Node000005" class="edge">
<title>Node8&#45;&gt;Node5</title>
<g id="a_edge9_Node000008_Node000005"><a xlink:title=" ">
<path fill="none" stroke="#63b8ff" d="M947.43,-160C958.28,-160 969.64,-160 980.72,-160"/>
<polygon fill="#63b8ff" stroke="#63b8ff" points="980.8,-163.5 990.8,-160 980.8,-156.5 980.8,-163.5"/>
</a>
</g>
</g>
<!-- Node8&#45;&gt;Node6 -->
<g id="edge8_Node000008_Node000006" class="edge">
<title>Node8&#45;&gt;Node6</title>
<g id="a_edge8_Node000008_Node000006"><a xlink:title=" ">
<path fill="none" stroke="#63b8ff" d="M936.38,-139.43C942.7,-136.7 949.03,-133.85 955,-131 972.96,-122.41 992.27,-112.09 1008.98,-102.78"/>
<polygon fill="#63b8ff" stroke="#63b8ff" points="1010.97,-105.67 1017.98,-97.72 1007.54,-99.57 1010.97,-105.67"/>
</a>
</g>
</g>
<!-- Node9&#45;&gt;Node10 -->
<g id="edge11_Node000009_Node000010" class="edge">
<title>Node9&#45;&gt;Node10</title>
<g id="a_edge11_Node000009_Node000010"><a xlink:title=" ">
<path fill="none" stroke="#63b8ff" d="M370.12,-114.98C378.61,-116.41 387.27,-117.88 395.85,-119.33"/>
<polygon fill="#63b8ff" stroke="#63b8ff" points="395.43,-122.81 405.87,-121.02 396.6,-115.9 395.43,-122.81"/>
</a>
</g>
</g>
<!-- Node12 -->
<g id="Node000012" class="node">
<title>Node12</title>
<g id="a_Node000012"><a xlink:href="classMayaFlux_1_1IO_1_1VideoFileReader_a954440a576c3a9d5ff91202c4c62fb2c.html#a954440a576c3a9d5ff91202c4c62fb2c" target="_top" xlink:title=" ">
<polygon fill="white" stroke="#666666" points="573,-94 406,-94 406,-64 573,-64 573,-94"/>
<text text-anchor="start" x="414" y="-82" font-family="Helvetica,sans-Serif" font-size="10.00">MayaFlux::IO::VideoFileReader</text>
<text text-anchor="middle" x="489.5" y="-71" font-family="Helvetica,sans-Serif" font-size="10.00">::decode_thread_func</text>
</a>
</g>
</g>
<!-- Node11&#45;&gt;Node12 -->
<g id="edge14_Node000011_Node000012" class="edge">
<title>Node11&#45;&gt;Node12</title>
<g id="a_edge14_Node000011_Node000012"><a xlink:title=" ">
<path fill="none" stroke="#63b8ff" d="M370.12,-63.69C378.61,-64.79 387.27,-65.91 395.85,-67.02"/>
<polygon fill="#63b8ff" stroke="#63b8ff" points="395.51,-70.5 405.87,-68.31 396.4,-63.56 395.51,-70.5"/>
</a>
</g>
</g>
<!-- Node11&#45;&gt;Node13 -->
<g id="edge16_Node000011_Node000013" class="edge">
<title>Node11&#45;&gt;Node13</title>
<g id="a_edge16_Node000011_Node000013"><a xlink:title=" ">
<path fill="none" stroke="#63b8ff" d="M366.94,-37.98C377.42,-36 388.22,-33.96 398.85,-31.95"/>
<polygon fill="#63b8ff" stroke="#63b8ff" points="399.8,-35.33 408.98,-30.03 398.5,-28.45 399.8,-35.33"/>
</a>
</g>
</g>
<!-- Node12&#45;&gt;Node2 -->
<g id="edge15_Node000012_Node000002" class="edge">
<title>Node12&#45;&gt;Node2</title>
<g id="a_edge15_Node000012_Node000002"><a xlink:title=" ">
<path fill="none" stroke="#63b8ff" d="M549.72,-94.03C572.52,-99.81 598.75,-106.47 622.4,-112.47"/>
<polygon fill="#63b8ff" stroke="#63b8ff" points="621.8,-115.93 632.36,-114.99 623.52,-109.14 621.8,-115.93"/>
</a>
</g>
</g>
</g>
</svg>
