<?xml version="1.0" encoding="UTF-8" standalone="no"?>
<!DOCTYPE svg PUBLIC "-//W3C//DTD SVG 1.1//EN"
 "http://www.w3.org/Graphics/SVG/1.1/DTD/svg11.dtd">
<!-- Generated by graphviz version 2.43.0 (0)
 -->
<!-- Title: MayaFlux::Yantra::EnergyAnalyzer::analyze_energy Pages: 1 -->
<svg width="1318pt" height="179pt"
 viewBox="0.00 0.00 1318.00 178.59" xmlns="http://www.w3.org/2000/svg" xmlns:xlink="http://www.w3.org/1999/xlink">
<g id="graph0" class="graph" transform="scale(1 1) rotate(0) translate(4 174.59)">
<title>MayaFlux::Yantra::EnergyAnalyzer::analyze_energy</title>
<!-- Node1 -->
<g id="Node000001" class="node">
<title>Node1</title>
<g id="a_Node000001"><a xlink:title="Type&#45;safe energy analysis method.">
<polygon fill="#999999" stroke="#666666" points="143,-121.5 0,-121.5 0,-91.5 143,-91.5 143,-121.5"/>
<text text-anchor="start" x="8" y="-109.5" font-family="Helvetica,sans-Serif" font-size="10.00">MayaFlux::Yantra::Energy</text>
<text text-anchor="middle" x="71.5" y="-98.5" font-family="Helvetica,sans-Serif" font-size="10.00">Analyzer::analyze_energy</text>
</a>
</g>
</g>
<!-- Node2 -->
<g id="Node000002" class="node">
<title>Node2</title>
<g id="a_Node000002"><a xlink:href="classMayaFlux_1_1Yantra_1_1UniversalAnalyzer_a602557feeb1ee9ba9ae252de2f693d31.html#a602557feeb1ee9ba9ae252de2f693d31" target="_top" xlink:title="User&#45;facing analysis method &#45; returns analysis results directly.">
<polygon fill="white" stroke="#666666" points="332,-121.5 179,-121.5 179,-91.5 332,-91.5 332,-121.5"/>
<text text-anchor="start" x="187" y="-109.5" font-family="Helvetica,sans-Serif" font-size="10.00">MayaFlux::Yantra::Universal</text>
<text text-anchor="middle" x="255.5" y="-98.5" font-family="Helvetica,sans-Serif" font-size="10.00">Analyzer::analyze_data</text>
</a>
</g>
</g>
<!-- Node1&#45;&gt;Node2 -->
<g id="edge1_Node000001_Node000002" class="edge">
<title>Node1&#45;&gt;Node2</title>
<g id="a_edge1_Node000001_Node000002"><a xlink:title=" ">
<path fill="none" stroke="#63b8ff" d="M143.13,-106.5C151.53,-106.5 160.18,-106.5 168.76,-106.5"/>
<polygon fill="#63b8ff" stroke="#63b8ff" points="168.79,-110 178.79,-106.5 168.79,-103 168.79,-110"/>
</a>
</g>
</g>
<!-- Node3 -->
<g id="Node000003" class="node">
<title>Node3</title>
<g id="a_Node000003"><a xlink:href="classMayaFlux_1_1Yantra_1_1ComputeOperation_a59db75a0ca1fccad7c2487a5694a7973.html#a59db75a0ca1fccad7c2487a5694a7973" target="_top" xlink:title="Public synchronous execution interface.">
<polygon fill="white" stroke="#666666" points="519,-121.5 368,-121.5 368,-91.5 519,-91.5 519,-121.5"/>
<text text-anchor="start" x="376" y="-109.5" font-family="Helvetica,sans-Serif" font-size="10.00">MayaFlux::Yantra::Compute</text>
<text text-anchor="middle" x="443.5" y="-98.5" font-family="Helvetica,sans-Serif" font-size="10.00">Operation::apply_operation</text>
</a>
</g>
</g>
<!-- Node2&#45;&gt;Node3 -->
<g id="edge2_Node000002_Node000003" class="edge">
<title>Node2&#45;&gt;Node3</title>
<g id="a_edge2_Node000002_Node000003"><a xlink:title=" ">
<path fill="none" stroke="#63b8ff" d="M332.15,-106.5C340.52,-106.5 349.08,-106.5 357.55,-106.5"/>
<polygon fill="#63b8ff" stroke="#63b8ff" points="357.82,-110 367.82,-106.5 357.82,-103 357.82,-110"/>
</a>
</g>
</g>
<!-- Node4 -->
<g id="Node000004" class="node">
<title>Node4</title>
<g id="a_Node000004"><a xlink:href="classMayaFlux_1_1Yantra_1_1ComputeOperation_a7891a934373e8be42dfccfa74fae0385.html#a7891a934373e8be42dfccfa74fae0385" target="_top" xlink:title="Internal execution method &#45; ComputeMatrix can access this.">
<polygon fill="white" stroke="#666666" points="706,-127 555,-127 555,-86 706,-86 706,-127"/>
<text text-anchor="start" x="563" y="-115" font-family="Helvetica,sans-Serif" font-size="10.00">MayaFlux::Yantra::Compute</text>
<text text-anchor="start" x="563" y="-104" font-family="Helvetica,sans-Serif" font-size="10.00">Operation::apply_operation</text>
<text text-anchor="middle" x="630.5" y="-93" font-family="Helvetica,sans-Serif" font-size="10.00">_internal</text>
</a>
</g>
</g>
<!-- Node3&#45;&gt;Node4 -->
<g id="edge3_Node000003_Node000004" class="edge">
<title>Node3&#45;&gt;Node4</title>
<g id="a_edge3_Node000003_Node000004"><a xlink:title=" ">
<path fill="none" stroke="#63b8ff" d="M519.21,-106.5C527.55,-106.5 536.1,-106.5 544.55,-106.5"/>
<polygon fill="#63b8ff" stroke="#63b8ff" points="544.81,-110 554.81,-106.5 544.81,-103 544.81,-110"/>
</a>
</g>
</g>
<!-- Node5 -->
<g id="Node000005" class="node">
<title>Node5</title>
<g id="a_Node000005"><a xlink:href="classMayaFlux_1_1Yantra_1_1ComputeOperation_a370f2d70984f9e1d7d32a7e8abe8037d.html#a370f2d70984f9e1d7d32a7e8abe8037d" target="_top" xlink:title=" ">
<polygon fill="white" stroke="#666666" points="1112,-121.5 961,-121.5 961,-91.5 1112,-91.5 1112,-121.5"/>
<text text-anchor="start" x="969" y="-109.5" font-family="Helvetica,sans-Serif" font-size="10.00">MayaFlux::Yantra::Compute</text>
<text text-anchor="middle" x="1036.5" y="-98.5" font-family="Helvetica,sans-Serif" font-size="10.00">Operation::apply_hooks</text>
</a>
</g>
</g>
<!-- Node4&#45;&gt;Node5 -->
<g id="edge4_Node000004_Node000005" class="edge">
<title>Node4&#45;&gt;Node5</title>
<g id="a_edge4_Node000004_Node000005"><a xlink:title=" ">
<path fill="none" stroke="#63b8ff" d="M665.96,-127.12C687.1,-138.55 715.17,-151.61 742,-157.5 821.44,-174.95 845.56,-174.95 925,-157.5 952.32,-151.5 980.94,-138.06 1002.21,-126.49"/>
<polygon fill="#63b8ff" stroke="#63b8ff" points="1004.11,-129.43 1011.14,-121.5 1000.7,-123.32 1004.11,-129.43"/>
</a>
</g>
</g>
<!-- Node7 -->
<g id="Node000007" class="node">
<title>Node7</title>
<g id="a_Node000007"><a xlink:href="classMayaFlux_1_1Yantra_1_1ComputeOperation_acb7801b59e928153ddb6d233faf92f7d.html#acb7801b59e928153ddb6d233faf92f7d" target="_top" xlink:title="Optional async implementation &#45; default delegates to operation_function.">
<polygon fill="white" stroke="#666666" points="925,-148.5 742,-148.5 742,-118.5 925,-118.5 925,-148.5"/>
<text text-anchor="start" x="750" y="-136.5" font-family="Helvetica,sans-Serif" font-size="10.00">MayaFlux::Yantra::Compute</text>
<text text-anchor="middle" x="833.5" y="-125.5" font-family="Helvetica,sans-Serif" font-size="10.00">Operation::apply_operation_async</text>
</a>
</g>
</g>
<!-- Node4&#45;&gt;Node7 -->
<g id="edge6_Node000004_Node000007" class="edge">
<title>Node4&#45;&gt;Node7</title>
<g id="a_edge6_Node000004_Node000007"><a xlink:title=" ">
<path fill="none" stroke="#63b8ff" d="M706.06,-116.52C714.41,-117.64 723.02,-118.79 731.63,-119.95"/>
<polygon fill="#63b8ff" stroke="#63b8ff" points="731.35,-123.44 741.73,-121.31 732.28,-116.51 731.35,-123.44"/>
</a>
</g>
</g>
<!-- Node8 -->
<g id="Node000008" class="node">
<title>Node8</title>
<g id="a_Node000008"><a xlink:href="classMayaFlux_1_1Yantra_1_1ComputeOperation_a9d0d62a8419923b6d573028400a1f9a8.html#a9d0d62a8419923b6d573028400a1f9a8" target="_top" xlink:title="Optional chain&#45;aware implementation &#45; default delegates to operation_function.">
<polygon fill="white" stroke="#666666" points="909,-100 758,-100 758,-59 909,-59 909,-100"/>
<text text-anchor="start" x="766" y="-88" font-family="Helvetica,sans-Serif" font-size="10.00">MayaFlux::Yantra::Compute</text>
<text text-anchor="start" x="766" y="-77" font-family="Helvetica,sans-Serif" font-size="10.00">Operation::apply_operation</text>
<text text-anchor="middle" x="833.5" y="-66" font-family="Helvetica,sans-Serif" font-size="10.00">_chained</text>
</a>
</g>
</g>
<!-- Node4&#45;&gt;Node8 -->
<g id="edge8_Node000004_Node000008" class="edge">
<title>Node4&#45;&gt;Node8</title>
<g id="a_edge8_Node000004_Node000008"><a xlink:title=" ">
<path fill="none" stroke="#63b8ff" d="M706.06,-96.48C719.63,-94.66 733.89,-92.75 747.73,-90.89"/>
<polygon fill="#63b8ff" stroke="#63b8ff" points="748.28,-94.34 757.73,-89.54 747.35,-87.41 748.28,-94.34"/>
</a>
</g>
</g>
<!-- Node9 -->
<g id="Node000009" class="node">
<title>Node9</title>
<g id="a_Node000009"><a xlink:href="classMayaFlux_1_1Yantra_1_1ComputeOperation_afd858d2eb93439a899b1c30f0598e9f8.html#afd858d2eb93439a899b1c30f0598e9f8" target="_top" xlink:title="Optional parallel&#45;aware implementation &#45; default delegates to operation_function.">
<polygon fill="white" stroke="#666666" points="909,-41 758,-41 758,0 909,0 909,-41"/>
<text text-anchor="start" x="766" y="-29" font-family="Helvetica,sans-Serif" font-size="10.00">MayaFlux::Yantra::Compute</text>
<text text-anchor="start" x="766" y="-18" font-family="Helvetica,sans-Serif" font-size="10.00">Operation::apply_operation</text>
<text text-anchor="middle" x="833.5" y="-7" font-family="Helvetica,sans-Serif" font-size="10.00">_parallel</text>
</a>
</g>
</g>
<!-- Node4&#45;&gt;Node9 -->
<g id="edge10_Node000004_Node000009" class="edge">
<title>Node4&#45;&gt;Node9</title>
<g id="a_edge10_Node000004_Node000009"><a xlink:title=" ">
<path fill="none" stroke="#63b8ff" d="M668.69,-85.9C689.82,-74.65 716.98,-60.92 742,-50.5 746.75,-48.52 751.68,-46.58 756.68,-44.7"/>
<polygon fill="#63b8ff" stroke="#63b8ff" points="758.15,-47.89 766.34,-41.16 755.74,-41.32 758.15,-47.89"/>
</a>
</g>
</g>
<!-- Node6 -->
<g id="Node000006" class="node">
<title>Node6</title>
<g id="a_Node000006"><a xlink:href="classMayaFlux_1_1Yantra_1_1ComputeOperation_a8f21d9df92876fb9a6e594cad9331ec8.html#a8f21d9df92876fb9a6e594cad9331ec8" target="_top" xlink:title="Executes the computational transformation on the input data.">
<polygon fill="white" stroke="#666666" points="1310,-121.5 1148,-121.5 1148,-91.5 1310,-91.5 1310,-121.5"/>
<text text-anchor="start" x="1156" y="-109.5" font-family="Helvetica,sans-Serif" font-size="10.00">MayaFlux::Yantra::Compute</text>
<text text-anchor="middle" x="1229" y="-98.5" font-family="Helvetica,sans-Serif" font-size="10.00">Operation::operation_function</text>
</a>
</g>
</g>
<!-- Node5&#45;&gt;Node6 -->
<g id="edge5_Node000005_Node000006" class="edge">
<title>Node5&#45;&gt;Node6</title>
<g id="a_edge5_Node000005_Node000006"><a xlink:title=" ">
<path fill="none" stroke="#63b8ff" d="M1112.24,-106.5C1120.64,-106.5 1129.25,-106.5 1137.81,-106.5"/>
<polygon fill="#63b8ff" stroke="#63b8ff" points="1137.81,-110 1147.81,-106.5 1137.81,-103 1137.81,-110"/>
</a>
</g>
</g>
<!-- Node7&#45;&gt;Node5 -->
<g id="edge7_Node000007_Node000005" class="edge">
<title>Node7&#45;&gt;Node5</title>
<g id="a_edge7_Node000007_Node000005"><a xlink:title=" ">
<path fill="none" stroke="#63b8ff" d="M925,-121.34C933.62,-120.19 942.33,-119.02 950.88,-117.87"/>
<polygon fill="#63b8ff" stroke="#63b8ff" points="951.39,-121.33 960.84,-116.53 950.46,-114.39 951.39,-121.33"/>
</a>
</g>
</g>
<!-- Node8&#45;&gt;Node5 -->
<g id="edge9_Node000008_Node000005" class="edge">
<title>Node8&#45;&gt;Node5</title>
<g id="a_edge9_Node000008_Node000005"><a xlink:title=" ">
<path fill="none" stroke="#63b8ff" d="M909.06,-89.52C922.63,-91.34 936.89,-93.25 950.73,-95.11"/>
<polygon fill="#63b8ff" stroke="#63b8ff" points="950.35,-98.59 960.73,-96.46 951.28,-91.66 950.35,-98.59"/>
</a>
</g>
</g>
<!-- Node9&#45;&gt;Node5 -->
<g id="edge11_Node000009_Node000005" class="edge">
<title>Node9&#45;&gt;Node5</title>
<g id="a_edge11_Node000009_Node000005"><a xlink:title=" ">
<path fill="none" stroke="#63b8ff" d="M900.66,-41.16C908.93,-44.11 917.21,-47.25 925,-50.5 950.42,-61.09 978.06,-75.09 999.34,-86.45"/>
<polygon fill="#63b8ff" stroke="#63b8ff" points="997.87,-89.64 1008.33,-91.3 1001.19,-83.47 997.87,-89.64"/>
</a>
</g>
</g>
</g>
</svg>
