<?xml version="1.0" encoding="UTF-8" standalone="no"?>
<!DOCTYPE svg PUBLIC "-//W3C//DTD SVG 1.1//EN"
 "http://www.w3.org/Graphics/SVG/1.1/DTD/svg11.dtd">
<!-- Generated by graphviz version 2.43.0 (0)
 -->
<!-- Title: MayaFlux::Portal::Forma::Plot::Series::background_color Pages: 1 -->
<svg width="402pt" height="182pt"
 viewBox="0.00 0.00 402.00 182.00" xmlns="http://www.w3.org/2000/svg" xmlns:xlink="http://www.w3.org/1999/xlink">

<svg id="main" version="1.1" xmlns="http://www.w3.org/2000/svg" xmlns:xlink="http://www.w3.org/1999/xlink" xml:space="preserve" onload="init(evt)">
<style type="text/css"><![CDATA[
.node, .edge {opacity: 0.7;}
.node.selected, .edge.selected {opacity: 1;}
.edge:hover path { stroke: red; }
.edge:hover polygon { stroke: red; fill: red; }
]]></style>
<script type="application/ecmascript" xlink:href="svg.min.js"/>
<svg id="graph" class="graph">
<g id="graph0" class="graph" transform="scale(1 1) rotate(0) translate(4 178)">
<title>MayaFlux::Portal::Forma::Plot::Series::background_color</title>
<!-- Node1 -->
<g id="Node000001" class="node">
<title>Node1</title>
<g id="a_Node000001"><a xlink:title=" ">
<polygon fill="#999999" stroke="#666666" points="394,-102 224,-102 224,-72 394,-72 394,-102"/>
<text text-anchor="start" x="232" y="-90" font-family="Helvetica,sans-Serif" font-size="10.00">MayaFlux::Portal::Forma</text>
<text text-anchor="middle" x="309" y="-79" font-family="Helvetica,sans-Serif" font-size="10.00">::Plot::Series::background_color</text>
</a>
</g>
</g>
<!-- Node2 -->
<g id="Node000002" class="node">
<title>Node2</title>
<g id="a_Node000002"><a xlink:href="classMayaFlux_1_1Portal_1_1Forma_1_1Plot_1_1WaveformBuilder_a457f5beb06f5407a7992630de29fbfc3.html#a457f5beb06f5407a7992630de29fbfc3" target="_top" xlink:title=" ">
<polygon fill="white" stroke="#666666" points="175,-174 13,-174 13,-144 175,-144 175,-174"/>
<text text-anchor="start" x="21" y="-162" font-family="Helvetica,sans-Serif" font-size="10.00">MayaFlux::Portal::Forma</text>
<text text-anchor="middle" x="94" y="-151" font-family="Helvetica,sans-Serif" font-size="10.00">::Plot::WaveformBuilder::done</text>
</a>
</g>
</g>
<!-- Node1&#45;&gt;Node2 -->
<g id="edge1_Node000001_Node000002" class="edge">
<title>Node1&#45;&gt;Node2</title>
<g id="a_edge1_Node000001_Node000002"><a xlink:title=" ">
<path fill="none" stroke="#63b8ff" d="M264.47,-105.97C241.9,-115.41 213.75,-126.57 188,-135 178.33,-138.17 167.99,-141.19 157.85,-143.95"/>
<polygon fill="#63b8ff" stroke="#63b8ff" points="265.92,-109.16 273.77,-102.05 263.2,-102.71 265.92,-109.16"/>
</a>
</g>
</g>
<!-- Node3 -->
<g id="Node000003" class="node">
<title>Node3</title>
<g id="a_Node000003"><a xlink:href="classMayaFlux_1_1Portal_1_1Forma_1_1Plot_1_1ScatterBuilder_a6496c1d9cf8d631f39b319aaecaa55ac.html#a6496c1d9cf8d631f39b319aaecaa55ac" target="_top" xlink:title=" ">
<polygon fill="white" stroke="#666666" points="167,-126 21,-126 21,-96 167,-96 167,-126"/>
<text text-anchor="start" x="29" y="-114" font-family="Helvetica,sans-Serif" font-size="10.00">MayaFlux::Portal::Forma</text>
<text text-anchor="middle" x="94" y="-103" font-family="Helvetica,sans-Serif" font-size="10.00">::Plot::ScatterBuilder::done</text>
</a>
</g>
</g>
<!-- Node1&#45;&gt;Node3 -->
<g id="edge2_Node000001_Node000003" class="edge">
<title>Node1&#45;&gt;Node3</title>
<g id="a_edge2_Node000001_Node000003"><a xlink:title=" ">
<path fill="none" stroke="#63b8ff" d="M213.65,-97.63C198.07,-99.39 182.14,-101.18 167.22,-102.86"/>
<polygon fill="#63b8ff" stroke="#63b8ff" points="214.27,-101.08 223.82,-96.49 213.49,-94.13 214.27,-101.08"/>
</a>
</g>
</g>
<!-- Node4 -->
<g id="Node000004" class="node">
<title>Node4</title>
<g id="a_Node000004"><a xlink:href="classMayaFlux_1_1Portal_1_1Forma_1_1Plot_1_1BarsBuilder_af362f3613c57110cd011c8a7bd155b2c.html#af362f3613c57110cd011c8a7bd155b2c" target="_top" xlink:title=" ">
<polygon fill="white" stroke="#666666" points="162,-78 26,-78 26,-48 162,-48 162,-78"/>
<text text-anchor="start" x="34" y="-66" font-family="Helvetica,sans-Serif" font-size="10.00">MayaFlux::Portal::Forma</text>
<text text-anchor="middle" x="94" y="-55" font-family="Helvetica,sans-Serif" font-size="10.00">::Plot::BarsBuilder::done</text>
</a>
</g>
</g>
<!-- Node1&#45;&gt;Node4 -->
<g id="edge3_Node000001_Node000004" class="edge">
<title>Node1&#45;&gt;Node4</title>
<g id="a_edge3_Node000001_Node000004"><a xlink:title=" ">
<path fill="none" stroke="#63b8ff" d="M213.66,-76.37C196.31,-74.42 178.52,-72.41 162.18,-70.57"/>
<polygon fill="#63b8ff" stroke="#63b8ff" points="213.49,-79.87 223.82,-77.51 214.27,-72.92 213.49,-79.87"/>
</a>
</g>
</g>
<!-- Node5 -->
<g id="Node000005" class="node">
<title>Node5</title>
<g id="a_Node000005"><a xlink:href="classMayaFlux_1_1Portal_1_1Forma_1_1Plot_1_1FilledWaveformBuilder_acc7d864ebf238ed0c026d3cf64c67105.html#acc7d864ebf238ed0c026d3cf64c67105" target="_top" xlink:title=" ">
<polygon fill="white" stroke="#666666" points="188,-30 0,-30 0,0 188,0 188,-30"/>
<text text-anchor="start" x="8" y="-18" font-family="Helvetica,sans-Serif" font-size="10.00">MayaFlux::Portal::Forma</text>
<text text-anchor="middle" x="94" y="-7" font-family="Helvetica,sans-Serif" font-size="10.00">::Plot::FilledWaveformBuilder::done</text>
</a>
</g>
</g>
<!-- Node1&#45;&gt;Node5 -->
<g id="edge4_Node000001_Node000005" class="edge">
<title>Node1&#45;&gt;Node5</title>
<g id="a_edge4_Node000001_Node000005"><a xlink:title=" ">
<path fill="none" stroke="#63b8ff" d="M264.47,-68.03C241.9,-58.59 213.75,-47.43 188,-39 178.33,-35.83 167.99,-32.81 157.85,-30.05"/>
<polygon fill="#63b8ff" stroke="#63b8ff" points="263.2,-71.29 273.77,-71.95 265.92,-64.84 263.2,-71.29"/>
</a>
</g>
</g>
</g>
</svg>
</svg>

<style type='text/css'>
<![CDATA[
[data-mouse-over-selected='false'] { opacity: 0.7; }
[data-mouse-over-selected='true']  { opacity: 1.0; }
]]>
</style>
<script type="application/ecmascript"><![CDATA[
document.addEventListener('DOMContentLoaded', (event) => {
  highlightEdges();
  highlightAdjacentNodes();
});
]]></script>
</svg>
