<?xml version="1.0" encoding="UTF-8" standalone="no"?>
<!DOCTYPE svg PUBLIC "-//W3C//DTD SVG 1.1//EN"
 "http://www.w3.org/Graphics/SVG/1.1/DTD/svg11.dtd">
<!-- Generated by graphviz version 2.43.0 (0)
 -->
<!-- Title: MayaFlux::Buffers::SoundContainerBuffer Pages: 1 -->
<!--zoomable 980 -->

<svg id="main" version="1.1" xmlns="http://www.w3.org/2000/svg" xmlns:xlink="http://www.w3.org/1999/xlink" xml:space="preserve" onload="init(evt)">
<style type="text/css"><![CDATA[
.node, .edge {opacity: 0.7;}
.node.selected, .edge.selected {opacity: 1;}
.edge:hover path { stroke: red; }
.edge:hover polygon { stroke: red; fill: red; }
]]></style>

<defs>
  <circle id="rim" cx="0" cy="0" r="7"/>
  <circle id="rim2" cx="0" cy="0" r="3.5"/>
  <g id="zoomPlus">
    <use xlink:href="#rim" fill="#404040"><set attributeName="fill" to="#808080" begin="zoomplus.mouseover" end="zoomplus.mouseout"/></use>
    <path d="M-4,0h8M0,-4v8" fill="none" stroke="white" stroke-width="1.5" pointer-events="none"/>
  </g>
  <g id="zoomMin">
    <use xlink:href="#rim" fill="#404040"><set attributeName="fill" to="#808080" begin="zoomminus.mouseover" end="zoomminus.mouseout"/></use>
    <path d="M-4,0h8" fill="none" stroke="white" stroke-width="1.5" pointer-events="none"/>
  </g>
  <g id="arrowUp" transform="translate(30 24)">
    <use xlink:href="#rim"/>
    <path pointer-events="none" fill="none" stroke="white" stroke-width="1.5" d="M0,-3.0v7 M-2.5,-0.5L0,-3.0L2.5,-0.5"/>
  </g>
  <g id="arrowRight" transform="rotate(90) translate(36 -43)">
    <use xlink:href="#rim"/>
    <path pointer-events="none" fill="none" stroke="white" stroke-width="1.5" d="M0,-3.0v7 M-2.5,-0.5L0,-3.0L2.5,-0.5"/>
  </g>
  <g id="arrowDown" transform="rotate(180) translate(-30 -48)">
    <use xlink:href="#rim"/>
    <path pointer-events="none" fill="none" stroke="white" stroke-width="1.5" d="M0,-3.0v7 M-2.5,-0.5L0,-3.0L2.5,-0.5"/>
  </g>
  <g id="arrowLeft" transform="rotate(270) translate(-36 17)">
    <use xlink:href="#rim"/>
    <path pointer-events="none" fill="none" stroke="white" stroke-width="1.5" d="M0,-3.0v7 M-2.5,-0.5L0,-3.0L2.5,-0.5"/>
  </g>
  <g id="resetDef">
    <use xlink:href="#rim2" fill="#404040"><set attributeName="fill" to="#808080" begin="reset.mouseover" end="reset.mouseout"/></use>
  </g>
</defs>
<script type="application/ecmascript">
var viewWidth = 318;
var viewHeight = 980;
var sectionId = 'dynsection-1';
</script>
<script type="application/ecmascript" xlink:href="svg.min.js"/>
<svg id="graph" class="graph">
<g id="viewport">
<title>MayaFlux::Buffers::SoundContainerBuffer</title>
<!-- Node1 -->
<g id="Node000001" class="node">
<title>Node1</title>
<g id="a_Node000001"><a xlink:title="AudioBuffer implementation backed by a StreamContainer.">
<polygon fill="#999999" stroke="transparent" points="271.5,-221 119.5,-221 119.5,0 271.5,0 271.5,-221"/>
<text text-anchor="start" x="142" y="-208.5" font-family="Helvetica,sans-Serif" font-size="10.00">MayaFlux::Buffers::</text>
<text text-anchor="start" x="142" y="-197.5" font-family="Helvetica,sans-Serif" font-size="10.00">SoundContainerBuffer</text>
<text text-anchor="start" x="126" y="-182.5" font-family="Helvetica,sans-Serif" font-size="10.00">&#45;</text>
<text text-anchor="start" x="136.5" y="-182.5" font-family="Helvetica,sans-Serif" font-size="10.00">m_container</text>
<text text-anchor="start" x="126" y="-167.5" font-family="Helvetica,sans-Serif" font-size="10.00">&#45;</text>
<text text-anchor="start" x="136.5" y="-167.5" font-family="Helvetica,sans-Serif" font-size="10.00">m_pending_adapter</text>
<text text-anchor="start" x="126" y="-152.5" font-family="Helvetica,sans-Serif" font-size="10.00">&#45;</text>
<text text-anchor="start" x="136.5" y="-152.5" font-family="Helvetica,sans-Serif" font-size="10.00">m_source_channel</text>
<text text-anchor="start" x="126" y="-137.5" font-family="Helvetica,sans-Serif" font-size="10.00">&#45;</text>
<text text-anchor="start" x="136.5" y="-137.5" font-family="Helvetica,sans-Serif" font-size="10.00">m_zero_copy_mode</text>
<text text-anchor="start" x="123.5" y="-122.5" font-family="Helvetica,sans-Serif" font-size="10.00">+</text>
<text text-anchor="start" x="136.5" y="-122.5" font-family="Helvetica,sans-Serif" font-size="10.00">get_container()</text>
<text text-anchor="start" x="123.5" y="-107.5" font-family="Helvetica,sans-Serif" font-size="10.00">+</text>
<text text-anchor="start" x="136.5" y="-107.5" font-family="Helvetica,sans-Serif" font-size="10.00">get_source_channel()</text>
<text text-anchor="start" x="123.5" y="-92.5" font-family="Helvetica,sans-Serif" font-size="10.00">+</text>
<text text-anchor="start" x="136.5" y="-92.5" font-family="Helvetica,sans-Serif" font-size="10.00">initialize()</text>
<text text-anchor="start" x="123.5" y="-77.5" font-family="Helvetica,sans-Serif" font-size="10.00">+</text>
<text text-anchor="start" x="136.5" y="-77.5" font-family="Helvetica,sans-Serif" font-size="10.00">is_zero_copy()</text>
<text text-anchor="start" x="123.5" y="-62.5" font-family="Helvetica,sans-Serif" font-size="10.00">+</text>
<text text-anchor="start" x="136.5" y="-62.5" font-family="Helvetica,sans-Serif" font-size="10.00">set_container()</text>
<text text-anchor="start" x="123.5" y="-47.5" font-family="Helvetica,sans-Serif" font-size="10.00">+</text>
<text text-anchor="start" x="136.5" y="-47.5" font-family="Helvetica,sans-Serif" font-size="10.00">SoundContainerBuffer()</text>
<text text-anchor="start" x="123.5" y="-32.5" font-family="Helvetica,sans-Serif" font-size="10.00">#</text>
<text text-anchor="start" x="136.5" y="-32.5" font-family="Helvetica,sans-Serif" font-size="10.00">create_default_processor()</text>
<text text-anchor="start" x="126" y="-17.5" font-family="Helvetica,sans-Serif" font-size="10.00">&#45;</text>
<text text-anchor="start" x="136.5" y="-17.5" font-family="Helvetica,sans-Serif" font-size="10.00">setup_zero_copy_if</text>
<text text-anchor="start" x="136.5" y="-6.5" font-family="Helvetica,sans-Serif" font-size="10.00">_possible()</text>
<polygon fill="#666666" stroke="#666666" points="119.5,-192.5 119.5,-192.5 271.5,-192.5 271.5,-192.5 119.5,-192.5"/>
<polygon fill="#666666" stroke="#666666" points="119.5,-132.5 119.5,-132.5 134.5,-132.5 134.5,-132.5 119.5,-132.5"/>
<polygon fill="#666666" stroke="#666666" points="134.5,-132.5 134.5,-132.5 271.5,-132.5 271.5,-132.5 134.5,-132.5"/>
<polygon fill="none" stroke="#666666" points="119.5,0 119.5,-221 271.5,-221 271.5,0 119.5,0"/>
</a>
</g>
</g>
<!-- Node2 -->
<g id="Node000002" class="node">
<title>Node2</title>
<g id="a_Node000002"><a xlink:href="classMayaFlux_1_1Buffers_1_1AudioBuffer.html" target="_top" xlink:title="Concrete audio implementation of the Buffer interface for double&#45;precision audio data.">
<polygon fill="white" stroke="transparent" points="277,-618 114,-618 114,-258 277,-258 277,-618"/>
<text text-anchor="start" x="148.5" y="-606" font-family="Helvetica,sans-Serif" font-size="10.00">MayaFlux::Buffers::</text>
<text text-anchor="start" x="167" y="-595" font-family="Helvetica,sans-Serif" font-size="10.00">AudioBuffer</text>
<text text-anchor="start" x="118.5" y="-580" font-family="Helvetica,sans-Serif" font-size="10.00">#</text>
<text text-anchor="start" x="131.5" y="-580" font-family="Helvetica,sans-Serif" font-size="10.00">m_channel_id</text>
<text text-anchor="start" x="118.5" y="-565" font-family="Helvetica,sans-Serif" font-size="10.00">#</text>
<text text-anchor="start" x="131.5" y="-565" font-family="Helvetica,sans-Serif" font-size="10.00">m_data</text>
<text text-anchor="start" x="118.5" y="-550" font-family="Helvetica,sans-Serif" font-size="10.00">#</text>
<text text-anchor="start" x="131.5" y="-550" font-family="Helvetica,sans-Serif" font-size="10.00">m_default_processor</text>
<text text-anchor="start" x="118.5" y="-535" font-family="Helvetica,sans-Serif" font-size="10.00">#</text>
<text text-anchor="start" x="131.5" y="-535" font-family="Helvetica,sans-Serif" font-size="10.00">m_has_data</text>
<text text-anchor="start" x="118.5" y="-520" font-family="Helvetica,sans-Serif" font-size="10.00">#</text>
<text text-anchor="start" x="131.5" y="-520" font-family="Helvetica,sans-Serif" font-size="10.00">m_num_samples</text>
<text text-anchor="start" x="118.5" y="-505" font-family="Helvetica,sans-Serif" font-size="10.00">#</text>
<text text-anchor="start" x="131.5" y="-505" font-family="Helvetica,sans-Serif" font-size="10.00">m_process_default</text>
<text text-anchor="start" x="118.5" y="-490" font-family="Helvetica,sans-Serif" font-size="10.00">#</text>
<text text-anchor="start" x="131.5" y="-490" font-family="Helvetica,sans-Serif" font-size="10.00">m_processing_chain</text>
<text text-anchor="start" x="118.5" y="-475" font-family="Helvetica,sans-Serif" font-size="10.00">#</text>
<text text-anchor="start" x="131.5" y="-475" font-family="Helvetica,sans-Serif" font-size="10.00">m_should_remove</text>
<text text-anchor="start" x="121" y="-460" font-family="Helvetica,sans-Serif" font-size="10.00">&#45;</text>
<text text-anchor="start" x="131.5" y="-460" font-family="Helvetica,sans-Serif" font-size="10.00">m_internal_usage</text>
<text text-anchor="start" x="121" y="-445" font-family="Helvetica,sans-Serif" font-size="10.00">&#45;</text>
<text text-anchor="start" x="131.5" y="-445" font-family="Helvetica,sans-Serif" font-size="10.00">m_is_processing</text>
<text text-anchor="start" x="118.5" y="-430" font-family="Helvetica,sans-Serif" font-size="10.00">+</text>
<text text-anchor="start" x="131.5" y="-430" font-family="Helvetica,sans-Serif" font-size="10.00">AudioBuffer()</text>
<text text-anchor="start" x="118.5" y="-415" font-family="Helvetica,sans-Serif" font-size="10.00">+</text>
<text text-anchor="start" x="131.5" y="-415" font-family="Helvetica,sans-Serif" font-size="10.00">AudioBuffer()</text>
<text text-anchor="start" x="118.5" y="-400" font-family="Helvetica,sans-Serif" font-size="10.00">+</text>
<text text-anchor="start" x="131.5" y="-400" font-family="Helvetica,sans-Serif" font-size="10.00">clear()</text>
<text text-anchor="start" x="118.5" y="-385" font-family="Helvetica,sans-Serif" font-size="10.00">+</text>
<text text-anchor="start" x="131.5" y="-385" font-family="Helvetica,sans-Serif" font-size="10.00">clone_to()</text>
<text text-anchor="start" x="118.5" y="-370" font-family="Helvetica,sans-Serif" font-size="10.00">+</text>
<text text-anchor="start" x="131.5" y="-370" font-family="Helvetica,sans-Serif" font-size="10.00">clone_to()</text>
<text text-anchor="start" x="118.5" y="-355" font-family="Helvetica,sans-Serif" font-size="10.00">+</text>
<text text-anchor="start" x="131.5" y="-355" font-family="Helvetica,sans-Serif" font-size="10.00">enforce_default_processing()</text>
<text text-anchor="start" x="118.5" y="-340" font-family="Helvetica,sans-Serif" font-size="10.00">+</text>
<text text-anchor="start" x="131.5" y="-340" font-family="Helvetica,sans-Serif" font-size="10.00">force_internal_usage()</text>
<text text-anchor="start" x="118.5" y="-325" font-family="Helvetica,sans-Serif" font-size="10.00">+</text>
<text text-anchor="start" x="131.5" y="-325" font-family="Helvetica,sans-Serif" font-size="10.00">get_channel_id()</text>
<text text-anchor="start" x="118.5" y="-310" font-family="Helvetica,sans-Serif" font-size="10.00">+</text>
<text text-anchor="start" x="131.5" y="-310" font-family="Helvetica,sans-Serif" font-size="10.00">get_data()</text>
<text text-anchor="start" x="118.5" y="-295" font-family="Helvetica,sans-Serif" font-size="10.00">+</text>
<text text-anchor="start" x="131.5" y="-295" font-family="Helvetica,sans-Serif" font-size="10.00">get_data()</text>
<text text-anchor="start" x="131.5" y="-280" font-family="Helvetica,sans-Serif" font-size="10.00">and 26 more...</text>
<text text-anchor="start" x="118.5" y="-265" font-family="Helvetica,sans-Serif" font-size="10.00">#</text>
<text text-anchor="start" x="131.5" y="-265" font-family="Helvetica,sans-Serif" font-size="10.00">create_default_processor()</text>
<polygon fill="#666666" stroke="#666666" points="114.5,-590 114.5,-590 277.5,-590 277.5,-590 114.5,-590"/>
<polygon fill="#666666" stroke="#666666" points="114.5,-440 114.5,-440 129.5,-440 129.5,-440 114.5,-440"/>
<polygon fill="#666666" stroke="#666666" points="129.5,-440 129.5,-440 277.5,-440 277.5,-440 129.5,-440"/>
<polygon fill="none" stroke="#666666" points="114,-258 114,-618 277,-618 277,-258 114,-258"/>
</a>
</g>
</g>
<!-- Node2&#45;&gt;Node1 -->
<g id="edge1_Node000001_Node000002" class="edge">
<title>Node2&#45;&gt;Node1</title>
<g id="a_edge1_Node000001_Node000002"><a xlink:title=" ">
<path fill="none" stroke="#63b8ff" d="M195.5,-247.47C195.5,-238.54 195.5,-229.72 195.5,-221.13"/>
<polygon fill="none" stroke="#63b8ff" points="192,-247.59 195.5,-257.59 199,-247.59 192,-247.59"/>
</a>
</g>
</g>
<!-- Node3 -->
<g id="Node000003" class="node">
<title>Node3</title>
<g id="a_Node000003"><a xlink:href="classMayaFlux_1_1Buffers_1_1Buffer.html" target="_top" xlink:title="Backend&#45;agnostic interface for sequential data storage and transformation.">
<polygon fill="white" stroke="transparent" points="163,-875 0,-875 0,-665 163,-665 163,-875"/>
<text text-anchor="start" x="34.5" y="-863" font-family="Helvetica,sans-Serif" font-size="10.00">MayaFlux::Buffers::</text>
<text text-anchor="start" x="67" y="-852" font-family="Helvetica,sans-Serif" font-size="10.00">Buffer</text>
<text text-anchor="start" x="80" y="-837" font-family="Helvetica,sans-Serif" font-size="10.00"> </text>
<text text-anchor="start" x="4.5" y="-822" font-family="Helvetica,sans-Serif" font-size="10.00">+</text>
<text text-anchor="start" x="17.5" y="-822" font-family="Helvetica,sans-Serif" font-size="10.00">clear()</text>
<text text-anchor="start" x="4.5" y="-807" font-family="Helvetica,sans-Serif" font-size="10.00">+</text>
<text text-anchor="start" x="17.5" y="-807" font-family="Helvetica,sans-Serif" font-size="10.00">clone_to()</text>
<text text-anchor="start" x="4.5" y="-792" font-family="Helvetica,sans-Serif" font-size="10.00">+</text>
<text text-anchor="start" x="17.5" y="-792" font-family="Helvetica,sans-Serif" font-size="10.00">enforce_default_processing()</text>
<text text-anchor="start" x="4.5" y="-777" font-family="Helvetica,sans-Serif" font-size="10.00">+</text>
<text text-anchor="start" x="17.5" y="-777" font-family="Helvetica,sans-Serif" font-size="10.00">force_internal_usage()</text>
<text text-anchor="start" x="4.5" y="-762" font-family="Helvetica,sans-Serif" font-size="10.00">+</text>
<text text-anchor="start" x="17.5" y="-762" font-family="Helvetica,sans-Serif" font-size="10.00">get_default_processor()</text>
<text text-anchor="start" x="4.5" y="-747" font-family="Helvetica,sans-Serif" font-size="10.00">+</text>
<text text-anchor="start" x="17.5" y="-747" font-family="Helvetica,sans-Serif" font-size="10.00">get_processing_chain()</text>
<text text-anchor="start" x="4.5" y="-732" font-family="Helvetica,sans-Serif" font-size="10.00">+</text>
<text text-anchor="start" x="17.5" y="-732" font-family="Helvetica,sans-Serif" font-size="10.00">has_data_for_cycle()</text>
<text text-anchor="start" x="4.5" y="-717" font-family="Helvetica,sans-Serif" font-size="10.00">+</text>
<text text-anchor="start" x="17.5" y="-717" font-family="Helvetica,sans-Serif" font-size="10.00">is_internal_only()</text>
<text text-anchor="start" x="4.5" y="-702" font-family="Helvetica,sans-Serif" font-size="10.00">+</text>
<text text-anchor="start" x="17.5" y="-702" font-family="Helvetica,sans-Serif" font-size="10.00">is_processing()</text>
<text text-anchor="start" x="4.5" y="-687" font-family="Helvetica,sans-Serif" font-size="10.00">+</text>
<text text-anchor="start" x="17.5" y="-687" font-family="Helvetica,sans-Serif" font-size="10.00">mark_for_processing()</text>
<text text-anchor="start" x="17.5" y="-672" font-family="Helvetica,sans-Serif" font-size="10.00">and 9 more...</text>
<polygon fill="#666666" stroke="#666666" points="0.5,-847 0.5,-847 163.5,-847 163.5,-847 0.5,-847"/>
<polygon fill="#666666" stroke="#666666" points="0.5,-832 0.5,-832 163.5,-832 163.5,-832 0.5,-832"/>
<polygon fill="none" stroke="#666666" points="0,-665 0,-875 163,-875 163,-665 0,-665"/>
</a>
</g>
</g>
<!-- Node3&#45;&gt;Node2 -->
<g id="edge2_Node000002_Node000003" class="edge">
<title>Node3&#45;&gt;Node2</title>
<g id="a_edge2_Node000002_Node000003"><a xlink:title=" ">
<path fill="none" stroke="#63b8ff" d="M120.86,-655.05C125.01,-643.04 129.3,-630.64 133.62,-618.12"/>
<polygon fill="none" stroke="#63b8ff" points="117.53,-653.99 117.57,-664.59 124.14,-656.28 117.53,-653.99"/>
</a>
</g>
</g>
<!-- Node4 -->
<g id="Node000004" class="node">
<title>Node4</title>
<g id="a_Node000004"><a xlink:title=" ">
<polygon fill="white" stroke="transparent" points="138.5,-972 24.5,-972 24.5,-912 138.5,-912 138.5,-972"/>
<text text-anchor="start" x="29.5" y="-960" font-family="Helvetica,sans-Serif" font-size="10.00">std::enable_shared</text>
<text text-anchor="start" x="29.5" y="-949" font-family="Helvetica,sans-Serif" font-size="10.00">_from_this&lt; Buffer &gt;</text>
<text text-anchor="start" x="79.5" y="-934" font-family="Helvetica,sans-Serif" font-size="10.00"> </text>
<text text-anchor="start" x="79.5" y="-919" font-family="Helvetica,sans-Serif" font-size="10.00"> </text>
<polygon fill="#666666" stroke="#666666" points="24.5,-944 24.5,-944 138.5,-944 138.5,-944 24.5,-944"/>
<polygon fill="#666666" stroke="#666666" points="24.5,-929 24.5,-929 138.5,-929 138.5,-929 24.5,-929"/>
<polygon fill="none" stroke="#666666" points="24.5,-912 24.5,-972 138.5,-972 138.5,-912 24.5,-912"/>
</a>
</g>
</g>
<!-- Node4&#45;&gt;Node3 -->
<g id="edge3_Node000003_Node000004" class="edge">
<title>Node4&#45;&gt;Node3</title>
<g id="a_edge3_Node000003_Node000004"><a xlink:title=" ">
<path fill="none" stroke="#63b8ff" d="M81.5,-901.52C81.5,-893.33 81.5,-884.35 81.5,-875.05"/>
<polygon fill="none" stroke="#63b8ff" points="78,-901.78 81.5,-911.78 85,-901.78 78,-901.78"/>
</a>
</g>
</g>
<!-- Node5 -->
<g id="Node000005" class="node">
<title>Node5</title>
<g id="a_Node000005"><a xlink:href="structMayaFlux_1_1Buffers_1_1BufferRoutingState.html" target="_top" xlink:title="Represents the state of routing transitions for a buffer.">
<polygon fill="white" stroke="transparent" points="286,-845 181,-845 181,-695 286,-695 286,-845"/>
<text text-anchor="start" x="186.5" y="-833" font-family="Helvetica,sans-Serif" font-size="10.00">MayaFlux::Buffers::</text>
<text text-anchor="start" x="187.5" y="-822" font-family="Helvetica,sans-Serif" font-size="10.00">BufferRoutingState</text>
<text text-anchor="start" x="187.5" y="-807" font-family="Helvetica,sans-Serif" font-size="10.00">+</text>
<text text-anchor="start" x="202.5" y="-807" font-family="Helvetica,sans-Serif" font-size="10.00">cycles_elapsed</text>
<text text-anchor="start" x="187.5" y="-792" font-family="Helvetica,sans-Serif" font-size="10.00">+</text>
<text text-anchor="start" x="202.5" y="-792" font-family="Helvetica,sans-Serif" font-size="10.00">fade_cycles</text>
<text text-anchor="start" x="187.5" y="-777" font-family="Helvetica,sans-Serif" font-size="10.00">+</text>
<text text-anchor="start" x="202.5" y="-777" font-family="Helvetica,sans-Serif" font-size="10.00">from_amount</text>
<text text-anchor="start" x="187.5" y="-762" font-family="Helvetica,sans-Serif" font-size="10.00">+</text>
<text text-anchor="start" x="202.5" y="-762" font-family="Helvetica,sans-Serif" font-size="10.00">from_channel</text>
<text text-anchor="start" x="187.5" y="-747" font-family="Helvetica,sans-Serif" font-size="10.00">+</text>
<text text-anchor="start" x="202.5" y="-747" font-family="Helvetica,sans-Serif" font-size="10.00">NONE</text>
<text text-anchor="start" x="187.5" y="-732" font-family="Helvetica,sans-Serif" font-size="10.00">+</text>
<text text-anchor="start" x="202.5" y="-732" font-family="Helvetica,sans-Serif" font-size="10.00">to_amount</text>
<text text-anchor="start" x="187.5" y="-717" font-family="Helvetica,sans-Serif" font-size="10.00">+</text>
<text text-anchor="start" x="202.5" y="-717" font-family="Helvetica,sans-Serif" font-size="10.00">to_channel</text>
<text text-anchor="start" x="232" y="-702" font-family="Helvetica,sans-Serif" font-size="10.00"> </text>
<polygon fill="#666666" stroke="#666666" points="181.5,-817 181.5,-817 286.5,-817 286.5,-817 181.5,-817"/>
<polygon fill="#666666" stroke="#666666" points="181.5,-712 181.5,-712 200.5,-712 200.5,-712 181.5,-712"/>
<polygon fill="#666666" stroke="#666666" points="200.5,-712 200.5,-712 286.5,-712 286.5,-712 200.5,-712"/>
<polygon fill="none" stroke="#666666" points="181,-695 181,-845 286,-845 286,-695 181,-695"/>
</a>
</g>
</g>
<!-- Node5&#45;&gt;Node2 -->
<g id="edge4_Node000002_Node000005" class="edge">
<title>Node5&#45;&gt;Node2</title>
<g id="a_edge4_Node000002_Node000005"><a xlink:title=" ">
<path fill="none" stroke="#63b8ff" d="M224.97,-694.94C222.71,-675.28 220.16,-653.11 217.52,-630.26"/>
<polygon fill="none" stroke="#63b8ff" points="217.51,-630.17 212.85,-624.67 216.14,-618.25 220.8,-623.75 217.51,-630.17"/>
</a>
</g>
<text text-anchor="middle" x="264" y="-639" font-family="Helvetica,sans-Serif" font-size="10.00" fill="grey"> #m_routing_state</text>
</g>
</g>
</svg>

<g id="navigator" transform="translate(0 0)" fill="#404254">
  <rect fill="#f2f5e9" fill-opacity="0.5" stroke="#606060" stroke-width=".5" x="0" y="0" width="60" height="60"/>
  <use id="zoomplus" xlink:href="#zoomPlus" x="17" y="9" onmousedown="handleZoom(evt,'in')"/>
  <use id="zoomminus" xlink:href="#zoomMin" x="42" y="9" onmousedown="handleZoom(evt,'out')"/>
  <use id="reset" xlink:href="#resetDef" x="30" y="36" onmousedown="handleReset()"/>
   <use id="arrowup" xlink:href="#arrowUp" x="0" y="0" onmousedown="handlePan(0,-1)"/>
  <use id="arrowright" xlink:href="#arrowRight" x="0" y="0" onmousedown="handlePan(1,0)"/>
  <use id="arrowdown" xlink:href="#arrowDown" x="0" y="0" onmousedown="handlePan(0,1)"/>
  <use id="arrowleft" xlink:href="#arrowLeft" x="0" y="0" onmousedown="handlePan(-1,0)"/>
</g>
<svg viewBox="0 0 15 15" width="100%" height="30px" preserveAspectRatio="xMaxYMin meet">
 <g id="arrow_out" transform="scale(0.3 0.3)">
  <a xlink:href="classMayaFlux_1_1Buffers_1_1SoundContainerBuffer__coll__graph_org.svg" target="_base">
   <rect id="button" ry="5" rx="5" y="6" x="6" height="38" width="38"
        fill="#f2f5e9" fill-opacity="0.5" stroke="#606060" stroke-width="1.0"/>
   <path id="arrow"
     d="M 11.500037,31.436501 C 11.940474,20.09759 22.043105,11.32322 32.158766,21.979434 L 37.068811,17.246167 C 37.068811,17.246167 37.088388,32 37.088388,32 L 22.160133,31.978069 C 22.160133,31.978069 26.997745,27.140456 26.997745,27.140456 C 18.528582,18.264221 13.291696,25.230495 11.500037,31.436501 z"
     style="fill:#404040;"/>
  </a>
 </g>
</svg>

<style type='text/css'>
<![CDATA[
[data-mouse-over-selected='false'] { opacity: 0.7; }
[data-mouse-over-selected='true']  { opacity: 1.0; }
]]>
</style>
<script type="application/ecmascript"><![CDATA[
document.addEventListener('DOMContentLoaded', (event) => {
  highlightEdges();
  highlightAdjacentNodes();
});
]]></script>
</svg>
