<?xml version="1.0" encoding="UTF-8" standalone="no"?>
<!DOCTYPE svg PUBLIC "-//W3C//DTD SVG 1.1//EN"
 "http://www.w3.org/Graphics/SVG/1.1/DTD/svg11.dtd">
<!-- Generated by graphviz version 2.43.0 (0)
 -->
<!-- Title: MayaFlux::Yantra::StatisticalAnalyzer::create_analysis_result Pages: 1 -->
<svg width="538pt" height="416pt"
 viewBox="0.00 0.00 538.00 416.00" xmlns="http://www.w3.org/2000/svg" xmlns:xlink="http://www.w3.org/1999/xlink">
<g id="graph0" class="graph" transform="scale(1 1) rotate(0) translate(4 412)">
<title>MayaFlux::Yantra::StatisticalAnalyzer::create_analysis_result</title>
<!-- Node1 -->
<g id="Node000001" class="node">
<title>Node1</title>
<g id="a_Node000001"><a xlink:title="Create comprehensive analysis result.">
<polygon fill="#999999" stroke="#666666" points="175,-228 0,-228 0,-198 175,-198 175,-228"/>
<text text-anchor="start" x="8" y="-216" font-family="Helvetica,sans-Serif" font-size="10.00">MayaFlux::Yantra::Statistical</text>
<text text-anchor="middle" x="87.5" y="-205" font-family="Helvetica,sans-Serif" font-size="10.00">Analyzer::create_analysis_result</text>
</a>
</g>
</g>
<!-- Node2 -->
<g id="Node000002" class="node">
<title>Node2</title>
<g id="a_Node000002"><a xlink:href="classMayaFlux_1_1Yantra_1_1StatisticalAnalyzer_aa92f02e82b3882b49a1465323d33a540.html#aa92f02e82b3882b49a1465323d33a540" target="_top" xlink:title="Classify statistical value qualitatively.">
<polygon fill="white" stroke="#666666" points="396,-408 211,-408 211,-378 396,-378 396,-408"/>
<text text-anchor="start" x="219" y="-396" font-family="Helvetica,sans-Serif" font-size="10.00">MayaFlux::Yantra::Statistical</text>
<text text-anchor="middle" x="303.5" y="-385" font-family="Helvetica,sans-Serif" font-size="10.00">Analyzer::classify_statistical_level</text>
</a>
</g>
</g>
<!-- Node1&#45;&gt;Node2 -->
<g id="edge1_Node000001_Node000002" class="edge">
<title>Node1&#45;&gt;Node2</title>
<g id="a_edge1_Node000001_Node000002"><a xlink:title=" ">
<path fill="none" stroke="#63b8ff" d="M95.98,-228.11C112.32,-259.46 154.29,-331.78 211,-369 213.45,-370.61 215.99,-372.1 218.62,-373.5"/>
<polygon fill="#63b8ff" stroke="#63b8ff" points="217.27,-376.73 227.8,-377.88 220.28,-370.42 217.27,-376.73"/>
</a>
</g>
</g>
<!-- Node3 -->
<g id="Node000003" class="node">
<title>Node3</title>
<g id="a_Node000003"><a xlink:href="namespaceMayaFlux_1_1Kinesis_1_1Discrete_ad5688f2a766f5ba58a2bd6a00d5134f2.html#ad5688f2a766f5ba58a2bd6a00d5134f2" target="_top" xlink:title="Excess kurtosis (fourth central moment &#45; 3) per window.">
<polygon fill="white" stroke="#666666" points="359.5,-342 247.5,-342 247.5,-312 359.5,-312 359.5,-342"/>
<text text-anchor="start" x="255.5" y="-330" font-family="Helvetica,sans-Serif" font-size="10.00">MayaFlux::Kinesis::</text>
<text text-anchor="middle" x="303.5" y="-319" font-family="Helvetica,sans-Serif" font-size="10.00">Discrete::kurtosis</text>
</a>
</g>
</g>
<!-- Node1&#45;&gt;Node3 -->
<g id="edge2_Node000001_Node000003" class="edge">
<title>Node1&#45;&gt;Node3</title>
<g id="a_edge2_Node000001_Node000003"><a xlink:title=" ">
<path fill="none" stroke="#63b8ff" d="M104.63,-228.02C126.9,-247.96 169.08,-283 211,-303 219.27,-306.95 228.29,-310.31 237.33,-313.16"/>
<polygon fill="#63b8ff" stroke="#63b8ff" points="236.53,-316.58 247.11,-316.06 238.52,-309.87 236.53,-316.58"/>
</a>
</g>
</g>
<!-- Node4 -->
<g id="Node000004" class="node">
<title>Node4</title>
<g id="a_Node000004"><a xlink:href="namespaceMayaFlux_1_1Kinesis_1_1Discrete_af50196710c144f7ee6c4ab9201202438.html#af50196710c144f7ee6c4ab9201202438" target="_top" xlink:title="Arithmetic mean per window.">
<polygon fill="white" stroke="#666666" points="359.5,-294 247.5,-294 247.5,-264 359.5,-264 359.5,-294"/>
<text text-anchor="start" x="255.5" y="-282" font-family="Helvetica,sans-Serif" font-size="10.00">MayaFlux::Kinesis::</text>
<text text-anchor="middle" x="303.5" y="-271" font-family="Helvetica,sans-Serif" font-size="10.00">Discrete::mean</text>
</a>
</g>
</g>
<!-- Node1&#45;&gt;Node4 -->
<g id="edge4_Node000001_Node000004" class="edge">
<title>Node1&#45;&gt;Node4</title>
<g id="a_edge4_Node000001_Node000004"><a xlink:title=" ">
<path fill="none" stroke="#63b8ff" d="M129.93,-228.05C153.54,-236.42 183.77,-246.77 211,-255 219.45,-257.55 228.39,-260.09 237.24,-262.51"/>
<polygon fill="#63b8ff" stroke="#63b8ff" points="236.59,-265.96 247.16,-265.19 238.41,-259.2 236.59,-265.96"/>
</a>
</g>
</g>
<!-- Node6 -->
<g id="Node000006" class="node">
<title>Node6</title>
<g id="a_Node000006"><a xlink:href="namespaceMayaFlux_1_1Kinesis_1_1Discrete_adc3aa51d991e9b20ca3558ef96104395.html#adc3aa51d991e9b20ca3558ef96104395" target="_top" xlink:title="Median per window via nth_element partial sort.">
<polygon fill="white" stroke="#666666" points="359.5,-228 247.5,-228 247.5,-198 359.5,-198 359.5,-228"/>
<text text-anchor="start" x="255.5" y="-216" font-family="Helvetica,sans-Serif" font-size="10.00">MayaFlux::Kinesis::</text>
<text text-anchor="middle" x="303.5" y="-205" font-family="Helvetica,sans-Serif" font-size="10.00">Discrete::median</text>
</a>
</g>
</g>
<!-- Node1&#45;&gt;Node6 -->
<g id="edge6_Node000001_Node000006" class="edge">
<title>Node1&#45;&gt;Node6</title>
<g id="a_edge6_Node000001_Node000006"><a xlink:title=" ">
<path fill="none" stroke="#63b8ff" d="M175.23,-213C195.95,-213 217.72,-213 237.28,-213"/>
<polygon fill="#63b8ff" stroke="#63b8ff" points="237.3,-216.5 247.3,-213 237.3,-209.5 237.3,-216.5"/>
</a>
</g>
</g>
<!-- Node7 -->
<g id="Node000007" class="node">
<title>Node7</title>
<g id="a_Node000007"><a xlink:href="namespaceMayaFlux_1_1Kinesis_1_1Discrete_a7ebb649b9b72051f03813a079ebd6739.html#a7ebb649b9b72051f03813a079ebd6739" target="_top" xlink:title="Arbitrary percentile per window via linear interpolation.">
<polygon fill="white" stroke="#666666" points="359.5,-162 247.5,-162 247.5,-132 359.5,-132 359.5,-162"/>
<text text-anchor="start" x="255.5" y="-150" font-family="Helvetica,sans-Serif" font-size="10.00">MayaFlux::Kinesis::</text>
<text text-anchor="middle" x="303.5" y="-139" font-family="Helvetica,sans-Serif" font-size="10.00">Discrete::percentile</text>
</a>
</g>
</g>
<!-- Node1&#45;&gt;Node7 -->
<g id="edge8_Node000001_Node000007" class="edge">
<title>Node1&#45;&gt;Node7</title>
<g id="a_edge8_Node000001_Node000007"><a xlink:title=" ">
<path fill="none" stroke="#63b8ff" d="M137.33,-197.94C168.99,-188.18 210.42,-175.4 243.86,-165.09"/>
<polygon fill="#63b8ff" stroke="#63b8ff" points="244.99,-168.4 253.51,-162.11 242.92,-161.71 244.99,-168.4"/>
</a>
</g>
</g>
<!-- Node8 -->
<g id="Node000008" class="node">
<title>Node8</title>
<g id="a_Node000008"><a xlink:href="namespaceMayaFlux_1_1Kinesis_1_1Discrete_ac8865896dfed30eea2b98dce0739b8e2.html#ac8865896dfed30eea2b98dce0739b8e2" target="_top" xlink:title="Skewness (standardised third central moment) per window.">
<polygon fill="white" stroke="#666666" points="359.5,-96 247.5,-96 247.5,-66 359.5,-66 359.5,-96"/>
<text text-anchor="start" x="255.5" y="-84" font-family="Helvetica,sans-Serif" font-size="10.00">MayaFlux::Kinesis::</text>
<text text-anchor="middle" x="303.5" y="-73" font-family="Helvetica,sans-Serif" font-size="10.00">Discrete::skewness</text>
</a>
</g>
</g>
<!-- Node1&#45;&gt;Node8 -->
<g id="edge10_Node000001_Node000008" class="edge">
<title>Node1&#45;&gt;Node8</title>
<g id="a_edge10_Node000001_Node000008"><a xlink:title=" ">
<path fill="none" stroke="#63b8ff" d="M106.78,-197.73C130.03,-178.74 171.88,-146.02 211,-123 225.09,-114.71 241.09,-106.87 255.73,-100.26"/>
<polygon fill="#63b8ff" stroke="#63b8ff" points="257.4,-103.35 265.12,-96.1 254.56,-96.95 257.4,-103.35"/>
</a>
</g>
</g>
<!-- Node9 -->
<g id="Node000009" class="node">
<title>Node9</title>
<g id="a_Node000009"><a xlink:href="namespaceMayaFlux_1_1Kinesis_1_1Discrete_a8f1992da8fa3cd5bf5fc140998b5137a.html#a8f1992da8fa3cd5bf5fc140998b5137a" target="_top" xlink:title="Variance per window.">
<polygon fill="white" stroke="#666666" points="359.5,-30 247.5,-30 247.5,0 359.5,0 359.5,-30"/>
<text text-anchor="start" x="255.5" y="-18" font-family="Helvetica,sans-Serif" font-size="10.00">MayaFlux::Kinesis::</text>
<text text-anchor="middle" x="303.5" y="-7" font-family="Helvetica,sans-Serif" font-size="10.00">Discrete::variance</text>
</a>
</g>
</g>
<!-- Node1&#45;&gt;Node9 -->
<g id="edge12_Node000001_Node000009" class="edge">
<title>Node1&#45;&gt;Node9</title>
<g id="a_edge12_Node000001_Node000009"><a xlink:title=" ">
<path fill="none" stroke="#63b8ff" d="M97.07,-197.73C114.8,-167.33 158.27,-98.58 211,-57 222.38,-48.03 235.98,-40.47 249.17,-34.34"/>
<polygon fill="#63b8ff" stroke="#63b8ff" points="250.94,-37.38 258.67,-30.13 248.11,-30.98 250.94,-37.38"/>
</a>
</g>
</g>
<!-- Node3&#45;&gt;Node3 -->
<g id="edge3_Node000003_Node000003" class="edge">
<title>Node3&#45;&gt;Node3</title>
<g id="a_edge3_Node000003_Node000003"><a xlink:title=" ">
<path fill="none" stroke="#63b8ff" d="M272.56,-342.28C265.69,-351.41 276,-360 303.5,-360 319.83,-360 330.1,-356.97 334.31,-352.6"/>
<polygon fill="#63b8ff" stroke="#63b8ff" points="337.81,-352.32 334.44,-342.28 330.81,-352.23 337.81,-352.32"/>
</a>
</g>
</g>
<!-- Node5 -->
<g id="Node000005" class="node">
<title>Node5</title>
<g id="a_Node000005"><a xlink:href="namespaceMayaFlux_ad2f0572dfef62bb7629c7ef74ff29449.html#ad2f0572dfef62bb7629c7ef74ff29449" target="_top" xlink:title="Calculate mean of single&#45;channel data.">
<polygon fill="white" stroke="#666666" points="530,-288.5 432,-288.5 432,-269.5 530,-269.5 530,-288.5"/>
<text text-anchor="middle" x="481" y="-276.5" font-family="Helvetica,sans-Serif" font-size="10.00">MayaFlux::mean</text>
</a>
</g>
</g>
<!-- Node4&#45;&gt;Node5 -->
<g id="edge5_Node000004_Node000005" class="edge">
<title>Node4&#45;&gt;Node5</title>
<g id="a_edge5_Node000004_Node000005"><a xlink:title=" ">
<path fill="none" stroke="#63b8ff" d="M359.55,-279C379.32,-279 401.68,-279 421.72,-279"/>
<polygon fill="#63b8ff" stroke="#63b8ff" points="421.96,-282.5 431.96,-279 421.96,-275.5 421.96,-282.5"/>
</a>
</g>
</g>
<!-- Node6&#45;&gt;Node6 -->
<g id="edge7_Node000006_Node000006" class="edge">
<title>Node6&#45;&gt;Node6</title>
<g id="a_edge7_Node000006_Node000006"><a xlink:title=" ">
<path fill="none" stroke="#63b8ff" d="M272.56,-228.28C265.69,-237.41 276,-246 303.5,-246 319.83,-246 330.1,-242.97 334.31,-238.6"/>
<polygon fill="#63b8ff" stroke="#63b8ff" points="337.81,-238.32 334.44,-228.28 330.81,-238.23 337.81,-238.32"/>
</a>
</g>
</g>
<!-- Node7&#45;&gt;Node7 -->
<g id="edge9_Node000007_Node000007" class="edge">
<title>Node7&#45;&gt;Node7</title>
<g id="a_edge9_Node000007_Node000007"><a xlink:title=" ">
<path fill="none" stroke="#63b8ff" d="M272.56,-162.28C265.69,-171.41 276,-180 303.5,-180 319.83,-180 330.1,-176.97 334.31,-172.6"/>
<polygon fill="#63b8ff" stroke="#63b8ff" points="337.81,-172.32 334.44,-162.28 330.81,-172.23 337.81,-172.32"/>
</a>
</g>
</g>
<!-- Node8&#45;&gt;Node8 -->
<g id="edge11_Node000008_Node000008" class="edge">
<title>Node8&#45;&gt;Node8</title>
<g id="a_edge11_Node000008_Node000008"><a xlink:title=" ">
<path fill="none" stroke="#63b8ff" d="M272.56,-96.28C265.69,-105.41 276,-114 303.5,-114 319.83,-114 330.1,-110.97 334.31,-106.6"/>
<polygon fill="#63b8ff" stroke="#63b8ff" points="337.81,-106.32 334.44,-96.28 330.81,-106.23 337.81,-106.32"/>
</a>
</g>
</g>
<!-- Node9&#45;&gt;Node9 -->
<g id="edge13_Node000009_Node000009" class="edge">
<title>Node9&#45;&gt;Node9</title>
<g id="a_edge13_Node000009_Node000009"><a xlink:title=" ">
<path fill="none" stroke="#63b8ff" d="M272.56,-30.28C265.69,-39.41 276,-48 303.5,-48 319.83,-48 330.1,-44.97 334.31,-40.6"/>
<polygon fill="#63b8ff" stroke="#63b8ff" points="337.81,-40.32 334.44,-30.28 330.81,-40.23 337.81,-40.32"/>
</a>
</g>
</g>
</g>
</svg>
