<?xml version="1.0" encoding="UTF-8" standalone="no"?>
<!DOCTYPE svg PUBLIC "-//W3C//DTD SVG 1.1//EN"
 "http://www.w3.org/Graphics/SVG/1.1/DTD/svg11.dtd">
<!-- Generated by graphviz version 2.43.0 (0)
 -->
<!-- Title: MayaFlux::Portal::Graphics::ShaderFoundry::shutdown Pages: 1 -->
<!--zoomable 226 -->

<svg id="main" version="1.1" xmlns="http://www.w3.org/2000/svg" xmlns:xlink="http://www.w3.org/1999/xlink" xml:space="preserve" onload="init(evt)">
<style type="text/css"><![CDATA[
.node, .edge {opacity: 0.7;}
.node.selected, .edge.selected {opacity: 1;}
.edge:hover path { stroke: red; }
.edge:hover polygon { stroke: red; fill: red; }
]]></style>

<defs>
  <circle id="rim" cx="0" cy="0" r="7"/>
  <circle id="rim2" cx="0" cy="0" r="3.5"/>
  <g id="zoomPlus">
    <use xlink:href="#rim" fill="#404040"><set attributeName="fill" to="#808080" begin="zoomplus.mouseover" end="zoomplus.mouseout"/></use>
    <path d="M-4,0h8M0,-4v8" fill="none" stroke="white" stroke-width="1.5" pointer-events="none"/>
  </g>
  <g id="zoomMin">
    <use xlink:href="#rim" fill="#404040"><set attributeName="fill" to="#808080" begin="zoomminus.mouseover" end="zoomminus.mouseout"/></use>
    <path d="M-4,0h8" fill="none" stroke="white" stroke-width="1.5" pointer-events="none"/>
  </g>
  <g id="arrowUp" transform="translate(30 24)">
    <use xlink:href="#rim"/>
    <path pointer-events="none" fill="none" stroke="white" stroke-width="1.5" d="M0,-3.0v7 M-2.5,-0.5L0,-3.0L2.5,-0.5"/>
  </g>
  <g id="arrowRight" transform="rotate(90) translate(36 -43)">
    <use xlink:href="#rim"/>
    <path pointer-events="none" fill="none" stroke="white" stroke-width="1.5" d="M0,-3.0v7 M-2.5,-0.5L0,-3.0L2.5,-0.5"/>
  </g>
  <g id="arrowDown" transform="rotate(180) translate(-30 -48)">
    <use xlink:href="#rim"/>
    <path pointer-events="none" fill="none" stroke="white" stroke-width="1.5" d="M0,-3.0v7 M-2.5,-0.5L0,-3.0L2.5,-0.5"/>
  </g>
  <g id="arrowLeft" transform="rotate(270) translate(-36 17)">
    <use xlink:href="#rim"/>
    <path pointer-events="none" fill="none" stroke="white" stroke-width="1.5" d="M0,-3.0v7 M-2.5,-0.5L0,-3.0L2.5,-0.5"/>
  </g>
  <g id="resetDef">
    <use xlink:href="#rim2" fill="#404040"><set attributeName="fill" to="#808080" begin="reset.mouseover" end="reset.mouseout"/></use>
  </g>
</defs>
<script type="application/ecmascript">
var viewWidth = 530;
var viewHeight = 226;
var sectionId = 'dynsection-0';
</script>
<script type="application/ecmascript" xlink:href="svg.min.js"/>
<svg id="graph" class="graph">
<g id="viewport">
<title>MayaFlux::Portal::Graphics::ShaderFoundry::shutdown</title>
<!-- Node1 -->
<g id="Node000001" class="node">
<title>Node1</title>
<g id="a_Node000001"><a xlink:title="Shutdown and cleanup all ShaderFoundry resources.">
<polygon fill="#999999" stroke="#666666" points="148,-123.5 0,-123.5 0,-93.5 148,-93.5 148,-123.5"/>
<text text-anchor="start" x="8" y="-111.5" font-family="Helvetica,sans-Serif" font-size="10.00">MayaFlux::Portal::Graphics</text>
<text text-anchor="middle" x="74" y="-100.5" font-family="Helvetica,sans-Serif" font-size="10.00">::ShaderFoundry::shutdown</text>
</a>
</g>
</g>
<!-- Node2 -->
<g id="Node000002" class="node">
<title>Node2</title>
<g id="a_Node000002"><a xlink:href="classMayaFlux_1_1Portal_1_1Graphics_1_1ShaderFoundry_a9a8e90ecb5a133113ecd0712fb0ff988.html#a9a8e90ecb5a133113ecd0712fb0ff988" target="_top" xlink:title=" ">
<polygon fill="white" stroke="#666666" points="332,-218 184,-218 184,-177 332,-177 332,-218"/>
<text text-anchor="start" x="192" y="-206" font-family="Helvetica,sans-Serif" font-size="10.00">MayaFlux::Portal::Graphics</text>
<text text-anchor="start" x="192" y="-195" font-family="Helvetica,sans-Serif" font-size="10.00">::ShaderFoundry::cleanup</text>
<text text-anchor="middle" x="258" y="-184" font-family="Helvetica,sans-Serif" font-size="10.00">_descriptor_resources</text>
</a>
</g>
</g>
<!-- Node1&#45;&gt;Node2 -->
<g id="edge1_Node000001_Node000002" class="edge">
<title>Node1&#45;&gt;Node2</title>
<g id="a_edge1_Node000001_Node000002"><a xlink:title=" ">
<path fill="none" stroke="#63b8ff" d="M100.51,-123.73C122.31,-136.46 154.69,-154.68 184,-168.5 187.12,-169.97 190.33,-171.43 193.59,-172.87"/>
<polygon fill="#63b8ff" stroke="#63b8ff" points="192.29,-176.12 202.85,-176.87 195.06,-169.7 192.29,-176.12"/>
</a>
</g>
</g>
<!-- Node4 -->
<g id="Node000004" class="node">
<title>Node4</title>
<g id="a_Node000004"><a xlink:href="classMayaFlux_1_1Portal_1_1Graphics_1_1ShaderFoundry_a5246a7c29d3226e7c738749fb2b8e6aa.html#a5246a7c29d3226e7c738749fb2b8e6aa" target="_top" xlink:title=" ">
<polygon fill="white" stroke="#666666" points="332,-159 184,-159 184,-118 332,-118 332,-159"/>
<text text-anchor="start" x="192" y="-147" font-family="Helvetica,sans-Serif" font-size="10.00">MayaFlux::Portal::Graphics</text>
<text text-anchor="start" x="192" y="-136" font-family="Helvetica,sans-Serif" font-size="10.00">::ShaderFoundry::cleanup</text>
<text text-anchor="middle" x="258" y="-125" font-family="Helvetica,sans-Serif" font-size="10.00">_shader_modules</text>
</a>
</g>
</g>
<!-- Node1&#45;&gt;Node4 -->
<g id="edge3_Node000001_Node000004" class="edge">
<title>Node1&#45;&gt;Node4</title>
<g id="a_edge3_Node000001_Node000004"><a xlink:title=" ">
<path fill="none" stroke="#63b8ff" d="M148.24,-120.57C156.69,-121.97 165.35,-123.39 173.92,-124.8"/>
<polygon fill="#63b8ff" stroke="#63b8ff" points="173.47,-128.28 183.91,-126.45 174.61,-121.37 173.47,-128.28"/>
</a>
</g>
</g>
<!-- Node5 -->
<g id="Node000005" class="node">
<title>Node5</title>
<g id="a_Node000005"><a xlink:href="classMayaFlux_1_1Portal_1_1Graphics_1_1ShaderFoundry_a267b58fc1e1669a41fd969b3f93d76c6.html#a267b58fc1e1669a41fd969b3f93d76c6" target="_top" xlink:title=" ">
<polygon fill="white" stroke="#666666" points="332,-100 184,-100 184,-59 332,-59 332,-100"/>
<text text-anchor="start" x="192" y="-88" font-family="Helvetica,sans-Serif" font-size="10.00">MayaFlux::Portal::Graphics</text>
<text text-anchor="start" x="192" y="-77" font-family="Helvetica,sans-Serif" font-size="10.00">::ShaderFoundry::cleanup</text>
<text text-anchor="middle" x="258" y="-66" font-family="Helvetica,sans-Serif" font-size="10.00">_sync_objects</text>
</a>
</g>
</g>
<!-- Node1&#45;&gt;Node5 -->
<g id="edge5_Node000001_Node000005" class="edge">
<title>Node1&#45;&gt;Node5</title>
<g id="a_edge5_Node000001_Node000005"><a xlink:title=" ">
<path fill="none" stroke="#63b8ff" d="M148.24,-96.83C156.69,-95.48 165.35,-94.1 173.92,-92.74"/>
<polygon fill="#63b8ff" stroke="#63b8ff" points="174.59,-96.18 183.91,-91.15 173.48,-89.26 174.59,-96.18"/>
</a>
</g>
</g>
<!-- Node6 -->
<g id="Node000006" class="node">
<title>Node6</title>
<g id="a_Node000006"><a xlink:href="classMayaFlux_1_1Portal_1_1Graphics_1_1ShaderFoundry_a52651a5a78f0c50974d443de43c776ac.html#a52651a5a78f0c50974d443de43c776ac" target="_top" xlink:title="Free all allocated command buffers.">
<polygon fill="white" stroke="#666666" points="332,-41 184,-41 184,0 332,0 332,-41"/>
<text text-anchor="start" x="192" y="-29" font-family="Helvetica,sans-Serif" font-size="10.00">MayaFlux::Portal::Graphics</text>
<text text-anchor="start" x="192" y="-18" font-family="Helvetica,sans-Serif" font-size="10.00">::ShaderFoundry::free_all</text>
<text text-anchor="middle" x="258" y="-7" font-family="Helvetica,sans-Serif" font-size="10.00">_command_buffers</text>
</a>
</g>
</g>
<!-- Node1&#45;&gt;Node6 -->
<g id="edge7_Node000001_Node000006" class="edge">
<title>Node1&#45;&gt;Node6</title>
<g id="a_edge7_Node000001_Node000006"><a xlink:title=" ">
<path fill="none" stroke="#63b8ff" d="M101.5,-93.45C123.34,-81.27 155.29,-64 184,-50.5 187.84,-48.7 191.81,-46.89 195.84,-45.11"/>
<polygon fill="#63b8ff" stroke="#63b8ff" points="197.5,-48.2 205.27,-41.01 194.71,-41.78 197.5,-48.2"/>
</a>
</g>
</g>
<!-- Node3 -->
<g id="Node000003" class="node">
<title>Node3</title>
<g id="a_Node000003"><a xlink:href="classMayaFlux_1_1Portal_1_1Graphics_1_1ShaderFoundry_a148fdbfbb76b1df59986ea791e772885.html#a148fdbfbb76b1df59986ea791e772885" target="_top" xlink:title="Get logical device handle.">
<polygon fill="white" stroke="#666666" points="522,-123.5 368,-123.5 368,-93.5 522,-93.5 522,-123.5"/>
<text text-anchor="start" x="376" y="-111.5" font-family="Helvetica,sans-Serif" font-size="10.00">MayaFlux::Portal::Graphics</text>
<text text-anchor="middle" x="445" y="-100.5" font-family="Helvetica,sans-Serif" font-size="10.00">::ShaderFoundry::get_device</text>
</a>
</g>
</g>
<!-- Node2&#45;&gt;Node3 -->
<g id="edge2_Node000002_Node000003" class="edge">
<title>Node2&#45;&gt;Node3</title>
<g id="a_edge2_Node000002_Node000003"><a xlink:title=" ">
<path fill="none" stroke="#63b8ff" d="M312.72,-176.97C319.26,-174.23 325.82,-171.37 332,-168.5 358.26,-156.3 387.03,-140.84 408.84,-128.67"/>
<polygon fill="#63b8ff" stroke="#63b8ff" points="410.73,-131.62 417.73,-123.67 407.3,-125.52 410.73,-131.62"/>
</a>
</g>
</g>
<!-- Node4&#45;&gt;Node3 -->
<g id="edge4_Node000004_Node000003" class="edge">
<title>Node4&#45;&gt;Node3</title>
<g id="a_edge4_Node000004_Node000003"><a xlink:title=" ">
<path fill="none" stroke="#63b8ff" d="M332.12,-126.64C340.54,-125.28 349.18,-123.88 357.76,-122.49"/>
<polygon fill="#63b8ff" stroke="#63b8ff" points="358.46,-125.92 367.77,-120.86 357.34,-119.01 358.46,-125.92"/>
</a>
</g>
</g>
<!-- Node5&#45;&gt;Node3 -->
<g id="edge6_Node000005_Node000003" class="edge">
<title>Node5&#45;&gt;Node3</title>
<g id="a_edge6_Node000005_Node000003"><a xlink:title=" ">
<path fill="none" stroke="#63b8ff" d="M332.12,-90.96C340.54,-92.28 349.18,-93.64 357.76,-94.98"/>
<polygon fill="#63b8ff" stroke="#63b8ff" points="357.35,-98.46 367.77,-96.55 358.43,-91.54 357.35,-98.46"/>
</a>
</g>
</g>
<!-- Node6&#45;&gt;Node3 -->
<g id="edge8_Node000006_Node000003" class="edge">
<title>Node6&#45;&gt;Node3</title>
<g id="a_edge8_Node000006_Node000003"><a xlink:title=" ">
<path fill="none" stroke="#63b8ff" d="M310.69,-41.08C317.89,-44.14 325.16,-47.33 332,-50.5 357.56,-62.34 385.7,-76.92 407.39,-88.51"/>
<polygon fill="#63b8ff" stroke="#63b8ff" points="405.8,-91.62 416.26,-93.27 409.11,-85.46 405.8,-91.62"/>
</a>
</g>
</g>
</g>
</svg>

<g id="navigator" transform="translate(0 0)" fill="#404254">
  <rect fill="#f2f5e9" fill-opacity="0.5" stroke="#606060" stroke-width=".5" x="0" y="0" width="60" height="60"/>
  <use id="zoomplus" xlink:href="#zoomPlus" x="17" y="9" onmousedown="handleZoom(evt,'in')"/>
  <use id="zoomminus" xlink:href="#zoomMin" x="42" y="9" onmousedown="handleZoom(evt,'out')"/>
  <use id="reset" xlink:href="#resetDef" x="30" y="36" onmousedown="handleReset()"/>
   <use id="arrowup" xlink:href="#arrowUp" x="0" y="0" onmousedown="handlePan(0,-1)"/>
  <use id="arrowright" xlink:href="#arrowRight" x="0" y="0" onmousedown="handlePan(1,0)"/>
  <use id="arrowdown" xlink:href="#arrowDown" x="0" y="0" onmousedown="handlePan(0,1)"/>
  <use id="arrowleft" xlink:href="#arrowLeft" x="0" y="0" onmousedown="handlePan(-1,0)"/>
</g>
<svg viewBox="0 0 15 15" width="100%" height="30px" preserveAspectRatio="xMaxYMin meet">
 <g id="arrow_out" transform="scale(0.3 0.3)">
  <a xlink:href="classMayaFlux_1_1Portal_1_1Graphics_1_1ShaderFoundry_a152810902f8bea3d18b29debf3a6670f_a152810902f8bea3d18b29debf3a6670f_cgraph_org.svg" target="_base">
   <rect id="button" ry="5" rx="5" y="6" x="6" height="38" width="38"
        fill="#f2f5e9" fill-opacity="0.5" stroke="#606060" stroke-width="1.0"/>
   <path id="arrow"
     d="M 11.500037,31.436501 C 11.940474,20.09759 22.043105,11.32322 32.158766,21.979434 L 37.068811,17.246167 C 37.068811,17.246167 37.088388,32 37.088388,32 L 22.160133,31.978069 C 22.160133,31.978069 26.997745,27.140456 26.997745,27.140456 C 18.528582,18.264221 13.291696,25.230495 11.500037,31.436501 z"
     style="fill:#404040;"/>
  </a>
 </g>
</svg>

<style type='text/css'>
<![CDATA[
[data-mouse-over-selected='false'] { opacity: 0.7; }
[data-mouse-over-selected='true']  { opacity: 1.0; }
]]>
</style>
<script type="application/ecmascript"><![CDATA[
document.addEventListener('DOMContentLoaded', (event) => {
  highlightEdges();
  highlightAdjacentNodes();
});
]]></script>
</svg>
