<?xml version="1.0" encoding="UTF-8" standalone="no"?>
<!DOCTYPE svg PUBLIC "-//W3C//DTD SVG 1.1//EN"
 "http://www.w3.org/Graphics/SVG/1.1/DTD/svg11.dtd">
<!-- Generated by graphviz version 2.43.0 (0)
 -->
<!-- Title: MayaFlux::Nodes::Network::ResonatorNetwork::process_batch Pages: 1 -->
<!--zoomable 176 -->

<svg id="main" version="1.1" xmlns="http://www.w3.org/2000/svg" xmlns:xlink="http://www.w3.org/1999/xlink" xml:space="preserve" onload="init(evt)">
<style type="text/css"><![CDATA[
.node, .edge {opacity: 0.7;}
.node.selected, .edge.selected {opacity: 1;}
.edge:hover path { stroke: red; }
.edge:hover polygon { stroke: red; fill: red; }
]]></style>

<defs>
  <circle id="rim" cx="0" cy="0" r="7"/>
  <circle id="rim2" cx="0" cy="0" r="3.5"/>
  <g id="zoomPlus">
    <use xlink:href="#rim" fill="#404040"><set attributeName="fill" to="#808080" begin="zoomplus.mouseover" end="zoomplus.mouseout"/></use>
    <path d="M-4,0h8M0,-4v8" fill="none" stroke="white" stroke-width="1.5" pointer-events="none"/>
  </g>
  <g id="zoomMin">
    <use xlink:href="#rim" fill="#404040"><set attributeName="fill" to="#808080" begin="zoomminus.mouseover" end="zoomminus.mouseout"/></use>
    <path d="M-4,0h8" fill="none" stroke="white" stroke-width="1.5" pointer-events="none"/>
  </g>
  <g id="arrowUp" transform="translate(30 24)">
    <use xlink:href="#rim"/>
    <path pointer-events="none" fill="none" stroke="white" stroke-width="1.5" d="M0,-3.0v7 M-2.5,-0.5L0,-3.0L2.5,-0.5"/>
  </g>
  <g id="arrowRight" transform="rotate(90) translate(36 -43)">
    <use xlink:href="#rim"/>
    <path pointer-events="none" fill="none" stroke="white" stroke-width="1.5" d="M0,-3.0v7 M-2.5,-0.5L0,-3.0L2.5,-0.5"/>
  </g>
  <g id="arrowDown" transform="rotate(180) translate(-30 -48)">
    <use xlink:href="#rim"/>
    <path pointer-events="none" fill="none" stroke="white" stroke-width="1.5" d="M0,-3.0v7 M-2.5,-0.5L0,-3.0L2.5,-0.5"/>
  </g>
  <g id="arrowLeft" transform="rotate(270) translate(-36 17)">
    <use xlink:href="#rim"/>
    <path pointer-events="none" fill="none" stroke="white" stroke-width="1.5" d="M0,-3.0v7 M-2.5,-0.5L0,-3.0L2.5,-0.5"/>
  </g>
  <g id="resetDef">
    <use xlink:href="#rim2" fill="#404040"><set attributeName="fill" to="#808080" begin="reset.mouseover" end="reset.mouseout"/></use>
  </g>
</defs>
<script type="application/ecmascript">
var viewWidth = 1228;
var viewHeight = 176;
var sectionId = 'dynsection-0';
</script>
<script type="application/ecmascript" xlink:href="svg.min.js"/>
<svg id="graph" class="graph">
<g id="viewport">
<title>MayaFlux::Nodes::Network::ResonatorNetwork::process_batch</title>
<!-- Node1 -->
<g id="Node000001" class="node">
<title>Node1</title>
<g id="a_Node000001"><a xlink:title="Processes num_samples through all resonators and accumulates output.">
<polygon fill="#999999" stroke="#666666" points="189,-140.5 0,-140.5 0,-110.5 189,-110.5 189,-140.5"/>
<text text-anchor="start" x="8" y="-128.5" font-family="Helvetica,sans-Serif" font-size="10.00">MayaFlux::Nodes::Network</text>
<text text-anchor="middle" x="94.5" y="-117.5" font-family="Helvetica,sans-Serif" font-size="10.00">::ResonatorNetwork::process_batch</text>
</a>
</g>
</g>
<!-- Node2 -->
<g id="Node000002" class="node">
<title>Node2</title>
<g id="a_Node000002"><a xlink:href="classMayaFlux_1_1Nodes_1_1Network_1_1NodeNetwork_a32f35c709a82b7729fc066314401db44.html#a32f35c709a82b7729fc066314401db44" target="_top" xlink:title="Apply m_output_scale to m_last_audio_buffer.">
<polygon fill="white" stroke="#666666" points="415,-167.5 225,-167.5 225,-137.5 415,-137.5 415,-167.5"/>
<text text-anchor="start" x="233" y="-155.5" font-family="Helvetica,sans-Serif" font-size="10.00">MayaFlux::Nodes::Network</text>
<text text-anchor="middle" x="320" y="-144.5" font-family="Helvetica,sans-Serif" font-size="10.00">::NodeNetwork::apply_output_scale</text>
</a>
</g>
</g>
<!-- Node1&#45;&gt;Node2 -->
<g id="edge1_Node000001_Node000002" class="edge">
<title>Node1&#45;&gt;Node2</title>
<g id="a_edge1_Node000001_Node000002"><a xlink:title=" ">
<path fill="none" stroke="#63b8ff" d="M189.31,-136.83C197.73,-137.85 206.28,-138.88 214.78,-139.91"/>
<polygon fill="#63b8ff" stroke="#63b8ff" points="214.36,-143.38 224.71,-141.11 215.2,-136.44 214.36,-143.38"/>
</a>
</g>
</g>
<!-- Node3 -->
<g id="Node000003" class="node">
<title>Node3</title>
<g id="a_Node000003"><a xlink:href="classMayaFlux_1_1Nodes_1_1Network_1_1ResonatorNetwork_aee31c5dd30c5a3f3dd7ad55c8ee2979e.html#aee31c5dd30c5a3f3dd7ad55c8ee2979e" target="_top" xlink:title="Apply all registered parameter mappings for the current cycle.">
<polygon fill="white" stroke="#666666" points="396.5,-119 243.5,-119 243.5,-78 396.5,-78 396.5,-119"/>
<text text-anchor="start" x="251.5" y="-107" font-family="Helvetica,sans-Serif" font-size="10.00">MayaFlux::Nodes::Network</text>
<text text-anchor="start" x="251.5" y="-96" font-family="Helvetica,sans-Serif" font-size="10.00">::ResonatorNetwork::update</text>
<text text-anchor="middle" x="320" y="-85" font-family="Helvetica,sans-Serif" font-size="10.00">_mapped_parameters</text>
</a>
</g>
</g>
<!-- Node1&#45;&gt;Node3 -->
<g id="edge2_Node000001_Node000003" class="edge">
<title>Node1&#45;&gt;Node3</title>
<g id="a_edge2_Node000001_Node000003"><a xlink:title=" ">
<path fill="none" stroke="#63b8ff" d="M189.31,-114.17C203.83,-112.41 218.76,-110.61 233.09,-108.88"/>
<polygon fill="#63b8ff" stroke="#63b8ff" points="233.89,-112.31 243.4,-107.63 233.05,-105.36 233.89,-112.31"/>
</a>
</g>
</g>
<!-- Node4 -->
<g id="Node000004" class="node">
<title>Node4</title>
<g id="a_Node000004"><a xlink:href="classMayaFlux_1_1Nodes_1_1Network_1_1ResonatorNetwork_a82469548f9169caa240ef3e7c8beabbd.html#a82469548f9169caa240ef3e7c8beabbd" target="_top" xlink:title="Apply a BROADCAST value to the named parameter across all resonators.">
<polygon fill="white" stroke="#666666" points="600,-95 451,-95 451,-54 600,-54 600,-95"/>
<text text-anchor="start" x="459" y="-83" font-family="Helvetica,sans-Serif" font-size="10.00">MayaFlux::Nodes::Network</text>
<text text-anchor="start" x="459" y="-72" font-family="Helvetica,sans-Serif" font-size="10.00">::ResonatorNetwork::apply</text>
<text text-anchor="middle" x="525.5" y="-61" font-family="Helvetica,sans-Serif" font-size="10.00">_broadcast_parameter</text>
</a>
</g>
</g>
<!-- Node3&#45;&gt;Node4 -->
<g id="edge3_Node000003_Node000004" class="edge">
<title>Node3&#45;&gt;Node4</title>
<g id="a_edge3_Node000003_Node000004"><a xlink:title=" ">
<path fill="none" stroke="#63b8ff" d="M396.78,-89.56C411.1,-87.87 426.16,-86.1 440.71,-84.38"/>
<polygon fill="#63b8ff" stroke="#63b8ff" points="441.17,-87.85 450.69,-83.2 440.35,-80.9 441.17,-87.85"/>
</a>
</g>
</g>
<!-- Node10 -->
<g id="Node000010" class="node">
<title>Node10</title>
<g id="a_Node000010"><a xlink:href="classMayaFlux_1_1Nodes_1_1Network_1_1ResonatorNetwork_aed915868aaa9e030e2fe8ead8cfbdbe9.html#aed915868aaa9e030e2fe8ead8cfbdbe9" target="_top" xlink:title="Apply ONE_TO_ONE values from a source network to the named parameter.">
<polygon fill="white" stroke="#666666" points="792,-149 643,-149 643,-108 792,-108 792,-149"/>
<text text-anchor="start" x="651" y="-137" font-family="Helvetica,sans-Serif" font-size="10.00">MayaFlux::Nodes::Network</text>
<text text-anchor="start" x="651" y="-126" font-family="Helvetica,sans-Serif" font-size="10.00">::ResonatorNetwork::apply</text>
<text text-anchor="middle" x="717.5" y="-115" font-family="Helvetica,sans-Serif" font-size="10.00">_one_to_one_parameter</text>
</a>
</g>
</g>
<!-- Node3&#45;&gt;Node10 -->
<g id="edge10_Node000003_Node000010" class="edge">
<title>Node3&#45;&gt;Node10</title>
<g id="a_edge10_Node000003_Node000010"><a xlink:title=" ">
<path fill="none" stroke="#63b8ff" d="M396.79,-104.25C464.34,-109.37 563.05,-116.86 632.89,-122.16"/>
<polygon fill="#63b8ff" stroke="#63b8ff" points="632.74,-125.66 642.97,-122.92 633.27,-118.68 632.74,-125.66"/>
</a>
</g>
</g>
<!-- Node5 -->
<g id="Node000005" class="node">
<title>Node5</title>
<g id="a_Node000005"><a xlink:href="classMayaFlux_1_1Nodes_1_1Network_1_1ResonatorNetwork_a89422384f591cf7be40324957a734cba.html#a89422384f591cf7be40324957a734cba" target="_top" xlink:title="Set centre frequency of all resonators uniformly.">
<polygon fill="white" stroke="#666666" points="792,-41 643,-41 643,0 792,0 792,-41"/>
<text text-anchor="start" x="651" y="-29" font-family="Helvetica,sans-Serif" font-size="10.00">MayaFlux::Nodes::Network</text>
<text text-anchor="start" x="651" y="-18" font-family="Helvetica,sans-Serif" font-size="10.00">::ResonatorNetwork::set</text>
<text text-anchor="middle" x="717.5" y="-7" font-family="Helvetica,sans-Serif" font-size="10.00">_all_frequencies</text>
</a>
</g>
</g>
<!-- Node4&#45;&gt;Node5 -->
<g id="edge4_Node000004_Node000005" class="edge">
<title>Node4&#45;&gt;Node5</title>
<g id="a_edge4_Node000004_Node000005"><a xlink:title=" ">
<path fill="none" stroke="#63b8ff" d="M598.87,-53.93C610.51,-50.62 622.62,-47.18 634.46,-43.82"/>
<polygon fill="#63b8ff" stroke="#63b8ff" points="635.67,-47.11 644.33,-41.01 633.75,-40.38 635.67,-47.11"/>
</a>
</g>
</g>
<!-- Node8 -->
<g id="Node000008" class="node">
<title>Node8</title>
<g id="a_Node000008"><a xlink:href="classMayaFlux_1_1Nodes_1_1Network_1_1ResonatorNetwork_a4e5df60f99085dfff1752ffea8193d7c.html#a4e5df60f99085dfff1752ffea8193d7c" target="_top" xlink:title="Set Q factor of all resonators uniformly.">
<polygon fill="white" stroke="#666666" points="799,-89.5 636,-89.5 636,-59.5 799,-59.5 799,-89.5"/>
<text text-anchor="start" x="644" y="-77.5" font-family="Helvetica,sans-Serif" font-size="10.00">MayaFlux::Nodes::Network</text>
<text text-anchor="middle" x="717.5" y="-66.5" font-family="Helvetica,sans-Serif" font-size="10.00">::ResonatorNetwork::set_all_q</text>
</a>
</g>
</g>
<!-- Node4&#45;&gt;Node8 -->
<g id="edge7_Node000004_Node000008" class="edge">
<title>Node4&#45;&gt;Node8</title>
<g id="a_edge7_Node000004_Node000008"><a xlink:title=" ">
<path fill="none" stroke="#63b8ff" d="M600.23,-74.5C608.63,-74.5 617.26,-74.5 625.84,-74.5"/>
<polygon fill="#63b8ff" stroke="#63b8ff" points="625.88,-78 635.88,-74.5 625.88,-71 625.88,-78"/>
</a>
</g>
</g>
<!-- Node6 -->
<g id="Node000006" class="node">
<title>Node6</title>
<g id="a_Node000006"><a xlink:href="classMayaFlux_1_1Nodes_1_1Network_1_1ResonatorNetwork_a66387249a8bc89954017998babd26db9.html#a66387249a8bc89954017998babd26db9" target="_top" xlink:title="Set centre frequency of a single resonator and recompute its coefficients.">
<polygon fill="white" stroke="#666666" points="984,-68 835,-68 835,-27 984,-27 984,-68"/>
<text text-anchor="start" x="843" y="-56" font-family="Helvetica,sans-Serif" font-size="10.00">MayaFlux::Nodes::Network</text>
<text text-anchor="start" x="843" y="-45" font-family="Helvetica,sans-Serif" font-size="10.00">::ResonatorNetwork::set</text>
<text text-anchor="middle" x="909.5" y="-34" font-family="Helvetica,sans-Serif" font-size="10.00">_frequency</text>
</a>
</g>
</g>
<!-- Node5&#45;&gt;Node6 -->
<g id="edge5_Node000005_Node000006" class="edge">
<title>Node5&#45;&gt;Node6</title>
<g id="a_edge5_Node000005_Node000006"><a xlink:title=" ">
<path fill="none" stroke="#63b8ff" d="M792.23,-30.98C802.93,-32.5 814.01,-34.07 824.89,-35.62"/>
<polygon fill="#63b8ff" stroke="#63b8ff" points="824.42,-39.09 834.81,-37.03 825.4,-32.16 824.42,-39.09"/>
</a>
</g>
</g>
<!-- Node7 -->
<g id="Node000007" class="node">
<title>Node7</title>
<g id="a_Node000007"><a xlink:href="classMayaFlux_1_1Nodes_1_1Network_1_1ResonatorNetwork_a47653e6f983490bb1a16698c723e9f93.html#a47653e6f983490bb1a16698c723e9f93" target="_top" xlink:title="Compute RBJ biquad bandpass coefficients and push them into a resonator&#39;s IIR.">
<polygon fill="white" stroke="#666666" points="1220,-89.5 1020,-89.5 1020,-59.5 1220,-59.5 1220,-89.5"/>
<text text-anchor="start" x="1028" y="-77.5" font-family="Helvetica,sans-Serif" font-size="10.00">MayaFlux::Nodes::Network</text>
<text text-anchor="middle" x="1120" y="-66.5" font-family="Helvetica,sans-Serif" font-size="10.00">::ResonatorNetwork::compute_biquad</text>
</a>
</g>
</g>
<!-- Node6&#45;&gt;Node7 -->
<g id="edge6_Node000006_Node000007" class="edge">
<title>Node6&#45;&gt;Node7</title>
<g id="a_edge6_Node000006_Node000007"><a xlink:title=" ">
<path fill="none" stroke="#63b8ff" d="M984.01,-57.02C992.35,-58.1 1000.98,-59.22 1009.66,-60.34"/>
<polygon fill="#63b8ff" stroke="#63b8ff" points="1009.49,-63.85 1019.86,-61.66 1010.39,-56.91 1009.49,-63.85"/>
</a>
</g>
</g>
<!-- Node9 -->
<g id="Node000009" class="node">
<title>Node9</title>
<g id="a_Node000009"><a xlink:href="classMayaFlux_1_1Nodes_1_1Network_1_1ResonatorNetwork_a871a6d5042b8462267ea7bafe0d7bf66.html#a871a6d5042b8462267ea7bafe0d7bf66" target="_top" xlink:title="Set Q factor of a single resonator and recompute its coefficients.">
<polygon fill="white" stroke="#666666" points="984,-116.5 835,-116.5 835,-86.5 984,-86.5 984,-116.5"/>
<text text-anchor="start" x="843" y="-104.5" font-family="Helvetica,sans-Serif" font-size="10.00">MayaFlux::Nodes::Network</text>
<text text-anchor="middle" x="909.5" y="-93.5" font-family="Helvetica,sans-Serif" font-size="10.00">::ResonatorNetwork::set_q</text>
</a>
</g>
</g>
<!-- Node8&#45;&gt;Node9 -->
<g id="edge8_Node000008_Node000009" class="edge">
<title>Node8&#45;&gt;Node9</title>
<g id="a_edge8_Node000008_Node000009"><a xlink:title=" ">
<path fill="none" stroke="#63b8ff" d="M799.08,-85.95C807.58,-87.16 816.25,-88.39 824.79,-89.6"/>
<polygon fill="#63b8ff" stroke="#63b8ff" points="824.34,-93.08 834.74,-91.02 825.33,-86.15 824.34,-93.08"/>
</a>
</g>
</g>
<!-- Node9&#45;&gt;Node7 -->
<g id="edge9_Node000009_Node000007" class="edge">
<title>Node9&#45;&gt;Node7</title>
<g id="a_edge9_Node000009_Node000007"><a xlink:title=" ">
<path fill="none" stroke="#63b8ff" d="M984.01,-91.98C992.35,-90.9 1000.98,-89.78 1009.66,-88.66"/>
<polygon fill="#63b8ff" stroke="#63b8ff" points="1010.39,-92.09 1019.86,-87.34 1009.49,-85.15 1010.39,-92.09"/>
</a>
</g>
</g>
<!-- Node10&#45;&gt;Node6 -->
<g id="edge11_Node000010_Node000006" class="edge">
<title>Node10&#45;&gt;Node6</title>
<g id="a_edge11_Node000010_Node000006"><a xlink:title=" ">
<path fill="none" stroke="#63b8ff" d="M777.46,-107.86C784.8,-104.91 792.13,-101.76 799,-98.5 815.74,-90.57 818.38,-85.69 835,-77.5 838.58,-75.73 842.3,-73.98 846.07,-72.27"/>
<polygon fill="#63b8ff" stroke="#63b8ff" points="847.78,-75.34 855.51,-68.08 844.95,-68.94 847.78,-75.34"/>
</a>
</g>
</g>
<!-- Node10&#45;&gt;Node9 -->
<g id="edge12_Node000010_Node000009" class="edge">
<title>Node10&#45;&gt;Node9</title>
<g id="a_edge12_Node000010_Node000009"><a xlink:title=" ">
<path fill="none" stroke="#63b8ff" d="M792.23,-118.02C802.93,-116.5 814.01,-114.93 824.89,-113.38"/>
<polygon fill="#63b8ff" stroke="#63b8ff" points="825.4,-116.84 834.81,-111.97 824.42,-109.91 825.4,-116.84"/>
</a>
</g>
</g>
</g>
</svg>

<g id="navigator" transform="translate(0 0)" fill="#404254">
  <rect fill="#f2f5e9" fill-opacity="0.5" stroke="#606060" stroke-width=".5" x="0" y="0" width="60" height="60"/>
  <use id="zoomplus" xlink:href="#zoomPlus" x="17" y="9" onmousedown="handleZoom(evt,'in')"/>
  <use id="zoomminus" xlink:href="#zoomMin" x="42" y="9" onmousedown="handleZoom(evt,'out')"/>
  <use id="reset" xlink:href="#resetDef" x="30" y="36" onmousedown="handleReset()"/>
   <use id="arrowup" xlink:href="#arrowUp" x="0" y="0" onmousedown="handlePan(0,-1)"/>
  <use id="arrowright" xlink:href="#arrowRight" x="0" y="0" onmousedown="handlePan(1,0)"/>
  <use id="arrowdown" xlink:href="#arrowDown" x="0" y="0" onmousedown="handlePan(0,1)"/>
  <use id="arrowleft" xlink:href="#arrowLeft" x="0" y="0" onmousedown="handlePan(-1,0)"/>
</g>
<svg viewBox="0 0 15 15" width="100%" height="30px" preserveAspectRatio="xMaxYMin meet">
 <g id="arrow_out" transform="scale(0.3 0.3)">
  <a xlink:href="classMayaFlux_1_1Nodes_1_1Network_1_1ResonatorNetwork_ab3fa42f883efda46b4961b24c3654c2f_ab3fa42f883efda46b4961b24c3654c2f_cgraph_org.svg" target="_base">
   <rect id="button" ry="5" rx="5" y="6" x="6" height="38" width="38"
        fill="#f2f5e9" fill-opacity="0.5" stroke="#606060" stroke-width="1.0"/>
   <path id="arrow"
     d="M 11.500037,31.436501 C 11.940474,20.09759 22.043105,11.32322 32.158766,21.979434 L 37.068811,17.246167 C 37.068811,17.246167 37.088388,32 37.088388,32 L 22.160133,31.978069 C 22.160133,31.978069 26.997745,27.140456 26.997745,27.140456 C 18.528582,18.264221 13.291696,25.230495 11.500037,31.436501 z"
     style="fill:#404040;"/>
  </a>
 </g>
</svg>

<style type='text/css'>
<![CDATA[
[data-mouse-over-selected='false'] { opacity: 0.7; }
[data-mouse-over-selected='true']  { opacity: 1.0; }
]]>
</style>
<script type="application/ecmascript"><![CDATA[
document.addEventListener('DOMContentLoaded', (event) => {
  highlightEdges();
  highlightAdjacentNodes();
});
]]></script>
</svg>
