<?xml version="1.0" encoding="UTF-8" standalone="no"?>
<!DOCTYPE svg PUBLIC "-//W3C//DTD SVG 1.1//EN"
 "http://www.w3.org/Graphics/SVG/1.1/DTD/svg11.dtd">
<!-- Generated by graphviz version 2.43.0 (0)
 -->
<!-- Title: MayaFlux::Vruta::TaskScheduler::current_units Pages: 1 -->
<svg width="548pt" height="182pt"
 viewBox="0.00 0.00 548.00 182.00" xmlns="http://www.w3.org/2000/svg" xmlns:xlink="http://www.w3.org/1999/xlink">
<g id="graph0" class="graph" transform="scale(1 1) rotate(0) translate(4 178)">
<title>MayaFlux::Vruta::TaskScheduler::current_units</title>
<!-- Node1 -->
<g id="Node000001" class="node">
<title>Node1</title>
<g id="a_Node000001"><a xlink:title="Get current processing units for a domain.">
<polygon fill="#999999" stroke="#666666" points="540,-102 367,-102 367,-72 540,-72 540,-102"/>
<text text-anchor="start" x="375" y="-90" font-family="Helvetica,sans-Serif" font-size="10.00">MayaFlux::Vruta::TaskScheduler</text>
<text text-anchor="middle" x="453.5" y="-79" font-family="Helvetica,sans-Serif" font-size="10.00">::current_units</text>
</a>
</g>
</g>
<!-- Node2 -->
<g id="Node000002" class="node">
<title>Node2</title>
<g id="a_Node000002"><a xlink:href="classMayaFlux_1_1Kriya_1_1Timer_acf410f70434e3f2a2e3ae063f2aab581.html#acf410f70434e3f2a2e3ae063f2aab581" target="_top" xlink:title="Schedules a callback to execute after a delay.">
<polygon fill="white" stroke="#666666" points="331,-102 200,-102 200,-72 331,-72 331,-102"/>
<text text-anchor="start" x="208" y="-90" font-family="Helvetica,sans-Serif" font-size="10.00">MayaFlux::Kriya::Timer</text>
<text text-anchor="middle" x="265.5" y="-79" font-family="Helvetica,sans-Serif" font-size="10.00">::schedule</text>
</a>
</g>
</g>
<!-- Node1&#45;&gt;Node2 -->
<g id="edge1_Node000001_Node000002" class="edge">
<title>Node1&#45;&gt;Node2</title>
<g id="a_edge1_Node000001_Node000002"><a xlink:title=" ">
<path fill="none" stroke="#63b8ff" d="M356.69,-87C348.04,-87 339.41,-87 331.12,-87"/>
<polygon fill="#63b8ff" stroke="#63b8ff" points="356.85,-90.5 366.85,-87 356.85,-83.5 356.85,-90.5"/>
</a>
</g>
</g>
<!-- Node3 -->
<g id="Node000003" class="node">
<title>Node3</title>
<g id="a_Node000003"><a xlink:href="classMayaFlux_1_1Kriya_1_1TemporalActivation_ab4f3737fb0465e8727586b7104b95fc2.html#ab4f3737fb0465e8727586b7104b95fc2" target="_top" xlink:title="Activates a buffer for a specified duration.">
<polygon fill="white" stroke="#666666" points="155.5,-174 8.5,-174 8.5,-144 155.5,-144 155.5,-174"/>
<text text-anchor="start" x="16.5" y="-162" font-family="Helvetica,sans-Serif" font-size="10.00">MayaFlux::Kriya::Temporal</text>
<text text-anchor="middle" x="82" y="-151" font-family="Helvetica,sans-Serif" font-size="10.00">Activation::activate_buffer</text>
</a>
</g>
</g>
<!-- Node2&#45;&gt;Node3 -->
<g id="edge2_Node000002_Node000003" class="edge">
<title>Node2&#45;&gt;Node3</title>
<g id="a_edge2_Node000002_Node000003"><a xlink:title=" ">
<path fill="none" stroke="#63b8ff" d="M226.97,-106.66C208.34,-115.97 185.31,-126.81 164,-135 155.79,-138.16 146.97,-141.15 138.29,-143.89"/>
<polygon fill="#63b8ff" stroke="#63b8ff" points="228.66,-109.73 236,-102.09 225.5,-103.48 228.66,-109.73"/>
</a>
</g>
</g>
<!-- Node4 -->
<g id="Node000004" class="node">
<title>Node4</title>
<g id="a_Node000004"><a xlink:href="classMayaFlux_1_1Kriya_1_1TemporalActivation_a5472441ec2fd9cc067e55eb8f48f1a6d.html#a5472441ec2fd9cc067e55eb8f48f1a6d" target="_top" xlink:title="Activates a node network for a specified duration.">
<polygon fill="white" stroke="#666666" points="160.5,-126 3.5,-126 3.5,-96 160.5,-96 160.5,-126"/>
<text text-anchor="start" x="11.5" y="-114" font-family="Helvetica,sans-Serif" font-size="10.00">MayaFlux::Kriya::Temporal</text>
<text text-anchor="middle" x="82" y="-103" font-family="Helvetica,sans-Serif" font-size="10.00">Activation::activate_network</text>
</a>
</g>
</g>
<!-- Node2&#45;&gt;Node4 -->
<g id="edge3_Node000002_Node000004" class="edge">
<title>Node2&#45;&gt;Node4</title>
<g id="a_edge3_Node000002_Node000004"><a xlink:title=" ">
<path fill="none" stroke="#63b8ff" d="M190.02,-96.85C180.33,-98.13 170.39,-99.44 160.65,-100.73"/>
<polygon fill="#63b8ff" stroke="#63b8ff" points="190.54,-100.31 200,-95.53 189.63,-93.37 190.54,-100.31"/>
</a>
</g>
</g>
<!-- Node5 -->
<g id="Node000005" class="node">
<title>Node5</title>
<g id="a_Node000005"><a xlink:href="classMayaFlux_1_1Kriya_1_1TemporalActivation_ab218a3ead3d97c0a677ad3b3f0fad462.html#ab218a3ead3d97c0a677ad3b3f0fad462" target="_top" xlink:title="Activates a node for a specified duration.">
<polygon fill="white" stroke="#666666" points="155.5,-78 8.5,-78 8.5,-48 155.5,-48 155.5,-78"/>
<text text-anchor="start" x="16.5" y="-66" font-family="Helvetica,sans-Serif" font-size="10.00">MayaFlux::Kriya::Temporal</text>
<text text-anchor="middle" x="82" y="-55" font-family="Helvetica,sans-Serif" font-size="10.00">Activation::activate_node</text>
</a>
</g>
</g>
<!-- Node2&#45;&gt;Node5 -->
<g id="edge4_Node000002_Node000005" class="edge">
<title>Node2&#45;&gt;Node5</title>
<g id="a_edge4_Node000002_Node000005"><a xlink:title=" ">
<path fill="none" stroke="#63b8ff" d="M189.76,-77.12C178.48,-75.63 166.87,-74.09 155.64,-72.6"/>
<polygon fill="#63b8ff" stroke="#63b8ff" points="189.63,-80.63 200,-78.47 190.54,-73.69 189.63,-80.63"/>
</a>
</g>
</g>
<!-- Node6 -->
<g id="Node000006" class="node">
<title>Node6</title>
<g id="a_Node000006"><a xlink:href="classMayaFlux_1_1Kriya_1_1TimedAction_ac54f279dd2bd1e1b20e0f25a9d5dea5c.html#ac54f279dd2bd1e1b20e0f25a9d5dea5c" target="_top" xlink:title="Executes a pair of functions with a time interval between them.">
<polygon fill="white" stroke="#666666" points="164,-30 0,-30 0,0 164,0 164,-30"/>
<text text-anchor="start" x="8" y="-18" font-family="Helvetica,sans-Serif" font-size="10.00">MayaFlux::Kriya::TimedAction</text>
<text text-anchor="middle" x="82" y="-7" font-family="Helvetica,sans-Serif" font-size="10.00">::execute</text>
</a>
</g>
</g>
<!-- Node2&#45;&gt;Node6 -->
<g id="edge5_Node000002_Node000006" class="edge">
<title>Node2&#45;&gt;Node6</title>
<g id="a_edge5_Node000002_Node000006"><a xlink:title=" ">
<path fill="none" stroke="#63b8ff" d="M226.97,-67.34C208.34,-58.03 185.31,-47.19 164,-39 155.79,-35.84 146.97,-32.85 138.29,-30.11"/>
<polygon fill="#63b8ff" stroke="#63b8ff" points="225.5,-70.52 236,-71.91 228.66,-64.27 225.5,-70.52"/>
</a>
</g>
</g>
</g>
</svg>
