<?xml version="1.0" encoding="UTF-8" standalone="no"?>
<!DOCTYPE svg PUBLIC "-//W3C//DTD SVG 1.1//EN"
 "http://www.w3.org/Graphics/SVG/1.1/DTD/svg11.dtd">
<!-- Generated by graphviz version 2.43.0 (0)
 -->
<!-- Title: MayaFlux::Kakshya::SoundStreamContainer Pages: 1 -->
<!--zoomable 1882 -->

<svg id="main" version="1.1" xmlns="http://www.w3.org/2000/svg" xmlns:xlink="http://www.w3.org/1999/xlink" xml:space="preserve" onload="init(evt)">
<style type="text/css"><![CDATA[
.node, .edge {opacity: 0.7;}
.node.selected, .edge.selected {opacity: 1;}
.edge:hover path { stroke: red; }
.edge:hover polygon { stroke: red; fill: red; }
]]></style>

<defs>
  <circle id="rim" cx="0" cy="0" r="7"/>
  <circle id="rim2" cx="0" cy="0" r="3.5"/>
  <g id="zoomPlus">
    <use xlink:href="#rim" fill="#404040"><set attributeName="fill" to="#808080" begin="zoomplus.mouseover" end="zoomplus.mouseout"/></use>
    <path d="M-4,0h8M0,-4v8" fill="none" stroke="white" stroke-width="1.5" pointer-events="none"/>
  </g>
  <g id="zoomMin">
    <use xlink:href="#rim" fill="#404040"><set attributeName="fill" to="#808080" begin="zoomminus.mouseover" end="zoomminus.mouseout"/></use>
    <path d="M-4,0h8" fill="none" stroke="white" stroke-width="1.5" pointer-events="none"/>
  </g>
  <g id="arrowUp" transform="translate(30 24)">
    <use xlink:href="#rim"/>
    <path pointer-events="none" fill="none" stroke="white" stroke-width="1.5" d="M0,-3.0v7 M-2.5,-0.5L0,-3.0L2.5,-0.5"/>
  </g>
  <g id="arrowRight" transform="rotate(90) translate(36 -43)">
    <use xlink:href="#rim"/>
    <path pointer-events="none" fill="none" stroke="white" stroke-width="1.5" d="M0,-3.0v7 M-2.5,-0.5L0,-3.0L2.5,-0.5"/>
  </g>
  <g id="arrowDown" transform="rotate(180) translate(-30 -48)">
    <use xlink:href="#rim"/>
    <path pointer-events="none" fill="none" stroke="white" stroke-width="1.5" d="M0,-3.0v7 M-2.5,-0.5L0,-3.0L2.5,-0.5"/>
  </g>
  <g id="arrowLeft" transform="rotate(270) translate(-36 17)">
    <use xlink:href="#rim"/>
    <path pointer-events="none" fill="none" stroke="white" stroke-width="1.5" d="M0,-3.0v7 M-2.5,-0.5L0,-3.0L2.5,-0.5"/>
  </g>
  <g id="resetDef">
    <use xlink:href="#rim2" fill="#404040"><set attributeName="fill" to="#808080" begin="reset.mouseover" end="reset.mouseout"/></use>
  </g>
</defs>
<script type="application/ecmascript">
var viewWidth = 358;
var viewHeight = 1882;
var sectionId = 'dynsection-0';
</script>
<script type="application/ecmascript" xlink:href="svg.min.js"/>
<svg id="graph" class="graph">
<g id="viewport">
<title>MayaFlux::Kakshya::SoundStreamContainer</title>
<!-- Node1 -->
<g id="Node000001" class="node">
<title>Node1</title>
<g id="a_Node000001"><a xlink:title="Concrete base implementation for streaming audio containers.">
<polygon fill="#999999" stroke="transparent" points="239,-1125 81,-1125 81,-627 239,-627 239,-1125"/>
<text text-anchor="start" x="103.5" y="-1113" font-family="Helvetica,sans-Serif" font-size="10.00">MayaFlux::Kakshya::</text>
<text text-anchor="start" x="103.5" y="-1102" font-family="Helvetica,sans-Serif" font-size="10.00">SoundStreamContainer</text>
<text text-anchor="start" x="85" y="-1087" font-family="Helvetica,sans-Serif" font-size="10.00">#</text>
<text text-anchor="start" x="98" y="-1087" font-family="Helvetica,sans-Serif" font-size="10.00">m_active_readers</text>
<text text-anchor="start" x="85" y="-1072" font-family="Helvetica,sans-Serif" font-size="10.00">#</text>
<text text-anchor="start" x="98" y="-1072" font-family="Helvetica,sans-Serif" font-size="10.00">m_cached_ext_buffer</text>
<text text-anchor="start" x="85" y="-1057" font-family="Helvetica,sans-Serif" font-size="10.00">#</text>
<text text-anchor="start" x="98" y="-1057" font-family="Helvetica,sans-Serif" font-size="10.00">m_circular_mode</text>
<text text-anchor="start" x="85" y="-1042" font-family="Helvetica,sans-Serif" font-size="10.00">#</text>
<text text-anchor="start" x="98" y="-1042" font-family="Helvetica,sans-Serif" font-size="10.00">m_circular_write_position</text>
<text text-anchor="start" x="85" y="-1027" font-family="Helvetica,sans-Serif" font-size="10.00">#</text>
<text text-anchor="start" x="98" y="-1027" font-family="Helvetica,sans-Serif" font-size="10.00">m_consumed_dimensions</text>
<text text-anchor="start" x="85" y="-1012" font-family="Helvetica,sans-Serif" font-size="10.00">#</text>
<text text-anchor="start" x="98" y="-1012" font-family="Helvetica,sans-Serif" font-size="10.00">m_data</text>
<text text-anchor="start" x="85" y="-997" font-family="Helvetica,sans-Serif" font-size="10.00">#</text>
<text text-anchor="start" x="98" y="-997" font-family="Helvetica,sans-Serif" font-size="10.00">m_data_mutex</text>
<text text-anchor="start" x="85" y="-982" font-family="Helvetica,sans-Serif" font-size="10.00">#</text>
<text text-anchor="start" x="98" y="-982" font-family="Helvetica,sans-Serif" font-size="10.00">m_default_processor</text>
<text text-anchor="start" x="85" y="-967" font-family="Helvetica,sans-Serif" font-size="10.00">#</text>
<text text-anchor="start" x="98" y="-967" font-family="Helvetica,sans-Serif" font-size="10.00">m_dimension_to_next</text>
<text text-anchor="start" x="98" y="-956" font-family="Helvetica,sans-Serif" font-size="10.00">_reader_id</text>
<text text-anchor="start" x="85" y="-941" font-family="Helvetica,sans-Serif" font-size="10.00">#</text>
<text text-anchor="start" x="98" y="-941" font-family="Helvetica,sans-Serif" font-size="10.00">m_double_extraction</text>
<text text-anchor="start" x="98" y="-930" font-family="Helvetica,sans-Serif" font-size="10.00">_dirty</text>
<text text-anchor="start" x="98" y="-915" font-family="Helvetica,sans-Serif" font-size="10.00">and 17 more...</text>
<text text-anchor="start" x="87.5" y="-900" font-family="Helvetica,sans-Serif" font-size="10.00">&#45;</text>
<text text-anchor="start" x="98" y="-900" font-family="Helvetica,sans-Serif" font-size="10.00">m_span_cache</text>
<text text-anchor="start" x="87.5" y="-885" font-family="Helvetica,sans-Serif" font-size="10.00">&#45;</text>
<text text-anchor="start" x="98" y="-885" font-family="Helvetica,sans-Serif" font-size="10.00">m_span_cache_dirty</text>
<text text-anchor="start" x="85" y="-870" font-family="Helvetica,sans-Serif" font-size="10.00">+</text>
<text text-anchor="start" x="98" y="-870" font-family="Helvetica,sans-Serif" font-size="10.00">add_region_group()</text>
<text text-anchor="start" x="85" y="-855" font-family="Helvetica,sans-Serif" font-size="10.00">+</text>
<text text-anchor="start" x="98" y="-855" font-family="Helvetica,sans-Serif" font-size="10.00">advance_read_position()</text>
<text text-anchor="start" x="85" y="-840" font-family="Helvetica,sans-Serif" font-size="10.00">+</text>
<text text-anchor="start" x="98" y="-840" font-family="Helvetica,sans-Serif" font-size="10.00">all_channel_data()</text>
<text text-anchor="start" x="85" y="-825" font-family="Helvetica,sans-Serif" font-size="10.00">+</text>
<text text-anchor="start" x="98" y="-825" font-family="Helvetica,sans-Serif" font-size="10.00">all_dimensions_consumed()</text>
<text text-anchor="start" x="85" y="-810" font-family="Helvetica,sans-Serif" font-size="10.00">+</text>
<text text-anchor="start" x="98" y="-810" font-family="Helvetica,sans-Serif" font-size="10.00">channel_data()</text>
<text text-anchor="start" x="85" y="-795" font-family="Helvetica,sans-Serif" font-size="10.00">+</text>
<text text-anchor="start" x="98" y="-795" font-family="Helvetica,sans-Serif" font-size="10.00">clear()</text>
<text text-anchor="start" x="85" y="-780" font-family="Helvetica,sans-Serif" font-size="10.00">+</text>
<text text-anchor="start" x="98" y="-780" font-family="Helvetica,sans-Serif" font-size="10.00">clear_all_consumption()</text>
<text text-anchor="start" x="85" y="-765" font-family="Helvetica,sans-Serif" font-size="10.00">+</text>
<text text-anchor="start" x="98" y="-765" font-family="Helvetica,sans-Serif" font-size="10.00">coordinates_to_linear</text>
<text text-anchor="start" x="98" y="-754" font-family="Helvetica,sans-Serif" font-size="10.00">_index()</text>
<text text-anchor="start" x="85" y="-739" font-family="Helvetica,sans-Serif" font-size="10.00">+</text>
<text text-anchor="start" x="98" y="-739" font-family="Helvetica,sans-Serif" font-size="10.00">create_default_processor()</text>
<text text-anchor="start" x="85" y="-724" font-family="Helvetica,sans-Serif" font-size="10.00">+</text>
<text text-anchor="start" x="98" y="-724" font-family="Helvetica,sans-Serif" font-size="10.00">get_all_region_groups()</text>
<text text-anchor="start" x="98" y="-709" font-family="Helvetica,sans-Serif" font-size="10.00">and 72 more...</text>
<text text-anchor="start" x="85" y="-694" font-family="Helvetica,sans-Serif" font-size="10.00">#</text>
<text text-anchor="start" x="98" y="-694" font-family="Helvetica,sans-Serif" font-size="10.00">get_span_cache()</text>
<text text-anchor="start" x="85" y="-679" font-family="Helvetica,sans-Serif" font-size="10.00">#</text>
<text text-anchor="start" x="98" y="-679" font-family="Helvetica,sans-Serif" font-size="10.00">invalidate_span_cache()</text>
<text text-anchor="start" x="85" y="-664" font-family="Helvetica,sans-Serif" font-size="10.00">#</text>
<text text-anchor="start" x="98" y="-664" font-family="Helvetica,sans-Serif" font-size="10.00">notify_state_change()</text>
<text text-anchor="start" x="85" y="-649" font-family="Helvetica,sans-Serif" font-size="10.00">#</text>
<text text-anchor="start" x="98" y="-649" font-family="Helvetica,sans-Serif" font-size="10.00">reorganize_data_layout()</text>
<text text-anchor="start" x="85" y="-634" font-family="Helvetica,sans-Serif" font-size="10.00">#</text>
<text text-anchor="start" x="98" y="-634" font-family="Helvetica,sans-Serif" font-size="10.00">setup_dimensions()</text>
<polygon fill="#666666" stroke="#666666" points="81,-1097 81,-1097 239,-1097 239,-1097 81,-1097"/>
<polygon fill="#666666" stroke="#666666" points="81,-880 81,-880 96,-880 96,-880 81,-880"/>
<polygon fill="#666666" stroke="#666666" points="96,-880 96,-880 239,-880 239,-880 96,-880"/>
<polygon fill="none" stroke="#666666" points="81,-627 81,-1125 239,-1125 239,-627 81,-627"/>
</a>
</g>
</g>
<!-- Node6 -->
<g id="Node000006" class="node">
<title>Node6</title>
<g id="a_Node000006"><a xlink:href="classMayaFlux_1_1Kakshya_1_1DynamicSoundStream.html" target="_top" xlink:title="Dynamic capacity streaming audio container with automatic resizing and circular buffering.">
<polygon fill="white" stroke="transparent" points="153.5,-591 6.5,-591 6.5,-231 153.5,-231 153.5,-591"/>
<text text-anchor="start" x="26" y="-579" font-family="Helvetica,sans-Serif" font-size="10.00">MayaFlux::Kakshya::</text>
<text text-anchor="start" x="26" y="-568" font-family="Helvetica,sans-Serif" font-size="10.00">DynamicSoundStream</text>
<text text-anchor="start" x="13.5" y="-553" font-family="Helvetica,sans-Serif" font-size="10.00">&#45;</text>
<text text-anchor="start" x="24" y="-553" font-family="Helvetica,sans-Serif" font-size="10.00">m_auto_resize</text>
<text text-anchor="start" x="13.5" y="-538" font-family="Helvetica,sans-Serif" font-size="10.00">&#45;</text>
<text text-anchor="start" x="24" y="-538" font-family="Helvetica,sans-Serif" font-size="10.00">m_circular_capacity</text>
<text text-anchor="start" x="13.5" y="-523" font-family="Helvetica,sans-Serif" font-size="10.00">&#45;</text>
<text text-anchor="start" x="24" y="-523" font-family="Helvetica,sans-Serif" font-size="10.00">m_dynamic_data</text>
<text text-anchor="start" x="13.5" y="-508" font-family="Helvetica,sans-Serif" font-size="10.00">&#45;</text>
<text text-anchor="start" x="24" y="-508" font-family="Helvetica,sans-Serif" font-size="10.00">m_dynamic_slots</text>
<text text-anchor="start" x="13.5" y="-493" font-family="Helvetica,sans-Serif" font-size="10.00">&#45;</text>
<text text-anchor="start" x="24" y="-493" font-family="Helvetica,sans-Serif" font-size="10.00">m_is_circular</text>
<text text-anchor="start" x="11" y="-478" font-family="Helvetica,sans-Serif" font-size="10.00">+</text>
<text text-anchor="start" x="24" y="-478" font-family="Helvetica,sans-Serif" font-size="10.00">allocate_dynamic_slot()</text>
<text text-anchor="start" x="11" y="-463" font-family="Helvetica,sans-Serif" font-size="10.00">+</text>
<text text-anchor="start" x="24" y="-463" font-family="Helvetica,sans-Serif" font-size="10.00">disable_circular_buffer()</text>
<text text-anchor="start" x="11" y="-448" font-family="Helvetica,sans-Serif" font-size="10.00">+</text>
<text text-anchor="start" x="24" y="-448" font-family="Helvetica,sans-Serif" font-size="10.00">DynamicSoundStream()</text>
<text text-anchor="start" x="11" y="-433" font-family="Helvetica,sans-Serif" font-size="10.00">+</text>
<text text-anchor="start" x="24" y="-433" font-family="Helvetica,sans-Serif" font-size="10.00">enable_circular_buffer()</text>
<text text-anchor="start" x="11" y="-418" font-family="Helvetica,sans-Serif" font-size="10.00">+</text>
<text text-anchor="start" x="24" y="-418" font-family="Helvetica,sans-Serif" font-size="10.00">ensure_capacity()</text>
<text text-anchor="start" x="11" y="-403" font-family="Helvetica,sans-Serif" font-size="10.00">+</text>
<text text-anchor="start" x="24" y="-403" font-family="Helvetica,sans-Serif" font-size="10.00">get_auto_resize()</text>
<text text-anchor="start" x="11" y="-388" font-family="Helvetica,sans-Serif" font-size="10.00">+</text>
<text text-anchor="start" x="24" y="-388" font-family="Helvetica,sans-Serif" font-size="10.00">get_channel_frames()</text>
<text text-anchor="start" x="11" y="-373" font-family="Helvetica,sans-Serif" font-size="10.00">+</text>
<text text-anchor="start" x="24" y="-373" font-family="Helvetica,sans-Serif" font-size="10.00">get_channel_frames()</text>
<text text-anchor="start" x="11" y="-358" font-family="Helvetica,sans-Serif" font-size="10.00">+</text>
<text text-anchor="start" x="24" y="-358" font-family="Helvetica,sans-Serif" font-size="10.00">get_circular_capacity()</text>
<text text-anchor="start" x="11" y="-343" font-family="Helvetica,sans-Serif" font-size="10.00">+</text>
<text text-anchor="start" x="24" y="-343" font-family="Helvetica,sans-Serif" font-size="10.00">get_dynamic_data()</text>
<text text-anchor="start" x="24" y="-328" font-family="Helvetica,sans-Serif" font-size="10.00">and 7 more...</text>
<text text-anchor="start" x="13.5" y="-313" font-family="Helvetica,sans-Serif" font-size="10.00">&#45;</text>
<text text-anchor="start" x="24" y="-313" font-family="Helvetica,sans-Serif" font-size="10.00">create_expanded_data()</text>
<text text-anchor="start" x="13.5" y="-298" font-family="Helvetica,sans-Serif" font-size="10.00">&#45;</text>
<text text-anchor="start" x="24" y="-298" font-family="Helvetica,sans-Serif" font-size="10.00">expand_to()</text>
<text text-anchor="start" x="13.5" y="-283" font-family="Helvetica,sans-Serif" font-size="10.00">&#45;</text>
<text text-anchor="start" x="24" y="-283" font-family="Helvetica,sans-Serif" font-size="10.00">set_all_data()</text>
<text text-anchor="start" x="13.5" y="-268" font-family="Helvetica,sans-Serif" font-size="10.00">&#45;</text>
<text text-anchor="start" x="24" y="-268" font-family="Helvetica,sans-Serif" font-size="10.00">set_all_data()</text>
<text text-anchor="start" x="13.5" y="-253" font-family="Helvetica,sans-Serif" font-size="10.00">&#45;</text>
<text text-anchor="start" x="24" y="-253" font-family="Helvetica,sans-Serif" font-size="10.00">validate()</text>
<text text-anchor="start" x="13.5" y="-238" font-family="Helvetica,sans-Serif" font-size="10.00">&#45;</text>
<text text-anchor="start" x="24" y="-238" font-family="Helvetica,sans-Serif" font-size="10.00">validate_single_channel()</text>
<polygon fill="#666666" stroke="#666666" points="7,-563 7,-563 154,-563 154,-563 7,-563"/>
<polygon fill="#666666" stroke="#666666" points="7,-488 7,-488 22,-488 22,-488 7,-488"/>
<polygon fill="#666666" stroke="#666666" points="22,-488 22,-488 154,-488 154,-488 22,-488"/>
<polygon fill="none" stroke="#666666" points="6.5,-231 6.5,-591 153.5,-591 153.5,-231 6.5,-231"/>
</a>
</g>
</g>
<!-- Node1&#45;&gt;Node6 -->
<g id="edge5_Node000001_Node000006" class="edge">
<title>Node1&#45;&gt;Node6</title>
<g id="a_edge5_Node000001_Node000006"><a xlink:title=" ">
<path fill="none" stroke="#63b8ff" d="M115.38,-616.77C113.89,-608.15 112.41,-599.59 110.95,-591.13"/>
<polygon fill="none" stroke="#63b8ff" points="111.98,-617.64 117.13,-626.9 118.88,-616.45 111.98,-617.64"/>
</a>
</g>
</g>
<!-- Node8 -->
<g id="Node000008" class="node">
<title>Node8</title>
<g id="a_Node000008"><a xlink:href="classMayaFlux_1_1Kakshya_1_1SoundFileContainer.html" target="_top" xlink:title="File&#45;backed audio container with complete streaming functionality.">
<polygon fill="white" stroke="transparent" points="308,-478.5 172,-478.5 172,-343.5 308,-343.5 308,-478.5"/>
<text text-anchor="start" x="188.5" y="-466" font-family="Helvetica,sans-Serif" font-size="10.00">MayaFlux::Kakshya::</text>
<text text-anchor="start" x="192.5" y="-455" font-family="Helvetica,sans-Serif" font-size="10.00">SoundFileContainer</text>
<text text-anchor="start" x="238" y="-440" font-family="Helvetica,sans-Serif" font-size="10.00"> </text>
<text text-anchor="start" x="176" y="-425" font-family="Helvetica,sans-Serif" font-size="10.00">+</text>
<text text-anchor="start" x="189" y="-425" font-family="Helvetica,sans-Serif" font-size="10.00">get_duration_seconds()</text>
<text text-anchor="start" x="176" y="-410" font-family="Helvetica,sans-Serif" font-size="10.00">+</text>
<text text-anchor="start" x="189" y="-410" font-family="Helvetica,sans-Serif" font-size="10.00">set_raw_data()</text>
<text text-anchor="start" x="176" y="-395" font-family="Helvetica,sans-Serif" font-size="10.00">+</text>
<text text-anchor="start" x="189" y="-395" font-family="Helvetica,sans-Serif" font-size="10.00">setup()</text>
<text text-anchor="start" x="176" y="-380" font-family="Helvetica,sans-Serif" font-size="10.00">+</text>
<text text-anchor="start" x="189" y="-380" font-family="Helvetica,sans-Serif" font-size="10.00">SoundFileContainer()</text>
<text text-anchor="start" x="176" y="-365" font-family="Helvetica,sans-Serif" font-size="10.00">+</text>
<text text-anchor="start" x="189" y="-365" font-family="Helvetica,sans-Serif" font-size="10.00">SoundFileContainer()</text>
<text text-anchor="start" x="176" y="-350" font-family="Helvetica,sans-Serif" font-size="10.00">+</text>
<text text-anchor="start" x="189" y="-350" font-family="Helvetica,sans-Serif" font-size="10.00">~SoundFileContainer()</text>
<polygon fill="#666666" stroke="#666666" points="172,-450 172,-450 308,-450 308,-450 172,-450"/>
<polygon fill="#666666" stroke="#666666" points="172,-435 172,-435 308,-435 308,-435 172,-435"/>
<polygon fill="none" stroke="#666666" points="172,-343.5 172,-478.5 308,-478.5 308,-343.5 172,-343.5"/>
</a>
</g>
</g>
<!-- Node1&#45;&gt;Node8 -->
<g id="edge7_Node000001_Node000008" class="edge">
<title>Node1&#45;&gt;Node8</title>
<g id="a_edge7_Node000001_Node000008"><a xlink:title=" ">
<path fill="none" stroke="#63b8ff" d="M204.58,-616.97C213.44,-565.7 222,-516.19 228.48,-478.68"/>
<polygon fill="none" stroke="#63b8ff" points="201.12,-616.45 202.87,-626.9 208.02,-617.64 201.12,-616.45"/>
</a>
</g>
</g>
<!-- Node2 -->
<g id="Node000002" class="node">
<title>Node2</title>
<g id="a_Node000002"><a xlink:href="classMayaFlux_1_1Kakshya_1_1StreamContainer.html" target="_top" xlink:title="Data&#45;driven interface for temporal stream containers with navigable read position.">
<polygon fill="white" stroke="transparent" points="231,-1371 89,-1371 89,-1161 231,-1161 231,-1371"/>
<text text-anchor="start" x="108.5" y="-1359" font-family="Helvetica,sans-Serif" font-size="10.00">MayaFlux::Kakshya::</text>
<text text-anchor="start" x="118.5" y="-1348" font-family="Helvetica,sans-Serif" font-size="10.00">StreamContainer</text>
<text text-anchor="start" x="158" y="-1333" font-family="Helvetica,sans-Serif" font-size="10.00"> </text>
<text text-anchor="start" x="93" y="-1318" font-family="Helvetica,sans-Serif" font-size="10.00">+</text>
<text text-anchor="start" x="106" y="-1318" font-family="Helvetica,sans-Serif" font-size="10.00">advance_read_position()</text>
<text text-anchor="start" x="93" y="-1303" font-family="Helvetica,sans-Serif" font-size="10.00">+</text>
<text text-anchor="start" x="106" y="-1303" font-family="Helvetica,sans-Serif" font-size="10.00">get_loop_region()</text>
<text text-anchor="start" x="93" y="-1288" font-family="Helvetica,sans-Serif" font-size="10.00">+</text>
<text text-anchor="start" x="106" y="-1288" font-family="Helvetica,sans-Serif" font-size="10.00">get_read_position()</text>
<text text-anchor="start" x="93" y="-1273" font-family="Helvetica,sans-Serif" font-size="10.00">+</text>
<text text-anchor="start" x="106" y="-1273" font-family="Helvetica,sans-Serif" font-size="10.00">get_remaining_frames()</text>
<text text-anchor="start" x="93" y="-1258" font-family="Helvetica,sans-Serif" font-size="10.00">+</text>
<text text-anchor="start" x="106" y="-1258" font-family="Helvetica,sans-Serif" font-size="10.00">get_temporal_rate()</text>
<text text-anchor="start" x="93" y="-1243" font-family="Helvetica,sans-Serif" font-size="10.00">+</text>
<text text-anchor="start" x="106" y="-1243" font-family="Helvetica,sans-Serif" font-size="10.00">has_processing_token()</text>
<text text-anchor="start" x="93" y="-1228" font-family="Helvetica,sans-Serif" font-size="10.00">+</text>
<text text-anchor="start" x="106" y="-1228" font-family="Helvetica,sans-Serif" font-size="10.00">is_at_end()</text>
<text text-anchor="start" x="93" y="-1213" font-family="Helvetica,sans-Serif" font-size="10.00">+</text>
<text text-anchor="start" x="106" y="-1213" font-family="Helvetica,sans-Serif" font-size="10.00">is_looping()</text>
<text text-anchor="start" x="93" y="-1198" font-family="Helvetica,sans-Serif" font-size="10.00">+</text>
<text text-anchor="start" x="106" y="-1198" font-family="Helvetica,sans-Serif" font-size="10.00">is_ready()</text>
<text text-anchor="start" x="93" y="-1183" font-family="Helvetica,sans-Serif" font-size="10.00">+</text>
<text text-anchor="start" x="106" y="-1183" font-family="Helvetica,sans-Serif" font-size="10.00">peek_sequential()</text>
<text text-anchor="start" x="106" y="-1168" font-family="Helvetica,sans-Serif" font-size="10.00">and 11 more...</text>
<polygon fill="#666666" stroke="#666666" points="89,-1343 89,-1343 231,-1343 231,-1343 89,-1343"/>
<polygon fill="#666666" stroke="#666666" points="89,-1328 89,-1328 231,-1328 231,-1328 89,-1328"/>
<polygon fill="none" stroke="#666666" points="89,-1161 89,-1371 231,-1371 231,-1161 89,-1161"/>
</a>
</g>
</g>
<!-- Node2&#45;&gt;Node1 -->
<g id="edge1_Node000001_Node000002" class="edge">
<title>Node2&#45;&gt;Node1</title>
<g id="a_edge1_Node000001_Node000002"><a xlink:title=" ">
<path fill="none" stroke="#63b8ff" d="M160,-1150.71C160,-1142.37 160,-1133.78 160,-1125.04"/>
<polygon fill="none" stroke="#63b8ff" points="156.5,-1150.77 160,-1160.77 163.5,-1150.77 156.5,-1150.77"/>
</a>
</g>
</g>
<!-- Node3 -->
<g id="Node000003" class="node">
<title>Node3</title>
<g id="a_Node000003"><a xlink:href="classMayaFlux_1_1Kakshya_1_1SignalSourceContainer.html" target="_top" xlink:title="Data&#45;driven interface for managing arbitrary processable signal sources.">
<polygon fill="white" stroke="transparent" points="239,-1617 81,-1617 81,-1407 239,-1407 239,-1617"/>
<text text-anchor="start" x="104.5" y="-1605" font-family="Helvetica,sans-Serif" font-size="10.00">MayaFlux::Kakshya::</text>
<text text-anchor="start" x="104.5" y="-1594" font-family="Helvetica,sans-Serif" font-size="10.00">SignalSourceContainer</text>
<text text-anchor="start" x="158" y="-1579" font-family="Helvetica,sans-Serif" font-size="10.00"> </text>
<text text-anchor="start" x="85" y="-1564" font-family="Helvetica,sans-Serif" font-size="10.00">+</text>
<text text-anchor="start" x="98" y="-1564" font-family="Helvetica,sans-Serif" font-size="10.00">all_channel_data()</text>
<text text-anchor="start" x="85" y="-1549" font-family="Helvetica,sans-Serif" font-size="10.00">+</text>
<text text-anchor="start" x="98" y="-1549" font-family="Helvetica,sans-Serif" font-size="10.00">all_dimensions_consumed()</text>
<text text-anchor="start" x="85" y="-1534" font-family="Helvetica,sans-Serif" font-size="10.00">+</text>
<text text-anchor="start" x="98" y="-1534" font-family="Helvetica,sans-Serif" font-size="10.00">channel_data()</text>
<text text-anchor="start" x="85" y="-1519" font-family="Helvetica,sans-Serif" font-size="10.00">+</text>
<text text-anchor="start" x="98" y="-1519" font-family="Helvetica,sans-Serif" font-size="10.00">create_default_processor()</text>
<text text-anchor="start" x="85" y="-1504" font-family="Helvetica,sans-Serif" font-size="10.00">+</text>
<text text-anchor="start" x="98" y="-1504" font-family="Helvetica,sans-Serif" font-size="10.00">get_data()</text>
<text text-anchor="start" x="85" y="-1489" font-family="Helvetica,sans-Serif" font-size="10.00">+</text>
<text text-anchor="start" x="98" y="-1489" font-family="Helvetica,sans-Serif" font-size="10.00">get_default_processor()</text>
<text text-anchor="start" x="85" y="-1474" font-family="Helvetica,sans-Serif" font-size="10.00">+</text>
<text text-anchor="start" x="98" y="-1474" font-family="Helvetica,sans-Serif" font-size="10.00">get_processed_data()</text>
<text text-anchor="start" x="85" y="-1459" font-family="Helvetica,sans-Serif" font-size="10.00">+</text>
<text text-anchor="start" x="98" y="-1459" font-family="Helvetica,sans-Serif" font-size="10.00">get_processed_data()</text>
<text text-anchor="start" x="85" y="-1444" font-family="Helvetica,sans-Serif" font-size="10.00">+</text>
<text text-anchor="start" x="98" y="-1444" font-family="Helvetica,sans-Serif" font-size="10.00">get_processing_chain()</text>
<text text-anchor="start" x="85" y="-1429" font-family="Helvetica,sans-Serif" font-size="10.00">+</text>
<text text-anchor="start" x="98" y="-1429" font-family="Helvetica,sans-Serif" font-size="10.00">get_processing_state()</text>
<text text-anchor="start" x="98" y="-1414" font-family="Helvetica,sans-Serif" font-size="10.00">and 15 more...</text>
<polygon fill="#666666" stroke="#666666" points="81,-1589 81,-1589 239,-1589 239,-1589 81,-1589"/>
<polygon fill="#666666" stroke="#666666" points="81,-1574 81,-1574 239,-1574 239,-1574 81,-1574"/>
<polygon fill="none" stroke="#666666" points="81,-1407 81,-1617 239,-1617 239,-1407 81,-1407"/>
</a>
</g>
</g>
<!-- Node3&#45;&gt;Node2 -->
<g id="edge2_Node000002_Node000003" class="edge">
<title>Node3&#45;&gt;Node2</title>
<g id="a_edge2_Node000002_Node000003"><a xlink:title=" ">
<path fill="none" stroke="#63b8ff" d="M160,-1396.55C160,-1388.1 160,-1379.61 160,-1371.23"/>
<polygon fill="none" stroke="#63b8ff" points="156.5,-1396.81 160,-1406.81 163.5,-1396.81 156.5,-1396.81"/>
</a>
</g>
</g>
<!-- Node4 -->
<g id="Node000004" class="node">
<title>Node4</title>
<g id="a_Node000004"><a xlink:href="classMayaFlux_1_1Kakshya_1_1NDDataContainer.html" target="_top" xlink:title="Abstract interface for N&#45;dimensional data containers.">
<polygon fill="white" stroke="transparent" points="136,-1874 0,-1874 0,-1653 136,-1653 136,-1874"/>
<text text-anchor="start" x="16.5" y="-1861.5" font-family="Helvetica,sans-Serif" font-size="10.00">MayaFlux::Kakshya::</text>
<text text-anchor="start" x="25" y="-1850.5" font-family="Helvetica,sans-Serif" font-size="10.00">NDDataContainer</text>
<text text-anchor="start" x="66" y="-1835.5" font-family="Helvetica,sans-Serif" font-size="10.00"> </text>
<text text-anchor="start" x="4" y="-1820.5" font-family="Helvetica,sans-Serif" font-size="10.00">+</text>
<text text-anchor="start" x="17" y="-1820.5" font-family="Helvetica,sans-Serif" font-size="10.00">add_region_group()</text>
<text text-anchor="start" x="4" y="-1805.5" font-family="Helvetica,sans-Serif" font-size="10.00">+</text>
<text text-anchor="start" x="17" y="-1805.5" font-family="Helvetica,sans-Serif" font-size="10.00">clear()</text>
<text text-anchor="start" x="4" y="-1790.5" font-family="Helvetica,sans-Serif" font-size="10.00">+</text>
<text text-anchor="start" x="17" y="-1790.5" font-family="Helvetica,sans-Serif" font-size="10.00">coordinates_to_linear</text>
<text text-anchor="start" x="17" y="-1779.5" font-family="Helvetica,sans-Serif" font-size="10.00">_index()</text>
<text text-anchor="start" x="4" y="-1764.5" font-family="Helvetica,sans-Serif" font-size="10.00">+</text>
<text text-anchor="start" x="17" y="-1764.5" font-family="Helvetica,sans-Serif" font-size="10.00">get_all_region_groups()</text>
<text text-anchor="start" x="4" y="-1749.5" font-family="Helvetica,sans-Serif" font-size="10.00">+</text>
<text text-anchor="start" x="17" y="-1749.5" font-family="Helvetica,sans-Serif" font-size="10.00">get_dimensions()</text>
<text text-anchor="start" x="4" y="-1734.5" font-family="Helvetica,sans-Serif" font-size="10.00">+</text>
<text text-anchor="start" x="17" y="-1734.5" font-family="Helvetica,sans-Serif" font-size="10.00">get_frame()</text>
<text text-anchor="start" x="4" y="-1719.5" font-family="Helvetica,sans-Serif" font-size="10.00">+</text>
<text text-anchor="start" x="17" y="-1719.5" font-family="Helvetica,sans-Serif" font-size="10.00">get_frame_size()</text>
<text text-anchor="start" x="4" y="-1704.5" font-family="Helvetica,sans-Serif" font-size="10.00">+</text>
<text text-anchor="start" x="17" y="-1704.5" font-family="Helvetica,sans-Serif" font-size="10.00">get_frames()</text>
<text text-anchor="start" x="4" y="-1689.5" font-family="Helvetica,sans-Serif" font-size="10.00">+</text>
<text text-anchor="start" x="17" y="-1689.5" font-family="Helvetica,sans-Serif" font-size="10.00">get_memory_layout()</text>
<text text-anchor="start" x="4" y="-1674.5" font-family="Helvetica,sans-Serif" font-size="10.00">+</text>
<text text-anchor="start" x="17" y="-1674.5" font-family="Helvetica,sans-Serif" font-size="10.00">get_num_frames()</text>
<text text-anchor="start" x="17" y="-1659.5" font-family="Helvetica,sans-Serif" font-size="10.00">and 23 more...</text>
<polygon fill="#666666" stroke="#666666" points="0,-1845.5 0,-1845.5 136,-1845.5 136,-1845.5 0,-1845.5"/>
<polygon fill="#666666" stroke="#666666" points="0,-1830.5 0,-1830.5 136,-1830.5 136,-1830.5 0,-1830.5"/>
<polygon fill="none" stroke="#666666" points="0,-1653 0,-1874 136,-1874 136,-1653 0,-1653"/>
</a>
</g>
</g>
<!-- Node4&#45;&gt;Node3 -->
<g id="edge3_Node000003_Node000004" class="edge">
<title>Node4&#45;&gt;Node3</title>
<g id="a_edge3_Node000003_Node000004"><a xlink:title=" ">
<path fill="none" stroke="#63b8ff" d="M111.95,-1643.3C115.16,-1634.61 118.38,-1625.88 121.54,-1617.29"/>
<polygon fill="none" stroke="#63b8ff" points="108.66,-1642.11 108.49,-1652.7 115.23,-1644.53 108.66,-1642.11"/>
</a>
</g>
</g>
<!-- Node5 -->
<g id="Node000005" class="node">
<title>Node5</title>
<g id="a_Node000005"><a xlink:title=" ">
<polygon fill="white" stroke="transparent" points="349.5,-1793.5 154.5,-1793.5 154.5,-1733.5 349.5,-1733.5 349.5,-1793.5"/>
<text text-anchor="start" x="160" y="-1781.5" font-family="Helvetica,sans-Serif" font-size="10.00">std::enable_shared</text>
<text text-anchor="start" x="160" y="-1770.5" font-family="Helvetica,sans-Serif" font-size="10.00">_from_this&lt; SignalSourceContainer &gt;</text>
<text text-anchor="start" x="250.5" y="-1755.5" font-family="Helvetica,sans-Serif" font-size="10.00"> </text>
<text text-anchor="start" x="250.5" y="-1740.5" font-family="Helvetica,sans-Serif" font-size="10.00"> </text>
<polygon fill="#666666" stroke="#666666" points="155,-1765.5 155,-1765.5 350,-1765.5 350,-1765.5 155,-1765.5"/>
<polygon fill="#666666" stroke="#666666" points="155,-1750.5 155,-1750.5 350,-1750.5 350,-1750.5 155,-1750.5"/>
<polygon fill="none" stroke="#666666" points="154.5,-1733.5 154.5,-1793.5 349.5,-1793.5 349.5,-1733.5 154.5,-1733.5"/>
</a>
</g>
</g>
<!-- Node5&#45;&gt;Node3 -->
<g id="edge4_Node000003_Node000005" class="edge">
<title>Node5&#45;&gt;Node3</title>
<g id="a_edge4_Node000003_Node000005"><a xlink:title=" ">
<path fill="none" stroke="#63b8ff" d="M237.73,-1723.81C227.2,-1695.26 212.35,-1654.98 198.45,-1617.27"/>
<polygon fill="none" stroke="#63b8ff" points="234.52,-1725.22 241.27,-1733.39 241.09,-1722.8 234.52,-1725.22"/>
</a>
</g>
</g>
<!-- Node7 -->
<g id="Node000007" class="node">
<title>Node7</title>
<g id="a_Node000007"><a xlink:href="classMayaFlux_1_1Kakshya_1_1AudioOutputContainer.html" target="_top" xlink:title="DynamicSoundStream subclass wrapping the live engine audio output.">
<polygon fill="white" stroke="transparent" points="156,-195 4,-195 4,0 156,0 156,-195"/>
<text text-anchor="start" x="25.5" y="-182.5" font-family="Helvetica,sans-Serif" font-size="10.00">MayaFlux::Kakshya::</text>
<text text-anchor="start" x="25.5" y="-171.5" font-family="Helvetica,sans-Serif" font-size="10.00">AudioOutputContainer</text>
<text text-anchor="start" x="10.5" y="-156.5" font-family="Helvetica,sans-Serif" font-size="10.00">&#45;</text>
<text text-anchor="start" x="21" y="-156.5" font-family="Helvetica,sans-Serif" font-size="10.00">m_buffer_size</text>
<text text-anchor="start" x="10.5" y="-141.5" font-family="Helvetica,sans-Serif" font-size="10.00">&#45;</text>
<text text-anchor="start" x="21" y="-141.5" font-family="Helvetica,sans-Serif" font-size="10.00">m_stream_info</text>
<text text-anchor="start" x="8" y="-126.5" font-family="Helvetica,sans-Serif" font-size="10.00">+</text>
<text text-anchor="start" x="21" y="-126.5" font-family="Helvetica,sans-Serif" font-size="10.00">AudioOutputContainer()</text>
<text text-anchor="start" x="8" y="-111.5" font-family="Helvetica,sans-Serif" font-size="10.00">+</text>
<text text-anchor="start" x="21" y="-111.5" font-family="Helvetica,sans-Serif" font-size="10.00">AudioOutputContainer()</text>
<text text-anchor="start" x="8" y="-96.5" font-family="Helvetica,sans-Serif" font-size="10.00">+</text>
<text text-anchor="start" x="21" y="-96.5" font-family="Helvetica,sans-Serif" font-size="10.00">AudioOutputContainer()</text>
<text text-anchor="start" x="8" y="-81.5" font-family="Helvetica,sans-Serif" font-size="10.00">+</text>
<text text-anchor="start" x="21" y="-81.5" font-family="Helvetica,sans-Serif" font-size="10.00">create_default_processor()</text>
<text text-anchor="start" x="8" y="-66.5" font-family="Helvetica,sans-Serif" font-size="10.00">+</text>
<text text-anchor="start" x="21" y="-66.5" font-family="Helvetica,sans-Serif" font-size="10.00">get_buffer_size()</text>
<text text-anchor="start" x="8" y="-51.5" font-family="Helvetica,sans-Serif" font-size="10.00">+</text>
<text text-anchor="start" x="21" y="-51.5" font-family="Helvetica,sans-Serif" font-size="10.00">operator=()</text>
<text text-anchor="start" x="8" y="-36.5" font-family="Helvetica,sans-Serif" font-size="10.00">+</text>
<text text-anchor="start" x="21" y="-36.5" font-family="Helvetica,sans-Serif" font-size="10.00">operator=()</text>
<text text-anchor="start" x="8" y="-21.5" font-family="Helvetica,sans-Serif" font-size="10.00">+</text>
<text text-anchor="start" x="21" y="-21.5" font-family="Helvetica,sans-Serif" font-size="10.00">process_default()</text>
<text text-anchor="start" x="8" y="-6.5" font-family="Helvetica,sans-Serif" font-size="10.00">+</text>
<text text-anchor="start" x="21" y="-6.5" font-family="Helvetica,sans-Serif" font-size="10.00">~AudioOutputContainer()</text>
<polygon fill="#666666" stroke="#666666" points="4,-166.5 4,-166.5 156,-166.5 156,-166.5 4,-166.5"/>
<polygon fill="#666666" stroke="#666666" points="4,-136.5 4,-136.5 19,-136.5 19,-136.5 4,-136.5"/>
<polygon fill="#666666" stroke="#666666" points="19,-136.5 19,-136.5 156,-136.5 156,-136.5 19,-136.5"/>
<polygon fill="none" stroke="#666666" points="4,0 4,-195 156,-195 156,0 4,0"/>
</a>
</g>
</g>
<!-- Node6&#45;&gt;Node7 -->
<g id="edge6_Node000006_Node000007" class="edge">
<title>Node6&#45;&gt;Node7</title>
<g id="a_edge6_Node000006_Node000007"><a xlink:title=" ">
<path fill="none" stroke="#63b8ff" d="M80,-220.5C80,-211.94 80,-203.53 80,-195.37"/>
<polygon fill="none" stroke="#63b8ff" points="76.5,-220.6 80,-230.6 83.5,-220.6 76.5,-220.6"/>
</a>
</g>
</g>
</g>
</svg>

<g id="navigator" transform="translate(0 0)" fill="#404254">
  <rect fill="#f2f5e9" fill-opacity="0.5" stroke="#606060" stroke-width=".5" x="0" y="0" width="60" height="60"/>
  <use id="zoomplus" xlink:href="#zoomPlus" x="17" y="9" onmousedown="handleZoom(evt,'in')"/>
  <use id="zoomminus" xlink:href="#zoomMin" x="42" y="9" onmousedown="handleZoom(evt,'out')"/>
  <use id="reset" xlink:href="#resetDef" x="30" y="36" onmousedown="handleReset()"/>
   <use id="arrowup" xlink:href="#arrowUp" x="0" y="0" onmousedown="handlePan(0,-1)"/>
  <use id="arrowright" xlink:href="#arrowRight" x="0" y="0" onmousedown="handlePan(1,0)"/>
  <use id="arrowdown" xlink:href="#arrowDown" x="0" y="0" onmousedown="handlePan(0,1)"/>
  <use id="arrowleft" xlink:href="#arrowLeft" x="0" y="0" onmousedown="handlePan(-1,0)"/>
</g>
<svg viewBox="0 0 15 15" width="100%" height="30px" preserveAspectRatio="xMaxYMin meet">
 <g id="arrow_out" transform="scale(0.3 0.3)">
  <a xlink:href="classMayaFlux_1_1Kakshya_1_1SoundStreamContainer__inherit__graph_org.svg" target="_base">
   <rect id="button" ry="5" rx="5" y="6" x="6" height="38" width="38"
        fill="#f2f5e9" fill-opacity="0.5" stroke="#606060" stroke-width="1.0"/>
   <path id="arrow"
     d="M 11.500037,31.436501 C 11.940474,20.09759 22.043105,11.32322 32.158766,21.979434 L 37.068811,17.246167 C 37.068811,17.246167 37.088388,32 37.088388,32 L 22.160133,31.978069 C 22.160133,31.978069 26.997745,27.140456 26.997745,27.140456 C 18.528582,18.264221 13.291696,25.230495 11.500037,31.436501 z"
     style="fill:#404040;"/>
  </a>
 </g>
</svg>

<style type='text/css'>
<![CDATA[
[data-mouse-over-selected='false'] { opacity: 0.7; }
[data-mouse-over-selected='true']  { opacity: 1.0; }
]]>
</style>
<script type="application/ecmascript"><![CDATA[
document.addEventListener('DOMContentLoaded', (event) => {
  highlightEdges();
  highlightAdjacentNodes();
});
]]></script>
</svg>
