<?xml version="1.0" encoding="UTF-8" standalone="no"?>
<!DOCTYPE svg PUBLIC "-//W3C//DTD SVG 1.1//EN"
 "http://www.w3.org/Graphics/SVG/1.1/DTD/svg11.dtd">
<!-- Generated by graphviz version 2.43.0 (0)
 -->
<!-- Title: MayaFlux::Yantra::GpuDispatchCore Pages: 1 -->
<!--zoomable 1466 -->

<svg id="main" version="1.1" xmlns="http://www.w3.org/2000/svg" xmlns:xlink="http://www.w3.org/1999/xlink" xml:space="preserve" onload="init(evt)">
<style type="text/css"><![CDATA[
.node, .edge {opacity: 0.7;}
.node.selected, .edge.selected {opacity: 1;}
.edge:hover path { stroke: red; }
.edge:hover polygon { stroke: red; fill: red; }
]]></style>

<defs>
  <circle id="rim" cx="0" cy="0" r="7"/>
  <circle id="rim2" cx="0" cy="0" r="3.5"/>
  <g id="zoomPlus">
    <use xlink:href="#rim" fill="#404040"><set attributeName="fill" to="#808080" begin="zoomplus.mouseover" end="zoomplus.mouseout"/></use>
    <path d="M-4,0h8M0,-4v8" fill="none" stroke="white" stroke-width="1.5" pointer-events="none"/>
  </g>
  <g id="zoomMin">
    <use xlink:href="#rim" fill="#404040"><set attributeName="fill" to="#808080" begin="zoomminus.mouseover" end="zoomminus.mouseout"/></use>
    <path d="M-4,0h8" fill="none" stroke="white" stroke-width="1.5" pointer-events="none"/>
  </g>
  <g id="arrowUp" transform="translate(30 24)">
    <use xlink:href="#rim"/>
    <path pointer-events="none" fill="none" stroke="white" stroke-width="1.5" d="M0,-3.0v7 M-2.5,-0.5L0,-3.0L2.5,-0.5"/>
  </g>
  <g id="arrowRight" transform="rotate(90) translate(36 -43)">
    <use xlink:href="#rim"/>
    <path pointer-events="none" fill="none" stroke="white" stroke-width="1.5" d="M0,-3.0v7 M-2.5,-0.5L0,-3.0L2.5,-0.5"/>
  </g>
  <g id="arrowDown" transform="rotate(180) translate(-30 -48)">
    <use xlink:href="#rim"/>
    <path pointer-events="none" fill="none" stroke="white" stroke-width="1.5" d="M0,-3.0v7 M-2.5,-0.5L0,-3.0L2.5,-0.5"/>
  </g>
  <g id="arrowLeft" transform="rotate(270) translate(-36 17)">
    <use xlink:href="#rim"/>
    <path pointer-events="none" fill="none" stroke="white" stroke-width="1.5" d="M0,-3.0v7 M-2.5,-0.5L0,-3.0L2.5,-0.5"/>
  </g>
  <g id="resetDef">
    <use xlink:href="#rim2" fill="#404040"><set attributeName="fill" to="#808080" begin="reset.mouseover" end="reset.mouseout"/></use>
  </g>
</defs>
<script type="application/ecmascript">
var viewWidth = 582;
var viewHeight = 1466;
var sectionId = 'dynsection-0';
</script>
<script type="application/ecmascript" xlink:href="svg.min.js"/>
<svg id="graph" class="graph">
<g id="viewport">
<title>MayaFlux::Yantra::GpuDispatchCore</title>
<!-- Node1 -->
<g id="Node000001" class="node">
<title>Node1</title>
<g id="a_Node000001"><a xlink:title="Non&#45;template base that owns all type&#45;independent GPU dispatch logic.">
<polygon fill="#999999" stroke="transparent" points="378,-1458 193,-1458 193,-836 378,-836 378,-1458"/>
<text text-anchor="start" x="198.5" y="-1446" font-family="Helvetica,sans-Serif" font-size="10.00">MayaFlux::Yantra::GpuDispatchCore</text>
<text text-anchor="start" x="206.5" y="-1431" font-family="Helvetica,sans-Serif" font-size="10.00">#</text>
<text text-anchor="start" x="228.5" y="-1431" font-family="Helvetica,sans-Serif" font-size="10.00">m_binding_data</text>
<text text-anchor="start" x="206.5" y="-1416" font-family="Helvetica,sans-Serif" font-size="10.00">#</text>
<text text-anchor="start" x="228.5" y="-1416" font-family="Helvetica,sans-Serif" font-size="10.00">m_bindings</text>
<text text-anchor="start" x="206.5" y="-1401" font-family="Helvetica,sans-Serif" font-size="10.00">#</text>
<text text-anchor="start" x="228.5" y="-1401" font-family="Helvetica,sans-Serif" font-size="10.00">m_image_bindings</text>
<text text-anchor="start" x="206.5" y="-1386" font-family="Helvetica,sans-Serif" font-size="10.00">#</text>
<text text-anchor="start" x="228.5" y="-1386" font-family="Helvetica,sans-Serif" font-size="10.00">m_output_size_overrides</text>
<text text-anchor="start" x="206.5" y="-1371" font-family="Helvetica,sans-Serif" font-size="10.00">#</text>
<text text-anchor="start" x="228.5" y="-1371" font-family="Helvetica,sans-Serif" font-size="10.00">m_passthrough_bytes</text>
<text text-anchor="start" x="206.5" y="-1356" font-family="Helvetica,sans-Serif" font-size="10.00">#</text>
<text text-anchor="start" x="228.5" y="-1356" font-family="Helvetica,sans-Serif" font-size="10.00">m_push_constants</text>
<text text-anchor="start" x="206.5" y="-1341" font-family="Helvetica,sans-Serif" font-size="10.00">#</text>
<text text-anchor="start" x="228.5" y="-1341" font-family="Helvetica,sans-Serif" font-size="10.00">m_resources</text>
<text text-anchor="start" x="206.5" y="-1326" font-family="Helvetica,sans-Serif" font-size="10.00">#</text>
<text text-anchor="start" x="228.5" y="-1326" font-family="Helvetica,sans-Serif" font-size="10.00">m_staging_floats</text>
<text text-anchor="start" x="209" y="-1311" font-family="Helvetica,sans-Serif" font-size="10.00">&#45;</text>
<text text-anchor="start" x="228.5" y="-1311" font-family="Helvetica,sans-Serif" font-size="10.00">m_gpu_config</text>
<text text-anchor="start" x="206.5" y="-1296" font-family="Helvetica,sans-Serif" font-size="10.00">+</text>
<text text-anchor="start" x="228.5" y="-1296" font-family="Helvetica,sans-Serif" font-size="10.00">ensure_gpu_ready()</text>
<text text-anchor="start" x="206.5" y="-1281" font-family="Helvetica,sans-Serif" font-size="10.00">+</text>
<text text-anchor="start" x="228.5" y="-1281" font-family="Helvetica,sans-Serif" font-size="10.00">get_output_image()</text>
<text text-anchor="start" x="206.5" y="-1266" font-family="Helvetica,sans-Serif" font-size="10.00">+</text>
<text text-anchor="start" x="228.5" y="-1266" font-family="Helvetica,sans-Serif" font-size="10.00">GpuDispatchCore()</text>
<text text-anchor="start" x="206.5" y="-1251" font-family="Helvetica,sans-Serif" font-size="10.00">+</text>
<text text-anchor="start" x="228.5" y="-1251" font-family="Helvetica,sans-Serif" font-size="10.00">GpuDispatchCore()</text>
<text text-anchor="start" x="206.5" y="-1236" font-family="Helvetica,sans-Serif" font-size="10.00">+</text>
<text text-anchor="start" x="228.5" y="-1236" font-family="Helvetica,sans-Serif" font-size="10.00">GpuDispatchCore()</text>
<text text-anchor="start" x="206.5" y="-1221" font-family="Helvetica,sans-Serif" font-size="10.00">+</text>
<text text-anchor="start" x="228.5" y="-1221" font-family="Helvetica,sans-Serif" font-size="10.00">is_gpu_ready()</text>
<text text-anchor="start" x="206.5" y="-1206" font-family="Helvetica,sans-Serif" font-size="10.00">+</text>
<text text-anchor="start" x="228.5" y="-1206" font-family="Helvetica,sans-Serif" font-size="10.00">operator=()</text>
<text text-anchor="start" x="206.5" y="-1191" font-family="Helvetica,sans-Serif" font-size="10.00">+</text>
<text text-anchor="start" x="228.5" y="-1191" font-family="Helvetica,sans-Serif" font-size="10.00">operator=()</text>
<text text-anchor="start" x="206.5" y="-1176" font-family="Helvetica,sans-Serif" font-size="10.00">+</text>
<text text-anchor="start" x="228.5" y="-1176" font-family="Helvetica,sans-Serif" font-size="10.00">set_binding_data()</text>
<text text-anchor="start" x="206.5" y="-1161" font-family="Helvetica,sans-Serif" font-size="10.00">+</text>
<text text-anchor="start" x="228.5" y="-1161" font-family="Helvetica,sans-Serif" font-size="10.00">set_binding_data()</text>
<text text-anchor="start" x="206.5" y="-1146" font-family="Helvetica,sans-Serif" font-size="10.00">+</text>
<text text-anchor="start" x="228.5" y="-1146" font-family="Helvetica,sans-Serif" font-size="10.00">set_output_size()</text>
<text text-anchor="start" x="206.5" y="-1131" font-family="Helvetica,sans-Serif" font-size="10.00">+</text>
<text text-anchor="start" x="228.5" y="-1131" font-family="Helvetica,sans-Serif" font-size="10.00">set_push_constants()</text>
<text text-anchor="start" x="206.5" y="-1116" font-family="Helvetica,sans-Serif" font-size="10.00">+</text>
<text text-anchor="start" x="228.5" y="-1116" font-family="Helvetica,sans-Serif" font-size="10.00">set_push_constants()</text>
<text text-anchor="start" x="206.5" y="-1101" font-family="Helvetica,sans-Serif" font-size="10.00">+</text>
<text text-anchor="start" x="228.5" y="-1101" font-family="Helvetica,sans-Serif" font-size="10.00">~GpuDispatchCore()</text>
<text text-anchor="start" x="206.5" y="-1086" font-family="Helvetica,sans-Serif" font-size="10.00">#</text>
<text text-anchor="start" x="228.5" y="-1086" font-family="Helvetica,sans-Serif" font-size="10.00">calculate_dispatch</text>
<text text-anchor="start" x="228.5" y="-1075" font-family="Helvetica,sans-Serif" font-size="10.00">_size()</text>
<text text-anchor="start" x="206.5" y="-1060" font-family="Helvetica,sans-Serif" font-size="10.00">#</text>
<text text-anchor="start" x="228.5" y="-1060" font-family="Helvetica,sans-Serif" font-size="10.00">declare_buffer_bindings()</text>
<text text-anchor="start" x="206.5" y="-1045" font-family="Helvetica,sans-Serif" font-size="10.00">#</text>
<text text-anchor="start" x="228.5" y="-1045" font-family="Helvetica,sans-Serif" font-size="10.00">dispatch_core()</text>
<text text-anchor="start" x="206.5" y="-1030" font-family="Helvetica,sans-Serif" font-size="10.00">#</text>
<text text-anchor="start" x="228.5" y="-1030" font-family="Helvetica,sans-Serif" font-size="10.00">dispatch_core_chained()</text>
<text text-anchor="start" x="206.5" y="-1015" font-family="Helvetica,sans-Serif" font-size="10.00">#</text>
<text text-anchor="start" x="228.5" y="-1015" font-family="Helvetica,sans-Serif" font-size="10.00">find_first_output_index()</text>
<text text-anchor="start" x="206.5" y="-1000" font-family="Helvetica,sans-Serif" font-size="10.00">#</text>
<text text-anchor="start" x="228.5" y="-1000" font-family="Helvetica,sans-Serif" font-size="10.00">flatten_channels_to</text>
<text text-anchor="start" x="228.5" y="-989" font-family="Helvetica,sans-Serif" font-size="10.00">_staging()</text>
<text text-anchor="start" x="206.5" y="-974" font-family="Helvetica,sans-Serif" font-size="10.00">#</text>
<text text-anchor="start" x="228.5" y="-974" font-family="Helvetica,sans-Serif" font-size="10.00">gpu_config()</text>
<text text-anchor="start" x="206.5" y="-959" font-family="Helvetica,sans-Serif" font-size="10.00">#</text>
<text text-anchor="start" x="228.5" y="-959" font-family="Helvetica,sans-Serif" font-size="10.00">largest_binding_data</text>
<text text-anchor="start" x="228.5" y="-948" font-family="Helvetica,sans-Serif" font-size="10.00">_element_count()</text>
<text text-anchor="start" x="206.5" y="-933" font-family="Helvetica,sans-Serif" font-size="10.00">#</text>
<text text-anchor="start" x="228.5" y="-933" font-family="Helvetica,sans-Serif" font-size="10.00">on_before_gpu_dispatch()</text>
<text text-anchor="start" x="206.5" y="-918" font-family="Helvetica,sans-Serif" font-size="10.00">#</text>
<text text-anchor="start" x="228.5" y="-918" font-family="Helvetica,sans-Serif" font-size="10.00">prepare_gpu_inputs()</text>
<text text-anchor="start" x="206.5" y="-903" font-family="Helvetica,sans-Serif" font-size="10.00">#</text>
<text text-anchor="start" x="228.5" y="-903" font-family="Helvetica,sans-Serif" font-size="10.00">readback_aux()</text>
<text text-anchor="start" x="206.5" y="-888" font-family="Helvetica,sans-Serif" font-size="10.00">#</text>
<text text-anchor="start" x="228.5" y="-888" font-family="Helvetica,sans-Serif" font-size="10.00">readback_primary()</text>
<text text-anchor="start" x="206.5" y="-873" font-family="Helvetica,sans-Serif" font-size="10.00">#</text>
<text text-anchor="start" x="228.5" y="-873" font-family="Helvetica,sans-Serif" font-size="10.00">stage_image_sampled()</text>
<text text-anchor="start" x="206.5" y="-858" font-family="Helvetica,sans-Serif" font-size="10.00">#</text>
<text text-anchor="start" x="228.5" y="-858" font-family="Helvetica,sans-Serif" font-size="10.00">stage_image_storage()</text>
<text text-anchor="start" x="206.5" y="-843" font-family="Helvetica,sans-Serif" font-size="10.00">#</text>
<text text-anchor="start" x="228.5" y="-843" font-family="Helvetica,sans-Serif" font-size="10.00">stage_passthrough()</text>
<polygon fill="#666666" stroke="#666666" points="193.5,-1441 193.5,-1441 378.5,-1441 378.5,-1441 193.5,-1441"/>
<polygon fill="#666666" stroke="#666666" points="193.5,-1306 193.5,-1306 226.5,-1306 226.5,-1306 193.5,-1306"/>
<polygon fill="#666666" stroke="#666666" points="226.5,-1306 226.5,-1306 378.5,-1306 378.5,-1306 226.5,-1306"/>
<polygon fill="none" stroke="#666666" points="193,-836 193,-1458 378,-1458 378,-836 193,-836"/>
</a>
</g>
</g>
<!-- Node2 -->
<g id="Node000002" class="node">
<title>Node2</title>
<g id="a_Node000002"><a xlink:href="classMayaFlux_1_1Yantra_1_1GpuExecutionContext.html" target="_top" xlink:title=" ">
<polygon fill="white" stroke="transparent" points="167,-477 0,-477 0,-275 167,-275 167,-477"/>
<text text-anchor="start" x="5.5" y="-465" font-family="Helvetica,sans-Serif" font-size="10.00">MayaFlux::Yantra::GpuExecution</text>
<text text-anchor="start" x="5.5" y="-454" font-family="Helvetica,sans-Serif" font-size="10.00">Context&lt; std::vector&lt; Kakshya</text>
<text text-anchor="start" x="5.5" y="-443" font-family="Helvetica,sans-Serif" font-size="10.00">::DataVariant &gt;, std::vector</text>
<text text-anchor="start" x="14" y="-432" font-family="Helvetica,sans-Serif" font-size="10.00">&lt; Kakshya::DataVariant &gt; &gt;</text>
<text text-anchor="start" x="82" y="-417" font-family="Helvetica,sans-Serif" font-size="10.00"> </text>
<text text-anchor="start" x="10.5" y="-402" font-family="Helvetica,sans-Serif" font-size="10.00">+</text>
<text text-anchor="start" x="29.5" y="-402" font-family="Helvetica,sans-Serif" font-size="10.00">execute()</text>
<text text-anchor="start" x="10.5" y="-387" font-family="Helvetica,sans-Serif" font-size="10.00">+</text>
<text text-anchor="start" x="29.5" y="-387" font-family="Helvetica,sans-Serif" font-size="10.00">GpuExecutionContext()</text>
<text text-anchor="start" x="10.5" y="-372" font-family="Helvetica,sans-Serif" font-size="10.00">+</text>
<text text-anchor="start" x="29.5" y="-372" font-family="Helvetica,sans-Serif" font-size="10.00">GpuExecutionContext()</text>
<text text-anchor="start" x="10.5" y="-357" font-family="Helvetica,sans-Serif" font-size="10.00">+</text>
<text text-anchor="start" x="29.5" y="-357" font-family="Helvetica,sans-Serif" font-size="10.00">GpuExecutionContext()</text>
<text text-anchor="start" x="10.5" y="-342" font-family="Helvetica,sans-Serif" font-size="10.00">+</text>
<text text-anchor="start" x="29.5" y="-342" font-family="Helvetica,sans-Serif" font-size="10.00">operator=()</text>
<text text-anchor="start" x="10.5" y="-327" font-family="Helvetica,sans-Serif" font-size="10.00">+</text>
<text text-anchor="start" x="29.5" y="-327" font-family="Helvetica,sans-Serif" font-size="10.00">operator=()</text>
<text text-anchor="start" x="10.5" y="-312" font-family="Helvetica,sans-Serif" font-size="10.00">+</text>
<text text-anchor="start" x="29.5" y="-312" font-family="Helvetica,sans-Serif" font-size="10.00">~GpuExecutionContext()</text>
<text text-anchor="start" x="10.5" y="-297" font-family="Helvetica,sans-Serif" font-size="10.00">#</text>
<text text-anchor="start" x="29.5" y="-297" font-family="Helvetica,sans-Serif" font-size="10.00">collect_gpu_outputs()</text>
<text text-anchor="start" x="10.5" y="-282" font-family="Helvetica,sans-Serif" font-size="10.00">#</text>
<text text-anchor="start" x="29.5" y="-282" font-family="Helvetica,sans-Serif" font-size="10.00">extract_inputs()</text>
<polygon fill="#666666" stroke="#666666" points="0.5,-427 0.5,-427 167.5,-427 167.5,-427 0.5,-427"/>
<polygon fill="#666666" stroke="#666666" points="0.5,-412 0.5,-412 167.5,-412 167.5,-412 0.5,-412"/>
<polygon fill="none" stroke="#666666" points="0,-275 0,-477 167,-477 167,-275 0,-275"/>
</a>
</g>
</g>
<!-- Node1&#45;&gt;Node2 -->
<g id="edge1_Node000001_Node000002" class="edge">
<title>Node1&#45;&gt;Node2</title>
<g id="a_edge1_Node000001_Node000002"><a xlink:title=" ">
<path fill="none" stroke="#63b8ff" d="M189.1,-933.72C149.13,-834.77 107.29,-714.13 86.5,-601 79.14,-560.93 77.3,-516.15 77.69,-477.22"/>
<polygon fill="none" stroke="#63b8ff" points="185.95,-935.27 192.96,-943.22 192.44,-932.64 185.95,-935.27"/>
</a>
</g>
</g>
<!-- Node3 -->
<g id="Node000003" class="node">
<title>Node3</title>
<g id="a_Node000003"><a xlink:href="classMayaFlux_1_1Yantra_1_1GpuExecutionContext.html" target="_top" xlink:title=" ">
<polygon fill="white" stroke="transparent" points="573.5,-482.5 393.5,-482.5 393.5,-269.5 573.5,-269.5 573.5,-482.5"/>
<text text-anchor="start" x="398.5" y="-470" font-family="Helvetica,sans-Serif" font-size="10.00">MayaFlux::Yantra::GpuExecution</text>
<text text-anchor="start" x="398.5" y="-459" font-family="Helvetica,sans-Serif" font-size="10.00">Context&lt; std::shared_ptr</text>
<text text-anchor="start" x="398.5" y="-448" font-family="Helvetica,sans-Serif" font-size="10.00">&lt; Kakshya::SignalSourceContainer</text>
<text text-anchor="start" x="398.5" y="-437" font-family="Helvetica,sans-Serif" font-size="10.00"> &gt;, std::shared_ptr&lt; Kakshya::</text>
<text text-anchor="start" x="417" y="-426" font-family="Helvetica,sans-Serif" font-size="10.00">SignalSourceContainer &gt; &gt;</text>
<text text-anchor="start" x="481.5" y="-411" font-family="Helvetica,sans-Serif" font-size="10.00"> </text>
<text text-anchor="start" x="407" y="-396" font-family="Helvetica,sans-Serif" font-size="10.00">+</text>
<text text-anchor="start" x="429.5" y="-396" font-family="Helvetica,sans-Serif" font-size="10.00">execute()</text>
<text text-anchor="start" x="407" y="-381" font-family="Helvetica,sans-Serif" font-size="10.00">+</text>
<text text-anchor="start" x="429.5" y="-381" font-family="Helvetica,sans-Serif" font-size="10.00">GpuExecutionContext()</text>
<text text-anchor="start" x="407" y="-366" font-family="Helvetica,sans-Serif" font-size="10.00">+</text>
<text text-anchor="start" x="429.5" y="-366" font-family="Helvetica,sans-Serif" font-size="10.00">GpuExecutionContext()</text>
<text text-anchor="start" x="407" y="-351" font-family="Helvetica,sans-Serif" font-size="10.00">+</text>
<text text-anchor="start" x="429.5" y="-351" font-family="Helvetica,sans-Serif" font-size="10.00">GpuExecutionContext()</text>
<text text-anchor="start" x="407" y="-336" font-family="Helvetica,sans-Serif" font-size="10.00">+</text>
<text text-anchor="start" x="429.5" y="-336" font-family="Helvetica,sans-Serif" font-size="10.00">operator=()</text>
<text text-anchor="start" x="407" y="-321" font-family="Helvetica,sans-Serif" font-size="10.00">+</text>
<text text-anchor="start" x="429.5" y="-321" font-family="Helvetica,sans-Serif" font-size="10.00">operator=()</text>
<text text-anchor="start" x="407" y="-306" font-family="Helvetica,sans-Serif" font-size="10.00">+</text>
<text text-anchor="start" x="429.5" y="-306" font-family="Helvetica,sans-Serif" font-size="10.00">~GpuExecutionContext()</text>
<text text-anchor="start" x="407" y="-291" font-family="Helvetica,sans-Serif" font-size="10.00">#</text>
<text text-anchor="start" x="429.5" y="-291" font-family="Helvetica,sans-Serif" font-size="10.00">collect_gpu_outputs()</text>
<text text-anchor="start" x="407" y="-276" font-family="Helvetica,sans-Serif" font-size="10.00">#</text>
<text text-anchor="start" x="429.5" y="-276" font-family="Helvetica,sans-Serif" font-size="10.00">extract_inputs()</text>
<polygon fill="#666666" stroke="#666666" points="393.5,-421 393.5,-421 573.5,-421 573.5,-421 393.5,-421"/>
<polygon fill="#666666" stroke="#666666" points="393.5,-406 393.5,-406 573.5,-406 573.5,-406 393.5,-406"/>
<polygon fill="none" stroke="#666666" points="393.5,-269.5 393.5,-482.5 573.5,-482.5 573.5,-269.5 393.5,-269.5"/>
</a>
</g>
</g>
<!-- Node1&#45;&gt;Node3 -->
<g id="edge2_Node000001_Node000003" class="edge">
<title>Node1&#45;&gt;Node3</title>
<g id="a_edge2_Node000001_Node000003"><a xlink:title=" ">
<path fill="none" stroke="#63b8ff" d="M381.81,-930.78C420.88,-832.35 461.47,-712.95 481.5,-601 488.35,-562.72 490.15,-520.16 489.81,-482.52"/>
<polygon fill="none" stroke="#63b8ff" points="378.49,-929.65 378.03,-940.24 384.99,-932.25 378.49,-929.65"/>
</a>
</g>
</g>
<!-- Node5 -->
<g id="Node000005" class="node">
<title>Node5</title>
<g id="a_Node000005"><a xlink:href="classMayaFlux_1_1Yantra_1_1GpuExecutionContext.html" target="_top" xlink:title="Type&#45;parameterised shell over GpuDispatchCore.">
<polygon fill="white" stroke="transparent" points="375.5,-799 195.5,-799 195.5,-619 375.5,-619 375.5,-799"/>
<text text-anchor="start" x="200.5" y="-787" font-family="Helvetica,sans-Serif" font-size="10.00">MayaFlux::Yantra::GpuExecution</text>
<text text-anchor="start" x="200.5" y="-776" font-family="Helvetica,sans-Serif" font-size="10.00">Context&lt; InputType, OutputType &gt;</text>
<text text-anchor="start" x="283.5" y="-761" font-family="Helvetica,sans-Serif" font-size="10.00"> </text>
<text text-anchor="start" x="209" y="-746" font-family="Helvetica,sans-Serif" font-size="10.00">+</text>
<text text-anchor="start" x="231.5" y="-746" font-family="Helvetica,sans-Serif" font-size="10.00">execute()</text>
<text text-anchor="start" x="209" y="-731" font-family="Helvetica,sans-Serif" font-size="10.00">+</text>
<text text-anchor="start" x="231.5" y="-731" font-family="Helvetica,sans-Serif" font-size="10.00">GpuExecutionContext()</text>
<text text-anchor="start" x="209" y="-716" font-family="Helvetica,sans-Serif" font-size="10.00">+</text>
<text text-anchor="start" x="231.5" y="-716" font-family="Helvetica,sans-Serif" font-size="10.00">GpuExecutionContext()</text>
<text text-anchor="start" x="209" y="-701" font-family="Helvetica,sans-Serif" font-size="10.00">+</text>
<text text-anchor="start" x="231.5" y="-701" font-family="Helvetica,sans-Serif" font-size="10.00">GpuExecutionContext()</text>
<text text-anchor="start" x="209" y="-686" font-family="Helvetica,sans-Serif" font-size="10.00">+</text>
<text text-anchor="start" x="231.5" y="-686" font-family="Helvetica,sans-Serif" font-size="10.00">operator=()</text>
<text text-anchor="start" x="209" y="-671" font-family="Helvetica,sans-Serif" font-size="10.00">+</text>
<text text-anchor="start" x="231.5" y="-671" font-family="Helvetica,sans-Serif" font-size="10.00">operator=()</text>
<text text-anchor="start" x="209" y="-656" font-family="Helvetica,sans-Serif" font-size="10.00">+</text>
<text text-anchor="start" x="231.5" y="-656" font-family="Helvetica,sans-Serif" font-size="10.00">~GpuExecutionContext()</text>
<text text-anchor="start" x="209" y="-641" font-family="Helvetica,sans-Serif" font-size="10.00">#</text>
<text text-anchor="start" x="231.5" y="-641" font-family="Helvetica,sans-Serif" font-size="10.00">collect_gpu_outputs()</text>
<text text-anchor="start" x="209" y="-626" font-family="Helvetica,sans-Serif" font-size="10.00">#</text>
<text text-anchor="start" x="231.5" y="-626" font-family="Helvetica,sans-Serif" font-size="10.00">extract_inputs()</text>
<polygon fill="#666666" stroke="#666666" points="195.5,-771 195.5,-771 375.5,-771 375.5,-771 195.5,-771"/>
<polygon fill="#666666" stroke="#666666" points="195.5,-756 195.5,-756 375.5,-756 375.5,-756 195.5,-756"/>
<polygon fill="none" stroke="#666666" points="195.5,-619 195.5,-799 375.5,-799 375.5,-619 195.5,-619"/>
</a>
</g>
</g>
<!-- Node1&#45;&gt;Node5 -->
<g id="edge4_Node000001_Node000005" class="edge">
<title>Node1&#45;&gt;Node5</title>
<g id="a_edge4_Node000001_Node000005"><a xlink:title=" ">
<path fill="none" stroke="#63b8ff" d="M285.5,-825.67C285.5,-816.44 285.5,-807.52 285.5,-799.01"/>
<polygon fill="none" stroke="#63b8ff" points="282,-825.82 285.5,-835.82 289,-825.82 282,-825.82"/>
</a>
</g>
</g>
<!-- Node4 -->
<g id="Node000004" class="node">
<title>Node4</title>
<g id="a_Node000004"><a xlink:href="classMayaFlux_1_1Yantra_1_1TextureExecutionContext.html" target="_top" xlink:title="GpuExecutionContext specialisation for image&#45;only compute shaders.">
<polygon fill="white" stroke="transparent" points="559,-176 408,-176 408,0 559,0 559,-176"/>
<text text-anchor="start" x="420.5" y="-164" font-family="Helvetica,sans-Serif" font-size="10.00">MayaFlux::Yantra::Texture</text>
<text text-anchor="start" x="441" y="-153" font-family="Helvetica,sans-Serif" font-size="10.00">ExecutionContext</text>
<text text-anchor="start" x="415" y="-138" font-family="Helvetica,sans-Serif" font-size="10.00">&#45;</text>
<text text-anchor="start" x="425.5" y="-138" font-family="Helvetica,sans-Serif" font-size="10.00">m_height</text>
<text text-anchor="start" x="415" y="-123" font-family="Helvetica,sans-Serif" font-size="10.00">&#45;</text>
<text text-anchor="start" x="425.5" y="-123" font-family="Helvetica,sans-Serif" font-size="10.00">m_output_format</text>
<text text-anchor="start" x="415" y="-108" font-family="Helvetica,sans-Serif" font-size="10.00">&#45;</text>
<text text-anchor="start" x="425.5" y="-108" font-family="Helvetica,sans-Serif" font-size="10.00">m_width</text>
<text text-anchor="start" x="412.5" y="-93" font-family="Helvetica,sans-Serif" font-size="10.00">+</text>
<text text-anchor="start" x="425.5" y="-93" font-family="Helvetica,sans-Serif" font-size="10.00">stage_input()</text>
<text text-anchor="start" x="412.5" y="-78" font-family="Helvetica,sans-Serif" font-size="10.00">+</text>
<text text-anchor="start" x="425.5" y="-78" font-family="Helvetica,sans-Serif" font-size="10.00">TextureExecutionContext()</text>
<text text-anchor="start" x="412.5" y="-63" font-family="Helvetica,sans-Serif" font-size="10.00">#</text>
<text text-anchor="start" x="425.5" y="-63" font-family="Helvetica,sans-Serif" font-size="10.00">calculate_dispatch</text>
<text text-anchor="start" x="425.5" y="-52" font-family="Helvetica,sans-Serif" font-size="10.00">_size()</text>
<text text-anchor="start" x="412.5" y="-37" font-family="Helvetica,sans-Serif" font-size="10.00">#</text>
<text text-anchor="start" x="425.5" y="-37" font-family="Helvetica,sans-Serif" font-size="10.00">collect_gpu_outputs()</text>
<text text-anchor="start" x="412.5" y="-22" font-family="Helvetica,sans-Serif" font-size="10.00">#</text>
<text text-anchor="start" x="425.5" y="-22" font-family="Helvetica,sans-Serif" font-size="10.00">extract_inputs()</text>
<text text-anchor="start" x="412.5" y="-7" font-family="Helvetica,sans-Serif" font-size="10.00">#</text>
<text text-anchor="start" x="425.5" y="-7" font-family="Helvetica,sans-Serif" font-size="10.00">prepare_output_image()</text>
<polygon fill="#666666" stroke="#666666" points="408.5,-148 408.5,-148 559.5,-148 559.5,-148 408.5,-148"/>
<polygon fill="#666666" stroke="#666666" points="408.5,-103 408.5,-103 423.5,-103 423.5,-103 408.5,-103"/>
<polygon fill="#666666" stroke="#666666" points="423.5,-103 423.5,-103 559.5,-103 559.5,-103 423.5,-103"/>
<polygon fill="none" stroke="#666666" points="408,0 408,-176 559,-176 559,0 408,0"/>
</a>
</g>
</g>
<!-- Node3&#45;&gt;Node4 -->
<g id="edge3_Node000003_Node000004" class="edge">
<title>Node3&#45;&gt;Node4</title>
<g id="a_edge3_Node000003_Node000004"><a xlink:title=" ">
<path fill="none" stroke="#63b8ff" d="M483.5,-259.16C483.5,-231.39 483.5,-202.21 483.5,-176"/>
<polygon fill="none" stroke="#63b8ff" points="480,-259.32 483.5,-269.32 487,-259.32 480,-259.32"/>
</a>
</g>
</g>
<!-- Node5&#45;&gt;Node2 -->
<g id="edge6_Node000005_Node000002" class="edge">
<title>Node5&#45;&gt;Node2</title>
<g id="a_edge6_Node000005_Node000002"><a xlink:title=" ">
<path fill="none" stroke="orange" d="M186.34,-667.89C157.42,-651.4 128.73,-629.37 110.5,-601 87.21,-564.75 78.95,-518.29 77.11,-477.1"/>
<polygon fill="orange" stroke="orange" points="184.86,-671.07 195.31,-672.83 188.23,-664.94 184.86,-671.07"/>
</a>
</g>
<text text-anchor="start" x="110.5" y="-587.5" font-family="Helvetica,sans-Serif" font-size="10.00" fill="grey"> &lt; std::vector&lt; Kakshya</text>
<text text-anchor="start" x="110.5" y="-576.5" font-family="Helvetica,sans-Serif" font-size="10.00" fill="grey">::DataVariant &gt;, std::</text>
<text text-anchor="middle" x="196" y="-565.5" font-family="Helvetica,sans-Serif" font-size="10.00" fill="grey">vector&lt; Kakshya::DataVariant &gt; &gt;</text>
</g>
<!-- Node5&#45;&gt;Node3 -->
<g id="edge7_Node000005_Node000003" class="edge">
<title>Node5&#45;&gt;Node3</title>
<g id="a_edge7_Node000005_Node000003"><a xlink:title=" ">
<path fill="none" stroke="orange" d="M300.13,-608.85C305.21,-585.91 311.65,-565.68 319.5,-557 336.47,-538.24 353.33,-554.27 373.5,-539 393.69,-523.71 411.45,-503.6 426.48,-482.77"/>
<polygon fill="orange" stroke="orange" points="296.66,-608.31 298.03,-618.82 303.51,-609.75 296.66,-608.31"/>
</a>
</g>
<text text-anchor="start" x="319.5" y="-593" font-family="Helvetica,sans-Serif" font-size="10.00" fill="grey"> &lt; std::shared_ptr&lt;</text>
<text text-anchor="start" x="319.5" y="-582" font-family="Helvetica,sans-Serif" font-size="10.00" fill="grey"> Kakshya::SignalSourceContainer</text>
<text text-anchor="start" x="319.5" y="-571" font-family="Helvetica,sans-Serif" font-size="10.00" fill="grey"> &gt;, std::shared_ptr&lt; Kakshya</text>
<text text-anchor="middle" x="400.5" y="-560" font-family="Helvetica,sans-Serif" font-size="10.00" fill="grey">::SignalSourceContainer &gt; &gt;</text>
</g>
<!-- Node6 -->
<g id="Node000006" class="node">
<title>Node6</title>
<g id="a_Node000006"><a xlink:href="classMayaFlux_1_1Yantra_1_1ShaderExecutionContext.html" target="_top" xlink:title="Concrete GpuExecutionContext for a single fixed shader with fixed bindings.">
<polygon fill="white" stroke="transparent" points="364.5,-539 206.5,-539 206.5,-213 364.5,-213 364.5,-539"/>
<text text-anchor="start" x="211.5" y="-527" font-family="Helvetica,sans-Serif" font-size="10.00">MayaFlux::Yantra::Shader</text>
<text text-anchor="start" x="211.5" y="-516" font-family="Helvetica,sans-Serif" font-size="10.00">ExecutionContext&lt; InputType,</text>
<text text-anchor="start" x="250.5" y="-505" font-family="Helvetica,sans-Serif" font-size="10.00"> OutputType &gt;</text>
<text text-anchor="start" x="215.5" y="-490" font-family="Helvetica,sans-Serif" font-size="10.00">&#45;</text>
<text text-anchor="start" x="228.5" y="-490" font-family="Helvetica,sans-Serif" font-size="10.00">m_bindings</text>
<text text-anchor="start" x="215.5" y="-475" font-family="Helvetica,sans-Serif" font-size="10.00">&#45;</text>
<text text-anchor="start" x="228.5" y="-475" font-family="Helvetica,sans-Serif" font-size="10.00">m_multipass_count</text>
<text text-anchor="start" x="215.5" y="-460" font-family="Helvetica,sans-Serif" font-size="10.00">&#45;</text>
<text text-anchor="start" x="228.5" y="-460" font-family="Helvetica,sans-Serif" font-size="10.00">m_multipass_updater</text>
<text text-anchor="start" x="215.5" y="-445" font-family="Helvetica,sans-Serif" font-size="10.00">&#45;</text>
<text text-anchor="start" x="228.5" y="-445" font-family="Helvetica,sans-Serif" font-size="10.00">m_name</text>
<text text-anchor="start" x="213" y="-430" font-family="Helvetica,sans-Serif" font-size="10.00">+</text>
<text text-anchor="start" x="228.5" y="-430" font-family="Helvetica,sans-Serif" font-size="10.00">in_out()</text>
<text text-anchor="start" x="213" y="-415" font-family="Helvetica,sans-Serif" font-size="10.00">+</text>
<text text-anchor="start" x="228.5" y="-415" font-family="Helvetica,sans-Serif" font-size="10.00">in_out()</text>
<text text-anchor="start" x="213" y="-400" font-family="Helvetica,sans-Serif" font-size="10.00">+</text>
<text text-anchor="start" x="228.5" y="-400" font-family="Helvetica,sans-Serif" font-size="10.00">in_out()</text>
<text text-anchor="start" x="213" y="-385" font-family="Helvetica,sans-Serif" font-size="10.00">+</text>
<text text-anchor="start" x="228.5" y="-385" font-family="Helvetica,sans-Serif" font-size="10.00">in_out()</text>
<text text-anchor="start" x="213" y="-370" font-family="Helvetica,sans-Serif" font-size="10.00">+</text>
<text text-anchor="start" x="228.5" y="-370" font-family="Helvetica,sans-Serif" font-size="10.00">input()</text>
<text text-anchor="start" x="213" y="-355" font-family="Helvetica,sans-Serif" font-size="10.00">+</text>
<text text-anchor="start" x="228.5" y="-355" font-family="Helvetica,sans-Serif" font-size="10.00">input()</text>
<text text-anchor="start" x="213" y="-340" font-family="Helvetica,sans-Serif" font-size="10.00">+</text>
<text text-anchor="start" x="228.5" y="-340" font-family="Helvetica,sans-Serif" font-size="10.00">output()</text>
<text text-anchor="start" x="213" y="-325" font-family="Helvetica,sans-Serif" font-size="10.00">+</text>
<text text-anchor="start" x="228.5" y="-325" font-family="Helvetica,sans-Serif" font-size="10.00">output()</text>
<text text-anchor="start" x="213" y="-310" font-family="Helvetica,sans-Serif" font-size="10.00">+</text>
<text text-anchor="start" x="228.5" y="-310" font-family="Helvetica,sans-Serif" font-size="10.00">push()</text>
<text text-anchor="start" x="213" y="-295" font-family="Helvetica,sans-Serif" font-size="10.00">+</text>
<text text-anchor="start" x="228.5" y="-295" font-family="Helvetica,sans-Serif" font-size="10.00">set_multipass()</text>
<text text-anchor="start" x="213" y="-280" font-family="Helvetica,sans-Serif" font-size="10.00">+</text>
<text text-anchor="start" x="228.5" y="-280" font-family="Helvetica,sans-Serif" font-size="10.00">ShaderExecutionContext()</text>
<text text-anchor="start" x="213" y="-265" font-family="Helvetica,sans-Serif" font-size="10.00">+</text>
<text text-anchor="start" x="228.5" y="-265" font-family="Helvetica,sans-Serif" font-size="10.00">read_output()</text>
<text text-anchor="start" x="213" y="-250" font-family="Helvetica,sans-Serif" font-size="10.00">#</text>
<text text-anchor="start" x="228.5" y="-250" font-family="Helvetica,sans-Serif" font-size="10.00">declare_buffer_bindings()</text>
<text text-anchor="start" x="213" y="-235" font-family="Helvetica,sans-Serif" font-size="10.00">#</text>
<text text-anchor="start" x="228.5" y="-235" font-family="Helvetica,sans-Serif" font-size="10.00">execute()</text>
<text text-anchor="start" x="215.5" y="-220" font-family="Helvetica,sans-Serif" font-size="10.00">&#45;</text>
<text text-anchor="start" x="228.5" y="-220" font-family="Helvetica,sans-Serif" font-size="10.00">next_binding_index()</text>
<polygon fill="#666666" stroke="#666666" points="206.5,-500 206.5,-500 364.5,-500 364.5,-500 206.5,-500"/>
<polygon fill="#666666" stroke="#666666" points="206.5,-440 206.5,-440 226.5,-440 226.5,-440 206.5,-440"/>
<polygon fill="#666666" stroke="#666666" points="226.5,-440 226.5,-440 364.5,-440 364.5,-440 226.5,-440"/>
<polygon fill="none" stroke="#666666" points="206.5,-213 206.5,-539 364.5,-539 364.5,-213 206.5,-213"/>
</a>
</g>
</g>
<!-- Node5&#45;&gt;Node6 -->
<g id="edge5_Node000005_Node000006" class="edge">
<title>Node5&#45;&gt;Node6</title>
<g id="a_edge5_Node000005_Node000006"><a xlink:title=" ">
<path fill="none" stroke="#63b8ff" d="M285.5,-608.58C285.5,-586.62 285.5,-562.8 285.5,-539.07"/>
<polygon fill="none" stroke="#63b8ff" points="282,-608.86 285.5,-618.86 289,-608.86 282,-608.86"/>
</a>
</g>
</g>
</g>
</svg>

<g id="navigator" transform="translate(0 0)" fill="#404254">
  <rect fill="#f2f5e9" fill-opacity="0.5" stroke="#606060" stroke-width=".5" x="0" y="0" width="60" height="60"/>
  <use id="zoomplus" xlink:href="#zoomPlus" x="17" y="9" onmousedown="handleZoom(evt,'in')"/>
  <use id="zoomminus" xlink:href="#zoomMin" x="42" y="9" onmousedown="handleZoom(evt,'out')"/>
  <use id="reset" xlink:href="#resetDef" x="30" y="36" onmousedown="handleReset()"/>
   <use id="arrowup" xlink:href="#arrowUp" x="0" y="0" onmousedown="handlePan(0,-1)"/>
  <use id="arrowright" xlink:href="#arrowRight" x="0" y="0" onmousedown="handlePan(1,0)"/>
  <use id="arrowdown" xlink:href="#arrowDown" x="0" y="0" onmousedown="handlePan(0,1)"/>
  <use id="arrowleft" xlink:href="#arrowLeft" x="0" y="0" onmousedown="handlePan(-1,0)"/>
</g>
<svg viewBox="0 0 15 15" width="100%" height="30px" preserveAspectRatio="xMaxYMin meet">
 <g id="arrow_out" transform="scale(0.3 0.3)">
  <a xlink:href="classMayaFlux_1_1Yantra_1_1GpuDispatchCore__inherit__graph_org.svg" target="_base">
   <rect id="button" ry="5" rx="5" y="6" x="6" height="38" width="38"
        fill="#f2f5e9" fill-opacity="0.5" stroke="#606060" stroke-width="1.0"/>
   <path id="arrow"
     d="M 11.500037,31.436501 C 11.940474,20.09759 22.043105,11.32322 32.158766,21.979434 L 37.068811,17.246167 C 37.068811,17.246167 37.088388,32 37.088388,32 L 22.160133,31.978069 C 22.160133,31.978069 26.997745,27.140456 26.997745,27.140456 C 18.528582,18.264221 13.291696,25.230495 11.500037,31.436501 z"
     style="fill:#404040;"/>
  </a>
 </g>
</svg>

<style type='text/css'>
<![CDATA[
[data-mouse-over-selected='false'] { opacity: 0.7; }
[data-mouse-over-selected='true']  { opacity: 1.0; }
]]>
</style>
<script type="application/ecmascript"><![CDATA[
document.addEventListener('DOMContentLoaded', (event) => {
  highlightEdges();
  highlightAdjacentNodes();
});
]]></script>
</svg>
