<?xml version="1.0" encoding="UTF-8" standalone="no"?>
<!DOCTYPE svg PUBLIC "-//W3C//DTD SVG 1.1//EN"
 "http://www.w3.org/Graphics/SVG/1.1/DTD/svg11.dtd">
<!-- Generated by graphviz version 2.43.0 (0)
 -->
<!-- Title: MayaFlux::Kakshya::DynamicRegionProcessor::process Pages: 1 -->
<!--zoomable 253 -->

<svg id="main" version="1.1" xmlns="http://www.w3.org/2000/svg" xmlns:xlink="http://www.w3.org/1999/xlink" xml:space="preserve" onload="init(evt)">
<style type="text/css"><![CDATA[
.node, .edge {opacity: 0.7;}
.node.selected, .edge.selected {opacity: 1;}
.edge:hover path { stroke: red; }
.edge:hover polygon { stroke: red; fill: red; }
]]></style>

<defs>
  <circle id="rim" cx="0" cy="0" r="7"/>
  <circle id="rim2" cx="0" cy="0" r="3.5"/>
  <g id="zoomPlus">
    <use xlink:href="#rim" fill="#404040"><set attributeName="fill" to="#808080" begin="zoomplus.mouseover" end="zoomplus.mouseout"/></use>
    <path d="M-4,0h8M0,-4v8" fill="none" stroke="white" stroke-width="1.5" pointer-events="none"/>
  </g>
  <g id="zoomMin">
    <use xlink:href="#rim" fill="#404040"><set attributeName="fill" to="#808080" begin="zoomminus.mouseover" end="zoomminus.mouseout"/></use>
    <path d="M-4,0h8" fill="none" stroke="white" stroke-width="1.5" pointer-events="none"/>
  </g>
  <g id="arrowUp" transform="translate(30 24)">
    <use xlink:href="#rim"/>
    <path pointer-events="none" fill="none" stroke="white" stroke-width="1.5" d="M0,-3.0v7 M-2.5,-0.5L0,-3.0L2.5,-0.5"/>
  </g>
  <g id="arrowRight" transform="rotate(90) translate(36 -43)">
    <use xlink:href="#rim"/>
    <path pointer-events="none" fill="none" stroke="white" stroke-width="1.5" d="M0,-3.0v7 M-2.5,-0.5L0,-3.0L2.5,-0.5"/>
  </g>
  <g id="arrowDown" transform="rotate(180) translate(-30 -48)">
    <use xlink:href="#rim"/>
    <path pointer-events="none" fill="none" stroke="white" stroke-width="1.5" d="M0,-3.0v7 M-2.5,-0.5L0,-3.0L2.5,-0.5"/>
  </g>
  <g id="arrowLeft" transform="rotate(270) translate(-36 17)">
    <use xlink:href="#rim"/>
    <path pointer-events="none" fill="none" stroke="white" stroke-width="1.5" d="M0,-3.0v7 M-2.5,-0.5L0,-3.0L2.5,-0.5"/>
  </g>
  <g id="resetDef">
    <use xlink:href="#rim2" fill="#404040"><set attributeName="fill" to="#808080" begin="reset.mouseover" end="reset.mouseout"/></use>
  </g>
</defs>
<script type="application/ecmascript">
var viewWidth = 910;
var viewHeight = 253;
var sectionId = 'dynsection-0';
</script>
<script type="application/ecmascript" xlink:href="svg.min.js"/>
<svg id="graph" class="graph">
<g id="viewport">
<title>MayaFlux::Kakshya::DynamicRegionProcessor::process</title>
<!-- Node1 -->
<g id="Node000001" class="node">
<title>Node1</title>
<g id="a_Node000001"><a xlink:title="Processes audio, performing reorganization if needed.">
<polygon fill="#999999" stroke="#666666" points="141,-156 0,-156 0,-115 141,-115 141,-156"/>
<text text-anchor="start" x="8" y="-144" font-family="Helvetica,sans-Serif" font-size="10.00">MayaFlux::Kakshya::</text>
<text text-anchor="start" x="8" y="-133" font-family="Helvetica,sans-Serif" font-size="10.00">DynamicRegionProcessor</text>
<text text-anchor="middle" x="70.5" y="-122" font-family="Helvetica,sans-Serif" font-size="10.00">::process</text>
</a>
</g>
</g>
<!-- Node2 -->
<g id="Node000002" class="node">
<title>Node2</title>
<g id="a_Node000002"><a xlink:href="classMayaFlux_1_1Kakshya_1_1RegionOrganizationProcessor_a32049be6abe1a57f8bcadc6a5e58393a.html#a32049be6abe1a57f8bcadc6a5e58393a" target="_top" xlink:title="Processes audio data according to the current region organization.">
<polygon fill="white" stroke="#666666" points="337,-186 177,-186 177,-145 337,-145 337,-186"/>
<text text-anchor="start" x="185" y="-174" font-family="Helvetica,sans-Serif" font-size="10.00">MayaFlux::Kakshya::</text>
<text text-anchor="start" x="185" y="-163" font-family="Helvetica,sans-Serif" font-size="10.00">RegionOrganizationProcessor</text>
<text text-anchor="middle" x="257" y="-152" font-family="Helvetica,sans-Serif" font-size="10.00">::process</text>
</a>
</g>
</g>
<!-- Node1&#45;&gt;Node2 -->
<g id="edge1_Node000001_Node000002" class="edge">
<title>Node1&#45;&gt;Node2</title>
<g id="a_edge1_Node000001_Node000002"><a xlink:title=" ">
<path fill="none" stroke="#63b8ff" d="M141.25,-146.84C149.61,-148.2 158.24,-149.6 166.83,-151"/>
<polygon fill="#63b8ff" stroke="#63b8ff" points="166.44,-154.48 176.87,-152.63 167.56,-147.57 166.44,-154.48"/>
</a>
</g>
</g>
<!-- Node11 -->
<g id="Node000011" class="node">
<title>Node11</title>
<g id="a_Node000011"><a xlink:href="classMayaFlux_1_1Kakshya_1_1DynamicRegionProcessor_adab00ec703bff24804efb95a43acbb3d.html#adab00ec703bff24804efb95a43acbb3d" target="_top" xlink:title="Checks if reorganization should occur for the current container.">
<polygon fill="white" stroke="#666666" points="327.5,-127 186.5,-127 186.5,-86 327.5,-86 327.5,-127"/>
<text text-anchor="start" x="194.5" y="-115" font-family="Helvetica,sans-Serif" font-size="10.00">MayaFlux::Kakshya::</text>
<text text-anchor="start" x="194.5" y="-104" font-family="Helvetica,sans-Serif" font-size="10.00">DynamicRegionProcessor</text>
<text text-anchor="middle" x="257" y="-93" font-family="Helvetica,sans-Serif" font-size="10.00">::should_reorganize</text>
</a>
</g>
</g>
<!-- Node1&#45;&gt;Node11 -->
<g id="edge10_Node000001_Node000011" class="edge">
<title>Node1&#45;&gt;Node11</title>
<g id="a_edge10_Node000001_Node000011"><a xlink:title=" ">
<path fill="none" stroke="#63b8ff" d="M141.25,-124.54C152.7,-122.74 164.63,-120.86 176.3,-119.03"/>
<polygon fill="#63b8ff" stroke="#63b8ff" points="177.12,-122.44 186.46,-117.43 176.03,-115.53 177.12,-122.44"/>
</a>
</g>
</g>
<!-- Node3 -->
<g id="Node000003" class="node">
<title>Node3</title>
<g id="a_Node000003"><a xlink:href="classMayaFlux_1_1Kakshya_1_1RegionProcessorBase_a8d67fba8bb619b5bc20a8c271440973a.html#a8d67fba8bb619b5bc20a8c271440973a" target="_top" xlink:title="Ensure output data is properly dimensioned for region extraction.">
<polygon fill="white" stroke="#666666" points="537,-245 373,-245 373,-204 537,-204 537,-245"/>
<text text-anchor="start" x="381" y="-233" font-family="Helvetica,sans-Serif" font-size="10.00">MayaFlux::Kakshya::</text>
<text text-anchor="start" x="381" y="-222" font-family="Helvetica,sans-Serif" font-size="10.00">RegionProcessorBase</text>
<text text-anchor="middle" x="455" y="-211" font-family="Helvetica,sans-Serif" font-size="10.00">::ensure_output_dimensioning</text>
</a>
</g>
</g>
<!-- Node2&#45;&gt;Node3 -->
<g id="edge2_Node000002_Node000003" class="edge">
<title>Node2&#45;&gt;Node3</title>
<g id="a_edge2_Node000002_Node000003"><a xlink:title=" ">
<path fill="none" stroke="#63b8ff" d="M326.28,-186.05C342.35,-190.89 359.59,-196.08 376.05,-201.04"/>
<polygon fill="#63b8ff" stroke="#63b8ff" points="375.05,-204.39 385.64,-203.92 377.07,-197.69 375.05,-204.39"/>
</a>
</g>
</g>
<!-- Node4 -->
<g id="Node000004" class="node">
<title>Node4</title>
<g id="a_Node000004"><a xlink:href="structMayaFlux_1_1Kakshya_1_1ContainerDataStructure_a3b75e366535f258e9eeea41e897693d2.html#a3b75e366535f258e9eeea41e897693d2" target="_top" xlink:title="Extract the size of non time dimensions (channel, spatial, frequency)">
<polygon fill="white" stroke="#666666" points="520.5,-186 389.5,-186 389.5,-145 520.5,-145 520.5,-186"/>
<text text-anchor="start" x="397.5" y="-174" font-family="Helvetica,sans-Serif" font-size="10.00">MayaFlux::Kakshya::</text>
<text text-anchor="start" x="397.5" y="-163" font-family="Helvetica,sans-Serif" font-size="10.00">ContainerDataStructure</text>
<text text-anchor="middle" x="455" y="-152" font-family="Helvetica,sans-Serif" font-size="10.00">::get_frame_size</text>
</a>
</g>
</g>
<!-- Node2&#45;&gt;Node4 -->
<g id="edge3_Node000002_Node000004" class="edge">
<title>Node2&#45;&gt;Node4</title>
<g id="a_edge3_Node000002_Node000004"><a xlink:title=" ">
<path fill="none" stroke="#63b8ff" d="M337.16,-165.5C350.96,-165.5 365.27,-165.5 378.96,-165.5"/>
<polygon fill="#63b8ff" stroke="#63b8ff" points="379.28,-169 389.28,-165.5 379.28,-162 379.28,-169"/>
</a>
</g>
</g>
<!-- Node5 -->
<g id="Node000005" class="node">
<title>Node5</title>
<g id="a_Node000005"><a xlink:href="classMayaFlux_1_1Kakshya_1_1RegionOrganizationProcessor_a5e871d9c925502ead2227e2c5669dab0.html#a5e871d9c925502ead2227e2c5669dab0" target="_top" xlink:title="Process regions according to their selection pattern.">
<polygon fill="white" stroke="#666666" points="535,-127 375,-127 375,-86 535,-86 535,-127"/>
<text text-anchor="start" x="383" y="-115" font-family="Helvetica,sans-Serif" font-size="10.00">MayaFlux::Kakshya::</text>
<text text-anchor="start" x="383" y="-104" font-family="Helvetica,sans-Serif" font-size="10.00">RegionOrganizationProcessor</text>
<text text-anchor="middle" x="455" y="-93" font-family="Helvetica,sans-Serif" font-size="10.00">::process_organized_regions</text>
</a>
</g>
</g>
<!-- Node2&#45;&gt;Node5 -->
<g id="edge4_Node000002_Node000005" class="edge">
<title>Node2&#45;&gt;Node5</title>
<g id="a_edge4_Node000002_Node000005"><a xlink:title=" ">
<path fill="none" stroke="#63b8ff" d="M326.28,-144.95C342.35,-140.11 359.59,-134.92 376.05,-129.96"/>
<polygon fill="#63b8ff" stroke="#63b8ff" points="377.07,-133.31 385.64,-127.08 375.05,-126.61 377.07,-133.31"/>
</a>
</g>
</g>
<!-- Node6 -->
<g id="Node000006" class="node">
<title>Node6</title>
<g id="a_Node000006"><a xlink:href="classMayaFlux_1_1Kakshya_1_1RegionOrganizationProcessor_a4ef39aa467134325fbcfefa5c4810f28.html#a4ef39aa467134325fbcfefa5c4810f28" target="_top" xlink:title="Apply a transition between two regions.">
<polygon fill="white" stroke="#666666" points="733,-208 573,-208 573,-167 733,-167 733,-208"/>
<text text-anchor="start" x="581" y="-196" font-family="Helvetica,sans-Serif" font-size="10.00">MayaFlux::Kakshya::</text>
<text text-anchor="start" x="581" y="-185" font-family="Helvetica,sans-Serif" font-size="10.00">RegionOrganizationProcessor</text>
<text text-anchor="middle" x="653" y="-174" font-family="Helvetica,sans-Serif" font-size="10.00">::apply_region_transition</text>
</a>
</g>
</g>
<!-- Node5&#45;&gt;Node6 -->
<g id="edge5_Node000005_Node000006" class="edge">
<title>Node5&#45;&gt;Node6</title>
<g id="a_edge5_Node000005_Node000006"><a xlink:title=" ">
<path fill="none" stroke="#63b8ff" d="M515.33,-127.12C522.71,-130.08 530.09,-133.23 537,-136.5 553.75,-144.41 556.28,-149.52 573,-157.5 576.98,-159.4 581.11,-161.27 585.31,-163.09"/>
<polygon fill="#63b8ff" stroke="#63b8ff" points="583.99,-166.33 594.57,-166.97 586.7,-159.87 583.99,-166.33"/>
</a>
</g>
</g>
<!-- Node7 -->
<g id="Node000007" class="node">
<title>Node7</title>
<g id="a_Node000007"><a xlink:href="namespaceMayaFlux_1_1Kakshya_a4f4d80add8013fb73fabc262edc2e76c.html#a4f4d80add8013fb73fabc262edc2e76c" target="_top" xlink:title=" ">
<polygon fill="white" stroke="#666666" points="715,-148.5 591,-148.5 591,-118.5 715,-118.5 715,-148.5"/>
<text text-anchor="start" x="599" y="-136.5" font-family="Helvetica,sans-Serif" font-size="10.00">MayaFlux::Kakshya::</text>
<text text-anchor="middle" x="653" y="-125.5" font-family="Helvetica,sans-Serif" font-size="10.00">is_segment_complete</text>
</a>
</g>
</g>
<!-- Node5&#45;&gt;Node7 -->
<g id="edge6_Node000005_Node000007" class="edge">
<title>Node5&#45;&gt;Node7</title>
<g id="a_edge6_Node000005_Node000007"><a xlink:title=" ">
<path fill="none" stroke="#63b8ff" d="M535.16,-117.4C550.26,-119.49 565.99,-121.65 580.83,-123.7"/>
<polygon fill="#63b8ff" stroke="#63b8ff" points="580.56,-127.19 590.94,-125.09 581.51,-120.26 580.56,-127.19"/>
</a>
</g>
</g>
<!-- Node8 -->
<g id="Node000008" class="node">
<title>Node8</title>
<g id="a_Node000008"><a xlink:href="classMayaFlux_1_1Kakshya_1_1RegionOrganizationProcessor_af6a1c2965bd840ff51bafe759e8e4cb5.html#af6a1c2965bd840ff51bafe759e8e4cb5" target="_top" xlink:title="Process a single region segment.">
<polygon fill="white" stroke="#666666" points="733,-100 573,-100 573,-59 733,-59 733,-100"/>
<text text-anchor="start" x="581" y="-88" font-family="Helvetica,sans-Serif" font-size="10.00">MayaFlux::Kakshya::</text>
<text text-anchor="start" x="581" y="-77" font-family="Helvetica,sans-Serif" font-size="10.00">RegionOrganizationProcessor</text>
<text text-anchor="middle" x="653" y="-66" font-family="Helvetica,sans-Serif" font-size="10.00">::process_region_segment</text>
</a>
</g>
</g>
<!-- Node5&#45;&gt;Node8 -->
<g id="edge7_Node000005_Node000008" class="edge">
<title>Node5&#45;&gt;Node8</title>
<g id="a_edge7_Node000005_Node000008"><a xlink:title=" ">
<path fill="none" stroke="#63b8ff" d="M535.16,-95.6C544.28,-94.34 553.64,-93.05 562.89,-91.78"/>
<polygon fill="#63b8ff" stroke="#63b8ff" points="563.44,-95.23 572.87,-90.4 562.48,-88.3 563.44,-95.23"/>
</a>
</g>
</g>
<!-- Node10 -->
<g id="Node000010" class="node">
<title>Node10</title>
<g id="a_Node000010"><a xlink:href="classMayaFlux_1_1Kakshya_1_1RegionOrganizationProcessor_ac1aefba0e5745f0a4998f2d80d8209b3.html#ac1aefba0e5745f0a4998f2d80d8209b3" target="_top" xlink:title="Select the next segment to process according to the region&#39;s pattern.">
<polygon fill="white" stroke="#666666" points="733,-41 573,-41 573,0 733,0 733,-41"/>
<text text-anchor="start" x="581" y="-29" font-family="Helvetica,sans-Serif" font-size="10.00">MayaFlux::Kakshya::</text>
<text text-anchor="start" x="581" y="-18" font-family="Helvetica,sans-Serif" font-size="10.00">RegionOrganizationProcessor</text>
<text text-anchor="middle" x="653" y="-7" font-family="Helvetica,sans-Serif" font-size="10.00">::select_next_segment</text>
</a>
</g>
</g>
<!-- Node5&#45;&gt;Node10 -->
<g id="edge9_Node000005_Node000010" class="edge">
<title>Node5&#45;&gt;Node10</title>
<g id="a_edge9_Node000005_Node000010"><a xlink:title=" ">
<path fill="none" stroke="#63b8ff" d="M496.77,-85.96C519.08,-74.98 547.33,-61.49 573,-50.5 577.4,-48.61 581.97,-46.72 586.58,-44.85"/>
<polygon fill="#63b8ff" stroke="#63b8ff" points="588.1,-48.02 596.09,-41.07 585.5,-41.52 588.1,-48.02"/>
</a>
</g>
</g>
<!-- Node9 -->
<g id="Node000009" class="node">
<title>Node9</title>
<g id="a_Node000009"><a xlink:href="namespaceMayaFlux_1_1Kakshya_aa54974c0e7035a5e1d91aa1c3c29d49c.html#aa54974c0e7035a5e1d91aa1c3c29d49c" target="_top" xlink:title="Safely copy data from a DataVariant to another DataVariant, handling type conversion.">
<polygon fill="white" stroke="#666666" points="902,-94.5 769,-94.5 769,-64.5 902,-64.5 902,-94.5"/>
<text text-anchor="start" x="777" y="-82.5" font-family="Helvetica,sans-Serif" font-size="10.00">MayaFlux::Kakshya::</text>
<text text-anchor="middle" x="835.5" y="-71.5" font-family="Helvetica,sans-Serif" font-size="10.00">safe_copy_data_variant</text>
</a>
</g>
</g>
<!-- Node8&#45;&gt;Node9 -->
<g id="edge8_Node000008_Node000009" class="edge">
<title>Node8&#45;&gt;Node9</title>
<g id="a_edge8_Node000008_Node000009"><a xlink:title=" ">
<path fill="none" stroke="#63b8ff" d="M733.17,-79.5C741.66,-79.5 750.27,-79.5 758.72,-79.5"/>
<polygon fill="#63b8ff" stroke="#63b8ff" points="758.91,-83 768.91,-79.5 758.91,-76 758.91,-83"/>
</a>
</g>
</g>
</g>
</svg>

<g id="navigator" transform="translate(0 0)" fill="#404254">
  <rect fill="#f2f5e9" fill-opacity="0.5" stroke="#606060" stroke-width=".5" x="0" y="0" width="60" height="60"/>
  <use id="zoomplus" xlink:href="#zoomPlus" x="17" y="9" onmousedown="handleZoom(evt,'in')"/>
  <use id="zoomminus" xlink:href="#zoomMin" x="42" y="9" onmousedown="handleZoom(evt,'out')"/>
  <use id="reset" xlink:href="#resetDef" x="30" y="36" onmousedown="handleReset()"/>
   <use id="arrowup" xlink:href="#arrowUp" x="0" y="0" onmousedown="handlePan(0,-1)"/>
  <use id="arrowright" xlink:href="#arrowRight" x="0" y="0" onmousedown="handlePan(1,0)"/>
  <use id="arrowdown" xlink:href="#arrowDown" x="0" y="0" onmousedown="handlePan(0,1)"/>
  <use id="arrowleft" xlink:href="#arrowLeft" x="0" y="0" onmousedown="handlePan(-1,0)"/>
</g>
<svg viewBox="0 0 15 15" width="100%" height="30px" preserveAspectRatio="xMaxYMin meet">
 <g id="arrow_out" transform="scale(0.3 0.3)">
  <a xlink:href="classMayaFlux_1_1Kakshya_1_1DynamicRegionProcessor_a11876d04bdc74ab49edcc80f38eab4e9_a11876d04bdc74ab49edcc80f38eab4e9_cgraph_org.svg" target="_base">
   <rect id="button" ry="5" rx="5" y="6" x="6" height="38" width="38"
        fill="#f2f5e9" fill-opacity="0.5" stroke="#606060" stroke-width="1.0"/>
   <path id="arrow"
     d="M 11.500037,31.436501 C 11.940474,20.09759 22.043105,11.32322 32.158766,21.979434 L 37.068811,17.246167 C 37.068811,17.246167 37.088388,32 37.088388,32 L 22.160133,31.978069 C 22.160133,31.978069 26.997745,27.140456 26.997745,27.140456 C 18.528582,18.264221 13.291696,25.230495 11.500037,31.436501 z"
     style="fill:#404040;"/>
  </a>
 </g>
</svg>

<style type='text/css'>
<![CDATA[
[data-mouse-over-selected='false'] { opacity: 0.7; }
[data-mouse-over-selected='true']  { opacity: 1.0; }
]]>
</style>
<script type="application/ecmascript"><![CDATA[
document.addEventListener('DOMContentLoaded', (event) => {
  highlightEdges();
  highlightAdjacentNodes();
});
]]></script>
</svg>
