<?xml version="1.0" encoding="UTF-8" standalone="no"?>
<!DOCTYPE svg PUBLIC "-//W3C//DTD SVG 1.1//EN"
 "http://www.w3.org/Graphics/SVG/1.1/DTD/svg11.dtd">
<!-- Generated by graphviz version 2.43.0 (0)
 -->
<!-- Title: MayaFlux::Nodes::Network::WaveguideNetwork::update_mapped_parameters Pages: 1 -->
<svg width="741pt" height="167pt"
 viewBox="0.00 0.00 741.00 167.00" xmlns="http://www.w3.org/2000/svg" xmlns:xlink="http://www.w3.org/1999/xlink">
<g id="graph0" class="graph" transform="scale(1 1) rotate(0) translate(4 163)">
<title>MayaFlux::Nodes::Network::WaveguideNetwork::update_mapped_parameters</title>
<!-- Node1 -->
<g id="Node000001" class="node">
<title>Node1</title>
<g id="a_Node000001"><a xlink:title=" ">
<polygon fill="#999999" stroke="#666666" points="158,-70 0,-70 0,-29 158,-29 158,-70"/>
<text text-anchor="start" x="8" y="-58" font-family="Helvetica,sans-Serif" font-size="10.00">MayaFlux::Nodes::Network</text>
<text text-anchor="start" x="8" y="-47" font-family="Helvetica,sans-Serif" font-size="10.00">::WaveguideNetwork::update</text>
<text text-anchor="middle" x="79" y="-36" font-family="Helvetica,sans-Serif" font-size="10.00">_mapped_parameters</text>
</a>
</g>
</g>
<!-- Node2 -->
<g id="Node000002" class="node">
<title>Node2</title>
<g id="a_Node000002"><a xlink:href="classMayaFlux_1_1Nodes_1_1Network_1_1WaveguideNetwork_acee3acc704e71412521612a979c05b64.html#acee3acc704e71412521612a979c05b64" target="_top" xlink:title=" ">
<polygon fill="white" stroke="#666666" points="345,-100 194,-100 194,-59 345,-59 345,-100"/>
<text text-anchor="start" x="202" y="-88" font-family="Helvetica,sans-Serif" font-size="10.00">MayaFlux::Nodes::Network</text>
<text text-anchor="start" x="202" y="-77" font-family="Helvetica,sans-Serif" font-size="10.00">::WaveguideNetwork::apply</text>
<text text-anchor="middle" x="269.5" y="-66" font-family="Helvetica,sans-Serif" font-size="10.00">_broadcast_parameter</text>
</a>
</g>
</g>
<!-- Node1&#45;&gt;Node2 -->
<g id="edge1_Node000001_Node000002" class="edge">
<title>Node1&#45;&gt;Node2</title>
<g id="a_edge1_Node000001_Node000002"><a xlink:title=" ">
<path fill="none" stroke="#63b8ff" d="M158.03,-61.92C166.55,-63.27 175.25,-64.66 183.84,-66.03"/>
<polygon fill="#63b8ff" stroke="#63b8ff" points="183.43,-69.51 193.86,-67.62 184.53,-62.59 183.43,-69.51"/>
</a>
</g>
</g>
<!-- Node7 -->
<g id="Node000007" class="node">
<title>Node7</title>
<g id="a_Node000007"><a xlink:href="classMayaFlux_1_1Nodes_1_1Network_1_1WaveguideNetwork_aec2ac529d2df3975a7cf1bcd1d696a15.html#aec2ac529d2df3975a7cf1bcd1d696a15" target="_top" xlink:title=" ">
<polygon fill="white" stroke="#666666" points="345,-41 194,-41 194,0 345,0 345,-41"/>
<text text-anchor="start" x="202" y="-29" font-family="Helvetica,sans-Serif" font-size="10.00">MayaFlux::Nodes::Network</text>
<text text-anchor="start" x="202" y="-18" font-family="Helvetica,sans-Serif" font-size="10.00">::WaveguideNetwork::apply</text>
<text text-anchor="middle" x="269.5" y="-7" font-family="Helvetica,sans-Serif" font-size="10.00">_one_to_one_parameter</text>
</a>
</g>
</g>
<!-- Node1&#45;&gt;Node7 -->
<g id="edge6_Node000001_Node000007" class="edge">
<title>Node1&#45;&gt;Node7</title>
<g id="a_edge6_Node000001_Node000007"><a xlink:title=" ">
<path fill="none" stroke="#63b8ff" d="M158.03,-37.5C166.55,-36.18 175.25,-34.85 183.84,-33.52"/>
<polygon fill="#63b8ff" stroke="#63b8ff" points="184.51,-36.96 193.86,-31.98 183.44,-30.04 184.51,-36.96"/>
</a>
</g>
</g>
<!-- Node3 -->
<g id="Node000003" class="node">
<title>Node3</title>
<g id="a_Node000003"><a xlink:href="classMayaFlux_1_1Nodes_1_1Network_1_1WaveguideNetwork_a89cd696dd3cd64ca8cf8d0ff9910bccc.html#a89cd696dd3cd64ca8cf8d0ff9910bccc" target="_top" xlink:title="Set fundamental frequency.">
<polygon fill="white" stroke="#666666" points="530,-159 381,-159 381,-118 530,-118 530,-159"/>
<text text-anchor="start" x="389" y="-147" font-family="Helvetica,sans-Serif" font-size="10.00">MayaFlux::Nodes::Network</text>
<text text-anchor="start" x="389" y="-136" font-family="Helvetica,sans-Serif" font-size="10.00">::WaveguideNetwork::set</text>
<text text-anchor="middle" x="455.5" y="-125" font-family="Helvetica,sans-Serif" font-size="10.00">_fundamental</text>
</a>
</g>
</g>
<!-- Node2&#45;&gt;Node3 -->
<g id="edge2_Node000002_Node000003" class="edge">
<title>Node2&#45;&gt;Node3</title>
<g id="a_edge2_Node000002_Node000003"><a xlink:title=" ">
<path fill="none" stroke="#63b8ff" d="M334.6,-100.05C349.4,-104.8 365.27,-109.89 380.46,-114.76"/>
<polygon fill="#63b8ff" stroke="#63b8ff" points="379.73,-118.2 390.32,-117.92 381.87,-111.53 379.73,-118.2"/>
</a>
</g>
</g>
<!-- Node5 -->
<g id="Node000005" class="node">
<title>Node5</title>
<g id="a_Node000005"><a xlink:href="classMayaFlux_1_1Nodes_1_1Network_1_1WaveguideNetwork_a866e7a2b7849c94223df1ad51982ab27.html#a866e7a2b7849c94223df1ad51982ab27" target="_top" xlink:title="Set per&#45;sample energy loss factor.">
<polygon fill="white" stroke="#666666" points="530,-100 381,-100 381,-59 530,-59 530,-100"/>
<text text-anchor="start" x="389" y="-88" font-family="Helvetica,sans-Serif" font-size="10.00">MayaFlux::Nodes::Network</text>
<text text-anchor="start" x="389" y="-77" font-family="Helvetica,sans-Serif" font-size="10.00">::WaveguideNetwork::set</text>
<text text-anchor="middle" x="455.5" y="-66" font-family="Helvetica,sans-Serif" font-size="10.00">_loss_factor</text>
</a>
</g>
</g>
<!-- Node2&#45;&gt;Node5 -->
<g id="edge4_Node000002_Node000005" class="edge">
<title>Node2&#45;&gt;Node5</title>
<g id="a_edge4_Node000002_Node000005"><a xlink:title=" ">
<path fill="none" stroke="#63b8ff" d="M345.07,-79.5C353.43,-79.5 361.99,-79.5 370.45,-79.5"/>
<polygon fill="#63b8ff" stroke="#63b8ff" points="370.72,-83 380.72,-79.5 370.72,-76 370.72,-83"/>
</a>
</g>
</g>
<!-- Node6 -->
<g id="Node000006" class="node">
<title>Node6</title>
<g id="a_Node000006"><a xlink:href="classMayaFlux_1_1Nodes_1_1Network_1_1WaveguideNetwork_ad6daa6cec6d47d3c29b09767b519306c.html#ad6daa6cec6d47d3c29b09767b519306c" target="_top" xlink:title="Set pickup position along the string.">
<polygon fill="white" stroke="#666666" points="530,-41 381,-41 381,0 530,0 530,-41"/>
<text text-anchor="start" x="389" y="-29" font-family="Helvetica,sans-Serif" font-size="10.00">MayaFlux::Nodes::Network</text>
<text text-anchor="start" x="389" y="-18" font-family="Helvetica,sans-Serif" font-size="10.00">::WaveguideNetwork::set</text>
<text text-anchor="middle" x="455.5" y="-7" font-family="Helvetica,sans-Serif" font-size="10.00">_pickup_position</text>
</a>
</g>
</g>
<!-- Node2&#45;&gt;Node6 -->
<g id="edge5_Node000002_Node000006" class="edge">
<title>Node2&#45;&gt;Node6</title>
<g id="a_edge5_Node000002_Node000006"><a xlink:title=" ">
<path fill="none" stroke="#63b8ff" d="M334.6,-58.95C349.4,-54.2 365.27,-49.11 380.46,-44.24"/>
<polygon fill="#63b8ff" stroke="#63b8ff" points="381.87,-47.47 390.32,-41.08 379.73,-40.8 381.87,-47.47"/>
</a>
</g>
</g>
<!-- Node4 -->
<g id="Node000004" class="node">
<title>Node4</title>
<g id="a_Node000004"><a xlink:href="classMayaFlux_1_1Nodes_1_1Network_1_1WaveguideNetwork_ab8ef8061cb1ccafcc44f54a67bad0c04.html#ab8ef8061cb1ccafcc44f54a67bad0c04" target="_top" xlink:title=" ">
<polygon fill="white" stroke="#666666" points="733,-159 566,-159 566,-118 733,-118 733,-159"/>
<text text-anchor="start" x="574" y="-147" font-family="Helvetica,sans-Serif" font-size="10.00">MayaFlux::Nodes::Network</text>
<text text-anchor="start" x="574" y="-136" font-family="Helvetica,sans-Serif" font-size="10.00">::WaveguideNetwork::compute</text>
<text text-anchor="middle" x="649.5" y="-125" font-family="Helvetica,sans-Serif" font-size="10.00">_delay_length</text>
</a>
</g>
</g>
<!-- Node3&#45;&gt;Node4 -->
<g id="edge3_Node000003_Node000004" class="edge">
<title>Node3&#45;&gt;Node4</title>
<g id="a_edge3_Node000003_Node000004"><a xlink:title=" ">
<path fill="none" stroke="#63b8ff" d="M530.18,-138.5C538.54,-138.5 547.14,-138.5 555.71,-138.5"/>
<polygon fill="#63b8ff" stroke="#63b8ff" points="555.73,-142 565.73,-138.5 555.73,-135 555.73,-142"/>
</a>
</g>
</g>
</g>
</svg>
