<?xml version="1.0" encoding="UTF-8" standalone="no"?>
<!DOCTYPE svg PUBLIC "-//W3C//DTD SVG 1.1//EN"
 "http://www.w3.org/Graphics/SVG/1.1/DTD/svg11.dtd">
<!-- Generated by graphviz version 2.43.0 (0)
 -->
<!-- Title: MayaFlux::Nodes::NodeGraphManager::~NodeGraphManager Pages: 1 -->
<!--zoomable 134 -->

<svg id="main" version="1.1" xmlns="http://www.w3.org/2000/svg" xmlns:xlink="http://www.w3.org/1999/xlink" xml:space="preserve" onload="init(evt)">
<style type="text/css"><![CDATA[
.node, .edge {opacity: 0.7;}
.node.selected, .edge.selected {opacity: 1;}
.edge:hover path { stroke: red; }
.edge:hover polygon { stroke: red; fill: red; }
]]></style>

<defs>
  <circle id="rim" cx="0" cy="0" r="7"/>
  <circle id="rim2" cx="0" cy="0" r="3.5"/>
  <g id="zoomPlus">
    <use xlink:href="#rim" fill="#404040"><set attributeName="fill" to="#808080" begin="zoomplus.mouseover" end="zoomplus.mouseout"/></use>
    <path d="M-4,0h8M0,-4v8" fill="none" stroke="white" stroke-width="1.5" pointer-events="none"/>
  </g>
  <g id="zoomMin">
    <use xlink:href="#rim" fill="#404040"><set attributeName="fill" to="#808080" begin="zoomminus.mouseover" end="zoomminus.mouseout"/></use>
    <path d="M-4,0h8" fill="none" stroke="white" stroke-width="1.5" pointer-events="none"/>
  </g>
  <g id="arrowUp" transform="translate(30 24)">
    <use xlink:href="#rim"/>
    <path pointer-events="none" fill="none" stroke="white" stroke-width="1.5" d="M0,-3.0v7 M-2.5,-0.5L0,-3.0L2.5,-0.5"/>
  </g>
  <g id="arrowRight" transform="rotate(90) translate(36 -43)">
    <use xlink:href="#rim"/>
    <path pointer-events="none" fill="none" stroke="white" stroke-width="1.5" d="M0,-3.0v7 M-2.5,-0.5L0,-3.0L2.5,-0.5"/>
  </g>
  <g id="arrowDown" transform="rotate(180) translate(-30 -48)">
    <use xlink:href="#rim"/>
    <path pointer-events="none" fill="none" stroke="white" stroke-width="1.5" d="M0,-3.0v7 M-2.5,-0.5L0,-3.0L2.5,-0.5"/>
  </g>
  <g id="arrowLeft" transform="rotate(270) translate(-36 17)">
    <use xlink:href="#rim"/>
    <path pointer-events="none" fill="none" stroke="white" stroke-width="1.5" d="M0,-3.0v7 M-2.5,-0.5L0,-3.0L2.5,-0.5"/>
  </g>
  <g id="resetDef">
    <use xlink:href="#rim2" fill="#404040"><set attributeName="fill" to="#808080" begin="reset.mouseover" end="reset.mouseout"/></use>
  </g>
</defs>
<script type="application/ecmascript">
var viewWidth = 608;
var viewHeight = 134;
var sectionId = 'dynsection-0';
</script>
<script type="application/ecmascript" xlink:href="svg.min.js"/>
<svg id="graph" class="graph">
<g id="viewport">
<title>MayaFlux::Nodes::NodeGraphManager::~NodeGraphManager</title>
<!-- Node1 -->
<g id="Node000001" class="node">
<title>Node1</title>
<g id="a_Node000001"><a xlink:title="Destroys the NodeGraphManager.">
<polygon fill="#999999" stroke="#666666" points="171,-78 0,-78 0,-48 171,-48 171,-78"/>
<text text-anchor="start" x="8" y="-66" font-family="Helvetica,sans-Serif" font-size="10.00">MayaFlux::Nodes::NodeGraph</text>
<text text-anchor="middle" x="85.5" y="-55" font-family="Helvetica,sans-Serif" font-size="10.00">Manager::~NodeGraphManager</text>
</a>
</g>
</g>
<!-- Node2 -->
<g id="Node000002" class="node">
<title>Node2</title>
<g id="a_Node000002"><a xlink:href="classMayaFlux_1_1Nodes_1_1NodeGraphManager_a0c180caaaa076b2a2609bc1d1f9258ea.html#a0c180caaaa076b2a2609bc1d1f9258ea" target="_top" xlink:title="Terminates all active processing across all tokens and channels.">
<polygon fill="white" stroke="#666666" points="369,-83.5 207,-83.5 207,-42.5 369,-42.5 369,-83.5"/>
<text text-anchor="start" x="215" y="-71.5" font-family="Helvetica,sans-Serif" font-size="10.00">MayaFlux::Nodes::NodeGraph</text>
<text text-anchor="start" x="215" y="-60.5" font-family="Helvetica,sans-Serif" font-size="10.00">Manager::terminate_active</text>
<text text-anchor="middle" x="288" y="-49.5" font-family="Helvetica,sans-Serif" font-size="10.00">_processing</text>
</a>
</g>
</g>
<!-- Node1&#45;&gt;Node2 -->
<g id="edge1_Node000001_Node000002" class="edge">
<title>Node1&#45;&gt;Node2</title>
<g id="a_edge1_Node000001_Node000002"><a xlink:title=" ">
<path fill="none" stroke="#63b8ff" d="M171.24,-63C179.6,-63 188.1,-63 196.52,-63"/>
<polygon fill="#63b8ff" stroke="#63b8ff" points="196.72,-66.5 206.72,-63 196.72,-59.5 196.72,-66.5"/>
</a>
</g>
</g>
<!-- Node3 -->
<g id="Node000003" class="node">
<title>Node3</title>
<g id="a_Node000003"><a xlink:href="classMayaFlux_1_1Nodes_1_1NodeGraphManager_ae0ea609da65a55001ff6196166cf2af0.html#ae0ea609da65a55001ff6196166cf2af0" target="_top" xlink:title="Gets all currently active processing tokens (domains)">
<polygon fill="white" stroke="#666666" points="583.5,-126 421.5,-126 421.5,-96 583.5,-96 583.5,-126"/>
<text text-anchor="start" x="429.5" y="-114" font-family="Helvetica,sans-Serif" font-size="10.00">MayaFlux::Nodes::NodeGraph</text>
<text text-anchor="middle" x="502.5" y="-103" font-family="Helvetica,sans-Serif" font-size="10.00">Manager::get_active_tokens</text>
</a>
</g>
</g>
<!-- Node2&#45;&gt;Node3 -->
<g id="edge2_Node000002_Node000003" class="edge">
<title>Node2&#45;&gt;Node3</title>
<g id="a_edge2_Node000002_Node000003"><a xlink:title=" ">
<path fill="none" stroke="#63b8ff" d="M369.03,-81.08C387.4,-85.23 406.88,-89.63 425.09,-93.74"/>
<polygon fill="#63b8ff" stroke="#63b8ff" points="424.53,-97.2 435.05,-95.99 426.07,-90.37 424.53,-97.2"/>
</a>
</g>
</g>
<!-- Node4 -->
<g id="Node000004" class="node">
<title>Node4</title>
<g id="a_Node000004"><a xlink:href="classMayaFlux_1_1Nodes_1_1NodeGraphManager_af4dfc2c32607b1a94260b9bfdeb424d0.html#af4dfc2c32607b1a94260b9bfdeb424d0" target="_top" xlink:title="Get spans of root nodes for a token (for custom processing)">
<polygon fill="white" stroke="#666666" points="583.5,-78 421.5,-78 421.5,-48 583.5,-48 583.5,-78"/>
<text text-anchor="start" x="429.5" y="-66" font-family="Helvetica,sans-Serif" font-size="10.00">MayaFlux::Nodes::NodeGraph</text>
<text text-anchor="middle" x="502.5" y="-55" font-family="Helvetica,sans-Serif" font-size="10.00">Manager::get_all_root_nodes</text>
</a>
</g>
</g>
<!-- Node2&#45;&gt;Node4 -->
<g id="edge3_Node000002_Node000004" class="edge">
<title>Node2&#45;&gt;Node4</title>
<g id="a_edge3_Node000002_Node000004"><a xlink:title=" ">
<path fill="none" stroke="#63b8ff" d="M369.03,-63C382.76,-63 397.11,-63 411.09,-63"/>
<polygon fill="#63b8ff" stroke="#63b8ff" points="411.18,-66.5 421.18,-63 411.18,-59.5 411.18,-66.5"/>
</a>
</g>
</g>
<!-- Node5 -->
<g id="Node000005" class="node">
<title>Node5</title>
<g id="a_Node000005"><a xlink:href="classMayaFlux_1_1Nodes_1_1NodeGraphManager_adc75a7be1c84a5d43f4c4b71da4de404.html#adc75a7be1c84a5d43f4c4b71da4de404" target="_top" xlink:title="Unregister network globally.">
<polygon fill="white" stroke="#666666" points="600,-30 405,-30 405,0 600,0 600,-30"/>
<text text-anchor="start" x="413" y="-18" font-family="Helvetica,sans-Serif" font-size="10.00">MayaFlux::Nodes::NodeGraph</text>
<text text-anchor="middle" x="502.5" y="-7" font-family="Helvetica,sans-Serif" font-size="10.00">Manager::unregister_network_global</text>
</a>
</g>
</g>
<!-- Node2&#45;&gt;Node5 -->
<g id="edge4_Node000002_Node000005" class="edge">
<title>Node2&#45;&gt;Node5</title>
<g id="a_edge4_Node000002_Node000005"><a xlink:title=" ">
<path fill="none" stroke="#63b8ff" d="M369.03,-44.92C387.4,-40.77 406.88,-36.37 425.09,-32.26"/>
<polygon fill="#63b8ff" stroke="#63b8ff" points="426.07,-35.63 435.05,-30.01 424.53,-28.8 426.07,-35.63"/>
</a>
</g>
</g>
</g>
</svg>

<g id="navigator" transform="translate(0 0)" fill="#404254">
  <rect fill="#f2f5e9" fill-opacity="0.5" stroke="#606060" stroke-width=".5" x="0" y="0" width="60" height="60"/>
  <use id="zoomplus" xlink:href="#zoomPlus" x="17" y="9" onmousedown="handleZoom(evt,'in')"/>
  <use id="zoomminus" xlink:href="#zoomMin" x="42" y="9" onmousedown="handleZoom(evt,'out')"/>
  <use id="reset" xlink:href="#resetDef" x="30" y="36" onmousedown="handleReset()"/>
   <use id="arrowup" xlink:href="#arrowUp" x="0" y="0" onmousedown="handlePan(0,-1)"/>
  <use id="arrowright" xlink:href="#arrowRight" x="0" y="0" onmousedown="handlePan(1,0)"/>
  <use id="arrowdown" xlink:href="#arrowDown" x="0" y="0" onmousedown="handlePan(0,1)"/>
  <use id="arrowleft" xlink:href="#arrowLeft" x="0" y="0" onmousedown="handlePan(-1,0)"/>
</g>
<svg viewBox="0 0 15 15" width="100%" height="30px" preserveAspectRatio="xMaxYMin meet">
 <g id="arrow_out" transform="scale(0.3 0.3)">
  <a xlink:href="classMayaFlux_1_1Nodes_1_1NodeGraphManager_ac72e466978d6713dfcbc620c50567363_ac72e466978d6713dfcbc620c50567363_cgraph_org.svg" target="_base">
   <rect id="button" ry="5" rx="5" y="6" x="6" height="38" width="38"
        fill="#f2f5e9" fill-opacity="0.5" stroke="#606060" stroke-width="1.0"/>
   <path id="arrow"
     d="M 11.500037,31.436501 C 11.940474,20.09759 22.043105,11.32322 32.158766,21.979434 L 37.068811,17.246167 C 37.068811,17.246167 37.088388,32 37.088388,32 L 22.160133,31.978069 C 22.160133,31.978069 26.997745,27.140456 26.997745,27.140456 C 18.528582,18.264221 13.291696,25.230495 11.500037,31.436501 z"
     style="fill:#404040;"/>
  </a>
 </g>
</svg>

<style type='text/css'>
<![CDATA[
[data-mouse-over-selected='false'] { opacity: 0.7; }
[data-mouse-over-selected='true']  { opacity: 1.0; }
]]>
</style>
<script type="application/ecmascript"><![CDATA[
document.addEventListener('DOMContentLoaded', (event) => {
  highlightEdges();
  highlightAdjacentNodes();
});
]]></script>
</svg>
