<?xml version="1.0" encoding="UTF-8" standalone="no"?>
<!DOCTYPE svg PUBLIC "-//W3C//DTD SVG 1.1//EN"
 "http://www.w3.org/Graphics/SVG/1.1/DTD/svg11.dtd">
<!-- Generated by graphviz version 2.43.0 (0)
 -->
<!-- Title: MayaFlux::Buffers::TextureProcessor::initialize_gpu_resources Pages: 1 -->
<!--zoomable 213 -->

<svg id="main" version="1.1" xmlns="http://www.w3.org/2000/svg" xmlns:xlink="http://www.w3.org/1999/xlink" xml:space="preserve" onload="init(evt)">
<style type="text/css"><![CDATA[
.node, .edge {opacity: 0.7;}
.node.selected, .edge.selected {opacity: 1;}
.edge:hover path { stroke: red; }
.edge:hover polygon { stroke: red; fill: red; }
]]></style>

<defs>
  <circle id="rim" cx="0" cy="0" r="7"/>
  <circle id="rim2" cx="0" cy="0" r="3.5"/>
  <g id="zoomPlus">
    <use xlink:href="#rim" fill="#404040"><set attributeName="fill" to="#808080" begin="zoomplus.mouseover" end="zoomplus.mouseout"/></use>
    <path d="M-4,0h8M0,-4v8" fill="none" stroke="white" stroke-width="1.5" pointer-events="none"/>
  </g>
  <g id="zoomMin">
    <use xlink:href="#rim" fill="#404040"><set attributeName="fill" to="#808080" begin="zoomminus.mouseover" end="zoomminus.mouseout"/></use>
    <path d="M-4,0h8" fill="none" stroke="white" stroke-width="1.5" pointer-events="none"/>
  </g>
  <g id="arrowUp" transform="translate(30 24)">
    <use xlink:href="#rim"/>
    <path pointer-events="none" fill="none" stroke="white" stroke-width="1.5" d="M0,-3.0v7 M-2.5,-0.5L0,-3.0L2.5,-0.5"/>
  </g>
  <g id="arrowRight" transform="rotate(90) translate(36 -43)">
    <use xlink:href="#rim"/>
    <path pointer-events="none" fill="none" stroke="white" stroke-width="1.5" d="M0,-3.0v7 M-2.5,-0.5L0,-3.0L2.5,-0.5"/>
  </g>
  <g id="arrowDown" transform="rotate(180) translate(-30 -48)">
    <use xlink:href="#rim"/>
    <path pointer-events="none" fill="none" stroke="white" stroke-width="1.5" d="M0,-3.0v7 M-2.5,-0.5L0,-3.0L2.5,-0.5"/>
  </g>
  <g id="arrowLeft" transform="rotate(270) translate(-36 17)">
    <use xlink:href="#rim"/>
    <path pointer-events="none" fill="none" stroke="white" stroke-width="1.5" d="M0,-3.0v7 M-2.5,-0.5L0,-3.0L2.5,-0.5"/>
  </g>
  <g id="resetDef">
    <use xlink:href="#rim2" fill="#404040"><set attributeName="fill" to="#808080" begin="reset.mouseover" end="reset.mouseout"/></use>
  </g>
</defs>
<script type="application/ecmascript">
var viewWidth = 886;
var viewHeight = 213;
var sectionId = 'dynsection-0';
</script>
<script type="application/ecmascript" xlink:href="svg.min.js"/>
<svg id="graph" class="graph">
<g id="viewport">
<title>MayaFlux::Buffers::TextureProcessor::initialize_gpu_resources</title>
<!-- Node1 -->
<g id="Node000001" class="node">
<title>Node1</title>
<g id="a_Node000001"><a xlink:title="Initialize all GPU resources:">
<polygon fill="#999999" stroke="#666666" points="148,-145.5 0,-145.5 0,-104.5 148,-104.5 148,-145.5"/>
<text text-anchor="start" x="8" y="-133.5" font-family="Helvetica,sans-Serif" font-size="10.00">MayaFlux::Buffers::</text>
<text text-anchor="start" x="8" y="-122.5" font-family="Helvetica,sans-Serif" font-size="10.00">TextureProcessor::initialize</text>
<text text-anchor="middle" x="74" y="-111.5" font-family="Helvetica,sans-Serif" font-size="10.00">_gpu_resources</text>
</a>
</g>
</g>
<!-- Node2 -->
<g id="Node000002" class="node">
<title>Node2</title>
<g id="a_Node000002"><a xlink:href="classMayaFlux_1_1Buffers_1_1TextureProcessor_a074276cd9ffa82ba762d51bf0240190a.html#a074276cd9ffa82ba762d51bf0240190a" target="_top" xlink:title="Create VKImage for texture storage.">
<polygon fill="white" stroke="#666666" points="322,-145.5 185,-145.5 185,-104.5 322,-104.5 322,-145.5"/>
<text text-anchor="start" x="193" y="-133.5" font-family="Helvetica,sans-Serif" font-size="10.00">MayaFlux::Buffers::</text>
<text text-anchor="start" x="193" y="-122.5" font-family="Helvetica,sans-Serif" font-size="10.00">TextureProcessor::create</text>
<text text-anchor="middle" x="253.5" y="-111.5" font-family="Helvetica,sans-Serif" font-size="10.00">_gpu_texture</text>
</a>
</g>
</g>
<!-- Node1&#45;&gt;Node2 -->
<g id="edge1_Node000001_Node000002" class="edge">
<title>Node1&#45;&gt;Node2</title>
<g id="a_edge1_Node000001_Node000002"><a xlink:title=" ">
<path fill="none" stroke="#63b8ff" d="M148.22,-125C156.94,-125 165.86,-125 174.64,-125"/>
<polygon fill="#63b8ff" stroke="#63b8ff" points="174.86,-128.5 184.86,-125 174.86,-121.5 174.86,-128.5"/>
</a>
</g>
</g>
<!-- Node5 -->
<g id="Node000005" class="node">
<title>Node5</title>
<g id="a_Node000005"><a xlink:href="classMayaFlux_1_1Buffers_1_1TextureProcessor_afbede3e8fe823d39af69c4fd0f882788.html#afbede3e8fe823d39af69c4fd0f882788" target="_top" xlink:title="Upload initial quad geometry based on default or custom vertices.">
<polygon fill="white" stroke="#666666" points="323,-86.5 184,-86.5 184,-45.5 323,-45.5 323,-86.5"/>
<text text-anchor="start" x="192" y="-74.5" font-family="Helvetica,sans-Serif" font-size="10.00">MayaFlux::Buffers::</text>
<text text-anchor="start" x="192" y="-63.5" font-family="Helvetica,sans-Serif" font-size="10.00">TextureProcessor::upload</text>
<text text-anchor="middle" x="253.5" y="-52.5" font-family="Helvetica,sans-Serif" font-size="10.00">_initial_geometry</text>
</a>
</g>
</g>
<!-- Node1&#45;&gt;Node5 -->
<g id="edge4_Node000001_Node000005" class="edge">
<title>Node1&#45;&gt;Node5</title>
<g id="a_edge4_Node000001_Node000005"><a xlink:title=" ">
<path fill="none" stroke="#63b8ff" d="M137.08,-104.36C151.35,-99.62 166.63,-94.54 181.26,-89.68"/>
<polygon fill="#63b8ff" stroke="#63b8ff" points="182.37,-93 190.75,-86.52 180.16,-86.36 182.37,-93"/>
</a>
</g>
</g>
<!-- Node13 -->
<g id="Node000013" class="node">
<title>Node13</title>
<g id="a_Node000013"><a xlink:href="classMayaFlux_1_1Buffers_1_1TextureProcessor_a956a5e44b0105d4ada9aa83d25997c39.html#a956a5e44b0105d4ada9aa83d25997c39" target="_top" xlink:title="Upload initial pixel data to GPU texture.">
<polygon fill="white" stroke="#666666" points="323,-204.5 184,-204.5 184,-163.5 323,-163.5 323,-204.5"/>
<text text-anchor="start" x="192" y="-192.5" font-family="Helvetica,sans-Serif" font-size="10.00">MayaFlux::Buffers::</text>
<text text-anchor="start" x="192" y="-181.5" font-family="Helvetica,sans-Serif" font-size="10.00">TextureProcessor::upload</text>
<text text-anchor="middle" x="253.5" y="-170.5" font-family="Helvetica,sans-Serif" font-size="10.00">_initial_pixels</text>
</a>
</g>
</g>
<!-- Node1&#45;&gt;Node13 -->
<g id="edge17_Node000001_Node000013" class="edge">
<title>Node1&#45;&gt;Node13</title>
<g id="a_edge17_Node000001_Node000013"><a xlink:title=" ">
<path fill="none" stroke="#63b8ff" d="M137.08,-145.64C151.35,-150.38 166.63,-155.46 181.26,-160.32"/>
<polygon fill="#63b8ff" stroke="#63b8ff" points="180.16,-163.64 190.75,-163.48 182.37,-157 180.16,-163.64"/>
</a>
</g>
</g>
<!-- Node3 -->
<g id="Node000003" class="node">
<title>Node3</title>
<g id="a_Node000003"><a xlink:href="namespaceMayaFlux_1_1Portal_1_1Graphics_a335ffb0c43b53ec263ab6559ac29476b.html#a335ffb0c43b53ec263ab6559ac29476b" target="_top" xlink:title="Get the global texture manager instance.">
<polygon fill="white" stroke="#666666" points="507,-188 359,-188 359,-158 507,-158 507,-188"/>
<text text-anchor="start" x="367" y="-176" font-family="Helvetica,sans-Serif" font-size="10.00">MayaFlux::Portal::Graphics</text>
<text text-anchor="middle" x="433" y="-165" font-family="Helvetica,sans-Serif" font-size="10.00">::get_texture_manager</text>
</a>
</g>
</g>
<!-- Node2&#45;&gt;Node3 -->
<g id="edge2_Node000002_Node000003" class="edge">
<title>Node2&#45;&gt;Node3</title>
<g id="a_edge2_Node000002_Node000003"><a xlink:title=" ">
<path fill="none" stroke="#63b8ff" d="M322.11,-143.28C336.68,-147.22 352.05,-151.38 366.54,-155.3"/>
<polygon fill="#63b8ff" stroke="#63b8ff" points="365.83,-158.73 376.4,-157.96 367.66,-151.98 365.83,-158.73"/>
</a>
</g>
</g>
<!-- Node4 -->
<g id="Node000004" class="node">
<title>Node4</title>
<g id="a_Node000004"><a xlink:href="classMayaFlux_1_1Portal_1_1Graphics_1_1TextureLoom_a6887ad297693c2392be7960daab06002.html#a6887ad297693c2392be7960daab06002" target="_top" xlink:title=" ">
<polygon fill="white" stroke="#666666" points="691,-188 543,-188 543,-158 691,-158 691,-188"/>
<text text-anchor="start" x="551" y="-176" font-family="Helvetica,sans-Serif" font-size="10.00">MayaFlux::Portal::Graphics</text>
<text text-anchor="middle" x="617" y="-165" font-family="Helvetica,sans-Serif" font-size="10.00">::TextureLoom::instance</text>
</a>
</g>
</g>
<!-- Node3&#45;&gt;Node4 -->
<g id="edge3_Node000003_Node000004" class="edge">
<title>Node3&#45;&gt;Node4</title>
<g id="a_edge3_Node000003_Node000004"><a xlink:title=" ">
<path fill="none" stroke="#63b8ff" d="M507.24,-173C515.6,-173 524.16,-173 532.64,-173"/>
<polygon fill="#63b8ff" stroke="#63b8ff" points="532.91,-176.5 542.91,-173 532.91,-169.5 532.91,-176.5"/>
</a>
</g>
</g>
<!-- Node6 -->
<g id="Node000006" class="node">
<title>Node6</title>
<g id="a_Node000006"><a xlink:href="namespaceMayaFlux_1_1Buffers_ae5e547b4f569572df2c1ad0a3d7a38eb.html#ae5e547b4f569572df2c1ad0a3d7a38eb" target="_top" xlink:title="Upload raw data to GPU buffer (auto&#45;detects host&#45;visible vs device&#45;local)">
<polygon fill="white" stroke="#666666" points="488.5,-81 377.5,-81 377.5,-51 488.5,-51 488.5,-81"/>
<text text-anchor="start" x="385.5" y="-69" font-family="Helvetica,sans-Serif" font-size="10.00">MayaFlux::Buffers::</text>
<text text-anchor="middle" x="433" y="-58" font-family="Helvetica,sans-Serif" font-size="10.00">upload_to_gpu</text>
</a>
</g>
</g>
<!-- Node5&#45;&gt;Node6 -->
<g id="edge5_Node000005_Node000006" class="edge">
<title>Node5&#45;&gt;Node6</title>
<g id="a_edge5_Node000005_Node000006"><a xlink:title=" ">
<path fill="none" stroke="#63b8ff" d="M323.13,-66C337.57,-66 352.77,-66 367.07,-66"/>
<polygon fill="#63b8ff" stroke="#63b8ff" points="367.3,-69.5 377.3,-66 367.3,-62.5 367.3,-69.5"/>
</a>
</g>
</g>
<!-- Node7 -->
<g id="Node000007" class="node">
<title>Node7</title>
<g id="a_Node000007"><a xlink:href="namespaceMayaFlux_1_1Buffers_a64c6abe8842e398d178e4275a4d4b404.html#a64c6abe8842e398d178e4275a4d4b404" target="_top" xlink:title="Create staging buffer for transfers.">
<polygon fill="white" stroke="#666666" points="678,-129 556,-129 556,-99 678,-99 678,-129"/>
<text text-anchor="start" x="564" y="-117" font-family="Helvetica,sans-Serif" font-size="10.00">MayaFlux::Buffers::</text>
<text text-anchor="middle" x="617" y="-106" font-family="Helvetica,sans-Serif" font-size="10.00">create_staging_buffer</text>
</a>
</g>
</g>
<!-- Node6&#45;&gt;Node7 -->
<g id="edge6_Node000006_Node000007" class="edge">
<title>Node6&#45;&gt;Node7</title>
<g id="a_edge6_Node000006_Node000007"><a xlink:title=" ">
<path fill="none" stroke="#63b8ff" d="M488.61,-80.4C507.6,-85.41 529.12,-91.09 548.99,-96.33"/>
<polygon fill="#63b8ff" stroke="#63b8ff" points="548.34,-99.78 558.91,-98.94 550.13,-93.01 548.34,-99.78"/>
</a>
</g>
</g>
<!-- Node10 -->
<g id="Node000010" class="node">
<title>Node10</title>
<g id="a_Node000010"><a xlink:href="namespaceMayaFlux_1_1Buffers_a31f5983628d43dc3c83257330c321cc6.html#a31f5983628d43dc3c83257330c321cc6" target="_top" xlink:title="Upload data to a device&#45;local buffer using a staging buffer.">
<polygon fill="white" stroke="#666666" points="675,-33 559,-33 559,-3 675,-3 675,-33"/>
<text text-anchor="start" x="567" y="-21" font-family="Helvetica,sans-Serif" font-size="10.00">MayaFlux::Buffers::</text>
<text text-anchor="middle" x="617" y="-10" font-family="Helvetica,sans-Serif" font-size="10.00">upload_device_local</text>
</a>
</g>
</g>
<!-- Node6&#45;&gt;Node10 -->
<g id="edge9_Node000006_Node000010" class="edge">
<title>Node6&#45;&gt;Node10</title>
<g id="a_edge9_Node000006_Node000010"><a xlink:title=" ">
<path fill="none" stroke="#63b8ff" d="M488.61,-51.6C507.6,-46.59 529.12,-40.91 548.99,-35.67"/>
<polygon fill="#63b8ff" stroke="#63b8ff" points="550.13,-38.99 558.91,-33.06 548.34,-32.22 550.13,-38.99"/>
</a>
</g>
</g>
<!-- Node12 -->
<g id="Node000012" class="node">
<title>Node12</title>
<g id="a_Node000012"><a xlink:href="namespaceMayaFlux_1_1Buffers_a0749e7edaf3b6ec8a02a107a4f5b3a5a.html#a0749e7edaf3b6ec8a02a107a4f5b3a5a" target="_top" xlink:title="Upload data to a host&#45;visible buffer.">
<polygon fill="white" stroke="#666666" points="673.5,-81 560.5,-81 560.5,-51 673.5,-51 673.5,-81"/>
<text text-anchor="start" x="568.5" y="-69" font-family="Helvetica,sans-Serif" font-size="10.00">MayaFlux::Buffers::</text>
<text text-anchor="middle" x="617" y="-58" font-family="Helvetica,sans-Serif" font-size="10.00">upload_host_visible</text>
</a>
</g>
</g>
<!-- Node6&#45;&gt;Node12 -->
<g id="edge13_Node000006_Node000012" class="edge">
<title>Node6&#45;&gt;Node12</title>
<g id="a_edge13_Node000006_Node000012"><a xlink:title=" ">
<path fill="none" stroke="#63b8ff" d="M488.61,-66C508.04,-66 530.13,-66 550.4,-66"/>
<polygon fill="#63b8ff" stroke="#63b8ff" points="550.49,-69.5 560.49,-66 550.49,-62.5 550.49,-69.5"/>
</a>
</g>
</g>
<!-- Node8 -->
<g id="Node000008" class="node">
<title>Node8</title>
<g id="a_Node000008"><a xlink:href="classMayaFlux_1_1Registry_1_1BackendRegistry_a0c7a59c0847791ed0915dcd64e8df783.html#a0c7a59c0847791ed0915dcd64e8df783" target="_top" xlink:title="Query for a backend service.">
<polygon fill="white" stroke="#666666" points="865,-137.5 740,-137.5 740,-96.5 865,-96.5 865,-137.5"/>
<text text-anchor="start" x="748" y="-125.5" font-family="Helvetica,sans-Serif" font-size="10.00">MayaFlux::Registry</text>
<text text-anchor="start" x="748" y="-114.5" font-family="Helvetica,sans-Serif" font-size="10.00">::BackendRegistry::get</text>
<text text-anchor="middle" x="802.5" y="-103.5" font-family="Helvetica,sans-Serif" font-size="10.00">_service</text>
</a>
</g>
</g>
<!-- Node7&#45;&gt;Node8 -->
<g id="edge7_Node000007_Node000008" class="edge">
<title>Node7&#45;&gt;Node8</title>
<g id="a_edge7_Node000007_Node000008"><a xlink:title=" ">
<path fill="none" stroke="#63b8ff" d="M678.08,-114.98C694.44,-115.25 712.34,-115.54 729.29,-115.82"/>
<polygon fill="#63b8ff" stroke="#63b8ff" points="729.65,-119.33 739.71,-115.99 729.77,-112.33 729.65,-119.33"/>
</a>
</g>
</g>
<!-- Node9 -->
<g id="Node000009" class="node">
<title>Node9</title>
<g id="a_Node000009"><a xlink:href="classMayaFlux_1_1Registry_1_1BackendRegistry_aa28c6f5592e5893508bafb62aefcc496.html#aa28c6f5592e5893508bafb62aefcc496" target="_top" xlink:title="Get the global registry instance.">
<polygon fill="white" stroke="#666666" points="878,-78 727,-78 727,-48 878,-48 878,-78"/>
<text text-anchor="start" x="735" y="-66" font-family="Helvetica,sans-Serif" font-size="10.00">MayaFlux::Registry</text>
<text text-anchor="middle" x="802.5" y="-55" font-family="Helvetica,sans-Serif" font-size="10.00">::BackendRegistry::instance</text>
</a>
</g>
</g>
<!-- Node7&#45;&gt;Node9 -->
<g id="edge8_Node000007_Node000009" class="edge">
<title>Node7&#45;&gt;Node9</title>
<g id="a_edge8_Node000007_Node000009"><a xlink:title=" ">
<path fill="none" stroke="#63b8ff" d="M672.06,-98.97C692.69,-93.24 716.39,-86.65 737.83,-80.69"/>
<polygon fill="#63b8ff" stroke="#63b8ff" points="738.81,-84.06 747.51,-78.01 736.93,-77.31 738.81,-84.06"/>
</a>
</g>
</g>
<!-- Node10&#45;&gt;Node8 -->
<g id="edge10_Node000010_Node000008" class="edge">
<title>Node10&#45;&gt;Node8</title>
<g id="a_edge10_Node000010_Node000008"><a xlink:title=" ">
<path fill="none" stroke="#63b8ff" d="M674.98,-33.06C680.62,-35.61 686.07,-38.58 691,-42 712.04,-56.61 706.45,-71.72 727,-87 729.06,-88.53 731.2,-89.99 733.41,-91.39"/>
<polygon fill="#63b8ff" stroke="#63b8ff" points="731.8,-94.51 742.21,-96.48 735.31,-88.45 731.8,-94.51"/>
</a>
</g>
</g>
<!-- Node10&#45;&gt;Node9 -->
<g id="edge12_Node000010_Node000009" class="edge">
<title>Node10&#45;&gt;Node9</title>
<g id="a_edge12_Node000010_Node000009"><a xlink:title=" ">
<path fill="none" stroke="#63b8ff" d="M675.05,-31.99C692.53,-36.28 711.98,-41.05 730.28,-45.54"/>
<polygon fill="#63b8ff" stroke="#63b8ff" points="729.48,-48.94 740.02,-47.92 731.14,-42.14 729.48,-48.94"/>
</a>
</g>
</g>
<!-- Node11 -->
<g id="Node000011" class="node">
<title>Node11</title>
<g id="a_Node000011"><a xlink:href="classMayaFlux_1_1Kakshya_1_1DataAccess_a7893291a314cd16a4086b4af5547be3b.html#a7893291a314cd16a4086b4af5547be3b" target="_top" xlink:title="Get raw buffer info for GPU upload.">
<polygon fill="white" stroke="#666666" points="868,-30 737,-30 737,0 868,0 868,-30"/>
<text text-anchor="start" x="745" y="-18" font-family="Helvetica,sans-Serif" font-size="10.00">MayaFlux::Kakshya::</text>
<text text-anchor="middle" x="802.5" y="-7" font-family="Helvetica,sans-Serif" font-size="10.00">DataAccess::gpu_buffer</text>
</a>
</g>
</g>
<!-- Node10&#45;&gt;Node11 -->
<g id="edge11_Node000010_Node000011" class="edge">
<title>Node10&#45;&gt;Node11</title>
<g id="a_edge11_Node000010_Node000011"><a xlink:title=" ">
<path fill="none" stroke="#63b8ff" d="M675.05,-17.07C691.41,-16.8 709.5,-16.5 726.75,-16.22"/>
<polygon fill="#63b8ff" stroke="#63b8ff" points="726.85,-19.72 736.79,-16.06 726.74,-12.72 726.85,-19.72"/>
</a>
</g>
</g>
<!-- Node12&#45;&gt;Node8 -->
<g id="edge14_Node000012_Node000008" class="edge">
<title>Node12&#45;&gt;Node8</title>
<g id="a_edge14_Node000012_Node000008"><a xlink:title=" ">
<path fill="none" stroke="#63b8ff" d="M672.06,-81.03C690.24,-86.08 710.81,-91.79 730.11,-97.16"/>
<polygon fill="#63b8ff" stroke="#63b8ff" points="729.19,-100.54 739.77,-99.84 731.07,-93.79 729.19,-100.54"/>
</a>
</g>
</g>
<!-- Node12&#45;&gt;Node9 -->
<g id="edge16_Node000012_Node000009" class="edge">
<title>Node12&#45;&gt;Node9</title>
<g id="a_edge16_Node000012_Node000009"><a xlink:title=" ">
<path fill="none" stroke="#63b8ff" d="M673.55,-65.09C687.18,-64.87 702.08,-64.63 716.73,-64.39"/>
<polygon fill="#63b8ff" stroke="#63b8ff" points="716.88,-67.88 726.83,-64.22 716.77,-60.88 716.88,-67.88"/>
</a>
</g>
</g>
<!-- Node12&#45;&gt;Node11 -->
<g id="edge15_Node000012_Node000011" class="edge">
<title>Node12&#45;&gt;Node11</title>
<g id="a_edge15_Node000012_Node000011"><a xlink:title=" ">
<path fill="none" stroke="#63b8ff" d="M672.06,-50.97C692.69,-45.24 716.39,-38.65 737.83,-32.69"/>
<polygon fill="#63b8ff" stroke="#63b8ff" points="738.81,-36.06 747.51,-30.01 736.93,-29.31 738.81,-36.06"/>
</a>
</g>
</g>
<!-- Node13&#45;&gt;Node3 -->
<g id="edge18_Node000013_Node000003" class="edge">
<title>Node13&#45;&gt;Node3</title>
<g id="a_edge18_Node000013_Node000003"><a xlink:title=" ">
<path fill="none" stroke="#63b8ff" d="M323.13,-179.75C331.54,-179.23 340.21,-178.69 348.81,-178.16"/>
<polygon fill="#63b8ff" stroke="#63b8ff" points="349.09,-181.65 358.85,-177.53 348.65,-174.66 349.09,-181.65"/>
</a>
</g>
</g>
</g>
</svg>

<g id="navigator" transform="translate(0 0)" fill="#404254">
  <rect fill="#f2f5e9" fill-opacity="0.5" stroke="#606060" stroke-width=".5" x="0" y="0" width="60" height="60"/>
  <use id="zoomplus" xlink:href="#zoomPlus" x="17" y="9" onmousedown="handleZoom(evt,'in')"/>
  <use id="zoomminus" xlink:href="#zoomMin" x="42" y="9" onmousedown="handleZoom(evt,'out')"/>
  <use id="reset" xlink:href="#resetDef" x="30" y="36" onmousedown="handleReset()"/>
   <use id="arrowup" xlink:href="#arrowUp" x="0" y="0" onmousedown="handlePan(0,-1)"/>
  <use id="arrowright" xlink:href="#arrowRight" x="0" y="0" onmousedown="handlePan(1,0)"/>
  <use id="arrowdown" xlink:href="#arrowDown" x="0" y="0" onmousedown="handlePan(0,1)"/>
  <use id="arrowleft" xlink:href="#arrowLeft" x="0" y="0" onmousedown="handlePan(-1,0)"/>
</g>
<svg viewBox="0 0 15 15" width="100%" height="30px" preserveAspectRatio="xMaxYMin meet">
 <g id="arrow_out" transform="scale(0.3 0.3)">
  <a xlink:href="classMayaFlux_1_1Buffers_1_1TextureProcessor_a7c8aaf1c16e1ed32a4900fb0e1d10d8f_a7c8aaf1c16e1ed32a4900fb0e1d10d8f_cgraph_org.svg" target="_base">
   <rect id="button" ry="5" rx="5" y="6" x="6" height="38" width="38"
        fill="#f2f5e9" fill-opacity="0.5" stroke="#606060" stroke-width="1.0"/>
   <path id="arrow"
     d="M 11.500037,31.436501 C 11.940474,20.09759 22.043105,11.32322 32.158766,21.979434 L 37.068811,17.246167 C 37.068811,17.246167 37.088388,32 37.088388,32 L 22.160133,31.978069 C 22.160133,31.978069 26.997745,27.140456 26.997745,27.140456 C 18.528582,18.264221 13.291696,25.230495 11.500037,31.436501 z"
     style="fill:#404040;"/>
  </a>
 </g>
</svg>

<style type='text/css'>
<![CDATA[
[data-mouse-over-selected='false'] { opacity: 0.7; }
[data-mouse-over-selected='true']  { opacity: 1.0; }
]]>
</style>
<script type="application/ecmascript"><![CDATA[
document.addEventListener('DOMContentLoaded', (event) => {
  highlightEdges();
  highlightAdjacentNodes();
});
]]></script>
</svg>
