<?xml version="1.0" encoding="UTF-8" standalone="no"?>
<!DOCTYPE svg PUBLIC "-//W3C//DTD SVG 1.1//EN"
 "http://www.w3.org/Graphics/SVG/1.1/DTD/svg11.dtd">
<!-- Generated by graphviz version 2.43.0 (0)
 -->
<!-- Title: MayaFlux::Portal::Graphics::RenderFlow::instance Pages: 1 -->
<!--zoomable 425 -->

<svg id="main" version="1.1" xmlns="http://www.w3.org/2000/svg" xmlns:xlink="http://www.w3.org/1999/xlink" xml:space="preserve" onload="init(evt)">
<style type="text/css"><![CDATA[
.node, .edge {opacity: 0.7;}
.node.selected, .edge.selected {opacity: 1;}
.edge:hover path { stroke: red; }
.edge:hover polygon { stroke: red; fill: red; }
]]></style>

<defs>
  <circle id="rim" cx="0" cy="0" r="7"/>
  <circle id="rim2" cx="0" cy="0" r="3.5"/>
  <g id="zoomPlus">
    <use xlink:href="#rim" fill="#404040"><set attributeName="fill" to="#808080" begin="zoomplus.mouseover" end="zoomplus.mouseout"/></use>
    <path d="M-4,0h8M0,-4v8" fill="none" stroke="white" stroke-width="1.5" pointer-events="none"/>
  </g>
  <g id="zoomMin">
    <use xlink:href="#rim" fill="#404040"><set attributeName="fill" to="#808080" begin="zoomminus.mouseover" end="zoomminus.mouseout"/></use>
    <path d="M-4,0h8" fill="none" stroke="white" stroke-width="1.5" pointer-events="none"/>
  </g>
  <g id="arrowUp" transform="translate(30 24)">
    <use xlink:href="#rim"/>
    <path pointer-events="none" fill="none" stroke="white" stroke-width="1.5" d="M0,-3.0v7 M-2.5,-0.5L0,-3.0L2.5,-0.5"/>
  </g>
  <g id="arrowRight" transform="rotate(90) translate(36 -43)">
    <use xlink:href="#rim"/>
    <path pointer-events="none" fill="none" stroke="white" stroke-width="1.5" d="M0,-3.0v7 M-2.5,-0.5L0,-3.0L2.5,-0.5"/>
  </g>
  <g id="arrowDown" transform="rotate(180) translate(-30 -48)">
    <use xlink:href="#rim"/>
    <path pointer-events="none" fill="none" stroke="white" stroke-width="1.5" d="M0,-3.0v7 M-2.5,-0.5L0,-3.0L2.5,-0.5"/>
  </g>
  <g id="arrowLeft" transform="rotate(270) translate(-36 17)">
    <use xlink:href="#rim"/>
    <path pointer-events="none" fill="none" stroke="white" stroke-width="1.5" d="M0,-3.0v7 M-2.5,-0.5L0,-3.0L2.5,-0.5"/>
  </g>
  <g id="resetDef">
    <use xlink:href="#rim2" fill="#404040"><set attributeName="fill" to="#808080" begin="reset.mouseover" end="reset.mouseout"/></use>
  </g>
</defs>
<script type="application/ecmascript">
var viewWidth = 740;
var viewHeight = 425;
var sectionId = 'dynsection-0';
</script>
<script type="application/ecmascript" xlink:href="svg.min.js"/>
<svg id="graph" class="graph">
<g id="viewport">
<title>MayaFlux::Portal::Graphics::RenderFlow::instance</title>
<!-- Node1 -->
<g id="Node000001" class="node">
<title>Node1</title>
<g id="a_Node000001"><a xlink:title=" ">
<polygon fill="#999999" stroke="#666666" points="732,-103 584,-103 584,-73 732,-73 732,-103"/>
<text text-anchor="start" x="592" y="-91" font-family="Helvetica,sans-Serif" font-size="10.00">MayaFlux::Portal::Graphics</text>
<text text-anchor="middle" x="658" y="-80" font-family="Helvetica,sans-Serif" font-size="10.00">::RenderFlow::instance</text>
</a>
</g>
</g>
<!-- Node2 -->
<g id="Node000002" class="node">
<title>Node2</title>
<g id="a_Node000002"><a xlink:href="namespaceMayaFlux_1_1Portal_1_1Graphics_a54c4e0f2eb44a261d8463e8423e3746d.html#a54c4e0f2eb44a261d8463e8423e3746d" target="_top" xlink:title="Get the global render flow instance.">
<polygon fill="white" stroke="#666666" points="548,-274 400,-274 400,-244 548,-244 548,-274"/>
<text text-anchor="start" x="408" y="-262" font-family="Helvetica,sans-Serif" font-size="10.00">MayaFlux::Portal::Graphics</text>
<text text-anchor="middle" x="474" y="-251" font-family="Helvetica,sans-Serif" font-size="10.00">::get_render_flow</text>
</a>
</g>
</g>
<!-- Node1&#45;&gt;Node2 -->
<g id="edge1_Node000001_Node000002" class="edge">
<title>Node1&#45;&gt;Node2</title>
<g id="a_edge1_Node000001_Node000002"><a xlink:title=" ">
<path fill="none" stroke="#63b8ff" d="M633.38,-110.19C595.8,-145.5 523.33,-213.59 491.12,-243.86"/>
<polygon fill="#63b8ff" stroke="#63b8ff" points="635.96,-112.57 640.85,-103.18 631.16,-107.47 635.96,-112.57"/>
</a>
</g>
</g>
<!-- Node9 -->
<g id="Node000009" class="node">
<title>Node9</title>
<g id="a_Node000009"><a xlink:href="namespaceMayaFlux_1_1Portal_1_1Graphics_ac663547dd9fc85f307003370fdf087a3.html#ac663547dd9fc85f307003370fdf087a3" target="_top" xlink:title="Initialize Portal::Graphics Glue Layer.">
<polygon fill="white" stroke="#666666" points="548,-127 400,-127 400,-97 548,-97 548,-127"/>
<text text-anchor="start" x="408" y="-115" font-family="Helvetica,sans-Serif" font-size="10.00">MayaFlux::Portal::Graphics</text>
<text text-anchor="middle" x="474" y="-104" font-family="Helvetica,sans-Serif" font-size="10.00">::initialize</text>
</a>
</g>
</g>
<!-- Node1&#45;&gt;Node9 -->
<g id="edge8_Node000001_Node000009" class="edge">
<title>Node1&#45;&gt;Node9</title>
<g id="a_edge8_Node000001_Node000009"><a xlink:title=" ">
<path fill="none" stroke="#63b8ff" d="M573.76,-98.98C565.2,-100.11 556.54,-101.25 548.09,-102.36"/>
<polygon fill="#63b8ff" stroke="#63b8ff" points="574.3,-102.44 583.76,-97.66 573.39,-95.5 574.3,-102.44"/>
</a>
</g>
</g>
<!-- Node12 -->
<g id="Node000012" class="node">
<title>Node12</title>
<g id="a_Node000012"><a xlink:href="namespaceMayaFlux_1_1Portal_1_1Graphics_a3889f398a94af104f9e3d00b1d059006.html#a3889f398a94af104f9e3d00b1d059006" target="_top" xlink:title="Shutdown Portal::Graphics subsystem.">
<polygon fill="white" stroke="#666666" points="548,-79 400,-79 400,-49 548,-49 548,-79"/>
<text text-anchor="start" x="408" y="-67" font-family="Helvetica,sans-Serif" font-size="10.00">MayaFlux::Portal::Graphics</text>
<text text-anchor="middle" x="474" y="-56" font-family="Helvetica,sans-Serif" font-size="10.00">::shutdown</text>
</a>
</g>
</g>
<!-- Node1&#45;&gt;Node12 -->
<g id="edge11_Node000001_Node000012" class="edge">
<title>Node1&#45;&gt;Node12</title>
<g id="a_edge11_Node000001_Node000012"><a xlink:title=" ">
<path fill="none" stroke="#63b8ff" d="M573.76,-77.02C565.2,-75.89 556.54,-74.75 548.09,-73.64"/>
<polygon fill="#63b8ff" stroke="#63b8ff" points="573.39,-80.5 583.76,-78.34 574.3,-73.56 573.39,-80.5"/>
</a>
</g>
</g>
<!-- Node14 -->
<g id="Node000014" class="node">
<title>Node14</title>
<g id="a_Node000014"><a xlink:href="namespaceMayaFlux_1_1Portal_1_1Graphics_a13c39b9130452b3f5cb320082881b3fa.html#a13c39b9130452b3f5cb320082881b3fa" target="_top" xlink:title="Stop all Portal::Graphics operations.">
<polygon fill="white" stroke="#666666" points="548,-31 400,-31 400,-1 548,-1 548,-31"/>
<text text-anchor="start" x="408" y="-19" font-family="Helvetica,sans-Serif" font-size="10.00">MayaFlux::Portal::Graphics</text>
<text text-anchor="middle" x="474" y="-8" font-family="Helvetica,sans-Serif" font-size="10.00">::stop</text>
</a>
</g>
</g>
<!-- Node1&#45;&gt;Node14 -->
<g id="edge13_Node000001_Node000014" class="edge">
<title>Node1&#45;&gt;Node14</title>
<g id="a_edge13_Node000001_Node000014"><a xlink:title=" ">
<path fill="none" stroke="#63b8ff" d="M615.68,-68.67C595.47,-59.51 570.67,-48.69 548,-40 540.03,-36.94 531.48,-33.91 523.14,-31.09"/>
<polygon fill="#63b8ff" stroke="#63b8ff" points="614.36,-71.92 624.91,-72.88 617.27,-65.55 614.36,-71.92"/>
</a>
</g>
</g>
<!-- Node3 -->
<g id="Node000003" class="node">
<title>Node3</title>
<g id="a_Node000003"><a xlink:href="classMayaFlux_1_1Buffers_1_1RenderProcessor_a3498377e5d02f243e29f4b28e358733c.html#a3498377e5d02f243e29f4b28e358733c" target="_top" xlink:title=" ">
<polygon fill="white" stroke="#666666" points="362.5,-417 219.5,-417 219.5,-387 362.5,-387 362.5,-417"/>
<text text-anchor="start" x="227.5" y="-405" font-family="Helvetica,sans-Serif" font-size="10.00">MayaFlux::Buffers::</text>
<text text-anchor="middle" x="291" y="-394" font-family="Helvetica,sans-Serif" font-size="10.00">RenderProcessor::cleanup</text>
</a>
</g>
</g>
<!-- Node2&#45;&gt;Node3 -->
<g id="edge2_Node000002_Node000003" class="edge">
<title>Node2&#45;&gt;Node3</title>
<g id="a_edge2_Node000002_Node000003"><a xlink:title=" ">
<path fill="none" stroke="#63b8ff" d="M457.22,-282.43C438.09,-309.14 403.49,-352.38 364,-378 358.8,-381.37 353.09,-384.31 347.22,-386.87"/>
<polygon fill="#63b8ff" stroke="#63b8ff" points="460.21,-284.26 463.09,-274.06 454.48,-280.23 460.21,-284.26"/>
</a>
</g>
</g>
<!-- Node4 -->
<g id="Node000004" class="node">
<title>Node4</title>
<g id="a_Node000004"><a xlink:href="classMayaFlux_1_1Buffers_1_1RenderProcessor_acd3ee18a43b25af2aa06f17efacd6c5f.html#acd3ee18a43b25af2aa06f17efacd6c5f" target="_top" xlink:title=" ">
<polygon fill="white" stroke="#666666" points="362.5,-368.5 219.5,-368.5 219.5,-327.5 362.5,-327.5 362.5,-368.5"/>
<text text-anchor="start" x="227.5" y="-356.5" font-family="Helvetica,sans-Serif" font-size="10.00">MayaFlux::Buffers::</text>
<text text-anchor="start" x="227.5" y="-345.5" font-family="Helvetica,sans-Serif" font-size="10.00">RenderProcessor::execute</text>
<text text-anchor="middle" x="291" y="-334.5" font-family="Helvetica,sans-Serif" font-size="10.00">_shader</text>
</a>
</g>
</g>
<!-- Node2&#45;&gt;Node4 -->
<g id="edge3_Node000002_Node000004" class="edge">
<title>Node2&#45;&gt;Node4</title>
<g id="a_edge3_Node000002_Node000004"><a xlink:title=" ">
<path fill="none" stroke="#63b8ff" d="M438.54,-279.36C417.37,-291.52 389.5,-306.9 364,-319 357.91,-321.89 351.46,-324.75 345.01,-327.5"/>
<polygon fill="#63b8ff" stroke="#63b8ff" points="440.56,-282.23 447.47,-274.2 437.06,-276.17 440.56,-282.23"/>
</a>
</g>
</g>
<!-- Node5 -->
<g id="Node000005" class="node">
<title>Node5</title>
<g id="a_Node000005"><a xlink:href="classMayaFlux_1_1Buffers_1_1PresentProcessor_a6212541d4b11fad6638fe5117e8361c5.html#a6212541d4b11fad6638fe5117e8361c5" target="_top" xlink:title=" ">
<polygon fill="white" stroke="#666666" points="364,-309.5 218,-309.5 218,-268.5 364,-268.5 364,-309.5"/>
<text text-anchor="start" x="226" y="-297.5" font-family="Helvetica,sans-Serif" font-size="10.00">MayaFlux::Buffers::</text>
<text text-anchor="start" x="226" y="-286.5" font-family="Helvetica,sans-Serif" font-size="10.00">PresentProcessor::fallback</text>
<text text-anchor="middle" x="291" y="-275.5" font-family="Helvetica,sans-Serif" font-size="10.00">_renderer</text>
</a>
</g>
</g>
<!-- Node2&#45;&gt;Node5 -->
<g id="edge4_Node000002_Node000005" class="edge">
<title>Node2&#45;&gt;Node5</title>
<g id="a_edge4_Node000002_Node000005"><a xlink:title=" ">
<path fill="none" stroke="#63b8ff" d="M389.89,-272.78C381.31,-274.2 372.64,-275.63 364.19,-277.03"/>
<polygon fill="#63b8ff" stroke="#63b8ff" points="390.61,-276.2 399.9,-271.12 389.46,-269.3 390.61,-276.2"/>
</a>
</g>
</g>
<!-- Node7 -->
<g id="Node000007" class="node">
<title>Node7</title>
<g id="a_Node000007"><a xlink:href="classMayaFlux_1_1Buffers_1_1RenderProcessor_a890135d823fb945281a666474fa18c6b.html#a890135d823fb945281a666474fa18c6b" target="_top" xlink:title=" ">
<polygon fill="white" stroke="#666666" points="364,-250.5 218,-250.5 218,-209.5 364,-209.5 364,-250.5"/>
<text text-anchor="start" x="226" y="-238.5" font-family="Helvetica,sans-Serif" font-size="10.00">MayaFlux::Buffers::</text>
<text text-anchor="start" x="226" y="-227.5" font-family="Helvetica,sans-Serif" font-size="10.00">RenderProcessor::initialize</text>
<text text-anchor="middle" x="291" y="-216.5" font-family="Helvetica,sans-Serif" font-size="10.00">_descriptors</text>
</a>
</g>
</g>
<!-- Node2&#45;&gt;Node7 -->
<g id="edge6_Node000002_Node000007" class="edge">
<title>Node2&#45;&gt;Node7</title>
<g id="a_edge6_Node000002_Node000007"><a xlink:title=" ">
<path fill="none" stroke="#63b8ff" d="M389.89,-245.68C381.31,-244.31 372.64,-242.92 364.19,-241.57"/>
<polygon fill="#63b8ff" stroke="#63b8ff" points="389.47,-249.16 399.9,-247.29 390.58,-242.25 389.47,-249.16"/>
</a>
</g>
</g>
<!-- Node8 -->
<g id="Node000008" class="node">
<title>Node8</title>
<g id="a_Node000008"><a xlink:href="classMayaFlux_1_1Buffers_1_1RenderProcessor_a8dffa1bdec232f8a9c7b39ce9a9f78bb.html#a8dffa1bdec232f8a9c7b39ce9a9f78bb" target="_top" xlink:title=" ">
<polygon fill="white" stroke="#666666" points="364,-191.5 218,-191.5 218,-150.5 364,-150.5 364,-191.5"/>
<text text-anchor="start" x="226" y="-179.5" font-family="Helvetica,sans-Serif" font-size="10.00">MayaFlux::Buffers::</text>
<text text-anchor="start" x="226" y="-168.5" font-family="Helvetica,sans-Serif" font-size="10.00">RenderProcessor::initialize</text>
<text text-anchor="middle" x="291" y="-157.5" font-family="Helvetica,sans-Serif" font-size="10.00">_pipeline</text>
</a>
</g>
</g>
<!-- Node2&#45;&gt;Node8 -->
<g id="edge7_Node000002_Node000008" class="edge">
<title>Node2&#45;&gt;Node8</title>
<g id="a_edge7_Node000002_Node000008"><a xlink:title=" ">
<path fill="none" stroke="#63b8ff" d="M437.56,-239.05C416.44,-227.44 388.98,-212.82 364,-201 357.27,-197.81 350.1,-194.61 343.01,-191.55"/>
<polygon fill="#63b8ff" stroke="#63b8ff" points="436.04,-242.21 446.48,-243.99 439.42,-236.08 436.04,-242.21"/>
</a>
</g>
</g>
<!-- Node6 -->
<g id="Node000006" class="node">
<title>Node6</title>
<g id="a_Node000006"><a xlink:href="classMayaFlux_1_1Buffers_1_1PresentProcessor_a22d8a0b8420935561a87ea6c698483ae.html#a22d8a0b8420935561a87ea6c698483ae" target="_top" xlink:title="Executes the render callback.">
<polygon fill="white" stroke="#666666" points="170.5,-309.5 11.5,-309.5 11.5,-268.5 170.5,-268.5 170.5,-309.5"/>
<text text-anchor="start" x="19.5" y="-297.5" font-family="Helvetica,sans-Serif" font-size="10.00">MayaFlux::Buffers::</text>
<text text-anchor="start" x="19.5" y="-286.5" font-family="Helvetica,sans-Serif" font-size="10.00">PresentProcessor::processing</text>
<text text-anchor="middle" x="91" y="-275.5" font-family="Helvetica,sans-Serif" font-size="10.00">_function</text>
</a>
</g>
</g>
<!-- Node5&#45;&gt;Node6 -->
<g id="edge5_Node000005_Node000006" class="edge">
<title>Node5&#45;&gt;Node6</title>
<g id="a_edge5_Node000005_Node000006"><a xlink:title=" ">
<path fill="none" stroke="#63b8ff" d="M207.75,-289C195.49,-289 182.87,-289 170.68,-289"/>
<polygon fill="#63b8ff" stroke="#63b8ff" points="207.96,-292.5 217.96,-289 207.96,-285.5 207.96,-292.5"/>
</a>
</g>
</g>
<!-- Node10 -->
<g id="Node000010" class="node">
<title>Node10</title>
<g id="a_Node000010"><a xlink:href="classMayaFlux_1_1Core_1_1GraphicsSubsystem_a25611dc038e2fa775987e640a7826262.html#a25611dc038e2fa775987e640a7826262" target="_top" xlink:title="Initialize Portal::Graphics subsystem.">
<polygon fill="white" stroke="#666666" points="362,-132.5 220,-132.5 220,-91.5 362,-91.5 362,-132.5"/>
<text text-anchor="start" x="228" y="-120.5" font-family="Helvetica,sans-Serif" font-size="10.00">MayaFlux::Core::Graphics</text>
<text text-anchor="start" x="228" y="-109.5" font-family="Helvetica,sans-Serif" font-size="10.00">Subsystem::initialize</text>
<text text-anchor="middle" x="291" y="-98.5" font-family="Helvetica,sans-Serif" font-size="10.00">_graphics_portal</text>
</a>
</g>
</g>
<!-- Node9&#45;&gt;Node10 -->
<g id="edge9_Node000009_Node000010" class="edge">
<title>Node9&#45;&gt;Node10</title>
<g id="a_edge9_Node000009_Node000010"><a xlink:title=" ">
<path fill="none" stroke="#63b8ff" d="M389.89,-112C380.62,-112 371.23,-112 362.14,-112"/>
<polygon fill="#63b8ff" stroke="#63b8ff" points="389.9,-115.5 399.9,-112 389.9,-108.5 389.9,-115.5"/>
</a>
</g>
</g>
<!-- Node11 -->
<g id="Node000011" class="node">
<title>Node11</title>
<g id="a_Node000011"><a xlink:href="classMayaFlux_1_1Core_1_1GraphicsSubsystem_a1278000eee96b8f7c3cefbe13f7f91a9.html#a1278000eee96b8f7c3cefbe13f7f91a9" target="_top" xlink:title="Initialize with graphics configuration.">
<polygon fill="white" stroke="#666666" points="162,-127 20,-127 20,-97 162,-97 162,-127"/>
<text text-anchor="start" x="28" y="-115" font-family="Helvetica,sans-Serif" font-size="10.00">MayaFlux::Core::Graphics</text>
<text text-anchor="middle" x="91" y="-104" font-family="Helvetica,sans-Serif" font-size="10.00">Subsystem::initialize</text>
</a>
</g>
</g>
<!-- Node10&#45;&gt;Node11 -->
<g id="edge10_Node000010_Node000011" class="edge">
<title>Node10&#45;&gt;Node11</title>
<g id="a_edge10_Node000010_Node000011"><a xlink:title=" ">
<path fill="none" stroke="#63b8ff" d="M209.71,-112C194.01,-112 177.67,-112 162.33,-112"/>
<polygon fill="#63b8ff" stroke="#63b8ff" points="209.91,-115.5 219.91,-112 209.91,-108.5 209.91,-115.5"/>
</a>
</g>
</g>
<!-- Node13 -->
<g id="Node000013" class="node">
<title>Node13</title>
<g id="a_Node000013"><a xlink:href="classMayaFlux_1_1Core_1_1GraphicsSubsystem_add3c53f617b297ce6b56ee3109fb931e.html#add3c53f617b297ce6b56ee3109fb931e" target="_top" xlink:title="Shutdown and cleanup subsystem resources.">
<polygon fill="white" stroke="#666666" points="162,-78 20,-78 20,-48 162,-48 162,-78"/>
<text text-anchor="start" x="28" y="-66" font-family="Helvetica,sans-Serif" font-size="10.00">MayaFlux::Core::Graphics</text>
<text text-anchor="middle" x="91" y="-55" font-family="Helvetica,sans-Serif" font-size="10.00">Subsystem::shutdown</text>
</a>
</g>
</g>
<!-- Node12&#45;&gt;Node13 -->
<g id="edge12_Node000012_Node000013" class="edge">
<title>Node12&#45;&gt;Node13</title>
<g id="a_edge12_Node000012_Node000013"><a xlink:title=" ">
<path fill="none" stroke="#63b8ff" d="M389.73,-63.78C321.64,-63.6 226.45,-63.35 162.19,-63.18"/>
<polygon fill="#63b8ff" stroke="#63b8ff" points="389.98,-67.28 399.99,-63.81 390,-60.28 389.98,-67.28"/>
</a>
</g>
</g>
<!-- Node15 -->
<g id="Node000015" class="node">
<title>Node15</title>
<g id="a_Node000015"><a xlink:href="classMayaFlux_1_1Core_1_1GraphicsSubsystem_acc5c12947dbc44adb045c15c8471cb12.html#acc5c12947dbc44adb045c15c8471cb12" target="_top" xlink:title="Stop the subsystem&#39;s processing/event loops.">
<polygon fill="white" stroke="#666666" points="362,-31 220,-31 220,-1 362,-1 362,-31"/>
<text text-anchor="start" x="228" y="-19" font-family="Helvetica,sans-Serif" font-size="10.00">MayaFlux::Core::Graphics</text>
<text text-anchor="middle" x="291" y="-8" font-family="Helvetica,sans-Serif" font-size="10.00">Subsystem::stop</text>
</a>
</g>
</g>
<!-- Node14&#45;&gt;Node15 -->
<g id="edge14_Node000014_Node000015" class="edge">
<title>Node14&#45;&gt;Node15</title>
<g id="a_edge14_Node000014_Node000015"><a xlink:title=" ">
<path fill="none" stroke="#63b8ff" d="M389.89,-16C380.62,-16 371.23,-16 362.14,-16"/>
<polygon fill="#63b8ff" stroke="#63b8ff" points="389.9,-19.5 399.9,-16 389.9,-12.5 389.9,-19.5"/>
</a>
</g>
</g>
<!-- Node15&#45;&gt;Node13 -->
<g id="edge15_Node000015_Node000013" class="edge">
<title>Node15&#45;&gt;Node13</title>
<g id="a_edge15_Node000015_Node000013"><a xlink:title=" ">
<path fill="none" stroke="#63b8ff" d="M217,-33.33C196.75,-38.14 174.92,-43.32 155.27,-47.98"/>
<polygon fill="#63b8ff" stroke="#63b8ff" points="217.89,-36.72 226.81,-31 216.27,-29.9 217.89,-36.72"/>
</a>
</g>
</g>
<!-- Node16 -->
<g id="Node000016" class="node">
<title>Node16</title>
<g id="a_Node000016"><a xlink:href="classMayaFlux_1_1Core_1_1GraphicsSubsystem_a8edbb4e731ea5677f47b9de8cc583bcb.html#a8edbb4e731ea5677f47b9de8cc583bcb" target="_top" xlink:title=" ">
<polygon fill="white" stroke="#666666" points="182,-30 0,-30 0,0 182,0 182,-30"/>
<text text-anchor="start" x="8" y="-18" font-family="Helvetica,sans-Serif" font-size="10.00">MayaFlux::Core::Graphics</text>
<text text-anchor="middle" x="91" y="-7" font-family="Helvetica,sans-Serif" font-size="10.00">Subsystem::~GraphicsSubsystem</text>
</a>
</g>
</g>
<!-- Node15&#45;&gt;Node16 -->
<g id="edge16_Node000015_Node000016" class="edge">
<title>Node15&#45;&gt;Node16</title>
<g id="a_edge16_Node000015_Node000016"><a xlink:title=" ">
<path fill="none" stroke="#63b8ff" d="M209.75,-15.59C200.65,-15.55 191.32,-15.5 182.11,-15.46"/>
<polygon fill="#63b8ff" stroke="#63b8ff" points="209.9,-19.1 219.91,-15.65 209.93,-12.1 209.9,-19.1"/>
</a>
</g>
</g>
</g>
</svg>

<g id="navigator" transform="translate(0 0)" fill="#404254">
  <rect fill="#f2f5e9" fill-opacity="0.5" stroke="#606060" stroke-width=".5" x="0" y="0" width="60" height="60"/>
  <use id="zoomplus" xlink:href="#zoomPlus" x="17" y="9" onmousedown="handleZoom(evt,'in')"/>
  <use id="zoomminus" xlink:href="#zoomMin" x="42" y="9" onmousedown="handleZoom(evt,'out')"/>
  <use id="reset" xlink:href="#resetDef" x="30" y="36" onmousedown="handleReset()"/>
   <use id="arrowup" xlink:href="#arrowUp" x="0" y="0" onmousedown="handlePan(0,-1)"/>
  <use id="arrowright" xlink:href="#arrowRight" x="0" y="0" onmousedown="handlePan(1,0)"/>
  <use id="arrowdown" xlink:href="#arrowDown" x="0" y="0" onmousedown="handlePan(0,1)"/>
  <use id="arrowleft" xlink:href="#arrowLeft" x="0" y="0" onmousedown="handlePan(-1,0)"/>
</g>
<svg viewBox="0 0 15 15" width="100%" height="30px" preserveAspectRatio="xMaxYMin meet">
 <g id="arrow_out" transform="scale(0.3 0.3)">
  <a xlink:href="classMayaFlux_1_1Portal_1_1Graphics_1_1RenderFlow_a427f34bcec94e920d4dbbb76ae7f175f_a427f34bcec94e920d4dbbb76ae7f175f_icgraph_org.svg" target="_base">
   <rect id="button" ry="5" rx="5" y="6" x="6" height="38" width="38"
        fill="#f2f5e9" fill-opacity="0.5" stroke="#606060" stroke-width="1.0"/>
   <path id="arrow"
     d="M 11.500037,31.436501 C 11.940474,20.09759 22.043105,11.32322 32.158766,21.979434 L 37.068811,17.246167 C 37.068811,17.246167 37.088388,32 37.088388,32 L 22.160133,31.978069 C 22.160133,31.978069 26.997745,27.140456 26.997745,27.140456 C 18.528582,18.264221 13.291696,25.230495 11.500037,31.436501 z"
     style="fill:#404040;"/>
  </a>
 </g>
</svg>

<style type='text/css'>
<![CDATA[
[data-mouse-over-selected='false'] { opacity: 0.7; }
[data-mouse-over-selected='true']  { opacity: 1.0; }
]]>
</style>
<script type="application/ecmascript"><![CDATA[
document.addEventListener('DOMContentLoaded', (event) => {
  highlightEdges();
  highlightAdjacentNodes();
});
]]></script>
</svg>
