<?xml version="1.0" encoding="UTF-8" standalone="no"?>
<!DOCTYPE svg PUBLIC "-//W3C//DTD SVG 1.1//EN"
 "http://www.w3.org/Graphics/SVG/1.1/DTD/svg11.dtd">
<!-- Generated by graphviz version 2.43.0 (0)
 -->
<!-- Title: MayaFlux::Kriya::TemporalActivation::cancel Pages: 1 -->
<svg width="348pt" height="134pt"
 viewBox="0.00 0.00 348.00 134.00" xmlns="http://www.w3.org/2000/svg" xmlns:xlink="http://www.w3.org/1999/xlink">
<g id="graph0" class="graph" transform="scale(1 1) rotate(0) translate(4 130)">
<title>MayaFlux::Kriya::TemporalActivation::cancel</title>
<!-- Node1 -->
<g id="Node000001" class="node">
<title>Node1</title>
<g id="a_Node000001"><a xlink:title="Cancels any currently active node.">
<polygon fill="#999999" stroke="#666666" points="340,-78 193,-78 193,-48 340,-48 340,-78"/>
<text text-anchor="start" x="201" y="-66" font-family="Helvetica,sans-Serif" font-size="10.00">MayaFlux::Kriya::Temporal</text>
<text text-anchor="middle" x="266.5" y="-55" font-family="Helvetica,sans-Serif" font-size="10.00">Activation::cancel</text>
</a>
</g>
</g>
<!-- Node2 -->
<g id="Node000002" class="node">
<title>Node2</title>
<g id="a_Node000002"><a xlink:href="classMayaFlux_1_1Kriya_1_1TemporalActivation_ab4f3737fb0465e8727586b7104b95fc2.html#ab4f3737fb0465e8727586b7104b95fc2" target="_top" xlink:title="Activates a buffer for a specified duration.">
<polygon fill="white" stroke="#666666" points="152,-126 5,-126 5,-96 152,-96 152,-126"/>
<text text-anchor="start" x="13" y="-114" font-family="Helvetica,sans-Serif" font-size="10.00">MayaFlux::Kriya::Temporal</text>
<text text-anchor="middle" x="78.5" y="-103" font-family="Helvetica,sans-Serif" font-size="10.00">Activation::activate_buffer</text>
</a>
</g>
</g>
<!-- Node1&#45;&gt;Node2 -->
<g id="edge1_Node000001_Node000002" class="edge">
<title>Node1&#45;&gt;Node2</title>
<g id="a_edge1_Node000001_Node000002"><a xlink:title=" ">
<path fill="none" stroke="#63b8ff" d="M197.38,-80.58C177.77,-85.64 156.58,-91.11 137.63,-96"/>
<polygon fill="#63b8ff" stroke="#63b8ff" points="198.35,-83.94 207.16,-78.06 196.6,-77.17 198.35,-83.94"/>
</a>
</g>
</g>
<!-- Node3 -->
<g id="Node000003" class="node">
<title>Node3</title>
<g id="a_Node000003"><a xlink:href="classMayaFlux_1_1Kriya_1_1TemporalActivation_a5472441ec2fd9cc067e55eb8f48f1a6d.html#a5472441ec2fd9cc067e55eb8f48f1a6d" target="_top" xlink:title="Activates a node network for a specified duration.">
<polygon fill="white" stroke="#666666" points="157,-78 0,-78 0,-48 157,-48 157,-78"/>
<text text-anchor="start" x="8" y="-66" font-family="Helvetica,sans-Serif" font-size="10.00">MayaFlux::Kriya::Temporal</text>
<text text-anchor="middle" x="78.5" y="-55" font-family="Helvetica,sans-Serif" font-size="10.00">Activation::activate_network</text>
</a>
</g>
</g>
<!-- Node1&#45;&gt;Node3 -->
<g id="edge2_Node000001_Node000003" class="edge">
<title>Node1&#45;&gt;Node3</title>
<g id="a_edge2_Node000001_Node000003"><a xlink:title=" ">
<path fill="none" stroke="#63b8ff" d="M182.53,-63C174.06,-63 165.48,-63 157.08,-63"/>
<polygon fill="#63b8ff" stroke="#63b8ff" points="182.79,-66.5 192.79,-63 182.79,-59.5 182.79,-66.5"/>
</a>
</g>
</g>
<!-- Node4 -->
<g id="Node000004" class="node">
<title>Node4</title>
<g id="a_Node000004"><a xlink:href="classMayaFlux_1_1Kriya_1_1TemporalActivation_ab218a3ead3d97c0a677ad3b3f0fad462.html#ab218a3ead3d97c0a677ad3b3f0fad462" target="_top" xlink:title="Activates a node for a specified duration.">
<polygon fill="white" stroke="#666666" points="152,-30 5,-30 5,0 152,0 152,-30"/>
<text text-anchor="start" x="13" y="-18" font-family="Helvetica,sans-Serif" font-size="10.00">MayaFlux::Kriya::Temporal</text>
<text text-anchor="middle" x="78.5" y="-7" font-family="Helvetica,sans-Serif" font-size="10.00">Activation::activate_node</text>
</a>
</g>
</g>
<!-- Node1&#45;&gt;Node4 -->
<g id="edge3_Node000001_Node000004" class="edge">
<title>Node1&#45;&gt;Node4</title>
<g id="a_edge3_Node000001_Node000004"><a xlink:title=" ">
<path fill="none" stroke="#63b8ff" d="M197.38,-45.42C177.77,-40.36 156.58,-34.89 137.63,-30"/>
<polygon fill="#63b8ff" stroke="#63b8ff" points="196.6,-48.83 207.16,-47.94 198.35,-42.06 196.6,-48.83"/>
</a>
</g>
</g>
</g>
</svg>
