<?xml version="1.0" encoding="UTF-8" standalone="no"?>
<!DOCTYPE svg PUBLIC "-//W3C//DTD SVG 1.1//EN"
 "http://www.w3.org/Graphics/SVG/1.1/DTD/svg11.dtd">
<!-- Generated by graphviz version 2.43.0 (0)
 -->
<!-- Title: MayaFlux::Nodes::Network::NodeNetwork::get_node_count Pages: 1 -->
<!--zoomable 382 -->

<svg id="main" version="1.1" xmlns="http://www.w3.org/2000/svg" xmlns:xlink="http://www.w3.org/1999/xlink" xml:space="preserve" onload="init(evt)">
<style type="text/css"><![CDATA[
.node, .edge {opacity: 0.7;}
.node.selected, .edge.selected {opacity: 1;}
.edge:hover path { stroke: red; }
.edge:hover polygon { stroke: red; fill: red; }
]]></style>

<defs>
  <circle id="rim" cx="0" cy="0" r="7"/>
  <circle id="rim2" cx="0" cy="0" r="3.5"/>
  <g id="zoomPlus">
    <use xlink:href="#rim" fill="#404040"><set attributeName="fill" to="#808080" begin="zoomplus.mouseover" end="zoomplus.mouseout"/></use>
    <path d="M-4,0h8M0,-4v8" fill="none" stroke="white" stroke-width="1.5" pointer-events="none"/>
  </g>
  <g id="zoomMin">
    <use xlink:href="#rim" fill="#404040"><set attributeName="fill" to="#808080" begin="zoomminus.mouseover" end="zoomminus.mouseout"/></use>
    <path d="M-4,0h8" fill="none" stroke="white" stroke-width="1.5" pointer-events="none"/>
  </g>
  <g id="arrowUp" transform="translate(30 24)">
    <use xlink:href="#rim"/>
    <path pointer-events="none" fill="none" stroke="white" stroke-width="1.5" d="M0,-3.0v7 M-2.5,-0.5L0,-3.0L2.5,-0.5"/>
  </g>
  <g id="arrowRight" transform="rotate(90) translate(36 -43)">
    <use xlink:href="#rim"/>
    <path pointer-events="none" fill="none" stroke="white" stroke-width="1.5" d="M0,-3.0v7 M-2.5,-0.5L0,-3.0L2.5,-0.5"/>
  </g>
  <g id="arrowDown" transform="rotate(180) translate(-30 -48)">
    <use xlink:href="#rim"/>
    <path pointer-events="none" fill="none" stroke="white" stroke-width="1.5" d="M0,-3.0v7 M-2.5,-0.5L0,-3.0L2.5,-0.5"/>
  </g>
  <g id="arrowLeft" transform="rotate(270) translate(-36 17)">
    <use xlink:href="#rim"/>
    <path pointer-events="none" fill="none" stroke="white" stroke-width="1.5" d="M0,-3.0v7 M-2.5,-0.5L0,-3.0L2.5,-0.5"/>
  </g>
  <g id="resetDef">
    <use xlink:href="#rim2" fill="#404040"><set attributeName="fill" to="#808080" begin="reset.mouseover" end="reset.mouseout"/></use>
  </g>
</defs>
<script type="application/ecmascript">
var viewWidth = 585;
var viewHeight = 382;
var sectionId = 'dynsection-0';
</script>
<script type="application/ecmascript" xlink:href="svg.min.js"/>
<svg id="graph" class="graph">
<g id="viewport">
<title>MayaFlux::Nodes::Network::NodeNetwork::get_node_count</title>
<!-- Node1 -->
<g id="Node000001" class="node">
<title>Node1</title>
<g id="a_Node000001"><a xlink:title="Get the number of nodes in the network.">
<polygon fill="#999999" stroke="#666666" points="577,-212.5 404,-212.5 404,-182.5 577,-182.5 577,-212.5"/>
<text text-anchor="start" x="412" y="-200.5" font-family="Helvetica,sans-Serif" font-size="10.00">MayaFlux::Nodes::Network</text>
<text text-anchor="middle" x="490.5" y="-189.5" font-family="Helvetica,sans-Serif" font-size="10.00">::NodeNetwork::get_node_count</text>
</a>
</g>
</g>
<!-- Node2 -->
<g id="Node000002" class="node">
<title>Node2</title>
<g id="a_Node000002"><a xlink:href="classMayaFlux_1_1Nodes_1_1Network_1_1NodeNetwork_ad6c14660b161b3f6174a1528fd3c2fe9.html#ad6c14660b161b3f6174a1528fd3c2fe9" target="_top" xlink:title="Get network metadata for debugging/visualization.">
<polygon fill="white" stroke="#666666" points="368,-212.5 204,-212.5 204,-182.5 368,-182.5 368,-212.5"/>
<text text-anchor="start" x="212" y="-200.5" font-family="Helvetica,sans-Serif" font-size="10.00">MayaFlux::Nodes::Network</text>
<text text-anchor="middle" x="286" y="-189.5" font-family="Helvetica,sans-Serif" font-size="10.00">::NodeNetwork::get_metadata</text>
</a>
</g>
</g>
<!-- Node1&#45;&gt;Node2 -->
<g id="edge1_Node000001_Node000002" class="edge">
<title>Node1&#45;&gt;Node2</title>
<g id="a_edge1_Node000001_Node000002"><a xlink:title=" ">
<path fill="none" stroke="#63b8ff" d="M393.84,-197.5C385.23,-197.5 376.56,-197.5 368.09,-197.5"/>
<polygon fill="#63b8ff" stroke="#63b8ff" points="393.92,-201 403.92,-197.5 393.92,-194 393.92,-201"/>
</a>
</g>
</g>
<!-- Node3 -->
<g id="Node000003" class="node">
<title>Node3</title>
<g id="a_Node000003"><a xlink:href="classMayaFlux_1_1Nodes_1_1Network_1_1InstanceNetwork_a842a822cfce67b7e555332ffbc1385d8.html#a842a822cfce67b7e555332ffbc1385d8" target="_top" xlink:title="Get network metadata for debugging/visualization.">
<polygon fill="white" stroke="#666666" points="158.5,-374 9.5,-374 9.5,-333 158.5,-333 158.5,-374"/>
<text text-anchor="start" x="17.5" y="-362" font-family="Helvetica,sans-Serif" font-size="10.00">MayaFlux::Nodes::Network</text>
<text text-anchor="start" x="17.5" y="-351" font-family="Helvetica,sans-Serif" font-size="10.00">::InstanceNetwork::get</text>
<text text-anchor="middle" x="84" y="-340" font-family="Helvetica,sans-Serif" font-size="10.00">_metadata</text>
</a>
</g>
</g>
<!-- Node2&#45;&gt;Node3 -->
<g id="edge2_Node000002_Node000003" class="edge">
<title>Node2&#45;&gt;Node3</title>
<g id="a_edge2_Node000002_Node000003"><a xlink:title=" ">
<path fill="none" stroke="#63b8ff" d="M268.46,-221.3C247.87,-249.32 210.23,-295.55 168,-323.5 162.76,-326.97 157.07,-330.09 151.21,-332.9"/>
<polygon fill="#63b8ff" stroke="#63b8ff" points="271.51,-223.05 274.53,-212.89 265.84,-218.95 271.51,-223.05"/>
</a>
</g>
</g>
<!-- Node4 -->
<g id="Node000004" class="node">
<title>Node4</title>
<g id="a_Node000004"><a xlink:href="classMayaFlux_1_1Nodes_1_1Network_1_1MeshNetwork_a730f9dad878ebba57fbc45b1429542c5.html#a730f9dad878ebba57fbc45b1429542c5" target="_top" xlink:title="Get network metadata for debugging/visualization.">
<polygon fill="white" stroke="#666666" points="166,-314.5 2,-314.5 2,-284.5 166,-284.5 166,-314.5"/>
<text text-anchor="start" x="10" y="-302.5" font-family="Helvetica,sans-Serif" font-size="10.00">MayaFlux::Nodes::Network</text>
<text text-anchor="middle" x="84" y="-291.5" font-family="Helvetica,sans-Serif" font-size="10.00">::MeshNetwork::get_metadata</text>
</a>
</g>
</g>
<!-- Node2&#45;&gt;Node4 -->
<g id="edge3_Node000002_Node000004" class="edge">
<title>Node2&#45;&gt;Node4</title>
<g id="a_edge3_Node000002_Node000004"><a xlink:title=" ">
<path fill="none" stroke="#63b8ff" d="M258.04,-218.97C235.2,-236.28 200.98,-260.18 168,-275.5 160.79,-278.85 153.01,-281.84 145.2,-284.48"/>
<polygon fill="#63b8ff" stroke="#63b8ff" points="260.42,-221.56 266.22,-212.69 256.15,-216.01 260.42,-221.56"/>
</a>
</g>
</g>
<!-- Node5 -->
<g id="Node000005" class="node">
<title>Node5</title>
<g id="a_Node000005"><a xlink:href="classMayaFlux_1_1Nodes_1_1Network_1_1ModalNetwork_a8316b7d56d3eebde4686f9105f3a8ecb.html#a8316b7d56d3eebde4686f9105f3a8ecb" target="_top" xlink:title="Get network metadata for debugging/visualization.">
<polygon fill="white" stroke="#666666" points="168,-266.5 0,-266.5 0,-236.5 168,-236.5 168,-266.5"/>
<text text-anchor="start" x="8" y="-254.5" font-family="Helvetica,sans-Serif" font-size="10.00">MayaFlux::Nodes::Network</text>
<text text-anchor="middle" x="84" y="-243.5" font-family="Helvetica,sans-Serif" font-size="10.00">::ModalNetwork::get_metadata</text>
</a>
</g>
</g>
<!-- Node2&#45;&gt;Node5 -->
<g id="edge4_Node000002_Node000005" class="edge">
<title>Node2&#45;&gt;Node5</title>
<g id="a_edge4_Node000002_Node000005"><a xlink:title=" ">
<path fill="none" stroke="#63b8ff" d="M219.36,-215.22C193.94,-222.09 165.15,-229.86 140.76,-236.45"/>
<polygon fill="#63b8ff" stroke="#63b8ff" points="220.55,-218.53 229.29,-212.54 218.72,-211.77 220.55,-218.53"/>
</a>
</g>
</g>
<!-- Node6 -->
<g id="Node000006" class="node">
<title>Node6</title>
<g id="a_Node000006"><a xlink:href="classMayaFlux_1_1Nodes_1_1Network_1_1ParticleNetwork_ae9375b429786584ae077e6d0ae461edb.html#ae9375b429786584ae077e6d0ae461edb" target="_top" xlink:title="Get network metadata for debugging/visualization.">
<polygon fill="white" stroke="#666666" points="158.5,-218 9.5,-218 9.5,-177 158.5,-177 158.5,-218"/>
<text text-anchor="start" x="17.5" y="-206" font-family="Helvetica,sans-Serif" font-size="10.00">MayaFlux::Nodes::Network</text>
<text text-anchor="start" x="17.5" y="-195" font-family="Helvetica,sans-Serif" font-size="10.00">::ParticleNetwork::get</text>
<text text-anchor="middle" x="84" y="-184" font-family="Helvetica,sans-Serif" font-size="10.00">_metadata</text>
</a>
</g>
</g>
<!-- Node2&#45;&gt;Node6 -->
<g id="edge5_Node000002_Node000006" class="edge">
<title>Node2&#45;&gt;Node6</title>
<g id="a_edge5_Node000002_Node000006"><a xlink:title=" ">
<path fill="none" stroke="#63b8ff" d="M193.71,-197.5C182,-197.5 170.14,-197.5 158.76,-197.5"/>
<polygon fill="#63b8ff" stroke="#63b8ff" points="193.94,-201 203.94,-197.5 193.94,-194 193.94,-201"/>
</a>
</g>
</g>
<!-- Node7 -->
<g id="Node000007" class="node">
<title>Node7</title>
<g id="a_Node000007"><a xlink:href="classMayaFlux_1_1Nodes_1_1Network_1_1PointCloudNetwork_a9bf75dafde7809561196805522874ed7.html#a9bf75dafde7809561196805522874ed7" target="_top" xlink:title="Get network metadata for debugging/visualization.">
<polygon fill="white" stroke="#666666" points="158.5,-159 9.5,-159 9.5,-118 158.5,-118 158.5,-159"/>
<text text-anchor="start" x="17.5" y="-147" font-family="Helvetica,sans-Serif" font-size="10.00">MayaFlux::Nodes::Network</text>
<text text-anchor="start" x="17.5" y="-136" font-family="Helvetica,sans-Serif" font-size="10.00">::PointCloudNetwork::get</text>
<text text-anchor="middle" x="84" y="-125" font-family="Helvetica,sans-Serif" font-size="10.00">_metadata</text>
</a>
</g>
</g>
<!-- Node2&#45;&gt;Node7 -->
<g id="edge6_Node000002_Node000007" class="edge">
<title>Node2&#45;&gt;Node7</title>
<g id="a_edge6_Node000002_Node000007"><a xlink:title=" ">
<path fill="none" stroke="#63b8ff" d="M224.18,-179.56C202.26,-173.09 177.37,-165.75 154.76,-159.08"/>
<polygon fill="#63b8ff" stroke="#63b8ff" points="223.43,-182.99 234.01,-182.46 225.41,-176.27 223.43,-182.99"/>
</a>
</g>
</g>
<!-- Node8 -->
<g id="Node000008" class="node">
<title>Node8</title>
<g id="a_Node000008"><a xlink:href="classMayaFlux_1_1Nodes_1_1Network_1_1ResonatorNetwork_a267b86497f8dfe46fcf49aec181d8c17.html#a267b86497f8dfe46fcf49aec181d8c17" target="_top" xlink:title="Returns network metadata for debugging and visualisation.">
<polygon fill="white" stroke="#666666" points="158.5,-100 9.5,-100 9.5,-59 158.5,-59 158.5,-100"/>
<text text-anchor="start" x="17.5" y="-88" font-family="Helvetica,sans-Serif" font-size="10.00">MayaFlux::Nodes::Network</text>
<text text-anchor="start" x="17.5" y="-77" font-family="Helvetica,sans-Serif" font-size="10.00">::ResonatorNetwork::get</text>
<text text-anchor="middle" x="84" y="-66" font-family="Helvetica,sans-Serif" font-size="10.00">_metadata</text>
</a>
</g>
</g>
<!-- Node2&#45;&gt;Node8 -->
<g id="edge7_Node000002_Node000008" class="edge">
<title>Node2&#45;&gt;Node8</title>
<g id="a_edge7_Node000002_Node000008"><a xlink:title=" ">
<path fill="none" stroke="#63b8ff" d="M260.51,-175.62C237.81,-156.21 202.45,-128.13 168,-109.5 161.8,-106.15 155.15,-103.03 148.41,-100.17"/>
<polygon fill="#63b8ff" stroke="#63b8ff" points="258.42,-178.44 268.28,-182.34 263.01,-173.15 258.42,-178.44"/>
</a>
</g>
</g>
<!-- Node9 -->
<g id="Node000009" class="node">
<title>Node9</title>
<g id="a_Node000009"><a xlink:href="classMayaFlux_1_1Nodes_1_1Network_1_1WaveguideNetwork_a28c68f1941c1ac54b9eaefdd9cc6604d.html#a28c68f1941c1ac54b9eaefdd9cc6604d" target="_top" xlink:title="Get network metadata for debugging/visualization.">
<polygon fill="white" stroke="#666666" points="158.5,-41 9.5,-41 9.5,0 158.5,0 158.5,-41"/>
<text text-anchor="start" x="17.5" y="-29" font-family="Helvetica,sans-Serif" font-size="10.00">MayaFlux::Nodes::Network</text>
<text text-anchor="start" x="17.5" y="-18" font-family="Helvetica,sans-Serif" font-size="10.00">::WaveguideNetwork::get</text>
<text text-anchor="middle" x="84" y="-7" font-family="Helvetica,sans-Serif" font-size="10.00">_metadata</text>
</a>
</g>
</g>
<!-- Node2&#45;&gt;Node9 -->
<g id="edge8_Node000002_Node000009" class="edge">
<title>Node2&#45;&gt;Node9</title>
<g id="a_edge8_Node000002_Node000009"><a xlink:title=" ">
<path fill="none" stroke="#63b8ff" d="M271.71,-173.53C252.69,-141.28 214.78,-84.09 168,-50.5 163.15,-47.01 157.84,-43.9 152.34,-41.11"/>
<polygon fill="#63b8ff" stroke="#63b8ff" points="268.75,-175.4 276.78,-182.3 274.81,-171.89 268.75,-175.4"/>
</a>
</g>
</g>
</g>
</svg>

<g id="navigator" transform="translate(0 0)" fill="#404254">
  <rect fill="#f2f5e9" fill-opacity="0.5" stroke="#606060" stroke-width=".5" x="0" y="0" width="60" height="60"/>
  <use id="zoomplus" xlink:href="#zoomPlus" x="17" y="9" onmousedown="handleZoom(evt,'in')"/>
  <use id="zoomminus" xlink:href="#zoomMin" x="42" y="9" onmousedown="handleZoom(evt,'out')"/>
  <use id="reset" xlink:href="#resetDef" x="30" y="36" onmousedown="handleReset()"/>
   <use id="arrowup" xlink:href="#arrowUp" x="0" y="0" onmousedown="handlePan(0,-1)"/>
  <use id="arrowright" xlink:href="#arrowRight" x="0" y="0" onmousedown="handlePan(1,0)"/>
  <use id="arrowdown" xlink:href="#arrowDown" x="0" y="0" onmousedown="handlePan(0,1)"/>
  <use id="arrowleft" xlink:href="#arrowLeft" x="0" y="0" onmousedown="handlePan(-1,0)"/>
</g>
<svg viewBox="0 0 15 15" width="100%" height="30px" preserveAspectRatio="xMaxYMin meet">
 <g id="arrow_out" transform="scale(0.3 0.3)">
  <a xlink:href="classMayaFlux_1_1Nodes_1_1Network_1_1NodeNetwork_af24c0ffef2666eb05f2f14b7e297c14b_af24c0ffef2666eb05f2f14b7e297c14b_icgraph_org.svg" target="_base">
   <rect id="button" ry="5" rx="5" y="6" x="6" height="38" width="38"
        fill="#f2f5e9" fill-opacity="0.5" stroke="#606060" stroke-width="1.0"/>
   <path id="arrow"
     d="M 11.500037,31.436501 C 11.940474,20.09759 22.043105,11.32322 32.158766,21.979434 L 37.068811,17.246167 C 37.068811,17.246167 37.088388,32 37.088388,32 L 22.160133,31.978069 C 22.160133,31.978069 26.997745,27.140456 26.997745,27.140456 C 18.528582,18.264221 13.291696,25.230495 11.500037,31.436501 z"
     style="fill:#404040;"/>
  </a>
 </g>
</svg>

<style type='text/css'>
<![CDATA[
[data-mouse-over-selected='false'] { opacity: 0.7; }
[data-mouse-over-selected='true']  { opacity: 1.0; }
]]>
</style>
<script type="application/ecmascript"><![CDATA[
document.addEventListener('DOMContentLoaded', (event) => {
  highlightEdges();
  highlightAdjacentNodes();
});
]]></script>
</svg>
