<?xml version="1.0" encoding="UTF-8" standalone="no"?>
<!DOCTYPE svg PUBLIC "-//W3C//DTD SVG 1.1//EN"
 "http://www.w3.org/Graphics/SVG/1.1/DTD/svg11.dtd">
<!-- Generated by graphviz version 2.43.0 (0)
 -->
<!-- Title: MayaFlux::IO::VideoFileReader::stop_decode_thread Pages: 1 -->
<svg width="581pt" height="182pt"
 viewBox="0.00 0.00 581.00 182.00" xmlns="http://www.w3.org/2000/svg" xmlns:xlink="http://www.w3.org/1999/xlink">
<g id="graph0" class="graph" transform="scale(1 1) rotate(0) translate(4 178)">
<title>MayaFlux::IO::VideoFileReader::stop_decode_thread</title>
<!-- Node1 -->
<g id="Node000001" class="node">
<title>Node1</title>
<g id="a_Node000001"><a xlink:title=" ">
<polygon fill="#999999" stroke="#666666" points="573,-81 406,-81 406,-51 573,-51 573,-81"/>
<text text-anchor="start" x="414" y="-69" font-family="Helvetica,sans-Serif" font-size="10.00">MayaFlux::IO::VideoFileReader</text>
<text text-anchor="middle" x="489.5" y="-58" font-family="Helvetica,sans-Serif" font-size="10.00">::stop_decode_thread</text>
</a>
</g>
</g>
<!-- Node2 -->
<g id="Node000002" class="node">
<title>Node2</title>
<g id="a_Node000002"><a xlink:href="classMayaFlux_1_1IO_1_1VideoFileReader_aa7942958f72f9cc0f0549ffd9fdadd40.html#aa7942958f72f9cc0f0549ffd9fdadd40" target="_top" xlink:title="Close the currently open file.">
<polygon fill="white" stroke="#666666" points="370,-126 203,-126 203,-96 370,-96 370,-126"/>
<text text-anchor="start" x="211" y="-114" font-family="Helvetica,sans-Serif" font-size="10.00">MayaFlux::IO::VideoFileReader</text>
<text text-anchor="middle" x="286.5" y="-103" font-family="Helvetica,sans-Serif" font-size="10.00">::close</text>
</a>
</g>
</g>
<!-- Node1&#45;&gt;Node2 -->
<g id="edge1_Node000001_Node000002" class="edge">
<title>Node1&#45;&gt;Node2</title>
<g id="a_edge1_Node000001_Node000002"><a xlink:title=" ">
<path fill="none" stroke="#63b8ff" d="M411.34,-83.27C392.66,-87.46 372.83,-91.9 354.65,-95.97"/>
<polygon fill="#63b8ff" stroke="#63b8ff" points="412.3,-86.65 421.29,-81.05 410.77,-79.82 412.3,-86.65"/>
</a>
</g>
</g>
<!-- Node5 -->
<g id="Node000005" class="node">
<title>Node5</title>
<g id="a_Node000005"><a xlink:href="classMayaFlux_1_1IO_1_1VideoFileReader_a67253a8d5bd744aa898d4f44b6814c95.html#a67253a8d5bd744aa898d4f44b6814c95" target="_top" xlink:title="Seek to a specific position in the file.">
<polygon fill="white" stroke="#666666" points="167,-78 0,-78 0,-48 167,-48 167,-78"/>
<text text-anchor="start" x="8" y="-66" font-family="Helvetica,sans-Serif" font-size="10.00">MayaFlux::IO::VideoFileReader</text>
<text text-anchor="middle" x="83.5" y="-55" font-family="Helvetica,sans-Serif" font-size="10.00">::seek</text>
</a>
</g>
</g>
<!-- Node1&#45;&gt;Node5 -->
<g id="edge4_Node000001_Node000005" class="edge">
<title>Node1&#45;&gt;Node5</title>
<g id="a_edge4_Node000001_Node000005"><a xlink:title=" ">
<path fill="none" stroke="#63b8ff" d="M395.35,-65.31C326.43,-64.8 233.4,-64.11 167.12,-63.61"/>
<polygon fill="#63b8ff" stroke="#63b8ff" points="395.74,-68.81 405.77,-65.39 395.8,-61.81 395.74,-68.81"/>
</a>
</g>
</g>
<!-- Node6 -->
<g id="Node000006" class="node">
<title>Node6</title>
<g id="a_Node000006"><a xlink:href="classMayaFlux_1_1IO_1_1VideoFileReader_a12ac2bea1489c574b3eedb216bb1d18c.html#a12ac2bea1489c574b3eedb216bb1d18c" target="_top" xlink:title=" ">
<polygon fill="white" stroke="#666666" points="370,-38 203,-38 203,-8 370,-8 370,-38"/>
<text text-anchor="start" x="211" y="-26" font-family="Helvetica,sans-Serif" font-size="10.00">MayaFlux::IO::VideoFileReader</text>
<text text-anchor="middle" x="286.5" y="-15" font-family="Helvetica,sans-Serif" font-size="10.00">::start_decode_thread</text>
</a>
</g>
</g>
<!-- Node1&#45;&gt;Node6 -->
<g id="edge5_Node000001_Node000006" class="edge">
<title>Node1&#45;&gt;Node6</title>
<g id="a_edge5_Node000001_Node000006"><a xlink:title=" ">
<path fill="none" stroke="#63b8ff" d="M407.97,-48.77C391.35,-45.22 373.98,-41.5 357.76,-38.03"/>
<polygon fill="#63b8ff" stroke="#63b8ff" points="407.69,-52.29 418.2,-50.96 409.15,-45.45 407.69,-52.29"/>
</a>
</g>
</g>
<!-- Node3 -->
<g id="Node000003" class="node">
<title>Node3</title>
<g id="a_Node000003"><a xlink:href="classMayaFlux_1_1IO_1_1VideoFileReader_a4fde32d3018bb43d67972a0ff5fc0965.html#a4fde32d3018bb43d67972a0ff5fc0965" target="_top" xlink:title="Open a file for reading.">
<polygon fill="white" stroke="#666666" points="167,-174 0,-174 0,-144 167,-144 167,-174"/>
<text text-anchor="start" x="8" y="-162" font-family="Helvetica,sans-Serif" font-size="10.00">MayaFlux::IO::VideoFileReader</text>
<text text-anchor="middle" x="83.5" y="-151" font-family="Helvetica,sans-Serif" font-size="10.00">::open</text>
</a>
</g>
</g>
<!-- Node2&#45;&gt;Node3 -->
<g id="edge2_Node000002_Node000003" class="edge">
<title>Node2&#45;&gt;Node3</title>
<g id="a_edge2_Node000002_Node000003"><a xlink:title=" ">
<path fill="none" stroke="#63b8ff" d="M212.46,-128.44C191.12,-133.54 167.98,-139.07 147.32,-144"/>
<polygon fill="#63b8ff" stroke="#63b8ff" points="213.54,-131.78 222.45,-126.06 211.91,-124.97 213.54,-131.78"/>
</a>
</g>
</g>
<!-- Node4 -->
<g id="Node000004" class="node">
<title>Node4</title>
<g id="a_Node000004"><a xlink:href="classMayaFlux_1_1IO_1_1VideoFileReader_af01d799de5c05dfbc69d9de7fcf36721.html#af01d799de5c05dfbc69d9de7fcf36721" target="_top" xlink:title=" ">
<polygon fill="white" stroke="#666666" points="167,-126 0,-126 0,-96 167,-96 167,-126"/>
<text text-anchor="start" x="8" y="-114" font-family="Helvetica,sans-Serif" font-size="10.00">MayaFlux::IO::VideoFileReader</text>
<text text-anchor="middle" x="83.5" y="-103" font-family="Helvetica,sans-Serif" font-size="10.00">::~VideoFileReader</text>
</a>
</g>
</g>
<!-- Node2&#45;&gt;Node4 -->
<g id="edge3_Node000002_Node000004" class="edge">
<title>Node2&#45;&gt;Node4</title>
<g id="a_edge3_Node000002_Node000004"><a xlink:title=" ">
<path fill="none" stroke="#63b8ff" d="M192.85,-111C184.27,-111 175.61,-111 167.13,-111"/>
<polygon fill="#63b8ff" stroke="#63b8ff" points="192.88,-114.5 202.88,-111 192.88,-107.5 192.88,-114.5"/>
</a>
</g>
</g>
<!-- Node6&#45;&gt;Node5 -->
<g id="edge7_Node000006_Node000005" class="edge">
<title>Node6&#45;&gt;Node5</title>
<g id="a_edge7_Node000006_Node000005"><a xlink:title=" ">
<path fill="none" stroke="#63b8ff" d="M200,-40.01C186.71,-42.66 173.06,-45.38 160.01,-47.97"/>
<polygon fill="#63b8ff" stroke="#63b8ff" points="200.96,-43.39 210.08,-38.01 199.59,-36.53 200.96,-43.39"/>
</a>
</g>
</g>
<!-- Node7 -->
<g id="Node000007" class="node">
<title>Node7</title>
<g id="a_Node000007"><a xlink:href="classMayaFlux_1_1IO_1_1VideoFileReader_a78b6b19d6d9126250ded73ea4b7b6629.html#a78b6b19d6d9126250ded73ea4b7b6629" target="_top" xlink:title="Load file data into an existing container.">
<polygon fill="white" stroke="#666666" points="167,-30 0,-30 0,0 167,0 167,-30"/>
<text text-anchor="start" x="8" y="-18" font-family="Helvetica,sans-Serif" font-size="10.00">MayaFlux::IO::VideoFileReader</text>
<text text-anchor="middle" x="83.5" y="-7" font-family="Helvetica,sans-Serif" font-size="10.00">::load_into_container</text>
</a>
</g>
</g>
<!-- Node6&#45;&gt;Node7 -->
<g id="edge6_Node000006_Node000007" class="edge">
<title>Node6&#45;&gt;Node7</title>
<g id="a_edge6_Node000006_Node000007"><a xlink:title=" ">
<path fill="none" stroke="#63b8ff" d="M192.85,-19.31C184.27,-18.97 175.61,-18.63 167.13,-18.29"/>
<polygon fill="#63b8ff" stroke="#63b8ff" points="192.74,-22.81 202.88,-19.71 193.02,-15.82 192.74,-22.81"/>
</a>
</g>
</g>
</g>
</svg>
