<?xml version="1.0" encoding="UTF-8" standalone="no"?>
<!DOCTYPE svg PUBLIC "-//W3C//DTD SVG 1.1//EN"
 "http://www.w3.org/Graphics/SVG/1.1/DTD/svg11.dtd">
<!-- Generated by graphviz version 2.43.0 (0)
 -->
<!-- Title: MayaFlux::Nodes::GpuVectorData Pages: 1 -->
<!--zoomable 228 -->

<svg id="main" version="1.1" xmlns="http://www.w3.org/2000/svg" xmlns:xlink="http://www.w3.org/1999/xlink" xml:space="preserve" onload="init(evt)">
<style type="text/css"><![CDATA[
.node, .edge {opacity: 0.7;}
.node.selected, .edge.selected {opacity: 1;}
.edge:hover path { stroke: red; }
.edge:hover polygon { stroke: red; fill: red; }
]]></style>

<defs>
  <circle id="rim" cx="0" cy="0" r="7"/>
  <circle id="rim2" cx="0" cy="0" r="3.5"/>
  <g id="zoomPlus">
    <use xlink:href="#rim" fill="#404040"><set attributeName="fill" to="#808080" begin="zoomplus.mouseover" end="zoomplus.mouseout"/></use>
    <path d="M-4,0h8M0,-4v8" fill="none" stroke="white" stroke-width="1.5" pointer-events="none"/>
  </g>
  <g id="zoomMin">
    <use xlink:href="#rim" fill="#404040"><set attributeName="fill" to="#808080" begin="zoomminus.mouseover" end="zoomminus.mouseout"/></use>
    <path d="M-4,0h8" fill="none" stroke="white" stroke-width="1.5" pointer-events="none"/>
  </g>
  <g id="arrowUp" transform="translate(30 24)">
    <use xlink:href="#rim"/>
    <path pointer-events="none" fill="none" stroke="white" stroke-width="1.5" d="M0,-3.0v7 M-2.5,-0.5L0,-3.0L2.5,-0.5"/>
  </g>
  <g id="arrowRight" transform="rotate(90) translate(36 -43)">
    <use xlink:href="#rim"/>
    <path pointer-events="none" fill="none" stroke="white" stroke-width="1.5" d="M0,-3.0v7 M-2.5,-0.5L0,-3.0L2.5,-0.5"/>
  </g>
  <g id="arrowDown" transform="rotate(180) translate(-30 -48)">
    <use xlink:href="#rim"/>
    <path pointer-events="none" fill="none" stroke="white" stroke-width="1.5" d="M0,-3.0v7 M-2.5,-0.5L0,-3.0L2.5,-0.5"/>
  </g>
  <g id="arrowLeft" transform="rotate(270) translate(-36 17)">
    <use xlink:href="#rim"/>
    <path pointer-events="none" fill="none" stroke="white" stroke-width="1.5" d="M0,-3.0v7 M-2.5,-0.5L0,-3.0L2.5,-0.5"/>
  </g>
  <g id="resetDef">
    <use xlink:href="#rim2" fill="#404040"><set attributeName="fill" to="#808080" begin="reset.mouseover" end="reset.mouseout"/></use>
  </g>
</defs>
<script type="application/ecmascript">
var viewWidth = 1472;
var viewHeight = 228;
var sectionId = 'dynsection-0';
</script>
<script type="application/ecmascript" xlink:href="svg.min.js"/>
<svg id="graph" class="graph">
<g id="viewport">
<title>MayaFlux::Nodes::GpuVectorData</title>
<!-- Node1 -->
<g id="Node000001" class="node">
<title>Node1</title>
<g id="a_Node000001"><a xlink:title="GPU&#45;uploadable 1D array data interface.">
<polygon fill="#999999" stroke="transparent" points="816.5,-220 641.5,-220 641.5,-111 816.5,-111 816.5,-220"/>
<text text-anchor="start" x="647" y="-207.5" font-family="Helvetica,sans-Serif" font-size="10.00">MayaFlux::Nodes::GpuVectorData</text>
<text text-anchor="start" x="664" y="-192.5" font-family="Helvetica,sans-Serif" font-size="10.00">#</text>
<text text-anchor="start" x="695" y="-192.5" font-family="Helvetica,sans-Serif" font-size="10.00">m_gpu_data</text>
<text text-anchor="start" x="664" y="-177.5" font-family="Helvetica,sans-Serif" font-size="10.00">+</text>
<text text-anchor="start" x="695" y="-177.5" font-family="Helvetica,sans-Serif" font-size="10.00">gpu_data()</text>
<text text-anchor="start" x="664" y="-162.5" font-family="Helvetica,sans-Serif" font-size="10.00">+</text>
<text text-anchor="start" x="695" y="-162.5" font-family="Helvetica,sans-Serif" font-size="10.00">gpu_data_size()</text>
<text text-anchor="start" x="664" y="-147.5" font-family="Helvetica,sans-Serif" font-size="10.00">+</text>
<text text-anchor="start" x="695" y="-147.5" font-family="Helvetica,sans-Serif" font-size="10.00">GpuVectorData()</text>
<text text-anchor="start" x="664" y="-132.5" font-family="Helvetica,sans-Serif" font-size="10.00">+</text>
<text text-anchor="start" x="695" y="-132.5" font-family="Helvetica,sans-Serif" font-size="10.00">GpuVectorData()</text>
<text text-anchor="start" x="664" y="-117.5" font-family="Helvetica,sans-Serif" font-size="10.00">+</text>
<text text-anchor="start" x="695" y="-117.5" font-family="Helvetica,sans-Serif" font-size="10.00">has_gpu_data()</text>
<polygon fill="#666666" stroke="#666666" points="642,-202.5 642,-202.5 817,-202.5 817,-202.5 642,-202.5"/>
<polygon fill="#666666" stroke="#666666" points="642,-187.5 642,-187.5 693,-187.5 693,-187.5 642,-187.5"/>
<polygon fill="#666666" stroke="#666666" points="693,-187.5 693,-187.5 817,-187.5 817,-187.5 693,-187.5"/>
<polygon fill="none" stroke="#666666" points="641.5,-111 641.5,-220 816.5,-220 816.5,-111 641.5,-111"/>
</a>
</g>
</g>
<!-- Node2 -->
<g id="Node000002" class="node">
<title>Node2</title>
<g id="a_Node000002"><a xlink:href="classMayaFlux_1_1Nodes_1_1BinaryOpContextGpu.html" target="_top" xlink:title="GPU&#45;compatible context for binary operation callbacks.">
<polygon fill="white" stroke="transparent" points="146,-67.5 0,-67.5 0,-7.5 146,-7.5 146,-67.5"/>
<text text-anchor="start" x="5" y="-55.5" font-family="Helvetica,sans-Serif" font-size="10.00">MayaFlux::Nodes::BinaryOp</text>
<text text-anchor="start" x="44" y="-44.5" font-family="Helvetica,sans-Serif" font-size="10.00">ContextGpu</text>
<text text-anchor="start" x="71" y="-29.5" font-family="Helvetica,sans-Serif" font-size="10.00"> </text>
<text text-anchor="start" x="7.5" y="-14.5" font-family="Helvetica,sans-Serif" font-size="10.00">+</text>
<text text-anchor="start" x="24" y="-14.5" font-family="Helvetica,sans-Serif" font-size="10.00">BinaryOpContextGpu()</text>
<polygon fill="#666666" stroke="#666666" points="0,-39.5 0,-39.5 146,-39.5 146,-39.5 0,-39.5"/>
<polygon fill="#666666" stroke="#666666" points="0,-24.5 0,-24.5 146,-24.5 146,-24.5 0,-24.5"/>
<polygon fill="none" stroke="#666666" points="0,-7.5 0,-67.5 146,-67.5 146,-7.5 0,-7.5"/>
</a>
</g>
</g>
<!-- Node1&#45;&gt;Node2 -->
<g id="edge1_Node000001_Node000002" class="edge">
<title>Node1&#45;&gt;Node2</title>
<g id="a_edge1_Node000001_Node000002"><a xlink:title=" ">
<path fill="none" stroke="#63b8ff" d="M631.13,-157.15C515.48,-146.67 318.16,-123.11 155,-75 147.98,-72.93 140.77,-70.39 133.68,-67.62"/>
<polygon fill="none" stroke="#63b8ff" points="631.1,-160.67 641.37,-158.07 631.72,-153.69 631.1,-160.67"/>
</a>
</g>
</g>
<!-- Node3 -->
<g id="Node000003" class="node">
<title>Node3</title>
<g id="a_Node000003"><a xlink:href="classMayaFlux_1_1Nodes_1_1CompositeOpContextGpu.html" target="_top" xlink:title="GPU&#45;compatible context for composite operation callbacks.">
<polygon fill="white" stroke="transparent" points="318,-67.5 164,-67.5 164,-7.5 318,-7.5 318,-67.5"/>
<text text-anchor="start" x="169" y="-55.5" font-family="Helvetica,sans-Serif" font-size="10.00">MayaFlux::Nodes::Composite</text>
<text text-anchor="start" x="205" y="-44.5" font-family="Helvetica,sans-Serif" font-size="10.00">OpContextGpu</text>
<text text-anchor="start" x="239" y="-29.5" font-family="Helvetica,sans-Serif" font-size="10.00"> </text>
<text text-anchor="start" x="168" y="-14.5" font-family="Helvetica,sans-Serif" font-size="10.00">+</text>
<text text-anchor="start" x="181" y="-14.5" font-family="Helvetica,sans-Serif" font-size="10.00">CompositeOpContextGpu()</text>
<polygon fill="#666666" stroke="#666666" points="164,-39.5 164,-39.5 318,-39.5 318,-39.5 164,-39.5"/>
<polygon fill="#666666" stroke="#666666" points="164,-24.5 164,-24.5 318,-24.5 318,-24.5 164,-24.5"/>
<polygon fill="none" stroke="#666666" points="164,-7.5 164,-67.5 318,-67.5 318,-7.5 164,-7.5"/>
</a>
</g>
</g>
<!-- Node1&#45;&gt;Node3 -->
<g id="edge2_Node000001_Node000003" class="edge">
<title>Node1&#45;&gt;Node3</title>
<g id="a_edge2_Node000001_Node000003"><a xlink:title=" ">
<path fill="none" stroke="#63b8ff" d="M631.29,-147.91C549.06,-132.73 428.9,-107.67 327,-75 320.2,-72.82 313.2,-70.31 306.27,-67.65"/>
<polygon fill="none" stroke="#63b8ff" points="630.66,-151.35 641.13,-149.71 631.92,-144.47 630.66,-151.35"/>
</a>
</g>
</g>
<!-- Node4 -->
<g id="Node000004" class="node">
<title>Node4</title>
<g id="a_Node000004"><a xlink:href="classMayaFlux_1_1Nodes_1_1Filters_1_1FilterContextGpu.html" target="_top" xlink:title="GPU&#45;augmented filter context for callbacks.">
<polygon fill="white" stroke="transparent" points="467.5,-67.5 336.5,-67.5 336.5,-7.5 467.5,-7.5 467.5,-67.5"/>
<text text-anchor="start" x="342" y="-55.5" font-family="Helvetica,sans-Serif" font-size="10.00">MayaFlux::Nodes::Filters</text>
<text text-anchor="start" x="358" y="-44.5" font-family="Helvetica,sans-Serif" font-size="10.00">::FilterContextGpu</text>
<text text-anchor="start" x="345.5" y="-29.5" font-family="Helvetica,sans-Serif" font-size="10.00">+</text>
<text text-anchor="start" x="363" y="-29.5" font-family="Helvetica,sans-Serif" font-size="10.00">gpu_float_buffer</text>
<text text-anchor="start" x="345.5" y="-14.5" font-family="Helvetica,sans-Serif" font-size="10.00">+</text>
<text text-anchor="start" x="363" y="-14.5" font-family="Helvetica,sans-Serif" font-size="10.00">FilterContextGpu()</text>
<polygon fill="#666666" stroke="#666666" points="337,-39.5 337,-39.5 468,-39.5 468,-39.5 337,-39.5"/>
<polygon fill="#666666" stroke="#666666" points="337,-24.5 337,-24.5 361,-24.5 361,-24.5 337,-24.5"/>
<polygon fill="#666666" stroke="#666666" points="361,-24.5 361,-24.5 468,-24.5 468,-24.5 361,-24.5"/>
<polygon fill="none" stroke="#666666" points="336.5,-7.5 336.5,-67.5 467.5,-67.5 467.5,-7.5 336.5,-7.5"/>
</a>
</g>
</g>
<!-- Node1&#45;&gt;Node4 -->
<g id="edge3_Node000001_Node000004" class="edge">
<title>Node1&#45;&gt;Node4</title>
<g id="a_edge3_Node000001_Node000004"><a xlink:title=" ">
<path fill="none" stroke="#63b8ff" d="M631.88,-132.84C584.66,-116.73 527.37,-96.12 477,-75 471.52,-72.7 465.88,-70.21 460.26,-67.63"/>
<polygon fill="none" stroke="#63b8ff" points="630.9,-136.2 641.49,-136.1 633.15,-129.57 630.9,-136.2"/>
</a>
</g>
</g>
<!-- Node5 -->
<g id="Node000005" class="node">
<title>Node5</title>
<g id="a_Node000005"><a xlink:href="classMayaFlux_1_1Nodes_1_1Generator_1_1GeneratorContextGpu.html" target="_top" xlink:title=" ">
<polygon fill="white" stroke="transparent" points="636,-67.5 486,-67.5 486,-7.5 636,-7.5 636,-67.5"/>
<text text-anchor="start" x="491" y="-55.5" font-family="Helvetica,sans-Serif" font-size="10.00">MayaFlux::Nodes::Generator</text>
<text text-anchor="start" x="504.5" y="-44.5" font-family="Helvetica,sans-Serif" font-size="10.00">::GeneratorContextGpu</text>
<text text-anchor="start" x="559" y="-29.5" font-family="Helvetica,sans-Serif" font-size="10.00"> </text>
<text text-anchor="start" x="493.5" y="-14.5" font-family="Helvetica,sans-Serif" font-size="10.00">+</text>
<text text-anchor="start" x="510" y="-14.5" font-family="Helvetica,sans-Serif" font-size="10.00">GeneratorContextGpu()</text>
<polygon fill="#666666" stroke="#666666" points="486,-39.5 486,-39.5 636,-39.5 636,-39.5 486,-39.5"/>
<polygon fill="#666666" stroke="#666666" points="486,-24.5 486,-24.5 636,-24.5 636,-24.5 486,-24.5"/>
<polygon fill="none" stroke="#666666" points="486,-7.5 486,-67.5 636,-67.5 636,-7.5 486,-7.5"/>
</a>
</g>
</g>
<!-- Node1&#45;&gt;Node5 -->
<g id="edge4_Node000001_Node000005" class="edge">
<title>Node1&#45;&gt;Node5</title>
<g id="a_edge4_Node000001_Node000005"><a xlink:title=" ">
<path fill="none" stroke="#63b8ff" d="M648.95,-104.46C631.94,-91.7 614.72,-78.79 600.07,-67.81"/>
<polygon fill="none" stroke="#63b8ff" points="647.17,-107.5 657.27,-110.7 651.37,-101.9 647.17,-107.5"/>
</a>
</g>
</g>
<!-- Node6 -->
<g id="Node000006" class="node">
<title>Node6</title>
<g id="a_Node000006"><a xlink:href="classMayaFlux_1_1Nodes_1_1Generator_1_1LogicContextGpu.html" target="_top" xlink:title="GPU&#45;accelerated context for logic node callbacks.">
<polygon fill="white" stroke="transparent" points="804,-67.5 654,-67.5 654,-7.5 804,-7.5 804,-67.5"/>
<text text-anchor="start" x="659" y="-55.5" font-family="Helvetica,sans-Serif" font-size="10.00">MayaFlux::Nodes::Generator</text>
<text text-anchor="start" x="684" y="-44.5" font-family="Helvetica,sans-Serif" font-size="10.00">::LogicContextGpu</text>
<text text-anchor="start" x="667.5" y="-29.5" font-family="Helvetica,sans-Serif" font-size="10.00">+</text>
<text text-anchor="start" x="690" y="-29.5" font-family="Helvetica,sans-Serif" font-size="10.00">gpu_float_buffer</text>
<text text-anchor="start" x="667.5" y="-14.5" font-family="Helvetica,sans-Serif" font-size="10.00">+</text>
<text text-anchor="start" x="690" y="-14.5" font-family="Helvetica,sans-Serif" font-size="10.00">LogicContextGpu()</text>
<polygon fill="#666666" stroke="#666666" points="654,-39.5 654,-39.5 804,-39.5 804,-39.5 654,-39.5"/>
<polygon fill="#666666" stroke="#666666" points="654,-24.5 654,-24.5 688,-24.5 688,-24.5 654,-24.5"/>
<polygon fill="#666666" stroke="#666666" points="688,-24.5 688,-24.5 804,-24.5 804,-24.5 688,-24.5"/>
<polygon fill="none" stroke="#666666" points="654,-7.5 654,-67.5 804,-67.5 804,-7.5 654,-7.5"/>
</a>
</g>
</g>
<!-- Node1&#45;&gt;Node6 -->
<g id="edge5_Node000001_Node000006" class="edge">
<title>Node1&#45;&gt;Node6</title>
<g id="a_edge5_Node000001_Node000006"><a xlink:title=" ">
<path fill="none" stroke="#63b8ff" d="M729,-100.63C729,-89.14 729,-77.69 729,-67.81"/>
<polygon fill="none" stroke="#63b8ff" points="725.5,-100.7 729,-110.7 732.5,-100.7 725.5,-100.7"/>
</a>
</g>
</g>
<!-- Node7 -->
<g id="Node000007" class="node">
<title>Node7</title>
<g id="a_Node000007"><a xlink:href="classMayaFlux_1_1Nodes_1_1Generator_1_1PolynomialContextGpu.html" target="_top" xlink:title=" ">
<polygon fill="white" stroke="transparent" points="972,-67.5 822,-67.5 822,-7.5 972,-7.5 972,-67.5"/>
<text text-anchor="start" x="827" y="-55.5" font-family="Helvetica,sans-Serif" font-size="10.00">MayaFlux::Nodes::Generator</text>
<text text-anchor="start" x="837.5" y="-44.5" font-family="Helvetica,sans-Serif" font-size="10.00">::PolynomialContextGpu</text>
<text text-anchor="start" x="828" y="-29.5" font-family="Helvetica,sans-Serif" font-size="10.00">+</text>
<text text-anchor="start" x="843" y="-29.5" font-family="Helvetica,sans-Serif" font-size="10.00">gpu_float_buffer</text>
<text text-anchor="start" x="828" y="-14.5" font-family="Helvetica,sans-Serif" font-size="10.00">+</text>
<text text-anchor="start" x="843" y="-14.5" font-family="Helvetica,sans-Serif" font-size="10.00">PolynomialContextGpu()</text>
<polygon fill="#666666" stroke="#666666" points="822,-39.5 822,-39.5 972,-39.5 972,-39.5 822,-39.5"/>
<polygon fill="#666666" stroke="#666666" points="822,-24.5 822,-24.5 841,-24.5 841,-24.5 822,-24.5"/>
<polygon fill="#666666" stroke="#666666" points="841,-24.5 841,-24.5 972,-24.5 972,-24.5 841,-24.5"/>
<polygon fill="none" stroke="#666666" points="822,-7.5 822,-67.5 972,-67.5 972,-7.5 822,-7.5"/>
</a>
</g>
</g>
<!-- Node1&#45;&gt;Node7 -->
<g id="edge6_Node000001_Node000007" class="edge">
<title>Node1&#45;&gt;Node7</title>
<g id="a_edge6_Node000001_Node000007"><a xlink:title=" ">
<path fill="none" stroke="#63b8ff" d="M809.05,-104.46C826.06,-91.7 843.28,-78.79 857.93,-67.81"/>
<polygon fill="none" stroke="#63b8ff" points="806.63,-101.9 800.73,-110.7 810.83,-107.5 806.63,-101.9"/>
</a>
</g>
</g>
<!-- Node8 -->
<g id="Node000008" class="node">
<title>Node8</title>
<g id="a_Node000008"><a xlink:href="classMayaFlux_1_1Nodes_1_1Generator_1_1RandomContextGpu.html" target="_top" xlink:title=" ">
<polygon fill="white" stroke="transparent" points="1140,-67.5 990,-67.5 990,-7.5 1140,-7.5 1140,-67.5"/>
<text text-anchor="start" x="995" y="-55.5" font-family="Helvetica,sans-Serif" font-size="10.00">MayaFlux::Nodes::Generator</text>
<text text-anchor="start" x="1012.5" y="-44.5" font-family="Helvetica,sans-Serif" font-size="10.00">::RandomContextGpu</text>
<text text-anchor="start" x="1063" y="-29.5" font-family="Helvetica,sans-Serif" font-size="10.00"> </text>
<text text-anchor="start" x="999.5" y="-14.5" font-family="Helvetica,sans-Serif" font-size="10.00">+</text>
<text text-anchor="start" x="1018" y="-14.5" font-family="Helvetica,sans-Serif" font-size="10.00">RandomContextGpu()</text>
<polygon fill="#666666" stroke="#666666" points="990,-39.5 990,-39.5 1140,-39.5 1140,-39.5 990,-39.5"/>
<polygon fill="#666666" stroke="#666666" points="990,-24.5 990,-24.5 1140,-24.5 1140,-24.5 990,-24.5"/>
<polygon fill="none" stroke="#666666" points="990,-7.5 990,-67.5 1140,-67.5 1140,-7.5 990,-7.5"/>
</a>
</g>
</g>
<!-- Node1&#45;&gt;Node8 -->
<g id="edge7_Node000001_Node000008" class="edge">
<title>Node1&#45;&gt;Node8</title>
<g id="a_edge7_Node000001_Node000008"><a xlink:title=" ">
<path fill="none" stroke="#63b8ff" d="M826.29,-131.69C873.31,-115.39 930.39,-94.96 981,-75 986.92,-72.67 993.04,-70.17 999.15,-67.62"/>
<polygon fill="none" stroke="#63b8ff" points="825.03,-128.43 816.73,-135 827.32,-135.04 825.03,-128.43"/>
</a>
</g>
</g>
<!-- Node9 -->
<g id="Node000009" class="node">
<title>Node9</title>
<g id="a_Node000009"><a xlink:href="classMayaFlux_1_1Nodes_1_1GpuSync_1_1ComputeOutContext.html" target="_top" xlink:title="Context for ComputeOutNode &#45; provides readback buffer access.">
<polygon fill="white" stroke="transparent" points="1302,-67.5 1158,-67.5 1158,-7.5 1302,-7.5 1302,-67.5"/>
<text text-anchor="start" x="1163" y="-55.5" font-family="Helvetica,sans-Serif" font-size="10.00">MayaFlux::Nodes::GpuSync</text>
<text text-anchor="start" x="1177" y="-44.5" font-family="Helvetica,sans-Serif" font-size="10.00">::ComputeOutContext</text>
<text text-anchor="start" x="1165.5" y="-29.5" font-family="Helvetica,sans-Serif" font-size="10.00">+</text>
<text text-anchor="start" x="1182" y="-29.5" font-family="Helvetica,sans-Serif" font-size="10.00">element_count</text>
<text text-anchor="start" x="1165.5" y="-14.5" font-family="Helvetica,sans-Serif" font-size="10.00">+</text>
<text text-anchor="start" x="1182" y="-14.5" font-family="Helvetica,sans-Serif" font-size="10.00">ComputeOutContext()</text>
<polygon fill="#666666" stroke="#666666" points="1158,-39.5 1158,-39.5 1302,-39.5 1302,-39.5 1158,-39.5"/>
<polygon fill="#666666" stroke="#666666" points="1158,-24.5 1158,-24.5 1180,-24.5 1180,-24.5 1158,-24.5"/>
<polygon fill="#666666" stroke="#666666" points="1180,-24.5 1180,-24.5 1302,-24.5 1302,-24.5 1180,-24.5"/>
<polygon fill="none" stroke="#666666" points="1158,-7.5 1158,-67.5 1302,-67.5 1302,-7.5 1158,-7.5"/>
</a>
</g>
</g>
<!-- Node1&#45;&gt;Node9 -->
<g id="edge8_Node000001_Node000009" class="edge">
<title>Node1&#45;&gt;Node9</title>
<g id="a_edge8_Node000001_Node000009"><a xlink:title=" ">
<path fill="none" stroke="#63b8ff" d="M826.93,-149.72C913.06,-135.3 1041.15,-110.34 1149,-75 1155.6,-72.84 1162.38,-70.31 1169.07,-67.61"/>
<polygon fill="none" stroke="#63b8ff" points="826.2,-146.3 816.9,-151.39 827.34,-153.2 826.2,-146.3"/>
</a>
</g>
</g>
<!-- Node10 -->
<g id="Node000010" class="node">
<title>Node10</title>
<g id="a_Node000010"><a xlink:href="classMayaFlux_1_1Nodes_1_1GpuSync_1_1TextureContext.html" target="_top" xlink:title="Context for TextureNode &#45; provides pixel buffer access.">
<polygon fill="white" stroke="transparent" points="1464,-75 1320,-75 1320,0 1464,0 1464,-75"/>
<text text-anchor="start" x="1325" y="-62.5" font-family="Helvetica,sans-Serif" font-size="10.00">MayaFlux::Nodes::GpuSync</text>
<text text-anchor="start" x="1351.5" y="-51.5" font-family="Helvetica,sans-Serif" font-size="10.00">::TextureContext</text>
<text text-anchor="start" x="1334" y="-36.5" font-family="Helvetica,sans-Serif" font-size="10.00">+</text>
<text text-anchor="start" x="1357" y="-36.5" font-family="Helvetica,sans-Serif" font-size="10.00">height</text>
<text text-anchor="start" x="1334" y="-21.5" font-family="Helvetica,sans-Serif" font-size="10.00">+</text>
<text text-anchor="start" x="1357" y="-21.5" font-family="Helvetica,sans-Serif" font-size="10.00">width</text>
<text text-anchor="start" x="1334" y="-6.5" font-family="Helvetica,sans-Serif" font-size="10.00">+</text>
<text text-anchor="start" x="1357" y="-6.5" font-family="Helvetica,sans-Serif" font-size="10.00">TextureContext()</text>
<polygon fill="#666666" stroke="#666666" points="1320,-46.5 1320,-46.5 1464,-46.5 1464,-46.5 1320,-46.5"/>
<polygon fill="#666666" stroke="#666666" points="1320,-16.5 1320,-16.5 1355,-16.5 1355,-16.5 1320,-16.5"/>
<polygon fill="#666666" stroke="#666666" points="1355,-16.5 1355,-16.5 1464,-16.5 1464,-16.5 1355,-16.5"/>
<polygon fill="none" stroke="#666666" points="1320,0 1320,-75 1464,-75 1464,0 1320,0"/>
</a>
</g>
</g>
<!-- Node1&#45;&gt;Node10 -->
<g id="edge9_Node000001_Node000010" class="edge">
<title>Node1&#45;&gt;Node10</title>
<g id="a_edge9_Node000001_Node000010"><a xlink:title=" ">
<path fill="none" stroke="#63b8ff" d="M826.91,-157.57C944.02,-147.44 1145.04,-124.16 1311,-75 1313.96,-74.12 1316.95,-73.16 1319.95,-72.13"/>
<polygon fill="none" stroke="#63b8ff" points="826.56,-154.09 816.89,-158.43 827.15,-161.07 826.56,-154.09"/>
</a>
</g>
</g>
</g>
</svg>

<g id="navigator" transform="translate(0 0)" fill="#404254">
  <rect fill="#f2f5e9" fill-opacity="0.5" stroke="#606060" stroke-width=".5" x="0" y="0" width="60" height="60"/>
  <use id="zoomplus" xlink:href="#zoomPlus" x="17" y="9" onmousedown="handleZoom(evt,'in')"/>
  <use id="zoomminus" xlink:href="#zoomMin" x="42" y="9" onmousedown="handleZoom(evt,'out')"/>
  <use id="reset" xlink:href="#resetDef" x="30" y="36" onmousedown="handleReset()"/>
   <use id="arrowup" xlink:href="#arrowUp" x="0" y="0" onmousedown="handlePan(0,-1)"/>
  <use id="arrowright" xlink:href="#arrowRight" x="0" y="0" onmousedown="handlePan(1,0)"/>
  <use id="arrowdown" xlink:href="#arrowDown" x="0" y="0" onmousedown="handlePan(0,1)"/>
  <use id="arrowleft" xlink:href="#arrowLeft" x="0" y="0" onmousedown="handlePan(-1,0)"/>
</g>
<svg viewBox="0 0 15 15" width="100%" height="30px" preserveAspectRatio="xMaxYMin meet">
 <g id="arrow_out" transform="scale(0.3 0.3)">
  <a xlink:href="classMayaFlux_1_1Nodes_1_1GpuVectorData__inherit__graph_org.svg" target="_base">
   <rect id="button" ry="5" rx="5" y="6" x="6" height="38" width="38"
        fill="#f2f5e9" fill-opacity="0.5" stroke="#606060" stroke-width="1.0"/>
   <path id="arrow"
     d="M 11.500037,31.436501 C 11.940474,20.09759 22.043105,11.32322 32.158766,21.979434 L 37.068811,17.246167 C 37.068811,17.246167 37.088388,32 37.088388,32 L 22.160133,31.978069 C 22.160133,31.978069 26.997745,27.140456 26.997745,27.140456 C 18.528582,18.264221 13.291696,25.230495 11.500037,31.436501 z"
     style="fill:#404040;"/>
  </a>
 </g>
</svg>

<style type='text/css'>
<![CDATA[
[data-mouse-over-selected='false'] { opacity: 0.7; }
[data-mouse-over-selected='true']  { opacity: 1.0; }
]]>
</style>
<script type="application/ecmascript"><![CDATA[
document.addEventListener('DOMContentLoaded', (event) => {
  highlightEdges();
  highlightAdjacentNodes();
});
]]></script>
</svg>
