<?xml version="1.0" encoding="UTF-8" standalone="no"?>
<!DOCTYPE svg PUBLIC "-//W3C//DTD SVG 1.1//EN"
 "http://www.w3.org/Graphics/SVG/1.1/DTD/svg11.dtd">
<!-- Generated by graphviz version 2.43.0 (0)
 -->
<!-- Title: MayaFlux::Buffers::BufferDownloadProcessor::download_device_local Pages: 1 -->
<svg width="515pt" height="130pt"
 viewBox="0.00 0.00 515.00 130.00" xmlns="http://www.w3.org/2000/svg" xmlns:xlink="http://www.w3.org/1999/xlink">
<g id="graph0" class="graph" transform="scale(1 1) rotate(0) translate(4 126)">
<title>MayaFlux::Buffers::BufferDownloadProcessor::download_device_local</title>
<!-- Node1 -->
<g id="Node000001" class="node">
<title>Node1</title>
<g id="a_Node000001"><a xlink:title=" ">
<polygon fill="#999999" stroke="#666666" points="142,-68 0,-68 0,-27 142,-27 142,-68"/>
<text text-anchor="start" x="8" y="-56" font-family="Helvetica,sans-Serif" font-size="10.00">MayaFlux::Buffers::</text>
<text text-anchor="start" x="8" y="-45" font-family="Helvetica,sans-Serif" font-size="10.00">BufferDownloadProcessor</text>
<text text-anchor="middle" x="71" y="-34" font-family="Helvetica,sans-Serif" font-size="10.00">::download_device_local</text>
</a>
</g>
</g>
<!-- Node2 -->
<g id="Node000002" class="node">
<title>Node2</title>
<g id="a_Node000002"><a xlink:href="namespaceMayaFlux_1_1Buffers_ad3e1272df9634f271f195e4b46b49da8.html#ad3e1272df9634f271f195e4b46b49da8" target="_top" xlink:title="Download data from a device&#45;local buffer using a staging buffer.">
<polygon fill="white" stroke="#666666" points="314,-89.5 184,-89.5 184,-59.5 314,-59.5 314,-89.5"/>
<text text-anchor="start" x="192" y="-77.5" font-family="Helvetica,sans-Serif" font-size="10.00">MayaFlux::Buffers::</text>
<text text-anchor="middle" x="249" y="-66.5" font-family="Helvetica,sans-Serif" font-size="10.00">download_device_local</text>
</a>
</g>
</g>
<!-- Node1&#45;&gt;Node2 -->
<g id="edge1_Node000001_Node000002" class="edge">
<title>Node1&#45;&gt;Node2</title>
<g id="a_edge1_Node000001_Node000002"><a xlink:title=" ">
<path fill="none" stroke="#63b8ff" d="M142.07,-58.25C152.53,-59.85 163.34,-61.51 173.88,-63.13"/>
<polygon fill="#63b8ff" stroke="#63b8ff" points="173.47,-66.61 183.88,-64.66 174.53,-59.69 173.47,-66.61"/>
</a>
</g>
</g>
<!-- Node5 -->
<g id="Node000005" class="node">
<title>Node5</title>
<g id="a_Node000005"><a xlink:href="classMayaFlux_1_1Buffers_1_1BufferDownloadProcessor_ab5189f153d5a98914b171aeece316d33.html#ab5189f153d5a98914b171aeece316d33" target="_top" xlink:title=" ">
<polygon fill="white" stroke="#666666" points="320,-41 178,-41 178,0 320,0 320,-41"/>
<text text-anchor="start" x="186" y="-29" font-family="Helvetica,sans-Serif" font-size="10.00">MayaFlux::Buffers::</text>
<text text-anchor="start" x="186" y="-18" font-family="Helvetica,sans-Serif" font-size="10.00">BufferDownloadProcessor</text>
<text text-anchor="middle" x="249" y="-7" font-family="Helvetica,sans-Serif" font-size="10.00">::ensure_staging_buffer</text>
</a>
</g>
</g>
<!-- Node1&#45;&gt;Node5 -->
<g id="edge4_Node000001_Node000005" class="edge">
<title>Node1&#45;&gt;Node5</title>
<g id="a_edge4_Node000001_Node000005"><a xlink:title=" ">
<path fill="none" stroke="#63b8ff" d="M142.07,-36.75C150.54,-35.45 159.25,-34.12 167.85,-32.8"/>
<polygon fill="#63b8ff" stroke="#63b8ff" points="168.53,-36.23 177.89,-31.26 167.47,-29.31 168.53,-36.23"/>
</a>
</g>
</g>
<!-- Node3 -->
<g id="Node000003" class="node">
<title>Node3</title>
<g id="a_Node000003"><a xlink:href="classMayaFlux_1_1Registry_1_1BackendRegistry_a0c7a59c0847791ed0915dcd64e8df783.html#a0c7a59c0847791ed0915dcd64e8df783" target="_top" xlink:title="Query for a backend service.">
<polygon fill="white" stroke="#666666" points="494,-122 369,-122 369,-81 494,-81 494,-122"/>
<text text-anchor="start" x="377" y="-110" font-family="Helvetica,sans-Serif" font-size="10.00">MayaFlux::Registry</text>
<text text-anchor="start" x="377" y="-99" font-family="Helvetica,sans-Serif" font-size="10.00">::BackendRegistry::get</text>
<text text-anchor="middle" x="431.5" y="-88" font-family="Helvetica,sans-Serif" font-size="10.00">_service</text>
</a>
</g>
</g>
<!-- Node2&#45;&gt;Node3 -->
<g id="edge2_Node000002_Node000003" class="edge">
<title>Node2&#45;&gt;Node3</title>
<g id="a_edge2_Node000002_Node000003"><a xlink:title=" ">
<path fill="none" stroke="#63b8ff" d="M314.15,-84.1C328.64,-86.26 344.11,-88.58 358.88,-90.79"/>
<polygon fill="#63b8ff" stroke="#63b8ff" points="358.57,-94.28 368.98,-92.3 359.61,-87.36 358.57,-94.28"/>
</a>
</g>
</g>
<!-- Node4 -->
<g id="Node000004" class="node">
<title>Node4</title>
<g id="a_Node000004"><a xlink:href="classMayaFlux_1_1Registry_1_1BackendRegistry_aa28c6f5592e5893508bafb62aefcc496.html#aa28c6f5592e5893508bafb62aefcc496" target="_top" xlink:title="Get the global registry instance.">
<polygon fill="white" stroke="#666666" points="507,-62.5 356,-62.5 356,-32.5 507,-32.5 507,-62.5"/>
<text text-anchor="start" x="364" y="-50.5" font-family="Helvetica,sans-Serif" font-size="10.00">MayaFlux::Registry</text>
<text text-anchor="middle" x="431.5" y="-39.5" font-family="Helvetica,sans-Serif" font-size="10.00">::BackendRegistry::instance</text>
</a>
</g>
</g>
<!-- Node2&#45;&gt;Node4 -->
<g id="edge3_Node000002_Node000004" class="edge">
<title>Node2&#45;&gt;Node4</title>
<g id="a_edge3_Node000002_Node000004"><a xlink:title=" ">
<path fill="none" stroke="#63b8ff" d="M314.15,-64.9C324.36,-63.38 335.06,-61.78 345.66,-60.19"/>
<polygon fill="#63b8ff" stroke="#63b8ff" points="346.4,-63.62 355.77,-58.68 345.37,-56.7 346.4,-63.62"/>
</a>
</g>
</g>
</g>
</svg>
