<?xml version="1.0" encoding="UTF-8" standalone="no"?>
<!DOCTYPE svg PUBLIC "-//W3C//DTD SVG 1.1//EN"
 "http://www.w3.org/Graphics/SVG/1.1/DTD/svg11.dtd">
<!-- Generated by graphviz version 2.43.0 (0)
 -->
<!-- Title: MayaFlux::Kakshya::WindowContainer::image_at Pages: 1 -->
<svg width="505pt" height="205pt"
 viewBox="0.00 0.00 505.00 204.50" xmlns="http://www.w3.org/2000/svg" xmlns:xlink="http://www.w3.org/1999/xlink">
<g id="graph0" class="graph" transform="scale(1 1) rotate(0) translate(4 200.5)">
<title>MayaFlux::Kakshya::WindowContainer::image_at</title>
<!-- Node1 -->
<g id="Node000001" class="node">
<title>Node1</title>
<g id="a_Node000001"><a xlink:title="Upload m_data[frame_index] reusing a caller&#45;supplied staging buffer.">
<polygon fill="#999999" stroke="#666666" points="155,-105 0,-105 0,-75 155,-75 155,-105"/>
<text text-anchor="start" x="8" y="-93" font-family="Helvetica,sans-Serif" font-size="10.00">MayaFlux::Kakshya::</text>
<text text-anchor="middle" x="77.5" y="-82" font-family="Helvetica,sans-Serif" font-size="10.00">WindowContainer::image_at</text>
</a>
</g>
</g>
<!-- Node2 -->
<g id="Node000002" class="node">
<title>Node2</title>
<g id="a_Node000002"><a xlink:href="structMayaFlux_1_1Kakshya_1_1ContainerDataStructure_a04ba106a40af90463702de9810eb6f6e.html#a04ba106a40af90463702de9810eb6f6e" target="_top" xlink:title="Extract height from image/video dimensions.">
<polygon fill="white" stroke="#666666" points="330.5,-196.5 199.5,-196.5 199.5,-155.5 330.5,-155.5 330.5,-196.5"/>
<text text-anchor="start" x="207.5" y="-184.5" font-family="Helvetica,sans-Serif" font-size="10.00">MayaFlux::Kakshya::</text>
<text text-anchor="start" x="207.5" y="-173.5" font-family="Helvetica,sans-Serif" font-size="10.00">ContainerDataStructure</text>
<text text-anchor="middle" x="265" y="-162.5" font-family="Helvetica,sans-Serif" font-size="10.00">::get_height</text>
</a>
</g>
</g>
<!-- Node1&#45;&gt;Node2 -->
<g id="edge1_Node000001_Node000002" class="edge">
<title>Node1&#45;&gt;Node2</title>
<g id="a_edge1_Node000001_Node000002"><a xlink:title=" ">
<path fill="none" stroke="#63b8ff" d="M106.36,-105.01C128.92,-116.94 161.66,-133.77 191,-147 194.37,-148.52 197.84,-150.04 201.36,-151.55"/>
<polygon fill="#63b8ff" stroke="#63b8ff" points="200.16,-154.84 210.73,-155.49 202.87,-148.39 200.16,-154.84"/>
</a>
</g>
</g>
<!-- Node3 -->
<g id="Node000003" class="node">
<title>Node3</title>
<g id="a_Node000003"><a xlink:href="structMayaFlux_1_1Kakshya_1_1ContainerDataStructure_ad25f58eab842676d1cda72fb4dfe9017.html#ad25f58eab842676d1cda72fb4dfe9017" target="_top" xlink:title="Extract width from image/video dimensions.">
<polygon fill="white" stroke="#666666" points="330.5,-137.5 199.5,-137.5 199.5,-96.5 330.5,-96.5 330.5,-137.5"/>
<text text-anchor="start" x="207.5" y="-125.5" font-family="Helvetica,sans-Serif" font-size="10.00">MayaFlux::Kakshya::</text>
<text text-anchor="start" x="207.5" y="-114.5" font-family="Helvetica,sans-Serif" font-size="10.00">ContainerDataStructure</text>
<text text-anchor="middle" x="265" y="-103.5" font-family="Helvetica,sans-Serif" font-size="10.00">::get_width</text>
</a>
</g>
</g>
<!-- Node1&#45;&gt;Node3 -->
<g id="edge2_Node000001_Node000003" class="edge">
<title>Node1&#45;&gt;Node3</title>
<g id="a_edge2_Node000001_Node000003"><a xlink:title=" ">
<path fill="none" stroke="#63b8ff" d="M155.02,-101.14C166.33,-102.78 177.97,-104.48 189.24,-106.12"/>
<polygon fill="#63b8ff" stroke="#63b8ff" points="189.07,-109.63 199.47,-107.61 190.08,-102.7 189.07,-109.63"/>
</a>
</g>
</g>
<!-- Node4 -->
<g id="Node000004" class="node">
<title>Node4</title>
<g id="a_Node000004"><a xlink:href="classMayaFlux_1_1Portal_1_1Graphics_1_1TextureLoom_a6887ad297693c2392be7960daab06002.html#a6887ad297693c2392be7960daab06002" target="_top" xlink:title=" ">
<polygon fill="white" stroke="#666666" points="339,-78 191,-78 191,-48 339,-48 339,-78"/>
<text text-anchor="start" x="199" y="-66" font-family="Helvetica,sans-Serif" font-size="10.00">MayaFlux::Portal::Graphics</text>
<text text-anchor="middle" x="265" y="-55" font-family="Helvetica,sans-Serif" font-size="10.00">::TextureLoom::instance</text>
</a>
</g>
</g>
<!-- Node1&#45;&gt;Node4 -->
<g id="edge3_Node000001_Node000004" class="edge">
<title>Node1&#45;&gt;Node4</title>
<g id="a_edge3_Node000001_Node000004"><a xlink:title=" ">
<path fill="none" stroke="#63b8ff" d="M155.02,-78.86C163.56,-77.62 172.28,-76.35 180.9,-75.1"/>
<polygon fill="#63b8ff" stroke="#63b8ff" points="181.55,-78.54 190.94,-73.63 180.54,-71.61 181.55,-78.54"/>
</a>
</g>
</g>
<!-- Node5 -->
<g id="Node000005" class="node">
<title>Node5</title>
<g id="a_Node000005"><a xlink:href="namespaceMayaFlux_1_1Kakshya_ae1dd319d71f7aa09fa3cca52132be64a.html#ae1dd319d71f7aa09fa3cca52132be64a" target="_top" xlink:title="Query the actual vk::Format in use by the window&#39;s live swapchain, translated back to the MayaFlux su...">
<polygon fill="white" stroke="#666666" points="327,-30 203,-30 203,0 327,0 327,-30"/>
<text text-anchor="start" x="211" y="-18" font-family="Helvetica,sans-Serif" font-size="10.00">MayaFlux::Kakshya::</text>
<text text-anchor="middle" x="265" y="-7" font-family="Helvetica,sans-Serif" font-size="10.00">query_surface_format</text>
</a>
</g>
</g>
<!-- Node1&#45;&gt;Node5 -->
<g id="edge4_Node000001_Node000005" class="edge">
<title>Node1&#45;&gt;Node5</title>
<g id="a_edge4_Node000001_Node000005"><a xlink:title=" ">
<path fill="none" stroke="#63b8ff" d="M109.63,-74.79C132,-64.13 163.03,-49.9 191,-39 195.85,-37.11 200.91,-35.24 206.02,-33.43"/>
<polygon fill="#63b8ff" stroke="#63b8ff" points="207.53,-36.6 215.83,-30.02 205.24,-29.99 207.53,-36.6"/>
</a>
</g>
</g>
<!-- Node6 -->
<g id="Node000006" class="node">
<title>Node6</title>
<g id="a_Node000006"><a xlink:href="namespaceMayaFlux_1_1Core_a536f388ac516606e0df343ebf0047db6.html#a536f388ac516606e0df343ebf0047db6" target="_top" xlink:title="Reverse&#45;map a vk::Format to the nearest GraphicsSurfaceInfo::SurfaceFormat.">
<polygon fill="white" stroke="#666666" points="497,-30 375,-30 375,0 497,0 497,-30"/>
<text text-anchor="start" x="383" y="-18" font-family="Helvetica,sans-Serif" font-size="10.00">MayaFlux::Core::from</text>
<text text-anchor="middle" x="436" y="-7" font-family="Helvetica,sans-Serif" font-size="10.00">_vk_format</text>
</a>
</g>
</g>
<!-- Node5&#45;&gt;Node6 -->
<g id="edge5_Node000005_Node000006" class="edge">
<title>Node5&#45;&gt;Node6</title>
<g id="a_edge5_Node000005_Node000006"><a xlink:title=" ">
<path fill="none" stroke="#63b8ff" d="M327.01,-15C339.2,-15 352.1,-15 364.57,-15"/>
<polygon fill="#63b8ff" stroke="#63b8ff" points="364.93,-18.5 374.93,-15 364.93,-11.5 364.93,-18.5"/>
</a>
</g>
</g>
</g>
</svg>
