<?xml version="1.0" encoding="UTF-8" standalone="no"?>
<!DOCTYPE svg PUBLIC "-//W3C//DTD SVG 1.1//EN"
 "http://www.w3.org/Graphics/SVG/1.1/DTD/svg11.dtd">
<!-- Generated by graphviz version 2.43.0 (0)
 -->
<!-- Title: MayaFlux::Buffers::VKBuffer::set_vertex_layout Pages: 1 -->
<!--zoomable 207 -->

<svg id="main" version="1.1" xmlns="http://www.w3.org/2000/svg" xmlns:xlink="http://www.w3.org/1999/xlink" xml:space="preserve" onload="init(evt)">
<style type="text/css"><![CDATA[
.node, .edge {opacity: 0.7;}
.node.selected, .edge.selected {opacity: 1;}
.edge:hover path { stroke: red; }
.edge:hover polygon { stroke: red; fill: red; }
]]></style>

<defs>
  <circle id="rim" cx="0" cy="0" r="7"/>
  <circle id="rim2" cx="0" cy="0" r="3.5"/>
  <g id="zoomPlus">
    <use xlink:href="#rim" fill="#404040"><set attributeName="fill" to="#808080" begin="zoomplus.mouseover" end="zoomplus.mouseout"/></use>
    <path d="M-4,0h8M0,-4v8" fill="none" stroke="white" stroke-width="1.5" pointer-events="none"/>
  </g>
  <g id="zoomMin">
    <use xlink:href="#rim" fill="#404040"><set attributeName="fill" to="#808080" begin="zoomminus.mouseover" end="zoomminus.mouseout"/></use>
    <path d="M-4,0h8" fill="none" stroke="white" stroke-width="1.5" pointer-events="none"/>
  </g>
  <g id="arrowUp" transform="translate(30 24)">
    <use xlink:href="#rim"/>
    <path pointer-events="none" fill="none" stroke="white" stroke-width="1.5" d="M0,-3.0v7 M-2.5,-0.5L0,-3.0L2.5,-0.5"/>
  </g>
  <g id="arrowRight" transform="rotate(90) translate(36 -43)">
    <use xlink:href="#rim"/>
    <path pointer-events="none" fill="none" stroke="white" stroke-width="1.5" d="M0,-3.0v7 M-2.5,-0.5L0,-3.0L2.5,-0.5"/>
  </g>
  <g id="arrowDown" transform="rotate(180) translate(-30 -48)">
    <use xlink:href="#rim"/>
    <path pointer-events="none" fill="none" stroke="white" stroke-width="1.5" d="M0,-3.0v7 M-2.5,-0.5L0,-3.0L2.5,-0.5"/>
  </g>
  <g id="arrowLeft" transform="rotate(270) translate(-36 17)">
    <use xlink:href="#rim"/>
    <path pointer-events="none" fill="none" stroke="white" stroke-width="1.5" d="M0,-3.0v7 M-2.5,-0.5L0,-3.0L2.5,-0.5"/>
  </g>
  <g id="resetDef">
    <use xlink:href="#rim2" fill="#404040"><set attributeName="fill" to="#808080" begin="reset.mouseover" end="reset.mouseout"/></use>
  </g>
</defs>
<script type="application/ecmascript">
var viewWidth = 528;
var viewHeight = 207;
var sectionId = 'dynsection-1';
</script>
<script type="application/ecmascript" xlink:href="svg.min.js"/>
<svg id="graph" class="graph">
<g id="viewport">
<title>MayaFlux::Buffers::VKBuffer::set_vertex_layout</title>
<!-- Node1 -->
<g id="Node000001" class="node">
<title>Node1</title>
<g id="a_Node000001"><a xlink:title="Set vertex layout for this buffer.">
<polygon fill="#999999" stroke="#666666" points="520,-100 403,-100 403,-59 520,-59 520,-100"/>
<text text-anchor="start" x="411" y="-88" font-family="Helvetica,sans-Serif" font-size="10.00">MayaFlux::Buffers::</text>
<text text-anchor="start" x="411" y="-77" font-family="Helvetica,sans-Serif" font-size="10.00">VKBuffer::set_vertex</text>
<text text-anchor="middle" x="461.5" y="-66" font-family="Helvetica,sans-Serif" font-size="10.00">_layout</text>
</a>
</g>
</g>
<!-- Node2 -->
<g id="Node000002" class="node">
<title>Node2</title>
<g id="a_Node000002"><a xlink:href="classMayaFlux_1_1Buffers_1_1TextureBuffer_ad4dfd30af6ecb53741917052bf839ccb.html#ad4dfd30af6ecb53741917052bf839ccb" target="_top" xlink:title=" ">
<polygon fill="white" stroke="#666666" points="354,-159 223,-159 223,-118 354,-118 354,-159"/>
<text text-anchor="start" x="231" y="-147" font-family="Helvetica,sans-Serif" font-size="10.00">MayaFlux::Buffers::</text>
<text text-anchor="start" x="231" y="-136" font-family="Helvetica,sans-Serif" font-size="10.00">TextureBuffer::generate</text>
<text text-anchor="middle" x="288.5" y="-125" font-family="Helvetica,sans-Serif" font-size="10.00">_default_quad</text>
</a>
</g>
</g>
<!-- Node1&#45;&gt;Node2 -->
<g id="edge1_Node000001_Node000002" class="edge">
<title>Node1&#45;&gt;Node2</title>
<g id="a_edge1_Node000001_Node000002"><a xlink:title=" ">
<path fill="none" stroke="#63b8ff" d="M392.75,-102.88C378.32,-107.85 363.18,-113.08 349.08,-117.94"/>
<polygon fill="#63b8ff" stroke="#63b8ff" points="394.3,-106.04 402.61,-99.47 392.01,-99.43 394.3,-106.04"/>
</a>
</g>
</g>
<!-- Node5 -->
<g id="Node000005" class="node">
<title>Node5</title>
<g id="a_Node000005"><a xlink:href="classMayaFlux_1_1Buffers_1_1NodeTextureBuffer_ac0b2d907cfdd660dec29065570f5f479.html#ac0b2d907cfdd660dec29065570f5f479" target="_top" xlink:title=" ">
<polygon fill="white" stroke="#666666" points="367,-100 210,-100 210,-59 367,-59 367,-100"/>
<text text-anchor="start" x="218" y="-88" font-family="Helvetica,sans-Serif" font-size="10.00">MayaFlux::Buffers::</text>
<text text-anchor="start" x="218" y="-77" font-family="Helvetica,sans-Serif" font-size="10.00">NodeTextureBuffer::generate</text>
<text text-anchor="middle" x="288.5" y="-66" font-family="Helvetica,sans-Serif" font-size="10.00">_fullscreen_quad</text>
</a>
</g>
</g>
<!-- Node1&#45;&gt;Node5 -->
<g id="edge4_Node000001_Node000005" class="edge">
<title>Node1&#45;&gt;Node5</title>
<g id="a_edge4_Node000001_Node000005"><a xlink:title=" ">
<path fill="none" stroke="#63b8ff" d="M392.53,-79.5C384.16,-79.5 375.55,-79.5 367.04,-79.5"/>
<polygon fill="#63b8ff" stroke="#63b8ff" points="392.61,-83 402.61,-79.5 392.61,-76 392.61,-83"/>
</a>
</g>
</g>
<!-- Node7 -->
<g id="Node000007" class="node">
<title>Node7</title>
<g id="a_Node000007"><a xlink:href="classMayaFlux_1_1Buffers_1_1ComputeMeshBuffer_ab4729cb5d1de7e0de8b5b31289331ef2.html#ab4729cb5d1de7e0de8b5b31289331ef2" target="_top" xlink:title="Setup processors with a processing token.">
<polygon fill="white" stroke="#666666" points="363,-41 214,-41 214,0 363,0 363,-41"/>
<text text-anchor="start" x="222" y="-29" font-family="Helvetica,sans-Serif" font-size="10.00">MayaFlux::Buffers::</text>
<text text-anchor="start" x="222" y="-18" font-family="Helvetica,sans-Serif" font-size="10.00">ComputeMeshBuffer::setup</text>
<text text-anchor="middle" x="288.5" y="-7" font-family="Helvetica,sans-Serif" font-size="10.00">_processors</text>
</a>
</g>
</g>
<!-- Node1&#45;&gt;Node7 -->
<g id="edge6_Node000001_Node000007" class="edge">
<title>Node1&#45;&gt;Node7</title>
<g id="a_edge6_Node000001_Node000007"><a xlink:title=" ">
<path fill="none" stroke="#63b8ff" d="M392.75,-56.12C378.32,-51.15 363.18,-45.92 349.08,-41.06"/>
<polygon fill="#63b8ff" stroke="#63b8ff" points="392.01,-59.57 402.61,-59.53 394.3,-52.96 392.01,-59.57"/>
</a>
</g>
</g>
<!-- Node3 -->
<g id="Node000003" class="node">
<title>Node3</title>
<g id="a_Node000003"><a xlink:href="classMayaFlux_1_1Buffers_1_1TextureBuffer_ac591a11585eecc22824a7411e4f02dab.html#ac591a11585eecc22824a7411e4f02dab" target="_top" xlink:title="Create texture buffer with dimensions.">
<polygon fill="white" stroke="#666666" points="163.5,-198.5 10.5,-198.5 10.5,-168.5 163.5,-168.5 163.5,-198.5"/>
<text text-anchor="start" x="18.5" y="-186.5" font-family="Helvetica,sans-Serif" font-size="10.00">MayaFlux::Buffers::</text>
<text text-anchor="middle" x="87" y="-175.5" font-family="Helvetica,sans-Serif" font-size="10.00">TextureBuffer::TextureBuffer</text>
</a>
</g>
</g>
<!-- Node2&#45;&gt;Node3 -->
<g id="edge2_Node000002_Node000003" class="edge">
<title>Node2&#45;&gt;Node3</title>
<g id="a_edge2_Node000002_Node000003"><a xlink:title=" ">
<path fill="none" stroke="#63b8ff" d="M212.9,-155.33C193.85,-159.63 173.48,-164.22 154.84,-168.42"/>
<polygon fill="#63b8ff" stroke="#63b8ff" points="213.74,-158.72 222.73,-153.11 212.2,-151.9 213.74,-158.72"/>
</a>
</g>
</g>
<!-- Node4 -->
<g id="Node000004" class="node">
<title>Node4</title>
<g id="a_Node000004"><a xlink:href="classMayaFlux_1_1Buffers_1_1TextureBuffer_a3653b902b83109d353d43bc4c8389e2a.html#a3653b902b83109d353d43bc4c8389e2a" target="_top" xlink:title="Reset to default fullscreen quad Uses position and scale to generate quad geometry.">
<polygon fill="white" stroke="#666666" points="174,-150.5 0,-150.5 0,-120.5 174,-120.5 174,-150.5"/>
<text text-anchor="start" x="8" y="-138.5" font-family="Helvetica,sans-Serif" font-size="10.00">MayaFlux::Buffers::</text>
<text text-anchor="middle" x="87" y="-127.5" font-family="Helvetica,sans-Serif" font-size="10.00">TextureBuffer::use_default_quad</text>
</a>
</g>
</g>
<!-- Node2&#45;&gt;Node4 -->
<g id="edge3_Node000002_Node000004" class="edge">
<title>Node2&#45;&gt;Node4</title>
<g id="a_edge3_Node000002_Node000004"><a xlink:title=" ">
<path fill="none" stroke="#63b8ff" d="M212.41,-137.37C199.95,-137.18 186.94,-136.99 174.23,-136.8"/>
<polygon fill="#63b8ff" stroke="#63b8ff" points="212.68,-140.88 222.73,-137.53 212.78,-133.88 212.68,-140.88"/>
</a>
</g>
</g>
<!-- Node6 -->
<g id="Node000006" class="node">
<title>Node6</title>
<g id="a_Node000006"><a xlink:href="classMayaFlux_1_1Buffers_1_1NodeTextureBuffer_ac67634c77e2bdb1c6e7c6f5bceb492c1.html#ac67634c77e2bdb1c6e7c6f5bceb492c1" target="_top" xlink:title="Initialize the buffer, create GPU texture, and setup processors.">
<polygon fill="white" stroke="#666666" points="157,-100 17,-100 17,-59 157,-59 157,-100"/>
<text text-anchor="start" x="25" y="-88" font-family="Helvetica,sans-Serif" font-size="10.00">MayaFlux::Buffers::</text>
<text text-anchor="start" x="25" y="-77" font-family="Helvetica,sans-Serif" font-size="10.00">NodeTextureBuffer::setup</text>
<text text-anchor="middle" x="87" y="-66" font-family="Helvetica,sans-Serif" font-size="10.00">_processors</text>
</a>
</g>
</g>
<!-- Node5&#45;&gt;Node6 -->
<g id="edge5_Node000005_Node000006" class="edge">
<title>Node5&#45;&gt;Node6</title>
<g id="a_edge5_Node000005_Node000006"><a xlink:title=" ">
<path fill="none" stroke="#63b8ff" d="M199.51,-79.5C185.29,-79.5 170.74,-79.5 157.05,-79.5"/>
<polygon fill="#63b8ff" stroke="#63b8ff" points="199.8,-83 209.8,-79.5 199.8,-76 199.8,-83"/>
</a>
</g>
</g>
</g>
</svg>

<g id="navigator" transform="translate(0 0)" fill="#404254">
  <rect fill="#f2f5e9" fill-opacity="0.5" stroke="#606060" stroke-width=".5" x="0" y="0" width="60" height="60"/>
  <use id="zoomplus" xlink:href="#zoomPlus" x="17" y="9" onmousedown="handleZoom(evt,'in')"/>
  <use id="zoomminus" xlink:href="#zoomMin" x="42" y="9" onmousedown="handleZoom(evt,'out')"/>
  <use id="reset" xlink:href="#resetDef" x="30" y="36" onmousedown="handleReset()"/>
   <use id="arrowup" xlink:href="#arrowUp" x="0" y="0" onmousedown="handlePan(0,-1)"/>
  <use id="arrowright" xlink:href="#arrowRight" x="0" y="0" onmousedown="handlePan(1,0)"/>
  <use id="arrowdown" xlink:href="#arrowDown" x="0" y="0" onmousedown="handlePan(0,1)"/>
  <use id="arrowleft" xlink:href="#arrowLeft" x="0" y="0" onmousedown="handlePan(-1,0)"/>
</g>
<svg viewBox="0 0 15 15" width="100%" height="30px" preserveAspectRatio="xMaxYMin meet">
 <g id="arrow_out" transform="scale(0.3 0.3)">
  <a xlink:href="classMayaFlux_1_1Buffers_1_1VKBuffer_a16b3cbfb638d1ce2063d8b9436faf7ec_a16b3cbfb638d1ce2063d8b9436faf7ec_icgraph_org.svg" target="_base">
   <rect id="button" ry="5" rx="5" y="6" x="6" height="38" width="38"
        fill="#f2f5e9" fill-opacity="0.5" stroke="#606060" stroke-width="1.0"/>
   <path id="arrow"
     d="M 11.500037,31.436501 C 11.940474,20.09759 22.043105,11.32322 32.158766,21.979434 L 37.068811,17.246167 C 37.068811,17.246167 37.088388,32 37.088388,32 L 22.160133,31.978069 C 22.160133,31.978069 26.997745,27.140456 26.997745,27.140456 C 18.528582,18.264221 13.291696,25.230495 11.500037,31.436501 z"
     style="fill:#404040;"/>
  </a>
 </g>
</svg>

<style type='text/css'>
<![CDATA[
[data-mouse-over-selected='false'] { opacity: 0.7; }
[data-mouse-over-selected='true']  { opacity: 1.0; }
]]>
</style>
<script type="application/ecmascript"><![CDATA[
document.addEventListener('DOMContentLoaded', (event) => {
  highlightEdges();
  highlightAdjacentNodes();
});
]]></script>
</svg>
