<?xml version="1.0" encoding="UTF-8" standalone="no"?>
<!DOCTYPE svg PUBLIC "-//W3C//DTD SVG 1.1//EN"
 "http://www.w3.org/Graphics/SVG/1.1/DTD/svg11.dtd">
<!-- Generated by graphviz version 2.43.0 (0)
 -->
<!-- Title: MayaFlux::Buffers::VKBufferProcessor::initialize_buffer_service Pages: 1 -->
<svg width="388pt" height="431pt"
 viewBox="0.00 0.00 388.00 430.50" xmlns="http://www.w3.org/2000/svg" xmlns:xlink="http://www.w3.org/1999/xlink">
<g id="graph0" class="graph" transform="scale(1 1) rotate(0) translate(4 426.5)">
<title>MayaFlux::Buffers::VKBufferProcessor::initialize_buffer_service</title>
<!-- Node1 -->
<g id="Node000001" class="node">
<title>Node1</title>
<g id="a_Node000001"><a xlink:title=" ">
<polygon fill="#999999" stroke="#666666" points="380,-223.5 225,-223.5 225,-182.5 380,-182.5 380,-223.5"/>
<text text-anchor="start" x="233" y="-211.5" font-family="Helvetica,sans-Serif" font-size="10.00">MayaFlux::Buffers::</text>
<text text-anchor="start" x="233" y="-200.5" font-family="Helvetica,sans-Serif" font-size="10.00">VKBufferProcessor::initialize</text>
<text text-anchor="middle" x="302.5" y="-189.5" font-family="Helvetica,sans-Serif" font-size="10.00">_buffer_service</text>
</a>
</g>
</g>
<!-- Node2 -->
<g id="Node000002" class="node">
<title>Node2</title>
<g id="a_Node000002"><a xlink:href="classMayaFlux_1_1Buffers_1_1CompositeGeometryProcessor_a1ce9682a70041fdc63c1f282048e3ae3.html#a1ce9682a70041fdc63c1f282048e3ae3" target="_top" xlink:title=" ">
<polygon fill="white" stroke="#666666" points="180,-422.5 9,-422.5 9,-381.5 180,-381.5 180,-422.5"/>
<text text-anchor="start" x="17" y="-410.5" font-family="Helvetica,sans-Serif" font-size="10.00">MayaFlux::Buffers::</text>
<text text-anchor="start" x="17" y="-399.5" font-family="Helvetica,sans-Serif" font-size="10.00">CompositeGeometryProcessor</text>
<text text-anchor="middle" x="94.5" y="-388.5" font-family="Helvetica,sans-Serif" font-size="10.00">::CompositeGeometryProcessor</text>
</a>
</g>
</g>
<!-- Node1&#45;&gt;Node2 -->
<g id="edge1_Node000001_Node000002" class="edge">
<title>Node1&#45;&gt;Node2</title>
<g id="a_edge1_Node000001_Node000002"><a xlink:title=" ">
<path fill="none" stroke="#63b8ff" d="M289.28,-233.11C272.33,-271.17 238.12,-336.16 189,-373 184.79,-376.16 180.22,-378.98 175.45,-381.5"/>
<polygon fill="#63b8ff" stroke="#63b8ff" points="292.64,-234.16 293.41,-223.59 286.22,-231.37 292.64,-234.16"/>
</a>
</g>
</g>
<!-- Node3 -->
<g id="Node000003" class="node">
<title>Node3</title>
<g id="a_Node000003"><a xlink:href="classMayaFlux_1_1Buffers_1_1GeometryBindingsProcessor_ad7fe2cab033061bbcd082997c4833426.html#ad7fe2cab033061bbcd082997c4833426" target="_top" xlink:title=" ">
<polygon fill="white" stroke="#666666" points="175,-363.5 14,-363.5 14,-322.5 175,-322.5 175,-363.5"/>
<text text-anchor="start" x="22" y="-351.5" font-family="Helvetica,sans-Serif" font-size="10.00">MayaFlux::Buffers::</text>
<text text-anchor="start" x="22" y="-340.5" font-family="Helvetica,sans-Serif" font-size="10.00">GeometryBindingsProcessor</text>
<text text-anchor="middle" x="94.5" y="-329.5" font-family="Helvetica,sans-Serif" font-size="10.00">::GeometryBindingsProcessor</text>
</a>
</g>
</g>
<!-- Node1&#45;&gt;Node3 -->
<g id="edge2_Node000001_Node000003" class="edge">
<title>Node1&#45;&gt;Node3</title>
<g id="a_edge2_Node000001_Node000003"><a xlink:title=" ">
<path fill="none" stroke="#63b8ff" d="M279.27,-231.66C258.44,-256.7 225.16,-292.34 189,-314 183.9,-317.06 178.44,-319.82 172.83,-322.31"/>
<polygon fill="#63b8ff" stroke="#63b8ff" points="282.23,-233.57 285.84,-223.61 276.8,-229.14 282.23,-233.57"/>
</a>
</g>
</g>
<!-- Node4 -->
<g id="Node000004" class="node">
<title>Node4</title>
<g id="a_Node000004"><a xlink:href="classMayaFlux_1_1Buffers_1_1MeshNetworkProcessor_a7b2f6a09fdcda0013edbbc4733aa16e2.html#a7b2f6a09fdcda0013edbbc4733aa16e2" target="_top" xlink:title=" ">
<polygon fill="white" stroke="#666666" points="163,-304.5 26,-304.5 26,-263.5 163,-263.5 163,-304.5"/>
<text text-anchor="start" x="34" y="-292.5" font-family="Helvetica,sans-Serif" font-size="10.00">MayaFlux::Buffers::</text>
<text text-anchor="start" x="34" y="-281.5" font-family="Helvetica,sans-Serif" font-size="10.00">MeshNetworkProcessor</text>
<text text-anchor="middle" x="94.5" y="-270.5" font-family="Helvetica,sans-Serif" font-size="10.00">::MeshNetworkProcessor</text>
</a>
</g>
</g>
<!-- Node1&#45;&gt;Node4 -->
<g id="edge3_Node000001_Node000004" class="edge">
<title>Node1&#45;&gt;Node4</title>
<g id="a_edge3_Node000001_Node000004"><a xlink:title=" ">
<path fill="none" stroke="#63b8ff" d="M250.17,-227.77C231.16,-236.55 209.29,-246.18 189,-254 180.57,-257.25 171.62,-260.44 162.73,-263.46"/>
<polygon fill="#63b8ff" stroke="#63b8ff" points="251.66,-230.94 259.25,-223.55 248.71,-224.59 251.66,-230.94"/>
</a>
</g>
</g>
<!-- Node5 -->
<g id="Node000005" class="node">
<title>Node5</title>
<g id="a_Node000005"><a xlink:href="classMayaFlux_1_1Buffers_1_1MeshProcessor_acefbb70db1a751681f6c564c17d2c517.html#acefbb70db1a751681f6c564c17d2c517" target="_top" xlink:title=" ">
<polygon fill="white" stroke="#666666" points="179.5,-245 9.5,-245 9.5,-215 179.5,-215 179.5,-245"/>
<text text-anchor="start" x="17.5" y="-233" font-family="Helvetica,sans-Serif" font-size="10.00">MayaFlux::Buffers::</text>
<text text-anchor="middle" x="94.5" y="-222" font-family="Helvetica,sans-Serif" font-size="10.00">MeshProcessor::MeshProcessor</text>
</a>
</g>
</g>
<!-- Node1&#45;&gt;Node5 -->
<g id="edge4_Node000001_Node000005" class="edge">
<title>Node1&#45;&gt;Node5</title>
<g id="a_edge4_Node000001_Node000005"><a xlink:title=" ">
<path fill="none" stroke="#63b8ff" d="M214.66,-214.38C203.03,-215.91 191.12,-217.47 179.53,-218.99"/>
<polygon fill="#63b8ff" stroke="#63b8ff" points="215.33,-217.82 224.79,-213.05 214.42,-210.88 215.33,-217.82"/>
</a>
</g>
</g>
<!-- Node6 -->
<g id="Node000006" class="node">
<title>Node6</title>
<g id="a_Node000006"><a xlink:href="classMayaFlux_1_1Buffers_1_1NetworkGeometryProcessor_a617e8ba68d2c47d1f24185ba6dc201fc.html#a617e8ba68d2c47d1f24185ba6dc201fc" target="_top" xlink:title=" ">
<polygon fill="white" stroke="#666666" points="174.5,-196.5 14.5,-196.5 14.5,-155.5 174.5,-155.5 174.5,-196.5"/>
<text text-anchor="start" x="22.5" y="-184.5" font-family="Helvetica,sans-Serif" font-size="10.00">MayaFlux::Buffers::</text>
<text text-anchor="start" x="22.5" y="-173.5" font-family="Helvetica,sans-Serif" font-size="10.00">NetworkGeometryProcessor</text>
<text text-anchor="middle" x="94.5" y="-162.5" font-family="Helvetica,sans-Serif" font-size="10.00">::NetworkGeometryProcessor</text>
</a>
</g>
</g>
<!-- Node1&#45;&gt;Node6 -->
<g id="edge5_Node000001_Node000006" class="edge">
<title>Node1&#45;&gt;Node6</title>
<g id="a_edge5_Node000001_Node000006"><a xlink:title=" ">
<path fill="none" stroke="#63b8ff" d="M214.72,-191.63C201.44,-189.89 187.79,-188.1 174.68,-186.38"/>
<polygon fill="#63b8ff" stroke="#63b8ff" points="214.42,-195.12 224.79,-192.95 215.33,-188.18 214.42,-195.12"/>
</a>
</g>
</g>
<!-- Node7 -->
<g id="Node000007" class="node">
<title>Node7</title>
<g id="a_Node000007"><a xlink:href="classMayaFlux_1_1Buffers_1_1NodeTextureProcessor_adae71dd4710ab205314552ae539c8d75.html#adae71dd4710ab205314552ae539c8d75" target="_top" xlink:title=" ">
<polygon fill="white" stroke="#666666" points="160,-137.5 29,-137.5 29,-96.5 160,-96.5 160,-137.5"/>
<text text-anchor="start" x="37" y="-125.5" font-family="Helvetica,sans-Serif" font-size="10.00">MayaFlux::Buffers::</text>
<text text-anchor="start" x="37" y="-114.5" font-family="Helvetica,sans-Serif" font-size="10.00">NodeTextureProcessor</text>
<text text-anchor="middle" x="94.5" y="-103.5" font-family="Helvetica,sans-Serif" font-size="10.00">::NodeTextureProcessor</text>
</a>
</g>
</g>
<!-- Node1&#45;&gt;Node7 -->
<g id="edge6_Node000001_Node000007" class="edge">
<title>Node1&#45;&gt;Node7</title>
<g id="a_edge6_Node000001_Node000007"><a xlink:title=" ">
<path fill="none" stroke="#63b8ff" d="M254.99,-177.87C235,-167.59 211.17,-156.01 189,-147 179.76,-143.24 169.86,-139.64 160.09,-136.31"/>
<polygon fill="#63b8ff" stroke="#63b8ff" points="253.4,-180.99 263.89,-182.49 256.63,-174.77 253.4,-180.99"/>
</a>
</g>
</g>
<!-- Node8 -->
<g id="Node000008" class="node">
<title>Node8</title>
<g id="a_Node000008"><a xlink:href="classMayaFlux_1_1Buffers_1_1ShaderProcessor_ad1cdc408cecf642a54335eae32c14c03.html#ad1cdc408cecf642a54335eae32c14c03" target="_top" xlink:title="Construct processor with full configuration.">
<polygon fill="white" stroke="#666666" points="187,-78 2,-78 2,-48 187,-48 187,-78"/>
<text text-anchor="start" x="10" y="-66" font-family="Helvetica,sans-Serif" font-size="10.00">MayaFlux::Buffers::</text>
<text text-anchor="middle" x="94.5" y="-55" font-family="Helvetica,sans-Serif" font-size="10.00">ShaderProcessor::ShaderProcessor</text>
</a>
</g>
</g>
<!-- Node1&#45;&gt;Node8 -->
<g id="edge7_Node000001_Node000008" class="edge">
<title>Node1&#45;&gt;Node8</title>
<g id="a_edge7_Node000001_Node000008"><a xlink:title=" ">
<path fill="none" stroke="#63b8ff" d="M280.67,-174.18C260.21,-147.93 226.64,-110 189,-88 182.47,-84.19 175.35,-80.94 168.04,-78.18"/>
<polygon fill="#63b8ff" stroke="#63b8ff" points="277.99,-176.44 286.85,-182.26 283.56,-172.19 277.99,-176.44"/>
</a>
</g>
</g>
<!-- Node9 -->
<g id="Node000009" class="node">
<title>Node9</title>
<g id="a_Node000009"><a xlink:href="classMayaFlux_1_1Buffers_1_1TextureProcessor_afb8d66e97b9ee7ccf639ce60794fe789.html#afb8d66e97b9ee7ccf639ce60794fe789" target="_top" xlink:title=" ">
<polygon fill="white" stroke="#666666" points="189,-30 0,-30 0,0 189,0 189,-30"/>
<text text-anchor="start" x="8" y="-18" font-family="Helvetica,sans-Serif" font-size="10.00">MayaFlux::Buffers::</text>
<text text-anchor="middle" x="94.5" y="-7" font-family="Helvetica,sans-Serif" font-size="10.00">TextureProcessor::TextureProcessor</text>
</a>
</g>
</g>
<!-- Node1&#45;&gt;Node9 -->
<g id="edge8_Node000001_Node000009" class="edge">
<title>Node1&#45;&gt;Node9</title>
<g id="a_edge8_Node000001_Node000009"><a xlink:title=" ">
<path fill="none" stroke="#63b8ff" d="M289,-172.99C271.95,-135.79 237.83,-73.15 189,-39 184.06,-35.54 178.65,-32.58 173.02,-30.05"/>
<polygon fill="#63b8ff" stroke="#63b8ff" points="285.89,-174.6 293.16,-182.31 292.28,-171.75 285.89,-174.6"/>
</a>
</g>
</g>
</g>
</svg>
