<?xml version="1.0" encoding="UTF-8" standalone="no"?>
<!DOCTYPE svg PUBLIC "-//W3C//DTD SVG 1.1//EN"
 "http://www.w3.org/Graphics/SVG/1.1/DTD/svg11.dtd">
<!-- Generated by graphviz version 2.43.0 (0)
 -->
<!-- Title: MayaFlux::Nodes::Network::ResonatorNetwork::set_frequency Pages: 1 -->
<!--zoomable 108 -->

<svg id="main" version="1.1" xmlns="http://www.w3.org/2000/svg" xmlns:xlink="http://www.w3.org/1999/xlink" xml:space="preserve" onload="init(evt)">
<style type="text/css"><![CDATA[
.node, .edge {opacity: 0.7;}
.node.selected, .edge.selected {opacity: 1;}
.edge:hover path { stroke: red; }
.edge:hover polygon { stroke: red; fill: red; }
]]></style>

<defs>
  <circle id="rim" cx="0" cy="0" r="7"/>
  <circle id="rim2" cx="0" cy="0" r="3.5"/>
  <g id="zoomPlus">
    <use xlink:href="#rim" fill="#404040"><set attributeName="fill" to="#808080" begin="zoomplus.mouseover" end="zoomplus.mouseout"/></use>
    <path d="M-4,0h8M0,-4v8" fill="none" stroke="white" stroke-width="1.5" pointer-events="none"/>
  </g>
  <g id="zoomMin">
    <use xlink:href="#rim" fill="#404040"><set attributeName="fill" to="#808080" begin="zoomminus.mouseover" end="zoomminus.mouseout"/></use>
    <path d="M-4,0h8" fill="none" stroke="white" stroke-width="1.5" pointer-events="none"/>
  </g>
  <g id="arrowUp" transform="translate(30 24)">
    <use xlink:href="#rim"/>
    <path pointer-events="none" fill="none" stroke="white" stroke-width="1.5" d="M0,-3.0v7 M-2.5,-0.5L0,-3.0L2.5,-0.5"/>
  </g>
  <g id="arrowRight" transform="rotate(90) translate(36 -43)">
    <use xlink:href="#rim"/>
    <path pointer-events="none" fill="none" stroke="white" stroke-width="1.5" d="M0,-3.0v7 M-2.5,-0.5L0,-3.0L2.5,-0.5"/>
  </g>
  <g id="arrowDown" transform="rotate(180) translate(-30 -48)">
    <use xlink:href="#rim"/>
    <path pointer-events="none" fill="none" stroke="white" stroke-width="1.5" d="M0,-3.0v7 M-2.5,-0.5L0,-3.0L2.5,-0.5"/>
  </g>
  <g id="arrowLeft" transform="rotate(270) translate(-36 17)">
    <use xlink:href="#rim"/>
    <path pointer-events="none" fill="none" stroke="white" stroke-width="1.5" d="M0,-3.0v7 M-2.5,-0.5L0,-3.0L2.5,-0.5"/>
  </g>
  <g id="resetDef">
    <use xlink:href="#rim2" fill="#404040"><set attributeName="fill" to="#808080" begin="reset.mouseover" end="reset.mouseout"/></use>
  </g>
</defs>
<script type="application/ecmascript">
var viewWidth = 941;
var viewHeight = 108;
var sectionId = 'dynsection-1';
</script>
<script type="application/ecmascript" xlink:href="svg.min.js"/>
<svg id="graph" class="graph">
<g id="viewport">
<title>MayaFlux::Nodes::Network::ResonatorNetwork::set_frequency</title>
<!-- Node1 -->
<g id="Node000001" class="node">
<title>Node1</title>
<g id="a_Node000001"><a xlink:title="Set centre frequency of a single resonator and recompute its coefficients.">
<polygon fill="#999999" stroke="#666666" points="933,-70 784,-70 784,-29 933,-29 933,-70"/>
<text text-anchor="start" x="792" y="-58" font-family="Helvetica,sans-Serif" font-size="10.00">MayaFlux::Nodes::Network</text>
<text text-anchor="start" x="792" y="-47" font-family="Helvetica,sans-Serif" font-size="10.00">::ResonatorNetwork::set</text>
<text text-anchor="middle" x="858.5" y="-36" font-family="Helvetica,sans-Serif" font-size="10.00">_frequency</text>
</a>
</g>
</g>
<!-- Node2 -->
<g id="Node000002" class="node">
<title>Node2</title>
<g id="a_Node000002"><a xlink:href="classMayaFlux_1_1Nodes_1_1Network_1_1ResonatorNetwork_aed915868aaa9e030e2fe8ead8cfbdbe9.html#aed915868aaa9e030e2fe8ead8cfbdbe9" target="_top" xlink:title="Apply ONE_TO_ONE values from a source network to the named parameter.">
<polygon fill="white" stroke="#666666" points="563,-100 414,-100 414,-59 563,-59 563,-100"/>
<text text-anchor="start" x="422" y="-88" font-family="Helvetica,sans-Serif" font-size="10.00">MayaFlux::Nodes::Network</text>
<text text-anchor="start" x="422" y="-77" font-family="Helvetica,sans-Serif" font-size="10.00">::ResonatorNetwork::apply</text>
<text text-anchor="middle" x="488.5" y="-66" font-family="Helvetica,sans-Serif" font-size="10.00">_one_to_one_parameter</text>
</a>
</g>
</g>
<!-- Node1&#45;&gt;Node2 -->
<g id="edge1_Node000001_Node000002" class="edge">
<title>Node1&#45;&gt;Node2</title>
<g id="a_edge1_Node000001_Node000002"><a xlink:title=" ">
<path fill="none" stroke="#63b8ff" d="M773.94,-56.31C710.52,-61.48 624.15,-68.52 563.27,-73.49"/>
<polygon fill="#63b8ff" stroke="#63b8ff" points="774.23,-59.8 783.91,-55.5 773.66,-52.82 774.23,-59.8"/>
</a>
</g>
</g>
<!-- Node5 -->
<g id="Node000005" class="node">
<title>Node5</title>
<g id="a_Node000005"><a xlink:href="classMayaFlux_1_1Nodes_1_1Network_1_1ResonatorNetwork_a89422384f591cf7be40324957a734cba.html#a89422384f591cf7be40324957a734cba" target="_top" xlink:title="Set centre frequency of all resonators uniformly.">
<polygon fill="white" stroke="#666666" points="748,-46 599,-46 599,-5 748,-5 748,-46"/>
<text text-anchor="start" x="607" y="-34" font-family="Helvetica,sans-Serif" font-size="10.00">MayaFlux::Nodes::Network</text>
<text text-anchor="start" x="607" y="-23" font-family="Helvetica,sans-Serif" font-size="10.00">::ResonatorNetwork::set</text>
<text text-anchor="middle" x="673.5" y="-12" font-family="Helvetica,sans-Serif" font-size="10.00">_all_frequencies</text>
</a>
</g>
</g>
<!-- Node1&#45;&gt;Node5 -->
<g id="edge4_Node000001_Node000005" class="edge">
<title>Node1&#45;&gt;Node5</title>
<g id="a_edge4_Node000001_Node000005"><a xlink:title=" ">
<path fill="none" stroke="#63b8ff" d="M773.89,-38.53C765.35,-37.41 756.72,-36.28 748.29,-35.18"/>
<polygon fill="#63b8ff" stroke="#63b8ff" points="773.49,-42.01 783.86,-39.84 774.4,-35.07 773.49,-42.01"/>
</a>
</g>
</g>
<!-- Node3 -->
<g id="Node000003" class="node">
<title>Node3</title>
<g id="a_Node000003"><a xlink:href="classMayaFlux_1_1Nodes_1_1Network_1_1ResonatorNetwork_aee31c5dd30c5a3f3dd7ad55c8ee2979e.html#aee31c5dd30c5a3f3dd7ad55c8ee2979e" target="_top" xlink:title="Apply all registered parameter mappings for the current cycle.">
<polygon fill="white" stroke="#666666" points="378,-70 225,-70 225,-29 378,-29 378,-70"/>
<text text-anchor="start" x="233" y="-58" font-family="Helvetica,sans-Serif" font-size="10.00">MayaFlux::Nodes::Network</text>
<text text-anchor="start" x="233" y="-47" font-family="Helvetica,sans-Serif" font-size="10.00">::ResonatorNetwork::update</text>
<text text-anchor="middle" x="301.5" y="-36" font-family="Helvetica,sans-Serif" font-size="10.00">_mapped_parameters</text>
</a>
</g>
</g>
<!-- Node2&#45;&gt;Node3 -->
<g id="edge2_Node000002_Node000003" class="edge">
<title>Node2&#45;&gt;Node3</title>
<g id="a_edge2_Node000002_Node000003"><a xlink:title=" ">
<path fill="none" stroke="#63b8ff" d="M403.82,-65.93C395.22,-64.54 386.52,-63.12 378.01,-61.75"/>
<polygon fill="#63b8ff" stroke="#63b8ff" points="403.42,-69.41 413.85,-67.56 404.54,-62.5 403.42,-69.41"/>
</a>
</g>
</g>
<!-- Node4 -->
<g id="Node000004" class="node">
<title>Node4</title>
<g id="a_Node000004"><a xlink:href="classMayaFlux_1_1Nodes_1_1Network_1_1ResonatorNetwork_ab3fa42f883efda46b4961b24c3654c2f.html#ab3fa42f883efda46b4961b24c3654c2f" target="_top" xlink:title="Processes num_samples through all resonators and accumulates output.">
<polygon fill="white" stroke="#666666" points="189,-64.5 0,-64.5 0,-34.5 189,-34.5 189,-64.5"/>
<text text-anchor="start" x="8" y="-52.5" font-family="Helvetica,sans-Serif" font-size="10.00">MayaFlux::Nodes::Network</text>
<text text-anchor="middle" x="94.5" y="-41.5" font-family="Helvetica,sans-Serif" font-size="10.00">::ResonatorNetwork::process_batch</text>
</a>
</g>
</g>
<!-- Node3&#45;&gt;Node4 -->
<g id="edge3_Node000003_Node000004" class="edge">
<title>Node3&#45;&gt;Node4</title>
<g id="a_edge3_Node000003_Node000004"><a xlink:title=" ">
<path fill="none" stroke="#63b8ff" d="M214.55,-49.5C206.12,-49.5 197.53,-49.5 189.02,-49.5"/>
<polygon fill="#63b8ff" stroke="#63b8ff" points="214.75,-53 224.75,-49.5 214.75,-46 214.75,-53"/>
</a>
</g>
</g>
<!-- Node6 -->
<g id="Node000006" class="node">
<title>Node6</title>
<g id="a_Node000006"><a xlink:href="classMayaFlux_1_1Nodes_1_1Network_1_1ResonatorNetwork_a82469548f9169caa240ef3e7c8beabbd.html#a82469548f9169caa240ef3e7c8beabbd" target="_top" xlink:title="Apply a BROADCAST value to the named parameter across all resonators.">
<polygon fill="white" stroke="#666666" points="563,-41 414,-41 414,0 563,0 563,-41"/>
<text text-anchor="start" x="422" y="-29" font-family="Helvetica,sans-Serif" font-size="10.00">MayaFlux::Nodes::Network</text>
<text text-anchor="start" x="422" y="-18" font-family="Helvetica,sans-Serif" font-size="10.00">::ResonatorNetwork::apply</text>
<text text-anchor="middle" x="488.5" y="-7" font-family="Helvetica,sans-Serif" font-size="10.00">_broadcast_parameter</text>
</a>
</g>
</g>
<!-- Node5&#45;&gt;Node6 -->
<g id="edge5_Node000005_Node000006" class="edge">
<title>Node5&#45;&gt;Node6</title>
<g id="a_edge5_Node000005_Node000006"><a xlink:title=" ">
<path fill="none" stroke="#63b8ff" d="M588.61,-23.21C580.16,-22.98 571.62,-22.74 563.29,-22.52"/>
<polygon fill="#63b8ff" stroke="#63b8ff" points="588.77,-26.71 598.86,-23.49 588.96,-19.72 588.77,-26.71"/>
</a>
</g>
</g>
<!-- Node6&#45;&gt;Node3 -->
<g id="edge6_Node000006_Node000003" class="edge">
<title>Node6&#45;&gt;Node3</title>
<g id="a_edge6_Node000006_Node000003"><a xlink:title=" ">
<path fill="none" stroke="#63b8ff" d="M403.82,-33.62C395.22,-34.97 386.52,-36.33 378.01,-37.66"/>
<polygon fill="#63b8ff" stroke="#63b8ff" points="404.51,-37.05 413.85,-32.04 403.43,-30.14 404.51,-37.05"/>
</a>
</g>
</g>
</g>
</svg>

<g id="navigator" transform="translate(0 0)" fill="#404254">
  <rect fill="#f2f5e9" fill-opacity="0.5" stroke="#606060" stroke-width=".5" x="0" y="0" width="60" height="60"/>
  <use id="zoomplus" xlink:href="#zoomPlus" x="17" y="9" onmousedown="handleZoom(evt,'in')"/>
  <use id="zoomminus" xlink:href="#zoomMin" x="42" y="9" onmousedown="handleZoom(evt,'out')"/>
  <use id="reset" xlink:href="#resetDef" x="30" y="36" onmousedown="handleReset()"/>
   <use id="arrowup" xlink:href="#arrowUp" x="0" y="0" onmousedown="handlePan(0,-1)"/>
  <use id="arrowright" xlink:href="#arrowRight" x="0" y="0" onmousedown="handlePan(1,0)"/>
  <use id="arrowdown" xlink:href="#arrowDown" x="0" y="0" onmousedown="handlePan(0,1)"/>
  <use id="arrowleft" xlink:href="#arrowLeft" x="0" y="0" onmousedown="handlePan(-1,0)"/>
</g>
<svg viewBox="0 0 15 15" width="100%" height="30px" preserveAspectRatio="xMaxYMin meet">
 <g id="arrow_out" transform="scale(0.3 0.3)">
  <a xlink:href="classMayaFlux_1_1Nodes_1_1Network_1_1ResonatorNetwork_a66387249a8bc89954017998babd26db9_a66387249a8bc89954017998babd26db9_icgraph_org.svg" target="_base">
   <rect id="button" ry="5" rx="5" y="6" x="6" height="38" width="38"
        fill="#f2f5e9" fill-opacity="0.5" stroke="#606060" stroke-width="1.0"/>
   <path id="arrow"
     d="M 11.500037,31.436501 C 11.940474,20.09759 22.043105,11.32322 32.158766,21.979434 L 37.068811,17.246167 C 37.068811,17.246167 37.088388,32 37.088388,32 L 22.160133,31.978069 C 22.160133,31.978069 26.997745,27.140456 26.997745,27.140456 C 18.528582,18.264221 13.291696,25.230495 11.500037,31.436501 z"
     style="fill:#404040;"/>
  </a>
 </g>
</svg>

<style type='text/css'>
<![CDATA[
[data-mouse-over-selected='false'] { opacity: 0.7; }
[data-mouse-over-selected='true']  { opacity: 1.0; }
]]>
</style>
<script type="application/ecmascript"><![CDATA[
document.addEventListener('DOMContentLoaded', (event) => {
  highlightEdges();
  highlightAdjacentNodes();
});
]]></script>
</svg>
