<?xml version="1.0" encoding="UTF-8" standalone="no"?>
<!DOCTYPE svg PUBLIC "-//W3C//DTD SVG 1.1//EN"
 "http://www.w3.org/Graphics/SVG/1.1/DTD/svg11.dtd">
<!-- Generated by graphviz version 2.43.0 (0)
 -->
<!-- Title: MayaFlux::Yantra::UniversalAnalyzer::apply_granularity_formatting Pages: 1 -->
<!--zoomable 116 -->

<svg id="main" version="1.1" xmlns="http://www.w3.org/2000/svg" xmlns:xlink="http://www.w3.org/1999/xlink" xml:space="preserve" onload="init(evt)">
<style type="text/css"><![CDATA[
.node, .edge {opacity: 0.7;}
.node.selected, .edge.selected {opacity: 1;}
.edge:hover path { stroke: red; }
.edge:hover polygon { stroke: red; fill: red; }
]]></style>

<defs>
  <circle id="rim" cx="0" cy="0" r="7"/>
  <circle id="rim2" cx="0" cy="0" r="3.5"/>
  <g id="zoomPlus">
    <use xlink:href="#rim" fill="#404040"><set attributeName="fill" to="#808080" begin="zoomplus.mouseover" end="zoomplus.mouseout"/></use>
    <path d="M-4,0h8M0,-4v8" fill="none" stroke="white" stroke-width="1.5" pointer-events="none"/>
  </g>
  <g id="zoomMin">
    <use xlink:href="#rim" fill="#404040"><set attributeName="fill" to="#808080" begin="zoomminus.mouseover" end="zoomminus.mouseout"/></use>
    <path d="M-4,0h8" fill="none" stroke="white" stroke-width="1.5" pointer-events="none"/>
  </g>
  <g id="arrowUp" transform="translate(30 24)">
    <use xlink:href="#rim"/>
    <path pointer-events="none" fill="none" stroke="white" stroke-width="1.5" d="M0,-3.0v7 M-2.5,-0.5L0,-3.0L2.5,-0.5"/>
  </g>
  <g id="arrowRight" transform="rotate(90) translate(36 -43)">
    <use xlink:href="#rim"/>
    <path pointer-events="none" fill="none" stroke="white" stroke-width="1.5" d="M0,-3.0v7 M-2.5,-0.5L0,-3.0L2.5,-0.5"/>
  </g>
  <g id="arrowDown" transform="rotate(180) translate(-30 -48)">
    <use xlink:href="#rim"/>
    <path pointer-events="none" fill="none" stroke="white" stroke-width="1.5" d="M0,-3.0v7 M-2.5,-0.5L0,-3.0L2.5,-0.5"/>
  </g>
  <g id="arrowLeft" transform="rotate(270) translate(-36 17)">
    <use xlink:href="#rim"/>
    <path pointer-events="none" fill="none" stroke="white" stroke-width="1.5" d="M0,-3.0v7 M-2.5,-0.5L0,-3.0L2.5,-0.5"/>
  </g>
  <g id="resetDef">
    <use xlink:href="#rim2" fill="#404040"><set attributeName="fill" to="#808080" begin="reset.mouseover" end="reset.mouseout"/></use>
  </g>
</defs>
<script type="application/ecmascript">
var viewWidth = 753;
var viewHeight = 116;
var sectionId = 'dynsection-0';
</script>
<script type="application/ecmascript" xlink:href="svg.min.js"/>
<svg id="graph" class="graph">
<g id="viewport">
<title>MayaFlux::Yantra::UniversalAnalyzer::apply_granularity_formatting</title>
<!-- Node1 -->
<g id="Node000001" class="node">
<title>Node1</title>
<g id="a_Node000001"><a xlink:title="Apply granularity&#45;based output formatting.">
<polygon fill="#999999" stroke="#666666" points="153,-89.5 0,-89.5 0,-48.5 153,-48.5 153,-89.5"/>
<text text-anchor="start" x="8" y="-77.5" font-family="Helvetica,sans-Serif" font-size="10.00">MayaFlux::Yantra::Universal</text>
<text text-anchor="start" x="8" y="-66.5" font-family="Helvetica,sans-Serif" font-size="10.00">Analyzer::apply_granularity</text>
<text text-anchor="middle" x="76.5" y="-55.5" font-family="Helvetica,sans-Serif" font-size="10.00">_formatting</text>
</a>
</g>
</g>
<!-- Node2 -->
<g id="Node000002" class="node">
<title>Node2</title>
<g id="a_Node000002"><a xlink:href="classMayaFlux_1_1Yantra_1_1UniversalAnalyzer_a1b40c841dc4fd2a704a855ca99454c13.html#a1b40c841dc4fd2a704a855ca99454c13" target="_top" xlink:title="Add attribution metadata to results (override for custom attribution)">
<polygon fill="white" stroke="#666666" points="548,-89.5 395,-89.5 395,-48.5 548,-48.5 548,-89.5"/>
<text text-anchor="start" x="403" y="-77.5" font-family="Helvetica,sans-Serif" font-size="10.00">MayaFlux::Yantra::Universal</text>
<text text-anchor="start" x="403" y="-66.5" font-family="Helvetica,sans-Serif" font-size="10.00">Analyzer::add_attribution</text>
<text text-anchor="middle" x="471.5" y="-55.5" font-family="Helvetica,sans-Serif" font-size="10.00">_metadata</text>
</a>
</g>
</g>
<!-- Node1&#45;&gt;Node2 -->
<g id="edge1_Node000001_Node000002" class="edge">
<title>Node1&#45;&gt;Node2</title>
<g id="a_edge1_Node000001_Node000002"><a xlink:title=" ">
<path fill="none" stroke="#63b8ff" d="M142.36,-89.52C157.51,-93.46 173.7,-96.98 189,-99 263.9,-108.9 284.1,-108.9 359,-99 371.07,-97.4 383.7,-94.88 395.93,-91.95"/>
<polygon fill="#63b8ff" stroke="#63b8ff" points="396.78,-95.34 405.64,-89.52 395.09,-88.55 396.78,-95.34"/>
</a>
</g>
</g>
<!-- Node5 -->
<g id="Node000005" class="node">
<title>Node5</title>
<g id="a_Node000005"><a xlink:href="classMayaFlux_1_1Yantra_1_1UniversalAnalyzer_ad2bc166262ab4cac5580db3854c9a1af.html#ad2bc166262ab4cac5580db3854c9a1af" target="_top" xlink:title="Create summary statistics from results (override for custom summaries)">
<polygon fill="white" stroke="#666666" points="350.5,-89.5 197.5,-89.5 197.5,-48.5 350.5,-48.5 350.5,-89.5"/>
<text text-anchor="start" x="205.5" y="-77.5" font-family="Helvetica,sans-Serif" font-size="10.00">MayaFlux::Yantra::Universal</text>
<text text-anchor="start" x="205.5" y="-66.5" font-family="Helvetica,sans-Serif" font-size="10.00">Analyzer::create_summary</text>
<text text-anchor="middle" x="274" y="-55.5" font-family="Helvetica,sans-Serif" font-size="10.00">_statistics</text>
</a>
</g>
</g>
<!-- Node1&#45;&gt;Node5 -->
<g id="edge4_Node000001_Node000005" class="edge">
<title>Node1&#45;&gt;Node5</title>
<g id="a_edge4_Node000001_Node000005"><a xlink:title=" ">
<path fill="none" stroke="#63b8ff" d="M153.09,-69C164.19,-69 175.7,-69 187,-69"/>
<polygon fill="#63b8ff" stroke="#63b8ff" points="187.29,-72.5 197.29,-69 187.29,-65.5 187.29,-72.5"/>
</a>
</g>
</g>
<!-- Node6 -->
<g id="Node000006" class="node">
<title>Node6</title>
<g id="a_Node000006"><a xlink:href="classMayaFlux_1_1Yantra_1_1UniversalAnalyzer_ab9a3fc19924f161a4371c3aec5c2f3fb.html#ab9a3fc19924f161a4371c3aec5c2f3fb" target="_top" xlink:title="Organize results into hierarchical groups (override for custom grouping)">
<polygon fill="white" stroke="#666666" points="359,-30 189,-30 189,0 359,0 359,-30"/>
<text text-anchor="start" x="197" y="-18" font-family="Helvetica,sans-Serif" font-size="10.00">MayaFlux::Yantra::Universal</text>
<text text-anchor="middle" x="274" y="-7" font-family="Helvetica,sans-Serif" font-size="10.00">Analyzer::organize_into_groups</text>
</a>
</g>
</g>
<!-- Node1&#45;&gt;Node6 -->
<g id="edge6_Node000001_Node000006" class="edge">
<title>Node1&#45;&gt;Node6</title>
<g id="a_edge6_Node000001_Node000006"><a xlink:title=" ">
<path fill="none" stroke="#63b8ff" d="M151.97,-48.43C170.63,-43.28 190.5,-37.79 208.63,-32.78"/>
<polygon fill="#63b8ff" stroke="#63b8ff" points="209.79,-36.09 218.5,-30.05 207.93,-29.34 209.79,-36.09"/>
</a>
</g>
</g>
<!-- Node3 -->
<g id="Node000003" class="node">
<title>Node3</title>
<g id="a_Node000003"><a xlink:href="classMayaFlux_1_1Yantra_1_1UniversalAnalyzer_a1c728257fcc6b2ffe3e7b01aaa41cf98.html#a1c728257fcc6b2ffe3e7b01aaa41cf98" target="_top" xlink:title="Gets the analysis type category for this analyzer.">
<polygon fill="white" stroke="#666666" points="741.5,-108 587.5,-108 587.5,-78 741.5,-78 741.5,-108"/>
<text text-anchor="start" x="595.5" y="-96" font-family="Helvetica,sans-Serif" font-size="10.00">MayaFlux::Yantra::Universal</text>
<text text-anchor="middle" x="664.5" y="-85" font-family="Helvetica,sans-Serif" font-size="10.00">Analyzer::get_analysis_type</text>
</a>
</g>
</g>
<!-- Node2&#45;&gt;Node3 -->
<g id="edge2_Node000002_Node000003" class="edge">
<title>Node2&#45;&gt;Node3</title>
<g id="a_edge2_Node000002_Node000003"><a xlink:title=" ">
<path fill="none" stroke="#63b8ff" d="M548.26,-78.52C557.77,-79.71 567.55,-80.94 577.21,-82.16"/>
<polygon fill="#63b8ff" stroke="#63b8ff" points="576.85,-85.64 587.2,-83.41 577.72,-78.69 576.85,-85.64"/>
</a>
</g>
</g>
<!-- Node4 -->
<g id="Node000004" class="node">
<title>Node4</title>
<g id="a_Node000004"><a xlink:href="classMayaFlux_1_1Yantra_1_1UniversalAnalyzer_accb8a50b514dc4d55f12ea261444f33e.html#accb8a50b514dc4d55f12ea261444f33e" target="_top" xlink:title="Get analyzer&#45;specific name (derived classes override this)">
<polygon fill="white" stroke="#666666" points="745,-60 584,-60 584,-30 745,-30 745,-60"/>
<text text-anchor="start" x="592" y="-48" font-family="Helvetica,sans-Serif" font-size="10.00">MayaFlux::Yantra::Universal</text>
<text text-anchor="middle" x="664.5" y="-37" font-family="Helvetica,sans-Serif" font-size="10.00">Analyzer::get_analyzer_name</text>
</a>
</g>
</g>
<!-- Node2&#45;&gt;Node4 -->
<g id="edge3_Node000002_Node000004" class="edge">
<title>Node2&#45;&gt;Node4</title>
<g id="a_edge3_Node000002_Node000004"><a xlink:title=" ">
<path fill="none" stroke="#63b8ff" d="M548.26,-59.48C556.65,-58.43 565.24,-57.35 573.78,-56.27"/>
<polygon fill="#63b8ff" stroke="#63b8ff" points="574.27,-59.74 583.75,-55.02 573.39,-52.79 574.27,-59.74"/>
</a>
</g>
</g>
<!-- Node5&#45;&gt;Node2 -->
<g id="edge5_Node000005_Node000002" class="edge">
<title>Node5&#45;&gt;Node2</title>
<g id="a_edge5_Node000005_Node000002"><a xlink:title=" ">
<path fill="none" stroke="#63b8ff" d="M350.59,-69C361.69,-69 373.2,-69 384.5,-69"/>
<polygon fill="#63b8ff" stroke="#63b8ff" points="384.79,-72.5 394.79,-69 384.79,-65.5 384.79,-72.5"/>
</a>
</g>
</g>
<!-- Node6&#45;&gt;Node2 -->
<g id="edge7_Node000006_Node000002" class="edge">
<title>Node6&#45;&gt;Node2</title>
<g id="a_edge7_Node000006_Node000002"><a xlink:title=" ">
<path fill="none" stroke="#63b8ff" d="M329.46,-30.04C347.15,-34.93 367.2,-40.47 386.53,-45.81"/>
<polygon fill="#63b8ff" stroke="#63b8ff" points="385.67,-49.2 396.24,-48.49 387.54,-42.45 385.67,-49.2"/>
</a>
</g>
</g>
</g>
</svg>

<g id="navigator" transform="translate(0 0)" fill="#404254">
  <rect fill="#f2f5e9" fill-opacity="0.5" stroke="#606060" stroke-width=".5" x="0" y="0" width="60" height="60"/>
  <use id="zoomplus" xlink:href="#zoomPlus" x="17" y="9" onmousedown="handleZoom(evt,'in')"/>
  <use id="zoomminus" xlink:href="#zoomMin" x="42" y="9" onmousedown="handleZoom(evt,'out')"/>
  <use id="reset" xlink:href="#resetDef" x="30" y="36" onmousedown="handleReset()"/>
   <use id="arrowup" xlink:href="#arrowUp" x="0" y="0" onmousedown="handlePan(0,-1)"/>
  <use id="arrowright" xlink:href="#arrowRight" x="0" y="0" onmousedown="handlePan(1,0)"/>
  <use id="arrowdown" xlink:href="#arrowDown" x="0" y="0" onmousedown="handlePan(0,1)"/>
  <use id="arrowleft" xlink:href="#arrowLeft" x="0" y="0" onmousedown="handlePan(-1,0)"/>
</g>
<svg viewBox="0 0 15 15" width="100%" height="30px" preserveAspectRatio="xMaxYMin meet">
 <g id="arrow_out" transform="scale(0.3 0.3)">
  <a xlink:href="classMayaFlux_1_1Yantra_1_1UniversalAnalyzer_aa17041f06b3f457a9ce9a1262c07821f_aa17041f06b3f457a9ce9a1262c07821f_cgraph_org.svg" target="_base">
   <rect id="button" ry="5" rx="5" y="6" x="6" height="38" width="38"
        fill="#f2f5e9" fill-opacity="0.5" stroke="#606060" stroke-width="1.0"/>
   <path id="arrow"
     d="M 11.500037,31.436501 C 11.940474,20.09759 22.043105,11.32322 32.158766,21.979434 L 37.068811,17.246167 C 37.068811,17.246167 37.088388,32 37.088388,32 L 22.160133,31.978069 C 22.160133,31.978069 26.997745,27.140456 26.997745,27.140456 C 18.528582,18.264221 13.291696,25.230495 11.500037,31.436501 z"
     style="fill:#404040;"/>
  </a>
 </g>
</svg>

<style type='text/css'>
<![CDATA[
[data-mouse-over-selected='false'] { opacity: 0.7; }
[data-mouse-over-selected='true']  { opacity: 1.0; }
]]>
</style>
<script type="application/ecmascript"><![CDATA[
document.addEventListener('DOMContentLoaded', (event) => {
  highlightEdges();
  highlightAdjacentNodes();
});
]]></script>
</svg>
