<?xml version="1.0" encoding="UTF-8" standalone="no"?>
<!DOCTYPE svg PUBLIC "-//W3C//DTD SVG 1.1//EN"
 "http://www.w3.org/Graphics/SVG/1.1/DTD/svg11.dtd">
<!-- Generated by graphviz version 2.43.0 (0)
 -->
<!-- Title: MayaFlux::Buffers::RenderProcessor::RenderProcessor Pages: 1 -->
<svg width="790pt" height="431pt"
 viewBox="0.00 0.00 790.00 430.97" xmlns="http://www.w3.org/2000/svg" xmlns:xlink="http://www.w3.org/1999/xlink">
<g id="graph0" class="graph" transform="scale(1 1) rotate(0) translate(4 426.97)">
<title>MayaFlux::Buffers::RenderProcessor::RenderProcessor</title>
<!-- Node1 -->
<g id="Node000001" class="node">
<title>Node1</title>
<g id="a_Node000001"><a xlink:title=" ">
<polygon fill="#999999" stroke="#666666" points="186,-244.97 0,-244.97 0,-214.97 186,-214.97 186,-244.97"/>
<text text-anchor="start" x="8" y="-232.97" font-family="Helvetica,sans-Serif" font-size="10.00">MayaFlux::Buffers::</text>
<text text-anchor="middle" x="93" y="-221.97" font-family="Helvetica,sans-Serif" font-size="10.00">RenderProcessor::RenderProcessor</text>
</a>
</g>
</g>
<!-- Node2 -->
<g id="Node000002" class="node">
<title>Node2</title>
<g id="a_Node000002"><a xlink:href="namespaceMayaFlux_1_1Portal_1_1Graphics_a715d57394465ff2924727d7c82d87e7b.html#a715d57394465ff2924727d7c82d87e7b" target="_top" xlink:title="Get the global shader compiler instance.">
<polygon fill="white" stroke="#666666" points="376,-345.97 228,-345.97 228,-315.97 376,-315.97 376,-345.97"/>
<text text-anchor="start" x="236" y="-333.97" font-family="Helvetica,sans-Serif" font-size="10.00">MayaFlux::Portal::Graphics</text>
<text text-anchor="middle" x="302" y="-322.97" font-family="Helvetica,sans-Serif" font-size="10.00">::get_shader_foundry</text>
</a>
</g>
</g>
<!-- Node1&#45;&gt;Node2 -->
<g id="edge1_Node000001_Node000002" class="edge">
<title>Node1&#45;&gt;Node2</title>
<g id="a_edge1_Node000001_Node000002"><a xlink:title=" ">
<path fill="none" stroke="#63b8ff" d="M124.99,-245.09C161.22,-262.77 221.28,-292.07 261,-311.45"/>
<polygon fill="#63b8ff" stroke="#63b8ff" points="259.61,-314.67 270.14,-315.91 262.68,-308.38 259.61,-314.67"/>
</a>
</g>
</g>
<!-- Node4 -->
<g id="Node000004" class="node">
<title>Node4</title>
<g id="a_Node000004"><a xlink:href="classMayaFlux_1_1Portal_1_1Graphics_1_1ShaderFoundry_ae87f819ac9d895c64a969332bcc120f1.html#ae87f819ac9d895c64a969332bcc120f1" target="_top" xlink:title="Universal shader loader &#45; auto&#45;detects source type.">
<polygon fill="white" stroke="#666666" points="382,-220.97 222,-220.97 222,-190.97 382,-190.97 382,-220.97"/>
<text text-anchor="start" x="230" y="-208.97" font-family="Helvetica,sans-Serif" font-size="10.00">MayaFlux::Portal::Graphics</text>
<text text-anchor="middle" x="302" y="-197.97" font-family="Helvetica,sans-Serif" font-size="10.00">::ShaderFoundry::load_shader</text>
</a>
</g>
</g>
<!-- Node1&#45;&gt;Node4 -->
<g id="edge3_Node000001_Node000004" class="edge">
<title>Node1&#45;&gt;Node4</title>
<g id="a_edge3_Node000001_Node000004"><a xlink:title=" ">
<path fill="none" stroke="#63b8ff" d="M186.3,-219.27C194.73,-218.29 203.26,-217.3 211.67,-216.33"/>
<polygon fill="#63b8ff" stroke="#63b8ff" points="212.31,-219.77 221.84,-215.15 211.5,-212.82 212.31,-219.77"/>
</a>
</g>
</g>
<!-- Node3 -->
<g id="Node000003" class="node">
<title>Node3</title>
<g id="a_Node000003"><a xlink:href="classMayaFlux_1_1Portal_1_1Graphics_1_1ShaderFoundry_ab22eaae6b8210236918b85f409fc4c49.html#ab22eaae6b8210236918b85f409fc4c49" target="_top" xlink:title=" ">
<polygon fill="white" stroke="#666666" points="566,-422.97 418,-422.97 418,-392.97 566,-392.97 566,-422.97"/>
<text text-anchor="start" x="426" y="-410.97" font-family="Helvetica,sans-Serif" font-size="10.00">MayaFlux::Portal::Graphics</text>
<text text-anchor="middle" x="492" y="-399.97" font-family="Helvetica,sans-Serif" font-size="10.00">::ShaderFoundry::instance</text>
</a>
</g>
</g>
<!-- Node2&#45;&gt;Node3 -->
<g id="edge2_Node000002_Node000003" class="edge">
<title>Node2&#45;&gt;Node3</title>
<g id="a_edge2_Node000002_Node000003"><a xlink:title=" ">
<path fill="none" stroke="#63b8ff" d="M333.34,-346.1C356.29,-357.27 388.75,-372.46 418,-383.97 422.77,-385.84 427.74,-387.69 432.76,-389.49"/>
<polygon fill="#63b8ff" stroke="#63b8ff" points="431.83,-392.87 442.42,-392.86 434.13,-386.26 431.83,-392.87"/>
</a>
</g>
</g>
<!-- Node5 -->
<g id="Node000005" class="node">
<title>Node5</title>
<g id="a_Node000005"><a xlink:href="classMayaFlux_1_1Portal_1_1Graphics_1_1ShaderFoundry_adfa75c7749cc2487c2fe9f4a714fc698.html#adfa75c7749cc2487c2fe9f4a714fc698" target="_top" xlink:title=" ">
<polygon fill="white" stroke="#666666" points="566,-197.47 418,-197.47 418,-156.47 566,-156.47 566,-197.47"/>
<text text-anchor="start" x="426" y="-185.47" font-family="Helvetica,sans-Serif" font-size="10.00">MayaFlux::Portal::Graphics</text>
<text text-anchor="start" x="426" y="-174.47" font-family="Helvetica,sans-Serif" font-size="10.00">::ShaderFoundry::compile</text>
<text text-anchor="middle" x="492" y="-163.47" font-family="Helvetica,sans-Serif" font-size="10.00">_from_file</text>
</a>
</g>
</g>
<!-- Node4&#45;&gt;Node5 -->
<g id="edge4_Node000004_Node000005" class="edge">
<title>Node4&#45;&gt;Node5</title>
<g id="a_edge4_Node000004_Node000005"><a xlink:title=" ">
<path fill="none" stroke="#63b8ff" d="M382.18,-193.75C390.69,-192.44 399.37,-191.1 407.93,-189.78"/>
<polygon fill="#63b8ff" stroke="#63b8ff" points="408.55,-193.23 417.9,-188.24 407.48,-186.31 408.55,-193.23"/>
</a>
</g>
</g>
<!-- Node8 -->
<g id="Node000008" class="node">
<title>Node8</title>
<g id="a_Node000008"><a xlink:href="classMayaFlux_1_1Portal_1_1Graphics_1_1ShaderFoundry_aa9c6a8bc1c6cc0082f4519bd71da28c5.html#aa9c6a8bc1c6cc0082f4519bd71da28c5" target="_top" xlink:title="Check if compiler is initialized.">
<polygon fill="white" stroke="#666666" points="773,-35.97 611,-35.97 611,-5.97 773,-5.97 773,-35.97"/>
<text text-anchor="start" x="619" y="-23.97" font-family="Helvetica,sans-Serif" font-size="10.00">MayaFlux::Portal::Graphics</text>
<text text-anchor="middle" x="692" y="-12.97" font-family="Helvetica,sans-Serif" font-size="10.00">::ShaderFoundry::is_initialized</text>
</a>
</g>
</g>
<!-- Node4&#45;&gt;Node8 -->
<g id="edge24_Node000004_Node000008" class="edge">
<title>Node4&#45;&gt;Node8</title>
<g id="a_edge24_Node000004_Node000008"><a xlink:title=" ">
<path fill="none" stroke="#63b8ff" d="M307.49,-190.77C319,-154.91 353.31,-65.32 418,-28.97 476.3,3.79 553.22,2.88 610.55,-4.54"/>
<polygon fill="#63b8ff" stroke="#63b8ff" points="610.27,-8.03 620.65,-5.94 611.23,-1.1 610.27,-8.03"/>
</a>
</g>
</g>
<!-- Node10 -->
<g id="Node000010" class="node">
<title>Node10</title>
<g id="a_Node000010"><a xlink:href="classMayaFlux_1_1Portal_1_1Graphics_1_1ShaderFoundry_acb22c14cebc9a18cf108a627d120667a.html#acb22c14cebc9a18cf108a627d120667a" target="_top" xlink:title=" ">
<polygon fill="white" stroke="#666666" points="566,-138.47 418,-138.47 418,-97.47 566,-97.47 566,-138.47"/>
<text text-anchor="start" x="426" y="-126.47" font-family="Helvetica,sans-Serif" font-size="10.00">MayaFlux::Portal::Graphics</text>
<text text-anchor="start" x="426" y="-115.47" font-family="Helvetica,sans-Serif" font-size="10.00">::ShaderFoundry::compile</text>
<text text-anchor="middle" x="492" y="-104.47" font-family="Helvetica,sans-Serif" font-size="10.00">_from_source</text>
</a>
</g>
</g>
<!-- Node4&#45;&gt;Node10 -->
<g id="edge9_Node000004_Node000010" class="edge">
<title>Node4&#45;&gt;Node10</title>
<g id="a_edge9_Node000004_Node000010"><a xlink:title=" ">
<path fill="none" stroke="#63b8ff" d="M330.52,-190.9C353.59,-178.51 387.55,-160.79 418,-146.97 421.2,-145.51 424.5,-144.06 427.84,-142.62"/>
<polygon fill="#63b8ff" stroke="#63b8ff" points="429.48,-145.73 437.33,-138.61 426.75,-139.28 429.48,-145.73"/>
</a>
</g>
</g>
<!-- Node11 -->
<g id="Node000011" class="node">
<title>Node11</title>
<g id="a_Node000011"><a xlink:href="classMayaFlux_1_1Portal_1_1Graphics_1_1ShaderFoundry_ae5a522d867e2b80341716b58ea8d9378.html#ae5a522d867e2b80341716b58ea8d9378" target="_top" xlink:title=" ">
<polygon fill="white" stroke="#666666" points="566,-79.47 418,-79.47 418,-38.47 566,-38.47 566,-79.47"/>
<text text-anchor="start" x="426" y="-67.47" font-family="Helvetica,sans-Serif" font-size="10.00">MayaFlux::Portal::Graphics</text>
<text text-anchor="start" x="426" y="-56.47" font-family="Helvetica,sans-Serif" font-size="10.00">::ShaderFoundry::compile</text>
<text text-anchor="middle" x="492" y="-45.47" font-family="Helvetica,sans-Serif" font-size="10.00">_from_spirv</text>
</a>
</g>
</g>
<!-- Node4&#45;&gt;Node11 -->
<g id="edge14_Node000004_Node000011" class="edge">
<title>Node4&#45;&gt;Node11</title>
<g id="a_edge14_Node000004_Node000011"><a xlink:title=" ">
<path fill="none" stroke="#63b8ff" d="M314.16,-190.95C333.09,-166.4 373.74,-117.49 418,-87.97 419.84,-86.74 421.75,-85.55 423.7,-84.4"/>
<polygon fill="#63b8ff" stroke="#63b8ff" points="425.38,-87.46 432.48,-79.6 422.03,-81.32 425.38,-87.46"/>
</a>
</g>
</g>
<!-- Node12 -->
<g id="Node000012" class="node">
<title>Node12</title>
<g id="a_Node000012"><a xlink:href="classMayaFlux_1_1Portal_1_1Graphics_1_1ShaderFoundry_a4b482754608e5411b26d88782d18f5c1.html#a4b482754608e5411b26d88782d18f5c1" target="_top" xlink:title=" ">
<polygon fill="white" stroke="#666666" points="566,-374.47 418,-374.47 418,-333.47 566,-333.47 566,-374.47"/>
<text text-anchor="start" x="426" y="-362.47" font-family="Helvetica,sans-Serif" font-size="10.00">MayaFlux::Portal::Graphics</text>
<text text-anchor="start" x="426" y="-351.47" font-family="Helvetica,sans-Serif" font-size="10.00">::ShaderFoundry::detect</text>
<text text-anchor="middle" x="492" y="-340.47" font-family="Helvetica,sans-Serif" font-size="10.00">_source_type</text>
</a>
</g>
</g>
<!-- Node4&#45;&gt;Node12 -->
<g id="edge19_Node000004_Node000012" class="edge">
<title>Node4&#45;&gt;Node12</title>
<g id="a_edge19_Node000004_Node000012"><a xlink:title=" ">
<path fill="none" stroke="#63b8ff" d="M314.51,-221.33C333.62,-245.91 374.15,-294.34 418,-323.97 420.4,-325.59 422.89,-327.14 425.46,-328.63"/>
<polygon fill="#63b8ff" stroke="#63b8ff" points="423.93,-331.78 434.39,-333.46 427.25,-325.62 423.93,-331.78"/>
</a>
</g>
</g>
<!-- Node14 -->
<g id="Node000014" class="node">
<title>Node14</title>
<g id="a_Node000014"><a xlink:href="classMayaFlux_1_1Portal_1_1Graphics_1_1ShaderFoundry_a12353054037641e59b9426bba88cc151.html#a12353054037641e59b9426bba88cc151" target="_top" xlink:title="Auto&#45;detect shader stage from file extension.">
<polygon fill="white" stroke="#666666" points="566,-315.47 418,-315.47 418,-274.47 566,-274.47 566,-315.47"/>
<text text-anchor="start" x="426" y="-303.47" font-family="Helvetica,sans-Serif" font-size="10.00">MayaFlux::Portal::Graphics</text>
<text text-anchor="start" x="426" y="-292.47" font-family="Helvetica,sans-Serif" font-size="10.00">::ShaderFoundry::detect</text>
<text text-anchor="middle" x="492" y="-281.47" font-family="Helvetica,sans-Serif" font-size="10.00">_stage_from_extension</text>
</a>
</g>
</g>
<!-- Node4&#45;&gt;Node14 -->
<g id="edge21_Node000004_Node000014" class="edge">
<title>Node4&#45;&gt;Node14</title>
<g id="a_edge21_Node000004_Node000014"><a xlink:title=" ">
<path fill="none" stroke="#63b8ff" d="M331.03,-221.19C354.12,-233.52 387.84,-251.06 418,-264.97 421.85,-266.74 425.84,-268.53 429.87,-270.29"/>
<polygon fill="#63b8ff" stroke="#63b8ff" points="428.75,-273.62 439.32,-274.36 431.52,-267.19 428.75,-273.62"/>
</a>
</g>
</g>
<!-- Node16 -->
<g id="Node000016" class="node">
<title>Node16</title>
<g id="a_Node000016"><a xlink:href="classMayaFlux_1_1Portal_1_1Graphics_1_1ShaderFoundry_ae9586d4de4b6905f18308599fa267e81.html#ae9586d4de4b6905f18308599fa267e81" target="_top" xlink:title=" ">
<polygon fill="white" stroke="#666666" points="566,-256.47 418,-256.47 418,-215.47 566,-215.47 566,-256.47"/>
<text text-anchor="start" x="426" y="-244.47" font-family="Helvetica,sans-Serif" font-size="10.00">MayaFlux::Portal::Graphics</text>
<text text-anchor="start" x="426" y="-233.47" font-family="Helvetica,sans-Serif" font-size="10.00">::ShaderFoundry::generate</text>
<text text-anchor="middle" x="492" y="-222.47" font-family="Helvetica,sans-Serif" font-size="10.00">_source_cache_key</text>
</a>
</g>
</g>
<!-- Node4&#45;&gt;Node16 -->
<g id="edge23_Node000004_Node000016" class="edge">
<title>Node4&#45;&gt;Node16</title>
<g id="a_edge23_Node000004_Node000016"><a xlink:title=" ">
<path fill="none" stroke="#63b8ff" d="M382.18,-218.6C390.69,-219.96 399.37,-221.35 407.93,-222.71"/>
<polygon fill="#63b8ff" stroke="#63b8ff" points="407.47,-226.18 417.9,-224.3 408.57,-219.27 407.47,-226.18"/>
</a>
</g>
</g>
<!-- Node6 -->
<g id="Node000006" class="node">
<title>Node6</title>
<g id="a_Node000006"><a xlink:href="classMayaFlux_1_1Portal_1_1Graphics_1_1ShaderFoundry_a4dd0aa12e086b204214f0823ad212d17.html#a4dd0aa12e086b204214f0823ad212d17" target="_top" xlink:title=" ">
<polygon fill="white" stroke="#666666" points="766,-143.47 618,-143.47 618,-102.47 766,-102.47 766,-143.47"/>
<text text-anchor="start" x="626" y="-131.47" font-family="Helvetica,sans-Serif" font-size="10.00">MayaFlux::Portal::Graphics</text>
<text text-anchor="start" x="626" y="-120.47" font-family="Helvetica,sans-Serif" font-size="10.00">::ShaderFoundry::create</text>
<text text-anchor="middle" x="692" y="-109.47" font-family="Helvetica,sans-Serif" font-size="10.00">_shader_module</text>
</a>
</g>
</g>
<!-- Node5&#45;&gt;Node6 -->
<g id="edge5_Node000005_Node000006" class="edge">
<title>Node5&#45;&gt;Node6</title>
<g id="a_edge5_Node000005_Node000006"><a xlink:title=" ">
<path fill="none" stroke="#63b8ff" d="M566.17,-157.01C579.73,-153.31 593.99,-149.43 607.82,-145.65"/>
<polygon fill="#63b8ff" stroke="#63b8ff" points="609.08,-148.94 617.81,-142.93 607.24,-142.18 609.08,-148.94"/>
</a>
</g>
</g>
<!-- Node7 -->
<g id="Node000007" class="node">
<title>Node7</title>
<g id="a_Node000007"><a xlink:href="classMayaFlux_1_1Portal_1_1Graphics_1_1ShaderFoundry_a148fdbfbb76b1df59986ea791e772885.html#a148fdbfbb76b1df59986ea791e772885" target="_top" xlink:title="Get logical device handle.">
<polygon fill="white" stroke="#666666" points="769,-83.97 615,-83.97 615,-53.97 769,-53.97 769,-83.97"/>
<text text-anchor="start" x="623" y="-71.97" font-family="Helvetica,sans-Serif" font-size="10.00">MayaFlux::Portal::Graphics</text>
<text text-anchor="middle" x="692" y="-60.97" font-family="Helvetica,sans-Serif" font-size="10.00">::ShaderFoundry::get_device</text>
</a>
</g>
</g>
<!-- Node5&#45;&gt;Node7 -->
<g id="edge6_Node000005_Node000007" class="edge">
<title>Node5&#45;&gt;Node7</title>
<g id="a_edge6_Node000005_Node000007"><a xlink:title=" ">
<path fill="none" stroke="#63b8ff" d="M552.16,-156.35C557.06,-153.56 561.76,-150.44 566,-146.97 588.31,-128.69 578.58,-109.8 602,-92.97 604.1,-91.46 606.3,-90.04 608.56,-88.71"/>
<polygon fill="#63b8ff" stroke="#63b8ff" points="610.33,-91.74 617.6,-84.02 607.11,-85.52 610.33,-91.74"/>
</a>
</g>
</g>
<!-- Node5&#45;&gt;Node8 -->
<g id="edge7_Node000005_Node000008" class="edge">
<title>Node5&#45;&gt;Node8</title>
<g id="a_edge7_Node000005_Node000008"><a xlink:title=" ">
<path fill="none" stroke="#63b8ff" d="M554.89,-156.27C558.93,-153.53 562.7,-150.44 566,-146.97 599.12,-112.12 566.74,-77.65 602,-44.97 603.14,-43.91 604.32,-42.91 605.53,-41.94"/>
<polygon fill="#63b8ff" stroke="#63b8ff" points="607.71,-44.69 614.03,-36.18 603.79,-38.89 607.71,-44.69"/>
</a>
</g>
</g>
<!-- Node9 -->
<g id="Node000009" class="node">
<title>Node9</title>
<g id="a_Node000009"><a xlink:href="classMayaFlux_1_1Portal_1_1Graphics_1_1ShaderFoundry_a7164141bfc6000673da8c39715c4c85e.html#a7164141bfc6000673da8c39715c4c85e" target="_top" xlink:title="Convert Portal ShaderStage to Vulkan ShaderStageFlagBits.">
<polygon fill="white" stroke="#666666" points="782,-191.97 602,-191.97 602,-161.97 782,-161.97 782,-191.97"/>
<text text-anchor="start" x="610" y="-179.97" font-family="Helvetica,sans-Serif" font-size="10.00">MayaFlux::Portal::Graphics</text>
<text text-anchor="middle" x="692" y="-168.97" font-family="Helvetica,sans-Serif" font-size="10.00">::ShaderFoundry::to_vulkan_stage</text>
</a>
</g>
</g>
<!-- Node5&#45;&gt;Node9 -->
<g id="edge8_Node000005_Node000009" class="edge">
<title>Node5&#45;&gt;Node9</title>
<g id="a_edge8_Node000005_Node000009"><a xlink:title=" ">
<path fill="none" stroke="#63b8ff" d="M566.17,-176.97C574.48,-176.97 583.05,-176.97 591.63,-176.97"/>
<polygon fill="#63b8ff" stroke="#63b8ff" points="591.69,-180.47 601.69,-176.97 591.69,-173.47 591.69,-180.47"/>
</a>
</g>
</g>
<!-- Node10&#45;&gt;Node6 -->
<g id="edge10_Node000010_Node000006" class="edge">
<title>Node10&#45;&gt;Node6</title>
<g id="a_edge10_Node000010_Node000006"><a xlink:title=" ">
<path fill="none" stroke="#63b8ff" d="M566.17,-119.82C579.6,-120.15 593.71,-120.51 607.42,-120.86"/>
<polygon fill="#63b8ff" stroke="#63b8ff" points="607.72,-124.37 617.81,-121.12 607.9,-117.37 607.72,-124.37"/>
</a>
</g>
</g>
<!-- Node10&#45;&gt;Node7 -->
<g id="edge11_Node000010_Node000007" class="edge">
<title>Node10&#45;&gt;Node7</title>
<g id="a_edge11_Node000010_Node000007"><a xlink:title=" ">
<path fill="none" stroke="#63b8ff" d="M566.17,-99.86C583.75,-95.51 602.51,-90.87 620,-86.54"/>
<polygon fill="#63b8ff" stroke="#63b8ff" points="621.27,-89.83 630.13,-84.03 619.58,-83.04 621.27,-89.83"/>
</a>
</g>
</g>
<!-- Node10&#45;&gt;Node8 -->
<g id="edge12_Node000010_Node000008" class="edge">
<title>Node10&#45;&gt;Node8</title>
<g id="a_edge12_Node000010_Node000008"><a xlink:title=" ">
<path fill="none" stroke="#63b8ff" d="M550.64,-97.45C556.03,-94.61 561.25,-91.45 566,-87.97 586.11,-73.25 581,-58.39 602,-44.97 604.61,-43.3 607.34,-41.74 610.15,-40.3"/>
<polygon fill="#63b8ff" stroke="#63b8ff" points="611.76,-43.41 619.36,-36.03 608.82,-37.06 611.76,-43.41"/>
</a>
</g>
</g>
<!-- Node10&#45;&gt;Node9 -->
<g id="edge13_Node000010_Node000009" class="edge">
<title>Node10&#45;&gt;Node9</title>
<g id="a_edge13_Node000010_Node000009"><a xlink:title=" ">
<path fill="none" stroke="#63b8ff" d="M557.75,-138.5C572.28,-143.01 587.65,-147.72 602,-151.97 609.96,-154.33 618.34,-156.76 626.65,-159.13"/>
<polygon fill="#63b8ff" stroke="#63b8ff" points="625.76,-162.51 636.33,-161.88 627.67,-155.78 625.76,-162.51"/>
</a>
</g>
</g>
<!-- Node11&#45;&gt;Node6 -->
<g id="edge15_Node000011_Node000006" class="edge">
<title>Node11&#45;&gt;Node6</title>
<g id="a_edge15_Node000011_Node000006"><a xlink:title=" ">
<path fill="none" stroke="#63b8ff" d="M556.47,-79.48C576,-85.8 597.67,-92.8 617.81,-99.31"/>
<polygon fill="#63b8ff" stroke="#63b8ff" points="616.96,-102.71 627.55,-102.46 619.12,-96.05 616.96,-102.71"/>
</a>
</g>
</g>
<!-- Node11&#45;&gt;Node7 -->
<g id="edge16_Node000011_Node000007" class="edge">
<title>Node11&#45;&gt;Node7</title>
<g id="a_edge16_Node000011_Node000007"><a xlink:title=" ">
<path fill="none" stroke="#63b8ff" d="M566.17,-62.66C578.68,-63.3 591.79,-63.96 604.61,-64.6"/>
<polygon fill="#63b8ff" stroke="#63b8ff" points="604.66,-68.11 614.82,-65.12 605.01,-61.12 604.66,-68.11"/>
</a>
</g>
</g>
<!-- Node11&#45;&gt;Node8 -->
<g id="edge17_Node000011_Node000008" class="edge">
<title>Node11&#45;&gt;Node8</title>
<g id="a_edge17_Node000011_Node000008"><a xlink:title=" ">
<path fill="none" stroke="#63b8ff" d="M566.17,-44.93C578.04,-42.65 590.45,-40.26 602.64,-37.92"/>
<polygon fill="#63b8ff" stroke="#63b8ff" points="603.66,-41.29 612.82,-35.97 602.34,-34.42 603.66,-41.29"/>
</a>
</g>
</g>
<!-- Node11&#45;&gt;Node9 -->
<g id="edge18_Node000011_Node000009" class="edge">
<title>Node11&#45;&gt;Node9</title>
<g id="a_edge18_Node000011_Node000009"><a xlink:title=" ">
<path fill="none" stroke="#63b8ff" d="M554.6,-79.69C558.66,-82.16 562.51,-84.92 566,-87.97 590.57,-109.44 576.34,-131.8 602,-151.97 604.31,-153.78 606.74,-155.46 609.26,-157.02"/>
<polygon fill="#63b8ff" stroke="#63b8ff" points="607.72,-160.17 618.18,-161.87 611.06,-154.02 607.72,-160.17"/>
</a>
</g>
</g>
<!-- Node13 -->
<g id="Node000013" class="node">
<title>Node13</title>
<g id="a_Node000013"><a xlink:href="classMayaFlux_1_1Portal_1_1Graphics_1_1ShaderFoundry_a7f6fb2b1aa3bfe9143fc417d0fad019d.html#a7f6fb2b1aa3bfe9143fc417d0fad019d" target="_top" xlink:title=" ">
<polygon fill="white" stroke="#666666" points="766,-374.47 618,-374.47 618,-333.47 766,-333.47 766,-374.47"/>
<text text-anchor="start" x="626" y="-362.47" font-family="Helvetica,sans-Serif" font-size="10.00">MayaFlux::Portal::Graphics</text>
<text text-anchor="start" x="626" y="-351.47" font-family="Helvetica,sans-Serif" font-size="10.00">::ShaderFoundry::resolve</text>
<text text-anchor="middle" x="692" y="-340.47" font-family="Helvetica,sans-Serif" font-size="10.00">_shader_path</text>
</a>
</g>
</g>
<!-- Node12&#45;&gt;Node13 -->
<g id="edge20_Node000012_Node000013" class="edge">
<title>Node12&#45;&gt;Node13</title>
<g id="a_edge20_Node000012_Node000013"><a xlink:title=" ">
<path fill="none" stroke="#63b8ff" d="M566.17,-353.97C579.6,-353.97 593.71,-353.97 607.42,-353.97"/>
<polygon fill="#63b8ff" stroke="#63b8ff" points="607.81,-357.47 617.81,-353.97 607.8,-350.47 607.81,-357.47"/>
</a>
</g>
</g>
<!-- Node15 -->
<g id="Node000015" class="node">
<title>Node15</title>
<g id="a_Node000015"><a xlink:href="classMayaFlux_1_1Core_1_1VKShaderModule_a34479b0a46b0aa6b144ddcf62a3e38cb.html#a34479b0a46b0aa6b144ddcf62a3e38cb" target="_top" xlink:title="Auto&#45;detect shader stage from file extension.">
<polygon fill="white" stroke="#666666" points="767,-315.47 617,-315.47 617,-274.47 767,-274.47 767,-315.47"/>
<text text-anchor="start" x="625" y="-303.47" font-family="Helvetica,sans-Serif" font-size="10.00">MayaFlux::Core::VKShader</text>
<text text-anchor="start" x="625" y="-292.47" font-family="Helvetica,sans-Serif" font-size="10.00">Module::detect_stage_from</text>
<text text-anchor="middle" x="692" y="-281.47" font-family="Helvetica,sans-Serif" font-size="10.00">_extension</text>
</a>
</g>
</g>
<!-- Node14&#45;&gt;Node15 -->
<g id="edge22_Node000014_Node000015" class="edge">
<title>Node14&#45;&gt;Node15</title>
<g id="a_edge22_Node000014_Node000015"><a xlink:title=" ">
<path fill="none" stroke="#63b8ff" d="M566.17,-294.97C579.33,-294.97 593.16,-294.97 606.61,-294.97"/>
<polygon fill="#63b8ff" stroke="#63b8ff" points="606.81,-298.47 616.81,-294.97 606.81,-291.47 606.81,-298.47"/>
</a>
</g>
</g>
</g>
</svg>
