<?xml version="1.0" encoding="UTF-8" standalone="no"?>
<!DOCTYPE svg PUBLIC "-//W3C//DTD SVG 1.1//EN"
 "http://www.w3.org/Graphics/SVG/1.1/DTD/svg11.dtd">
<!-- Generated by graphviz version 2.43.0 (0)
 -->
<!-- Title: MayaFlux::Core::VKSwapchain::cleanup Pages: 1 -->
<svg width="742pt" height="38pt"
 viewBox="0.00 0.00 742.00 38.00" xmlns="http://www.w3.org/2000/svg" xmlns:xlink="http://www.w3.org/1999/xlink">
<g id="graph0" class="graph" transform="scale(1 1) rotate(0) translate(4 34)">
<title>MayaFlux::Core::VKSwapchain::cleanup</title>
<!-- Node1 -->
<g id="Node000001" class="node">
<title>Node1</title>
<g id="a_Node000001"><a xlink:title="Cleanup swapchain resources.">
<polygon fill="#999999" stroke="#666666" points="165,-30 0,-30 0,0 165,0 165,-30"/>
<text text-anchor="start" x="8" y="-18" font-family="Helvetica,sans-Serif" font-size="10.00">MayaFlux::Core::VKSwapchain</text>
<text text-anchor="middle" x="82.5" y="-7" font-family="Helvetica,sans-Serif" font-size="10.00">::cleanup</text>
</a>
</g>
</g>
<!-- Node2 -->
<g id="Node000002" class="node">
<title>Node2</title>
<g id="a_Node000002"><a xlink:href="classMayaFlux_1_1Core_1_1VKSwapchain_abe5f9e7312b2874fd69f65d828aaafed.html#abe5f9e7312b2874fd69f65d828aaafed" target="_top" xlink:title="Cleanup old swapchain during recreation.">
<polygon fill="white" stroke="#666666" points="366,-30 201,-30 201,0 366,0 366,-30"/>
<text text-anchor="start" x="209" y="-18" font-family="Helvetica,sans-Serif" font-size="10.00">MayaFlux::Core::VKSwapchain</text>
<text text-anchor="middle" x="283.5" y="-7" font-family="Helvetica,sans-Serif" font-size="10.00">::cleanup_swapchain</text>
</a>
</g>
</g>
<!-- Node1&#45;&gt;Node2 -->
<g id="edge1_Node000001_Node000002" class="edge">
<title>Node1&#45;&gt;Node2</title>
<g id="a_edge1_Node000001_Node000002"><a xlink:title=" ">
<path fill="none" stroke="#63b8ff" d="M165.02,-15C173.5,-15 182.17,-15 190.76,-15"/>
<polygon fill="#63b8ff" stroke="#63b8ff" points="190.79,-18.5 200.79,-15 190.79,-11.5 190.79,-18.5"/>
</a>
</g>
</g>
<!-- Node3 -->
<g id="Node000003" class="node">
<title>Node3</title>
<g id="a_Node000003"><a xlink:href="classMayaFlux_1_1Core_1_1VKContext_a41228db586851246809c40f704b64292.html#a41228db586851246809c40f704b64292" target="_top" xlink:title="Get logical device.">
<polygon fill="white" stroke="#666666" points="552,-30 402,-30 402,0 552,0 552,-30"/>
<text text-anchor="start" x="410" y="-18" font-family="Helvetica,sans-Serif" font-size="10.00">MayaFlux::Core::VKContext</text>
<text text-anchor="middle" x="477" y="-7" font-family="Helvetica,sans-Serif" font-size="10.00">::get_device</text>
</a>
</g>
</g>
<!-- Node2&#45;&gt;Node3 -->
<g id="edge2_Node000002_Node000003" class="edge">
<title>Node2&#45;&gt;Node3</title>
<g id="a_edge2_Node000002_Node000003"><a xlink:title=" ">
<path fill="none" stroke="#63b8ff" d="M366.27,-15C374.65,-15 383.18,-15 391.59,-15"/>
<polygon fill="#63b8ff" stroke="#63b8ff" points="391.78,-18.5 401.78,-15 391.78,-11.5 391.78,-18.5"/>
</a>
</g>
</g>
<!-- Node4 -->
<g id="Node000004" class="node">
<title>Node4</title>
<g id="a_Node000004"><a xlink:href="classMayaFlux_1_1Core_1_1VKDevice_ac91623c4b7b52f1f5f7460ef91021583.html#ac91623c4b7b52f1f5f7460ef91021583" target="_top" xlink:title="Get logical device handle.">
<polygon fill="white" stroke="#666666" points="734,-30 588,-30 588,0 734,0 734,-30"/>
<text text-anchor="start" x="596" y="-18" font-family="Helvetica,sans-Serif" font-size="10.00">MayaFlux::Core::VKDevice</text>
<text text-anchor="middle" x="661" y="-7" font-family="Helvetica,sans-Serif" font-size="10.00">::get_device</text>
</a>
</g>
</g>
<!-- Node3&#45;&gt;Node4 -->
<g id="edge3_Node000003_Node000004" class="edge">
<title>Node3&#45;&gt;Node4</title>
<g id="a_edge3_Node000003_Node000004"><a xlink:title=" ">
<path fill="none" stroke="#63b8ff" d="M552.03,-15C560.51,-15 569.21,-15 577.79,-15"/>
<polygon fill="#63b8ff" stroke="#63b8ff" points="577.81,-18.5 587.81,-15 577.81,-11.5 577.81,-18.5"/>
</a>
</g>
</g>
</g>
</svg>
