<?xml version="1.0" encoding="UTF-8" standalone="no"?>
<!DOCTYPE svg PUBLIC "-//W3C//DTD SVG 1.1//EN"
 "http://www.w3.org/Graphics/SVG/1.1/DTD/svg11.dtd">
<!-- Generated by graphviz version 2.43.0 (0)
 -->
<!-- Title: MayaFlux::Nodes::NodeGraphManager::postprocess_networks Pages: 1 -->
<svg width="578pt" height="98pt"
 viewBox="0.00 0.00 578.00 97.50" xmlns="http://www.w3.org/2000/svg" xmlns:xlink="http://www.w3.org/1999/xlink">
<g id="graph0" class="graph" transform="scale(1 1) rotate(0) translate(4 93.5)">
<title>MayaFlux::Nodes::NodeGraphManager::postprocess_networks</title>
<!-- Node1 -->
<g id="Node000001" class="node">
<title>Node1</title>
<g id="a_Node000001"><a xlink:title="Postprocess networks for a specific token and channel.">
<polygon fill="#999999" stroke="#666666" points="570,-57 396,-57 396,-27 570,-27 570,-57"/>
<text text-anchor="start" x="404" y="-45" font-family="Helvetica,sans-Serif" font-size="10.00">MayaFlux::Nodes::NodeGraph</text>
<text text-anchor="middle" x="483" y="-34" font-family="Helvetica,sans-Serif" font-size="10.00">Manager::postprocess_networks</text>
</a>
</g>
</g>
<!-- Node2 -->
<g id="Node000002" class="node">
<title>Node2</title>
<g id="a_Node000002"><a xlink:href="classMayaFlux_1_1Nodes_1_1NodeGraphManager_a19647ce15e2b65c6277f4b91906138b1.html#a19647ce15e2b65c6277f4b91906138b1" target="_top" xlink:title="Process audio networks for a specific channel.">
<polygon fill="white" stroke="#666666" points="360,-89.5 198,-89.5 198,-48.5 360,-48.5 360,-89.5"/>
<text text-anchor="start" x="206" y="-77.5" font-family="Helvetica,sans-Serif" font-size="10.00">MayaFlux::Nodes::NodeGraph</text>
<text text-anchor="start" x="206" y="-66.5" font-family="Helvetica,sans-Serif" font-size="10.00">Manager::process_audio</text>
<text text-anchor="middle" x="279" y="-55.5" font-family="Helvetica,sans-Serif" font-size="10.00">_networks</text>
</a>
</g>
</g>
<!-- Node1&#45;&gt;Node2 -->
<g id="edge1_Node000001_Node000002" class="edge">
<title>Node1&#45;&gt;Node2</title>
<g id="a_edge1_Node000001_Node000002"><a xlink:title=" ">
<path fill="none" stroke="#63b8ff" d="M385.75,-54.87C377.19,-56.01 368.6,-57.16 360.2,-58.28"/>
<polygon fill="#63b8ff" stroke="#63b8ff" points="386.3,-58.32 395.75,-53.53 385.37,-51.38 386.3,-58.32"/>
</a>
</g>
</g>
<!-- Node3 -->
<g id="Node000003" class="node">
<title>Node3</title>
<g id="a_Node000003"><a xlink:href="classMayaFlux_1_1Nodes_1_1NodeGraphManager_afa9b1939a0837b23079557de7481ce2a.html#afa9b1939a0837b23079557de7481ce2a" target="_top" xlink:title="Process all nodes in a specific token domain Calls registered processor if available,...">
<polygon fill="white" stroke="#666666" points="360,-30 198,-30 198,0 360,0 360,-30"/>
<text text-anchor="start" x="206" y="-18" font-family="Helvetica,sans-Serif" font-size="10.00">MayaFlux::Nodes::NodeGraph</text>
<text text-anchor="middle" x="279" y="-7" font-family="Helvetica,sans-Serif" font-size="10.00">Manager::process_token</text>
</a>
</g>
</g>
<!-- Node1&#45;&gt;Node3 -->
<g id="edge2_Node000001_Node000003" class="edge">
<title>Node1&#45;&gt;Node3</title>
<g id="a_edge2_Node000001_Node000003"><a xlink:title=" ">
<path fill="none" stroke="#63b8ff" d="M385.75,-29.13C377.19,-27.99 368.6,-26.84 360.2,-25.72"/>
<polygon fill="#63b8ff" stroke="#63b8ff" points="385.37,-32.62 395.75,-30.47 386.3,-25.68 385.37,-32.62"/>
</a>
</g>
</g>
<!-- Node4 -->
<g id="Node000004" class="node">
<title>Node4</title>
<g id="a_Node000004"><a xlink:href="classMayaFlux_1_1Nodes_1_1NodeGraphManager_a749bef701cfc06a93ce3c4a6c3ef3d07.html#a749bef701cfc06a93ce3c4a6c3ef3d07" target="_top" xlink:title="Process all active tokens sequentially.">
<polygon fill="white" stroke="#666666" points="162,-30 0,-30 0,0 162,0 162,-30"/>
<text text-anchor="start" x="8" y="-18" font-family="Helvetica,sans-Serif" font-size="10.00">MayaFlux::Nodes::NodeGraph</text>
<text text-anchor="middle" x="81" y="-7" font-family="Helvetica,sans-Serif" font-size="10.00">Manager::process_all_tokens</text>
</a>
</g>
</g>
<!-- Node3&#45;&gt;Node4 -->
<g id="edge3_Node000003_Node000004" class="edge">
<title>Node3&#45;&gt;Node4</title>
<g id="a_edge3_Node000003_Node000004"><a xlink:title=" ">
<path fill="none" stroke="#63b8ff" d="M187.92,-15C179.3,-15 170.59,-15 162.07,-15"/>
<polygon fill="#63b8ff" stroke="#63b8ff" points="188,-18.5 198,-15 188,-11.5 188,-18.5"/>
</a>
</g>
</g>
</g>
</svg>
