<?xml version="1.0" encoding="UTF-8" standalone="no"?>
<!DOCTYPE svg PUBLIC "-//W3C//DTD SVG 1.1//EN"
 "http://www.w3.org/Graphics/SVG/1.1/DTD/svg11.dtd">
<!-- Generated by graphviz version 2.43.0 (0)
 -->
<!-- Title: MayaFlux::Yantra::StandardSorter::sort_data_partial Pages: 1 -->
<svg width="892pt" height="134pt"
 viewBox="0.00 0.00 892.00 134.00" xmlns="http://www.w3.org/2000/svg" xmlns:xlink="http://www.w3.org/1999/xlink">
<g id="graph0" class="graph" transform="scale(1 1) rotate(0) translate(4 130)">
<title>MayaFlux::Yantra::StandardSorter::sort_data_partial</title>
<!-- Node1 -->
<g id="Node000001" class="node">
<title>Node1</title>
<g id="a_Node000001"><a xlink:title="Partial sorting implementation.">
<polygon fill="#999999" stroke="#666666" points="150,-102 0,-102 0,-72 150,-72 150,-102"/>
<text text-anchor="start" x="8" y="-90" font-family="Helvetica,sans-Serif" font-size="10.00">MayaFlux::Yantra::Standard</text>
<text text-anchor="middle" x="75" y="-79" font-family="Helvetica,sans-Serif" font-size="10.00">Sorter::sort_data_partial</text>
</a>
</g>
</g>
<!-- Node2 -->
<g id="Node000002" class="node">
<title>Node2</title>
<g id="a_Node000002"><a xlink:href="classMayaFlux_1_1Yantra_1_1UniversalSorter_ad0c240a1fcea4c743508eb14c938b30d.html#ad0c240a1fcea4c743508eb14c938b30d" target="_top" xlink:title=" ">
<polygon fill="white" stroke="#666666" points="339,-126 186,-126 186,-96 339,-96 339,-126"/>
<text text-anchor="start" x="194" y="-114" font-family="Helvetica,sans-Serif" font-size="10.00">MayaFlux::Yantra::Universal</text>
<text text-anchor="middle" x="262.5" y="-103" font-family="Helvetica,sans-Serif" font-size="10.00">Sorter::get_direction</text>
</a>
</g>
</g>
<!-- Node1&#45;&gt;Node2 -->
<g id="edge1_Node000001_Node000002" class="edge">
<title>Node1&#45;&gt;Node2</title>
<g id="a_edge1_Node000001_Node000002"><a xlink:title=" ">
<path fill="none" stroke="#63b8ff" d="M150.11,-96.59C158.6,-97.69 167.3,-98.81 175.92,-99.93"/>
<polygon fill="#63b8ff" stroke="#63b8ff" points="175.62,-103.42 185.99,-101.23 176.52,-96.48 175.62,-103.42"/>
</a>
</g>
</g>
<!-- Node3 -->
<g id="Node000003" class="node">
<title>Node3</title>
<g id="a_Node000003"><a xlink:href="namespaceMayaFlux_1_1Yantra_aefd8d29775269d3755674992909e379f.html#aefd8d29775269d3755674992909e379f" target="_top" xlink:title="Universal sort function &#45; returns sorted copy.">
<polygon fill="white" stroke="#666666" points="328,-78 197,-78 197,-48 328,-48 328,-78"/>
<text text-anchor="start" x="205" y="-66" font-family="Helvetica,sans-Serif" font-size="10.00">MayaFlux::Yantra::sort</text>
<text text-anchor="middle" x="262.5" y="-55" font-family="Helvetica,sans-Serif" font-size="10.00">_compute_data_extract</text>
</a>
</g>
</g>
<!-- Node1&#45;&gt;Node3 -->
<g id="edge2_Node000001_Node000003" class="edge">
<title>Node1&#45;&gt;Node3</title>
<g id="a_edge2_Node000001_Node000003"><a xlink:title=" ">
<path fill="none" stroke="#63b8ff" d="M150.11,-77.41C162.18,-75.85 174.68,-74.23 186.76,-72.67"/>
<polygon fill="#63b8ff" stroke="#63b8ff" points="187.31,-76.13 196.78,-71.37 186.42,-69.19 187.31,-76.13"/>
</a>
</g>
</g>
<!-- Node4 -->
<g id="Node000004" class="node">
<title>Node4</title>
<g id="a_Node000004"><a xlink:href="classMayaFlux_1_1Yantra_1_1OperationHelper_ab87e318fc808c4e06d895135af6097e2.html#ab87e318fc808c4e06d895135af6097e2" target="_top" xlink:title="Setup operation buffer from Datum or ComputeData type.">
<polygon fill="white" stroke="#666666" points="542,-102 375,-102 375,-72 542,-72 542,-102"/>
<text text-anchor="start" x="383" y="-90" font-family="Helvetica,sans-Serif" font-size="10.00">MayaFlux::Yantra::Operation</text>
<text text-anchor="middle" x="458.5" y="-79" font-family="Helvetica,sans-Serif" font-size="10.00">Helper::setup_operation_buffer</text>
</a>
</g>
</g>
<!-- Node3&#45;&gt;Node4 -->
<g id="edge3_Node000003_Node000004" class="edge">
<title>Node3&#45;&gt;Node4</title>
<g id="a_edge3_Node000003_Node000004"><a xlink:title=" ">
<path fill="none" stroke="#63b8ff" d="M328.1,-70.99C339.93,-72.45 352.48,-74.01 364.94,-75.55"/>
<polygon fill="#63b8ff" stroke="#63b8ff" points="364.54,-79.03 374.89,-76.78 365.4,-72.08 364.54,-79.03"/>
</a>
</g>
</g>
<!-- Node5 -->
<g id="Node000005" class="node">
<title>Node5</title>
<g id="a_Node000005"><a xlink:href="namespaceMayaFlux_1_1Kinesis_1_1Discrete_ac7f402db2f5f9039a9ccbb276a39d30a.html#ac7f402db2f5f9039a9ccbb276a39d30a" target="_top" xlink:title="Sort all channels in&#45;place.">
<polygon fill="white" stroke="#666666" points="524,-54 393,-54 393,-24 524,-24 524,-54"/>
<text text-anchor="start" x="401" y="-42" font-family="Helvetica,sans-Serif" font-size="10.00">MayaFlux::Kinesis::</text>
<text text-anchor="middle" x="458.5" y="-31" font-family="Helvetica,sans-Serif" font-size="10.00">Discrete::sort_channels</text>
</a>
</g>
</g>
<!-- Node3&#45;&gt;Node5 -->
<g id="edge4_Node000003_Node000005" class="edge">
<title>Node3&#45;&gt;Node5</title>
<g id="a_edge4_Node000003_Node000005"><a xlink:title=" ">
<path fill="none" stroke="#63b8ff" d="M328.1,-55.01C345.6,-52.84 364.68,-50.48 382.69,-48.26"/>
<polygon fill="#63b8ff" stroke="#63b8ff" points="383.36,-51.7 392.85,-47 382.5,-44.75 383.36,-51.7"/>
</a>
</g>
</g>
<!-- Node6 -->
<g id="Node000006" class="node">
<title>Node6</title>
<g id="a_Node000006"><a xlink:href="namespaceMayaFlux_1_1Kinesis_1_1Discrete_a9349c772343fcafbd79eeedb913199ae.html#a9349c772343fcafbd79eeedb913199ae" target="_top" xlink:title="Sort a single span in&#45;place.">
<polygon fill="white" stroke="#666666" points="690,-54 578,-54 578,-24 690,-24 690,-54"/>
<text text-anchor="start" x="586" y="-42" font-family="Helvetica,sans-Serif" font-size="10.00">MayaFlux::Kinesis::</text>
<text text-anchor="middle" x="634" y="-31" font-family="Helvetica,sans-Serif" font-size="10.00">Discrete::sort_span</text>
</a>
</g>
</g>
<!-- Node5&#45;&gt;Node6 -->
<g id="edge5_Node000005_Node000006" class="edge">
<title>Node5&#45;&gt;Node6</title>
<g id="a_edge5_Node000005_Node000006"><a xlink:title=" ">
<path fill="none" stroke="#63b8ff" d="M524.1,-39C538.29,-39 553.33,-39 567.55,-39"/>
<polygon fill="#63b8ff" stroke="#63b8ff" points="567.73,-42.5 577.73,-39 567.73,-35.5 567.73,-42.5"/>
</a>
</g>
</g>
<!-- Node7 -->
<g id="Node000007" class="node">
<title>Node7</title>
<g id="a_Node000007"><a xlink:href="namespaceMayaFlux_1_1Kinesis_1_1Discrete_aa24f42ad7fac830cc8ebd7d7f8c9c839.html#aa24f42ad7fac830cc8ebd7d7f8c9c839" target="_top" xlink:title="Direction&#45;based comparator for doubles.">
<polygon fill="white" stroke="#666666" points="884,-78 726,-78 726,-48 884,-48 884,-78"/>
<text text-anchor="start" x="734" y="-66" font-family="Helvetica,sans-Serif" font-size="10.00">MayaFlux::Kinesis::</text>
<text text-anchor="middle" x="805" y="-55" font-family="Helvetica,sans-Serif" font-size="10.00">Discrete::double_comparator</text>
</a>
</g>
</g>
<!-- Node6&#45;&gt;Node7 -->
<g id="edge6_Node000006_Node000007" class="edge">
<title>Node6&#45;&gt;Node7</title>
<g id="a_edge6_Node000006_Node000007"><a xlink:title=" ">
<path fill="none" stroke="#63b8ff" d="M690.34,-46.86C698.5,-48.02 707.08,-49.24 715.71,-50.46"/>
<polygon fill="#63b8ff" stroke="#63b8ff" points="715.45,-53.96 725.85,-51.9 716.44,-47.03 715.45,-53.96"/>
</a>
</g>
</g>
<!-- Node8 -->
<g id="Node000008" class="node">
<title>Node8</title>
<g id="a_Node000008"><a xlink:href="namespaceMayaFlux_1_1Kinesis_1_1Discrete_ac31338d47679ac6672a20b378ed0e6ee.html#ac31338d47679ac6672a20b378ed0e6ee" target="_top" xlink:title="Execute a sorting algorithm on an iterator range.">
<polygon fill="white" stroke="#666666" points="861,-30 749,-30 749,0 861,0 861,-30"/>
<text text-anchor="start" x="757" y="-18" font-family="Helvetica,sans-Serif" font-size="10.00">MayaFlux::Kinesis::</text>
<text text-anchor="middle" x="805" y="-7" font-family="Helvetica,sans-Serif" font-size="10.00">Discrete::execute</text>
</a>
</g>
</g>
<!-- Node6&#45;&gt;Node8 -->
<g id="edge7_Node000006_Node000008" class="edge">
<title>Node6&#45;&gt;Node8</title>
<g id="a_edge7_Node000006_Node000008"><a xlink:title=" ">
<path fill="none" stroke="#63b8ff" d="M690.34,-31.14C705.74,-28.95 722.61,-26.56 738.53,-24.3"/>
<polygon fill="#63b8ff" stroke="#63b8ff" points="739.42,-27.71 748.83,-22.84 738.43,-20.78 739.42,-27.71"/>
</a>
</g>
</g>
</g>
</svg>
