<?xml version="1.0" encoding="UTF-8" standalone="no"?>
<!DOCTYPE svg PUBLIC "-//W3C//DTD SVG 1.1//EN"
 "http://www.w3.org/Graphics/SVG/1.1/DTD/svg11.dtd">
<!-- Generated by graphviz version 2.43.0 (0)
 -->
<!-- Title: MayaFlux::Kakshya::SoundStreamContainer::get_num_channels Pages: 1 -->
<!--zoomable 528 -->

<svg id="main" version="1.1" xmlns="http://www.w3.org/2000/svg" xmlns:xlink="http://www.w3.org/1999/xlink" xml:space="preserve" onload="init(evt)">
<style type="text/css"><![CDATA[
.node, .edge {opacity: 0.7;}
.node.selected, .edge.selected {opacity: 1;}
.edge:hover path { stroke: red; }
.edge:hover polygon { stroke: red; fill: red; }
]]></style>

<defs>
  <circle id="rim" cx="0" cy="0" r="7"/>
  <circle id="rim2" cx="0" cy="0" r="3.5"/>
  <g id="zoomPlus">
    <use xlink:href="#rim" fill="#404040"><set attributeName="fill" to="#808080" begin="zoomplus.mouseover" end="zoomplus.mouseout"/></use>
    <path d="M-4,0h8M0,-4v8" fill="none" stroke="white" stroke-width="1.5" pointer-events="none"/>
  </g>
  <g id="zoomMin">
    <use xlink:href="#rim" fill="#404040"><set attributeName="fill" to="#808080" begin="zoomminus.mouseover" end="zoomminus.mouseout"/></use>
    <path d="M-4,0h8" fill="none" stroke="white" stroke-width="1.5" pointer-events="none"/>
  </g>
  <g id="arrowUp" transform="translate(30 24)">
    <use xlink:href="#rim"/>
    <path pointer-events="none" fill="none" stroke="white" stroke-width="1.5" d="M0,-3.0v7 M-2.5,-0.5L0,-3.0L2.5,-0.5"/>
  </g>
  <g id="arrowRight" transform="rotate(90) translate(36 -43)">
    <use xlink:href="#rim"/>
    <path pointer-events="none" fill="none" stroke="white" stroke-width="1.5" d="M0,-3.0v7 M-2.5,-0.5L0,-3.0L2.5,-0.5"/>
  </g>
  <g id="arrowDown" transform="rotate(180) translate(-30 -48)">
    <use xlink:href="#rim"/>
    <path pointer-events="none" fill="none" stroke="white" stroke-width="1.5" d="M0,-3.0v7 M-2.5,-0.5L0,-3.0L2.5,-0.5"/>
  </g>
  <g id="arrowLeft" transform="rotate(270) translate(-36 17)">
    <use xlink:href="#rim"/>
    <path pointer-events="none" fill="none" stroke="white" stroke-width="1.5" d="M0,-3.0v7 M-2.5,-0.5L0,-3.0L2.5,-0.5"/>
  </g>
  <g id="resetDef">
    <use xlink:href="#rim2" fill="#404040"><set attributeName="fill" to="#808080" begin="reset.mouseover" end="reset.mouseout"/></use>
  </g>
</defs>
<script type="application/ecmascript">
var viewWidth = 975;
var viewHeight = 528;
var sectionId = 'dynsection-0';
</script>
<script type="application/ecmascript" xlink:href="svg.min.js"/>
<svg id="graph" class="graph">
<g id="viewport">
<title>MayaFlux::Kakshya::SoundStreamContainer::get_num_channels</title>
<!-- Node1 -->
<g id="Node000001" class="node">
<title>Node1</title>
<g id="a_Node000001"><a xlink:title=" ">
<polygon fill="#999999" stroke="#666666" points="967,-284 838,-284 838,-243 967,-243 967,-284"/>
<text text-anchor="start" x="846" y="-272" font-family="Helvetica,sans-Serif" font-size="10.00">MayaFlux::Kakshya::</text>
<text text-anchor="start" x="846" y="-261" font-family="Helvetica,sans-Serif" font-size="10.00">SoundStreamContainer</text>
<text text-anchor="middle" x="902.5" y="-250" font-family="Helvetica,sans-Serif" font-size="10.00">::get_num_channels</text>
</a>
</g>
</g>
<!-- Node2 -->
<g id="Node000002" class="node">
<title>Node2</title>
<g id="a_Node000002"><a xlink:href="classMayaFlux_1_1Kakshya_1_1DynamicSoundStream_a6ee56fd9b5665418b0968ddb46ee17c7.html#a6ee56fd9b5665418b0968ddb46ee17c7" target="_top" xlink:title=" ">
<polygon fill="white" stroke="#666666" points="802,-333 671,-333 671,-292 802,-292 802,-333"/>
<text text-anchor="start" x="679" y="-321" font-family="Helvetica,sans-Serif" font-size="10.00">MayaFlux::Kakshya::</text>
<text text-anchor="start" x="679" y="-310" font-family="Helvetica,sans-Serif" font-size="10.00">DynamicSoundStream::</text>
<text text-anchor="middle" x="736.5" y="-299" font-family="Helvetica,sans-Serif" font-size="10.00">create_expanded_data</text>
</a>
</g>
</g>
<!-- Node1&#45;&gt;Node2 -->
<g id="edge1_Node000001_Node000002" class="edge">
<title>Node1&#45;&gt;Node2</title>
<g id="a_edge1_Node000001_Node000002"><a xlink:title=" ">
<path fill="none" stroke="#63b8ff" d="M827.94,-285.48C819.29,-288.06 810.52,-290.68 802.01,-293.23"/>
<polygon fill="#63b8ff" stroke="#63b8ff" points="829.04,-288.8 837.62,-282.58 827.04,-282.09 829.04,-288.8"/>
</a>
</g>
</g>
<!-- Node3 -->
<g id="Node000003" class="node">
<title>Node3</title>
<g id="a_Node000003"><a xlink:href="classMayaFlux_1_1Kakshya_1_1DynamicSoundStream_a76f02825c588ece2a442fa91655dd672.html#a76f02825c588ece2a442fa91655dd672" target="_top" xlink:title=" ">
<polygon fill="white" stroke="#666666" points="635,-356 504,-356 504,-315 635,-315 635,-356"/>
<text text-anchor="start" x="512" y="-344" font-family="Helvetica,sans-Serif" font-size="10.00">MayaFlux::Kakshya::</text>
<text text-anchor="start" x="512" y="-333" font-family="Helvetica,sans-Serif" font-size="10.00">DynamicSoundStream::</text>
<text text-anchor="middle" x="569.5" y="-322" font-family="Helvetica,sans-Serif" font-size="10.00">expand_to</text>
</a>
</g>
</g>
<!-- Node1&#45;&gt;Node3 -->
<g id="edge14_Node000001_Node000003" class="edge">
<title>Node1&#45;&gt;Node3</title>
<g id="a_edge14_Node000001_Node000003"><a xlink:title=" ">
<path fill="none" stroke="#63b8ff" d="M875.99,-291.89C857.51,-310.22 830.79,-332.46 802,-342.5 748.09,-361.3 682.76,-357.09 635.26,-349.61"/>
<polygon fill="#63b8ff" stroke="#63b8ff" points="878.9,-293.92 883.39,-284.32 873.89,-289.03 878.9,-293.92"/>
</a>
</g>
</g>
<!-- Node4 -->
<g id="Node000004" class="node">
<title>Node4</title>
<g id="a_Node000004"><a xlink:href="classMayaFlux_1_1Kakshya_1_1DynamicSoundStream_aa4e4316022347f61b6ff80925a636ac4.html#aa4e4316022347f61b6ff80925a636ac4" target="_top" xlink:title="Pre&#45;allocate capacity for the specified number of frames.">
<polygon fill="white" stroke="#666666" points="466.5,-466 335.5,-466 335.5,-425 466.5,-425 466.5,-466"/>
<text text-anchor="start" x="343.5" y="-454" font-family="Helvetica,sans-Serif" font-size="10.00">MayaFlux::Kakshya::</text>
<text text-anchor="start" x="343.5" y="-443" font-family="Helvetica,sans-Serif" font-size="10.00">DynamicSoundStream::</text>
<text text-anchor="middle" x="401" y="-432" font-family="Helvetica,sans-Serif" font-size="10.00">ensure_capacity</text>
</a>
</g>
</g>
<!-- Node1&#45;&gt;Node4 -->
<g id="edge13_Node000001_Node000004" class="edge">
<title>Node1&#45;&gt;Node4</title>
<g id="a_edge13_Node000001_Node000004"><a xlink:title=" ">
<path fill="none" stroke="#63b8ff" d="M890.97,-293.48C876.79,-328.91 847.9,-386.46 802,-413.5 697.56,-475.04 550.3,-467.71 466.68,-456.7"/>
<polygon fill="#63b8ff" stroke="#63b8ff" points="894.25,-294.71 894.58,-284.12 887.72,-292.19 894.25,-294.71"/>
</a>
</g>
</g>
<!-- Node5 -->
<g id="Node000005" class="node">
<title>Node5</title>
<g id="a_Node000005"><a xlink:href="classMayaFlux_1_1Kakshya_1_1DynamicSoundStream_a9cfe8b08aab3f3a06d83844e3d0ac864.html#a9cfe8b08aab3f3a06d83844e3d0ac864" target="_top" xlink:title="Enable circular buffer mode with fixed capacity.">
<polygon fill="white" stroke="#666666" points="298,-490 167,-490 167,-449 298,-449 298,-490"/>
<text text-anchor="start" x="175" y="-478" font-family="Helvetica,sans-Serif" font-size="10.00">MayaFlux::Kakshya::</text>
<text text-anchor="start" x="175" y="-467" font-family="Helvetica,sans-Serif" font-size="10.00">DynamicSoundStream::</text>
<text text-anchor="middle" x="232.5" y="-456" font-family="Helvetica,sans-Serif" font-size="10.00">enable_circular_buffer</text>
</a>
</g>
</g>
<!-- Node1&#45;&gt;Node5 -->
<g id="edge12_Node000001_Node000005" class="edge">
<title>Node1&#45;&gt;Node5</title>
<g id="a_edge12_Node000001_Node000005"><a xlink:title=" ">
<path fill="none" stroke="#63b8ff" d="M894.2,-293.86C882.42,-335.86 854.97,-410.78 802,-448.5 649.75,-556.92 411.92,-516.52 298.24,-488.08"/>
<polygon fill="#63b8ff" stroke="#63b8ff" points="897.59,-294.75 896.8,-284.18 890.83,-292.93 897.59,-294.75"/>
</a>
</g>
</g>
<!-- Node6 -->
<g id="Node000006" class="node">
<title>Node6</title>
<g id="a_Node000006"><a xlink:href="classMayaFlux_1_1Kakshya_1_1DynamicSoundStream_acf923de17bc21ae89e1db4cdf7af3406.html#acf923de17bc21ae89e1db4cdf7af3406" target="_top" xlink:title=" ">
<polygon fill="white" stroke="#666666" points="466.5,-257 335.5,-257 335.5,-216 466.5,-216 466.5,-257"/>
<text text-anchor="start" x="343.5" y="-245" font-family="Helvetica,sans-Serif" font-size="10.00">MayaFlux::Kakshya::</text>
<text text-anchor="start" x="343.5" y="-234" font-family="Helvetica,sans-Serif" font-size="10.00">DynamicSoundStream::</text>
<text text-anchor="middle" x="401" y="-223" font-family="Helvetica,sans-Serif" font-size="10.00">validate</text>
</a>
</g>
</g>
<!-- Node1&#45;&gt;Node6 -->
<g id="edge18_Node000001_Node000006" class="edge">
<title>Node1&#45;&gt;Node6</title>
<g id="a_edge18_Node000001_Node000006"><a xlink:title=" ">
<path fill="none" stroke="#63b8ff" d="M827.79,-252.23C819.11,-251.17 810.37,-250.22 802,-249.5 683.97,-239.31 545.73,-236.93 466.56,-236.47"/>
<polygon fill="#63b8ff" stroke="#63b8ff" points="827.56,-255.73 837.92,-253.52 828.44,-248.78 827.56,-255.73"/>
</a>
</g>
</g>
<!-- Node7 -->
<g id="Node000007" class="node">
<title>Node7</title>
<g id="a_Node000007"><a xlink:href="classMayaFlux_1_1Kakshya_1_1DynamicSoundStream_adbb6000f53051d841a016bc8f2cafc38.html#adbb6000f53051d841a016bc8f2cafc38" target="_top" xlink:title=" ">
<polygon fill="white" stroke="#666666" points="131,-257 0,-257 0,-216 131,-216 131,-257"/>
<text text-anchor="start" x="8" y="-245" font-family="Helvetica,sans-Serif" font-size="10.00">MayaFlux::Kakshya::</text>
<text text-anchor="start" x="8" y="-234" font-family="Helvetica,sans-Serif" font-size="10.00">DynamicSoundStream::</text>
<text text-anchor="middle" x="65.5" y="-223" font-family="Helvetica,sans-Serif" font-size="10.00">write_frames</text>
</a>
</g>
</g>
<!-- Node1&#45;&gt;Node7 -->
<g id="edge21_Node000001_Node000007" class="edge">
<title>Node1&#45;&gt;Node7</title>
<g id="a_edge21_Node000001_Node000007"><a xlink:title=" ">
<path fill="none" stroke="#63b8ff" d="M836.9,-239.57C770.91,-217.29 665,-187.5 570.5,-187.5 570.5,-187.5 570.5,-187.5 400,-187.5 305.78,-187.5 198.17,-206.88 131.27,-221.26"/>
<polygon fill="#63b8ff" stroke="#63b8ff" points="836.15,-243.01 846.75,-242.93 838.42,-236.38 836.15,-243.01"/>
</a>
</g>
</g>
<!-- Node8 -->
<g id="Node000008" class="node">
<title>Node8</title>
<g id="a_Node000008"><a xlink:href="classMayaFlux_1_1Kakshya_1_1DynamicSoundStream_a344f9b30afff0cc221faca44b262b9f1.html#a344f9b30afff0cc221faca44b262b9f1" target="_top" xlink:title=" ">
<polygon fill="white" stroke="#666666" points="468,-316 334,-316 334,-275 468,-275 468,-316"/>
<text text-anchor="start" x="342" y="-304" font-family="Helvetica,sans-Serif" font-size="10.00">MayaFlux::Kakshya::</text>
<text text-anchor="start" x="342" y="-293" font-family="Helvetica,sans-Serif" font-size="10.00">DynamicSoundStream::</text>
<text text-anchor="middle" x="401" y="-282" font-family="Helvetica,sans-Serif" font-size="10.00">validate_single_channel</text>
</a>
</g>
</g>
<!-- Node1&#45;&gt;Node8 -->
<g id="edge19_Node000001_Node000008" class="edge">
<title>Node1&#45;&gt;Node8</title>
<g id="a_edge19_Node000001_Node000008"><a xlink:title=" ">
<path fill="none" stroke="#63b8ff" d="M827.96,-268.21C730.91,-274.43 561.5,-285.28 468.24,-291.26"/>
<polygon fill="#63b8ff" stroke="#63b8ff" points="828.23,-271.7 837.98,-267.57 827.78,-264.72 828.23,-271.7"/>
</a>
</g>
</g>
<!-- Node9 -->
<g id="Node000009" class="node">
<title>Node9</title>
<g id="a_Node000009"><a xlink:href="classMayaFlux_1_1Kakshya_1_1DynamicSoundStream_ade208ea2ca4a19384f898cc1a82d7ba2.html#ade208ea2ca4a19384f898cc1a82d7ba2" target="_top" xlink:title="Write audio frame data to the container with automatic capacity management.">
<polygon fill="white" stroke="#666666" points="298,-340 167,-340 167,-299 298,-299 298,-340"/>
<text text-anchor="start" x="175" y="-328" font-family="Helvetica,sans-Serif" font-size="10.00">MayaFlux::Kakshya::</text>
<text text-anchor="start" x="175" y="-317" font-family="Helvetica,sans-Serif" font-size="10.00">DynamicSoundStream::</text>
<text text-anchor="middle" x="232.5" y="-306" font-family="Helvetica,sans-Serif" font-size="10.00">write_frames</text>
</a>
</g>
</g>
<!-- Node1&#45;&gt;Node9 -->
<g id="edge20_Node000001_Node000009" class="edge">
<title>Node1&#45;&gt;Node9</title>
<g id="a_edge20_Node000001_Node000009"><a xlink:title=" ">
<path fill="none" stroke="#63b8ff" d="M882.26,-292.37C864.57,-316.12 835.98,-348.12 802,-362.5 626.99,-436.58 394.71,-375.35 289.51,-340.11"/>
<polygon fill="#63b8ff" stroke="#63b8ff" points="885.26,-294.2 888.27,-284.04 879.58,-290.1 885.26,-294.2"/>
</a>
</g>
</g>
<!-- Node10 -->
<g id="Node000010" class="node">
<title>Node10</title>
<g id="a_Node000010"><a xlink:href="classMayaFlux_1_1Kakshya_1_1DynamicSoundStream_a2e13dea5e12628e12d63d9ca38474abe.html#a2e13dea5e12628e12d63d9ca38474abe" target="_top" xlink:title=" ">
<polygon fill="white" stroke="#666666" points="802,-159 671,-159 671,-118 802,-118 802,-159"/>
<text text-anchor="start" x="679" y="-147" font-family="Helvetica,sans-Serif" font-size="10.00">MayaFlux::Kakshya::</text>
<text text-anchor="start" x="679" y="-136" font-family="Helvetica,sans-Serif" font-size="10.00">DynamicSoundStream::</text>
<text text-anchor="middle" x="736.5" y="-125" font-family="Helvetica,sans-Serif" font-size="10.00">get_channel_frames</text>
</a>
</g>
</g>
<!-- Node1&#45;&gt;Node10 -->
<g id="edge15_Node000001_Node000010" class="edge">
<title>Node1&#45;&gt;Node10</title>
<g id="a_edge15_Node000001_Node000010"><a xlink:title=" ">
<path fill="none" stroke="#63b8ff" d="M874.17,-235.49C854.99,-216.68 828.18,-192.04 802,-173.5 794.83,-168.42 786.83,-163.53 778.99,-159.11"/>
<polygon fill="#63b8ff" stroke="#63b8ff" points="871.82,-238.09 881.39,-242.64 876.75,-233.12 871.82,-238.09"/>
</a>
</g>
</g>
<!-- Node11 -->
<g id="Node000011" class="node">
<title>Node11</title>
<g id="a_Node000011"><a xlink:href="classMayaFlux_1_1Kakshya_1_1DynamicSoundStream_ac3d49a61e9bf001838b5528660d78fb2.html#ac3d49a61e9bf001838b5528660d78fb2" target="_top" xlink:title="Get the fixed capacity of the circular buffer if enabled.">
<polygon fill="white" stroke="#666666" points="802,-100 671,-100 671,-59 802,-59 802,-100"/>
<text text-anchor="start" x="679" y="-88" font-family="Helvetica,sans-Serif" font-size="10.00">MayaFlux::Kakshya::</text>
<text text-anchor="start" x="679" y="-77" font-family="Helvetica,sans-Serif" font-size="10.00">DynamicSoundStream::</text>
<text text-anchor="middle" x="736.5" y="-66" font-family="Helvetica,sans-Serif" font-size="10.00">get_channel_frames</text>
</a>
</g>
</g>
<!-- Node1&#45;&gt;Node11 -->
<g id="edge16_Node000001_Node000011" class="edge">
<title>Node1&#45;&gt;Node11</title>
<g id="a_edge16_Node000001_Node000011"><a xlink:title=" ">
<path fill="none" stroke="#63b8ff" d="M888.72,-233.53C872.8,-199.31 842.68,-143.56 802,-108.5 798.47,-105.45 794.56,-102.67 790.47,-100.15"/>
<polygon fill="#63b8ff" stroke="#63b8ff" points="885.69,-235.33 893.01,-242.99 892.06,-232.44 885.69,-235.33"/>
</a>
</g>
</g>
<!-- Node12 -->
<g id="Node000012" class="node">
<title>Node12</title>
<g id="a_Node000012"><a xlink:href="classMayaFlux_1_1Kakshya_1_1DynamicSoundStream_aaf9ca90c2eb538f3cd091adcc87bfad2.html#aaf9ca90c2eb538f3cd091adcc87bfad2" target="_top" xlink:title=" ">
<polygon fill="white" stroke="#666666" points="802,-41 671,-41 671,0 802,0 802,-41"/>
<text text-anchor="start" x="679" y="-29" font-family="Helvetica,sans-Serif" font-size="10.00">MayaFlux::Kakshya::</text>
<text text-anchor="start" x="679" y="-18" font-family="Helvetica,sans-Serif" font-size="10.00">DynamicSoundStream::</text>
<text text-anchor="middle" x="736.5" y="-7" font-family="Helvetica,sans-Serif" font-size="10.00">set_all_data</text>
</a>
</g>
</g>
<!-- Node1&#45;&gt;Node12 -->
<g id="edge17_Node000001_Node000012" class="edge">
<title>Node1&#45;&gt;Node12</title>
<g id="a_edge17_Node000001_Node000012"><a xlink:title=" ">
<path fill="none" stroke="#63b8ff" d="M894.54,-232.86C882.77,-187.36 854.88,-101.71 802,-49.5 798.85,-46.39 795.32,-43.59 791.56,-41.06"/>
<polygon fill="#63b8ff" stroke="#63b8ff" points="891.19,-233.87 897.01,-242.72 897.98,-232.17 891.19,-233.87"/>
</a>
</g>
</g>
<!-- Node2&#45;&gt;Node3 -->
<g id="edge2_Node000002_Node000003" class="edge">
<title>Node2&#45;&gt;Node3</title>
<g id="a_edge2_Node000002_Node000003"><a xlink:title=" ">
<path fill="none" stroke="#63b8ff" d="M660.76,-322.92C652.18,-324.11 643.48,-325.33 635.05,-326.5"/>
<polygon fill="#63b8ff" stroke="#63b8ff" points="661.34,-326.37 670.76,-321.52 660.37,-319.44 661.34,-326.37"/>
</a>
</g>
</g>
<!-- Node3&#45;&gt;Node4 -->
<g id="edge3_Node000003_Node000004" class="edge">
<title>Node3&#45;&gt;Node4</title>
<g id="a_edge3_Node000003_Node000004"><a xlink:title=" ">
<path fill="none" stroke="#63b8ff" d="M528.82,-361.71C499.54,-381.06 460.23,-407.03 433.18,-424.9"/>
<polygon fill="#63b8ff" stroke="#63b8ff" points="530.77,-364.62 537.18,-356.19 526.91,-358.78 530.77,-364.62"/>
</a>
</g>
</g>
<!-- Node3&#45;&gt;Node6 -->
<g id="edge5_Node000003_Node000006" class="edge">
<title>Node3&#45;&gt;Node6</title>
<g id="a_edge5_Node000003_Node000006"><a xlink:title=" ">
<path fill="none" stroke="#63b8ff" d="M532.92,-308.82C514.13,-295.31 490.37,-279.14 468,-266.5 462.3,-263.28 456.19,-260.13 450.08,-257.16"/>
<polygon fill="#63b8ff" stroke="#63b8ff" points="531.04,-311.77 541.19,-314.81 535.15,-306.11 531.04,-311.77"/>
</a>
</g>
</g>
<!-- Node3&#45;&gt;Node8 -->
<g id="edge7_Node000003_Node000008" class="edge">
<title>Node3&#45;&gt;Node8</title>
<g id="a_edge7_Node000003_Node000008"><a xlink:title=" ">
<path fill="none" stroke="#63b8ff" d="M493.69,-317.53C485.14,-315.47 476.47,-313.39 468.04,-311.37"/>
<polygon fill="#63b8ff" stroke="#63b8ff" points="493.11,-320.99 503.65,-319.92 494.74,-314.18 493.11,-320.99"/>
</a>
</g>
</g>
<!-- Node3&#45;&gt;Node9 -->
<g id="edge11_Node000003_Node000009" class="edge">
<title>Node3&#45;&gt;Node9</title>
<g id="a_edge11_Node000003_Node000009"><a xlink:title=" ">
<path fill="none" stroke="#63b8ff" d="M493.59,-332.63C447.55,-330.79 387.35,-328.23 334,-325.5 322.39,-324.91 310.03,-324.22 298.1,-323.52"/>
<polygon fill="#63b8ff" stroke="#63b8ff" points="493.66,-336.14 503.79,-333.04 493.94,-329.14 493.66,-336.14"/>
</a>
</g>
</g>
<!-- Node4&#45;&gt;Node5 -->
<g id="edge4_Node000004_Node000005" class="edge">
<title>Node4&#45;&gt;Node5</title>
<g id="a_edge4_Node000004_Node000005"><a xlink:title=" ">
<path fill="none" stroke="#63b8ff" d="M325.09,-456.3C316.11,-457.59 306.99,-458.91 298.17,-460.18"/>
<polygon fill="#63b8ff" stroke="#63b8ff" points="325.75,-459.74 335.15,-454.85 324.75,-452.81 325.75,-459.74"/>
</a>
</g>
</g>
<!-- Node6&#45;&gt;Node7 -->
<g id="edge6_Node000006_Node000007" class="edge">
<title>Node6&#45;&gt;Node7</title>
<g id="a_edge6_Node000006_Node000007"><a xlink:title=" ">
<path fill="none" stroke="#63b8ff" d="M325.04,-236.5C266.68,-236.5 186.54,-236.5 131.02,-236.5"/>
<polygon fill="#63b8ff" stroke="#63b8ff" points="325.3,-240 335.3,-236.5 325.3,-233 325.3,-240"/>
</a>
</g>
</g>
<!-- Node8&#45;&gt;Node9 -->
<g id="edge8_Node000008_Node000009" class="edge">
<title>Node8&#45;&gt;Node9</title>
<g id="a_edge8_Node000008_Node000009"><a xlink:title=" ">
<path fill="none" stroke="#63b8ff" d="M323.76,-306.49C315.22,-307.72 306.57,-308.97 298.2,-310.17"/>
<polygon fill="#63b8ff" stroke="#63b8ff" points="324.32,-309.95 333.72,-305.05 323.32,-303.02 324.32,-309.95"/>
</a>
</g>
</g>
<!-- Node9&#45;&gt;Node7 -->
<g id="edge10_Node000009_Node000007" class="edge">
<title>Node9&#45;&gt;Node7</title>
<g id="a_edge10_Node000009_Node000007"><a xlink:title=" ">
<path fill="none" stroke="#63b8ff" d="M181.52,-294.36C157.8,-282.43 129.82,-268.35 107.39,-257.07"/>
<polygon fill="#63b8ff" stroke="#63b8ff" points="180.21,-297.62 190.71,-298.98 183.35,-291.36 180.21,-297.62"/>
</a>
</g>
</g>
<!-- Node9&#45;&gt;Node9 -->
<g id="edge9_Node000009_Node000009" class="edge">
<title>Node9&#45;&gt;Node9</title>
<g id="a_edge9_Node000009_Node000009"><a xlink:title=" ">
<path fill="none" stroke="#63b8ff" d="M261.06,-349.96C256.81,-354.74 247.29,-358 232.5,-358 208.83,-358 198.66,-349.65 201.99,-340.1"/>
<polygon fill="#63b8ff" stroke="#63b8ff" points="264.5,-350.59 263.01,-340.1 257.64,-349.23 264.5,-350.59"/>
</a>
</g>
</g>
</g>
</svg>

<g id="navigator" transform="translate(0 0)" fill="#404254">
  <rect fill="#f2f5e9" fill-opacity="0.5" stroke="#606060" stroke-width=".5" x="0" y="0" width="60" height="60"/>
  <use id="zoomplus" xlink:href="#zoomPlus" x="17" y="9" onmousedown="handleZoom(evt,'in')"/>
  <use id="zoomminus" xlink:href="#zoomMin" x="42" y="9" onmousedown="handleZoom(evt,'out')"/>
  <use id="reset" xlink:href="#resetDef" x="30" y="36" onmousedown="handleReset()"/>
   <use id="arrowup" xlink:href="#arrowUp" x="0" y="0" onmousedown="handlePan(0,-1)"/>
  <use id="arrowright" xlink:href="#arrowRight" x="0" y="0" onmousedown="handlePan(1,0)"/>
  <use id="arrowdown" xlink:href="#arrowDown" x="0" y="0" onmousedown="handlePan(0,1)"/>
  <use id="arrowleft" xlink:href="#arrowLeft" x="0" y="0" onmousedown="handlePan(-1,0)"/>
</g>
<svg viewBox="0 0 15 15" width="100%" height="30px" preserveAspectRatio="xMaxYMin meet">
 <g id="arrow_out" transform="scale(0.3 0.3)">
  <a xlink:href="classMayaFlux_1_1Kakshya_1_1SoundStreamContainer_aa614dad97adb83d9b5e5b10e839e033c_aa614dad97adb83d9b5e5b10e839e033c_icgraph_org.svg" target="_base">
   <rect id="button" ry="5" rx="5" y="6" x="6" height="38" width="38"
        fill="#f2f5e9" fill-opacity="0.5" stroke="#606060" stroke-width="1.0"/>
   <path id="arrow"
     d="M 11.500037,31.436501 C 11.940474,20.09759 22.043105,11.32322 32.158766,21.979434 L 37.068811,17.246167 C 37.068811,17.246167 37.088388,32 37.088388,32 L 22.160133,31.978069 C 22.160133,31.978069 26.997745,27.140456 26.997745,27.140456 C 18.528582,18.264221 13.291696,25.230495 11.500037,31.436501 z"
     style="fill:#404040;"/>
  </a>
 </g>
</svg>

<style type='text/css'>
<![CDATA[
[data-mouse-over-selected='false'] { opacity: 0.7; }
[data-mouse-over-selected='true']  { opacity: 1.0; }
]]>
</style>
<script type="application/ecmascript"><![CDATA[
document.addEventListener('DOMContentLoaded', (event) => {
  highlightEdges();
  highlightAdjacentNodes();
});
]]></script>
</svg>
