<?xml version="1.0" encoding="UTF-8" standalone="no"?>
<!DOCTYPE svg PUBLIC "-//W3C//DTD SVG 1.1//EN"
 "http://www.w3.org/Graphics/SVG/1.1/DTD/svg11.dtd">
<!-- Generated by graphviz version 2.43.0 (0)
 -->
<!-- Title: MayaFlux::Nodes::Generator::Sine::update_phase_increment Pages: 1 -->
<!--zoomable 326 -->

<svg id="main" version="1.1" xmlns="http://www.w3.org/2000/svg" xmlns:xlink="http://www.w3.org/1999/xlink" xml:space="preserve" onload="init(evt)">
<style type="text/css"><![CDATA[
.node, .edge {opacity: 0.7;}
.node.selected, .edge.selected {opacity: 1;}
.edge:hover path { stroke: red; }
.edge:hover polygon { stroke: red; fill: red; }
]]></style>

<defs>
  <circle id="rim" cx="0" cy="0" r="7"/>
  <circle id="rim2" cx="0" cy="0" r="3.5"/>
  <g id="zoomPlus">
    <use xlink:href="#rim" fill="#404040"><set attributeName="fill" to="#808080" begin="zoomplus.mouseover" end="zoomplus.mouseout"/></use>
    <path d="M-4,0h8M0,-4v8" fill="none" stroke="white" stroke-width="1.5" pointer-events="none"/>
  </g>
  <g id="zoomMin">
    <use xlink:href="#rim" fill="#404040"><set attributeName="fill" to="#808080" begin="zoomminus.mouseover" end="zoomminus.mouseout"/></use>
    <path d="M-4,0h8" fill="none" stroke="white" stroke-width="1.5" pointer-events="none"/>
  </g>
  <g id="arrowUp" transform="translate(30 24)">
    <use xlink:href="#rim"/>
    <path pointer-events="none" fill="none" stroke="white" stroke-width="1.5" d="M0,-3.0v7 M-2.5,-0.5L0,-3.0L2.5,-0.5"/>
  </g>
  <g id="arrowRight" transform="rotate(90) translate(36 -43)">
    <use xlink:href="#rim"/>
    <path pointer-events="none" fill="none" stroke="white" stroke-width="1.5" d="M0,-3.0v7 M-2.5,-0.5L0,-3.0L2.5,-0.5"/>
  </g>
  <g id="arrowDown" transform="rotate(180) translate(-30 -48)">
    <use xlink:href="#rim"/>
    <path pointer-events="none" fill="none" stroke="white" stroke-width="1.5" d="M0,-3.0v7 M-2.5,-0.5L0,-3.0L2.5,-0.5"/>
  </g>
  <g id="arrowLeft" transform="rotate(270) translate(-36 17)">
    <use xlink:href="#rim"/>
    <path pointer-events="none" fill="none" stroke="white" stroke-width="1.5" d="M0,-3.0v7 M-2.5,-0.5L0,-3.0L2.5,-0.5"/>
  </g>
  <g id="resetDef">
    <use xlink:href="#rim2" fill="#404040"><set attributeName="fill" to="#808080" begin="reset.mouseover" end="reset.mouseout"/></use>
  </g>
</defs>
<script type="application/ecmascript">
var viewWidth = 565;
var viewHeight = 326;
var sectionId = 'dynsection-0';
</script>
<script type="application/ecmascript" xlink:href="svg.min.js"/>
<svg id="graph" class="graph">
<g id="viewport">
<title>MayaFlux::Nodes::Generator::Sine::update_phase_increment</title>
<!-- Node1 -->
<g id="Node000001" class="node">
<title>Node1</title>
<g id="a_Node000001"><a xlink:title="Updates the phase increment based on a new frequency.">
<polygon fill="#999999" stroke="#666666" points="557,-174 384,-174 384,-144 557,-144 557,-174"/>
<text text-anchor="start" x="392" y="-162" font-family="Helvetica,sans-Serif" font-size="10.00">MayaFlux::Nodes::Generator</text>
<text text-anchor="middle" x="470.5" y="-151" font-family="Helvetica,sans-Serif" font-size="10.00">::Sine::update_phase_increment</text>
</a>
</g>
</g>
<!-- Node2 -->
<g id="Node000002" class="node">
<title>Node2</title>
<g id="a_Node000002"><a xlink:href="classMayaFlux_1_1Nodes_1_1Generator_1_1Sine_af63eeb6345c84fd7e61860b99ca369bb.html#af63eeb6345c84fd7e61860b99ca369bb" target="_top" xlink:title="Processes a single input sample and generates a sine wave sample.">
<polygon fill="white" stroke="#666666" points="348,-318 192,-318 192,-288 348,-288 348,-318"/>
<text text-anchor="start" x="200" y="-306" font-family="Helvetica,sans-Serif" font-size="10.00">MayaFlux::Nodes::Generator</text>
<text text-anchor="middle" x="270" y="-295" font-family="Helvetica,sans-Serif" font-size="10.00">::Sine::process_sample</text>
</a>
</g>
</g>
<!-- Node1&#45;&gt;Node2 -->
<g id="edge1_Node000001_Node000002" class="edge">
<title>Node1&#45;&gt;Node2</title>
<g id="a_edge1_Node000001_Node000002"><a xlink:title=" ">
<path fill="none" stroke="#63b8ff" d="M451.72,-182.35C430.03,-209.31 390.89,-253.25 348,-279 342.36,-282.39 336.19,-285.34 329.88,-287.9"/>
<polygon fill="#63b8ff" stroke="#63b8ff" points="454.68,-184.25 458.14,-174.23 449.19,-179.91 454.68,-184.25"/>
</a>
</g>
</g>
<!-- Node4 -->
<g id="Node000004" class="node">
<title>Node4</title>
<g id="a_Node000004"><a xlink:href="classMayaFlux_1_1Nodes_1_1Generator_1_1Sine_a8800fe39cc69656d2dc112dcdfe7e20d.html#a8800fe39cc69656d2dc112dcdfe7e20d" target="_top" xlink:title="Resets the oscillator&#39;s phase and parameters.">
<polygon fill="white" stroke="#666666" points="348,-270 192,-270 192,-240 348,-240 348,-270"/>
<text text-anchor="start" x="200" y="-258" font-family="Helvetica,sans-Serif" font-size="10.00">MayaFlux::Nodes::Generator</text>
<text text-anchor="middle" x="270" y="-247" font-family="Helvetica,sans-Serif" font-size="10.00">::Sine::reset</text>
</a>
</g>
</g>
<!-- Node1&#45;&gt;Node4 -->
<g id="edge3_Node000001_Node000004" class="edge">
<title>Node1&#45;&gt;Node4</title>
<g id="a_edge3_Node000001_Node000004"><a xlink:title=" ">
<path fill="none" stroke="#63b8ff" d="M438.87,-179.87C414.93,-195.51 380.38,-216.6 348,-231 340.71,-234.24 332.85,-237.23 325.03,-239.92"/>
<polygon fill="#63b8ff" stroke="#63b8ff" points="441.09,-182.6 447.5,-174.17 437.23,-176.76 441.09,-182.6"/>
</a>
</g>
</g>
<!-- Node6 -->
<g id="Node000006" class="node">
<title>Node6</title>
<g id="a_Node000006"><a xlink:href="classMayaFlux_1_1Nodes_1_1Generator_1_1Sine_a5cd786be5839d0917206f0d8655e4c05.html#a5cd786be5839d0917206f0d8655e4c05" target="_top" xlink:title="Sets the oscillator&#39;s frequency.">
<polygon fill="white" stroke="#666666" points="348,-222 192,-222 192,-192 348,-192 348,-222"/>
<text text-anchor="start" x="200" y="-210" font-family="Helvetica,sans-Serif" font-size="10.00">MayaFlux::Nodes::Generator</text>
<text text-anchor="middle" x="270" y="-199" font-family="Helvetica,sans-Serif" font-size="10.00">::Sine::set_frequency</text>
</a>
</g>
</g>
<!-- Node1&#45;&gt;Node6 -->
<g id="edge5_Node000001_Node000006" class="edge">
<title>Node1&#45;&gt;Node6</title>
<g id="a_edge5_Node000001_Node000006"><a xlink:title=" ">
<path fill="none" stroke="#63b8ff" d="M397.37,-176.44C376.29,-181.54 353.44,-187.07 333.04,-192"/>
<polygon fill="#63b8ff" stroke="#63b8ff" points="398.34,-179.81 407.24,-174.06 396.7,-173 398.34,-179.81"/>
</a>
</g>
</g>
<!-- Node7 -->
<g id="Node000007" class="node">
<title>Node7</title>
<g id="a_Node000007"><a xlink:href="classMayaFlux_1_1Nodes_1_1Generator_1_1Sine_ab008afb4144435db8ffc6cd4fc3c7332.html#ab008afb4144435db8ffc6cd4fc3c7332" target="_top" xlink:title="Constructor with both frequency and amplitude modulation.">
<polygon fill="white" stroke="#666666" points="348,-174 192,-174 192,-144 348,-144 348,-174"/>
<text text-anchor="start" x="200" y="-162" font-family="Helvetica,sans-Serif" font-size="10.00">MayaFlux::Nodes::Generator</text>
<text text-anchor="middle" x="270" y="-151" font-family="Helvetica,sans-Serif" font-size="10.00">::Sine::Sine</text>
</a>
</g>
</g>
<!-- Node1&#45;&gt;Node7 -->
<g id="edge6_Node000001_Node000007" class="edge">
<title>Node1&#45;&gt;Node7</title>
<g id="a_edge6_Node000001_Node000007"><a xlink:title=" ">
<path fill="none" stroke="#63b8ff" d="M373.83,-159C365.24,-159 356.61,-159 348.21,-159"/>
<polygon fill="#63b8ff" stroke="#63b8ff" points="373.88,-162.5 383.88,-159 373.88,-155.5 373.88,-162.5"/>
</a>
</g>
</g>
<!-- Node8 -->
<g id="Node000008" class="node">
<title>Node8</title>
<g id="a_Node000008"><a xlink:href="classMayaFlux_1_1Nodes_1_1Generator_1_1Sine_ae2b11be43ea03edd785818da36704fa9.html#ae2b11be43ea03edd785818da36704fa9" target="_top" xlink:title="Constructor with frequency modulation.">
<polygon fill="white" stroke="#666666" points="348,-126 192,-126 192,-96 348,-96 348,-126"/>
<text text-anchor="start" x="200" y="-114" font-family="Helvetica,sans-Serif" font-size="10.00">MayaFlux::Nodes::Generator</text>
<text text-anchor="middle" x="270" y="-103" font-family="Helvetica,sans-Serif" font-size="10.00">::Sine::Sine</text>
</a>
</g>
</g>
<!-- Node1&#45;&gt;Node8 -->
<g id="edge7_Node000001_Node000008" class="edge">
<title>Node1&#45;&gt;Node8</title>
<g id="a_edge7_Node000001_Node000008"><a xlink:title=" ">
<path fill="none" stroke="#63b8ff" d="M397.37,-141.56C376.29,-136.46 353.44,-130.93 333.04,-126"/>
<polygon fill="#63b8ff" stroke="#63b8ff" points="396.7,-145 407.24,-143.94 398.34,-138.19 396.7,-145"/>
</a>
</g>
</g>
<!-- Node9 -->
<g id="Node000009" class="node">
<title>Node9</title>
<g id="a_Node000009"><a xlink:href="classMayaFlux_1_1Nodes_1_1Generator_1_1Sine_a6bd273ef5644755daec948051a319a5c.html#a6bd273ef5644755daec948051a319a5c" target="_top" xlink:title="Constructor with amplitude modulation.">
<polygon fill="white" stroke="#666666" points="348,-78 192,-78 192,-48 348,-48 348,-78"/>
<text text-anchor="start" x="200" y="-66" font-family="Helvetica,sans-Serif" font-size="10.00">MayaFlux::Nodes::Generator</text>
<text text-anchor="middle" x="270" y="-55" font-family="Helvetica,sans-Serif" font-size="10.00">::Sine::Sine</text>
</a>
</g>
</g>
<!-- Node1&#45;&gt;Node9 -->
<g id="edge8_Node000001_Node000009" class="edge">
<title>Node1&#45;&gt;Node9</title>
<g id="a_edge8_Node000001_Node000009"><a xlink:title=" ">
<path fill="none" stroke="#63b8ff" d="M438.87,-138.13C414.93,-122.49 380.38,-101.4 348,-87 340.71,-83.76 332.85,-80.77 325.03,-78.08"/>
<polygon fill="#63b8ff" stroke="#63b8ff" points="437.23,-141.24 447.5,-143.83 441.09,-135.4 437.23,-141.24"/>
</a>
</g>
</g>
<!-- Node10 -->
<g id="Node000010" class="node">
<title>Node10</title>
<g id="a_Node000010"><a xlink:href="classMayaFlux_1_1Nodes_1_1Generator_1_1Sine_a9e5268ae54b30882db7312cabf44389d.html#a9e5268ae54b30882db7312cabf44389d" target="_top" xlink:title="Basic constructor with fixed parameters.">
<polygon fill="white" stroke="#666666" points="348,-30 192,-30 192,0 348,0 348,-30"/>
<text text-anchor="start" x="200" y="-18" font-family="Helvetica,sans-Serif" font-size="10.00">MayaFlux::Nodes::Generator</text>
<text text-anchor="middle" x="270" y="-7" font-family="Helvetica,sans-Serif" font-size="10.00">::Sine::Sine</text>
</a>
</g>
</g>
<!-- Node1&#45;&gt;Node10 -->
<g id="edge9_Node000001_Node000010" class="edge">
<title>Node1&#45;&gt;Node10</title>
<g id="a_edge9_Node000001_Node000010"><a xlink:title=" ">
<path fill="none" stroke="#63b8ff" d="M451.72,-135.65C430.03,-108.69 390.89,-64.75 348,-39 342.36,-35.61 336.19,-32.66 329.88,-30.1"/>
<polygon fill="#63b8ff" stroke="#63b8ff" points="449.19,-138.09 458.14,-143.77 454.68,-133.75 449.19,-138.09"/>
</a>
</g>
</g>
<!-- Node3 -->
<g id="Node000003" class="node">
<title>Node3</title>
<g id="a_Node000003"><a xlink:href="classMayaFlux_1_1Nodes_1_1Generator_1_1Sine_a125814268df2731f1cc48170d935d6c1.html#a125814268df2731f1cc48170d935d6c1" target="_top" xlink:title="Processes multiple samples at once.">
<polygon fill="white" stroke="#666666" points="156,-318 0,-318 0,-288 156,-288 156,-318"/>
<text text-anchor="start" x="8" y="-306" font-family="Helvetica,sans-Serif" font-size="10.00">MayaFlux::Nodes::Generator</text>
<text text-anchor="middle" x="78" y="-295" font-family="Helvetica,sans-Serif" font-size="10.00">::Sine::process_batch</text>
</a>
</g>
</g>
<!-- Node2&#45;&gt;Node3 -->
<g id="edge2_Node000002_Node000003" class="edge">
<title>Node2&#45;&gt;Node3</title>
<g id="a_edge2_Node000002_Node000003"><a xlink:title=" ">
<path fill="none" stroke="#63b8ff" d="M181.94,-303C173.32,-303 164.62,-303 156.12,-303"/>
<polygon fill="#63b8ff" stroke="#63b8ff" points="181.99,-306.5 191.99,-303 181.99,-299.5 181.99,-306.5"/>
</a>
</g>
</g>
<!-- Node5 -->
<g id="Node000005" class="node">
<title>Node5</title>
<g id="a_Node000005"><a xlink:href="classMayaFlux_1_1Nodes_1_1Generator_1_1Sine_a5227185d6fbc53492cde42c480f78d03.html#a5227185d6fbc53492cde42c480f78d03" target="_top" xlink:title="Removes all modulation connections.">
<polygon fill="white" stroke="#666666" points="156,-270 0,-270 0,-240 156,-240 156,-270"/>
<text text-anchor="start" x="8" y="-258" font-family="Helvetica,sans-Serif" font-size="10.00">MayaFlux::Nodes::Generator</text>
<text text-anchor="middle" x="78" y="-247" font-family="Helvetica,sans-Serif" font-size="10.00">::Sine::clear_modulators</text>
</a>
</g>
</g>
<!-- Node4&#45;&gt;Node5 -->
<g id="edge4_Node000004_Node000005" class="edge">
<title>Node4&#45;&gt;Node5</title>
<g id="a_edge4_Node000004_Node000005"><a xlink:title=" ">
<path fill="none" stroke="#63b8ff" d="M181.94,-255C173.32,-255 164.62,-255 156.12,-255"/>
<polygon fill="#63b8ff" stroke="#63b8ff" points="181.99,-258.5 191.99,-255 181.99,-251.5 181.99,-258.5"/>
</a>
</g>
</g>
</g>
</svg>

<g id="navigator" transform="translate(0 0)" fill="#404254">
  <rect fill="#f2f5e9" fill-opacity="0.5" stroke="#606060" stroke-width=".5" x="0" y="0" width="60" height="60"/>
  <use id="zoomplus" xlink:href="#zoomPlus" x="17" y="9" onmousedown="handleZoom(evt,'in')"/>
  <use id="zoomminus" xlink:href="#zoomMin" x="42" y="9" onmousedown="handleZoom(evt,'out')"/>
  <use id="reset" xlink:href="#resetDef" x="30" y="36" onmousedown="handleReset()"/>
   <use id="arrowup" xlink:href="#arrowUp" x="0" y="0" onmousedown="handlePan(0,-1)"/>
  <use id="arrowright" xlink:href="#arrowRight" x="0" y="0" onmousedown="handlePan(1,0)"/>
  <use id="arrowdown" xlink:href="#arrowDown" x="0" y="0" onmousedown="handlePan(0,1)"/>
  <use id="arrowleft" xlink:href="#arrowLeft" x="0" y="0" onmousedown="handlePan(-1,0)"/>
</g>
<svg viewBox="0 0 15 15" width="100%" height="30px" preserveAspectRatio="xMaxYMin meet">
 <g id="arrow_out" transform="scale(0.3 0.3)">
  <a xlink:href="classMayaFlux_1_1Nodes_1_1Generator_1_1Sine_a5109ee00efbeeca62a1be0399ce6fec4_a5109ee00efbeeca62a1be0399ce6fec4_icgraph_org.svg" target="_base">
   <rect id="button" ry="5" rx="5" y="6" x="6" height="38" width="38"
        fill="#f2f5e9" fill-opacity="0.5" stroke="#606060" stroke-width="1.0"/>
   <path id="arrow"
     d="M 11.500037,31.436501 C 11.940474,20.09759 22.043105,11.32322 32.158766,21.979434 L 37.068811,17.246167 C 37.068811,17.246167 37.088388,32 37.088388,32 L 22.160133,31.978069 C 22.160133,31.978069 26.997745,27.140456 26.997745,27.140456 C 18.528582,18.264221 13.291696,25.230495 11.500037,31.436501 z"
     style="fill:#404040;"/>
  </a>
 </g>
</svg>

<style type='text/css'>
<![CDATA[
[data-mouse-over-selected='false'] { opacity: 0.7; }
[data-mouse-over-selected='true']  { opacity: 1.0; }
]]>
</style>
<script type="application/ecmascript"><![CDATA[
document.addEventListener('DOMContentLoaded', (event) => {
  highlightEdges();
  highlightAdjacentNodes();
});
]]></script>
</svg>
