<?xml version="1.0" encoding="UTF-8" standalone="no"?>
<!DOCTYPE svg PUBLIC "-//W3C//DTD SVG 1.1//EN"
 "http://www.w3.org/Graphics/SVG/1.1/DTD/svg11.dtd">
<!-- Generated by graphviz version 2.43.0 (0)
 -->
<!-- Title: MayaFlux::Nodes::Network::NodeNetwork::is_enabled Pages: 1 -->
<svg width="387pt" height="278pt"
 viewBox="0.00 0.00 387.00 278.00" xmlns="http://www.w3.org/2000/svg" xmlns:xlink="http://www.w3.org/1999/xlink">
<g id="graph0" class="graph" transform="scale(1 1) rotate(0) translate(4 274)">
<title>MayaFlux::Nodes::Network::NodeNetwork::is_enabled</title>
<!-- Node1 -->
<g id="Node000001" class="node">
<title>Node1</title>
<g id="a_Node000001"><a xlink:title="Check if network is enabled.">
<polygon fill="#999999" stroke="#666666" points="379,-150 230,-150 230,-120 379,-120 379,-150"/>
<text text-anchor="start" x="238" y="-138" font-family="Helvetica,sans-Serif" font-size="10.00">MayaFlux::Nodes::Network</text>
<text text-anchor="middle" x="304.5" y="-127" font-family="Helvetica,sans-Serif" font-size="10.00">::NodeNetwork::is_enabled</text>
</a>
</g>
</g>
<!-- Node2 -->
<g id="Node000002" class="node">
<title>Node2</title>
<g id="a_Node000002"><a xlink:href="classMayaFlux_1_1Nodes_1_1Network_1_1InstanceNetwork_a71904c8ee26412d7965a75cad72b9d27.html#a71904c8ee26412d7965a75cad72b9d27" target="_top" xlink:title="Process the network for the given number of samples.">
<polygon fill="white" stroke="#666666" points="187.5,-270 6.5,-270 6.5,-240 187.5,-240 187.5,-270"/>
<text text-anchor="start" x="14.5" y="-258" font-family="Helvetica,sans-Serif" font-size="10.00">MayaFlux::Nodes::Network</text>
<text text-anchor="middle" x="97" y="-247" font-family="Helvetica,sans-Serif" font-size="10.00">::InstanceNetwork::process_batch</text>
</a>
</g>
</g>
<!-- Node1&#45;&gt;Node2 -->
<g id="edge1_Node000001_Node000002" class="edge">
<title>Node1&#45;&gt;Node2</title>
<g id="a_edge1_Node000001_Node000002"><a xlink:title=" ">
<path fill="none" stroke="#63b8ff" d="M283.75,-157.7C263.41,-179.66 229.71,-212.3 194,-231 187.46,-234.43 180.4,-237.38 173.19,-239.92"/>
<polygon fill="#63b8ff" stroke="#63b8ff" points="286.49,-159.89 290.62,-150.13 281.31,-155.18 286.49,-159.89"/>
</a>
</g>
</g>
<!-- Node3 -->
<g id="Node000003" class="node">
<title>Node3</title>
<g id="a_Node000003"><a xlink:href="classMayaFlux_1_1Nodes_1_1Network_1_1MeshNetwork_aa783d2e1877f84b3b7ae4972a1d2f100.html#aa783d2e1877f84b3b7ae4972a1d2f100" target="_top" xlink:title="Process the network for the given number of samples.">
<polygon fill="white" stroke="#666666" points="180,-222 14,-222 14,-192 180,-192 180,-222"/>
<text text-anchor="start" x="22" y="-210" font-family="Helvetica,sans-Serif" font-size="10.00">MayaFlux::Nodes::Network</text>
<text text-anchor="middle" x="97" y="-199" font-family="Helvetica,sans-Serif" font-size="10.00">::MeshNetwork::process_batch</text>
</a>
</g>
</g>
<!-- Node1&#45;&gt;Node3 -->
<g id="edge2_Node000001_Node000003" class="edge">
<title>Node1&#45;&gt;Node3</title>
<g id="a_edge2_Node000001_Node000003"><a xlink:title=" ">
<path fill="none" stroke="#63b8ff" d="M263.58,-154.43C243.1,-163.9 217.57,-174.95 194,-183 184.49,-186.25 174.31,-189.26 164.27,-191.99"/>
<polygon fill="#63b8ff" stroke="#63b8ff" points="265.33,-157.48 272.9,-150.07 262.36,-151.14 265.33,-157.48"/>
</a>
</g>
</g>
<!-- Node4 -->
<g id="Node000004" class="node">
<title>Node4</title>
<g id="a_Node000004"><a xlink:href="classMayaFlux_1_1Nodes_1_1Network_1_1ModalNetwork_a0a7a7f26a40306a856e5be65c610f1a7.html#a0a7a7f26a40306a856e5be65c610f1a7" target="_top" xlink:title="Process the network for the given number of samples.">
<polygon fill="white" stroke="#666666" points="182,-174 12,-174 12,-144 182,-144 182,-174"/>
<text text-anchor="start" x="20" y="-162" font-family="Helvetica,sans-Serif" font-size="10.00">MayaFlux::Nodes::Network</text>
<text text-anchor="middle" x="97" y="-151" font-family="Helvetica,sans-Serif" font-size="10.00">::ModalNetwork::process_batch</text>
</a>
</g>
</g>
<!-- Node1&#45;&gt;Node4 -->
<g id="edge3_Node000001_Node000004" class="edge">
<title>Node1&#45;&gt;Node4</title>
<g id="a_edge3_Node000001_Node000004"><a xlink:title=" ">
<path fill="none" stroke="#63b8ff" d="M219.64,-144.79C207.32,-146.23 194.62,-147.72 182.28,-149.16"/>
<polygon fill="#63b8ff" stroke="#63b8ff" points="220.36,-148.23 229.89,-143.6 219.55,-141.28 220.36,-148.23"/>
</a>
</g>
</g>
<!-- Node5 -->
<g id="Node000005" class="node">
<title>Node5</title>
<g id="a_Node000005"><a xlink:href="classMayaFlux_1_1Nodes_1_1Network_1_1ParticleNetwork_a3f43ec4fb1893a9042bcd6891cbb3648.html#a3f43ec4fb1893a9042bcd6891cbb3648" target="_top" xlink:title="Process the network for the given number of samples.">
<polygon fill="white" stroke="#666666" points="185,-126 9,-126 9,-96 185,-96 185,-126"/>
<text text-anchor="start" x="17" y="-114" font-family="Helvetica,sans-Serif" font-size="10.00">MayaFlux::Nodes::Network</text>
<text text-anchor="middle" x="97" y="-103" font-family="Helvetica,sans-Serif" font-size="10.00">::ParticleNetwork::process_batch</text>
</a>
</g>
</g>
<!-- Node1&#45;&gt;Node5 -->
<g id="edge4_Node000001_Node000005" class="edge">
<title>Node1&#45;&gt;Node5</title>
<g id="a_edge4_Node000001_Node000005"><a xlink:title=" ">
<path fill="none" stroke="#63b8ff" d="M219.91,-125.24C208.44,-123.9 196.65,-122.52 185.12,-121.17"/>
<polygon fill="#63b8ff" stroke="#63b8ff" points="219.55,-128.72 229.89,-126.4 220.36,-121.77 219.55,-128.72"/>
</a>
</g>
</g>
<!-- Node6 -->
<g id="Node000006" class="node">
<title>Node6</title>
<g id="a_Node000006"><a xlink:href="classMayaFlux_1_1Nodes_1_1Network_1_1PointCloudNetwork_a73cf54bd6c1667528aa480b85b030f5a.html#a73cf54bd6c1667528aa480b85b030f5a" target="_top" xlink:title="Process the network for the given number of samples.">
<polygon fill="white" stroke="#666666" points="193,-78 1,-78 1,-48 193,-48 193,-78"/>
<text text-anchor="start" x="9" y="-66" font-family="Helvetica,sans-Serif" font-size="10.00">MayaFlux::Nodes::Network</text>
<text text-anchor="middle" x="97" y="-55" font-family="Helvetica,sans-Serif" font-size="10.00">::PointCloudNetwork::process_batch</text>
</a>
</g>
</g>
<!-- Node1&#45;&gt;Node6 -->
<g id="edge5_Node000001_Node000006" class="edge">
<title>Node1&#45;&gt;Node6</title>
<g id="a_edge5_Node000001_Node000006"><a xlink:title=" ">
<path fill="none" stroke="#63b8ff" d="M263.58,-115.57C243.1,-106.1 217.57,-95.05 194,-87 184.49,-83.75 174.31,-80.74 164.27,-78.01"/>
<polygon fill="#63b8ff" stroke="#63b8ff" points="262.36,-118.86 272.9,-119.93 265.33,-112.52 262.36,-118.86"/>
</a>
</g>
</g>
<!-- Node7 -->
<g id="Node000007" class="node">
<title>Node7</title>
<g id="a_Node000007"><a xlink:href="classMayaFlux_1_1Nodes_1_1Network_1_1WaveguideNetwork_a474473fbb4038d846ed350acbd7e7312.html#a474473fbb4038d846ed350acbd7e7312" target="_top" xlink:title="Process the network for the given number of samples.">
<polygon fill="white" stroke="#666666" points="194,-30 0,-30 0,0 194,0 194,-30"/>
<text text-anchor="start" x="8" y="-18" font-family="Helvetica,sans-Serif" font-size="10.00">MayaFlux::Nodes::Network</text>
<text text-anchor="middle" x="97" y="-7" font-family="Helvetica,sans-Serif" font-size="10.00">::WaveguideNetwork::process_batch</text>
</a>
</g>
</g>
<!-- Node1&#45;&gt;Node7 -->
<g id="edge6_Node000001_Node000007" class="edge">
<title>Node1&#45;&gt;Node7</title>
<g id="a_edge6_Node000001_Node000007"><a xlink:title=" ">
<path fill="none" stroke="#63b8ff" d="M283.75,-112.3C263.41,-90.34 229.71,-57.7 194,-39 187.46,-35.57 180.4,-32.62 173.19,-30.08"/>
<polygon fill="#63b8ff" stroke="#63b8ff" points="281.31,-114.82 290.62,-119.87 286.49,-110.11 281.31,-114.82"/>
</a>
</g>
</g>
</g>
</svg>
