<?xml version="1.0" encoding="UTF-8" standalone="no"?>
<!DOCTYPE svg PUBLIC "-//W3C//DTD SVG 1.1//EN"
 "http://www.w3.org/Graphics/SVG/1.1/DTD/svg11.dtd">
<!-- Generated by graphviz version 2.43.0 (0)
 -->
<!-- Title: MayaFlux::Kinesis::Stochastic::Stochastic::fast_uniform Pages: 1 -->
<svg width="492pt" height="226pt"
 viewBox="0.00 0.00 492.00 226.00" xmlns="http://www.w3.org/2000/svg" xmlns:xlink="http://www.w3.org/1999/xlink">

<svg id="main" version="1.1" xmlns="http://www.w3.org/2000/svg" xmlns:xlink="http://www.w3.org/1999/xlink" xml:space="preserve" onload="init(evt)">
<style type="text/css"><![CDATA[
.node, .edge {opacity: 0.7;}
.node.selected, .edge.selected {opacity: 1;}
.edge:hover path { stroke: red; }
.edge:hover polygon { stroke: red; fill: red; }
]]></style>
<script type="application/ecmascript" xlink:href="svg.min.js"/>
<svg id="graph" class="graph">
<g id="graph0" class="graph" transform="scale(1 1) rotate(0) translate(4 222)">
<title>MayaFlux::Kinesis::Stochastic::Stochastic::fast_uniform</title>
<!-- Node1 -->
<g id="Node000001" class="node">
<title>Node1</title>
<g id="a_Node000001"><a xlink:title=" ">
<polygon fill="#999999" stroke="#666666" points="484,-129 361,-129 361,-88 484,-88 484,-129"/>
<text text-anchor="start" x="369" y="-117" font-family="Helvetica,sans-Serif" font-size="10.00">MayaFlux::Kinesis::</text>
<text text-anchor="start" x="369" y="-106" font-family="Helvetica,sans-Serif" font-size="10.00">Stochastic::Stochastic</text>
<text text-anchor="middle" x="422.5" y="-95" font-family="Helvetica,sans-Serif" font-size="10.00">::fast_uniform</text>
</a>
</g>
</g>
<!-- Node2 -->
<g id="Node000002" class="node">
<title>Node2</title>
<g id="a_Node000002"><a xlink:href="classMayaFlux_1_1Kinesis_1_1Stochastic_1_1Stochastic_a864318a0cc2bbf82b2b3c72ec35b0120.html#a864318a0cc2bbf82b2b3c72ec35b0120" target="_top" xlink:title=" ">
<polygon fill="white" stroke="#666666" points="313.5,-218 170.5,-218 170.5,-177 313.5,-177 313.5,-218"/>
<text text-anchor="start" x="178.5" y="-206" font-family="Helvetica,sans-Serif" font-size="10.00">MayaFlux::Kinesis::</text>
<text text-anchor="start" x="178.5" y="-195" font-family="Helvetica,sans-Serif" font-size="10.00">Stochastic::Stochastic</text>
<text text-anchor="middle" x="242" y="-184" font-family="Helvetica,sans-Serif" font-size="10.00">::generate_brownian_impl</text>
</a>
</g>
</g>
<!-- Node1&#45;&gt;Node2 -->
<g id="edge1_Node000001_Node000002" class="edge">
<title>Node1&#45;&gt;Node2</title>
<g id="a_edge1_Node000001_Node000002"><a xlink:title=" ">
<path fill="none" stroke="#63b8ff" d="M383.34,-134.89C366.03,-146.15 344.99,-158.89 325,-168.5 318.88,-171.44 312.37,-174.25 305.81,-176.87"/>
<polygon fill="#63b8ff" stroke="#63b8ff" points="385.61,-137.58 392.03,-129.15 381.76,-131.74 385.61,-137.58"/>
</a>
</g>
</g>
<!-- Node4 -->
<g id="Node000004" class="node">
<title>Node4</title>
<g id="a_Node000004"><a xlink:href="classMayaFlux_1_1Kinesis_1_1Stochastic_1_1Stochastic_ad6c319a820a012a7444fdbe423d7910f.html#ad6c319a820a012a7444fdbe423d7910f" target="_top" xlink:title=" ">
<polygon fill="white" stroke="#666666" points="325,-159 159,-159 159,-118 325,-118 325,-159"/>
<text text-anchor="start" x="167" y="-147" font-family="Helvetica,sans-Serif" font-size="10.00">MayaFlux::Kinesis::</text>
<text text-anchor="start" x="167" y="-136" font-family="Helvetica,sans-Serif" font-size="10.00">Stochastic::Stochastic</text>
<text text-anchor="middle" x="242" y="-125" font-family="Helvetica,sans-Serif" font-size="10.00">::generate_colored_noise_impl</text>
</a>
</g>
</g>
<!-- Node1&#45;&gt;Node4 -->
<g id="edge3_Node000001_Node000004" class="edge">
<title>Node1&#45;&gt;Node4</title>
<g id="a_edge3_Node000001_Node000004"><a xlink:title=" ">
<path fill="none" stroke="#63b8ff" d="M350.52,-120.43C342.18,-121.83 333.61,-123.27 325.12,-124.7"/>
<polygon fill="#63b8ff" stroke="#63b8ff" points="351.29,-123.85 360.57,-118.74 350.13,-116.95 351.29,-123.85"/>
</a>
</g>
</g>
<!-- Node5 -->
<g id="Node000005" class="node">
<title>Node5</title>
<g id="a_Node000005"><a xlink:href="classMayaFlux_1_1Kinesis_1_1Stochastic_1_1Stochastic_a2d3ce19cf0c4971f8ece8bbbdec35d66.html#a2d3ce19cf0c4971f8ece8bbbdec35d66" target="_top" xlink:title=" ">
<polygon fill="white" stroke="#666666" points="306,-100 178,-100 178,-59 306,-59 306,-100"/>
<text text-anchor="start" x="186" y="-88" font-family="Helvetica,sans-Serif" font-size="10.00">MayaFlux::Kinesis::</text>
<text text-anchor="start" x="186" y="-77" font-family="Helvetica,sans-Serif" font-size="10.00">Stochastic::Stochastic</text>
<text text-anchor="middle" x="242" y="-66" font-family="Helvetica,sans-Serif" font-size="10.00">::generate_gendy_impl</text>
</a>
</g>
</g>
<!-- Node1&#45;&gt;Node5 -->
<g id="edge5_Node000001_Node000005" class="edge">
<title>Node1&#45;&gt;Node5</title>
<g id="a_edge5_Node000001_Node000005"><a xlink:title=" ">
<path fill="none" stroke="#63b8ff" d="M350.53,-96.97C335.85,-94.58 320.47,-92.09 306.09,-89.75"/>
<polygon fill="#63b8ff" stroke="#63b8ff" points="350.14,-100.45 360.57,-98.6 351.26,-93.54 350.14,-100.45"/>
</a>
</g>
</g>
<!-- Node6 -->
<g id="Node000006" class="node">
<title>Node6</title>
<g id="a_Node000006"><a xlink:href="classMayaFlux_1_1Kinesis_1_1Stochastic_1_1Stochastic_ac909906843ed49c852fe3bb41f43fa67.html#ac909906843ed49c852fe3bb41f43fa67" target="_top" xlink:title=" ">
<polygon fill="white" stroke="#666666" points="308,-41 176,-41 176,0 308,0 308,-41"/>
<text text-anchor="start" x="184" y="-29" font-family="Helvetica,sans-Serif" font-size="10.00">MayaFlux::Kinesis::</text>
<text text-anchor="start" x="184" y="-18" font-family="Helvetica,sans-Serif" font-size="10.00">Stochastic::Stochastic</text>
<text text-anchor="middle" x="242" y="-7" font-family="Helvetica,sans-Serif" font-size="10.00">::generate_memoryless</text>
</a>
</g>
</g>
<!-- Node1&#45;&gt;Node6 -->
<g id="edge7_Node000001_Node000006" class="edge">
<title>Node1&#45;&gt;Node6</title>
<g id="a_edge7_Node000001_Node000006"><a xlink:title=" ">
<path fill="none" stroke="#63b8ff" d="M382,-82.43C364.89,-71.75 344.37,-59.76 325,-50.5 318.16,-47.23 310.87,-44.09 303.55,-41.16"/>
<polygon fill="#63b8ff" stroke="#63b8ff" points="380.29,-85.49 390.61,-87.87 384.03,-79.57 380.29,-85.49"/>
</a>
</g>
</g>
<!-- Node3 -->
<g id="Node000003" class="node">
<title>Node3</title>
<g id="a_Node000003"><a xlink:href="classMayaFlux_1_1Kinesis_1_1Stochastic_1_1Stochastic_a90f6258ef28fe6281d652f225d4c6255.html#a90f6258ef28fe6281d652f225d4c6255" target="_top" xlink:title="Generates single value in range.">
<polygon fill="white" stroke="#666666" points="123,-129 0,-129 0,-88 123,-88 123,-129"/>
<text text-anchor="start" x="8" y="-117" font-family="Helvetica,sans-Serif" font-size="10.00">MayaFlux::Kinesis::</text>
<text text-anchor="start" x="8" y="-106" font-family="Helvetica,sans-Serif" font-size="10.00">Stochastic::Stochastic</text>
<text text-anchor="middle" x="61.5" y="-95" font-family="Helvetica,sans-Serif" font-size="10.00">::operator()</text>
</a>
</g>
</g>
<!-- Node2&#45;&gt;Node3 -->
<g id="edge2_Node000002_Node000003" class="edge">
<title>Node2&#45;&gt;Node3</title>
<g id="a_edge2_Node000002_Node000003"><a xlink:title=" ">
<path fill="none" stroke="#63b8ff" d="M168.73,-172.94C165.42,-171.5 162.16,-170.02 159,-168.5 135.53,-157.22 110.61,-141.62 91.97,-129.15"/>
<polygon fill="#63b8ff" stroke="#63b8ff" points="167.61,-176.26 178.19,-176.87 170.3,-169.8 167.61,-176.26"/>
</a>
</g>
</g>
<!-- Node4&#45;&gt;Node3 -->
<g id="edge4_Node000004_Node000003" class="edge">
<title>Node4&#45;&gt;Node3</title>
<g id="a_edge4_Node000004_Node000003"><a xlink:title=" ">
<path fill="none" stroke="#63b8ff" d="M148.67,-122.98C140.03,-121.53 131.44,-120.09 123.2,-118.7"/>
<polygon fill="#63b8ff" stroke="#63b8ff" points="148.36,-126.48 158.8,-124.69 149.52,-119.58 148.36,-126.48"/>
</a>
</g>
</g>
<!-- Node5&#45;&gt;Node3 -->
<g id="edge6_Node000005_Node000003" class="edge">
<title>Node5&#45;&gt;Node3</title>
<g id="a_edge6_Node000005_Node000003"><a xlink:title=" ">
<path fill="none" stroke="#63b8ff" d="M167.69,-91.41C152.9,-93.81 137.5,-96.31 123.2,-98.64"/>
<polygon fill="#63b8ff" stroke="#63b8ff" points="168.51,-94.82 177.82,-89.77 167.38,-87.91 168.51,-94.82"/>
</a>
</g>
</g>
<!-- Node6&#45;&gt;Node3 -->
<g id="edge8_Node000006_Node000003" class="edge">
<title>Node6&#45;&gt;Node3</title>
<g id="a_edge8_Node000006_Node000003"><a xlink:title=" ">
<path fill="none" stroke="#63b8ff" d="M170.89,-45.12C166.84,-46.86 162.85,-48.66 159,-50.5 136.25,-61.38 111.93,-76.02 93.39,-87.87"/>
<polygon fill="#63b8ff" stroke="#63b8ff" points="172.55,-48.23 180.45,-41.16 169.87,-41.76 172.55,-48.23"/>
</a>
</g>
</g>
</g>
</svg>
</svg>

<style type='text/css'>
<![CDATA[
[data-mouse-over-selected='false'] { opacity: 0.7; }
[data-mouse-over-selected='true']  { opacity: 1.0; }
]]>
</style>
<script type="application/ecmascript"><![CDATA[
document.addEventListener('DOMContentLoaded', (event) => {
  highlightEdges();
  highlightAdjacentNodes();
});
]]></script>
</svg>
