<?xml version="1.0" encoding="UTF-8" standalone="no"?>
<!DOCTYPE svg PUBLIC "-//W3C//DTD SVG 1.1//EN"
 "http://www.w3.org/Graphics/SVG/1.1/DTD/svg11.dtd">
<!-- Generated by graphviz version 2.43.0 (0)
 -->
<!-- Title: MayaFlux::Kakshya::DynamicSoundStream::ensure_capacity Pages: 1 -->
<svg width="962pt" height="247pt"
 viewBox="0.00 0.00 962.00 246.78" xmlns="http://www.w3.org/2000/svg" xmlns:xlink="http://www.w3.org/1999/xlink">
<g id="graph0" class="graph" transform="scale(1 1) rotate(0) translate(4 242.78)">
<title>MayaFlux::Kakshya::DynamicSoundStream::ensure_capacity</title>
<!-- Node1 -->
<g id="Node000001" class="node">
<title>Node1</title>
<g id="a_Node000001"><a xlink:title="Pre&#45;allocate capacity for the specified number of frames.">
<polygon fill="#999999" stroke="#666666" points="131,-124 0,-124 0,-83 131,-83 131,-124"/>
<text text-anchor="start" x="8" y="-112" font-family="Helvetica,sans-Serif" font-size="10.00">MayaFlux::Kakshya::</text>
<text text-anchor="start" x="8" y="-101" font-family="Helvetica,sans-Serif" font-size="10.00">DynamicSoundStream::</text>
<text text-anchor="middle" x="65.5" y="-90" font-family="Helvetica,sans-Serif" font-size="10.00">ensure_capacity</text>
</a>
</g>
</g>
<!-- Node2 -->
<g id="Node000002" class="node">
<title>Node2</title>
<g id="a_Node000002"><a xlink:href="classMayaFlux_1_1Kakshya_1_1DynamicSoundStream_a76f02825c588ece2a442fa91655dd672.html#a76f02825c588ece2a442fa91655dd672" target="_top" xlink:title=" ">
<polygon fill="white" stroke="#666666" points="298,-124 167,-124 167,-83 298,-83 298,-124"/>
<text text-anchor="start" x="175" y="-112" font-family="Helvetica,sans-Serif" font-size="10.00">MayaFlux::Kakshya::</text>
<text text-anchor="start" x="175" y="-101" font-family="Helvetica,sans-Serif" font-size="10.00">DynamicSoundStream::</text>
<text text-anchor="middle" x="232.5" y="-90" font-family="Helvetica,sans-Serif" font-size="10.00">expand_to</text>
</a>
</g>
</g>
<!-- Node1&#45;&gt;Node2 -->
<g id="edge1_Node000001_Node000002" class="edge">
<title>Node1&#45;&gt;Node2</title>
<g id="a_edge1_Node000001_Node000002"><a xlink:title=" ">
<path fill="none" stroke="#63b8ff" d="M131.24,-103.5C139.58,-103.5 148.18,-103.5 156.67,-103.5"/>
<polygon fill="#63b8ff" stroke="#63b8ff" points="156.95,-107 166.95,-103.5 156.95,-100 156.95,-107"/>
</a>
</g>
</g>
<!-- Node7 -->
<g id="Node000007" class="node">
<title>Node7</title>
<g id="a_Node000007"><a xlink:href="classMayaFlux_1_1Kakshya_1_1SoundStreamContainer_aa614dad97adb83d9b5e5b10e839e033c.html#aa614dad97adb83d9b5e5b10e839e033c" target="_top" xlink:title=" ">
<polygon fill="white" stroke="#666666" points="631,-151 502,-151 502,-110 631,-110 631,-151"/>
<text text-anchor="start" x="510" y="-139" font-family="Helvetica,sans-Serif" font-size="10.00">MayaFlux::Kakshya::</text>
<text text-anchor="start" x="510" y="-128" font-family="Helvetica,sans-Serif" font-size="10.00">SoundStreamContainer</text>
<text text-anchor="middle" x="566.5" y="-117" font-family="Helvetica,sans-Serif" font-size="10.00">::get_num_channels</text>
</a>
</g>
</g>
<!-- Node1&#45;&gt;Node7 -->
<g id="edge12_Node000001_Node000007" class="edge">
<title>Node1&#45;&gt;Node7</title>
<g id="a_edge12_Node000001_Node000007"><a xlink:title=" ">
<path fill="none" stroke="#63b8ff" d="M99.49,-124.22C148.44,-153.6 244.22,-205.99 334,-225.5 390.89,-237.86 410.9,-247.02 465,-225.5 498.38,-212.22 527.07,-182.01 545.15,-159.2"/>
<polygon fill="#63b8ff" stroke="#63b8ff" points="548,-161.23 551.32,-151.17 542.45,-156.97 548,-161.23"/>
</a>
</g>
</g>
<!-- Node8 -->
<g id="Node000008" class="node">
<title>Node8</title>
<g id="a_Node000008"><a xlink:href="classMayaFlux_1_1Kakshya_1_1SoundStreamContainer_a2198982176e99651ef683458877dd741.html#a2198982176e99651ef683458877dd741" target="_top" xlink:title="Get the total number of elements in the container.">
<polygon fill="white" stroke="#666666" points="464,-41 335,-41 335,0 464,0 464,-41"/>
<text text-anchor="start" x="343" y="-29" font-family="Helvetica,sans-Serif" font-size="10.00">MayaFlux::Kakshya::</text>
<text text-anchor="start" x="343" y="-18" font-family="Helvetica,sans-Serif" font-size="10.00">SoundStreamContainer</text>
<text text-anchor="middle" x="399.5" y="-7" font-family="Helvetica,sans-Serif" font-size="10.00">::get_total_elements</text>
</a>
</g>
</g>
<!-- Node1&#45;&gt;Node8 -->
<g id="edge13_Node000001_Node000008" class="edge">
<title>Node1&#45;&gt;Node8</title>
<g id="a_edge13_Node000001_Node000008"><a xlink:title=" ">
<path fill="none" stroke="#63b8ff" d="M131.2,-83.51C143.07,-80.04 155.38,-76.56 167,-73.5 219.56,-59.65 279.38,-46.01 325.04,-36.04"/>
<polygon fill="#63b8ff" stroke="#63b8ff" points="325.82,-39.45 334.85,-33.9 324.34,-32.61 325.82,-39.45"/>
</a>
</g>
</g>
<!-- Node3 -->
<g id="Node000003" class="node">
<title>Node3</title>
<g id="a_Node000003"><a xlink:href="classMayaFlux_1_1Kakshya_1_1DynamicSoundStream_a6ee56fd9b5665418b0968ddb46ee17c7.html#a6ee56fd9b5665418b0968ddb46ee17c7" target="_top" xlink:title=" ">
<polygon fill="white" stroke="#666666" points="465,-100 334,-100 334,-59 465,-59 465,-100"/>
<text text-anchor="start" x="342" y="-88" font-family="Helvetica,sans-Serif" font-size="10.00">MayaFlux::Kakshya::</text>
<text text-anchor="start" x="342" y="-77" font-family="Helvetica,sans-Serif" font-size="10.00">DynamicSoundStream::</text>
<text text-anchor="middle" x="399.5" y="-66" font-family="Helvetica,sans-Serif" font-size="10.00">create_expanded_data</text>
</a>
</g>
</g>
<!-- Node2&#45;&gt;Node3 -->
<g id="edge2_Node000002_Node000003" class="edge">
<title>Node2&#45;&gt;Node3</title>
<g id="a_edge2_Node000002_Node000003"><a xlink:title=" ">
<path fill="none" stroke="#63b8ff" d="M298.24,-94.08C306.67,-92.86 315.37,-91.59 323.95,-90.34"/>
<polygon fill="#63b8ff" stroke="#63b8ff" points="324.56,-93.79 333.95,-88.89 323.55,-86.87 324.56,-93.79"/>
</a>
</g>
</g>
<!-- Node2&#45;&gt;Node7 -->
<g id="edge7_Node000002_Node000007" class="edge">
<title>Node2&#45;&gt;Node7</title>
<g id="a_edge7_Node000002_Node000007"><a xlink:title=" ">
<path fill="none" stroke="#63b8ff" d="M298.3,-108.77C353.84,-113.29 433.83,-119.79 491.8,-124.51"/>
<polygon fill="#63b8ff" stroke="#63b8ff" points="491.74,-128.01 501.99,-125.34 492.31,-121.04 491.74,-128.01"/>
</a>
</g>
</g>
<!-- Node2&#45;&gt;Node8 -->
<g id="edge8_Node000002_Node000008" class="edge">
<title>Node2&#45;&gt;Node8</title>
<g id="a_edge8_Node000002_Node000008"><a xlink:title=" ">
<path fill="none" stroke="#63b8ff" d="M270.4,-82.87C289.26,-72.53 312.68,-60 334,-49.5 336.77,-48.13 339.63,-46.75 342.52,-45.38"/>
<polygon fill="#63b8ff" stroke="#63b8ff" points="344.24,-48.44 351.81,-41.02 341.27,-42.1 344.24,-48.44"/>
</a>
</g>
</g>
<!-- Node10 -->
<g id="Node000010" class="node">
<title>Node10</title>
<g id="a_Node000010"><a xlink:href="classMayaFlux_1_1Kakshya_1_1DynamicSoundStream_ab6699b2bd18a8cce7d242a4b7bc27c8a.html#ab6699b2bd18a8cce7d242a4b7bc27c8a" target="_top" xlink:title=" ">
<polygon fill="white" stroke="#666666" points="465,-198 334,-198 334,-157 465,-157 465,-198"/>
<text text-anchor="start" x="342" y="-186" font-family="Helvetica,sans-Serif" font-size="10.00">MayaFlux::Kakshya::</text>
<text text-anchor="start" x="342" y="-175" font-family="Helvetica,sans-Serif" font-size="10.00">DynamicSoundStream::</text>
<text text-anchor="middle" x="399.5" y="-164" font-family="Helvetica,sans-Serif" font-size="10.00">set_all_data</text>
</a>
</g>
</g>
<!-- Node2&#45;&gt;Node10 -->
<g id="edge10_Node000002_Node000010" class="edge">
<title>Node2&#45;&gt;Node10</title>
<g id="a_edge10_Node000002_Node000010"><a xlink:title=" ">
<path fill="none" stroke="#63b8ff" d="M279.46,-124.11C299.31,-133.01 322.69,-143.5 343.45,-152.81"/>
<polygon fill="#63b8ff" stroke="#63b8ff" points="342.23,-156.1 352.78,-157 345.09,-149.71 342.23,-156.1"/>
</a>
</g>
</g>
<!-- Node4 -->
<g id="Node000004" class="node">
<title>Node4</title>
<g id="a_Node000004"><a xlink:href="namespaceMayaFlux_1_1Kakshya_a446e512dc040ea0ab603d860100224a8.html#a446e512dc040ea0ab603d860100224a8" target="_top" xlink:title="Get typed span from DataVariant using concepts.">
<polygon fill="white" stroke="#666666" points="626,-91.5 507,-91.5 507,-61.5 626,-61.5 626,-91.5"/>
<text text-anchor="start" x="515" y="-79.5" font-family="Helvetica,sans-Serif" font-size="10.00">MayaFlux::Kakshya::</text>
<text text-anchor="middle" x="566.5" y="-68.5" font-family="Helvetica,sans-Serif" font-size="10.00">extract_from_variant</text>
</a>
</g>
</g>
<!-- Node3&#45;&gt;Node4 -->
<g id="edge3_Node000003_Node000004" class="edge">
<title>Node3&#45;&gt;Node4</title>
<g id="a_edge3_Node000003_Node000004"><a xlink:title=" ">
<path fill="none" stroke="#63b8ff" d="M465.24,-78.32C475.53,-78.14 486.21,-77.94 496.59,-77.75"/>
<polygon fill="#63b8ff" stroke="#63b8ff" points="496.92,-81.25 506.86,-77.57 496.79,-74.25 496.92,-81.25"/>
</a>
</g>
</g>
<!-- Node3&#45;&gt;Node7 -->
<g id="edge6_Node000003_Node000007" class="edge">
<title>Node3&#45;&gt;Node7</title>
<g id="a_edge6_Node000003_Node000007"><a xlink:title=" ">
<path fill="none" stroke="#63b8ff" d="M465.24,-99.51C474.06,-102.24 483.16,-105.05 492.12,-107.82"/>
<polygon fill="#63b8ff" stroke="#63b8ff" points="491.17,-111.19 501.76,-110.8 493.24,-104.5 491.17,-111.19"/>
</a>
</g>
</g>
<!-- Node5 -->
<g id="Node000005" class="node">
<title>Node5</title>
<g id="a_Node000005"><a xlink:href="namespaceMayaFlux_1_1Kakshya_ab16b9c38ab1e261f3f3e1d058c841d85.html#ab16b9c38ab1e261f3f3e1d058c841d85" target="_top" xlink:title="Convert a span of one data type to another (with type conversion).">
<polygon fill="white" stroke="#666666" points="787,-91.5 668,-91.5 668,-61.5 787,-61.5 787,-91.5"/>
<text text-anchor="start" x="676" y="-79.5" font-family="Helvetica,sans-Serif" font-size="10.00">MayaFlux::Kakshya::</text>
<text text-anchor="middle" x="727.5" y="-68.5" font-family="Helvetica,sans-Serif" font-size="10.00">convert_data</text>
</a>
</g>
</g>
<!-- Node4&#45;&gt;Node5 -->
<g id="edge4_Node000004_Node000005" class="edge">
<title>Node4&#45;&gt;Node5</title>
<g id="a_edge4_Node000004_Node000005"><a xlink:title=" ">
<path fill="none" stroke="#63b8ff" d="M626.25,-76.5C636.58,-76.5 647.4,-76.5 657.97,-76.5"/>
<polygon fill="#63b8ff" stroke="#63b8ff" points="657.99,-80 667.99,-76.5 657.99,-73 657.99,-80"/>
</a>
</g>
</g>
<!-- Node6 -->
<g id="Node000006" class="node">
<title>Node6</title>
<g id="a_Node000006"><a xlink:href="structMayaFlux_1_1Kakshya_1_1DataConverter_a5ada60bc3ff099a631f9a979e89feb19.html#a5ada60bc3ff099a631f9a979e89feb19" target="_top" xlink:title=" ">
<polygon fill="white" stroke="#666666" points="954,-91.5 823,-91.5 823,-61.5 954,-61.5 954,-91.5"/>
<text text-anchor="start" x="831" y="-79.5" font-family="Helvetica,sans-Serif" font-size="10.00">MayaFlux::Kakshya::</text>
<text text-anchor="middle" x="888.5" y="-68.5" font-family="Helvetica,sans-Serif" font-size="10.00">DataConverter::convert</text>
</a>
</g>
</g>
<!-- Node5&#45;&gt;Node6 -->
<g id="edge5_Node000005_Node000006" class="edge">
<title>Node5&#45;&gt;Node6</title>
<g id="a_edge5_Node000005_Node000006"><a xlink:title=" ">
<path fill="none" stroke="#63b8ff" d="M787.25,-76.5C795.58,-76.5 804.24,-76.5 812.82,-76.5"/>
<polygon fill="#63b8ff" stroke="#63b8ff" points="812.83,-80 822.83,-76.5 812.83,-73 812.83,-80"/>
</a>
</g>
</g>
<!-- Node9 -->
<g id="Node000009" class="node">
<title>Node9</title>
<g id="a_Node000009"><a xlink:href="structMayaFlux_1_1Kakshya_1_1ContainerDataStructure_ab431dba6cb69464326e81fe5e4bf83b0.html#ab431dba6cb69464326e81fe5e4bf83b0" target="_top" xlink:title="Get total elements across all dimensions.">
<polygon fill="white" stroke="#666666" points="632,-41 501,-41 501,0 632,0 632,-41"/>
<text text-anchor="start" x="509" y="-29" font-family="Helvetica,sans-Serif" font-size="10.00">MayaFlux::Kakshya::</text>
<text text-anchor="start" x="509" y="-18" font-family="Helvetica,sans-Serif" font-size="10.00">ContainerDataStructure</text>
<text text-anchor="middle" x="566.5" y="-7" font-family="Helvetica,sans-Serif" font-size="10.00">::get_total_elements</text>
</a>
</g>
</g>
<!-- Node8&#45;&gt;Node9 -->
<g id="edge9_Node000008_Node000009" class="edge">
<title>Node8&#45;&gt;Node9</title>
<g id="a_edge9_Node000008_Node000009"><a xlink:title=" ">
<path fill="none" stroke="#63b8ff" d="M464.29,-20.5C472.9,-20.5 481.79,-20.5 490.56,-20.5"/>
<polygon fill="#63b8ff" stroke="#63b8ff" points="490.79,-24 500.79,-20.5 490.79,-17 490.79,-24"/>
</a>
</g>
</g>
<!-- Node10&#45;&gt;Node10 -->
<g id="edge11_Node000010_Node000010" class="edge">
<title>Node10&#45;&gt;Node10</title>
<g id="a_edge11_Node000010_Node000010"><a xlink:title=" ">
<path fill="none" stroke="#63b8ff" d="M368.99,-198.1C365.66,-207.65 375.83,-216 399.5,-216 414.29,-216 423.81,-212.74 428.06,-207.96"/>
<polygon fill="#63b8ff" stroke="#63b8ff" points="431.5,-208.59 430.01,-198.1 424.64,-207.23 431.5,-208.59"/>
</a>
</g>
</g>
</g>
</svg>
