<?xml version="1.0" encoding="UTF-8" standalone="no"?>
<!DOCTYPE svg PUBLIC "-//W3C//DTD SVG 1.1//EN"
 "http://www.w3.org/Graphics/SVG/1.1/DTD/svg11.dtd">
<!-- Generated by graphviz version 2.43.0 (0)
 -->
<!-- Title: MayaFlux::Nodes::GpuSync::GeometryWriterNode::resize_vertex_buffer Pages: 1 -->
<svg width="864pt" height="473pt"
 viewBox="0.00 0.00 864.00 472.50" xmlns="http://www.w3.org/2000/svg" xmlns:xlink="http://www.w3.org/1999/xlink">
<g id="graph0" class="graph" transform="scale(1 1) rotate(0) translate(4 468.5)">
<title>MayaFlux::Nodes::GpuSync::GeometryWriterNode::resize_vertex_buffer</title>
<!-- Node1 -->
<g id="Node000001" class="node">
<title>Node1</title>
<g id="a_Node000001"><a xlink:title="Resize vertex buffer to hold specified number of vertices.">
<polygon fill="#999999" stroke="#666666" points="856,-287.5 694,-287.5 694,-246.5 856,-246.5 856,-287.5"/>
<text text-anchor="start" x="702" y="-275.5" font-family="Helvetica,sans-Serif" font-size="10.00">MayaFlux::Nodes::GpuSync</text>
<text text-anchor="start" x="702" y="-264.5" font-family="Helvetica,sans-Serif" font-size="10.00">::GeometryWriterNode::resize</text>
<text text-anchor="middle" x="775" y="-253.5" font-family="Helvetica,sans-Serif" font-size="10.00">_vertex_buffer</text>
</a>
</g>
</g>
<!-- Node2 -->
<g id="Node000002" class="node">
<title>Node2</title>
<g id="a_Node000002"><a xlink:href="classMayaFlux_1_1Nodes_1_1GpuSync_1_1GeometryWriterNode_a955c6dc3cb0c487e83b38d921002f045.html#a955c6dc3cb0c487e83b38d921002f045" target="_top" xlink:title="Clear vertex buffer and resize to specified count.">
<polygon fill="white" stroke="#666666" points="636,-464.5 479,-464.5 479,-423.5 636,-423.5 636,-464.5"/>
<text text-anchor="start" x="487" y="-452.5" font-family="Helvetica,sans-Serif" font-size="10.00">MayaFlux::Nodes::GpuSync</text>
<text text-anchor="start" x="487" y="-441.5" font-family="Helvetica,sans-Serif" font-size="10.00">::GeometryWriterNode::clear</text>
<text text-anchor="middle" x="557.5" y="-430.5" font-family="Helvetica,sans-Serif" font-size="10.00">_and_resize</text>
</a>
</g>
</g>
<!-- Node1&#45;&gt;Node2 -->
<g id="edge1_Node000001_Node000002" class="edge">
<title>Node1&#45;&gt;Node2</title>
<g id="a_edge1_Node000001_Node000002"><a xlink:title=" ">
<path fill="none" stroke="#63b8ff" d="M758.21,-296.43C738.88,-329.73 703.07,-383.31 658,-414 651.29,-418.57 643.86,-422.46 636.18,-425.77"/>
<polygon fill="#63b8ff" stroke="#63b8ff" points="761.33,-298.04 763.22,-287.61 755.24,-294.58 761.33,-298.04"/>
</a>
</g>
</g>
<!-- Node3 -->
<g id="Node000003" class="node">
<title>Node3</title>
<g id="a_Node000003"><a xlink:href="classMayaFlux_1_1Nodes_1_1GpuSync_1_1LineSegmentsNode_a5ca73acc3bd5b4278090772a1071bc1a.html#a5ca73acc3bd5b4278090772a1071bc1a" target="_top" xlink:title="Pack accumulated segments into the GPU vertex buffer.">
<polygon fill="white" stroke="#666666" points="657.5,-405 457.5,-405 457.5,-375 657.5,-375 657.5,-405"/>
<text text-anchor="start" x="465.5" y="-393" font-family="Helvetica,sans-Serif" font-size="10.00">MayaFlux::Nodes::GpuSync</text>
<text text-anchor="middle" x="557.5" y="-382" font-family="Helvetica,sans-Serif" font-size="10.00">::LineSegmentsNode::compute_frame</text>
</a>
</g>
</g>
<!-- Node1&#45;&gt;Node3 -->
<g id="edge2_Node000001_Node000003" class="edge">
<title>Node1&#45;&gt;Node3</title>
<g id="a_edge2_Node000001_Node000003"><a xlink:title=" ">
<path fill="none" stroke="#63b8ff" d="M748.63,-294.97C726.74,-317.42 693.18,-348.06 658,-366 651.27,-369.43 644.04,-372.38 636.65,-374.92"/>
<polygon fill="#63b8ff" stroke="#63b8ff" points="751.2,-297.34 755.59,-287.7 746.14,-292.5 751.2,-297.34"/>
</a>
</g>
</g>
<!-- Node4 -->
<g id="Node000004" class="node">
<title>Node4</title>
<g id="a_Node000004"><a xlink:href="classMayaFlux_1_1Nodes_1_1GpuSync_1_1MeshWriterNode_ae25f2a644f82c96f8f1a862d401e472f.html#ae25f2a644f82c96f8f1a862d401e472f" target="_top" xlink:title="Compute GPU data for this frame.">
<polygon fill="white" stroke="#666666" points="651.5,-357 463.5,-357 463.5,-327 651.5,-327 651.5,-357"/>
<text text-anchor="start" x="471.5" y="-345" font-family="Helvetica,sans-Serif" font-size="10.00">MayaFlux::Nodes::GpuSync</text>
<text text-anchor="middle" x="557.5" y="-334" font-family="Helvetica,sans-Serif" font-size="10.00">::MeshWriterNode::compute_frame</text>
</a>
</g>
</g>
<!-- Node1&#45;&gt;Node4 -->
<g id="edge3_Node000001_Node000004" class="edge">
<title>Node1&#45;&gt;Node4</title>
<g id="a_edge3_Node000001_Node000004"><a xlink:title=" ">
<path fill="none" stroke="#63b8ff" d="M722.82,-291.84C702.9,-300.89 679.68,-310.68 658,-318 648.32,-321.27 637.97,-324.28 627.73,-326.98"/>
<polygon fill="#63b8ff" stroke="#63b8ff" points="724.4,-294.97 732.02,-287.61 721.47,-288.61 724.4,-294.97"/>
</a>
</g>
</g>
<!-- Node8 -->
<g id="Node000008" class="node">
<title>Node8</title>
<g id="a_Node000008"><a xlink:href="classMayaFlux_1_1Nodes_1_1GpuSync_1_1PathGeneratorNode_a0bb983c3a14dd53e111349bc461d1250.html#a0bb983c3a14dd53e111349bc461d1250" target="_top" xlink:title="Compute frame &#45; generates interpolated vertices from control points.">
<polygon fill="white" stroke="#666666" points="658,-309 457,-309 457,-279 658,-279 658,-309"/>
<text text-anchor="start" x="465" y="-297" font-family="Helvetica,sans-Serif" font-size="10.00">MayaFlux::Nodes::GpuSync</text>
<text text-anchor="middle" x="557.5" y="-286" font-family="Helvetica,sans-Serif" font-size="10.00">::PathGeneratorNode::compute_frame</text>
</a>
</g>
</g>
<!-- Node1&#45;&gt;Node8 -->
<g id="edge7_Node000001_Node000008" class="edge">
<title>Node1&#45;&gt;Node8</title>
<g id="a_edge7_Node000001_Node000008"><a xlink:title=" ">
<path fill="none" stroke="#63b8ff" d="M683.59,-278.33C675.18,-279.38 666.64,-280.45 658.15,-281.51"/>
<polygon fill="#63b8ff" stroke="#63b8ff" points="684.27,-281.77 693.76,-277.05 683.4,-274.82 684.27,-281.77"/>
</a>
</g>
</g>
<!-- Node9 -->
<g id="Node000009" class="node">
<title>Node9</title>
<g id="a_Node000009"><a xlink:href="classMayaFlux_1_1Nodes_1_1GpuSync_1_1PointCollectionNode_a89f1ca486920e33188f6cc4367186a2d.html#a89f1ca486920e33188f6cc4367186a2d" target="_top" xlink:title="Compute frame &#45; uploads positions to vertex buffer.">
<polygon fill="white" stroke="#666666" points="632.5,-260.5 482.5,-260.5 482.5,-219.5 632.5,-219.5 632.5,-260.5"/>
<text text-anchor="start" x="490.5" y="-248.5" font-family="Helvetica,sans-Serif" font-size="10.00">MayaFlux::Nodes::GpuSync</text>
<text text-anchor="start" x="490.5" y="-237.5" font-family="Helvetica,sans-Serif" font-size="10.00">::PointCollectionNode::</text>
<text text-anchor="middle" x="557.5" y="-226.5" font-family="Helvetica,sans-Serif" font-size="10.00">compute_frame</text>
</a>
</g>
</g>
<!-- Node1&#45;&gt;Node9 -->
<g id="edge8_Node000001_Node000009" class="edge">
<title>Node1&#45;&gt;Node9</title>
<g id="a_edge8_Node000001_Node000009"><a xlink:title=" ">
<path fill="none" stroke="#63b8ff" d="M683.82,-255.7C666.81,-253.57 649.2,-251.36 632.75,-249.3"/>
<polygon fill="#63b8ff" stroke="#63b8ff" points="683.4,-259.18 693.76,-256.95 684.27,-252.23 683.4,-259.18"/>
</a>
</g>
</g>
<!-- Node10 -->
<g id="Node000010" class="node">
<title>Node10</title>
<g id="a_Node000010"><a xlink:href="classMayaFlux_1_1Nodes_1_1GpuSync_1_1PointCollectionNode_a6529267bb12caf59f4e93c3a82e62c00.html#a6529267bb12caf59f4e93c3a82e62c00" target="_top" xlink:title="Create empty point source.">
<polygon fill="white" stroke="#666666" points="632.5,-201.5 482.5,-201.5 482.5,-160.5 632.5,-160.5 632.5,-201.5"/>
<text text-anchor="start" x="490.5" y="-189.5" font-family="Helvetica,sans-Serif" font-size="10.00">MayaFlux::Nodes::GpuSync</text>
<text text-anchor="start" x="490.5" y="-178.5" font-family="Helvetica,sans-Serif" font-size="10.00">::PointCollectionNode::</text>
<text text-anchor="middle" x="557.5" y="-167.5" font-family="Helvetica,sans-Serif" font-size="10.00">PointCollectionNode</text>
</a>
</g>
</g>
<!-- Node1&#45;&gt;Node10 -->
<g id="edge9_Node000001_Node000010" class="edge">
<title>Node1&#45;&gt;Node10</title>
<g id="a_edge9_Node000001_Node000010"><a xlink:title=" ">
<path fill="none" stroke="#63b8ff" d="M726.04,-241.76C705.43,-231.46 680.86,-219.9 658,-211 649.51,-207.69 640.5,-204.53 631.5,-201.57"/>
<polygon fill="#63b8ff" stroke="#63b8ff" points="724.71,-245.01 735.22,-246.39 727.87,-238.76 724.71,-245.01"/>
</a>
</g>
</g>
<!-- Node11 -->
<g id="Node000011" class="node">
<title>Node11</title>
<g id="a_Node000011"><a xlink:href="classMayaFlux_1_1Nodes_1_1GpuSync_1_1PointCollectionNode_a39a470fe14b0ebdf43cc45f4820b2ec7.html#a39a470fe14b0ebdf43cc45f4820b2ec7" target="_top" xlink:title="Create with initial points.">
<polygon fill="white" stroke="#666666" points="632.5,-142.5 482.5,-142.5 482.5,-101.5 632.5,-101.5 632.5,-142.5"/>
<text text-anchor="start" x="490.5" y="-130.5" font-family="Helvetica,sans-Serif" font-size="10.00">MayaFlux::Nodes::GpuSync</text>
<text text-anchor="start" x="490.5" y="-119.5" font-family="Helvetica,sans-Serif" font-size="10.00">::PointCollectionNode::</text>
<text text-anchor="middle" x="557.5" y="-108.5" font-family="Helvetica,sans-Serif" font-size="10.00">PointCollectionNode</text>
</a>
</g>
</g>
<!-- Node1&#45;&gt;Node11 -->
<g id="edge10_Node000001_Node000011" class="edge">
<title>Node1&#45;&gt;Node11</title>
<g id="a_edge10_Node000001_Node000011"><a xlink:title=" ">
<path fill="none" stroke="#63b8ff" d="M752.17,-238.48C730.82,-212.43 696.04,-174.64 658,-152 650.09,-147.29 641.39,-143.27 632.52,-139.85"/>
<polygon fill="#63b8ff" stroke="#63b8ff" points="749.62,-240.89 758.62,-246.49 755.08,-236.5 749.62,-240.89"/>
</a>
</g>
</g>
<!-- Node12 -->
<g id="Node000012" class="node">
<title>Node12</title>
<g id="a_Node000012"><a xlink:href="classMayaFlux_1_1Nodes_1_1GpuSync_1_1GlyphGeometryNode_a39969c549307dc7b874fb9e794b4fb16.html#a39969c549307dc7b874fb9e794b4fb16" target="_top" xlink:title="Rebuild outline geometry from the current text and pen settings.">
<polygon fill="white" stroke="#666666" points="640,-83.5 475,-83.5 475,-42.5 640,-42.5 640,-83.5"/>
<text text-anchor="start" x="483" y="-71.5" font-family="Helvetica,sans-Serif" font-size="10.00">MayaFlux::Nodes::GpuSync</text>
<text text-anchor="start" x="483" y="-60.5" font-family="Helvetica,sans-Serif" font-size="10.00">::GlyphGeometryNode::rebuild</text>
<text text-anchor="middle" x="557.5" y="-49.5" font-family="Helvetica,sans-Serif" font-size="10.00">_outlines</text>
</a>
</g>
</g>
<!-- Node1&#45;&gt;Node12 -->
<g id="edge11_Node000001_Node000012" class="edge">
<title>Node1&#45;&gt;Node12</title>
<g id="a_edge11_Node000001_Node000012"><a xlink:title=" ">
<path fill="none" stroke="#63b8ff" d="M761.98,-236.99C744.78,-197.83 709.42,-129.85 658,-92 652.49,-87.95 646.43,-84.46 640.09,-81.46"/>
<polygon fill="#63b8ff" stroke="#63b8ff" points="758.81,-238.47 765.97,-246.29 765.25,-235.72 758.81,-238.47"/>
</a>
</g>
</g>
<!-- Node5 -->
<g id="Node000005" class="node">
<title>Node5</title>
<g id="a_Node000005"><a xlink:href="classMayaFlux_1_1Nodes_1_1GpuSync_1_1SDFNode_a3b05244a99b639a2b98cf60744654a2b.html#a3b05244a99b639a2b98cf60744654a2b" target="_top" xlink:title=" ">
<polygon fill="white" stroke="#666666" points="379,-357 229,-357 229,-327 379,-327 379,-357"/>
<text text-anchor="start" x="237" y="-345" font-family="Helvetica,sans-Serif" font-size="10.00">MayaFlux::Nodes::GpuSync</text>
<text text-anchor="middle" x="304" y="-334" font-family="Helvetica,sans-Serif" font-size="10.00">::SDFNode::rebuild</text>
</a>
</g>
</g>
<!-- Node4&#45;&gt;Node5 -->
<g id="edge4_Node000004_Node000005" class="edge">
<title>Node4&#45;&gt;Node5</title>
<g id="a_edge4_Node000004_Node000005"><a xlink:title=" ">
<path fill="none" stroke="#63b8ff" d="M453.06,-342C428.33,-342 402.41,-342 379.3,-342"/>
<polygon fill="#63b8ff" stroke="#63b8ff" points="453.21,-345.5 463.21,-342 453.21,-338.5 453.21,-345.5"/>
</a>
</g>
</g>
<!-- Node6 -->
<g id="Node000006" class="node">
<title>Node6</title>
<g id="a_Node000006"><a xlink:href="classMayaFlux_1_1Nodes_1_1GpuSync_1_1SDFNode_a8d93283e3887f0b2a717c407a008d703.html#a8d93283e3887f0b2a717c407a008d703" target="_top" xlink:title="Re&#45;extract the isosurface if dirty, then upload via parent.">
<polygon fill="white" stroke="#666666" points="151,-381 0,-381 0,-351 151,-351 151,-381"/>
<text text-anchor="start" x="8" y="-369" font-family="Helvetica,sans-Serif" font-size="10.00">MayaFlux::Nodes::GpuSync</text>
<text text-anchor="middle" x="75.5" y="-358" font-family="Helvetica,sans-Serif" font-size="10.00">::SDFNode::compute_frame</text>
</a>
</g>
</g>
<!-- Node5&#45;&gt;Node6 -->
<g id="edge5_Node000005_Node000006" class="edge">
<title>Node5&#45;&gt;Node6</title>
<g id="a_edge5_Node000005_Node000006"><a xlink:title=" ">
<path fill="none" stroke="#63b8ff" d="M218.78,-350.92C196.61,-353.27 172.85,-355.79 151.22,-358.08"/>
<polygon fill="#63b8ff" stroke="#63b8ff" points="219.26,-354.39 228.84,-349.86 218.52,-347.43 219.26,-354.39"/>
</a>
</g>
</g>
<!-- Node7 -->
<g id="Node000007" class="node">
<title>Node7</title>
<g id="a_Node000007"><a xlink:href="classMayaFlux_1_1Nodes_1_1GpuSync_1_1SDFNode_a61950494104522a83fb51c0149ea3345.html#a61950494104522a83fb51c0149ea3345" target="_top" xlink:title="Construct and evaluate the initial isosurface.">
<polygon fill="white" stroke="#666666" points="150.5,-333 0.5,-333 0.5,-303 150.5,-303 150.5,-333"/>
<text text-anchor="start" x="8.5" y="-321" font-family="Helvetica,sans-Serif" font-size="10.00">MayaFlux::Nodes::GpuSync</text>
<text text-anchor="middle" x="75.5" y="-310" font-family="Helvetica,sans-Serif" font-size="10.00">::SDFNode::SDFNode</text>
</a>
</g>
</g>
<!-- Node5&#45;&gt;Node7 -->
<g id="edge6_Node000005_Node000007" class="edge">
<title>Node5&#45;&gt;Node7</title>
<g id="a_edge6_Node000005_Node000007"><a xlink:title=" ">
<path fill="none" stroke="#63b8ff" d="M218.72,-333.07C196.44,-330.71 172.55,-328.18 150.83,-325.88"/>
<polygon fill="#63b8ff" stroke="#63b8ff" points="218.52,-336.57 228.84,-334.14 219.26,-329.61 218.52,-336.57"/>
</a>
</g>
</g>
<!-- Node13 -->
<g id="Node000013" class="node">
<title>Node13</title>
<g id="a_Node000013"><a xlink:href="classMayaFlux_1_1Nodes_1_1GpuSync_1_1GlyphGeometryNode_aa2c050b302cf38e5125047fd4f1cd6d7.html#aa2c050b302cf38e5125047fd4f1cd6d7" target="_top" xlink:title="Construct from a UTF&#45;8 string with an explicit FontFace.">
<polygon fill="white" stroke="#666666" points="421,-126 187,-126 187,-96 421,-96 421,-126"/>
<text text-anchor="start" x="195" y="-114" font-family="Helvetica,sans-Serif" font-size="10.00">MayaFlux::Nodes::GpuSync</text>
<text text-anchor="middle" x="304" y="-103" font-family="Helvetica,sans-Serif" font-size="10.00">::GlyphGeometryNode::GlyphGeometryNode</text>
</a>
</g>
</g>
<!-- Node12&#45;&gt;Node13 -->
<g id="edge12_Node000012_Node000013" class="edge">
<title>Node12&#45;&gt;Node13</title>
<g id="a_edge12_Node000012_Node000013"><a xlink:title=" ">
<path fill="none" stroke="#63b8ff" d="M464.77,-80.51C438.18,-85.58 409.39,-91.08 383.68,-95.98"/>
<polygon fill="#63b8ff" stroke="#63b8ff" points="465.68,-83.9 474.85,-78.58 464.37,-77.02 465.68,-83.9"/>
</a>
</g>
</g>
<!-- Node14 -->
<g id="Node000014" class="node">
<title>Node14</title>
<g id="a_Node000014"><a xlink:href="classMayaFlux_1_1Nodes_1_1GpuSync_1_1GlyphGeometryNode_ae6d0646f782caeb8a210c8344e63130b.html#ae6d0646f782caeb8a210c8344e63130b" target="_top" xlink:title="Construct from a UTF&#45;8 string using the default font.">
<polygon fill="white" stroke="#666666" points="421,-78 187,-78 187,-48 421,-48 421,-78"/>
<text text-anchor="start" x="195" y="-66" font-family="Helvetica,sans-Serif" font-size="10.00">MayaFlux::Nodes::GpuSync</text>
<text text-anchor="middle" x="304" y="-55" font-family="Helvetica,sans-Serif" font-size="10.00">::GlyphGeometryNode::GlyphGeometryNode</text>
</a>
</g>
</g>
<!-- Node12&#45;&gt;Node14 -->
<g id="edge13_Node000012_Node000014" class="edge">
<title>Node12&#45;&gt;Node14</title>
<g id="a_edge13_Node000012_Node000014"><a xlink:title=" ">
<path fill="none" stroke="#63b8ff" d="M464.71,-63C450.63,-63 435.94,-63 421.42,-63"/>
<polygon fill="#63b8ff" stroke="#63b8ff" points="464.85,-66.5 474.85,-63 464.85,-59.5 464.85,-66.5"/>
</a>
</g>
</g>
<!-- Node15 -->
<g id="Node000015" class="node">
<title>Node15</title>
<g id="a_Node000015"><a xlink:href="classMayaFlux_1_1Nodes_1_1GpuSync_1_1GlyphGeometryNode_ad5ec71c50169fad44dcd56ed9fc04bcf.html#ad5ec71c50169fad44dcd56ed9fc04bcf" target="_top" xlink:title="Replace the text string and rebuild outlines.">
<polygon fill="white" stroke="#666666" points="389.5,-30 218.5,-30 218.5,0 389.5,0 389.5,-30"/>
<text text-anchor="start" x="226.5" y="-18" font-family="Helvetica,sans-Serif" font-size="10.00">MayaFlux::Nodes::GpuSync</text>
<text text-anchor="middle" x="304" y="-7" font-family="Helvetica,sans-Serif" font-size="10.00">::GlyphGeometryNode::set_text</text>
</a>
</g>
</g>
<!-- Node12&#45;&gt;Node15 -->
<g id="edge14_Node000012_Node000015" class="edge">
<title>Node12&#45;&gt;Node15</title>
<g id="a_edge14_Node000012_Node000015"><a xlink:title=" ">
<path fill="none" stroke="#63b8ff" d="M464.77,-45.49C438.18,-40.42 409.39,-34.92 383.68,-30.02"/>
<polygon fill="#63b8ff" stroke="#63b8ff" points="464.37,-48.98 474.85,-47.42 465.68,-42.1 464.37,-48.98"/>
</a>
</g>
</g>
</g>
</svg>
