<?xml version="1.0" encoding="UTF-8" standalone="no"?>
<!DOCTYPE svg PUBLIC "-//W3C//DTD SVG 1.1//EN"
 "http://www.w3.org/Graphics/SVG/1.1/DTD/svg11.dtd">
<!-- Generated by graphviz version 2.43.0 (0)
 -->
<!-- Title: MayaFlux::Yantra::GpuResourceManager::dispatch_async Pages: 1 -->
<svg width="603pt" height="38pt"
 viewBox="0.00 0.00 603.00 38.00" xmlns="http://www.w3.org/2000/svg" xmlns:xlink="http://www.w3.org/1999/xlink">
<g id="graph0" class="graph" transform="scale(1 1) rotate(0) translate(4 34)">
<title>MayaFlux::Yantra::GpuResourceManager::dispatch_async</title>
<!-- Node1 -->
<g id="Node000001" class="node">
<title>Node1</title>
<g id="a_Node000001"><a xlink:title="Submit a compute dispatch without blocking.">
<polygon fill="#999999" stroke="#666666" points="595,-30 424,-30 424,0 595,0 595,-30"/>
<text text-anchor="start" x="432" y="-18" font-family="Helvetica,sans-Serif" font-size="10.00">MayaFlux::Yantra::GpuResource</text>
<text text-anchor="middle" x="509.5" y="-7" font-family="Helvetica,sans-Serif" font-size="10.00">Manager::dispatch_async</text>
</a>
</g>
</g>
<!-- Node2 -->
<g id="Node000002" class="node">
<title>Node2</title>
<g id="a_Node000002"><a xlink:href="classMayaFlux_1_1Yantra_1_1GpuDispatchCore_a8c55245957e7e7a30f034299648edd46.html#a8c55245957e7e7a30f034299648edd46" target="_top" xlink:title="Non&#45;blocking variant of dispatch_core.">
<polygon fill="white" stroke="#666666" points="388,-30 219,-30 219,0 388,0 388,-30"/>
<text text-anchor="start" x="227" y="-18" font-family="Helvetica,sans-Serif" font-size="10.00">MayaFlux::Yantra::GpuDispatch</text>
<text text-anchor="middle" x="303.5" y="-7" font-family="Helvetica,sans-Serif" font-size="10.00">Core::dispatch_core_async</text>
</a>
</g>
</g>
<!-- Node1&#45;&gt;Node2 -->
<g id="edge1_Node000001_Node000002" class="edge">
<title>Node1&#45;&gt;Node2</title>
<g id="a_edge1_Node000001_Node000002"><a xlink:title=" ">
<path fill="none" stroke="#63b8ff" d="M413.54,-15C405.12,-15 396.64,-15 388.32,-15"/>
<polygon fill="#63b8ff" stroke="#63b8ff" points="413.76,-18.5 423.76,-15 413.76,-11.5 413.76,-18.5"/>
</a>
</g>
</g>
<!-- Node3 -->
<g id="Node000003" class="node">
<title>Node3</title>
<g id="a_Node000003"><a xlink:href="classMayaFlux_1_1Yantra_1_1ShaderExecutionContext_aa508e728d529df34441c28d62413bb0c.html#aa508e728d529df34441c28d62413bb0c" target="_top" xlink:title="Dispatch asynchronously and return a fence for polling.">
<polygon fill="white" stroke="#666666" points="183,-30 0,-30 0,0 183,0 183,-30"/>
<text text-anchor="start" x="8" y="-18" font-family="Helvetica,sans-Serif" font-size="10.00">MayaFlux::Yantra::Shader</text>
<text text-anchor="middle" x="91.5" y="-7" font-family="Helvetica,sans-Serif" font-size="10.00">ExecutionContext::dispatch_async</text>
</a>
</g>
</g>
<!-- Node2&#45;&gt;Node3 -->
<g id="edge2_Node000002_Node000003" class="edge">
<title>Node2&#45;&gt;Node3</title>
<g id="a_edge2_Node000002_Node000003"><a xlink:title=" ">
<path fill="none" stroke="#63b8ff" d="M208.88,-15C200.3,-15 191.61,-15 183.06,-15"/>
<polygon fill="#63b8ff" stroke="#63b8ff" points="208.9,-18.5 218.9,-15 208.9,-11.5 208.9,-18.5"/>
</a>
</g>
</g>
</g>
</svg>
