<?xml version="1.0" encoding="UTF-8" standalone="no"?>
<!DOCTYPE svg PUBLIC "-//W3C//DTD SVG 1.1//EN"
 "http://www.w3.org/Graphics/SVG/1.1/DTD/svg11.dtd">
<!-- Generated by graphviz version 2.43.0 (0)
 -->
<!-- Title: MayaFlux::Portal::Graphics::RenderFlow Pages: 1 -->
<!--zoomable 1263 -->

<svg id="main" version="1.1" xmlns="http://www.w3.org/2000/svg" xmlns:xlink="http://www.w3.org/1999/xlink" xml:space="preserve" onload="init(evt)">
<style type="text/css"><![CDATA[
.node, .edge {opacity: 0.7;}
.node.selected, .edge.selected {opacity: 1;}
.edge:hover path { stroke: red; }
.edge:hover polygon { stroke: red; fill: red; }
]]></style>

<defs>
  <circle id="rim" cx="0" cy="0" r="7"/>
  <circle id="rim2" cx="0" cy="0" r="3.5"/>
  <g id="zoomPlus">
    <use xlink:href="#rim" fill="#404040"><set attributeName="fill" to="#808080" begin="zoomplus.mouseover" end="zoomplus.mouseout"/></use>
    <path d="M-4,0h8M0,-4v8" fill="none" stroke="white" stroke-width="1.5" pointer-events="none"/>
  </g>
  <g id="zoomMin">
    <use xlink:href="#rim" fill="#404040"><set attributeName="fill" to="#808080" begin="zoomminus.mouseover" end="zoomminus.mouseout"/></use>
    <path d="M-4,0h8" fill="none" stroke="white" stroke-width="1.5" pointer-events="none"/>
  </g>
  <g id="arrowUp" transform="translate(30 24)">
    <use xlink:href="#rim"/>
    <path pointer-events="none" fill="none" stroke="white" stroke-width="1.5" d="M0,-3.0v7 M-2.5,-0.5L0,-3.0L2.5,-0.5"/>
  </g>
  <g id="arrowRight" transform="rotate(90) translate(36 -43)">
    <use xlink:href="#rim"/>
    <path pointer-events="none" fill="none" stroke="white" stroke-width="1.5" d="M0,-3.0v7 M-2.5,-0.5L0,-3.0L2.5,-0.5"/>
  </g>
  <g id="arrowDown" transform="rotate(180) translate(-30 -48)">
    <use xlink:href="#rim"/>
    <path pointer-events="none" fill="none" stroke="white" stroke-width="1.5" d="M0,-3.0v7 M-2.5,-0.5L0,-3.0L2.5,-0.5"/>
  </g>
  <g id="arrowLeft" transform="rotate(270) translate(-36 17)">
    <use xlink:href="#rim"/>
    <path pointer-events="none" fill="none" stroke="white" stroke-width="1.5" d="M0,-3.0v7 M-2.5,-0.5L0,-3.0L2.5,-0.5"/>
  </g>
  <g id="resetDef">
    <use xlink:href="#rim2" fill="#404040"><set attributeName="fill" to="#808080" begin="reset.mouseover" end="reset.mouseout"/></use>
  </g>
</defs>
<script type="application/ecmascript">
var viewWidth = 353;
var viewHeight = 1263;
var sectionId = 'dynsection-0';
</script>
<script type="application/ecmascript" xlink:href="svg.min.js"/>
<svg id="graph" class="graph">
<g id="viewport">
<title>MayaFlux::Portal::Graphics::RenderFlow</title>
<!-- Node1 -->
<g id="Node000001" class="node">
<title>Node1</title>
<g id="a_Node000001"><a xlink:title="Graphics pipeline orchestration for dynamic rendering.">
<polygon fill="#999999" stroke="transparent" points="263,-330 91,-330 91,0 263,0 263,-330"/>
<text text-anchor="start" x="111" y="-318" font-family="Helvetica,sans-Serif" font-size="10.00">MayaFlux::Portal::Graphics</text>
<text text-anchor="start" x="145" y="-307" font-family="Helvetica,sans-Serif" font-size="10.00">::RenderFlow</text>
<text text-anchor="start" x="97.5" y="-292" font-family="Helvetica,sans-Serif" font-size="10.00">&#45;</text>
<text text-anchor="start" x="108" y="-292" font-family="Helvetica,sans-Serif" font-size="10.00">m_next_pipeline_id</text>
<text text-anchor="start" x="97.5" y="-277" font-family="Helvetica,sans-Serif" font-size="10.00">&#45;</text>
<text text-anchor="start" x="108" y="-277" font-family="Helvetica,sans-Serif" font-size="10.00">m_pipelines</text>
<text text-anchor="start" x="97.5" y="-262" font-family="Helvetica,sans-Serif" font-size="10.00">&#45;</text>
<text text-anchor="start" x="108" y="-262" font-family="Helvetica,sans-Serif" font-size="10.00">m_window_associations</text>
<text text-anchor="start" x="97.5" y="-247" font-family="Helvetica,sans-Serif" font-size="10.00">&#45;</text>
<text text-anchor="start" x="108" y="-247" font-family="Helvetica,sans-Serif" font-size="10.00">s_initialized</text>
<text text-anchor="start" x="95" y="-232" font-family="Helvetica,sans-Serif" font-size="10.00">+</text>
<text text-anchor="start" x="108" y="-232" font-family="Helvetica,sans-Serif" font-size="10.00">allocate_pipeline_descriptors()</text>
<text text-anchor="start" x="95" y="-217" font-family="Helvetica,sans-Serif" font-size="10.00">+</text>
<text text-anchor="start" x="108" y="-217" font-family="Helvetica,sans-Serif" font-size="10.00">begin_rendering()</text>
<text text-anchor="start" x="95" y="-202" font-family="Helvetica,sans-Serif" font-size="10.00">+</text>
<text text-anchor="start" x="108" y="-202" font-family="Helvetica,sans-Serif" font-size="10.00">bind_descriptor_sets()</text>
<text text-anchor="start" x="95" y="-187" font-family="Helvetica,sans-Serif" font-size="10.00">+</text>
<text text-anchor="start" x="108" y="-187" font-family="Helvetica,sans-Serif" font-size="10.00">bind_index_buffer()</text>
<text text-anchor="start" x="95" y="-172" font-family="Helvetica,sans-Serif" font-size="10.00">+</text>
<text text-anchor="start" x="108" y="-172" font-family="Helvetica,sans-Serif" font-size="10.00">bind_pipeline()</text>
<text text-anchor="start" x="95" y="-157" font-family="Helvetica,sans-Serif" font-size="10.00">+</text>
<text text-anchor="start" x="108" y="-157" font-family="Helvetica,sans-Serif" font-size="10.00">bind_vertex_buffers()</text>
<text text-anchor="start" x="95" y="-142" font-family="Helvetica,sans-Serif" font-size="10.00">+</text>
<text text-anchor="start" x="108" y="-142" font-family="Helvetica,sans-Serif" font-size="10.00">create_pipeline()</text>
<text text-anchor="start" x="95" y="-127" font-family="Helvetica,sans-Serif" font-size="10.00">+</text>
<text text-anchor="start" x="108" y="-127" font-family="Helvetica,sans-Serif" font-size="10.00">destroy_pipeline()</text>
<text text-anchor="start" x="95" y="-112" font-family="Helvetica,sans-Serif" font-size="10.00">+</text>
<text text-anchor="start" x="108" y="-112" font-family="Helvetica,sans-Serif" font-size="10.00">draw()</text>
<text text-anchor="start" x="95" y="-97" font-family="Helvetica,sans-Serif" font-size="10.00">+</text>
<text text-anchor="start" x="108" y="-97" font-family="Helvetica,sans-Serif" font-size="10.00">draw_indexed()</text>
<text text-anchor="start" x="108" y="-82" font-family="Helvetica,sans-Serif" font-size="10.00">and 17 more...</text>
<text text-anchor="start" x="95" y="-67" font-family="Helvetica,sans-Serif" font-size="10.00">+</text>
<text text-anchor="start" x="108" y="-67" font-family="Helvetica,sans-Serif" font-size="10.00">instance()</text>
<text text-anchor="start" x="97.5" y="-52" font-family="Helvetica,sans-Serif" font-size="10.00">&#45;</text>
<text text-anchor="start" x="108" y="-52" font-family="Helvetica,sans-Serif" font-size="10.00">cleanup_pipelines()</text>
<text text-anchor="start" x="97.5" y="-37" font-family="Helvetica,sans-Serif" font-size="10.00">&#45;</text>
<text text-anchor="start" x="108" y="-37" font-family="Helvetica,sans-Serif" font-size="10.00">get_current_image_view()</text>
<text text-anchor="start" x="97.5" y="-22" font-family="Helvetica,sans-Serif" font-size="10.00">&#45;</text>
<text text-anchor="start" x="108" y="-22" font-family="Helvetica,sans-Serif" font-size="10.00">RenderFlow()</text>
<text text-anchor="start" x="97.5" y="-7" font-family="Helvetica,sans-Serif" font-size="10.00">&#45;</text>
<text text-anchor="start" x="108" y="-7" font-family="Helvetica,sans-Serif" font-size="10.00">~RenderFlow()</text>
<polygon fill="#666666" stroke="#666666" points="91,-302 91,-302 263,-302 263,-302 91,-302"/>
<polygon fill="#666666" stroke="#666666" points="91,-242 91,-242 106,-242 106,-242 91,-242"/>
<polygon fill="#666666" stroke="#666666" points="106,-242 106,-242 263,-242 263,-242 106,-242"/>
<polygon fill="none" stroke="#666666" points="91,0 91,-330 263,-330 263,0 91,0"/>
</a>
</g>
</g>
<!-- Node2 -->
<g id="Node000002" class="node">
<title>Node2</title>
<g id="a_Node000002"><a xlink:href="classMayaFlux_1_1Portal_1_1Graphics_1_1ShaderFoundry.html" target="_top" xlink:title="Portal&#45;level shader compilation and caching.">
<polygon fill="white" stroke="transparent" points="174,-1073 0,-1073 0,-377 174,-377 174,-1073"/>
<text text-anchor="start" x="21" y="-1061" font-family="Helvetica,sans-Serif" font-size="10.00">MayaFlux::Portal::Graphics</text>
<text text-anchor="start" x="47.5" y="-1050" font-family="Helvetica,sans-Serif" font-size="10.00">::ShaderFoundry</text>
<text text-anchor="start" x="6.5" y="-1035" font-family="Helvetica,sans-Serif" font-size="10.00">&#45;</text>
<text text-anchor="start" x="17" y="-1035" font-family="Helvetica,sans-Serif" font-size="10.00">m_backend</text>
<text text-anchor="start" x="6.5" y="-1020" font-family="Helvetica,sans-Serif" font-size="10.00">&#45;</text>
<text text-anchor="start" x="17" y="-1020" font-family="Helvetica,sans-Serif" font-size="10.00">m_command_buffers</text>
<text text-anchor="start" x="6.5" y="-1005" font-family="Helvetica,sans-Serif" font-size="10.00">&#45;</text>
<text text-anchor="start" x="17" y="-1005" font-family="Helvetica,sans-Serif" font-size="10.00">m_compute_queue</text>
<text text-anchor="start" x="6.5" y="-990" font-family="Helvetica,sans-Serif" font-size="10.00">&#45;</text>
<text text-anchor="start" x="17" y="-990" font-family="Helvetica,sans-Serif" font-size="10.00">m_descriptor_sets</text>
<text text-anchor="start" x="6.5" y="-975" font-family="Helvetica,sans-Serif" font-size="10.00">&#45;</text>
<text text-anchor="start" x="17" y="-975" font-family="Helvetica,sans-Serif" font-size="10.00">m_fences</text>
<text text-anchor="start" x="6.5" y="-960" font-family="Helvetica,sans-Serif" font-size="10.00">&#45;</text>
<text text-anchor="start" x="17" y="-960" font-family="Helvetica,sans-Serif" font-size="10.00">m_global_descriptor</text>
<text text-anchor="start" x="17" y="-949" font-family="Helvetica,sans-Serif" font-size="10.00">_manager</text>
<text text-anchor="start" x="6.5" y="-934" font-family="Helvetica,sans-Serif" font-size="10.00">&#45;</text>
<text text-anchor="start" x="17" y="-934" font-family="Helvetica,sans-Serif" font-size="10.00">m_graphics_queue</text>
<text text-anchor="start" x="6.5" y="-919" font-family="Helvetica,sans-Serif" font-size="10.00">&#45;</text>
<text text-anchor="start" x="17" y="-919" font-family="Helvetica,sans-Serif" font-size="10.00">m_next_command_id</text>
<text text-anchor="start" x="6.5" y="-904" font-family="Helvetica,sans-Serif" font-size="10.00">&#45;</text>
<text text-anchor="start" x="17" y="-904" font-family="Helvetica,sans-Serif" font-size="10.00">m_next_descriptor_set_id</text>
<text text-anchor="start" x="6.5" y="-889" font-family="Helvetica,sans-Serif" font-size="10.00">&#45;</text>
<text text-anchor="start" x="17" y="-889" font-family="Helvetica,sans-Serif" font-size="10.00">m_next_fence_id</text>
<text text-anchor="start" x="17" y="-874" font-family="Helvetica,sans-Serif" font-size="10.00">and 7 more...</text>
<text text-anchor="start" x="6.5" y="-859" font-family="Helvetica,sans-Serif" font-size="10.00">&#45;</text>
<text text-anchor="start" x="17" y="-859" font-family="Helvetica,sans-Serif" font-size="10.00">s_initialized</text>
<text text-anchor="start" x="4" y="-844" font-family="Helvetica,sans-Serif" font-size="10.00">+</text>
<text text-anchor="start" x="17" y="-844" font-family="Helvetica,sans-Serif" font-size="10.00">add_define()</text>
<text text-anchor="start" x="4" y="-829" font-family="Helvetica,sans-Serif" font-size="10.00">+</text>
<text text-anchor="start" x="17" y="-829" font-family="Helvetica,sans-Serif" font-size="10.00">add_include_directory()</text>
<text text-anchor="start" x="4" y="-814" font-family="Helvetica,sans-Serif" font-size="10.00">+</text>
<text text-anchor="start" x="17" y="-814" font-family="Helvetica,sans-Serif" font-size="10.00">allocate_descriptor</text>
<text text-anchor="start" x="17" y="-803" font-family="Helvetica,sans-Serif" font-size="10.00">_set()</text>
<text text-anchor="start" x="4" y="-788" font-family="Helvetica,sans-Serif" font-size="10.00">+</text>
<text text-anchor="start" x="17" y="-788" font-family="Helvetica,sans-Serif" font-size="10.00">begin_commands()</text>
<text text-anchor="start" x="4" y="-773" font-family="Helvetica,sans-Serif" font-size="10.00">+</text>
<text text-anchor="start" x="17" y="-773" font-family="Helvetica,sans-Serif" font-size="10.00">begin_commands_with</text>
<text text-anchor="start" x="17" y="-762" font-family="Helvetica,sans-Serif" font-size="10.00">_wait()</text>
<text text-anchor="start" x="4" y="-747" font-family="Helvetica,sans-Serif" font-size="10.00">+</text>
<text text-anchor="start" x="17" y="-747" font-family="Helvetica,sans-Serif" font-size="10.00">begin_secondary_commands()</text>
<text text-anchor="start" x="4" y="-732" font-family="Helvetica,sans-Serif" font-size="10.00">+</text>
<text text-anchor="start" x="17" y="-732" font-family="Helvetica,sans-Serif" font-size="10.00">begin_timestamp()</text>
<text text-anchor="start" x="4" y="-717" font-family="Helvetica,sans-Serif" font-size="10.00">+</text>
<text text-anchor="start" x="17" y="-717" font-family="Helvetica,sans-Serif" font-size="10.00">buffer_barrier()</text>
<text text-anchor="start" x="4" y="-702" font-family="Helvetica,sans-Serif" font-size="10.00">+</text>
<text text-anchor="start" x="17" y="-702" font-family="Helvetica,sans-Serif" font-size="10.00">clear_cache()</text>
<text text-anchor="start" x="4" y="-687" font-family="Helvetica,sans-Serif" font-size="10.00">+</text>
<text text-anchor="start" x="17" y="-687" font-family="Helvetica,sans-Serif" font-size="10.00">compile()</text>
<text text-anchor="start" x="17" y="-672" font-family="Helvetica,sans-Serif" font-size="10.00">and 47 more...</text>
<text text-anchor="start" x="4" y="-657" font-family="Helvetica,sans-Serif" font-size="10.00">+</text>
<text text-anchor="start" x="17" y="-657" font-family="Helvetica,sans-Serif" font-size="10.00">detect_stage_from_extension()</text>
<text text-anchor="start" x="4" y="-642" font-family="Helvetica,sans-Serif" font-size="10.00">+</text>
<text text-anchor="start" x="17" y="-642" font-family="Helvetica,sans-Serif" font-size="10.00">instance()</text>
<text text-anchor="start" x="4" y="-627" font-family="Helvetica,sans-Serif" font-size="10.00">+</text>
<text text-anchor="start" x="17" y="-627" font-family="Helvetica,sans-Serif" font-size="10.00">to_vulkan_stage()</text>
<text text-anchor="start" x="6.5" y="-612" font-family="Helvetica,sans-Serif" font-size="10.00">&#45;</text>
<text text-anchor="start" x="17" y="-612" font-family="Helvetica,sans-Serif" font-size="10.00">cleanup_descriptor</text>
<text text-anchor="start" x="17" y="-601" font-family="Helvetica,sans-Serif" font-size="10.00">_resources()</text>
<text text-anchor="start" x="6.5" y="-586" font-family="Helvetica,sans-Serif" font-size="10.00">&#45;</text>
<text text-anchor="start" x="17" y="-586" font-family="Helvetica,sans-Serif" font-size="10.00">cleanup_shader_modules()</text>
<text text-anchor="start" x="6.5" y="-571" font-family="Helvetica,sans-Serif" font-size="10.00">&#45;</text>
<text text-anchor="start" x="17" y="-571" font-family="Helvetica,sans-Serif" font-size="10.00">cleanup_sync_objects()</text>
<text text-anchor="start" x="6.5" y="-556" font-family="Helvetica,sans-Serif" font-size="10.00">&#45;</text>
<text text-anchor="start" x="17" y="-556" font-family="Helvetica,sans-Serif" font-size="10.00">compile_from_file()</text>
<text text-anchor="start" x="6.5" y="-541" font-family="Helvetica,sans-Serif" font-size="10.00">&#45;</text>
<text text-anchor="start" x="17" y="-541" font-family="Helvetica,sans-Serif" font-size="10.00">compile_from_source()</text>
<text text-anchor="start" x="6.5" y="-526" font-family="Helvetica,sans-Serif" font-size="10.00">&#45;</text>
<text text-anchor="start" x="17" y="-526" font-family="Helvetica,sans-Serif" font-size="10.00">compile_from_source</text>
<text text-anchor="start" x="17" y="-515" font-family="Helvetica,sans-Serif" font-size="10.00">_cached()</text>
<text text-anchor="start" x="6.5" y="-500" font-family="Helvetica,sans-Serif" font-size="10.00">&#45;</text>
<text text-anchor="start" x="17" y="-500" font-family="Helvetica,sans-Serif" font-size="10.00">compile_from_spirv()</text>
<text text-anchor="start" x="6.5" y="-485" font-family="Helvetica,sans-Serif" font-size="10.00">&#45;</text>
<text text-anchor="start" x="17" y="-485" font-family="Helvetica,sans-Serif" font-size="10.00">create_shader_module()</text>
<text text-anchor="start" x="6.5" y="-470" font-family="Helvetica,sans-Serif" font-size="10.00">&#45;</text>
<text text-anchor="start" x="17" y="-470" font-family="Helvetica,sans-Serif" font-size="10.00">detect_source_type()</text>
<text text-anchor="start" x="6.5" y="-455" font-family="Helvetica,sans-Serif" font-size="10.00">&#45;</text>
<text text-anchor="start" x="17" y="-455" font-family="Helvetica,sans-Serif" font-size="10.00">generate_source_cache</text>
<text text-anchor="start" x="17" y="-444" font-family="Helvetica,sans-Serif" font-size="10.00">_key()</text>
<text text-anchor="start" x="6.5" y="-429" font-family="Helvetica,sans-Serif" font-size="10.00">&#45;</text>
<text text-anchor="start" x="17" y="-429" font-family="Helvetica,sans-Serif" font-size="10.00">get_vk_shader_module()</text>
<text text-anchor="start" x="6.5" y="-414" font-family="Helvetica,sans-Serif" font-size="10.00">&#45;</text>
<text text-anchor="start" x="17" y="-414" font-family="Helvetica,sans-Serif" font-size="10.00">resolve_shader_path()</text>
<text text-anchor="start" x="6.5" y="-399" font-family="Helvetica,sans-Serif" font-size="10.00">&#45;</text>
<text text-anchor="start" x="17" y="-399" font-family="Helvetica,sans-Serif" font-size="10.00">ShaderFoundry()</text>
<text text-anchor="start" x="6.5" y="-384" font-family="Helvetica,sans-Serif" font-size="10.00">&#45;</text>
<text text-anchor="start" x="17" y="-384" font-family="Helvetica,sans-Serif" font-size="10.00">~ShaderFoundry()</text>
<polygon fill="#666666" stroke="#666666" points="0,-1045 0,-1045 174,-1045 174,-1045 0,-1045"/>
<polygon fill="#666666" stroke="#666666" points="0,-854 0,-854 15,-854 15,-854 0,-854"/>
<polygon fill="#666666" stroke="#666666" points="15,-854 15,-854 174,-854 174,-854 15,-854"/>
<polygon fill="none" stroke="#666666" points="0,-377 0,-1073 174,-1073 174,-377 0,-377"/>
</a>
</g>
</g>
<!-- Node2&#45;&gt;Node1 -->
<g id="edge1_Node000001_Node000002" class="edge">
<title>Node2&#45;&gt;Node1</title>
<g id="a_edge1_Node000001_Node000002"><a xlink:title=" ">
<path fill="none" stroke="#63b8ff" d="M142.31,-376.99C143.89,-367.22 145.45,-357.54 147,-348 147.31,-346.08 147.62,-344.15 147.94,-342.21"/>
<polygon fill="none" stroke="#63b8ff" points="147.97,-342.03 144.98,-335.47 149.9,-330.19 152.88,-336.75 147.97,-342.03"/>
</a>
</g>
<text text-anchor="middle" x="196" y="-351" font-family="Helvetica,sans-Serif" font-size="10.00" fill="grey"> &#45;m_shader_foundry</text>
</g>
<!-- Node3 -->
<g id="Node000003" class="node">
<title>Node3</title>
<g id="a_Node000003"><a xlink:href="structMayaFlux_1_1Portal_1_1Graphics_1_1ShaderCompilerConfig.html" target="_top" xlink:title="Configuration for shader compilation.">
<polygon fill="white" stroke="transparent" points="158,-1255 16,-1255 16,-1120 158,-1120 158,-1255"/>
<text text-anchor="start" x="21" y="-1242.5" font-family="Helvetica,sans-Serif" font-size="10.00">MayaFlux::Portal::Graphics</text>
<text text-anchor="start" x="29.5" y="-1231.5" font-family="Helvetica,sans-Serif" font-size="10.00">::ShaderCompilerConfig</text>
<text text-anchor="start" x="21" y="-1216.5" font-family="Helvetica,sans-Serif" font-size="10.00">+</text>
<text text-anchor="start" x="35" y="-1216.5" font-family="Helvetica,sans-Serif" font-size="10.00">defines</text>
<text text-anchor="start" x="21" y="-1201.5" font-family="Helvetica,sans-Serif" font-size="10.00">+</text>
<text text-anchor="start" x="35" y="-1201.5" font-family="Helvetica,sans-Serif" font-size="10.00">enable_debug_info</text>
<text text-anchor="start" x="21" y="-1186.5" font-family="Helvetica,sans-Serif" font-size="10.00">+</text>
<text text-anchor="start" x="35" y="-1186.5" font-family="Helvetica,sans-Serif" font-size="10.00">enable_optimization</text>
<text text-anchor="start" x="21" y="-1171.5" font-family="Helvetica,sans-Serif" font-size="10.00">+</text>
<text text-anchor="start" x="35" y="-1171.5" font-family="Helvetica,sans-Serif" font-size="10.00">enable_reflection</text>
<text text-anchor="start" x="21" y="-1156.5" font-family="Helvetica,sans-Serif" font-size="10.00">+</text>
<text text-anchor="start" x="35" y="-1156.5" font-family="Helvetica,sans-Serif" font-size="10.00">enable_validation</text>
<text text-anchor="start" x="21" y="-1141.5" font-family="Helvetica,sans-Serif" font-size="10.00">+</text>
<text text-anchor="start" x="35" y="-1141.5" font-family="Helvetica,sans-Serif" font-size="10.00">include_directories</text>
<text text-anchor="start" x="21" y="-1126.5" font-family="Helvetica,sans-Serif" font-size="10.00">+</text>
<text text-anchor="start" x="35" y="-1126.5" font-family="Helvetica,sans-Serif" font-size="10.00">ShaderCompilerConfig()</text>
<polygon fill="#666666" stroke="#666666" points="16,-1226.5 16,-1226.5 158,-1226.5 158,-1226.5 16,-1226.5"/>
<polygon fill="#666666" stroke="#666666" points="16,-1136.5 16,-1136.5 33,-1136.5 33,-1136.5 16,-1136.5"/>
<polygon fill="#666666" stroke="#666666" points="33,-1136.5 33,-1136.5 158,-1136.5 158,-1136.5 33,-1136.5"/>
<polygon fill="none" stroke="#666666" points="16,-1120 16,-1255 158,-1255 158,-1120 16,-1120"/>
</a>
</g>
</g>
<!-- Node3&#45;&gt;Node2 -->
<g id="edge2_Node000002_Node000003" class="edge">
<title>Node3&#45;&gt;Node2</title>
<g id="a_edge2_Node000002_Node000003"><a xlink:title=" ">
<path fill="none" stroke="#63b8ff" d="M87,-1119.54C87,-1109.06 87,-1097.66 87,-1085.54"/>
<polygon fill="none" stroke="#63b8ff" points="87,-1085.2 83,-1079.2 87,-1073.2 91,-1079.2 87,-1085.2"/>
</a>
</g>
<text text-anchor="middle" x="113" y="-1094" font-family="Helvetica,sans-Serif" font-size="10.00" fill="grey"> &#45;m_config</text>
</g>
<!-- Node4 -->
<g id="Node000004" class="node">
<title>Node4</title>
<g id="a_Node000004"><a xlink:href="structMayaFlux_1_1Registry_1_1Service_1_1DisplayService.html" target="_top" xlink:title="Backend display and presentation service interface.">
<polygon fill="white" stroke="transparent" points="341.5,-867 192.5,-867 192.5,-583 341.5,-583 341.5,-867"/>
<text text-anchor="start" x="207" y="-855" font-family="Helvetica,sans-Serif" font-size="10.00">MayaFlux::Registry</text>
<text text-anchor="start" x="207" y="-844" font-family="Helvetica,sans-Serif" font-size="10.00">::Service::DisplayService</text>
<text text-anchor="start" x="197" y="-829" font-family="Helvetica,sans-Serif" font-size="10.00">+</text>
<text text-anchor="start" x="210" y="-829" font-family="Helvetica,sans-Serif" font-size="10.00">acquire_next_swapchain</text>
<text text-anchor="start" x="210" y="-818" font-family="Helvetica,sans-Serif" font-size="10.00">_image</text>
<text text-anchor="start" x="197" y="-803" font-family="Helvetica,sans-Serif" font-size="10.00">+</text>
<text text-anchor="start" x="210" y="-803" font-family="Helvetica,sans-Serif" font-size="10.00">ensure_depth_attachment</text>
<text text-anchor="start" x="197" y="-788" font-family="Helvetica,sans-Serif" font-size="10.00">+</text>
<text text-anchor="start" x="210" y="-788" font-family="Helvetica,sans-Serif" font-size="10.00">get_current_image_view</text>
<text text-anchor="start" x="197" y="-773" font-family="Helvetica,sans-Serif" font-size="10.00">+</text>
<text text-anchor="start" x="210" y="-773" font-family="Helvetica,sans-Serif" font-size="10.00">get_current_swapchain</text>
<text text-anchor="start" x="210" y="-762" font-family="Helvetica,sans-Serif" font-size="10.00">_image</text>
<text text-anchor="start" x="197" y="-747" font-family="Helvetica,sans-Serif" font-size="10.00">+</text>
<text text-anchor="start" x="210" y="-747" font-family="Helvetica,sans-Serif" font-size="10.00">get_depth_format</text>
<text text-anchor="start" x="197" y="-732" font-family="Helvetica,sans-Serif" font-size="10.00">+</text>
<text text-anchor="start" x="210" y="-732" font-family="Helvetica,sans-Serif" font-size="10.00">get_depth_image_view</text>
<text text-anchor="start" x="197" y="-717" font-family="Helvetica,sans-Serif" font-size="10.00">+</text>
<text text-anchor="start" x="210" y="-717" font-family="Helvetica,sans-Serif" font-size="10.00">get_swapchain_extent</text>
<text text-anchor="start" x="197" y="-702" font-family="Helvetica,sans-Serif" font-size="10.00">+</text>
<text text-anchor="start" x="210" y="-702" font-family="Helvetica,sans-Serif" font-size="10.00">get_swapchain_format</text>
<text text-anchor="start" x="197" y="-687" font-family="Helvetica,sans-Serif" font-size="10.00">+</text>
<text text-anchor="start" x="210" y="-687" font-family="Helvetica,sans-Serif" font-size="10.00">get_swapchain_image</text>
<text text-anchor="start" x="210" y="-676" font-family="Helvetica,sans-Serif" font-size="10.00">_count</text>
<text text-anchor="start" x="197" y="-661" font-family="Helvetica,sans-Serif" font-size="10.00">+</text>
<text text-anchor="start" x="210" y="-661" font-family="Helvetica,sans-Serif" font-size="10.00">readback_swapchain</text>
<text text-anchor="start" x="210" y="-650" font-family="Helvetica,sans-Serif" font-size="10.00">_region</text>
<text text-anchor="start" x="197" y="-635" font-family="Helvetica,sans-Serif" font-size="10.00">+</text>
<text text-anchor="start" x="210" y="-635" font-family="Helvetica,sans-Serif" font-size="10.00">resize_surface</text>
<text text-anchor="start" x="197" y="-620" font-family="Helvetica,sans-Serif" font-size="10.00">+</text>
<text text-anchor="start" x="210" y="-620" font-family="Helvetica,sans-Serif" font-size="10.00">submit_and_present</text>
<text text-anchor="start" x="197" y="-605" font-family="Helvetica,sans-Serif" font-size="10.00">+</text>
<text text-anchor="start" x="210" y="-605" font-family="Helvetica,sans-Serif" font-size="10.00">wait_idle</text>
<text text-anchor="start" x="265.5" y="-590" font-family="Helvetica,sans-Serif" font-size="10.00"> </text>
<polygon fill="#666666" stroke="#666666" points="193,-839 193,-839 342,-839 342,-839 193,-839"/>
<polygon fill="#666666" stroke="#666666" points="193,-600 193,-600 208,-600 208,-600 193,-600"/>
<polygon fill="#666666" stroke="#666666" points="208,-600 208,-600 342,-600 342,-600 208,-600"/>
<polygon fill="none" stroke="#666666" points="192.5,-583 192.5,-867 341.5,-867 341.5,-583 192.5,-583"/>
</a>
</g>
</g>
<!-- Node4&#45;&gt;Node1 -->
<g id="edge3_Node000001_Node000004" class="edge">
<title>Node4&#45;&gt;Node1</title>
<g id="a_edge3_Node000001_Node000004"><a xlink:title=" ">
<path fill="none" stroke="#63b8ff" d="M268.68,-582.96C267.03,-511.83 261.17,-424.62 245,-348 244.57,-345.96 244.12,-343.91 243.65,-341.85"/>
<polygon fill="none" stroke="#63b8ff" points="243.61,-341.69 238.31,-336.8 240.79,-330.02 246.09,-334.91 243.61,-341.69"/>
</a>
</g>
<text text-anchor="middle" x="296" y="-351" font-family="Helvetica,sans-Serif" font-size="10.00" fill="grey"> &#45;m_display_service</text>
</g>
</g>
</svg>

<g id="navigator" transform="translate(0 0)" fill="#404254">
  <rect fill="#f2f5e9" fill-opacity="0.5" stroke="#606060" stroke-width=".5" x="0" y="0" width="60" height="60"/>
  <use id="zoomplus" xlink:href="#zoomPlus" x="17" y="9" onmousedown="handleZoom(evt,'in')"/>
  <use id="zoomminus" xlink:href="#zoomMin" x="42" y="9" onmousedown="handleZoom(evt,'out')"/>
  <use id="reset" xlink:href="#resetDef" x="30" y="36" onmousedown="handleReset()"/>
   <use id="arrowup" xlink:href="#arrowUp" x="0" y="0" onmousedown="handlePan(0,-1)"/>
  <use id="arrowright" xlink:href="#arrowRight" x="0" y="0" onmousedown="handlePan(1,0)"/>
  <use id="arrowdown" xlink:href="#arrowDown" x="0" y="0" onmousedown="handlePan(0,1)"/>
  <use id="arrowleft" xlink:href="#arrowLeft" x="0" y="0" onmousedown="handlePan(-1,0)"/>
</g>
<svg viewBox="0 0 15 15" width="100%" height="30px" preserveAspectRatio="xMaxYMin meet">
 <g id="arrow_out" transform="scale(0.3 0.3)">
  <a xlink:href="classMayaFlux_1_1Portal_1_1Graphics_1_1RenderFlow__coll__graph_org.svg" target="_base">
   <rect id="button" ry="5" rx="5" y="6" x="6" height="38" width="38"
        fill="#f2f5e9" fill-opacity="0.5" stroke="#606060" stroke-width="1.0"/>
   <path id="arrow"
     d="M 11.500037,31.436501 C 11.940474,20.09759 22.043105,11.32322 32.158766,21.979434 L 37.068811,17.246167 C 37.068811,17.246167 37.088388,32 37.088388,32 L 22.160133,31.978069 C 22.160133,31.978069 26.997745,27.140456 26.997745,27.140456 C 18.528582,18.264221 13.291696,25.230495 11.500037,31.436501 z"
     style="fill:#404040;"/>
  </a>
 </g>
</svg>

<style type='text/css'>
<![CDATA[
[data-mouse-over-selected='false'] { opacity: 0.7; }
[data-mouse-over-selected='true']  { opacity: 1.0; }
]]>
</style>
<script type="application/ecmascript"><![CDATA[
document.addEventListener('DOMContentLoaded', (event) => {
  highlightEdges();
  highlightAdjacentNodes();
});
]]></script>
</svg>
