<?xml version="1.0" encoding="UTF-8" standalone="no"?>
<!DOCTYPE svg PUBLIC "-//W3C//DTD SVG 1.1//EN"
 "http://www.w3.org/Graphics/SVG/1.1/DTD/svg11.dtd">
<!-- Generated by graphviz version 2.43.0 (0)
 -->
<!-- Title: MayaFlux::Buffers::RenderProcessor Pages: 1 -->
<svg width="721pt" height="1625pt"
 viewBox="0.00 0.00 720.50 1625.00" xmlns="http://www.w3.org/2000/svg" xmlns:xlink="http://www.w3.org/1999/xlink">
<g id="graph0" class="graph" transform="scale(1 1) rotate(0) translate(4 1621)">
<title>MayaFlux::Buffers::RenderProcessor</title>
<!-- Node1 -->
<g id="Node000001" class="node">
<title>Node1</title>
<g id="a_Node000001"><a xlink:title=" ">
<polygon fill="#999999" stroke="transparent" points="548.5,-472 406.5,-472 406.5,0 548.5,0 548.5,-472"/>
<text text-anchor="start" x="430" y="-460" font-family="Helvetica,sans-Serif" font-size="10.00">MayaFlux::Buffers::</text>
<text text-anchor="start" x="436.5" y="-449" font-family="Helvetica,sans-Serif" font-size="10.00">RenderProcessor</text>
<text text-anchor="start" x="413" y="-434" font-family="Helvetica,sans-Serif" font-size="10.00">&#45;</text>
<text text-anchor="start" x="423.5" y="-434" font-family="Helvetica,sans-Serif" font-size="10.00">m_blend_attachment</text>
<text text-anchor="start" x="413" y="-419" font-family="Helvetica,sans-Serif" font-size="10.00">&#45;</text>
<text text-anchor="start" x="423.5" y="-419" font-family="Helvetica,sans-Serif" font-size="10.00">m_buffer_info</text>
<text text-anchor="start" x="413" y="-404" font-family="Helvetica,sans-Serif" font-size="10.00">&#45;</text>
<text text-anchor="start" x="423.5" y="-404" font-family="Helvetica,sans-Serif" font-size="10.00">m_cull_mode</text>
<text text-anchor="start" x="413" y="-389" font-family="Helvetica,sans-Serif" font-size="10.00">&#45;</text>
<text text-anchor="start" x="423.5" y="-389" font-family="Helvetica,sans-Serif" font-size="10.00">m_depth_enabled</text>
<text text-anchor="start" x="413" y="-374" font-family="Helvetica,sans-Serif" font-size="10.00">&#45;</text>
<text text-anchor="start" x="423.5" y="-374" font-family="Helvetica,sans-Serif" font-size="10.00">m_first_vertex</text>
<text text-anchor="start" x="413" y="-359" font-family="Helvetica,sans-Serif" font-size="10.00">&#45;</text>
<text text-anchor="start" x="423.5" y="-359" font-family="Helvetica,sans-Serif" font-size="10.00">m_fragment_shader_id</text>
<text text-anchor="start" x="413" y="-344" font-family="Helvetica,sans-Serif" font-size="10.00">&#45;</text>
<text text-anchor="start" x="423.5" y="-344" font-family="Helvetica,sans-Serif" font-size="10.00">m_geometry_shader_id</text>
<text text-anchor="start" x="413" y="-329" font-family="Helvetica,sans-Serif" font-size="10.00">&#45;</text>
<text text-anchor="start" x="423.5" y="-329" font-family="Helvetica,sans-Serif" font-size="10.00">m_pipeline_id</text>
<text text-anchor="start" x="413" y="-314" font-family="Helvetica,sans-Serif" font-size="10.00">&#45;</text>
<text text-anchor="start" x="423.5" y="-314" font-family="Helvetica,sans-Serif" font-size="10.00">m_polygon_mode</text>
<text text-anchor="start" x="413" y="-299" font-family="Helvetica,sans-Serif" font-size="10.00">&#45;</text>
<text text-anchor="start" x="423.5" y="-299" font-family="Helvetica,sans-Serif" font-size="10.00">m_primitive_topology</text>
<text text-anchor="start" x="423.5" y="-284" font-family="Helvetica,sans-Serif" font-size="10.00">and 10 more...</text>
<text text-anchor="start" x="410.5" y="-269" font-family="Helvetica,sans-Serif" font-size="10.00">+</text>
<text text-anchor="start" x="423.5" y="-269" font-family="Helvetica,sans-Serif" font-size="10.00">bind_texture()</text>
<text text-anchor="start" x="410.5" y="-254" font-family="Helvetica,sans-Serif" font-size="10.00">+</text>
<text text-anchor="start" x="423.5" y="-254" font-family="Helvetica,sans-Serif" font-size="10.00">bind_texture()</text>
<text text-anchor="start" x="410.5" y="-239" font-family="Helvetica,sans-Serif" font-size="10.00">+</text>
<text text-anchor="start" x="423.5" y="-239" font-family="Helvetica,sans-Serif" font-size="10.00">enable_alpha_blending()</text>
<text text-anchor="start" x="410.5" y="-224" font-family="Helvetica,sans-Serif" font-size="10.00">+</text>
<text text-anchor="start" x="423.5" y="-224" font-family="Helvetica,sans-Serif" font-size="10.00">enable_depth_test()</text>
<text text-anchor="start" x="410.5" y="-209" font-family="Helvetica,sans-Serif" font-size="10.00">+</text>
<text text-anchor="start" x="423.5" y="-209" font-family="Helvetica,sans-Serif" font-size="10.00">get_render_pipeline_id()</text>
<text text-anchor="start" x="410.5" y="-194" font-family="Helvetica,sans-Serif" font-size="10.00">+</text>
<text text-anchor="start" x="423.5" y="-194" font-family="Helvetica,sans-Serif" font-size="10.00">get_view_transform()</text>
<text text-anchor="start" x="410.5" y="-179" font-family="Helvetica,sans-Serif" font-size="10.00">+</text>
<text text-anchor="start" x="423.5" y="-179" font-family="Helvetica,sans-Serif" font-size="10.00">get_view_transform</text>
<text text-anchor="start" x="423.5" y="-168" font-family="Helvetica,sans-Serif" font-size="10.00">_source()</text>
<text text-anchor="start" x="410.5" y="-153" font-family="Helvetica,sans-Serif" font-size="10.00">+</text>
<text text-anchor="start" x="423.5" y="-153" font-family="Helvetica,sans-Serif" font-size="10.00">is_pipeline_ready()</text>
<text text-anchor="start" x="410.5" y="-138" font-family="Helvetica,sans-Serif" font-size="10.00">+</text>
<text text-anchor="start" x="423.5" y="-138" font-family="Helvetica,sans-Serif" font-size="10.00">on_attach()</text>
<text text-anchor="start" x="410.5" y="-123" font-family="Helvetica,sans-Serif" font-size="10.00">+</text>
<text text-anchor="start" x="423.5" y="-123" font-family="Helvetica,sans-Serif" font-size="10.00">RenderProcessor()</text>
<text text-anchor="start" x="423.5" y="-108" font-family="Helvetica,sans-Serif" font-size="10.00">and 14 more...</text>
<text text-anchor="start" x="410.5" y="-93" font-family="Helvetica,sans-Serif" font-size="10.00">#</text>
<text text-anchor="start" x="423.5" y="-93" font-family="Helvetica,sans-Serif" font-size="10.00">cleanup()</text>
<text text-anchor="start" x="410.5" y="-78" font-family="Helvetica,sans-Serif" font-size="10.00">#</text>
<text text-anchor="start" x="423.5" y="-78" font-family="Helvetica,sans-Serif" font-size="10.00">execute_shader()</text>
<text text-anchor="start" x="410.5" y="-63" font-family="Helvetica,sans-Serif" font-size="10.00">#</text>
<text text-anchor="start" x="423.5" y="-63" font-family="Helvetica,sans-Serif" font-size="10.00">initialize_descriptors()</text>
<text text-anchor="start" x="410.5" y="-48" font-family="Helvetica,sans-Serif" font-size="10.00">#</text>
<text text-anchor="start" x="423.5" y="-48" font-family="Helvetica,sans-Serif" font-size="10.00">initialize_pipeline()</text>
<text text-anchor="start" x="410.5" y="-33" font-family="Helvetica,sans-Serif" font-size="10.00">#</text>
<text text-anchor="start" x="423.5" y="-33" font-family="Helvetica,sans-Serif" font-size="10.00">on_before_execute()</text>
<text text-anchor="start" x="413" y="-18" font-family="Helvetica,sans-Serif" font-size="10.00">&#45;</text>
<text text-anchor="start" x="423.5" y="-18" font-family="Helvetica,sans-Serif" font-size="10.00">get_or_cache_vertex</text>
<text text-anchor="start" x="423.5" y="-7" font-family="Helvetica,sans-Serif" font-size="10.00">_layout()</text>
<polygon fill="#666666" stroke="#666666" points="406.5,-444 406.5,-444 548.5,-444 548.5,-444 406.5,-444"/>
<polygon fill="#666666" stroke="#666666" points="406.5,-279 406.5,-279 421.5,-279 421.5,-279 406.5,-279"/>
<polygon fill="#666666" stroke="#666666" points="421.5,-279 421.5,-279 548.5,-279 548.5,-279 421.5,-279"/>
<polygon fill="none" stroke="#666666" points="406.5,0 406.5,-472 548.5,-472 548.5,0 406.5,0"/>
</a>
</g>
</g>
<!-- Node2 -->
<g id="Node000002" class="node">
<title>Node2</title>
<g id="a_Node000002"><a xlink:href="classMayaFlux_1_1Buffers_1_1ShaderProcessor.html" target="_top" xlink:title="Abstract base class for shader&#45;based buffer processing.">
<polygon fill="white" stroke="transparent" points="385,-1148 236,-1148 236,-519 385,-519 385,-1148"/>
<text text-anchor="start" x="263.5" y="-1135.5" font-family="Helvetica,sans-Serif" font-size="10.00">MayaFlux::Buffers::</text>
<text text-anchor="start" x="270" y="-1124.5" font-family="Helvetica,sans-Serif" font-size="10.00">ShaderProcessor</text>
<text text-anchor="start" x="240.5" y="-1109.5" font-family="Helvetica,sans-Serif" font-size="10.00">#</text>
<text text-anchor="start" x="253.5" y="-1109.5" font-family="Helvetica,sans-Serif" font-size="10.00">m_auto_bind_index</text>
<text text-anchor="start" x="240.5" y="-1094.5" font-family="Helvetica,sans-Serif" font-size="10.00">#</text>
<text text-anchor="start" x="253.5" y="-1094.5" font-family="Helvetica,sans-Serif" font-size="10.00">m_bound_buffers</text>
<text text-anchor="start" x="240.5" y="-1079.5" font-family="Helvetica,sans-Serif" font-size="10.00">#</text>
<text text-anchor="start" x="253.5" y="-1079.5" font-family="Helvetica,sans-Serif" font-size="10.00">m_descriptor_set_ids</text>
<text text-anchor="start" x="240.5" y="-1064.5" font-family="Helvetica,sans-Serif" font-size="10.00">#</text>
<text text-anchor="start" x="253.5" y="-1064.5" font-family="Helvetica,sans-Serif" font-size="10.00">m_engine_owns_set_zero</text>
<text text-anchor="start" x="240.5" y="-1049.5" font-family="Helvetica,sans-Serif" font-size="10.00">#</text>
<text text-anchor="start" x="253.5" y="-1049.5" font-family="Helvetica,sans-Serif" font-size="10.00">m_initialized</text>
<text text-anchor="start" x="240.5" y="-1034.5" font-family="Helvetica,sans-Serif" font-size="10.00">#</text>
<text text-anchor="start" x="253.5" y="-1034.5" font-family="Helvetica,sans-Serif" font-size="10.00">m_last_command_buffer</text>
<text text-anchor="start" x="240.5" y="-1019.5" font-family="Helvetica,sans-Serif" font-size="10.00">#</text>
<text text-anchor="start" x="253.5" y="-1019.5" font-family="Helvetica,sans-Serif" font-size="10.00">m_last_processed_buffer</text>
<text text-anchor="start" x="240.5" y="-1004.5" font-family="Helvetica,sans-Serif" font-size="10.00">#</text>
<text text-anchor="start" x="253.5" y="-1004.5" font-family="Helvetica,sans-Serif" font-size="10.00">m_needs_descriptor</text>
<text text-anchor="start" x="253.5" y="-993.5" font-family="Helvetica,sans-Serif" font-size="10.00">_rebuild</text>
<text text-anchor="start" x="240.5" y="-978.5" font-family="Helvetica,sans-Serif" font-size="10.00">#</text>
<text text-anchor="start" x="253.5" y="-978.5" font-family="Helvetica,sans-Serif" font-size="10.00">m_needs_pipeline_rebuild</text>
<text text-anchor="start" x="240.5" y="-963.5" font-family="Helvetica,sans-Serif" font-size="10.00">#</text>
<text text-anchor="start" x="253.5" y="-963.5" font-family="Helvetica,sans-Serif" font-size="10.00">m_push_constant_data</text>
<text text-anchor="start" x="240.5" y="-948.5" font-family="Helvetica,sans-Serif" font-size="10.00">#</text>
<text text-anchor="start" x="253.5" y="-948.5" font-family="Helvetica,sans-Serif" font-size="10.00">m_shader_id</text>
<text text-anchor="start" x="240.5" y="-933.5" font-family="Helvetica,sans-Serif" font-size="10.00">+</text>
<text text-anchor="start" x="253.5" y="-933.5" font-family="Helvetica,sans-Serif" font-size="10.00">add_binding()</text>
<text text-anchor="start" x="240.5" y="-918.5" font-family="Helvetica,sans-Serif" font-size="10.00">+</text>
<text text-anchor="start" x="253.5" y="-918.5" font-family="Helvetica,sans-Serif" font-size="10.00">are_bindings_complete()</text>
<text text-anchor="start" x="240.5" y="-903.5" font-family="Helvetica,sans-Serif" font-size="10.00">+</text>
<text text-anchor="start" x="253.5" y="-903.5" font-family="Helvetica,sans-Serif" font-size="10.00">are_descriptors_ready()</text>
<text text-anchor="start" x="240.5" y="-888.5" font-family="Helvetica,sans-Serif" font-size="10.00">+</text>
<text text-anchor="start" x="253.5" y="-888.5" font-family="Helvetica,sans-Serif" font-size="10.00">auto_bind_buffer()</text>
<text text-anchor="start" x="240.5" y="-873.5" font-family="Helvetica,sans-Serif" font-size="10.00">+</text>
<text text-anchor="start" x="253.5" y="-873.5" font-family="Helvetica,sans-Serif" font-size="10.00">bind_buffer()</text>
<text text-anchor="start" x="240.5" y="-858.5" font-family="Helvetica,sans-Serif" font-size="10.00">+</text>
<text text-anchor="start" x="253.5" y="-858.5" font-family="Helvetica,sans-Serif" font-size="10.00">clear_specialization</text>
<text text-anchor="start" x="253.5" y="-847.5" font-family="Helvetica,sans-Serif" font-size="10.00">_constants()</text>
<text text-anchor="start" x="240.5" y="-832.5" font-family="Helvetica,sans-Serif" font-size="10.00">+</text>
<text text-anchor="start" x="253.5" y="-832.5" font-family="Helvetica,sans-Serif" font-size="10.00">get_binding_names()</text>
<text text-anchor="start" x="240.5" y="-817.5" font-family="Helvetica,sans-Serif" font-size="10.00">+</text>
<text text-anchor="start" x="253.5" y="-817.5" font-family="Helvetica,sans-Serif" font-size="10.00">get_bound_buffer()</text>
<text text-anchor="start" x="240.5" y="-802.5" font-family="Helvetica,sans-Serif" font-size="10.00">+</text>
<text text-anchor="start" x="253.5" y="-802.5" font-family="Helvetica,sans-Serif" font-size="10.00">get_bound_buffer_count()</text>
<text text-anchor="start" x="240.5" y="-787.5" font-family="Helvetica,sans-Serif" font-size="10.00">+</text>
<text text-anchor="start" x="253.5" y="-787.5" font-family="Helvetica,sans-Serif" font-size="10.00">get_buffer_usage_hint()</text>
<text text-anchor="start" x="253.5" y="-772.5" font-family="Helvetica,sans-Serif" font-size="10.00">and 25 more...</text>
<text text-anchor="start" x="240.5" y="-757.5" font-family="Helvetica,sans-Serif" font-size="10.00">#</text>
<text text-anchor="start" x="253.5" y="-757.5" font-family="Helvetica,sans-Serif" font-size="10.00">cleanup()</text>
<text text-anchor="start" x="240.5" y="-742.5" font-family="Helvetica,sans-Serif" font-size="10.00">#</text>
<text text-anchor="start" x="253.5" y="-742.5" font-family="Helvetica,sans-Serif" font-size="10.00">execute_shader()</text>
<text text-anchor="start" x="240.5" y="-727.5" font-family="Helvetica,sans-Serif" font-size="10.00">#</text>
<text text-anchor="start" x="253.5" y="-727.5" font-family="Helvetica,sans-Serif" font-size="10.00">initialize_descriptors()</text>
<text text-anchor="start" x="240.5" y="-712.5" font-family="Helvetica,sans-Serif" font-size="10.00">#</text>
<text text-anchor="start" x="253.5" y="-712.5" font-family="Helvetica,sans-Serif" font-size="10.00">initialize_pipeline()</text>
<text text-anchor="start" x="240.5" y="-697.5" font-family="Helvetica,sans-Serif" font-size="10.00">#</text>
<text text-anchor="start" x="253.5" y="-697.5" font-family="Helvetica,sans-Serif" font-size="10.00">on_after_execute()</text>
<text text-anchor="start" x="240.5" y="-682.5" font-family="Helvetica,sans-Serif" font-size="10.00">#</text>
<text text-anchor="start" x="253.5" y="-682.5" font-family="Helvetica,sans-Serif" font-size="10.00">on_before_compile()</text>
<text text-anchor="start" x="240.5" y="-667.5" font-family="Helvetica,sans-Serif" font-size="10.00">#</text>
<text text-anchor="start" x="253.5" y="-667.5" font-family="Helvetica,sans-Serif" font-size="10.00">on_before_descriptors</text>
<text text-anchor="start" x="253.5" y="-656.5" font-family="Helvetica,sans-Serif" font-size="10.00">_create()</text>
<text text-anchor="start" x="240.5" y="-641.5" font-family="Helvetica,sans-Serif" font-size="10.00">#</text>
<text text-anchor="start" x="253.5" y="-641.5" font-family="Helvetica,sans-Serif" font-size="10.00">on_before_execute()</text>
<text text-anchor="start" x="240.5" y="-626.5" font-family="Helvetica,sans-Serif" font-size="10.00">#</text>
<text text-anchor="start" x="253.5" y="-626.5" font-family="Helvetica,sans-Serif" font-size="10.00">on_before_pipeline</text>
<text text-anchor="start" x="253.5" y="-615.5" font-family="Helvetica,sans-Serif" font-size="10.00">_create()</text>
<text text-anchor="start" x="240.5" y="-600.5" font-family="Helvetica,sans-Serif" font-size="10.00">#</text>
<text text-anchor="start" x="253.5" y="-600.5" font-family="Helvetica,sans-Serif" font-size="10.00">on_descriptors_created()</text>
<text text-anchor="start" x="240.5" y="-585.5" font-family="Helvetica,sans-Serif" font-size="10.00">#</text>
<text text-anchor="start" x="253.5" y="-585.5" font-family="Helvetica,sans-Serif" font-size="10.00">on_pipeline_created()</text>
<text text-anchor="start" x="240.5" y="-570.5" font-family="Helvetica,sans-Serif" font-size="10.00">#</text>
<text text-anchor="start" x="253.5" y="-570.5" font-family="Helvetica,sans-Serif" font-size="10.00">on_shader_loaded()</text>
<text text-anchor="start" x="240.5" y="-555.5" font-family="Helvetica,sans-Serif" font-size="10.00">#</text>
<text text-anchor="start" x="253.5" y="-555.5" font-family="Helvetica,sans-Serif" font-size="10.00">resolve_ds_index()</text>
<text text-anchor="start" x="240.5" y="-540.5" font-family="Helvetica,sans-Serif" font-size="10.00">#</text>
<text text-anchor="start" x="253.5" y="-540.5" font-family="Helvetica,sans-Serif" font-size="10.00">update_descriptors()</text>
<text text-anchor="start" x="243" y="-525.5" font-family="Helvetica,sans-Serif" font-size="10.00">&#45;</text>
<text text-anchor="start" x="253.5" y="-525.5" font-family="Helvetica,sans-Serif" font-size="10.00">initialize_shader()</text>
<polygon fill="#666666" stroke="#666666" points="236.5,-1119.5 236.5,-1119.5 385.5,-1119.5 385.5,-1119.5 236.5,-1119.5"/>
<polygon fill="#666666" stroke="#666666" points="236.5,-943.5 236.5,-943.5 251.5,-943.5 251.5,-943.5 236.5,-943.5"/>
<polygon fill="#666666" stroke="#666666" points="251.5,-943.5 251.5,-943.5 385.5,-943.5 385.5,-943.5 251.5,-943.5"/>
<polygon fill="none" stroke="#666666" points="236,-519 236,-1148 385,-1148 385,-519 236,-519"/>
</a>
</g>
</g>
<!-- Node2&#45;&gt;Node1 -->
<g id="edge1_Node000001_Node000002" class="edge">
<title>Node2&#45;&gt;Node1</title>
<g id="a_edge1_Node000001_Node000002"><a xlink:title=" ">
<path fill="none" stroke="#63b8ff" d="M387.71,-543.29C389.99,-535.1 392.25,-526.99 394.5,-519 398.78,-503.77 403.24,-488.09 407.78,-472.3"/>
<polygon fill="none" stroke="#63b8ff" points="384.34,-542.37 385.03,-552.94 391.08,-544.24 384.34,-542.37"/>
</a>
</g>
</g>
<!-- Node3 -->
<g id="Node000003" class="node">
<title>Node3</title>
<g id="a_Node000003"><a xlink:href="classMayaFlux_1_1Buffers_1_1VKBufferProcessor.html" target="_top" xlink:title=" ">
<polygon fill="white" stroke="transparent" points="302,-1320.5 157,-1320.5 157,-1219.5 302,-1219.5 302,-1320.5"/>
<text text-anchor="start" x="182.5" y="-1308" font-family="Helvetica,sans-Serif" font-size="10.00">MayaFlux::Buffers::</text>
<text text-anchor="start" x="184.5" y="-1297" font-family="Helvetica,sans-Serif" font-size="10.00">VKBufferProcessor</text>
<text text-anchor="start" x="228" y="-1282" font-family="Helvetica,sans-Serif" font-size="10.00"> </text>
<text text-anchor="start" x="161.5" y="-1267" font-family="Helvetica,sans-Serif" font-size="10.00">#</text>
<text text-anchor="start" x="174.5" y="-1267" font-family="Helvetica,sans-Serif" font-size="10.00">ensure_initialized()</text>
<text text-anchor="start" x="161.5" y="-1252" font-family="Helvetica,sans-Serif" font-size="10.00">#</text>
<text text-anchor="start" x="174.5" y="-1252" font-family="Helvetica,sans-Serif" font-size="10.00">initialize_buffer_service()</text>
<text text-anchor="start" x="161.5" y="-1237" font-family="Helvetica,sans-Serif" font-size="10.00">#</text>
<text text-anchor="start" x="174.5" y="-1237" font-family="Helvetica,sans-Serif" font-size="10.00">initialize_compute</text>
<text text-anchor="start" x="174.5" y="-1226" font-family="Helvetica,sans-Serif" font-size="10.00">_service()</text>
<polygon fill="#666666" stroke="#666666" points="157.5,-1292 157.5,-1292 302.5,-1292 302.5,-1292 157.5,-1292"/>
<polygon fill="#666666" stroke="#666666" points="157.5,-1277 157.5,-1277 302.5,-1277 302.5,-1277 157.5,-1277"/>
<polygon fill="none" stroke="#666666" points="157,-1219.5 157,-1320.5 302,-1320.5 302,-1219.5 157,-1219.5"/>
</a>
</g>
</g>
<!-- Node3&#45;&gt;Node2 -->
<g id="edge2_Node000002_Node000003" class="edge">
<title>Node3&#45;&gt;Node2</title>
<g id="a_edge2_Node000002_Node000003"><a xlink:title=" ">
<path fill="none" stroke="#63b8ff" d="M240.67,-1209.08C243.97,-1191.36 247.84,-1170.62 252.03,-1148.16"/>
<polygon fill="none" stroke="#63b8ff" points="237.18,-1208.69 238.79,-1219.16 244.07,-1209.97 237.18,-1208.69"/>
</a>
</g>
</g>
<!-- Node4 -->
<g id="Node000004" class="node">
<title>Node4</title>
<g id="a_Node000004"><a xlink:href="classMayaFlux_1_1Buffers_1_1BufferProcessor.html" target="_top" xlink:title="Central computational transformation interface for continuous buffer processing.">
<polygon fill="white" stroke="transparent" points="135,-1602 0,-1602 0,-1407 135,-1407 135,-1602"/>
<text text-anchor="start" x="20.5" y="-1589.5" font-family="Helvetica,sans-Serif" font-size="10.00">MayaFlux::Buffers::</text>
<text text-anchor="start" x="29.5" y="-1578.5" font-family="Helvetica,sans-Serif" font-size="10.00">BufferProcessor</text>
<text text-anchor="start" x="4.5" y="-1563.5" font-family="Helvetica,sans-Serif" font-size="10.00">#</text>
<text text-anchor="start" x="17.5" y="-1563.5" font-family="Helvetica,sans-Serif" font-size="10.00">m_processing_token</text>
<text text-anchor="start" x="7" y="-1548.5" font-family="Helvetica,sans-Serif" font-size="10.00">&#45;</text>
<text text-anchor="start" x="17.5" y="-1548.5" font-family="Helvetica,sans-Serif" font-size="10.00">m_active_processing</text>
<text text-anchor="start" x="4.5" y="-1533.5" font-family="Helvetica,sans-Serif" font-size="10.00">+</text>
<text text-anchor="start" x="17.5" y="-1533.5" font-family="Helvetica,sans-Serif" font-size="10.00">get_processing_token()</text>
<text text-anchor="start" x="4.5" y="-1518.5" font-family="Helvetica,sans-Serif" font-size="10.00">+</text>
<text text-anchor="start" x="17.5" y="-1518.5" font-family="Helvetica,sans-Serif" font-size="10.00">is_compatible_with()</text>
<text text-anchor="start" x="4.5" y="-1503.5" font-family="Helvetica,sans-Serif" font-size="10.00">+</text>
<text text-anchor="start" x="17.5" y="-1503.5" font-family="Helvetica,sans-Serif" font-size="10.00">on_attach()</text>
<text text-anchor="start" x="4.5" y="-1488.5" font-family="Helvetica,sans-Serif" font-size="10.00">+</text>
<text text-anchor="start" x="17.5" y="-1488.5" font-family="Helvetica,sans-Serif" font-size="10.00">on_detach()</text>
<text text-anchor="start" x="4.5" y="-1473.5" font-family="Helvetica,sans-Serif" font-size="10.00">+</text>
<text text-anchor="start" x="17.5" y="-1473.5" font-family="Helvetica,sans-Serif" font-size="10.00">process()</text>
<text text-anchor="start" x="4.5" y="-1458.5" font-family="Helvetica,sans-Serif" font-size="10.00">+</text>
<text text-anchor="start" x="17.5" y="-1458.5" font-family="Helvetica,sans-Serif" font-size="10.00">processing_function()</text>
<text text-anchor="start" x="4.5" y="-1443.5" font-family="Helvetica,sans-Serif" font-size="10.00">+</text>
<text text-anchor="start" x="17.5" y="-1443.5" font-family="Helvetica,sans-Serif" font-size="10.00">set_processing_token()</text>
<text text-anchor="start" x="4.5" y="-1428.5" font-family="Helvetica,sans-Serif" font-size="10.00">+</text>
<text text-anchor="start" x="17.5" y="-1428.5" font-family="Helvetica,sans-Serif" font-size="10.00">~BufferProcessor()</text>
<text text-anchor="start" x="7" y="-1413.5" font-family="Helvetica,sans-Serif" font-size="10.00">&#45;</text>
<text text-anchor="start" x="17.5" y="-1413.5" font-family="Helvetica,sans-Serif" font-size="10.00">process_non_owning()</text>
<polygon fill="#666666" stroke="#666666" points="0.5,-1573.5 0.5,-1573.5 135.5,-1573.5 135.5,-1573.5 0.5,-1573.5"/>
<polygon fill="#666666" stroke="#666666" points="0.5,-1543.5 0.5,-1543.5 15.5,-1543.5 15.5,-1543.5 0.5,-1543.5"/>
<polygon fill="#666666" stroke="#666666" points="15.5,-1543.5 15.5,-1543.5 135.5,-1543.5 135.5,-1543.5 15.5,-1543.5"/>
<polygon fill="none" stroke="#666666" points="0,-1407 0,-1602 135,-1602 135,-1407 0,-1407"/>
</a>
</g>
</g>
<!-- Node4&#45;&gt;Node3 -->
<g id="edge3_Node000003_Node000004" class="edge">
<title>Node4&#45;&gt;Node3</title>
<g id="a_edge3_Node000003_Node000004"><a xlink:title=" ">
<path fill="none" stroke="#63b8ff" d="M140.05,-1398.4C141.54,-1396.25 143.03,-1394.11 144.5,-1392 160.86,-1368.51 179.09,-1342.53 194.47,-1320.68"/>
<polygon fill="none" stroke="#63b8ff" points="137.06,-1396.56 134.23,-1406.77 142.81,-1400.56 137.06,-1396.56"/>
</a>
</g>
</g>
<!-- Node5 -->
<g id="Node000005" class="node">
<title>Node5</title>
<g id="a_Node000005"><a xlink:href="structMayaFlux_1_1Registry_1_1Service_1_1BufferService.html" target="_top" xlink:title="Backend buffer management service interface.">
<polygon fill="white" stroke="transparent" points="305.5,-1617 153.5,-1617 153.5,-1392 305.5,-1392 305.5,-1617"/>
<text text-anchor="start" x="172.5" y="-1604.5" font-family="Helvetica,sans-Serif" font-size="10.00">MayaFlux::Registry</text>
<text text-anchor="start" x="172.5" y="-1593.5" font-family="Helvetica,sans-Serif" font-size="10.00">::Service::BufferService</text>
<text text-anchor="start" x="157.5" y="-1578.5" font-family="Helvetica,sans-Serif" font-size="10.00">+</text>
<text text-anchor="start" x="170.5" y="-1578.5" font-family="Helvetica,sans-Serif" font-size="10.00">destroy_buffer</text>
<text text-anchor="start" x="157.5" y="-1563.5" font-family="Helvetica,sans-Serif" font-size="10.00">+</text>
<text text-anchor="start" x="170.5" y="-1563.5" font-family="Helvetica,sans-Serif" font-size="10.00">execute_fenced</text>
<text text-anchor="start" x="157.5" y="-1548.5" font-family="Helvetica,sans-Serif" font-size="10.00">+</text>
<text text-anchor="start" x="170.5" y="-1548.5" font-family="Helvetica,sans-Serif" font-size="10.00">execute_immediate</text>
<text text-anchor="start" x="157.5" y="-1533.5" font-family="Helvetica,sans-Serif" font-size="10.00">+</text>
<text text-anchor="start" x="170.5" y="-1533.5" font-family="Helvetica,sans-Serif" font-size="10.00">flush_range</text>
<text text-anchor="start" x="157.5" y="-1518.5" font-family="Helvetica,sans-Serif" font-size="10.00">+</text>
<text text-anchor="start" x="170.5" y="-1518.5" font-family="Helvetica,sans-Serif" font-size="10.00">get_buffer_device_address</text>
<text text-anchor="start" x="157.5" y="-1503.5" font-family="Helvetica,sans-Serif" font-size="10.00">+</text>
<text text-anchor="start" x="170.5" y="-1503.5" font-family="Helvetica,sans-Serif" font-size="10.00">initialize_buffer</text>
<text text-anchor="start" x="157.5" y="-1488.5" font-family="Helvetica,sans-Serif" font-size="10.00">+</text>
<text text-anchor="start" x="170.5" y="-1488.5" font-family="Helvetica,sans-Serif" font-size="10.00">invalidate_range</text>
<text text-anchor="start" x="157.5" y="-1473.5" font-family="Helvetica,sans-Serif" font-size="10.00">+</text>
<text text-anchor="start" x="170.5" y="-1473.5" font-family="Helvetica,sans-Serif" font-size="10.00">map_buffer</text>
<text text-anchor="start" x="157.5" y="-1458.5" font-family="Helvetica,sans-Serif" font-size="10.00">+</text>
<text text-anchor="start" x="170.5" y="-1458.5" font-family="Helvetica,sans-Serif" font-size="10.00">record_deferred</text>
<text text-anchor="start" x="157.5" y="-1443.5" font-family="Helvetica,sans-Serif" font-size="10.00">+</text>
<text text-anchor="start" x="170.5" y="-1443.5" font-family="Helvetica,sans-Serif" font-size="10.00">release_fenced</text>
<text text-anchor="start" x="157.5" y="-1428.5" font-family="Helvetica,sans-Serif" font-size="10.00">+</text>
<text text-anchor="start" x="170.5" y="-1428.5" font-family="Helvetica,sans-Serif" font-size="10.00">unmap_buffer</text>
<text text-anchor="start" x="157.5" y="-1413.5" font-family="Helvetica,sans-Serif" font-size="10.00">+</text>
<text text-anchor="start" x="170.5" y="-1413.5" font-family="Helvetica,sans-Serif" font-size="10.00">wait_fenced</text>
<text text-anchor="start" x="227.5" y="-1398.5" font-family="Helvetica,sans-Serif" font-size="10.00"> </text>
<polygon fill="#666666" stroke="#666666" points="153.5,-1588.5 153.5,-1588.5 305.5,-1588.5 305.5,-1588.5 153.5,-1588.5"/>
<polygon fill="#666666" stroke="#666666" points="153.5,-1408.5 153.5,-1408.5 168.5,-1408.5 168.5,-1408.5 153.5,-1408.5"/>
<polygon fill="#666666" stroke="#666666" points="168.5,-1408.5 168.5,-1408.5 305.5,-1408.5 305.5,-1408.5 168.5,-1408.5"/>
<polygon fill="none" stroke="#666666" points="153.5,-1392 153.5,-1617 305.5,-1617 305.5,-1392 153.5,-1392"/>
</a>
</g>
</g>
<!-- Node5&#45;&gt;Node3 -->
<g id="edge4_Node000003_Node000005" class="edge">
<title>Node5&#45;&gt;Node3</title>
<g id="a_edge4_Node000003_Node000005"><a xlink:title=" ">
<path fill="none" stroke="#63b8ff" d="M229.5,-1391.68C229.5,-1371.45 229.5,-1351.04 229.5,-1332.91"/>
<polygon fill="none" stroke="#63b8ff" points="229.5,-1332.75 225.5,-1326.75 229.5,-1320.75 233.5,-1326.75 229.5,-1332.75"/>
</a>
</g>
<text text-anchor="middle" x="277.5" y="-1366" font-family="Helvetica,sans-Serif" font-size="10.00" fill="grey"> #m_buffer_service</text>
</g>
<!-- Node6 -->
<g id="Node000006" class="node">
<title>Node6</title>
<g id="a_Node000006"><a xlink:href="structMayaFlux_1_1Registry_1_1Service_1_1ComputeService.html" target="_top" xlink:title="Backend compute shader and pipeline service interface.">
<polygon fill="white" stroke="transparent" points="479,-1572 324,-1572 324,-1437 479,-1437 479,-1572"/>
<text text-anchor="start" x="337.5" y="-1559.5" font-family="Helvetica,sans-Serif" font-size="10.00">MayaFlux::Registry</text>
<text text-anchor="start" x="337.5" y="-1548.5" font-family="Helvetica,sans-Serif" font-size="10.00">::Service::ComputeService</text>
<text text-anchor="start" x="328.5" y="-1533.5" font-family="Helvetica,sans-Serif" font-size="10.00">+</text>
<text text-anchor="start" x="341.5" y="-1533.5" font-family="Helvetica,sans-Serif" font-size="10.00">cleanup_resource</text>
<text text-anchor="start" x="328.5" y="-1518.5" font-family="Helvetica,sans-Serif" font-size="10.00">+</text>
<text text-anchor="start" x="341.5" y="-1518.5" font-family="Helvetica,sans-Serif" font-size="10.00">create_compute_pipeline</text>
<text text-anchor="start" x="328.5" y="-1503.5" font-family="Helvetica,sans-Serif" font-size="10.00">+</text>
<text text-anchor="start" x="341.5" y="-1503.5" font-family="Helvetica,sans-Serif" font-size="10.00">create_descriptor_layout</text>
<text text-anchor="start" x="328.5" y="-1488.5" font-family="Helvetica,sans-Serif" font-size="10.00">+</text>
<text text-anchor="start" x="341.5" y="-1488.5" font-family="Helvetica,sans-Serif" font-size="10.00">create_descriptor_manager</text>
<text text-anchor="start" x="328.5" y="-1473.5" font-family="Helvetica,sans-Serif" font-size="10.00">+</text>
<text text-anchor="start" x="341.5" y="-1473.5" font-family="Helvetica,sans-Serif" font-size="10.00">create_shader_module</text>
<text text-anchor="start" x="328.5" y="-1458.5" font-family="Helvetica,sans-Serif" font-size="10.00">+</text>
<text text-anchor="start" x="341.5" y="-1458.5" font-family="Helvetica,sans-Serif" font-size="10.00">dispatch_compute</text>
<text text-anchor="start" x="400" y="-1443.5" font-family="Helvetica,sans-Serif" font-size="10.00"> </text>
<polygon fill="#666666" stroke="#666666" points="324.5,-1543.5 324.5,-1543.5 479.5,-1543.5 479.5,-1543.5 324.5,-1543.5"/>
<polygon fill="#666666" stroke="#666666" points="324.5,-1453.5 324.5,-1453.5 339.5,-1453.5 339.5,-1453.5 324.5,-1453.5"/>
<polygon fill="#666666" stroke="#666666" points="339.5,-1453.5 339.5,-1453.5 479.5,-1453.5 479.5,-1453.5 339.5,-1453.5"/>
<polygon fill="none" stroke="#666666" points="324,-1437 324,-1572 479,-1572 479,-1437 324,-1437"/>
</a>
</g>
</g>
<!-- Node6&#45;&gt;Node3 -->
<g id="edge5_Node000003_Node000006" class="edge">
<title>Node6&#45;&gt;Node3</title>
<g id="a_edge5_Node000003_Node000006"><a xlink:title=" ">
<path fill="none" stroke="#63b8ff" d="M373.23,-1436.65C361.44,-1412.34 346.51,-1385.36 329.5,-1363 327.7,-1360.64 311.89,-1345.93 293.34,-1328.95"/>
<polygon fill="none" stroke="#63b8ff" points="293.22,-1328.84 286.1,-1327.75 284.37,-1320.75 291.49,-1321.84 293.22,-1328.84"/>
</a>
</g>
<text text-anchor="middle" x="392.5" y="-1366" font-family="Helvetica,sans-Serif" font-size="10.00" fill="grey"> #m_compute_service</text>
</g>
<!-- Node7 -->
<g id="Node000007" class="node">
<title>Node7</title>
<g id="a_Node000007"><a xlink:href="structMayaFlux_1_1Buffers_1_1ShaderConfig.html" target="_top" xlink:title=" ">
<polygon fill="white" stroke="transparent" points="462.5,-1345 320.5,-1345 320.5,-1195 462.5,-1195 462.5,-1345"/>
<text text-anchor="start" x="344" y="-1333" font-family="Helvetica,sans-Serif" font-size="10.00">MayaFlux::Buffers::</text>
<text text-anchor="start" x="359" y="-1322" font-family="Helvetica,sans-Serif" font-size="10.00">ShaderConfig</text>
<text text-anchor="start" x="324.5" y="-1307" font-family="Helvetica,sans-Serif" font-size="10.00">+</text>
<text text-anchor="start" x="337.5" y="-1307" font-family="Helvetica,sans-Serif" font-size="10.00">bindings</text>
<text text-anchor="start" x="324.5" y="-1292" font-family="Helvetica,sans-Serif" font-size="10.00">+</text>
<text text-anchor="start" x="337.5" y="-1292" font-family="Helvetica,sans-Serif" font-size="10.00">entry_point</text>
<text text-anchor="start" x="324.5" y="-1277" font-family="Helvetica,sans-Serif" font-size="10.00">+</text>
<text text-anchor="start" x="337.5" y="-1277" font-family="Helvetica,sans-Serif" font-size="10.00">push_constant_size</text>
<text text-anchor="start" x="324.5" y="-1262" font-family="Helvetica,sans-Serif" font-size="10.00">+</text>
<text text-anchor="start" x="337.5" y="-1262" font-family="Helvetica,sans-Serif" font-size="10.00">shader_path</text>
<text text-anchor="start" x="324.5" y="-1247" font-family="Helvetica,sans-Serif" font-size="10.00">+</text>
<text text-anchor="start" x="337.5" y="-1247" font-family="Helvetica,sans-Serif" font-size="10.00">specialization_constants</text>
<text text-anchor="start" x="324.5" y="-1232" font-family="Helvetica,sans-Serif" font-size="10.00">+</text>
<text text-anchor="start" x="337.5" y="-1232" font-family="Helvetica,sans-Serif" font-size="10.00">stage</text>
<text text-anchor="start" x="324.5" y="-1217" font-family="Helvetica,sans-Serif" font-size="10.00">+</text>
<text text-anchor="start" x="337.5" y="-1217" font-family="Helvetica,sans-Serif" font-size="10.00">ShaderConfig()</text>
<text text-anchor="start" x="324.5" y="-1202" font-family="Helvetica,sans-Serif" font-size="10.00">+</text>
<text text-anchor="start" x="337.5" y="-1202" font-family="Helvetica,sans-Serif" font-size="10.00">ShaderConfig()</text>
<polygon fill="#666666" stroke="#666666" points="320.5,-1317 320.5,-1317 462.5,-1317 462.5,-1317 320.5,-1317"/>
<polygon fill="#666666" stroke="#666666" points="320.5,-1227 320.5,-1227 335.5,-1227 335.5,-1227 320.5,-1227"/>
<polygon fill="#666666" stroke="#666666" points="335.5,-1227 335.5,-1227 462.5,-1227 462.5,-1227 335.5,-1227"/>
<polygon fill="none" stroke="#666666" points="320.5,-1195 320.5,-1345 462.5,-1345 462.5,-1195 320.5,-1195"/>
</a>
</g>
</g>
<!-- Node7&#45;&gt;Node2 -->
<g id="edge6_Node000002_Node000007" class="edge">
<title>Node7&#45;&gt;Node2</title>
<g id="a_edge6_Node000002_Node000007"><a xlink:title=" ">
<path fill="none" stroke="#63b8ff" d="M377.67,-1194.8C375.66,-1184.06 373.5,-1172.47 371.23,-1160.27"/>
<polygon fill="none" stroke="#63b8ff" points="371.22,-1160.19 366.18,-1155.02 369.02,-1148.39 374.05,-1153.56 371.22,-1160.19"/>
</a>
</g>
<text text-anchor="middle" x="402.5" y="-1169" font-family="Helvetica,sans-Serif" font-size="10.00" fill="grey"> #m_config</text>
</g>
<!-- Node8 -->
<g id="Node000008" class="node">
<title>Node8</title>
<g id="a_Node000008"><a xlink:href="structMayaFlux_1_1Registry_1_1Service_1_1DisplayService.html" target="_top" xlink:title="Backend display and presentation service interface.">
<polygon fill="white" stroke="transparent" points="552,-975.5 403,-975.5 403,-691.5 552,-691.5 552,-975.5"/>
<text text-anchor="start" x="417.5" y="-963.5" font-family="Helvetica,sans-Serif" font-size="10.00">MayaFlux::Registry</text>
<text text-anchor="start" x="417.5" y="-952.5" font-family="Helvetica,sans-Serif" font-size="10.00">::Service::DisplayService</text>
<text text-anchor="start" x="407.5" y="-937.5" font-family="Helvetica,sans-Serif" font-size="10.00">+</text>
<text text-anchor="start" x="420.5" y="-937.5" font-family="Helvetica,sans-Serif" font-size="10.00">acquire_next_swapchain</text>
<text text-anchor="start" x="420.5" y="-926.5" font-family="Helvetica,sans-Serif" font-size="10.00">_image</text>
<text text-anchor="start" x="407.5" y="-911.5" font-family="Helvetica,sans-Serif" font-size="10.00">+</text>
<text text-anchor="start" x="420.5" y="-911.5" font-family="Helvetica,sans-Serif" font-size="10.00">ensure_depth_attachment</text>
<text text-anchor="start" x="407.5" y="-896.5" font-family="Helvetica,sans-Serif" font-size="10.00">+</text>
<text text-anchor="start" x="420.5" y="-896.5" font-family="Helvetica,sans-Serif" font-size="10.00">get_current_image_view</text>
<text text-anchor="start" x="407.5" y="-881.5" font-family="Helvetica,sans-Serif" font-size="10.00">+</text>
<text text-anchor="start" x="420.5" y="-881.5" font-family="Helvetica,sans-Serif" font-size="10.00">get_current_swapchain</text>
<text text-anchor="start" x="420.5" y="-870.5" font-family="Helvetica,sans-Serif" font-size="10.00">_image</text>
<text text-anchor="start" x="407.5" y="-855.5" font-family="Helvetica,sans-Serif" font-size="10.00">+</text>
<text text-anchor="start" x="420.5" y="-855.5" font-family="Helvetica,sans-Serif" font-size="10.00">get_depth_format</text>
<text text-anchor="start" x="407.5" y="-840.5" font-family="Helvetica,sans-Serif" font-size="10.00">+</text>
<text text-anchor="start" x="420.5" y="-840.5" font-family="Helvetica,sans-Serif" font-size="10.00">get_depth_image_view</text>
<text text-anchor="start" x="407.5" y="-825.5" font-family="Helvetica,sans-Serif" font-size="10.00">+</text>
<text text-anchor="start" x="420.5" y="-825.5" font-family="Helvetica,sans-Serif" font-size="10.00">get_swapchain_extent</text>
<text text-anchor="start" x="407.5" y="-810.5" font-family="Helvetica,sans-Serif" font-size="10.00">+</text>
<text text-anchor="start" x="420.5" y="-810.5" font-family="Helvetica,sans-Serif" font-size="10.00">get_swapchain_format</text>
<text text-anchor="start" x="407.5" y="-795.5" font-family="Helvetica,sans-Serif" font-size="10.00">+</text>
<text text-anchor="start" x="420.5" y="-795.5" font-family="Helvetica,sans-Serif" font-size="10.00">get_swapchain_image</text>
<text text-anchor="start" x="420.5" y="-784.5" font-family="Helvetica,sans-Serif" font-size="10.00">_count</text>
<text text-anchor="start" x="407.5" y="-769.5" font-family="Helvetica,sans-Serif" font-size="10.00">+</text>
<text text-anchor="start" x="420.5" y="-769.5" font-family="Helvetica,sans-Serif" font-size="10.00">readback_swapchain</text>
<text text-anchor="start" x="420.5" y="-758.5" font-family="Helvetica,sans-Serif" font-size="10.00">_region</text>
<text text-anchor="start" x="407.5" y="-743.5" font-family="Helvetica,sans-Serif" font-size="10.00">+</text>
<text text-anchor="start" x="420.5" y="-743.5" font-family="Helvetica,sans-Serif" font-size="10.00">resize_surface</text>
<text text-anchor="start" x="407.5" y="-728.5" font-family="Helvetica,sans-Serif" font-size="10.00">+</text>
<text text-anchor="start" x="420.5" y="-728.5" font-family="Helvetica,sans-Serif" font-size="10.00">submit_and_present</text>
<text text-anchor="start" x="407.5" y="-713.5" font-family="Helvetica,sans-Serif" font-size="10.00">+</text>
<text text-anchor="start" x="420.5" y="-713.5" font-family="Helvetica,sans-Serif" font-size="10.00">wait_idle</text>
<text text-anchor="start" x="476" y="-698.5" font-family="Helvetica,sans-Serif" font-size="10.00"> </text>
<polygon fill="#666666" stroke="#666666" points="403.5,-947.5 403.5,-947.5 552.5,-947.5 552.5,-947.5 403.5,-947.5"/>
<polygon fill="#666666" stroke="#666666" points="403.5,-708.5 403.5,-708.5 418.5,-708.5 418.5,-708.5 403.5,-708.5"/>
<polygon fill="#666666" stroke="#666666" points="418.5,-708.5 418.5,-708.5 552.5,-708.5 552.5,-708.5 418.5,-708.5"/>
<polygon fill="none" stroke="#666666" points="403,-691.5 403,-975.5 552,-975.5 552,-691.5 403,-691.5"/>
</a>
</g>
</g>
<!-- Node8&#45;&gt;Node1 -->
<g id="edge7_Node000001_Node000008" class="edge">
<title>Node8&#45;&gt;Node1</title>
<g id="a_edge7_Node000001_Node000008"><a xlink:title=" ">
<path fill="none" stroke="#63b8ff" d="M477.5,-691.37C477.5,-629.52 477.5,-555.06 477.5,-484.47"/>
<polygon fill="none" stroke="#63b8ff" points="477.5,-484.27 473.5,-478.27 477.5,-472.27 481.5,-478.27 477.5,-484.27"/>
</a>
</g>
<text text-anchor="middle" x="526.5" y="-493" font-family="Helvetica,sans-Serif" font-size="10.00" fill="grey"> &#45;m_display_service</text>
</g>
<!-- Node9 -->
<g id="Node000009" class="node">
<title>Node9</title>
<g id="a_Node000009"><a xlink:href="structMayaFlux_1_1Portal_1_1Graphics_1_1DepthStencilConfig.html" target="_top" xlink:title="Depth and stencil test configuration.">
<polygon fill="white" stroke="transparent" points="712.5,-886 570.5,-886 570.5,-781 712.5,-781 712.5,-886"/>
<text text-anchor="start" x="575.5" y="-873.5" font-family="Helvetica,sans-Serif" font-size="10.00">MayaFlux::Portal::Graphics</text>
<text text-anchor="start" x="591.5" y="-862.5" font-family="Helvetica,sans-Serif" font-size="10.00">::DepthStencilConfig</text>
<text text-anchor="start" x="579.5" y="-847.5" font-family="Helvetica,sans-Serif" font-size="10.00">+</text>
<text text-anchor="start" x="597.5" y="-847.5" font-family="Helvetica,sans-Serif" font-size="10.00">depth_compare_op</text>
<text text-anchor="start" x="579.5" y="-832.5" font-family="Helvetica,sans-Serif" font-size="10.00">+</text>
<text text-anchor="start" x="597.5" y="-832.5" font-family="Helvetica,sans-Serif" font-size="10.00">depth_test_enable</text>
<text text-anchor="start" x="579.5" y="-817.5" font-family="Helvetica,sans-Serif" font-size="10.00">+</text>
<text text-anchor="start" x="597.5" y="-817.5" font-family="Helvetica,sans-Serif" font-size="10.00">depth_write_enable</text>
<text text-anchor="start" x="579.5" y="-802.5" font-family="Helvetica,sans-Serif" font-size="10.00">+</text>
<text text-anchor="start" x="597.5" y="-802.5" font-family="Helvetica,sans-Serif" font-size="10.00">stencil_test_enable</text>
<text text-anchor="start" x="579.5" y="-787.5" font-family="Helvetica,sans-Serif" font-size="10.00">+</text>
<text text-anchor="start" x="597.5" y="-787.5" font-family="Helvetica,sans-Serif" font-size="10.00">DepthStencilConfig()</text>
<polygon fill="#666666" stroke="#666666" points="570.5,-857.5 570.5,-857.5 712.5,-857.5 712.5,-857.5 570.5,-857.5"/>
<polygon fill="#666666" stroke="#666666" points="570.5,-797.5 570.5,-797.5 595.5,-797.5 595.5,-797.5 570.5,-797.5"/>
<polygon fill="#666666" stroke="#666666" points="595.5,-797.5 595.5,-797.5 712.5,-797.5 712.5,-797.5 595.5,-797.5"/>
<polygon fill="none" stroke="#666666" points="570.5,-781 570.5,-886 712.5,-886 712.5,-781 570.5,-781"/>
</a>
</g>
</g>
<!-- Node9&#45;&gt;Node1 -->
<g id="edge8_Node000001_Node000009" class="edge">
<title>Node9&#45;&gt;Node1</title>
<g id="a_edge8_Node000001_Node000009"><a xlink:title=" ">
<path fill="none" stroke="#63b8ff" d="M635.51,-780.97C626.88,-713.29 608.72,-591.16 579.5,-490 571.97,-463.92 562.7,-436.84 552.84,-410.51"/>
<polygon fill="none" stroke="#63b8ff" points="552.84,-410.5 546.97,-406.31 548.59,-399.28 554.45,-403.47 552.84,-410.5"/>
</a>
</g>
<text text-anchor="middle" x="625.5" y="-493" font-family="Helvetica,sans-Serif" font-size="10.00" fill="grey"> &#45;m_depth_stencil</text>
</g>
</g>
</svg>
