<?xml version="1.0" encoding="UTF-8" standalone="no"?>
<!DOCTYPE svg PUBLIC "-//W3C//DTD SVG 1.1//EN"
 "http://www.w3.org/Graphics/SVG/1.1/DTD/svg11.dtd">
<!-- Generated by graphviz version 2.43.0 (0)
 -->
<!-- Title: MayaFlux::Buffers::VKBuffer::get_size_bytes Pages: 1 -->
<svg width="369pt" height="334pt"
 viewBox="0.00 0.00 369.00 334.00" xmlns="http://www.w3.org/2000/svg" xmlns:xlink="http://www.w3.org/1999/xlink">
<g id="graph0" class="graph" transform="scale(1 1) rotate(0) translate(4 330)">
<title>MayaFlux::Buffers::VKBuffer::get_size_bytes</title>
<!-- Node1 -->
<g id="Node000001" class="node">
<title>Node1</title>
<g id="a_Node000001"><a xlink:title=" ">
<polygon fill="#999999" stroke="#666666" points="361,-182.5 223,-182.5 223,-152.5 361,-152.5 361,-182.5"/>
<text text-anchor="start" x="231" y="-170.5" font-family="Helvetica,sans-Serif" font-size="10.00">MayaFlux::Buffers::</text>
<text text-anchor="middle" x="292" y="-159.5" font-family="Helvetica,sans-Serif" font-size="10.00">VKBuffer::get_size_bytes</text>
</a>
</g>
</g>
<!-- Node2 -->
<g id="Node000002" class="node">
<title>Node2</title>
<g id="a_Node000002"><a xlink:href="classMayaFlux_1_1Buffers_1_1CompositeGeometryBuffer_a471dab929e26742d15e8303d0c08feed.html#a471dab929e26742d15e8303d0c08feed" target="_top" xlink:title="Create empty composite buffer.">
<polygon fill="white" stroke="#666666" points="170,-326 17,-326 17,-285 170,-285 170,-326"/>
<text text-anchor="start" x="25" y="-314" font-family="Helvetica,sans-Serif" font-size="10.00">MayaFlux::Buffers::</text>
<text text-anchor="start" x="25" y="-303" font-family="Helvetica,sans-Serif" font-size="10.00">CompositeGeometryBuffer</text>
<text text-anchor="middle" x="93.5" y="-292" font-family="Helvetica,sans-Serif" font-size="10.00">::CompositeGeometryBuffer</text>
</a>
</g>
</g>
<!-- Node1&#45;&gt;Node2 -->
<g id="edge1_Node000001_Node000002" class="edge">
<title>Node1&#45;&gt;Node2</title>
<g id="a_edge1_Node000001_Node000002"><a xlink:title=" ">
<path fill="none" stroke="#63b8ff" d="M274.28,-190.68C255.58,-215.05 223.13,-252.9 187,-275.5 181.42,-278.99 175.39,-282.12 169.18,-284.9"/>
<polygon fill="#63b8ff" stroke="#63b8ff" points="277.09,-192.77 280.3,-182.68 271.5,-188.56 277.09,-192.77"/>
</a>
</g>
</g>
<!-- Node3 -->
<g id="Node000003" class="node">
<title>Node3</title>
<g id="a_Node000003"><a xlink:href="classMayaFlux_1_1Buffers_1_1GeometryBuffer_ab3fafe8be8ff00aa36fc134600d06346.html#ab3fafe8be8ff00aa36fc134600d06346" target="_top" xlink:title="Create geometry buffer from generative node.">
<polygon fill="white" stroke="#666666" points="183,-266.5 4,-266.5 4,-236.5 183,-236.5 183,-266.5"/>
<text text-anchor="start" x="12" y="-254.5" font-family="Helvetica,sans-Serif" font-size="10.00">MayaFlux::Buffers::</text>
<text text-anchor="middle" x="93.5" y="-243.5" font-family="Helvetica,sans-Serif" font-size="10.00">GeometryBuffer::GeometryBuffer</text>
</a>
</g>
</g>
<!-- Node1&#45;&gt;Node3 -->
<g id="edge2_Node000001_Node000003" class="edge">
<title>Node1&#45;&gt;Node3</title>
<g id="a_edge2_Node000001_Node000003"><a xlink:title=" ">
<path fill="none" stroke="#63b8ff" d="M260.33,-188.14C240.19,-200.94 212.88,-216.91 187,-227.5 178.86,-230.83 170.13,-233.81 161.4,-236.44"/>
<polygon fill="#63b8ff" stroke="#63b8ff" points="262.27,-191.06 268.77,-182.69 258.47,-185.17 262.27,-191.06"/>
</a>
</g>
</g>
<!-- Node4 -->
<g id="Node000004" class="node">
<title>Node4</title>
<g id="a_Node000004"><a xlink:href="classMayaFlux_1_1Buffers_1_1MeshNetworkBuffer_a6db6ab3ff001105ca916393d90854ca6.html#a6db6ab3ff001105ca916393d90854ca6" target="_top" xlink:title="Construct from an existing MeshNetwork.">
<polygon fill="white" stroke="#666666" points="187,-218 0,-218 0,-177 187,-177 187,-218"/>
<text text-anchor="start" x="8" y="-206" font-family="Helvetica,sans-Serif" font-size="10.00">MayaFlux::Buffers::</text>
<text text-anchor="start" x="8" y="-195" font-family="Helvetica,sans-Serif" font-size="10.00">MeshNetworkBuffer::MeshNetwork</text>
<text text-anchor="middle" x="93.5" y="-184" font-family="Helvetica,sans-Serif" font-size="10.00">Buffer</text>
</a>
</g>
</g>
<!-- Node1&#45;&gt;Node4 -->
<g id="edge3_Node000001_Node000004" class="edge">
<title>Node1&#45;&gt;Node4</title>
<g id="a_edge3_Node000001_Node000004"><a xlink:title=" ">
<path fill="none" stroke="#63b8ff" d="M212.69,-179.46C204.29,-180.74 195.68,-182.05 187.13,-183.36"/>
<polygon fill="#63b8ff" stroke="#63b8ff" points="213.47,-182.88 222.83,-177.91 212.41,-175.96 213.47,-182.88"/>
</a>
</g>
</g>
<!-- Node5 -->
<g id="Node000005" class="node">
<title>Node5</title>
<g id="a_Node000005"><a xlink:href="classMayaFlux_1_1Buffers_1_1NetworkGeometryBuffer_a09a747b9b0a8d796ca0bb2ae91181221.html#a09a747b9b0a8d796ca0bb2ae91181221" target="_top" xlink:title="Create geometry buffer from network.">
<polygon fill="white" stroke="#666666" points="164.5,-159 22.5,-159 22.5,-118 164.5,-118 164.5,-159"/>
<text text-anchor="start" x="30.5" y="-147" font-family="Helvetica,sans-Serif" font-size="10.00">MayaFlux::Buffers::</text>
<text text-anchor="start" x="30.5" y="-136" font-family="Helvetica,sans-Serif" font-size="10.00">NetworkGeometryBuffer</text>
<text text-anchor="middle" x="93.5" y="-125" font-family="Helvetica,sans-Serif" font-size="10.00">::NetworkGeometryBuffer</text>
</a>
</g>
</g>
<!-- Node1&#45;&gt;Node5 -->
<g id="edge4_Node000001_Node000005" class="edge">
<title>Node1&#45;&gt;Node5</title>
<g id="a_edge4_Node000001_Node000005"><a xlink:title=" ">
<path fill="none" stroke="#63b8ff" d="M212.53,-155.92C196.67,-153.58 180.1,-151.13 164.55,-148.84"/>
<polygon fill="#63b8ff" stroke="#63b8ff" points="212.42,-159.44 222.83,-157.44 213.44,-152.52 212.42,-159.44"/>
</a>
</g>
</g>
<!-- Node6 -->
<g id="Node000006" class="node">
<title>Node6</title>
<g id="a_Node000006"><a xlink:href="classMayaFlux_1_1Buffers_1_1NodeTextureBuffer_a00e6d4055c95164561929c303ba49f8c.html#a00e6d4055c95164561929c303ba49f8c" target="_top" xlink:title="Create texture staging buffer from generative node.">
<polygon fill="white" stroke="#666666" points="181,-100 6,-100 6,-59 181,-59 181,-100"/>
<text text-anchor="start" x="14" y="-88" font-family="Helvetica,sans-Serif" font-size="10.00">MayaFlux::Buffers::</text>
<text text-anchor="start" x="14" y="-77" font-family="Helvetica,sans-Serif" font-size="10.00">NodeTextureBuffer::NodeTexture</text>
<text text-anchor="middle" x="93.5" y="-66" font-family="Helvetica,sans-Serif" font-size="10.00">Buffer</text>
</a>
</g>
</g>
<!-- Node1&#45;&gt;Node6 -->
<g id="edge5_Node000001_Node000006" class="edge">
<title>Node1&#45;&gt;Node6</title>
<g id="a_edge5_Node000001_Node000006"><a xlink:title=" ">
<path fill="none" stroke="#63b8ff" d="M258.16,-147.01C238.1,-135.05 211.65,-120.25 187,-109.5 179.42,-106.19 171.35,-103.05 163.26,-100.14"/>
<polygon fill="#63b8ff" stroke="#63b8ff" points="256.52,-150.11 266.89,-152.28 260.14,-144.12 256.52,-150.11"/>
</a>
</g>
</g>
<!-- Node7 -->
<g id="Node000007" class="node">
<title>Node7</title>
<g id="a_Node000007"><a xlink:href="classMayaFlux_1_1Buffers_1_1NodeTextureBuffer_ac67634c77e2bdb1c6e7c6f5bceb492c1.html#ac67634c77e2bdb1c6e7c6f5bceb492c1" target="_top" xlink:title="Initialize the buffer, create GPU texture, and setup processors.">
<polygon fill="white" stroke="#666666" points="163.5,-41 23.5,-41 23.5,0 163.5,0 163.5,-41"/>
<text text-anchor="start" x="31.5" y="-29" font-family="Helvetica,sans-Serif" font-size="10.00">MayaFlux::Buffers::</text>
<text text-anchor="start" x="31.5" y="-18" font-family="Helvetica,sans-Serif" font-size="10.00">NodeTextureBuffer::setup</text>
<text text-anchor="middle" x="93.5" y="-7" font-family="Helvetica,sans-Serif" font-size="10.00">_processors</text>
</a>
</g>
</g>
<!-- Node1&#45;&gt;Node7 -->
<g id="edge6_Node000001_Node000007" class="edge">
<title>Node1&#45;&gt;Node7</title>
<g id="a_edge6_Node000001_Node000007"><a xlink:title=" ">
<path fill="none" stroke="#63b8ff" d="M275.6,-143.62C257.43,-117.24 224.85,-75.24 187,-50.5 179.79,-45.79 171.79,-41.77 163.58,-38.34"/>
<polygon fill="#63b8ff" stroke="#63b8ff" points="272.92,-145.91 281.42,-152.24 278.73,-141.99 272.92,-145.91"/>
</a>
</g>
</g>
</g>
</svg>
