<?xml version="1.0" encoding="UTF-8" standalone="no"?>
<!DOCTYPE svg PUBLIC "-//W3C//DTD SVG 1.1//EN"
 "http://www.w3.org/Graphics/SVG/1.1/DTD/svg11.dtd">
<!-- Generated by graphviz version 2.43.0 (0)
 -->
<!-- Title: ComputeMatrix.hpp Pages: 1 -->
<!--zoomable 775 -->

<svg id="main" version="1.1" xmlns="http://www.w3.org/2000/svg" xmlns:xlink="http://www.w3.org/1999/xlink" xml:space="preserve" onload="init(evt)">
<style type="text/css"><![CDATA[
.node, .edge {opacity: 0.7;}
.node.selected, .edge.selected {opacity: 1;}
.edge:hover path { stroke: red; }
.edge:hover polygon { stroke: red; fill: red; }
]]></style>

<defs>
  <circle id="rim" cx="0" cy="0" r="7"/>
  <circle id="rim2" cx="0" cy="0" r="3.5"/>
  <g id="zoomPlus">
    <use xlink:href="#rim" fill="#404040"><set attributeName="fill" to="#808080" begin="zoomplus.mouseover" end="zoomplus.mouseout"/></use>
    <path d="M-4,0h8M0,-4v8" fill="none" stroke="white" stroke-width="1.5" pointer-events="none"/>
  </g>
  <g id="zoomMin">
    <use xlink:href="#rim" fill="#404040"><set attributeName="fill" to="#808080" begin="zoomminus.mouseover" end="zoomminus.mouseout"/></use>
    <path d="M-4,0h8" fill="none" stroke="white" stroke-width="1.5" pointer-events="none"/>
  </g>
  <g id="arrowUp" transform="translate(30 24)">
    <use xlink:href="#rim"/>
    <path pointer-events="none" fill="none" stroke="white" stroke-width="1.5" d="M0,-3.0v7 M-2.5,-0.5L0,-3.0L2.5,-0.5"/>
  </g>
  <g id="arrowRight" transform="rotate(90) translate(36 -43)">
    <use xlink:href="#rim"/>
    <path pointer-events="none" fill="none" stroke="white" stroke-width="1.5" d="M0,-3.0v7 M-2.5,-0.5L0,-3.0L2.5,-0.5"/>
  </g>
  <g id="arrowDown" transform="rotate(180) translate(-30 -48)">
    <use xlink:href="#rim"/>
    <path pointer-events="none" fill="none" stroke="white" stroke-width="1.5" d="M0,-3.0v7 M-2.5,-0.5L0,-3.0L2.5,-0.5"/>
  </g>
  <g id="arrowLeft" transform="rotate(270) translate(-36 17)">
    <use xlink:href="#rim"/>
    <path pointer-events="none" fill="none" stroke="white" stroke-width="1.5" d="M0,-3.0v7 M-2.5,-0.5L0,-3.0L2.5,-0.5"/>
  </g>
  <g id="resetDef">
    <use xlink:href="#rim2" fill="#404040"><set attributeName="fill" to="#808080" begin="reset.mouseover" end="reset.mouseout"/></use>
  </g>
</defs>
<script type="application/ecmascript">
var viewWidth = 1212;
var viewHeight = 775;
var sectionId = 'dynsection-0';
</script>
<script type="application/ecmascript" xlink:href="svg.min.js"/>
<svg id="graph" class="graph">
<g id="viewport">
<title>ComputeMatrix.hpp</title>
<!-- Node1 -->
<g id="Node000001" class="node">
<title>Node1</title>
<g id="a_Node000001"><a xlink:title=" ">
<polygon fill="#999999" stroke="#666666" points="799.17,-767 686.17,-767 686.17,-748 799.17,-748 799.17,-767"/>
<text text-anchor="middle" x="742.67" y="-755" font-family="Helvetica,sans-Serif" font-size="10.00">ComputeMatrix.hpp</text>
</a>
</g>
</g>
<!-- Node2 -->
<g id="Node000002" class="node">
<title>Node2</title>
<g id="a_Node000002"><a xlink:href="ComputeOperation_8hpp.html" target="_top" xlink:title=" ">
<polygon fill="white" stroke="#666666" points="761.67,-706.5 631.67,-706.5 631.67,-687.5 761.67,-687.5 761.67,-706.5"/>
<text text-anchor="middle" x="696.67" y="-694.5" font-family="Helvetica,sans-Serif" font-size="10.00">ComputeOperation.hpp</text>
</a>
</g>
</g>
<!-- Node1&#45;&gt;Node2 -->
<g id="edge1_Node000001_Node000002" class="edge">
<title>Node1&#45;&gt;Node2</title>
<g id="a_edge1_Node000001_Node000002"><a xlink:title=" ">
<path fill="none" stroke="#63b8ff" d="M735.88,-747.87C729.02,-739.14 718.24,-725.43 709.71,-714.59"/>
<polygon fill="#63b8ff" stroke="#63b8ff" points="712.42,-712.36 703.48,-706.67 706.91,-716.69 712.42,-712.36"/>
</a>
</g>
</g>
<!-- Node39 -->
<g id="Node000039" class="node">
<title>Node39</title>
<g id="a_Node000039"><a xlink:href="OperationChain_8hpp.html" target="_top" xlink:title=" ">
<polygon fill="white" stroke="#666666" points="500.67,-591 312.67,-591 312.67,-572 500.67,-572 500.67,-591"/>
<text text-anchor="middle" x="406.67" y="-579" font-family="Helvetica,sans-Serif" font-size="10.00">OperationSpec/OperationChain.hpp</text>
</a>
</g>
</g>
<!-- Node1&#45;&gt;Node39 -->
<g id="edge49_Node000001_Node000039" class="edge">
<title>Node1&#45;&gt;Node39</title>
<g id="a_edge49_Node000001_Node000039"><a xlink:title=" ">
<path fill="none" stroke="#63b8ff" d="M710.86,-747.91C658.41,-732.81 551.81,-698.07 473.67,-646 453.57,-632.61 433.91,-612.97 421.14,-599.09"/>
<polygon fill="#63b8ff" stroke="#63b8ff" points="423.43,-596.4 414.14,-591.3 418.22,-601.07 423.43,-596.4"/>
</a>
</g>
</g>
<!-- Node40 -->
<g id="Node000040" class="node">
<title>Node40</title>
<g id="a_Node000040"><a xlink:href="OperationPool_8hpp.html" target="_top" xlink:title=" ">
<polygon fill="white" stroke="#666666" points="1127.17,-530.5 946.17,-530.5 946.17,-511.5 1127.17,-511.5 1127.17,-530.5"/>
<text text-anchor="middle" x="1036.67" y="-518.5" font-family="Helvetica,sans-Serif" font-size="10.00">OperationSpec/OperationPool.hpp</text>
</a>
</g>
</g>
<!-- Node1&#45;&gt;Node40 -->
<g id="edge51_Node000001_Node000040" class="edge">
<title>Node1&#45;&gt;Node40</title>
<g id="a_edge51_Node000001_Node000040"><a xlink:title=" ">
<path fill="none" stroke="#63b8ff" d="M748.59,-747.69C766.14,-721.77 818.06,-646.33 840.67,-627 891.35,-583.66 962.89,-551 1004.05,-534.34"/>
<polygon fill="#63b8ff" stroke="#63b8ff" points="1005.59,-537.5 1013.58,-530.55 1003,-530.99 1005.59,-537.5"/>
</a>
</g>
</g>
<!-- Node41 -->
<g id="Node000041" class="node">
<title>Node41</title>
<g id="a_Node000041"><a xlink:href="Execution_8hpp.html" target="_top" xlink:title=" ">
<polygon fill="white" stroke="#666666" points="945.17,-712 818.17,-712 818.17,-682 945.17,-682 945.17,-712"/>
<text text-anchor="start" x="826.17" y="-700" font-family="Helvetica,sans-Serif" font-size="10.00">MayaFlux/Transitive</text>
<text text-anchor="middle" x="881.67" y="-689" font-family="Helvetica,sans-Serif" font-size="10.00">/Parallel/Execution.hpp</text>
</a>
</g>
</g>
<!-- Node1&#45;&gt;Node41 -->
<g id="edge53_Node000001_Node000041" class="edge">
<title>Node1&#45;&gt;Node41</title>
<g id="a_edge53_Node000001_Node000041"><a xlink:title=" ">
<path fill="none" stroke="#63b8ff" d="M762.88,-747.99C782.71,-739.65 813.57,-726.66 838.86,-716.02"/>
<polygon fill="#63b8ff" stroke="#63b8ff" points="840.39,-719.17 848.25,-712.06 837.67,-712.72 840.39,-719.17"/>
</a>
</g>
</g>
<!-- Node3 -->
<g id="Node000003" class="node">
<title>Node3</title>
<g id="a_Node000003"><a xlink:href="GpuExecutionContext_8hpp.html" target="_top" xlink:title=" ">
<polygon fill="white" stroke="#666666" points="676.17,-646 483.17,-646 483.17,-627 676.17,-627 676.17,-646"/>
<text text-anchor="middle" x="579.67" y="-634" font-family="Helvetica,sans-Serif" font-size="10.00">Executors/GpuExecutionContext.hpp</text>
</a>
</g>
</g>
<!-- Node2&#45;&gt;Node3 -->
<g id="edge2_Node000002_Node000003" class="edge">
<title>Node2&#45;&gt;Node3</title>
<g id="a_edge2_Node000002_Node000003"><a xlink:title=" ">
<path fill="none" stroke="#63b8ff" d="M679.65,-687.49C660.24,-677.79 628.28,-661.81 605.73,-650.53"/>
<polygon fill="#63b8ff" stroke="#63b8ff" points="607.21,-647.36 596.7,-646.02 604.08,-653.62 607.21,-647.36"/>
</a>
</g>
</g>
<!-- Node38 -->
<g id="Node000038" class="node">
<title>Node38</title>
<g id="a_Node000038"><a xlink:title=" ">
<polygon fill="#e0e0e0" stroke="#999999" points="740.67,-646 694.67,-646 694.67,-627 740.67,-627 740.67,-646"/>
<text text-anchor="middle" x="717.67" y="-634" font-family="Helvetica,sans-Serif" font-size="10.00">future</text>
</a>
</g>
</g>
<!-- Node2&#45;&gt;Node38 -->
<g id="edge48_Node000002_Node000038" class="edge">
<title>Node2&#45;&gt;Node38</title>
<g id="a_edge48_Node000002_Node000038"><a xlink:title=" ">
<path fill="none" stroke="#63b8ff" d="M699.77,-687.37C702.74,-679.07 707.34,-666.28 711.13,-655.72"/>
<polygon fill="#63b8ff" stroke="#63b8ff" points="714.47,-656.76 714.56,-646.17 707.88,-654.4 714.47,-656.76"/>
</a>
</g>
</g>
<!-- Node4 -->
<g id="Node000004" class="node">
<title>Node4</title>
<g id="a_Node000004"><a xlink:href="GpuDispatchCore_8hpp.html" target="_top" xlink:title=" ">
<polygon fill="white" stroke="#666666" points="640.67,-591 518.67,-591 518.67,-572 640.67,-572 640.67,-591"/>
<text text-anchor="middle" x="579.67" y="-579" font-family="Helvetica,sans-Serif" font-size="10.00">GpuDispatchCore.hpp</text>
</a>
</g>
</g>
<!-- Node3&#45;&gt;Node4 -->
<g id="edge3_Node000003_Node000004" class="edge">
<title>Node3&#45;&gt;Node4</title>
<g id="a_edge3_Node000003_Node000004"><a xlink:title=" ">
<path fill="none" stroke="#63b8ff" d="M579.67,-626.75C579.67,-619.8 579.67,-609.85 579.67,-601.13"/>
<polygon fill="#63b8ff" stroke="#63b8ff" points="583.17,-601.09 579.67,-591.09 576.17,-601.09 583.17,-601.09"/>
</a>
</g>
</g>
<!-- Node5 -->
<g id="Node000005" class="node">
<title>Node5</title>
<g id="a_Node000005"><a xlink:href="ShaderSpecBinding_8hpp.html" target="_top" xlink:title=" ">
<polygon fill="white" stroke="#666666" points="248.17,-464.5 117.17,-464.5 117.17,-445.5 248.17,-445.5 248.17,-464.5"/>
<text text-anchor="middle" x="182.67" y="-452.5" font-family="Helvetica,sans-Serif" font-size="10.00">ShaderSpecBinding.hpp</text>
</a>
</g>
</g>
<!-- Node4&#45;&gt;Node5 -->
<g id="edge4_Node000004_Node000005" class="edge">
<title>Node4&#45;&gt;Node5</title>
<g id="a_edge4_Node000004_Node000005"><a xlink:title=" ">
<path fill="none" stroke="#63b8ff" d="M552.38,-571.94C482.89,-550.15 299.14,-492.53 219.9,-467.68"/>
<polygon fill="#63b8ff" stroke="#63b8ff" points="220.47,-464.19 209.88,-464.53 218.38,-470.87 220.47,-464.19"/>
</a>
</g>
</g>
<!-- Node17 -->
<g id="Node000017" class="node">
<title>Node17</title>
<g id="a_Node000017"><a xlink:href="ExecutionContext_8hpp.html" target="_top" xlink:title=" ">
<polygon fill="white" stroke="#666666" points="886.17,-404 737.17,-404 737.17,-374 886.17,-374 886.17,-404"/>
<text text-anchor="start" x="745.17" y="-392" font-family="Helvetica,sans-Serif" font-size="10.00">MayaFlux/Yantra/Operation</text>
<text text-anchor="middle" x="811.67" y="-381" font-family="Helvetica,sans-Serif" font-size="10.00">Spec/ExecutionContext.hpp</text>
</a>
</g>
</g>
<!-- Node4&#45;&gt;Node17 -->
<g id="edge19_Node000004_Node000017" class="edge">
<title>Node4&#45;&gt;Node17</title>
<g id="a_edge19_Node000004_Node000017"><a xlink:title=" ">
<path fill="none" stroke="#63b8ff" d="M594.62,-571.98C609.13,-563.49 631.55,-549.77 649.67,-536 703.07,-495.41 760.15,-441.08 790.24,-411.46"/>
<polygon fill="#63b8ff" stroke="#63b8ff" points="792.99,-413.66 797.63,-404.14 788.06,-408.69 792.99,-413.66"/>
</a>
</g>
</g>
<!-- Node25 -->
<g id="Node000025" class="node">
<title>Node25</title>
<g id="a_Node000025"><a xlink:href="OperationHelper_8hpp.html" target="_top" xlink:title=" ">
<polygon fill="white" stroke="#666666" points="641.17,-536 492.17,-536 492.17,-506 641.17,-506 641.17,-536"/>
<text text-anchor="start" x="500.17" y="-524" font-family="Helvetica,sans-Serif" font-size="10.00">MayaFlux/Yantra/Operation</text>
<text text-anchor="middle" x="566.67" y="-513" font-family="Helvetica,sans-Serif" font-size="10.00">Spec/OperationHelper.hpp</text>
</a>
</g>
</g>
<!-- Node4&#45;&gt;Node25 -->
<g id="edge28_Node000004_Node000025" class="edge">
<title>Node4&#45;&gt;Node25</title>
<g id="a_edge28_Node000004_Node000025"><a xlink:title=" ">
<path fill="none" stroke="#63b8ff" d="M577.75,-571.87C576.23,-565.03 574.03,-555.14 571.99,-545.97"/>
<polygon fill="#63b8ff" stroke="#63b8ff" points="575.39,-545.12 569.8,-536.11 568.56,-546.64 575.39,-545.12"/>
</a>
</g>
</g>
<!-- Node6 -->
<g id="Node000006" class="node">
<title>Node6</title>
<g id="a_Node000006"><a xlink:href="GpuResourceManager_8hpp.html" target="_top" xlink:title=" ">
<polygon fill="white" stroke="#666666" points="304.67,-398.5 160.67,-398.5 160.67,-379.5 304.67,-379.5 304.67,-398.5"/>
<text text-anchor="middle" x="232.67" y="-386.5" font-family="Helvetica,sans-Serif" font-size="10.00">GpuResourceManager.hpp</text>
</a>
</g>
</g>
<!-- Node5&#45;&gt;Node6 -->
<g id="edge5_Node000005_Node000006" class="edge">
<title>Node5&#45;&gt;Node6</title>
<g id="a_edge5_Node000005_Node000006"><a xlink:title=" ">
<path fill="none" stroke="#63b8ff" d="M189.41,-445.37C197.05,-435.59 209.68,-419.42 219.33,-407.08"/>
<polygon fill="#63b8ff" stroke="#63b8ff" points="222.31,-408.94 225.71,-398.91 216.8,-404.63 222.31,-408.94"/>
</a>
</g>
</g>
<!-- Node8 -->
<g id="Node000008" class="node">
<title>Node8</title>
<g id="a_Node000008"><a xlink:href="ShaderFoundry_8hpp.html" target="_top" xlink:title=" ">
<polygon fill="white" stroke="#666666" points="225.17,-266.5 116.17,-266.5 116.17,-247.5 225.17,-247.5 225.17,-266.5"/>
<text text-anchor="middle" x="170.67" y="-254.5" font-family="Helvetica,sans-Serif" font-size="10.00">ShaderFoundry.hpp</text>
</a>
</g>
</g>
<!-- Node5&#45;&gt;Node8 -->
<g id="edge17_Node000005_Node000008" class="edge">
<title>Node5&#45;&gt;Node8</title>
<g id="a_edge17_Node000005_Node000008"><a xlink:title=" ">
<path fill="none" stroke="#63b8ff" d="M175.03,-445.16C167.41,-435.71 156.2,-419.91 151.67,-404 148.65,-393.42 147.57,-335.95 152.67,-308 154.66,-297.05 158.77,-285.32 162.56,-275.98"/>
<polygon fill="#63b8ff" stroke="#63b8ff" points="165.86,-277.18 166.58,-266.61 159.42,-274.42 165.86,-277.18"/>
</a>
</g>
</g>
<!-- Node16 -->
<g id="Node000016" class="node">
<title>Node16</title>
<g id="a_Node000016"><a xlink:href="ShaderSpec_8hpp.html" target="_top" xlink:title=" ">
<polygon fill="white" stroke="#666666" points="135.17,-200.5 40.17,-200.5 40.17,-181.5 135.17,-181.5 135.17,-200.5"/>
<text text-anchor="middle" x="87.67" y="-188.5" font-family="Helvetica,sans-Serif" font-size="10.00">ShaderSpec.hpp</text>
</a>
</g>
</g>
<!-- Node5&#45;&gt;Node16 -->
<g id="edge18_Node000005_Node000016" class="edge">
<title>Node5&#45;&gt;Node16</title>
<g id="a_edge18_Node000005_Node000016"><a xlink:title=" ">
<path fill="none" stroke="#63b8ff" d="M174.83,-445.41C166.53,-435.91 153.56,-419.85 145.67,-404 112.36,-337.14 96.08,-248.58 90.26,-210.59"/>
<polygon fill="#63b8ff" stroke="#63b8ff" points="93.69,-209.89 88.78,-200.51 86.77,-210.91 93.69,-209.89"/>
</a>
</g>
</g>
<!-- Node7 -->
<g id="Node000007" class="node">
<title>Node7</title>
<g id="a_Node000007"><a xlink:href="ComputePress_8hpp.html" target="_top" xlink:title=" ">
<polygon fill="white" stroke="#666666" points="303.67,-338 161.67,-338 161.67,-308 303.67,-308 303.67,-338"/>
<text text-anchor="start" x="169.67" y="-326" font-family="Helvetica,sans-Serif" font-size="10.00">MayaFlux/Portal/Graphics</text>
<text text-anchor="middle" x="232.67" y="-315" font-family="Helvetica,sans-Serif" font-size="10.00">/ComputePress.hpp</text>
</a>
</g>
</g>
<!-- Node6&#45;&gt;Node7 -->
<g id="edge6_Node000006_Node000007" class="edge">
<title>Node6&#45;&gt;Node7</title>
<g id="a_edge6_Node000006_Node000007"><a xlink:title=" ">
<path fill="none" stroke="#63b8ff" d="M232.67,-379.37C232.67,-371.49 232.67,-359.45 232.67,-348.6"/>
<polygon fill="#63b8ff" stroke="#63b8ff" points="236.17,-348.36 232.67,-338.36 229.17,-348.36 236.17,-348.36"/>
</a>
</g>
</g>
<!-- Node7&#45;&gt;Node8 -->
<g id="edge7_Node000007_Node000008" class="edge">
<title>Node7&#45;&gt;Node8</title>
<g id="a_edge7_Node000007_Node000008"><a xlink:title=" ">
<path fill="none" stroke="#63b8ff" d="M218.91,-307.8C209.24,-297.82 196.3,-284.46 186.25,-274.09"/>
<polygon fill="#63b8ff" stroke="#63b8ff" points="188.71,-271.59 179.24,-266.84 183.68,-276.46 188.71,-271.59"/>
</a>
</g>
</g>
<!-- Node9 -->
<g id="Node000009" class="node">
<title>Node9</title>
<g id="a_Node000009"><a xlink:href="ShaderUtils_8hpp.html" target="_top" xlink:title=" ">
<polygon fill="white" stroke="#666666" points="264.67,-200.5 170.67,-200.5 170.67,-181.5 264.67,-181.5 264.67,-200.5"/>
<text text-anchor="middle" x="217.67" y="-188.5" font-family="Helvetica,sans-Serif" font-size="10.00">ShaderUtils.hpp</text>
</a>
</g>
</g>
<!-- Node8&#45;&gt;Node9 -->
<g id="edge8_Node000008_Node000009" class="edge">
<title>Node8&#45;&gt;Node9</title>
<g id="a_edge8_Node000008_Node000009"><a xlink:title=" ">
<path fill="none" stroke="#63b8ff" d="M177.01,-247.37C184.18,-237.59 196.06,-221.42 205.13,-209.08"/>
<polygon fill="#63b8ff" stroke="#63b8ff" points="208.03,-211.04 211.13,-200.91 202.39,-206.89 208.03,-211.04"/>
</a>
</g>
</g>
<!-- Node8&#45;&gt;Node16 -->
<g id="edge15_Node000008_Node000016" class="edge">
<title>Node8&#45;&gt;Node16</title>
<g id="a_edge15_Node000008_Node000016"><a xlink:title=" ">
<path fill="none" stroke="#63b8ff" d="M159.47,-247.37C146.11,-237.06 123.52,-219.65 107.24,-207.09"/>
<polygon fill="#63b8ff" stroke="#63b8ff" points="109.01,-204.03 98.95,-200.7 104.73,-209.58 109.01,-204.03"/>
</a>
</g>
</g>
<!-- Node10 -->
<g id="Node000010" class="node">
<title>Node10</title>
<g id="a_Node000010"><a xlink:title=" ">
<polygon fill="#e0e0e0" stroke="#999999" points="290.17,-134.5 185.17,-134.5 185.17,-115.5 290.17,-115.5 290.17,-134.5"/>
<text text-anchor="middle" x="237.67" y="-122.5" font-family="Helvetica,sans-Serif" font-size="10.00">vulkan/vulkan.hpp</text>
</a>
</g>
</g>
<!-- Node9&#45;&gt;Node10 -->
<g id="edge9_Node000009_Node000010" class="edge">
<title>Node9&#45;&gt;Node10</title>
<g id="a_edge9_Node000009_Node000010"><a xlink:title=" ">
<path fill="none" stroke="#63b8ff" d="M220.36,-181.37C223.3,-171.97 228.08,-156.67 231.88,-144.53"/>
<polygon fill="#63b8ff" stroke="#63b8ff" points="235.24,-145.49 234.88,-134.91 228.56,-143.41 235.24,-145.49"/>
</a>
</g>
</g>
<!-- Node11 -->
<g id="Node000011" class="node">
<title>Node11</title>
<g id="a_Node000011"><a xlink:href="GraphicsUtils_8hpp.html" target="_top" xlink:title=" ">
<polygon fill="white" stroke="#666666" points="411.17,-134.5 308.17,-134.5 308.17,-115.5 411.17,-115.5 411.17,-134.5"/>
<text text-anchor="middle" x="359.67" y="-122.5" font-family="Helvetica,sans-Serif" font-size="10.00">GraphicsUtils.hpp</text>
</a>
</g>
</g>
<!-- Node9&#45;&gt;Node11 -->
<g id="edge10_Node000009_Node000011" class="edge">
<title>Node9&#45;&gt;Node11</title>
<g id="a_edge10_Node000009_Node000011"><a xlink:title=" ">
<path fill="none" stroke="#63b8ff" d="M236.82,-181.37C261.06,-170.44 303.04,-151.52 331.08,-138.88"/>
<polygon fill="#63b8ff" stroke="#63b8ff" points="332.69,-142 340.37,-134.7 329.81,-135.62 332.69,-142"/>
</a>
</g>
</g>
<!-- Node12 -->
<g id="Node000012" class="node">
<title>Node12</title>
<g id="a_Node000012"><a xlink:href="VertexLayout_8hpp.html" target="_top" xlink:title=" ">
<polygon fill="white" stroke="#666666" points="167.17,-140 16.17,-140 16.17,-110 167.17,-110 167.17,-140"/>
<text text-anchor="start" x="24.17" y="-128" font-family="Helvetica,sans-Serif" font-size="10.00">MayaFlux/Kakshya/NDData</text>
<text text-anchor="middle" x="91.67" y="-117" font-family="Helvetica,sans-Serif" font-size="10.00">/VertexLayout.hpp</text>
</a>
</g>
</g>
<!-- Node9&#45;&gt;Node12 -->
<g id="edge11_Node000009_Node000012" class="edge">
<title>Node9&#45;&gt;Node12</title>
<g id="a_edge11_Node000009_Node000012"><a xlink:title=" ">
<path fill="none" stroke="#63b8ff" d="M200.67,-181.37C182.29,-172.03 152.42,-156.86 128.59,-144.75"/>
<polygon fill="#63b8ff" stroke="#63b8ff" points="129.96,-141.52 119.46,-140.12 126.79,-147.76 129.96,-141.52"/>
</a>
</g>
</g>
<!-- Node13 -->
<g id="Node000013" class="node">
<title>Node13</title>
<g id="a_Node000013"><a xlink:href="NDData_8hpp.html" target="_top" xlink:title=" ">
<polygon fill="white" stroke="#666666" points="567.67,-74 491.67,-74 491.67,-55 567.67,-55 567.67,-74"/>
<text text-anchor="middle" x="529.67" y="-62" font-family="Helvetica,sans-Serif" font-size="10.00">NDData.hpp</text>
</a>
</g>
</g>
<!-- Node12&#45;&gt;Node13 -->
<g id="edge12_Node000012_Node000013" class="edge">
<title>Node12&#45;&gt;Node13</title>
<g id="a_edge12_Node000012_Node000013"><a xlink:title=" ">
<path fill="none" stroke="#63b8ff" d="M167.2,-111.26C170.06,-110.83 172.89,-110.41 175.67,-110 284.83,-94.05 413.45,-78.75 481.61,-70.92"/>
<polygon fill="#63b8ff" stroke="#63b8ff" points="482.08,-74.39 491.62,-69.78 481.29,-67.44 482.08,-74.39"/>
</a>
</g>
</g>
<!-- Node14 -->
<g id="Node000014" class="node">
<title>Node14</title>
<g id="a_Node000014"><a xlink:title=" ">
<polygon fill="#e0e0e0" stroke="#999999" points="568.67,-19 490.67,-19 490.67,0 568.67,0 568.67,-19"/>
<text text-anchor="middle" x="529.67" y="-7" font-family="Helvetica,sans-Serif" font-size="10.00">glm/glm.hpp</text>
</a>
</g>
</g>
<!-- Node13&#45;&gt;Node14 -->
<g id="edge13_Node000013_Node000014" class="edge">
<title>Node13&#45;&gt;Node14</title>
<g id="a_edge13_Node000013_Node000014"><a xlink:title=" ">
<path fill="none" stroke="#63b8ff" d="M529.67,-54.75C529.67,-47.8 529.67,-37.85 529.67,-29.13"/>
<polygon fill="#63b8ff" stroke="#63b8ff" points="533.17,-29.09 529.67,-19.09 526.17,-29.09 533.17,-29.09"/>
</a>
</g>
</g>
<!-- Node15 -->
<g id="Node000015" class="node">
<title>Node15</title>
<g id="a_Node000015"><a xlink:title=" ">
<polygon fill="#e0e0e0" stroke="#999999" points="1198.17,-19 1133.17,-19 1133.17,0 1198.17,0 1198.17,-19"/>
<text text-anchor="middle" x="1165.67" y="-7" font-family="Helvetica,sans-Serif" font-size="10.00">typeindex</text>
</a>
</g>
</g>
<!-- Node13&#45;&gt;Node15 -->
<g id="edge14_Node000013_Node000015" class="edge">
<title>Node13&#45;&gt;Node15</title>
<g id="a_edge14_Node000013_Node000015"><a xlink:title=" ">
<path fill="none" stroke="#63b8ff" d="M568.02,-60.3C679.99,-50.97 1005.89,-23.81 1123.07,-14.05"/>
<polygon fill="#63b8ff" stroke="#63b8ff" points="1123.43,-17.53 1133.1,-13.21 1122.84,-10.56 1123.43,-17.53"/>
</a>
</g>
</g>
<!-- Node16&#45;&gt;Node13 -->
<g id="edge16_Node000016_Node000013" class="edge">
<title>Node16&#45;&gt;Node13</title>
<g id="a_edge16_Node000016_Node000013"><a xlink:title=" ">
<path fill="none" stroke="#63b8ff" d="M67.23,-181.4C35.83,-167.04 -18.2,-137.07 6.67,-110 38.41,-75.44 357.71,-67.68 481.23,-65.97"/>
<polygon fill="#63b8ff" stroke="#63b8ff" points="481.57,-69.47 491.52,-65.84 481.48,-62.47 481.57,-69.47"/>
</a>
</g>
</g>
<!-- Node17&#45;&gt;Node15 -->
<g id="edge27_Node000017_Node000015" class="edge">
<title>Node17&#45;&gt;Node15</title>
<g id="a_edge27_Node000017_Node000015"><a xlink:title=" ">
<path fill="none" stroke="#63b8ff" d="M886.31,-376.09C990.17,-357.37 1165.67,-317.01 1165.67,-258 1165.67,-258 1165.67,-258 1165.67,-124 1165.67,-90.61 1165.67,-51.69 1165.67,-29.19"/>
<polygon fill="#63b8ff" stroke="#63b8ff" points="1169.17,-29.04 1165.67,-19.04 1162.17,-29.04 1169.17,-29.04"/>
</a>
</g>
</g>
<!-- Node18 -->
<g id="Node000018" class="node">
<title>Node18</title>
<g id="a_Node000018"><a xlink:href="Archivist_8hpp.html" target="_top" xlink:title=" ">
<polygon fill="white" stroke="#666666" points="895.67,-332.5 727.67,-332.5 727.67,-313.5 895.67,-313.5 895.67,-332.5"/>
<text text-anchor="middle" x="811.67" y="-320.5" font-family="Helvetica,sans-Serif" font-size="10.00">MayaFlux/Journal/Archivist.hpp</text>
</a>
</g>
</g>
<!-- Node17&#45;&gt;Node18 -->
<g id="edge20_Node000017_Node000018" class="edge">
<title>Node17&#45;&gt;Node18</title>
<g id="a_edge20_Node000017_Node000018"><a xlink:title=" ">
<path fill="none" stroke="#63b8ff" d="M811.67,-373.8C811.67,-364.7 811.67,-352.79 811.67,-342.9"/>
<polygon fill="#63b8ff" stroke="#63b8ff" points="815.17,-342.84 811.67,-332.84 808.17,-342.84 815.17,-342.84"/>
</a>
</g>
</g>
<!-- Node19 -->
<g id="Node000019" class="node">
<title>Node19</title>
<g id="a_Node000019"><a xlink:href="JournalEntry_8hpp.html" target="_top" xlink:title=" ">
<polygon fill="white" stroke="#666666" points="936.17,-266.5 841.17,-266.5 841.17,-247.5 936.17,-247.5 936.17,-266.5"/>
<text text-anchor="middle" x="888.67" y="-254.5" font-family="Helvetica,sans-Serif" font-size="10.00">JournalEntry.hpp</text>
</a>
</g>
</g>
<!-- Node18&#45;&gt;Node19 -->
<g id="edge21_Node000018_Node000019" class="edge">
<title>Node18&#45;&gt;Node19</title>
<g id="a_edge21_Node000018_Node000019"><a xlink:title=" ">
<path fill="none" stroke="#63b8ff" d="M822.05,-313.37C834.38,-303.12 855.17,-285.84 870.25,-273.31"/>
<polygon fill="#63b8ff" stroke="#63b8ff" points="872.5,-275.99 877.95,-266.91 868.03,-270.61 872.5,-275.99"/>
</a>
</g>
</g>
<!-- Node24 -->
<g id="Node000024" class="node">
<title>Node24</title>
<g id="a_Node000024"><a xlink:title=" ">
<polygon fill="#e0e0e0" stroke="#999999" points="822.67,-266.5 772.67,-266.5 772.67,-247.5 822.67,-247.5 822.67,-266.5"/>
<text text-anchor="middle" x="797.67" y="-254.5" font-family="Helvetica,sans-Serif" font-size="10.00">format</text>
</a>
</g>
</g>
<!-- Node18&#45;&gt;Node24 -->
<g id="edge26_Node000018_Node000024" class="edge">
<title>Node18&#45;&gt;Node24</title>
<g id="a_edge26_Node000018_Node000024"><a xlink:title=" ">
<path fill="none" stroke="#63b8ff" d="M809.78,-313.37C807.74,-304.07 804.44,-288.98 801.8,-276.9"/>
<polygon fill="#63b8ff" stroke="#63b8ff" points="805.17,-275.93 799.62,-266.91 798.33,-277.42 805.17,-275.93"/>
</a>
</g>
</g>
<!-- Node20 -->
<g id="Node000020" class="node">
<title>Node20</title>
<g id="a_Node000020"><a xlink:href="EnumReflect_8hpp.html" target="_top" xlink:title=" ">
<polygon fill="white" stroke="#666666" points="1069.17,-206 930.17,-206 930.17,-176 1069.17,-176 1069.17,-206"/>
<text text-anchor="start" x="938.17" y="-194" font-family="Helvetica,sans-Serif" font-size="10.00">MayaFlux/Transitive</text>
<text text-anchor="middle" x="999.67" y="-183" font-family="Helvetica,sans-Serif" font-size="10.00">/Reflect/EnumReflect.hpp</text>
</a>
</g>
</g>
<!-- Node19&#45;&gt;Node20 -->
<g id="edge22_Node000019_Node000020" class="edge">
<title>Node19&#45;&gt;Node20</title>
<g id="a_edge22_Node000019_Node000020"><a xlink:title=" ">
<path fill="none" stroke="#63b8ff" d="M903.64,-247.37C919.62,-238.16 945.45,-223.26 966.3,-211.24"/>
<polygon fill="#63b8ff" stroke="#63b8ff" points="968.27,-214.14 975.19,-206.12 964.77,-208.08 968.27,-214.14"/>
</a>
</g>
</g>
<!-- Node21 -->
<g id="Node000021" class="node">
<title>Node21</title>
<g id="a_Node000021"><a xlink:title=" ">
<polygon fill="#e0e0e0" stroke="#999999" points="1137.67,-200.5 1087.67,-200.5 1087.67,-181.5 1137.67,-181.5 1137.67,-200.5"/>
<text text-anchor="middle" x="1112.67" y="-188.5" font-family="Helvetica,sans-Serif" font-size="10.00">chrono</text>
</a>
</g>
</g>
<!-- Node19&#45;&gt;Node21 -->
<g id="edge23_Node000019_Node000021" class="edge">
<title>Node19&#45;&gt;Node21</title>
<g id="a_edge23_Node000019_Node000021"><a xlink:title=" ">
<path fill="none" stroke="#63b8ff" d="M927.32,-247.42C966.03,-238.47 1027.09,-223.32 1078.67,-206 1080.29,-205.46 1081.95,-204.87 1083.61,-204.26"/>
<polygon fill="#63b8ff" stroke="#63b8ff" points="1085,-207.48 1093.06,-200.59 1082.47,-200.95 1085,-207.48"/>
</a>
</g>
</g>
<!-- Node22 -->
<g id="Node000022" class="node">
<title>Node22</title>
<g id="a_Node000022"><a xlink:title=" ">
<polygon fill="#e0e0e0" stroke="#999999" points="821.17,-200.5 728.17,-200.5 728.17,-181.5 821.17,-181.5 821.17,-200.5"/>
<text text-anchor="middle" x="774.67" y="-188.5" font-family="Helvetica,sans-Serif" font-size="10.00">source_location</text>
</a>
</g>
</g>
<!-- Node19&#45;&gt;Node22 -->
<g id="edge24_Node000019_Node000022" class="edge">
<title>Node19&#45;&gt;Node22</title>
<g id="a_edge24_Node000019_Node000022"><a xlink:title=" ">
<path fill="none" stroke="#63b8ff" d="M873.29,-247.37C854.25,-236.68 821.59,-218.35 799.11,-205.72"/>
<polygon fill="#63b8ff" stroke="#63b8ff" points="800.6,-202.54 790.16,-200.7 797.17,-208.65 800.6,-202.54"/>
</a>
</g>
</g>
<!-- Node23 -->
<g id="Node000023" class="node">
<title>Node23</title>
<g id="a_Node000023"><a xlink:title=" ">
<polygon fill="#e0e0e0" stroke="#999999" points="912.17,-200.5 839.17,-200.5 839.17,-181.5 912.17,-181.5 912.17,-200.5"/>
<text text-anchor="middle" x="875.67" y="-188.5" font-family="Helvetica,sans-Serif" font-size="10.00">string_view</text>
</a>
</g>
</g>
<!-- Node19&#45;&gt;Node23 -->
<g id="edge25_Node000019_Node000023" class="edge">
<title>Node19&#45;&gt;Node23</title>
<g id="a_edge25_Node000019_Node000023"><a xlink:title=" ">
<path fill="none" stroke="#63b8ff" d="M886.91,-247.37C885.02,-238.07 881.96,-222.98 879.51,-210.9"/>
<polygon fill="#63b8ff" stroke="#63b8ff" points="882.9,-210.01 877.48,-200.91 876.04,-211.4 882.9,-210.01"/>
</a>
</g>
</g>
<!-- Node26 -->
<g id="Node000026" class="node">
<title>Node26</title>
<g id="a_Node000026"><a xlink:href="ContainerUtils_8hpp.html" target="_top" xlink:title=" ">
<polygon fill="white" stroke="#666666" points="622.17,-470 487.17,-470 487.17,-440 622.17,-440 622.17,-470"/>
<text text-anchor="start" x="495.17" y="-458" font-family="Helvetica,sans-Serif" font-size="10.00">MayaFlux/Kakshya/Utils</text>
<text text-anchor="middle" x="554.67" y="-447" font-family="Helvetica,sans-Serif" font-size="10.00">/ContainerUtils.hpp</text>
</a>
</g>
</g>
<!-- Node25&#45;&gt;Node26 -->
<g id="edge29_Node000025_Node000026" class="edge">
<title>Node25&#45;&gt;Node26</title>
<g id="a_edge29_Node000025_Node000026"><a xlink:title=" ">
<path fill="none" stroke="#63b8ff" d="M564,-505.8C562.59,-498.26 560.81,-488.78 559.19,-480.13"/>
<polygon fill="#63b8ff" stroke="#63b8ff" points="562.61,-479.35 557.32,-470.16 555.73,-480.64 562.61,-479.35"/>
</a>
</g>
</g>
<!-- Node31 -->
<g id="Node000031" class="node">
<title>Node31</title>
<g id="a_Node000031"><a xlink:href="DataIO_8hpp.html" target="_top" xlink:title=" ">
<polygon fill="white" stroke="#666666" points="468.67,-470 344.67,-470 344.67,-440 468.67,-440 468.67,-470"/>
<text text-anchor="start" x="352.67" y="-458" font-family="Helvetica,sans-Serif" font-size="10.00">MayaFlux/Yantra/Data</text>
<text text-anchor="middle" x="406.67" y="-447" font-family="Helvetica,sans-Serif" font-size="10.00">/DataIO.hpp</text>
</a>
</g>
</g>
<!-- Node25&#45;&gt;Node31 -->
<g id="edge36_Node000025_Node000031" class="edge">
<title>Node25&#45;&gt;Node31</title>
<g id="a_edge36_Node000025_Node000031"><a xlink:title=" ">
<path fill="none" stroke="#63b8ff" d="M531.55,-505.95C507.9,-496.49 476.5,-483.93 451.11,-473.78"/>
<polygon fill="#63b8ff" stroke="#63b8ff" points="452.28,-470.48 441.7,-470.01 449.68,-476.98 452.28,-470.48"/>
</a>
</g>
</g>
<!-- Node32 -->
<g id="Node000032" class="node">
<title>Node32</title>
<g id="a_Node000032"><a xlink:href="DataUtils_8hpp.html" target="_top" xlink:title=" ">
<polygon fill="white" stroke="#666666" points="718.17,-404 583.17,-404 583.17,-374 718.17,-374 718.17,-404"/>
<text text-anchor="start" x="591.17" y="-392" font-family="Helvetica,sans-Serif" font-size="10.00">MayaFlux/Kakshya/Utils</text>
<text text-anchor="middle" x="650.67" y="-381" font-family="Helvetica,sans-Serif" font-size="10.00">/DataUtils.hpp</text>
</a>
</g>
</g>
<!-- Node25&#45;&gt;Node32 -->
<g id="edge47_Node000025_Node000032" class="edge">
<title>Node25&#45;&gt;Node32</title>
<g id="a_edge47_Node000025_Node000032"><a xlink:title=" ">
<path fill="none" stroke="#63b8ff" d="M591.93,-505.94C605.33,-497.24 620.99,-484.9 630.67,-470 641.55,-453.26 646.51,-431.02 648.77,-414.24"/>
<polygon fill="#63b8ff" stroke="#63b8ff" points="652.27,-414.44 649.9,-404.11 645.31,-413.66 652.27,-414.44"/>
</a>
</g>
</g>
<!-- Node27 -->
<g id="Node000027" class="node">
<title>Node27</title>
<g id="a_Node000027"><a xlink:href="SignalSourceContainer_8hpp.html" target="_top" xlink:title=" ">
<polygon fill="white" stroke="#666666" points="670.67,-272 494.67,-272 494.67,-242 670.67,-242 670.67,-272"/>
<text text-anchor="start" x="502.67" y="-260" font-family="Helvetica,sans-Serif" font-size="10.00">MayaFlux/Kakshya/SignalSource</text>
<text text-anchor="middle" x="582.67" y="-249" font-family="Helvetica,sans-Serif" font-size="10.00">Container.hpp</text>
</a>
</g>
</g>
<!-- Node26&#45;&gt;Node27 -->
<g id="edge30_Node000026_Node000027" class="edge">
<title>Node26&#45;&gt;Node27</title>
<g id="a_edge30_Node000026_Node000027"><a xlink:title=" ">
<path fill="none" stroke="#63b8ff" d="M550.18,-439.86C542.51,-413.24 529.09,-354.23 544.67,-308 548.11,-297.77 554.58,-287.98 561.21,-279.81"/>
<polygon fill="#63b8ff" stroke="#63b8ff" points="563.88,-282.07 567.79,-272.23 558.59,-277.48 563.88,-282.07"/>
</a>
</g>
</g>
<!-- Node28 -->
<g id="Node000028" class="node">
<title>Node28</title>
<g id="a_Node000028"><a xlink:href="NDimensionalContainer_8hpp.html" target="_top" xlink:title=" ">
<polygon fill="white" stroke="#666666" points="671.17,-134.5 518.17,-134.5 518.17,-115.5 671.17,-115.5 671.17,-134.5"/>
<text text-anchor="middle" x="594.67" y="-122.5" font-family="Helvetica,sans-Serif" font-size="10.00">NDimensionalContainer.hpp</text>
</a>
</g>
</g>
<!-- Node27&#45;&gt;Node28 -->
<g id="edge31_Node000027_Node000028" class="edge">
<title>Node27&#45;&gt;Node28</title>
<g id="a_edge31_Node000027_Node000028"><a xlink:title=" ">
<path fill="none" stroke="#63b8ff" d="M583.97,-241.84C586.14,-218.34 590.49,-171.26 592.92,-144.93"/>
<polygon fill="#63b8ff" stroke="#63b8ff" points="596.43,-145.03 593.86,-134.75 589.46,-144.38 596.43,-145.03"/>
</a>
</g>
</g>
<!-- Node29 -->
<g id="Node000029" class="node">
<title>Node29</title>
<g id="a_Node000029"><a xlink:href="RegionGroup_8hpp.html" target="_top" xlink:title=" ">
<polygon fill="white" stroke="#666666" points="567.17,-200.5 430.17,-200.5 430.17,-181.5 567.17,-181.5 567.17,-200.5"/>
<text text-anchor="middle" x="498.67" y="-188.5" font-family="Helvetica,sans-Serif" font-size="10.00">Region/RegionGroup.hpp</text>
</a>
</g>
</g>
<!-- Node27&#45;&gt;Node29 -->
<g id="edge33_Node000027_Node000029" class="edge">
<title>Node27&#45;&gt;Node29</title>
<g id="a_edge33_Node000027_Node000029"><a xlink:title=" ">
<path fill="none" stroke="#63b8ff" d="M564.02,-241.8C550.54,-231.53 532.36,-217.67 518.59,-207.18"/>
<polygon fill="#63b8ff" stroke="#63b8ff" points="520.35,-204.12 510.28,-200.84 516.11,-209.69 520.35,-204.12"/>
</a>
</g>
</g>
<!-- Node28&#45;&gt;Node13 -->
<g id="edge32_Node000028_Node000013" class="edge">
<title>Node28&#45;&gt;Node13</title>
<g id="a_edge32_Node000028_Node000013"><a xlink:title=" ">
<path fill="none" stroke="#63b8ff" d="M585.08,-115.37C575.09,-106.38 559.24,-92.11 547.04,-81.14"/>
<polygon fill="#63b8ff" stroke="#63b8ff" points="549.07,-78.26 539.3,-74.17 544.39,-83.46 549.07,-78.26"/>
</a>
</g>
</g>
<!-- Node30 -->
<g id="Node000030" class="node">
<title>Node30</title>
<g id="a_Node000030"><a xlink:href="Region_8hpp.html" target="_top" xlink:title=" ">
<polygon fill="white" stroke="#666666" points="500.17,-134.5 429.17,-134.5 429.17,-115.5 500.17,-115.5 500.17,-134.5"/>
<text text-anchor="middle" x="464.67" y="-122.5" font-family="Helvetica,sans-Serif" font-size="10.00">Region.hpp</text>
</a>
</g>
</g>
<!-- Node29&#45;&gt;Node30 -->
<g id="edge34_Node000029_Node000030" class="edge">
<title>Node29&#45;&gt;Node30</title>
<g id="a_edge34_Node000029_Node000030"><a xlink:title=" ">
<path fill="none" stroke="#63b8ff" d="M494.08,-181.37C488.99,-171.78 480.63,-156.05 474.12,-143.8"/>
<polygon fill="#63b8ff" stroke="#63b8ff" points="477.18,-142.09 469.4,-134.91 471,-145.38 477.18,-142.09"/>
</a>
</g>
</g>
<!-- Node30&#45;&gt;Node13 -->
<g id="edge35_Node000030_Node000013" class="edge">
<title>Node30&#45;&gt;Node13</title>
<g id="a_edge35_Node000030_Node000013"><a xlink:title=" ">
<path fill="none" stroke="#63b8ff" d="M474.26,-115.37C484.24,-106.38 500.1,-92.11 512.29,-81.14"/>
<polygon fill="#63b8ff" stroke="#63b8ff" points="514.95,-83.46 520.04,-74.17 510.26,-78.26 514.95,-83.46"/>
</a>
</g>
</g>
<!-- Node31&#45;&gt;Node32 -->
<g id="edge37_Node000031_Node000032" class="edge">
<title>Node31&#45;&gt;Node32</title>
<g id="a_edge37_Node000031_Node000032"><a xlink:title=" ">
<path fill="none" stroke="#63b8ff" d="M460.21,-439.95C497.72,-430.12 547.98,-416.93 587.46,-406.58"/>
<polygon fill="#63b8ff" stroke="#63b8ff" points="588.46,-409.93 597.25,-404.01 586.68,-403.16 588.46,-409.93"/>
</a>
</g>
</g>
<!-- Node34 -->
<g id="Node000034" class="node">
<title>Node34</title>
<g id="a_Node000034"><a xlink:href="StructureIntrospection_8hpp.html" target="_top" xlink:title=" ">
<polygon fill="white" stroke="#666666" points="479.67,-398.5 333.67,-398.5 333.67,-379.5 479.67,-379.5 479.67,-398.5"/>
<text text-anchor="middle" x="406.67" y="-386.5" font-family="Helvetica,sans-Serif" font-size="10.00">StructureIntrospection.hpp</text>
</a>
</g>
</g>
<!-- Node31&#45;&gt;Node34 -->
<g id="edge41_Node000031_Node000034" class="edge">
<title>Node31&#45;&gt;Node34</title>
<g id="a_edge41_Node000031_Node000034"><a xlink:title=" ">
<path fill="none" stroke="#63b8ff" d="M406.67,-439.8C406.67,-430.7 406.67,-418.79 406.67,-408.9"/>
<polygon fill="#63b8ff" stroke="#63b8ff" points="410.17,-408.84 406.67,-398.84 403.17,-408.84 410.17,-408.84"/>
</a>
</g>
</g>
<!-- Node32&#45;&gt;Node13 -->
<g id="edge38_Node000032_Node000013" class="edge">
<title>Node32&#45;&gt;Node13</title>
<g id="a_edge38_Node000032_Node000013"><a xlink:title=" ">
<path fill="none" stroke="#63b8ff" d="M660.84,-373.75C667.33,-364.06 675.47,-350.75 680.67,-338 694.45,-304.16 699.67,-294.54 699.67,-258 699.67,-258 699.67,-258 699.67,-190 699.67,-153.46 705.81,-136.52 680.67,-110 654.17,-82.05 611.09,-71.39 577.71,-67.45"/>
<polygon fill="#63b8ff" stroke="#63b8ff" points="578,-63.96 567.69,-66.43 577.29,-70.92 578,-63.96"/>
</a>
</g>
</g>
<!-- Node32&#45;&gt;Node18 -->
<g id="edge39_Node000032_Node000018" class="edge">
<title>Node32&#45;&gt;Node18</title>
<g id="a_edge39_Node000032_Node000018"><a xlink:title=" ">
<path fill="none" stroke="#63b8ff" d="M686,-373.95C714.36,-362.68 753.78,-347.01 780.86,-336.25"/>
<polygon fill="#63b8ff" stroke="#63b8ff" points="782.24,-339.46 790.24,-332.52 779.66,-332.96 782.24,-339.46"/>
</a>
</g>
</g>
<!-- Node33 -->
<g id="Node000033" class="node">
<title>Node33</title>
<g id="a_Node000033"><a xlink:title=" ">
<polygon fill="#e0e0e0" stroke="#999999" points="671.17,-332.5 554.17,-332.5 554.17,-313.5 671.17,-313.5 671.17,-332.5"/>
<text text-anchor="middle" x="612.67" y="-320.5" font-family="Helvetica,sans-Serif" font-size="10.00">glm/gtc/type_ptr.hpp</text>
</a>
</g>
</g>
<!-- Node32&#45;&gt;Node33 -->
<g id="edge40_Node000032_Node000033" class="edge">
<title>Node32&#45;&gt;Node33</title>
<g id="a_edge40_Node000032_Node000033"><a xlink:title=" ">
<path fill="none" stroke="#63b8ff" d="M642.23,-373.8C636.6,-364.31 629.15,-351.76 623.14,-341.63"/>
<polygon fill="#63b8ff" stroke="#63b8ff" points="626.03,-339.66 617.92,-332.84 620.01,-343.23 626.03,-339.66"/>
</a>
</g>
</g>
<!-- Node35 -->
<g id="Node000035" class="node">
<title>Node35</title>
<g id="a_Node000035"><a xlink:href="DataSpec_8hpp.html" target="_top" xlink:title=" ">
<polygon fill="white" stroke="#666666" points="445.67,-332.5 361.67,-332.5 361.67,-313.5 445.67,-313.5 445.67,-332.5"/>
<text text-anchor="middle" x="403.67" y="-320.5" font-family="Helvetica,sans-Serif" font-size="10.00">DataSpec.hpp</text>
</a>
</g>
</g>
<!-- Node34&#45;&gt;Node35 -->
<g id="edge42_Node000034_Node000035" class="edge">
<title>Node34&#45;&gt;Node35</title>
<g id="a_edge42_Node000034_Node000035"><a xlink:title=" ">
<path fill="none" stroke="#63b8ff" d="M406.26,-379.37C405.83,-370.07 405.12,-354.98 404.55,-342.9"/>
<polygon fill="#63b8ff" stroke="#63b8ff" points="408.05,-342.73 404.08,-332.91 401.06,-343.06 408.05,-342.73"/>
</a>
</g>
</g>
<!-- Node35&#45;&gt;Node27 -->
<g id="edge46_Node000035_Node000027" class="edge">
<title>Node35&#45;&gt;Node27</title>
<g id="a_edge46_Node000035_Node000027"><a xlink:title=" ">
<path fill="none" stroke="#63b8ff" d="M427.81,-313.37C454.73,-303.74 499.01,-287.91 533.34,-275.64"/>
<polygon fill="#63b8ff" stroke="#63b8ff" points="534.95,-278.78 543.19,-272.12 532.59,-272.19 534.95,-278.78"/>
</a>
</g>
</g>
<!-- Node36 -->
<g id="Node000036" class="node">
<title>Node36</title>
<g id="a_Node000036"><a xlink:title=" ">
<polygon fill="#e0e0e0" stroke="#999999" points="312.17,-266.5 243.17,-266.5 243.17,-247.5 312.17,-247.5 312.17,-266.5"/>
<text text-anchor="middle" x="277.67" y="-254.5" font-family="Helvetica,sans-Serif" font-size="10.00">Eigen/Core</text>
</a>
</g>
</g>
<!-- Node35&#45;&gt;Node36 -->
<g id="edge43_Node000035_Node000036" class="edge">
<title>Node35&#45;&gt;Node36</title>
<g id="a_edge43_Node000035_Node000036"><a xlink:title=" ">
<path fill="none" stroke="#63b8ff" d="M386.67,-313.37C365.44,-302.59 328.89,-284.02 304.02,-271.38"/>
<polygon fill="#63b8ff" stroke="#63b8ff" points="305.29,-268.11 294.79,-266.7 302.12,-274.35 305.29,-268.11"/>
</a>
</g>
</g>
<!-- Node37 -->
<g id="Node000037" class="node">
<title>Node37</title>
<g id="a_Node000037"><a xlink:href="RegionSegment_8hpp.html" target="_top" xlink:title=" ">
<polygon fill="white" stroke="#666666" points="476.67,-272 330.67,-272 330.67,-242 476.67,-242 476.67,-272"/>
<text text-anchor="start" x="338.67" y="-260" font-family="Helvetica,sans-Serif" font-size="10.00">MayaFlux/Kakshya/Region</text>
<text text-anchor="middle" x="403.67" y="-249" font-family="Helvetica,sans-Serif" font-size="10.00">/RegionSegment.hpp</text>
</a>
</g>
</g>
<!-- Node35&#45;&gt;Node37 -->
<g id="edge44_Node000035_Node000037" class="edge">
<title>Node35&#45;&gt;Node37</title>
<g id="a_edge44_Node000035_Node000037"><a xlink:title=" ">
<path fill="none" stroke="#63b8ff" d="M403.67,-313.37C403.67,-305.49 403.67,-293.45 403.67,-282.6"/>
<polygon fill="#63b8ff" stroke="#63b8ff" points="407.17,-282.36 403.67,-272.36 400.17,-282.36 407.17,-282.36"/>
</a>
</g>
</g>
<!-- Node37&#45;&gt;Node30 -->
<g id="edge45_Node000037_Node000030" class="edge">
<title>Node37&#45;&gt;Node30</title>
<g id="a_edge45_Node000037_Node000030"><a xlink:title=" ">
<path fill="none" stroke="#63b8ff" d="M404.49,-241.99C405.94,-225.44 409.9,-197.44 420.67,-176 427.24,-162.92 438.06,-150.56 447.33,-141.39"/>
<polygon fill="#63b8ff" stroke="#63b8ff" points="449.76,-143.91 454.63,-134.5 444.95,-138.83 449.76,-143.91"/>
</a>
</g>
</g>
<!-- Node39&#45;&gt;Node31 -->
<g id="edge50_Node000039_Node000031" class="edge">
<title>Node39&#45;&gt;Node31</title>
<g id="a_edge50_Node000039_Node000031"><a xlink:title=" ">
<path fill="none" stroke="#63b8ff" d="M406.67,-571.94C406.67,-553.32 406.67,-508.53 406.67,-480.39"/>
<polygon fill="#63b8ff" stroke="#63b8ff" points="410.17,-480.16 406.67,-470.16 403.17,-480.16 410.17,-480.16"/>
</a>
</g>
</g>
<!-- Node40&#45;&gt;Node15 -->
<g id="edge52_Node000040_Node000015" class="edge">
<title>Node40&#45;&gt;Node15</title>
<g id="a_edge52_Node000040_Node000015"><a xlink:title=" ">
<path fill="none" stroke="#63b8ff" d="M1067.3,-511.48C1115.51,-496 1203.67,-458.34 1203.67,-390 1203.67,-390 1203.67,-390 1203.67,-124 1203.67,-88.48 1186.73,-49.79 1175.47,-28"/>
<polygon fill="#63b8ff" stroke="#63b8ff" points="1178.45,-26.16 1170.64,-19 1172.28,-29.47 1178.45,-26.16"/>
</a>
</g>
</g>
<!-- Node42 -->
<g id="Node000042" class="node">
<title>Node42</title>
<g id="a_Node000042"><a xlink:title=" ">
<polygon fill="#e0e0e0" stroke="#999999" points="913.67,-646 849.67,-646 849.67,-627 913.67,-627 913.67,-646"/>
<text text-anchor="middle" x="881.67" y="-634" font-family="Helvetica,sans-Serif" font-size="10.00">execution</text>
</a>
</g>
</g>
<!-- Node41&#45;&gt;Node42 -->
<g id="edge54_Node000041_Node000042" class="edge">
<title>Node41&#45;&gt;Node42</title>
<g id="a_edge54_Node000041_Node000042"><a xlink:title=" ">
<path fill="none" stroke="#63b8ff" d="M881.67,-681.84C881.67,-674.21 881.67,-664.7 881.67,-656.45"/>
<polygon fill="#63b8ff" stroke="#63b8ff" points="885.17,-656.27 881.67,-646.27 878.17,-656.27 885.17,-656.27"/>
</a>
</g>
</g>
</g>
</svg>

<g id="navigator" transform="translate(0 0)" fill="#404254">
  <rect fill="#f2f5e9" fill-opacity="0.5" stroke="#606060" stroke-width=".5" x="0" y="0" width="60" height="60"/>
  <use id="zoomplus" xlink:href="#zoomPlus" x="17" y="9" onmousedown="handleZoom(evt,'in')"/>
  <use id="zoomminus" xlink:href="#zoomMin" x="42" y="9" onmousedown="handleZoom(evt,'out')"/>
  <use id="reset" xlink:href="#resetDef" x="30" y="36" onmousedown="handleReset()"/>
   <use id="arrowup" xlink:href="#arrowUp" x="0" y="0" onmousedown="handlePan(0,-1)"/>
  <use id="arrowright" xlink:href="#arrowRight" x="0" y="0" onmousedown="handlePan(1,0)"/>
  <use id="arrowdown" xlink:href="#arrowDown" x="0" y="0" onmousedown="handlePan(0,1)"/>
  <use id="arrowleft" xlink:href="#arrowLeft" x="0" y="0" onmousedown="handlePan(-1,0)"/>
</g>
<svg viewBox="0 0 15 15" width="100%" height="30px" preserveAspectRatio="xMaxYMin meet">
 <g id="arrow_out" transform="scale(0.3 0.3)">
  <a xlink:href="ComputeMatrix_8hpp__incl_org.svg" target="_base">
   <rect id="button" ry="5" rx="5" y="6" x="6" height="38" width="38"
        fill="#f2f5e9" fill-opacity="0.5" stroke="#606060" stroke-width="1.0"/>
   <path id="arrow"
     d="M 11.500037,31.436501 C 11.940474,20.09759 22.043105,11.32322 32.158766,21.979434 L 37.068811,17.246167 C 37.068811,17.246167 37.088388,32 37.088388,32 L 22.160133,31.978069 C 22.160133,31.978069 26.997745,27.140456 26.997745,27.140456 C 18.528582,18.264221 13.291696,25.230495 11.500037,31.436501 z"
     style="fill:#404040;"/>
  </a>
 </g>
</svg>

<style type='text/css'>
<![CDATA[
[data-mouse-over-selected='false'] { opacity: 0.7; }
[data-mouse-over-selected='true']  { opacity: 1.0; }
]]>
</style>
<script type="application/ecmascript"><![CDATA[
document.addEventListener('DOMContentLoaded', (event) => {
  highlightEdges();
  highlightAdjacentNodes();
});
]]></script>
</svg>
