<?xml version="1.0" encoding="UTF-8" standalone="no"?>
<!DOCTYPE svg PUBLIC "-//W3C//DTD SVG 1.1//EN"
 "http://www.w3.org/Graphics/SVG/1.1/DTD/svg11.dtd">
<!-- Generated by graphviz version 2.43.0 (0)
 -->
<!-- Title: ComputeOutNode.cpp Pages: 1 -->
<svg width="1246pt" height="456pt"
 viewBox="0.00 0.00 1246.00 456.00" xmlns="http://www.w3.org/2000/svg" xmlns:xlink="http://www.w3.org/1999/xlink">
<g id="graph0" class="graph" transform="scale(1 1) rotate(0) translate(4 452)">
<title>ComputeOutNode.cpp</title>
<!-- Node1 -->
<g id="Node000001" class="node">
<title>Node1</title>
<g id="a_Node000001"><a xlink:title=" ">
<polygon fill="#999999" stroke="#666666" points="729.5,-448 605.5,-448 605.5,-429 729.5,-429 729.5,-448"/>
<text text-anchor="middle" x="667.5" y="-436" font-family="Helvetica,sans-Serif" font-size="10.00">ComputeOutNode.cpp</text>
</a>
</g>
</g>
<!-- Node2 -->
<g id="Node000002" class="node">
<title>Node2</title>
<g id="a_Node000002"><a xlink:href="ComputeOutNode_8hpp.html" target="_top" xlink:title=" ">
<polygon fill="white" stroke="#666666" points="506,-387.5 381,-387.5 381,-368.5 506,-368.5 506,-387.5"/>
<text text-anchor="middle" x="443.5" y="-375.5" font-family="Helvetica,sans-Serif" font-size="10.00">ComputeOutNode.hpp</text>
</a>
</g>
</g>
<!-- Node1&#45;&gt;Node2 -->
<g id="edge1_Node000001_Node000002" class="edge">
<title>Node1&#45;&gt;Node2</title>
<g id="a_edge1_Node000001_Node000002"><a xlink:title=" ">
<path fill="none" stroke="#63b8ff" d="M634.93,-428.99C595.53,-418.7 529.11,-401.36 485.79,-390.04"/>
<polygon fill="#63b8ff" stroke="#63b8ff" points="486.67,-386.66 476.11,-387.52 484.9,-393.43 486.67,-386.66"/>
</a>
</g>
</g>
<!-- Node8 -->
<g id="Node000008" class="node">
<title>Node8</title>
<g id="a_Node000008"><a xlink:href="StagingUtils_8hpp.html" target="_top" xlink:title=" ">
<polygon fill="white" stroke="#666666" points="738.5,-393 596.5,-393 596.5,-363 738.5,-363 738.5,-393"/>
<text text-anchor="start" x="604.5" y="-381" font-family="Helvetica,sans-Serif" font-size="10.00">MayaFlux/Buffers/Staging</text>
<text text-anchor="middle" x="667.5" y="-370" font-family="Helvetica,sans-Serif" font-size="10.00">/StagingUtils.hpp</text>
</a>
</g>
</g>
<!-- Node1&#45;&gt;Node8 -->
<g id="edge7_Node000001_Node000008" class="edge">
<title>Node1&#45;&gt;Node8</title>
<g id="a_edge7_Node000001_Node000008"><a xlink:title=" ">
<path fill="none" stroke="#63b8ff" d="M667.5,-428.87C667.5,-422.11 667.5,-412.35 667.5,-403.26"/>
<polygon fill="#63b8ff" stroke="#63b8ff" points="671,-403.11 667.5,-393.11 664,-403.11 671,-403.11"/>
</a>
</g>
</g>
<!-- Node22 -->
<g id="Node000022" class="node">
<title>Node22</title>
<g id="a_Node000022"><a xlink:href="Archivist_8hpp.html" target="_top" xlink:title=" ">
<polygon fill="white" stroke="#666666" points="1107.5,-255.5 939.5,-255.5 939.5,-236.5 1107.5,-236.5 1107.5,-255.5"/>
<text text-anchor="middle" x="1023.5" y="-243.5" font-family="Helvetica,sans-Serif" font-size="10.00">MayaFlux/Journal/Archivist.hpp</text>
</a>
</g>
</g>
<!-- Node1&#45;&gt;Node22 -->
<g id="edge31_Node000001_Node000022" class="edge">
<title>Node1&#45;&gt;Node22</title>
<g id="a_edge31_Node000001_Node000022"><a xlink:title=" ">
<path fill="none" stroke="#63b8ff" d="M687.18,-428.91C727.27,-411.21 821.01,-368.82 896.5,-327 934.7,-305.84 977.31,-278.1 1002.19,-261.46"/>
<polygon fill="#63b8ff" stroke="#63b8ff" points="1004.46,-264.15 1010.81,-255.67 1000.56,-258.34 1004.46,-264.15"/>
</a>
</g>
</g>
<!-- Node3 -->
<g id="Node000003" class="node">
<title>Node3</title>
<g id="a_Node000003"><a xlink:href="GpuSync_8hpp.html" target="_top" xlink:title=" ">
<polygon fill="white" stroke="#666666" points="288.5,-321.5 208.5,-321.5 208.5,-302.5 288.5,-302.5 288.5,-321.5"/>
<text text-anchor="middle" x="248.5" y="-309.5" font-family="Helvetica,sans-Serif" font-size="10.00">GpuSync.hpp</text>
</a>
</g>
</g>
<!-- Node2&#45;&gt;Node3 -->
<g id="edge2_Node000002_Node000003" class="edge">
<title>Node2&#45;&gt;Node3</title>
<g id="a_edge2_Node000002_Node000003"><a xlink:title=" ">
<path fill="none" stroke="#63b8ff" d="M417.2,-368.37C382.94,-357.12 322.89,-337.42 284.45,-324.8"/>
<polygon fill="#63b8ff" stroke="#63b8ff" points="285.29,-321.39 274.69,-321.6 283.1,-328.04 285.29,-321.39"/>
</a>
</g>
</g>
<!-- Node4 -->
<g id="Node000004" class="node">
<title>Node4</title>
<g id="a_Node000004"><a xlink:href="Node_8hpp.html" target="_top" xlink:title=" ">
<polygon fill="white" stroke="#666666" points="235.5,-255.5 87.5,-255.5 87.5,-236.5 235.5,-236.5 235.5,-255.5"/>
<text text-anchor="middle" x="161.5" y="-243.5" font-family="Helvetica,sans-Serif" font-size="10.00">MayaFlux/Nodes/Node.hpp</text>
</a>
</g>
</g>
<!-- Node3&#45;&gt;Node4 -->
<g id="edge3_Node000003_Node000004" class="edge">
<title>Node3&#45;&gt;Node4</title>
<g id="a_edge3_Node000003_Node000004"><a xlink:title=" ">
<path fill="none" stroke="#63b8ff" d="M236.77,-302.37C222.63,-291.97 198.64,-274.32 181.55,-261.75"/>
<polygon fill="#63b8ff" stroke="#63b8ff" points="183.45,-258.81 173.33,-255.7 179.31,-264.44 183.45,-258.81"/>
</a>
</g>
</g>
<!-- Node5 -->
<g id="Node000005" class="node">
<title>Node5</title>
<g id="a_Node000005"><a xlink:href="GpuContext_8hpp.html" target="_top" xlink:title=" ">
<polygon fill="white" stroke="#666666" points="95,-195 0,-195 0,-176 95,-176 95,-195"/>
<text text-anchor="middle" x="47.5" y="-183" font-family="Helvetica,sans-Serif" font-size="10.00">GpuContext.hpp</text>
</a>
</g>
</g>
<!-- Node4&#45;&gt;Node5 -->
<g id="edge4_Node000004_Node000005" class="edge">
<title>Node4&#45;&gt;Node5</title>
<g id="a_edge4_Node000004_Node000005"><a xlink:title=" ">
<path fill="none" stroke="#63b8ff" d="M144.68,-236.37C125.9,-226.73 95.3,-211.03 73.45,-199.81"/>
<polygon fill="#63b8ff" stroke="#63b8ff" points="74.89,-196.62 64.39,-195.17 71.69,-202.85 74.89,-196.62"/>
</a>
</g>
</g>
<!-- Node6 -->
<g id="Node000006" class="node">
<title>Node6</title>
<g id="a_Node000006"><a xlink:href="NodeUtils_8hpp.html" target="_top" xlink:title=" ">
<polygon fill="white" stroke="#666666" points="283.5,-195 113.5,-195 113.5,-176 283.5,-176 283.5,-195"/>
<text text-anchor="middle" x="198.5" y="-183" font-family="Helvetica,sans-Serif" font-size="10.00">MayaFlux/Nodes/NodeUtils.hpp</text>
</a>
</g>
</g>
<!-- Node4&#45;&gt;Node6 -->
<g id="edge5_Node000004_Node000006" class="edge">
<title>Node4&#45;&gt;Node6</title>
<g id="a_edge5_Node000004_Node000006"><a xlink:title=" ">
<path fill="none" stroke="#63b8ff" d="M166.96,-236.37C172.37,-227.81 180.81,-214.47 187.6,-203.74"/>
<polygon fill="#63b8ff" stroke="#63b8ff" points="190.63,-205.49 193.02,-195.17 184.71,-201.75 190.63,-205.49"/>
</a>
</g>
</g>
<!-- Node7 -->
<g id="Node000007" class="node">
<title>Node7</title>
<g id="a_Node000007"><a xlink:href="NodeSpec_8hpp.html" target="_top" xlink:title=" ">
<polygon fill="white" stroke="#666666" points="241.5,-134.5 155.5,-134.5 155.5,-115.5 241.5,-115.5 241.5,-134.5"/>
<text text-anchor="middle" x="198.5" y="-122.5" font-family="Helvetica,sans-Serif" font-size="10.00">NodeSpec.hpp</text>
</a>
</g>
</g>
<!-- Node6&#45;&gt;Node7 -->
<g id="edge6_Node000006_Node000007" class="edge">
<title>Node6&#45;&gt;Node7</title>
<g id="a_edge6_Node000006_Node000007"><a xlink:title=" ">
<path fill="none" stroke="#63b8ff" d="M198.5,-175.87C198.5,-167.75 198.5,-155.31 198.5,-144.89"/>
<polygon fill="#63b8ff" stroke="#63b8ff" points="202,-144.67 198.5,-134.67 195,-144.67 202,-144.67"/>
</a>
</g>
</g>
<!-- Node9 -->
<g id="Node000009" class="node">
<title>Node9</title>
<g id="a_Node000009"><a xlink:href="VKBuffer_8hpp.html" target="_top" xlink:title=" ">
<polygon fill="white" stroke="#666666" points="560.5,-321.5 392.5,-321.5 392.5,-302.5 560.5,-302.5 560.5,-321.5"/>
<text text-anchor="middle" x="476.5" y="-309.5" font-family="Helvetica,sans-Serif" font-size="10.00">MayaFlux/Buffers/VKBuffer.hpp</text>
</a>
</g>
</g>
<!-- Node8&#45;&gt;Node9 -->
<g id="edge8_Node000008_Node000009" class="edge">
<title>Node8&#45;&gt;Node9</title>
<g id="a_edge8_Node000008_Node000009"><a xlink:title=" ">
<path fill="none" stroke="#63b8ff" d="M625.58,-362.95C591.5,-351.53 543.95,-335.6 511.78,-324.82"/>
<polygon fill="#63b8ff" stroke="#63b8ff" points="512.51,-321.38 501.92,-321.52 510.29,-328.01 512.51,-321.38"/>
</a>
</g>
</g>
<!-- Node20 -->
<g id="Node000020" class="node">
<title>Node20</title>
<g id="a_Node000020"><a xlink:href="DataAccess_8hpp.html" target="_top" xlink:title=" ">
<polygon fill="white" stroke="#666666" points="887,-327 736,-327 736,-297 887,-297 887,-327"/>
<text text-anchor="start" x="744" y="-315" font-family="Helvetica,sans-Serif" font-size="10.00">MayaFlux/Kakshya/NDData</text>
<text text-anchor="middle" x="811.5" y="-304" font-family="Helvetica,sans-Serif" font-size="10.00">/DataAccess.hpp</text>
</a>
</g>
</g>
<!-- Node8&#45;&gt;Node20 -->
<g id="edge21_Node000008_Node000020" class="edge">
<title>Node8&#45;&gt;Node20</title>
<g id="a_edge21_Node000008_Node000020"><a xlink:title=" ">
<path fill="none" stroke="#63b8ff" d="M699.1,-362.95C720.11,-353.62 747.9,-341.27 770.59,-331.18"/>
<polygon fill="#63b8ff" stroke="#63b8ff" points="772.26,-334.27 779.97,-327.01 769.41,-327.88 772.26,-334.27"/>
</a>
</g>
</g>
<!-- Node10 -->
<g id="Node000010" class="node">
<title>Node10</title>
<g id="a_Node000010"><a xlink:href="Buffer_8hpp.html" target="_top" xlink:title=" ">
<polygon fill="white" stroke="#666666" points="319.5,-255.5 253.5,-255.5 253.5,-236.5 319.5,-236.5 319.5,-255.5"/>
<text text-anchor="middle" x="286.5" y="-243.5" font-family="Helvetica,sans-Serif" font-size="10.00">Buffer.hpp</text>
</a>
</g>
</g>
<!-- Node9&#45;&gt;Node10 -->
<g id="edge9_Node000009_Node000010" class="edge">
<title>Node9&#45;&gt;Node10</title>
<g id="a_edge9_Node000009_Node000010"><a xlink:title=" ">
<path fill="none" stroke="#63b8ff" d="M450.88,-302.37C417.49,-291.12 358.99,-271.42 321.53,-258.8"/>
<polygon fill="#63b8ff" stroke="#63b8ff" points="322.62,-255.47 312.02,-255.6 320.38,-262.11 322.62,-255.47"/>
</a>
</g>
</g>
<!-- Node11 -->
<g id="Node000011" class="node">
<title>Node11</title>
<g id="a_Node000011"><a xlink:href="BufferProcessor_8hpp.html" target="_top" xlink:title=" ">
<polygon fill="white" stroke="#666666" points="577.5,-255.5 375.5,-255.5 375.5,-236.5 577.5,-236.5 577.5,-255.5"/>
<text text-anchor="middle" x="476.5" y="-243.5" font-family="Helvetica,sans-Serif" font-size="10.00">MayaFlux/Buffers/BufferProcessor.hpp</text>
</a>
</g>
</g>
<!-- Node9&#45;&gt;Node11 -->
<g id="edge10_Node000009_Node000011" class="edge">
<title>Node9&#45;&gt;Node11</title>
<g id="a_edge10_Node000009_Node000011"><a xlink:title=" ">
<path fill="none" stroke="#63b8ff" d="M476.5,-302.37C476.5,-293.16 476.5,-278.29 476.5,-266.27"/>
<polygon fill="#63b8ff" stroke="#63b8ff" points="480,-265.91 476.5,-255.91 473,-265.91 480,-265.91"/>
</a>
</g>
</g>
<!-- Node13 -->
<g id="Node000013" class="node">
<title>Node13</title>
<g id="a_Node000013"><a xlink:href="ProcessingTokens_8hpp.html" target="_top" xlink:title=" ">
<polygon fill="white" stroke="#666666" points="457.5,-140 311.5,-140 311.5,-110 457.5,-110 457.5,-140"/>
<text text-anchor="start" x="319.5" y="-128" font-family="Helvetica,sans-Serif" font-size="10.00">MayaFlux/Core/Processing</text>
<text text-anchor="middle" x="384.5" y="-117" font-family="Helvetica,sans-Serif" font-size="10.00">Tokens.hpp</text>
</a>
</g>
</g>
<!-- Node9&#45;&gt;Node13 -->
<g id="edge16_Node000009_Node000013" class="edge">
<title>Node9&#45;&gt;Node13</title>
<g id="a_edge16_Node000009_Node000013"><a xlink:title=" ">
<path fill="none" stroke="#63b8ff" d="M430.72,-302.44C407.25,-295.48 380.7,-283.05 366.5,-261 344.63,-227.03 359.97,-178.27 372.59,-149.6"/>
<polygon fill="#63b8ff" stroke="#63b8ff" points="375.85,-150.89 376.88,-140.35 369.5,-147.95 375.85,-150.89"/>
</a>
</g>
</g>
<!-- Node17 -->
<g id="Node000017" class="node">
<title>Node17</title>
<g id="a_Node000017"><a xlink:href="ShaderUtils_8hpp.html" target="_top" xlink:title=" ">
<polygon fill="white" stroke="#666666" points="737.5,-261 595.5,-261 595.5,-231 737.5,-231 737.5,-261"/>
<text text-anchor="start" x="603.5" y="-249" font-family="Helvetica,sans-Serif" font-size="10.00">MayaFlux/Portal/Graphics</text>
<text text-anchor="middle" x="666.5" y="-238" font-family="Helvetica,sans-Serif" font-size="10.00">/ShaderUtils.hpp</text>
</a>
</g>
</g>
<!-- Node9&#45;&gt;Node17 -->
<g id="edge17_Node000009_Node000017" class="edge">
<title>Node9&#45;&gt;Node17</title>
<g id="a_edge17_Node000009_Node000017"><a xlink:title=" ">
<path fill="none" stroke="#63b8ff" d="M502.12,-302.37C530.95,-292.66 578.51,-276.64 615.08,-264.32"/>
<polygon fill="#63b8ff" stroke="#63b8ff" points="616.23,-267.62 624.59,-261.12 614,-260.99 616.23,-267.62"/>
</a>
</g>
</g>
<!-- Node12 -->
<g id="Node000012" class="node">
<title>Node12</title>
<g id="a_Node000012"><a xlink:href="BufferUtils_8hpp.html" target="_top" xlink:title=" ">
<polygon fill="white" stroke="#666666" points="465,-195 376,-195 376,-176 465,-176 465,-195"/>
<text text-anchor="middle" x="420.5" y="-183" font-family="Helvetica,sans-Serif" font-size="10.00">BufferUtils.hpp</text>
</a>
</g>
</g>
<!-- Node11&#45;&gt;Node12 -->
<g id="edge11_Node000011_Node000012" class="edge">
<title>Node11&#45;&gt;Node12</title>
<g id="a_edge11_Node000011_Node000012"><a xlink:title=" ">
<path fill="none" stroke="#63b8ff" d="M468.24,-236.37C459.72,-227.47 446.24,-213.39 435.77,-202.45"/>
<polygon fill="#63b8ff" stroke="#63b8ff" points="438.24,-199.97 428.8,-195.17 433.18,-204.81 438.24,-199.97"/>
</a>
</g>
</g>
<!-- Node12&#45;&gt;Node13 -->
<g id="edge12_Node000012_Node000013" class="edge">
<title>Node12&#45;&gt;Node13</title>
<g id="a_edge12_Node000012_Node000013"><a xlink:title=" ">
<path fill="none" stroke="#63b8ff" d="M415.19,-175.87C410.8,-168.74 404.37,-158.28 398.52,-148.79"/>
<polygon fill="#63b8ff" stroke="#63b8ff" points="401.41,-146.8 393.19,-140.11 395.45,-150.47 401.41,-146.8"/>
</a>
</g>
</g>
<!-- Node14 -->
<g id="Node000014" class="node">
<title>Node14</title>
<g id="a_Node000014"><a xlink:href="VertexLayout_8hpp.html" target="_top" xlink:title=" ">
<polygon fill="white" stroke="#666666" points="747,-140 596,-140 596,-110 747,-110 747,-140"/>
<text text-anchor="start" x="604" y="-128" font-family="Helvetica,sans-Serif" font-size="10.00">MayaFlux/Kakshya/NDData</text>
<text text-anchor="middle" x="671.5" y="-117" font-family="Helvetica,sans-Serif" font-size="10.00">/VertexLayout.hpp</text>
</a>
</g>
</g>
<!-- Node12&#45;&gt;Node14 -->
<g id="edge13_Node000012_Node000014" class="edge">
<title>Node12&#45;&gt;Node14</title>
<g id="a_edge13_Node000012_Node000014"><a xlink:title=" ">
<path fill="none" stroke="#63b8ff" d="M457,-175.99C494.7,-167.21 554.47,-153.27 601.36,-142.35"/>
<polygon fill="#63b8ff" stroke="#63b8ff" points="602.21,-145.74 611.16,-140.06 600.62,-138.93 602.21,-145.74"/>
</a>
</g>
</g>
<!-- Node15 -->
<g id="Node000015" class="node">
<title>Node15</title>
<g id="a_Node000015"><a xlink:href="NDData_8hpp.html" target="_top" xlink:title=" ">
<polygon fill="white" stroke="#666666" points="761.5,-74 685.5,-74 685.5,-55 761.5,-55 761.5,-74"/>
<text text-anchor="middle" x="723.5" y="-62" font-family="Helvetica,sans-Serif" font-size="10.00">NDData.hpp</text>
</a>
</g>
</g>
<!-- Node14&#45;&gt;Node15 -->
<g id="edge14_Node000014_Node000015" class="edge">
<title>Node14&#45;&gt;Node15</title>
<g id="a_edge14_Node000014_Node000015"><a xlink:title=" ">
<path fill="none" stroke="#63b8ff" d="M684.09,-109.84C691.56,-101.43 701.06,-90.74 708.87,-81.96"/>
<polygon fill="#63b8ff" stroke="#63b8ff" points="711.68,-84.07 715.71,-74.27 706.45,-79.41 711.68,-84.07"/>
</a>
</g>
</g>
<!-- Node16 -->
<g id="Node000016" class="node">
<title>Node16</title>
<g id="a_Node000016"><a xlink:title=" ">
<polygon fill="#e0e0e0" stroke="#999999" points="762.5,-19 684.5,-19 684.5,0 762.5,0 762.5,-19"/>
<text text-anchor="middle" x="723.5" y="-7" font-family="Helvetica,sans-Serif" font-size="10.00">glm/glm.hpp</text>
</a>
</g>
</g>
<!-- Node15&#45;&gt;Node16 -->
<g id="edge15_Node000015_Node000016" class="edge">
<title>Node15&#45;&gt;Node16</title>
<g id="a_edge15_Node000015_Node000016"><a xlink:title=" ">
<path fill="none" stroke="#63b8ff" d="M723.5,-54.75C723.5,-47.8 723.5,-37.85 723.5,-29.13"/>
<polygon fill="#63b8ff" stroke="#63b8ff" points="727,-29.09 723.5,-19.09 720,-29.09 727,-29.09"/>
</a>
</g>
</g>
<!-- Node17&#45;&gt;Node14 -->
<g id="edge20_Node000017_Node000014" class="edge">
<title>Node17&#45;&gt;Node14</title>
<g id="a_edge20_Node000017_Node000014"><a xlink:title=" ">
<path fill="none" stroke="#63b8ff" d="M688.06,-230.86C699.42,-222.05 712.27,-209.63 718.5,-195 725.93,-177.56 713.5,-159.93 699.56,-146.86"/>
<polygon fill="#63b8ff" stroke="#63b8ff" points="701.63,-144.01 691.78,-140.09 697.03,-149.3 701.63,-144.01"/>
</a>
</g>
</g>
<!-- Node18 -->
<g id="Node000018" class="node">
<title>Node18</title>
<g id="a_Node000018"><a xlink:title=" ">
<polygon fill="#e0e0e0" stroke="#999999" points="588,-195 483,-195 483,-176 588,-176 588,-195"/>
<text text-anchor="middle" x="535.5" y="-183" font-family="Helvetica,sans-Serif" font-size="10.00">vulkan/vulkan.hpp</text>
</a>
</g>
</g>
<!-- Node17&#45;&gt;Node18 -->
<g id="edge18_Node000017_Node000018" class="edge">
<title>Node17&#45;&gt;Node18</title>
<g id="a_edge18_Node000017_Node000018"><a xlink:title=" ">
<path fill="none" stroke="#63b8ff" d="M635.12,-230.99C613.56,-221.36 585.15,-208.67 564.19,-199.31"/>
<polygon fill="#63b8ff" stroke="#63b8ff" points="565.4,-196.02 554.85,-195.14 562.55,-202.41 565.4,-196.02"/>
</a>
</g>
</g>
<!-- Node19 -->
<g id="Node000019" class="node">
<title>Node19</title>
<g id="a_Node000019"><a xlink:href="GraphicsUtils_8hpp.html" target="_top" xlink:title=" ">
<polygon fill="white" stroke="#666666" points="709,-195 606,-195 606,-176 709,-176 709,-195"/>
<text text-anchor="middle" x="657.5" y="-183" font-family="Helvetica,sans-Serif" font-size="10.00">GraphicsUtils.hpp</text>
</a>
</g>
</g>
<!-- Node17&#45;&gt;Node19 -->
<g id="edge19_Node000017_Node000019" class="edge">
<title>Node17&#45;&gt;Node19</title>
<g id="a_edge19_Node000017_Node000019"><a xlink:title=" ">
<path fill="none" stroke="#63b8ff" d="M664.32,-230.84C663.13,-223.13 661.65,-213.49 660.37,-205.17"/>
<polygon fill="#63b8ff" stroke="#63b8ff" points="663.83,-204.62 658.85,-195.27 656.91,-205.68 663.83,-204.62"/>
</a>
</g>
</g>
<!-- Node20&#45;&gt;Node15 -->
<g id="edge22_Node000020_Node000015" class="edge">
<title>Node20&#45;&gt;Node15</title>
<g id="a_edge22_Node000020_Node000015"><a xlink:title=" ">
<path fill="none" stroke="#63b8ff" d="M806.66,-296.63C803.37,-286.67 798.99,-273.08 795.5,-261 776.26,-194.41 786.36,-172.55 756.5,-110 751.69,-99.93 744.46,-89.85 738,-81.83"/>
<polygon fill="#63b8ff" stroke="#63b8ff" points="740.55,-79.43 731.43,-74.04 735.2,-83.94 740.55,-79.43"/>
</a>
</g>
</g>
<!-- Node21 -->
<g id="Node000021" class="node">
<title>Node21</title>
<g id="a_Node000021"><a xlink:title=" ">
<polygon fill="#e0e0e0" stroke="#999999" points="921,-255.5 804,-255.5 804,-236.5 921,-236.5 921,-255.5"/>
<text text-anchor="middle" x="862.5" y="-243.5" font-family="Helvetica,sans-Serif" font-size="10.00">glm/gtc/type_ptr.hpp</text>
</a>
</g>
</g>
<!-- Node20&#45;&gt;Node21 -->
<g id="edge23_Node000020_Node000021" class="edge">
<title>Node20&#45;&gt;Node21</title>
<g id="a_edge23_Node000020_Node000021"><a xlink:title=" ">
<path fill="none" stroke="#63b8ff" d="M822.82,-296.8C830.61,-287.01 841,-273.98 849.19,-263.7"/>
<polygon fill="#63b8ff" stroke="#63b8ff" points="851.96,-265.85 855.45,-255.84 846.48,-261.48 851.96,-265.85"/>
</a>
</g>
</g>
<!-- Node20&#45;&gt;Node22 -->
<g id="edge24_Node000020_Node000022" class="edge">
<title>Node20&#45;&gt;Node22</title>
<g id="a_edge24_Node000020_Node000022"><a xlink:title=" ">
<path fill="none" stroke="#63b8ff" d="M858.02,-296.95C896.19,-285.43 949.55,-269.32 985.26,-258.54"/>
<polygon fill="#63b8ff" stroke="#63b8ff" points="986.72,-261.76 995.29,-255.52 984.7,-255.06 986.72,-261.76"/>
</a>
</g>
</g>
<!-- Node23 -->
<g id="Node000023" class="node">
<title>Node23</title>
<g id="a_Node000023"><a xlink:href="Format_8hpp.html" target="_top" xlink:title=" ">
<polygon fill="white" stroke="#666666" points="996.5,-195 924.5,-195 924.5,-176 996.5,-176 996.5,-195"/>
<text text-anchor="middle" x="960.5" y="-183" font-family="Helvetica,sans-Serif" font-size="10.00">Format.hpp</text>
</a>
</g>
</g>
<!-- Node22&#45;&gt;Node23 -->
<g id="edge25_Node000022_Node000023" class="edge">
<title>Node22&#45;&gt;Node23</title>
<g id="a_edge25_Node000022_Node000023"><a xlink:title=" ">
<path fill="none" stroke="#63b8ff" d="M1014.2,-236.37C1004.53,-227.38 989.16,-213.11 977.34,-202.14"/>
<polygon fill="#63b8ff" stroke="#63b8ff" points="979.54,-199.41 969.83,-195.17 974.78,-204.54 979.54,-199.41"/>
</a>
</g>
</g>
<!-- Node24 -->
<g id="Node000024" class="node">
<title>Node24</title>
<g id="a_Node000024"><a xlink:href="JournalEntry_8hpp.html" target="_top" xlink:title=" ">
<polygon fill="white" stroke="#666666" points="1110,-195 1015,-195 1015,-176 1110,-176 1110,-195"/>
<text text-anchor="middle" x="1062.5" y="-183" font-family="Helvetica,sans-Serif" font-size="10.00">JournalEntry.hpp</text>
</a>
</g>
</g>
<!-- Node22&#45;&gt;Node24 -->
<g id="edge26_Node000022_Node000024" class="edge">
<title>Node22&#45;&gt;Node24</title>
<g id="a_edge26_Node000022_Node000024"><a xlink:title=" ">
<path fill="none" stroke="#63b8ff" d="M1029.25,-236.37C1034.96,-227.81 1043.85,-214.47 1051.01,-203.74"/>
<polygon fill="#63b8ff" stroke="#63b8ff" points="1054.09,-205.43 1056.72,-195.17 1048.26,-201.55 1054.09,-205.43"/>
</a>
</g>
</g>
<!-- Node25 -->
<g id="Node000025" class="node">
<title>Node25</title>
<g id="a_Node000025"><a xlink:href="EnumReflect_8hpp.html" target="_top" xlink:title=" ">
<polygon fill="white" stroke="#666666" points="967,-140 828,-140 828,-110 967,-110 967,-140"/>
<text text-anchor="start" x="836" y="-128" font-family="Helvetica,sans-Serif" font-size="10.00">MayaFlux/Transitive</text>
<text text-anchor="middle" x="897.5" y="-117" font-family="Helvetica,sans-Serif" font-size="10.00">/Reflect/EnumReflect.hpp</text>
</a>
</g>
</g>
<!-- Node24&#45;&gt;Node25 -->
<g id="edge27_Node000024_Node000025" class="edge">
<title>Node24&#45;&gt;Node25</title>
<g id="a_edge27_Node000024_Node000025"><a xlink:title=" ">
<path fill="none" stroke="#63b8ff" d="M1038.51,-175.99C1014.55,-167.5 977.04,-154.2 946.73,-143.45"/>
<polygon fill="#63b8ff" stroke="#63b8ff" points="947.76,-140.11 937.17,-140.06 945.42,-146.7 947.76,-140.11"/>
</a>
</g>
</g>
<!-- Node26 -->
<g id="Node000026" class="node">
<title>Node26</title>
<g id="a_Node000026"><a xlink:title=" ">
<polygon fill="#e0e0e0" stroke="#999999" points="1035.5,-134.5 985.5,-134.5 985.5,-115.5 1035.5,-115.5 1035.5,-134.5"/>
<text text-anchor="middle" x="1010.5" y="-122.5" font-family="Helvetica,sans-Serif" font-size="10.00">chrono</text>
</a>
</g>
</g>
<!-- Node24&#45;&gt;Node26 -->
<g id="edge28_Node000024_Node000026" class="edge">
<title>Node24&#45;&gt;Node26</title>
<g id="a_edge28_Node000024_Node000026"><a xlink:title=" ">
<path fill="none" stroke="#63b8ff" d="M1054.83,-175.87C1046.99,-167.05 1034.64,-153.16 1024.96,-142.27"/>
<polygon fill="#63b8ff" stroke="#63b8ff" points="1027.46,-139.82 1018.2,-134.67 1022.23,-144.47 1027.46,-139.82"/>
</a>
</g>
</g>
<!-- Node27 -->
<g id="Node000027" class="node">
<title>Node27</title>
<g id="a_Node000027"><a xlink:title=" ">
<polygon fill="#e0e0e0" stroke="#999999" points="1147,-134.5 1054,-134.5 1054,-115.5 1147,-115.5 1147,-134.5"/>
<text text-anchor="middle" x="1100.5" y="-122.5" font-family="Helvetica,sans-Serif" font-size="10.00">source_location</text>
</a>
</g>
</g>
<!-- Node24&#45;&gt;Node27 -->
<g id="edge29_Node000024_Node000027" class="edge">
<title>Node24&#45;&gt;Node27</title>
<g id="a_edge29_Node000024_Node000027"><a xlink:title=" ">
<path fill="none" stroke="#63b8ff" d="M1068.11,-175.87C1073.66,-167.31 1082.33,-153.97 1089.3,-143.24"/>
<polygon fill="#63b8ff" stroke="#63b8ff" points="1092.36,-144.96 1094.87,-134.67 1086.49,-141.15 1092.36,-144.96"/>
</a>
</g>
</g>
<!-- Node28 -->
<g id="Node000028" class="node">
<title>Node28</title>
<g id="a_Node000028"><a xlink:title=" ">
<polygon fill="#e0e0e0" stroke="#999999" points="1238,-134.5 1165,-134.5 1165,-115.5 1238,-115.5 1238,-134.5"/>
<text text-anchor="middle" x="1201.5" y="-122.5" font-family="Helvetica,sans-Serif" font-size="10.00">string_view</text>
</a>
</g>
</g>
<!-- Node24&#45;&gt;Node28 -->
<g id="edge30_Node000024_Node000028" class="edge">
<title>Node24&#45;&gt;Node28</title>
<g id="a_edge30_Node000024_Node000028"><a xlink:title=" ">
<path fill="none" stroke="#63b8ff" d="M1082.71,-175.99C1106.18,-166.12 1145.11,-149.73 1171.96,-138.43"/>
<polygon fill="#63b8ff" stroke="#63b8ff" points="1173.4,-141.62 1181.26,-134.52 1170.69,-135.17 1173.4,-141.62"/>
</a>
</g>
</g>
</g>
</svg>
