<?xml version="1.0" encoding="UTF-8" standalone="no"?>
<!DOCTYPE svg PUBLIC "-//W3C//DTD SVG 1.1//EN"
 "http://www.w3.org/Graphics/SVG/1.1/DTD/svg11.dtd">
<!-- Generated by graphviz version 2.43.0 (0)
 -->
<!-- Title: ContiguousAccessProcessor.cpp Pages: 1 -->
<!--zoomable 456 -->

<svg id="main" version="1.1" xmlns="http://www.w3.org/2000/svg" xmlns:xlink="http://www.w3.org/1999/xlink" xml:space="preserve" onload="init(evt)">
<style type="text/css"><![CDATA[
.node, .edge {opacity: 0.7;}
.node.selected, .edge.selected {opacity: 1;}
.edge:hover path { stroke: red; }
.edge:hover polygon { stroke: red; fill: red; }
]]></style>

<defs>
  <circle id="rim" cx="0" cy="0" r="7"/>
  <circle id="rim2" cx="0" cy="0" r="3.5"/>
  <g id="zoomPlus">
    <use xlink:href="#rim" fill="#404040"><set attributeName="fill" to="#808080" begin="zoomplus.mouseover" end="zoomplus.mouseout"/></use>
    <path d="M-4,0h8M0,-4v8" fill="none" stroke="white" stroke-width="1.5" pointer-events="none"/>
  </g>
  <g id="zoomMin">
    <use xlink:href="#rim" fill="#404040"><set attributeName="fill" to="#808080" begin="zoomminus.mouseover" end="zoomminus.mouseout"/></use>
    <path d="M-4,0h8" fill="none" stroke="white" stroke-width="1.5" pointer-events="none"/>
  </g>
  <g id="arrowUp" transform="translate(30 24)">
    <use xlink:href="#rim"/>
    <path pointer-events="none" fill="none" stroke="white" stroke-width="1.5" d="M0,-3.0v7 M-2.5,-0.5L0,-3.0L2.5,-0.5"/>
  </g>
  <g id="arrowRight" transform="rotate(90) translate(36 -43)">
    <use xlink:href="#rim"/>
    <path pointer-events="none" fill="none" stroke="white" stroke-width="1.5" d="M0,-3.0v7 M-2.5,-0.5L0,-3.0L2.5,-0.5"/>
  </g>
  <g id="arrowDown" transform="rotate(180) translate(-30 -48)">
    <use xlink:href="#rim"/>
    <path pointer-events="none" fill="none" stroke="white" stroke-width="1.5" d="M0,-3.0v7 M-2.5,-0.5L0,-3.0L2.5,-0.5"/>
  </g>
  <g id="arrowLeft" transform="rotate(270) translate(-36 17)">
    <use xlink:href="#rim"/>
    <path pointer-events="none" fill="none" stroke="white" stroke-width="1.5" d="M0,-3.0v7 M-2.5,-0.5L0,-3.0L2.5,-0.5"/>
  </g>
  <g id="resetDef">
    <use xlink:href="#rim2" fill="#404040"><set attributeName="fill" to="#808080" begin="reset.mouseover" end="reset.mouseout"/></use>
  </g>
</defs>
<script type="application/ecmascript">
var viewWidth = 1226;
var viewHeight = 456;
var sectionId = 'dynsection-0';
</script>
<script type="application/ecmascript" xlink:href="svg.min.js"/>
<svg id="graph" class="graph">
<g id="viewport">
<title>ContiguousAccessProcessor.cpp</title>
<!-- Node1 -->
<g id="Node000001" class="node">
<title>Node1</title>
<g id="a_Node000001"><a xlink:title=" ">
<polygon fill="#999999" stroke="#666666" points="544.01,-448 372.01,-448 372.01,-429 544.01,-429 544.01,-448"/>
<text text-anchor="middle" x="458.01" y="-436" font-family="Helvetica,sans-Serif" font-size="10.00">ContiguousAccessProcessor.cpp</text>
</a>
</g>
</g>
<!-- Node2 -->
<g id="Node000002" class="node">
<title>Node2</title>
<g id="a_Node000002"><a xlink:href="ContiguousAccessProcessor_8hpp.html" target="_top" xlink:title=" ">
<polygon fill="white" stroke="#666666" points="232.51,-261 59.51,-261 59.51,-242 232.51,-242 232.51,-261"/>
<text text-anchor="middle" x="146.01" y="-249" font-family="Helvetica,sans-Serif" font-size="10.00">ContiguousAccessProcessor.hpp</text>
</a>
</g>
</g>
<!-- Node1&#45;&gt;Node2 -->
<g id="edge1_Node000001_Node000002" class="edge">
<title>Node1&#45;&gt;Node2</title>
<g id="a_edge1_Node000001_Node000002"><a xlink:title=" ">
<path fill="none" stroke="#63b8ff" d="M371.79,-434.02C330.63,-428.9 282.34,-417.54 245.01,-393 198.17,-362.21 166.76,-300.96 153.36,-270.52"/>
<polygon fill="#63b8ff" stroke="#63b8ff" points="156.51,-268.98 149.38,-261.15 150.07,-271.72 156.51,-268.98"/>
</a>
</g>
</g>
<!-- Node9 -->
<g id="Node000009" class="node">
<title>Node9</title>
<g id="a_Node000009"><a xlink:href="StreamContainer_8hpp.html" target="_top" xlink:title=" ">
<polygon fill="white" stroke="#666666" points="469.51,-387.5 254.51,-387.5 254.51,-368.5 469.51,-368.5 469.51,-387.5"/>
<text text-anchor="middle" x="362.01" y="-375.5" font-family="Helvetica,sans-Serif" font-size="10.00">MayaFlux/Kakshya/StreamContainer.hpp</text>
</a>
</g>
</g>
<!-- Node1&#45;&gt;Node9 -->
<g id="edge9_Node000001_Node000009" class="edge">
<title>Node1&#45;&gt;Node9</title>
<g id="a_edge9_Node000001_Node000009"><a xlink:title=" ">
<path fill="none" stroke="#63b8ff" d="M443.84,-428.87C428.32,-419.41 403.18,-404.09 384.86,-392.92"/>
<polygon fill="#63b8ff" stroke="#63b8ff" points="386.59,-389.88 376.23,-387.67 382.95,-395.86 386.59,-389.88"/>
</a>
</g>
</g>
<!-- Node12 -->
<g id="Node000012" class="node">
<title>Node12</title>
<g id="a_Node000012"><a xlink:href="DataUtils_8hpp.html" target="_top" xlink:title=" ">
<polygon fill="white" stroke="#666666" points="1055.51,-393 920.51,-393 920.51,-363 1055.51,-363 1055.51,-393"/>
<text text-anchor="start" x="928.51" y="-381" font-family="Helvetica,sans-Serif" font-size="10.00">MayaFlux/Kakshya/Utils</text>
<text text-anchor="middle" x="988.01" y="-370" font-family="Helvetica,sans-Serif" font-size="10.00">/DataUtils.hpp</text>
</a>
</g>
</g>
<!-- Node1&#45;&gt;Node12 -->
<g id="edge14_Node000001_Node000012" class="edge">
<title>Node1&#45;&gt;Node12</title>
<g id="a_edge14_Node000001_Node000012"><a xlink:title=" ">
<path fill="none" stroke="#63b8ff" d="M535.08,-428.99C635.28,-417.93 809.33,-398.72 910,-387.61"/>
<polygon fill="#63b8ff" stroke="#63b8ff" points="910.55,-391.07 920.1,-386.5 909.78,-384.11 910.55,-391.07"/>
</a>
</g>
</g>
<!-- Node21 -->
<g id="Node000021" class="node">
<title>Node21</title>
<g id="a_Node000021"><a xlink:href="RegionUtils_8hpp.html" target="_top" xlink:title=" ">
<polygon fill="white" stroke="#666666" points="622.51,-393 487.51,-393 487.51,-363 622.51,-363 622.51,-393"/>
<text text-anchor="start" x="495.51" y="-381" font-family="Helvetica,sans-Serif" font-size="10.00">MayaFlux/Kakshya/Utils</text>
<text text-anchor="middle" x="555.01" y="-370" font-family="Helvetica,sans-Serif" font-size="10.00">/RegionUtils.hpp</text>
</a>
</g>
</g>
<!-- Node1&#45;&gt;Node21 -->
<g id="edge24_Node000001_Node000021" class="edge">
<title>Node1&#45;&gt;Node21</title>
<g id="a_edge24_Node000001_Node000021"><a xlink:title=" ">
<path fill="none" stroke="#63b8ff" d="M472.32,-428.87C485.6,-420.86 505.85,-408.65 522.98,-398.31"/>
<polygon fill="#63b8ff" stroke="#63b8ff" points="524.85,-401.28 531.6,-393.11 521.23,-395.28 524.85,-401.28"/>
</a>
</g>
</g>
<!-- Node3 -->
<g id="Node000003" class="node">
<title>Node3</title>
<g id="a_Node000003"><a xlink:href="DataProcessor_8hpp.html" target="_top" xlink:title=" ">
<polygon fill="white" stroke="#666666" points="220.51,-200.5 17.51,-200.5 17.51,-181.5 220.51,-181.5 220.51,-200.5"/>
<text text-anchor="middle" x="119.01" y="-188.5" font-family="Helvetica,sans-Serif" font-size="10.00">MayaFlux/Kakshya/DataProcessor.hpp</text>
</a>
</g>
</g>
<!-- Node2&#45;&gt;Node3 -->
<g id="edge2_Node000002_Node000003" class="edge">
<title>Node2&#45;&gt;Node3</title>
<g id="a_edge2_Node000002_Node000003"><a xlink:title=" ">
<path fill="none" stroke="#63b8ff" d="M142.02,-241.87C138.16,-233.49 132.17,-220.51 127.27,-209.89"/>
<polygon fill="#63b8ff" stroke="#63b8ff" points="130.38,-208.28 123.01,-200.67 124.02,-211.21 130.38,-208.28"/>
</a>
</g>
</g>
<!-- Node4 -->
<g id="Node000004" class="node">
<title>Node4</title>
<g id="a_Node000004"><a xlink:href="NDimensionalContainer_8hpp.html" target="_top" xlink:title=" ">
<polygon fill="white" stroke="#666666" points="421.01,-206 239.01,-206 239.01,-176 421.01,-176 421.01,-206"/>
<text text-anchor="start" x="247.01" y="-194" font-family="Helvetica,sans-Serif" font-size="10.00">MayaFlux/Kakshya/NDimensional</text>
<text text-anchor="middle" x="330.01" y="-183" font-family="Helvetica,sans-Serif" font-size="10.00">Container.hpp</text>
</a>
</g>
</g>
<!-- Node2&#45;&gt;Node4 -->
<g id="edge3_Node000002_Node000004" class="edge">
<title>Node2&#45;&gt;Node4</title>
<g id="a_edge3_Node000002_Node000004"><a xlink:title=" ">
<path fill="none" stroke="#63b8ff" d="M172.76,-241.99C199.71,-233.43 242.03,-219.97 275.98,-209.18"/>
<polygon fill="#63b8ff" stroke="#63b8ff" points="277.3,-212.43 285.77,-206.06 275.18,-205.76 277.3,-212.43"/>
</a>
</g>
</g>
<!-- Node8 -->
<g id="Node000008" class="node">
<title>Node8</title>
<g id="a_Node000008"><a xlink:href="Region_8hpp.html" target="_top" xlink:title=" ">
<polygon fill="white" stroke="#666666" points="581.01,-140 435.01,-140 435.01,-110 581.01,-110 581.01,-140"/>
<text text-anchor="start" x="443.01" y="-128" font-family="Helvetica,sans-Serif" font-size="10.00">MayaFlux/Kakshya/Region</text>
<text text-anchor="middle" x="508.01" y="-117" font-family="Helvetica,sans-Serif" font-size="10.00">/Region.hpp</text>
</a>
</g>
</g>
<!-- Node2&#45;&gt;Node8 -->
<g id="edge7_Node000002_Node000008" class="edge">
<title>Node2&#45;&gt;Node8</title>
<g id="a_edge7_Node000002_Node000008"><a xlink:title=" ">
<path fill="none" stroke="#63b8ff" d="M96.51,-241.97C45.52,-231.14 -22.5,-209.71 8.01,-176 35.38,-145.76 289.56,-133.02 424.59,-128.35"/>
<polygon fill="#63b8ff" stroke="#63b8ff" points="425.02,-131.84 434.89,-128 424.78,-124.84 425.02,-131.84"/>
</a>
</g>
</g>
<!-- Node5 -->
<g id="Node000005" class="node">
<title>Node5</title>
<g id="a_Node000005"><a xlink:href="NDData_8hpp.html" target="_top" xlink:title=" ">
<polygon fill="white" stroke="#666666" points="566.51,-74 449.51,-74 449.51,-55 566.51,-55 566.51,-74"/>
<text text-anchor="middle" x="508.01" y="-62" font-family="Helvetica,sans-Serif" font-size="10.00">NDData/NDData.hpp</text>
</a>
</g>
</g>
<!-- Node4&#45;&gt;Node5 -->
<g id="edge4_Node000004_Node000005" class="edge">
<title>Node4&#45;&gt;Node5</title>
<g id="a_edge4_Node000004_Node000005"><a xlink:title=" ">
<path fill="none" stroke="#63b8ff" d="M344.9,-175.99C363.17,-159.19 395.49,-130.7 426.01,-110 443.49,-98.14 464.44,-86.82 480.79,-78.56"/>
<polygon fill="#63b8ff" stroke="#63b8ff" points="482.42,-81.66 489.82,-74.07 479.31,-75.39 482.42,-81.66"/>
</a>
</g>
</g>
<!-- Node6 -->
<g id="Node000006" class="node">
<title>Node6</title>
<g id="a_Node000006"><a xlink:title=" ">
<polygon fill="#e0e0e0" stroke="#999999" points="502.01,-19 424.01,-19 424.01,0 502.01,0 502.01,-19"/>
<text text-anchor="middle" x="463.01" y="-7" font-family="Helvetica,sans-Serif" font-size="10.00">glm/glm.hpp</text>
</a>
</g>
</g>
<!-- Node5&#45;&gt;Node6 -->
<g id="edge5_Node000005_Node000006" class="edge">
<title>Node5&#45;&gt;Node6</title>
<g id="a_edge5_Node000005_Node000006"><a xlink:title=" ">
<path fill="none" stroke="#63b8ff" d="M500.58,-54.75C494.16,-47.18 484.7,-36.05 476.89,-26.84"/>
<polygon fill="#63b8ff" stroke="#63b8ff" points="479.44,-24.45 470.3,-19.09 474.11,-28.98 479.44,-24.45"/>
</a>
</g>
</g>
<!-- Node7 -->
<g id="Node000007" class="node">
<title>Node7</title>
<g id="a_Node000007"><a xlink:title=" ">
<polygon fill="#e0e0e0" stroke="#999999" points="585.51,-19 520.51,-19 520.51,0 585.51,0 585.51,-19"/>
<text text-anchor="middle" x="553.01" y="-7" font-family="Helvetica,sans-Serif" font-size="10.00">typeindex</text>
</a>
</g>
</g>
<!-- Node5&#45;&gt;Node7 -->
<g id="edge6_Node000005_Node000007" class="edge">
<title>Node5&#45;&gt;Node7</title>
<g id="a_edge6_Node000005_Node000007"><a xlink:title=" ">
<path fill="none" stroke="#63b8ff" d="M515.44,-54.75C521.86,-47.18 531.31,-36.05 539.13,-26.84"/>
<polygon fill="#63b8ff" stroke="#63b8ff" points="541.91,-28.98 545.72,-19.09 536.58,-24.45 541.91,-28.98"/>
</a>
</g>
</g>
<!-- Node8&#45;&gt;Node5 -->
<g id="edge8_Node000008_Node000005" class="edge">
<title>Node8&#45;&gt;Node5</title>
<g id="a_edge8_Node000008_Node000005"><a xlink:title=" ">
<path fill="none" stroke="#63b8ff" d="M508.01,-109.84C508.01,-102.21 508.01,-92.7 508.01,-84.45"/>
<polygon fill="#63b8ff" stroke="#63b8ff" points="511.51,-84.27 508.01,-74.27 504.51,-84.27 511.51,-84.27"/>
</a>
</g>
</g>
<!-- Node10 -->
<g id="Node000010" class="node">
<title>Node10</title>
<g id="a_Node000010"><a xlink:href="SignalSourceContainer_8hpp.html" target="_top" xlink:title=" ">
<polygon fill="white" stroke="#666666" points="457.51,-261 310.51,-261 310.51,-242 457.51,-242 457.51,-261"/>
<text text-anchor="middle" x="384.01" y="-249" font-family="Helvetica,sans-Serif" font-size="10.00">SignalSourceContainer.hpp</text>
</a>
</g>
</g>
<!-- Node9&#45;&gt;Node10 -->
<g id="edge10_Node000009_Node000010" class="edge">
<title>Node9&#45;&gt;Node10</title>
<g id="a_edge10_Node000009_Node000010"><a xlink:title=" ">
<path fill="none" stroke="#63b8ff" d="M363.52,-368.44C367.05,-348.45 375.91,-298.32 380.74,-270.98"/>
<polygon fill="#63b8ff" stroke="#63b8ff" points="384.19,-271.57 382.49,-261.12 377.3,-270.36 384.19,-271.57"/>
</a>
</g>
</g>
<!-- Node10&#45;&gt;Node4 -->
<g id="edge11_Node000010_Node000004" class="edge">
<title>Node10&#45;&gt;Node4</title>
<g id="a_edge11_Node000010_Node000004"><a xlink:title=" ">
<path fill="none" stroke="#63b8ff" d="M376.04,-241.87C369.19,-234.44 359.01,-223.42 349.96,-213.62"/>
<polygon fill="#63b8ff" stroke="#63b8ff" points="352.39,-211.09 343.04,-206.11 347.25,-215.84 352.39,-211.09"/>
</a>
</g>
</g>
<!-- Node11 -->
<g id="Node000011" class="node">
<title>Node11</title>
<g id="a_Node000011"><a xlink:href="RegionGroup_8hpp.html" target="_top" xlink:title=" ">
<polygon fill="white" stroke="#666666" points="576.51,-200.5 439.51,-200.5 439.51,-181.5 576.51,-181.5 576.51,-200.5"/>
<text text-anchor="middle" x="508.01" y="-188.5" font-family="Helvetica,sans-Serif" font-size="10.00">Region/RegionGroup.hpp</text>
</a>
</g>
</g>
<!-- Node10&#45;&gt;Node11 -->
<g id="edge12_Node000010_Node000011" class="edge">
<title>Node10&#45;&gt;Node11</title>
<g id="a_edge12_Node000010_Node000011"><a xlink:title=" ">
<path fill="none" stroke="#63b8ff" d="M402.04,-241.99C422.7,-232.25 456.79,-216.16 480.71,-204.88"/>
<polygon fill="#63b8ff" stroke="#63b8ff" points="482.41,-207.95 489.96,-200.52 479.42,-201.62 482.41,-207.95"/>
</a>
</g>
</g>
<!-- Node11&#45;&gt;Node8 -->
<g id="edge13_Node000011_Node000008" class="edge">
<title>Node11&#45;&gt;Node8</title>
<g id="a_edge13_Node000011_Node000008"><a xlink:title=" ">
<path fill="none" stroke="#63b8ff" d="M508.01,-181.37C508.01,-173.49 508.01,-161.45 508.01,-150.6"/>
<polygon fill="#63b8ff" stroke="#63b8ff" points="511.51,-150.36 508.01,-140.36 504.51,-150.36 511.51,-150.36"/>
</a>
</g>
</g>
<!-- Node12&#45;&gt;Node5 -->
<g id="edge15_Node000012_Node000005" class="edge">
<title>Node12&#45;&gt;Node5</title>
<g id="a_edge15_Node000012_Node000005"><a xlink:title=" ">
<path fill="none" stroke="#63b8ff" d="M1006.24,-362.65C1030.94,-341.45 1072.01,-299.17 1072.01,-252.5 1072.01,-252.5 1072.01,-252.5 1072.01,-190 1072.01,-89.65 727.25,-70.11 576.82,-66.36"/>
<polygon fill="#63b8ff" stroke="#63b8ff" points="576.85,-62.86 566.77,-66.13 576.69,-69.86 576.85,-62.86"/>
</a>
</g>
</g>
<!-- Node13 -->
<g id="Node000013" class="node">
<title>Node13</title>
<g id="a_Node000013"><a xlink:href="Archivist_8hpp.html" target="_top" xlink:title=" ">
<polygon fill="white" stroke="#666666" points="932.01,-321.5 764.01,-321.5 764.01,-302.5 932.01,-302.5 932.01,-321.5"/>
<text text-anchor="middle" x="848.01" y="-309.5" font-family="Helvetica,sans-Serif" font-size="10.00">MayaFlux/Journal/Archivist.hpp</text>
</a>
</g>
</g>
<!-- Node12&#45;&gt;Node13 -->
<g id="edge16_Node000012_Node000013" class="edge">
<title>Node12&#45;&gt;Node13</title>
<g id="a_edge16_Node000012_Node000013"><a xlink:title=" ">
<path fill="none" stroke="#63b8ff" d="M957.28,-362.95C933.06,-351.88 899.55,-336.56 876.04,-325.82"/>
<polygon fill="#63b8ff" stroke="#63b8ff" points="877.19,-322.49 866.64,-321.52 874.28,-328.86 877.19,-322.49"/>
</a>
</g>
</g>
<!-- Node20 -->
<g id="Node000020" class="node">
<title>Node20</title>
<g id="a_Node000020"><a xlink:title=" ">
<polygon fill="#e0e0e0" stroke="#999999" points="1217.51,-321.5 1100.51,-321.5 1100.51,-302.5 1217.51,-302.5 1217.51,-321.5"/>
<text text-anchor="middle" x="1159.01" y="-309.5" font-family="Helvetica,sans-Serif" font-size="10.00">glm/gtc/type_ptr.hpp</text>
</a>
</g>
</g>
<!-- Node12&#45;&gt;Node20 -->
<g id="edge23_Node000012_Node000020" class="edge">
<title>Node12&#45;&gt;Node20</title>
<g id="a_edge23_Node000012_Node000020"><a xlink:title=" ">
<path fill="none" stroke="#63b8ff" d="M1025.54,-362.95C1055.79,-351.63 1097.89,-335.88 1126.67,-325.1"/>
<polygon fill="#63b8ff" stroke="#63b8ff" points="1128.11,-328.3 1136.25,-321.52 1125.66,-321.74 1128.11,-328.3"/>
</a>
</g>
</g>
<!-- Node14 -->
<g id="Node000014" class="node">
<title>Node14</title>
<g id="a_Node000014"><a xlink:href="JournalEntry_8hpp.html" target="_top" xlink:title=" ">
<polygon fill="white" stroke="#666666" points="901.51,-261 806.51,-261 806.51,-242 901.51,-242 901.51,-261"/>
<text text-anchor="middle" x="854.01" y="-249" font-family="Helvetica,sans-Serif" font-size="10.00">JournalEntry.hpp</text>
</a>
</g>
</g>
<!-- Node13&#45;&gt;Node14 -->
<g id="edge17_Node000013_Node000014" class="edge">
<title>Node13&#45;&gt;Node14</title>
<g id="a_edge17_Node000013_Node000014"><a xlink:title=" ">
<path fill="none" stroke="#63b8ff" d="M848.89,-302.37C849.73,-294.25 851,-281.81 852.07,-271.39"/>
<polygon fill="#63b8ff" stroke="#63b8ff" points="855.58,-271.47 853.12,-261.17 848.62,-270.76 855.58,-271.47"/>
</a>
</g>
</g>
<!-- Node19 -->
<g id="Node000019" class="node">
<title>Node19</title>
<g id="a_Node000019"><a xlink:title=" ">
<polygon fill="#e0e0e0" stroke="#999999" points="788.01,-261 738.01,-261 738.01,-242 788.01,-242 788.01,-261"/>
<text text-anchor="middle" x="763.01" y="-249" font-family="Helvetica,sans-Serif" font-size="10.00">format</text>
</a>
</g>
</g>
<!-- Node13&#45;&gt;Node19 -->
<g id="edge22_Node000013_Node000019" class="edge">
<title>Node13&#45;&gt;Node19</title>
<g id="a_edge22_Node000013_Node000019"><a xlink:title=" ">
<path fill="none" stroke="#63b8ff" d="M835.47,-302.37C821.91,-293.04 800.07,-278.01 783.91,-266.88"/>
<polygon fill="#63b8ff" stroke="#63b8ff" points="785.82,-263.95 775.6,-261.17 781.86,-269.72 785.82,-263.95"/>
</a>
</g>
</g>
<!-- Node15 -->
<g id="Node000015" class="node">
<title>Node15</title>
<g id="a_Node000015"><a xlink:href="EnumReflect_8hpp.html" target="_top" xlink:title=" ">
<polygon fill="white" stroke="#666666" points="863.51,-206 724.51,-206 724.51,-176 863.51,-176 863.51,-206"/>
<text text-anchor="start" x="732.51" y="-194" font-family="Helvetica,sans-Serif" font-size="10.00">MayaFlux/Transitive</text>
<text text-anchor="middle" x="794.01" y="-183" font-family="Helvetica,sans-Serif" font-size="10.00">/Reflect/EnumReflect.hpp</text>
</a>
</g>
</g>
<!-- Node14&#45;&gt;Node15 -->
<g id="edge18_Node000014_Node000015" class="edge">
<title>Node14&#45;&gt;Node15</title>
<g id="a_edge18_Node000014_Node000015"><a xlink:title=" ">
<path fill="none" stroke="#63b8ff" d="M845.16,-241.87C837.47,-234.37 826.01,-223.2 815.88,-213.33"/>
<polygon fill="#63b8ff" stroke="#63b8ff" points="818.09,-210.59 808.48,-206.11 813.2,-215.6 818.09,-210.59"/>
</a>
</g>
</g>
<!-- Node16 -->
<g id="Node000016" class="node">
<title>Node16</title>
<g id="a_Node000016"><a xlink:title=" ">
<polygon fill="#e0e0e0" stroke="#999999" points="932.01,-200.5 882.01,-200.5 882.01,-181.5 932.01,-181.5 932.01,-200.5"/>
<text text-anchor="middle" x="907.01" y="-188.5" font-family="Helvetica,sans-Serif" font-size="10.00">chrono</text>
</a>
</g>
</g>
<!-- Node14&#45;&gt;Node16 -->
<g id="edge19_Node000014_Node000016" class="edge">
<title>Node14&#45;&gt;Node16</title>
<g id="a_edge19_Node000014_Node000016"><a xlink:title=" ">
<path fill="none" stroke="#63b8ff" d="M861.83,-241.87C869.81,-233.05 882.4,-219.16 892.27,-208.27"/>
<polygon fill="#63b8ff" stroke="#63b8ff" points="895.04,-210.43 899.16,-200.67 889.85,-205.73 895.04,-210.43"/>
</a>
</g>
</g>
<!-- Node17 -->
<g id="Node000017" class="node">
<title>Node17</title>
<g id="a_Node000017"><a xlink:title=" ">
<polygon fill="#e0e0e0" stroke="#999999" points="1043.51,-200.5 950.51,-200.5 950.51,-181.5 1043.51,-181.5 1043.51,-200.5"/>
<text text-anchor="middle" x="997.01" y="-188.5" font-family="Helvetica,sans-Serif" font-size="10.00">source_location</text>
</a>
</g>
</g>
<!-- Node14&#45;&gt;Node17 -->
<g id="edge20_Node000014_Node000017" class="edge">
<title>Node14&#45;&gt;Node17</title>
<g id="a_edge20_Node000014_Node000017"><a xlink:title=" ">
<path fill="none" stroke="#63b8ff" d="M874.8,-241.99C898.95,-232.12 938.99,-215.73 966.62,-204.43"/>
<polygon fill="#63b8ff" stroke="#63b8ff" points="968.26,-207.54 976.19,-200.52 965.61,-201.06 968.26,-207.54"/>
</a>
</g>
</g>
<!-- Node18 -->
<g id="Node000018" class="node">
<title>Node18</title>
<g id="a_Node000018"><a xlink:title=" ">
<polygon fill="#e0e0e0" stroke="#999999" points="706.51,-200.5 633.51,-200.5 633.51,-181.5 706.51,-181.5 706.51,-200.5"/>
<text text-anchor="middle" x="670.01" y="-188.5" font-family="Helvetica,sans-Serif" font-size="10.00">string_view</text>
</a>
</g>
</g>
<!-- Node14&#45;&gt;Node18 -->
<g id="edge21_Node000014_Node000018" class="edge">
<title>Node14&#45;&gt;Node18</title>
<g id="a_edge21_Node000014_Node000018"><a xlink:title=" ">
<path fill="none" stroke="#63b8ff" d="M827.25,-241.99C795.37,-231.86 741.93,-214.87 706.33,-203.55"/>
<polygon fill="#63b8ff" stroke="#63b8ff" points="707.39,-200.21 696.8,-200.52 705.27,-206.88 707.39,-200.21"/>
</a>
</g>
</g>
<!-- Node21&#45;&gt;Node11 -->
<g id="edge30_Node000021_Node000011" class="edge">
<title>Node21&#45;&gt;Node11</title>
<g id="a_edge30_Node000021_Node000011"><a xlink:title=" ">
<path fill="none" stroke="#63b8ff" d="M545.17,-362.79C538.96,-353.13 531.33,-339.82 527.01,-327 513.57,-287.14 509.63,-237.57 508.48,-210.98"/>
<polygon fill="#63b8ff" stroke="#63b8ff" points="511.97,-210.66 508.13,-200.78 504.98,-210.9 511.97,-210.66"/>
</a>
</g>
</g>
<!-- Node21&#45;&gt;Node13 -->
<g id="edge31_Node000021_Node000013" class="edge">
<title>Node21&#45;&gt;Node13</title>
<g id="a_edge31_Node000021_Node000013"><a xlink:title=" ">
<path fill="none" stroke="#63b8ff" d="M619.31,-362.95C673.52,-351.11 749.94,-334.42 799.23,-323.65"/>
<polygon fill="#63b8ff" stroke="#63b8ff" points="799.99,-327.07 809.02,-321.52 798.5,-320.23 799.99,-327.07"/>
</a>
</g>
</g>
<!-- Node22 -->
<g id="Node000022" class="node">
<title>Node22</title>
<g id="a_Node000022"><a xlink:href="CoordUtils_8hpp.html" target="_top" xlink:title=" ">
<polygon fill="white" stroke="#666666" points="479.51,-321.5 390.51,-321.5 390.51,-302.5 479.51,-302.5 479.51,-321.5"/>
<text text-anchor="middle" x="435.01" y="-309.5" font-family="Helvetica,sans-Serif" font-size="10.00">CoordUtils.hpp</text>
</a>
</g>
</g>
<!-- Node21&#45;&gt;Node22 -->
<g id="edge25_Node000021_Node000022" class="edge">
<title>Node21&#45;&gt;Node22</title>
<g id="a_edge25_Node000021_Node000022"><a xlink:title=" ">
<path fill="none" stroke="#63b8ff" d="M528.67,-362.95C508.19,-352.03 479.95,-336.97 459.85,-326.25"/>
<polygon fill="#63b8ff" stroke="#63b8ff" points="461.45,-323.14 450.98,-321.52 458.15,-329.31 461.45,-323.14"/>
</a>
</g>
</g>
<!-- Node23 -->
<g id="Node000023" class="node">
<title>Node23</title>
<g id="a_Node000023"><a xlink:href="OrganizedRegion_8hpp.html" target="_top" xlink:title=" ">
<polygon fill="white" stroke="#666666" points="682.01,-327 536.01,-327 536.01,-297 682.01,-297 682.01,-327"/>
<text text-anchor="start" x="544.01" y="-315" font-family="Helvetica,sans-Serif" font-size="10.00">MayaFlux/Kakshya/Region</text>
<text text-anchor="middle" x="609.01" y="-304" font-family="Helvetica,sans-Serif" font-size="10.00">/OrganizedRegion.hpp</text>
</a>
</g>
</g>
<!-- Node21&#45;&gt;Node23 -->
<g id="edge27_Node000021_Node000023" class="edge">
<title>Node21&#45;&gt;Node23</title>
<g id="a_edge27_Node000021_Node000023"><a xlink:title=" ">
<path fill="none" stroke="#63b8ff" d="M566.99,-362.8C573.91,-354.59 582.77,-344.1 590.56,-334.87"/>
<polygon fill="#63b8ff" stroke="#63b8ff" points="593.28,-337.06 597.06,-327.16 587.93,-332.55 593.28,-337.06"/>
</a>
</g>
</g>
<!-- Node22&#45;&gt;Node10 -->
<g id="edge26_Node000022_Node000010" class="edge">
<title>Node22&#45;&gt;Node10</title>
<g id="a_edge26_Node000022_Node000010"><a xlink:title=" ">
<path fill="none" stroke="#63b8ff" d="M427.48,-302.37C419.8,-293.55 407.69,-279.66 398.19,-268.77"/>
<polygon fill="#63b8ff" stroke="#63b8ff" points="400.77,-266.41 391.56,-261.17 395.5,-271.01 400.77,-266.41"/>
</a>
</g>
</g>
<!-- Node24 -->
<g id="Node000024" class="node">
<title>Node24</title>
<g id="a_Node000024"><a xlink:href="RegionSegment_8hpp.html" target="_top" xlink:title=" ">
<polygon fill="white" stroke="#666666" points="664.51,-261 549.51,-261 549.51,-242 664.51,-242 664.51,-261"/>
<text text-anchor="middle" x="607.01" y="-249" font-family="Helvetica,sans-Serif" font-size="10.00">RegionSegment.hpp</text>
</a>
</g>
</g>
<!-- Node23&#45;&gt;Node24 -->
<g id="edge28_Node000023_Node000024" class="edge">
<title>Node23&#45;&gt;Node24</title>
<g id="a_edge28_Node000023_Node000024"><a xlink:title=" ">
<path fill="none" stroke="#63b8ff" d="M608.52,-296.84C608.26,-289.21 607.94,-279.7 607.66,-271.45"/>
<polygon fill="#63b8ff" stroke="#63b8ff" points="611.15,-271.14 607.31,-261.27 604.15,-271.38 611.15,-271.14"/>
</a>
</g>
</g>
<!-- Node24&#45;&gt;Node8 -->
<g id="edge29_Node000024_Node000008" class="edge">
<title>Node24&#45;&gt;Node8</title>
<g id="a_edge29_Node000024_Node000008"><a xlink:title=" ">
<path fill="none" stroke="#63b8ff" d="M606.53,-241.82C605.32,-226.96 601.05,-196.3 586.01,-176 576.59,-163.29 562.91,-152.97 549.62,-145.08"/>
<polygon fill="#63b8ff" stroke="#63b8ff" points="550.97,-141.83 540.54,-140 547.56,-147.94 550.97,-141.83"/>
</a>
</g>
</g>
</g>
</svg>

<g id="navigator" transform="translate(0 0)" fill="#404254">
  <rect fill="#f2f5e9" fill-opacity="0.5" stroke="#606060" stroke-width=".5" x="0" y="0" width="60" height="60"/>
  <use id="zoomplus" xlink:href="#zoomPlus" x="17" y="9" onmousedown="handleZoom(evt,'in')"/>
  <use id="zoomminus" xlink:href="#zoomMin" x="42" y="9" onmousedown="handleZoom(evt,'out')"/>
  <use id="reset" xlink:href="#resetDef" x="30" y="36" onmousedown="handleReset()"/>
   <use id="arrowup" xlink:href="#arrowUp" x="0" y="0" onmousedown="handlePan(0,-1)"/>
  <use id="arrowright" xlink:href="#arrowRight" x="0" y="0" onmousedown="handlePan(1,0)"/>
  <use id="arrowdown" xlink:href="#arrowDown" x="0" y="0" onmousedown="handlePan(0,1)"/>
  <use id="arrowleft" xlink:href="#arrowLeft" x="0" y="0" onmousedown="handlePan(-1,0)"/>
</g>
<svg viewBox="0 0 15 15" width="100%" height="30px" preserveAspectRatio="xMaxYMin meet">
 <g id="arrow_out" transform="scale(0.3 0.3)">
  <a xlink:href="ContiguousAccessProcessor_8cpp__incl_org.svg" target="_base">
   <rect id="button" ry="5" rx="5" y="6" x="6" height="38" width="38"
        fill="#f2f5e9" fill-opacity="0.5" stroke="#606060" stroke-width="1.0"/>
   <path id="arrow"
     d="M 11.500037,31.436501 C 11.940474,20.09759 22.043105,11.32322 32.158766,21.979434 L 37.068811,17.246167 C 37.068811,17.246167 37.088388,32 37.088388,32 L 22.160133,31.978069 C 22.160133,31.978069 26.997745,27.140456 26.997745,27.140456 C 18.528582,18.264221 13.291696,25.230495 11.500037,31.436501 z"
     style="fill:#404040;"/>
  </a>
 </g>
</svg>

<style type='text/css'>
<![CDATA[
[data-mouse-over-selected='false'] { opacity: 0.7; }
[data-mouse-over-selected='true']  { opacity: 1.0; }
]]>
</style>
<script type="application/ecmascript"><![CDATA[
document.addEventListener('DOMContentLoaded', (event) => {
  highlightEdges();
  highlightAdjacentNodes();
});
]]></script>
</svg>
