<?xml version="1.0" encoding="UTF-8" standalone="no"?>
<!DOCTYPE svg PUBLIC "-//W3C//DTD SVG 1.1//EN"
 "http://www.w3.org/Graphics/SVG/1.1/DTD/svg11.dtd">
<!-- Generated by graphviz version 2.43.0 (0)
 -->
<!-- Title: Depot.hpp Pages: 1 -->
<svg width="316pt" height="247pt"
 viewBox="0.00 0.00 316.03 247.00" xmlns="http://www.w3.org/2000/svg" xmlns:xlink="http://www.w3.org/1999/xlink">
<g id="graph0" class="graph" transform="scale(1 1) rotate(0) translate(4 243)">
<title>Depot.hpp</title>
<!-- Node1 -->
<g id="Node000001" class="node">
<title>Node1</title>
<g id="a_Node000001"><a xlink:title="Audio file loading and container management API.">
<polygon fill="#999999" stroke="#666666" points="144.53,-239 77.53,-239 77.53,-220 144.53,-220 144.53,-239"/>
<text text-anchor="middle" x="111.03" y="-227" font-family="Helvetica,sans-Serif" font-size="10.00">Depot.hpp</text>
</a>
</g>
</g>
<!-- Node2 -->
<g id="Node000002" class="node">
<title>Node2</title>
<g id="a_Node000002"><a xlink:href="Creator_8cpp.html" target="_top" xlink:title=" ">
<polygon fill="white" stroke="#666666" points="83.03,-129 11.03,-129 11.03,-110 83.03,-110 83.03,-129"/>
<text text-anchor="middle" x="47.03" y="-117" font-family="Helvetica,sans-Serif" font-size="10.00">Creator.cpp</text>
</a>
</g>
</g>
<!-- Node1&#45;&gt;Node2 -->
<g id="edge1_Node000001_Node000002" class="edge">
<title>Node1&#45;&gt;Node2</title>
<g id="a_edge1_Node000001_Node000002"><a xlink:title=" ">
<path fill="none" stroke="#63b8ff" d="M91.19,-213.44C82.05,-205.57 71.76,-195.24 65.03,-184 54.44,-166.3 49.85,-142.1 48.05,-129.29"/>
<polygon fill="#63b8ff" stroke="#63b8ff" points="89.17,-216.31 99.13,-219.93 93.6,-210.89 89.17,-216.31"/>
</a>
</g>
</g>
<!-- Node3 -->
<g id="Node000003" class="node">
<title>Node3</title>
<g id="a_Node000003"><a xlink:href="Creator_8hpp.html" target="_top" xlink:title=" ">
<polygon fill="white" stroke="#666666" points="147.53,-184 74.53,-184 74.53,-165 147.53,-165 147.53,-184"/>
<text text-anchor="middle" x="111.03" y="-172" font-family="Helvetica,sans-Serif" font-size="10.00">Creator.hpp</text>
</a>
</g>
</g>
<!-- Node1&#45;&gt;Node3 -->
<g id="edge2_Node000001_Node000003" class="edge">
<title>Node1&#45;&gt;Node3</title>
<g id="a_edge2_Node000001_Node000003"><a xlink:title=" ">
<path fill="none" stroke="#63b8ff" d="M111.03,-209.66C111.03,-200.93 111.03,-190.99 111.03,-184.09"/>
<polygon fill="#63b8ff" stroke="#63b8ff" points="107.53,-209.75 111.03,-219.75 114.53,-209.75 107.53,-209.75"/>
</a>
</g>
</g>
<!-- Node4 -->
<g id="Node000004" class="node">
<title>Node4</title>
<g id="a_Node000004"><a xlink:href="MayaFlux_8hpp.html" target="_top" xlink:title=" ">
<polygon fill="white" stroke="#666666" points="138.03,-74 52.03,-74 52.03,-55 138.03,-55 138.03,-74"/>
<text text-anchor="middle" x="95.03" y="-62" font-family="Helvetica,sans-Serif" font-size="10.00">MayaFlux.hpp</text>
</a>
</g>
</g>
<!-- Node1&#45;&gt;Node4 -->
<g id="edge10_Node000001_Node000004" class="edge">
<title>Node1&#45;&gt;Node4</title>
<g id="a_edge10_Node000001_Node000004"><a xlink:title=" ">
<path fill="none" stroke="#63b8ff" d="M85.6,-214.78C58.53,-198.49 17.52,-168.47 2.03,-129 -9.11,-100.61 27.87,-83.24 58.45,-74"/>
<polygon fill="#63b8ff" stroke="#63b8ff" points="84.12,-217.97 94.53,-219.97 87.63,-211.92 84.12,-217.97"/>
</a>
</g>
</g>
<!-- Node8 -->
<g id="Node000008" class="node">
<title>Node8</title>
<g id="a_Node000008"><a xlink:href="Depot_8cpp.html" target="_top" xlink:title=" ">
<polygon fill="white" stroke="#666666" points="232.03,-184 166.03,-184 166.03,-165 232.03,-165 232.03,-184"/>
<text text-anchor="middle" x="199.03" y="-172" font-family="Helvetica,sans-Serif" font-size="10.00">Depot.cpp</text>
</a>
</g>
</g>
<!-- Node1&#45;&gt;Node8 -->
<g id="edge9_Node000001_Node000008" class="edge">
<title>Node1&#45;&gt;Node8</title>
<g id="a_edge9_Node000001_Node000008"><a xlink:title=" ">
<path fill="none" stroke="#63b8ff" d="M133.95,-214.7C149.98,-205.04 170.9,-192.44 184.64,-184.17"/>
<polygon fill="#63b8ff" stroke="#63b8ff" points="131.93,-211.83 125.17,-219.98 135.54,-217.82 131.93,-211.83"/>
</a>
</g>
</g>
<!-- Node9 -->
<g id="Node000009" class="node">
<title>Node9</title>
<g id="a_Node000009"><a xlink:href="Rigs_8cpp.html" target="_top" xlink:title=" ">
<polygon fill="white" stroke="#666666" points="308.03,-184 250.03,-184 250.03,-165 308.03,-165 308.03,-184"/>
<text text-anchor="middle" x="279.03" y="-172" font-family="Helvetica,sans-Serif" font-size="10.00">Rigs.cpp</text>
</a>
</g>
</g>
<!-- Node1&#45;&gt;Node9 -->
<g id="edge11_Node000001_Node000009" class="edge">
<title>Node1&#45;&gt;Node9</title>
<g id="a_edge11_Node000001_Node000009"><a xlink:title=" ">
<path fill="none" stroke="#63b8ff" d="M147.72,-216.93C179.09,-207.03 223.54,-193.01 251.83,-184.08"/>
<polygon fill="#63b8ff" stroke="#63b8ff" points="146.51,-213.64 138.02,-219.98 148.61,-220.31 146.51,-213.64"/>
</a>
</g>
</g>
<!-- Node3&#45;&gt;Node2 -->
<g id="edge3_Node000003_Node000002" class="edge">
<title>Node3&#45;&gt;Node2</title>
<g id="a_edge3_Node000003_Node000002"><a xlink:title=" ">
<path fill="none" stroke="#63b8ff" d="M93.04,-158.6C81.58,-149.11 67.12,-137.13 57.5,-129.17"/>
<polygon fill="#63b8ff" stroke="#63b8ff" points="90.82,-161.3 100.75,-164.98 95.28,-155.91 90.82,-161.3"/>
</a>
</g>
</g>
<!-- Node3&#45;&gt;Node4 -->
<g id="edge4_Node000003_Node000004" class="edge">
<title>Node3&#45;&gt;Node4</title>
<g id="a_edge4_Node000003_Node000004"><a xlink:title=" ">
<path fill="none" stroke="#63b8ff" d="M108.22,-154.48C104.71,-130.84 98.88,-91.5 96.32,-74.16"/>
<polygon fill="#63b8ff" stroke="#63b8ff" points="104.8,-155.28 109.72,-164.66 111.72,-154.26 104.8,-155.28"/>
</a>
</g>
</g>
<!-- Node6 -->
<g id="Node000006" class="node">
<title>Node6</title>
<g id="a_Node000006"><a xlink:href="Temporal_8hpp.html" target="_top" xlink:title=" ">
<polygon fill="white" stroke="#666666" points="222.53,-129 139.53,-129 139.53,-110 222.53,-110 222.53,-129"/>
<text text-anchor="middle" x="181.03" y="-117" font-family="Helvetica,sans-Serif" font-size="10.00">Temporal.hpp</text>
</a>
</g>
</g>
<!-- Node3&#45;&gt;Node6 -->
<g id="edge6_Node000003_Node000006" class="edge">
<title>Node3&#45;&gt;Node6</title>
<g id="a_edge6_Node000003_Node000006"><a xlink:title=" ">
<path fill="none" stroke="#63b8ff" d="M130.35,-158.88C142.94,-149.34 158.96,-137.21 169.58,-129.17"/>
<polygon fill="#63b8ff" stroke="#63b8ff" points="128.14,-156.16 122.28,-164.98 132.36,-161.74 128.14,-156.16"/>
</a>
</g>
</g>
<!-- Node5 -->
<g id="Node000005" class="node">
<title>Node5</title>
<g id="a_Node000005"><a xlink:href="LiveAid_8hpp.html" target="_top" xlink:title=" ">
<polygon fill="white" stroke="#666666" points="132.03,-19 58.03,-19 58.03,0 132.03,0 132.03,-19"/>
<text text-anchor="middle" x="95.03" y="-7" font-family="Helvetica,sans-Serif" font-size="10.00">LiveAid.hpp</text>
</a>
</g>
</g>
<!-- Node4&#45;&gt;Node5 -->
<g id="edge5_Node000004_Node000005" class="edge">
<title>Node4&#45;&gt;Node5</title>
<g id="a_edge5_Node000004_Node000005"><a xlink:title=" ">
<path fill="none" stroke="#63b8ff" d="M95.03,-44.66C95.03,-35.93 95.03,-25.99 95.03,-19.09"/>
<polygon fill="#63b8ff" stroke="#63b8ff" points="91.53,-44.75 95.03,-54.75 98.53,-44.75 91.53,-44.75"/>
</a>
</g>
</g>
<!-- Node6&#45;&gt;Node4 -->
<g id="edge7_Node000006_Node000004" class="edge">
<title>Node6&#45;&gt;Node4</title>
<g id="a_edge7_Node000006_Node000004"><a xlink:title=" ">
<path fill="none" stroke="#63b8ff" d="M158.63,-104.7C142.97,-95.04 122.53,-82.44 109.1,-74.17"/>
<polygon fill="#63b8ff" stroke="#63b8ff" points="156.87,-107.72 167.22,-109.98 160.54,-101.76 156.87,-107.72"/>
</a>
</g>
</g>
<!-- Node7 -->
<g id="Node000007" class="node">
<title>Node7</title>
<g id="a_Node000007"><a xlink:href="Temporal_8cpp.html" target="_top" xlink:title=" ">
<polygon fill="white" stroke="#666666" points="238.03,-74 156.03,-74 156.03,-55 238.03,-55 238.03,-74"/>
<text text-anchor="middle" x="197.03" y="-62" font-family="Helvetica,sans-Serif" font-size="10.00">Temporal.cpp</text>
</a>
</g>
</g>
<!-- Node6&#45;&gt;Node7 -->
<g id="edge8_Node000006_Node000007" class="edge">
<title>Node6&#45;&gt;Node7</title>
<g id="a_edge8_Node000006_Node000007"><a xlink:title=" ">
<path fill="none" stroke="#63b8ff" d="M186.63,-99.95C189.29,-91.15 192.33,-81.06 194.44,-74.09"/>
<polygon fill="#63b8ff" stroke="#63b8ff" points="183.21,-99.16 183.67,-109.75 189.92,-101.19 183.21,-99.16"/>
</a>
</g>
</g>
</g>
</svg>
