<?xml version="1.0" encoding="UTF-8" standalone="no"?>
<!DOCTYPE svg PUBLIC "-//W3C//DTD SVG 1.1//EN"
 "http://www.w3.org/Graphics/SVG/1.1/DTD/svg11.dtd">
<!-- Generated by graphviz version 2.43.0 (0)
 -->
<!-- Title: Backends Pages: 1 -->
<!--zoomable 180 -->

<svg id="main" version="1.1" xmlns="http://www.w3.org/2000/svg" xmlns:xlink="http://www.w3.org/1999/xlink" xml:space="preserve" onload="init(evt)">
<style type="text/css"><![CDATA[
.node, .edge {opacity: 0.7;}
.node.selected, .edge.selected {opacity: 1;}
.edge:hover path { stroke: red; }
.edge:hover polygon { stroke: red; fill: red; }
]]></style>

<defs>
  <circle id="rim" cx="0" cy="0" r="7"/>
  <circle id="rim2" cx="0" cy="0" r="3.5"/>
  <g id="zoomPlus">
    <use xlink:href="#rim" fill="#404040"><set attributeName="fill" to="#808080" begin="zoomplus.mouseover" end="zoomplus.mouseout"/></use>
    <path d="M-4,0h8M0,-4v8" fill="none" stroke="white" stroke-width="1.5" pointer-events="none"/>
  </g>
  <g id="zoomMin">
    <use xlink:href="#rim" fill="#404040"><set attributeName="fill" to="#808080" begin="zoomminus.mouseover" end="zoomminus.mouseout"/></use>
    <path d="M-4,0h8" fill="none" stroke="white" stroke-width="1.5" pointer-events="none"/>
  </g>
  <g id="arrowUp" transform="translate(30 24)">
    <use xlink:href="#rim"/>
    <path pointer-events="none" fill="none" stroke="white" stroke-width="1.5" d="M0,-3.0v7 M-2.5,-0.5L0,-3.0L2.5,-0.5"/>
  </g>
  <g id="arrowRight" transform="rotate(90) translate(36 -43)">
    <use xlink:href="#rim"/>
    <path pointer-events="none" fill="none" stroke="white" stroke-width="1.5" d="M0,-3.0v7 M-2.5,-0.5L0,-3.0L2.5,-0.5"/>
  </g>
  <g id="arrowDown" transform="rotate(180) translate(-30 -48)">
    <use xlink:href="#rim"/>
    <path pointer-events="none" fill="none" stroke="white" stroke-width="1.5" d="M0,-3.0v7 M-2.5,-0.5L0,-3.0L2.5,-0.5"/>
  </g>
  <g id="arrowLeft" transform="rotate(270) translate(-36 17)">
    <use xlink:href="#rim"/>
    <path pointer-events="none" fill="none" stroke="white" stroke-width="1.5" d="M0,-3.0v7 M-2.5,-0.5L0,-3.0L2.5,-0.5"/>
  </g>
  <g id="resetDef">
    <use xlink:href="#rim2" fill="#404040"><set attributeName="fill" to="#808080" begin="reset.mouseover" end="reset.mouseout"/></use>
  </g>
</defs>
<script type="application/ecmascript">
var viewWidth = 859;
var viewHeight = 180;
var sectionId = 'dynsection-0';
</script>
<script type="application/ecmascript" xlink:href="svg.min.js"/>
<svg id="graph" class="graph">
<g id="viewport">
<title>Backends</title>
<g id="clust1" class="cluster">
<title>clusterdir_037f3af2a9411e4bf64b79d81d1060f6</title>
<g id="a_clust1"><a xlink:href="dir_037f3af2a9411e4bf64b79d81d1060f6.html" target="_top" xlink:title="Core">
<polygon fill="#edf0f7" stroke="#7f7f7f" stroke-dasharray="5,2" points="349.93,-39 349.93,-164 842.93,-164 842.93,-39 349.93,-39"/>
<text text-anchor="middle" x="596.43" y="-152" font-family="Helvetica,sans-Serif" font-size="10.00">Core</text>
</a>
</g>
</g>
<g id="clust2" class="cluster">
<title>clusterdir_94f1b68a6383a08583d02d2b55007930</title>
<g id="a_clust2"><a xlink:href="dir_94f1b68a6383a08583d02d2b55007930.html" target="_top">
<polygon fill="#edf0f7" stroke="#404040" stroke-width="2" points="357.93,-47 357.93,-137 784.93,-137 784.93,-47 357.93,-47"/>
</a>
</g>
</g>
<!-- dir_4587f43bc5789c59867a47f19ddfef53 -->
<g id="node1" class="node">
<title>dir_4587f43bc5789c59867a47f19ddfef53</title>
<g id="a_node1"><a xlink:href="dir_4587f43bc5789c59867a47f19ddfef53.html" target="_top" xlink:title="Input">
<polygon fill="#a2b4d6" stroke="#404040" points="834.43,-74 793.43,-74 793.43,-55 834.43,-55 834.43,-74"/>
<text text-anchor="middle" x="813.93" y="-62" font-family="Helvetica,sans-Serif" font-size="10.00">Input</text>
</a>
</g>
</g>
<!-- dir_94f1b68a6383a08583d02d2b55007930 -->
<g id="node2" class="node">
<title>dir_94f1b68a6383a08583d02d2b55007930</title>
<text text-anchor="middle" x="744.93" y="-117" font-family="Helvetica,sans-Serif" font-size="10.00">Backends</text>
</g>
<!-- dir_357f1ad6ba33ea9b50b32f04bf4974c9 -->
<g id="node3" class="node">
<title>dir_357f1ad6ba33ea9b50b32f04bf4974c9</title>
<g id="a_node3"><a xlink:href="dir_357f1ad6ba33ea9b50b32f04bf4974c9.html" target="_top" xlink:title="Audio">
<polygon fill="#a2b4d6" stroke="#404040" points="481.93,-129 437.93,-129 437.93,-110 481.93,-110 481.93,-129"/>
<text text-anchor="middle" x="459.93" y="-117" font-family="Helvetica,sans-Serif" font-size="10.00">Audio</text>
</a>
</g>
</g>
<!-- dir_ab78b5ea7d224bd3b6129089c2cbe6d1 -->
<g id="node9" class="node">
<title>dir_ab78b5ea7d224bd3b6129089c2cbe6d1</title>
<g id="a_node9"><a xlink:href="dir_ab78b5ea7d224bd3b6129089c2cbe6d1.html" target="_top" xlink:title="Journal">
<polygon fill="#edf0f7" stroke="#7f7f7f" points="452.93,-19 402.93,-19 402.93,0 452.93,0 452.93,-19"/>
<text text-anchor="middle" x="427.93" y="-7" font-family="Helvetica,sans-Serif" font-size="10.00">Journal</text>
</a>
</g>
</g>
<!-- dir_357f1ad6ba33ea9b50b32f04bf4974c9&#45;&gt;dir_ab78b5ea7d224bd3b6129089c2cbe6d1 -->
<g id="edge1" class="edge">
<title>dir_357f1ad6ba33ea9b50b32f04bf4974c9&#45;&gt;dir_ab78b5ea7d224bd3b6129089c2cbe6d1</title>
<g id="a_edge1"><a xlink:href="dir_000002_000034.html" target="_top">
<path fill="none" stroke="#63b8ff" d="M437.69,-111.88C434.77,-111.16 431.79,-110.51 428.93,-110 382.71,-101.76 39.69,-108.58 7.93,-74 -2.59,-62.54 -2.69,-50.37 7.93,-39 33.94,-11.17 296.03,-9.77 392.52,-10.2"/>
<polygon fill="#63b8ff" stroke="#63b8ff" points="392.63,-13.7 402.65,-10.26 392.67,-6.7 392.63,-13.7"/>
</a>
</g>
<g id="a_edge1&#45;headlabel"><a xlink:href="dir_000002_000034.html" target="_top" xlink:title="4">
<text text-anchor="middle" x="389.02" y="-14.02" font-family="Helvetica,sans-Serif" font-size="10.00" fill="#63b8ff">4</text>
</a>
</g>
</g>
<!-- dir_75355d5685b3c0b2100abec94460623e -->
<g id="node4" class="node">
<title>dir_75355d5685b3c0b2100abec94460623e</title>
<g id="a_node4"><a xlink:href="dir_75355d5685b3c0b2100abec94460623e.html" target="_top" xlink:title="Graphics">
<polygon fill="#a2b4d6" stroke="#404040" points="559.43,-129 500.43,-129 500.43,-110 559.43,-110 559.43,-129"/>
<text text-anchor="middle" x="529.93" y="-117" font-family="Helvetica,sans-Serif" font-size="10.00">Graphics</text>
</a>
</g>
</g>
<!-- dir_6255f0ce6459d0667859648906699672 -->
<g id="node8" class="node">
<title>dir_6255f0ce6459d0667859648906699672</title>
<g id="a_node8"><a xlink:href="dir_6255f0ce6459d0667859648906699672.html" target="_top" xlink:title="Windowing">
<polygon fill="#a2b4d6" stroke="#404040" points="565.43,-74 494.43,-74 494.43,-55 565.43,-55 565.43,-74"/>
<text text-anchor="middle" x="529.93" y="-62" font-family="Helvetica,sans-Serif" font-size="10.00">Windowing</text>
</a>
</g>
</g>
<!-- dir_75355d5685b3c0b2100abec94460623e&#45;&gt;dir_6255f0ce6459d0667859648906699672 -->
<g id="edge5" class="edge">
<title>dir_75355d5685b3c0b2100abec94460623e&#45;&gt;dir_6255f0ce6459d0667859648906699672</title>
<g id="a_edge5"><a xlink:href="dir_000022_000093.html" target="_top">
<path fill="none" stroke="#63b8ff" d="M529.93,-109.75C529.93,-102.8 529.93,-92.85 529.93,-84.13"/>
<polygon fill="#63b8ff" stroke="#63b8ff" points="533.43,-84.09 529.93,-74.09 526.43,-84.09 533.43,-84.09"/>
</a>
</g>
<g id="a_edge5&#45;headlabel"><a xlink:href="dir_000022_000093.html" target="_top" xlink:title="6">
<text text-anchor="middle" x="536.27" y="-85.18" font-family="Helvetica,sans-Serif" font-size="10.00" fill="#63b8ff">6</text>
</a>
</g>
</g>
<!-- dir_75355d5685b3c0b2100abec94460623e&#45;&gt;dir_ab78b5ea7d224bd3b6129089c2cbe6d1 -->
<g id="edge2" class="edge">
<title>dir_75355d5685b3c0b2100abec94460623e&#45;&gt;dir_ab78b5ea7d224bd3b6129089c2cbe6d1</title>
<g id="a_edge2"><a xlink:href="dir_000022_000034.html" target="_top">
<path fill="none" stroke="#63b8ff" d="M500.19,-111.64C497.07,-111.04 493.95,-110.47 490.93,-110 409.98,-97.25 178.98,-134.71 123.93,-74 113.49,-62.48 113.46,-50.5 123.93,-39 141.74,-19.44 316.61,-13.06 392.78,-11.19"/>
<polygon fill="#63b8ff" stroke="#63b8ff" points="392.93,-14.69 402.84,-10.96 392.76,-7.69 392.93,-14.69"/>
</a>
</g>
<g id="a_edge2&#45;headlabel"><a xlink:href="dir_000022_000034.html" target="_top" xlink:title="16">
<text text-anchor="middle" x="389.4" y="-15.11" font-family="Helvetica,sans-Serif" font-size="10.00" fill="#63b8ff">16</text>
</a>
</g>
</g>
<!-- dir_18c1c755ed1756c25167e465033be95a -->
<g id="node11" class="node">
<title>dir_18c1c755ed1756c25167e465033be95a</title>
<g id="a_node11"><a xlink:href="dir_18c1c755ed1756c25167e465033be95a.html" target="_top" xlink:title="Registry">
<polygon fill="#edf0f7" stroke="red" stroke-dasharray="5,2" points="190.43,-74 133.43,-74 133.43,-55 190.43,-55 190.43,-74"/>
<text text-anchor="middle" x="161.93" y="-62" font-family="Helvetica,sans-Serif" font-size="10.00">Registry</text>
</a>
</g>
</g>
<!-- dir_75355d5685b3c0b2100abec94460623e&#45;&gt;dir_18c1c755ed1756c25167e465033be95a -->
<g id="edge3" class="edge">
<title>dir_75355d5685b3c0b2100abec94460623e&#45;&gt;dir_18c1c755ed1756c25167e465033be95a</title>
<g id="a_edge3"><a xlink:href="dir_000022_000066.html" target="_top">
<path fill="none" stroke="#63b8ff" d="M500.18,-111.72C497.06,-111.1 493.94,-110.51 490.93,-110 365.18,-88.59 329.45,-96.27 200.42,-74.1"/>
<polygon fill="#63b8ff" stroke="#63b8ff" points="201.01,-70.65 190.56,-72.38 199.81,-77.55 201.01,-70.65"/>
</a>
</g>
<g id="a_edge3&#45;headlabel"><a xlink:href="dir_000022_000066.html" target="_top" xlink:title="7">
<text text-anchor="middle" x="205.04" y="-65.97" font-family="Helvetica,sans-Serif" font-size="10.00" fill="#63b8ff">7</text>
</a>
</g>
</g>
<!-- dir_64c2d47494cb42df00b60c7e5b15f956 -->
<g id="node12" class="node">
<title>dir_64c2d47494cb42df00b60c7e5b15f956</title>
<g id="a_node12"><a xlink:href="dir_64c2d47494cb42df00b60c7e5b15f956.html" target="_top" xlink:title="Buffers">
<polygon fill="#edf0f7" stroke="red" stroke-dasharray="5,2" points="259.43,-74 208.43,-74 208.43,-55 259.43,-55 259.43,-74"/>
<text text-anchor="middle" x="233.93" y="-62" font-family="Helvetica,sans-Serif" font-size="10.00">Buffers</text>
</a>
</g>
</g>
<!-- dir_75355d5685b3c0b2100abec94460623e&#45;&gt;dir_64c2d47494cb42df00b60c7e5b15f956 -->
<g id="edge4" class="edge">
<title>dir_75355d5685b3c0b2100abec94460623e&#45;&gt;dir_64c2d47494cb42df00b60c7e5b15f956</title>
<g id="a_edge4"><a xlink:href="dir_000022_000005.html" target="_top">
<path fill="none" stroke="#63b8ff" d="M500.16,-111.84C497.05,-111.19 493.93,-110.57 490.93,-110 395.8,-91.93 368.59,-93.68 269.33,-73.93"/>
<polygon fill="#63b8ff" stroke="#63b8ff" points="269.99,-70.49 259.5,-71.95 268.61,-77.35 269.99,-70.49"/>
</a>
</g>
<g id="a_edge4&#45;headlabel"><a xlink:href="dir_000022_000005.html" target="_top" xlink:title="1">
<text text-anchor="middle" x="274.08" y="-65.92" font-family="Helvetica,sans-Serif" font-size="10.00" fill="#63b8ff">1</text>
</a>
</g>
</g>
<!-- dir_fa9701bc8dd421cc9c72fe138aba5a04 -->
<g id="node13" class="node">
<title>dir_fa9701bc8dd421cc9c72fe138aba5a04</title>
<g id="a_node13"><a xlink:href="dir_fa9701bc8dd421cc9c72fe138aba5a04.html" target="_top" xlink:title="Transitive">
<polygon fill="#edf0f7" stroke="red" stroke-dasharray="5,2" points="341.93,-74 277.93,-74 277.93,-55 341.93,-55 341.93,-74"/>
<text text-anchor="middle" x="309.93" y="-62" font-family="Helvetica,sans-Serif" font-size="10.00">Transitive</text>
</a>
</g>
</g>
<!-- dir_75355d5685b3c0b2100abec94460623e&#45;&gt;dir_fa9701bc8dd421cc9c72fe138aba5a04 -->
<g id="edge6" class="edge">
<title>dir_75355d5685b3c0b2100abec94460623e&#45;&gt;dir_fa9701bc8dd421cc9c72fe138aba5a04</title>
<g id="a_edge6"><a xlink:href="dir_000022_000085.html" target="_top">
<path fill="none" stroke="#63b8ff" d="M500.26,-111.35C462.04,-102.14 395.37,-86.08 351.95,-75.62"/>
<polygon fill="#63b8ff" stroke="#63b8ff" points="352.52,-72.16 341.98,-73.22 350.88,-78.97 352.52,-72.16"/>
</a>
</g>
<g id="a_edge6&#45;headlabel"><a xlink:href="dir_000022_000085.html" target="_top" xlink:title="1">
<text text-anchor="middle" x="356.68" y="-67.74" font-family="Helvetica,sans-Serif" font-size="10.00" fill="#63b8ff">1</text>
</a>
</g>
</g>
<!-- dir_98903ca72f3f031f88d95d1d2149bfa4 -->
<g id="node14" class="node">
<title>dir_98903ca72f3f031f88d95d1d2149bfa4</title>
<g id="a_node14"><a xlink:href="dir_98903ca72f3f031f88d95d1d2149bfa4.html" target="_top" xlink:title="Kakshya">
<polygon fill="#edf0f7" stroke="red" stroke-dasharray="5,2" points="76.43,-74 17.43,-74 17.43,-55 76.43,-55 76.43,-74"/>
<text text-anchor="middle" x="46.93" y="-62" font-family="Helvetica,sans-Serif" font-size="10.00">Kakshya</text>
</a>
</g>
</g>
<!-- dir_75355d5685b3c0b2100abec94460623e&#45;&gt;dir_98903ca72f3f031f88d95d1d2149bfa4 -->
<g id="edge7" class="edge">
<title>dir_75355d5685b3c0b2100abec94460623e&#45;&gt;dir_98903ca72f3f031f88d95d1d2149bfa4</title>
<g id="a_edge7"><a xlink:href="dir_000022_000035.html" target="_top">
<path fill="none" stroke="#63b8ff" d="M500.2,-111.62C497.08,-111.02 493.95,-110.46 490.93,-110 314.5,-82.94 267.68,-98.96 90.93,-74 89.63,-73.82 88.31,-73.62 86.98,-73.41"/>
<polygon fill="#63b8ff" stroke="#63b8ff" points="87.13,-69.89 76.69,-71.67 85.96,-76.79 87.13,-69.89"/>
</a>
</g>
<g id="a_edge7&#45;headlabel"><a xlink:href="dir_000022_000035.html" target="_top" xlink:title="1">
<text text-anchor="middle" x="91.15" y="-65.19" font-family="Helvetica,sans-Serif" font-size="10.00" fill="#63b8ff">1</text>
</a>
</g>
</g>
<!-- dir_84d491fef6a4b5d1270818d8abed201b -->
<g id="node5" class="node">
<title>dir_84d491fef6a4b5d1270818d8abed201b</title>
<g id="a_node5"><a xlink:href="dir_84d491fef6a4b5d1270818d8abed201b.html" target="_top" xlink:title="Input">
<polygon fill="#a2b4d6" stroke="#404040" points="695.43,-129 654.43,-129 654.43,-110 695.43,-110 695.43,-129"/>
<text text-anchor="middle" x="674.93" y="-117" font-family="Helvetica,sans-Serif" font-size="10.00">Input</text>
</a>
</g>
</g>
<!-- dir_84d491fef6a4b5d1270818d8abed201b&#45;&gt;dir_4587f43bc5789c59867a47f19ddfef53 -->
<g id="edge8" class="edge">
<title>dir_84d491fef6a4b5d1270818d8abed201b&#45;&gt;dir_4587f43bc5789c59867a47f19ddfef53</title>
<g id="a_edge8"><a xlink:href="dir_000027_000028.html" target="_top">
<path fill="none" stroke="#63b8ff" d="M695.44,-110.68C718.75,-101.79 757,-87.21 783.72,-77.02"/>
<polygon fill="#63b8ff" stroke="#63b8ff" points="785.24,-80.19 793.34,-73.35 782.75,-73.64 785.24,-80.19"/>
</a>
</g>
<g id="a_edge8&#45;headlabel"><a xlink:href="dir_000027_000028.html" target="_top" xlink:title="1">
<text text-anchor="middle" x="782.9" y="-81.62" font-family="Helvetica,sans-Serif" font-size="10.00" fill="#63b8ff">1</text>
</a>
</g>
</g>
<!-- dir_84d491fef6a4b5d1270818d8abed201b&#45;&gt;dir_ab78b5ea7d224bd3b6129089c2cbe6d1 -->
<g id="edge9" class="edge">
<title>dir_84d491fef6a4b5d1270818d8abed201b&#45;&gt;dir_ab78b5ea7d224bd3b6129089c2cbe6d1</title>
<g id="a_edge9"><a xlink:href="dir_000027_000034.html" target="_top">
<path fill="none" stroke="#63b8ff" d="M654.32,-112.5C651.18,-111.63 647.98,-110.77 644.93,-110 574.72,-92.12 548.57,-110.42 485.93,-74 480.55,-70.87 457.58,-44.89 442.21,-27.14"/>
<polygon fill="#63b8ff" stroke="#63b8ff" points="444.57,-24.52 435.39,-19.23 439.27,-29.09 444.57,-24.52"/>
</a>
</g>
<g id="a_edge9&#45;headlabel"><a xlink:href="dir_000027_000034.html" target="_top" xlink:title="3">
<text text-anchor="middle" x="449.07" y="-22.88" font-family="Helvetica,sans-Serif" font-size="10.00" fill="#63b8ff">3</text>
</a>
</g>
</g>
<!-- dir_e24a4e685be15c914f9c1f172317155c -->
<g id="node6" class="node">
<title>dir_e24a4e685be15c914f9c1f172317155c</title>
<g id="a_node6"><a xlink:href="dir_e24a4e685be15c914f9c1f172317155c.html" target="_top" xlink:title="Network">
<polygon fill="#a2b4d6" stroke="#404040" points="635.93,-129 577.93,-129 577.93,-110 635.93,-110 635.93,-129"/>
<text text-anchor="middle" x="606.93" y="-117" font-family="Helvetica,sans-Serif" font-size="10.00">Network</text>
</a>
</g>
</g>
<!-- dir_e24a4e685be15c914f9c1f172317155c&#45;&gt;dir_ab78b5ea7d224bd3b6129089c2cbe6d1 -->
<g id="edge10" class="edge">
<title>dir_e24a4e685be15c914f9c1f172317155c&#45;&gt;dir_ab78b5ea7d224bd3b6129089c2cbe6d1</title>
<g id="a_edge10"><a xlink:href="dir_000045_000034.html" target="_top">
<path fill="none" stroke="#63b8ff" d="M577.92,-111.66C535.69,-101.48 461.3,-82.63 451.93,-74 439.35,-62.41 433.32,-43.54 430.46,-29.38"/>
<polygon fill="#63b8ff" stroke="#63b8ff" points="433.87,-28.55 428.78,-19.26 426.96,-29.69 433.87,-28.55"/>
</a>
</g>
<g id="a_edge10&#45;headlabel"><a xlink:href="dir_000045_000034.html" target="_top" xlink:title="2">
<text text-anchor="middle" x="437.26" y="-29.13" font-family="Helvetica,sans-Serif" font-size="10.00" fill="#63b8ff">2</text>
</a>
</g>
</g>
<!-- dir_bef32c669ab033bdbf190068befec804 -->
<g id="node7" class="node">
<title>dir_bef32c669ab033bdbf190068befec804</title>
<g id="a_node7"><a xlink:href="dir_bef32c669ab033bdbf190068befec804.html" target="_top" xlink:title="System">
<polygon fill="#a2b4d6" stroke="#404040" points="419.43,-129 366.43,-129 366.43,-110 419.43,-110 419.43,-129"/>
<text text-anchor="middle" x="392.93" y="-117" font-family="Helvetica,sans-Serif" font-size="10.00">System</text>
</a>
</g>
</g>
<!-- dir_6255f0ce6459d0667859648906699672&#45;&gt;dir_ab78b5ea7d224bd3b6129089c2cbe6d1 -->
<g id="edge13" class="edge">
<title>dir_6255f0ce6459d0667859648906699672&#45;&gt;dir_ab78b5ea7d224bd3b6129089c2cbe6d1</title>
<g id="a_edge13"><a xlink:href="dir_000093_000034.html" target="_top">
<path fill="none" stroke="#63b8ff" d="M513.55,-54.98C497.36,-46.57 472.36,-33.59 453.55,-23.81"/>
<polygon fill="#63b8ff" stroke="#63b8ff" points="455.11,-20.68 444.62,-19.17 451.88,-26.89 455.11,-20.68"/>
</a>
</g>
<g id="a_edge13&#45;headlabel"><a xlink:href="dir_000093_000034.html" target="_top" xlink:title="2">
<text text-anchor="middle" x="459.61" y="-17.31" font-family="Helvetica,sans-Serif" font-size="10.00" fill="#63b8ff">2</text>
</a>
</g>
</g>
<!-- dir_3ed6e73a097ab1d640b1fa27e30113a2 -->
<g id="node10" class="node">
<title>dir_3ed6e73a097ab1d640b1fa27e30113a2</title>
<g id="a_node10"><a xlink:href="dir_3ed6e73a097ab1d640b1fa27e30113a2.html" target="_top" xlink:title="Vruta">
<polygon fill="#edf0f7" stroke="#7f7f7f" points="583.43,-19 540.43,-19 540.43,0 583.43,0 583.43,-19"/>
<text text-anchor="middle" x="561.93" y="-7" font-family="Helvetica,sans-Serif" font-size="10.00">Vruta</text>
</a>
</g>
</g>
<!-- dir_6255f0ce6459d0667859648906699672&#45;&gt;dir_3ed6e73a097ab1d640b1fa27e30113a2 -->
<g id="edge12" class="edge">
<title>dir_6255f0ce6459d0667859648906699672&#45;&gt;dir_3ed6e73a097ab1d640b1fa27e30113a2</title>
<g id="a_edge12"><a xlink:href="dir_000093_000089.html" target="_top">
<path fill="none" stroke="#63b8ff" d="M535.22,-54.75C539.65,-47.42 546.1,-36.73 551.55,-27.7"/>
<polygon fill="#63b8ff" stroke="#63b8ff" points="554.58,-29.46 556.75,-19.09 548.58,-25.84 554.58,-29.46"/>
</a>
</g>
<g id="a_edge12&#45;headlabel"><a xlink:href="dir_000093_000089.html" target="_top" xlink:title="1">
<text text-anchor="middle" x="555.15" y="-31.5" font-family="Helvetica,sans-Serif" font-size="10.00" fill="#63b8ff">1</text>
</a>
</g>
</g>
<!-- dir_30c551cdb1b5e5e8d34a68131522bc06 -->
<g id="node15" class="node">
<title>dir_30c551cdb1b5e5e8d34a68131522bc06</title>
<g id="a_node15"><a xlink:href="dir_30c551cdb1b5e5e8d34a68131522bc06.html" target="_top" xlink:title="IO">
<polygon fill="#edf0f7" stroke="#7f7f7f" points="522.43,-19 493.43,-19 493.43,0 522.43,0 522.43,-19"/>
<text text-anchor="middle" x="507.93" y="-7" font-family="Helvetica,sans-Serif" font-size="10.00">IO</text>
</a>
</g>
</g>
<!-- dir_6255f0ce6459d0667859648906699672&#45;&gt;dir_30c551cdb1b5e5e8d34a68131522bc06 -->
<g id="edge11" class="edge">
<title>dir_6255f0ce6459d0667859648906699672&#45;&gt;dir_30c551cdb1b5e5e8d34a68131522bc06</title>
<g id="a_edge11"><a xlink:href="dir_000093_000032.html" target="_top">
<path fill="none" stroke="#63b8ff" d="M526.3,-54.75C523.35,-47.65 519.1,-37.4 515.43,-28.56"/>
<polygon fill="#63b8ff" stroke="#63b8ff" points="518.57,-26.98 511.5,-19.09 512.1,-29.67 518.57,-26.98"/>
</a>
</g>
<g id="a_edge11&#45;headlabel"><a xlink:href="dir_000093_000032.html" target="_top" xlink:title="1">
<text text-anchor="middle" x="522.57" y="-26.71" font-family="Helvetica,sans-Serif" font-size="10.00" fill="#63b8ff">1</text>
</a>
</g>
</g>
</g>
</svg>

<g id="navigator" transform="translate(0 0)" fill="#404254">
  <rect fill="#f2f5e9" fill-opacity="0.5" stroke="#606060" stroke-width=".5" x="0" y="0" width="60" height="60"/>
  <use id="zoomplus" xlink:href="#zoomPlus" x="17" y="9" onmousedown="handleZoom(evt,'in')"/>
  <use id="zoomminus" xlink:href="#zoomMin" x="42" y="9" onmousedown="handleZoom(evt,'out')"/>
  <use id="reset" xlink:href="#resetDef" x="30" y="36" onmousedown="handleReset()"/>
   <use id="arrowup" xlink:href="#arrowUp" x="0" y="0" onmousedown="handlePan(0,-1)"/>
  <use id="arrowright" xlink:href="#arrowRight" x="0" y="0" onmousedown="handlePan(1,0)"/>
  <use id="arrowdown" xlink:href="#arrowDown" x="0" y="0" onmousedown="handlePan(0,1)"/>
  <use id="arrowleft" xlink:href="#arrowLeft" x="0" y="0" onmousedown="handlePan(-1,0)"/>
</g>
<svg viewBox="0 0 15 15" width="100%" height="30px" preserveAspectRatio="xMaxYMin meet">
 <g id="arrow_out" transform="scale(0.3 0.3)">
  <a xlink:href="dir_94f1b68a6383a08583d02d2b55007930_dep_org.svg" target="_base">
   <rect id="button" ry="5" rx="5" y="6" x="6" height="38" width="38"
        fill="#f2f5e9" fill-opacity="0.5" stroke="#606060" stroke-width="1.0"/>
   <path id="arrow"
     d="M 11.500037,31.436501 C 11.940474,20.09759 22.043105,11.32322 32.158766,21.979434 L 37.068811,17.246167 C 37.068811,17.246167 37.088388,32 37.088388,32 L 22.160133,31.978069 C 22.160133,31.978069 26.997745,27.140456 26.997745,27.140456 C 18.528582,18.264221 13.291696,25.230495 11.500037,31.436501 z"
     style="fill:#404040;"/>
  </a>
 </g>
</svg>

<style type='text/css'>
<![CDATA[
[data-mouse-over-selected='false'] { opacity: 0.7; }
[data-mouse-over-selected='true']  { opacity: 1.0; }
]]>
</style>
<script type="application/ecmascript"><![CDATA[
document.addEventListener('DOMContentLoaded', (event) => {
  highlightEdges();
  highlightAdjacentNodes();
});
]]></script>
</svg>
