<?xml version="1.0" encoding="UTF-8" standalone="no"?>
<!DOCTYPE svg PUBLIC "-//W3C//DTD SVG 1.1//EN"
 "http://www.w3.org/Graphics/SVG/1.1/DTD/svg11.dtd">
<!-- Generated by graphviz version 2.43.0 (0)
 -->
<!-- Title: EventAwaiter.hpp Pages: 1 -->
<svg width="892pt" height="192pt"
 viewBox="0.00 0.00 892.00 192.00" xmlns="http://www.w3.org/2000/svg" xmlns:xlink="http://www.w3.org/1999/xlink">
<g id="graph0" class="graph" transform="scale(1 1) rotate(0) translate(4 188)">
<title>EventAwaiter.hpp</title>
<!-- Node1 -->
<g id="Node000001" class="node">
<title>Node1</title>
<g id="a_Node000001"><a xlink:title=" ">
<polygon fill="#999999" stroke="#666666" points="559.5,-184 457.5,-184 457.5,-165 559.5,-165 559.5,-184"/>
<text text-anchor="middle" x="508.5" y="-172" font-family="Helvetica,sans-Serif" font-size="10.00">EventAwaiter.hpp</text>
</a>
</g>
</g>
<!-- Node2 -->
<g id="Node000002" class="node">
<title>Node2</title>
<g id="a_Node000002"><a xlink:href="BroadcastAwaiter_8hpp.html" target="_top" xlink:title=" ">
<polygon fill="white" stroke="#666666" points="207,-129 84,-129 84,-110 207,-110 207,-129"/>
<text text-anchor="middle" x="145.5" y="-117" font-family="Helvetica,sans-Serif" font-size="10.00">BroadcastAwaiter.hpp</text>
</a>
</g>
</g>
<!-- Node1&#45;&gt;Node2 -->
<g id="edge1_Node000001_Node000002" class="edge">
<title>Node1&#45;&gt;Node2</title>
<g id="a_edge1_Node000001_Node000002"><a xlink:title=" ">
<path fill="none" stroke="#63b8ff" d="M447.14,-164.54C379.26,-154.63 270.69,-138.78 203.99,-129.04"/>
<polygon fill="#63b8ff" stroke="#63b8ff" points="446.86,-168.04 457.26,-166.02 447.87,-161.11 446.86,-168.04"/>
</a>
</g>
</g>
<!-- Node6 -->
<g id="Node000006" class="node">
<title>Node6</title>
<g id="a_Node000006"><a xlink:href="EventAwaiter_8cpp.html" target="_top" xlink:title=" ">
<polygon fill="white" stroke="#666666" points="326,-129 225,-129 225,-110 326,-110 326,-129"/>
<text text-anchor="middle" x="275.5" y="-117" font-family="Helvetica,sans-Serif" font-size="10.00">EventAwaiter.cpp</text>
</a>
</g>
</g>
<!-- Node1&#45;&gt;Node6 -->
<g id="edge5_Node000001_Node000006" class="edge">
<title>Node1&#45;&gt;Node6</title>
<g id="a_edge5_Node000001_Node000006"><a xlink:title=" ">
<path fill="none" stroke="#63b8ff" d="M461.25,-162.75C417.59,-152.82 353.56,-138.26 313.23,-129.08"/>
<polygon fill="#63b8ff" stroke="#63b8ff" points="460.54,-166.18 471.06,-164.98 462.09,-159.35 460.54,-166.18"/>
</a>
</g>
</g>
<!-- Node7 -->
<g id="Node000007" class="node">
<title>Node7</title>
<g id="a_Node000007"><a xlink:href="EventSource_8cpp.html" target="_top" xlink:title=" ">
<polygon fill="white" stroke="#666666" points="442.5,-129 344.5,-129 344.5,-110 442.5,-110 442.5,-129"/>
<text text-anchor="middle" x="393.5" y="-117" font-family="Helvetica,sans-Serif" font-size="10.00">EventSource.cpp</text>
</a>
</g>
</g>
<!-- Node1&#45;&gt;Node7 -->
<g id="edge6_Node000001_Node000007" class="edge">
<title>Node1&#45;&gt;Node7</title>
<g id="a_edge6_Node000001_Node000007"><a xlink:title=" ">
<path fill="none" stroke="#63b8ff" d="M480.87,-160.77C459.66,-150.99 430.94,-137.75 412.31,-129.17"/>
<polygon fill="#63b8ff" stroke="#63b8ff" points="479.48,-163.98 490.02,-164.98 482.41,-157.62 479.48,-163.98"/>
</a>
</g>
</g>
<!-- Node8 -->
<g id="Node000008" class="node">
<title>Node8</title>
<g id="a_Node000008"><a xlink:href="InputEvents_8cpp.html" target="_top" xlink:title=" ">
<polygon fill="white" stroke="#666666" points="556,-129 461,-129 461,-110 556,-110 556,-129"/>
<text text-anchor="middle" x="508.5" y="-117" font-family="Helvetica,sans-Serif" font-size="10.00">InputEvents.cpp</text>
</a>
</g>
</g>
<!-- Node1&#45;&gt;Node8 -->
<g id="edge7_Node000001_Node000008" class="edge">
<title>Node1&#45;&gt;Node8</title>
<g id="a_edge7_Node000001_Node000008"><a xlink:title=" ">
<path fill="none" stroke="#63b8ff" d="M508.5,-154.66C508.5,-145.93 508.5,-135.99 508.5,-129.09"/>
<polygon fill="#63b8ff" stroke="#63b8ff" points="505,-154.75 508.5,-164.75 512,-154.75 505,-154.75"/>
</a>
</g>
</g>
<!-- Node9 -->
<g id="Node000009" class="node">
<title>Node9</title>
<g id="a_Node000009"><a xlink:href="NetworkAwaiter_8hpp.html" target="_top" xlink:title=" ">
<polygon fill="white" stroke="#666666" points="690.5,-129 574.5,-129 574.5,-110 690.5,-110 690.5,-129"/>
<text text-anchor="middle" x="632.5" y="-117" font-family="Helvetica,sans-Serif" font-size="10.00">NetworkAwaiter.hpp</text>
</a>
</g>
</g>
<!-- Node1&#45;&gt;Node9 -->
<g id="edge8_Node000001_Node000009" class="edge">
<title>Node1&#45;&gt;Node9</title>
<g id="a_edge8_Node000001_Node000009"><a xlink:title=" ">
<path fill="none" stroke="#63b8ff" d="M537.68,-161.03C560.61,-151.23 591.95,-137.83 612.21,-129.17"/>
<polygon fill="#63b8ff" stroke="#63b8ff" points="536.24,-157.84 528.42,-164.98 538.99,-164.27 536.24,-157.84"/>
</a>
</g>
</g>
<!-- Node13 -->
<g id="Node000013" class="node">
<title>Node13</title>
<g id="a_Node000013"><a xlink:href="Wiring_8cpp.html" target="_top" xlink:title=" ">
<polygon fill="white" stroke="#666666" points="774.5,-74 706.5,-74 706.5,-55 774.5,-55 774.5,-74"/>
<text text-anchor="middle" x="740.5" y="-62" font-family="Helvetica,sans-Serif" font-size="10.00">Wiring.cpp</text>
</a>
</g>
</g>
<!-- Node1&#45;&gt;Node13 -->
<g id="edge14_Node000001_Node000013" class="edge">
<title>Node1&#45;&gt;Node13</title>
<g id="a_edge14_Node000001_Node000013"><a xlink:title=" ">
<path fill="none" stroke="#63b8ff" d="M569.97,-170.91C609.98,-166.56 661.59,-155.68 699.5,-129 719.25,-115.1 731.79,-88.38 737.28,-74.45"/>
<polygon fill="#63b8ff" stroke="#63b8ff" points="569.41,-167.45 559.8,-171.91 570.09,-174.42 569.41,-167.45"/>
</a>
</g>
</g>
<!-- Node14 -->
<g id="Node000014" class="node">
<title>Node14</title>
<g id="a_Node000014"><a xlink:href="WindowEventSource_8cpp.html" target="_top" xlink:title=" ">
<polygon fill="white" stroke="#666666" points="884,-129 747,-129 747,-110 884,-110 884,-129"/>
<text text-anchor="middle" x="815.5" y="-117" font-family="Helvetica,sans-Serif" font-size="10.00">WindowEventSource.cpp</text>
</a>
</g>
</g>
<!-- Node1&#45;&gt;Node14 -->
<g id="edge13_Node000001_Node000014" class="edge">
<title>Node1&#45;&gt;Node14</title>
<g id="a_edge13_Node000001_Node000014"><a xlink:title=" ">
<path fill="none" stroke="#63b8ff" d="M567.88,-163.25C625.53,-153.3 712.03,-138.36 766.04,-129.04"/>
<polygon fill="#63b8ff" stroke="#63b8ff" points="567.08,-159.83 557.82,-164.98 568.27,-166.73 567.08,-159.83"/>
</a>
</g>
</g>
<!-- Node3 -->
<g id="Node000003" class="node">
<title>Node3</title>
<g id="a_Node000003"><a xlink:href="BroadcastEvents_8hpp.html" target="_top" xlink:title=" ">
<polygon fill="white" stroke="#666666" points="119,-74 0,-74 0,-55 119,-55 119,-74"/>
<text text-anchor="middle" x="59.5" y="-62" font-family="Helvetica,sans-Serif" font-size="10.00">BroadcastEvents.hpp</text>
</a>
</g>
</g>
<!-- Node2&#45;&gt;Node3 -->
<g id="edge2_Node000002_Node000003" class="edge">
<title>Node2&#45;&gt;Node3</title>
<g id="a_edge2_Node000002_Node000003"><a xlink:title=" ">
<path fill="none" stroke="#63b8ff" d="M123.1,-104.7C107.43,-95.04 86.99,-82.44 73.57,-74.17"/>
<polygon fill="#63b8ff" stroke="#63b8ff" points="121.33,-107.72 131.68,-109.98 125.01,-101.76 121.33,-107.72"/>
</a>
</g>
</g>
<!-- Node5 -->
<g id="Node000005" class="node">
<title>Node5</title>
<g id="a_Node000005"><a xlink:href="VisionProcessor_8cpp.html" target="_top" xlink:title=" ">
<polygon fill="white" stroke="#666666" points="250,-74 137,-74 137,-55 250,-55 250,-74"/>
<text text-anchor="middle" x="193.5" y="-62" font-family="Helvetica,sans-Serif" font-size="10.00">VisionProcessor.cpp</text>
</a>
</g>
</g>
<!-- Node2&#45;&gt;Node5 -->
<g id="edge4_Node000002_Node000005" class="edge">
<title>Node2&#45;&gt;Node5</title>
<g id="a_edge4_Node000002_Node000005"><a xlink:title=" ">
<path fill="none" stroke="#63b8ff" d="M160.23,-102.24C168.64,-92.95 178.85,-81.68 185.72,-74.09"/>
<polygon fill="#63b8ff" stroke="#63b8ff" points="157.54,-99.99 153.43,-109.75 162.73,-104.69 157.54,-99.99"/>
</a>
</g>
</g>
<!-- Node4 -->
<g id="Node000004" class="node">
<title>Node4</title>
<g id="a_Node000004"><a xlink:href="BroadcastEvents_8cpp.html" target="_top" xlink:title=" ">
<polygon fill="white" stroke="#666666" points="119,-19 0,-19 0,0 119,0 119,-19"/>
<text text-anchor="middle" x="59.5" y="-7" font-family="Helvetica,sans-Serif" font-size="10.00">BroadcastEvents.cpp</text>
</a>
</g>
</g>
<!-- Node3&#45;&gt;Node4 -->
<g id="edge3_Node000003_Node000004" class="edge">
<title>Node3&#45;&gt;Node4</title>
<g id="a_edge3_Node000003_Node000004"><a xlink:title=" ">
<path fill="none" stroke="#63b8ff" d="M59.5,-44.66C59.5,-35.93 59.5,-25.99 59.5,-19.09"/>
<polygon fill="#63b8ff" stroke="#63b8ff" points="56,-44.75 59.5,-54.75 63,-44.75 56,-44.75"/>
</a>
</g>
</g>
<!-- Node10 -->
<g id="Node000010" class="node">
<title>Node10</title>
<g id="a_Node000010"><a xlink:href="NetworkAwaiter_8cpp.html" target="_top" xlink:title=" ">
<polygon fill="white" stroke="#666666" points="430,-74 315,-74 315,-55 430,-55 430,-74"/>
<text text-anchor="middle" x="372.5" y="-62" font-family="Helvetica,sans-Serif" font-size="10.00">NetworkAwaiter.cpp</text>
</a>
</g>
</g>
<!-- Node9&#45;&gt;Node10 -->
<g id="edge9_Node000009_Node000010" class="edge">
<title>Node9&#45;&gt;Node10</title>
<g id="a_edge9_Node000009_Node000010"><a xlink:title=" ">
<path fill="none" stroke="#63b8ff" d="M580.7,-107.94C531.96,-98.01 459.89,-83.31 414.6,-74.08"/>
<polygon fill="#63b8ff" stroke="#63b8ff" points="580.23,-111.42 590.73,-109.98 581.63,-104.56 580.23,-111.42"/>
</a>
</g>
</g>
<!-- Node11 -->
<g id="Node000011" class="node">
<title>Node11</title>
<g id="a_Node000011"><a xlink:href="NetworkEvents_8cpp.html" target="_top" xlink:title=" ">
<polygon fill="white" stroke="#666666" points="559,-74 448,-74 448,-55 559,-55 559,-74"/>
<text text-anchor="middle" x="503.5" y="-62" font-family="Helvetica,sans-Serif" font-size="10.00">NetworkEvents.cpp</text>
</a>
</g>
</g>
<!-- Node9&#45;&gt;Node11 -->
<g id="edge10_Node000009_Node000011" class="edge">
<title>Node9&#45;&gt;Node11</title>
<g id="a_edge10_Node000009_Node000011"><a xlink:title=" ">
<path fill="none" stroke="#63b8ff" d="M602.46,-106.16C578.58,-96.35 545.78,-82.87 524.6,-74.17"/>
<polygon fill="#63b8ff" stroke="#63b8ff" points="601.19,-109.42 611.77,-109.98 603.85,-102.95 601.19,-109.42"/>
</a>
</g>
</g>
<!-- Node12 -->
<g id="Node000012" class="node">
<title>Node12</title>
<g id="a_Node000012"><a xlink:href="NetworkSource_8cpp.html" target="_top" xlink:title=" ">
<polygon fill="white" stroke="#666666" points="688,-74 577,-74 577,-55 688,-55 688,-74"/>
<text text-anchor="middle" x="632.5" y="-62" font-family="Helvetica,sans-Serif" font-size="10.00">NetworkSource.cpp</text>
</a>
</g>
</g>
<!-- Node9&#45;&gt;Node12 -->
<g id="edge11_Node000009_Node000012" class="edge">
<title>Node9&#45;&gt;Node12</title>
<g id="a_edge11_Node000009_Node000012"><a xlink:title=" ">
<path fill="none" stroke="#63b8ff" d="M632.5,-99.66C632.5,-90.93 632.5,-80.99 632.5,-74.09"/>
<polygon fill="#63b8ff" stroke="#63b8ff" points="629,-99.75 632.5,-109.75 636,-99.75 629,-99.75"/>
</a>
</g>
</g>
<!-- Node9&#45;&gt;Node13 -->
<g id="edge12_Node000009_Node000013" class="edge">
<title>Node9&#45;&gt;Node13</title>
<g id="a_edge12_Node000009_Node000013"><a xlink:title=" ">
<path fill="none" stroke="#63b8ff" d="M658.99,-105.5C678.86,-95.75 705.5,-82.68 722.83,-74.17"/>
<polygon fill="#63b8ff" stroke="#63b8ff" points="657.29,-102.44 649.85,-109.98 660.37,-108.72 657.29,-102.44"/>
</a>
</g>
</g>
</g>
</svg>
