<?xml version="1.0" encoding="UTF-8" standalone="no"?>
<!DOCTYPE svg PUBLIC "-//W3C//DTD SVG 1.1//EN"
 "http://www.w3.org/Graphics/SVG/1.1/DTD/svg11.dtd">
<!-- Generated by graphviz version 2.43.0 (0)
 -->
<!-- Title: FFmpegDemuxContext.hpp Pages: 1 -->
<svg width="768pt" height="302pt"
 viewBox="0.00 0.00 767.50 302.00" xmlns="http://www.w3.org/2000/svg" xmlns:xlink="http://www.w3.org/1999/xlink">
<g id="graph0" class="graph" transform="scale(1 1) rotate(0) translate(4 298)">
<title>FFmpegDemuxContext.hpp</title>
<!-- Node1 -->
<g id="Node000001" class="node">
<title>Node1</title>
<g id="a_Node000001"><a xlink:title=" ">
<polygon fill="#999999" stroke="#666666" points="466,-294 315,-294 315,-275 466,-275 466,-294"/>
<text text-anchor="middle" x="390.5" y="-282" font-family="Helvetica,sans-Serif" font-size="10.00">FFmpegDemuxContext.hpp</text>
</a>
</g>
</g>
<!-- Node2 -->
<g id="Node000002" class="node">
<title>Node2</title>
<g id="a_Node000002"><a xlink:href="AudioStreamContext_8hpp.html" target="_top" xlink:title=" ">
<polygon fill="white" stroke="#666666" points="294,-239 155,-239 155,-220 294,-220 294,-239"/>
<text text-anchor="middle" x="224.5" y="-227" font-family="Helvetica,sans-Serif" font-size="10.00">AudioStreamContext.hpp</text>
</a>
</g>
</g>
<!-- Node1&#45;&gt;Node2 -->
<g id="edge1_Node000001_Node000002" class="edge">
<title>Node1&#45;&gt;Node2</title>
<g id="a_edge1_Node000001_Node000002"><a xlink:title=" ">
<path fill="none" stroke="#63b8ff" d="M354.25,-271.93C323.25,-262.03 279.33,-248.01 251.38,-239.08"/>
<polygon fill="#63b8ff" stroke="#63b8ff" points="353.24,-275.28 363.83,-274.98 355.37,-268.61 353.24,-275.28"/>
</a>
</g>
</g>
<!-- Node4 -->
<g id="Node000004" class="node">
<title>Node4</title>
<g id="a_Node000004"><a xlink:href="SoundFileReader_8hpp.html" target="_top" xlink:title=" ">
<polygon fill="white" stroke="#666666" points="119,-184 0,-184 0,-165 119,-165 119,-184"/>
<text text-anchor="middle" x="59.5" y="-172" font-family="Helvetica,sans-Serif" font-size="10.00">SoundFileReader.hpp</text>
</a>
</g>
</g>
<!-- Node1&#45;&gt;Node4 -->
<g id="edge19_Node000001_Node000004" class="edge">
<title>Node1&#45;&gt;Node4</title>
<g id="a_edge19_Node000001_Node000004"><a xlink:title=" ">
<path fill="none" stroke="#63b8ff" d="M304.65,-277.54C256.34,-271.85 195.79,-260.73 145.5,-239 113.81,-225.31 82.77,-197.99 68.17,-184.08"/>
<polygon fill="#63b8ff" stroke="#63b8ff" points="304.44,-281.04 314.77,-278.68 305.22,-274.08 304.44,-281.04"/>
</a>
</g>
</g>
<!-- Node6 -->
<g id="Node000006" class="node">
<title>Node6</title>
<g id="a_Node000006"><a xlink:href="VideoFileReader_8hpp.html" target="_top" xlink:title=" ">
<polygon fill="white" stroke="#666666" points="399.5,-129 283.5,-129 283.5,-110 399.5,-110 399.5,-129"/>
<text text-anchor="middle" x="341.5" y="-117" font-family="Helvetica,sans-Serif" font-size="10.00">VideoFileReader.hpp</text>
</a>
</g>
</g>
<!-- Node1&#45;&gt;Node6 -->
<g id="edge20_Node000001_Node000006" class="edge">
<title>Node1&#45;&gt;Node6</title>
<g id="a_edge20_Node000001_Node000006"><a xlink:title=" ">
<path fill="none" stroke="#63b8ff" d="M377.28,-266.82C371.58,-258.83 365.35,-248.86 361.5,-239 346.24,-199.94 342.61,-149.16 341.76,-129.15"/>
<polygon fill="#63b8ff" stroke="#63b8ff" points="374.54,-268.99 383.33,-274.9 380.14,-264.79 374.54,-268.99"/>
</a>
</g>
</g>
<!-- Node15 -->
<g id="Node000015" class="node">
<title>Node15</title>
<g id="a_Node000015"><a xlink:href="CameraReader_8hpp.html" target="_top" xlink:title=" ">
<polygon fill="white" stroke="#666666" points="673.5,-184 563.5,-184 563.5,-165 673.5,-165 673.5,-184"/>
<text text-anchor="middle" x="618.5" y="-172" font-family="Helvetica,sans-Serif" font-size="10.00">CameraReader.hpp</text>
</a>
</g>
</g>
<!-- Node1&#45;&gt;Node15 -->
<g id="edge15_Node000001_Node000015" class="edge">
<title>Node1&#45;&gt;Node15</title>
<g id="a_edge15_Node000001_Node000015"><a xlink:title=" ">
<path fill="none" stroke="#63b8ff" d="M476.48,-282.58C554.01,-279.7 659.81,-270 686.5,-239 704.94,-217.58 666.39,-195.77 640.15,-184.11"/>
<polygon fill="#63b8ff" stroke="#63b8ff" points="476.1,-279.09 466.22,-282.92 476.34,-286.08 476.1,-279.09"/>
</a>
</g>
</g>
<!-- Node17 -->
<g id="Node000017" class="node">
<title>Node17</title>
<g id="a_Node000017"><a xlink:href="FFmpegDemuxContext_8cpp.html" target="_top" xlink:title=" ">
<polygon fill="white" stroke="#666666" points="677.5,-239 527.5,-239 527.5,-220 677.5,-220 677.5,-239"/>
<text text-anchor="middle" x="602.5" y="-227" font-family="Helvetica,sans-Serif" font-size="10.00">FFmpegDemuxContext.cpp</text>
</a>
</g>
</g>
<!-- Node1&#45;&gt;Node17 -->
<g id="edge18_Node000001_Node000017" class="edge">
<title>Node1&#45;&gt;Node17</title>
<g id="a_edge18_Node000001_Node000017"><a xlink:title=" ">
<path fill="none" stroke="#63b8ff" d="M434.5,-272.5C474.19,-262.58 531.78,-248.18 568.17,-239.08"/>
<polygon fill="#63b8ff" stroke="#63b8ff" points="433.41,-269.16 424.56,-274.98 435.11,-275.95 433.41,-269.16"/>
</a>
</g>
</g>
<!-- Node18 -->
<g id="Node000018" class="node">
<title>Node18</title>
<g id="a_Node000018"><a xlink:href="VideoStreamContext_8hpp.html" target="_top" xlink:title=" ">
<polygon fill="white" stroke="#666666" points="509,-239 370,-239 370,-220 509,-220 509,-239"/>
<text text-anchor="middle" x="439.5" y="-227" font-family="Helvetica,sans-Serif" font-size="10.00">VideoStreamContext.hpp</text>
</a>
</g>
</g>
<!-- Node1&#45;&gt;Node18 -->
<g id="edge21_Node000001_Node000018" class="edge">
<title>Node1&#45;&gt;Node18</title>
<g id="a_edge21_Node000001_Node000018"><a xlink:title=" ">
<path fill="none" stroke="#63b8ff" d="M405.53,-267.24C414.12,-257.95 424.54,-246.68 431.56,-239.09"/>
<polygon fill="#63b8ff" stroke="#63b8ff" points="402.81,-265.03 398.59,-274.75 407.95,-269.78 402.81,-265.03"/>
</a>
</g>
</g>
<!-- Node3 -->
<g id="Node000003" class="node">
<title>Node3</title>
<g id="a_Node000003"><a xlink:href="AudioStreamContext_8cpp.html" target="_top" xlink:title=" ">
<polygon fill="white" stroke="#666666" points="275.5,-184 137.5,-184 137.5,-165 275.5,-165 275.5,-184"/>
<text text-anchor="middle" x="206.5" y="-172" font-family="Helvetica,sans-Serif" font-size="10.00">AudioStreamContext.cpp</text>
</a>
</g>
</g>
<!-- Node2&#45;&gt;Node3 -->
<g id="edge2_Node000002_Node000003" class="edge">
<title>Node2&#45;&gt;Node3</title>
<g id="a_edge2_Node000002_Node000003"><a xlink:title=" ">
<path fill="none" stroke="#63b8ff" d="M218.3,-210.24C215.29,-201.37 211.81,-191.14 209.42,-184.09"/>
<polygon fill="#63b8ff" stroke="#63b8ff" points="215,-211.4 221.53,-219.75 221.63,-209.15 215,-211.4"/>
</a>
</g>
</g>
<!-- Node2&#45;&gt;Node4 -->
<g id="edge3_Node000002_Node000004" class="edge">
<title>Node2&#45;&gt;Node4</title>
<g id="a_edge3_Node000002_Node000004"><a xlink:title=" ">
<path fill="none" stroke="#63b8ff" d="M188.07,-216.8C157.28,-206.91 113.88,-192.97 86.22,-184.08"/>
<polygon fill="#63b8ff" stroke="#63b8ff" points="187.4,-220.26 197.99,-219.98 189.54,-213.59 187.4,-220.26"/>
</a>
</g>
</g>
<!-- Node2&#45;&gt;Node6 -->
<g id="edge14_Node000002_Node000006" class="edge">
<title>Node2&#45;&gt;Node6</title>
<g id="a_edge14_Node000002_Node000006"><a xlink:title=" ">
<path fill="none" stroke="#63b8ff" d="M245.88,-214.22C257.72,-205.94 272.43,-194.99 284.5,-184 304.21,-166.04 324.39,-141.95 334.62,-129.22"/>
<polygon fill="#63b8ff" stroke="#63b8ff" points="243.74,-211.45 237.49,-219.99 247.71,-217.21 243.74,-211.45"/>
</a>
</g>
</g>
<!-- Node5 -->
<g id="Node000005" class="node">
<title>Node5</title>
<g id="a_Node000005"><a xlink:href="SoundFileReader_8cpp.html" target="_top" xlink:title=" ">
<polygon fill="white" stroke="#666666" points="118.5,-129 0.5,-129 0.5,-110 118.5,-110 118.5,-129"/>
<text text-anchor="middle" x="59.5" y="-117" font-family="Helvetica,sans-Serif" font-size="10.00">SoundFileReader.cpp</text>
</a>
</g>
</g>
<!-- Node4&#45;&gt;Node5 -->
<g id="edge4_Node000004_Node000005" class="edge">
<title>Node4&#45;&gt;Node5</title>
<g id="a_edge4_Node000004_Node000005"><a xlink:title=" ">
<path fill="none" stroke="#63b8ff" d="M59.5,-154.66C59.5,-145.93 59.5,-135.99 59.5,-129.09"/>
<polygon fill="#63b8ff" stroke="#63b8ff" points="56,-154.75 59.5,-164.75 63,-154.75 56,-154.75"/>
</a>
</g>
</g>
<!-- Node4&#45;&gt;Node6 -->
<g id="edge5_Node000004_Node000006" class="edge">
<title>Node4&#45;&gt;Node6</title>
<g id="a_edge5_Node000004_Node000006"><a xlink:title=" ">
<path fill="none" stroke="#63b8ff" d="M114.69,-163.13C167.56,-153.19 246.4,-138.37 295.84,-129.08"/>
<polygon fill="#63b8ff" stroke="#63b8ff" points="113.99,-159.7 104.81,-164.98 115.28,-166.58 113.99,-159.7"/>
</a>
</g>
</g>
<!-- Node7 -->
<g id="Node000007" class="node">
<title>Node7</title>
<g id="a_Node000007"><a xlink:href="IOManager_8hpp.html" target="_top" xlink:title=" ">
<polygon fill="white" stroke="#666666" points="543.5,-74 453.5,-74 453.5,-55 543.5,-55 543.5,-74"/>
<text text-anchor="middle" x="498.5" y="-62" font-family="Helvetica,sans-Serif" font-size="10.00">IOManager.hpp</text>
</a>
</g>
</g>
<!-- Node6&#45;&gt;Node7 -->
<g id="edge6_Node000006_Node000007" class="edge">
<title>Node6&#45;&gt;Node7</title>
<g id="a_edge6_Node000006_Node000007"><a xlink:title=" ">
<path fill="none" stroke="#63b8ff" d="M376.55,-106.67C405.82,-96.79 446.87,-82.93 473.08,-74.08"/>
<polygon fill="#63b8ff" stroke="#63b8ff" points="375.08,-103.47 366.72,-109.98 377.32,-110.1 375.08,-103.47"/>
</a>
</g>
</g>
<!-- Node14 -->
<g id="Node000014" class="node">
<title>Node14</title>
<g id="a_Node000014"><a xlink:href="VideoFileReader_8cpp.html" target="_top" xlink:title=" ">
<polygon fill="white" stroke="#666666" points="399.5,-74 283.5,-74 283.5,-55 399.5,-55 399.5,-74"/>
<text text-anchor="middle" x="341.5" y="-62" font-family="Helvetica,sans-Serif" font-size="10.00">VideoFileReader.cpp</text>
</a>
</g>
</g>
<!-- Node6&#45;&gt;Node14 -->
<g id="edge13_Node000006_Node000014" class="edge">
<title>Node6&#45;&gt;Node14</title>
<g id="a_edge13_Node000006_Node000014"><a xlink:title=" ">
<path fill="none" stroke="#63b8ff" d="M341.5,-99.66C341.5,-90.93 341.5,-80.99 341.5,-74.09"/>
<polygon fill="#63b8ff" stroke="#63b8ff" points="338,-99.75 341.5,-109.75 345,-99.75 338,-99.75"/>
</a>
</g>
</g>
<!-- Node8 -->
<g id="Node000008" class="node">
<title>Node8</title>
<g id="a_Node000008"><a xlink:href="BufferOperation_8cpp.html" target="_top" xlink:title=" ">
<polygon fill="white" stroke="#666666" points="314.5,-19 200.5,-19 200.5,0 314.5,0 314.5,-19"/>
<text text-anchor="middle" x="257.5" y="-7" font-family="Helvetica,sans-Serif" font-size="10.00">BufferOperation.cpp</text>
</a>
</g>
</g>
<!-- Node7&#45;&gt;Node8 -->
<g id="edge7_Node000007_Node000008" class="edge">
<title>Node7&#45;&gt;Node8</title>
<g id="a_edge7_Node000007_Node000008"><a xlink:title=" ">
<path fill="none" stroke="#63b8ff" d="M449.92,-52.82C404.75,-42.88 338.33,-28.28 296.52,-19.08"/>
<polygon fill="#63b8ff" stroke="#63b8ff" points="449.26,-56.26 459.78,-54.98 450.76,-49.42 449.26,-56.26"/>
</a>
</g>
</g>
<!-- Node9 -->
<g id="Node000009" class="node">
<title>Node9</title>
<g id="a_Node000009"><a xlink:href="Creator_8cpp.html" target="_top" xlink:title=" ">
<polygon fill="white" stroke="#666666" points="404.5,-19 332.5,-19 332.5,0 404.5,0 404.5,-19"/>
<text text-anchor="middle" x="368.5" y="-7" font-family="Helvetica,sans-Serif" font-size="10.00">Creator.cpp</text>
</a>
</g>
</g>
<!-- Node7&#45;&gt;Node9 -->
<g id="edge8_Node000007_Node000009" class="edge">
<title>Node7&#45;&gt;Node9</title>
<g id="a_edge8_Node000007_Node000009"><a xlink:title=" ">
<path fill="none" stroke="#63b8ff" d="M468.23,-51.16C444.16,-41.35 411.1,-27.87 389.77,-19.17"/>
<polygon fill="#63b8ff" stroke="#63b8ff" points="467.03,-54.45 477.61,-54.98 469.67,-47.97 467.03,-54.45"/>
</a>
</g>
</g>
<!-- Node10 -->
<g id="Node000010" class="node">
<title>Node10</title>
<g id="a_Node000010"><a xlink:href="Depot_8cpp.html" target="_top" xlink:title=" ">
<polygon fill="white" stroke="#666666" points="488.5,-19 422.5,-19 422.5,0 488.5,0 488.5,-19"/>
<text text-anchor="middle" x="455.5" y="-7" font-family="Helvetica,sans-Serif" font-size="10.00">Depot.cpp</text>
</a>
</g>
</g>
<!-- Node7&#45;&gt;Node10 -->
<g id="edge9_Node000007_Node000010" class="edge">
<title>Node7&#45;&gt;Node10</title>
<g id="a_edge9_Node000007_Node000010"><a xlink:title=" ">
<path fill="none" stroke="#63b8ff" d="M485.08,-46.96C477.59,-37.72 468.56,-26.6 462.47,-19.09"/>
<polygon fill="#63b8ff" stroke="#63b8ff" points="482.38,-49.19 491.4,-54.75 487.82,-44.78 482.38,-49.19"/>
</a>
</g>
</g>
<!-- Node11 -->
<g id="Node000011" class="node">
<title>Node11</title>
<g id="a_Node000011"><a xlink:href="Engine_8cpp.html" target="_top" xlink:title=" ">
<polygon fill="white" stroke="#666666" points="576.5,-19 506.5,-19 506.5,0 576.5,0 576.5,-19"/>
<text text-anchor="middle" x="541.5" y="-7" font-family="Helvetica,sans-Serif" font-size="10.00">Engine.cpp</text>
</a>
</g>
</g>
<!-- Node7&#45;&gt;Node11 -->
<g id="edge10_Node000007_Node000011" class="edge">
<title>Node7&#45;&gt;Node11</title>
<g id="a_edge10_Node000007_Node000011"><a xlink:title=" ">
<path fill="none" stroke="#63b8ff" d="M511.92,-46.96C519.41,-37.72 528.44,-26.6 534.53,-19.09"/>
<polygon fill="#63b8ff" stroke="#63b8ff" points="509.18,-44.78 505.6,-54.75 514.62,-49.19 509.18,-44.78"/>
</a>
</g>
</g>
<!-- Node12 -->
<g id="Node000012" class="node">
<title>Node12</title>
<g id="a_Node000012"><a xlink:href="IOManager_8cpp.html" target="_top" xlink:title=" ">
<polygon fill="white" stroke="#666666" points="684,-19 595,-19 595,0 684,0 684,-19"/>
<text text-anchor="middle" x="639.5" y="-7" font-family="Helvetica,sans-Serif" font-size="10.00">IOManager.cpp</text>
</a>
</g>
</g>
<!-- Node7&#45;&gt;Node12 -->
<g id="edge11_Node000007_Node000012" class="edge">
<title>Node7&#45;&gt;Node12</title>
<g id="a_edge11_Node000007_Node000012"><a xlink:title=" ">
<path fill="none" stroke="#63b8ff" d="M530.64,-51.42C556.79,-41.59 593.09,-27.95 616.43,-19.17"/>
<polygon fill="#63b8ff" stroke="#63b8ff" points="529.28,-48.19 521.15,-54.98 531.75,-54.74 529.28,-48.19"/>
</a>
</g>
</g>
<!-- Node13 -->
<g id="Node000013" class="node">
<title>Node13</title>
<g id="a_Node000013"><a xlink:href="Rigs_8cpp.html" target="_top" xlink:title=" ">
<polygon fill="white" stroke="#666666" points="759.5,-19 701.5,-19 701.5,0 759.5,0 759.5,-19"/>
<text text-anchor="middle" x="730.5" y="-7" font-family="Helvetica,sans-Serif" font-size="10.00">Rigs.cpp</text>
</a>
</g>
</g>
<!-- Node7&#45;&gt;Node13 -->
<g id="edge12_Node000007_Node000013" class="edge">
<title>Node7&#45;&gt;Node13</title>
<g id="a_edge12_Node000007_Node000013"><a xlink:title=" ">
<path fill="none" stroke="#63b8ff" d="M545.77,-52.73C585.26,-43.73 643.06,-30.55 693.5,-19 696.07,-18.41 698.74,-17.8 701.42,-17.19"/>
<polygon fill="#63b8ff" stroke="#63b8ff" points="544.86,-49.35 535.89,-54.99 546.41,-56.18 544.86,-49.35"/>
</a>
</g>
</g>
<!-- Node15&#45;&gt;Node7 -->
<g id="edge17_Node000015_Node000007" class="edge">
<title>Node15&#45;&gt;Node7</title>
<g id="a_edge17_Node000015_Node000007"><a xlink:title=" ">
<path fill="none" stroke="#63b8ff" d="M596.11,-159.47C583.65,-151.23 568.14,-140.25 555.5,-129 535.58,-111.27 515.49,-87.08 505.32,-74.28"/>
<polygon fill="#63b8ff" stroke="#63b8ff" points="594.27,-162.45 604.57,-164.95 598.08,-156.58 594.27,-162.45"/>
</a>
</g>
</g>
<!-- Node16 -->
<g id="Node000016" class="node">
<title>Node16</title>
<g id="a_Node000016"><a xlink:href="CameraReader_8cpp.html" target="_top" xlink:title=" ">
<polygon fill="white" stroke="#666666" points="673,-129 564,-129 564,-110 673,-110 673,-129"/>
<text text-anchor="middle" x="618.5" y="-117" font-family="Helvetica,sans-Serif" font-size="10.00">CameraReader.cpp</text>
</a>
</g>
</g>
<!-- Node15&#45;&gt;Node16 -->
<g id="edge16_Node000015_Node000016" class="edge">
<title>Node15&#45;&gt;Node16</title>
<g id="a_edge16_Node000015_Node000016"><a xlink:title=" ">
<path fill="none" stroke="#63b8ff" d="M618.5,-154.66C618.5,-145.93 618.5,-135.99 618.5,-129.09"/>
<polygon fill="#63b8ff" stroke="#63b8ff" points="615,-154.75 618.5,-164.75 622,-154.75 615,-154.75"/>
</a>
</g>
</g>
<!-- Node18&#45;&gt;Node6 -->
<g id="edge23_Node000018_Node000006" class="edge">
<title>Node18&#45;&gt;Node6</title>
<g id="a_edge23_Node000018_Node000006"><a xlink:title=" ">
<path fill="none" stroke="#63b8ff" d="M424.79,-212.64C416.96,-204.16 407.18,-193.54 398.5,-184 380.76,-164.49 360.13,-141.41 349.21,-129.16"/>
<polygon fill="#63b8ff" stroke="#63b8ff" points="422.25,-215.04 431.61,-220 427.38,-210.28 422.25,-215.04"/>
</a>
</g>
</g>
<!-- Node18&#45;&gt;Node15 -->
<g id="edge22_Node000018_Node000015" class="edge">
<title>Node18&#45;&gt;Node15</title>
<g id="a_edge22_Node000018_Node000015"><a xlink:title=" ">
<path fill="none" stroke="#63b8ff" d="M478.15,-217.06C511.61,-207.15 559.25,-193.04 589.52,-184.08"/>
<polygon fill="#63b8ff" stroke="#63b8ff" points="476.85,-213.79 468.26,-219.98 478.84,-220.5 476.85,-213.79"/>
</a>
</g>
</g>
<!-- Node19 -->
<g id="Node000019" class="node">
<title>Node19</title>
<g id="a_Node000019"><a xlink:href="VideoStreamContext_8cpp.html" target="_top" xlink:title=" ">
<polygon fill="white" stroke="#666666" points="545.5,-184 407.5,-184 407.5,-165 545.5,-165 545.5,-184"/>
<text text-anchor="middle" x="476.5" y="-172" font-family="Helvetica,sans-Serif" font-size="10.00">VideoStreamContext.cpp</text>
</a>
</g>
</g>
<!-- Node18&#45;&gt;Node19 -->
<g id="edge24_Node000018_Node000019" class="edge">
<title>Node18&#45;&gt;Node19</title>
<g id="a_edge24_Node000018_Node000019"><a xlink:title=" ">
<path fill="none" stroke="#63b8ff" d="M451.45,-211.39C457.81,-202.27 465.37,-191.45 470.5,-184.09"/>
<polygon fill="#63b8ff" stroke="#63b8ff" points="448.46,-209.55 445.61,-219.75 454.2,-213.55 448.46,-209.55"/>
</a>
</g>
</g>
</g>
</svg>
