<?xml version="1.0" encoding="UTF-8" standalone="no"?>
<!DOCTYPE svg PUBLIC "-//W3C//DTD SVG 1.1//EN"
 "http://www.w3.org/Graphics/SVG/1.1/DTD/svg11.dtd">
<!-- Generated by graphviz version 2.43.0 (0)
 -->
<!-- Title: FieldOperator.cpp Pages: 1 -->
<!--zoomable 412 -->

<svg id="main" version="1.1" xmlns="http://www.w3.org/2000/svg" xmlns:xlink="http://www.w3.org/1999/xlink" xml:space="preserve" onload="init(evt)">
<style type="text/css"><![CDATA[
.node, .edge {opacity: 0.7;}
.node.selected, .edge.selected {opacity: 1;}
.edge:hover path { stroke: red; }
.edge:hover polygon { stroke: red; fill: red; }
]]></style>

<defs>
  <circle id="rim" cx="0" cy="0" r="7"/>
  <circle id="rim2" cx="0" cy="0" r="3.5"/>
  <g id="zoomPlus">
    <use xlink:href="#rim" fill="#404040"><set attributeName="fill" to="#808080" begin="zoomplus.mouseover" end="zoomplus.mouseout"/></use>
    <path d="M-4,0h8M0,-4v8" fill="none" stroke="white" stroke-width="1.5" pointer-events="none"/>
  </g>
  <g id="zoomMin">
    <use xlink:href="#rim" fill="#404040"><set attributeName="fill" to="#808080" begin="zoomminus.mouseover" end="zoomminus.mouseout"/></use>
    <path d="M-4,0h8" fill="none" stroke="white" stroke-width="1.5" pointer-events="none"/>
  </g>
  <g id="arrowUp" transform="translate(30 24)">
    <use xlink:href="#rim"/>
    <path pointer-events="none" fill="none" stroke="white" stroke-width="1.5" d="M0,-3.0v7 M-2.5,-0.5L0,-3.0L2.5,-0.5"/>
  </g>
  <g id="arrowRight" transform="rotate(90) translate(36 -43)">
    <use xlink:href="#rim"/>
    <path pointer-events="none" fill="none" stroke="white" stroke-width="1.5" d="M0,-3.0v7 M-2.5,-0.5L0,-3.0L2.5,-0.5"/>
  </g>
  <g id="arrowDown" transform="rotate(180) translate(-30 -48)">
    <use xlink:href="#rim"/>
    <path pointer-events="none" fill="none" stroke="white" stroke-width="1.5" d="M0,-3.0v7 M-2.5,-0.5L0,-3.0L2.5,-0.5"/>
  </g>
  <g id="arrowLeft" transform="rotate(270) translate(-36 17)">
    <use xlink:href="#rim"/>
    <path pointer-events="none" fill="none" stroke="white" stroke-width="1.5" d="M0,-3.0v7 M-2.5,-0.5L0,-3.0L2.5,-0.5"/>
  </g>
  <g id="resetDef">
    <use xlink:href="#rim2" fill="#404040"><set attributeName="fill" to="#808080" begin="reset.mouseover" end="reset.mouseout"/></use>
  </g>
</defs>
<script type="application/ecmascript">
var viewWidth = 1181;
var viewHeight = 412;
var sectionId = 'dynsection-0';
</script>
<script type="application/ecmascript" xlink:href="svg.min.js"/>
<svg id="graph" class="graph">
<g id="viewport">
<title>FieldOperator.cpp</title>
<!-- Node1 -->
<g id="Node000001" class="node">
<title>Node1</title>
<g id="a_Node000001"><a xlink:title=" ">
<polygon fill="#999999" stroke="#666666" points="607,-404 505,-404 505,-385 607,-385 607,-404"/>
<text text-anchor="middle" x="556" y="-392" font-family="Helvetica,sans-Serif" font-size="10.00">FieldOperator.cpp</text>
</a>
</g>
</g>
<!-- Node2 -->
<g id="Node000002" class="node">
<title>Node2</title>
<g id="a_Node000002"><a xlink:href="FieldOperator_8hpp.html" target="_top" xlink:title=" ">
<polygon fill="white" stroke="#666666" points="303.5,-343.5 200.5,-343.5 200.5,-324.5 303.5,-324.5 303.5,-343.5"/>
<text text-anchor="middle" x="252" y="-331.5" font-family="Helvetica,sans-Serif" font-size="10.00">FieldOperator.hpp</text>
</a>
</g>
</g>
<!-- Node1&#45;&gt;Node2 -->
<g id="edge1_Node000001_Node000002" class="edge">
<title>Node1&#45;&gt;Node2</title>
<g id="a_edge1_Node000001_Node000002"><a xlink:title=" ">
<path fill="none" stroke="#63b8ff" d="M511.8,-384.99C457.31,-374.51 364.76,-356.7 306.09,-345.41"/>
<polygon fill="#63b8ff" stroke="#63b8ff" points="306.74,-341.97 296.26,-343.52 305.42,-348.84 306.74,-341.97"/>
</a>
</g>
</g>
<!-- Node12 -->
<g id="Node000012" class="node">
<title>Node12</title>
<g id="a_Node000012"><a xlink:href="Archivist_8hpp.html" target="_top" xlink:title=" ">
<polygon fill="white" stroke="#666666" points="883,-343.5 715,-343.5 715,-324.5 883,-324.5 883,-343.5"/>
<text text-anchor="middle" x="799" y="-331.5" font-family="Helvetica,sans-Serif" font-size="10.00">MayaFlux/Journal/Archivist.hpp</text>
</a>
</g>
</g>
<!-- Node1&#45;&gt;Node12 -->
<g id="edge13_Node000001_Node000012" class="edge">
<title>Node1&#45;&gt;Node12</title>
<g id="a_edge13_Node000001_Node000012"><a xlink:title=" ">
<path fill="none" stroke="#63b8ff" d="M591.33,-384.99C634.26,-374.66 706.74,-357.21 753.72,-345.9"/>
<polygon fill="#63b8ff" stroke="#63b8ff" points="754.72,-349.26 763.62,-343.52 753.08,-342.45 754.72,-349.26"/>
</a>
</g>
</g>
<!-- Node19 -->
<g id="Node000019" class="node">
<title>Node19</title>
<g id="a_Node000019"><a xlink:href="NodeNetwork_8hpp.html" target="_top" xlink:title=" ">
<polygon fill="white" stroke="#666666" points="627.5,-349 484.5,-349 484.5,-319 627.5,-319 627.5,-349"/>
<text text-anchor="start" x="492.5" y="-337" font-family="Helvetica,sans-Serif" font-size="10.00">MayaFlux/Nodes/Network</text>
<text text-anchor="middle" x="556" y="-326" font-family="Helvetica,sans-Serif" font-size="10.00">/NodeNetwork.hpp</text>
</a>
</g>
</g>
<!-- Node1&#45;&gt;Node19 -->
<g id="edge20_Node000001_Node000019" class="edge">
<title>Node1&#45;&gt;Node19</title>
<g id="a_edge20_Node000001_Node000019"><a xlink:title=" ">
<path fill="none" stroke="#63b8ff" d="M556,-384.87C556,-378.11 556,-368.35 556,-359.26"/>
<polygon fill="#63b8ff" stroke="#63b8ff" points="559.5,-359.11 556,-349.11 552.5,-359.11 559.5,-359.11"/>
</a>
</g>
</g>
<!-- Node3 -->
<g id="Node000003" class="node">
<title>Node3</title>
<g id="a_Node000003"><a xlink:href="GraphicsOperator_8hpp.html" target="_top" xlink:title=" ">
<polygon fill="white" stroke="#666666" points="388,-277.5 266,-277.5 266,-258.5 388,-258.5 388,-277.5"/>
<text text-anchor="middle" x="327" y="-265.5" font-family="Helvetica,sans-Serif" font-size="10.00">GraphicsOperator.hpp</text>
</a>
</g>
</g>
<!-- Node2&#45;&gt;Node3 -->
<g id="edge2_Node000002_Node000003" class="edge">
<title>Node2&#45;&gt;Node3</title>
<g id="a_edge2_Node000002_Node000003"><a xlink:title=" ">
<path fill="none" stroke="#63b8ff" d="M262.11,-324.37C274.01,-314.21 294,-297.16 308.65,-284.65"/>
<polygon fill="#63b8ff" stroke="#63b8ff" points="311.23,-287.06 316.56,-277.91 306.69,-281.73 311.23,-287.06"/>
</a>
</g>
</g>
<!-- Node9 -->
<g id="Node000009" class="node">
<title>Node9</title>
<g id="a_Node000009"><a xlink:href="Tendency_8hpp.html" target="_top" xlink:title=" ">
<polygon fill="white" stroke="#666666" points="152,-85 0,-85 0,-55 152,-55 152,-85"/>
<text text-anchor="start" x="8" y="-73" font-family="Helvetica,sans-Serif" font-size="10.00">MayaFlux/Kinesis/Tendency</text>
<text text-anchor="middle" x="76" y="-62" font-family="Helvetica,sans-Serif" font-size="10.00">/Tendency.hpp</text>
</a>
</g>
</g>
<!-- Node2&#45;&gt;Node9 -->
<g id="edge8_Node000002_Node000009" class="edge">
<title>Node2&#45;&gt;Node9</title>
<g id="a_edge8_Node000002_Node000009"><a xlink:title=" ">
<path fill="none" stroke="#63b8ff" d="M200.32,-330.8C164.98,-326.35 120.14,-314.35 95,-283 50.99,-228.12 61.93,-137.63 70.43,-94.84"/>
<polygon fill="#63b8ff" stroke="#63b8ff" points="73.86,-95.54 72.5,-85.04 67.01,-94.1 73.86,-95.54"/>
</a>
</g>
</g>
<!-- Node10 -->
<g id="Node000010" class="node">
<title>Node10</title>
<g id="a_Node000010"><a xlink:href="VertexSpec_8hpp.html" target="_top" xlink:title=" ">
<polygon fill="white" stroke="#666666" points="248,-283 104,-283 104,-253 248,-253 248,-283"/>
<text text-anchor="start" x="112" y="-271" font-family="Helvetica,sans-Serif" font-size="10.00">MayaFlux/Nodes/Graphics</text>
<text text-anchor="middle" x="176" y="-260" font-family="Helvetica,sans-Serif" font-size="10.00">/VertexSpec.hpp</text>
</a>
</g>
</g>
<!-- Node2&#45;&gt;Node10 -->
<g id="edge10_Node000002_Node000010" class="edge">
<title>Node2&#45;&gt;Node10</title>
<g id="a_edge10_Node000002_Node000010"><a xlink:title=" ">
<path fill="none" stroke="#63b8ff" d="M241.75,-324.37C231.25,-315.53 214.54,-301.45 200.59,-289.71"/>
<polygon fill="#63b8ff" stroke="#63b8ff" points="202.67,-286.88 192.76,-283.12 198.16,-292.23 202.67,-286.88"/>
</a>
</g>
</g>
<!-- Node4 -->
<g id="Node000004" class="node">
<title>Node4</title>
<g id="a_Node000004"><a xlink:href="VertexLayout_8hpp.html" target="_top" xlink:title=" ">
<polygon fill="white" stroke="#666666" points="283.5,-151 132.5,-151 132.5,-121 283.5,-121 283.5,-151"/>
<text text-anchor="start" x="140.5" y="-139" font-family="Helvetica,sans-Serif" font-size="10.00">MayaFlux/Kakshya/NDData</text>
<text text-anchor="middle" x="208" y="-128" font-family="Helvetica,sans-Serif" font-size="10.00">/VertexLayout.hpp</text>
</a>
</g>
</g>
<!-- Node3&#45;&gt;Node4 -->
<g id="edge3_Node000003_Node000004" class="edge">
<title>Node3&#45;&gt;Node4</title>
<g id="a_edge3_Node000003_Node000004"><a xlink:title=" ">
<path fill="none" stroke="#63b8ff" d="M321.14,-258.12C310.86,-242.84 288.51,-210.9 266,-187 256.29,-176.69 244.62,-166.3 234.3,-157.69"/>
<polygon fill="#63b8ff" stroke="#63b8ff" points="236.33,-154.83 226.38,-151.19 231.89,-160.24 236.33,-154.83"/>
</a>
</g>
</g>
<!-- Node8 -->
<g id="Node000008" class="node">
<title>Node8</title>
<g id="a_Node000008"><a xlink:href="NetworkOperator_8hpp.html" target="_top" xlink:title=" ">
<polygon fill="white" stroke="#666666" points="442.5,-211.5 321.5,-211.5 321.5,-192.5 442.5,-192.5 442.5,-211.5"/>
<text text-anchor="middle" x="382" y="-199.5" font-family="Helvetica,sans-Serif" font-size="10.00">NetworkOperator.hpp</text>
</a>
</g>
</g>
<!-- Node3&#45;&gt;Node8 -->
<g id="edge7_Node000003_Node000008" class="edge">
<title>Node3&#45;&gt;Node8</title>
<g id="a_edge7_Node000003_Node000008"><a xlink:title=" ">
<path fill="none" stroke="#63b8ff" d="M334.42,-258.37C342.9,-248.5 356.98,-232.11 367.63,-219.72"/>
<polygon fill="#63b8ff" stroke="#63b8ff" points="370.48,-221.77 374.35,-211.91 365.17,-217.21 370.48,-221.77"/>
</a>
</g>
</g>
<!-- Node5 -->
<g id="Node000005" class="node">
<title>Node5</title>
<g id="a_Node000005"><a xlink:href="NDData_8hpp.html" target="_top" xlink:title=" ">
<polygon fill="white" stroke="#666666" points="246,-79.5 170,-79.5 170,-60.5 246,-60.5 246,-79.5"/>
<text text-anchor="middle" x="208" y="-67.5" font-family="Helvetica,sans-Serif" font-size="10.00">NDData.hpp</text>
</a>
</g>
</g>
<!-- Node4&#45;&gt;Node5 -->
<g id="edge4_Node000004_Node000005" class="edge">
<title>Node4&#45;&gt;Node5</title>
<g id="a_edge4_Node000004_Node000005"><a xlink:title=" ">
<path fill="none" stroke="#63b8ff" d="M208,-120.8C208,-111.7 208,-99.79 208,-89.9"/>
<polygon fill="#63b8ff" stroke="#63b8ff" points="211.5,-89.84 208,-79.84 204.5,-89.84 211.5,-89.84"/>
</a>
</g>
</g>
<!-- Node6 -->
<g id="Node000006" class="node">
<title>Node6</title>
<g id="a_Node000006"><a xlink:title=" ">
<polygon fill="#e0e0e0" stroke="#999999" points="136,-19 58,-19 58,0 136,0 136,-19"/>
<text text-anchor="middle" x="97" y="-7" font-family="Helvetica,sans-Serif" font-size="10.00">glm/glm.hpp</text>
</a>
</g>
</g>
<!-- Node5&#45;&gt;Node6 -->
<g id="edge5_Node000005_Node000006" class="edge">
<title>Node5&#45;&gt;Node6</title>
<g id="a_edge5_Node000005_Node000006"><a xlink:title=" ">
<path fill="none" stroke="#63b8ff" d="M191.62,-60.37C173.42,-50.78 143.8,-35.17 122.55,-23.97"/>
<polygon fill="#63b8ff" stroke="#63b8ff" points="123.92,-20.73 113.45,-19.17 120.66,-26.93 123.92,-20.73"/>
</a>
</g>
</g>
<!-- Node7 -->
<g id="Node000007" class="node">
<title>Node7</title>
<g id="a_Node000007"><a xlink:title=" ">
<polygon fill="#e0e0e0" stroke="#999999" points="240.5,-19 175.5,-19 175.5,0 240.5,0 240.5,-19"/>
<text text-anchor="middle" x="208" y="-7" font-family="Helvetica,sans-Serif" font-size="10.00">typeindex</text>
</a>
</g>
</g>
<!-- Node5&#45;&gt;Node7 -->
<g id="edge6_Node000005_Node000007" class="edge">
<title>Node5&#45;&gt;Node7</title>
<g id="a_edge6_Node000005_Node000007"><a xlink:title=" ">
<path fill="none" stroke="#63b8ff" d="M208,-60.37C208,-52.25 208,-39.81 208,-29.39"/>
<polygon fill="#63b8ff" stroke="#63b8ff" points="211.5,-29.17 208,-19.17 204.5,-29.17 211.5,-29.17"/>
</a>
</g>
</g>
<!-- Node9&#45;&gt;Node6 -->
<g id="edge9_Node000009_Node000006" class="edge">
<title>Node9&#45;&gt;Node6</title>
<g id="a_edge9_Node000009_Node000006"><a xlink:title=" ">
<path fill="none" stroke="#63b8ff" d="M81.08,-54.84C83.88,-47.04 87.39,-37.27 90.4,-28.89"/>
<polygon fill="#63b8ff" stroke="#63b8ff" points="93.77,-29.86 93.85,-19.27 87.18,-27.5 93.77,-29.86"/>
</a>
</g>
</g>
<!-- Node11 -->
<g id="Node000011" class="node">
<title>Node11</title>
<g id="a_Node000011"><a xlink:href="VertexFormats_8hpp.html" target="_top" xlink:title=" ">
<polygon fill="white" stroke="#666666" points="257.5,-217 106.5,-217 106.5,-187 257.5,-187 257.5,-217"/>
<text text-anchor="start" x="114.5" y="-205" font-family="Helvetica,sans-Serif" font-size="10.00">MayaFlux/Kakshya/NDData</text>
<text text-anchor="middle" x="182" y="-194" font-family="Helvetica,sans-Serif" font-size="10.00">/VertexFormats.hpp</text>
</a>
</g>
</g>
<!-- Node10&#45;&gt;Node11 -->
<g id="edge11_Node000010_Node000011" class="edge">
<title>Node10&#45;&gt;Node11</title>
<g id="a_edge11_Node000010_Node000011"><a xlink:title=" ">
<path fill="none" stroke="#63b8ff" d="M177.33,-252.8C178.04,-245.26 178.93,-235.78 179.74,-227.13"/>
<polygon fill="#63b8ff" stroke="#63b8ff" points="183.22,-227.45 180.67,-217.16 176.25,-226.79 183.22,-227.45"/>
</a>
</g>
</g>
<!-- Node11&#45;&gt;Node4 -->
<g id="edge12_Node000011_Node000004" class="edge">
<title>Node11&#45;&gt;Node4</title>
<g id="a_edge12_Node000011_Node000004"><a xlink:title=" ">
<path fill="none" stroke="#63b8ff" d="M187.77,-186.8C190.9,-179.09 194.85,-169.37 198.43,-160.56"/>
<polygon fill="#63b8ff" stroke="#63b8ff" points="201.72,-161.75 202.25,-151.16 195.24,-159.11 201.72,-161.75"/>
</a>
</g>
</g>
<!-- Node13 -->
<g id="Node000013" class="node">
<title>Node13</title>
<g id="a_Node000013"><a xlink:href="JournalEntry_8hpp.html" target="_top" xlink:title=" ">
<polygon fill="white" stroke="#666666" points="958.5,-277.5 863.5,-277.5 863.5,-258.5 958.5,-258.5 958.5,-277.5"/>
<text text-anchor="middle" x="911" y="-265.5" font-family="Helvetica,sans-Serif" font-size="10.00">JournalEntry.hpp</text>
</a>
</g>
</g>
<!-- Node12&#45;&gt;Node13 -->
<g id="edge14_Node000012_Node000013" class="edge">
<title>Node12&#45;&gt;Node13</title>
<g id="a_edge14_Node000012_Node000013"><a xlink:title=" ">
<path fill="none" stroke="#63b8ff" d="M814.1,-324.37C832.81,-313.68 864.9,-295.35 886.99,-282.72"/>
<polygon fill="#63b8ff" stroke="#63b8ff" points="888.83,-285.7 895.78,-277.7 885.36,-279.62 888.83,-285.7"/>
</a>
</g>
</g>
<!-- Node18 -->
<g id="Node000018" class="node">
<title>Node18</title>
<g id="a_Node000018"><a xlink:title=" ">
<polygon fill="#e0e0e0" stroke="#999999" points="824,-277.5 774,-277.5 774,-258.5 824,-258.5 824,-277.5"/>
<text text-anchor="middle" x="799" y="-265.5" font-family="Helvetica,sans-Serif" font-size="10.00">format</text>
</a>
</g>
</g>
<!-- Node12&#45;&gt;Node18 -->
<g id="edge19_Node000012_Node000018" class="edge">
<title>Node12&#45;&gt;Node18</title>
<g id="a_edge19_Node000012_Node000018"><a xlink:title=" ">
<path fill="none" stroke="#63b8ff" d="M799,-324.37C799,-315.16 799,-300.29 799,-288.27"/>
<polygon fill="#63b8ff" stroke="#63b8ff" points="802.5,-287.91 799,-277.91 795.5,-287.91 802.5,-287.91"/>
</a>
</g>
</g>
<!-- Node14 -->
<g id="Node000014" class="node">
<title>Node14</title>
<g id="a_Node000014"><a xlink:href="EnumReflect_8hpp.html" target="_top" xlink:title=" ">
<polygon fill="white" stroke="#666666" points="1104.5,-217 965.5,-217 965.5,-187 1104.5,-187 1104.5,-217"/>
<text text-anchor="start" x="973.5" y="-205" font-family="Helvetica,sans-Serif" font-size="10.00">MayaFlux/Transitive</text>
<text text-anchor="middle" x="1035" y="-194" font-family="Helvetica,sans-Serif" font-size="10.00">/Reflect/EnumReflect.hpp</text>
</a>
</g>
</g>
<!-- Node13&#45;&gt;Node14 -->
<g id="edge15_Node000013_Node000014" class="edge">
<title>Node13&#45;&gt;Node14</title>
<g id="a_edge15_Node000013_Node000014"><a xlink:title=" ">
<path fill="none" stroke="#63b8ff" d="M927.72,-258.37C945.81,-249.03 975.22,-233.86 998.67,-221.75"/>
<polygon fill="#63b8ff" stroke="#63b8ff" points="1000.37,-224.81 1007.65,-217.12 997.16,-218.59 1000.37,-224.81"/>
</a>
</g>
</g>
<!-- Node15 -->
<g id="Node000015" class="node">
<title>Node15</title>
<g id="a_Node000015"><a xlink:title=" ">
<polygon fill="#e0e0e0" stroke="#999999" points="1173,-211.5 1123,-211.5 1123,-192.5 1173,-192.5 1173,-211.5"/>
<text text-anchor="middle" x="1148" y="-199.5" font-family="Helvetica,sans-Serif" font-size="10.00">chrono</text>
</a>
</g>
</g>
<!-- Node13&#45;&gt;Node15 -->
<g id="edge16_Node000013_Node000015" class="edge">
<title>Node13&#45;&gt;Node15</title>
<g id="a_edge16_Node000013_Node000015"><a xlink:title=" ">
<path fill="none" stroke="#63b8ff" d="M953.51,-258.46C994.94,-249.69 1059.49,-234.82 1114,-217 1115.67,-216.45 1117.37,-215.86 1119.08,-215.25"/>
<polygon fill="#63b8ff" stroke="#63b8ff" points="1120.7,-218.37 1128.77,-211.5 1118.18,-211.84 1120.7,-218.37"/>
</a>
</g>
</g>
<!-- Node16 -->
<g id="Node000016" class="node">
<title>Node16</title>
<g id="a_Node000016"><a xlink:title=" ">
<polygon fill="#e0e0e0" stroke="#999999" points="856.5,-211.5 763.5,-211.5 763.5,-192.5 856.5,-192.5 856.5,-211.5"/>
<text text-anchor="middle" x="810" y="-199.5" font-family="Helvetica,sans-Serif" font-size="10.00">source_location</text>
</a>
</g>
</g>
<!-- Node13&#45;&gt;Node16 -->
<g id="edge17_Node000013_Node000016" class="edge">
<title>Node13&#45;&gt;Node16</title>
<g id="a_edge17_Node000013_Node000016"><a xlink:title=" ">
<path fill="none" stroke="#63b8ff" d="M897.38,-258.37C880.66,-247.78 852.09,-229.67 832.19,-217.06"/>
<polygon fill="#63b8ff" stroke="#63b8ff" points="834.05,-214.1 823.73,-211.7 830.3,-220.01 834.05,-214.1"/>
</a>
</g>
</g>
<!-- Node17 -->
<g id="Node000017" class="node">
<title>Node17</title>
<g id="a_Node000017"><a xlink:title=" ">
<polygon fill="#e0e0e0" stroke="#999999" points="947.5,-211.5 874.5,-211.5 874.5,-192.5 947.5,-192.5 947.5,-211.5"/>
<text text-anchor="middle" x="911" y="-199.5" font-family="Helvetica,sans-Serif" font-size="10.00">string_view</text>
</a>
</g>
</g>
<!-- Node13&#45;&gt;Node17 -->
<g id="edge18_Node000013_Node000017" class="edge">
<title>Node13&#45;&gt;Node17</title>
<g id="a_edge18_Node000013_Node000017"><a xlink:title=" ">
<path fill="none" stroke="#63b8ff" d="M911,-258.37C911,-249.16 911,-234.29 911,-222.27"/>
<polygon fill="#63b8ff" stroke="#63b8ff" points="914.5,-221.91 911,-211.91 907.5,-221.91 914.5,-221.91"/>
</a>
</g>
</g>
<!-- Node20 -->
<g id="Node000020" class="node">
<title>Node20</title>
<g id="a_Node000020"><a xlink:href="OperatorChain_8hpp.html" target="_top" xlink:title=" ">
<polygon fill="white" stroke="#666666" points="568,-283 406,-283 406,-253 568,-253 568,-283"/>
<text text-anchor="start" x="414" y="-271" font-family="Helvetica,sans-Serif" font-size="10.00">MayaFlux/Nodes/Network</text>
<text text-anchor="middle" x="487" y="-260" font-family="Helvetica,sans-Serif" font-size="10.00">/Operators/OperatorChain.hpp</text>
</a>
</g>
</g>
<!-- Node19&#45;&gt;Node20 -->
<g id="edge21_Node000019_Node000020" class="edge">
<title>Node19&#45;&gt;Node20</title>
<g id="a_edge21_Node000019_Node000020"><a xlink:title=" ">
<path fill="none" stroke="#63b8ff" d="M540.69,-318.8C531.57,-310.34 519.84,-299.46 509.67,-290.03"/>
<polygon fill="#63b8ff" stroke="#63b8ff" points="511.98,-287.4 502.27,-283.16 507.22,-292.53 511.98,-287.4"/>
</a>
</g>
</g>
<!-- Node21 -->
<g id="Node000021" class="node">
<title>Node21</title>
<g id="a_Node000021"><a xlink:href="Node_8hpp.html" target="_top" xlink:title=" ">
<polygon fill="white" stroke="#666666" points="734,-277.5 586,-277.5 586,-258.5 734,-258.5 734,-277.5"/>
<text text-anchor="middle" x="660" y="-265.5" font-family="Helvetica,sans-Serif" font-size="10.00">MayaFlux/Nodes/Node.hpp</text>
</a>
</g>
</g>
<!-- Node19&#45;&gt;Node21 -->
<g id="edge23_Node000019_Node000021" class="edge">
<title>Node19&#45;&gt;Node21</title>
<g id="a_edge23_Node000019_Node000021"><a xlink:title=" ">
<path fill="none" stroke="#63b8ff" d="M578.82,-318.95C596.18,-308.27 619.94,-293.65 637.27,-282.98"/>
<polygon fill="#63b8ff" stroke="#63b8ff" points="639.48,-285.74 646.16,-277.52 635.81,-279.78 639.48,-285.74"/>
</a>
</g>
</g>
<!-- Node20&#45;&gt;Node8 -->
<g id="edge22_Node000020_Node000008" class="edge">
<title>Node20&#45;&gt;Node8</title>
<g id="a_edge22_Node000020_Node000008"><a xlink:title=" ">
<path fill="none" stroke="#63b8ff" d="M463.96,-252.95C446.44,-242.27 422.44,-227.65 404.94,-216.98"/>
<polygon fill="#63b8ff" stroke="#63b8ff" points="406.33,-213.73 395.97,-211.52 402.69,-219.71 406.33,-213.73"/>
</a>
</g>
</g>
<!-- Node22 -->
<g id="Node000022" class="node">
<title>Node22</title>
<g id="a_Node000022"><a xlink:href="GpuContext_8hpp.html" target="_top" xlink:title=" ">
<polygon fill="white" stroke="#666666" points="556.5,-211.5 461.5,-211.5 461.5,-192.5 556.5,-192.5 556.5,-211.5"/>
<text text-anchor="middle" x="509" y="-199.5" font-family="Helvetica,sans-Serif" font-size="10.00">GpuContext.hpp</text>
</a>
</g>
</g>
<!-- Node21&#45;&gt;Node22 -->
<g id="edge24_Node000021_Node000022" class="edge">
<title>Node21&#45;&gt;Node22</title>
<g id="a_edge24_Node000021_Node000022"><a xlink:title=" ">
<path fill="none" stroke="#63b8ff" d="M639.64,-258.37C613.74,-247.39 568.83,-228.36 539.01,-215.72"/>
<polygon fill="#63b8ff" stroke="#63b8ff" points="540.1,-212.38 529.52,-211.7 537.37,-218.82 540.1,-212.38"/>
</a>
</g>
</g>
<!-- Node23 -->
<g id="Node000023" class="node">
<title>Node23</title>
<g id="a_Node000023"><a xlink:href="NodeUtils_8hpp.html" target="_top" xlink:title=" ">
<polygon fill="white" stroke="#666666" points="745,-211.5 575,-211.5 575,-192.5 745,-192.5 745,-211.5"/>
<text text-anchor="middle" x="660" y="-199.5" font-family="Helvetica,sans-Serif" font-size="10.00">MayaFlux/Nodes/NodeUtils.hpp</text>
</a>
</g>
</g>
<!-- Node21&#45;&gt;Node23 -->
<g id="edge25_Node000021_Node000023" class="edge">
<title>Node21&#45;&gt;Node23</title>
<g id="a_edge25_Node000021_Node000023"><a xlink:title=" ">
<path fill="none" stroke="#63b8ff" d="M660,-258.37C660,-249.16 660,-234.29 660,-222.27"/>
<polygon fill="#63b8ff" stroke="#63b8ff" points="663.5,-221.91 660,-211.91 656.5,-221.91 663.5,-221.91"/>
</a>
</g>
</g>
<!-- Node24 -->
<g id="Node000024" class="node">
<title>Node24</title>
<g id="a_Node000024"><a xlink:href="NodeSpec_8hpp.html" target="_top" xlink:title=" ">
<polygon fill="white" stroke="#666666" points="703,-145.5 617,-145.5 617,-126.5 703,-126.5 703,-145.5"/>
<text text-anchor="middle" x="660" y="-133.5" font-family="Helvetica,sans-Serif" font-size="10.00">NodeSpec.hpp</text>
</a>
</g>
</g>
<!-- Node23&#45;&gt;Node24 -->
<g id="edge26_Node000023_Node000024" class="edge">
<title>Node23&#45;&gt;Node24</title>
<g id="a_edge26_Node000023_Node000024"><a xlink:title=" ">
<path fill="none" stroke="#63b8ff" d="M660,-192.37C660,-183.16 660,-168.29 660,-156.27"/>
<polygon fill="#63b8ff" stroke="#63b8ff" points="663.5,-155.91 660,-145.91 656.5,-155.91 663.5,-155.91"/>
</a>
</g>
</g>
</g>
</svg>

<g id="navigator" transform="translate(0 0)" fill="#404254">
  <rect fill="#f2f5e9" fill-opacity="0.5" stroke="#606060" stroke-width=".5" x="0" y="0" width="60" height="60"/>
  <use id="zoomplus" xlink:href="#zoomPlus" x="17" y="9" onmousedown="handleZoom(evt,'in')"/>
  <use id="zoomminus" xlink:href="#zoomMin" x="42" y="9" onmousedown="handleZoom(evt,'out')"/>
  <use id="reset" xlink:href="#resetDef" x="30" y="36" onmousedown="handleReset()"/>
   <use id="arrowup" xlink:href="#arrowUp" x="0" y="0" onmousedown="handlePan(0,-1)"/>
  <use id="arrowright" xlink:href="#arrowRight" x="0" y="0" onmousedown="handlePan(1,0)"/>
  <use id="arrowdown" xlink:href="#arrowDown" x="0" y="0" onmousedown="handlePan(0,1)"/>
  <use id="arrowleft" xlink:href="#arrowLeft" x="0" y="0" onmousedown="handlePan(-1,0)"/>
</g>
<svg viewBox="0 0 15 15" width="100%" height="30px" preserveAspectRatio="xMaxYMin meet">
 <g id="arrow_out" transform="scale(0.3 0.3)">
  <a xlink:href="FieldOperator_8cpp__incl_org.svg" target="_base">
   <rect id="button" ry="5" rx="5" y="6" x="6" height="38" width="38"
        fill="#f2f5e9" fill-opacity="0.5" stroke="#606060" stroke-width="1.0"/>
   <path id="arrow"
     d="M 11.500037,31.436501 C 11.940474,20.09759 22.043105,11.32322 32.158766,21.979434 L 37.068811,17.246167 C 37.068811,17.246167 37.088388,32 37.088388,32 L 22.160133,31.978069 C 22.160133,31.978069 26.997745,27.140456 26.997745,27.140456 C 18.528582,18.264221 13.291696,25.230495 11.500037,31.436501 z"
     style="fill:#404040;"/>
  </a>
 </g>
</svg>

<style type='text/css'>
<![CDATA[
[data-mouse-over-selected='false'] { opacity: 0.7; }
[data-mouse-over-selected='true']  { opacity: 1.0; }
]]>
</style>
<script type="application/ecmascript"><![CDATA[
document.addEventListener('DOMContentLoaded', (event) => {
  highlightEdges();
  highlightAdjacentNodes();
});
]]></script>
</svg>
