<?xml version="1.0" encoding="UTF-8" standalone="no"?>
<!DOCTYPE svg PUBLIC "-//W3C//DTD SVG 1.1//EN"
 "http://www.w3.org/Graphics/SVG/1.1/DTD/svg11.dtd">
<!-- Generated by graphviz version 2.43.0 (0)
 -->
<!-- Title: FileSink.hpp Pages: 1 -->
<svg width="455pt" height="258pt"
 viewBox="0.00 0.00 454.50 258.00" xmlns="http://www.w3.org/2000/svg" xmlns:xlink="http://www.w3.org/1999/xlink">
<g id="graph0" class="graph" transform="scale(1 1) rotate(0) translate(4 254)">
<title>FileSink.hpp</title>
<!-- Node1 -->
<g id="Node000001" class="node">
<title>Node1</title>
<g id="a_Node000001"><a xlink:title=" ">
<polygon fill="#999999" stroke="#666666" points="215,-250 139,-250 139,-231 215,-231 215,-250"/>
<text text-anchor="middle" x="177" y="-238" font-family="Helvetica,sans-Serif" font-size="10.00">FileSink.hpp</text>
</a>
</g>
</g>
<!-- Node2 -->
<g id="Node000002" class="node">
<title>Node2</title>
<g id="a_Node000002"><a xlink:href="TextFileWriter_8hpp.html" target="_top" xlink:title=" ">
<polygon fill="white" stroke="#666666" points="195.5,-195 26.5,-195 26.5,-176 195.5,-176 195.5,-195"/>
<text text-anchor="middle" x="111" y="-183" font-family="Helvetica,sans-Serif" font-size="10.00">MayaFlux/IO/TextFileWriter.hpp</text>
</a>
</g>
</g>
<!-- Node1&#45;&gt;Node2 -->
<g id="edge1_Node000001_Node000002" class="edge">
<title>Node1&#45;&gt;Node2</title>
<g id="a_edge1_Node000001_Node000002"><a xlink:title=" ">
<path fill="none" stroke="#63b8ff" d="M166.4,-230.98C156.54,-223.07 141.65,-211.11 129.78,-201.58"/>
<polygon fill="#63b8ff" stroke="#63b8ff" points="131.79,-198.7 121.8,-195.17 127.4,-204.16 131.79,-198.7"/>
</a>
</g>
</g>
<!-- Node5 -->
<g id="Node000005" class="node">
<title>Node5</title>
<g id="a_Node000005"><a xlink:href="Sink_8hpp.html" target="_top" xlink:title=" ">
<polygon fill="white" stroke="#666666" points="272.5,-195 213.5,-195 213.5,-176 272.5,-176 272.5,-195"/>
<text text-anchor="middle" x="243" y="-183" font-family="Helvetica,sans-Serif" font-size="10.00">Sink.hpp</text>
</a>
</g>
</g>
<!-- Node1&#45;&gt;Node5 -->
<g id="edge4_Node000001_Node000005" class="edge">
<title>Node1&#45;&gt;Node5</title>
<g id="a_edge4_Node000001_Node000005"><a xlink:title=" ">
<path fill="none" stroke="#63b8ff" d="M187.6,-230.98C197.46,-223.07 212.35,-211.11 224.22,-201.58"/>
<polygon fill="#63b8ff" stroke="#63b8ff" points="226.6,-204.16 232.2,-195.17 222.21,-198.7 226.6,-204.16"/>
</a>
</g>
</g>
<!-- Node3 -->
<g id="Node000003" class="node">
<title>Node3</title>
<g id="a_Node000003"><a xlink:href="FileWriter_8hpp.html" target="_top" xlink:title=" ">
<polygon fill="white" stroke="#666666" points="84,-140 0,-140 0,-121 84,-121 84,-140"/>
<text text-anchor="middle" x="42" y="-128" font-family="Helvetica,sans-Serif" font-size="10.00">FileWriter.hpp</text>
</a>
</g>
</g>
<!-- Node2&#45;&gt;Node3 -->
<g id="edge2_Node000002_Node000003" class="edge">
<title>Node2&#45;&gt;Node3</title>
<g id="a_edge2_Node000002_Node000003"><a xlink:title=" ">
<path fill="none" stroke="#63b8ff" d="M99.91,-175.98C89.51,-168 73.74,-155.88 61.28,-146.31"/>
<polygon fill="#63b8ff" stroke="#63b8ff" points="63.35,-143.49 53.29,-140.17 59.09,-149.04 63.35,-143.49"/>
</a>
</g>
</g>
<!-- Node4 -->
<g id="Node000004" class="node">
<title>Node4</title>
<g id="a_Node000004"><a xlink:title=" ">
<polygon fill="#e0e0e0" stroke="#999999" points="157.5,-140 102.5,-140 102.5,-121 157.5,-121 157.5,-140"/>
<text text-anchor="middle" x="130" y="-128" font-family="Helvetica,sans-Serif" font-size="10.00">fstream</text>
</a>
</g>
</g>
<!-- Node2&#45;&gt;Node4 -->
<g id="edge3_Node000002_Node000004" class="edge">
<title>Node2&#45;&gt;Node4</title>
<g id="a_edge3_Node000002_Node000004"><a xlink:title=" ">
<path fill="none" stroke="#63b8ff" d="M114.14,-175.75C116.68,-168.65 120.36,-158.4 123.53,-149.56"/>
<polygon fill="#63b8ff" stroke="#63b8ff" points="126.84,-150.68 126.92,-140.09 120.25,-148.32 126.84,-150.68"/>
</a>
</g>
</g>
<!-- Node6 -->
<g id="Node000006" class="node">
<title>Node6</title>
<g id="a_Node000006"><a xlink:href="JournalEntry_8hpp.html" target="_top" xlink:title=" ">
<polygon fill="white" stroke="#666666" points="311.5,-85 216.5,-85 216.5,-66 311.5,-66 311.5,-85"/>
<text text-anchor="middle" x="264" y="-73" font-family="Helvetica,sans-Serif" font-size="10.00">JournalEntry.hpp</text>
</a>
</g>
</g>
<!-- Node5&#45;&gt;Node6 -->
<g id="edge5_Node000005_Node000006" class="edge">
<title>Node5&#45;&gt;Node6</title>
<g id="a_edge5_Node000005_Node000006"><a xlink:title=" ">
<path fill="none" stroke="#63b8ff" d="M241.8,-175.74C240.39,-163.37 238.71,-140.15 243,-121 245.08,-111.74 249.3,-102.14 253.43,-94.23"/>
<polygon fill="#63b8ff" stroke="#63b8ff" points="256.6,-95.72 258.42,-85.28 250.49,-92.31 256.6,-95.72"/>
</a>
</g>
</g>
<!-- Node11 -->
<g id="Node000011" class="node">
<title>Node11</title>
<g id="a_Node000011"><a xlink:href="RealtimeEntry_8hpp.html" target="_top" xlink:title=" ">
<polygon fill="white" stroke="#666666" points="358,-140 252,-140 252,-121 358,-121 358,-140"/>
<text text-anchor="middle" x="305" y="-128" font-family="Helvetica,sans-Serif" font-size="10.00">RealtimeEntry.hpp</text>
</a>
</g>
</g>
<!-- Node5&#45;&gt;Node11 -->
<g id="edge10_Node000005_Node000011" class="edge">
<title>Node5&#45;&gt;Node11</title>
<g id="a_edge10_Node000005_Node000011"><a xlink:title=" ">
<path fill="none" stroke="#63b8ff" d="M252.96,-175.98C262.13,-168.15 275.94,-156.34 287.03,-146.86"/>
<polygon fill="#63b8ff" stroke="#63b8ff" points="289.53,-149.33 294.86,-140.17 284.98,-144.01 289.53,-149.33"/>
</a>
</g>
</g>
<!-- Node7 -->
<g id="Node000007" class="node">
<title>Node7</title>
<g id="a_Node000007"><a xlink:href="EnumReflect_8hpp.html" target="_top" xlink:title=" ">
<polygon fill="white" stroke="#666666" points="175.5,-30 36.5,-30 36.5,0 175.5,0 175.5,-30"/>
<text text-anchor="start" x="44.5" y="-18" font-family="Helvetica,sans-Serif" font-size="10.00">MayaFlux/Transitive</text>
<text text-anchor="middle" x="106" y="-7" font-family="Helvetica,sans-Serif" font-size="10.00">/Reflect/EnumReflect.hpp</text>
</a>
</g>
</g>
<!-- Node6&#45;&gt;Node7 -->
<g id="edge6_Node000006_Node000007" class="edge">
<title>Node6&#45;&gt;Node7</title>
<g id="a_edge6_Node000006_Node000007"><a xlink:title=" ">
<path fill="none" stroke="#63b8ff" d="M241.03,-65.99C218.19,-57.54 182.48,-44.32 153.52,-33.59"/>
<polygon fill="#63b8ff" stroke="#63b8ff" points="154.58,-30.25 143.99,-30.06 152.15,-36.82 154.58,-30.25"/>
</a>
</g>
</g>
<!-- Node8 -->
<g id="Node000008" class="node">
<title>Node8</title>
<g id="a_Node000008"><a xlink:title=" ">
<polygon fill="#e0e0e0" stroke="#999999" points="244,-24.5 194,-24.5 194,-5.5 244,-5.5 244,-24.5"/>
<text text-anchor="middle" x="219" y="-12.5" font-family="Helvetica,sans-Serif" font-size="10.00">chrono</text>
</a>
</g>
</g>
<!-- Node6&#45;&gt;Node8 -->
<g id="edge7_Node000006_Node000008" class="edge">
<title>Node6&#45;&gt;Node8</title>
<g id="a_edge7_Node000006_Node000008"><a xlink:title=" ">
<path fill="none" stroke="#63b8ff" d="M257.36,-65.87C250.71,-57.23 240.31,-43.7 232.01,-32.92"/>
<polygon fill="#63b8ff" stroke="#63b8ff" points="234.54,-30.46 225.67,-24.67 228.99,-34.73 234.54,-30.46"/>
</a>
</g>
</g>
<!-- Node9 -->
<g id="Node000009" class="node">
<title>Node9</title>
<g id="a_Node000009"><a xlink:title=" ">
<polygon fill="#e0e0e0" stroke="#999999" points="355.5,-24.5 262.5,-24.5 262.5,-5.5 355.5,-5.5 355.5,-24.5"/>
<text text-anchor="middle" x="309" y="-12.5" font-family="Helvetica,sans-Serif" font-size="10.00">source_location</text>
</a>
</g>
</g>
<!-- Node6&#45;&gt;Node9 -->
<g id="edge8_Node000006_Node000009" class="edge">
<title>Node6&#45;&gt;Node9</title>
<g id="a_edge8_Node000006_Node000009"><a xlink:title=" ">
<path fill="none" stroke="#63b8ff" d="M270.64,-65.87C277.29,-57.23 287.69,-43.7 295.99,-32.92"/>
<polygon fill="#63b8ff" stroke="#63b8ff" points="299.01,-34.73 302.33,-24.67 293.46,-30.46 299.01,-34.73"/>
</a>
</g>
</g>
<!-- Node10 -->
<g id="Node000010" class="node">
<title>Node10</title>
<g id="a_Node000010"><a xlink:title=" ">
<polygon fill="#e0e0e0" stroke="#999999" points="446.5,-24.5 373.5,-24.5 373.5,-5.5 446.5,-5.5 446.5,-24.5"/>
<text text-anchor="middle" x="410" y="-12.5" font-family="Helvetica,sans-Serif" font-size="10.00">string_view</text>
</a>
</g>
</g>
<!-- Node6&#45;&gt;Node10 -->
<g id="edge9_Node000006_Node000010" class="edge">
<title>Node6&#45;&gt;Node10</title>
<g id="a_edge9_Node000006_Node000010"><a xlink:title=" ">
<path fill="none" stroke="#63b8ff" d="M285.23,-65.99C309.99,-56.07 351.12,-39.59 379.35,-28.28"/>
<polygon fill="#63b8ff" stroke="#63b8ff" points="380.76,-31.49 388.74,-24.52 378.16,-24.99 380.76,-31.49"/>
</a>
</g>
</g>
<!-- Node11&#45;&gt;Node6 -->
<g id="edge11_Node000011_Node000006" class="edge">
<title>Node11&#45;&gt;Node6</title>
<g id="a_edge11_Node000011_Node000006"><a xlink:title=" ">
<path fill="none" stroke="#63b8ff" d="M298.23,-120.75C292.44,-113.26 283.94,-102.28 276.86,-93.13"/>
<polygon fill="#63b8ff" stroke="#63b8ff" points="279.53,-90.86 270.64,-85.09 273.99,-95.14 279.53,-90.86"/>
</a>
</g>
</g>
</g>
</svg>
