<?xml version="1.0" encoding="UTF-8" standalone="no"?>
<!DOCTYPE svg PUBLIC "-//W3C//DTD SVG 1.1//EN"
 "http://www.w3.org/Graphics/SVG/1.1/DTD/svg11.dtd">
<!-- Generated by graphviz version 2.43.0 (0)
 -->
<!-- Title: GeometryBuffer.hpp Pages: 1 -->
<svg width="808pt" height="434pt"
 viewBox="0.00 0.00 807.50 434.00" xmlns="http://www.w3.org/2000/svg" xmlns:xlink="http://www.w3.org/1999/xlink">
<g id="graph0" class="graph" transform="scale(1 1) rotate(0) translate(4 430)">
<title>GeometryBuffer.hpp</title>
<!-- Node1 -->
<g id="Node000001" class="node">
<title>Node1</title>
<g id="a_Node000001"><a xlink:title=" ">
<polygon fill="#999999" stroke="#666666" points="462.5,-426 347.5,-426 347.5,-407 462.5,-407 462.5,-426"/>
<text text-anchor="middle" x="405" y="-414" font-family="Helvetica,sans-Serif" font-size="10.00">GeometryBuffer.hpp</text>
</a>
</g>
</g>
<!-- Node2 -->
<g id="Node000002" class="node">
<title>Node2</title>
<g id="a_Node000002"><a xlink:href="GeometryBindingsProcessor_8hpp.html" target="_top" xlink:title=" ">
<polygon fill="white" stroke="#666666" points="492.5,-371 317.5,-371 317.5,-352 492.5,-352 492.5,-371"/>
<text text-anchor="middle" x="405" y="-359" font-family="Helvetica,sans-Serif" font-size="10.00">GeometryBindingsProcessor.hpp</text>
</a>
</g>
</g>
<!-- Node1&#45;&gt;Node2 -->
<g id="edge1_Node000001_Node000002" class="edge">
<title>Node1&#45;&gt;Node2</title>
<g id="a_edge1_Node000001_Node000002"><a xlink:title=" ">
<path fill="none" stroke="#63b8ff" d="M405,-406.75C405,-399.8 405,-389.85 405,-381.13"/>
<polygon fill="#63b8ff" stroke="#63b8ff" points="408.5,-381.09 405,-371.09 401.5,-381.09 408.5,-381.09"/>
</a>
</g>
</g>
<!-- Node3 -->
<g id="Node000003" class="node">
<title>Node3</title>
<g id="a_Node000003"><a xlink:href="VKBuffer_8hpp.html" target="_top" xlink:title=" ">
<polygon fill="white" stroke="#666666" points="373,-316 205,-316 205,-297 373,-297 373,-316"/>
<text text-anchor="middle" x="289" y="-304" font-family="Helvetica,sans-Serif" font-size="10.00">MayaFlux/Buffers/VKBuffer.hpp</text>
</a>
</g>
</g>
<!-- Node1&#45;&gt;Node3 -->
<g id="edge15_Node000001_Node000003" class="edge">
<title>Node1&#45;&gt;Node3</title>
<g id="a_edge15_Node000001_Node000003"><a xlink:title=" ">
<path fill="none" stroke="#63b8ff" d="M369.12,-406.98C348.57,-400.37 323.8,-389.18 308,-371 297.26,-358.65 292.59,-340.43 290.56,-326.67"/>
<polygon fill="#63b8ff" stroke="#63b8ff" points="294,-325.93 289.4,-316.39 287.04,-326.72 294,-325.93"/>
</a>
</g>
</g>
<!-- Node14 -->
<g id="Node000014" class="node">
<title>Node14</title>
<g id="a_Node000014"><a xlink:href="GeometryWriterNode_8hpp.html" target="_top" xlink:title=" ">
<polygon fill="white" stroke="#666666" points="645.5,-261 500.5,-261 500.5,-231 645.5,-231 645.5,-261"/>
<text text-anchor="start" x="508.5" y="-249" font-family="Helvetica,sans-Serif" font-size="10.00">MayaFlux/Nodes/Graphics</text>
<text text-anchor="middle" x="573" y="-238" font-family="Helvetica,sans-Serif" font-size="10.00">/GeometryWriterNode.hpp</text>
</a>
</g>
</g>
<!-- Node1&#45;&gt;Node14 -->
<g id="edge16_Node000001_Node000014" class="edge">
<title>Node1&#45;&gt;Node14</title>
<g id="a_edge16_Node000001_Node000014"><a xlink:title=" ">
<path fill="none" stroke="#63b8ff" d="M435.35,-407C456.03,-400 482.99,-388.37 502,-371 532.85,-342.8 553.85,-298.02 564.6,-270.68"/>
<polygon fill="#63b8ff" stroke="#63b8ff" points="567.94,-271.73 568.21,-261.14 561.4,-269.25 567.94,-271.73"/>
</a>
</g>
</g>
<!-- Node2&#45;&gt;Node3 -->
<g id="edge2_Node000002_Node000003" class="edge">
<title>Node2&#45;&gt;Node3</title>
<g id="a_edge2_Node000002_Node000003"><a xlink:title=" ">
<path fill="none" stroke="#63b8ff" d="M386.36,-351.98C367.7,-343.46 338.75,-330.23 317.26,-320.41"/>
<polygon fill="#63b8ff" stroke="#63b8ff" points="318.53,-317.14 307.98,-316.17 315.62,-323.51 318.53,-317.14"/>
</a>
</g>
</g>
<!-- Node4 -->
<g id="Node000004" class="node">
<title>Node4</title>
<g id="a_Node000004"><a xlink:href="Buffer_8hpp.html" target="_top" xlink:title=" ">
<polygon fill="white" stroke="#666666" points="322,-255.5 256,-255.5 256,-236.5 322,-236.5 322,-255.5"/>
<text text-anchor="middle" x="289" y="-243.5" font-family="Helvetica,sans-Serif" font-size="10.00">Buffer.hpp</text>
</a>
</g>
</g>
<!-- Node3&#45;&gt;Node4 -->
<g id="edge3_Node000003_Node000004" class="edge">
<title>Node3&#45;&gt;Node4</title>
<g id="a_edge3_Node000003_Node000004"><a xlink:title=" ">
<path fill="none" stroke="#63b8ff" d="M289,-296.87C289,-288.75 289,-276.31 289,-265.89"/>
<polygon fill="#63b8ff" stroke="#63b8ff" points="292.5,-265.67 289,-255.67 285.5,-265.67 292.5,-265.67"/>
</a>
</g>
</g>
<!-- Node5 -->
<g id="Node000005" class="node">
<title>Node5</title>
<g id="a_Node000005"><a xlink:href="BufferProcessor_8hpp.html" target="_top" xlink:title=" ">
<polygon fill="white" stroke="#666666" points="238,-255.5 36,-255.5 36,-236.5 238,-236.5 238,-255.5"/>
<text text-anchor="middle" x="137" y="-243.5" font-family="Helvetica,sans-Serif" font-size="10.00">MayaFlux/Buffers/BufferProcessor.hpp</text>
</a>
</g>
</g>
<!-- Node3&#45;&gt;Node5 -->
<g id="edge4_Node000003_Node000005" class="edge">
<title>Node3&#45;&gt;Node5</title>
<g id="a_edge4_Node000003_Node000005"><a xlink:title=" ">
<path fill="none" stroke="#63b8ff" d="M266.9,-296.99C241.01,-287.03 197.92,-270.45 168.53,-259.13"/>
<polygon fill="#63b8ff" stroke="#63b8ff" points="169.72,-255.84 159.13,-255.52 167.2,-262.38 169.72,-255.84"/>
</a>
</g>
</g>
<!-- Node7 -->
<g id="Node000007" class="node">
<title>Node7</title>
<g id="a_Node000007"><a xlink:href="ProcessingTokens_8hpp.html" target="_top" xlink:title=" ">
<polygon fill="white" stroke="#666666" points="146,-140 0,-140 0,-110 146,-110 146,-140"/>
<text text-anchor="start" x="8" y="-128" font-family="Helvetica,sans-Serif" font-size="10.00">MayaFlux/Core/Processing</text>
<text text-anchor="middle" x="73" y="-117" font-family="Helvetica,sans-Serif" font-size="10.00">Tokens.hpp</text>
</a>
</g>
</g>
<!-- Node3&#45;&gt;Node7 -->
<g id="edge10_Node000003_Node000007" class="edge">
<title>Node3&#45;&gt;Node7</title>
<g id="a_edge10_Node000003_Node000007"><a xlink:title=" ">
<path fill="none" stroke="#63b8ff" d="M204.94,-302.66C137.17,-298.38 49.55,-287.7 27,-261 -0.92,-227.94 30.71,-177.11 53.6,-148.17"/>
<polygon fill="#63b8ff" stroke="#63b8ff" points="56.44,-150.24 60.06,-140.28 51.02,-145.81 56.44,-150.24"/>
</a>
</g>
</g>
<!-- Node11 -->
<g id="Node000011" class="node">
<title>Node11</title>
<g id="a_Node000011"><a xlink:href="ShaderUtils_8hpp.html" target="_top" xlink:title=" ">
<polygon fill="white" stroke="#666666" points="482,-261 340,-261 340,-231 482,-231 482,-261"/>
<text text-anchor="start" x="348" y="-249" font-family="Helvetica,sans-Serif" font-size="10.00">MayaFlux/Portal/Graphics</text>
<text text-anchor="middle" x="411" y="-238" font-family="Helvetica,sans-Serif" font-size="10.00">/ShaderUtils.hpp</text>
</a>
</g>
</g>
<!-- Node3&#45;&gt;Node11 -->
<g id="edge11_Node000003_Node000011" class="edge">
<title>Node3&#45;&gt;Node11</title>
<g id="a_edge11_Node000003_Node000011"><a xlink:title=" ">
<path fill="none" stroke="#63b8ff" d="M306.74,-296.99C323.86,-288.79 350.34,-276.09 372.32,-265.55"/>
<polygon fill="#63b8ff" stroke="#63b8ff" points="373.93,-268.66 381.43,-261.18 370.9,-262.35 373.93,-268.66"/>
</a>
</g>
</g>
<!-- Node6 -->
<g id="Node000006" class="node">
<title>Node6</title>
<g id="a_Node000006"><a xlink:href="BufferUtils_8hpp.html" target="_top" xlink:title=" ">
<polygon fill="white" stroke="#666666" points="181.5,-195 92.5,-195 92.5,-176 181.5,-176 181.5,-195"/>
<text text-anchor="middle" x="137" y="-183" font-family="Helvetica,sans-Serif" font-size="10.00">BufferUtils.hpp</text>
</a>
</g>
</g>
<!-- Node5&#45;&gt;Node6 -->
<g id="edge5_Node000005_Node000006" class="edge">
<title>Node5&#45;&gt;Node6</title>
<g id="a_edge5_Node000005_Node000006"><a xlink:title=" ">
<path fill="none" stroke="#63b8ff" d="M137,-236.37C137,-228.25 137,-215.81 137,-205.39"/>
<polygon fill="#63b8ff" stroke="#63b8ff" points="140.5,-205.17 137,-195.17 133.5,-205.17 140.5,-205.17"/>
</a>
</g>
</g>
<!-- Node6&#45;&gt;Node7 -->
<g id="edge6_Node000006_Node000007" class="edge">
<title>Node6&#45;&gt;Node7</title>
<g id="a_edge6_Node000006_Node000007"><a xlink:title=" ">
<path fill="none" stroke="#63b8ff" d="M127.56,-175.87C119.27,-168.3 106.89,-156.98 96.01,-147.04"/>
<polygon fill="#63b8ff" stroke="#63b8ff" points="98.18,-144.28 88.44,-140.11 93.46,-149.44 98.18,-144.28"/>
</a>
</g>
</g>
<!-- Node8 -->
<g id="Node000008" class="node">
<title>Node8</title>
<g id="a_Node000008"><a xlink:href="VertexLayout_8hpp.html" target="_top" xlink:title=" ">
<polygon fill="white" stroke="#666666" points="452.5,-140 301.5,-140 301.5,-110 452.5,-110 452.5,-140"/>
<text text-anchor="start" x="309.5" y="-128" font-family="Helvetica,sans-Serif" font-size="10.00">MayaFlux/Kakshya/NDData</text>
<text text-anchor="middle" x="377" y="-117" font-family="Helvetica,sans-Serif" font-size="10.00">/VertexLayout.hpp</text>
</a>
</g>
</g>
<!-- Node6&#45;&gt;Node8 -->
<g id="edge7_Node000006_Node000008" class="edge">
<title>Node6&#45;&gt;Node8</title>
<g id="a_edge7_Node000006_Node000008"><a xlink:title=" ">
<path fill="none" stroke="#63b8ff" d="M171.9,-175.99C207.8,-167.24 264.63,-153.39 309.37,-142.48"/>
<polygon fill="#63b8ff" stroke="#63b8ff" points="310.41,-145.83 319.3,-140.06 308.76,-139.03 310.41,-145.83"/>
</a>
</g>
</g>
<!-- Node9 -->
<g id="Node000009" class="node">
<title>Node9</title>
<g id="a_Node000009"><a xlink:href="NDData_8hpp.html" target="_top" xlink:title=" ">
<polygon fill="white" stroke="#666666" points="415,-74 339,-74 339,-55 415,-55 415,-74"/>
<text text-anchor="middle" x="377" y="-62" font-family="Helvetica,sans-Serif" font-size="10.00">NDData.hpp</text>
</a>
</g>
</g>
<!-- Node8&#45;&gt;Node9 -->
<g id="edge8_Node000008_Node000009" class="edge">
<title>Node8&#45;&gt;Node9</title>
<g id="a_edge8_Node000008_Node000009"><a xlink:title=" ">
<path fill="none" stroke="#63b8ff" d="M377,-109.84C377,-102.21 377,-92.7 377,-84.45"/>
<polygon fill="#63b8ff" stroke="#63b8ff" points="380.5,-84.27 377,-74.27 373.5,-84.27 380.5,-84.27"/>
</a>
</g>
</g>
<!-- Node10 -->
<g id="Node000010" class="node">
<title>Node10</title>
<g id="a_Node000010"><a xlink:title=" ">
<polygon fill="#e0e0e0" stroke="#999999" points="416,-19 338,-19 338,0 416,0 416,-19"/>
<text text-anchor="middle" x="377" y="-7" font-family="Helvetica,sans-Serif" font-size="10.00">glm/glm.hpp</text>
</a>
</g>
</g>
<!-- Node9&#45;&gt;Node10 -->
<g id="edge9_Node000009_Node000010" class="edge">
<title>Node9&#45;&gt;Node10</title>
<g id="a_edge9_Node000009_Node000010"><a xlink:title=" ">
<path fill="none" stroke="#63b8ff" d="M377,-54.75C377,-47.8 377,-37.85 377,-29.13"/>
<polygon fill="#63b8ff" stroke="#63b8ff" points="380.5,-29.09 377,-19.09 373.5,-29.09 380.5,-29.09"/>
</a>
</g>
</g>
<!-- Node11&#45;&gt;Node8 -->
<g id="edge14_Node000011_Node000008" class="edge">
<title>Node11&#45;&gt;Node8</title>
<g id="a_edge14_Node000011_Node000008"><a xlink:title=" ">
<path fill="none" stroke="#63b8ff" d="M406.58,-230.58C403.55,-220.61 399.46,-207.02 396,-195 391.69,-180.02 387.04,-163.15 383.42,-149.84"/>
<polygon fill="#63b8ff" stroke="#63b8ff" points="386.76,-148.77 380.76,-140.03 380,-150.6 386.76,-148.77"/>
</a>
</g>
</g>
<!-- Node12 -->
<g id="Node000012" class="node">
<title>Node12</title>
<g id="a_Node000012"><a xlink:title=" ">
<polygon fill="#e0e0e0" stroke="#999999" points="348.5,-195 243.5,-195 243.5,-176 348.5,-176 348.5,-195"/>
<text text-anchor="middle" x="296" y="-183" font-family="Helvetica,sans-Serif" font-size="10.00">vulkan/vulkan.hpp</text>
</a>
</g>
</g>
<!-- Node11&#45;&gt;Node12 -->
<g id="edge12_Node000011_Node000012" class="edge">
<title>Node11&#45;&gt;Node12</title>
<g id="a_edge12_Node000011_Node000012"><a xlink:title=" ">
<path fill="none" stroke="#63b8ff" d="M383.45,-230.99C364.78,-221.49 340.26,-209.02 321.94,-199.69"/>
<polygon fill="#63b8ff" stroke="#63b8ff" points="323.48,-196.55 312.98,-195.14 320.31,-202.79 323.48,-196.55"/>
</a>
</g>
</g>
<!-- Node13 -->
<g id="Node000013" class="node">
<title>Node13</title>
<g id="a_Node000013"><a xlink:href="GraphicsUtils_8hpp.html" target="_top" xlink:title=" ">
<polygon fill="white" stroke="#666666" points="508.5,-195 405.5,-195 405.5,-176 508.5,-176 508.5,-195"/>
<text text-anchor="middle" x="457" y="-183" font-family="Helvetica,sans-Serif" font-size="10.00">GraphicsUtils.hpp</text>
</a>
</g>
</g>
<!-- Node11&#45;&gt;Node13 -->
<g id="edge13_Node000011_Node000013" class="edge">
<title>Node11&#45;&gt;Node13</title>
<g id="a_edge13_Node000011_Node000013"><a xlink:title=" ">
<path fill="none" stroke="#63b8ff" d="M422.14,-230.84C428.68,-222.52 436.98,-211.96 443.84,-203.23"/>
<polygon fill="#63b8ff" stroke="#63b8ff" points="446.68,-205.29 450.11,-195.27 441.17,-200.96 446.68,-205.29"/>
</a>
</g>
</g>
<!-- Node14&#45;&gt;Node13 -->
<g id="edge24_Node000014_Node000013" class="edge">
<title>Node14&#45;&gt;Node13</title>
<g id="a_edge24_Node000014_Node000013"><a xlink:title=" ">
<path fill="none" stroke="#63b8ff" d="M545.22,-230.99C526.38,-221.49 501.65,-209.02 483.16,-199.69"/>
<polygon fill="#63b8ff" stroke="#63b8ff" points="484.64,-196.52 474.13,-195.14 481.48,-202.77 484.64,-196.52"/>
</a>
</g>
</g>
<!-- Node15 -->
<g id="Node000015" class="node">
<title>Node15</title>
<g id="a_Node000015"><a xlink:href="GpuSync_8hpp.html" target="_top" xlink:title=" ">
<polygon fill="white" stroke="#666666" points="717,-195 637,-195 637,-176 717,-176 717,-195"/>
<text text-anchor="middle" x="677" y="-183" font-family="Helvetica,sans-Serif" font-size="10.00">GpuSync.hpp</text>
</a>
</g>
</g>
<!-- Node14&#45;&gt;Node15 -->
<g id="edge17_Node000014_Node000015" class="edge">
<title>Node14&#45;&gt;Node15</title>
<g id="a_edge17_Node000014_Node000015"><a xlink:title=" ">
<path fill="none" stroke="#63b8ff" d="M597.91,-230.99C614.49,-221.66 636.16,-209.47 652.63,-200.21"/>
<polygon fill="#63b8ff" stroke="#63b8ff" points="654.64,-203.09 661.64,-195.14 651.21,-196.99 654.64,-203.09"/>
</a>
</g>
</g>
<!-- Node20 -->
<g id="Node000020" class="node">
<title>Node20</title>
<g id="a_Node000020"><a xlink:href="VertexSpec_8hpp.html" target="_top" xlink:title=" ">
<polygon fill="white" stroke="#666666" points="619,-195 527,-195 527,-176 619,-176 619,-195"/>
<text text-anchor="middle" x="573" y="-183" font-family="Helvetica,sans-Serif" font-size="10.00">VertexSpec.hpp</text>
</a>
</g>
</g>
<!-- Node14&#45;&gt;Node20 -->
<g id="edge22_Node000014_Node000020" class="edge">
<title>Node14&#45;&gt;Node20</title>
<g id="a_edge22_Node000014_Node000020"><a xlink:title=" ">
<path fill="none" stroke="#63b8ff" d="M573,-230.84C573,-223.21 573,-213.7 573,-205.45"/>
<polygon fill="#63b8ff" stroke="#63b8ff" points="576.5,-205.27 573,-195.27 569.5,-205.27 576.5,-205.27"/>
</a>
</g>
</g>
<!-- Node16 -->
<g id="Node000016" class="node">
<title>Node16</title>
<g id="a_Node000016"><a xlink:href="Node_8hpp.html" target="_top" xlink:title=" ">
<polygon fill="white" stroke="#666666" points="751,-134.5 603,-134.5 603,-115.5 751,-115.5 751,-134.5"/>
<text text-anchor="middle" x="677" y="-122.5" font-family="Helvetica,sans-Serif" font-size="10.00">MayaFlux/Nodes/Node.hpp</text>
</a>
</g>
</g>
<!-- Node15&#45;&gt;Node16 -->
<g id="edge18_Node000015_Node000016" class="edge">
<title>Node15&#45;&gt;Node16</title>
<g id="a_edge18_Node000015_Node000016"><a xlink:title=" ">
<path fill="none" stroke="#63b8ff" d="M677,-175.87C677,-167.75 677,-155.31 677,-144.89"/>
<polygon fill="#63b8ff" stroke="#63b8ff" points="680.5,-144.67 677,-134.67 673.5,-144.67 680.5,-144.67"/>
</a>
</g>
</g>
<!-- Node17 -->
<g id="Node000017" class="node">
<title>Node17</title>
<g id="a_Node000017"><a xlink:href="GpuContext_8hpp.html" target="_top" xlink:title=" ">
<polygon fill="white" stroke="#666666" points="799.5,-74 704.5,-74 704.5,-55 799.5,-55 799.5,-74"/>
<text text-anchor="middle" x="752" y="-62" font-family="Helvetica,sans-Serif" font-size="10.00">GpuContext.hpp</text>
</a>
</g>
</g>
<!-- Node16&#45;&gt;Node17 -->
<g id="edge19_Node000016_Node000017" class="edge">
<title>Node16&#45;&gt;Node17</title>
<g id="a_edge19_Node000016_Node000017"><a xlink:title=" ">
<path fill="none" stroke="#63b8ff" d="M688.07,-115.37C699.81,-106.21 718.59,-91.56 732.76,-80.51"/>
<polygon fill="#63b8ff" stroke="#63b8ff" points="735.16,-83.08 740.89,-74.17 730.85,-77.56 735.16,-83.08"/>
</a>
</g>
</g>
<!-- Node18 -->
<g id="Node000018" class="node">
<title>Node18</title>
<g id="a_Node000018"><a xlink:href="NodeUtils_8hpp.html" target="_top" xlink:title=" ">
<polygon fill="white" stroke="#666666" points="686,-74 516,-74 516,-55 686,-55 686,-74"/>
<text text-anchor="middle" x="601" y="-62" font-family="Helvetica,sans-Serif" font-size="10.00">MayaFlux/Nodes/NodeUtils.hpp</text>
</a>
</g>
</g>
<!-- Node16&#45;&gt;Node18 -->
<g id="edge20_Node000016_Node000018" class="edge">
<title>Node16&#45;&gt;Node18</title>
<g id="a_edge20_Node000016_Node000018"><a xlink:title=" ">
<path fill="none" stroke="#63b8ff" d="M665.79,-115.37C653.89,-106.21 634.86,-91.56 620.49,-80.51"/>
<polygon fill="#63b8ff" stroke="#63b8ff" points="622.32,-77.49 612.26,-74.17 618.05,-83.04 622.32,-77.49"/>
</a>
</g>
</g>
<!-- Node19 -->
<g id="Node000019" class="node">
<title>Node19</title>
<g id="a_Node000019"><a xlink:href="NodeSpec_8hpp.html" target="_top" xlink:title=" ">
<polygon fill="white" stroke="#666666" points="644,-19 558,-19 558,0 644,0 644,-19"/>
<text text-anchor="middle" x="601" y="-7" font-family="Helvetica,sans-Serif" font-size="10.00">NodeSpec.hpp</text>
</a>
</g>
</g>
<!-- Node18&#45;&gt;Node19 -->
<g id="edge21_Node000018_Node000019" class="edge">
<title>Node18&#45;&gt;Node19</title>
<g id="a_edge21_Node000018_Node000019"><a xlink:title=" ">
<path fill="none" stroke="#63b8ff" d="M601,-54.75C601,-47.8 601,-37.85 601,-29.13"/>
<polygon fill="#63b8ff" stroke="#63b8ff" points="604.5,-29.09 601,-19.09 597.5,-29.09 604.5,-29.09"/>
</a>
</g>
</g>
<!-- Node20&#45;&gt;Node8 -->
<g id="edge23_Node000020_Node000008" class="edge">
<title>Node20&#45;&gt;Node8</title>
<g id="a_edge23_Node000020_Node000008"><a xlink:title=" ">
<path fill="none" stroke="#63b8ff" d="M544.5,-175.99C515.68,-167.39 470.33,-153.86 434.08,-143.04"/>
<polygon fill="#63b8ff" stroke="#63b8ff" points="434.7,-139.57 424.12,-140.06 432.7,-146.28 434.7,-139.57"/>
</a>
</g>
</g>
</g>
</svg>
