<?xml version="1.0" encoding="UTF-8" standalone="no"?>
<!DOCTYPE svg PUBLIC "-//W3C//DTD SVG 1.1//EN"
 "http://www.w3.org/Graphics/SVG/1.1/DTD/svg11.dtd">
<!-- Generated by graphviz version 2.43.0 (0)
 -->
<!-- Title: GlobalNetworkConfig.hpp Pages: 1 -->
<!--zoomable 302 -->

<svg id="main" version="1.1" xmlns="http://www.w3.org/2000/svg" xmlns:xlink="http://www.w3.org/1999/xlink" xml:space="preserve" onload="init(evt)">
<style type="text/css"><![CDATA[
.node, .edge {opacity: 0.7;}
.node.selected, .edge.selected {opacity: 1;}
.edge:hover path { stroke: red; }
.edge:hover polygon { stroke: red; fill: red; }
]]></style>

<defs>
  <circle id="rim" cx="0" cy="0" r="7"/>
  <circle id="rim2" cx="0" cy="0" r="3.5"/>
  <g id="zoomPlus">
    <use xlink:href="#rim" fill="#404040"><set attributeName="fill" to="#808080" begin="zoomplus.mouseover" end="zoomplus.mouseout"/></use>
    <path d="M-4,0h8M0,-4v8" fill="none" stroke="white" stroke-width="1.5" pointer-events="none"/>
  </g>
  <g id="zoomMin">
    <use xlink:href="#rim" fill="#404040"><set attributeName="fill" to="#808080" begin="zoomminus.mouseover" end="zoomminus.mouseout"/></use>
    <path d="M-4,0h8" fill="none" stroke="white" stroke-width="1.5" pointer-events="none"/>
  </g>
  <g id="arrowUp" transform="translate(30 24)">
    <use xlink:href="#rim"/>
    <path pointer-events="none" fill="none" stroke="white" stroke-width="1.5" d="M0,-3.0v7 M-2.5,-0.5L0,-3.0L2.5,-0.5"/>
  </g>
  <g id="arrowRight" transform="rotate(90) translate(36 -43)">
    <use xlink:href="#rim"/>
    <path pointer-events="none" fill="none" stroke="white" stroke-width="1.5" d="M0,-3.0v7 M-2.5,-0.5L0,-3.0L2.5,-0.5"/>
  </g>
  <g id="arrowDown" transform="rotate(180) translate(-30 -48)">
    <use xlink:href="#rim"/>
    <path pointer-events="none" fill="none" stroke="white" stroke-width="1.5" d="M0,-3.0v7 M-2.5,-0.5L0,-3.0L2.5,-0.5"/>
  </g>
  <g id="arrowLeft" transform="rotate(270) translate(-36 17)">
    <use xlink:href="#rim"/>
    <path pointer-events="none" fill="none" stroke="white" stroke-width="1.5" d="M0,-3.0v7 M-2.5,-0.5L0,-3.0L2.5,-0.5"/>
  </g>
  <g id="resetDef">
    <use xlink:href="#rim2" fill="#404040"><set attributeName="fill" to="#808080" begin="reset.mouseover" end="reset.mouseout"/></use>
  </g>
</defs>
<script type="application/ecmascript">
var viewWidth = 2292;
var viewHeight = 302;
var sectionId = 'dynsection-0';
</script>
<script type="application/ecmascript" xlink:href="svg.min.js"/>
<svg id="graph" class="graph">
<g id="viewport">
<title>GlobalNetworkConfig.hpp</title>
<!-- Node1 -->
<g id="Node000001" class="node">
<title>Node1</title>
<g id="a_Node000001"><a xlink:title=" ">
<polygon fill="#999999" stroke="#666666" points="1323,-294 1182,-294 1182,-275 1323,-275 1323,-294"/>
<text text-anchor="middle" x="1252.5" y="-282" font-family="Helvetica,sans-Serif" font-size="10.00">GlobalNetworkConfig.hpp</text>
</a>
</g>
</g>
<!-- Node2 -->
<g id="Node000002" class="node">
<title>Node2</title>
<g id="a_Node000002"><a xlink:href="Engine_8hpp.html" target="_top" xlink:title=" ">
<polygon fill="white" stroke="#666666" points="471,-239 400,-239 400,-220 471,-220 471,-239"/>
<text text-anchor="middle" x="435.5" y="-227" font-family="Helvetica,sans-Serif" font-size="10.00">Engine.hpp</text>
</a>
</g>
</g>
<!-- Node1&#45;&gt;Node2 -->
<g id="edge1_Node000001_Node000002" class="edge">
<title>Node1&#45;&gt;Node2</title>
<g id="a_edge1_Node000001_Node000002"><a xlink:title=" ">
<path fill="none" stroke="#63b8ff" d="M1171.66,-278.26C997.73,-266.97 593.79,-240.77 471.33,-232.82"/>
<polygon fill="#63b8ff" stroke="#63b8ff" points="1171.58,-281.76 1181.78,-278.91 1172.03,-274.77 1171.58,-281.76"/>
</a>
</g>
</g>
<!-- Node12 -->
<g id="Node000012" class="node">
<title>Node12</title>
<g id="a_Node000012"><a xlink:href="MessageUtils_8hpp.html" target="_top" xlink:title=" ">
<polygon fill="white" stroke="#666666" points="877.5,-239 773.5,-239 773.5,-220 877.5,-220 877.5,-239"/>
<text text-anchor="middle" x="825.5" y="-227" font-family="Helvetica,sans-Serif" font-size="10.00">MessageUtils.hpp</text>
</a>
</g>
</g>
<!-- Node1&#45;&gt;Node12 -->
<g id="edge11_Node000001_Node000012" class="edge">
<title>Node1&#45;&gt;Node12</title>
<g id="a_edge11_Node000001_Node000012"><a xlink:title=" ">
<path fill="none" stroke="#63b8ff" d="M1173.9,-273.74C1087.7,-263.04 951.8,-246.18 877.79,-236.99"/>
<polygon fill="#63b8ff" stroke="#63b8ff" points="1173.54,-277.23 1183.9,-274.98 1174.4,-270.28 1173.54,-277.23"/>
</a>
</g>
</g>
<!-- Node14 -->
<g id="Node000014" class="node">
<title>Node14</title>
<g id="a_Node000014"><a xlink:href="NetworkBackend_8hpp.html" target="_top" xlink:title=" ">
<polygon fill="white" stroke="#666666" points="1131.5,-239 1011.5,-239 1011.5,-220 1131.5,-220 1131.5,-239"/>
<text text-anchor="middle" x="1071.5" y="-227" font-family="Helvetica,sans-Serif" font-size="10.00">NetworkBackend.hpp</text>
</a>
</g>
</g>
<!-- Node1&#45;&gt;Node14 -->
<g id="edge13_Node000001_Node000014" class="edge">
<title>Node1&#45;&gt;Node14</title>
<g id="a_edge13_Node000001_Node000014"><a xlink:title=" ">
<path fill="none" stroke="#63b8ff" d="M1213.42,-272.06C1179.59,-262.15 1131.42,-248.04 1100.81,-239.08"/>
<polygon fill="#63b8ff" stroke="#63b8ff" points="1212.84,-275.53 1223.42,-274.98 1214.81,-268.82 1212.84,-275.53"/>
</a>
</g>
</g>
<!-- Node22 -->
<g id="Node000022" class="node">
<title>Node22</title>
<g id="a_Node000022"><a xlink:href="NetworkEvents_8hpp.html" target="_top" xlink:title=" ">
<polygon fill="white" stroke="#666666" points="1308.5,-239 1196.5,-239 1196.5,-220 1308.5,-220 1308.5,-239"/>
<text text-anchor="middle" x="1252.5" y="-227" font-family="Helvetica,sans-Serif" font-size="10.00">NetworkEvents.hpp</text>
</a>
</g>
</g>
<!-- Node1&#45;&gt;Node22 -->
<g id="edge23_Node000001_Node000022" class="edge">
<title>Node1&#45;&gt;Node22</title>
<g id="a_edge23_Node000001_Node000022"><a xlink:title=" ">
<path fill="none" stroke="#63b8ff" d="M1252.5,-264.66C1252.5,-255.93 1252.5,-245.99 1252.5,-239.09"/>
<polygon fill="#63b8ff" stroke="#63b8ff" points="1249,-264.75 1252.5,-274.75 1256,-264.75 1249,-264.75"/>
</a>
</g>
</g>
<!-- Node24 -->
<g id="Node000024" class="node">
<title>Node24</title>
<g id="a_Node000024"><a xlink:href="NetworkService_8hpp.html" target="_top" xlink:title=" ">
<polygon fill="white" stroke="#666666" points="1488,-239 1373,-239 1373,-220 1488,-220 1488,-239"/>
<text text-anchor="middle" x="1430.5" y="-227" font-family="Helvetica,sans-Serif" font-size="10.00">NetworkService.hpp</text>
</a>
</g>
</g>
<!-- Node1&#45;&gt;Node24 -->
<g id="edge26_Node000001_Node000024" class="edge">
<title>Node1&#45;&gt;Node24</title>
<g id="a_edge26_Node000001_Node000024"><a xlink:title=" ">
<path fill="none" stroke="#63b8ff" d="M1290.94,-272.06C1324.2,-262.15 1371.58,-248.04 1401.68,-239.08"/>
<polygon fill="#63b8ff" stroke="#63b8ff" points="1289.68,-268.78 1281.1,-274.98 1291.68,-275.49 1289.68,-268.78"/>
</a>
</g>
</g>
<!-- Node26 -->
<g id="Node000026" class="node">
<title>Node26</title>
<g id="a_Node000026"><a xlink:href="NetworkSink_8cpp.html" target="_top" xlink:title=" ">
<polygon fill="white" stroke="#666666" points="1638,-184 1539,-184 1539,-165 1638,-165 1638,-184"/>
<text text-anchor="middle" x="1588.5" y="-172" font-family="Helvetica,sans-Serif" font-size="10.00">NetworkSink.cpp</text>
</a>
</g>
</g>
<!-- Node1&#45;&gt;Node26 -->
<g id="edge31_Node000001_Node000026" class="edge">
<title>Node1&#45;&gt;Node26</title>
<g id="a_edge31_Node000001_Node000026"><a xlink:title=" ">
<path fill="none" stroke="#63b8ff" d="M1333.26,-277.42C1381.99,-271.66 1444.49,-260.51 1496.5,-239 1529.86,-225.2 1563.31,-197.93 1579.11,-184.05"/>
<polygon fill="#63b8ff" stroke="#63b8ff" points="1332.63,-273.97 1323.08,-278.56 1333.41,-280.92 1332.63,-273.97"/>
</a>
</g>
</g>
<!-- Node28 -->
<g id="Node000028" class="node">
<title>Node28</title>
<g id="a_Node000028"><a xlink:href="NetworkSource_8hpp.html" target="_top" xlink:title=" ">
<polygon fill="white" stroke="#666666" points="1722.5,-239 1610.5,-239 1610.5,-220 1722.5,-220 1722.5,-239"/>
<text text-anchor="middle" x="1666.5" y="-227" font-family="Helvetica,sans-Serif" font-size="10.00">NetworkSource.hpp</text>
</a>
</g>
</g>
<!-- Node1&#45;&gt;Node28 -->
<g id="edge32_Node000001_Node000028" class="edge">
<title>Node1&#45;&gt;Node28</title>
<g id="a_edge32_Node000001_Node000028"><a xlink:title=" ">
<path fill="none" stroke="#63b8ff" d="M1329.22,-273.68C1410.78,-263.24 1537.79,-246.98 1610.45,-237.68"/>
<polygon fill="#63b8ff" stroke="#63b8ff" points="1328.49,-270.24 1319.02,-274.98 1329.38,-277.19 1328.49,-270.24"/>
</a>
</g>
</g>
<!-- Node3 -->
<g id="Node000003" class="node">
<title>Node3</title>
<g id="a_Node000003"><a xlink:href="Chronie_8cpp.html" target="_top" xlink:title=" ">
<polygon fill="white" stroke="#666666" points="1322.5,-184 1248.5,-184 1248.5,-165 1322.5,-165 1322.5,-184"/>
<text text-anchor="middle" x="1285.5" y="-172" font-family="Helvetica,sans-Serif" font-size="10.00">Chronie.cpp</text>
</a>
</g>
</g>
<!-- Node2&#45;&gt;Node3 -->
<g id="edge2_Node000002_Node000003" class="edge">
<title>Node2&#45;&gt;Node3</title>
<g id="a_edge2_Node000002_Node000003"><a xlink:title=" ">
<path fill="none" stroke="#63b8ff" d="M481.23,-226.53C600.09,-221.25 928.55,-205.73 1201.5,-184 1216.84,-182.78 1233.73,-181.13 1248.31,-179.61"/>
<polygon fill="#63b8ff" stroke="#63b8ff" points="480.88,-223.04 471.04,-226.98 481.19,-230.03 480.88,-223.04"/>
</a>
</g>
</g>
<!-- Node4 -->
<g id="Node000004" class="node">
<title>Node4</title>
<g id="a_Node000004"><a xlink:href="Config_8cpp.html" target="_top" xlink:title=" ">
<polygon fill="white" stroke="#666666" points="177.5,-184 109.5,-184 109.5,-165 177.5,-165 177.5,-184"/>
<text text-anchor="middle" x="143.5" y="-172" font-family="Helvetica,sans-Serif" font-size="10.00">Config.cpp</text>
</a>
</g>
</g>
<!-- Node2&#45;&gt;Node4 -->
<g id="edge3_Node000002_Node000004" class="edge">
<title>Node2&#45;&gt;Node4</title>
<g id="a_edge3_Node000002_Node000004"><a xlink:title=" ">
<path fill="none" stroke="#63b8ff" d="M389.73,-220.58C339.75,-211.87 257.36,-197.33 186.5,-184 183.66,-183.47 180.71,-182.9 177.76,-182.33"/>
<polygon fill="#63b8ff" stroke="#63b8ff" points="389.14,-224.03 399.59,-222.29 390.34,-217.13 389.14,-224.03"/>
</a>
</g>
</g>
<!-- Node5 -->
<g id="Node000005" class="node">
<title>Node5</title>
<g id="a_Node000005"><a xlink:href="Core_8cpp.html" target="_top" xlink:title=" ">
<polygon fill="white" stroke="#666666" points="255,-184 196,-184 196,-165 255,-165 255,-184"/>
<text text-anchor="middle" x="225.5" y="-172" font-family="Helvetica,sans-Serif" font-size="10.00">Core.cpp</text>
</a>
</g>
</g>
<!-- Node2&#45;&gt;Node5 -->
<g id="edge4_Node000002_Node000005" class="edge">
<title>Node2&#45;&gt;Node5</title>
<g id="a_edge4_Node000002_Node000005"><a xlink:title=" ">
<path fill="none" stroke="#63b8ff" d="M392.04,-217.53C351.07,-207.19 290.77,-191.97 255.08,-182.97"/>
<polygon fill="#63b8ff" stroke="#63b8ff" points="391.21,-220.93 401.76,-219.98 392.92,-214.14 391.21,-220.93"/>
</a>
</g>
</g>
<!-- Node6 -->
<g id="Node000006" class="node">
<title>Node6</title>
<g id="a_Node000006"><a xlink:href="Depot_8cpp.html" target="_top" xlink:title=" ">
<polygon fill="white" stroke="#666666" points="339.5,-184 273.5,-184 273.5,-165 339.5,-165 339.5,-184"/>
<text text-anchor="middle" x="306.5" y="-172" font-family="Helvetica,sans-Serif" font-size="10.00">Depot.cpp</text>
</a>
</g>
</g>
<!-- Node2&#45;&gt;Node6 -->
<g id="edge5_Node000002_Node000006" class="edge">
<title>Node2&#45;&gt;Node6</title>
<g id="a_edge5_Node000002_Node000006"><a xlink:title=" ">
<path fill="none" stroke="#63b8ff" d="M405.46,-216.16C381.58,-206.35 348.78,-192.87 327.6,-184.17"/>
<polygon fill="#63b8ff" stroke="#63b8ff" points="404.19,-219.42 414.77,-219.98 406.85,-212.95 404.19,-219.42"/>
</a>
</g>
</g>
<!-- Node7 -->
<g id="Node000007" class="node">
<title>Node7</title>
<g id="a_Node000007"><a xlink:href="Engine_8cpp.html" target="_top" xlink:title=" ">
<polygon fill="white" stroke="#666666" points="427.5,-184 357.5,-184 357.5,-165 427.5,-165 427.5,-184"/>
<text text-anchor="middle" x="392.5" y="-172" font-family="Helvetica,sans-Serif" font-size="10.00">Engine.cpp</text>
</a>
</g>
</g>
<!-- Node2&#45;&gt;Node7 -->
<g id="edge6_Node000002_Node000007" class="edge">
<title>Node2&#45;&gt;Node7</title>
<g id="a_edge6_Node000002_Node000007"><a xlink:title=" ">
<path fill="none" stroke="#63b8ff" d="M422.08,-211.96C414.59,-202.72 405.56,-191.6 399.47,-184.09"/>
<polygon fill="#63b8ff" stroke="#63b8ff" points="419.38,-214.19 428.4,-219.75 424.82,-209.78 419.38,-214.19"/>
</a>
</g>
</g>
<!-- Node8 -->
<g id="Node000008" class="node">
<title>Node8</title>
<g id="a_Node000008"><a xlink:href="Graph_8cpp.html" target="_top" xlink:title=" ">
<polygon fill="white" stroke="#666666" points="511.5,-184 445.5,-184 445.5,-165 511.5,-165 511.5,-184"/>
<text text-anchor="middle" x="478.5" y="-172" font-family="Helvetica,sans-Serif" font-size="10.00">Graph.cpp</text>
</a>
</g>
</g>
<!-- Node2&#45;&gt;Node8 -->
<g id="edge7_Node000002_Node000008" class="edge">
<title>Node2&#45;&gt;Node8</title>
<g id="a_edge7_Node000002_Node000008"><a xlink:title=" ">
<path fill="none" stroke="#63b8ff" d="M448.92,-211.96C456.41,-202.72 465.44,-191.6 471.53,-184.09"/>
<polygon fill="#63b8ff" stroke="#63b8ff" points="446.18,-209.78 442.6,-219.75 451.62,-214.19 446.18,-209.78"/>
</a>
</g>
</g>
<!-- Node9 -->
<g id="Node000009" class="node">
<title>Node9</title>
<g id="a_Node000009"><a xlink:href="Input_8cpp.html" target="_top" xlink:title=" ">
<polygon fill="white" stroke="#666666" points="591.5,-184 529.5,-184 529.5,-165 591.5,-165 591.5,-184"/>
<text text-anchor="middle" x="560.5" y="-172" font-family="Helvetica,sans-Serif" font-size="10.00">Input.cpp</text>
</a>
</g>
</g>
<!-- Node2&#45;&gt;Node9 -->
<g id="edge8_Node000002_Node000009" class="edge">
<title>Node2&#45;&gt;Node9</title>
<g id="a_edge8_Node000002_Node000009"><a xlink:title=" ">
<path fill="none" stroke="#63b8ff" d="M464.91,-216.03C488.03,-206.23 519.63,-192.83 540.05,-184.17"/>
<polygon fill="#63b8ff" stroke="#63b8ff" points="463.42,-212.86 455.58,-219.98 466.16,-219.3 463.42,-212.86"/>
</a>
</g>
</g>
<!-- Node10 -->
<g id="Node000010" class="node">
<title>Node10</title>
<g id="a_Node000010"><a xlink:href="API_2Random_8cpp.html" target="_top" xlink:title=" ">
<polygon fill="white" stroke="#666666" points="687,-184 610,-184 610,-165 687,-165 687,-184"/>
<text text-anchor="middle" x="648.5" y="-172" font-family="Helvetica,sans-Serif" font-size="10.00">Random.cpp</text>
</a>
</g>
</g>
<!-- Node2&#45;&gt;Node10 -->
<g id="edge9_Node000002_Node000010" class="edge">
<title>Node2&#45;&gt;Node10</title>
<g id="a_edge9_Node000002_Node000010"><a xlink:title=" ">
<path fill="none" stroke="#63b8ff" d="M479.45,-217.56C519.34,-207.64 577.37,-193.2 614.01,-184.08"/>
<polygon fill="#63b8ff" stroke="#63b8ff" points="478.58,-214.17 469.72,-219.98 480.27,-220.97 478.58,-214.17"/>
</a>
</g>
</g>
<!-- Node11 -->
<g id="Node000011" class="node">
<title>Node11</title>
<g id="a_Node000011"><a xlink:href="Windowing_8cpp.html" target="_top" xlink:title=" ">
<polygon fill="white" stroke="#666666" points="91,-184 0,-184 0,-165 91,-165 91,-184"/>
<text text-anchor="middle" x="45.5" y="-172" font-family="Helvetica,sans-Serif" font-size="10.00">Windowing.cpp</text>
</a>
</g>
</g>
<!-- Node2&#45;&gt;Node11 -->
<g id="edge10_Node000002_Node000011" class="edge">
<title>Node2&#45;&gt;Node11</title>
<g id="a_edge10_Node000002_Node000011"><a xlink:title=" ">
<path fill="none" stroke="#63b8ff" d="M389.52,-222.71C324.92,-214.5 203.65,-198.82 100.5,-184 97.44,-183.56 94.28,-183.1 91.11,-182.62"/>
<polygon fill="#63b8ff" stroke="#63b8ff" points="389.41,-226.22 399.77,-224.01 390.29,-219.28 389.41,-226.22"/>
</a>
</g>
</g>
<!-- Node13 -->
<g id="Node000013" class="node">
<title>Node13</title>
<g id="a_Node000013"><a xlink:href="MessageUtils_8cpp.html" target="_top" xlink:title=" ">
<polygon fill="white" stroke="#666666" points="808,-184 705,-184 705,-165 808,-165 808,-184"/>
<text text-anchor="middle" x="756.5" y="-172" font-family="Helvetica,sans-Serif" font-size="10.00">MessageUtils.cpp</text>
</a>
</g>
</g>
<!-- Node12&#45;&gt;Node13 -->
<g id="edge12_Node000012_Node000013" class="edge">
<title>Node12&#45;&gt;Node13</title>
<g id="a_edge12_Node000012_Node000013"><a xlink:title=" ">
<path fill="none" stroke="#63b8ff" d="M806.46,-213.88C794.04,-204.34 778.26,-192.21 767.79,-184.17"/>
<polygon fill="#63b8ff" stroke="#63b8ff" points="804.35,-216.67 814.41,-219.98 808.62,-211.12 804.35,-216.67"/>
</a>
</g>
</g>
<!-- Node15 -->
<g id="Node000015" class="node">
<title>Node15</title>
<g id="a_Node000015"><a xlink:href="NetworkSubsystem_8hpp.html" target="_top" xlink:title=" ">
<polygon fill="white" stroke="#666666" points="959,-184 826,-184 826,-165 959,-165 959,-184"/>
<text text-anchor="middle" x="892.5" y="-172" font-family="Helvetica,sans-Serif" font-size="10.00">NetworkSubsystem.hpp</text>
</a>
</g>
</g>
<!-- Node14&#45;&gt;Node15 -->
<g id="edge14_Node000014_Node000015" class="edge">
<title>Node14&#45;&gt;Node15</title>
<g id="a_edge14_Node000014_Node000015"><a xlink:title=" ">
<path fill="none" stroke="#63b8ff" d="M1032.85,-217.06C999.39,-207.15 951.75,-193.04 921.48,-184.08"/>
<polygon fill="#63b8ff" stroke="#63b8ff" points="1032.16,-220.5 1042.74,-219.98 1034.15,-213.79 1032.16,-220.5"/>
</a>
</g>
</g>
<!-- Node18 -->
<g id="Node000018" class="node">
<title>Node18</title>
<g id="a_Node000018"><a xlink:href="TCPBackend_8hpp.html" target="_top" xlink:title=" ">
<polygon fill="white" stroke="#666666" points="1074,-184 977,-184 977,-165 1074,-165 1074,-184"/>
<text text-anchor="middle" x="1025.5" y="-172" font-family="Helvetica,sans-Serif" font-size="10.00">TCPBackend.hpp</text>
</a>
</g>
</g>
<!-- Node14&#45;&gt;Node18 -->
<g id="edge17_Node000014_Node000018" class="edge">
<title>Node14&#45;&gt;Node18</title>
<g id="a_edge17_Node000014_Node000018"><a xlink:title=" ">
<path fill="none" stroke="#63b8ff" d="M1057.14,-211.96C1049.13,-202.72 1039.47,-191.6 1032.95,-184.09"/>
<polygon fill="#63b8ff" stroke="#63b8ff" points="1054.71,-214.49 1063.9,-219.75 1059.99,-209.9 1054.71,-214.49"/>
</a>
</g>
</g>
<!-- Node20 -->
<g id="Node000020" class="node">
<title>Node20</title>
<g id="a_Node000020"><a xlink:href="UDPBackend_8hpp.html" target="_top" xlink:title=" ">
<polygon fill="white" stroke="#666666" points="1192.5,-184 1092.5,-184 1092.5,-165 1192.5,-165 1192.5,-184"/>
<text text-anchor="middle" x="1142.5" y="-172" font-family="Helvetica,sans-Serif" font-size="10.00">UDPBackend.hpp</text>
</a>
</g>
</g>
<!-- Node14&#45;&gt;Node20 -->
<g id="edge20_Node000014_Node000020" class="edge">
<title>Node14&#45;&gt;Node20</title>
<g id="a_edge20_Node000014_Node000020"><a xlink:title=" ">
<path fill="none" stroke="#63b8ff" d="M1091.09,-213.88C1103.87,-204.34 1120.11,-192.21 1130.89,-184.17"/>
<polygon fill="#63b8ff" stroke="#63b8ff" points="1088.83,-211.2 1082.91,-219.98 1093.01,-216.81 1088.83,-211.2"/>
</a>
</g>
</g>
<!-- Node16 -->
<g id="Node000016" class="node">
<title>Node16</title>
<g id="a_Node000016"><a xlink:href="NetworkSubsystem_8cpp.html" target="_top" xlink:title=" ">
<polygon fill="white" stroke="#666666" points="1208.5,-129 1076.5,-129 1076.5,-110 1208.5,-110 1208.5,-129"/>
<text text-anchor="middle" x="1142.5" y="-117" font-family="Helvetica,sans-Serif" font-size="10.00">NetworkSubsystem.cpp</text>
</a>
</g>
</g>
<!-- Node15&#45;&gt;Node16 -->
<g id="edge15_Node000015_Node000016" class="edge">
<title>Node15&#45;&gt;Node16</title>
<g id="a_edge15_Node000015_Node000016"><a xlink:title=" ">
<path fill="none" stroke="#63b8ff" d="M942.6,-162.88C989.46,-152.94 1058.56,-138.3 1102.02,-129.08"/>
<polygon fill="#63b8ff" stroke="#63b8ff" points="941.72,-159.49 932.67,-164.98 943.18,-166.33 941.72,-159.49"/>
</a>
</g>
</g>
<!-- Node17 -->
<g id="Node000017" class="node">
<title>Node17</title>
<g id="a_Node000017"><a xlink:href="SubsystemManager_8cpp.html" target="_top" xlink:title=" ">
<polygon fill="white" stroke="#666666" points="944,-129 811,-129 811,-110 944,-110 944,-129"/>
<text text-anchor="middle" x="877.5" y="-117" font-family="Helvetica,sans-Serif" font-size="10.00">SubsystemManager.cpp</text>
</a>
</g>
</g>
<!-- Node15&#45;&gt;Node17 -->
<g id="edge16_Node000015_Node000017" class="edge">
<title>Node15&#45;&gt;Node17</title>
<g id="a_edge16_Node000015_Node000017"><a xlink:title=" ">
<path fill="none" stroke="#63b8ff" d="M887.25,-154.95C884.76,-146.15 881.9,-136.06 879.93,-129.09"/>
<polygon fill="#63b8ff" stroke="#63b8ff" points="883.93,-156.08 890.02,-164.75 890.67,-154.17 883.93,-156.08"/>
</a>
</g>
</g>
<!-- Node18&#45;&gt;Node16 -->
<g id="edge18_Node000018_Node000016" class="edge">
<title>Node18&#45;&gt;Node16</title>
<g id="a_edge18_Node000018_Node000016"><a xlink:title=" ">
<path fill="none" stroke="#63b8ff" d="M1053.61,-160.77C1075.19,-150.99 1104.41,-137.75 1123.36,-129.17"/>
<polygon fill="#63b8ff" stroke="#63b8ff" points="1051.96,-157.67 1044.3,-164.98 1054.85,-164.05 1051.96,-157.67"/>
</a>
</g>
</g>
<!-- Node19 -->
<g id="Node000019" class="node">
<title>Node19</title>
<g id="a_Node000019"><a xlink:href="TCPBackend_8cpp.html" target="_top" xlink:title=" ">
<polygon fill="white" stroke="#666666" points="1058.5,-129 962.5,-129 962.5,-110 1058.5,-110 1058.5,-129"/>
<text text-anchor="middle" x="1010.5" y="-117" font-family="Helvetica,sans-Serif" font-size="10.00">TCPBackend.cpp</text>
</a>
</g>
</g>
<!-- Node18&#45;&gt;Node19 -->
<g id="edge19_Node000018_Node000019" class="edge">
<title>Node18&#45;&gt;Node19</title>
<g id="a_edge19_Node000018_Node000019"><a xlink:title=" ">
<path fill="none" stroke="#63b8ff" d="M1020.25,-154.95C1017.76,-146.15 1014.9,-136.06 1012.93,-129.09"/>
<polygon fill="#63b8ff" stroke="#63b8ff" points="1016.93,-156.08 1023.02,-164.75 1023.67,-154.17 1016.93,-156.08"/>
</a>
</g>
</g>
<!-- Node20&#45;&gt;Node16 -->
<g id="edge21_Node000020_Node000016" class="edge">
<title>Node20&#45;&gt;Node16</title>
<g id="a_edge21_Node000020_Node000016"><a xlink:title=" ">
<path fill="none" stroke="#63b8ff" d="M1142.5,-154.66C1142.5,-145.93 1142.5,-135.99 1142.5,-129.09"/>
<polygon fill="#63b8ff" stroke="#63b8ff" points="1139,-154.75 1142.5,-164.75 1146,-154.75 1139,-154.75"/>
</a>
</g>
</g>
<!-- Node21 -->
<g id="Node000021" class="node">
<title>Node21</title>
<g id="a_Node000021"><a xlink:href="UDPBackend_8cpp.html" target="_top" xlink:title=" ">
<polygon fill="white" stroke="#666666" points="1326,-129 1227,-129 1227,-110 1326,-110 1326,-129"/>
<text text-anchor="middle" x="1276.5" y="-117" font-family="Helvetica,sans-Serif" font-size="10.00">UDPBackend.cpp</text>
</a>
</g>
</g>
<!-- Node20&#45;&gt;Node21 -->
<g id="edge22_Node000020_Node000021" class="edge">
<title>Node20&#45;&gt;Node21</title>
<g id="a_edge22_Node000020_Node000021"><a xlink:title=" ">
<path fill="none" stroke="#63b8ff" d="M1173.37,-161.29C1198.2,-151.47 1232.49,-137.91 1254.58,-129.17"/>
<polygon fill="#63b8ff" stroke="#63b8ff" points="1172.04,-158.05 1164.03,-164.98 1174.62,-164.56 1172.04,-158.05"/>
</a>
</g>
</g>
<!-- Node22&#45;&gt;Node3 -->
<g id="edge24_Node000022_Node000003" class="edge">
<title>Node22&#45;&gt;Node3</title>
<g id="a_edge24_Node000022_Node000003"><a xlink:title=" ">
<path fill="none" stroke="#63b8ff" d="M1263.33,-211.1C1268.97,-202.04 1275.62,-191.37 1280.15,-184.09"/>
<polygon fill="#63b8ff" stroke="#63b8ff" points="1260.26,-209.41 1257.95,-219.75 1266.21,-213.11 1260.26,-209.41"/>
</a>
</g>
</g>
<!-- Node23 -->
<g id="Node000023" class="node">
<title>Node23</title>
<g id="a_Node000023"><a xlink:href="NetworkEvents_8cpp.html" target="_top" xlink:title=" ">
<polygon fill="white" stroke="#666666" points="1501,-129 1390,-129 1390,-110 1501,-110 1501,-129"/>
<text text-anchor="middle" x="1445.5" y="-117" font-family="Helvetica,sans-Serif" font-size="10.00">NetworkEvents.cpp</text>
</a>
</g>
</g>
<!-- Node22&#45;&gt;Node23 -->
<g id="edge25_Node000022_Node000023" class="edge">
<title>Node22&#45;&gt;Node23</title>
<g id="a_edge25_Node000022_Node000023"><a xlink:title=" ">
<path fill="none" stroke="#63b8ff" d="M1241.71,-210.61C1234.9,-196.76 1229.15,-177.82 1239.5,-165 1258.08,-141.97 1335.42,-130.28 1389.85,-124.79"/>
<polygon fill="#63b8ff" stroke="#63b8ff" points="1238.78,-212.55 1246.65,-219.64 1244.92,-209.19 1238.78,-212.55"/>
</a>
</g>
</g>
<!-- Node24&#45;&gt;Node16 -->
<g id="edge30_Node000024_Node000016" class="edge">
<title>Node24&#45;&gt;Node16</title>
<g id="a_edge30_Node000024_Node000016"><a xlink:title=" ">
<path fill="none" stroke="#63b8ff" d="M1411.76,-213.71C1392.62,-199.29 1361.53,-177.72 1331.5,-165 1289.6,-147.25 1239.33,-135.84 1201.17,-129.03"/>
<polygon fill="#63b8ff" stroke="#63b8ff" points="1409.84,-216.64 1419.91,-219.96 1414.1,-211.09 1409.84,-216.64"/>
</a>
</g>
</g>
<!-- Node25 -->
<g id="Node000025" class="node">
<title>Node25</title>
<g id="a_Node000025"><a xlink:href="InputManager_8cpp.html" target="_top" xlink:title=" ">
<polygon fill="white" stroke="#666666" points="1482.5,-184 1378.5,-184 1378.5,-165 1482.5,-165 1482.5,-184"/>
<text text-anchor="middle" x="1430.5" y="-172" font-family="Helvetica,sans-Serif" font-size="10.00">InputManager.cpp</text>
</a>
</g>
</g>
<!-- Node24&#45;&gt;Node25 -->
<g id="edge27_Node000024_Node000025" class="edge">
<title>Node24&#45;&gt;Node25</title>
<g id="a_edge27_Node000024_Node000025"><a xlink:title=" ">
<path fill="none" stroke="#63b8ff" d="M1430.5,-209.66C1430.5,-200.93 1430.5,-190.99 1430.5,-184.09"/>
<polygon fill="#63b8ff" stroke="#63b8ff" points="1427,-209.75 1430.5,-219.75 1434,-209.75 1427,-209.75"/>
</a>
</g>
</g>
<!-- Node24&#45;&gt;Node26 -->
<g id="edge28_Node000024_Node000026" class="edge">
<title>Node24&#45;&gt;Node26</title>
<g id="a_edge28_Node000024_Node000026"><a xlink:title=" ">
<path fill="none" stroke="#63b8ff" d="M1465.38,-216.8C1494.87,-206.91 1536.43,-192.97 1562.92,-184.08"/>
<polygon fill="#63b8ff" stroke="#63b8ff" points="1464.25,-213.49 1455.89,-219.98 1466.48,-220.12 1464.25,-213.49"/>
</a>
</g>
</g>
<!-- Node27 -->
<g id="Node000027" class="node">
<title>Node27</title>
<g id="a_Node000027"><a xlink:href="NetworkSource_8cpp.html" target="_top" xlink:title=" ">
<polygon fill="white" stroke="#666666" points="1670,-129 1559,-129 1559,-110 1670,-110 1670,-129"/>
<text text-anchor="middle" x="1614.5" y="-117" font-family="Helvetica,sans-Serif" font-size="10.00">NetworkSource.cpp</text>
</a>
</g>
</g>
<!-- Node24&#45;&gt;Node27 -->
<g id="edge29_Node000024_Node000027" class="edge">
<title>Node24&#45;&gt;Node27</title>
<g id="a_edge29_Node000024_Node000027"><a xlink:title=" ">
<path fill="none" stroke="#63b8ff" d="M1451.64,-214.17C1471.46,-200.92 1502.06,-180.94 1529.5,-165 1552.4,-151.7 1579.64,-137.75 1597,-129.09"/>
<polygon fill="#63b8ff" stroke="#63b8ff" points="1449.44,-211.43 1443.09,-219.92 1453.34,-217.24 1449.44,-211.43"/>
</a>
</g>
</g>
<!-- Node28&#45;&gt;Node3 -->
<g id="edge33_Node000028_Node000003" class="edge">
<title>Node28&#45;&gt;Node3</title>
<g id="a_edge33_Node000028_Node000003"><a xlink:title=" ">
<path fill="none" stroke="#63b8ff" d="M1600.26,-219.29C1519.82,-208.1 1386.96,-189.61 1322.65,-180.67"/>
<polygon fill="#63b8ff" stroke="#63b8ff" points="1599.9,-222.77 1610.28,-220.68 1600.86,-215.84 1599.9,-222.77"/>
</a>
</g>
</g>
<!-- Node28&#45;&gt;Node27 -->
<g id="edge39_Node000028_Node000027" class="edge">
<title>Node28&#45;&gt;Node27</title>
<g id="a_edge39_Node000028_Node000027"><a xlink:title=" ">
<path fill="none" stroke="#63b8ff" d="M1662.31,-209.9C1658.99,-196.91 1653.71,-179.39 1646.5,-165 1639.77,-151.56 1629.16,-137.76 1622.02,-129.16"/>
<polygon fill="#63b8ff" stroke="#63b8ff" points="1658.99,-211.04 1664.72,-219.95 1665.79,-209.41 1658.99,-211.04"/>
</a>
</g>
</g>
<!-- Node29 -->
<g id="Node000029" class="node">
<title>Node29</title>
<g id="a_Node000029"><a xlink:href="NetworkAwaiter_8hpp.html" target="_top" xlink:title=" ">
<polygon fill="white" stroke="#666666" points="1810.5,-184 1694.5,-184 1694.5,-165 1810.5,-165 1810.5,-184"/>
<text text-anchor="middle" x="1752.5" y="-172" font-family="Helvetica,sans-Serif" font-size="10.00">NetworkAwaiter.hpp</text>
</a>
</g>
</g>
<!-- Node28&#45;&gt;Node29 -->
<g id="edge34_Node000028_Node000029" class="edge">
<title>Node28&#45;&gt;Node29</title>
<g id="a_edge34_Node000028_Node000029"><a xlink:title=" ">
<path fill="none" stroke="#63b8ff" d="M1688.9,-214.7C1704.57,-205.04 1725.01,-192.44 1738.43,-184.17"/>
<polygon fill="#63b8ff" stroke="#63b8ff" points="1686.99,-211.76 1680.32,-219.98 1690.67,-217.72 1686.99,-211.76"/>
</a>
</g>
</g>
<!-- Node32 -->
<g id="Node000032" class="node">
<title>Node32</title>
<g id="a_Node000032"><a xlink:href="Wiring_8hpp.html" target="_top" xlink:title=" ">
<polygon fill="white" stroke="#666666" points="1904,-184 1835,-184 1835,-165 1904,-165 1904,-184"/>
<text text-anchor="middle" x="1869.5" y="-172" font-family="Helvetica,sans-Serif" font-size="10.00">Wiring.hpp</text>
</a>
</g>
</g>
<!-- Node28&#45;&gt;Node32 -->
<g id="edge40_Node000028_Node000032" class="edge">
<title>Node28&#45;&gt;Node32</title>
<g id="a_edge40_Node000028_Node000032"><a xlink:title=" ">
<path fill="none" stroke="#63b8ff" d="M1708.87,-217.44C1746.87,-207.52 1801.86,-193.16 1836.63,-184.08"/>
<polygon fill="#63b8ff" stroke="#63b8ff" points="1707.91,-214.07 1699.12,-219.98 1709.68,-220.84 1707.91,-214.07"/>
</a>
</g>
</g>
<!-- Node29&#45;&gt;Node23 -->
<g id="edge36_Node000029_Node000023" class="edge">
<title>Node29&#45;&gt;Node23</title>
<g id="a_edge36_Node000029_Node000023"><a xlink:title=" ">
<path fill="none" stroke="#63b8ff" d="M1693.12,-163.25C1635.47,-153.3 1548.97,-138.36 1494.96,-129.04"/>
<polygon fill="#63b8ff" stroke="#63b8ff" points="1692.73,-166.73 1703.18,-164.98 1693.92,-159.83 1692.73,-166.73"/>
</a>
</g>
</g>
<!-- Node29&#45;&gt;Node27 -->
<g id="edge37_Node000029_Node000027" class="edge">
<title>Node29&#45;&gt;Node27</title>
<g id="a_edge37_Node000029_Node000027"><a xlink:title=" ">
<path fill="none" stroke="#63b8ff" d="M1720.71,-161.29C1695.13,-151.47 1659.83,-137.91 1637.08,-129.17"/>
<polygon fill="#63b8ff" stroke="#63b8ff" points="1719.74,-164.67 1730.33,-164.98 1722.25,-158.13 1719.74,-164.67"/>
</a>
</g>
</g>
<!-- Node30 -->
<g id="Node000030" class="node">
<title>Node30</title>
<g id="a_Node000030"><a xlink:href="NetworkAwaiter_8cpp.html" target="_top" xlink:title=" ">
<polygon fill="white" stroke="#666666" points="1803,-129 1688,-129 1688,-110 1803,-110 1803,-129"/>
<text text-anchor="middle" x="1745.5" y="-117" font-family="Helvetica,sans-Serif" font-size="10.00">NetworkAwaiter.cpp</text>
</a>
</g>
</g>
<!-- Node29&#45;&gt;Node30 -->
<g id="edge35_Node000029_Node000030" class="edge">
<title>Node29&#45;&gt;Node30</title>
<g id="a_edge35_Node000029_Node000030"><a xlink:title=" ">
<path fill="none" stroke="#63b8ff" d="M1750.01,-154.66C1748.86,-145.93 1747.55,-135.99 1746.63,-129.09"/>
<polygon fill="#63b8ff" stroke="#63b8ff" points="1746.56,-155.29 1751.34,-164.75 1753.5,-154.38 1746.56,-155.29"/>
</a>
</g>
</g>
<!-- Node31 -->
<g id="Node000031" class="node">
<title>Node31</title>
<g id="a_Node000031"><a xlink:href="Wiring_8cpp.html" target="_top" xlink:title=" ">
<polygon fill="white" stroke="#666666" points="1865.5,-74 1797.5,-74 1797.5,-55 1865.5,-55 1865.5,-74"/>
<text text-anchor="middle" x="1831.5" y="-62" font-family="Helvetica,sans-Serif" font-size="10.00">Wiring.cpp</text>
</a>
</g>
</g>
<!-- Node29&#45;&gt;Node31 -->
<g id="edge38_Node000029_Node000031" class="edge">
<title>Node29&#45;&gt;Node31</title>
<g id="a_edge38_Node000029_Node000031"><a xlink:title=" ">
<path fill="none" stroke="#63b8ff" d="M1777.62,-159.57C1789.38,-151.92 1802.71,-141.44 1811.5,-129 1823.63,-111.82 1828.62,-86.97 1830.49,-74.04"/>
<polygon fill="#63b8ff" stroke="#63b8ff" points="1775.71,-156.64 1769.03,-164.86 1779.38,-162.6 1775.71,-156.64"/>
</a>
</g>
</g>
<!-- Node32&#45;&gt;Node31 -->
<g id="edge50_Node000032_Node000031" class="edge">
<title>Node32&#45;&gt;Node31</title>
<g id="a_edge50_Node000032_Node000031"><a xlink:title=" ">
<path fill="none" stroke="#63b8ff" d="M1863.03,-155.12C1854.74,-131.56 1840.7,-91.66 1834.55,-74.16"/>
<polygon fill="#63b8ff" stroke="#63b8ff" points="1859.77,-156.39 1866.39,-164.66 1866.37,-154.07 1859.77,-156.39"/>
</a>
</g>
</g>
<!-- Node33 -->
<g id="Node000033" class="node">
<title>Node33</title>
<g id="a_Node000033"><a xlink:href="Fabric_8hpp.html" target="_top" xlink:title=" ">
<polygon fill="white" stroke="#666666" points="2003.5,-129 1937.5,-129 1937.5,-110 2003.5,-110 2003.5,-129"/>
<text text-anchor="middle" x="1970.5" y="-117" font-family="Helvetica,sans-Serif" font-size="10.00">Fabric.hpp</text>
</a>
</g>
</g>
<!-- Node32&#45;&gt;Node33 -->
<g id="edge41_Node000032_Node000033" class="edge">
<title>Node32&#45;&gt;Node33</title>
<g id="a_edge41_Node000032_Node000033"><a xlink:title=" ">
<path fill="none" stroke="#63b8ff" d="M1894.78,-160.23C1913.3,-150.51 1937.92,-137.6 1953.98,-129.17"/>
<polygon fill="#63b8ff" stroke="#63b8ff" points="1892.96,-157.24 1885.73,-164.98 1896.21,-163.44 1892.96,-157.24"/>
</a>
</g>
</g>
<!-- Node33&#45;&gt;Node31 -->
<g id="edge49_Node000033_Node000031" class="edge">
<title>Node33&#45;&gt;Node31</title>
<g id="a_edge49_Node000033_Node000031"><a xlink:title=" ">
<path fill="none" stroke="#63b8ff" d="M1938.82,-106.42C1913.03,-96.59 1877.26,-82.95 1854.24,-74.17"/>
<polygon fill="#63b8ff" stroke="#63b8ff" points="1937.58,-109.69 1948.17,-109.98 1940.07,-103.15 1937.58,-109.69"/>
</a>
</g>
</g>
<!-- Node34 -->
<g id="Node000034" class="node">
<title>Node34</title>
<g id="a_Node000034"><a xlink:href="Fabric_8cpp.html" target="_top" xlink:title=" ">
<polygon fill="white" stroke="#666666" points="2044,-74 1979,-74 1979,-55 2044,-55 2044,-74"/>
<text text-anchor="middle" x="2011.5" y="-62" font-family="Helvetica,sans-Serif" font-size="10.00">Fabric.cpp</text>
</a>
</g>
</g>
<!-- Node33&#45;&gt;Node34 -->
<g id="edge42_Node000033_Node000034" class="edge">
<title>Node33&#45;&gt;Node34</title>
<g id="a_edge42_Node000033_Node000034"><a xlink:title=" ">
<path fill="none" stroke="#63b8ff" d="M1983.52,-101.67C1990.62,-92.5 1999.1,-81.52 2004.86,-74.09"/>
<polygon fill="#63b8ff" stroke="#63b8ff" points="1980.62,-99.7 1977.27,-109.75 1986.16,-103.98 1980.62,-99.7"/>
</a>
</g>
</g>
<!-- Node35 -->
<g id="Node000035" class="node">
<title>Node35</title>
<g id="a_Node000035"><a xlink:href="StateDecoder_8hpp.html" target="_top" xlink:title=" ">
<polygon fill="white" stroke="#666666" points="2165,-74 2062,-74 2062,-55 2165,-55 2165,-74"/>
<text text-anchor="middle" x="2113.5" y="-62" font-family="Helvetica,sans-Serif" font-size="10.00">StateDecoder.hpp</text>
</a>
</g>
</g>
<!-- Node33&#45;&gt;Node35 -->
<g id="edge43_Node000033_Node000035" class="edge">
<title>Node33&#45;&gt;Node35</title>
<g id="a_edge43_Node000033_Node000035"><a xlink:title=" ">
<path fill="none" stroke="#63b8ff" d="M2003.09,-106.42C2029.62,-96.59 2066.43,-82.95 2090.11,-74.17"/>
<polygon fill="#63b8ff" stroke="#63b8ff" points="2001.64,-103.23 1993.48,-109.98 2004.07,-109.79 2001.64,-103.23"/>
</a>
</g>
</g>
<!-- Node37 -->
<g id="Node000037" class="node">
<title>Node37</title>
<g id="a_Node000037"><a xlink:href="StateEncoder_8hpp.html" target="_top" xlink:title=" ">
<polygon fill="white" stroke="#666666" points="2284,-74 2183,-74 2183,-55 2284,-55 2284,-74"/>
<text text-anchor="middle" x="2233.5" y="-62" font-family="Helvetica,sans-Serif" font-size="10.00">StateEncoder.hpp</text>
</a>
</g>
</g>
<!-- Node33&#45;&gt;Node37 -->
<g id="edge45_Node000033_Node000037" class="edge">
<title>Node33&#45;&gt;Node37</title>
<g id="a_edge45_Node000033_Node000037"><a xlink:title=" ">
<path fill="none" stroke="#63b8ff" d="M2013.54,-109.83C2062.65,-99.93 2142.47,-83.84 2191.26,-74.01"/>
<polygon fill="#63b8ff" stroke="#63b8ff" points="2012.65,-106.43 2003.54,-111.84 2014.04,-113.3 2012.65,-106.43"/>
</a>
</g>
</g>
<!-- Node39 -->
<g id="Node000039" class="node">
<title>Node39</title>
<g id="a_Node000039"><a xlink:href="Tapestry_8hpp.html" target="_top" xlink:title=" ">
<polygon fill="white" stroke="#666666" points="1961,-74 1884,-74 1884,-55 1961,-55 1961,-74"/>
<text text-anchor="middle" x="1922.5" y="-62" font-family="Helvetica,sans-Serif" font-size="10.00">Tapestry.hpp</text>
</a>
</g>
</g>
<!-- Node33&#45;&gt;Node39 -->
<g id="edge47_Node000033_Node000039" class="edge">
<title>Node33&#45;&gt;Node39</title>
<g id="a_edge47_Node000033_Node000039"><a xlink:title=" ">
<path fill="none" stroke="#63b8ff" d="M1955.77,-102.24C1947.36,-92.95 1937.15,-81.68 1930.28,-74.09"/>
<polygon fill="#63b8ff" stroke="#63b8ff" points="1953.27,-104.69 1962.57,-109.75 1958.46,-99.99 1953.27,-104.69"/>
</a>
</g>
</g>
<!-- Node36 -->
<g id="Node000036" class="node">
<title>Node36</title>
<g id="a_Node000036"><a xlink:href="StateDecoder_8cpp.html" target="_top" xlink:title=" ">
<polygon fill="white" stroke="#666666" points="2164.5,-19 2062.5,-19 2062.5,0 2164.5,0 2164.5,-19"/>
<text text-anchor="middle" x="2113.5" y="-7" font-family="Helvetica,sans-Serif" font-size="10.00">StateDecoder.cpp</text>
</a>
</g>
</g>
<!-- Node35&#45;&gt;Node36 -->
<g id="edge44_Node000035_Node000036" class="edge">
<title>Node35&#45;&gt;Node36</title>
<g id="a_edge44_Node000035_Node000036"><a xlink:title=" ">
<path fill="none" stroke="#63b8ff" d="M2113.5,-44.66C2113.5,-35.93 2113.5,-25.99 2113.5,-19.09"/>
<polygon fill="#63b8ff" stroke="#63b8ff" points="2110,-44.75 2113.5,-54.75 2117,-44.75 2110,-44.75"/>
</a>
</g>
</g>
<!-- Node38 -->
<g id="Node000038" class="node">
<title>Node38</title>
<g id="a_Node000038"><a xlink:href="StateEncoder_8cpp.html" target="_top" xlink:title=" ">
<polygon fill="white" stroke="#666666" points="2284,-19 2183,-19 2183,0 2284,0 2284,-19"/>
<text text-anchor="middle" x="2233.5" y="-7" font-family="Helvetica,sans-Serif" font-size="10.00">StateEncoder.cpp</text>
</a>
</g>
</g>
<!-- Node37&#45;&gt;Node38 -->
<g id="edge46_Node000037_Node000038" class="edge">
<title>Node37&#45;&gt;Node38</title>
<g id="a_edge46_Node000037_Node000038"><a xlink:title=" ">
<path fill="none" stroke="#63b8ff" d="M2233.5,-44.66C2233.5,-35.93 2233.5,-25.99 2233.5,-19.09"/>
<polygon fill="#63b8ff" stroke="#63b8ff" points="2230,-44.75 2233.5,-54.75 2237,-44.75 2230,-44.75"/>
</a>
</g>
</g>
<!-- Node40 -->
<g id="Node000040" class="node">
<title>Node40</title>
<g id="a_Node000040"><a xlink:href="Tapestry_8cpp.html" target="_top" xlink:title=" ">
<polygon fill="white" stroke="#666666" points="1961,-19 1884,-19 1884,0 1961,0 1961,-19"/>
<text text-anchor="middle" x="1922.5" y="-7" font-family="Helvetica,sans-Serif" font-size="10.00">Tapestry.cpp</text>
</a>
</g>
</g>
<!-- Node39&#45;&gt;Node40 -->
<g id="edge48_Node000039_Node000040" class="edge">
<title>Node39&#45;&gt;Node40</title>
<g id="a_edge48_Node000039_Node000040"><a xlink:title=" ">
<path fill="none" stroke="#63b8ff" d="M1922.5,-44.66C1922.5,-35.93 1922.5,-25.99 1922.5,-19.09"/>
<polygon fill="#63b8ff" stroke="#63b8ff" points="1919,-44.75 1922.5,-54.75 1926,-44.75 1919,-44.75"/>
</a>
</g>
</g>
</g>
</svg>

<g id="navigator" transform="translate(0 0)" fill="#404254">
  <rect fill="#f2f5e9" fill-opacity="0.5" stroke="#606060" stroke-width=".5" x="0" y="0" width="60" height="60"/>
  <use id="zoomplus" xlink:href="#zoomPlus" x="17" y="9" onmousedown="handleZoom(evt,'in')"/>
  <use id="zoomminus" xlink:href="#zoomMin" x="42" y="9" onmousedown="handleZoom(evt,'out')"/>
  <use id="reset" xlink:href="#resetDef" x="30" y="36" onmousedown="handleReset()"/>
   <use id="arrowup" xlink:href="#arrowUp" x="0" y="0" onmousedown="handlePan(0,-1)"/>
  <use id="arrowright" xlink:href="#arrowRight" x="0" y="0" onmousedown="handlePan(1,0)"/>
  <use id="arrowdown" xlink:href="#arrowDown" x="0" y="0" onmousedown="handlePan(0,1)"/>
  <use id="arrowleft" xlink:href="#arrowLeft" x="0" y="0" onmousedown="handlePan(-1,0)"/>
</g>
<svg viewBox="0 0 15 15" width="100%" height="30px" preserveAspectRatio="xMaxYMin meet">
 <g id="arrow_out" transform="scale(0.3 0.3)">
  <a xlink:href="GlobalNetworkConfig_8hpp__dep__incl_org.svg" target="_base">
   <rect id="button" ry="5" rx="5" y="6" x="6" height="38" width="38"
        fill="#f2f5e9" fill-opacity="0.5" stroke="#606060" stroke-width="1.0"/>
   <path id="arrow"
     d="M 11.500037,31.436501 C 11.940474,20.09759 22.043105,11.32322 32.158766,21.979434 L 37.068811,17.246167 C 37.068811,17.246167 37.088388,32 37.088388,32 L 22.160133,31.978069 C 22.160133,31.978069 26.997745,27.140456 26.997745,27.140456 C 18.528582,18.264221 13.291696,25.230495 11.500037,31.436501 z"
     style="fill:#404040;"/>
  </a>
 </g>
</svg>

<style type='text/css'>
<![CDATA[
[data-mouse-over-selected='false'] { opacity: 0.7; }
[data-mouse-over-selected='true']  { opacity: 1.0; }
]]>
</style>
<script type="application/ecmascript"><![CDATA[
document.addEventListener('DOMContentLoaded', (event) => {
  highlightEdges();
  highlightAdjacentNodes();
});
]]></script>
</svg>
