<?xml version="1.0" encoding="UTF-8" standalone="no"?>
<!DOCTYPE svg PUBLIC "-//W3C//DTD SVG 1.1//EN"
 "http://www.w3.org/Graphics/SVG/1.1/DTD/svg11.dtd">
<!-- Generated by graphviz version 2.43.0 (0)
 -->
<!-- Title: GpuExtractor.hpp Pages: 1 -->
<!--zoomable 753 -->

<svg id="main" version="1.1" xmlns="http://www.w3.org/2000/svg" xmlns:xlink="http://www.w3.org/1999/xlink" xml:space="preserve" onload="init(evt)">
<style type="text/css"><![CDATA[
.node, .edge {opacity: 0.7;}
.node.selected, .edge.selected {opacity: 1;}
.edge:hover path { stroke: red; }
.edge:hover polygon { stroke: red; fill: red; }
]]></style>

<defs>
  <circle id="rim" cx="0" cy="0" r="7"/>
  <circle id="rim2" cx="0" cy="0" r="3.5"/>
  <g id="zoomPlus">
    <use xlink:href="#rim" fill="#404040"><set attributeName="fill" to="#808080" begin="zoomplus.mouseover" end="zoomplus.mouseout"/></use>
    <path d="M-4,0h8M0,-4v8" fill="none" stroke="white" stroke-width="1.5" pointer-events="none"/>
  </g>
  <g id="zoomMin">
    <use xlink:href="#rim" fill="#404040"><set attributeName="fill" to="#808080" begin="zoomminus.mouseover" end="zoomminus.mouseout"/></use>
    <path d="M-4,0h8" fill="none" stroke="white" stroke-width="1.5" pointer-events="none"/>
  </g>
  <g id="arrowUp" transform="translate(30 24)">
    <use xlink:href="#rim"/>
    <path pointer-events="none" fill="none" stroke="white" stroke-width="1.5" d="M0,-3.0v7 M-2.5,-0.5L0,-3.0L2.5,-0.5"/>
  </g>
  <g id="arrowRight" transform="rotate(90) translate(36 -43)">
    <use xlink:href="#rim"/>
    <path pointer-events="none" fill="none" stroke="white" stroke-width="1.5" d="M0,-3.0v7 M-2.5,-0.5L0,-3.0L2.5,-0.5"/>
  </g>
  <g id="arrowDown" transform="rotate(180) translate(-30 -48)">
    <use xlink:href="#rim"/>
    <path pointer-events="none" fill="none" stroke="white" stroke-width="1.5" d="M0,-3.0v7 M-2.5,-0.5L0,-3.0L2.5,-0.5"/>
  </g>
  <g id="arrowLeft" transform="rotate(270) translate(-36 17)">
    <use xlink:href="#rim"/>
    <path pointer-events="none" fill="none" stroke="white" stroke-width="1.5" d="M0,-3.0v7 M-2.5,-0.5L0,-3.0L2.5,-0.5"/>
  </g>
  <g id="resetDef">
    <use xlink:href="#rim2" fill="#404040"><set attributeName="fill" to="#808080" begin="reset.mouseover" end="reset.mouseout"/></use>
  </g>
</defs>
<script type="application/ecmascript">
var viewWidth = 1218;
var viewHeight = 753;
var sectionId = 'dynsection-0';
</script>
<script type="application/ecmascript" xlink:href="svg.min.js"/>
<svg id="graph" class="graph">
<g id="viewport">
<title>GpuExtractor.hpp</title>
<!-- Node1 -->
<g id="Node000001" class="node">
<title>Node1</title>
<g id="a_Node000001"><a xlink:title=" ">
<polygon fill="#999999" stroke="#666666" points="787,-745 686,-745 686,-726 787,-726 787,-745"/>
<text text-anchor="middle" x="736.5" y="-733" font-family="Helvetica,sans-Serif" font-size="10.00">GpuExtractor.hpp</text>
</a>
</g>
</g>
<!-- Node2 -->
<g id="Node000002" class="node">
<title>Node2</title>
<g id="a_Node000002"><a xlink:href="GpuExecutionContext_8hpp.html" target="_top" xlink:title=" ">
<polygon fill="white" stroke="#666666" points="774.5,-580 626.5,-580 626.5,-550 774.5,-550 774.5,-580"/>
<text text-anchor="start" x="634.5" y="-568" font-family="Helvetica,sans-Serif" font-size="10.00">MayaFlux/Yantra/Executors</text>
<text text-anchor="middle" x="700.5" y="-557" font-family="Helvetica,sans-Serif" font-size="10.00">/GpuExecutionContext.hpp</text>
</a>
</g>
</g>
<!-- Node1&#45;&gt;Node2 -->
<g id="edge1_Node000001_Node000002" class="edge">
<title>Node1&#45;&gt;Node2</title>
<g id="a_edge1_Node000001_Node000002"><a xlink:title=" ">
<path fill="none" stroke="#63b8ff" d="M733.71,-725.81C728.3,-708.63 716.31,-669.05 709.5,-635 706.56,-620.28 704.35,-603.6 702.86,-590.33"/>
<polygon fill="#63b8ff" stroke="#63b8ff" points="706.31,-589.67 701.78,-580.1 699.35,-590.41 706.31,-589.67"/>
</a>
</g>
</g>
<!-- Node35 -->
<g id="Node000035" class="node">
<title>Node35</title>
<g id="a_Node000035"><a xlink:href="UniversalExtractor_8hpp.html" target="_top" xlink:title="Modern, digital&#45;first universal extractor framework for Maya Flux.">
<polygon fill="white" stroke="#666666" points="867.5,-690 739.5,-690 739.5,-671 867.5,-671 867.5,-690"/>
<text text-anchor="middle" x="803.5" y="-678" font-family="Helvetica,sans-Serif" font-size="10.00">UniversalExtractor.hpp</text>
</a>
</g>
</g>
<!-- Node1&#45;&gt;Node35 -->
<g id="edge42_Node000001_Node000035" class="edge">
<title>Node1&#45;&gt;Node35</title>
<g id="a_edge42_Node000001_Node000035"><a xlink:title=" ">
<path fill="none" stroke="#63b8ff" d="M747.26,-725.98C757.27,-718.07 772.39,-706.11 784.43,-696.58"/>
<polygon fill="#63b8ff" stroke="#63b8ff" points="786.87,-699.12 792.54,-690.17 782.53,-693.63 786.87,-699.12"/>
</a>
</g>
</g>
<!-- Node3 -->
<g id="Node000003" class="node">
<title>Node3</title>
<g id="a_Node000003"><a xlink:href="GpuDispatchCore_8hpp.html" target="_top" xlink:title=" ">
<polygon fill="white" stroke="#666666" points="761.5,-514 639.5,-514 639.5,-495 761.5,-495 761.5,-514"/>
<text text-anchor="middle" x="700.5" y="-502" font-family="Helvetica,sans-Serif" font-size="10.00">GpuDispatchCore.hpp</text>
</a>
</g>
</g>
<!-- Node2&#45;&gt;Node3 -->
<g id="edge2_Node000002_Node000003" class="edge">
<title>Node2&#45;&gt;Node3</title>
<g id="a_edge2_Node000002_Node000003"><a xlink:title=" ">
<path fill="none" stroke="#63b8ff" d="M700.5,-549.84C700.5,-542.21 700.5,-532.7 700.5,-524.45"/>
<polygon fill="#63b8ff" stroke="#63b8ff" points="704,-524.27 700.5,-514.27 697,-524.27 704,-524.27"/>
</a>
</g>
</g>
<!-- Node4 -->
<g id="Node000004" class="node">
<title>Node4</title>
<g id="a_Node000004"><a xlink:href="GpuResourceManager_8hpp.html" target="_top" xlink:title=" ">
<polygon fill="white" stroke="#666666" points="526.5,-453.5 382.5,-453.5 382.5,-434.5 526.5,-434.5 526.5,-453.5"/>
<text text-anchor="middle" x="454.5" y="-441.5" font-family="Helvetica,sans-Serif" font-size="10.00">GpuResourceManager.hpp</text>
</a>
</g>
</g>
<!-- Node3&#45;&gt;Node4 -->
<g id="edge3_Node000003_Node000004" class="edge">
<title>Node3&#45;&gt;Node4</title>
<g id="a_edge3_Node000003_Node000004"><a xlink:title=" ">
<path fill="none" stroke="#63b8ff" d="M664.73,-494.99C621.19,-484.64 547.6,-467.14 500.05,-455.83"/>
<polygon fill="#63b8ff" stroke="#63b8ff" points="500.85,-452.43 490.31,-453.52 499.23,-459.24 500.85,-452.43"/>
</a>
</g>
</g>
<!-- Node13 -->
<g id="Node000013" class="node">
<title>Node13</title>
<g id="a_Node000013"><a xlink:href="ExecutionContext_8hpp.html" target="_top" xlink:title=" ">
<polygon fill="white" stroke="#666666" points="1005,-459 856,-459 856,-429 1005,-429 1005,-459"/>
<text text-anchor="start" x="864" y="-447" font-family="Helvetica,sans-Serif" font-size="10.00">MayaFlux/Yantra/Operation</text>
<text text-anchor="middle" x="930.5" y="-436" font-family="Helvetica,sans-Serif" font-size="10.00">Spec/ExecutionContext.hpp</text>
</a>
</g>
</g>
<!-- Node3&#45;&gt;Node13 -->
<g id="edge12_Node000003_Node000013" class="edge">
<title>Node3&#45;&gt;Node13</title>
<g id="a_edge12_Node000003_Node000013"><a xlink:title=" ">
<path fill="none" stroke="#63b8ff" d="M733.94,-494.99C768.27,-486.26 822.58,-472.45 865.42,-461.55"/>
<polygon fill="#63b8ff" stroke="#63b8ff" points="866.38,-464.92 875.2,-459.06 864.65,-458.14 866.38,-464.92"/>
</a>
</g>
</g>
<!-- Node15 -->
<g id="Node000015" class="node">
<title>Node15</title>
<g id="a_Node000015"><a xlink:href="OperationHelper_8hpp.html" target="_top" xlink:title=" ">
<polygon fill="white" stroke="#666666" points="775,-459 626,-459 626,-429 775,-429 775,-459"/>
<text text-anchor="start" x="634" y="-447" font-family="Helvetica,sans-Serif" font-size="10.00">MayaFlux/Yantra/Operation</text>
<text text-anchor="middle" x="700.5" y="-436" font-family="Helvetica,sans-Serif" font-size="10.00">Spec/OperationHelper.hpp</text>
</a>
</g>
</g>
<!-- Node3&#45;&gt;Node15 -->
<g id="edge14_Node000003_Node000015" class="edge">
<title>Node3&#45;&gt;Node15</title>
<g id="a_edge14_Node000003_Node000015"><a xlink:title=" ">
<path fill="none" stroke="#63b8ff" d="M700.5,-494.87C700.5,-488.11 700.5,-478.35 700.5,-469.26"/>
<polygon fill="#63b8ff" stroke="#63b8ff" points="704,-469.11 700.5,-459.11 697,-469.11 704,-469.11"/>
</a>
</g>
</g>
<!-- Node5 -->
<g id="Node000005" class="node">
<title>Node5</title>
<g id="a_Node000005"><a xlink:href="ComputePress_8hpp.html" target="_top" xlink:title=" ">
<polygon fill="white" stroke="#666666" points="413.5,-393 271.5,-393 271.5,-363 413.5,-363 413.5,-393"/>
<text text-anchor="start" x="279.5" y="-381" font-family="Helvetica,sans-Serif" font-size="10.00">MayaFlux/Portal/Graphics</text>
<text text-anchor="middle" x="342.5" y="-370" font-family="Helvetica,sans-Serif" font-size="10.00">/ComputePress.hpp</text>
</a>
</g>
</g>
<!-- Node4&#45;&gt;Node5 -->
<g id="edge4_Node000004_Node000005" class="edge">
<title>Node4&#45;&gt;Node5</title>
<g id="a_edge4_Node000004_Node000005"><a xlink:title=" ">
<path fill="none" stroke="#63b8ff" d="M439.4,-434.37C423.27,-425.16 397.2,-410.26 376.16,-398.24"/>
<polygon fill="#63b8ff" stroke="#63b8ff" points="377.62,-395.04 367.2,-393.12 374.15,-401.12 377.62,-395.04"/>
</a>
</g>
</g>
<!-- Node6 -->
<g id="Node000006" class="node">
<title>Node6</title>
<g id="a_Node000006"><a xlink:href="ShaderFoundry_8hpp.html" target="_top" xlink:title=" ">
<polygon fill="white" stroke="#666666" points="326,-321.5 217,-321.5 217,-302.5 326,-302.5 326,-321.5"/>
<text text-anchor="middle" x="271.5" y="-309.5" font-family="Helvetica,sans-Serif" font-size="10.00">ShaderFoundry.hpp</text>
</a>
</g>
</g>
<!-- Node5&#45;&gt;Node6 -->
<g id="edge5_Node000005_Node000006" class="edge">
<title>Node5&#45;&gt;Node6</title>
<g id="a_edge5_Node000005_Node000006"><a xlink:title=" ">
<path fill="none" stroke="#63b8ff" d="M326.74,-362.8C315.57,-352.72 300.56,-339.19 289.01,-328.78"/>
<polygon fill="#63b8ff" stroke="#63b8ff" points="291.08,-325.94 281.31,-321.84 286.4,-331.14 291.08,-325.94"/>
</a>
</g>
</g>
<!-- Node7 -->
<g id="Node000007" class="node">
<title>Node7</title>
<g id="a_Node000007"><a xlink:href="ShaderUtils_8hpp.html" target="_top" xlink:title=" ">
<polygon fill="white" stroke="#666666" points="219.5,-261 125.5,-261 125.5,-242 219.5,-242 219.5,-261"/>
<text text-anchor="middle" x="172.5" y="-249" font-family="Helvetica,sans-Serif" font-size="10.00">ShaderUtils.hpp</text>
</a>
</g>
</g>
<!-- Node6&#45;&gt;Node7 -->
<g id="edge6_Node000006_Node000007" class="edge">
<title>Node6&#45;&gt;Node7</title>
<g id="a_edge6_Node000006_Node000007"><a xlink:title=" ">
<path fill="none" stroke="#63b8ff" d="M256.89,-302.37C240.81,-292.86 214.72,-277.45 195.8,-266.27"/>
<polygon fill="#63b8ff" stroke="#63b8ff" points="197.56,-263.24 187.17,-261.17 194,-269.27 197.56,-263.24"/>
</a>
</g>
</g>
<!-- Node8 -->
<g id="Node000008" class="node">
<title>Node8</title>
<g id="a_Node000008"><a xlink:title=" ">
<polygon fill="#e0e0e0" stroke="#999999" points="105,-200.5 0,-200.5 0,-181.5 105,-181.5 105,-200.5"/>
<text text-anchor="middle" x="52.5" y="-188.5" font-family="Helvetica,sans-Serif" font-size="10.00">vulkan/vulkan.hpp</text>
</a>
</g>
</g>
<!-- Node7&#45;&gt;Node8 -->
<g id="edge7_Node000007_Node000008" class="edge">
<title>Node7&#45;&gt;Node8</title>
<g id="a_edge7_Node000007_Node000008"><a xlink:title=" ">
<path fill="none" stroke="#63b8ff" d="M155.05,-241.99C135.14,-232.29 102.36,-216.31 79.23,-205.03"/>
<polygon fill="#63b8ff" stroke="#63b8ff" points="80.49,-201.75 69.97,-200.52 77.43,-208.04 80.49,-201.75"/>
</a>
</g>
</g>
<!-- Node9 -->
<g id="Node000009" class="node">
<title>Node9</title>
<g id="a_Node000009"><a xlink:href="GraphicsUtils_8hpp.html" target="_top" xlink:title=" ">
<polygon fill="white" stroke="#666666" points="226,-200.5 123,-200.5 123,-181.5 226,-181.5 226,-200.5"/>
<text text-anchor="middle" x="174.5" y="-188.5" font-family="Helvetica,sans-Serif" font-size="10.00">GraphicsUtils.hpp</text>
</a>
</g>
</g>
<!-- Node7&#45;&gt;Node9 -->
<g id="edge8_Node000007_Node000009" class="edge">
<title>Node7&#45;&gt;Node9</title>
<g id="a_edge8_Node000007_Node000009"><a xlink:title=" ">
<path fill="none" stroke="#63b8ff" d="M172.8,-241.87C173.07,-233.75 173.5,-221.31 173.85,-210.89"/>
<polygon fill="#63b8ff" stroke="#63b8ff" points="177.36,-210.78 174.2,-200.67 170.36,-210.54 177.36,-210.78"/>
</a>
</g>
</g>
<!-- Node10 -->
<g id="Node000010" class="node">
<title>Node10</title>
<g id="a_Node000010"><a xlink:href="VertexLayout_8hpp.html" target="_top" xlink:title=" ">
<polygon fill="white" stroke="#666666" points="347,-140 196,-140 196,-110 347,-110 347,-140"/>
<text text-anchor="start" x="204" y="-128" font-family="Helvetica,sans-Serif" font-size="10.00">MayaFlux/Kakshya/NDData</text>
<text text-anchor="middle" x="271.5" y="-117" font-family="Helvetica,sans-Serif" font-size="10.00">/VertexLayout.hpp</text>
</a>
</g>
</g>
<!-- Node7&#45;&gt;Node10 -->
<g id="edge9_Node000007_Node000010" class="edge">
<title>Node7&#45;&gt;Node10</title>
<g id="a_edge9_Node000007_Node000010"><a xlink:title=" ">
<path fill="none" stroke="#63b8ff" d="M188.8,-241.97C202.47,-234.13 221.75,-221.42 234.5,-206 248.23,-189.4 258.04,-166.86 264.1,-149.94"/>
<polygon fill="#63b8ff" stroke="#63b8ff" points="267.5,-150.82 267.39,-140.23 260.87,-148.58 267.5,-150.82"/>
</a>
</g>
</g>
<!-- Node11 -->
<g id="Node000011" class="node">
<title>Node11</title>
<g id="a_Node000011"><a xlink:href="NDData_8hpp.html" target="_top" xlink:title=" ">
<polygon fill="white" stroke="#666666" points="661.5,-74 585.5,-74 585.5,-55 661.5,-55 661.5,-74"/>
<text text-anchor="middle" x="623.5" y="-62" font-family="Helvetica,sans-Serif" font-size="10.00">NDData.hpp</text>
</a>
</g>
</g>
<!-- Node10&#45;&gt;Node11 -->
<g id="edge10_Node000010_Node000011" class="edge">
<title>Node10&#45;&gt;Node11</title>
<g id="a_edge10_Node000010_Node000011"><a xlink:title=" ">
<path fill="none" stroke="#63b8ff" d="M347.01,-111.45C416,-99.99 515.96,-83.37 574.89,-73.58"/>
<polygon fill="#63b8ff" stroke="#63b8ff" points="575.75,-76.98 585.04,-71.89 574.6,-70.08 575.75,-76.98"/>
</a>
</g>
</g>
<!-- Node12 -->
<g id="Node000012" class="node">
<title>Node12</title>
<g id="a_Node000012"><a xlink:title=" ">
<polygon fill="#e0e0e0" stroke="#999999" points="662.5,-19 584.5,-19 584.5,0 662.5,0 662.5,-19"/>
<text text-anchor="middle" x="623.5" y="-7" font-family="Helvetica,sans-Serif" font-size="10.00">glm/glm.hpp</text>
</a>
</g>
</g>
<!-- Node11&#45;&gt;Node12 -->
<g id="edge11_Node000011_Node000012" class="edge">
<title>Node11&#45;&gt;Node12</title>
<g id="a_edge11_Node000011_Node000012"><a xlink:title=" ">
<path fill="none" stroke="#63b8ff" d="M623.5,-54.75C623.5,-47.8 623.5,-37.85 623.5,-29.13"/>
<polygon fill="#63b8ff" stroke="#63b8ff" points="627,-29.09 623.5,-19.09 620,-29.09 627,-29.09"/>
</a>
</g>
</g>
<!-- Node14 -->
<g id="Node000014" class="node">
<title>Node14</title>
<g id="a_Node000014"><a xlink:title=" ">
<polygon fill="#e0e0e0" stroke="#999999" points="841,-261 776,-261 776,-242 841,-242 841,-261"/>
<text text-anchor="middle" x="808.5" y="-249" font-family="Helvetica,sans-Serif" font-size="10.00">typeindex</text>
</a>
</g>
</g>
<!-- Node13&#45;&gt;Node14 -->
<g id="edge13_Node000013_Node000014" class="edge">
<title>Node13&#45;&gt;Node14</title>
<g id="a_edge13_Node000013_Node000014"><a xlink:title=" ">
<path fill="none" stroke="#63b8ff" d="M937.64,-428.71C944.86,-412.14 953.62,-384.36 943.5,-363 921.43,-316.41 869.03,-282.93 836.39,-265.72"/>
<polygon fill="#63b8ff" stroke="#63b8ff" points="837.85,-262.53 827.35,-261.1 834.66,-268.77 837.85,-262.53"/>
</a>
</g>
</g>
<!-- Node15&#45;&gt;Node14 -->
<g id="edge41_Node000015_Node000014" class="edge">
<title>Node15&#45;&gt;Node14</title>
<g id="a_edge41_Node000015_Node000014"><a xlink:title=" ">
<path fill="none" stroke="#63b8ff" d="M713.31,-428.77C721.65,-419.1 732.43,-405.79 740.5,-393 766.79,-351.32 790.05,-297.95 801.31,-270.54"/>
<polygon fill="#63b8ff" stroke="#63b8ff" points="804.63,-271.66 805.14,-261.08 798.14,-269.04 804.63,-271.66"/>
</a>
</g>
</g>
<!-- Node16 -->
<g id="Node000016" class="node">
<title>Node16</title>
<g id="a_Node000016"><a xlink:href="ContainerUtils_8hpp.html" target="_top" xlink:title=" ">
<polygon fill="white" stroke="#666666" points="934,-393 799,-393 799,-363 934,-363 934,-393"/>
<text text-anchor="start" x="807" y="-381" font-family="Helvetica,sans-Serif" font-size="10.00">MayaFlux/Kakshya/Utils</text>
<text text-anchor="middle" x="866.5" y="-370" font-family="Helvetica,sans-Serif" font-size="10.00">/ContainerUtils.hpp</text>
</a>
</g>
</g>
<!-- Node15&#45;&gt;Node16 -->
<g id="edge15_Node000015_Node000016" class="edge">
<title>Node15&#45;&gt;Node16</title>
<g id="a_edge15_Node000015_Node000016"><a xlink:title=" ">
<path fill="none" stroke="#63b8ff" d="M736.93,-428.95C761.58,-419.45 794.33,-406.82 820.74,-396.64"/>
<polygon fill="#63b8ff" stroke="#63b8ff" points="822.08,-399.88 830.16,-393.01 819.57,-393.34 822.08,-399.88"/>
</a>
</g>
</g>
<!-- Node19 -->
<g id="Node000019" class="node">
<title>Node19</title>
<g id="a_Node000019"><a xlink:href="DataIO_8hpp.html" target="_top" xlink:title=" ">
<polygon fill="white" stroke="#666666" points="731.5,-393 607.5,-393 607.5,-363 731.5,-363 731.5,-393"/>
<text text-anchor="start" x="615.5" y="-381" font-family="Helvetica,sans-Serif" font-size="10.00">MayaFlux/Yantra/Data</text>
<text text-anchor="middle" x="669.5" y="-370" font-family="Helvetica,sans-Serif" font-size="10.00">/DataIO.hpp</text>
</a>
</g>
</g>
<!-- Node15&#45;&gt;Node19 -->
<g id="edge19_Node000015_Node000019" class="edge">
<title>Node15&#45;&gt;Node19</title>
<g id="a_edge19_Node000015_Node000019"><a xlink:title=" ">
<path fill="none" stroke="#63b8ff" d="M693.62,-428.8C689.85,-421.01 685.08,-411.16 680.77,-402.28"/>
<polygon fill="#63b8ff" stroke="#63b8ff" points="683.87,-400.64 676.36,-393.16 677.57,-403.69 683.87,-400.64"/>
</a>
</g>
</g>
<!-- Node20 -->
<g id="Node000020" class="node">
<title>Node20</title>
<g id="a_Node000020"><a xlink:href="DataUtils_8hpp.html" target="_top" xlink:title=" ">
<polygon fill="white" stroke="#666666" points="578,-327 443,-327 443,-297 578,-297 578,-327"/>
<text text-anchor="start" x="451" y="-315" font-family="Helvetica,sans-Serif" font-size="10.00">MayaFlux/Kakshya/Utils</text>
<text text-anchor="middle" x="510.5" y="-304" font-family="Helvetica,sans-Serif" font-size="10.00">/DataUtils.hpp</text>
</a>
</g>
</g>
<!-- Node15&#45;&gt;Node20 -->
<g id="edge40_Node000015_Node000020" class="edge">
<title>Node15&#45;&gt;Node20</title>
<g id="a_edge40_Node000015_Node000020"><a xlink:title=" ">
<path fill="none" stroke="#63b8ff" d="M665.63,-428.85C645.28,-419.88 619.54,-407.3 598.5,-393 573.17,-375.79 547.66,-351.68 530.68,-334.43"/>
<polygon fill="#63b8ff" stroke="#63b8ff" points="532.98,-331.78 523.5,-327.04 527.96,-336.65 532.98,-331.78"/>
</a>
</g>
</g>
<!-- Node17 -->
<g id="Node000017" class="node">
<title>Node17</title>
<g id="a_Node000017"><a xlink:href="SignalSourceContainer_8hpp.html" target="_top" xlink:title=" ">
<polygon fill="white" stroke="#666666" points="1209.5,-206 1033.5,-206 1033.5,-176 1209.5,-176 1209.5,-206"/>
<text text-anchor="start" x="1041.5" y="-194" font-family="Helvetica,sans-Serif" font-size="10.00">MayaFlux/Kakshya/SignalSource</text>
<text text-anchor="middle" x="1121.5" y="-183" font-family="Helvetica,sans-Serif" font-size="10.00">Container.hpp</text>
</a>
</g>
</g>
<!-- Node16&#45;&gt;Node17 -->
<g id="edge16_Node000016_Node000017" class="edge">
<title>Node16&#45;&gt;Node17</title>
<g id="a_edge16_Node000016_Node000017"><a xlink:title=" ">
<path fill="none" stroke="#63b8ff" d="M886.09,-362.79C931.07,-330.16 1041.87,-249.77 1093.8,-212.1"/>
<polygon fill="#63b8ff" stroke="#63b8ff" points="1096.16,-214.71 1102.2,-206 1092.05,-209.04 1096.16,-214.71"/>
</a>
</g>
</g>
<!-- Node18 -->
<g id="Node000018" class="node">
<title>Node18</title>
<g id="a_Node000018"><a xlink:href="NDimensionalContainer_8hpp.html" target="_top" xlink:title=" ">
<polygon fill="white" stroke="#666666" points="1138,-134.5 985,-134.5 985,-115.5 1138,-115.5 1138,-134.5"/>
<text text-anchor="middle" x="1061.5" y="-122.5" font-family="Helvetica,sans-Serif" font-size="10.00">NDimensionalContainer.hpp</text>
</a>
</g>
</g>
<!-- Node17&#45;&gt;Node18 -->
<g id="edge17_Node000017_Node000018" class="edge">
<title>Node17&#45;&gt;Node18</title>
<g id="a_edge17_Node000017_Node000018"><a xlink:title=" ">
<path fill="none" stroke="#63b8ff" d="M1108.18,-175.8C1098.92,-165.92 1086.55,-152.72 1076.87,-142.39"/>
<polygon fill="#63b8ff" stroke="#63b8ff" points="1079.18,-139.75 1069.79,-134.84 1074.08,-144.53 1079.18,-139.75"/>
</a>
</g>
</g>
<!-- Node18&#45;&gt;Node11 -->
<g id="edge18_Node000018_Node000011" class="edge">
<title>Node18&#45;&gt;Node11</title>
<g id="a_edge18_Node000018_Node000011"><a xlink:title=" ">
<path fill="none" stroke="#63b8ff" d="M997.81,-115.49C909.37,-103.68 751.3,-82.57 671.87,-71.96"/>
<polygon fill="#63b8ff" stroke="#63b8ff" points="672.03,-68.45 661.66,-70.6 671.11,-75.39 672.03,-68.45"/>
</a>
</g>
</g>
<!-- Node19&#45;&gt;Node20 -->
<g id="edge20_Node000019_Node000020" class="edge">
<title>Node19&#45;&gt;Node20</title>
<g id="a_edge20_Node000019_Node000020"><a xlink:title=" ">
<path fill="none" stroke="#63b8ff" d="M634.61,-362.95C611.1,-353.49 579.9,-340.93 554.66,-330.78"/>
<polygon fill="#63b8ff" stroke="#63b8ff" points="555.9,-327.5 545.31,-327.01 553.28,-333.99 555.9,-327.5"/>
</a>
</g>
</g>
<!-- Node29 -->
<g id="Node000029" class="node">
<title>Node29</title>
<g id="a_Node000029"><a xlink:href="StructureIntrospection_8hpp.html" target="_top" xlink:title=" ">
<polygon fill="white" stroke="#666666" points="742.5,-321.5 596.5,-321.5 596.5,-302.5 742.5,-302.5 742.5,-321.5"/>
<text text-anchor="middle" x="669.5" y="-309.5" font-family="Helvetica,sans-Serif" font-size="10.00">StructureIntrospection.hpp</text>
</a>
</g>
</g>
<!-- Node19&#45;&gt;Node29 -->
<g id="edge31_Node000019_Node000029" class="edge">
<title>Node19&#45;&gt;Node29</title>
<g id="a_edge31_Node000019_Node000029"><a xlink:title=" ">
<path fill="none" stroke="#63b8ff" d="M669.5,-362.8C669.5,-353.7 669.5,-341.79 669.5,-331.9"/>
<polygon fill="#63b8ff" stroke="#63b8ff" points="673,-331.84 669.5,-321.84 666,-331.84 673,-331.84"/>
</a>
</g>
</g>
<!-- Node20&#45;&gt;Node11 -->
<g id="edge21_Node000020_Node000011" class="edge">
<title>Node20&#45;&gt;Node11</title>
<g id="a_edge21_Node000020_Node000011"><a xlink:title=" ">
<path fill="none" stroke="#63b8ff" d="M467.2,-296.79C449.37,-288.89 430,-277.28 417.5,-261 376.24,-207.26 353.44,-162.32 396.5,-110 418.69,-83.03 515.52,-72.17 575.32,-67.97"/>
<polygon fill="#63b8ff" stroke="#63b8ff" points="575.56,-71.47 585.3,-67.31 575.09,-64.48 575.56,-71.47"/>
</a>
</g>
</g>
<!-- Node20&#45;&gt;Node14 -->
<g id="edge30_Node000020_Node000014" class="edge">
<title>Node20&#45;&gt;Node14</title>
<g id="a_edge30_Node000020_Node000014"><a xlink:title=" ">
<path fill="none" stroke="#63b8ff" d="M578.17,-297.91C627.47,-288.35 696.15,-274.96 766.07,-261.07"/>
<polygon fill="#63b8ff" stroke="#63b8ff" points="766.82,-264.49 775.95,-259.11 765.45,-257.63 766.82,-264.49"/>
</a>
</g>
</g>
<!-- Node21 -->
<g id="Node000021" class="node">
<title>Node21</title>
<g id="a_Node000021"><a xlink:href="Archivist_8hpp.html" target="_top" xlink:title=" ">
<polygon fill="white" stroke="#666666" points="594.5,-261 426.5,-261 426.5,-242 594.5,-242 594.5,-261"/>
<text text-anchor="middle" x="510.5" y="-249" font-family="Helvetica,sans-Serif" font-size="10.00">MayaFlux/Journal/Archivist.hpp</text>
</a>
</g>
</g>
<!-- Node20&#45;&gt;Node21 -->
<g id="edge22_Node000020_Node000021" class="edge">
<title>Node20&#45;&gt;Node21</title>
<g id="a_edge22_Node000020_Node000021"><a xlink:title=" ">
<path fill="none" stroke="#63b8ff" d="M510.5,-296.84C510.5,-289.21 510.5,-279.7 510.5,-271.45"/>
<polygon fill="#63b8ff" stroke="#63b8ff" points="514,-271.27 510.5,-261.27 507,-271.27 514,-271.27"/>
</a>
</g>
</g>
<!-- Node28 -->
<g id="Node000028" class="node">
<title>Node28</title>
<g id="a_Node000028"><a xlink:title=" ">
<polygon fill="#e0e0e0" stroke="#999999" points="355,-261 238,-261 238,-242 355,-242 355,-261"/>
<text text-anchor="middle" x="296.5" y="-249" font-family="Helvetica,sans-Serif" font-size="10.00">glm/gtc/type_ptr.hpp</text>
</a>
</g>
</g>
<!-- Node20&#45;&gt;Node28 -->
<g id="edge29_Node000020_Node000028" class="edge">
<title>Node20&#45;&gt;Node28</title>
<g id="a_edge29_Node000020_Node000028"><a xlink:title=" ">
<path fill="none" stroke="#63b8ff" d="M459.24,-296.99C421.99,-286.8 372.23,-273.2 337.58,-263.73"/>
<polygon fill="#63b8ff" stroke="#63b8ff" points="338.36,-260.31 327.79,-261.05 336.51,-267.07 338.36,-260.31"/>
</a>
</g>
</g>
<!-- Node22 -->
<g id="Node000022" class="node">
<title>Node22</title>
<g id="a_Node000022"><a xlink:href="Format_8hpp.html" target="_top" xlink:title=" ">
<polygon fill="white" stroke="#666666" points="485.5,-200.5 413.5,-200.5 413.5,-181.5 485.5,-181.5 485.5,-200.5"/>
<text text-anchor="middle" x="449.5" y="-188.5" font-family="Helvetica,sans-Serif" font-size="10.00">Format.hpp</text>
</a>
</g>
</g>
<!-- Node21&#45;&gt;Node22 -->
<g id="edge23_Node000021_Node000022" class="edge">
<title>Node21&#45;&gt;Node22</title>
<g id="a_edge23_Node000021_Node000022"><a xlink:title=" ">
<path fill="none" stroke="#63b8ff" d="M501.5,-241.87C492.13,-232.88 477.25,-218.61 465.8,-207.64"/>
<polygon fill="#63b8ff" stroke="#63b8ff" points="468.18,-205.06 458.54,-200.67 463.33,-210.12 468.18,-205.06"/>
</a>
</g>
</g>
<!-- Node23 -->
<g id="Node000023" class="node">
<title>Node23</title>
<g id="a_Node000023"><a xlink:href="JournalEntry_8hpp.html" target="_top" xlink:title=" ">
<polygon fill="white" stroke="#666666" points="599,-200.5 504,-200.5 504,-181.5 599,-181.5 599,-200.5"/>
<text text-anchor="middle" x="551.5" y="-188.5" font-family="Helvetica,sans-Serif" font-size="10.00">JournalEntry.hpp</text>
</a>
</g>
</g>
<!-- Node21&#45;&gt;Node23 -->
<g id="edge24_Node000021_Node000023" class="edge">
<title>Node21&#45;&gt;Node23</title>
<g id="a_edge24_Node000021_Node000023"><a xlink:title=" ">
<path fill="none" stroke="#63b8ff" d="M516.55,-241.87C522.61,-233.23 532.09,-219.7 539.64,-208.92"/>
<polygon fill="#63b8ff" stroke="#63b8ff" points="542.55,-210.87 545.43,-200.67 536.82,-206.85 542.55,-210.87"/>
</a>
</g>
</g>
<!-- Node24 -->
<g id="Node000024" class="node">
<title>Node24</title>
<g id="a_Node000024"><a xlink:href="EnumReflect_8hpp.html" target="_top" xlink:title=" ">
<polygon fill="white" stroke="#666666" points="747,-140 608,-140 608,-110 747,-110 747,-140"/>
<text text-anchor="start" x="616" y="-128" font-family="Helvetica,sans-Serif" font-size="10.00">MayaFlux/Transitive</text>
<text text-anchor="middle" x="677.5" y="-117" font-family="Helvetica,sans-Serif" font-size="10.00">/Reflect/EnumReflect.hpp</text>
</a>
</g>
</g>
<!-- Node23&#45;&gt;Node24 -->
<g id="edge25_Node000023_Node000024" class="edge">
<title>Node23&#45;&gt;Node24</title>
<g id="a_edge25_Node000023_Node000024"><a xlink:title=" ">
<path fill="none" stroke="#63b8ff" d="M568.49,-181.37C586.88,-172.03 616.75,-156.86 640.58,-144.75"/>
<polygon fill="#63b8ff" stroke="#63b8ff" points="642.38,-147.76 649.71,-140.12 639.21,-141.52 642.38,-147.76"/>
</a>
</g>
</g>
<!-- Node25 -->
<g id="Node000025" class="node">
<title>Node25</title>
<g id="a_Node000025"><a xlink:title=" ">
<polygon fill="#e0e0e0" stroke="#999999" points="815.5,-134.5 765.5,-134.5 765.5,-115.5 815.5,-115.5 815.5,-134.5"/>
<text text-anchor="middle" x="790.5" y="-122.5" font-family="Helvetica,sans-Serif" font-size="10.00">chrono</text>
</a>
</g>
</g>
<!-- Node23&#45;&gt;Node25 -->
<g id="edge26_Node000023_Node000025" class="edge">
<title>Node23&#45;&gt;Node25</title>
<g id="a_edge26_Node000023_Node000025"><a xlink:title=" ">
<path fill="none" stroke="#63b8ff" d="M586.16,-181.48C593.54,-179.67 601.28,-177.77 608.5,-176 673.83,-159.98 691.45,-160.54 755.5,-140 757.17,-139.46 758.88,-138.89 760.59,-138.28"/>
<polygon fill="#63b8ff" stroke="#63b8ff" points="762.19,-141.42 770.32,-134.63 759.73,-134.87 762.19,-141.42"/>
</a>
</g>
</g>
<!-- Node26 -->
<g id="Node000026" class="node">
<title>Node26</title>
<g id="a_Node000026"><a xlink:title=" ">
<polygon fill="#e0e0e0" stroke="#999999" points="499,-134.5 406,-134.5 406,-115.5 499,-115.5 499,-134.5"/>
<text text-anchor="middle" x="452.5" y="-122.5" font-family="Helvetica,sans-Serif" font-size="10.00">source_location</text>
</a>
</g>
</g>
<!-- Node23&#45;&gt;Node26 -->
<g id="edge27_Node000023_Node000026" class="edge">
<title>Node23&#45;&gt;Node26</title>
<g id="a_edge27_Node000023_Node000026"><a xlink:title=" ">
<path fill="none" stroke="#63b8ff" d="M538.15,-181.37C521.84,-170.82 494.01,-152.84 474.51,-140.23"/>
<polygon fill="#63b8ff" stroke="#63b8ff" points="476.25,-137.19 465.96,-134.7 472.45,-143.07 476.25,-137.19"/>
</a>
</g>
</g>
<!-- Node27 -->
<g id="Node000027" class="node">
<title>Node27</title>
<g id="a_Node000027"><a xlink:title=" ">
<polygon fill="#e0e0e0" stroke="#999999" points="590,-134.5 517,-134.5 517,-115.5 590,-115.5 590,-134.5"/>
<text text-anchor="middle" x="553.5" y="-122.5" font-family="Helvetica,sans-Serif" font-size="10.00">string_view</text>
</a>
</g>
</g>
<!-- Node23&#45;&gt;Node27 -->
<g id="edge28_Node000023_Node000027" class="edge">
<title>Node23&#45;&gt;Node27</title>
<g id="a_edge28_Node000023_Node000027"><a xlink:title=" ">
<path fill="none" stroke="#63b8ff" d="M551.77,-181.37C552.06,-172.16 552.52,-157.29 552.9,-145.27"/>
<polygon fill="#63b8ff" stroke="#63b8ff" points="556.41,-145.01 553.22,-134.91 549.41,-144.79 556.41,-145.01"/>
</a>
</g>
</g>
<!-- Node30 -->
<g id="Node000030" class="node">
<title>Node30</title>
<g id="a_Node000030"><a xlink:href="DataSpec_8hpp.html" target="_top" xlink:title=" ">
<polygon fill="white" stroke="#666666" points="757.5,-261 673.5,-261 673.5,-242 757.5,-242 757.5,-261"/>
<text text-anchor="middle" x="715.5" y="-249" font-family="Helvetica,sans-Serif" font-size="10.00">DataSpec.hpp</text>
</a>
</g>
</g>
<!-- Node29&#45;&gt;Node30 -->
<g id="edge32_Node000029_Node000030" class="edge">
<title>Node29&#45;&gt;Node30</title>
<g id="a_edge32_Node000029_Node000030"><a xlink:title=" ">
<path fill="none" stroke="#63b8ff" d="M676.29,-302.37C683.15,-293.64 693.93,-279.93 702.45,-269.09"/>
<polygon fill="#63b8ff" stroke="#63b8ff" points="705.25,-271.19 708.68,-261.17 699.75,-266.86 705.25,-271.19"/>
</a>
</g>
</g>
<!-- Node30&#45;&gt;Node17 -->
<g id="edge39_Node000030_Node000017" class="edge">
<title>Node30&#45;&gt;Node17</title>
<g id="a_edge39_Node000030_Node000017"><a xlink:title=" ">
<path fill="none" stroke="#63b8ff" d="M757.51,-243.41C760.55,-242.92 763.57,-242.45 766.5,-242 877.82,-224.96 908.23,-222.4 1023.54,-206.13"/>
<polygon fill="#63b8ff" stroke="#63b8ff" points="1024.06,-209.59 1033.47,-204.72 1023.08,-202.66 1024.06,-209.59"/>
</a>
</g>
</g>
<!-- Node31 -->
<g id="Node000031" class="node">
<title>Node31</title>
<g id="a_Node000031"><a xlink:title=" ">
<polygon fill="#e0e0e0" stroke="#999999" points="1015,-200.5 946,-200.5 946,-181.5 1015,-181.5 1015,-200.5"/>
<text text-anchor="middle" x="980.5" y="-188.5" font-family="Helvetica,sans-Serif" font-size="10.00">Eigen/Core</text>
</a>
</g>
</g>
<!-- Node30&#45;&gt;Node31 -->
<g id="edge33_Node000030_Node000031" class="edge">
<title>Node30&#45;&gt;Node31</title>
<g id="a_edge33_Node000030_Node000031"><a xlink:title=" ">
<path fill="none" stroke="#63b8ff" d="M757.77,-243.41C802.48,-235.58 874.93,-221.94 936.5,-206 939.34,-205.27 942.26,-204.45 945.19,-203.61"/>
<polygon fill="#63b8ff" stroke="#63b8ff" points="946.49,-206.87 955.04,-200.62 944.46,-200.17 946.49,-206.87"/>
</a>
</g>
</g>
<!-- Node32 -->
<g id="Node000032" class="node">
<title>Node32</title>
<g id="a_Node000032"><a xlink:href="RegionGroup_8hpp.html" target="_top" xlink:title=" ">
<polygon fill="white" stroke="#666666" points="763.5,-206 617.5,-206 617.5,-176 763.5,-176 763.5,-206"/>
<text text-anchor="start" x="625.5" y="-194" font-family="Helvetica,sans-Serif" font-size="10.00">MayaFlux/Kakshya/Region</text>
<text text-anchor="middle" x="690.5" y="-183" font-family="Helvetica,sans-Serif" font-size="10.00">/RegionGroup.hpp</text>
</a>
</g>
</g>
<!-- Node30&#45;&gt;Node32 -->
<g id="edge34_Node000030_Node000032" class="edge">
<title>Node30&#45;&gt;Node32</title>
<g id="a_edge34_Node000030_Node000032"><a xlink:title=" ">
<path fill="none" stroke="#63b8ff" d="M711.81,-241.87C708.83,-234.89 704.48,-224.71 700.49,-215.38"/>
<polygon fill="#63b8ff" stroke="#63b8ff" points="703.68,-213.93 696.53,-206.11 697.24,-216.69 703.68,-213.93"/>
</a>
</g>
</g>
<!-- Node34 -->
<g id="Node000034" class="node">
<title>Node34</title>
<g id="a_Node000034"><a xlink:href="RegionSegment_8hpp.html" target="_top" xlink:title=" ">
<polygon fill="white" stroke="#666666" points="927.5,-206 781.5,-206 781.5,-176 927.5,-176 927.5,-206"/>
<text text-anchor="start" x="789.5" y="-194" font-family="Helvetica,sans-Serif" font-size="10.00">MayaFlux/Kakshya/Region</text>
<text text-anchor="middle" x="854.5" y="-183" font-family="Helvetica,sans-Serif" font-size="10.00">/RegionSegment.hpp</text>
</a>
</g>
</g>
<!-- Node30&#45;&gt;Node34 -->
<g id="edge37_Node000030_Node000034" class="edge">
<title>Node30&#45;&gt;Node34</title>
<g id="a_edge37_Node000030_Node000034"><a xlink:title=" ">
<path fill="none" stroke="#63b8ff" d="M735.71,-241.99C755.54,-233.65 786.4,-220.66 811.69,-210.02"/>
<polygon fill="#63b8ff" stroke="#63b8ff" points="813.22,-213.17 821.08,-206.06 810.51,-206.72 813.22,-213.17"/>
</a>
</g>
</g>
<!-- Node33 -->
<g id="Node000033" class="node">
<title>Node33</title>
<g id="a_Node000033"><a xlink:href="Region_8hpp.html" target="_top" xlink:title=" ">
<polygon fill="white" stroke="#666666" points="905,-134.5 834,-134.5 834,-115.5 905,-115.5 905,-134.5"/>
<text text-anchor="middle" x="869.5" y="-122.5" font-family="Helvetica,sans-Serif" font-size="10.00">Region.hpp</text>
</a>
</g>
</g>
<!-- Node32&#45;&gt;Node33 -->
<g id="edge35_Node000032_Node000033" class="edge">
<title>Node32&#45;&gt;Node33</title>
<g id="a_edge35_Node000032_Node000033"><a xlink:title=" ">
<path fill="none" stroke="#63b8ff" d="M729.78,-175.95C761.59,-164.58 805.91,-148.74 836.04,-137.96"/>
<polygon fill="#63b8ff" stroke="#63b8ff" points="837.44,-141.18 845.68,-134.52 835.08,-134.59 837.44,-141.18"/>
</a>
</g>
</g>
<!-- Node33&#45;&gt;Node11 -->
<g id="edge36_Node000033_Node000011" class="edge">
<title>Node33&#45;&gt;Node11</title>
<g id="a_edge36_Node000033_Node000011"><a xlink:title=" ">
<path fill="none" stroke="#63b8ff" d="M843.43,-115.48C837.25,-113.58 830.67,-111.64 824.5,-110 772.6,-96.21 712.37,-83.27 671.48,-74.94"/>
<polygon fill="#63b8ff" stroke="#63b8ff" points="672.01,-71.48 661.52,-72.93 670.62,-78.34 672.01,-71.48"/>
</a>
</g>
</g>
<!-- Node34&#45;&gt;Node33 -->
<g id="edge38_Node000034_Node000033" class="edge">
<title>Node34&#45;&gt;Node33</title>
<g id="a_edge38_Node000034_Node000033"><a xlink:title=" ">
<path fill="none" stroke="#63b8ff" d="M857.83,-175.8C859.96,-166.7 862.75,-154.79 865.07,-144.9"/>
<polygon fill="#63b8ff" stroke="#63b8ff" points="868.55,-145.38 867.43,-134.84 861.74,-143.78 868.55,-145.38"/>
</a>
</g>
</g>
<!-- Node36 -->
<g id="Node000036" class="node">
<title>Node36</title>
<g id="a_Node000036"><a xlink:href="ComputeOperation_8hpp.html" target="_top" xlink:title=" ">
<polygon fill="white" stroke="#666666" points="932.5,-635 718.5,-635 718.5,-616 932.5,-616 932.5,-635"/>
<text text-anchor="middle" x="825.5" y="-623" font-family="Helvetica,sans-Serif" font-size="10.00">MayaFlux/Yantra/ComputeOperation.hpp</text>
</a>
</g>
</g>
<!-- Node35&#45;&gt;Node36 -->
<g id="edge43_Node000035_Node000036" class="edge">
<title>Node35&#45;&gt;Node36</title>
<g id="a_edge43_Node000035_Node000036"><a xlink:title=" ">
<path fill="none" stroke="#63b8ff" d="M807.13,-670.75C810.08,-663.65 814.33,-653.4 818.01,-644.56"/>
<polygon fill="#63b8ff" stroke="#63b8ff" points="821.33,-645.67 821.93,-635.09 814.87,-642.98 821.33,-645.67"/>
</a>
</g>
</g>
<!-- Node36&#45;&gt;Node2 -->
<g id="edge44_Node000036_Node000002" class="edge">
<title>Node36&#45;&gt;Node2</title>
<g id="a_edge44_Node000036_Node000002"><a xlink:title=" ">
<path fill="none" stroke="#63b8ff" d="M807.32,-615.99C789.79,-607.79 762.66,-595.09 740.13,-584.55"/>
<polygon fill="#63b8ff" stroke="#63b8ff" points="741.33,-581.25 730.79,-580.18 738.37,-587.59 741.33,-581.25"/>
</a>
</g>
</g>
<!-- Node37 -->
<g id="Node000037" class="node">
<title>Node37</title>
<g id="a_Node000037"><a xlink:title=" ">
<polygon fill="#e0e0e0" stroke="#999999" points="848.5,-574.5 802.5,-574.5 802.5,-555.5 848.5,-555.5 848.5,-574.5"/>
<text text-anchor="middle" x="825.5" y="-562.5" font-family="Helvetica,sans-Serif" font-size="10.00">future</text>
</a>
</g>
</g>
<!-- Node36&#45;&gt;Node37 -->
<g id="edge45_Node000036_Node000037" class="edge">
<title>Node36&#45;&gt;Node37</title>
<g id="a_edge45_Node000036_Node000037"><a xlink:title=" ">
<path fill="none" stroke="#63b8ff" d="M825.5,-615.87C825.5,-607.75 825.5,-595.31 825.5,-584.89"/>
<polygon fill="#63b8ff" stroke="#63b8ff" points="829,-584.67 825.5,-574.67 822,-584.67 829,-584.67"/>
</a>
</g>
</g>
</g>
</svg>

<g id="navigator" transform="translate(0 0)" fill="#404254">
  <rect fill="#f2f5e9" fill-opacity="0.5" stroke="#606060" stroke-width=".5" x="0" y="0" width="60" height="60"/>
  <use id="zoomplus" xlink:href="#zoomPlus" x="17" y="9" onmousedown="handleZoom(evt,'in')"/>
  <use id="zoomminus" xlink:href="#zoomMin" x="42" y="9" onmousedown="handleZoom(evt,'out')"/>
  <use id="reset" xlink:href="#resetDef" x="30" y="36" onmousedown="handleReset()"/>
   <use id="arrowup" xlink:href="#arrowUp" x="0" y="0" onmousedown="handlePan(0,-1)"/>
  <use id="arrowright" xlink:href="#arrowRight" x="0" y="0" onmousedown="handlePan(1,0)"/>
  <use id="arrowdown" xlink:href="#arrowDown" x="0" y="0" onmousedown="handlePan(0,1)"/>
  <use id="arrowleft" xlink:href="#arrowLeft" x="0" y="0" onmousedown="handlePan(-1,0)"/>
</g>
<svg viewBox="0 0 15 15" width="100%" height="30px" preserveAspectRatio="xMaxYMin meet">
 <g id="arrow_out" transform="scale(0.3 0.3)">
  <a xlink:href="GpuExtractor_8hpp__incl_org.svg" target="_base">
   <rect id="button" ry="5" rx="5" y="6" x="6" height="38" width="38"
        fill="#f2f5e9" fill-opacity="0.5" stroke="#606060" stroke-width="1.0"/>
   <path id="arrow"
     d="M 11.500037,31.436501 C 11.940474,20.09759 22.043105,11.32322 32.158766,21.979434 L 37.068811,17.246167 C 37.068811,17.246167 37.088388,32 37.088388,32 L 22.160133,31.978069 C 22.160133,31.978069 26.997745,27.140456 26.997745,27.140456 C 18.528582,18.264221 13.291696,25.230495 11.500037,31.436501 z"
     style="fill:#404040;"/>
  </a>
 </g>
</svg>

<style type='text/css'>
<![CDATA[
[data-mouse-over-selected='false'] { opacity: 0.7; }
[data-mouse-over-selected='true']  { opacity: 1.0; }
]]>
</style>
<script type="application/ecmascript"><![CDATA[
document.addEventListener('DOMContentLoaded', (event) => {
  highlightEdges();
  highlightAdjacentNodes();
});
]]></script>
</svg>
