<?xml version="1.0" encoding="UTF-8" standalone="no"?>
<!DOCTYPE svg PUBLIC "-//W3C//DTD SVG 1.1//EN"
 "http://www.w3.org/Graphics/SVG/1.1/DTD/svg11.dtd">
<!-- Generated by graphviz version 2.43.0 (0)
 -->
<!-- Title: GpuSorter.hpp Pages: 1 -->
<svg width="1298pt" height="753pt"
 viewBox="0.00 0.00 1297.50 753.00" xmlns="http://www.w3.org/2000/svg" xmlns:xlink="http://www.w3.org/1999/xlink">
<g id="graph0" class="graph" transform="scale(1 1) rotate(0) translate(4 749)">
<title>GpuSorter.hpp</title>
<!-- Node1 -->
<g id="Node000001" class="node">
<title>Node1</title>
<g id="a_Node000001"><a xlink:title=" ">
<polygon fill="#999999" stroke="#666666" points="731,-745 645,-745 645,-726 731,-726 731,-745"/>
<text text-anchor="middle" x="688" y="-733" font-family="Helvetica,sans-Serif" font-size="10.00">GpuSorter.hpp</text>
</a>
</g>
</g>
<!-- Node2 -->
<g id="Node000002" class="node">
<title>Node2</title>
<g id="a_Node000002"><a xlink:href="GpuExecutionContext_8hpp.html" target="_top" xlink:title=" ">
<polygon fill="white" stroke="#666666" points="860,-580 712,-580 712,-550 860,-550 860,-580"/>
<text text-anchor="start" x="720" y="-568" font-family="Helvetica,sans-Serif" font-size="10.00">MayaFlux/Yantra/Executors</text>
<text text-anchor="middle" x="786" y="-557" font-family="Helvetica,sans-Serif" font-size="10.00">/GpuExecutionContext.hpp</text>
</a>
</g>
</g>
<!-- Node1&#45;&gt;Node2 -->
<g id="edge1_Node000001_Node000002" class="edge">
<title>Node1&#45;&gt;Node2</title>
<g id="a_edge1_Node000001_Node000002"><a xlink:title=" ">
<path fill="none" stroke="#63b8ff" d="M686.71,-725.9C684.06,-705.12 680.03,-651.28 703,-616 711.66,-602.7 725.21,-592.41 738.87,-584.73"/>
<polygon fill="#63b8ff" stroke="#63b8ff" points="740.57,-587.78 747.81,-580.04 737.33,-581.58 740.57,-587.78"/>
</a>
</g>
</g>
<!-- Node35 -->
<g id="Node000035" class="node">
<title>Node35</title>
<g id="a_Node000035"><a xlink:href="UniversalSorter_8hpp.html" target="_top" xlink:title="Modern, digital&#45;first universal sorting framework for Maya Flux.">
<polygon fill="white" stroke="#666666" points="831.5,-690 718.5,-690 718.5,-671 831.5,-671 831.5,-690"/>
<text text-anchor="middle" x="775" y="-678" font-family="Helvetica,sans-Serif" font-size="10.00">UniversalSorter.hpp</text>
</a>
</g>
</g>
<!-- Node1&#45;&gt;Node35 -->
<g id="edge43_Node000001_Node000035" class="edge">
<title>Node1&#45;&gt;Node35</title>
<g id="a_edge43_Node000001_Node000035"><a xlink:title=" ">
<path fill="none" stroke="#63b8ff" d="M701.98,-725.98C715.47,-717.77 736.13,-705.18 752.04,-695.49"/>
<polygon fill="#63b8ff" stroke="#63b8ff" points="754.05,-698.36 760.77,-690.17 750.41,-692.38 754.05,-698.36"/>
</a>
</g>
</g>
<!-- Node3 -->
<g id="Node000003" class="node">
<title>Node3</title>
<g id="a_Node000003"><a xlink:href="GpuDispatchCore_8hpp.html" target="_top" xlink:title=" ">
<polygon fill="white" stroke="#666666" points="847,-514 725,-514 725,-495 847,-495 847,-514"/>
<text text-anchor="middle" x="786" y="-502" font-family="Helvetica,sans-Serif" font-size="10.00">GpuDispatchCore.hpp</text>
</a>
</g>
</g>
<!-- Node2&#45;&gt;Node3 -->
<g id="edge2_Node000002_Node000003" class="edge">
<title>Node2&#45;&gt;Node3</title>
<g id="a_edge2_Node000002_Node000003"><a xlink:title=" ">
<path fill="none" stroke="#63b8ff" d="M786,-549.84C786,-542.21 786,-532.7 786,-524.45"/>
<polygon fill="#63b8ff" stroke="#63b8ff" points="789.5,-524.27 786,-514.27 782.5,-524.27 789.5,-524.27"/>
</a>
</g>
</g>
<!-- Node4 -->
<g id="Node000004" class="node">
<title>Node4</title>
<g id="a_Node000004"><a xlink:href="GpuResourceManager_8hpp.html" target="_top" xlink:title=" ">
<polygon fill="white" stroke="#666666" points="973,-453.5 829,-453.5 829,-434.5 973,-434.5 973,-453.5"/>
<text text-anchor="middle" x="901" y="-441.5" font-family="Helvetica,sans-Serif" font-size="10.00">GpuResourceManager.hpp</text>
</a>
</g>
</g>
<!-- Node3&#45;&gt;Node4 -->
<g id="edge3_Node000003_Node000004" class="edge">
<title>Node3&#45;&gt;Node4</title>
<g id="a_edge3_Node000003_Node000004"><a xlink:title=" ">
<path fill="none" stroke="#63b8ff" d="M802.97,-494.87C821.91,-485.23 852.79,-469.53 874.83,-458.31"/>
<polygon fill="#63b8ff" stroke="#63b8ff" points="876.64,-461.32 883.96,-453.67 873.46,-455.08 876.64,-461.32"/>
</a>
</g>
</g>
<!-- Node13 -->
<g id="Node000013" class="node">
<title>Node13</title>
<g id="a_Node000013"><a xlink:href="ExecutionContext_8hpp.html" target="_top" xlink:title=" ">
<polygon fill="white" stroke="#666666" points="860.5,-327 711.5,-327 711.5,-297 860.5,-297 860.5,-327"/>
<text text-anchor="start" x="719.5" y="-315" font-family="Helvetica,sans-Serif" font-size="10.00">MayaFlux/Yantra/Operation</text>
<text text-anchor="middle" x="786" y="-304" font-family="Helvetica,sans-Serif" font-size="10.00">Spec/ExecutionContext.hpp</text>
</a>
</g>
</g>
<!-- Node3&#45;&gt;Node13 -->
<g id="edge12_Node000003_Node000013" class="edge">
<title>Node3&#45;&gt;Node13</title>
<g id="a_edge12_Node000003_Node000013"><a xlink:title=" ">
<path fill="none" stroke="#63b8ff" d="M786,-494.82C786,-467.1 786,-380.02 786,-337.22"/>
<polygon fill="#63b8ff" stroke="#63b8ff" points="789.5,-337.12 786,-327.12 782.5,-337.12 789.5,-337.12"/>
</a>
</g>
</g>
<!-- Node22 -->
<g id="Node000022" class="node">
<title>Node22</title>
<g id="a_Node000022"><a xlink:href="OperationHelper_8hpp.html" target="_top" xlink:title=" ">
<polygon fill="white" stroke="#666666" points="620.5,-459 471.5,-459 471.5,-429 620.5,-429 620.5,-459"/>
<text text-anchor="start" x="479.5" y="-447" font-family="Helvetica,sans-Serif" font-size="10.00">MayaFlux/Yantra/Operation</text>
<text text-anchor="middle" x="546" y="-436" font-family="Helvetica,sans-Serif" font-size="10.00">Spec/OperationHelper.hpp</text>
</a>
</g>
</g>
<!-- Node3&#45;&gt;Node22 -->
<g id="edge21_Node000003_Node000022" class="edge">
<title>Node3&#45;&gt;Node22</title>
<g id="a_edge21_Node000003_Node000022"><a xlink:title=" ">
<path fill="none" stroke="#63b8ff" d="M751.1,-494.99C715.2,-486.24 658.37,-472.39 613.63,-461.48"/>
<polygon fill="#63b8ff" stroke="#63b8ff" points="614.24,-458.03 603.7,-459.06 612.59,-464.83 614.24,-458.03"/>
</a>
</g>
</g>
<!-- Node5 -->
<g id="Node000005" class="node">
<title>Node5</title>
<g id="a_Node000005"><a xlink:href="ComputePress_8hpp.html" target="_top" xlink:title=" ">
<polygon fill="white" stroke="#666666" points="980,-393 838,-393 838,-363 980,-363 980,-393"/>
<text text-anchor="start" x="846" y="-381" font-family="Helvetica,sans-Serif" font-size="10.00">MayaFlux/Portal/Graphics</text>
<text text-anchor="middle" x="909" y="-370" font-family="Helvetica,sans-Serif" font-size="10.00">/ComputePress.hpp</text>
</a>
</g>
</g>
<!-- Node4&#45;&gt;Node5 -->
<g id="edge4_Node000004_Node000005" class="edge">
<title>Node4&#45;&gt;Node5</title>
<g id="a_edge4_Node000004_Node000005"><a xlink:title=" ">
<path fill="none" stroke="#63b8ff" d="M902.08,-434.37C903.06,-426.49 904.57,-414.45 905.92,-403.6"/>
<polygon fill="#63b8ff" stroke="#63b8ff" points="909.44,-403.72 907.2,-393.36 902.49,-402.85 909.44,-403.72"/>
</a>
</g>
</g>
<!-- Node6 -->
<g id="Node000006" class="node">
<title>Node6</title>
<g id="a_Node000006"><a xlink:href="ShaderFoundry_8hpp.html" target="_top" xlink:title=" ">
<polygon fill="white" stroke="#666666" points="987.5,-321.5 878.5,-321.5 878.5,-302.5 987.5,-302.5 987.5,-321.5"/>
<text text-anchor="middle" x="933" y="-309.5" font-family="Helvetica,sans-Serif" font-size="10.00">ShaderFoundry.hpp</text>
</a>
</g>
</g>
<!-- Node5&#45;&gt;Node6 -->
<g id="edge5_Node000005_Node000006" class="edge">
<title>Node5&#45;&gt;Node6</title>
<g id="a_edge5_Node000005_Node000006"><a xlink:title=" ">
<path fill="none" stroke="#63b8ff" d="M914.33,-362.8C917.81,-353.5 922.4,-341.27 926.15,-331.26"/>
<polygon fill="#63b8ff" stroke="#63b8ff" points="929.45,-332.44 929.68,-321.84 922.89,-329.98 929.45,-332.44"/>
</a>
</g>
</g>
<!-- Node7 -->
<g id="Node000007" class="node">
<title>Node7</title>
<g id="a_Node000007"><a xlink:href="ShaderUtils_8hpp.html" target="_top" xlink:title=" ">
<polygon fill="white" stroke="#666666" points="1205,-261 1111,-261 1111,-242 1205,-242 1205,-261"/>
<text text-anchor="middle" x="1158" y="-249" font-family="Helvetica,sans-Serif" font-size="10.00">ShaderUtils.hpp</text>
</a>
</g>
</g>
<!-- Node6&#45;&gt;Node7 -->
<g id="edge6_Node000006_Node000007" class="edge">
<title>Node6&#45;&gt;Node7</title>
<g id="a_edge6_Node000006_Node000007"><a xlink:title=" ">
<path fill="none" stroke="#63b8ff" d="M965.72,-302.49C1005.29,-292.2 1072.01,-274.86 1115.52,-263.54"/>
<polygon fill="#63b8ff" stroke="#63b8ff" points="1116.45,-266.92 1125.24,-261.02 1114.68,-260.15 1116.45,-266.92"/>
</a>
</g>
</g>
<!-- Node8 -->
<g id="Node000008" class="node">
<title>Node8</title>
<g id="a_Node000008"><a xlink:title=" ">
<polygon fill="#e0e0e0" stroke="#999999" points="1149.5,-200.5 1044.5,-200.5 1044.5,-181.5 1149.5,-181.5 1149.5,-200.5"/>
<text text-anchor="middle" x="1097" y="-188.5" font-family="Helvetica,sans-Serif" font-size="10.00">vulkan/vulkan.hpp</text>
</a>
</g>
</g>
<!-- Node7&#45;&gt;Node8 -->
<g id="edge7_Node000007_Node000008" class="edge">
<title>Node7&#45;&gt;Node8</title>
<g id="a_edge7_Node000007_Node000008"><a xlink:title=" ">
<path fill="none" stroke="#63b8ff" d="M1149,-241.87C1139.63,-232.88 1124.75,-218.61 1113.3,-207.64"/>
<polygon fill="#63b8ff" stroke="#63b8ff" points="1115.68,-205.06 1106.04,-200.67 1110.83,-210.12 1115.68,-205.06"/>
</a>
</g>
</g>
<!-- Node9 -->
<g id="Node000009" class="node">
<title>Node9</title>
<g id="a_Node000009"><a xlink:href="GraphicsUtils_8hpp.html" target="_top" xlink:title=" ">
<polygon fill="white" stroke="#666666" points="1270.5,-200.5 1167.5,-200.5 1167.5,-181.5 1270.5,-181.5 1270.5,-200.5"/>
<text text-anchor="middle" x="1219" y="-188.5" font-family="Helvetica,sans-Serif" font-size="10.00">GraphicsUtils.hpp</text>
</a>
</g>
</g>
<!-- Node7&#45;&gt;Node9 -->
<g id="edge8_Node000007_Node000009" class="edge">
<title>Node7&#45;&gt;Node9</title>
<g id="a_edge8_Node000007_Node000009"><a xlink:title=" ">
<path fill="none" stroke="#63b8ff" d="M1167,-241.87C1176.37,-232.88 1191.25,-218.61 1202.7,-207.64"/>
<polygon fill="#63b8ff" stroke="#63b8ff" points="1205.17,-210.12 1209.96,-200.67 1200.32,-205.06 1205.17,-210.12"/>
</a>
</g>
</g>
<!-- Node10 -->
<g id="Node000010" class="node">
<title>Node10</title>
<g id="a_Node000010"><a xlink:href="VertexLayout_8hpp.html" target="_top" xlink:title=" ">
<polygon fill="white" stroke="#666666" points="1289.5,-140 1138.5,-140 1138.5,-110 1289.5,-110 1289.5,-140"/>
<text text-anchor="start" x="1146.5" y="-128" font-family="Helvetica,sans-Serif" font-size="10.00">MayaFlux/Kakshya/NDData</text>
<text text-anchor="middle" x="1214" y="-117" font-family="Helvetica,sans-Serif" font-size="10.00">/VertexLayout.hpp</text>
</a>
</g>
</g>
<!-- Node7&#45;&gt;Node10 -->
<g id="edge9_Node000007_Node000010" class="edge">
<title>Node7&#45;&gt;Node10</title>
<g id="a_edge9_Node000007_Node000010"><a xlink:title=" ">
<path fill="none" stroke="#63b8ff" d="M1205.05,-246.28C1231.76,-241.2 1263.13,-230.11 1280,-206 1287.64,-195.08 1285.93,-187.94 1280,-176 1273.83,-163.59 1262.95,-153.43 1251.77,-145.59"/>
<polygon fill="#63b8ff" stroke="#63b8ff" points="1253.54,-142.57 1243.25,-140.05 1249.72,-148.44 1253.54,-142.57"/>
</a>
</g>
</g>
<!-- Node11 -->
<g id="Node000011" class="node">
<title>Node11</title>
<g id="a_Node000011"><a xlink:href="NDData_8hpp.html" target="_top" xlink:title=" ">
<polygon fill="white" stroke="#666666" points="516,-74 440,-74 440,-55 516,-55 516,-74"/>
<text text-anchor="middle" x="478" y="-62" font-family="Helvetica,sans-Serif" font-size="10.00">NDData.hpp</text>
</a>
</g>
</g>
<!-- Node10&#45;&gt;Node11 -->
<g id="edge10_Node000010_Node000011" class="edge">
<title>Node10&#45;&gt;Node11</title>
<g id="a_edge10_Node000010_Node000011"><a xlink:title=" ">
<path fill="none" stroke="#63b8ff" d="M1138.17,-116.31C1116.19,-114.17 1092.15,-111.91 1070,-110 868.17,-92.61 627.3,-75.69 526.3,-68.77"/>
<polygon fill="#63b8ff" stroke="#63b8ff" points="526.33,-65.26 516.12,-68.07 525.85,-72.25 526.33,-65.26"/>
</a>
</g>
</g>
<!-- Node12 -->
<g id="Node000012" class="node">
<title>Node12</title>
<g id="a_Node000012"><a xlink:title=" ">
<polygon fill="#e0e0e0" stroke="#999999" points="517,-19 439,-19 439,0 517,0 517,-19"/>
<text text-anchor="middle" x="478" y="-7" font-family="Helvetica,sans-Serif" font-size="10.00">glm/glm.hpp</text>
</a>
</g>
</g>
<!-- Node11&#45;&gt;Node12 -->
<g id="edge11_Node000011_Node000012" class="edge">
<title>Node11&#45;&gt;Node12</title>
<g id="a_edge11_Node000011_Node000012"><a xlink:title=" ">
<path fill="none" stroke="#63b8ff" d="M478,-54.75C478,-47.8 478,-37.85 478,-29.13"/>
<polygon fill="#63b8ff" stroke="#63b8ff" points="481.5,-29.09 478,-19.09 474.5,-29.09 481.5,-29.09"/>
</a>
</g>
</g>
<!-- Node14 -->
<g id="Node000014" class="node">
<title>Node14</title>
<g id="a_Node000014"><a xlink:href="Archivist_8hpp.html" target="_top" xlink:title=" ">
<polygon fill="white" stroke="#666666" points="796,-261 628,-261 628,-242 796,-242 796,-261"/>
<text text-anchor="middle" x="712" y="-249" font-family="Helvetica,sans-Serif" font-size="10.00">MayaFlux/Journal/Archivist.hpp</text>
</a>
</g>
</g>
<!-- Node13&#45;&gt;Node14 -->
<g id="edge13_Node000013_Node000014" class="edge">
<title>Node13&#45;&gt;Node14</title>
<g id="a_edge13_Node000013_Node000014"><a xlink:title=" ">
<path fill="none" stroke="#63b8ff" d="M768.09,-296.84C756.91,-288 742.52,-276.63 731.12,-267.62"/>
<polygon fill="#63b8ff" stroke="#63b8ff" points="733.1,-264.72 723.09,-261.27 728.76,-270.21 733.1,-264.72"/>
</a>
</g>
</g>
<!-- Node21 -->
<g id="Node000021" class="node">
<title>Node21</title>
<g id="a_Node000021"><a xlink:title=" ">
<polygon fill="#e0e0e0" stroke="#999999" points="879.5,-261 814.5,-261 814.5,-242 879.5,-242 879.5,-261"/>
<text text-anchor="middle" x="847" y="-249" font-family="Helvetica,sans-Serif" font-size="10.00">typeindex</text>
</a>
</g>
</g>
<!-- Node13&#45;&gt;Node21 -->
<g id="edge20_Node000013_Node000021" class="edge">
<title>Node13&#45;&gt;Node21</title>
<g id="a_edge20_Node000013_Node000021"><a xlink:title=" ">
<path fill="none" stroke="#63b8ff" d="M800.77,-296.84C809.71,-288.26 821.14,-277.3 830.4,-268.42"/>
<polygon fill="#63b8ff" stroke="#63b8ff" points="833.06,-270.71 837.86,-261.27 828.22,-265.66 833.06,-270.71"/>
</a>
</g>
</g>
<!-- Node15 -->
<g id="Node000015" class="node">
<title>Node15</title>
<g id="a_Node000015"><a xlink:href="Format_8hpp.html" target="_top" xlink:title=" ">
<polygon fill="white" stroke="#666666" points="865,-200.5 793,-200.5 793,-181.5 865,-181.5 865,-200.5"/>
<text text-anchor="middle" x="829" y="-188.5" font-family="Helvetica,sans-Serif" font-size="10.00">Format.hpp</text>
</a>
</g>
</g>
<!-- Node14&#45;&gt;Node15 -->
<g id="edge14_Node000014_Node000015" class="edge">
<title>Node14&#45;&gt;Node15</title>
<g id="a_edge14_Node000014_Node000015"><a xlink:title=" ">
<path fill="none" stroke="#63b8ff" d="M729.01,-241.99C748.42,-232.29 780.39,-216.31 802.94,-205.03"/>
<polygon fill="#63b8ff" stroke="#63b8ff" points="804.59,-208.12 811.97,-200.52 801.46,-201.86 804.59,-208.12"/>
</a>
</g>
</g>
<!-- Node16 -->
<g id="Node000016" class="node">
<title>Node16</title>
<g id="a_Node000016"><a xlink:href="JournalEntry_8hpp.html" target="_top" xlink:title=" ">
<polygon fill="white" stroke="#666666" points="774.5,-200.5 679.5,-200.5 679.5,-181.5 774.5,-181.5 774.5,-200.5"/>
<text text-anchor="middle" x="727" y="-188.5" font-family="Helvetica,sans-Serif" font-size="10.00">JournalEntry.hpp</text>
</a>
</g>
</g>
<!-- Node14&#45;&gt;Node16 -->
<g id="edge15_Node000014_Node000016" class="edge">
<title>Node14&#45;&gt;Node16</title>
<g id="a_edge15_Node000014_Node000016"><a xlink:title=" ">
<path fill="none" stroke="#63b8ff" d="M714.21,-241.87C716.32,-233.66 719.55,-221.04 722.24,-210.55"/>
<polygon fill="#63b8ff" stroke="#63b8ff" points="725.68,-211.22 724.78,-200.67 718.9,-209.48 725.68,-211.22"/>
</a>
</g>
</g>
<!-- Node17 -->
<g id="Node000017" class="node">
<title>Node17</title>
<g id="a_Node000017"><a xlink:href="EnumReflect_8hpp.html" target="_top" xlink:title=" ">
<polygon fill="white" stroke="#666666" points="1060.5,-140 921.5,-140 921.5,-110 1060.5,-110 1060.5,-140"/>
<text text-anchor="start" x="929.5" y="-128" font-family="Helvetica,sans-Serif" font-size="10.00">MayaFlux/Transitive</text>
<text text-anchor="middle" x="991" y="-117" font-family="Helvetica,sans-Serif" font-size="10.00">/Reflect/EnumReflect.hpp</text>
</a>
</g>
</g>
<!-- Node16&#45;&gt;Node17 -->
<g id="edge16_Node000016_Node000017" class="edge">
<title>Node16&#45;&gt;Node17</title>
<g id="a_edge16_Node000016_Node000017"><a xlink:title=" ">
<path fill="none" stroke="#63b8ff" d="M761.66,-181.46C769.03,-179.66 776.77,-177.76 784,-176 830.29,-164.72 882.44,-152.13 922.81,-142.4"/>
<polygon fill="#63b8ff" stroke="#63b8ff" points="923.64,-145.8 932.54,-140.06 922,-139 923.64,-145.8"/>
</a>
</g>
</g>
<!-- Node18 -->
<g id="Node000018" class="node">
<title>Node18</title>
<g id="a_Node000018"><a xlink:title=" ">
<polygon fill="#e0e0e0" stroke="#999999" points="676,-134.5 626,-134.5 626,-115.5 676,-115.5 676,-134.5"/>
<text text-anchor="middle" x="651" y="-122.5" font-family="Helvetica,sans-Serif" font-size="10.00">chrono</text>
</a>
</g>
</g>
<!-- Node16&#45;&gt;Node18 -->
<g id="edge17_Node000016_Node000018" class="edge">
<title>Node16&#45;&gt;Node18</title>
<g id="a_edge17_Node000016_Node000018"><a xlink:title=" ">
<path fill="none" stroke="#63b8ff" d="M716.75,-181.37C704.69,-171.21 684.44,-154.16 669.59,-141.65"/>
<polygon fill="#63b8ff" stroke="#63b8ff" points="671.48,-138.67 661.57,-134.91 666.97,-144.02 671.48,-138.67"/>
</a>
</g>
</g>
<!-- Node19 -->
<g id="Node000019" class="node">
<title>Node19</title>
<g id="a_Node000019"><a xlink:title=" ">
<polygon fill="#e0e0e0" stroke="#999999" points="787.5,-134.5 694.5,-134.5 694.5,-115.5 787.5,-115.5 787.5,-134.5"/>
<text text-anchor="middle" x="741" y="-122.5" font-family="Helvetica,sans-Serif" font-size="10.00">source_location</text>
</a>
</g>
</g>
<!-- Node16&#45;&gt;Node19 -->
<g id="edge18_Node000016_Node000019" class="edge">
<title>Node16&#45;&gt;Node19</title>
<g id="a_edge18_Node000016_Node000019"><a xlink:title=" ">
<path fill="none" stroke="#63b8ff" d="M728.89,-181.37C730.92,-172.07 734.22,-156.98 736.87,-144.9"/>
<polygon fill="#63b8ff" stroke="#63b8ff" points="740.33,-145.42 739.05,-134.91 733.5,-143.93 740.33,-145.42"/>
</a>
</g>
</g>
<!-- Node20 -->
<g id="Node000020" class="node">
<title>Node20</title>
<g id="a_Node000020"><a xlink:title=" ">
<polygon fill="#e0e0e0" stroke="#999999" points="878.5,-134.5 805.5,-134.5 805.5,-115.5 878.5,-115.5 878.5,-134.5"/>
<text text-anchor="middle" x="842" y="-122.5" font-family="Helvetica,sans-Serif" font-size="10.00">string_view</text>
</a>
</g>
</g>
<!-- Node16&#45;&gt;Node20 -->
<g id="edge19_Node000016_Node000020" class="edge">
<title>Node16&#45;&gt;Node20</title>
<g id="a_edge19_Node000016_Node000020"><a xlink:title=" ">
<path fill="none" stroke="#63b8ff" d="M742.51,-181.37C761.71,-170.68 794.66,-152.35 817.35,-139.72"/>
<polygon fill="#63b8ff" stroke="#63b8ff" points="819.33,-142.62 826.37,-134.7 815.93,-136.5 819.33,-142.62"/>
</a>
</g>
</g>
<!-- Node22&#45;&gt;Node21 -->
<g id="edge42_Node000022_Node000021" class="edge">
<title>Node22&#45;&gt;Node21</title>
<g id="a_edge42_Node000022_Node000021"><a xlink:title=" ">
<path fill="none" stroke="#63b8ff" d="M603.09,-429C624.46,-421.35 647.52,-409.87 664,-393 696.06,-360.17 668.29,-328.14 702,-297 717.03,-283.12 767.24,-269.69 804.38,-261.28"/>
<polygon fill="#63b8ff" stroke="#63b8ff" points="805.46,-264.63 814.47,-259.05 803.95,-257.79 805.46,-264.63"/>
</a>
</g>
</g>
<!-- Node23 -->
<g id="Node000023" class="node">
<title>Node23</title>
<g id="a_Node000023"><a xlink:href="ContainerUtils_8hpp.html" target="_top" xlink:title=" ">
<polygon fill="white" stroke="#666666" points="655.5,-393 520.5,-393 520.5,-363 655.5,-363 655.5,-393"/>
<text text-anchor="start" x="528.5" y="-381" font-family="Helvetica,sans-Serif" font-size="10.00">MayaFlux/Kakshya/Utils</text>
<text text-anchor="middle" x="588" y="-370" font-family="Helvetica,sans-Serif" font-size="10.00">/ContainerUtils.hpp</text>
</a>
</g>
</g>
<!-- Node22&#45;&gt;Node23 -->
<g id="edge22_Node000022_Node000023" class="edge">
<title>Node22&#45;&gt;Node23</title>
<g id="a_edge22_Node000022_Node000023"><a xlink:title=" ">
<path fill="none" stroke="#63b8ff" d="M555.32,-428.8C560.54,-420.84 567.17,-410.74 573.1,-401.71"/>
<polygon fill="#63b8ff" stroke="#63b8ff" points="576.14,-403.44 578.7,-393.16 570.29,-399.6 576.14,-403.44"/>
</a>
</g>
</g>
<!-- Node26 -->
<g id="Node000026" class="node">
<title>Node26</title>
<g id="a_Node000026"><a xlink:href="DataIO_8hpp.html" target="_top" xlink:title=" ">
<polygon fill="white" stroke="#666666" points="464,-393 340,-393 340,-363 464,-363 464,-393"/>
<text text-anchor="start" x="348" y="-381" font-family="Helvetica,sans-Serif" font-size="10.00">MayaFlux/Yantra/Data</text>
<text text-anchor="middle" x="402" y="-370" font-family="Helvetica,sans-Serif" font-size="10.00">/DataIO.hpp</text>
</a>
</g>
</g>
<!-- Node22&#45;&gt;Node26 -->
<g id="edge26_Node000022_Node000026" class="edge">
<title>Node22&#45;&gt;Node26</title>
<g id="a_edge26_Node000022_Node000026"><a xlink:title=" ">
<path fill="none" stroke="#63b8ff" d="M514.4,-428.95C493.39,-419.62 465.6,-407.27 442.91,-397.18"/>
<polygon fill="#63b8ff" stroke="#63b8ff" points="444.09,-393.88 433.53,-393.01 441.24,-400.27 444.09,-393.88"/>
</a>
</g>
</g>
<!-- Node27 -->
<g id="Node000027" class="node">
<title>Node27</title>
<g id="a_Node000027"><a xlink:href="DataUtils_8hpp.html" target="_top" xlink:title=" ">
<polygon fill="white" stroke="#666666" points="571.5,-327 436.5,-327 436.5,-297 571.5,-297 571.5,-327"/>
<text text-anchor="start" x="444.5" y="-315" font-family="Helvetica,sans-Serif" font-size="10.00">MayaFlux/Kakshya/Utils</text>
<text text-anchor="middle" x="504" y="-304" font-family="Helvetica,sans-Serif" font-size="10.00">/DataUtils.hpp</text>
</a>
</g>
</g>
<!-- Node22&#45;&gt;Node27 -->
<g id="edge41_Node000022_Node000027" class="edge">
<title>Node22&#45;&gt;Node27</title>
<g id="a_edge41_Node000022_Node000027"><a xlink:title=" ">
<path fill="none" stroke="#63b8ff" d="M533.04,-428.85C525.22,-419.42 515.86,-406.34 511,-393 504.49,-375.12 502.93,-353.56 502.9,-337.33"/>
<polygon fill="#63b8ff" stroke="#63b8ff" points="506.4,-337.12 503.07,-327.06 499.4,-337 506.4,-337.12"/>
</a>
</g>
</g>
<!-- Node24 -->
<g id="Node000024" class="node">
<title>Node24</title>
<g id="a_Node000024"><a xlink:href="SignalSourceContainer_8hpp.html" target="_top" xlink:title=" ">
<polygon fill="white" stroke="#666666" points="630,-206 454,-206 454,-176 630,-176 630,-206"/>
<text text-anchor="start" x="462" y="-194" font-family="Helvetica,sans-Serif" font-size="10.00">MayaFlux/Kakshya/SignalSource</text>
<text text-anchor="middle" x="542" y="-183" font-family="Helvetica,sans-Serif" font-size="10.00">Container.hpp</text>
</a>
</g>
</g>
<!-- Node23&#45;&gt;Node24 -->
<g id="edge23_Node000023_Node000024" class="edge">
<title>Node23&#45;&gt;Node24</title>
<g id="a_edge23_Node000023_Node000024"><a xlink:title=" ">
<path fill="none" stroke="#63b8ff" d="M589.81,-362.65C592.42,-337.37 595.4,-283.61 580,-242 576.25,-231.88 569.72,-222.11 563.12,-213.93"/>
<polygon fill="#63b8ff" stroke="#63b8ff" points="565.76,-211.64 556.59,-206.33 560.45,-216.2 565.76,-211.64"/>
</a>
</g>
</g>
<!-- Node25 -->
<g id="Node000025" class="node">
<title>Node25</title>
<g id="a_Node000025"><a xlink:href="NDimensionalContainer_8hpp.html" target="_top" xlink:title=" ">
<polygon fill="white" stroke="#666666" points="607.5,-134.5 454.5,-134.5 454.5,-115.5 607.5,-115.5 607.5,-134.5"/>
<text text-anchor="middle" x="531" y="-122.5" font-family="Helvetica,sans-Serif" font-size="10.00">NDimensionalContainer.hpp</text>
</a>
</g>
</g>
<!-- Node24&#45;&gt;Node25 -->
<g id="edge24_Node000024_Node000025" class="edge">
<title>Node24&#45;&gt;Node25</title>
<g id="a_edge24_Node000024_Node000025"><a xlink:title=" ">
<path fill="none" stroke="#63b8ff" d="M539.56,-175.8C538,-166.7 535.95,-154.79 534.25,-144.9"/>
<polygon fill="#63b8ff" stroke="#63b8ff" points="537.66,-144.11 532.52,-134.84 530.76,-145.29 537.66,-144.11"/>
</a>
</g>
</g>
<!-- Node25&#45;&gt;Node11 -->
<g id="edge25_Node000025_Node000011" class="edge">
<title>Node25&#45;&gt;Node11</title>
<g id="a_edge25_Node000025_Node000011"><a xlink:title=" ">
<path fill="none" stroke="#63b8ff" d="M523.18,-115.37C515.19,-106.55 502.61,-92.66 492.74,-81.77"/>
<polygon fill="#63b8ff" stroke="#63b8ff" points="495.16,-79.23 485.85,-74.17 489.97,-83.93 495.16,-79.23"/>
</a>
</g>
</g>
<!-- Node26&#45;&gt;Node27 -->
<g id="edge27_Node000026_Node000027" class="edge">
<title>Node26&#45;&gt;Node27</title>
<g id="a_edge27_Node000026_Node000027"><a xlink:title=" ">
<path fill="none" stroke="#63b8ff" d="M424.38,-362.95C438.6,-354.03 457.2,-342.36 472.85,-332.54"/>
<polygon fill="#63b8ff" stroke="#63b8ff" points="475.06,-335.29 481.67,-327.01 471.34,-329.36 475.06,-335.29"/>
</a>
</g>
</g>
<!-- Node29 -->
<g id="Node000029" class="node">
<title>Node29</title>
<g id="a_Node000029"><a xlink:href="StructureIntrospection_8hpp.html" target="_top" xlink:title=" ">
<polygon fill="white" stroke="#666666" points="418,-321.5 272,-321.5 272,-302.5 418,-302.5 418,-321.5"/>
<text text-anchor="middle" x="345" y="-309.5" font-family="Helvetica,sans-Serif" font-size="10.00">StructureIntrospection.hpp</text>
</a>
</g>
</g>
<!-- Node26&#45;&gt;Node29 -->
<g id="edge32_Node000026_Node000029" class="edge">
<title>Node26&#45;&gt;Node29</title>
<g id="a_edge32_Node000026_Node000029"><a xlink:title=" ">
<path fill="none" stroke="#63b8ff" d="M389.35,-362.8C380.55,-352.92 368.8,-339.72 359.6,-329.39"/>
<polygon fill="#63b8ff" stroke="#63b8ff" points="362.14,-326.98 352.88,-321.84 356.91,-331.64 362.14,-326.98"/>
</a>
</g>
</g>
<!-- Node27&#45;&gt;Node11 -->
<g id="edge28_Node000027_Node000011" class="edge">
<title>Node27&#45;&gt;Node11</title>
<g id="a_edge28_Node000027_Node000011"><a xlink:title=" ">
<path fill="none" stroke="#63b8ff" d="M478.7,-296.88C466.06,-288.31 452,-276.11 445,-261 416.79,-200.11 423.95,-173.72 445,-110 448.46,-99.54 455.43,-89.53 462.08,-81.66"/>
<polygon fill="#63b8ff" stroke="#63b8ff" points="464.86,-83.8 468.98,-74.04 459.67,-79.1 464.86,-83.8"/>
</a>
</g>
</g>
<!-- Node27&#45;&gt;Node14 -->
<g id="edge29_Node000027_Node000014" class="edge">
<title>Node27&#45;&gt;Node14</title>
<g id="a_edge29_Node000027_Node000014"><a xlink:title=" ">
<path fill="none" stroke="#63b8ff" d="M553.82,-296.99C589.87,-286.85 637.98,-273.32 671.63,-263.85"/>
<polygon fill="#63b8ff" stroke="#63b8ff" points="672.91,-267.13 681.59,-261.05 671.01,-260.39 672.91,-267.13"/>
</a>
</g>
</g>
<!-- Node27&#45;&gt;Node21 -->
<g id="edge31_Node000027_Node000021" class="edge">
<title>Node27&#45;&gt;Node21</title>
<g id="a_edge31_Node000027_Node000021"><a xlink:title=" ">
<path fill="none" stroke="#63b8ff" d="M571.66,-300.46C630.48,-291.13 718.23,-276.84 804.5,-261.04"/>
<polygon fill="#63b8ff" stroke="#63b8ff" points="805.26,-264.45 814.46,-259.2 803.99,-257.57 805.26,-264.45"/>
</a>
</g>
</g>
<!-- Node28 -->
<g id="Node000028" class="node">
<title>Node28</title>
<g id="a_Node000028"><a xlink:title=" ">
<polygon fill="#e0e0e0" stroke="#999999" points="571.5,-261 454.5,-261 454.5,-242 571.5,-242 571.5,-261"/>
<text text-anchor="middle" x="513" y="-249" font-family="Helvetica,sans-Serif" font-size="10.00">glm/gtc/type_ptr.hpp</text>
</a>
</g>
</g>
<!-- Node27&#45;&gt;Node28 -->
<g id="edge30_Node000027_Node000028" class="edge">
<title>Node27&#45;&gt;Node28</title>
<g id="a_edge30_Node000027_Node000028"><a xlink:title=" ">
<path fill="none" stroke="#63b8ff" d="M506.18,-296.84C507.37,-289.13 508.85,-279.49 510.13,-271.17"/>
<polygon fill="#63b8ff" stroke="#63b8ff" points="513.59,-271.68 511.65,-261.27 506.67,-270.62 513.59,-271.68"/>
</a>
</g>
</g>
<!-- Node30 -->
<g id="Node000030" class="node">
<title>Node30</title>
<g id="a_Node000030"><a xlink:href="DataSpec_8hpp.html" target="_top" xlink:title=" ">
<polygon fill="white" stroke="#666666" points="387,-261 303,-261 303,-242 387,-242 387,-261"/>
<text text-anchor="middle" x="345" y="-249" font-family="Helvetica,sans-Serif" font-size="10.00">DataSpec.hpp</text>
</a>
</g>
</g>
<!-- Node29&#45;&gt;Node30 -->
<g id="edge33_Node000029_Node000030" class="edge">
<title>Node29&#45;&gt;Node30</title>
<g id="a_edge33_Node000029_Node000030"><a xlink:title=" ">
<path fill="none" stroke="#63b8ff" d="M345,-302.37C345,-294.25 345,-281.81 345,-271.39"/>
<polygon fill="#63b8ff" stroke="#63b8ff" points="348.5,-271.17 345,-261.17 341.5,-271.17 348.5,-271.17"/>
</a>
</g>
</g>
<!-- Node30&#45;&gt;Node24 -->
<g id="edge40_Node000030_Node000024" class="edge">
<title>Node30&#45;&gt;Node24</title>
<g id="a_edge40_Node000030_Node000024"><a xlink:title=" ">
<path fill="none" stroke="#63b8ff" d="M373.65,-241.99C402.62,-233.39 448.2,-219.86 484.63,-209.04"/>
<polygon fill="#63b8ff" stroke="#63b8ff" points="486.05,-212.27 494.64,-206.06 484.06,-205.56 486.05,-212.27"/>
</a>
</g>
</g>
<!-- Node31 -->
<g id="Node000031" class="node">
<title>Node31</title>
<g id="a_Node000031"><a xlink:title=" ">
<polygon fill="#e0e0e0" stroke="#999999" points="397.5,-200.5 328.5,-200.5 328.5,-181.5 397.5,-181.5 397.5,-200.5"/>
<text text-anchor="middle" x="363" y="-188.5" font-family="Helvetica,sans-Serif" font-size="10.00">Eigen/Core</text>
</a>
</g>
</g>
<!-- Node30&#45;&gt;Node31 -->
<g id="edge34_Node000030_Node000031" class="edge">
<title>Node30&#45;&gt;Node31</title>
<g id="a_edge34_Node000030_Node000031"><a xlink:title=" ">
<path fill="none" stroke="#63b8ff" d="M347.66,-241.87C350.18,-233.66 354.06,-221.04 357.29,-210.55"/>
<polygon fill="#63b8ff" stroke="#63b8ff" points="360.74,-211.25 360.33,-200.67 354.05,-209.2 360.74,-211.25"/>
</a>
</g>
</g>
<!-- Node32 -->
<g id="Node000032" class="node">
<title>Node32</title>
<g id="a_Node000032"><a xlink:href="RegionGroup_8hpp.html" target="_top" xlink:title=" ">
<polygon fill="white" stroke="#666666" points="310,-206 164,-206 164,-176 310,-176 310,-206"/>
<text text-anchor="start" x="172" y="-194" font-family="Helvetica,sans-Serif" font-size="10.00">MayaFlux/Kakshya/Region</text>
<text text-anchor="middle" x="237" y="-183" font-family="Helvetica,sans-Serif" font-size="10.00">/RegionGroup.hpp</text>
</a>
</g>
</g>
<!-- Node30&#45;&gt;Node32 -->
<g id="edge35_Node000030_Node000032" class="edge">
<title>Node30&#45;&gt;Node32</title>
<g id="a_edge35_Node000030_Node000032"><a xlink:title=" ">
<path fill="none" stroke="#63b8ff" d="M329.06,-241.87C314.07,-233.75 291.11,-221.31 271.87,-210.89"/>
<polygon fill="#63b8ff" stroke="#63b8ff" points="273.52,-207.8 263.06,-206.11 270.18,-213.96 273.52,-207.8"/>
</a>
</g>
</g>
<!-- Node34 -->
<g id="Node000034" class="node">
<title>Node34</title>
<g id="a_Node000034"><a xlink:href="RegionSegment_8hpp.html" target="_top" xlink:title=" ">
<polygon fill="white" stroke="#666666" points="146,-206 0,-206 0,-176 146,-176 146,-206"/>
<text text-anchor="start" x="8" y="-194" font-family="Helvetica,sans-Serif" font-size="10.00">MayaFlux/Kakshya/Region</text>
<text text-anchor="middle" x="73" y="-183" font-family="Helvetica,sans-Serif" font-size="10.00">/RegionSegment.hpp</text>
</a>
</g>
</g>
<!-- Node30&#45;&gt;Node34 -->
<g id="edge38_Node000030_Node000034" class="edge">
<title>Node30&#45;&gt;Node34</title>
<g id="a_edge38_Node000030_Node000034"><a xlink:title=" ">
<path fill="none" stroke="#63b8ff" d="M305.45,-241.99C264.35,-233.16 199.05,-219.11 148.11,-208.16"/>
<polygon fill="#63b8ff" stroke="#63b8ff" points="148.64,-204.69 138.13,-206.01 147.17,-211.53 148.64,-204.69"/>
</a>
</g>
</g>
<!-- Node33 -->
<g id="Node000033" class="node">
<title>Node33</title>
<g id="a_Node000033"><a xlink:href="Region_8hpp.html" target="_top" xlink:title=" ">
<polygon fill="white" stroke="#666666" points="272.5,-134.5 201.5,-134.5 201.5,-115.5 272.5,-115.5 272.5,-134.5"/>
<text text-anchor="middle" x="237" y="-122.5" font-family="Helvetica,sans-Serif" font-size="10.00">Region.hpp</text>
</a>
</g>
</g>
<!-- Node32&#45;&gt;Node33 -->
<g id="edge36_Node000032_Node000033" class="edge">
<title>Node32&#45;&gt;Node33</title>
<g id="a_edge36_Node000032_Node000033"><a xlink:title=" ">
<path fill="none" stroke="#63b8ff" d="M237,-175.8C237,-166.7 237,-154.79 237,-144.9"/>
<polygon fill="#63b8ff" stroke="#63b8ff" points="240.5,-144.84 237,-134.84 233.5,-144.84 240.5,-144.84"/>
</a>
</g>
</g>
<!-- Node33&#45;&gt;Node11 -->
<g id="edge37_Node000033_Node000011" class="edge">
<title>Node33&#45;&gt;Node11</title>
<g id="a_edge37_Node000033_Node000011"><a xlink:title=" ">
<path fill="none" stroke="#63b8ff" d="M272.04,-115.49C314.61,-105.16 386.49,-87.71 433.09,-76.4"/>
<polygon fill="#63b8ff" stroke="#63b8ff" points="434.02,-79.78 442.91,-74.02 432.37,-72.97 434.02,-79.78"/>
</a>
</g>
</g>
<!-- Node34&#45;&gt;Node33 -->
<g id="edge39_Node000034_Node000033" class="edge">
<title>Node34&#45;&gt;Node33</title>
<g id="a_edge39_Node000034_Node000033"><a xlink:title=" ">
<path fill="none" stroke="#63b8ff" d="M108.99,-175.95C137.88,-164.68 178.03,-149.01 205.62,-138.25"/>
<polygon fill="#63b8ff" stroke="#63b8ff" points="207.13,-141.41 215.17,-134.52 204.59,-134.89 207.13,-141.41"/>
</a>
</g>
</g>
<!-- Node35&#45;&gt;Node17 -->
<g id="edge44_Node000035_Node000017" class="edge">
<title>Node35&#45;&gt;Node17</title>
<g id="a_edge44_Node000035_Node000017"><a xlink:title=" ">
<path fill="none" stroke="#63b8ff" d="M831.5,-676.97C902.74,-670.39 1016,-647.17 1016,-566 1016,-566 1016,-566 1016,-250.5 1016,-214.81 1006,-174.48 998.65,-149.64"/>
<polygon fill="#63b8ff" stroke="#63b8ff" points="1001.98,-148.54 995.7,-140.01 995.28,-150.59 1001.98,-148.54"/>
</a>
</g>
</g>
<!-- Node36 -->
<g id="Node000036" class="node">
<title>Node36</title>
<g id="a_Node000036"><a xlink:href="ComputeOperation_8hpp.html" target="_top" xlink:title=" ">
<polygon fill="white" stroke="#666666" points="926,-635 712,-635 712,-616 926,-616 926,-635"/>
<text text-anchor="middle" x="819" y="-623" font-family="Helvetica,sans-Serif" font-size="10.00">MayaFlux/Yantra/ComputeOperation.hpp</text>
</a>
</g>
</g>
<!-- Node35&#45;&gt;Node36 -->
<g id="edge45_Node000035_Node000036" class="edge">
<title>Node35&#45;&gt;Node36</title>
<g id="a_edge45_Node000035_Node000036"><a xlink:title=" ">
<path fill="none" stroke="#63b8ff" d="M782.27,-670.75C788.54,-663.18 797.79,-652.05 805.43,-642.84"/>
<polygon fill="#63b8ff" stroke="#63b8ff" points="808.17,-645.02 811.87,-635.09 802.79,-640.55 808.17,-645.02"/>
</a>
</g>
</g>
<!-- Node38 -->
<g id="Node000038" class="node">
<title>Node38</title>
<g id="a_Node000038"><a xlink:href="SortingHelper_8hpp.html" target="_top" xlink:title=" ">
<polygon fill="white" stroke="#666666" points="547,-514 443,-514 443,-495 547,-495 547,-514"/>
<text text-anchor="middle" x="495" y="-502" font-family="Helvetica,sans-Serif" font-size="10.00">SortingHelper.hpp</text>
</a>
</g>
</g>
<!-- Node35&#45;&gt;Node38 -->
<g id="edge48_Node000035_Node000038" class="edge">
<title>Node35&#45;&gt;Node38</title>
<g id="a_edge48_Node000035_Node000038"><a xlink:title=" ">
<path fill="none" stroke="#63b8ff" d="M761.19,-670.98C746.69,-662.04 723.23,-647.55 703,-635 635.35,-593.04 555.46,-543.22 517.37,-519.46"/>
<polygon fill="#63b8ff" stroke="#63b8ff" points="518.96,-516.32 508.62,-514 515.25,-522.26 518.96,-516.32"/>
</a>
</g>
</g>
<!-- Node36&#45;&gt;Node2 -->
<g id="edge46_Node000036_Node000002" class="edge">
<title>Node36&#45;&gt;Node2</title>
<g id="a_edge46_Node000036_Node000002"><a xlink:title=" ">
<path fill="none" stroke="#63b8ff" d="M814.13,-615.87C810.15,-608.81 804.33,-598.5 799.02,-589.08"/>
<polygon fill="#63b8ff" stroke="#63b8ff" points="801.92,-587.1 793.96,-580.11 795.83,-590.54 801.92,-587.1"/>
</a>
</g>
</g>
<!-- Node37 -->
<g id="Node000037" class="node">
<title>Node37</title>
<g id="a_Node000037"><a xlink:title=" ">
<polygon fill="#e0e0e0" stroke="#999999" points="924,-574.5 878,-574.5 878,-555.5 924,-555.5 924,-574.5"/>
<text text-anchor="middle" x="901" y="-562.5" font-family="Helvetica,sans-Serif" font-size="10.00">future</text>
</a>
</g>
</g>
<!-- Node36&#45;&gt;Node37 -->
<g id="edge47_Node000036_Node000037" class="edge">
<title>Node36&#45;&gt;Node37</title>
<g id="a_edge47_Node000036_Node000037"><a xlink:title=" ">
<path fill="none" stroke="#63b8ff" d="M831.1,-615.87C844.06,-606.62 864.86,-591.78 880.4,-580.69"/>
<polygon fill="#63b8ff" stroke="#63b8ff" points="882.74,-583.32 888.85,-574.67 878.68,-577.63 882.74,-583.32"/>
</a>
</g>
</g>
<!-- Node38&#45;&gt;Node22 -->
<g id="edge50_Node000038_Node000022" class="edge">
<title>Node38&#45;&gt;Node22</title>
<g id="a_edge50_Node000038_Node000022"><a xlink:title=" ">
<path fill="none" stroke="#63b8ff" d="M502.53,-494.87C508.93,-487.52 518.42,-476.63 526.9,-466.91"/>
<polygon fill="#63b8ff" stroke="#63b8ff" points="529.76,-468.95 533.69,-459.11 524.49,-464.35 529.76,-468.95"/>
</a>
</g>
</g>
<!-- Node38&#45;&gt;Node26 -->
<g id="edge49_Node000038_Node000026" class="edge">
<title>Node38&#45;&gt;Node26</title>
<g id="a_edge49_Node000038_Node000026"><a xlink:title=" ">
<path fill="none" stroke="#63b8ff" d="M488.61,-494.94C474.33,-475.82 439.45,-429.13 418.57,-401.18"/>
<polygon fill="#63b8ff" stroke="#63b8ff" points="421.37,-399.08 412.58,-393.16 415.76,-403.27 421.37,-399.08"/>
</a>
</g>
</g>
<!-- Node39 -->
<g id="Node000039" class="node">
<title>Node39</title>
<g id="a_Node000039"><a xlink:href="Sort_8hpp.html" target="_top" xlink:title="Discrete sequence sorting primitives for MayaFlux::Kinesis.">
<polygon fill="white" stroke="#666666" points="374,-459 228,-459 228,-429 374,-429 374,-459"/>
<text text-anchor="start" x="236" y="-447" font-family="Helvetica,sans-Serif" font-size="10.00">MayaFlux/Kinesis/Discrete</text>
<text text-anchor="middle" x="301" y="-436" font-family="Helvetica,sans-Serif" font-size="10.00">/Sort.hpp</text>
</a>
</g>
</g>
<!-- Node38&#45;&gt;Node39 -->
<g id="edge51_Node000038_Node000039" class="edge">
<title>Node38&#45;&gt;Node39</title>
<g id="a_edge51_Node000038_Node000039"><a xlink:title=" ">
<path fill="none" stroke="#63b8ff" d="M466.79,-494.99C438.26,-486.39 393.38,-472.86 357.5,-462.04"/>
<polygon fill="#63b8ff" stroke="#63b8ff" points="358.23,-458.6 347.64,-459.06 356.2,-465.3 358.23,-458.6"/>
</a>
</g>
</g>
<!-- Node40 -->
<g id="Node000040" class="node">
<title>Node40</title>
<g id="a_Node000040"><a xlink:href="Execution_8hpp.html" target="_top" xlink:title=" ">
<polygon fill="white" stroke="#666666" points="309.5,-393 182.5,-393 182.5,-363 309.5,-363 309.5,-393"/>
<text text-anchor="start" x="190.5" y="-381" font-family="Helvetica,sans-Serif" font-size="10.00">MayaFlux/Transitive</text>
<text text-anchor="middle" x="246" y="-370" font-family="Helvetica,sans-Serif" font-size="10.00">/Parallel/Execution.hpp</text>
</a>
</g>
</g>
<!-- Node39&#45;&gt;Node40 -->
<g id="edge52_Node000039_Node000040" class="edge">
<title>Node39&#45;&gt;Node40</title>
<g id="a_edge52_Node000039_Node000040"><a xlink:title=" ">
<path fill="none" stroke="#63b8ff" d="M288.79,-428.8C281.74,-420.59 272.73,-410.1 264.79,-400.87"/>
<polygon fill="#63b8ff" stroke="#63b8ff" points="267.34,-398.47 258.17,-393.16 262.04,-403.03 267.34,-398.47"/>
</a>
</g>
</g>
<!-- Node41 -->
<g id="Node000041" class="node">
<title>Node41</title>
<g id="a_Node000041"><a xlink:title=" ">
<polygon fill="#e0e0e0" stroke="#999999" points="254,-321.5 190,-321.5 190,-302.5 254,-302.5 254,-321.5"/>
<text text-anchor="middle" x="222" y="-309.5" font-family="Helvetica,sans-Serif" font-size="10.00">execution</text>
</a>
</g>
</g>
<!-- Node40&#45;&gt;Node41 -->
<g id="edge53_Node000040_Node000041" class="edge">
<title>Node40&#45;&gt;Node41</title>
<g id="a_edge53_Node000040_Node000041"><a xlink:title=" ">
<path fill="none" stroke="#63b8ff" d="M240.67,-362.8C237.19,-353.5 232.6,-341.27 228.85,-331.26"/>
<polygon fill="#63b8ff" stroke="#63b8ff" points="232.11,-329.98 225.32,-321.84 225.55,-332.44 232.11,-329.98"/>
</a>
</g>
</g>
</g>
</svg>
