<?xml version="1.0" encoding="UTF-8" standalone="no"?>
<!DOCTYPE svg PUBLIC "-//W3C//DTD SVG 1.1//EN"
 "http://www.w3.org/Graphics/SVG/1.1/DTD/svg11.dtd">
<!-- Generated by graphviz version 2.43.0 (0)
 -->
<!-- Title: GraphicsOperator.cpp Pages: 1 -->
<svg width="678pt" height="269pt"
 viewBox="0.00 0.00 678.00 269.00" xmlns="http://www.w3.org/2000/svg" xmlns:xlink="http://www.w3.org/1999/xlink">
<g id="graph0" class="graph" transform="scale(1 1) rotate(0) translate(4 265)">
<title>GraphicsOperator.cpp</title>
<!-- Node1 -->
<g id="Node000001" class="node">
<title>Node1</title>
<g id="a_Node000001"><a xlink:title=" ">
<polygon fill="#999999" stroke="#666666" points="284,-261 162,-261 162,-242 284,-242 284,-261"/>
<text text-anchor="middle" x="223" y="-249" font-family="Helvetica,sans-Serif" font-size="10.00">GraphicsOperator.cpp</text>
</a>
</g>
</g>
<!-- Node2 -->
<g id="Node000002" class="node">
<title>Node2</title>
<g id="a_Node000002"><a xlink:href="GraphicsOperator_8hpp.html" target="_top" xlink:title=" ">
<polygon fill="white" stroke="#666666" points="284,-200.5 162,-200.5 162,-181.5 284,-181.5 284,-200.5"/>
<text text-anchor="middle" x="223" y="-188.5" font-family="Helvetica,sans-Serif" font-size="10.00">GraphicsOperator.hpp</text>
</a>
</g>
</g>
<!-- Node1&#45;&gt;Node2 -->
<g id="edge1_Node000001_Node000002" class="edge">
<title>Node1&#45;&gt;Node2</title>
<g id="a_edge1_Node000001_Node000002"><a xlink:title=" ">
<path fill="none" stroke="#63b8ff" d="M223,-241.87C223,-233.75 223,-221.31 223,-210.89"/>
<polygon fill="#63b8ff" stroke="#63b8ff" points="226.5,-210.67 223,-200.67 219.5,-210.67 226.5,-210.67"/>
</a>
</g>
</g>
<!-- Node7 -->
<g id="Node000007" class="node">
<title>Node7</title>
<g id="a_Node000007"><a xlink:href="VertexSpec_8hpp.html" target="_top" xlink:title=" ">
<polygon fill="white" stroke="#666666" points="144,-206 0,-206 0,-176 144,-176 144,-206"/>
<text text-anchor="start" x="8" y="-194" font-family="Helvetica,sans-Serif" font-size="10.00">MayaFlux/Nodes/Graphics</text>
<text text-anchor="middle" x="72" y="-183" font-family="Helvetica,sans-Serif" font-size="10.00">/VertexSpec.hpp</text>
</a>
</g>
</g>
<!-- Node1&#45;&gt;Node7 -->
<g id="edge6_Node000001_Node000007" class="edge">
<title>Node1&#45;&gt;Node7</title>
<g id="a_edge6_Node000001_Node000007"><a xlink:title=" ">
<path fill="none" stroke="#63b8ff" d="M201.04,-241.99C179.31,-233.57 145.39,-220.43 117.78,-209.73"/>
<polygon fill="#63b8ff" stroke="#63b8ff" points="118.89,-206.41 108.3,-206.06 116.36,-212.94 118.89,-206.41"/>
</a>
</g>
</g>
<!-- Node8 -->
<g id="Node000008" class="node">
<title>Node8</title>
<g id="a_Node000008"><a xlink:href="NodeNetwork_8hpp.html" target="_top" xlink:title=" ">
<polygon fill="white" stroke="#666666" points="445.5,-206 302.5,-206 302.5,-176 445.5,-176 445.5,-206"/>
<text text-anchor="start" x="310.5" y="-194" font-family="Helvetica,sans-Serif" font-size="10.00">MayaFlux/Nodes/Network</text>
<text text-anchor="middle" x="374" y="-183" font-family="Helvetica,sans-Serif" font-size="10.00">/NodeNetwork.hpp</text>
</a>
</g>
</g>
<!-- Node1&#45;&gt;Node8 -->
<g id="edge8_Node000001_Node000008" class="edge">
<title>Node1&#45;&gt;Node8</title>
<g id="a_edge8_Node000001_Node000008"><a xlink:title=" ">
<path fill="none" stroke="#63b8ff" d="M244.96,-241.99C266.69,-233.57 300.61,-220.43 328.22,-209.73"/>
<polygon fill="#63b8ff" stroke="#63b8ff" points="329.64,-212.94 337.7,-206.06 327.11,-206.41 329.64,-212.94"/>
</a>
</g>
</g>
<!-- Node3 -->
<g id="Node000003" class="node">
<title>Node3</title>
<g id="a_Node000003"><a xlink:href="VertexLayout_8hpp.html" target="_top" xlink:title=" ">
<polygon fill="white" stroke="#666666" points="171.5,-140 20.5,-140 20.5,-110 171.5,-110 171.5,-140"/>
<text text-anchor="start" x="28.5" y="-128" font-family="Helvetica,sans-Serif" font-size="10.00">MayaFlux/Kakshya/NDData</text>
<text text-anchor="middle" x="96" y="-117" font-family="Helvetica,sans-Serif" font-size="10.00">/VertexLayout.hpp</text>
</a>
</g>
</g>
<!-- Node2&#45;&gt;Node3 -->
<g id="edge2_Node000002_Node000003" class="edge">
<title>Node2&#45;&gt;Node3</title>
<g id="a_edge2_Node000002_Node000003"><a xlink:title=" ">
<path fill="none" stroke="#63b8ff" d="M205.87,-181.37C187.34,-172.03 157.23,-156.86 133.21,-144.75"/>
<polygon fill="#63b8ff" stroke="#63b8ff" points="134.52,-141.49 124.01,-140.12 131.37,-147.74 134.52,-141.49"/>
</a>
</g>
</g>
<!-- Node6 -->
<g id="Node000006" class="node">
<title>Node6</title>
<g id="a_Node000006"><a xlink:href="NetworkOperator_8hpp.html" target="_top" xlink:title=" ">
<polygon fill="white" stroke="#666666" points="321.5,-74 200.5,-74 200.5,-55 321.5,-55 321.5,-74"/>
<text text-anchor="middle" x="261" y="-62" font-family="Helvetica,sans-Serif" font-size="10.00">NetworkOperator.hpp</text>
</a>
</g>
</g>
<!-- Node2&#45;&gt;Node6 -->
<g id="edge5_Node000002_Node000006" class="edge">
<title>Node2&#45;&gt;Node6</title>
<g id="a_edge5_Node000002_Node000006"><a xlink:title=" ">
<path fill="none" stroke="#63b8ff" d="M224.53,-181.46C227.29,-166.69 233.6,-135.49 242,-110 244.96,-101.02 248.99,-91.34 252.57,-83.31"/>
<polygon fill="#63b8ff" stroke="#63b8ff" points="255.77,-84.74 256.76,-74.19 249.41,-81.82 255.77,-84.74"/>
</a>
</g>
</g>
<!-- Node4 -->
<g id="Node000004" class="node">
<title>Node4</title>
<g id="a_Node000004"><a xlink:href="NDData_8hpp.html" target="_top" xlink:title=" ">
<polygon fill="white" stroke="#666666" points="134,-74 58,-74 58,-55 134,-55 134,-74"/>
<text text-anchor="middle" x="96" y="-62" font-family="Helvetica,sans-Serif" font-size="10.00">NDData.hpp</text>
</a>
</g>
</g>
<!-- Node3&#45;&gt;Node4 -->
<g id="edge3_Node000003_Node000004" class="edge">
<title>Node3&#45;&gt;Node4</title>
<g id="a_edge3_Node000003_Node000004"><a xlink:title=" ">
<path fill="none" stroke="#63b8ff" d="M96,-109.84C96,-102.21 96,-92.7 96,-84.45"/>
<polygon fill="#63b8ff" stroke="#63b8ff" points="99.5,-84.27 96,-74.27 92.5,-84.27 99.5,-84.27"/>
</a>
</g>
</g>
<!-- Node5 -->
<g id="Node000005" class="node">
<title>Node5</title>
<g id="a_Node000005"><a xlink:title=" ">
<polygon fill="#e0e0e0" stroke="#999999" points="135,-19 57,-19 57,0 135,0 135,-19"/>
<text text-anchor="middle" x="96" y="-7" font-family="Helvetica,sans-Serif" font-size="10.00">glm/glm.hpp</text>
</a>
</g>
</g>
<!-- Node4&#45;&gt;Node5 -->
<g id="edge4_Node000004_Node000005" class="edge">
<title>Node4&#45;&gt;Node5</title>
<g id="a_edge4_Node000004_Node000005"><a xlink:title=" ">
<path fill="none" stroke="#63b8ff" d="M96,-54.75C96,-47.8 96,-37.85 96,-29.13"/>
<polygon fill="#63b8ff" stroke="#63b8ff" points="99.5,-29.09 96,-19.09 92.5,-29.09 99.5,-29.09"/>
</a>
</g>
</g>
<!-- Node7&#45;&gt;Node3 -->
<g id="edge7_Node000007_Node000003" class="edge">
<title>Node7&#45;&gt;Node3</title>
<g id="a_edge7_Node000007_Node000003"><a xlink:title=" ">
<path fill="none" stroke="#63b8ff" d="M77.33,-175.8C80.22,-168.09 83.86,-158.37 87.17,-149.56"/>
<polygon fill="#63b8ff" stroke="#63b8ff" points="90.45,-150.76 90.69,-140.16 83.9,-148.3 90.45,-150.76"/>
</a>
</g>
</g>
<!-- Node9 -->
<g id="Node000009" class="node">
<title>Node9</title>
<g id="a_Node000009"><a xlink:href="OperatorChain_8hpp.html" target="_top" xlink:title=" ">
<polygon fill="white" stroke="#666666" points="413,-140 251,-140 251,-110 413,-110 413,-140"/>
<text text-anchor="start" x="259" y="-128" font-family="Helvetica,sans-Serif" font-size="10.00">MayaFlux/Nodes/Network</text>
<text text-anchor="middle" x="332" y="-117" font-family="Helvetica,sans-Serif" font-size="10.00">/Operators/OperatorChain.hpp</text>
</a>
</g>
</g>
<!-- Node8&#45;&gt;Node9 -->
<g id="edge9_Node000008_Node000009" class="edge">
<title>Node8&#45;&gt;Node9</title>
<g id="a_edge9_Node000008_Node000009"><a xlink:title=" ">
<path fill="none" stroke="#63b8ff" d="M364.68,-175.8C359.46,-167.84 352.83,-157.74 346.9,-148.71"/>
<polygon fill="#63b8ff" stroke="#63b8ff" points="349.71,-146.6 341.3,-140.16 343.86,-150.44 349.71,-146.6"/>
</a>
</g>
</g>
<!-- Node10 -->
<g id="Node000010" class="node">
<title>Node10</title>
<g id="a_Node000010"><a xlink:href="Node_8hpp.html" target="_top" xlink:title=" ">
<polygon fill="white" stroke="#666666" points="579,-134.5 431,-134.5 431,-115.5 579,-115.5 579,-134.5"/>
<text text-anchor="middle" x="505" y="-122.5" font-family="Helvetica,sans-Serif" font-size="10.00">MayaFlux/Nodes/Node.hpp</text>
</a>
</g>
</g>
<!-- Node8&#45;&gt;Node10 -->
<g id="edge11_Node000008_Node000010" class="edge">
<title>Node8&#45;&gt;Node10</title>
<g id="a_edge11_Node000008_Node000010"><a xlink:title=" ">
<path fill="none" stroke="#63b8ff" d="M402.75,-175.95C425.32,-164.93 456.49,-149.7 478.47,-138.96"/>
<polygon fill="#63b8ff" stroke="#63b8ff" points="480.12,-142.05 487.57,-134.52 477.04,-135.76 480.12,-142.05"/>
</a>
</g>
</g>
<!-- Node9&#45;&gt;Node6 -->
<g id="edge10_Node000009_Node000006" class="edge">
<title>Node9&#45;&gt;Node6</title>
<g id="a_edge10_Node000009_Node000006"><a xlink:title=" ">
<path fill="none" stroke="#63b8ff" d="M314.81,-109.84C304.19,-101.09 290.56,-89.85 279.67,-80.88"/>
<polygon fill="#63b8ff" stroke="#63b8ff" points="281.58,-77.92 271.64,-74.27 277.13,-83.33 281.58,-77.92"/>
</a>
</g>
</g>
<!-- Node11 -->
<g id="Node000011" class="node">
<title>Node11</title>
<g id="a_Node000011"><a xlink:href="GpuContext_8hpp.html" target="_top" xlink:title=" ">
<polygon fill="white" stroke="#666666" points="481.5,-74 386.5,-74 386.5,-55 481.5,-55 481.5,-74"/>
<text text-anchor="middle" x="434" y="-62" font-family="Helvetica,sans-Serif" font-size="10.00">GpuContext.hpp</text>
</a>
</g>
</g>
<!-- Node10&#45;&gt;Node11 -->
<g id="edge12_Node000010_Node000011" class="edge">
<title>Node10&#45;&gt;Node11</title>
<g id="a_edge12_Node000010_Node000011"><a xlink:title=" ">
<path fill="none" stroke="#63b8ff" d="M494.52,-115.37C483.51,-106.3 465.96,-91.84 452.59,-80.82"/>
<polygon fill="#63b8ff" stroke="#63b8ff" points="454.46,-77.83 444.52,-74.17 450.01,-83.23 454.46,-77.83"/>
</a>
</g>
</g>
<!-- Node12 -->
<g id="Node000012" class="node">
<title>Node12</title>
<g id="a_Node000012"><a xlink:href="NodeUtils_8hpp.html" target="_top" xlink:title=" ">
<polygon fill="white" stroke="#666666" points="670,-74 500,-74 500,-55 670,-55 670,-74"/>
<text text-anchor="middle" x="585" y="-62" font-family="Helvetica,sans-Serif" font-size="10.00">MayaFlux/Nodes/NodeUtils.hpp</text>
</a>
</g>
</g>
<!-- Node10&#45;&gt;Node12 -->
<g id="edge13_Node000010_Node000012" class="edge">
<title>Node10&#45;&gt;Node12</title>
<g id="a_edge13_Node000010_Node000012"><a xlink:title=" ">
<path fill="none" stroke="#63b8ff" d="M516.8,-115.37C529.45,-106.12 549.74,-91.28 564.91,-80.19"/>
<polygon fill="#63b8ff" stroke="#63b8ff" points="567.14,-82.9 573.15,-74.17 563.01,-77.24 567.14,-82.9"/>
</a>
</g>
</g>
<!-- Node13 -->
<g id="Node000013" class="node">
<title>Node13</title>
<g id="a_Node000013"><a xlink:href="NodeSpec_8hpp.html" target="_top" xlink:title=" ">
<polygon fill="white" stroke="#666666" points="628,-19 542,-19 542,0 628,0 628,-19"/>
<text text-anchor="middle" x="585" y="-7" font-family="Helvetica,sans-Serif" font-size="10.00">NodeSpec.hpp</text>
</a>
</g>
</g>
<!-- Node12&#45;&gt;Node13 -->
<g id="edge14_Node000012_Node000013" class="edge">
<title>Node12&#45;&gt;Node13</title>
<g id="a_edge14_Node000012_Node000013"><a xlink:title=" ">
<path fill="none" stroke="#63b8ff" d="M585,-54.75C585,-47.8 585,-37.85 585,-29.13"/>
<polygon fill="#63b8ff" stroke="#63b8ff" points="588.5,-29.09 585,-19.09 581.5,-29.09 588.5,-29.09"/>
</a>
</g>
</g>
</g>
</svg>
