<?xml version="1.0" encoding="UTF-8" standalone="no"?>
<!DOCTYPE svg PUBLIC "-//W3C//DTD SVG 1.1//EN"
 "http://www.w3.org/Graphics/SVG/1.1/DTD/svg11.dtd">
<!-- Generated by graphviz version 2.43.0 (0)
 -->
<!-- Title: HIDBackend.cpp Pages: 1 -->
<svg width="637pt" height="280pt"
 viewBox="0.00 0.00 636.50 280.00" xmlns="http://www.w3.org/2000/svg" xmlns:xlink="http://www.w3.org/1999/xlink">
<g id="graph0" class="graph" transform="scale(1 1) rotate(0) translate(4 276)">
<title>HIDBackend.cpp</title>
<!-- Node1 -->
<g id="Node000001" class="node">
<title>Node1</title>
<g id="a_Node000001"><a xlink:title=" ">
<polygon fill="#999999" stroke="#666666" points="449,-272 353,-272 353,-253 449,-253 449,-272"/>
<text text-anchor="middle" x="401" y="-260" font-family="Helvetica,sans-Serif" font-size="10.00">HIDBackend.cpp</text>
</a>
</g>
</g>
<!-- Node2 -->
<g id="Node000002" class="node">
<title>Node2</title>
<g id="a_Node000002"><a xlink:href="HIDBackend_8hpp.html" target="_top" xlink:title=" ">
<polygon fill="white" stroke="#666666" points="267.5,-217 170.5,-217 170.5,-198 267.5,-198 267.5,-217"/>
<text text-anchor="middle" x="219" y="-205" font-family="Helvetica,sans-Serif" font-size="10.00">HIDBackend.hpp</text>
</a>
</g>
</g>
<!-- Node1&#45;&gt;Node2 -->
<g id="edge1_Node000001_Node000002" class="edge">
<title>Node1&#45;&gt;Node2</title>
<g id="a_edge1_Node000001_Node000002"><a xlink:title=" ">
<path fill="none" stroke="#63b8ff" d="M371.76,-252.98C340.94,-244.01 292.22,-229.82 258.11,-219.89"/>
<polygon fill="#63b8ff" stroke="#63b8ff" points="259.05,-216.52 248.47,-217.08 257.09,-223.24 259.05,-216.52"/>
</a>
</g>
</g>
<!-- Node7 -->
<g id="Node000007" class="node">
<title>Node7</title>
<g id="a_Node000007"><a xlink:href="Archivist_8hpp.html" target="_top" xlink:title=" ">
<polygon fill="white" stroke="#666666" points="485,-217 317,-217 317,-198 485,-198 485,-217"/>
<text text-anchor="middle" x="401" y="-205" font-family="Helvetica,sans-Serif" font-size="10.00">MayaFlux/Journal/Archivist.hpp</text>
</a>
</g>
</g>
<!-- Node1&#45;&gt;Node7 -->
<g id="edge6_Node000001_Node000007" class="edge">
<title>Node1&#45;&gt;Node7</title>
<g id="a_edge6_Node000001_Node000007"><a xlink:title=" ">
<path fill="none" stroke="#63b8ff" d="M401,-252.75C401,-245.8 401,-235.85 401,-227.13"/>
<polygon fill="#63b8ff" stroke="#63b8ff" points="404.5,-227.09 401,-217.09 397.5,-227.09 404.5,-227.09"/>
</a>
</g>
</g>
<!-- Node14 -->
<g id="Node000014" class="node">
<title>Node14</title>
<g id="a_Node000014"><a xlink:title=" ">
<polygon fill="#e0e0e0" stroke="#999999" points="559,-217 503,-217 503,-198 559,-198 559,-217"/>
<text text-anchor="middle" x="531" y="-205" font-family="Helvetica,sans-Serif" font-size="10.00">hidapi.h</text>
</a>
</g>
</g>
<!-- Node1&#45;&gt;Node14 -->
<g id="edge13_Node000001_Node000014" class="edge">
<title>Node1&#45;&gt;Node14</title>
<g id="a_edge13_Node000001_Node000014"><a xlink:title=" ">
<path fill="none" stroke="#63b8ff" d="M421.89,-252.98C443.08,-244.34 476.13,-230.87 500.3,-221.02"/>
<polygon fill="#63b8ff" stroke="#63b8ff" points="501.79,-224.19 509.73,-217.17 499.15,-217.7 501.79,-224.19"/>
</a>
</g>
</g>
<!-- Node3 -->
<g id="Node000003" class="node">
<title>Node3</title>
<g id="a_Node000003"><a xlink:href="InputBackend_8hpp.html" target="_top" xlink:title=" ">
<polygon fill="white" stroke="#666666" points="227,-162 87,-162 87,-132 227,-132 227,-162"/>
<text text-anchor="start" x="95" y="-150" font-family="Helvetica,sans-Serif" font-size="10.00">MayaFlux/Core/Backends</text>
<text text-anchor="middle" x="157" y="-139" font-family="Helvetica,sans-Serif" font-size="10.00">/Input/InputBackend.hpp</text>
</a>
</g>
</g>
<!-- Node2&#45;&gt;Node3 -->
<g id="edge2_Node000002_Node000003" class="edge">
<title>Node2&#45;&gt;Node3</title>
<g id="a_edge2_Node000002_Node000003"><a xlink:title=" ">
<path fill="none" stroke="#63b8ff" d="M209.85,-197.87C201.83,-190.3 189.83,-178.98 179.3,-169.04"/>
<polygon fill="#63b8ff" stroke="#63b8ff" points="181.63,-166.43 171.96,-162.11 176.83,-171.52 181.63,-166.43"/>
</a>
</g>
</g>
<!-- Node4 -->
<g id="Node000004" class="node">
<title>Node4</title>
<g id="a_Node000004"><a xlink:href="GlobalInputConfig_8hpp.html" target="_top" xlink:title=" ">
<polygon fill="white" stroke="#666666" points="200.5,-96 51.5,-96 51.5,-66 200.5,-66 200.5,-96"/>
<text text-anchor="start" x="59.5" y="-84" font-family="Helvetica,sans-Serif" font-size="10.00">MayaFlux/Core/GlobalInput</text>
<text text-anchor="middle" x="126" y="-73" font-family="Helvetica,sans-Serif" font-size="10.00">Config.hpp</text>
</a>
</g>
</g>
<!-- Node3&#45;&gt;Node4 -->
<g id="edge3_Node000003_Node000004" class="edge">
<title>Node3&#45;&gt;Node4</title>
<g id="a_edge3_Node000003_Node000004"><a xlink:title=" ">
<path fill="none" stroke="#63b8ff" d="M150.12,-131.8C146.35,-124.01 141.58,-114.16 137.27,-105.28"/>
<polygon fill="#63b8ff" stroke="#63b8ff" points="140.37,-103.64 132.86,-96.16 134.07,-106.69 140.37,-103.64"/>
</a>
</g>
</g>
<!-- Node5 -->
<g id="Node000005" class="node">
<title>Node5</title>
<g id="a_Node000005"><a xlink:href="InputBinding_8hpp.html" target="_top" xlink:title=" ">
<polygon fill="white" stroke="#666666" points="118,-30 0,-30 0,0 118,0 118,-30"/>
<text text-anchor="start" x="8" y="-18" font-family="Helvetica,sans-Serif" font-size="10.00">MayaFlux/Core/Input</text>
<text text-anchor="middle" x="59" y="-7" font-family="Helvetica,sans-Serif" font-size="10.00">/InputBinding.hpp</text>
</a>
</g>
</g>
<!-- Node4&#45;&gt;Node5 -->
<g id="edge4_Node000004_Node000005" class="edge">
<title>Node4&#45;&gt;Node5</title>
<g id="a_edge4_Node000004_Node000005"><a xlink:title=" ">
<path fill="none" stroke="#63b8ff" d="M111.13,-65.8C102.37,-57.43 91.12,-46.68 81.31,-37.31"/>
<polygon fill="#63b8ff" stroke="#63b8ff" points="83.48,-34.54 73.83,-30.16 78.64,-39.6 83.48,-34.54"/>
</a>
</g>
</g>
<!-- Node6 -->
<g id="Node000006" class="node">
<title>Node6</title>
<g id="a_Node000006"><a xlink:href="Mirror_8hpp.html" target="_top" xlink:title=" ">
<polygon fill="white" stroke="#666666" points="251.5,-30 136.5,-30 136.5,0 251.5,0 251.5,-30"/>
<text text-anchor="start" x="144.5" y="-18" font-family="Helvetica,sans-Serif" font-size="10.00">MayaFlux/Transitive</text>
<text text-anchor="middle" x="194" y="-7" font-family="Helvetica,sans-Serif" font-size="10.00">/Reflect/Mirror.hpp</text>
</a>
</g>
</g>
<!-- Node4&#45;&gt;Node6 -->
<g id="edge5_Node000004_Node000006" class="edge">
<title>Node4&#45;&gt;Node6</title>
<g id="a_edge5_Node000004_Node000006"><a xlink:title=" ">
<path fill="none" stroke="#63b8ff" d="M141.09,-65.8C150.07,-57.34 161.63,-46.46 171.65,-37.03"/>
<polygon fill="#63b8ff" stroke="#63b8ff" points="174.07,-39.57 178.95,-30.16 169.27,-34.47 174.07,-39.57"/>
</a>
</g>
</g>
<!-- Node8 -->
<g id="Node000008" class="node">
<title>Node8</title>
<g id="a_Node000008"><a xlink:href="JournalEntry_8hpp.html" target="_top" xlink:title=" ">
<polygon fill="white" stroke="#666666" points="448.5,-156.5 353.5,-156.5 353.5,-137.5 448.5,-137.5 448.5,-156.5"/>
<text text-anchor="middle" x="401" y="-144.5" font-family="Helvetica,sans-Serif" font-size="10.00">JournalEntry.hpp</text>
</a>
</g>
</g>
<!-- Node7&#45;&gt;Node8 -->
<g id="edge7_Node000007_Node000008" class="edge">
<title>Node7&#45;&gt;Node8</title>
<g id="a_edge7_Node000007_Node000008"><a xlink:title=" ">
<path fill="none" stroke="#63b8ff" d="M401,-197.87C401,-189.75 401,-177.31 401,-166.89"/>
<polygon fill="#63b8ff" stroke="#63b8ff" points="404.5,-166.67 401,-156.67 397.5,-166.67 404.5,-166.67"/>
</a>
</g>
</g>
<!-- Node13 -->
<g id="Node000013" class="node">
<title>Node13</title>
<g id="a_Node000013"><a xlink:title=" ">
<polygon fill="#e0e0e0" stroke="#999999" points="517,-156.5 467,-156.5 467,-137.5 517,-137.5 517,-156.5"/>
<text text-anchor="middle" x="492" y="-144.5" font-family="Helvetica,sans-Serif" font-size="10.00">format</text>
</a>
</g>
</g>
<!-- Node7&#45;&gt;Node13 -->
<g id="edge12_Node000007_Node000013" class="edge">
<title>Node7&#45;&gt;Node13</title>
<g id="a_edge12_Node000007_Node000013"><a xlink:title=" ">
<path fill="none" stroke="#63b8ff" d="M414.43,-197.87C429.08,-188.45 452.76,-173.23 470.1,-162.08"/>
<polygon fill="#63b8ff" stroke="#63b8ff" points="472,-165.02 478.52,-156.67 468.21,-159.13 472,-165.02"/>
</a>
</g>
</g>
<!-- Node9 -->
<g id="Node000009" class="node">
<title>Node9</title>
<g id="a_Node000009"><a xlink:href="EnumReflect_8hpp.html" target="_top" xlink:title=" ">
<polygon fill="white" stroke="#666666" points="357.5,-96 218.5,-96 218.5,-66 357.5,-66 357.5,-96"/>
<text text-anchor="start" x="226.5" y="-84" font-family="Helvetica,sans-Serif" font-size="10.00">MayaFlux/Transitive</text>
<text text-anchor="middle" x="288" y="-73" font-family="Helvetica,sans-Serif" font-size="10.00">/Reflect/EnumReflect.hpp</text>
</a>
</g>
</g>
<!-- Node8&#45;&gt;Node9 -->
<g id="edge8_Node000008_Node000009" class="edge">
<title>Node8&#45;&gt;Node9</title>
<g id="a_edge8_Node000008_Node000009"><a xlink:title=" ">
<path fill="none" stroke="#63b8ff" d="M385.76,-137.37C369.42,-128.11 342.95,-113.12 321.68,-101.07"/>
<polygon fill="#63b8ff" stroke="#63b8ff" points="323.35,-98 312.92,-96.12 319.9,-104.09 323.35,-98"/>
</a>
</g>
</g>
<!-- Node10 -->
<g id="Node000010" class="node">
<title>Node10</title>
<g id="a_Node000010"><a xlink:title=" ">
<polygon fill="#e0e0e0" stroke="#999999" points="426,-90.5 376,-90.5 376,-71.5 426,-71.5 426,-90.5"/>
<text text-anchor="middle" x="401" y="-78.5" font-family="Helvetica,sans-Serif" font-size="10.00">chrono</text>
</a>
</g>
</g>
<!-- Node8&#45;&gt;Node10 -->
<g id="edge9_Node000008_Node000010" class="edge">
<title>Node8&#45;&gt;Node10</title>
<g id="a_edge9_Node000008_Node000010"><a xlink:title=" ">
<path fill="none" stroke="#63b8ff" d="M401,-137.37C401,-128.16 401,-113.29 401,-101.27"/>
<polygon fill="#63b8ff" stroke="#63b8ff" points="404.5,-100.91 401,-90.91 397.5,-100.91 404.5,-100.91"/>
</a>
</g>
</g>
<!-- Node11 -->
<g id="Node000011" class="node">
<title>Node11</title>
<g id="a_Node000011"><a xlink:title=" ">
<polygon fill="#e0e0e0" stroke="#999999" points="537.5,-90.5 444.5,-90.5 444.5,-71.5 537.5,-71.5 537.5,-90.5"/>
<text text-anchor="middle" x="491" y="-78.5" font-family="Helvetica,sans-Serif" font-size="10.00">source_location</text>
</a>
</g>
</g>
<!-- Node8&#45;&gt;Node11 -->
<g id="edge10_Node000008_Node000011" class="edge">
<title>Node8&#45;&gt;Node11</title>
<g id="a_edge10_Node000008_Node000011"><a xlink:title=" ">
<path fill="none" stroke="#63b8ff" d="M413.14,-137.37C427.77,-126.97 452.58,-109.32 470.26,-96.75"/>
<polygon fill="#63b8ff" stroke="#63b8ff" points="472.65,-99.35 478.77,-90.7 468.59,-93.64 472.65,-99.35"/>
</a>
</g>
</g>
<!-- Node12 -->
<g id="Node000012" class="node">
<title>Node12</title>
<g id="a_Node000012"><a xlink:title=" ">
<polygon fill="#e0e0e0" stroke="#999999" points="628.5,-90.5 555.5,-90.5 555.5,-71.5 628.5,-71.5 628.5,-90.5"/>
<text text-anchor="middle" x="592" y="-78.5" font-family="Helvetica,sans-Serif" font-size="10.00">string_view</text>
</a>
</g>
</g>
<!-- Node8&#45;&gt;Node12 -->
<g id="edge11_Node000008_Node000012" class="edge">
<title>Node8&#45;&gt;Node12</title>
<g id="a_edge11_Node000008_Node000012"><a xlink:title=" ">
<path fill="none" stroke="#63b8ff" d="M426.76,-137.37C460.32,-126.12 519.13,-106.42 556.79,-93.8"/>
<polygon fill="#63b8ff" stroke="#63b8ff" points="557.97,-97.09 566.34,-90.6 555.75,-90.46 557.97,-97.09"/>
</a>
</g>
</g>
</g>
</svg>
