<?xml version="1.0" encoding="UTF-8" standalone="no"?>
<!DOCTYPE svg PUBLIC "-//W3C//DTD SVG 1.1//EN"
 "http://www.w3.org/Graphics/SVG/1.1/DTD/svg11.dtd">
<!-- Generated by graphviz version 2.43.0 (0)
 -->
<!-- Title: Graphical Class Hierarchy Pages: 1 -->
<svg width="694pt" height="326pt"
 viewBox="0.00 0.00 694.00 326.00" xmlns="http://www.w3.org/2000/svg" xmlns:xlink="http://www.w3.org/1999/xlink">
<g id="graph0" class="graph" transform="scale(1 1) rotate(0) translate(4 322)">
<title>Graphical Class Hierarchy</title>
<!-- Node0 -->
<g id="Node000000" class="node">
<title>Node0</title>
<g id="a_Node000000"><a xlink:href="classMayaFlux_1_1Kakshya_1_1DataProcessor.html" target="_top" xlink:title="Interface for processing data within SignalSourceContainer objects.">
<polygon fill="white" stroke="#666666" points="119,-174 0,-174 0,-144 119,-144 119,-174"/>
<text text-anchor="start" x="8" y="-162" font-family="Helvetica,sans-Serif" font-size="10.00">MayaFlux::Kakshya::</text>
<text text-anchor="middle" x="59.5" y="-151" font-family="Helvetica,sans-Serif" font-size="10.00">DataProcessor</text>
</a>
</g>
</g>
<!-- Node1 -->
<g id="Node000001" class="node">
<title>Node1</title>
<g id="a_Node000001"><a xlink:href="classMayaFlux_1_1Kakshya_1_1AudioOutputAccessProcessor.html" target="_top" xlink:title="Default DataProcessor for AudioOutputContainer.">
<polygon fill="white" stroke="#666666" points="313,-318 155,-318 155,-288 313,-288 313,-318"/>
<text text-anchor="start" x="163" y="-306" font-family="Helvetica,sans-Serif" font-size="10.00">MayaFlux::Kakshya::</text>
<text text-anchor="middle" x="234" y="-295" font-family="Helvetica,sans-Serif" font-size="10.00">AudioOutputAccessProcessor</text>
</a>
</g>
</g>
<!-- Node0&#45;&gt;Node1 -->
<g id="edge65_Node000000_Node000001" class="edge">
<title>Node0&#45;&gt;Node1</title>
<g id="a_edge65_Node000000_Node000001"><a xlink:title=" ">
<path fill="none" stroke="#63b8ff" d="M73.5,-183.21C89.29,-210.37 118.42,-253.91 155,-279 160.02,-282.45 165.56,-285.41 171.3,-287.96"/>
<polygon fill="#63b8ff" stroke="#63b8ff" points="76.45,-181.32 68.48,-174.34 70.36,-184.77 76.45,-181.32"/>
</a>
</g>
</g>
<!-- Node2 -->
<g id="Node000002" class="node">
<title>Node2</title>
<g id="a_Node000002"><a xlink:href="classMayaFlux_1_1Kakshya_1_1ContiguousAccessProcessor.html" target="_top" xlink:title=" ">
<polygon fill="white" stroke="#666666" points="310,-270 158,-270 158,-240 310,-240 310,-270"/>
<text text-anchor="start" x="166" y="-258" font-family="Helvetica,sans-Serif" font-size="10.00">MayaFlux::Kakshya::</text>
<text text-anchor="middle" x="234" y="-247" font-family="Helvetica,sans-Serif" font-size="10.00">ContiguousAccessProcessor</text>
</a>
</g>
</g>
<!-- Node0&#45;&gt;Node2 -->
<g id="edge66_Node000000_Node000002" class="edge">
<title>Node0&#45;&gt;Node2</title>
<g id="a_edge66_Node000000_Node000002"><a xlink:title=" ">
<path fill="none" stroke="#63b8ff" d="M84.45,-181.08C102.64,-196.86 128.91,-217.59 155,-231 161.55,-234.37 168.66,-237.36 175.83,-239.98"/>
<polygon fill="#63b8ff" stroke="#63b8ff" points="86.5,-178.22 76.69,-174.22 81.86,-183.47 86.5,-178.22"/>
</a>
</g>
</g>
<!-- Node3 -->
<g id="Node000003" class="node">
<title>Node3</title>
<g id="a_Node000003"><a xlink:href="classMayaFlux_1_1Kakshya_1_1CursorAccessProcessor.html" target="_top" xlink:title="Independent cursor reader for DynamicSoundStream, writing exclusively to a dynamic slot allocated at ...">
<polygon fill="white" stroke="#666666" points="298.5,-222 169.5,-222 169.5,-192 298.5,-192 298.5,-222"/>
<text text-anchor="start" x="177.5" y="-210" font-family="Helvetica,sans-Serif" font-size="10.00">MayaFlux::Kakshya::</text>
<text text-anchor="middle" x="234" y="-199" font-family="Helvetica,sans-Serif" font-size="10.00">CursorAccessProcessor</text>
</a>
</g>
</g>
<!-- Node0&#45;&gt;Node3 -->
<g id="edge67_Node000000_Node000003" class="edge">
<title>Node0&#45;&gt;Node3</title>
<g id="a_edge67_Node000000_Node000003"><a xlink:title=" ">
<path fill="none" stroke="#63b8ff" d="M124.43,-176.79C142.4,-181.79 161.76,-187.18 179.09,-192"/>
<polygon fill="#63b8ff" stroke="#63b8ff" points="125.18,-173.36 114.61,-174.06 123.3,-180.11 125.18,-173.36"/>
</a>
</g>
</g>
<!-- Node4 -->
<g id="Node000004" class="node">
<title>Node4</title>
<g id="a_Node000004"><a xlink:href="classMayaFlux_1_1Kakshya_1_1FrameAccessProcessor.html" target="_top" xlink:title=" ">
<polygon fill="white" stroke="#666666" points="298,-174 170,-174 170,-144 298,-144 298,-174"/>
<text text-anchor="start" x="178" y="-162" font-family="Helvetica,sans-Serif" font-size="10.00">MayaFlux::Kakshya::</text>
<text text-anchor="middle" x="234" y="-151" font-family="Helvetica,sans-Serif" font-size="10.00">FrameAccessProcessor</text>
</a>
</g>
</g>
<!-- Node0&#45;&gt;Node4 -->
<g id="edge68_Node000000_Node000004" class="edge">
<title>Node0&#45;&gt;Node4</title>
<g id="a_edge68_Node000000_Node000004"><a xlink:title=" ">
<path fill="none" stroke="#63b8ff" d="M129.47,-159C142.84,-159 156.79,-159 169.96,-159"/>
<polygon fill="#63b8ff" stroke="#63b8ff" points="129.38,-155.5 119.38,-159 129.38,-162.5 129.38,-155.5"/>
</a>
</g>
</g>
<!-- Node5 -->
<g id="Node000005" class="node">
<title>Node5</title>
<g id="a_Node000005"><a xlink:href="classMayaFlux_1_1Kakshya_1_1PlotProcessor.html" target="_top" xlink:title="DataProcessor that acquires per&#45;series data from heterogeneous sources and writes into PlotContainer:...">
<polygon fill="white" stroke="#666666" points="293.5,-126 174.5,-126 174.5,-96 293.5,-96 293.5,-126"/>
<text text-anchor="start" x="182.5" y="-114" font-family="Helvetica,sans-Serif" font-size="10.00">MayaFlux::Kakshya::</text>
<text text-anchor="middle" x="234" y="-103" font-family="Helvetica,sans-Serif" font-size="10.00">PlotProcessor</text>
</a>
</g>
</g>
<!-- Node0&#45;&gt;Node5 -->
<g id="edge69_Node000000_Node000005" class="edge">
<title>Node0&#45;&gt;Node5</title>
<g id="a_edge69_Node000000_Node000005"><a xlink:title=" ">
<path fill="none" stroke="#63b8ff" d="M124.43,-141.21C142.4,-136.21 161.76,-130.82 179.09,-126"/>
<polygon fill="#63b8ff" stroke="#63b8ff" points="123.3,-137.89 114.61,-143.94 125.18,-144.64 123.3,-137.89"/>
</a>
</g>
</g>
<!-- Node6 -->
<g id="Node000006" class="node">
<title>Node6</title>
<g id="a_Node000006"><a xlink:href="classMayaFlux_1_1Kakshya_1_1RegionProcessorBase.html" target="_top" xlink:title="Base class for N&#45;dimensional region processors.">
<polygon fill="white" stroke="#666666" points="295,-78 173,-78 173,-48 295,-48 295,-78"/>
<text text-anchor="start" x="181" y="-66" font-family="Helvetica,sans-Serif" font-size="10.00">MayaFlux::Kakshya::</text>
<text text-anchor="middle" x="234" y="-55" font-family="Helvetica,sans-Serif" font-size="10.00">RegionProcessorBase</text>
</a>
</g>
</g>
<!-- Node0&#45;&gt;Node6 -->
<g id="edge70_Node000000_Node000006" class="edge">
<title>Node0&#45;&gt;Node6</title>
<g id="a_edge70_Node000000_Node000006"><a xlink:title=" ">
<path fill="none" stroke="#63b8ff" d="M84.45,-136.92C102.64,-121.14 128.91,-100.41 155,-87 161.55,-83.63 168.66,-80.64 175.83,-78.02"/>
<polygon fill="#63b8ff" stroke="#63b8ff" points="81.86,-134.53 76.69,-143.78 86.5,-139.78 81.86,-134.53"/>
</a>
</g>
</g>
<!-- Node10 -->
<g id="Node000010" class="node">
<title>Node10</title>
<g id="a_Node000010"><a xlink:href="classMayaFlux_1_1Kakshya_1_1WindowAccessProcessor.html" target="_top" xlink:title="Default DataProcessor for WindowContainer.">
<polygon fill="white" stroke="#666666" points="302.5,-30 165.5,-30 165.5,0 302.5,0 302.5,-30"/>
<text text-anchor="start" x="173.5" y="-18" font-family="Helvetica,sans-Serif" font-size="10.00">MayaFlux::Kakshya::</text>
<text text-anchor="middle" x="234" y="-7" font-family="Helvetica,sans-Serif" font-size="10.00">WindowAccessProcessor</text>
</a>
</g>
</g>
<!-- Node0&#45;&gt;Node10 -->
<g id="edge74_Node000000_Node000010" class="edge">
<title>Node0&#45;&gt;Node10</title>
<g id="a_edge74_Node000000_Node000010"><a xlink:title=" ">
<path fill="none" stroke="#63b8ff" d="M73.5,-134.79C89.29,-107.63 118.42,-64.09 155,-39 160.02,-35.55 165.56,-32.59 171.3,-30.04"/>
<polygon fill="#63b8ff" stroke="#63b8ff" points="70.36,-133.23 68.48,-143.66 76.45,-136.68 70.36,-133.23"/>
</a>
</g>
</g>
<!-- Node7 -->
<g id="Node000007" class="node">
<title>Node7</title>
<g id="a_Node000007"><a xlink:href="classMayaFlux_1_1Kakshya_1_1RegionOrganizationProcessor.html" target="_top" xlink:title="Data&#45;driven processor for organizing and processing non&#45;linear audio regions.">
<polygon fill="white" stroke="#666666" points="509,-102 349,-102 349,-72 509,-72 509,-102"/>
<text text-anchor="start" x="357" y="-90" font-family="Helvetica,sans-Serif" font-size="10.00">MayaFlux::Kakshya::</text>
<text text-anchor="middle" x="429" y="-79" font-family="Helvetica,sans-Serif" font-size="10.00">RegionOrganizationProcessor</text>
</a>
</g>
</g>
<!-- Node6&#45;&gt;Node7 -->
<g id="edge71_Node000006_Node000007" class="edge">
<title>Node6&#45;&gt;Node7</title>
<g id="a_edge71_Node000006_Node000007"><a xlink:title=" ">
<path fill="none" stroke="#63b8ff" d="M305.18,-71.73C319.37,-73.49 334.38,-75.36 348.86,-77.16"/>
<polygon fill="#63b8ff" stroke="#63b8ff" points="305.36,-68.22 295.01,-70.46 304.5,-75.17 305.36,-68.22"/>
</a>
</g>
</g>
<!-- Node9 -->
<g id="Node000009" class="node">
<title>Node9</title>
<g id="a_Node000009"><a xlink:href="classMayaFlux_1_1Kakshya_1_1SpatialRegionProcessor.html" target="_top" xlink:title="Parallel spatial extraction processor for image&#45;modality containers.">
<polygon fill="white" stroke="#666666" points="494.5,-54 363.5,-54 363.5,-24 494.5,-24 494.5,-54"/>
<text text-anchor="start" x="371.5" y="-42" font-family="Helvetica,sans-Serif" font-size="10.00">MayaFlux::Kakshya::</text>
<text text-anchor="middle" x="429" y="-31" font-family="Helvetica,sans-Serif" font-size="10.00">SpatialRegionProcessor</text>
</a>
</g>
</g>
<!-- Node6&#45;&gt;Node9 -->
<g id="edge73_Node000006_Node000009" class="edge">
<title>Node6&#45;&gt;Node9</title>
<g id="a_edge73_Node000006_Node000009"><a xlink:title=" ">
<path fill="none" stroke="#63b8ff" d="M305.1,-54.28C324.13,-51.92 344.63,-49.37 363.34,-47.04"/>
<polygon fill="#63b8ff" stroke="#63b8ff" points="304.5,-50.83 295.01,-55.54 305.36,-57.78 304.5,-50.83"/>
</a>
</g>
</g>
<!-- Node8 -->
<g id="Node000008" class="node">
<title>Node8</title>
<g id="a_Node000008"><a xlink:href="classMayaFlux_1_1Kakshya_1_1DynamicRegionProcessor.html" target="_top" xlink:title="Extends RegionOrganizationProcessor with dynamic, runtime reorganization capabilities.">
<polygon fill="white" stroke="#666666" points="686,-102 545,-102 545,-72 686,-72 686,-102"/>
<text text-anchor="start" x="553" y="-90" font-family="Helvetica,sans-Serif" font-size="10.00">MayaFlux::Kakshya::</text>
<text text-anchor="middle" x="615.5" y="-79" font-family="Helvetica,sans-Serif" font-size="10.00">DynamicRegionProcessor</text>
</a>
</g>
</g>
<!-- Node7&#45;&gt;Node8 -->
<g id="edge72_Node000007_Node000008" class="edge">
<title>Node7&#45;&gt;Node8</title>
<g id="a_edge72_Node000007_Node000008"><a xlink:title=" ">
<path fill="none" stroke="#63b8ff" d="M519.17,-87C527.82,-87 536.51,-87 544.93,-87"/>
<polygon fill="#63b8ff" stroke="#63b8ff" points="519.05,-83.5 509.05,-87 519.05,-90.5 519.05,-83.5"/>
</a>
</g>
</g>
</g>
</svg>
