<?xml version="1.0" encoding="UTF-8" standalone="no"?>
<!DOCTYPE svg PUBLIC "-//W3C//DTD SVG 1.1//EN"
 "http://www.w3.org/Graphics/SVG/1.1/DTD/svg11.dtd">
<!-- Generated by graphviz version 2.43.0 (0)
 -->
<!-- Title: InkPress.cpp Pages: 1 -->
<svg width="1234pt" height="588pt"
 viewBox="0.00 0.00 1234.00 588.00" xmlns="http://www.w3.org/2000/svg" xmlns:xlink="http://www.w3.org/1999/xlink">
<g id="graph0" class="graph" transform="scale(1 1) rotate(0) translate(4 584)">
<title>InkPress.cpp</title>
<!-- Node1 -->
<g id="Node000001" class="node">
<title>Node1</title>
<g id="a_Node000001"><a xlink:title=" ">
<polygon fill="#999999" stroke="#666666" points="698.5,-580 620.5,-580 620.5,-561 698.5,-561 698.5,-580"/>
<text text-anchor="middle" x="659.5" y="-568" font-family="Helvetica,sans-Serif" font-size="10.00">InkPress.cpp</text>
</a>
</g>
</g>
<!-- Node2 -->
<g id="Node000002" class="node">
<title>Node2</title>
<g id="a_Node000002"><a xlink:href="InkPress_8hpp.html" target="_top" xlink:title=" ">
<polygon fill="white" stroke="#666666" points="649,-525 570,-525 570,-506 649,-506 649,-525"/>
<text text-anchor="middle" x="609.5" y="-513" font-family="Helvetica,sans-Serif" font-size="10.00">InkPress.hpp</text>
</a>
</g>
</g>
<!-- Node1&#45;&gt;Node2 -->
<g id="edge1_Node000001_Node000002" class="edge">
<title>Node1&#45;&gt;Node2</title>
<g id="a_edge1_Node000001_Node000002"><a xlink:title=" ">
<path fill="none" stroke="#63b8ff" d="M651.24,-560.75C644.04,-553.11 633.39,-541.82 624.65,-532.56"/>
<polygon fill="#63b8ff" stroke="#63b8ff" points="627.01,-529.96 617.6,-525.09 621.92,-534.76 627.01,-529.96"/>
</a>
</g>
</g>
<!-- Node8 -->
<g id="Node000008" class="node">
<title>Node8</title>
<g id="a_Node000008"><a xlink:href="TextureContainer_8hpp.html" target="_top" xlink:title=" ">
<polygon fill="white" stroke="#666666" points="885.5,-272 739.5,-272 739.5,-242 885.5,-242 885.5,-272"/>
<text text-anchor="start" x="747.5" y="-260" font-family="Helvetica,sans-Serif" font-size="10.00">MayaFlux/Kakshya/Source</text>
<text text-anchor="middle" x="812.5" y="-249" font-family="Helvetica,sans-Serif" font-size="10.00">/TextureContainer.hpp</text>
</a>
</g>
</g>
<!-- Node1&#45;&gt;Node8 -->
<g id="edge53_Node000001_Node000008" class="edge">
<title>Node1&#45;&gt;Node8</title>
<g id="a_edge53_Node000001_Node000008"><a xlink:title=" ">
<path fill="none" stroke="#63b8ff" d="M663.75,-560.84C683.86,-519.9 769.77,-345 801.05,-281.31"/>
<polygon fill="#63b8ff" stroke="#63b8ff" points="804.32,-282.6 805.58,-272.08 798.03,-279.52 804.32,-282.6"/>
</a>
</g>
</g>
<!-- Node13 -->
<g id="Node000013" class="node">
<title>Node13</title>
<g id="a_Node000013"><a xlink:href="GraphicsUtils_8hpp.html" target="_top" xlink:title=" ">
<polygon fill="white" stroke="#666666" points="723.5,-206 581.5,-206 581.5,-176 723.5,-176 723.5,-206"/>
<text text-anchor="start" x="589.5" y="-194" font-family="Helvetica,sans-Serif" font-size="10.00">MayaFlux/Portal/Graphics</text>
<text text-anchor="middle" x="652.5" y="-183" font-family="Helvetica,sans-Serif" font-size="10.00">/GraphicsUtils.hpp</text>
</a>
</g>
</g>
<!-- Node1&#45;&gt;Node13 -->
<g id="edge54_Node000001_Node000013" class="edge">
<title>Node1&#45;&gt;Node13</title>
<g id="a_edge54_Node000001_Node000013"><a xlink:title=" ">
<path fill="none" stroke="#63b8ff" d="M663.25,-560.94C670.44,-543.98 685.96,-504.76 691.5,-470 707.45,-369.93 726.04,-337.62 692.5,-242 688.86,-231.62 682.05,-221.78 675.07,-213.63"/>
<polygon fill="#63b8ff" stroke="#63b8ff" points="677.48,-211.09 668.14,-206.08 672.32,-215.82 677.48,-211.09"/>
</a>
</g>
</g>
<!-- Node31 -->
<g id="Node000031" class="node">
<title>Node31</title>
<g id="a_Node000031"><a xlink:href="TypeFaceFoundry_8hpp.html" target="_top" xlink:title=" ">
<polygon fill="white" stroke="#666666" points="148,-398.5 29,-398.5 29,-379.5 148,-379.5 148,-398.5"/>
<text text-anchor="middle" x="88.5" y="-386.5" font-family="Helvetica,sans-Serif" font-size="10.00">TypeFaceFoundry.hpp</text>
</a>
</g>
</g>
<!-- Node1&#45;&gt;Node31 -->
<g id="edge41_Node000001_Node000031" class="edge">
<title>Node1&#45;&gt;Node31</title>
<g id="a_edge41_Node000001_Node000031"><a xlink:title=" ">
<path fill="none" stroke="#63b8ff" d="M620.38,-564.31C573.83,-557.6 494.03,-544.44 427.5,-525 308.18,-490.14 172.62,-429.41 115.81,-402.94"/>
<polygon fill="#63b8ff" stroke="#63b8ff" points="116.99,-399.63 106.45,-398.56 114.02,-405.97 116.99,-399.63"/>
</a>
</g>
</g>
<!-- Node32 -->
<g id="Node000032" class="node">
<title>Node32</title>
<g id="a_Node000032"><a xlink:href="TypeSetter_8hpp.html" target="_top" xlink:title=" ">
<polygon fill="white" stroke="#666666" points="526,-525 437,-525 437,-506 526,-506 526,-525"/>
<text text-anchor="middle" x="481.5" y="-513" font-family="Helvetica,sans-Serif" font-size="10.00">TypeSetter.hpp</text>
</a>
</g>
</g>
<!-- Node1&#45;&gt;Node32 -->
<g id="edge44_Node000001_Node000032" class="edge">
<title>Node1&#45;&gt;Node32</title>
<g id="a_edge44_Node000001_Node000032"><a xlink:title=" ">
<path fill="none" stroke="#63b8ff" d="M630.9,-560.98C600.89,-552.05 553.52,-537.94 520.18,-528.02"/>
<polygon fill="#63b8ff" stroke="#63b8ff" points="520.91,-524.58 510.32,-525.08 518.91,-531.29 520.91,-524.58"/>
</a>
</g>
</g>
<!-- Node33 -->
<g id="Node000033" class="node">
<title>Node33</title>
<g id="a_Node000033"><a xlink:href="Archivist_8hpp.html" target="_top" xlink:title=" ">
<polygon fill="white" stroke="#666666" points="1060.5,-525 892.5,-525 892.5,-506 1060.5,-506 1060.5,-525"/>
<text text-anchor="middle" x="976.5" y="-513" font-family="Helvetica,sans-Serif" font-size="10.00">MayaFlux/Journal/Archivist.hpp</text>
</a>
</g>
</g>
<!-- Node1&#45;&gt;Node33 -->
<g id="edge46_Node000001_Node000033" class="edge">
<title>Node1&#45;&gt;Node33</title>
<g id="a_edge46_Node000001_Node000033"><a xlink:title=" ">
<path fill="none" stroke="#63b8ff" d="M698.69,-562.95C753.01,-553.87 851.73,-537.36 915.68,-526.67"/>
<polygon fill="#63b8ff" stroke="#63b8ff" points="916.34,-530.11 925.63,-525.01 915.19,-523.2 916.34,-530.11"/>
</a>
</g>
</g>
<!-- Node3 -->
<g id="Node000003" class="node">
<title>Node3</title>
<g id="a_Node000003"><a xlink:href="GlyphAtlas_8hpp.html" target="_top" xlink:title=" ">
<polygon fill="white" stroke="#666666" points="501,-464.5 410,-464.5 410,-445.5 501,-445.5 501,-464.5"/>
<text text-anchor="middle" x="455.5" y="-452.5" font-family="Helvetica,sans-Serif" font-size="10.00">GlyphAtlas.hpp</text>
</a>
</g>
</g>
<!-- Node2&#45;&gt;Node3 -->
<g id="edge2_Node000002_Node000003" class="edge">
<title>Node2&#45;&gt;Node3</title>
<g id="a_edge2_Node000002_Node000003"><a xlink:title=" ">
<path fill="none" stroke="#63b8ff" d="M587.11,-505.99C560.88,-496.03 517.22,-479.45 487.44,-468.13"/>
<polygon fill="#63b8ff" stroke="#63b8ff" points="488.51,-464.8 477.92,-464.52 486.03,-471.34 488.51,-464.8"/>
</a>
</g>
</g>
<!-- Node19 -->
<g id="Node000019" class="node">
<title>Node19</title>
<g id="a_Node000019"><a xlink:href="TextBuffer_8hpp.html" target="_top" xlink:title=" ">
<polygon fill="white" stroke="#666666" points="682.5,-470 536.5,-470 536.5,-440 682.5,-440 682.5,-470"/>
<text text-anchor="start" x="544.5" y="-458" font-family="Helvetica,sans-Serif" font-size="10.00">MayaFlux/Buffers/Textures</text>
<text text-anchor="middle" x="609.5" y="-447" font-family="Helvetica,sans-Serif" font-size="10.00">/TextBuffer.hpp</text>
</a>
</g>
</g>
<!-- Node2&#45;&gt;Node19 -->
<g id="edge21_Node000002_Node000019" class="edge">
<title>Node2&#45;&gt;Node19</title>
<g id="a_edge21_Node000002_Node000019"><a xlink:title=" ">
<path fill="none" stroke="#63b8ff" d="M609.5,-505.87C609.5,-499.11 609.5,-489.35 609.5,-480.26"/>
<polygon fill="#63b8ff" stroke="#63b8ff" points="613,-480.11 609.5,-470.11 606,-480.11 613,-480.11"/>
</a>
</g>
</g>
<!-- Node4 -->
<g id="Node000004" class="node">
<title>Node4</title>
<g id="a_Node000004"><a xlink:href="FontFace_8hpp.html" target="_top" xlink:title=" ">
<polygon fill="white" stroke="#666666" points="246.5,-398.5 166.5,-398.5 166.5,-379.5 246.5,-379.5 246.5,-398.5"/>
<text text-anchor="middle" x="206.5" y="-386.5" font-family="Helvetica,sans-Serif" font-size="10.00">FontFace.hpp</text>
</a>
</g>
</g>
<!-- Node3&#45;&gt;Node4 -->
<g id="edge3_Node000003_Node000004" class="edge">
<title>Node3&#45;&gt;Node4</title>
<g id="a_edge3_Node000003_Node000004"><a xlink:title=" ">
<path fill="none" stroke="#63b8ff" d="M419.64,-445.42C379.54,-435.73 312.72,-419.32 255.5,-404 252.3,-403.14 248.98,-402.23 245.65,-401.31"/>
<polygon fill="#63b8ff" stroke="#63b8ff" points="246.31,-397.86 235.73,-398.53 244.41,-404.6 246.31,-397.86"/>
</a>
</g>
</g>
<!-- Node5 -->
<g id="Node000005" class="node">
<title>Node5</title>
<g id="a_Node000005"><a xlink:title=" ">
<polygon fill="#e0e0e0" stroke="#999999" points="237.5,-332.5 175.5,-332.5 175.5,-313.5 237.5,-313.5 237.5,-332.5"/>
<text text-anchor="middle" x="206.5" y="-320.5" font-family="Helvetica,sans-Serif" font-size="10.00">ft2build.h</text>
</a>
</g>
</g>
<!-- Node3&#45;&gt;Node5 -->
<g id="edge16_Node000003_Node000005" class="edge">
<title>Node3&#45;&gt;Node5</title>
<g id="a_edge16_Node000003_Node000005"><a xlink:title=" ">
<path fill="none" stroke="#63b8ff" d="M469.13,-445.36C491.49,-430.17 531.45,-398 510.5,-374 471.56,-329.39 304.07,-351.85 246.5,-338 243.68,-337.32 240.79,-336.52 237.9,-335.65"/>
<polygon fill="#63b8ff" stroke="#63b8ff" points="238.86,-332.28 228.27,-332.51 236.69,-338.94 238.86,-332.28"/>
</a>
</g>
</g>
<!-- Node6 -->
<g id="Node000006" class="node">
<title>Node6</title>
<g id="a_Node000006"><a xlink:title=" ">
<polygon fill="#e0e0e0" stroke="#999999" points="95,-332.5 0,-332.5 0,-313.5 95,-313.5 95,-332.5"/>
<text text-anchor="middle" x="47.5" y="-320.5" font-family="Helvetica,sans-Serif" font-size="10.00">FT_FREETYPE_H</text>
</a>
</g>
</g>
<!-- Node3&#45;&gt;Node6 -->
<g id="edge17_Node000003_Node000006" class="edge">
<title>Node3&#45;&gt;Node6</title>
<g id="a_edge17_Node000003_Node000006"><a xlink:title=" ">
<path fill="none" stroke="#63b8ff" d="M409.7,-452.13C303.04,-447.32 45.17,-432.79 19.5,-404 3.49,-386.04 19.35,-358.39 32.9,-340.75"/>
<polygon fill="#63b8ff" stroke="#63b8ff" points="35.99,-342.51 39.6,-332.55 30.57,-338.08 35.99,-342.51"/>
</a>
</g>
</g>
<!-- Node3&#45;&gt;Node8 -->
<g id="edge7_Node000003_Node000008" class="edge">
<title>Node3&#45;&gt;Node8</title>
<g id="a_edge7_Node000003_Node000008"><a xlink:title=" ">
<path fill="none" stroke="#63b8ff" d="M497.9,-445.42C555.92,-433.48 654.62,-412.37 669.5,-404 698.53,-387.66 761.92,-316.72 793.64,-280.09"/>
<polygon fill="#63b8ff" stroke="#63b8ff" points="796.39,-282.26 800.26,-272.4 791.08,-277.69 796.39,-282.26"/>
</a>
</g>
</g>
<!-- Node16 -->
<g id="Node000016" class="node">
<title>Node16</title>
<g id="a_Node000016"><a xlink:title=" ">
<polygon fill="#e0e0e0" stroke="#999999" points="314.5,-398.5 264.5,-398.5 264.5,-379.5 314.5,-379.5 314.5,-398.5"/>
<text text-anchor="middle" x="289.5" y="-386.5" font-family="Helvetica,sans-Serif" font-size="10.00">cstdint</text>
</a>
</g>
</g>
<!-- Node3&#45;&gt;Node16 -->
<g id="edge18_Node000003_Node000016" class="edge">
<title>Node3&#45;&gt;Node16</title>
<g id="a_edge18_Node000003_Node000016"><a xlink:title=" ">
<path fill="none" stroke="#63b8ff" d="M432.05,-445.35C405.6,-435.54 361.33,-418.95 323.5,-404 322.13,-403.46 320.72,-402.9 319.31,-402.33"/>
<polygon fill="#63b8ff" stroke="#63b8ff" points="320.54,-399.05 309.96,-398.53 317.91,-405.54 320.54,-399.05"/>
</a>
</g>
</g>
<!-- Node17 -->
<g id="Node000017" class="node">
<title>Node17</title>
<g id="a_Node000017"><a xlink:title=" ">
<polygon fill="#e0e0e0" stroke="#999999" points="390.5,-398.5 332.5,-398.5 332.5,-379.5 390.5,-379.5 390.5,-398.5"/>
<text text-anchor="middle" x="361.5" y="-386.5" font-family="Helvetica,sans-Serif" font-size="10.00">memory</text>
</a>
</g>
</g>
<!-- Node3&#45;&gt;Node17 -->
<g id="edge19_Node000003_Node000017" class="edge">
<title>Node3&#45;&gt;Node17</title>
<g id="a_edge19_Node000003_Node000017"><a xlink:title=" ">
<path fill="none" stroke="#63b8ff" d="M442.82,-445.37C427.41,-434.87 401.15,-417 382.65,-404.4"/>
<polygon fill="#63b8ff" stroke="#63b8ff" points="384.51,-401.43 374.28,-398.7 380.57,-407.22 384.51,-401.43"/>
</a>
</g>
</g>
<!-- Node18 -->
<g id="Node000018" class="node">
<title>Node18</title>
<g id="a_Node000018"><a xlink:title=" ">
<polygon fill="#e0e0e0" stroke="#999999" points="502,-398.5 409,-398.5 409,-379.5 502,-379.5 502,-398.5"/>
<text text-anchor="middle" x="455.5" y="-386.5" font-family="Helvetica,sans-Serif" font-size="10.00">unordered_map</text>
</a>
</g>
</g>
<!-- Node3&#45;&gt;Node18 -->
<g id="edge20_Node000003_Node000018" class="edge">
<title>Node3&#45;&gt;Node18</title>
<g id="a_edge20_Node000003_Node000018"><a xlink:title=" ">
<path fill="none" stroke="#63b8ff" d="M455.5,-445.37C455.5,-436.16 455.5,-421.29 455.5,-409.27"/>
<polygon fill="#63b8ff" stroke="#63b8ff" points="459,-408.91 455.5,-398.91 452,-408.91 459,-408.91"/>
</a>
</g>
</g>
<!-- Node4&#45;&gt;Node5 -->
<g id="edge4_Node000004_Node000005" class="edge">
<title>Node4&#45;&gt;Node5</title>
<g id="a_edge4_Node000004_Node000005"><a xlink:title=" ">
<path fill="none" stroke="#63b8ff" d="M206.5,-379.37C206.5,-370.16 206.5,-355.29 206.5,-343.27"/>
<polygon fill="#63b8ff" stroke="#63b8ff" points="210,-342.91 206.5,-332.91 203,-342.91 210,-342.91"/>
</a>
</g>
</g>
<!-- Node4&#45;&gt;Node6 -->
<g id="edge5_Node000004_Node000006" class="edge">
<title>Node4&#45;&gt;Node6</title>
<g id="a_edge5_Node000004_Node000006"><a xlink:title=" ">
<path fill="none" stroke="#63b8ff" d="M185.06,-379.37C157.6,-368.32 109.82,-349.08 78.43,-336.45"/>
<polygon fill="#63b8ff" stroke="#63b8ff" points="79.44,-333.08 68.86,-332.6 76.83,-339.58 79.44,-333.08"/>
</a>
</g>
</g>
<!-- Node7 -->
<g id="Node000007" class="node">
<title>Node7</title>
<g id="a_Node000007"><a xlink:title=" ">
<polygon fill="#e0e0e0" stroke="#999999" points="157.5,-332.5 113.5,-332.5 113.5,-313.5 157.5,-313.5 157.5,-332.5"/>
<text text-anchor="middle" x="135.5" y="-320.5" font-family="Helvetica,sans-Serif" font-size="10.00">string</text>
</a>
</g>
</g>
<!-- Node4&#45;&gt;Node7 -->
<g id="edge6_Node000004_Node000007" class="edge">
<title>Node4&#45;&gt;Node7</title>
<g id="a_edge6_Node000004_Node000007"><a xlink:title=" ">
<path fill="none" stroke="#63b8ff" d="M196.92,-379.37C185.66,-369.21 166.74,-352.16 152.87,-339.65"/>
<polygon fill="#63b8ff" stroke="#63b8ff" points="155.15,-337 145.38,-332.91 150.46,-342.2 155.15,-337"/>
</a>
</g>
</g>
<!-- Node9 -->
<g id="Node000009" class="node">
<title>Node9</title>
<g id="a_Node000009"><a xlink:href="SignalSourceContainer_8hpp.html" target="_top" xlink:title=" ">
<polygon fill="white" stroke="#666666" points="1081.5,-206 905.5,-206 905.5,-176 1081.5,-176 1081.5,-206"/>
<text text-anchor="start" x="913.5" y="-194" font-family="Helvetica,sans-Serif" font-size="10.00">MayaFlux/Kakshya/SignalSource</text>
<text text-anchor="middle" x="993.5" y="-183" font-family="Helvetica,sans-Serif" font-size="10.00">Container.hpp</text>
</a>
</g>
</g>
<!-- Node8&#45;&gt;Node9 -->
<g id="edge8_Node000008_Node000009" class="edge">
<title>Node8&#45;&gt;Node9</title>
<g id="a_edge8_Node000008_Node000009"><a xlink:title=" ">
<path fill="none" stroke="#63b8ff" d="M852.22,-241.95C879.33,-232.37 915.44,-219.6 944.36,-209.37"/>
<polygon fill="#63b8ff" stroke="#63b8ff" points="945.61,-212.65 953.87,-206.01 943.28,-206.05 945.61,-212.65"/>
</a>
</g>
</g>
<!-- Node8&#45;&gt;Node13 -->
<g id="edge12_Node000008_Node000013" class="edge">
<title>Node8&#45;&gt;Node13</title>
<g id="a_edge12_Node000008_Node000013"><a xlink:title=" ">
<path fill="none" stroke="#63b8ff" d="M777.39,-241.95C753.73,-232.49 722.34,-219.93 696.94,-209.78"/>
<polygon fill="#63b8ff" stroke="#63b8ff" points="698.12,-206.48 687.53,-206.01 695.52,-212.98 698.12,-206.48"/>
</a>
</g>
</g>
<!-- Node14 -->
<g id="Node000014" class="node">
<title>Node14</title>
<g id="a_Node000014"><a xlink:href="RegionGroup_8hpp.html" target="_top" xlink:title=" ">
<polygon fill="white" stroke="#666666" points="887.5,-206 741.5,-206 741.5,-176 887.5,-176 887.5,-206"/>
<text text-anchor="start" x="749.5" y="-194" font-family="Helvetica,sans-Serif" font-size="10.00">MayaFlux/Kakshya/Region</text>
<text text-anchor="middle" x="814.5" y="-183" font-family="Helvetica,sans-Serif" font-size="10.00">/RegionGroup.hpp</text>
</a>
</g>
</g>
<!-- Node8&#45;&gt;Node14 -->
<g id="edge13_Node000008_Node000014" class="edge">
<title>Node8&#45;&gt;Node14</title>
<g id="a_edge13_Node000008_Node000014"><a xlink:title=" ">
<path fill="none" stroke="#63b8ff" d="M812.94,-241.8C813.18,-234.34 813.47,-224.99 813.74,-216.41"/>
<polygon fill="#63b8ff" stroke="#63b8ff" points="817.24,-216.27 814.06,-206.16 810.25,-216.05 817.24,-216.27"/>
</a>
</g>
</g>
<!-- Node10 -->
<g id="Node000010" class="node">
<title>Node10</title>
<g id="a_Node000010"><a xlink:href="NDimensionalContainer_8hpp.html" target="_top" xlink:title=" ">
<polygon fill="white" stroke="#666666" points="996,-134.5 843,-134.5 843,-115.5 996,-115.5 996,-134.5"/>
<text text-anchor="middle" x="919.5" y="-122.5" font-family="Helvetica,sans-Serif" font-size="10.00">NDimensionalContainer.hpp</text>
</a>
</g>
</g>
<!-- Node9&#45;&gt;Node10 -->
<g id="edge9_Node000009_Node000010" class="edge">
<title>Node9&#45;&gt;Node10</title>
<g id="a_edge9_Node000009_Node000010"><a xlink:title=" ">
<path fill="none" stroke="#63b8ff" d="M977.08,-175.8C965.31,-165.62 949.48,-151.93 937.4,-141.48"/>
<polygon fill="#63b8ff" stroke="#63b8ff" points="939.58,-138.74 929.73,-134.84 935,-144.03 939.58,-138.74"/>
</a>
</g>
</g>
<!-- Node11 -->
<g id="Node000011" class="node">
<title>Node11</title>
<g id="a_Node000011"><a xlink:href="NDData_8hpp.html" target="_top" xlink:title=" ">
<polygon fill="white" stroke="#666666" points="644,-74 527,-74 527,-55 644,-55 644,-74"/>
<text text-anchor="middle" x="585.5" y="-62" font-family="Helvetica,sans-Serif" font-size="10.00">NDData/NDData.hpp</text>
</a>
</g>
</g>
<!-- Node10&#45;&gt;Node11 -->
<g id="edge10_Node000010_Node000011" class="edge">
<title>Node10&#45;&gt;Node11</title>
<g id="a_edge10_Node000010_Node000011"><a xlink:title=" ">
<path fill="none" stroke="#63b8ff" d="M870.93,-115.49C810.83,-104.97 708.54,-87.05 644.13,-75.77"/>
<polygon fill="#63b8ff" stroke="#63b8ff" points="644.58,-72.29 634.13,-74.02 643.37,-79.19 644.58,-72.29"/>
</a>
</g>
</g>
<!-- Node12 -->
<g id="Node000012" class="node">
<title>Node12</title>
<g id="a_Node000012"><a xlink:title=" ">
<polygon fill="#e0e0e0" stroke="#999999" points="624.5,-19 546.5,-19 546.5,0 624.5,0 624.5,-19"/>
<text text-anchor="middle" x="585.5" y="-7" font-family="Helvetica,sans-Serif" font-size="10.00">glm/glm.hpp</text>
</a>
</g>
</g>
<!-- Node11&#45;&gt;Node12 -->
<g id="edge11_Node000011_Node000012" class="edge">
<title>Node11&#45;&gt;Node12</title>
<g id="a_edge11_Node000011_Node000012"><a xlink:title=" ">
<path fill="none" stroke="#63b8ff" d="M585.5,-54.75C585.5,-47.8 585.5,-37.85 585.5,-29.13"/>
<polygon fill="#63b8ff" stroke="#63b8ff" points="589,-29.09 585.5,-19.09 582,-29.09 589,-29.09"/>
</a>
</g>
</g>
<!-- Node15 -->
<g id="Node000015" class="node">
<title>Node15</title>
<g id="a_Node000015"><a xlink:href="Region_8hpp.html" target="_top" xlink:title=" ">
<polygon fill="white" stroke="#666666" points="751,-134.5 680,-134.5 680,-115.5 751,-115.5 751,-134.5"/>
<text text-anchor="middle" x="715.5" y="-122.5" font-family="Helvetica,sans-Serif" font-size="10.00">Region.hpp</text>
</a>
</g>
</g>
<!-- Node14&#45;&gt;Node15 -->
<g id="edge14_Node000014_Node000015" class="edge">
<title>Node14&#45;&gt;Node15</title>
<g id="a_edge14_Node000014_Node000015"><a xlink:title=" ">
<path fill="none" stroke="#63b8ff" d="M792.53,-175.8C776.09,-165.17 753.71,-150.7 737.31,-140.1"/>
<polygon fill="#63b8ff" stroke="#63b8ff" points="739.19,-137.15 728.89,-134.66 735.39,-143.03 739.19,-137.15"/>
</a>
</g>
</g>
<!-- Node15&#45;&gt;Node11 -->
<g id="edge15_Node000015_Node000011" class="edge">
<title>Node15&#45;&gt;Node11</title>
<g id="a_edge15_Node000015_Node000011"><a xlink:title=" ">
<path fill="none" stroke="#63b8ff" d="M696.6,-115.49C674.84,-105.7 638.88,-89.52 613.79,-78.23"/>
<polygon fill="#63b8ff" stroke="#63b8ff" points="614.98,-74.93 604.43,-74.02 612.11,-81.31 614.98,-74.93"/>
</a>
</g>
</g>
<!-- Node20 -->
<g id="Node000020" class="node">
<title>Node20</title>
<g id="a_Node000020"><a xlink:href="TextureBuffer_8hpp.html" target="_top" xlink:title=" ">
<polygon fill="white" stroke="#666666" points="660.5,-398.5 558.5,-398.5 558.5,-379.5 660.5,-379.5 660.5,-398.5"/>
<text text-anchor="middle" x="609.5" y="-386.5" font-family="Helvetica,sans-Serif" font-size="10.00">TextureBuffer.hpp</text>
</a>
</g>
</g>
<!-- Node19&#45;&gt;Node20 -->
<g id="edge22_Node000019_Node000020" class="edge">
<title>Node19&#45;&gt;Node20</title>
<g id="a_edge22_Node000019_Node000020"><a xlink:title=" ">
<path fill="none" stroke="#63b8ff" d="M609.5,-439.8C609.5,-430.7 609.5,-418.79 609.5,-408.9"/>
<polygon fill="#63b8ff" stroke="#63b8ff" points="613,-408.84 609.5,-398.84 606,-408.84 613,-408.84"/>
</a>
</g>
</g>
<!-- Node21 -->
<g id="Node000021" class="node">
<title>Node21</title>
<g id="a_Node000021"><a xlink:href="VKBuffer_8hpp.html" target="_top" xlink:title=" ">
<polygon fill="white" stroke="#666666" points="423.5,-332.5 255.5,-332.5 255.5,-313.5 423.5,-313.5 423.5,-332.5"/>
<text text-anchor="middle" x="339.5" y="-320.5" font-family="Helvetica,sans-Serif" font-size="10.00">MayaFlux/Buffers/VKBuffer.hpp</text>
</a>
</g>
</g>
<!-- Node20&#45;&gt;Node21 -->
<g id="edge23_Node000020_Node000021" class="edge">
<title>Node20&#45;&gt;Node21</title>
<g id="a_edge23_Node000020_Node000021"><a xlink:title=" ">
<path fill="none" stroke="#63b8ff" d="M573.37,-379.44C524.77,-367.92 438.33,-347.43 385.25,-334.84"/>
<polygon fill="#63b8ff" stroke="#63b8ff" points="385.96,-331.42 375.42,-332.51 384.34,-338.23 385.96,-331.42"/>
</a>
</g>
</g>
<!-- Node29 -->
<g id="Node000029" class="node">
<title>Node29</title>
<g id="a_Node000029"><a xlink:href="VertexSpec_8hpp.html" target="_top" xlink:title=" ">
<polygon fill="white" stroke="#666666" points="585.5,-338 441.5,-338 441.5,-308 585.5,-308 585.5,-338"/>
<text text-anchor="start" x="449.5" y="-326" font-family="Helvetica,sans-Serif" font-size="10.00">MayaFlux/Nodes/Graphics</text>
<text text-anchor="middle" x="513.5" y="-315" font-family="Helvetica,sans-Serif" font-size="10.00">/VertexSpec.hpp</text>
</a>
</g>
</g>
<!-- Node20&#45;&gt;Node29 -->
<g id="edge35_Node000020_Node000029" class="edge">
<title>Node20&#45;&gt;Node29</title>
<g id="a_edge35_Node000020_Node000029"><a xlink:title=" ">
<path fill="none" stroke="#63b8ff" d="M596.55,-379.37C582.92,-370.28 560.99,-355.66 543.08,-343.72"/>
<polygon fill="#63b8ff" stroke="#63b8ff" points="544.94,-340.75 534.67,-338.12 541.05,-346.57 544.94,-340.75"/>
</a>
</g>
</g>
<!-- Node30 -->
<g id="Node000030" class="node">
<title>Node30</title>
<g id="a_Node000030"><a xlink:href="TextureLoom_8hpp.html" target="_top" xlink:title=" ">
<polygon fill="white" stroke="#666666" points="683.5,-272 541.5,-272 541.5,-242 683.5,-242 683.5,-272"/>
<text text-anchor="start" x="549.5" y="-260" font-family="Helvetica,sans-Serif" font-size="10.00">MayaFlux/Portal/Graphics</text>
<text text-anchor="middle" x="612.5" y="-249" font-family="Helvetica,sans-Serif" font-size="10.00">/TextureLoom.hpp</text>
</a>
</g>
</g>
<!-- Node20&#45;&gt;Node30 -->
<g id="edge37_Node000020_Node000030" class="edge">
<title>Node20&#45;&gt;Node30</title>
<g id="a_edge37_Node000020_Node000030"><a xlink:title=" ">
<path fill="none" stroke="#63b8ff" d="M609.7,-379.47C610.15,-360.04 611.26,-311.87 611.94,-282.36"/>
<polygon fill="#63b8ff" stroke="#63b8ff" points="615.44,-282.14 612.18,-272.07 608.45,-281.98 615.44,-282.14"/>
</a>
</g>
</g>
<!-- Node22 -->
<g id="Node000022" class="node">
<title>Node22</title>
<g id="a_Node000022"><a xlink:href="Buffer_8hpp.html" target="_top" xlink:title=" ">
<polygon fill="white" stroke="#666666" points="105.5,-266.5 39.5,-266.5 39.5,-247.5 105.5,-247.5 105.5,-266.5"/>
<text text-anchor="middle" x="72.5" y="-254.5" font-family="Helvetica,sans-Serif" font-size="10.00">Buffer.hpp</text>
</a>
</g>
</g>
<!-- Node21&#45;&gt;Node22 -->
<g id="edge24_Node000021_Node000022" class="edge">
<title>Node21&#45;&gt;Node22</title>
<g id="a_edge24_Node000021_Node000022"><a xlink:title=" ">
<path fill="none" stroke="#63b8ff" d="M294.77,-313.47C249.12,-304.44 176.39,-289.14 114.5,-272 111.88,-271.27 109.19,-270.48 106.48,-269.66"/>
<polygon fill="#63b8ff" stroke="#63b8ff" points="107.39,-266.27 96.8,-266.57 105.27,-272.94 107.39,-266.27"/>
</a>
</g>
</g>
<!-- Node23 -->
<g id="Node000023" class="node">
<title>Node23</title>
<g id="a_Node000023"><a xlink:href="BufferProcessor_8hpp.html" target="_top" xlink:title=" ">
<polygon fill="white" stroke="#666666" points="325.5,-266.5 123.5,-266.5 123.5,-247.5 325.5,-247.5 325.5,-266.5"/>
<text text-anchor="middle" x="224.5" y="-254.5" font-family="Helvetica,sans-Serif" font-size="10.00">MayaFlux/Buffers/BufferProcessor.hpp</text>
</a>
</g>
</g>
<!-- Node21&#45;&gt;Node23 -->
<g id="edge25_Node000021_Node000023" class="edge">
<title>Node21&#45;&gt;Node23</title>
<g id="a_edge25_Node000021_Node000023"><a xlink:title=" ">
<path fill="none" stroke="#63b8ff" d="M323.99,-313.37C304.79,-302.68 271.84,-284.35 249.15,-271.72"/>
<polygon fill="#63b8ff" stroke="#63b8ff" points="250.57,-268.5 240.13,-266.7 247.17,-274.62 250.57,-268.5"/>
</a>
</g>
</g>
<!-- Node25 -->
<g id="Node000025" class="node">
<title>Node25</title>
<g id="a_Node000025"><a xlink:href="ProcessingTokens_8hpp.html" target="_top" xlink:title=" ">
<polygon fill="white" stroke="#666666" points="181.5,-140 35.5,-140 35.5,-110 181.5,-110 181.5,-140"/>
<text text-anchor="start" x="43.5" y="-128" font-family="Helvetica,sans-Serif" font-size="10.00">MayaFlux/Core/Processing</text>
<text text-anchor="middle" x="108.5" y="-117" font-family="Helvetica,sans-Serif" font-size="10.00">Tokens.hpp</text>
</a>
</g>
</g>
<!-- Node21&#45;&gt;Node25 -->
<g id="edge30_Node000021_Node000025" class="edge">
<title>Node21&#45;&gt;Node25</title>
<g id="a_edge30_Node000021_Node000025"><a xlink:title=" ">
<path fill="none" stroke="#63b8ff" d="M284,-313.48C195.61,-299.85 32.55,-274.41 30.5,-272 -2.95,-232.7 48.92,-176.68 82.87,-146.75"/>
<polygon fill="#63b8ff" stroke="#63b8ff" points="85.33,-149.25 90.63,-140.07 80.77,-143.94 85.33,-149.25"/>
</a>
</g>
</g>
<!-- Node27 -->
<g id="Node000027" class="node">
<title>Node27</title>
<g id="a_Node000027"><a xlink:href="ShaderUtils_8hpp.html" target="_top" xlink:title=" ">
<polygon fill="white" stroke="#666666" points="523.5,-272 381.5,-272 381.5,-242 523.5,-242 523.5,-272"/>
<text text-anchor="start" x="389.5" y="-260" font-family="Helvetica,sans-Serif" font-size="10.00">MayaFlux/Portal/Graphics</text>
<text text-anchor="middle" x="452.5" y="-249" font-family="Helvetica,sans-Serif" font-size="10.00">/ShaderUtils.hpp</text>
</a>
</g>
</g>
<!-- Node21&#45;&gt;Node27 -->
<g id="edge31_Node000021_Node000027" class="edge">
<title>Node21&#45;&gt;Node27</title>
<g id="a_edge31_Node000021_Node000027"><a xlink:title=" ">
<path fill="none" stroke="#63b8ff" d="M354.74,-313.37C371.08,-304.11 397.55,-289.12 418.82,-277.07"/>
<polygon fill="#63b8ff" stroke="#63b8ff" points="420.6,-280.09 427.58,-272.12 417.15,-274 420.6,-280.09"/>
</a>
</g>
</g>
<!-- Node24 -->
<g id="Node000024" class="node">
<title>Node24</title>
<g id="a_Node000024"><a xlink:href="BufferUtils_8hpp.html" target="_top" xlink:title=" ">
<polygon fill="white" stroke="#666666" points="269,-200.5 180,-200.5 180,-181.5 269,-181.5 269,-200.5"/>
<text text-anchor="middle" x="224.5" y="-188.5" font-family="Helvetica,sans-Serif" font-size="10.00">BufferUtils.hpp</text>
</a>
</g>
</g>
<!-- Node23&#45;&gt;Node24 -->
<g id="edge26_Node000023_Node000024" class="edge">
<title>Node23&#45;&gt;Node24</title>
<g id="a_edge26_Node000023_Node000024"><a xlink:title=" ">
<path fill="none" stroke="#63b8ff" d="M224.5,-247.37C224.5,-238.16 224.5,-223.29 224.5,-211.27"/>
<polygon fill="#63b8ff" stroke="#63b8ff" points="228,-210.91 224.5,-200.91 221,-210.91 228,-210.91"/>
</a>
</g>
</g>
<!-- Node24&#45;&gt;Node25 -->
<g id="edge27_Node000024_Node000025" class="edge">
<title>Node24&#45;&gt;Node25</title>
<g id="a_edge27_Node000024_Node000025"><a xlink:title=" ">
<path fill="none" stroke="#63b8ff" d="M208.86,-181.37C192.08,-172.11 164.91,-157.12 143.07,-145.07"/>
<polygon fill="#63b8ff" stroke="#63b8ff" points="144.53,-141.88 134.08,-140.12 141.15,-148.01 144.53,-141.88"/>
</a>
</g>
</g>
<!-- Node26 -->
<g id="Node000026" class="node">
<title>Node26</title>
<g id="a_Node000026"><a xlink:href="VertexLayout_8hpp.html" target="_top" xlink:title=" ">
<polygon fill="white" stroke="#666666" points="448,-140 297,-140 297,-110 448,-110 448,-140"/>
<text text-anchor="start" x="305" y="-128" font-family="Helvetica,sans-Serif" font-size="10.00">MayaFlux/Kakshya/NDData</text>
<text text-anchor="middle" x="372.5" y="-117" font-family="Helvetica,sans-Serif" font-size="10.00">/VertexLayout.hpp</text>
</a>
</g>
</g>
<!-- Node24&#45;&gt;Node26 -->
<g id="edge28_Node000024_Node000026" class="edge">
<title>Node24&#45;&gt;Node26</title>
<g id="a_edge28_Node000024_Node000026"><a xlink:title=" ">
<path fill="none" stroke="#63b8ff" d="M244.46,-181.37C266.44,-171.87 302.39,-156.32 330.61,-144.11"/>
<polygon fill="#63b8ff" stroke="#63b8ff" points="332.07,-147.3 339.86,-140.12 329.29,-140.87 332.07,-147.3"/>
</a>
</g>
</g>
<!-- Node26&#45;&gt;Node11 -->
<g id="edge29_Node000026_Node000011" class="edge">
<title>Node26&#45;&gt;Node11</title>
<g id="a_edge29_Node000026_Node000011"><a xlink:title=" ">
<path fill="none" stroke="#63b8ff" d="M423.52,-109.99C460.6,-99.8 510.12,-86.2 544.61,-76.73"/>
<polygon fill="#63b8ff" stroke="#63b8ff" points="545.64,-80.08 554.36,-74.05 543.79,-73.33 545.64,-80.08"/>
</a>
</g>
</g>
<!-- Node27&#45;&gt;Node13 -->
<g id="edge33_Node000027_Node000013" class="edge">
<title>Node27&#45;&gt;Node13</title>
<g id="a_edge33_Node000027_Node000013"><a xlink:title=" ">
<path fill="none" stroke="#63b8ff" d="M496.39,-241.95C526.61,-232.28 566.94,-219.38 599.04,-209.11"/>
<polygon fill="#63b8ff" stroke="#63b8ff" points="600.25,-212.39 608.71,-206.01 598.12,-205.73 600.25,-212.39"/>
</a>
</g>
</g>
<!-- Node27&#45;&gt;Node26 -->
<g id="edge34_Node000027_Node000026" class="edge">
<title>Node27&#45;&gt;Node26</title>
<g id="a_edge34_Node000027_Node000026"><a xlink:title=" ">
<path fill="none" stroke="#63b8ff" d="M438.96,-241.89C430.17,-232.27 418.83,-218.97 410.5,-206 398.94,-188 388.72,-165.94 381.8,-149.54"/>
<polygon fill="#63b8ff" stroke="#63b8ff" points="384.98,-148.07 377.93,-140.16 378.5,-150.74 384.98,-148.07"/>
</a>
</g>
</g>
<!-- Node28 -->
<g id="Node000028" class="node">
<title>Node28</title>
<g id="a_Node000028"><a xlink:title=" ">
<polygon fill="#e0e0e0" stroke="#999999" points="525,-200.5 420,-200.5 420,-181.5 525,-181.5 525,-200.5"/>
<text text-anchor="middle" x="472.5" y="-188.5" font-family="Helvetica,sans-Serif" font-size="10.00">vulkan/vulkan.hpp</text>
</a>
</g>
</g>
<!-- Node27&#45;&gt;Node28 -->
<g id="edge32_Node000027_Node000028" class="edge">
<title>Node27&#45;&gt;Node28</title>
<g id="a_edge32_Node000027_Node000028"><a xlink:title=" ">
<path fill="none" stroke="#63b8ff" d="M456.94,-241.8C459.81,-232.6 463.58,-220.53 466.69,-210.58"/>
<polygon fill="#63b8ff" stroke="#63b8ff" points="470.09,-211.43 469.74,-200.84 463.41,-209.35 470.09,-211.43"/>
</a>
</g>
</g>
<!-- Node29&#45;&gt;Node26 -->
<g id="edge36_Node000029_Node000026" class="edge">
<title>Node29&#45;&gt;Node26</title>
<g id="a_edge36_Node000029_Node000026"><a xlink:title=" ">
<path fill="none" stroke="#63b8ff" d="M452.88,-307.92C419.29,-298.76 382.35,-285.95 372.5,-272 346.99,-235.89 356.24,-181.2 364.73,-150.02"/>
<polygon fill="#63b8ff" stroke="#63b8ff" points="368.2,-150.62 367.64,-140.04 361.48,-148.66 368.2,-150.62"/>
</a>
</g>
</g>
<!-- Node30&#45;&gt;Node11 -->
<g id="edge40_Node000030_Node000011" class="edge">
<title>Node30&#45;&gt;Node11</title>
<g id="a_edge40_Node000030_Node000011"><a xlink:title=" ">
<path fill="none" stroke="#63b8ff" d="M596.86,-241.92C587.84,-232.71 577.36,-219.85 572.5,-206 557.82,-164.15 570.41,-111.22 579.04,-83.81"/>
<polygon fill="#63b8ff" stroke="#63b8ff" points="582.45,-84.63 582.29,-74.04 575.81,-82.42 582.45,-84.63"/>
</a>
</g>
</g>
<!-- Node30&#45;&gt;Node13 -->
<g id="edge39_Node000030_Node000013" class="edge">
<title>Node30&#45;&gt;Node13</title>
<g id="a_edge39_Node000030_Node000013"><a xlink:title=" ">
<path fill="none" stroke="#63b8ff" d="M621.38,-241.8C626.35,-233.84 632.66,-223.74 638.31,-214.71"/>
<polygon fill="#63b8ff" stroke="#63b8ff" points="641.32,-216.5 643.65,-206.16 635.38,-212.79 641.32,-216.5"/>
</a>
</g>
</g>
<!-- Node30&#45;&gt;Node28 -->
<g id="edge38_Node000030_Node000028" class="edge">
<title>Node30&#45;&gt;Node28</title>
<g id="a_edge38_Node000030_Node000028"><a xlink:title=" ">
<path fill="none" stroke="#63b8ff" d="M581.78,-241.95C557.55,-230.88 524.04,-215.56 500.54,-204.82"/>
<polygon fill="#63b8ff" stroke="#63b8ff" points="501.68,-201.49 491.13,-200.52 498.77,-207.86 501.68,-201.49"/>
</a>
</g>
</g>
<!-- Node31&#45;&gt;Node5 -->
<g id="edge42_Node000031_Node000005" class="edge">
<title>Node31&#45;&gt;Node5</title>
<g id="a_edge42_Node000031_Node000005"><a xlink:title=" ">
<path fill="none" stroke="#63b8ff" d="M104.41,-379.37C124.21,-368.63 158.23,-350.18 181.51,-337.55"/>
<polygon fill="#63b8ff" stroke="#63b8ff" points="183.34,-340.54 190.46,-332.7 180,-334.39 183.34,-340.54"/>
</a>
</g>
</g>
<!-- Node31&#45;&gt;Node6 -->
<g id="edge43_Node000031_Node000006" class="edge">
<title>Node31&#45;&gt;Node6</title>
<g id="a_edge43_Node000031_Node000006"><a xlink:title=" ">
<path fill="none" stroke="#63b8ff" d="M82.97,-379.37C76.77,-369.69 66.55,-353.74 58.67,-341.44"/>
<polygon fill="#63b8ff" stroke="#63b8ff" points="61.55,-339.44 53.2,-332.91 55.65,-343.21 61.55,-339.44"/>
</a>
</g>
</g>
<!-- Node32&#45;&gt;Node3 -->
<g id="edge45_Node000032_Node000003" class="edge">
<title>Node32&#45;&gt;Node3</title>
<g id="a_edge45_Node000032_Node000003"><a xlink:title=" ">
<path fill="none" stroke="#63b8ff" d="M477.66,-505.87C473.94,-497.49 468.17,-484.51 463.45,-473.89"/>
<polygon fill="#63b8ff" stroke="#63b8ff" points="466.61,-472.38 459.35,-464.67 460.22,-475.23 466.61,-472.38"/>
</a>
</g>
</g>
<!-- Node34 -->
<g id="Node000034" class="node">
<title>Node34</title>
<g id="a_Node000034"><a xlink:href="Format_8hpp.html" target="_top" xlink:title=" ">
<polygon fill="white" stroke="#666666" points="1114.5,-464.5 1042.5,-464.5 1042.5,-445.5 1114.5,-445.5 1114.5,-464.5"/>
<text text-anchor="middle" x="1078.5" y="-452.5" font-family="Helvetica,sans-Serif" font-size="10.00">Format.hpp</text>
</a>
</g>
</g>
<!-- Node33&#45;&gt;Node34 -->
<g id="edge47_Node000033_Node000034" class="edge">
<title>Node33&#45;&gt;Node34</title>
<g id="a_edge47_Node000033_Node000034"><a xlink:title=" ">
<path fill="none" stroke="#63b8ff" d="M991.55,-505.87C1008.12,-496.36 1035,-480.95 1054.49,-469.77"/>
<polygon fill="#63b8ff" stroke="#63b8ff" points="1056.45,-472.68 1063.39,-464.67 1052.97,-466.61 1056.45,-472.68"/>
</a>
</g>
</g>
<!-- Node35 -->
<g id="Node000035" class="node">
<title>Node35</title>
<g id="a_Node000035"><a xlink:href="JournalEntry_8hpp.html" target="_top" xlink:title=" ">
<polygon fill="white" stroke="#666666" points="1024,-464.5 929,-464.5 929,-445.5 1024,-445.5 1024,-464.5"/>
<text text-anchor="middle" x="976.5" y="-452.5" font-family="Helvetica,sans-Serif" font-size="10.00">JournalEntry.hpp</text>
</a>
</g>
</g>
<!-- Node33&#45;&gt;Node35 -->
<g id="edge48_Node000033_Node000035" class="edge">
<title>Node33&#45;&gt;Node35</title>
<g id="a_edge48_Node000033_Node000035"><a xlink:title=" ">
<path fill="none" stroke="#63b8ff" d="M976.5,-505.87C976.5,-497.75 976.5,-485.31 976.5,-474.89"/>
<polygon fill="#63b8ff" stroke="#63b8ff" points="980,-474.67 976.5,-464.67 973,-474.67 980,-474.67"/>
</a>
</g>
</g>
<!-- Node36 -->
<g id="Node000036" class="node">
<title>Node36</title>
<g id="a_Node000036"><a xlink:href="EnumReflect_8hpp.html" target="_top" xlink:title=" ">
<polygon fill="white" stroke="#666666" points="1046,-404 907,-404 907,-374 1046,-374 1046,-404"/>
<text text-anchor="start" x="915" y="-392" font-family="Helvetica,sans-Serif" font-size="10.00">MayaFlux/Transitive</text>
<text text-anchor="middle" x="976.5" y="-381" font-family="Helvetica,sans-Serif" font-size="10.00">/Reflect/EnumReflect.hpp</text>
</a>
</g>
</g>
<!-- Node35&#45;&gt;Node36 -->
<g id="edge49_Node000035_Node000036" class="edge">
<title>Node35&#45;&gt;Node36</title>
<g id="a_edge49_Node000035_Node000036"><a xlink:title=" ">
<path fill="none" stroke="#63b8ff" d="M976.5,-445.37C976.5,-437.49 976.5,-425.45 976.5,-414.6"/>
<polygon fill="#63b8ff" stroke="#63b8ff" points="980,-414.36 976.5,-404.36 973,-414.36 980,-414.36"/>
</a>
</g>
</g>
<!-- Node37 -->
<g id="Node000037" class="node">
<title>Node37</title>
<g id="a_Node000037"><a xlink:title=" ">
<polygon fill="#e0e0e0" stroke="#999999" points="1114.5,-398.5 1064.5,-398.5 1064.5,-379.5 1114.5,-379.5 1114.5,-398.5"/>
<text text-anchor="middle" x="1089.5" y="-386.5" font-family="Helvetica,sans-Serif" font-size="10.00">chrono</text>
</a>
</g>
</g>
<!-- Node35&#45;&gt;Node37 -->
<g id="edge50_Node000035_Node000037" class="edge">
<title>Node35&#45;&gt;Node37</title>
<g id="a_edge50_Node000035_Node000037"><a xlink:title=" ">
<path fill="none" stroke="#63b8ff" d="M991.74,-445.37C1010.61,-434.68 1042.98,-416.35 1065.27,-403.72"/>
<polygon fill="#63b8ff" stroke="#63b8ff" points="1067.16,-406.67 1074.14,-398.7 1063.71,-400.58 1067.16,-406.67"/>
</a>
</g>
</g>
<!-- Node38 -->
<g id="Node000038" class="node">
<title>Node38</title>
<g id="a_Node000038"><a xlink:title=" ">
<polygon fill="#e0e0e0" stroke="#999999" points="1226,-398.5 1133,-398.5 1133,-379.5 1226,-379.5 1226,-398.5"/>
<text text-anchor="middle" x="1179.5" y="-386.5" font-family="Helvetica,sans-Serif" font-size="10.00">source_location</text>
</a>
</g>
</g>
<!-- Node35&#45;&gt;Node38 -->
<g id="edge51_Node000035_Node000038" class="edge">
<title>Node35&#45;&gt;Node38</title>
<g id="a_edge51_Node000035_Node000038"><a xlink:title=" ">
<path fill="none" stroke="#63b8ff" d="M1003.88,-445.37C1039.69,-434.08 1102.59,-414.25 1142.59,-401.64"/>
<polygon fill="#63b8ff" stroke="#63b8ff" points="1143.75,-404.94 1152.23,-398.6 1141.64,-398.27 1143.75,-404.94"/>
</a>
</g>
</g>
<!-- Node39 -->
<g id="Node000039" class="node">
<title>Node39</title>
<g id="a_Node000039"><a xlink:title=" ">
<polygon fill="#e0e0e0" stroke="#999999" points="889,-398.5 816,-398.5 816,-379.5 889,-379.5 889,-398.5"/>
<text text-anchor="middle" x="852.5" y="-386.5" font-family="Helvetica,sans-Serif" font-size="10.00">string_view</text>
</a>
</g>
</g>
<!-- Node35&#45;&gt;Node39 -->
<g id="edge52_Node000035_Node000039" class="edge">
<title>Node35&#45;&gt;Node39</title>
<g id="a_edge52_Node000035_Node000039"><a xlink:title=" ">
<path fill="none" stroke="#63b8ff" d="M959.78,-445.37C938.88,-434.59 902.91,-416.02 878.43,-403.38"/>
<polygon fill="#63b8ff" stroke="#63b8ff" points="879.85,-400.18 869.35,-398.7 876.64,-406.4 879.85,-400.18"/>
</a>
</g>
</g>
</g>
</svg>
