<?xml version="1.0" encoding="UTF-8" standalone="no"?>
<!DOCTYPE svg PUBLIC "-//W3C//DTD SVG 1.1//EN"
 "http://www.w3.org/Graphics/SVG/1.1/DTD/svg11.dtd">
<!-- Generated by graphviz version 2.43.0 (0)
 -->
<!-- Title: InputManager.cpp Pages: 1 -->
<svg width="1411pt" height="280pt"
 viewBox="0.00 0.00 1411.00 280.00" xmlns="http://www.w3.org/2000/svg" xmlns:xlink="http://www.w3.org/1999/xlink">
<g id="graph0" class="graph" transform="scale(1 1) rotate(0) translate(4 276)">
<title>InputManager.cpp</title>
<!-- Node1 -->
<g id="Node000001" class="node">
<title>Node1</title>
<g id="a_Node000001"><a xlink:title=" ">
<polygon fill="#999999" stroke="#666666" points="716.5,-272 612.5,-272 612.5,-253 716.5,-253 716.5,-272"/>
<text text-anchor="middle" x="664.5" y="-260" font-family="Helvetica,sans-Serif" font-size="10.00">InputManager.cpp</text>
</a>
</g>
</g>
<!-- Node2 -->
<g id="Node000002" class="node">
<title>Node2</title>
<g id="a_Node000002"><a xlink:href="InputManager_8hpp.html" target="_top" xlink:title=" ">
<polygon fill="white" stroke="#666666" points="466.5,-211.5 362.5,-211.5 362.5,-192.5 466.5,-192.5 466.5,-211.5"/>
<text text-anchor="middle" x="414.5" y="-199.5" font-family="Helvetica,sans-Serif" font-size="10.00">InputManager.hpp</text>
</a>
</g>
</g>
<!-- Node1&#45;&gt;Node2 -->
<g id="edge1_Node000001_Node000002" class="edge">
<title>Node1&#45;&gt;Node2</title>
<g id="a_edge1_Node000001_Node000002"><a xlink:title=" ">
<path fill="none" stroke="#63b8ff" d="M628.15,-252.99C583.9,-242.64 509.11,-225.14 460.79,-213.83"/>
<polygon fill="#63b8ff" stroke="#63b8ff" points="461.43,-210.39 450.9,-211.52 459.84,-217.2 461.43,-210.39"/>
</a>
</g>
</g>
<!-- Node6 -->
<g id="Node000006" class="node">
<title>Node6</title>
<g id="a_Node000006"><a xlink:href="OscParser_8hpp.html" target="_top" xlink:title=" ">
<polygon fill="white" stroke="#666666" points="570,-211.5 485,-211.5 485,-192.5 570,-192.5 570,-211.5"/>
<text text-anchor="middle" x="527.5" y="-199.5" font-family="Helvetica,sans-Serif" font-size="10.00">OscParser.hpp</text>
</a>
</g>
</g>
<!-- Node1&#45;&gt;Node6 -->
<g id="edge5_Node000001_Node000006" class="edge">
<title>Node1&#45;&gt;Node6</title>
<g id="a_edge5_Node000001_Node000006"><a xlink:title=" ">
<path fill="none" stroke="#63b8ff" d="M644.58,-252.99C621.55,-243.16 583.42,-226.88 556.96,-215.58"/>
<polygon fill="#63b8ff" stroke="#63b8ff" points="558.02,-212.22 547.45,-211.52 555.27,-218.66 558.02,-212.22"/>
</a>
</g>
</g>
<!-- Node7 -->
<g id="Node000007" class="node">
<title>Node7</title>
<g id="a_Node000007"><a xlink:href="BackendRegistry_8hpp.html" target="_top" xlink:title=" ">
<polygon fill="white" stroke="#666666" points="740.5,-217 588.5,-217 588.5,-187 740.5,-187 740.5,-217"/>
<text text-anchor="start" x="596.5" y="-205" font-family="Helvetica,sans-Serif" font-size="10.00">MayaFlux/Registry/Backend</text>
<text text-anchor="middle" x="664.5" y="-194" font-family="Helvetica,sans-Serif" font-size="10.00">Registry.hpp</text>
</a>
</g>
</g>
<!-- Node1&#45;&gt;Node7 -->
<g id="edge7_Node000001_Node000007" class="edge">
<title>Node1&#45;&gt;Node7</title>
<g id="a_edge7_Node000001_Node000007"><a xlink:title=" ">
<path fill="none" stroke="#63b8ff" d="M664.5,-252.87C664.5,-246.11 664.5,-236.35 664.5,-227.26"/>
<polygon fill="#63b8ff" stroke="#63b8ff" points="668,-227.11 664.5,-217.11 661,-227.11 668,-227.11"/>
</a>
</g>
</g>
<!-- Node9 -->
<g id="Node000009" class="node">
<title>Node9</title>
<g id="a_Node000009"><a xlink:href="InputService_8hpp.html" target="_top" xlink:title=" ">
<polygon fill="white" stroke="#666666" points="906,-217 759,-217 759,-187 906,-187 906,-217"/>
<text text-anchor="start" x="767" y="-205" font-family="Helvetica,sans-Serif" font-size="10.00">MayaFlux/Registry/Service</text>
<text text-anchor="middle" x="832.5" y="-194" font-family="Helvetica,sans-Serif" font-size="10.00">/InputService.hpp</text>
</a>
</g>
</g>
<!-- Node1&#45;&gt;Node9 -->
<g id="edge9_Node000001_Node000009" class="edge">
<title>Node1&#45;&gt;Node9</title>
<g id="a_edge9_Node000001_Node000009"><a xlink:title=" ">
<path fill="none" stroke="#63b8ff" d="M688.93,-252.99C713.32,-244.5 751.51,-231.2 782.37,-220.45"/>
<polygon fill="#63b8ff" stroke="#63b8ff" points="783.82,-223.66 792.11,-217.06 781.52,-217.05 783.82,-223.66"/>
</a>
</g>
</g>
<!-- Node10 -->
<g id="Node000010" class="node">
<title>Node10</title>
<g id="a_Node000010"><a xlink:href="NetworkService_8hpp.html" target="_top" xlink:title=" ">
<polygon fill="white" stroke="#666666" points="1071,-217 924,-217 924,-187 1071,-187 1071,-217"/>
<text text-anchor="start" x="932" y="-205" font-family="Helvetica,sans-Serif" font-size="10.00">MayaFlux/Registry/Service</text>
<text text-anchor="middle" x="997.5" y="-194" font-family="Helvetica,sans-Serif" font-size="10.00">/NetworkService.hpp</text>
</a>
</g>
</g>
<!-- Node1&#45;&gt;Node10 -->
<g id="edge11_Node000001_Node000010" class="edge">
<title>Node1&#45;&gt;Node10</title>
<g id="a_edge11_Node000001_Node000010"><a xlink:title=" ">
<path fill="none" stroke="#63b8ff" d="M712.92,-252.99C765.49,-243.76 850.4,-228.84 913.82,-217.7"/>
<polygon fill="#63b8ff" stroke="#63b8ff" points="914.56,-221.12 923.8,-215.95 913.35,-214.23 914.56,-221.12"/>
</a>
</g>
</g>
<!-- Node12 -->
<g id="Node000012" class="node">
<title>Node12</title>
<g id="a_Node000012"><a xlink:href="Archivist_8hpp.html" target="_top" xlink:title=" ">
<polygon fill="white" stroke="#666666" points="1257.5,-211.5 1089.5,-211.5 1089.5,-192.5 1257.5,-192.5 1257.5,-211.5"/>
<text text-anchor="middle" x="1173.5" y="-199.5" font-family="Helvetica,sans-Serif" font-size="10.00">MayaFlux/Journal/Archivist.hpp</text>
</a>
</g>
</g>
<!-- Node1&#45;&gt;Node12 -->
<g id="edge13_Node000001_Node000012" class="edge">
<title>Node1&#45;&gt;Node12</title>
<g id="a_edge13_Node000001_Node000012"><a xlink:title=" ">
<path fill="none" stroke="#63b8ff" d="M716.79,-256.63C795.72,-249.12 949.93,-233.8 1080.5,-217 1089.87,-215.79 1099.77,-214.42 1109.46,-213.01"/>
<polygon fill="#63b8ff" stroke="#63b8ff" points="1110.08,-216.46 1119.46,-211.54 1109.06,-209.53 1110.08,-216.46"/>
</a>
</g>
</g>
<!-- Node19 -->
<g id="Node000019" class="node">
<title>Node19</title>
<g id="a_Node000019"><a xlink:href="InputNode_8hpp.html" target="_top" xlink:title=" ">
<polygon fill="white" stroke="#666666" points="344.5,-217 218.5,-217 218.5,-187 344.5,-187 344.5,-217"/>
<text text-anchor="start" x="226.5" y="-205" font-family="Helvetica,sans-Serif" font-size="10.00">MayaFlux/Nodes/Input</text>
<text text-anchor="middle" x="281.5" y="-194" font-family="Helvetica,sans-Serif" font-size="10.00">/InputNode.hpp</text>
</a>
</g>
</g>
<!-- Node1&#45;&gt;Node19 -->
<g id="edge20_Node000001_Node000019" class="edge">
<title>Node1&#45;&gt;Node19</title>
<g id="a_edge20_Node000001_Node000019"><a xlink:title=" ">
<path fill="none" stroke="#63b8ff" d="M612.38,-254.85C552.55,-247.04 451.27,-233.26 354.62,-217.14"/>
<polygon fill="#63b8ff" stroke="#63b8ff" points="355.13,-213.68 344.68,-215.47 353.97,-220.58 355.13,-213.68"/>
</a>
</g>
</g>
<!-- Node3 -->
<g id="Node000003" class="node">
<title>Node3</title>
<g id="a_Node000003"><a xlink:href="GlobalInputConfig_8hpp.html" target="_top" xlink:title=" ">
<polygon fill="white" stroke="#666666" points="516,-151 367,-151 367,-121 516,-121 516,-151"/>
<text text-anchor="start" x="375" y="-139" font-family="Helvetica,sans-Serif" font-size="10.00">MayaFlux/Core/GlobalInput</text>
<text text-anchor="middle" x="441.5" y="-128" font-family="Helvetica,sans-Serif" font-size="10.00">Config.hpp</text>
</a>
</g>
</g>
<!-- Node2&#45;&gt;Node3 -->
<g id="edge2_Node000002_Node000003" class="edge">
<title>Node2&#45;&gt;Node3</title>
<g id="a_edge2_Node000002_Node000003"><a xlink:title=" ">
<path fill="none" stroke="#63b8ff" d="M418.14,-192.37C421.57,-184.24 426.87,-171.69 431.55,-160.59"/>
<polygon fill="#63b8ff" stroke="#63b8ff" points="434.78,-161.93 435.44,-151.36 428.33,-159.21 434.78,-161.93"/>
</a>
</g>
</g>
<!-- Node5 -->
<g id="Node000005" class="node">
<title>Node5</title>
<g id="a_Node000005"><a xlink:href="RingBuffer_8hpp.html" target="_top" xlink:title=" ">
<polygon fill="white" stroke="#666666" points="348.5,-151 214.5,-151 214.5,-121 348.5,-121 348.5,-151"/>
<text text-anchor="start" x="222.5" y="-139" font-family="Helvetica,sans-Serif" font-size="10.00">MayaFlux/Transitive</text>
<text text-anchor="middle" x="281.5" y="-128" font-family="Helvetica,sans-Serif" font-size="10.00">/Memory/RingBuffer.hpp</text>
</a>
</g>
</g>
<!-- Node2&#45;&gt;Node5 -->
<g id="edge4_Node000002_Node000005" class="edge">
<title>Node2&#45;&gt;Node5</title>
<g id="a_edge4_Node000002_Node000005"><a xlink:title=" ">
<path fill="none" stroke="#63b8ff" d="M396.56,-192.37C377.07,-182.99 345.34,-167.72 320.14,-155.59"/>
<polygon fill="#63b8ff" stroke="#63b8ff" points="321.36,-152.3 310.83,-151.12 318.33,-158.61 321.36,-152.3"/>
</a>
</g>
</g>
<!-- Node4 -->
<g id="Node000004" class="node">
<title>Node4</title>
<g id="a_Node000004"><a xlink:href="InputBinding_8hpp.html" target="_top" xlink:title=" ">
<polygon fill="white" stroke="#666666" points="602.5,-85 484.5,-85 484.5,-55 602.5,-55 602.5,-85"/>
<text text-anchor="start" x="492.5" y="-73" font-family="Helvetica,sans-Serif" font-size="10.00">MayaFlux/Core/Input</text>
<text text-anchor="middle" x="543.5" y="-62" font-family="Helvetica,sans-Serif" font-size="10.00">/InputBinding.hpp</text>
</a>
</g>
</g>
<!-- Node3&#45;&gt;Node4 -->
<g id="edge3_Node000003_Node000004" class="edge">
<title>Node3&#45;&gt;Node4</title>
<g id="a_edge3_Node000003_Node000004"><a xlink:title=" ">
<path fill="none" stroke="#63b8ff" d="M463.88,-120.95C478.1,-112.03 496.7,-100.36 512.35,-90.54"/>
<polygon fill="#63b8ff" stroke="#63b8ff" points="514.56,-93.29 521.17,-85.01 510.84,-87.36 514.56,-93.29"/>
</a>
</g>
</g>
<!-- Node6&#45;&gt;Node4 -->
<g id="edge6_Node000006_Node000004" class="edge">
<title>Node6&#45;&gt;Node4</title>
<g id="a_edge6_Node000006_Node000004"><a xlink:title=" ">
<path fill="none" stroke="#63b8ff" d="M528.55,-192.47C530.94,-173.04 536.87,-124.87 540.5,-95.36"/>
<polygon fill="#63b8ff" stroke="#63b8ff" points="544.02,-95.42 541.77,-85.07 537.07,-94.56 544.02,-95.42"/>
</a>
</g>
</g>
<!-- Node8 -->
<g id="Node000008" class="node">
<title>Node8</title>
<g id="a_Node000008"><a xlink:title=" ">
<polygon fill="#e0e0e0" stroke="#999999" points="697,-145.5 632,-145.5 632,-126.5 697,-126.5 697,-145.5"/>
<text text-anchor="middle" x="664.5" y="-133.5" font-family="Helvetica,sans-Serif" font-size="10.00">typeindex</text>
</a>
</g>
</g>
<!-- Node7&#45;&gt;Node8 -->
<g id="edge8_Node000007_Node000008" class="edge">
<title>Node7&#45;&gt;Node8</title>
<g id="a_edge8_Node000007_Node000008"><a xlink:title=" ">
<path fill="none" stroke="#63b8ff" d="M664.5,-186.8C664.5,-177.7 664.5,-165.79 664.5,-155.9"/>
<polygon fill="#63b8ff" stroke="#63b8ff" points="668,-155.84 664.5,-145.84 661,-155.84 668,-155.84"/>
</a>
</g>
</g>
<!-- Node9&#45;&gt;Node4 -->
<g id="edge10_Node000009_Node000004" class="edge">
<title>Node9&#45;&gt;Node4</title>
<g id="a_edge10_Node000009_Node000004"><a xlink:title=" ">
<path fill="none" stroke="#63b8ff" d="M813.61,-186.86C789.56,-169.39 746.23,-139.71 705.5,-121 675.7,-107.31 641.16,-96.06 611.65,-87.73"/>
<polygon fill="#63b8ff" stroke="#63b8ff" points="612.41,-84.31 601.84,-85.02 610.55,-91.06 612.41,-84.31"/>
</a>
</g>
</g>
<!-- Node11 -->
<g id="Node000011" class="node">
<title>Node11</title>
<g id="a_Node000011"><a xlink:href="GlobalNetworkConfig_8hpp.html" target="_top" xlink:title=" ">
<polygon fill="white" stroke="#666666" points="1080.5,-151 914.5,-151 914.5,-121 1080.5,-121 1080.5,-151"/>
<text text-anchor="start" x="922.5" y="-139" font-family="Helvetica,sans-Serif" font-size="10.00">MayaFlux/Core/GlobalNetwork</text>
<text text-anchor="middle" x="997.5" y="-128" font-family="Helvetica,sans-Serif" font-size="10.00">Config.hpp</text>
</a>
</g>
</g>
<!-- Node10&#45;&gt;Node11 -->
<g id="edge12_Node000010_Node000011" class="edge">
<title>Node10&#45;&gt;Node11</title>
<g id="a_edge12_Node000010_Node000011"><a xlink:title=" ">
<path fill="none" stroke="#63b8ff" d="M997.5,-186.8C997.5,-179.34 997.5,-169.99 997.5,-161.41"/>
<polygon fill="#63b8ff" stroke="#63b8ff" points="1001,-161.16 997.5,-151.16 994,-161.16 1001,-161.16"/>
</a>
</g>
</g>
<!-- Node13 -->
<g id="Node000013" class="node">
<title>Node13</title>
<g id="a_Node000013"><a xlink:href="Format_8hpp.html" target="_top" xlink:title=" ">
<polygon fill="white" stroke="#666666" points="1297.5,-145.5 1225.5,-145.5 1225.5,-126.5 1297.5,-126.5 1297.5,-145.5"/>
<text text-anchor="middle" x="1261.5" y="-133.5" font-family="Helvetica,sans-Serif" font-size="10.00">Format.hpp</text>
</a>
</g>
</g>
<!-- Node12&#45;&gt;Node13 -->
<g id="edge14_Node000012_Node000013" class="edge">
<title>Node12&#45;&gt;Node13</title>
<g id="a_edge14_Node000012_Node000013"><a xlink:title=" ">
<path fill="none" stroke="#63b8ff" d="M1185.37,-192.37C1199.67,-181.97 1223.93,-164.32 1241.22,-151.75"/>
<polygon fill="#63b8ff" stroke="#63b8ff" points="1243.51,-154.41 1249.54,-145.7 1239.39,-148.75 1243.51,-154.41"/>
</a>
</g>
</g>
<!-- Node14 -->
<g id="Node000014" class="node">
<title>Node14</title>
<g id="a_Node000014"><a xlink:href="JournalEntry_8hpp.html" target="_top" xlink:title=" ">
<polygon fill="white" stroke="#666666" points="1207,-145.5 1112,-145.5 1112,-126.5 1207,-126.5 1207,-145.5"/>
<text text-anchor="middle" x="1159.5" y="-133.5" font-family="Helvetica,sans-Serif" font-size="10.00">JournalEntry.hpp</text>
</a>
</g>
</g>
<!-- Node12&#45;&gt;Node14 -->
<g id="edge15_Node000012_Node000014" class="edge">
<title>Node12&#45;&gt;Node14</title>
<g id="a_edge15_Node000012_Node000014"><a xlink:title=" ">
<path fill="none" stroke="#63b8ff" d="M1171.61,-192.37C1169.58,-183.07 1166.28,-167.98 1163.63,-155.9"/>
<polygon fill="#63b8ff" stroke="#63b8ff" points="1167,-154.93 1161.45,-145.91 1160.17,-156.42 1167,-154.93"/>
</a>
</g>
</g>
<!-- Node15 -->
<g id="Node000015" class="node">
<title>Node15</title>
<g id="a_Node000015"><a xlink:href="EnumReflect_8hpp.html" target="_top" xlink:title=" ">
<polygon fill="white" stroke="#666666" points="1403,-85 1264,-85 1264,-55 1403,-55 1403,-85"/>
<text text-anchor="start" x="1272" y="-73" font-family="Helvetica,sans-Serif" font-size="10.00">MayaFlux/Transitive</text>
<text text-anchor="middle" x="1333.5" y="-62" font-family="Helvetica,sans-Serif" font-size="10.00">/Reflect/EnumReflect.hpp</text>
</a>
</g>
</g>
<!-- Node14&#45;&gt;Node15 -->
<g id="edge16_Node000014_Node000015" class="edge">
<title>Node14&#45;&gt;Node15</title>
<g id="a_edge16_Node000014_Node000015"><a xlink:title=" ">
<path fill="none" stroke="#63b8ff" d="M1182.97,-126.37C1209.14,-116.74 1252.18,-100.91 1285.55,-88.64"/>
<polygon fill="#63b8ff" stroke="#63b8ff" points="1286.95,-91.85 1295.12,-85.12 1284.53,-85.28 1286.95,-91.85"/>
</a>
</g>
</g>
<!-- Node16 -->
<g id="Node000016" class="node">
<title>Node16</title>
<g id="a_Node000016"><a xlink:title=" ">
<polygon fill="#e0e0e0" stroke="#999999" points="1043.5,-79.5 993.5,-79.5 993.5,-60.5 1043.5,-60.5 1043.5,-79.5"/>
<text text-anchor="middle" x="1018.5" y="-67.5" font-family="Helvetica,sans-Serif" font-size="10.00">chrono</text>
</a>
</g>
</g>
<!-- Node14&#45;&gt;Node16 -->
<g id="edge17_Node000014_Node000016" class="edge">
<title>Node14&#45;&gt;Node16</title>
<g id="a_edge17_Node000014_Node000016"><a xlink:title=" ">
<path fill="none" stroke="#63b8ff" d="M1140.48,-126.37C1116.41,-115.44 1074.73,-96.52 1046.89,-83.88"/>
<polygon fill="#63b8ff" stroke="#63b8ff" points="1048.22,-80.65 1037.66,-79.7 1045.32,-87.02 1048.22,-80.65"/>
</a>
</g>
</g>
<!-- Node17 -->
<g id="Node000017" class="node">
<title>Node17</title>
<g id="a_Node000017"><a xlink:title=" ">
<polygon fill="#e0e0e0" stroke="#999999" points="1155,-79.5 1062,-79.5 1062,-60.5 1155,-60.5 1155,-79.5"/>
<text text-anchor="middle" x="1108.5" y="-67.5" font-family="Helvetica,sans-Serif" font-size="10.00">source_location</text>
</a>
</g>
</g>
<!-- Node14&#45;&gt;Node17 -->
<g id="edge18_Node000014_Node000017" class="edge">
<title>Node14&#45;&gt;Node17</title>
<g id="a_edge18_Node000014_Node000017"><a xlink:title=" ">
<path fill="none" stroke="#63b8ff" d="M1152.62,-126.37C1144.83,-116.59 1131.95,-100.42 1122.11,-88.08"/>
<polygon fill="#63b8ff" stroke="#63b8ff" points="1124.57,-85.54 1115.6,-79.91 1119.09,-89.91 1124.57,-85.54"/>
</a>
</g>
</g>
<!-- Node18 -->
<g id="Node000018" class="node">
<title>Node18</title>
<g id="a_Node000018"><a xlink:title=" ">
<polygon fill="#e0e0e0" stroke="#999999" points="1246,-79.5 1173,-79.5 1173,-60.5 1246,-60.5 1246,-79.5"/>
<text text-anchor="middle" x="1209.5" y="-67.5" font-family="Helvetica,sans-Serif" font-size="10.00">string_view</text>
</a>
</g>
</g>
<!-- Node14&#45;&gt;Node18 -->
<g id="edge19_Node000014_Node000018" class="edge">
<title>Node14&#45;&gt;Node18</title>
<g id="a_edge19_Node000014_Node000018"><a xlink:title=" ">
<path fill="none" stroke="#63b8ff" d="M1166.24,-126.37C1173.88,-116.59 1186.51,-100.42 1196.16,-88.08"/>
<polygon fill="#63b8ff" stroke="#63b8ff" points="1199.14,-89.94 1202.54,-79.91 1193.63,-85.63 1199.14,-89.94"/>
</a>
</g>
</g>
<!-- Node19&#45;&gt;Node3 -->
<g id="edge21_Node000019_Node000003" class="edge">
<title>Node19&#45;&gt;Node3</title>
<g id="a_edge21_Node000019_Node000003"><a xlink:title=" ">
<path fill="none" stroke="#63b8ff" d="M316.61,-186.95C340.27,-177.49 371.66,-164.93 397.06,-154.78"/>
<polygon fill="#63b8ff" stroke="#63b8ff" points="398.48,-157.98 406.47,-151.01 395.88,-151.48 398.48,-157.98"/>
</a>
</g>
</g>
<!-- Node19&#45;&gt;Node5 -->
<g id="edge26_Node000019_Node000005" class="edge">
<title>Node19&#45;&gt;Node5</title>
<g id="a_edge26_Node000019_Node000005"><a xlink:title=" ">
<path fill="none" stroke="#63b8ff" d="M281.5,-186.8C281.5,-179.34 281.5,-169.99 281.5,-161.41"/>
<polygon fill="#63b8ff" stroke="#63b8ff" points="285,-161.16 281.5,-151.16 278,-161.16 285,-161.16"/>
</a>
</g>
</g>
<!-- Node20 -->
<g id="Node000020" class="node">
<title>Node20</title>
<g id="a_Node000020"><a xlink:href="Node_8hpp.html" target="_top" xlink:title=" ">
<polygon fill="white" stroke="#666666" points="196.5,-145.5 48.5,-145.5 48.5,-126.5 196.5,-126.5 196.5,-145.5"/>
<text text-anchor="middle" x="122.5" y="-133.5" font-family="Helvetica,sans-Serif" font-size="10.00">MayaFlux/Nodes/Node.hpp</text>
</a>
</g>
</g>
<!-- Node19&#45;&gt;Node20 -->
<g id="edge22_Node000019_Node000020" class="edge">
<title>Node19&#45;&gt;Node20</title>
<g id="a_edge22_Node000019_Node000020"><a xlink:title=" ">
<path fill="none" stroke="#63b8ff" d="M246.61,-186.95C218.72,-175.73 180.01,-160.15 153.27,-149.39"/>
<polygon fill="#63b8ff" stroke="#63b8ff" points="154.24,-146 143.66,-145.52 151.63,-152.5 154.24,-146"/>
</a>
</g>
</g>
<!-- Node21 -->
<g id="Node000021" class="node">
<title>Node21</title>
<g id="a_Node000021"><a xlink:href="GpuContext_8hpp.html" target="_top" xlink:title=" ">
<polygon fill="white" stroke="#666666" points="95,-79.5 0,-79.5 0,-60.5 95,-60.5 95,-79.5"/>
<text text-anchor="middle" x="47.5" y="-67.5" font-family="Helvetica,sans-Serif" font-size="10.00">GpuContext.hpp</text>
</a>
</g>
</g>
<!-- Node20&#45;&gt;Node21 -->
<g id="edge23_Node000020_Node000021" class="edge">
<title>Node20&#45;&gt;Node21</title>
<g id="a_edge23_Node000020_Node000021"><a xlink:title=" ">
<path fill="none" stroke="#63b8ff" d="M112.39,-126.37C100.49,-116.21 80.5,-99.16 65.85,-86.65"/>
<polygon fill="#63b8ff" stroke="#63b8ff" points="67.81,-83.73 57.94,-79.91 63.27,-89.06 67.81,-83.73"/>
</a>
</g>
</g>
<!-- Node22 -->
<g id="Node000022" class="node">
<title>Node22</title>
<g id="a_Node000022"><a xlink:href="NodeUtils_8hpp.html" target="_top" xlink:title=" ">
<polygon fill="white" stroke="#666666" points="283.5,-79.5 113.5,-79.5 113.5,-60.5 283.5,-60.5 283.5,-79.5"/>
<text text-anchor="middle" x="198.5" y="-67.5" font-family="Helvetica,sans-Serif" font-size="10.00">MayaFlux/Nodes/NodeUtils.hpp</text>
</a>
</g>
</g>
<!-- Node20&#45;&gt;Node22 -->
<g id="edge24_Node000020_Node000022" class="edge">
<title>Node20&#45;&gt;Node22</title>
<g id="a_edge24_Node000020_Node000022"><a xlink:title=" ">
<path fill="none" stroke="#63b8ff" d="M132.75,-126.37C144.81,-116.21 165.06,-99.16 179.91,-86.65"/>
<polygon fill="#63b8ff" stroke="#63b8ff" points="182.53,-89.02 187.93,-79.91 178.02,-83.67 182.53,-89.02"/>
</a>
</g>
</g>
<!-- Node23 -->
<g id="Node000023" class="node">
<title>Node23</title>
<g id="a_Node000023"><a xlink:href="NodeSpec_8hpp.html" target="_top" xlink:title=" ">
<polygon fill="white" stroke="#666666" points="241.5,-19 155.5,-19 155.5,0 241.5,0 241.5,-19"/>
<text text-anchor="middle" x="198.5" y="-7" font-family="Helvetica,sans-Serif" font-size="10.00">NodeSpec.hpp</text>
</a>
</g>
</g>
<!-- Node22&#45;&gt;Node23 -->
<g id="edge25_Node000022_Node000023" class="edge">
<title>Node22&#45;&gt;Node23</title>
<g id="a_edge25_Node000022_Node000023"><a xlink:title=" ">
<path fill="none" stroke="#63b8ff" d="M198.5,-60.37C198.5,-52.25 198.5,-39.81 198.5,-29.39"/>
<polygon fill="#63b8ff" stroke="#63b8ff" points="202,-29.17 198.5,-19.17 195,-29.17 202,-29.17"/>
</a>
</g>
</g>
</g>
</svg>
