<?xml version="1.0" encoding="UTF-8" standalone="no"?>
<!DOCTYPE svg PUBLIC "-//W3C//DTD SVG 1.1//EN"
 "http://www.w3.org/Graphics/SVG/1.1/DTD/svg11.dtd">
<!-- Generated by graphviz version 2.43.0 (0)
 -->
<!-- Title: Input.cpp Pages: 1 -->
<!--zoomable 346 -->

<svg id="main" version="1.1" xmlns="http://www.w3.org/2000/svg" xmlns:xlink="http://www.w3.org/1999/xlink" xml:space="preserve" onload="init(evt)">
<style type="text/css"><![CDATA[
.node, .edge {opacity: 0.7;}
.node.selected, .edge.selected {opacity: 1;}
.edge:hover path { stroke: red; }
.edge:hover polygon { stroke: red; fill: red; }
]]></style>

<defs>
  <circle id="rim" cx="0" cy="0" r="7"/>
  <circle id="rim2" cx="0" cy="0" r="3.5"/>
  <g id="zoomPlus">
    <use xlink:href="#rim" fill="#404040"><set attributeName="fill" to="#808080" begin="zoomplus.mouseover" end="zoomplus.mouseout"/></use>
    <path d="M-4,0h8M0,-4v8" fill="none" stroke="white" stroke-width="1.5" pointer-events="none"/>
  </g>
  <g id="zoomMin">
    <use xlink:href="#rim" fill="#404040"><set attributeName="fill" to="#808080" begin="zoomminus.mouseover" end="zoomminus.mouseout"/></use>
    <path d="M-4,0h8" fill="none" stroke="white" stroke-width="1.5" pointer-events="none"/>
  </g>
  <g id="arrowUp" transform="translate(30 24)">
    <use xlink:href="#rim"/>
    <path pointer-events="none" fill="none" stroke="white" stroke-width="1.5" d="M0,-3.0v7 M-2.5,-0.5L0,-3.0L2.5,-0.5"/>
  </g>
  <g id="arrowRight" transform="rotate(90) translate(36 -43)">
    <use xlink:href="#rim"/>
    <path pointer-events="none" fill="none" stroke="white" stroke-width="1.5" d="M0,-3.0v7 M-2.5,-0.5L0,-3.0L2.5,-0.5"/>
  </g>
  <g id="arrowDown" transform="rotate(180) translate(-30 -48)">
    <use xlink:href="#rim"/>
    <path pointer-events="none" fill="none" stroke="white" stroke-width="1.5" d="M0,-3.0v7 M-2.5,-0.5L0,-3.0L2.5,-0.5"/>
  </g>
  <g id="arrowLeft" transform="rotate(270) translate(-36 17)">
    <use xlink:href="#rim"/>
    <path pointer-events="none" fill="none" stroke="white" stroke-width="1.5" d="M0,-3.0v7 M-2.5,-0.5L0,-3.0L2.5,-0.5"/>
  </g>
  <g id="resetDef">
    <use xlink:href="#rim2" fill="#404040"><set attributeName="fill" to="#808080" begin="reset.mouseover" end="reset.mouseout"/></use>
  </g>
</defs>
<script type="application/ecmascript">
var viewWidth = 1261;
var viewHeight = 346;
var sectionId = 'dynsection-0';
</script>
<script type="application/ecmascript" xlink:href="svg.min.js"/>
<svg id="graph" class="graph">
<g id="viewport">
<title>Input.cpp</title>
<!-- Node1 -->
<g id="Node000001" class="node">
<title>Node1</title>
<g id="a_Node000001"><a xlink:title=" ">
<polygon fill="#999999" stroke="#666666" points="248,-338 186,-338 186,-319 248,-319 248,-338"/>
<text text-anchor="middle" x="217" y="-326" font-family="Helvetica,sans-Serif" font-size="10.00">Input.cpp</text>
</a>
</g>
</g>
<!-- Node2 -->
<g id="Node000002" class="node">
<title>Node2</title>
<g id="a_Node000002"><a xlink:href="Input_8hpp.html" target="_top" xlink:title=" ">
<polygon fill="white" stroke="#666666" points="62,-277.5 0,-277.5 0,-258.5 62,-258.5 62,-277.5"/>
<text text-anchor="middle" x="31" y="-265.5" font-family="Helvetica,sans-Serif" font-size="10.00">Input.hpp</text>
</a>
</g>
</g>
<!-- Node1&#45;&gt;Node2 -->
<g id="edge1_Node000001_Node000002" class="edge">
<title>Node1&#45;&gt;Node2</title>
<g id="a_edge1_Node000001_Node000002"><a xlink:title=" ">
<path fill="none" stroke="#63b8ff" d="M187.8,-318.98C158.25,-310.27 111.29,-296.19 71,-283 68.9,-282.31 66.74,-281.59 64.56,-280.86"/>
<polygon fill="#63b8ff" stroke="#63b8ff" points="65.65,-277.53 55.06,-277.6 63.38,-284.15 65.65,-277.53"/>
</a>
</g>
</g>
<!-- Node3 -->
<g id="Node000003" class="node">
<title>Node3</title>
<g id="a_Node000003"><a xlink:href="Core_8hpp.html" target="_top" xlink:title="Core engine lifecycle and configuration API.">
<polygon fill="white" stroke="#666666" points="140,-277.5 80,-277.5 80,-258.5 140,-258.5 140,-277.5"/>
<text text-anchor="middle" x="110" y="-265.5" font-family="Helvetica,sans-Serif" font-size="10.00">Core.hpp</text>
</a>
</g>
</g>
<!-- Node1&#45;&gt;Node3 -->
<g id="edge2_Node000001_Node000003" class="edge">
<title>Node1&#45;&gt;Node3</title>
<g id="a_edge2_Node000001_Node000003"><a xlink:title=" ">
<path fill="none" stroke="#63b8ff" d="M201.21,-318.87C183.67,-309.28 155.12,-293.67 134.63,-282.47"/>
<polygon fill="#63b8ff" stroke="#63b8ff" points="136.31,-279.39 125.85,-277.67 132.95,-285.54 136.31,-279.39"/>
</a>
</g>
</g>
<!-- Node4 -->
<g id="Node000004" class="node">
<title>Node4</title>
<g id="a_Node000004"><a xlink:href="Engine_8hpp.html" target="_top" xlink:title=" ">
<polygon fill="white" stroke="#666666" points="809.5,-277.5 662.5,-277.5 662.5,-258.5 809.5,-258.5 809.5,-277.5"/>
<text text-anchor="middle" x="736" y="-265.5" font-family="Helvetica,sans-Serif" font-size="10.00">MayaFlux/Core/Engine.hpp</text>
</a>
</g>
</g>
<!-- Node1&#45;&gt;Node4 -->
<g id="edge3_Node000001_Node000004" class="edge">
<title>Node1&#45;&gt;Node4</title>
<g id="a_edge3_Node000001_Node000004"><a xlink:title=" ">
<path fill="none" stroke="#63b8ff" d="M248.3,-323.97C326.88,-315.12 534.57,-291.7 652.01,-278.47"/>
<polygon fill="#63b8ff" stroke="#63b8ff" points="652.5,-281.93 662.04,-277.34 651.71,-274.98 652.5,-281.93"/>
</a>
</g>
</g>
<!-- Node15 -->
<g id="Node000015" class="node">
<title>Node15</title>
<g id="a_Node000015"><a xlink:href="InputManager_8hpp.html" target="_top" xlink:title=" ">
<polygon fill="white" stroke="#666666" points="276,-283 158,-283 158,-253 276,-253 276,-283"/>
<text text-anchor="start" x="166" y="-271" font-family="Helvetica,sans-Serif" font-size="10.00">MayaFlux/Core/Input</text>
<text text-anchor="middle" x="217" y="-260" font-family="Helvetica,sans-Serif" font-size="10.00">/InputManager.hpp</text>
</a>
</g>
</g>
<!-- Node1&#45;&gt;Node15 -->
<g id="edge14_Node000001_Node000015" class="edge">
<title>Node1&#45;&gt;Node15</title>
<g id="a_edge14_Node000001_Node000015"><a xlink:title=" ">
<path fill="none" stroke="#63b8ff" d="M217,-318.87C217,-312.11 217,-302.35 217,-293.26"/>
<polygon fill="#63b8ff" stroke="#63b8ff" points="220.5,-293.11 217,-283.11 213.5,-293.11 220.5,-293.11"/>
</a>
</g>
</g>
<!-- Node17 -->
<g id="Node000017" class="node">
<title>Node17</title>
<g id="a_Node000017"><a xlink:href="InputSubsystem_8hpp.html" target="_top" xlink:title=" ">
<polygon fill="white" stroke="#666666" points="446,-283 294,-283 294,-253 446,-253 446,-283"/>
<text text-anchor="start" x="302" y="-271" font-family="Helvetica,sans-Serif" font-size="10.00">MayaFlux/Core/Subsystems</text>
<text text-anchor="middle" x="370" y="-260" font-family="Helvetica,sans-Serif" font-size="10.00">/InputSubsystem.hpp</text>
</a>
</g>
</g>
<!-- Node1&#45;&gt;Node17 -->
<g id="edge17_Node000001_Node000017" class="edge">
<title>Node1&#45;&gt;Node17</title>
<g id="a_edge17_Node000001_Node000017"><a xlink:title=" ">
<path fill="none" stroke="#63b8ff" d="M239.25,-318.99C261.27,-310.57 295.64,-297.43 323.62,-286.73"/>
<polygon fill="#63b8ff" stroke="#63b8ff" points="325.13,-289.9 333.22,-283.06 322.63,-283.37 325.13,-289.9"/>
</a>
</g>
</g>
<!-- Node5 -->
<g id="Node000005" class="node">
<title>Node5</title>
<g id="a_Node000005"><a xlink:href="SubsystemManager_8hpp.html" target="_top" xlink:title=" ">
<polygon fill="white" stroke="#666666" points="803,-211.5 669,-211.5 669,-192.5 803,-192.5 803,-211.5"/>
<text text-anchor="middle" x="736" y="-199.5" font-family="Helvetica,sans-Serif" font-size="10.00">SubsystemManager.hpp</text>
</a>
</g>
</g>
<!-- Node4&#45;&gt;Node5 -->
<g id="edge4_Node000004_Node000005" class="edge">
<title>Node4&#45;&gt;Node5</title>
<g id="a_edge4_Node000004_Node000005"><a xlink:title=" ">
<path fill="none" stroke="#63b8ff" d="M736,-258.37C736,-249.16 736,-234.29 736,-222.27"/>
<polygon fill="#63b8ff" stroke="#63b8ff" points="739.5,-221.91 736,-211.91 732.5,-221.91 739.5,-221.91"/>
</a>
</g>
</g>
<!-- Node9 -->
<g id="Node000009" class="node">
<title>Node9</title>
<g id="a_Node000009"><a xlink:href="GlobalGraphicsInfo_8hpp.html" target="_top" xlink:title=" ">
<polygon fill="white" stroke="#666666" points="952.5,-211.5 821.5,-211.5 821.5,-192.5 952.5,-192.5 952.5,-211.5"/>
<text text-anchor="middle" x="887" y="-199.5" font-family="Helvetica,sans-Serif" font-size="10.00">GlobalGraphicsInfo.hpp</text>
</a>
</g>
</g>
<!-- Node4&#45;&gt;Node9 -->
<g id="edge8_Node000004_Node000009" class="edge">
<title>Node4&#45;&gt;Node9</title>
<g id="a_edge8_Node000004_Node000009"><a xlink:title=" ">
<path fill="none" stroke="#63b8ff" d="M756.36,-258.37C782.26,-247.39 827.17,-228.36 856.99,-215.72"/>
<polygon fill="#63b8ff" stroke="#63b8ff" points="858.63,-218.82 866.48,-211.7 855.9,-212.38 858.63,-218.82"/>
</a>
</g>
</g>
<!-- Node10 -->
<g id="Node000010" class="node">
<title>Node10</title>
<g id="a_Node000010"><a xlink:href="GlobalInputConfig_8hpp.html" target="_top" xlink:title=" ">
<polygon fill="white" stroke="#666666" points="377.5,-151 252.5,-151 252.5,-132 377.5,-132 377.5,-151"/>
<text text-anchor="middle" x="315" y="-139" font-family="Helvetica,sans-Serif" font-size="10.00">GlobalInputConfig.hpp</text>
</a>
</g>
</g>
<!-- Node4&#45;&gt;Node10 -->
<g id="edge9_Node000004_Node000010" class="edge">
<title>Node4&#45;&gt;Node10</title>
<g id="a_edge9_Node000004_Node000010"><a xlink:title=" ">
<path fill="none" stroke="#63b8ff" d="M663.6,-258.5C609.6,-250.92 534.52,-237.77 471,-217 421.83,-200.92 368.16,-172.73 338.34,-156.02"/>
<polygon fill="#63b8ff" stroke="#63b8ff" points="339.95,-152.91 329.53,-151.02 336.5,-159 339.95,-152.91"/>
</a>
</g>
</g>
<!-- Node12 -->
<g id="Node000012" class="node">
<title>Node12</title>
<g id="a_Node000012"><a xlink:href="GlobalNetworkConfig_8hpp.html" target="_top" xlink:title=" ">
<polygon fill="white" stroke="#666666" points="1111.5,-211.5 970.5,-211.5 970.5,-192.5 1111.5,-192.5 1111.5,-211.5"/>
<text text-anchor="middle" x="1041" y="-199.5" font-family="Helvetica,sans-Serif" font-size="10.00">GlobalNetworkConfig.hpp</text>
</a>
</g>
</g>
<!-- Node4&#45;&gt;Node12 -->
<g id="edge11_Node000004_Node000012" class="edge">
<title>Node4&#45;&gt;Node12</title>
<g id="a_edge11_Node000004_Node000012"><a xlink:title=" ">
<path fill="none" stroke="#63b8ff" d="M776.82,-258.44C832.06,-246.84 930.58,-226.17 990.44,-213.61"/>
<polygon fill="#63b8ff" stroke="#63b8ff" points="991.36,-216.99 1000.42,-211.51 989.92,-210.14 991.36,-216.99"/>
</a>
</g>
</g>
<!-- Node13 -->
<g id="Node000013" class="node">
<title>Node13</title>
<g id="a_Node000013"><a xlink:href="GlobalStreamInfo_8hpp.html" target="_top" xlink:title=" ">
<polygon fill="white" stroke="#666666" points="1252.5,-211.5 1129.5,-211.5 1129.5,-192.5 1252.5,-192.5 1252.5,-211.5"/>
<text text-anchor="middle" x="1191" y="-199.5" font-family="Helvetica,sans-Serif" font-size="10.00">GlobalStreamInfo.hpp</text>
</a>
</g>
</g>
<!-- Node4&#45;&gt;Node13 -->
<g id="edge12_Node000004_Node000013" class="edge">
<title>Node4&#45;&gt;Node13</title>
<g id="a_edge12_Node000004_Node000013"><a xlink:title=" ">
<path fill="none" stroke="#63b8ff" d="M809.67,-258.95C887.32,-250.1 1013.1,-234.78 1121,-217 1127.34,-215.96 1133.98,-214.76 1140.55,-213.52"/>
<polygon fill="#63b8ff" stroke="#63b8ff" points="1141.59,-216.88 1150.74,-211.54 1140.26,-210.01 1141.59,-216.88"/>
</a>
</g>
</g>
<!-- Node14 -->
<g id="Node000014" class="node">
<title>Node14</title>
<g id="a_Node000014"><a xlink:href="NodeSpec_8hpp.html" target="_top" xlink:title=" ">
<polygon fill="white" stroke="#666666" points="650.5,-211.5 479.5,-211.5 479.5,-192.5 650.5,-192.5 650.5,-211.5"/>
<text text-anchor="middle" x="565" y="-199.5" font-family="Helvetica,sans-Serif" font-size="10.00">MayaFlux/Nodes/NodeSpec.hpp</text>
</a>
</g>
</g>
<!-- Node4&#45;&gt;Node14 -->
<g id="edge13_Node000004_Node000014" class="edge">
<title>Node4&#45;&gt;Node14</title>
<g id="a_edge13_Node000004_Node000014"><a xlink:title=" ">
<path fill="none" stroke="#63b8ff" d="M712.94,-258.37C683.15,-247.22 631.13,-227.75 597.39,-215.12"/>
<polygon fill="#63b8ff" stroke="#63b8ff" points="598.56,-211.82 587.97,-211.6 596.11,-218.38 598.56,-211.82"/>
</a>
</g>
</g>
<!-- Node6 -->
<g id="Node000006" class="node">
<title>Node6</title>
<g id="a_Node000006"><a xlink:href="Subsystem_8hpp.html" target="_top" xlink:title=" ">
<polygon fill="white" stroke="#666666" points="681,-151 527,-151 527,-132 681,-132 681,-151"/>
<text text-anchor="middle" x="604" y="-139" font-family="Helvetica,sans-Serif" font-size="10.00">Subsystems/Subsystem.hpp</text>
</a>
</g>
</g>
<!-- Node5&#45;&gt;Node6 -->
<g id="edge5_Node000005_Node000006" class="edge">
<title>Node5&#45;&gt;Node6</title>
<g id="a_edge5_Node000005_Node000006"><a xlink:title=" ">
<path fill="none" stroke="#63b8ff" d="M716.81,-192.49C694.61,-182.66 657.88,-166.38 632.38,-155.08"/>
<polygon fill="#63b8ff" stroke="#63b8ff" points="633.78,-151.87 623.22,-151.02 630.94,-158.27 633.78,-151.87"/>
</a>
</g>
</g>
<!-- Node7 -->
<g id="Node000007" class="node">
<title>Node7</title>
<g id="a_Node000007"><a xlink:href="ProcessingArchitecture_8hpp.html" target="_top" xlink:title="Unified processing architecture for multimodal subsystem coordination.">
<polygon fill="white" stroke="#666666" points="677,-96 531,-96 531,-66 677,-66 677,-96"/>
<text text-anchor="start" x="539" y="-84" font-family="Helvetica,sans-Serif" font-size="10.00">MayaFlux/Core/Processing</text>
<text text-anchor="middle" x="604" y="-73" font-family="Helvetica,sans-Serif" font-size="10.00">Architecture.hpp</text>
</a>
</g>
</g>
<!-- Node6&#45;&gt;Node7 -->
<g id="edge6_Node000006_Node000007" class="edge">
<title>Node6&#45;&gt;Node7</title>
<g id="a_edge6_Node000006_Node000007"><a xlink:title=" ">
<path fill="none" stroke="#63b8ff" d="M604,-131.87C604,-125.11 604,-115.35 604,-106.26"/>
<polygon fill="#63b8ff" stroke="#63b8ff" points="607.5,-106.11 604,-96.11 600.5,-106.11 607.5,-106.11"/>
</a>
</g>
</g>
<!-- Node8 -->
<g id="Node000008" class="node">
<title>Node8</title>
<g id="a_Node000008"><a xlink:href="ProcessingTokens_8hpp.html" target="_top" xlink:title=" ">
<polygon fill="white" stroke="#666666" points="677,-30 531,-30 531,0 677,0 677,-30"/>
<text text-anchor="start" x="539" y="-18" font-family="Helvetica,sans-Serif" font-size="10.00">MayaFlux/Core/Processing</text>
<text text-anchor="middle" x="604" y="-7" font-family="Helvetica,sans-Serif" font-size="10.00">Tokens.hpp</text>
</a>
</g>
</g>
<!-- Node7&#45;&gt;Node8 -->
<g id="edge7_Node000007_Node000008" class="edge">
<title>Node7&#45;&gt;Node8</title>
<g id="a_edge7_Node000007_Node000008"><a xlink:title=" ">
<path fill="none" stroke="#63b8ff" d="M604,-65.8C604,-58.34 604,-48.99 604,-40.41"/>
<polygon fill="#63b8ff" stroke="#63b8ff" points="607.5,-40.16 604,-30.16 600.5,-40.16 607.5,-40.16"/>
</a>
</g>
</g>
<!-- Node11 -->
<g id="Node000011" class="node">
<title>Node11</title>
<g id="a_Node000011"><a xlink:href="InputBinding_8hpp.html" target="_top" xlink:title=" ">
<polygon fill="white" stroke="#666666" points="374,-96 256,-96 256,-66 374,-66 374,-96"/>
<text text-anchor="start" x="264" y="-84" font-family="Helvetica,sans-Serif" font-size="10.00">MayaFlux/Core/Input</text>
<text text-anchor="middle" x="315" y="-73" font-family="Helvetica,sans-Serif" font-size="10.00">/InputBinding.hpp</text>
</a>
</g>
</g>
<!-- Node10&#45;&gt;Node11 -->
<g id="edge10_Node000010_Node000011" class="edge">
<title>Node10&#45;&gt;Node11</title>
<g id="a_edge10_Node000010_Node000011"><a xlink:title=" ">
<path fill="none" stroke="#63b8ff" d="M315,-131.87C315,-125.11 315,-115.35 315,-106.26"/>
<polygon fill="#63b8ff" stroke="#63b8ff" points="318.5,-106.11 315,-96.11 311.5,-106.11 318.5,-106.11"/>
</a>
</g>
</g>
<!-- Node15&#45;&gt;Node10 -->
<g id="edge15_Node000015_Node000010" class="edge">
<title>Node15&#45;&gt;Node10</title>
<g id="a_edge15_Node000015_Node000010"><a xlink:title=" ">
<path fill="none" stroke="#63b8ff" d="M217.04,-252.85C217.77,-235.64 221.31,-206.5 236,-187 246.82,-172.63 263.73,-162.22 279.12,-155.1"/>
<polygon fill="#63b8ff" stroke="#63b8ff" points="280.65,-158.26 288.45,-151.09 277.88,-151.83 280.65,-158.26"/>
</a>
</g>
</g>
<!-- Node16 -->
<g id="Node000016" class="node">
<title>Node16</title>
<g id="a_Node000016"><a xlink:href="RingBuffer_8hpp.html" target="_top" xlink:title=" ">
<polygon fill="white" stroke="#666666" points="189,-217 55,-217 55,-187 189,-187 189,-217"/>
<text text-anchor="start" x="63" y="-205" font-family="Helvetica,sans-Serif" font-size="10.00">MayaFlux/Transitive</text>
<text text-anchor="middle" x="122" y="-194" font-family="Helvetica,sans-Serif" font-size="10.00">/Memory/RingBuffer.hpp</text>
</a>
</g>
</g>
<!-- Node15&#45;&gt;Node16 -->
<g id="edge16_Node000015_Node000016" class="edge">
<title>Node15&#45;&gt;Node16</title>
<g id="a_edge16_Node000015_Node000016"><a xlink:title=" ">
<path fill="none" stroke="#63b8ff" d="M195.92,-252.8C182.88,-244.01 165.95,-232.61 151.58,-222.93"/>
<polygon fill="#63b8ff" stroke="#63b8ff" points="153.27,-219.85 143.02,-217.16 149.36,-225.65 153.27,-219.85"/>
</a>
</g>
</g>
<!-- Node17&#45;&gt;Node6 -->
<g id="edge20_Node000017_Node000006" class="edge">
<title>Node17&#45;&gt;Node6</title>
<g id="a_edge20_Node000017_Node000006"><a xlink:title=" ">
<path fill="none" stroke="#63b8ff" d="M384.56,-252.73C403.21,-235.14 437.17,-205.32 471,-187 498.34,-172.19 531.49,-161.09 557.86,-153.67"/>
<polygon fill="#63b8ff" stroke="#63b8ff" points="558.88,-157.02 567.61,-151.01 557.04,-150.27 558.88,-157.02"/>
</a>
</g>
</g>
<!-- Node18 -->
<g id="Node000018" class="node">
<title>Node18</title>
<g id="a_Node000018"><a xlink:href="InputBackend_8hpp.html" target="_top" xlink:title=" ">
<polygon fill="white" stroke="#666666" points="385,-217 245,-217 245,-187 385,-187 385,-217"/>
<text text-anchor="start" x="253" y="-205" font-family="Helvetica,sans-Serif" font-size="10.00">MayaFlux/Core/Backends</text>
<text text-anchor="middle" x="315" y="-194" font-family="Helvetica,sans-Serif" font-size="10.00">/Input/InputBackend.hpp</text>
</a>
</g>
</g>
<!-- Node17&#45;&gt;Node18 -->
<g id="edge18_Node000017_Node000018" class="edge">
<title>Node17&#45;&gt;Node18</title>
<g id="a_edge18_Node000017_Node000018"><a xlink:title=" ">
<path fill="none" stroke="#63b8ff" d="M357.79,-252.8C350.74,-244.59 341.73,-234.1 333.79,-224.87"/>
<polygon fill="#63b8ff" stroke="#63b8ff" points="336.34,-222.47 327.17,-217.16 331.04,-227.03 336.34,-222.47"/>
</a>
</g>
</g>
<!-- Node18&#45;&gt;Node10 -->
<g id="edge19_Node000018_Node000010" class="edge">
<title>Node18&#45;&gt;Node10</title>
<g id="a_edge19_Node000018_Node000010"><a xlink:title=" ">
<path fill="none" stroke="#63b8ff" d="M315,-186.84C315,-179.21 315,-169.7 315,-161.45"/>
<polygon fill="#63b8ff" stroke="#63b8ff" points="318.5,-161.27 315,-151.27 311.5,-161.27 318.5,-161.27"/>
</a>
</g>
</g>
</g>
</svg>

<g id="navigator" transform="translate(0 0)" fill="#404254">
  <rect fill="#f2f5e9" fill-opacity="0.5" stroke="#606060" stroke-width=".5" x="0" y="0" width="60" height="60"/>
  <use id="zoomplus" xlink:href="#zoomPlus" x="17" y="9" onmousedown="handleZoom(evt,'in')"/>
  <use id="zoomminus" xlink:href="#zoomMin" x="42" y="9" onmousedown="handleZoom(evt,'out')"/>
  <use id="reset" xlink:href="#resetDef" x="30" y="36" onmousedown="handleReset()"/>
   <use id="arrowup" xlink:href="#arrowUp" x="0" y="0" onmousedown="handlePan(0,-1)"/>
  <use id="arrowright" xlink:href="#arrowRight" x="0" y="0" onmousedown="handlePan(1,0)"/>
  <use id="arrowdown" xlink:href="#arrowDown" x="0" y="0" onmousedown="handlePan(0,1)"/>
  <use id="arrowleft" xlink:href="#arrowLeft" x="0" y="0" onmousedown="handlePan(-1,0)"/>
</g>
<svg viewBox="0 0 15 15" width="100%" height="30px" preserveAspectRatio="xMaxYMin meet">
 <g id="arrow_out" transform="scale(0.3 0.3)">
  <a xlink:href="Input_8cpp__incl_org.svg" target="_base">
   <rect id="button" ry="5" rx="5" y="6" x="6" height="38" width="38"
        fill="#f2f5e9" fill-opacity="0.5" stroke="#606060" stroke-width="1.0"/>
   <path id="arrow"
     d="M 11.500037,31.436501 C 11.940474,20.09759 22.043105,11.32322 32.158766,21.979434 L 37.068811,17.246167 C 37.068811,17.246167 37.088388,32 37.088388,32 L 22.160133,31.978069 C 22.160133,31.978069 26.997745,27.140456 26.997745,27.140456 C 18.528582,18.264221 13.291696,25.230495 11.500037,31.436501 z"
     style="fill:#404040;"/>
  </a>
 </g>
</svg>

<style type='text/css'>
<![CDATA[
[data-mouse-over-selected='false'] { opacity: 0.7; }
[data-mouse-over-selected='true']  { opacity: 1.0; }
]]>
</style>
<script type="application/ecmascript"><![CDATA[
document.addEventListener('DOMContentLoaded', (event) => {
  highlightEdges();
  highlightAdjacentNodes();
});
]]></script>
</svg>
