<?xml version="1.0" encoding="UTF-8" standalone="no"?>
<!DOCTYPE svg PUBLIC "-//W3C//DTD SVG 1.1//EN"
 "http://www.w3.org/Graphics/SVG/1.1/DTD/svg11.dtd">
<!-- Generated by graphviz version 2.43.0 (0)
 -->
<!-- Title: InputEvents.cpp Pages: 1 -->
<svg width="897pt" height="214pt"
 viewBox="0.00 0.00 896.50 214.00" xmlns="http://www.w3.org/2000/svg" xmlns:xlink="http://www.w3.org/1999/xlink">
<g id="graph0" class="graph" transform="scale(1 1) rotate(0) translate(4 210)">
<title>InputEvents.cpp</title>
<!-- Node1 -->
<g id="Node000001" class="node">
<title>Node1</title>
<g id="a_Node000001"><a xlink:title=" ">
<polygon fill="#999999" stroke="#666666" points="540,-206 445,-206 445,-187 540,-187 540,-206"/>
<text text-anchor="middle" x="492.5" y="-194" font-family="Helvetica,sans-Serif" font-size="10.00">InputEvents.cpp</text>
</a>
</g>
</g>
<!-- Node2 -->
<g id="Node000002" class="node">
<title>Node2</title>
<g id="a_Node000002"><a xlink:href="InputEvents_8hpp.html" target="_top" xlink:title=" ">
<polygon fill="white" stroke="#666666" points="119,-90.5 24,-90.5 24,-71.5 119,-71.5 119,-90.5"/>
<text text-anchor="middle" x="71.5" y="-78.5" font-family="Helvetica,sans-Serif" font-size="10.00">InputEvents.hpp</text>
</a>
</g>
</g>
<!-- Node1&#45;&gt;Node2 -->
<g id="edge1_Node000001_Node000002" class="edge">
<title>Node1&#45;&gt;Node2</title>
<g id="a_edge1_Node000001_Node000002"><a xlink:title=" ">
<path fill="none" stroke="#63b8ff" d="M460.86,-186.97C385.79,-166.73 196.96,-115.82 112.94,-93.17"/>
<polygon fill="#63b8ff" stroke="#63b8ff" points="113.79,-89.78 103.22,-90.55 111.97,-96.53 113.79,-89.78"/>
</a>
</g>
</g>
<!-- Node4 -->
<g id="Node000004" class="node">
<title>Node4</title>
<g id="a_Node000004"><a xlink:href="EventAwaiter_8hpp.html" target="_top" xlink:title=" ">
<polygon fill="white" stroke="#666666" points="566.5,-151 418.5,-151 418.5,-132 566.5,-132 566.5,-151"/>
<text text-anchor="middle" x="492.5" y="-139" font-family="Helvetica,sans-Serif" font-size="10.00">Awaiters/EventAwaiter.hpp</text>
</a>
</g>
</g>
<!-- Node1&#45;&gt;Node4 -->
<g id="edge3_Node000001_Node000004" class="edge">
<title>Node1&#45;&gt;Node4</title>
<g id="a_edge3_Node000001_Node000004"><a xlink:title=" ">
<path fill="none" stroke="#63b8ff" d="M492.5,-186.75C492.5,-179.8 492.5,-169.85 492.5,-161.13"/>
<polygon fill="#63b8ff" stroke="#63b8ff" points="496,-161.09 492.5,-151.09 489,-161.09 496,-161.09"/>
</a>
</g>
</g>
<!-- Node10 -->
<g id="Node000010" class="node">
<title>Node10</title>
<g id="a_Node000010"><a xlink:href="GetPromise_8hpp.html" target="_top" xlink:title=" ">
<polygon fill="white" stroke="#666666" points="888.5,-151 748.5,-151 748.5,-132 888.5,-132 888.5,-151"/>
<text text-anchor="middle" x="818.5" y="-139" font-family="Helvetica,sans-Serif" font-size="10.00">Awaiters/GetPromise.hpp</text>
</a>
</g>
</g>
<!-- Node1&#45;&gt;Node10 -->
<g id="edge11_Node000001_Node000010" class="edge">
<title>Node1&#45;&gt;Node10</title>
<g id="a_edge11_Node000001_Node000010"><a xlink:title=" ">
<path fill="none" stroke="#63b8ff" d="M540.25,-187.74C597.3,-178.46 692.89,-162.92 755.83,-152.69"/>
<polygon fill="#63b8ff" stroke="#63b8ff" points="756.72,-156.09 766.03,-151.03 755.59,-149.18 756.72,-156.09"/>
</a>
</g>
</g>
<!-- Node13 -->
<g id="Node000013" class="node">
<title>Node13</title>
<g id="a_Node000013"><a xlink:href="Window_8hpp.html" target="_top" xlink:title=" ">
<polygon fill="white" stroke="#666666" points="464.5,-96 324.5,-96 324.5,-66 464.5,-66 464.5,-96"/>
<text text-anchor="start" x="332.5" y="-84" font-family="Helvetica,sans-Serif" font-size="10.00">MayaFlux/Core/Backends</text>
<text text-anchor="middle" x="394.5" y="-73" font-family="Helvetica,sans-Serif" font-size="10.00">/Windowing/Window.hpp</text>
</a>
</g>
</g>
<!-- Node1&#45;&gt;Node13 -->
<g id="edge15_Node000001_Node000013" class="edge">
<title>Node1&#45;&gt;Node13</title>
<g id="a_edge15_Node000001_Node000013"><a xlink:title=" ">
<path fill="none" stroke="#63b8ff" d="M463.31,-186.88C445.15,-180.03 422.79,-168.62 409.5,-151 399.85,-138.21 396.14,-120.5 394.83,-106.22"/>
<polygon fill="#63b8ff" stroke="#63b8ff" points="398.31,-105.89 394.23,-96.11 391.33,-106.3 398.31,-105.89"/>
</a>
</g>
</g>
<!-- Node14 -->
<g id="Node000014" class="node">
<title>Node14</title>
<g id="a_Node000014"><a xlink:href="Event_8hpp.html" target="_top" xlink:title=" ">
<polygon fill="white" stroke="#666666" points="730.5,-151 584.5,-151 584.5,-132 730.5,-132 730.5,-151"/>
<text text-anchor="middle" x="657.5" y="-139" font-family="Helvetica,sans-Serif" font-size="10.00">MayaFlux/Vruta/Event.hpp</text>
</a>
</g>
</g>
<!-- Node1&#45;&gt;Node14 -->
<g id="edge17_Node000001_Node000014" class="edge">
<title>Node1&#45;&gt;Node14</title>
<g id="a_edge17_Node000001_Node000014"><a xlink:title=" ">
<path fill="none" stroke="#63b8ff" d="M519.01,-186.98C546.71,-178.09 590.36,-164.07 621.24,-154.15"/>
<polygon fill="#63b8ff" stroke="#63b8ff" points="622.33,-157.47 630.78,-151.08 620.19,-150.81 622.33,-157.47"/>
</a>
</g>
</g>
<!-- Node3 -->
<g id="Node000003" class="node">
<title>Node3</title>
<g id="a_Node000003"><a xlink:href="Keys_8hpp.html" target="_top" xlink:title=" ">
<polygon fill="white" stroke="#666666" points="125,-24.5 0,-24.5 0,-5.5 125,-5.5 125,-24.5"/>
<text text-anchor="middle" x="62.5" y="-12.5" font-family="Helvetica,sans-Serif" font-size="10.00">MayaFlux/IO/Keys.hpp</text>
</a>
</g>
</g>
<!-- Node2&#45;&gt;Node3 -->
<g id="edge2_Node000002_Node000003" class="edge">
<title>Node2&#45;&gt;Node3</title>
<g id="a_edge2_Node000002_Node000003"><a xlink:title=" ">
<path fill="none" stroke="#63b8ff" d="M70.29,-71.37C68.98,-62.07 66.86,-46.98 65.16,-34.9"/>
<polygon fill="#63b8ff" stroke="#63b8ff" points="68.61,-34.32 63.75,-24.91 61.68,-35.3 68.61,-34.32"/>
</a>
</g>
</g>
<!-- Node5 -->
<g id="Node000005" class="node">
<title>Node5</title>
<g id="a_Node000005"><a xlink:href="GlobalGraphicsInfo_8hpp.html" target="_top" xlink:title=" ">
<polygon fill="white" stroke="#666666" points="492,-30 325,-30 325,0 492,0 492,-30"/>
<text text-anchor="start" x="333" y="-18" font-family="Helvetica,sans-Serif" font-size="10.00">MayaFlux/Core/GlobalGraphics</text>
<text text-anchor="middle" x="408.5" y="-7" font-family="Helvetica,sans-Serif" font-size="10.00">Info.hpp</text>
</a>
</g>
</g>
<!-- Node4&#45;&gt;Node5 -->
<g id="edge4_Node000004_Node000005" class="edge">
<title>Node4&#45;&gt;Node5</title>
<g id="a_edge4_Node000004_Node000005"><a xlink:title=" ">
<path fill="none" stroke="#63b8ff" d="M492.11,-131.96C491.08,-117.31 487.3,-86.96 473.5,-66 465.7,-54.16 454.13,-43.96 442.9,-35.92"/>
<polygon fill="#63b8ff" stroke="#63b8ff" points="444.7,-32.91 434.45,-30.2 440.77,-38.71 444.7,-32.91"/>
</a>
</g>
</g>
<!-- Node6 -->
<g id="Node000006" class="node">
<title>Node6</title>
<g id="a_Node000006"><a xlink:href="WindowEventSource_8hpp.html" target="_top" xlink:title=" ">
<polygon fill="white" stroke="#666666" points="306.5,-96 142.5,-96 142.5,-66 306.5,-66 306.5,-96"/>
<text text-anchor="start" x="150.5" y="-84" font-family="Helvetica,sans-Serif" font-size="10.00">MayaFlux/Vruta/WindowEvent</text>
<text text-anchor="middle" x="224.5" y="-73" font-family="Helvetica,sans-Serif" font-size="10.00">Source.hpp</text>
</a>
</g>
</g>
<!-- Node4&#45;&gt;Node6 -->
<g id="edge5_Node000004_Node000006" class="edge">
<title>Node4&#45;&gt;Node6</title>
<g id="a_edge5_Node000004_Node000006"><a xlink:title=" ">
<path fill="none" stroke="#63b8ff" d="M453.53,-131.99C413.04,-123.16 348.7,-109.11 298.51,-98.16"/>
<polygon fill="#63b8ff" stroke="#63b8ff" points="299.19,-94.72 288.67,-96.01 297.7,-101.56 299.19,-94.72"/>
</a>
</g>
</g>
<!-- Node9 -->
<g id="Node000009" class="node">
<title>Node9</title>
<g id="a_Node000009"><a xlink:title=" ">
<polygon fill="#e0e0e0" stroke="#999999" points="571.5,-24.5 509.5,-24.5 509.5,-5.5 571.5,-5.5 571.5,-24.5"/>
<text text-anchor="middle" x="540.5" y="-12.5" font-family="Helvetica,sans-Serif" font-size="10.00">coroutine</text>
</a>
</g>
</g>
<!-- Node4&#45;&gt;Node9 -->
<g id="edge10_Node000004_Node000009" class="edge">
<title>Node4&#45;&gt;Node9</title>
<g id="a_edge10_Node000004_Node000009"><a xlink:title=" ">
<path fill="none" stroke="#63b8ff" d="M495.8,-131.94C503.54,-111.86 523.01,-61.37 533.52,-34.12"/>
<polygon fill="#63b8ff" stroke="#63b8ff" points="536.85,-35.21 537.18,-24.62 530.31,-32.69 536.85,-35.21"/>
</a>
</g>
</g>
<!-- Node6&#45;&gt;Node3 -->
<g id="edge8_Node000006_Node000003" class="edge">
<title>Node6&#45;&gt;Node3</title>
<g id="a_edge8_Node000006_Node000003"><a xlink:title=" ">
<path fill="none" stroke="#63b8ff" d="M188.95,-65.95C160.41,-54.68 120.75,-39.01 93.5,-28.25"/>
<polygon fill="#63b8ff" stroke="#63b8ff" points="94.65,-24.94 84.06,-24.52 92.07,-31.45 94.65,-24.94"/>
</a>
</g>
</g>
<!-- Node6&#45;&gt;Node5 -->
<g id="edge7_Node000006_Node000005" class="edge">
<title>Node6&#45;&gt;Node5</title>
<g id="a_edge7_Node000006_Node000005"><a xlink:title=" ">
<path fill="none" stroke="#63b8ff" d="M264.88,-65.95C292.44,-56.37 329.14,-43.6 358.55,-33.37"/>
<polygon fill="#63b8ff" stroke="#63b8ff" points="359.92,-36.6 368.21,-30.01 357.62,-29.99 359.92,-36.6"/>
</a>
</g>
</g>
<!-- Node7 -->
<g id="Node000007" class="node">
<title>Node7</title>
<g id="a_Node000007"><a xlink:href="EventSource_8hpp.html" target="_top" xlink:title=" ">
<polygon fill="white" stroke="#666666" points="306.5,-24.5 208.5,-24.5 208.5,-5.5 306.5,-5.5 306.5,-24.5"/>
<text text-anchor="middle" x="257.5" y="-12.5" font-family="Helvetica,sans-Serif" font-size="10.00">EventSource.hpp</text>
</a>
</g>
</g>
<!-- Node6&#45;&gt;Node7 -->
<g id="edge6_Node000006_Node000007" class="edge">
<title>Node6&#45;&gt;Node7</title>
<g id="a_edge6_Node000006_Node000007"><a xlink:title=" ">
<path fill="none" stroke="#63b8ff" d="M231.82,-65.8C236.67,-56.41 243.05,-44.02 248.25,-33.95"/>
<polygon fill="#63b8ff" stroke="#63b8ff" points="251.47,-35.34 252.94,-24.84 245.25,-32.13 251.47,-35.34"/>
</a>
</g>
</g>
<!-- Node8 -->
<g id="Node000008" class="node">
<title>Node8</title>
<g id="a_Node000008"><a xlink:title=" ">
<polygon fill="#e0e0e0" stroke="#999999" points="190,-24.5 143,-24.5 143,-5.5 190,-5.5 190,-24.5"/>
<text text-anchor="middle" x="166.5" y="-12.5" font-family="Helvetica,sans-Serif" font-size="10.00">queue</text>
</a>
</g>
</g>
<!-- Node6&#45;&gt;Node8 -->
<g id="edge9_Node000006_Node000008" class="edge">
<title>Node6&#45;&gt;Node8</title>
<g id="a_edge9_Node000006_Node000008"><a xlink:title=" ">
<path fill="none" stroke="#63b8ff" d="M211.63,-65.8C202.67,-55.92 190.71,-42.72 181.36,-32.39"/>
<polygon fill="#63b8ff" stroke="#63b8ff" points="183.82,-29.9 174.52,-24.84 178.64,-34.6 183.82,-29.9"/>
</a>
</g>
</g>
<!-- Node11 -->
<g id="Node000011" class="node">
<title>Node11</title>
<g id="a_Node000011"><a xlink:href="Promise_8hpp.html" target="_top" xlink:title=" ">
<polygon fill="white" stroke="#666666" points="739.5,-90.5 581.5,-90.5 581.5,-71.5 739.5,-71.5 739.5,-90.5"/>
<text text-anchor="middle" x="660.5" y="-78.5" font-family="Helvetica,sans-Serif" font-size="10.00">MayaFlux/Vruta/Promise.hpp</text>
</a>
</g>
</g>
<!-- Node10&#45;&gt;Node11 -->
<g id="edge12_Node000010_Node000011" class="edge">
<title>Node10&#45;&gt;Node11</title>
<g id="a_edge12_Node000010_Node000011"><a xlink:title=" ">
<path fill="none" stroke="#63b8ff" d="M795.53,-131.99C768.61,-122.03 723.83,-105.45 693.27,-94.13"/>
<polygon fill="#63b8ff" stroke="#63b8ff" points="694.1,-90.71 683.5,-90.52 691.66,-97.27 694.1,-90.71"/>
</a>
</g>
</g>
<!-- Node11&#45;&gt;Node9 -->
<g id="edge13_Node000011_Node000009" class="edge">
<title>Node11&#45;&gt;Node9</title>
<g id="a_edge13_Node000011_Node000009"><a xlink:title=" ">
<path fill="none" stroke="#63b8ff" d="M644.32,-71.37C624.19,-60.63 589.59,-42.18 565.91,-29.55"/>
<polygon fill="#63b8ff" stroke="#63b8ff" points="567.28,-26.32 556.81,-24.7 563.99,-32.49 567.28,-26.32"/>
</a>
</g>
</g>
<!-- Node12 -->
<g id="Node000012" class="node">
<title>Node12</title>
<g id="a_Node000012"><a xlink:href="ProcessingTokens_8hpp.html" target="_top" xlink:title=" ">
<polygon fill="white" stroke="#666666" points="735.5,-30 589.5,-30 589.5,0 735.5,0 735.5,-30"/>
<text text-anchor="start" x="597.5" y="-18" font-family="Helvetica,sans-Serif" font-size="10.00">MayaFlux/Core/Processing</text>
<text text-anchor="middle" x="662.5" y="-7" font-family="Helvetica,sans-Serif" font-size="10.00">Tokens.hpp</text>
</a>
</g>
</g>
<!-- Node11&#45;&gt;Node12 -->
<g id="edge14_Node000011_Node000012" class="edge">
<title>Node11&#45;&gt;Node12</title>
<g id="a_edge14_Node000011_Node000012"><a xlink:title=" ">
<path fill="none" stroke="#63b8ff" d="M660.77,-71.37C661.02,-63.49 661.39,-51.45 661.73,-40.6"/>
<polygon fill="#63b8ff" stroke="#63b8ff" points="665.24,-40.46 662.05,-30.36 658.24,-40.25 665.24,-40.46"/>
</a>
</g>
</g>
<!-- Node13&#45;&gt;Node5 -->
<g id="edge16_Node000013_Node000005" class="edge">
<title>Node13&#45;&gt;Node5</title>
<g id="a_edge16_Node000013_Node000005"><a xlink:title=" ">
<path fill="none" stroke="#63b8ff" d="M397.61,-65.8C399.26,-58.26 401.33,-48.78 403.22,-40.13"/>
<polygon fill="#63b8ff" stroke="#63b8ff" points="406.68,-40.68 405.4,-30.16 399.85,-39.19 406.68,-40.68"/>
</a>
</g>
</g>
<!-- Node14&#45;&gt;Node11 -->
<g id="edge18_Node000014_Node000011" class="edge">
<title>Node14&#45;&gt;Node11</title>
<g id="a_edge18_Node000014_Node000011"><a xlink:title=" ">
<path fill="none" stroke="#63b8ff" d="M657.94,-131.87C658.36,-123.75 659,-111.31 659.53,-100.89"/>
<polygon fill="#63b8ff" stroke="#63b8ff" points="663.04,-100.83 660.06,-90.67 656.05,-100.47 663.04,-100.83"/>
</a>
</g>
</g>
</g>
</svg>
