<?xml version="1.0" encoding="UTF-8" standalone="no"?>
<!DOCTYPE svg PUBLIC "-//W3C//DTD SVG 1.1//EN"
 "http://www.w3.org/Graphics/SVG/1.1/DTD/svg11.dtd">
<!-- Generated by graphviz version 2.43.0 (0)
 -->
<!-- Title: Inspector.hpp Pages: 1 -->
<svg width="1349pt" height="885pt"
 viewBox="0.00 0.00 1349.00 885.00" xmlns="http://www.w3.org/2000/svg" xmlns:xlink="http://www.w3.org/1999/xlink">
<g id="graph0" class="graph" transform="scale(1 1) rotate(0) translate(4 881)">
<title>Inspector.hpp</title>
<!-- Node1 -->
<g id="Node000001" class="node">
<title>Node1</title>
<g id="a_Node000001"><a xlink:title=" ">
<polygon fill="#999999" stroke="#666666" points="713,-877 631,-877 631,-858 713,-858 713,-877"/>
<text text-anchor="middle" x="672" y="-865" font-family="Helvetica,sans-Serif" font-size="10.00">Inspector.hpp</text>
</a>
</g>
</g>
<!-- Node2 -->
<g id="Node000002" class="node">
<title>Node2</title>
<g id="a_Node000002"><a xlink:href="InspectResult_8hpp.html" target="_top" xlink:title=" ">
<polygon fill="white" stroke="#666666" points="544,-816.5 440,-816.5 440,-797.5 544,-797.5 544,-816.5"/>
<text text-anchor="middle" x="492" y="-804.5" font-family="Helvetica,sans-Serif" font-size="10.00">InspectResult.hpp</text>
</a>
</g>
</g>
<!-- Node1&#45;&gt;Node2 -->
<g id="edge1_Node000001_Node000002" class="edge">
<title>Node1&#45;&gt;Node2</title>
<g id="a_edge1_Node000001_Node000002"><a xlink:title=" ">
<path fill="none" stroke="#63b8ff" d="M645.83,-857.99C614.77,-847.9 562.81,-831.01 527.98,-819.69"/>
<polygon fill="#63b8ff" stroke="#63b8ff" points="528.8,-816.28 518.21,-816.52 526.63,-822.94 528.8,-816.28"/>
</a>
</g>
</g>
<!-- Node25 -->
<g id="Node000025" class="node">
<title>Node25</title>
<g id="a_Node000025"><a xlink:href="LayoutCursor_8hpp.html" target="_top" xlink:title=" ">
<polygon fill="white" stroke="#666666" points="576.5,-629.5 475.5,-629.5 475.5,-610.5 576.5,-610.5 576.5,-629.5"/>
<text text-anchor="middle" x="526" y="-617.5" font-family="Helvetica,sans-Serif" font-size="10.00">LayoutCursor.hpp</text>
</a>
</g>
</g>
<!-- Node1&#45;&gt;Node25 -->
<g id="edge71_Node000001_Node000025" class="edge">
<title>Node1&#45;&gt;Node25</title>
<g id="a_edge71_Node000001_Node000025"><a xlink:title=" ">
<path fill="none" stroke="#63b8ff" d="M666.8,-857.76C645.56,-822.04 565.09,-686.72 536.31,-638.33"/>
<polygon fill="#63b8ff" stroke="#63b8ff" points="539.25,-636.44 531.13,-629.63 533.24,-640.02 539.25,-636.44"/>
</a>
</g>
</g>
<!-- Node29 -->
<g id="Node000029" class="node">
<title>Node29</title>
<g id="a_Node000029"><a xlink:href="BufferManager_8hpp.html" target="_top" xlink:title=" ">
<polygon fill="white" stroke="#666666" points="787.5,-503 590.5,-503 590.5,-484 787.5,-484 787.5,-503"/>
<text text-anchor="middle" x="689" y="-491" font-family="Helvetica,sans-Serif" font-size="10.00">MayaFlux/Buffers/BufferManager.hpp</text>
</a>
</g>
</g>
<!-- Node1&#45;&gt;Node29 -->
<g id="edge46_Node000001_Node000029" class="edge">
<title>Node1&#45;&gt;Node29</title>
<g id="a_edge46_Node000001_Node000029"><a xlink:title=" ">
<path fill="none" stroke="#63b8ff" d="M673.96,-857.89C678.23,-838.37 688,-789.19 688,-747.5 688,-747.5 688,-747.5 688,-619 688,-581.49 688.46,-537.63 688.76,-513.26"/>
<polygon fill="#63b8ff" stroke="#63b8ff" points="692.26,-513.3 688.88,-503.25 685.26,-513.21 692.26,-513.3"/>
</a>
</g>
</g>
<!-- Node43 -->
<g id="Node000043" class="node">
<title>Node43</title>
<g id="a_Node000043"><a xlink:href="NodeGraphManager_8hpp.html" target="_top" xlink:title=" ">
<polygon fill="white" stroke="#666666" points="971,-822 815,-822 815,-792 971,-792 971,-822"/>
<text text-anchor="start" x="823" y="-810" font-family="Helvetica,sans-Serif" font-size="10.00">MayaFlux/Nodes/NodeGraph</text>
<text text-anchor="middle" x="893" y="-799" font-family="Helvetica,sans-Serif" font-size="10.00">Manager.hpp</text>
</a>
</g>
</g>
<!-- Node1&#45;&gt;Node43 -->
<g id="edge67_Node000001_Node000043" class="edge">
<title>Node1&#45;&gt;Node43</title>
<g id="a_edge67_Node000001_Node000043"><a xlink:title=" ">
<path fill="none" stroke="#63b8ff" d="M704.14,-857.99C736.98,-849.3 788.86,-835.57 829.94,-824.69"/>
<polygon fill="#63b8ff" stroke="#63b8ff" points="831.1,-828.01 839.87,-822.06 829.31,-821.24 831.1,-828.01"/>
</a>
</g>
</g>
<!-- Node3 -->
<g id="Node000003" class="node">
<title>Node3</title>
<g id="a_Node000003"><a xlink:href="QueryUtils_8hpp.html" target="_top" xlink:title=" ">
<polygon fill="white" stroke="#666666" points="485.5,-756 396.5,-756 396.5,-737 485.5,-737 485.5,-756"/>
<text text-anchor="middle" x="441" y="-744" font-family="Helvetica,sans-Serif" font-size="10.00">QueryUtils.hpp</text>
</a>
</g>
</g>
<!-- Node2&#45;&gt;Node3 -->
<g id="edge2_Node000002_Node000003" class="edge">
<title>Node2&#45;&gt;Node3</title>
<g id="a_edge2_Node000002_Node000003"><a xlink:title=" ">
<path fill="none" stroke="#63b8ff" d="M484.47,-797.37C476.79,-788.55 464.68,-774.66 455.19,-763.77"/>
<polygon fill="#63b8ff" stroke="#63b8ff" points="457.77,-761.41 448.56,-756.17 452.49,-766.01 457.77,-761.41"/>
</a>
</g>
</g>
<!-- Node4 -->
<g id="Node000004" class="node">
<title>Node4</title>
<g id="a_Node000004"><a xlink:href="Context_8hpp.html" target="_top" xlink:title=" ">
<polygon fill="white" stroke="#666666" points="158,-569 28,-569 28,-539 158,-539 158,-569"/>
<text text-anchor="start" x="36" y="-557" font-family="Helvetica,sans-Serif" font-size="10.00">MayaFlux/Portal/Forma</text>
<text text-anchor="middle" x="93" y="-546" font-family="Helvetica,sans-Serif" font-size="10.00">/Context.hpp</text>
</a>
</g>
</g>
<!-- Node3&#45;&gt;Node4 -->
<g id="edge3_Node000003_Node000004" class="edge">
<title>Node3&#45;&gt;Node4</title>
<g id="a_edge3_Node000003_Node000004"><a xlink:title=" ">
<path fill="none" stroke="#63b8ff" d="M396.46,-742.84C329.57,-738.08 207.27,-726.14 172,-701 130.29,-671.26 108.41,-612.42 98.94,-579.24"/>
<polygon fill="#63b8ff" stroke="#63b8ff" points="102.28,-578.18 96.29,-569.44 95.52,-580.01 102.28,-578.18"/>
</a>
</g>
</g>
<!-- Node5 -->
<g id="Node000005" class="node">
<title>Node5</title>
<g id="a_Node000005"><a xlink:href="Layer_8hpp.html" target="_top" xlink:title=" ">
<polygon fill="white" stroke="#666666" points="501,-503 437,-503 437,-484 501,-484 501,-503"/>
<text text-anchor="middle" x="469" y="-491" font-family="Helvetica,sans-Serif" font-size="10.00">Layer.hpp</text>
</a>
</g>
</g>
<!-- Node3&#45;&gt;Node5 -->
<g id="edge25_Node000003_Node000005" class="edge">
<title>Node3&#45;&gt;Node5</title>
<g id="a_edge25_Node000003_Node000005"><a xlink:title=" ">
<path fill="none" stroke="#63b8ff" d="M462.5,-736.96C496.38,-722.13 560.81,-688.04 585,-635 609.53,-581.2 536.38,-531.05 495.13,-507.91"/>
<polygon fill="#63b8ff" stroke="#63b8ff" points="496.58,-504.72 486.13,-503.01 493.23,-510.87 496.58,-504.72"/>
</a>
</g>
</g>
<!-- Node23 -->
<g id="Node000023" class="node">
<title>Node23</title>
<g id="a_Node000023"><a xlink:href="Link_8hpp.html" target="_top" xlink:title=" ">
<polygon fill="white" stroke="#666666" points="311,-701 181,-701 181,-671 311,-671 311,-701"/>
<text text-anchor="start" x="189" y="-689" font-family="Helvetica,sans-Serif" font-size="10.00">MayaFlux/Portal/Forma</text>
<text text-anchor="middle" x="246" y="-678" font-family="Helvetica,sans-Serif" font-size="10.00">/Link.hpp</text>
</a>
</g>
</g>
<!-- Node3&#45;&gt;Node23 -->
<g id="edge26_Node000003_Node000023" class="edge">
<title>Node3&#45;&gt;Node23</title>
<g id="a_edge26_Node000003_Node000023"><a xlink:title=" ">
<path fill="none" stroke="#63b8ff" d="M412.65,-736.99C383.97,-728.39 338.85,-714.86 302.79,-704.04"/>
<polygon fill="#63b8ff" stroke="#63b8ff" points="303.46,-700.59 292.88,-701.06 301.45,-707.29 303.46,-700.59"/>
</a>
</g>
</g>
<!-- Node24 -->
<g id="Node000024" class="node">
<title>Node24</title>
<g id="a_Node000024"><a xlink:href="Collapsible_8hpp.html" target="_top" xlink:title=" ">
<polygon fill="white" stroke="#666666" points="476.5,-701 329.5,-701 329.5,-671 476.5,-671 476.5,-701"/>
<text text-anchor="start" x="337.5" y="-689" font-family="Helvetica,sans-Serif" font-size="10.00">MayaFlux/Portal/Forma</text>
<text text-anchor="middle" x="403" y="-678" font-family="Helvetica,sans-Serif" font-size="10.00">/Primitives/Collapsible.hpp</text>
</a>
</g>
</g>
<!-- Node3&#45;&gt;Node24 -->
<g id="edge27_Node000003_Node000024" class="edge">
<title>Node3&#45;&gt;Node24</title>
<g id="a_edge27_Node000003_Node000024"><a xlink:title=" ">
<path fill="none" stroke="#63b8ff" d="M435.39,-736.87C430.76,-729.74 423.97,-719.28 417.8,-709.79"/>
<polygon fill="#63b8ff" stroke="#63b8ff" points="420.55,-707.59 412.17,-701.11 414.68,-711.41 420.55,-707.59"/>
</a>
</g>
</g>
<!-- Node3&#45;&gt;Node25 -->
<g id="edge45_Node000003_Node000025" class="edge">
<title>Node3&#45;&gt;Node25</title>
<g id="a_edge45_Node000003_Node000025"><a xlink:title=" ">
<path fill="none" stroke="#63b8ff" d="M451.35,-736.72C460.9,-728.25 475.06,-714.73 485,-701 499.25,-681.32 511.33,-655.99 518.61,-639.16"/>
<polygon fill="#63b8ff" stroke="#63b8ff" points="521.85,-640.48 522.5,-629.9 515.4,-637.77 521.85,-640.48"/>
</a>
</g>
</g>
<!-- Node4&#45;&gt;Node5 -->
<g id="edge4_Node000004_Node000005" class="edge">
<title>Node4&#45;&gt;Node5</title>
<g id="a_edge4_Node000004_Node000005"><a xlink:title=" ">
<path fill="none" stroke="#63b8ff" d="M158.13,-544.25C225.56,-534.96 333.89,-519.38 427,-503 427.1,-502.98 427.2,-502.96 427.3,-502.95"/>
<polygon fill="#63b8ff" stroke="#63b8ff" points="427.73,-506.43 436.93,-501.17 426.46,-499.54 427.73,-506.43"/>
</a>
</g>
</g>
<!-- Node22 -->
<g id="Node000022" class="node">
<title>Node22</title>
<g id="a_Node000022"><a xlink:href="Keys_8hpp.html" target="_top" xlink:title=" ">
<polygon fill="white" stroke="#666666" points="155.5,-503 30.5,-503 30.5,-484 155.5,-484 155.5,-503"/>
<text text-anchor="middle" x="93" y="-491" font-family="Helvetica,sans-Serif" font-size="10.00">MayaFlux/IO/Keys.hpp</text>
</a>
</g>
</g>
<!-- Node4&#45;&gt;Node22 -->
<g id="edge24_Node000004_Node000022" class="edge">
<title>Node4&#45;&gt;Node22</title>
<g id="a_edge24_Node000004_Node000022"><a xlink:title=" ">
<path fill="none" stroke="#63b8ff" d="M93,-538.84C93,-531.21 93,-521.7 93,-513.45"/>
<polygon fill="#63b8ff" stroke="#63b8ff" points="96.5,-513.27 93,-503.27 89.5,-513.27 96.5,-513.27"/>
</a>
</g>
</g>
<!-- Node6 -->
<g id="Node000006" class="node">
<title>Node6</title>
<g id="a_Node000006"><a xlink:href="Element_8hpp.html" target="_top" xlink:title=" ">
<polygon fill="white" stroke="#666666" points="497,-442.5 419,-442.5 419,-423.5 497,-423.5 497,-442.5"/>
<text text-anchor="middle" x="458" y="-430.5" font-family="Helvetica,sans-Serif" font-size="10.00">Element.hpp</text>
</a>
</g>
</g>
<!-- Node5&#45;&gt;Node6 -->
<g id="edge5_Node000005_Node000006" class="edge">
<title>Node5&#45;&gt;Node6</title>
<g id="a_edge5_Node000005_Node000006"><a xlink:title=" ">
<path fill="none" stroke="#63b8ff" d="M467.38,-483.87C465.83,-475.66 463.46,-463.04 461.49,-452.55"/>
<polygon fill="#63b8ff" stroke="#63b8ff" points="464.92,-451.85 459.63,-442.67 458.04,-453.14 464.92,-451.85"/>
</a>
</g>
</g>
<!-- Node7 -->
<g id="Node000007" class="node">
<title>Node7</title>
<g id="a_Node000007"><a xlink:href="FormaBuffer_8hpp.html" target="_top" xlink:title=" ">
<polygon fill="white" stroke="#666666" points="435,-382 299,-382 299,-352 435,-352 435,-382"/>
<text text-anchor="start" x="307" y="-370" font-family="Helvetica,sans-Serif" font-size="10.00">MayaFlux/Buffers/Forma</text>
<text text-anchor="middle" x="367" y="-359" font-family="Helvetica,sans-Serif" font-size="10.00">/FormaBuffer.hpp</text>
</a>
</g>
</g>
<!-- Node6&#45;&gt;Node7 -->
<g id="edge6_Node000006_Node000007" class="edge">
<title>Node6&#45;&gt;Node7</title>
<g id="a_edge6_Node000006_Node000007"><a xlink:title=" ">
<path fill="none" stroke="#63b8ff" d="M445.73,-423.37C432.92,-414.36 412.39,-399.92 395.51,-388.05"/>
<polygon fill="#63b8ff" stroke="#63b8ff" points="397.26,-385.01 387.07,-382.12 393.24,-390.73 397.26,-385.01"/>
</a>
</g>
</g>
<!-- Node19 -->
<g id="Node000019" class="node">
<title>Node19</title>
<g id="a_Node000019"><a xlink:href="Bounds_8hpp.html" target="_top" xlink:title=" ">
<polygon fill="white" stroke="#666666" points="593,-382 453,-382 453,-352 593,-352 593,-382"/>
<text text-anchor="start" x="461" y="-370" font-family="Helvetica,sans-Serif" font-size="10.00">MayaFlux/Kinesis/Spatial</text>
<text text-anchor="middle" x="523" y="-359" font-family="Helvetica,sans-Serif" font-size="10.00">/Bounds.hpp</text>
</a>
</g>
</g>
<!-- Node6&#45;&gt;Node19 -->
<g id="edge21_Node000006_Node000019" class="edge">
<title>Node6&#45;&gt;Node19</title>
<g id="a_edge21_Node000006_Node000019"><a xlink:title=" ">
<path fill="none" stroke="#63b8ff" d="M466.77,-423.37C475.52,-414.75 489.33,-401.15 501.07,-389.59"/>
<polygon fill="#63b8ff" stroke="#63b8ff" points="503.75,-391.87 508.42,-382.36 498.83,-386.88 503.75,-391.87"/>
</a>
</g>
</g>
<!-- Node8 -->
<g id="Node000008" class="node">
<title>Node8</title>
<g id="a_Node000008"><a xlink:href="VKBuffer_8hpp.html" target="_top" xlink:title=" ">
<polygon fill="white" stroke="#666666" points="548,-316 380,-316 380,-297 548,-297 548,-316"/>
<text text-anchor="middle" x="464" y="-304" font-family="Helvetica,sans-Serif" font-size="10.00">MayaFlux/Buffers/VKBuffer.hpp</text>
</a>
</g>
</g>
<!-- Node7&#45;&gt;Node8 -->
<g id="edge7_Node000007_Node000008" class="edge">
<title>Node7&#45;&gt;Node8</title>
<g id="a_edge7_Node000007_Node000008"><a xlink:title=" ">
<path fill="none" stroke="#63b8ff" d="M390.48,-351.84C405.8,-342.6 425.71,-330.59 440.95,-321.4"/>
<polygon fill="#63b8ff" stroke="#63b8ff" points="442.99,-324.26 449.75,-316.09 439.38,-318.26 442.99,-324.26"/>
</a>
</g>
</g>
<!-- Node18 -->
<g id="Node000018" class="node">
<title>Node18</title>
<g id="a_Node000018"><a xlink:href="GraphicsUtils_8hpp.html" target="_top" xlink:title=" ">
<polygon fill="white" stroke="#666666" points="270.5,-195 167.5,-195 167.5,-176 270.5,-176 270.5,-195"/>
<text text-anchor="middle" x="219" y="-183" font-family="Helvetica,sans-Serif" font-size="10.00">GraphicsUtils.hpp</text>
</a>
</g>
</g>
<!-- Node7&#45;&gt;Node18 -->
<g id="edge20_Node000007_Node000018" class="edge">
<title>Node7&#45;&gt;Node18</title>
<g id="a_edge20_Node000007_Node000018"><a xlink:title=" ">
<path fill="none" stroke="#63b8ff" d="M298.76,-352.04C278.07,-344.6 257.1,-333.25 243,-316 216.91,-284.09 215.66,-232.92 217.21,-205.42"/>
<polygon fill="#63b8ff" stroke="#63b8ff" points="220.72,-205.45 217.98,-195.22 213.74,-204.93 220.72,-205.45"/>
</a>
</g>
</g>
<!-- Node9 -->
<g id="Node000009" class="node">
<title>Node9</title>
<g id="a_Node000009"><a xlink:href="Buffer_8hpp.html" target="_top" xlink:title=" ">
<polygon fill="white" stroke="#666666" points="813,-255.5 747,-255.5 747,-236.5 813,-236.5 813,-255.5"/>
<text text-anchor="middle" x="780" y="-243.5" font-family="Helvetica,sans-Serif" font-size="10.00">Buffer.hpp</text>
</a>
</g>
</g>
<!-- Node8&#45;&gt;Node9 -->
<g id="edge8_Node000008_Node000009" class="edge">
<title>Node8&#45;&gt;Node9</title>
<g id="a_edge8_Node000008_Node000009"><a xlink:title=" ">
<path fill="none" stroke="#63b8ff" d="M509.95,-296.99C570.67,-285.75 676.86,-266.09 736.39,-255.07"/>
<polygon fill="#63b8ff" stroke="#63b8ff" points="737.39,-258.45 746.58,-253.19 736.11,-251.57 737.39,-258.45"/>
</a>
</g>
</g>
<!-- Node10 -->
<g id="Node000010" class="node">
<title>Node10</title>
<g id="a_Node000010"><a xlink:href="BufferProcessor_8hpp.html" target="_top" xlink:title=" ">
<polygon fill="white" stroke="#666666" points="691,-255.5 489,-255.5 489,-236.5 691,-236.5 691,-255.5"/>
<text text-anchor="middle" x="590" y="-243.5" font-family="Helvetica,sans-Serif" font-size="10.00">MayaFlux/Buffers/BufferProcessor.hpp</text>
</a>
</g>
</g>
<!-- Node8&#45;&gt;Node10 -->
<g id="edge9_Node000008_Node000010" class="edge">
<title>Node8&#45;&gt;Node10</title>
<g id="a_edge9_Node000008_Node000010"><a xlink:title=" ">
<path fill="none" stroke="#63b8ff" d="M482.32,-296.99C503.41,-287.2 538.26,-271.02 562.58,-259.73"/>
<polygon fill="#63b8ff" stroke="#63b8ff" points="564.06,-262.9 571.66,-255.52 561.11,-256.55 564.06,-262.9"/>
</a>
</g>
</g>
<!-- Node12 -->
<g id="Node000012" class="node">
<title>Node12</title>
<g id="a_Node000012"><a xlink:href="ProcessingTokens_8hpp.html" target="_top" xlink:title=" ">
<polygon fill="white" stroke="#666666" points="804,-140 658,-140 658,-110 804,-110 804,-140"/>
<text text-anchor="start" x="666" y="-128" font-family="Helvetica,sans-Serif" font-size="10.00">MayaFlux/Core/Processing</text>
<text text-anchor="middle" x="731" y="-117" font-family="Helvetica,sans-Serif" font-size="10.00">Tokens.hpp</text>
</a>
</g>
</g>
<!-- Node8&#45;&gt;Node12 -->
<g id="edge15_Node000008_Node000012" class="edge">
<title>Node8&#45;&gt;Node12</title>
<g id="a_edge15_Node000008_Node000012"><a xlink:title=" ">
<path fill="none" stroke="#63b8ff" d="M463.62,-296.73C463.42,-281.73 465.03,-250.86 480,-231 519.83,-178.16 591.23,-151.71 647.72,-138.59"/>
<polygon fill="#63b8ff" stroke="#63b8ff" points="648.73,-141.95 657.73,-136.36 647.21,-135.12 648.73,-141.95"/>
</a>
</g>
</g>
<!-- Node16 -->
<g id="Node000016" class="node">
<title>Node16</title>
<g id="a_Node000016"><a xlink:href="ShaderUtils_8hpp.html" target="_top" xlink:title=" ">
<polygon fill="white" stroke="#666666" points="414,-261 272,-261 272,-231 414,-231 414,-261"/>
<text text-anchor="start" x="280" y="-249" font-family="Helvetica,sans-Serif" font-size="10.00">MayaFlux/Portal/Graphics</text>
<text text-anchor="middle" x="343" y="-238" font-family="Helvetica,sans-Serif" font-size="10.00">/ShaderUtils.hpp</text>
</a>
</g>
</g>
<!-- Node8&#45;&gt;Node16 -->
<g id="edge16_Node000008_Node000016" class="edge">
<title>Node8&#45;&gt;Node16</title>
<g id="a_edge16_Node000008_Node000016"><a xlink:title=" ">
<path fill="none" stroke="#63b8ff" d="M446.41,-296.99C429.43,-288.79 403.17,-276.09 381.36,-265.55"/>
<polygon fill="#63b8ff" stroke="#63b8ff" points="382.85,-262.38 372.32,-261.18 379.8,-268.68 382.85,-262.38"/>
</a>
</g>
</g>
<!-- Node11 -->
<g id="Node000011" class="node">
<title>Node11</title>
<g id="a_Node000011"><a xlink:href="BufferUtils_8hpp.html" target="_top" xlink:title=" ">
<polygon fill="white" stroke="#666666" points="681.5,-195 592.5,-195 592.5,-176 681.5,-176 681.5,-195"/>
<text text-anchor="middle" x="637" y="-183" font-family="Helvetica,sans-Serif" font-size="10.00">BufferUtils.hpp</text>
</a>
</g>
</g>
<!-- Node10&#45;&gt;Node11 -->
<g id="edge10_Node000010_Node000011" class="edge">
<title>Node10&#45;&gt;Node11</title>
<g id="a_edge10_Node000010_Node000011"><a xlink:title=" ">
<path fill="none" stroke="#63b8ff" d="M596.94,-236.37C603.95,-227.64 614.96,-213.93 623.67,-203.09"/>
<polygon fill="#63b8ff" stroke="#63b8ff" points="626.5,-205.16 630.04,-195.17 621.04,-200.77 626.5,-205.16"/>
</a>
</g>
</g>
<!-- Node11&#45;&gt;Node12 -->
<g id="edge11_Node000011_Node000012" class="edge">
<title>Node11&#45;&gt;Node12</title>
<g id="a_edge11_Node000011_Node000012"><a xlink:title=" ">
<path fill="none" stroke="#63b8ff" d="M650.87,-175.87C663.62,-167.93 683,-155.87 699.51,-145.6"/>
<polygon fill="#63b8ff" stroke="#63b8ff" points="701.68,-148.37 708.32,-140.11 697.98,-142.43 701.68,-148.37"/>
</a>
</g>
</g>
<!-- Node13 -->
<g id="Node000013" class="node">
<title>Node13</title>
<g id="a_Node000013"><a xlink:href="VertexLayout_8hpp.html" target="_top" xlink:title=" ">
<polygon fill="white" stroke="#666666" points="374.5,-140 223.5,-140 223.5,-110 374.5,-110 374.5,-140"/>
<text text-anchor="start" x="231.5" y="-128" font-family="Helvetica,sans-Serif" font-size="10.00">MayaFlux/Kakshya/NDData</text>
<text text-anchor="middle" x="299" y="-117" font-family="Helvetica,sans-Serif" font-size="10.00">/VertexLayout.hpp</text>
</a>
</g>
</g>
<!-- Node11&#45;&gt;Node13 -->
<g id="edge12_Node000011_Node000013" class="edge">
<title>Node11&#45;&gt;Node13</title>
<g id="a_edge12_Node000011_Node000013"><a xlink:title=" ">
<path fill="none" stroke="#63b8ff" d="M592.46,-176.79C539.78,-167.67 450.88,-152.29 384.7,-140.83"/>
<polygon fill="#63b8ff" stroke="#63b8ff" points="385.14,-137.36 374.69,-139.1 383.95,-144.26 385.14,-137.36"/>
</a>
</g>
</g>
<!-- Node14 -->
<g id="Node000014" class="node">
<title>Node14</title>
<g id="a_Node000014"><a xlink:href="NDData_8hpp.html" target="_top" xlink:title=" ">
<polygon fill="white" stroke="#666666" points="337,-74 261,-74 261,-55 337,-55 337,-74"/>
<text text-anchor="middle" x="299" y="-62" font-family="Helvetica,sans-Serif" font-size="10.00">NDData.hpp</text>
</a>
</g>
</g>
<!-- Node13&#45;&gt;Node14 -->
<g id="edge13_Node000013_Node000014" class="edge">
<title>Node13&#45;&gt;Node14</title>
<g id="a_edge13_Node000013_Node000014"><a xlink:title=" ">
<path fill="none" stroke="#63b8ff" d="M299,-109.84C299,-102.21 299,-92.7 299,-84.45"/>
<polygon fill="#63b8ff" stroke="#63b8ff" points="302.5,-84.27 299,-74.27 295.5,-84.27 302.5,-84.27"/>
</a>
</g>
</g>
<!-- Node15 -->
<g id="Node000015" class="node">
<title>Node15</title>
<g id="a_Node000015"><a xlink:title=" ">
<polygon fill="#e0e0e0" stroke="#999999" points="338,-19 260,-19 260,0 338,0 338,-19"/>
<text text-anchor="middle" x="299" y="-7" font-family="Helvetica,sans-Serif" font-size="10.00">glm/glm.hpp</text>
</a>
</g>
</g>
<!-- Node14&#45;&gt;Node15 -->
<g id="edge14_Node000014_Node000015" class="edge">
<title>Node14&#45;&gt;Node15</title>
<g id="a_edge14_Node000014_Node000015"><a xlink:title=" ">
<path fill="none" stroke="#63b8ff" d="M299,-54.75C299,-47.8 299,-37.85 299,-29.13"/>
<polygon fill="#63b8ff" stroke="#63b8ff" points="302.5,-29.09 299,-19.09 295.5,-29.09 302.5,-29.09"/>
</a>
</g>
</g>
<!-- Node16&#45;&gt;Node13 -->
<g id="edge19_Node000016_Node000013" class="edge">
<title>Node16&#45;&gt;Node13</title>
<g id="a_edge19_Node000016_Node000013"><a xlink:title=" ">
<path fill="none" stroke="#63b8ff" d="M335.02,-230.89C329.69,-221.06 322.8,-207.51 318,-195 312.38,-180.35 307.69,-163.37 304.37,-149.92"/>
<polygon fill="#63b8ff" stroke="#63b8ff" points="307.73,-148.92 302.01,-140 300.92,-150.54 307.73,-148.92"/>
</a>
</g>
</g>
<!-- Node17 -->
<g id="Node000017" class="node">
<title>Node17</title>
<g id="a_Node000017"><a xlink:title=" ">
<polygon fill="#e0e0e0" stroke="#999999" points="432.5,-195 327.5,-195 327.5,-176 432.5,-176 432.5,-195"/>
<text text-anchor="middle" x="380" y="-183" font-family="Helvetica,sans-Serif" font-size="10.00">vulkan/vulkan.hpp</text>
</a>
</g>
</g>
<!-- Node16&#45;&gt;Node17 -->
<g id="edge17_Node000016_Node000017" class="edge">
<title>Node16&#45;&gt;Node17</title>
<g id="a_edge17_Node000016_Node000017"><a xlink:title=" ">
<path fill="none" stroke="#63b8ff" d="M351.96,-230.84C357.11,-222.69 363.62,-212.4 369.07,-203.78"/>
<polygon fill="#63b8ff" stroke="#63b8ff" points="372.07,-205.59 374.46,-195.27 366.15,-201.85 372.07,-205.59"/>
</a>
</g>
</g>
<!-- Node16&#45;&gt;Node18 -->
<g id="edge18_Node000016_Node000018" class="edge">
<title>Node16&#45;&gt;Node18</title>
<g id="a_edge18_Node000016_Node000018"><a xlink:title=" ">
<path fill="none" stroke="#63b8ff" d="M313.3,-230.99C292.98,-221.4 266.24,-208.79 246.42,-199.44"/>
<polygon fill="#63b8ff" stroke="#63b8ff" points="247.85,-196.24 237.31,-195.14 244.86,-202.57 247.85,-196.24"/>
</a>
</g>
</g>
<!-- Node20 -->
<g id="Node000020" class="node">
<title>Node20</title>
<g id="a_Node000020"><a xlink:title=" ">
<polygon fill="#e0e0e0" stroke="#999999" points="361.5,-316 252.5,-316 252.5,-297 361.5,-297 361.5,-316"/>
<text text-anchor="middle" x="307" y="-304" font-family="Helvetica,sans-Serif" font-size="10.00">glm/geometric.hpp</text>
</a>
</g>
</g>
<!-- Node19&#45;&gt;Node20 -->
<g id="edge22_Node000019_Node000020" class="edge">
<title>Node19&#45;&gt;Node20</title>
<g id="a_edge22_Node000019_Node000020"><a xlink:title=" ">
<path fill="none" stroke="#63b8ff" d="M471.26,-351.99C433.66,-341.8 383.44,-328.2 348.47,-318.73"/>
<polygon fill="#63b8ff" stroke="#63b8ff" points="349.15,-315.29 338.58,-316.05 347.32,-322.05 349.15,-315.29"/>
</a>
</g>
</g>
<!-- Node21 -->
<g id="Node000021" class="node">
<title>Node21</title>
<g id="a_Node000021"><a xlink:title=" ">
<polygon fill="#e0e0e0" stroke="#999999" points="649.5,-316 566.5,-316 566.5,-297 649.5,-297 649.5,-316"/>
<text text-anchor="middle" x="608" y="-304" font-family="Helvetica,sans-Serif" font-size="10.00">glm/vec2.hpp</text>
</a>
</g>
</g>
<!-- Node19&#45;&gt;Node21 -->
<g id="edge23_Node000019_Node000021" class="edge">
<title>Node19&#45;&gt;Node21</title>
<g id="a_edge23_Node000019_Node000021"><a xlink:title=" ">
<path fill="none" stroke="#63b8ff" d="M543.58,-351.84C556.67,-342.83 573.59,-331.18 586.8,-322.09"/>
<polygon fill="#63b8ff" stroke="#63b8ff" points="589.01,-324.82 595.26,-316.27 585.04,-319.05 589.01,-324.82"/>
</a>
</g>
</g>
<!-- Node24&#45;&gt;Node4 -->
<g id="edge36_Node000024_Node000004" class="edge">
<title>Node24&#45;&gt;Node4</title>
<g id="a_edge36_Node000024_Node000004"><a xlink:title=" ">
<path fill="none" stroke="#63b8ff" d="M329.45,-671.7C277.39,-661.58 212.63,-647.33 188,-635 158.65,-620.3 130.61,-594.79 112.7,-576.53"/>
<polygon fill="#63b8ff" stroke="#63b8ff" points="115.12,-573.99 105.67,-569.2 110.06,-578.84 115.12,-573.99"/>
</a>
</g>
</g>
<!-- Node24&#45;&gt;Node5 -->
<g id="edge44_Node000024_Node000005" class="edge">
<title>Node24&#45;&gt;Node5</title>
<g id="a_edge44_Node000024_Node000005"><a xlink:title=" ">
<path fill="none" stroke="#63b8ff" d="M413.7,-670.96C428.91,-650.07 456.14,-608.95 467,-569 471.98,-550.69 471.91,-528.92 470.94,-513.65"/>
<polygon fill="#63b8ff" stroke="#63b8ff" points="474.41,-513.09 470.1,-503.41 467.43,-513.67 474.41,-513.09"/>
</a>
</g>
</g>
<!-- Node24&#45;&gt;Node13 -->
<g id="edge33_Node000024_Node000013" class="edge">
<title>Node24&#45;&gt;Node13</title>
<g id="a_edge33_Node000024_Node000013"><a xlink:title=" ">
<path fill="none" stroke="#63b8ff" d="M329.41,-672.08C258.53,-659.44 159.53,-641.22 142,-635 73.73,-610.78 0,-627.44 0,-555 0,-555 0,-555 0,-245 0,-198.28 127.59,-161.82 216.08,-142.15"/>
<polygon fill="#63b8ff" stroke="#63b8ff" points="216.84,-145.57 225.86,-140.01 215.34,-138.73 216.84,-145.57"/>
</a>
</g>
</g>
<!-- Node24&#45;&gt;Node25 -->
<g id="edge28_Node000024_Node000025" class="edge">
<title>Node24&#45;&gt;Node25</title>
<g id="a_edge28_Node000024_Node000025"><a xlink:title=" ">
<path fill="none" stroke="#63b8ff" d="M429.99,-670.95C450.99,-660.03 479.93,-644.97 500.53,-634.25"/>
<polygon fill="#63b8ff" stroke="#63b8ff" points="502.38,-637.24 509.63,-629.52 499.14,-631.03 502.38,-637.24"/>
</a>
</g>
</g>
<!-- Node27 -->
<g id="Node000027" class="node">
<title>Node27</title>
<g id="a_Node000027"><a xlink:href="Bridge_8hpp.html" target="_top" xlink:title=" ">
<polygon fill="white" stroke="#666666" points="458,-569 328,-569 328,-539 458,-539 458,-569"/>
<text text-anchor="start" x="336" y="-557" font-family="Helvetica,sans-Serif" font-size="10.00">MayaFlux/Portal/Forma</text>
<text text-anchor="middle" x="393" y="-546" font-family="Helvetica,sans-Serif" font-size="10.00">/Bridge.hpp</text>
</a>
</g>
</g>
<!-- Node24&#45;&gt;Node27 -->
<g id="edge34_Node000024_Node000027" class="edge">
<title>Node24&#45;&gt;Node27</title>
<g id="a_edge34_Node000024_Node000027"><a xlink:title=" ">
<path fill="none" stroke="#63b8ff" d="M401.91,-670.84C400.22,-648.86 396.94,-606.27 394.87,-579.3"/>
<polygon fill="#63b8ff" stroke="#63b8ff" points="398.34,-578.84 394.09,-569.14 391.37,-579.38 398.34,-578.84"/>
</a>
</g>
</g>
<!-- Node28 -->
<g id="Node000028" class="node">
<title>Node28</title>
<g id="a_Node000028"><a xlink:href="Forma_8hpp.html" target="_top" xlink:title="Factory free functions for the Forma surface system.">
<polygon fill="white" stroke="#666666" points="327,-635 197,-635 197,-605 327,-605 327,-635"/>
<text text-anchor="start" x="205" y="-623" font-family="Helvetica,sans-Serif" font-size="10.00">MayaFlux/Portal/Forma</text>
<text text-anchor="middle" x="262" y="-612" font-family="Helvetica,sans-Serif" font-size="10.00">/Forma.hpp</text>
</a>
</g>
</g>
<!-- Node24&#45;&gt;Node28 -->
<g id="edge37_Node000024_Node000028" class="edge">
<title>Node24&#45;&gt;Node28</title>
<g id="a_edge37_Node000024_Node000028"><a xlink:title=" ">
<path fill="none" stroke="#63b8ff" d="M372.06,-670.95C351.49,-661.62 324.27,-649.27 302.05,-639.18"/>
<polygon fill="#63b8ff" stroke="#63b8ff" points="303.42,-635.96 292.87,-635.01 300.53,-642.33 303.42,-635.96"/>
</a>
</g>
</g>
<!-- Node25&#45;&gt;Node19 -->
<g id="edge32_Node000025_Node000019" class="edge">
<title>Node25&#45;&gt;Node19</title>
<g id="a_edge32_Node000025_Node000019"><a xlink:title=" ">
<path fill="none" stroke="#63b8ff" d="M525.9,-610.36C525.48,-575.76 523.94,-446.48 523.29,-392.22"/>
<polygon fill="#63b8ff" stroke="#63b8ff" points="526.79,-392.08 523.17,-382.13 519.79,-392.17 526.79,-392.08"/>
</a>
</g>
</g>
<!-- Node26 -->
<g id="Node000026" class="node">
<title>Node26</title>
<g id="a_Node000026"><a xlink:href="Mapped_8hpp.html" target="_top" xlink:title=" ">
<polygon fill="white" stroke="#666666" points="418.5,-503 341.5,-503 341.5,-484 418.5,-484 418.5,-503"/>
<text text-anchor="middle" x="380" y="-491" font-family="Helvetica,sans-Serif" font-size="10.00">Mapped.hpp</text>
</a>
</g>
</g>
<!-- Node25&#45;&gt;Node26 -->
<g id="edge29_Node000025_Node000026" class="edge">
<title>Node25&#45;&gt;Node26</title>
<g id="a_edge29_Node000025_Node000026"><a xlink:title=" ">
<path fill="none" stroke="#63b8ff" d="M521.38,-610.27C512.6,-594.37 492.12,-560.34 467,-539 451.11,-525.5 430.43,-514.71 413.22,-507.14"/>
<polygon fill="#63b8ff" stroke="#63b8ff" points="414.12,-503.72 403.55,-503.05 411.4,-510.17 414.12,-503.72"/>
</a>
</g>
</g>
<!-- Node26&#45;&gt;Node6 -->
<g id="edge31_Node000026_Node000006" class="edge">
<title>Node26&#45;&gt;Node6</title>
<g id="a_edge31_Node000026_Node000006"><a xlink:title=" ">
<path fill="none" stroke="#63b8ff" d="M391.51,-483.87C403.84,-474.62 423.62,-459.78 438.41,-448.69"/>
<polygon fill="#63b8ff" stroke="#63b8ff" points="440.54,-451.47 446.44,-442.67 436.34,-445.87 440.54,-451.47"/>
</a>
</g>
</g>
<!-- Node26&#45;&gt;Node7 -->
<g id="edge30_Node000026_Node000007" class="edge">
<title>Node26&#45;&gt;Node7</title>
<g id="a_edge30_Node000026_Node000007"><a xlink:title=" ">
<path fill="none" stroke="#63b8ff" d="M379.11,-483.94C377.16,-465.32 372.48,-420.53 369.55,-392.39"/>
<polygon fill="#63b8ff" stroke="#63b8ff" points="373,-391.74 368.48,-382.16 366.04,-392.47 373,-391.74"/>
</a>
</g>
</g>
<!-- Node27&#45;&gt;Node26 -->
<g id="edge35_Node000027_Node000026" class="edge">
<title>Node27&#45;&gt;Node26</title>
<g id="a_edge35_Node000027_Node000026"><a xlink:title=" ">
<path fill="none" stroke="#63b8ff" d="M389.85,-538.84C388.14,-531.13 386,-521.49 384.15,-513.17"/>
<polygon fill="#63b8ff" stroke="#63b8ff" points="387.53,-512.27 381.95,-503.27 380.7,-513.79 387.53,-512.27"/>
</a>
</g>
</g>
<!-- Node28&#45;&gt;Node4 -->
<g id="edge39_Node000028_Node000004" class="edge">
<title>Node28&#45;&gt;Node4</title>
<g id="a_edge39_Node000028_Node000004"><a xlink:title=" ">
<path fill="none" stroke="#63b8ff" d="M224.91,-604.95C199.82,-595.45 166.47,-582.82 139.59,-572.64"/>
<polygon fill="#63b8ff" stroke="#63b8ff" points="140.59,-569.28 130,-569.01 138.11,-575.83 140.59,-569.28"/>
</a>
</g>
</g>
<!-- Node28&#45;&gt;Node5 -->
<g id="edge40_Node000028_Node000005" class="edge">
<title>Node28&#45;&gt;Node5</title>
<g id="a_edge40_Node000028_Node000005"><a xlink:title=" ">
<path fill="none" stroke="#63b8ff" d="M268.36,-604.94C277.2,-587 294.85,-556.24 319,-539 336.4,-526.58 389.13,-512.6 427.15,-503.69"/>
<polygon fill="#63b8ff" stroke="#63b8ff" points="428,-507.08 436.96,-501.42 426.43,-500.26 428,-507.08"/>
</a>
</g>
</g>
<!-- Node28&#45;&gt;Node7 -->
<g id="edge42_Node000028_Node000007" class="edge">
<title>Node28&#45;&gt;Node7</title>
<g id="a_edge42_Node000028_Node000007"><a xlink:title=" ">
<path fill="none" stroke="#63b8ff" d="M260.94,-604.78C260.16,-588.5 260.23,-561.23 267,-539 284.78,-480.66 325.91,-421.1 349.51,-389.99"/>
<polygon fill="#63b8ff" stroke="#63b8ff" points="352.34,-392.06 355.67,-382 346.79,-387.79 352.34,-392.06"/>
</a>
</g>
</g>
<!-- Node28&#45;&gt;Node18 -->
<g id="edge43_Node000028_Node000018" class="edge">
<title>Node28&#45;&gt;Node18</title>
<g id="a_edge43_Node000028_Node000018"><a xlink:title=" ">
<path fill="none" stroke="#63b8ff" d="M245.88,-604.65C223.57,-583.12 186,-540.08 186,-494.5 186,-494.5 186,-494.5 186,-305.5 186,-268.5 201,-227.31 210.77,-204.39"/>
<polygon fill="#63b8ff" stroke="#63b8ff" points="213.98,-205.79 214.82,-195.23 207.58,-202.96 213.98,-205.79"/>
</a>
</g>
</g>
<!-- Node28&#45;&gt;Node26 -->
<g id="edge41_Node000028_Node000026" class="edge">
<title>Node28&#45;&gt;Node26</title>
<g id="a_edge41_Node000028_Node000026"><a xlink:title=" ">
<path fill="none" stroke="#63b8ff" d="M262.8,-604.92C264.5,-587.53 269.74,-557.91 286,-539 299.01,-523.87 318.31,-513.5 336.04,-506.62"/>
<polygon fill="#63b8ff" stroke="#63b8ff" points="337.46,-509.82 345.68,-503.14 335.09,-503.24 337.46,-509.82"/>
</a>
</g>
</g>
<!-- Node28&#45;&gt;Node27 -->
<g id="edge38_Node000028_Node000027" class="edge">
<title>Node28&#45;&gt;Node27</title>
<g id="a_edge38_Node000028_Node000027"><a xlink:title=" ">
<path fill="none" stroke="#63b8ff" d="M290.75,-604.95C309.69,-595.7 334.69,-583.49 355.23,-573.45"/>
<polygon fill="#63b8ff" stroke="#63b8ff" points="356.87,-576.55 364.32,-569.01 353.8,-570.26 356.87,-576.55"/>
</a>
</g>
</g>
<!-- Node30 -->
<g id="Node000030" class="node">
<title>Node30</title>
<g id="a_Node000030"><a xlink:href="BufferSpec_8hpp.html" target="_top" xlink:title=" ">
<polygon fill="white" stroke="#666666" points="706,-442.5 616,-442.5 616,-423.5 706,-423.5 706,-442.5"/>
<text text-anchor="middle" x="661" y="-430.5" font-family="Helvetica,sans-Serif" font-size="10.00">BufferSpec.hpp</text>
</a>
</g>
</g>
<!-- Node29&#45;&gt;Node30 -->
<g id="edge47_Node000029_Node000030" class="edge">
<title>Node29&#45;&gt;Node30</title>
<g id="a_edge47_Node000029_Node000030"><a xlink:title=" ">
<path fill="none" stroke="#63b8ff" d="M684.87,-483.87C680.86,-475.49 674.65,-462.51 669.56,-451.89"/>
<polygon fill="#63b8ff" stroke="#63b8ff" points="672.62,-450.18 665.15,-442.67 666.31,-453.2 672.62,-450.18"/>
</a>
</g>
</g>
<!-- Node31 -->
<g id="Node000031" class="node">
<title>Node31</title>
<g id="a_Node000031"><a xlink:href="TokenUnitManager_8hpp.html" target="_top" xlink:title=" ">
<polygon fill="white" stroke="#666666" points="877.5,-448 724.5,-448 724.5,-418 877.5,-418 877.5,-448"/>
<text text-anchor="start" x="732.5" y="-436" font-family="Helvetica,sans-Serif" font-size="10.00">MayaFlux/Buffers/Managers</text>
<text text-anchor="middle" x="801" y="-425" font-family="Helvetica,sans-Serif" font-size="10.00">/TokenUnitManager.hpp</text>
</a>
</g>
</g>
<!-- Node29&#45;&gt;Node31 -->
<g id="edge48_Node000029_Node000031" class="edge">
<title>Node29&#45;&gt;Node31</title>
<g id="a_edge48_Node000029_Node000031"><a xlink:title=" ">
<path fill="none" stroke="#63b8ff" d="M705.53,-483.87C721.15,-475.71 745.1,-463.2 765.11,-452.75"/>
<polygon fill="#63b8ff" stroke="#63b8ff" points="766.73,-455.85 773.98,-448.11 763.49,-449.64 766.73,-455.85"/>
</a>
</g>
</g>
<!-- Node32 -->
<g id="Node000032" class="node">
<title>Node32</title>
<g id="a_Node000032"><a xlink:href="RootAudioBuffer_8hpp.html" target="_top" xlink:title=" ">
<polygon fill="white" stroke="#666666" points="891,-382 763,-382 763,-352 891,-352 891,-382"/>
<text text-anchor="start" x="771" y="-370" font-family="Helvetica,sans-Serif" font-size="10.00">MayaFlux/Buffers/Root</text>
<text text-anchor="middle" x="827" y="-359" font-family="Helvetica,sans-Serif" font-size="10.00">/RootAudioBuffer.hpp</text>
</a>
</g>
</g>
<!-- Node31&#45;&gt;Node32 -->
<g id="edge49_Node000031_Node000032" class="edge">
<title>Node31&#45;&gt;Node32</title>
<g id="a_edge49_Node000031_Node000032"><a xlink:title=" ">
<path fill="none" stroke="#63b8ff" d="M806.77,-417.8C809.9,-410.09 813.85,-400.37 817.43,-391.56"/>
<polygon fill="#63b8ff" stroke="#63b8ff" points="820.72,-392.75 821.25,-382.16 814.24,-390.11 820.72,-392.75"/>
</a>
</g>
</g>
<!-- Node42 -->
<g id="Node000042" class="node">
<title>Node42</title>
<g id="a_Node000042"><a xlink:href="RootGraphicsBuffer_8hpp.html" target="_top" xlink:title=" ">
<polygon fill="white" stroke="#666666" points="745,-382 611,-382 611,-352 745,-352 745,-382"/>
<text text-anchor="start" x="619" y="-370" font-family="Helvetica,sans-Serif" font-size="10.00">MayaFlux/Buffers/Root</text>
<text text-anchor="middle" x="678" y="-359" font-family="Helvetica,sans-Serif" font-size="10.00">/RootGraphicsBuffer.hpp</text>
</a>
</g>
</g>
<!-- Node31&#45;&gt;Node42 -->
<g id="edge63_Node000031_Node000042" class="edge">
<title>Node31&#45;&gt;Node42</title>
<g id="a_edge63_Node000031_Node000042"><a xlink:title=" ">
<path fill="none" stroke="#63b8ff" d="M774.01,-417.95C756.38,-408.78 733.17,-396.71 713.98,-386.72"/>
<polygon fill="#63b8ff" stroke="#63b8ff" points="715.42,-383.52 704.93,-382.01 712.19,-389.73 715.42,-383.52"/>
</a>
</g>
</g>
<!-- Node32&#45;&gt;Node10 -->
<g id="edge62_Node000032_Node000010" class="edge">
<title>Node32&#45;&gt;Node10</title>
<g id="a_edge62_Node000032_Node000010"><a xlink:title=" ">
<path fill="none" stroke="#63b8ff" d="M798.88,-351.88C752.62,-328.65 661.1,-282.7 616.15,-260.13"/>
<polygon fill="#63b8ff" stroke="#63b8ff" points="617.56,-256.92 607.05,-255.56 614.42,-263.18 617.56,-256.92"/>
</a>
</g>
</g>
<!-- Node33 -->
<g id="Node000033" class="node">
<title>Node33</title>
<g id="a_Node000033"><a xlink:href="RootBuffer_8hpp.html" target="_top" xlink:title=" ">
<polygon fill="white" stroke="#666666" points="833.5,-316 744.5,-316 744.5,-297 833.5,-297 833.5,-316"/>
<text text-anchor="middle" x="789" y="-304" font-family="Helvetica,sans-Serif" font-size="10.00">RootBuffer.hpp</text>
</a>
</g>
</g>
<!-- Node32&#45;&gt;Node33 -->
<g id="edge50_Node000032_Node000033" class="edge">
<title>Node32&#45;&gt;Node33</title>
<g id="a_edge50_Node000032_Node000033"><a xlink:title=" ">
<path fill="none" stroke="#63b8ff" d="M817.8,-351.84C812.51,-343.69 805.82,-333.4 800.22,-324.78"/>
<polygon fill="#63b8ff" stroke="#63b8ff" points="803.08,-322.75 794.69,-316.27 797.21,-326.56 803.08,-322.75"/>
</a>
</g>
</g>
<!-- Node41 -->
<g id="Node000041" class="node">
<title>Node41</title>
<g id="a_Node000041"><a xlink:href="AudioBuffer_8hpp.html" target="_top" xlink:title=" ">
<polygon fill="white" stroke="#666666" points="1034,-316 852,-316 852,-297 1034,-297 1034,-316"/>
<text text-anchor="middle" x="943" y="-304" font-family="Helvetica,sans-Serif" font-size="10.00">MayaFlux/Buffers/AudioBuffer.hpp</text>
</a>
</g>
</g>
<!-- Node32&#45;&gt;Node41 -->
<g id="edge59_Node000032_Node000041" class="edge">
<title>Node32&#45;&gt;Node41</title>
<g id="a_edge59_Node000032_Node000041"><a xlink:title=" ">
<path fill="none" stroke="#63b8ff" d="M854.78,-351.99C873.62,-342.49 898.35,-330.02 916.84,-320.69"/>
<polygon fill="#63b8ff" stroke="#63b8ff" points="918.52,-323.77 925.87,-316.14 915.36,-317.52 918.52,-323.77"/>
</a>
</g>
</g>
<!-- Node33&#45;&gt;Node11 -->
<g id="edge51_Node000033_Node000011" class="edge">
<title>Node33&#45;&gt;Node11</title>
<g id="a_edge51_Node000033_Node000011"><a xlink:title=" ">
<path fill="none" stroke="#63b8ff" d="M779.34,-296.96C763.23,-282.83 729.7,-253.86 700,-231 686.34,-220.48 670.48,-209.29 658.1,-200.76"/>
<polygon fill="#63b8ff" stroke="#63b8ff" points="660,-197.82 649.77,-195.07 656.05,-203.6 660,-197.82"/>
</a>
</g>
</g>
<!-- Node34 -->
<g id="Node000034" class="node">
<title>Node34</title>
<g id="a_Node000034"><a xlink:href="Archivist_8hpp.html" target="_top" xlink:title=" ">
<polygon fill="white" stroke="#666666" points="999,-255.5 831,-255.5 831,-236.5 999,-236.5 999,-255.5"/>
<text text-anchor="middle" x="915" y="-243.5" font-family="Helvetica,sans-Serif" font-size="10.00">MayaFlux/Journal/Archivist.hpp</text>
</a>
</g>
</g>
<!-- Node33&#45;&gt;Node34 -->
<g id="edge52_Node000033_Node000034" class="edge">
<title>Node33&#45;&gt;Node34</title>
<g id="a_edge52_Node000033_Node000034"><a xlink:title=" ">
<path fill="none" stroke="#63b8ff" d="M807.32,-296.99C828.41,-287.2 863.26,-271.02 887.58,-259.73"/>
<polygon fill="#63b8ff" stroke="#63b8ff" points="889.06,-262.9 896.66,-255.52 886.11,-256.55 889.06,-262.9"/>
</a>
</g>
</g>
<!-- Node35 -->
<g id="Node000035" class="node">
<title>Node35</title>
<g id="a_Node000035"><a xlink:href="Format_8hpp.html" target="_top" xlink:title=" ">
<polygon fill="white" stroke="#666666" points="951,-195 879,-195 879,-176 951,-176 951,-195"/>
<text text-anchor="middle" x="915" y="-183" font-family="Helvetica,sans-Serif" font-size="10.00">Format.hpp</text>
</a>
</g>
</g>
<!-- Node34&#45;&gt;Node35 -->
<g id="edge53_Node000034_Node000035" class="edge">
<title>Node34&#45;&gt;Node35</title>
<g id="a_edge53_Node000034_Node000035"><a xlink:title=" ">
<path fill="none" stroke="#63b8ff" d="M915,-236.37C915,-228.25 915,-215.81 915,-205.39"/>
<polygon fill="#63b8ff" stroke="#63b8ff" points="918.5,-205.17 915,-195.17 911.5,-205.17 918.5,-205.17"/>
</a>
</g>
</g>
<!-- Node36 -->
<g id="Node000036" class="node">
<title>Node36</title>
<g id="a_Node000036"><a xlink:href="JournalEntry_8hpp.html" target="_top" xlink:title=" ">
<polygon fill="white" stroke="#666666" points="1188.5,-195 1093.5,-195 1093.5,-176 1188.5,-176 1188.5,-195"/>
<text text-anchor="middle" x="1141" y="-183" font-family="Helvetica,sans-Serif" font-size="10.00">JournalEntry.hpp</text>
</a>
</g>
</g>
<!-- Node34&#45;&gt;Node36 -->
<g id="edge54_Node000034_Node000036" class="edge">
<title>Node34&#45;&gt;Node36</title>
<g id="a_edge54_Node000034_Node000036"><a xlink:title=" ">
<path fill="none" stroke="#63b8ff" d="M947.86,-236.49C987.61,-226.2 1054.63,-208.86 1098.33,-197.54"/>
<polygon fill="#63b8ff" stroke="#63b8ff" points="1099.29,-200.91 1108.1,-195.02 1097.54,-194.13 1099.29,-200.91"/>
</a>
</g>
</g>
<!-- Node37 -->
<g id="Node000037" class="node">
<title>Node37</title>
<g id="a_Node000037"><a xlink:href="EnumReflect_8hpp.html" target="_top" xlink:title=" ">
<polygon fill="white" stroke="#666666" points="1272.5,-140 1133.5,-140 1133.5,-110 1272.5,-110 1272.5,-140"/>
<text text-anchor="start" x="1141.5" y="-128" font-family="Helvetica,sans-Serif" font-size="10.00">MayaFlux/Transitive</text>
<text text-anchor="middle" x="1203" y="-117" font-family="Helvetica,sans-Serif" font-size="10.00">/Reflect/EnumReflect.hpp</text>
</a>
</g>
</g>
<!-- Node36&#45;&gt;Node37 -->
<g id="edge55_Node000036_Node000037" class="edge">
<title>Node36&#45;&gt;Node37</title>
<g id="a_edge55_Node000036_Node000037"><a xlink:title=" ">
<path fill="none" stroke="#63b8ff" d="M1150.15,-175.87C1158.17,-168.3 1170.17,-156.98 1180.7,-147.04"/>
<polygon fill="#63b8ff" stroke="#63b8ff" points="1183.17,-149.52 1188.04,-140.11 1178.37,-144.43 1183.17,-149.52"/>
</a>
</g>
</g>
<!-- Node38 -->
<g id="Node000038" class="node">
<title>Node38</title>
<g id="a_Node000038"><a xlink:title=" ">
<polygon fill="#e0e0e0" stroke="#999999" points="1341,-134.5 1291,-134.5 1291,-115.5 1341,-115.5 1341,-134.5"/>
<text text-anchor="middle" x="1316" y="-122.5" font-family="Helvetica,sans-Serif" font-size="10.00">chrono</text>
</a>
</g>
</g>
<!-- Node36&#45;&gt;Node38 -->
<g id="edge56_Node000036_Node000038" class="edge">
<title>Node36&#45;&gt;Node38</title>
<g id="a_edge56_Node000036_Node000038"><a xlink:title=" ">
<path fill="none" stroke="#63b8ff" d="M1170.68,-175.93C1199.38,-167.46 1244,-153.79 1282,-140 1283.43,-139.48 1284.88,-138.94 1286.34,-138.38"/>
<polygon fill="#63b8ff" stroke="#63b8ff" points="1287.96,-141.51 1295.97,-134.58 1285.39,-135 1287.96,-141.51"/>
</a>
</g>
</g>
<!-- Node39 -->
<g id="Node000039" class="node">
<title>Node39</title>
<g id="a_Node000039"><a xlink:title=" ">
<polygon fill="#e0e0e0" stroke="#999999" points="1024.5,-134.5 931.5,-134.5 931.5,-115.5 1024.5,-115.5 1024.5,-134.5"/>
<text text-anchor="middle" x="978" y="-122.5" font-family="Helvetica,sans-Serif" font-size="10.00">source_location</text>
</a>
</g>
</g>
<!-- Node36&#45;&gt;Node39 -->
<g id="edge57_Node000036_Node000039" class="edge">
<title>Node36&#45;&gt;Node39</title>
<g id="a_edge57_Node000036_Node000039"><a xlink:title=" ">
<path fill="none" stroke="#63b8ff" d="M1117.3,-175.99C1089.41,-165.99 1042.93,-149.3 1011.4,-137.99"/>
<polygon fill="#63b8ff" stroke="#63b8ff" points="1012.32,-134.6 1001.73,-134.52 1009.96,-141.19 1012.32,-134.6"/>
</a>
</g>
</g>
<!-- Node40 -->
<g id="Node000040" class="node">
<title>Node40</title>
<g id="a_Node000040"><a xlink:title=" ">
<polygon fill="#e0e0e0" stroke="#999999" points="1115.5,-134.5 1042.5,-134.5 1042.5,-115.5 1115.5,-115.5 1115.5,-134.5"/>
<text text-anchor="middle" x="1079" y="-122.5" font-family="Helvetica,sans-Serif" font-size="10.00">string_view</text>
</a>
</g>
</g>
<!-- Node36&#45;&gt;Node40 -->
<g id="edge58_Node000036_Node000040" class="edge">
<title>Node36&#45;&gt;Node40</title>
<g id="a_edge58_Node000036_Node000040"><a xlink:title=" ">
<path fill="none" stroke="#63b8ff" d="M1131.85,-175.87C1122.33,-166.88 1107.2,-152.61 1095.57,-141.64"/>
<polygon fill="#63b8ff" stroke="#63b8ff" points="1097.86,-138.98 1088.19,-134.67 1093.06,-144.08 1097.86,-138.98"/>
</a>
</g>
</g>
<!-- Node41&#45;&gt;Node9 -->
<g id="edge60_Node000041_Node000009" class="edge">
<title>Node41&#45;&gt;Node9</title>
<g id="a_edge60_Node000041_Node000009"><a xlink:title=" ">
<path fill="none" stroke="#63b8ff" d="M919.3,-296.99C891.41,-286.99 844.93,-270.3 813.4,-258.99"/>
<polygon fill="#63b8ff" stroke="#63b8ff" points="814.32,-255.6 803.73,-255.52 811.96,-262.19 814.32,-255.6"/>
</a>
</g>
</g>
<!-- Node41&#45;&gt;Node12 -->
<g id="edge61_Node000041_Node000012" class="edge">
<title>Node41&#45;&gt;Node12</title>
<g id="a_edge61_Node000041_Node000012"><a xlink:title=" ">
<path fill="none" stroke="#63b8ff" d="M965.12,-296.95C980.2,-289.82 999.01,-278.06 1008,-261 1028.24,-222.62 997.34,-198.09 960,-176 915.96,-149.95 859.93,-137.43 814.32,-131.43"/>
<polygon fill="#63b8ff" stroke="#63b8ff" points="814.52,-127.93 804.16,-130.18 813.66,-134.87 814.52,-127.93"/>
</a>
</g>
</g>
<!-- Node42&#45;&gt;Node8 -->
<g id="edge65_Node000042_Node000008" class="edge">
<title>Node42&#45;&gt;Node8</title>
<g id="a_edge65_Node000042_Node000008"><a xlink:title=" ">
<path fill="none" stroke="#63b8ff" d="M626.74,-351.99C589.49,-341.8 539.73,-328.2 505.08,-318.73"/>
<polygon fill="#63b8ff" stroke="#63b8ff" points="505.86,-315.31 495.29,-316.05 504.01,-322.07 505.86,-315.31"/>
</a>
</g>
</g>
<!-- Node42&#45;&gt;Node10 -->
<g id="edge64_Node000042_Node000010" class="edge">
<title>Node42&#45;&gt;Node10</title>
<g id="a_edge64_Node000042_Node000010"><a xlink:title=" ">
<path fill="none" stroke="#63b8ff" d="M676.61,-351.9C674.56,-337.08 669.64,-313.67 658,-297 647.33,-281.72 630.49,-269.29 616.23,-260.64"/>
<polygon fill="#63b8ff" stroke="#63b8ff" points="617.74,-257.47 607.33,-255.51 614.25,-263.53 617.74,-257.47"/>
</a>
</g>
</g>
<!-- Node42&#45;&gt;Node33 -->
<g id="edge66_Node000042_Node000033" class="edge">
<title>Node42&#45;&gt;Node33</title>
<g id="a_edge66_Node000042_Node000033"><a xlink:title=" ">
<path fill="none" stroke="#63b8ff" d="M704.59,-351.99C722.45,-342.58 745.84,-330.24 763.48,-320.95"/>
<polygon fill="#63b8ff" stroke="#63b8ff" points="765.39,-323.9 772.61,-316.14 762.13,-317.71 765.39,-323.9"/>
</a>
</g>
</g>
<!-- Node44 -->
<g id="Node000044" class="node">
<title>Node44</title>
<g id="a_Node000044"><a xlink:href="NodeSpec_8hpp.html" target="_top" xlink:title=" ">
<polygon fill="white" stroke="#666666" points="936,-756 850,-756 850,-737 936,-737 936,-756"/>
<text text-anchor="middle" x="893" y="-744" font-family="Helvetica,sans-Serif" font-size="10.00">NodeSpec.hpp</text>
</a>
</g>
</g>
<!-- Node43&#45;&gt;Node44 -->
<g id="edge68_Node000043_Node000044" class="edge">
<title>Node43&#45;&gt;Node44</title>
<g id="a_edge68_Node000043_Node000044"><a xlink:title=" ">
<path fill="none" stroke="#63b8ff" d="M893,-791.84C893,-784.21 893,-774.7 893,-766.45"/>
<polygon fill="#63b8ff" stroke="#63b8ff" points="896.5,-766.27 893,-756.27 889.5,-766.27 896.5,-766.27"/>
</a>
</g>
</g>
<!-- Node45 -->
<g id="Node000045" class="node">
<title>Node45</title>
<g id="a_Node000045"><a xlink:href="RootNode_8hpp.html" target="_top" xlink:title=" ">
<polygon fill="white" stroke="#666666" points="1083,-695.5 997,-695.5 997,-676.5 1083,-676.5 1083,-695.5"/>
<text text-anchor="middle" x="1040" y="-683.5" font-family="Helvetica,sans-Serif" font-size="10.00">RootNode.hpp</text>
</a>
</g>
</g>
<!-- Node43&#45;&gt;Node45 -->
<g id="edge69_Node000043_Node000045" class="edge">
<title>Node43&#45;&gt;Node45</title>
<g id="a_edge69_Node000043_Node000045"><a xlink:title=" ">
<path fill="none" stroke="#63b8ff" d="M910.44,-791.88C938.28,-769.34 992.56,-725.41 1021.22,-702.2"/>
<polygon fill="#63b8ff" stroke="#63b8ff" points="1023.67,-704.72 1029.24,-695.71 1019.26,-699.28 1023.67,-704.72"/>
</a>
</g>
</g>
<!-- Node45&#45;&gt;Node12 -->
<g id="edge70_Node000045_Node000012" class="edge">
<title>Node45&#45;&gt;Node12</title>
<g id="a_edge70_Node000045_Node000012"><a xlink:title=" ">
<path fill="none" stroke="#63b8ff" d="M1042.87,-676.28C1049.43,-655.53 1065,-601.43 1065,-555 1065,-555 1065,-555 1065,-245 1065,-199.05 1029.15,-196.46 988,-176 933.82,-149.06 866.49,-136.62 814.34,-130.88"/>
<polygon fill="#63b8ff" stroke="#63b8ff" points="814.43,-127.37 804.12,-129.82 813.7,-134.33 814.43,-127.37"/>
</a>
</g>
</g>
</g>
</svg>
