<?xml version="1.0" encoding="UTF-8" standalone="no"?>
<!DOCTYPE svg PUBLIC "-//W3C//DTD SVG 1.1//EN"
 "http://www.w3.org/Graphics/SVG/1.1/DTD/svg11.dtd">
<!-- Generated by graphviz version 2.43.0 (0)
 -->
<!-- Title: main Pages: 1 -->
<svg width="994pt" height="251pt"
 viewBox="0.00 0.00 994.00 251.00" xmlns="http://www.w3.org/2000/svg" xmlns:xlink="http://www.w3.org/1999/xlink">
<g id="graph0" class="graph" transform="scale(1 1) rotate(0) translate(4 247)">
<title>main</title>
<!-- Node1 -->
<g id="Node000001" class="node">
<title>Node1</title>
<g id="a_Node000001"><a xlink:title=" ">
<polygon fill="#999999" stroke="#666666" points="41,-140.5 0,-140.5 0,-121.5 41,-121.5 41,-140.5"/>
<text text-anchor="middle" x="20.5" y="-128.5" font-family="Helvetica,sans-Serif" font-size="10.00">main</text>
</a>
</g>
</g>
<!-- Node2 -->
<g id="Node000002" class="node">
<title>Node2</title>
<g id="a_Node000002"><a xlink:href="namespaceMayaFlux_aeb6ac35d8d260d49b82cf9696396480a.html#aeb6ac35d8d260d49b82cf9696396480a" target="_top" xlink:title="Blocks launcher until user input (optional convenience function)">
<polygon fill="white" stroke="#666666" points="175,-159.5 77,-159.5 77,-140.5 175,-140.5 175,-159.5"/>
<text text-anchor="middle" x="126" y="-147.5" font-family="Helvetica,sans-Serif" font-size="10.00">MayaFlux::Await</text>
</a>
</g>
</g>
<!-- Node1&#45;&gt;Node2 -->
<g id="edge1_Node000001_Node000002" class="edge">
<title>Node1&#45;&gt;Node2</title>
<g id="a_edge1_Node000001_Node000002"><a xlink:title=" ">
<path fill="none" stroke="#63b8ff" d="M41.46,-134.66C48.88,-136.03 57.72,-137.65 66.83,-139.32"/>
<polygon fill="#63b8ff" stroke="#63b8ff" points="66.3,-142.78 76.77,-141.15 67.57,-135.9 66.3,-142.78"/>
</a>
</g>
</g>
<!-- Node11 -->
<g id="Node000011" class="node">
<title>Node11</title>
<g id="a_Node000011"><a xlink:href="namespaceMayaFlux_afe8d554b31c372f2e0df38b03b51569a.html#afe8d554b31c372f2e0df38b03b51569a" target="_top" xlink:title="Stops and cleans up the default engine.">
<polygon fill="white" stroke="#666666" points="321.5,-235.5 232.5,-235.5 232.5,-216.5 321.5,-216.5 321.5,-235.5"/>
<text text-anchor="middle" x="277" y="-223.5" font-family="Helvetica,sans-Serif" font-size="10.00">MayaFlux::End</text>
</a>
</g>
</g>
<!-- Node1&#45;&gt;Node11 -->
<g id="edge10_Node000001_Node000011" class="edge">
<title>Node1&#45;&gt;Node11</title>
<g id="a_edge10_Node000001_Node000011"><a xlink:title=" ">
<path fill="none" stroke="#63b8ff" d="M27.29,-140.66C36.14,-154.49 54.39,-179.62 77,-192 121.87,-216.57 180.27,-224.17 222.18,-226.17"/>
<polygon fill="#63b8ff" stroke="#63b8ff" points="222.07,-229.67 232.2,-226.56 222.34,-222.68 222.07,-229.67"/>
</a>
</g>
</g>
<!-- Node12 -->
<g id="Node000012" class="node">
<title>Node12</title>
<g id="a_Node000012"><a xlink:href="namespaceMayaFlux_a7d2ef01625e07aeb15550318d3cfb708.html#a7d2ef01625e07aeb15550318d3cfb708" target="_top" xlink:title="Initializes the default engine with default settings.">
<polygon fill="white" stroke="#666666" points="320,-197.5 234,-197.5 234,-178.5 320,-178.5 320,-197.5"/>
<text text-anchor="middle" x="277" y="-185.5" font-family="Helvetica,sans-Serif" font-size="10.00">MayaFlux::Init</text>
</a>
</g>
</g>
<!-- Node1&#45;&gt;Node12 -->
<g id="edge12_Node000001_Node000012" class="edge">
<title>Node1&#45;&gt;Node12</title>
<g id="a_edge12_Node000001_Node000012"><a xlink:title=" ">
<path fill="none" stroke="#63b8ff" d="M32.05,-140.68C42.58,-149.71 59.65,-162.71 77,-169 124.68,-186.28 182.76,-190.03 223.83,-190.06"/>
<polygon fill="#63b8ff" stroke="#63b8ff" points="223.92,-193.56 233.89,-189.99 223.87,-186.56 223.92,-193.56"/>
</a>
</g>
</g>
<!-- Node13 -->
<g id="Node000013" class="node">
<title>Node13</title>
<g id="a_Node000013"><a xlink:href="main_8cpp_a25a40b6614565f755233080a384c35f1.html#a25a40b6614565f755233080a384c35f1" target="_top" xlink:title=" ">
<polygon fill="white" stroke="#666666" points="155.5,-122.5 96.5,-122.5 96.5,-103.5 155.5,-103.5 155.5,-122.5"/>
<text text-anchor="middle" x="126" y="-110.5" font-family="Helvetica,sans-Serif" font-size="10.00">initialize</text>
</a>
</g>
</g>
<!-- Node1&#45;&gt;Node13 -->
<g id="edge14_Node000001_Node000013" class="edge">
<title>Node1&#45;&gt;Node13</title>
<g id="a_edge14_Node000001_Node000013"><a xlink:title=" ">
<path fill="none" stroke="#63b8ff" d="M41.46,-127.53C54.15,-125.32 71.02,-122.39 86.27,-119.74"/>
<polygon fill="#63b8ff" stroke="#63b8ff" points="87.24,-123.12 96.5,-117.96 86.04,-116.22 87.24,-123.12"/>
</a>
</g>
</g>
<!-- Node14 -->
<g id="Node000014" class="node">
<title>Node14</title>
<g id="a_Node000014"><a xlink:href="main_8cpp_a13a43e6d814de94978c515cb084873b1.html#a13a43e6d814de94978c515cb084873b1" target="_top" xlink:title=" ">
<polygon fill="white" stroke="#666666" points="142,-85.5 110,-85.5 110,-66.5 142,-66.5 142,-85.5"/>
<text text-anchor="middle" x="126" y="-73.5" font-family="Helvetica,sans-Serif" font-size="10.00">run</text>
</a>
</g>
</g>
<!-- Node1&#45;&gt;Node14 -->
<g id="edge15_Node000001_Node000014" class="edge">
<title>Node1&#45;&gt;Node14</title>
<g id="a_edge15_Node000001_Node000014"><a xlink:title=" ">
<path fill="none" stroke="#63b8ff" d="M34.21,-121.3C45.14,-113.26 61.54,-101.92 77,-94 84.38,-90.22 92.75,-86.81 100.4,-83.99"/>
<polygon fill="#63b8ff" stroke="#63b8ff" points="101.64,-87.27 109.92,-80.66 99.32,-80.66 101.64,-87.27"/>
</a>
</g>
</g>
<!-- Node15 -->
<g id="Node000015" class="node">
<title>Node15</title>
<g id="a_Node000015"><a xlink:href="namespaceMayaFlux_a2955e2a3902c0ff3e7a7104fd584d27f.html#a2955e2a3902c0ff3e7a7104fd584d27f" target="_top" xlink:title="Starts audio processing on the default engine.">
<polygon fill="white" stroke="#666666" points="173,-48.5 79,-48.5 79,-29.5 173,-29.5 173,-48.5"/>
<text text-anchor="middle" x="126" y="-36.5" font-family="Helvetica,sans-Serif" font-size="10.00">MayaFlux::Start</text>
</a>
</g>
</g>
<!-- Node1&#45;&gt;Node15 -->
<g id="edge16_Node000001_Node000015" class="edge">
<title>Node1&#45;&gt;Node15</title>
<g id="a_edge16_Node000001_Node000015"><a xlink:title=" ">
<path fill="none" stroke="#63b8ff" d="M26.32,-121.44C34.63,-105.86 53.1,-74.91 77,-57 78.82,-55.63 80.76,-54.36 82.77,-53.18"/>
<polygon fill="#63b8ff" stroke="#63b8ff" points="84.6,-56.17 91.94,-48.53 81.44,-49.93 84.6,-56.17"/>
</a>
</g>
</g>
<!-- Node3 -->
<g id="Node000003" class="node">
<title>Node3</title>
<g id="a_Node000003"><a xlink:href="classMayaFlux_1_1Core_1_1Engine_a1855ee90d6ed5860c25e0faee3e5098b.html#a1855ee90d6ed5860c25e0faee3e5098b" target="_top" xlink:title="Blocks until shutdown is requested (main thread event loop)">
<polygon fill="white" stroke="#666666" points="343,-160 211,-160 211,-130 343,-130 343,-160"/>
<text text-anchor="start" x="219" y="-148" font-family="Helvetica,sans-Serif" font-size="10.00">MayaFlux::Core::Engine</text>
<text text-anchor="middle" x="277" y="-137" font-family="Helvetica,sans-Serif" font-size="10.00">::await_shutdown</text>
</a>
</g>
</g>
<!-- Node2&#45;&gt;Node3 -->
<g id="edge2_Node000002_Node000003" class="edge">
<title>Node2&#45;&gt;Node3</title>
<g id="a_edge2_Node000002_Node000003"><a xlink:title=" ">
<path fill="none" stroke="#63b8ff" d="M175.38,-148.38C183.5,-148.1 192.1,-147.82 200.71,-147.53"/>
<polygon fill="#63b8ff" stroke="#63b8ff" points="200.92,-151.02 210.8,-147.19 200.68,-144.03 200.92,-151.02"/>
</a>
</g>
</g>
<!-- Node4 -->
<g id="Node000004" class="node">
<title>Node4</title>
<g id="a_Node000004"><a xlink:href="namespaceMayaFlux_ac4ab74951370ff0dd899203f3b94c775.html#ac4ab74951370ff0dd899203f3b94c775" target="_top" xlink:title="Gets the default engine instance.">
<polygon fill="white" stroke="#666666" points="341,-111.5 213,-111.5 213,-92.5 341,-92.5 341,-111.5"/>
<text text-anchor="middle" x="277" y="-99.5" font-family="Helvetica,sans-Serif" font-size="10.00">MayaFlux::get_context</text>
</a>
</g>
</g>
<!-- Node2&#45;&gt;Node4 -->
<g id="edge3_Node000002_Node000004" class="edge">
<title>Node2&#45;&gt;Node4</title>
<g id="a_edge3_Node000002_Node000004"><a xlink:title=" ">
<path fill="none" stroke="#63b8ff" d="M153.75,-140.4C170.2,-134.58 191.74,-127.13 211,-121 217.93,-118.79 225.31,-116.54 232.51,-114.4"/>
<polygon fill="#63b8ff" stroke="#63b8ff" points="233.57,-117.74 242.17,-111.55 231.59,-111.02 233.57,-117.74"/>
</a>
</g>
</g>
<!-- Node5 -->
<g id="Node000005" class="node">
<title>Node5</title>
<g id="a_Node000005"><a xlink:href="namespaceMayaFlux_1_1internal_ac0f0b4b1cae6af4441db0ea022e15583.html#ac0f0b4b1cae6af4441db0ea022e15583" target="_top" xlink:title=" ">
<polygon fill="white" stroke="#666666" points="511,-198 383,-198 383,-168 511,-168 511,-198"/>
<text text-anchor="start" x="391" y="-186" font-family="Helvetica,sans-Serif" font-size="10.00">MayaFlux::internal</text>
<text text-anchor="middle" x="447" y="-175" font-family="Helvetica,sans-Serif" font-size="10.00">::get_or_create_engine</text>
</a>
</g>
</g>
<!-- Node4&#45;&gt;Node5 -->
<g id="edge4_Node000004_Node000005" class="edge">
<title>Node4&#45;&gt;Node5</title>
<g id="a_edge4_Node000004_Node000005"><a xlink:title=" ">
<path fill="none" stroke="#63b8ff" d="M316.73,-111.55C325.52,-114.2 334.71,-117.37 343,-121 368.98,-132.39 396.4,-149.15 416.41,-162.38"/>
<polygon fill="#63b8ff" stroke="#63b8ff" points="414.52,-165.33 424.78,-167.99 418.42,-159.52 414.52,-165.33"/>
</a>
</g>
</g>
<!-- Node6 -->
<g id="Node000006" class="node">
<title>Node6</title>
<g id="a_Node000006"><a xlink:href="namespaceMayaFlux_1_1internal_a3cc5413e05c2f9c9f04372841aa0a5b1.html#a3cc5413e05c2f9c9f04372841aa0a5b1" target="_top" xlink:title=" ">
<polygon fill="white" stroke="#666666" points="659,-219 551,-219 551,-189 659,-189 659,-219"/>
<text text-anchor="start" x="559" y="-207" font-family="Helvetica,sans-Serif" font-size="10.00">MayaFlux::internal</text>
<text text-anchor="middle" x="605" y="-196" font-family="Helvetica,sans-Serif" font-size="10.00">::cleanup_engine</text>
</a>
</g>
</g>
<!-- Node5&#45;&gt;Node6 -->
<g id="edge5_Node000005_Node000006" class="edge">
<title>Node5&#45;&gt;Node6</title>
<g id="a_edge5_Node000005_Node000006"><a xlink:title=" ">
<path fill="none" stroke="#63b8ff" d="M511,-191.48C520.79,-192.8 530.91,-194.16 540.71,-195.48"/>
<polygon fill="#63b8ff" stroke="#63b8ff" points="540.4,-198.97 550.77,-196.83 541.33,-192.03 540.4,-198.97"/>
</a>
</g>
</g>
<!-- Node7 -->
<g id="Node000007" class="node">
<title>Node7</title>
<g id="a_Node000007"><a xlink:href="namespaceMayaFlux_1_1internal_ac4d6952d58cdfd56964a883d40aa655d.html#ac4d6952d58cdfd56964a883d40aa655d" target="_top" xlink:title=" ">
<polygon fill="white" stroke="#666666" points="840,-243 695,-243 695,-213 840,-213 840,-243"/>
<text text-anchor="start" x="703" y="-231" font-family="Helvetica,sans-Serif" font-size="10.00">MayaFlux::internal</text>
<text text-anchor="middle" x="767.5" y="-220" font-family="Helvetica,sans-Serif" font-size="10.00">::cleanup_persistent_store</text>
</a>
</g>
</g>
<!-- Node6&#45;&gt;Node7 -->
<g id="edge6_Node000006_Node000007" class="edge">
<title>Node6&#45;&gt;Node7</title>
<g id="a_edge6_Node000006_Node000007"><a xlink:title=" ">
<path fill="none" stroke="#63b8ff" d="M659.44,-211.99C667.57,-213.21 676.11,-214.48 684.68,-215.77"/>
<polygon fill="#63b8ff" stroke="#63b8ff" points="684.31,-219.25 694.72,-217.27 685.35,-212.33 684.31,-219.25"/>
</a>
</g>
</g>
<!-- Node9 -->
<g id="Node000009" class="node">
<title>Node9</title>
<g id="a_Node000009"><a xlink:href="classMayaFlux_1_1Journal_1_1Archivist_a82e2d12db8781df4afc43ef4c1fba2be.html#a82e2d12db8781df4afc43ef4c1fba2be" target="_top" xlink:title="Shutdown the logging system.">
<polygon fill="white" stroke="#666666" points="824,-195 711,-195 711,-165 824,-165 824,-195"/>
<text text-anchor="start" x="719" y="-183" font-family="Helvetica,sans-Serif" font-size="10.00">MayaFlux::Journal::</text>
<text text-anchor="middle" x="767.5" y="-172" font-family="Helvetica,sans-Serif" font-size="10.00">Archivist::shutdown</text>
</a>
</g>
</g>
<!-- Node6&#45;&gt;Node9 -->
<g id="edge8_Node000006_Node000009" class="edge">
<title>Node6&#45;&gt;Node9</title>
<g id="a_edge8_Node000006_Node000009"><a xlink:title=" ">
<path fill="none" stroke="#63b8ff" d="M659.44,-196.01C672.73,-194.02 687.11,-191.87 700.91,-189.81"/>
<polygon fill="#63b8ff" stroke="#63b8ff" points="701.44,-193.27 710.82,-188.33 700.41,-186.34 701.44,-193.27"/>
</a>
</g>
</g>
<!-- Node8 -->
<g id="Node000008" class="node">
<title>Node8</title>
<g id="a_Node000008"><a xlink:href="namespaceMayaFlux_1_1internal_ac26a7a92aa4af34c366aad03b68ea71e.html#ac26a7a92aa4af34c366aad03b68ea71e" target="_top" xlink:title=" ">
<polygon fill="white" stroke="#666666" points="985,-243 877,-243 877,-213 985,-213 985,-243"/>
<text text-anchor="start" x="885" y="-231" font-family="Helvetica,sans-Serif" font-size="10.00">MayaFlux::internal</text>
<text text-anchor="middle" x="931" y="-220" font-family="Helvetica,sans-Serif" font-size="10.00">::persistent_store</text>
</a>
</g>
</g>
<!-- Node7&#45;&gt;Node8 -->
<g id="edge7_Node000007_Node000008" class="edge">
<title>Node7&#45;&gt;Node8</title>
<g id="a_edge7_Node000007_Node000008"><a xlink:title=" ">
<path fill="none" stroke="#63b8ff" d="M840.28,-228C849.12,-228 858.1,-228 866.8,-228"/>
<polygon fill="#63b8ff" stroke="#63b8ff" points="866.86,-231.5 876.86,-228 866.86,-224.5 866.86,-231.5"/>
</a>
</g>
</g>
<!-- Node10 -->
<g id="Node000010" class="node">
<title>Node10</title>
<g id="a_Node000010"><a xlink:href="classMayaFlux_1_1Journal_1_1Archivist_a8b7829e34d79ec5bbbf02e3d4afbdab9.html#a8b7829e34d79ec5bbbf02e3d4afbdab9" target="_top" xlink:title="Get the singleton instance of the Archivist.">
<polygon fill="white" stroke="#666666" points="986,-195 876,-195 876,-165 986,-165 986,-195"/>
<text text-anchor="start" x="884" y="-183" font-family="Helvetica,sans-Serif" font-size="10.00">MayaFlux::Journal::</text>
<text text-anchor="middle" x="931" y="-172" font-family="Helvetica,sans-Serif" font-size="10.00">Archivist::instance</text>
</a>
</g>
</g>
<!-- Node9&#45;&gt;Node10 -->
<g id="edge9_Node000009_Node000010" class="edge">
<title>Node9&#45;&gt;Node10</title>
<g id="a_edge9_Node000009_Node000010"><a xlink:title=" ">
<path fill="none" stroke="#63b8ff" d="M824.08,-180C837.46,-180 851.86,-180 865.6,-180"/>
<polygon fill="#63b8ff" stroke="#63b8ff" points="865.96,-183.5 875.96,-180 865.96,-176.5 865.96,-183.5"/>
</a>
</g>
</g>
<!-- Node11&#45;&gt;Node6 -->
<g id="edge11_Node000011_Node000006" class="edge">
<title>Node11&#45;&gt;Node6</title>
<g id="a_edge11_Node000011_Node000006"><a xlink:title=" ">
<path fill="none" stroke="#63b8ff" d="M321.63,-223.06C377.95,-219.25 476.37,-212.61 540.86,-208.26"/>
<polygon fill="#63b8ff" stroke="#63b8ff" points="541.17,-211.75 550.91,-207.58 540.69,-204.76 541.17,-211.75"/>
</a>
</g>
</g>
<!-- Node12&#45;&gt;Node5 -->
<g id="edge13_Node000012_Node000005" class="edge">
<title>Node12&#45;&gt;Node5</title>
<g id="a_edge13_Node000012_Node000005"><a xlink:title=" ">
<path fill="none" stroke="#63b8ff" d="M320.39,-186.74C336.31,-186.26 354.9,-185.71 372.82,-185.18"/>
<polygon fill="#63b8ff" stroke="#63b8ff" points="373.08,-188.67 382.97,-184.88 372.87,-181.67 373.08,-188.67"/>
</a>
</g>
</g>
<!-- Node15&#45;&gt;Node4 -->
<g id="edge17_Node000015_Node000004" class="edge">
<title>Node15&#45;&gt;Node4</title>
<g id="a_edge17_Node000015_Node000004"><a xlink:title=" ">
<path fill="none" stroke="#63b8ff" d="M153.27,-48.52C160.36,-51.18 168,-54.13 175,-57 199.27,-66.95 226.41,-79.1 246.43,-88.26"/>
<polygon fill="#63b8ff" stroke="#63b8ff" points="245.1,-91.5 255.65,-92.5 248.03,-85.14 245.1,-91.5"/>
</a>
</g>
</g>
<!-- Node16 -->
<g id="Node000016" class="node">
<title>Node16</title>
<g id="a_Node000016"><a xlink:href="classMayaFlux_1_1Core_1_1Engine_a780dcd6b2f3da01d574cba6e475e087c.html#a780dcd6b2f3da01d574cba6e475e087c" target="_top" xlink:title="Starts the coordinated processing of all subsystems.">
<polygon fill="white" stroke="#666666" points="343,-54 211,-54 211,-24 343,-24 343,-54"/>
<text text-anchor="start" x="219" y="-42" font-family="Helvetica,sans-Serif" font-size="10.00">MayaFlux::Core::Engine</text>
<text text-anchor="middle" x="277" y="-31" font-family="Helvetica,sans-Serif" font-size="10.00">::Start</text>
</a>
</g>
</g>
<!-- Node15&#45;&gt;Node16 -->
<g id="edge18_Node000015_Node000016" class="edge">
<title>Node15&#45;&gt;Node16</title>
<g id="a_edge18_Node000015_Node000016"><a xlink:title=" ">
<path fill="none" stroke="#63b8ff" d="M173.33,-39C182.05,-39 191.37,-39 200.71,-39"/>
<polygon fill="#63b8ff" stroke="#63b8ff" points="200.83,-42.5 210.83,-39 200.83,-35.5 200.83,-42.5"/>
</a>
</g>
</g>
<!-- Node17 -->
<g id="Node000017" class="node">
<title>Node17</title>
<g id="a_Node000017"><a xlink:href="classMayaFlux_1_1Core_1_1Engine_a0044b71bc1b400d9339a6e91312da074.html#a0044b71bc1b400d9339a6e91312da074" target="_top" xlink:title="Initializes all system components and prepares for processing.">
<polygon fill="white" stroke="#666666" points="513,-78 381,-78 381,-48 513,-48 513,-78"/>
<text text-anchor="start" x="389" y="-66" font-family="Helvetica,sans-Serif" font-size="10.00">MayaFlux::Core::Engine</text>
<text text-anchor="middle" x="447" y="-55" font-family="Helvetica,sans-Serif" font-size="10.00">::Init</text>
</a>
</g>
</g>
<!-- Node16&#45;&gt;Node17 -->
<g id="edge19_Node000016_Node000017" class="edge">
<title>Node16&#45;&gt;Node17</title>
<g id="a_edge19_Node000016_Node000017"><a xlink:title=" ">
<path fill="none" stroke="#63b8ff" d="M343.43,-48.35C352.34,-49.62 361.53,-50.93 370.59,-52.23"/>
<polygon fill="#63b8ff" stroke="#63b8ff" points="370.35,-55.73 380.74,-53.68 371.34,-48.8 370.35,-55.73"/>
</a>
</g>
</g>
<!-- Node18 -->
<g id="Node000018" class="node">
<title>Node18</title>
<g id="a_Node000018"><a xlink:href="namespaceMayaFlux_1_1Portal_1_1Forma_ae884428847183df6ad7f10994ff55095.html#ae884428847183df6ad7f10994ff55095" target="_top" xlink:title="Store engine&#45;level references for use by all subsequent Forma calls.">
<polygon fill="white" stroke="#666666" points="515,-30 379,-30 379,0 515,0 515,-30"/>
<text text-anchor="start" x="387" y="-18" font-family="Helvetica,sans-Serif" font-size="10.00">MayaFlux::Portal::Forma</text>
<text text-anchor="middle" x="447" y="-7" font-family="Helvetica,sans-Serif" font-size="10.00">::initialize</text>
</a>
</g>
</g>
<!-- Node16&#45;&gt;Node18 -->
<g id="edge21_Node000016_Node000018" class="edge">
<title>Node16&#45;&gt;Node18</title>
<g id="a_edge21_Node000016_Node000018"><a xlink:title=" ">
<path fill="none" stroke="#63b8ff" d="M343.43,-29.65C351.78,-28.46 360.38,-27.23 368.89,-26.02"/>
<polygon fill="#63b8ff" stroke="#63b8ff" points="369.4,-29.48 378.81,-24.6 368.41,-22.55 369.4,-29.48"/>
</a>
</g>
</g>
<!-- Node17&#45;&gt;Node17 -->
<g id="edge20_Node000017_Node000017" class="edge">
<title>Node17&#45;&gt;Node17</title>
<g id="a_edge20_Node000017_Node000017"><a xlink:title=" ">
<path fill="none" stroke="#63b8ff" d="M419.23,-78.28C413.05,-87.41 422.31,-96 447,-96 461.66,-96 470.88,-92.97 474.66,-88.6"/>
<polygon fill="#63b8ff" stroke="#63b8ff" points="478.16,-88.31 474.77,-78.28 471.16,-88.23 478.16,-88.31"/>
</a>
</g>
</g>
</g>
</svg>
