<?xml version="1.0" encoding="UTF-8" standalone="no"?>
<!DOCTYPE svg PUBLIC "-//W3C//DTD SVG 1.1//EN"
 "http://www.w3.org/Graphics/SVG/1.1/DTD/svg11.dtd">
<!-- Generated by graphviz version 2.43.0 (0)
 -->
<!-- Title: MeshAccess.cpp Pages: 1 -->
<svg width="661pt" height="335pt"
 viewBox="0.00 0.00 660.50 335.00" xmlns="http://www.w3.org/2000/svg" xmlns:xlink="http://www.w3.org/1999/xlink">
<g id="graph0" class="graph" transform="scale(1 1) rotate(0) translate(4 331)">
<title>MeshAccess.cpp</title>
<!-- Node1 -->
<g id="Node000001" class="node">
<title>Node1</title>
<g id="a_Node000001"><a xlink:title=" ">
<polygon fill="#999999" stroke="#666666" points="326.5,-327 229.5,-327 229.5,-308 326.5,-308 326.5,-327"/>
<text text-anchor="middle" x="278" y="-315" font-family="Helvetica,sans-Serif" font-size="10.00">MeshAccess.cpp</text>
</a>
</g>
</g>
<!-- Node2 -->
<g id="Node000002" class="node">
<title>Node2</title>
<g id="a_Node000002"><a xlink:href="MeshAccess_8hpp.html" target="_top" xlink:title=" ">
<polygon fill="white" stroke="#666666" points="252,-272 154,-272 154,-253 252,-253 252,-272"/>
<text text-anchor="middle" x="203" y="-260" font-family="Helvetica,sans-Serif" font-size="10.00">MeshAccess.hpp</text>
</a>
</g>
</g>
<!-- Node1&#45;&gt;Node2 -->
<g id="edge1_Node000001_Node000002" class="edge">
<title>Node1&#45;&gt;Node2</title>
<g id="a_edge1_Node000001_Node000002"><a xlink:title=" ">
<path fill="none" stroke="#63b8ff" d="M265.95,-307.98C254.54,-299.92 237.17,-287.65 223.57,-278.03"/>
<polygon fill="#63b8ff" stroke="#63b8ff" points="225.46,-275.08 215.27,-272.17 221.42,-280.8 225.46,-275.08"/>
</a>
</g>
</g>
<!-- Node8 -->
<g id="Node000008" class="node">
<title>Node8</title>
<g id="a_Node000008"><a xlink:href="Archivist_8hpp.html" target="_top" xlink:title=" ">
<polygon fill="white" stroke="#666666" points="438,-272 270,-272 270,-253 438,-253 438,-272"/>
<text text-anchor="middle" x="354" y="-260" font-family="Helvetica,sans-Serif" font-size="10.00">MayaFlux/Journal/Archivist.hpp</text>
</a>
</g>
</g>
<!-- Node1&#45;&gt;Node8 -->
<g id="edge8_Node000001_Node000008" class="edge">
<title>Node1&#45;&gt;Node8</title>
<g id="a_edge8_Node000001_Node000008"><a xlink:title=" ">
<path fill="none" stroke="#63b8ff" d="M290.21,-307.98C301.78,-299.92 319.38,-287.65 333.16,-278.03"/>
<polygon fill="#63b8ff" stroke="#63b8ff" points="335.37,-280.76 341.57,-272.17 331.36,-275.02 335.37,-280.76"/>
</a>
</g>
</g>
<!-- Node3 -->
<g id="Node000003" class="node">
<title>Node3</title>
<g id="a_Node000003"><a xlink:href="RegionGroup_8hpp.html" target="_top" xlink:title=" ">
<polygon fill="white" stroke="#666666" points="146,-217 0,-217 0,-187 146,-187 146,-217"/>
<text text-anchor="start" x="8" y="-205" font-family="Helvetica,sans-Serif" font-size="10.00">MayaFlux/Kakshya/Region</text>
<text text-anchor="middle" x="73" y="-194" font-family="Helvetica,sans-Serif" font-size="10.00">/RegionGroup.hpp</text>
</a>
</g>
</g>
<!-- Node2&#45;&gt;Node3 -->
<g id="edge2_Node000002_Node000003" class="edge">
<title>Node2&#45;&gt;Node3</title>
<g id="a_edge2_Node000002_Node000003"><a xlink:title=" ">
<path fill="none" stroke="#63b8ff" d="M184.1,-252.99C165.71,-244.72 137.2,-231.89 113.66,-221.3"/>
<polygon fill="#63b8ff" stroke="#63b8ff" points="114.81,-217.98 104.25,-217.06 111.94,-224.36 114.81,-217.98"/>
</a>
</g>
</g>
<!-- Node7 -->
<g id="Node000007" class="node">
<title>Node7</title>
<g id="a_Node000007"><a xlink:href="VertexLayout_8hpp.html" target="_top" xlink:title=" ">
<polygon fill="white" stroke="#666666" points="266,-211.5 164,-211.5 164,-192.5 266,-192.5 266,-211.5"/>
<text text-anchor="middle" x="215" y="-199.5" font-family="Helvetica,sans-Serif" font-size="10.00">VertexLayout.hpp</text>
</a>
</g>
</g>
<!-- Node2&#45;&gt;Node7 -->
<g id="edge6_Node000002_Node000007" class="edge">
<title>Node2&#45;&gt;Node7</title>
<g id="a_edge6_Node000002_Node000007"><a xlink:title=" ">
<path fill="none" stroke="#63b8ff" d="M204.77,-252.87C206.45,-244.66 209.04,-232.04 211.19,-221.55"/>
<polygon fill="#63b8ff" stroke="#63b8ff" points="214.64,-222.17 213.22,-211.67 207.78,-220.76 214.64,-222.17"/>
</a>
</g>
</g>
<!-- Node4 -->
<g id="Node000004" class="node">
<title>Node4</title>
<g id="a_Node000004"><a xlink:href="Region_8hpp.html" target="_top" xlink:title=" ">
<polygon fill="white" stroke="#666666" points="145.5,-145.5 74.5,-145.5 74.5,-126.5 145.5,-126.5 145.5,-145.5"/>
<text text-anchor="middle" x="110" y="-133.5" font-family="Helvetica,sans-Serif" font-size="10.00">Region.hpp</text>
</a>
</g>
</g>
<!-- Node3&#45;&gt;Node4 -->
<g id="edge3_Node000003_Node000004" class="edge">
<title>Node3&#45;&gt;Node4</title>
<g id="a_edge3_Node000003_Node000004"><a xlink:title=" ">
<path fill="none" stroke="#63b8ff" d="M81.21,-186.8C86.7,-177.31 93.95,-164.76 99.81,-154.63"/>
<polygon fill="#63b8ff" stroke="#63b8ff" points="102.91,-156.25 104.89,-145.84 96.85,-152.75 102.91,-156.25"/>
</a>
</g>
</g>
<!-- Node5 -->
<g id="Node000005" class="node">
<title>Node5</title>
<g id="a_Node000005"><a xlink:href="NDData_8hpp.html" target="_top" xlink:title=" ">
<polygon fill="white" stroke="#666666" points="217.5,-85 66.5,-85 66.5,-55 217.5,-55 217.5,-85"/>
<text text-anchor="start" x="74.5" y="-73" font-family="Helvetica,sans-Serif" font-size="10.00">MayaFlux/Kakshya/NDData</text>
<text text-anchor="middle" x="142" y="-62" font-family="Helvetica,sans-Serif" font-size="10.00">/NDData.hpp</text>
</a>
</g>
</g>
<!-- Node4&#45;&gt;Node5 -->
<g id="edge4_Node000004_Node000005" class="edge">
<title>Node4&#45;&gt;Node5</title>
<g id="a_edge4_Node000004_Node000005"><a xlink:title=" ">
<path fill="none" stroke="#63b8ff" d="M114.32,-126.37C118.38,-118.24 124.65,-105.69 130.2,-94.59"/>
<polygon fill="#63b8ff" stroke="#63b8ff" points="133.48,-95.87 134.82,-85.36 127.22,-92.74 133.48,-95.87"/>
</a>
</g>
</g>
<!-- Node6 -->
<g id="Node000006" class="node">
<title>Node6</title>
<g id="a_Node000006"><a xlink:title=" ">
<polygon fill="#e0e0e0" stroke="#999999" points="181,-19 103,-19 103,0 181,0 181,-19"/>
<text text-anchor="middle" x="142" y="-7" font-family="Helvetica,sans-Serif" font-size="10.00">glm/glm.hpp</text>
</a>
</g>
</g>
<!-- Node5&#45;&gt;Node6 -->
<g id="edge5_Node000005_Node000006" class="edge">
<title>Node5&#45;&gt;Node6</title>
<g id="a_edge5_Node000005_Node000006"><a xlink:title=" ">
<path fill="none" stroke="#63b8ff" d="M142,-54.84C142,-47.21 142,-37.7 142,-29.45"/>
<polygon fill="#63b8ff" stroke="#63b8ff" points="145.5,-29.27 142,-19.27 138.5,-29.27 145.5,-29.27"/>
</a>
</g>
</g>
<!-- Node7&#45;&gt;Node5 -->
<g id="edge7_Node000007_Node000005" class="edge">
<title>Node7&#45;&gt;Node5</title>
<g id="a_edge7_Node000007_Node000005"><a xlink:title=" ">
<path fill="none" stroke="#63b8ff" d="M210.21,-192.47C199.1,-172.69 171.29,-123.17 154.82,-93.82"/>
<polygon fill="#63b8ff" stroke="#63b8ff" points="157.85,-92.07 149.9,-85.07 151.74,-95.5 157.85,-92.07"/>
</a>
</g>
</g>
<!-- Node9 -->
<g id="Node000009" class="node">
<title>Node9</title>
<g id="a_Node000009"><a xlink:href="Format_8hpp.html" target="_top" xlink:title=" ">
<polygon fill="white" stroke="#666666" points="379,-211.5 307,-211.5 307,-192.5 379,-192.5 379,-211.5"/>
<text text-anchor="middle" x="343" y="-199.5" font-family="Helvetica,sans-Serif" font-size="10.00">Format.hpp</text>
</a>
</g>
</g>
<!-- Node8&#45;&gt;Node9 -->
<g id="edge9_Node000008_Node000009" class="edge">
<title>Node8&#45;&gt;Node9</title>
<g id="a_edge9_Node000008_Node000009"><a xlink:title=" ">
<path fill="none" stroke="#63b8ff" d="M352.38,-252.87C350.83,-244.66 348.46,-232.04 346.49,-221.55"/>
<polygon fill="#63b8ff" stroke="#63b8ff" points="349.92,-220.85 344.63,-211.67 343.04,-222.14 349.92,-220.85"/>
</a>
</g>
</g>
<!-- Node10 -->
<g id="Node000010" class="node">
<title>Node10</title>
<g id="a_Node000010"><a xlink:href="JournalEntry_8hpp.html" target="_top" xlink:title=" ">
<polygon fill="white" stroke="#666666" points="492.5,-211.5 397.5,-211.5 397.5,-192.5 492.5,-192.5 492.5,-211.5"/>
<text text-anchor="middle" x="445" y="-199.5" font-family="Helvetica,sans-Serif" font-size="10.00">JournalEntry.hpp</text>
</a>
</g>
</g>
<!-- Node8&#45;&gt;Node10 -->
<g id="edge10_Node000008_Node000010" class="edge">
<title>Node8&#45;&gt;Node10</title>
<g id="a_edge10_Node000008_Node000010"><a xlink:title=" ">
<path fill="none" stroke="#63b8ff" d="M367.43,-252.87C382.08,-243.45 405.76,-228.23 423.1,-217.08"/>
<polygon fill="#63b8ff" stroke="#63b8ff" points="425,-220.02 431.52,-211.67 421.21,-214.13 425,-220.02"/>
</a>
</g>
</g>
<!-- Node11 -->
<g id="Node000011" class="node">
<title>Node11</title>
<g id="a_Node000011"><a xlink:href="EnumReflect_8hpp.html" target="_top" xlink:title=" ">
<polygon fill="white" stroke="#666666" points="381.5,-151 242.5,-151 242.5,-121 381.5,-121 381.5,-151"/>
<text text-anchor="start" x="250.5" y="-139" font-family="Helvetica,sans-Serif" font-size="10.00">MayaFlux/Transitive</text>
<text text-anchor="middle" x="312" y="-128" font-family="Helvetica,sans-Serif" font-size="10.00">/Reflect/EnumReflect.hpp</text>
</a>
</g>
</g>
<!-- Node10&#45;&gt;Node11 -->
<g id="edge11_Node000010_Node000011" class="edge">
<title>Node10&#45;&gt;Node11</title>
<g id="a_edge11_Node000010_Node000011"><a xlink:title=" ">
<path fill="none" stroke="#63b8ff" d="M427.06,-192.37C407.57,-182.99 375.84,-167.72 350.64,-155.59"/>
<polygon fill="#63b8ff" stroke="#63b8ff" points="351.86,-152.3 341.33,-151.12 348.83,-158.61 351.86,-152.3"/>
</a>
</g>
</g>
<!-- Node12 -->
<g id="Node000012" class="node">
<title>Node12</title>
<g id="a_Node000012"><a xlink:title=" ">
<polygon fill="#e0e0e0" stroke="#999999" points="450,-145.5 400,-145.5 400,-126.5 450,-126.5 450,-145.5"/>
<text text-anchor="middle" x="425" y="-133.5" font-family="Helvetica,sans-Serif" font-size="10.00">chrono</text>
</a>
</g>
</g>
<!-- Node10&#45;&gt;Node12 -->
<g id="edge12_Node000010_Node000012" class="edge">
<title>Node10&#45;&gt;Node12</title>
<g id="a_edge12_Node000010_Node000012"><a xlink:title=" ">
<path fill="none" stroke="#63b8ff" d="M442.3,-192.37C439.37,-182.97 434.58,-167.67 430.79,-155.53"/>
<polygon fill="#63b8ff" stroke="#63b8ff" points="434.11,-154.41 427.78,-145.91 427.43,-156.49 434.11,-154.41"/>
</a>
</g>
</g>
<!-- Node13 -->
<g id="Node000013" class="node">
<title>Node13</title>
<g id="a_Node000013"><a xlink:title=" ">
<polygon fill="#e0e0e0" stroke="#999999" points="561.5,-145.5 468.5,-145.5 468.5,-126.5 561.5,-126.5 561.5,-145.5"/>
<text text-anchor="middle" x="515" y="-133.5" font-family="Helvetica,sans-Serif" font-size="10.00">source_location</text>
</a>
</g>
</g>
<!-- Node10&#45;&gt;Node13 -->
<g id="edge13_Node000010_Node000013" class="edge">
<title>Node10&#45;&gt;Node13</title>
<g id="a_edge13_Node000010_Node000013"><a xlink:title=" ">
<path fill="none" stroke="#63b8ff" d="M454.44,-192.37C465.55,-182.21 484.2,-165.16 497.88,-152.65"/>
<polygon fill="#63b8ff" stroke="#63b8ff" points="500.24,-155.24 505.26,-145.91 495.52,-150.07 500.24,-155.24"/>
</a>
</g>
</g>
<!-- Node14 -->
<g id="Node000014" class="node">
<title>Node14</title>
<g id="a_Node000014"><a xlink:title=" ">
<polygon fill="#e0e0e0" stroke="#999999" points="652.5,-145.5 579.5,-145.5 579.5,-126.5 652.5,-126.5 652.5,-145.5"/>
<text text-anchor="middle" x="616" y="-133.5" font-family="Helvetica,sans-Serif" font-size="10.00">string_view</text>
</a>
</g>
</g>
<!-- Node10&#45;&gt;Node14 -->
<g id="edge14_Node000010_Node000014" class="edge">
<title>Node10&#45;&gt;Node14</title>
<g id="a_edge14_Node000010_Node000014"><a xlink:title=" ">
<path fill="none" stroke="#63b8ff" d="M468.06,-192.37C497.85,-181.22 549.87,-161.75 583.61,-149.12"/>
<polygon fill="#63b8ff" stroke="#63b8ff" points="584.89,-152.38 593.03,-145.6 582.44,-145.82 584.89,-152.38"/>
</a>
</g>
</g>
</g>
</svg>
