<?xml version="1.0" encoding="UTF-8" standalone="no"?>
<!DOCTYPE svg PUBLIC "-//W3C//DTD SVG 1.1//EN"
 "http://www.w3.org/Graphics/SVG/1.1/DTD/svg11.dtd">
<!-- Generated by graphviz version 2.43.0 (0)
 -->
<!-- Title: MixProcessor.cpp Pages: 1 -->
<svg width="715pt" height="379pt"
 viewBox="0.00 0.00 715.00 379.00" xmlns="http://www.w3.org/2000/svg" xmlns:xlink="http://www.w3.org/1999/xlink">
<g id="graph0" class="graph" transform="scale(1 1) rotate(0) translate(4 375)">
<title>MixProcessor.cpp</title>
<!-- Node1 -->
<g id="Node000001" class="node">
<title>Node1</title>
<g id="a_Node000001"><a xlink:title=" ">
<polygon fill="#999999" stroke="#666666" points="429.5,-371 328.5,-371 328.5,-352 429.5,-352 429.5,-371"/>
<text text-anchor="middle" x="379" y="-359" font-family="Helvetica,sans-Serif" font-size="10.00">MixProcessor.cpp</text>
</a>
</g>
</g>
<!-- Node2 -->
<g id="Node000002" class="node">
<title>Node2</title>
<g id="a_Node000002"><a xlink:href="MixProcessor_8hpp.html" target="_top" xlink:title=" ">
<polygon fill="white" stroke="#666666" points="367,-316 265,-316 265,-297 367,-297 367,-316"/>
<text text-anchor="middle" x="316" y="-304" font-family="Helvetica,sans-Serif" font-size="10.00">MixProcessor.hpp</text>
</a>
</g>
</g>
<!-- Node1&#45;&gt;Node2 -->
<g id="edge1_Node000001_Node000002" class="edge">
<title>Node1&#45;&gt;Node2</title>
<g id="a_edge1_Node000001_Node000002"><a xlink:title=" ">
<path fill="none" stroke="#63b8ff" d="M368.88,-351.98C359.56,-344.15 345.53,-332.34 334.26,-322.86"/>
<polygon fill="#63b8ff" stroke="#63b8ff" points="336.21,-319.93 326.31,-316.17 331.71,-325.29 336.21,-319.93"/>
</a>
</g>
</g>
<!-- Node10 -->
<g id="Node000010" class="node">
<title>Node10</title>
<g id="a_Node000010"><a xlink:href="RootAudioBuffer_8hpp.html" target="_top" xlink:title=" ">
<polygon fill="white" stroke="#666666" points="510,-316 394,-316 394,-297 510,-297 510,-316"/>
<text text-anchor="middle" x="452" y="-304" font-family="Helvetica,sans-Serif" font-size="10.00">RootAudioBuffer.hpp</text>
</a>
</g>
</g>
<!-- Node1&#45;&gt;Node10 -->
<g id="edge9_Node000001_Node000010" class="edge">
<title>Node1&#45;&gt;Node10</title>
<g id="a_edge9_Node000001_Node000010"><a xlink:title=" ">
<path fill="none" stroke="#63b8ff" d="M390.73,-351.98C401.73,-344 418.42,-331.88 431.6,-322.31"/>
<polygon fill="#63b8ff" stroke="#63b8ff" points="434.02,-324.88 440.06,-316.17 429.91,-319.21 434.02,-324.88"/>
</a>
</g>
</g>
<!-- Node3 -->
<g id="Node000003" class="node">
<title>Node3</title>
<g id="a_Node000003"><a xlink:href="BufferProcessor_8hpp.html" target="_top" xlink:title=" ">
<polygon fill="white" stroke="#666666" points="399,-261 197,-261 197,-242 399,-242 399,-261"/>
<text text-anchor="middle" x="298" y="-249" font-family="Helvetica,sans-Serif" font-size="10.00">MayaFlux/Buffers/BufferProcessor.hpp</text>
</a>
</g>
</g>
<!-- Node2&#45;&gt;Node3 -->
<g id="edge2_Node000002_Node000003" class="edge">
<title>Node2&#45;&gt;Node3</title>
<g id="a_edge2_Node000002_Node000003"><a xlink:title=" ">
<path fill="none" stroke="#63b8ff" d="M313.03,-296.75C310.64,-289.72 307.21,-279.62 304.23,-270.84"/>
<polygon fill="#63b8ff" stroke="#63b8ff" points="307.45,-269.43 300.92,-261.09 300.82,-271.68 307.45,-269.43"/>
</a>
</g>
</g>
<!-- Node4 -->
<g id="Node000004" class="node">
<title>Node4</title>
<g id="a_Node000004"><a xlink:href="BufferUtils_8hpp.html" target="_top" xlink:title=" ">
<polygon fill="white" stroke="#666666" points="506.5,-206 417.5,-206 417.5,-187 506.5,-187 506.5,-206"/>
<text text-anchor="middle" x="462" y="-194" font-family="Helvetica,sans-Serif" font-size="10.00">BufferUtils.hpp</text>
</a>
</g>
</g>
<!-- Node3&#45;&gt;Node4 -->
<g id="edge3_Node000003_Node000004" class="edge">
<title>Node3&#45;&gt;Node4</title>
<g id="a_edge3_Node000003_Node000004"><a xlink:title=" ">
<path fill="none" stroke="#63b8ff" d="M324.35,-241.98C351.76,-233.13 394.89,-219.19 425.56,-209.28"/>
<polygon fill="#63b8ff" stroke="#63b8ff" points="427,-212.49 435.44,-206.08 424.85,-205.83 427,-212.49"/>
</a>
</g>
</g>
<!-- Node5 -->
<g id="Node000005" class="node">
<title>Node5</title>
<g id="a_Node000005"><a xlink:href="ProcessingTokens_8hpp.html" target="_top" xlink:title=" ">
<polygon fill="white" stroke="#666666" points="702,-151 556,-151 556,-121 702,-121 702,-151"/>
<text text-anchor="start" x="564" y="-139" font-family="Helvetica,sans-Serif" font-size="10.00">MayaFlux/Core/Processing</text>
<text text-anchor="middle" x="629" y="-128" font-family="Helvetica,sans-Serif" font-size="10.00">Tokens.hpp</text>
</a>
</g>
</g>
<!-- Node4&#45;&gt;Node5 -->
<g id="edge4_Node000004_Node000005" class="edge">
<title>Node4&#45;&gt;Node5</title>
<g id="a_edge4_Node000004_Node000005"><a xlink:title=" ">
<path fill="none" stroke="#63b8ff" d="M486.28,-186.99C510.53,-178.5 548.49,-165.2 579.17,-154.45"/>
<polygon fill="#63b8ff" stroke="#63b8ff" points="580.57,-157.67 588.85,-151.06 578.26,-151.07 580.57,-157.67"/>
</a>
</g>
</g>
<!-- Node6 -->
<g id="Node000006" class="node">
<title>Node6</title>
<g id="a_Node000006"><a xlink:href="VertexLayout_8hpp.html" target="_top" xlink:title=" ">
<polygon fill="white" stroke="#666666" points="537.5,-151 386.5,-151 386.5,-121 537.5,-121 537.5,-151"/>
<text text-anchor="start" x="394.5" y="-139" font-family="Helvetica,sans-Serif" font-size="10.00">MayaFlux/Kakshya/NDData</text>
<text text-anchor="middle" x="462" y="-128" font-family="Helvetica,sans-Serif" font-size="10.00">/VertexLayout.hpp</text>
</a>
</g>
</g>
<!-- Node4&#45;&gt;Node6 -->
<g id="edge5_Node000004_Node000006" class="edge">
<title>Node4&#45;&gt;Node6</title>
<g id="a_edge5_Node000004_Node000006"><a xlink:title=" ">
<path fill="none" stroke="#63b8ff" d="M462,-186.87C462,-180.11 462,-170.35 462,-161.26"/>
<polygon fill="#63b8ff" stroke="#63b8ff" points="465.5,-161.11 462,-151.11 458.5,-161.11 465.5,-161.11"/>
</a>
</g>
</g>
<!-- Node7 -->
<g id="Node000007" class="node">
<title>Node7</title>
<g id="a_Node000007"><a xlink:href="NDData_8hpp.html" target="_top" xlink:title=" ">
<polygon fill="white" stroke="#666666" points="504,-79.5 428,-79.5 428,-60.5 504,-60.5 504,-79.5"/>
<text text-anchor="middle" x="466" y="-67.5" font-family="Helvetica,sans-Serif" font-size="10.00">NDData.hpp</text>
</a>
</g>
</g>
<!-- Node6&#45;&gt;Node7 -->
<g id="edge6_Node000006_Node000007" class="edge">
<title>Node6&#45;&gt;Node7</title>
<g id="a_edge6_Node000006_Node000007"><a xlink:title=" ">
<path fill="none" stroke="#63b8ff" d="M462.89,-120.8C463.46,-111.7 464.2,-99.79 464.82,-89.9"/>
<polygon fill="#63b8ff" stroke="#63b8ff" points="468.32,-90.04 465.45,-79.84 461.33,-89.61 468.32,-90.04"/>
</a>
</g>
</g>
<!-- Node8 -->
<g id="Node000008" class="node">
<title>Node8</title>
<g id="a_Node000008"><a xlink:title=" ">
<polygon fill="#e0e0e0" stroke="#999999" points="460,-19 382,-19 382,0 460,0 460,-19"/>
<text text-anchor="middle" x="421" y="-7" font-family="Helvetica,sans-Serif" font-size="10.00">glm/glm.hpp</text>
</a>
</g>
</g>
<!-- Node7&#45;&gt;Node8 -->
<g id="edge7_Node000007_Node000008" class="edge">
<title>Node7&#45;&gt;Node8</title>
<g id="a_edge7_Node000007_Node000008"><a xlink:title=" ">
<path fill="none" stroke="#63b8ff" d="M459.36,-60.37C452.71,-51.73 442.31,-38.2 434.01,-27.42"/>
<polygon fill="#63b8ff" stroke="#63b8ff" points="436.54,-24.96 427.67,-19.17 430.99,-29.23 436.54,-24.96"/>
</a>
</g>
</g>
<!-- Node9 -->
<g id="Node000009" class="node">
<title>Node9</title>
<g id="a_Node000009"><a xlink:title=" ">
<polygon fill="#e0e0e0" stroke="#999999" points="543.5,-19 478.5,-19 478.5,0 543.5,0 543.5,-19"/>
<text text-anchor="middle" x="511" y="-7" font-family="Helvetica,sans-Serif" font-size="10.00">typeindex</text>
</a>
</g>
</g>
<!-- Node7&#45;&gt;Node9 -->
<g id="edge8_Node000007_Node000009" class="edge">
<title>Node7&#45;&gt;Node9</title>
<g id="a_edge8_Node000007_Node000009"><a xlink:title=" ">
<path fill="none" stroke="#63b8ff" d="M472.64,-60.37C479.29,-51.73 489.69,-38.2 497.99,-27.42"/>
<polygon fill="#63b8ff" stroke="#63b8ff" points="501.01,-29.23 504.33,-19.17 495.46,-24.96 501.01,-29.23"/>
</a>
</g>
</g>
<!-- Node10&#45;&gt;Node3 -->
<g id="edge22_Node000010_Node000003" class="edge">
<title>Node10&#45;&gt;Node3</title>
<g id="a_edge22_Node000010_Node000003"><a xlink:title=" ">
<path fill="none" stroke="#63b8ff" d="M427.26,-296.98C401.63,-288.16 361.37,-274.31 332.59,-264.41"/>
<polygon fill="#63b8ff" stroke="#63b8ff" points="333.53,-261.03 322.94,-261.08 331.25,-267.65 333.53,-261.03"/>
</a>
</g>
</g>
<!-- Node11 -->
<g id="Node000011" class="node">
<title>Node11</title>
<g id="a_Node000011"><a xlink:href="RootBuffer_8hpp.html" target="_top" xlink:title=" ">
<polygon fill="white" stroke="#666666" points="506.5,-261 417.5,-261 417.5,-242 506.5,-242 506.5,-261"/>
<text text-anchor="middle" x="462" y="-249" font-family="Helvetica,sans-Serif" font-size="10.00">RootBuffer.hpp</text>
</a>
</g>
</g>
<!-- Node10&#45;&gt;Node11 -->
<g id="edge10_Node000010_Node000011" class="edge">
<title>Node10&#45;&gt;Node11</title>
<g id="a_edge10_Node000010_Node000011"><a xlink:title=" ">
<path fill="none" stroke="#63b8ff" d="M453.65,-296.75C454.96,-289.8 456.84,-279.85 458.48,-271.13"/>
<polygon fill="#63b8ff" stroke="#63b8ff" points="461.96,-271.56 460.38,-261.09 455.09,-270.27 461.96,-271.56"/>
</a>
</g>
</g>
<!-- Node19 -->
<g id="Node000019" class="node">
<title>Node19</title>
<g id="a_Node000019"><a xlink:href="AudioBuffer_8hpp.html" target="_top" xlink:title=" ">
<polygon fill="white" stroke="#666666" points="707,-261 525,-261 525,-242 707,-242 707,-261"/>
<text text-anchor="middle" x="616" y="-249" font-family="Helvetica,sans-Serif" font-size="10.00">MayaFlux/Buffers/AudioBuffer.hpp</text>
</a>
</g>
</g>
<!-- Node10&#45;&gt;Node19 -->
<g id="edge19_Node000010_Node000019" class="edge">
<title>Node10&#45;&gt;Node19</title>
<g id="a_edge19_Node000010_Node000019"><a xlink:title=" ">
<path fill="none" stroke="#63b8ff" d="M478.35,-296.98C505.76,-288.13 548.89,-274.19 579.56,-264.28"/>
<polygon fill="#63b8ff" stroke="#63b8ff" points="581,-267.49 589.44,-261.08 578.85,-260.83 581,-267.49"/>
</a>
</g>
</g>
<!-- Node11&#45;&gt;Node4 -->
<g id="edge11_Node000011_Node000004" class="edge">
<title>Node11&#45;&gt;Node4</title>
<g id="a_edge11_Node000011_Node000004"><a xlink:title=" ">
<path fill="none" stroke="#63b8ff" d="M462,-241.75C462,-234.8 462,-224.85 462,-216.13"/>
<polygon fill="#63b8ff" stroke="#63b8ff" points="465.5,-216.09 462,-206.09 458.5,-216.09 465.5,-216.09"/>
</a>
</g>
</g>
<!-- Node12 -->
<g id="Node000012" class="node">
<title>Node12</title>
<g id="a_Node000012"><a xlink:href="Archivist_8hpp.html" target="_top" xlink:title=" ">
<polygon fill="white" stroke="#666666" points="394,-206 226,-206 226,-187 394,-187 394,-206"/>
<text text-anchor="middle" x="310" y="-194" font-family="Helvetica,sans-Serif" font-size="10.00">MayaFlux/Journal/Archivist.hpp</text>
</a>
</g>
</g>
<!-- Node11&#45;&gt;Node12 -->
<g id="edge12_Node000011_Node000012" class="edge">
<title>Node11&#45;&gt;Node12</title>
<g id="a_edge12_Node000011_Node000012"><a xlink:title=" ">
<path fill="none" stroke="#63b8ff" d="M437.58,-241.98C412.28,-233.16 372.55,-219.31 344.14,-209.41"/>
<polygon fill="#63b8ff" stroke="#63b8ff" points="345.21,-206.07 334.61,-206.08 342.9,-212.68 345.21,-206.07"/>
</a>
</g>
</g>
<!-- Node13 -->
<g id="Node000013" class="node">
<title>Node13</title>
<g id="a_Node000013"><a xlink:href="JournalEntry_8hpp.html" target="_top" xlink:title=" ">
<polygon fill="white" stroke="#666666" points="263.5,-145.5 168.5,-145.5 168.5,-126.5 263.5,-126.5 263.5,-145.5"/>
<text text-anchor="middle" x="216" y="-133.5" font-family="Helvetica,sans-Serif" font-size="10.00">JournalEntry.hpp</text>
</a>
</g>
</g>
<!-- Node12&#45;&gt;Node13 -->
<g id="edge13_Node000012_Node000013" class="edge">
<title>Node12&#45;&gt;Node13</title>
<g id="a_edge13_Node000012_Node000013"><a xlink:title=" ">
<path fill="none" stroke="#63b8ff" d="M296.13,-186.87C281,-177.45 256.54,-162.23 238.62,-151.08"/>
<polygon fill="#63b8ff" stroke="#63b8ff" points="240.27,-147.98 229.93,-145.67 236.57,-153.92 240.27,-147.98"/>
</a>
</g>
</g>
<!-- Node18 -->
<g id="Node000018" class="node">
<title>Node18</title>
<g id="a_Node000018"><a xlink:title=" ">
<polygon fill="#e0e0e0" stroke="#999999" points="335,-145.5 285,-145.5 285,-126.5 335,-126.5 335,-145.5"/>
<text text-anchor="middle" x="310" y="-133.5" font-family="Helvetica,sans-Serif" font-size="10.00">format</text>
</a>
</g>
</g>
<!-- Node12&#45;&gt;Node18 -->
<g id="edge18_Node000012_Node000018" class="edge">
<title>Node12&#45;&gt;Node18</title>
<g id="a_edge18_Node000012_Node000018"><a xlink:title=" ">
<path fill="none" stroke="#63b8ff" d="M310,-186.87C310,-178.75 310,-166.31 310,-155.89"/>
<polygon fill="#63b8ff" stroke="#63b8ff" points="313.5,-155.67 310,-145.67 306.5,-155.67 313.5,-155.67"/>
</a>
</g>
</g>
<!-- Node14 -->
<g id="Node000014" class="node">
<title>Node14</title>
<g id="a_Node000014"><a xlink:href="EnumReflect_8hpp.html" target="_top" xlink:title=" ">
<polygon fill="white" stroke="#666666" points="409.5,-85 270.5,-85 270.5,-55 409.5,-55 409.5,-85"/>
<text text-anchor="start" x="278.5" y="-73" font-family="Helvetica,sans-Serif" font-size="10.00">MayaFlux/Transitive</text>
<text text-anchor="middle" x="340" y="-62" font-family="Helvetica,sans-Serif" font-size="10.00">/Reflect/EnumReflect.hpp</text>
</a>
</g>
</g>
<!-- Node13&#45;&gt;Node14 -->
<g id="edge14_Node000013_Node000014" class="edge">
<title>Node13&#45;&gt;Node14</title>
<g id="a_edge14_Node000013_Node000014"><a xlink:title=" ">
<path fill="none" stroke="#63b8ff" d="M232.72,-126.37C250.81,-117.03 280.22,-101.86 303.67,-89.75"/>
<polygon fill="#63b8ff" stroke="#63b8ff" points="305.37,-92.81 312.65,-85.12 302.16,-86.59 305.37,-92.81"/>
</a>
</g>
</g>
<!-- Node15 -->
<g id="Node000015" class="node">
<title>Node15</title>
<g id="a_Node000015"><a xlink:title=" ">
<polygon fill="#e0e0e0" stroke="#999999" points="50,-79.5 0,-79.5 0,-60.5 50,-60.5 50,-79.5"/>
<text text-anchor="middle" x="25" y="-67.5" font-family="Helvetica,sans-Serif" font-size="10.00">chrono</text>
</a>
</g>
</g>
<!-- Node13&#45;&gt;Node15 -->
<g id="edge15_Node000013_Node000015" class="edge">
<title>Node13&#45;&gt;Node15</title>
<g id="a_edge15_Node000013_Node000015"><a xlink:title=" ">
<path fill="none" stroke="#63b8ff" d="M186.82,-126.49C155.11,-117.07 103.08,-101.06 59,-85 57.58,-84.48 56.12,-83.94 54.66,-83.38"/>
<polygon fill="#63b8ff" stroke="#63b8ff" points="55.62,-79.99 45.03,-79.57 53.04,-86.5 55.62,-79.99"/>
</a>
</g>
</g>
<!-- Node16 -->
<g id="Node000016" class="node">
<title>Node16</title>
<g id="a_Node000016"><a xlink:title=" ">
<polygon fill="#e0e0e0" stroke="#999999" points="161.5,-79.5 68.5,-79.5 68.5,-60.5 161.5,-60.5 161.5,-79.5"/>
<text text-anchor="middle" x="115" y="-67.5" font-family="Helvetica,sans-Serif" font-size="10.00">source_location</text>
</a>
</g>
</g>
<!-- Node13&#45;&gt;Node16 -->
<g id="edge16_Node000013_Node000016" class="edge">
<title>Node13&#45;&gt;Node16</title>
<g id="a_edge16_Node000013_Node000016"><a xlink:title=" ">
<path fill="none" stroke="#63b8ff" d="M202.38,-126.37C185.66,-115.78 157.09,-97.67 137.19,-85.06"/>
<polygon fill="#63b8ff" stroke="#63b8ff" points="139.05,-82.1 128.73,-79.7 135.3,-88.01 139.05,-82.1"/>
</a>
</g>
</g>
<!-- Node17 -->
<g id="Node000017" class="node">
<title>Node17</title>
<g id="a_Node000017"><a xlink:title=" ">
<polygon fill="#e0e0e0" stroke="#999999" points="252.5,-79.5 179.5,-79.5 179.5,-60.5 252.5,-60.5 252.5,-79.5"/>
<text text-anchor="middle" x="216" y="-67.5" font-family="Helvetica,sans-Serif" font-size="10.00">string_view</text>
</a>
</g>
</g>
<!-- Node13&#45;&gt;Node17 -->
<g id="edge17_Node000013_Node000017" class="edge">
<title>Node13&#45;&gt;Node17</title>
<g id="a_edge17_Node000013_Node000017"><a xlink:title=" ">
<path fill="none" stroke="#63b8ff" d="M216,-126.37C216,-117.16 216,-102.29 216,-90.27"/>
<polygon fill="#63b8ff" stroke="#63b8ff" points="219.5,-89.91 216,-79.91 212.5,-89.91 219.5,-89.91"/>
</a>
</g>
</g>
<!-- Node19&#45;&gt;Node5 -->
<g id="edge21_Node000019_Node000005" class="edge">
<title>Node19&#45;&gt;Node5</title>
<g id="a_edge21_Node000019_Node000005"><a xlink:title=" ">
<path fill="none" stroke="#63b8ff" d="M616.98,-241.97C618.92,-225.01 623.33,-186.5 626.23,-161.14"/>
<polygon fill="#63b8ff" stroke="#63b8ff" points="629.71,-161.51 627.38,-151.18 622.76,-160.72 629.71,-161.51"/>
</a>
</g>
</g>
<!-- Node20 -->
<g id="Node000020" class="node">
<title>Node20</title>
<g id="a_Node000020"><a xlink:href="Buffer_8hpp.html" target="_top" xlink:title=" ">
<polygon fill="white" stroke="#666666" points="601,-206 535,-206 535,-187 601,-187 601,-206"/>
<text text-anchor="middle" x="568" y="-194" font-family="Helvetica,sans-Serif" font-size="10.00">Buffer.hpp</text>
</a>
</g>
</g>
<!-- Node19&#45;&gt;Node20 -->
<g id="edge20_Node000019_Node000020" class="edge">
<title>Node19&#45;&gt;Node20</title>
<g id="a_edge20_Node000019_Node000020"><a xlink:title=" ">
<path fill="none" stroke="#63b8ff" d="M608.07,-241.75C601.15,-234.11 590.93,-222.82 582.55,-213.56"/>
<polygon fill="#63b8ff" stroke="#63b8ff" points="585.09,-211.15 575.78,-206.09 579.9,-215.85 585.09,-211.15"/>
</a>
</g>
</g>
</g>
</svg>
