<?xml version="1.0" encoding="UTF-8" standalone="no"?>
<!DOCTYPE svg PUBLIC "-//W3C//DTD SVG 1.1//EN"
 "http://www.w3.org/Graphics/SVG/1.1/DTD/svg11.dtd">
<!-- Generated by graphviz version 2.43.0 (0)
 -->
<!-- Title: MixProcessor.cpp Pages: 1 -->
<!--zoomable 379 -->

<svg id="main" version="1.1" xmlns="http://www.w3.org/2000/svg" xmlns:xlink="http://www.w3.org/1999/xlink" xml:space="preserve" onload="init(evt)">
<style type="text/css"><![CDATA[
.node, .edge {opacity: 0.7;}
.node.selected, .edge.selected {opacity: 1;}
.edge:hover path { stroke: red; }
.edge:hover polygon { stroke: red; fill: red; }
]]></style>

<defs>
  <circle id="rim" cx="0" cy="0" r="7"/>
  <circle id="rim2" cx="0" cy="0" r="3.5"/>
  <g id="zoomPlus">
    <use xlink:href="#rim" fill="#404040"><set attributeName="fill" to="#808080" begin="zoomplus.mouseover" end="zoomplus.mouseout"/></use>
    <path d="M-4,0h8M0,-4v8" fill="none" stroke="white" stroke-width="1.5" pointer-events="none"/>
  </g>
  <g id="zoomMin">
    <use xlink:href="#rim" fill="#404040"><set attributeName="fill" to="#808080" begin="zoomminus.mouseover" end="zoomminus.mouseout"/></use>
    <path d="M-4,0h8" fill="none" stroke="white" stroke-width="1.5" pointer-events="none"/>
  </g>
  <g id="arrowUp" transform="translate(30 24)">
    <use xlink:href="#rim"/>
    <path pointer-events="none" fill="none" stroke="white" stroke-width="1.5" d="M0,-3.0v7 M-2.5,-0.5L0,-3.0L2.5,-0.5"/>
  </g>
  <g id="arrowRight" transform="rotate(90) translate(36 -43)">
    <use xlink:href="#rim"/>
    <path pointer-events="none" fill="none" stroke="white" stroke-width="1.5" d="M0,-3.0v7 M-2.5,-0.5L0,-3.0L2.5,-0.5"/>
  </g>
  <g id="arrowDown" transform="rotate(180) translate(-30 -48)">
    <use xlink:href="#rim"/>
    <path pointer-events="none" fill="none" stroke="white" stroke-width="1.5" d="M0,-3.0v7 M-2.5,-0.5L0,-3.0L2.5,-0.5"/>
  </g>
  <g id="arrowLeft" transform="rotate(270) translate(-36 17)">
    <use xlink:href="#rim"/>
    <path pointer-events="none" fill="none" stroke="white" stroke-width="1.5" d="M0,-3.0v7 M-2.5,-0.5L0,-3.0L2.5,-0.5"/>
  </g>
  <g id="resetDef">
    <use xlink:href="#rim2" fill="#404040"><set attributeName="fill" to="#808080" begin="reset.mouseover" end="reset.mouseout"/></use>
  </g>
</defs>
<script type="application/ecmascript">
var viewWidth = 667;
var viewHeight = 379;
var sectionId = 'dynsection-0';
</script>
<script type="application/ecmascript" xlink:href="svg.min.js"/>
<svg id="graph" class="graph">
<g id="viewport">
<title>MixProcessor.cpp</title>
<!-- Node1 -->
<g id="Node000001" class="node">
<title>Node1</title>
<g id="a_Node000001"><a xlink:title=" ">
<polygon fill="#999999" stroke="#666666" points="381.5,-371 280.5,-371 280.5,-352 381.5,-352 381.5,-371"/>
<text text-anchor="middle" x="331" y="-359" font-family="Helvetica,sans-Serif" font-size="10.00">MixProcessor.cpp</text>
</a>
</g>
</g>
<!-- Node2 -->
<g id="Node000002" class="node">
<title>Node2</title>
<g id="a_Node000002"><a xlink:href="MixProcessor_8hpp.html" target="_top" xlink:title=" ">
<polygon fill="white" stroke="#666666" points="319,-316 217,-316 217,-297 319,-297 319,-316"/>
<text text-anchor="middle" x="268" y="-304" font-family="Helvetica,sans-Serif" font-size="10.00">MixProcessor.hpp</text>
</a>
</g>
</g>
<!-- Node1&#45;&gt;Node2 -->
<g id="edge1_Node000001_Node000002" class="edge">
<title>Node1&#45;&gt;Node2</title>
<g id="a_edge1_Node000001_Node000002"><a xlink:title=" ">
<path fill="none" stroke="#63b8ff" d="M320.88,-351.98C311.56,-344.15 297.53,-332.34 286.26,-322.86"/>
<polygon fill="#63b8ff" stroke="#63b8ff" points="288.21,-319.93 278.31,-316.17 283.71,-325.29 288.21,-319.93"/>
</a>
</g>
</g>
<!-- Node9 -->
<g id="Node000009" class="node">
<title>Node9</title>
<g id="a_Node000009"><a xlink:href="RootAudioBuffer_8hpp.html" target="_top" xlink:title=" ">
<polygon fill="white" stroke="#666666" points="462,-316 346,-316 346,-297 462,-297 462,-316"/>
<text text-anchor="middle" x="404" y="-304" font-family="Helvetica,sans-Serif" font-size="10.00">RootAudioBuffer.hpp</text>
</a>
</g>
</g>
<!-- Node1&#45;&gt;Node9 -->
<g id="edge8_Node000001_Node000009" class="edge">
<title>Node1&#45;&gt;Node9</title>
<g id="a_edge8_Node000001_Node000009"><a xlink:title=" ">
<path fill="none" stroke="#63b8ff" d="M342.73,-351.98C353.73,-344 370.42,-331.88 383.6,-322.31"/>
<polygon fill="#63b8ff" stroke="#63b8ff" points="386.02,-324.88 392.06,-316.17 381.91,-319.21 386.02,-324.88"/>
</a>
</g>
</g>
<!-- Node3 -->
<g id="Node000003" class="node">
<title>Node3</title>
<g id="a_Node000003"><a xlink:href="BufferProcessor_8hpp.html" target="_top" xlink:title=" ">
<polygon fill="white" stroke="#666666" points="351,-261 149,-261 149,-242 351,-242 351,-261"/>
<text text-anchor="middle" x="250" y="-249" font-family="Helvetica,sans-Serif" font-size="10.00">MayaFlux/Buffers/BufferProcessor.hpp</text>
</a>
</g>
</g>
<!-- Node2&#45;&gt;Node3 -->
<g id="edge2_Node000002_Node000003" class="edge">
<title>Node2&#45;&gt;Node3</title>
<g id="a_edge2_Node000002_Node000003"><a xlink:title=" ">
<path fill="none" stroke="#63b8ff" d="M265.03,-296.75C262.64,-289.72 259.21,-279.62 256.23,-270.84"/>
<polygon fill="#63b8ff" stroke="#63b8ff" points="259.45,-269.43 252.92,-261.09 252.82,-271.68 259.45,-269.43"/>
</a>
</g>
</g>
<!-- Node4 -->
<g id="Node000004" class="node">
<title>Node4</title>
<g id="a_Node000004"><a xlink:href="BufferUtils_8hpp.html" target="_top" xlink:title=" ">
<polygon fill="white" stroke="#666666" points="458.5,-206 369.5,-206 369.5,-187 458.5,-187 458.5,-206"/>
<text text-anchor="middle" x="414" y="-194" font-family="Helvetica,sans-Serif" font-size="10.00">BufferUtils.hpp</text>
</a>
</g>
</g>
<!-- Node3&#45;&gt;Node4 -->
<g id="edge3_Node000003_Node000004" class="edge">
<title>Node3&#45;&gt;Node4</title>
<g id="a_edge3_Node000003_Node000004"><a xlink:title=" ">
<path fill="none" stroke="#63b8ff" d="M276.35,-241.98C303.76,-233.13 346.89,-219.19 377.56,-209.28"/>
<polygon fill="#63b8ff" stroke="#63b8ff" points="379,-212.49 387.44,-206.08 376.85,-205.83 379,-212.49"/>
</a>
</g>
</g>
<!-- Node5 -->
<g id="Node000005" class="node">
<title>Node5</title>
<g id="a_Node000005"><a xlink:href="ProcessingTokens_8hpp.html" target="_top" xlink:title=" ">
<polygon fill="white" stroke="#666666" points="654,-151 508,-151 508,-121 654,-121 654,-151"/>
<text text-anchor="start" x="516" y="-139" font-family="Helvetica,sans-Serif" font-size="10.00">MayaFlux/Core/Processing</text>
<text text-anchor="middle" x="581" y="-128" font-family="Helvetica,sans-Serif" font-size="10.00">Tokens.hpp</text>
</a>
</g>
</g>
<!-- Node4&#45;&gt;Node5 -->
<g id="edge4_Node000004_Node000005" class="edge">
<title>Node4&#45;&gt;Node5</title>
<g id="a_edge4_Node000004_Node000005"><a xlink:title=" ">
<path fill="none" stroke="#63b8ff" d="M438.28,-186.99C462.53,-178.5 500.49,-165.2 531.17,-154.45"/>
<polygon fill="#63b8ff" stroke="#63b8ff" points="532.57,-157.67 540.85,-151.06 530.26,-151.07 532.57,-157.67"/>
</a>
</g>
</g>
<!-- Node6 -->
<g id="Node000006" class="node">
<title>Node6</title>
<g id="a_Node000006"><a xlink:href="VertexLayout_8hpp.html" target="_top" xlink:title=" ">
<polygon fill="white" stroke="#666666" points="489.5,-151 338.5,-151 338.5,-121 489.5,-121 489.5,-151"/>
<text text-anchor="start" x="346.5" y="-139" font-family="Helvetica,sans-Serif" font-size="10.00">MayaFlux/Kakshya/NDData</text>
<text text-anchor="middle" x="414" y="-128" font-family="Helvetica,sans-Serif" font-size="10.00">/VertexLayout.hpp</text>
</a>
</g>
</g>
<!-- Node4&#45;&gt;Node6 -->
<g id="edge5_Node000004_Node000006" class="edge">
<title>Node4&#45;&gt;Node6</title>
<g id="a_edge5_Node000004_Node000006"><a xlink:title=" ">
<path fill="none" stroke="#63b8ff" d="M414,-186.87C414,-180.11 414,-170.35 414,-161.26"/>
<polygon fill="#63b8ff" stroke="#63b8ff" points="417.5,-161.11 414,-151.11 410.5,-161.11 417.5,-161.11"/>
</a>
</g>
</g>
<!-- Node7 -->
<g id="Node000007" class="node">
<title>Node7</title>
<g id="a_Node000007"><a xlink:href="NDData_8hpp.html" target="_top" xlink:title=" ">
<polygon fill="white" stroke="#666666" points="504,-79.5 428,-79.5 428,-60.5 504,-60.5 504,-79.5"/>
<text text-anchor="middle" x="466" y="-67.5" font-family="Helvetica,sans-Serif" font-size="10.00">NDData.hpp</text>
</a>
</g>
</g>
<!-- Node6&#45;&gt;Node7 -->
<g id="edge6_Node000006_Node000007" class="edge">
<title>Node6&#45;&gt;Node7</title>
<g id="a_edge6_Node000006_Node000007"><a xlink:title=" ">
<path fill="none" stroke="#63b8ff" d="M425.54,-120.8C433.49,-111.01 444.08,-97.98 452.43,-87.7"/>
<polygon fill="#63b8ff" stroke="#63b8ff" points="455.22,-89.81 458.81,-79.84 449.79,-85.4 455.22,-89.81"/>
</a>
</g>
</g>
<!-- Node8 -->
<g id="Node000008" class="node">
<title>Node8</title>
<g id="a_Node000008"><a xlink:title=" ">
<polygon fill="#e0e0e0" stroke="#999999" points="505,-19 427,-19 427,0 505,0 505,-19"/>
<text text-anchor="middle" x="466" y="-7" font-family="Helvetica,sans-Serif" font-size="10.00">glm/glm.hpp</text>
</a>
</g>
</g>
<!-- Node7&#45;&gt;Node8 -->
<g id="edge7_Node000007_Node000008" class="edge">
<title>Node7&#45;&gt;Node8</title>
<g id="a_edge7_Node000007_Node000008"><a xlink:title=" ">
<path fill="none" stroke="#63b8ff" d="M466,-60.37C466,-52.25 466,-39.81 466,-29.39"/>
<polygon fill="#63b8ff" stroke="#63b8ff" points="469.5,-29.17 466,-19.17 462.5,-29.17 469.5,-29.17"/>
</a>
</g>
</g>
<!-- Node9&#45;&gt;Node3 -->
<g id="edge21_Node000009_Node000003" class="edge">
<title>Node9&#45;&gt;Node3</title>
<g id="a_edge21_Node000009_Node000003"><a xlink:title=" ">
<path fill="none" stroke="#63b8ff" d="M379.26,-296.98C353.63,-288.16 313.37,-274.31 284.59,-264.41"/>
<polygon fill="#63b8ff" stroke="#63b8ff" points="285.53,-261.03 274.94,-261.08 283.25,-267.65 285.53,-261.03"/>
</a>
</g>
</g>
<!-- Node10 -->
<g id="Node000010" class="node">
<title>Node10</title>
<g id="a_Node000010"><a xlink:href="RootBuffer_8hpp.html" target="_top" xlink:title=" ">
<polygon fill="white" stroke="#666666" points="458.5,-261 369.5,-261 369.5,-242 458.5,-242 458.5,-261"/>
<text text-anchor="middle" x="414" y="-249" font-family="Helvetica,sans-Serif" font-size="10.00">RootBuffer.hpp</text>
</a>
</g>
</g>
<!-- Node9&#45;&gt;Node10 -->
<g id="edge9_Node000009_Node000010" class="edge">
<title>Node9&#45;&gt;Node10</title>
<g id="a_edge9_Node000009_Node000010"><a xlink:title=" ">
<path fill="none" stroke="#63b8ff" d="M405.65,-296.75C406.96,-289.8 408.84,-279.85 410.48,-271.13"/>
<polygon fill="#63b8ff" stroke="#63b8ff" points="413.96,-271.56 412.38,-261.09 407.09,-270.27 413.96,-271.56"/>
</a>
</g>
</g>
<!-- Node18 -->
<g id="Node000018" class="node">
<title>Node18</title>
<g id="a_Node000018"><a xlink:href="AudioBuffer_8hpp.html" target="_top" xlink:title=" ">
<polygon fill="white" stroke="#666666" points="659,-261 477,-261 477,-242 659,-242 659,-261"/>
<text text-anchor="middle" x="568" y="-249" font-family="Helvetica,sans-Serif" font-size="10.00">MayaFlux/Buffers/AudioBuffer.hpp</text>
</a>
</g>
</g>
<!-- Node9&#45;&gt;Node18 -->
<g id="edge18_Node000009_Node000018" class="edge">
<title>Node9&#45;&gt;Node18</title>
<g id="a_edge18_Node000009_Node000018"><a xlink:title=" ">
<path fill="none" stroke="#63b8ff" d="M430.35,-296.98C457.76,-288.13 500.89,-274.19 531.56,-264.28"/>
<polygon fill="#63b8ff" stroke="#63b8ff" points="533,-267.49 541.44,-261.08 530.85,-260.83 533,-267.49"/>
</a>
</g>
</g>
<!-- Node10&#45;&gt;Node4 -->
<g id="edge10_Node000010_Node000004" class="edge">
<title>Node10&#45;&gt;Node4</title>
<g id="a_edge10_Node000010_Node000004"><a xlink:title=" ">
<path fill="none" stroke="#63b8ff" d="M414,-241.75C414,-234.8 414,-224.85 414,-216.13"/>
<polygon fill="#63b8ff" stroke="#63b8ff" points="417.5,-216.09 414,-206.09 410.5,-216.09 417.5,-216.09"/>
</a>
</g>
</g>
<!-- Node11 -->
<g id="Node000011" class="node">
<title>Node11</title>
<g id="a_Node000011"><a xlink:href="Archivist_8hpp.html" target="_top" xlink:title=" ">
<polygon fill="white" stroke="#666666" points="300,-206 132,-206 132,-187 300,-187 300,-206"/>
<text text-anchor="middle" x="216" y="-194" font-family="Helvetica,sans-Serif" font-size="10.00">MayaFlux/Journal/Archivist.hpp</text>
</a>
</g>
</g>
<!-- Node10&#45;&gt;Node11 -->
<g id="edge11_Node000010_Node000011" class="edge">
<title>Node10&#45;&gt;Node11</title>
<g id="a_edge11_Node000010_Node000011"><a xlink:title=" ">
<path fill="none" stroke="#63b8ff" d="M382.19,-241.98C348.51,-232.97 295.2,-218.7 258.08,-208.76"/>
<polygon fill="#63b8ff" stroke="#63b8ff" points="258.63,-205.29 248.06,-206.08 256.82,-212.05 258.63,-205.29"/>
</a>
</g>
</g>
<!-- Node12 -->
<g id="Node000012" class="node">
<title>Node12</title>
<g id="a_Node000012"><a xlink:href="Format_8hpp.html" target="_top" xlink:title=" ">
<polygon fill="white" stroke="#666666" points="150,-145.5 78,-145.5 78,-126.5 150,-126.5 150,-145.5"/>
<text text-anchor="middle" x="114" y="-133.5" font-family="Helvetica,sans-Serif" font-size="10.00">Format.hpp</text>
</a>
</g>
</g>
<!-- Node11&#45;&gt;Node12 -->
<g id="edge12_Node000011_Node000012" class="edge">
<title>Node11&#45;&gt;Node12</title>
<g id="a_edge12_Node000011_Node000012"><a xlink:title=" ">
<path fill="none" stroke="#63b8ff" d="M200.95,-186.87C184.38,-177.36 157.5,-161.95 138.01,-150.77"/>
<polygon fill="#63b8ff" stroke="#63b8ff" points="139.53,-147.61 129.11,-145.67 136.05,-153.68 139.53,-147.61"/>
</a>
</g>
</g>
<!-- Node13 -->
<g id="Node000013" class="node">
<title>Node13</title>
<g id="a_Node000013"><a xlink:href="JournalEntry_8hpp.html" target="_top" xlink:title=" ">
<polygon fill="white" stroke="#666666" points="263.5,-145.5 168.5,-145.5 168.5,-126.5 263.5,-126.5 263.5,-145.5"/>
<text text-anchor="middle" x="216" y="-133.5" font-family="Helvetica,sans-Serif" font-size="10.00">JournalEntry.hpp</text>
</a>
</g>
</g>
<!-- Node11&#45;&gt;Node13 -->
<g id="edge13_Node000011_Node000013" class="edge">
<title>Node11&#45;&gt;Node13</title>
<g id="a_edge13_Node000011_Node000013"><a xlink:title=" ">
<path fill="none" stroke="#63b8ff" d="M216,-186.87C216,-178.75 216,-166.31 216,-155.89"/>
<polygon fill="#63b8ff" stroke="#63b8ff" points="219.5,-155.67 216,-145.67 212.5,-155.67 219.5,-155.67"/>
</a>
</g>
</g>
<!-- Node14 -->
<g id="Node000014" class="node">
<title>Node14</title>
<g id="a_Node000014"><a xlink:href="EnumReflect_8hpp.html" target="_top" xlink:title=" ">
<polygon fill="white" stroke="#666666" points="409.5,-85 270.5,-85 270.5,-55 409.5,-55 409.5,-85"/>
<text text-anchor="start" x="278.5" y="-73" font-family="Helvetica,sans-Serif" font-size="10.00">MayaFlux/Transitive</text>
<text text-anchor="middle" x="340" y="-62" font-family="Helvetica,sans-Serif" font-size="10.00">/Reflect/EnumReflect.hpp</text>
</a>
</g>
</g>
<!-- Node13&#45;&gt;Node14 -->
<g id="edge14_Node000013_Node000014" class="edge">
<title>Node13&#45;&gt;Node14</title>
<g id="a_edge14_Node000013_Node000014"><a xlink:title=" ">
<path fill="none" stroke="#63b8ff" d="M232.72,-126.37C250.81,-117.03 280.22,-101.86 303.67,-89.75"/>
<polygon fill="#63b8ff" stroke="#63b8ff" points="305.37,-92.81 312.65,-85.12 302.16,-86.59 305.37,-92.81"/>
</a>
</g>
</g>
<!-- Node15 -->
<g id="Node000015" class="node">
<title>Node15</title>
<g id="a_Node000015"><a xlink:title=" ">
<polygon fill="#e0e0e0" stroke="#999999" points="50,-79.5 0,-79.5 0,-60.5 50,-60.5 50,-79.5"/>
<text text-anchor="middle" x="25" y="-67.5" font-family="Helvetica,sans-Serif" font-size="10.00">chrono</text>
</a>
</g>
</g>
<!-- Node13&#45;&gt;Node15 -->
<g id="edge15_Node000013_Node000015" class="edge">
<title>Node13&#45;&gt;Node15</title>
<g id="a_edge15_Node000013_Node000015"><a xlink:title=" ">
<path fill="none" stroke="#63b8ff" d="M186.82,-126.49C155.11,-117.07 103.08,-101.06 59,-85 57.58,-84.48 56.12,-83.94 54.66,-83.38"/>
<polygon fill="#63b8ff" stroke="#63b8ff" points="55.62,-79.99 45.03,-79.57 53.04,-86.5 55.62,-79.99"/>
</a>
</g>
</g>
<!-- Node16 -->
<g id="Node000016" class="node">
<title>Node16</title>
<g id="a_Node000016"><a xlink:title=" ">
<polygon fill="#e0e0e0" stroke="#999999" points="161.5,-79.5 68.5,-79.5 68.5,-60.5 161.5,-60.5 161.5,-79.5"/>
<text text-anchor="middle" x="115" y="-67.5" font-family="Helvetica,sans-Serif" font-size="10.00">source_location</text>
</a>
</g>
</g>
<!-- Node13&#45;&gt;Node16 -->
<g id="edge16_Node000013_Node000016" class="edge">
<title>Node13&#45;&gt;Node16</title>
<g id="a_edge16_Node000013_Node000016"><a xlink:title=" ">
<path fill="none" stroke="#63b8ff" d="M202.38,-126.37C185.66,-115.78 157.09,-97.67 137.19,-85.06"/>
<polygon fill="#63b8ff" stroke="#63b8ff" points="139.05,-82.1 128.73,-79.7 135.3,-88.01 139.05,-82.1"/>
</a>
</g>
</g>
<!-- Node17 -->
<g id="Node000017" class="node">
<title>Node17</title>
<g id="a_Node000017"><a xlink:title=" ">
<polygon fill="#e0e0e0" stroke="#999999" points="252.5,-79.5 179.5,-79.5 179.5,-60.5 252.5,-60.5 252.5,-79.5"/>
<text text-anchor="middle" x="216" y="-67.5" font-family="Helvetica,sans-Serif" font-size="10.00">string_view</text>
</a>
</g>
</g>
<!-- Node13&#45;&gt;Node17 -->
<g id="edge17_Node000013_Node000017" class="edge">
<title>Node13&#45;&gt;Node17</title>
<g id="a_edge17_Node000013_Node000017"><a xlink:title=" ">
<path fill="none" stroke="#63b8ff" d="M216,-126.37C216,-117.16 216,-102.29 216,-90.27"/>
<polygon fill="#63b8ff" stroke="#63b8ff" points="219.5,-89.91 216,-79.91 212.5,-89.91 219.5,-89.91"/>
</a>
</g>
</g>
<!-- Node18&#45;&gt;Node5 -->
<g id="edge20_Node000018_Node000005" class="edge">
<title>Node18&#45;&gt;Node5</title>
<g id="a_edge20_Node000018_Node000005"><a xlink:title=" ">
<path fill="none" stroke="#63b8ff" d="M568.98,-241.97C570.92,-225.01 575.33,-186.5 578.23,-161.14"/>
<polygon fill="#63b8ff" stroke="#63b8ff" points="581.71,-161.51 579.38,-151.18 574.76,-160.72 581.71,-161.51"/>
</a>
</g>
</g>
<!-- Node19 -->
<g id="Node000019" class="node">
<title>Node19</title>
<g id="a_Node000019"><a xlink:href="Buffer_8hpp.html" target="_top" xlink:title=" ">
<polygon fill="white" stroke="#666666" points="553,-206 487,-206 487,-187 553,-187 553,-206"/>
<text text-anchor="middle" x="520" y="-194" font-family="Helvetica,sans-Serif" font-size="10.00">Buffer.hpp</text>
</a>
</g>
</g>
<!-- Node18&#45;&gt;Node19 -->
<g id="edge19_Node000018_Node000019" class="edge">
<title>Node18&#45;&gt;Node19</title>
<g id="a_edge19_Node000018_Node000019"><a xlink:title=" ">
<path fill="none" stroke="#63b8ff" d="M560.07,-241.75C553.15,-234.11 542.93,-222.82 534.55,-213.56"/>
<polygon fill="#63b8ff" stroke="#63b8ff" points="537.09,-211.15 527.78,-206.09 531.9,-215.85 537.09,-211.15"/>
</a>
</g>
</g>
</g>
</svg>

<g id="navigator" transform="translate(0 0)" fill="#404254">
  <rect fill="#f2f5e9" fill-opacity="0.5" stroke="#606060" stroke-width=".5" x="0" y="0" width="60" height="60"/>
  <use id="zoomplus" xlink:href="#zoomPlus" x="17" y="9" onmousedown="handleZoom(evt,'in')"/>
  <use id="zoomminus" xlink:href="#zoomMin" x="42" y="9" onmousedown="handleZoom(evt,'out')"/>
  <use id="reset" xlink:href="#resetDef" x="30" y="36" onmousedown="handleReset()"/>
   <use id="arrowup" xlink:href="#arrowUp" x="0" y="0" onmousedown="handlePan(0,-1)"/>
  <use id="arrowright" xlink:href="#arrowRight" x="0" y="0" onmousedown="handlePan(1,0)"/>
  <use id="arrowdown" xlink:href="#arrowDown" x="0" y="0" onmousedown="handlePan(0,1)"/>
  <use id="arrowleft" xlink:href="#arrowLeft" x="0" y="0" onmousedown="handlePan(-1,0)"/>
</g>
<svg viewBox="0 0 15 15" width="100%" height="30px" preserveAspectRatio="xMaxYMin meet">
 <g id="arrow_out" transform="scale(0.3 0.3)">
  <a xlink:href="MixProcessor_8cpp__incl_org.svg" target="_base">
   <rect id="button" ry="5" rx="5" y="6" x="6" height="38" width="38"
        fill="#f2f5e9" fill-opacity="0.5" stroke="#606060" stroke-width="1.0"/>
   <path id="arrow"
     d="M 11.500037,31.436501 C 11.940474,20.09759 22.043105,11.32322 32.158766,21.979434 L 37.068811,17.246167 C 37.068811,17.246167 37.088388,32 37.088388,32 L 22.160133,31.978069 C 22.160133,31.978069 26.997745,27.140456 26.997745,27.140456 C 18.528582,18.264221 13.291696,25.230495 11.500037,31.436501 z"
     style="fill:#404040;"/>
  </a>
 </g>
</svg>

<style type='text/css'>
<![CDATA[
[data-mouse-over-selected='false'] { opacity: 0.7; }
[data-mouse-over-selected='true']  { opacity: 1.0; }
]]>
</style>
<script type="application/ecmascript"><![CDATA[
document.addEventListener('DOMContentLoaded', (event) => {
  highlightEdges();
  highlightAdjacentNodes();
});
]]></script>
</svg>
