<?xml version="1.0" encoding="UTF-8" standalone="no"?>
<!DOCTYPE svg PUBLIC "-//W3C//DTD SVG 1.1//EN"
 "http://www.w3.org/Graphics/SVG/1.1/DTD/svg11.dtd">
<!-- Generated by graphviz version 2.43.0 (0)
 -->
<!-- Title: MayaFlux::Kriya::mouse_dragged Pages: 1 -->
<svg width="503pt" height="124pt"
 viewBox="0.00 0.00 503.00 124.00" xmlns="http://www.w3.org/2000/svg" xmlns:xlink="http://www.w3.org/1999/xlink">
<g id="graph0" class="graph" transform="scale(1 1) rotate(0) translate(4 120)">
<title>MayaFlux::Kriya::mouse_dragged</title>
<!-- Node1 -->
<g id="Node000001" class="node">
<title>Node1</title>
<g id="a_Node000001"><a xlink:title="Creates an Event coroutine that triggers on mouse drag with specific button.">
<polygon fill="#999999" stroke="#666666" points="495,-73 360,-73 360,-43 495,-43 495,-73"/>
<text text-anchor="start" x="368" y="-61" font-family="Helvetica,sans-Serif" font-size="10.00">MayaFlux::Kriya::mouse</text>
<text text-anchor="middle" x="427.5" y="-50" font-family="Helvetica,sans-Serif" font-size="10.00">_dragged</text>
</a>
</g>
</g>
<!-- Node2 -->
<g id="Node000002" class="node">
<title>Node2</title>
<g id="a_Node000002"><a xlink:href="classMayaFlux_1_1Nexus_1_1Wiring_af32900423bc2e18633ca0f7dd74f051a.html#af32900423bc2e18633ca0f7dd74f051a" target="_top" xlink:title="Apply the configured wiring.">
<polygon fill="white" stroke="#666666" points="317.5,-116 178.5,-116 178.5,-86 317.5,-86 317.5,-116"/>
<text text-anchor="start" x="186.5" y="-104" font-family="Helvetica,sans-Serif" font-size="10.00">MayaFlux::Nexus::Wiring</text>
<text text-anchor="middle" x="248" y="-93" font-family="Helvetica,sans-Serif" font-size="10.00">::finalise</text>
</a>
</g>
</g>
<!-- Node1&#45;&gt;Node2 -->
<g id="edge1_Node000001_Node000002" class="edge">
<title>Node1&#45;&gt;Node2</title>
<g id="a_edge1_Node000001_Node000002"><a xlink:title=" ">
<path fill="none" stroke="#63b8ff" d="M354.55,-75.43C340.13,-78.92 325.1,-82.57 311.05,-85.97"/>
<polygon fill="#63b8ff" stroke="#63b8ff" points="355.52,-78.8 364.42,-73.04 353.88,-71.99 355.52,-78.8"/>
</a>
</g>
</g>
<!-- Node3 -->
<g id="Node000003" class="node">
<title>Node3</title>
<g id="a_Node000003"><a xlink:href="namespaceMayaFlux_a097a61a03c5e44546fd2aeae872ceb81.html#a097a61a03c5e44546fd2aeae872ceb81" target="_top" xlink:title="Schedule a mouse drag handler.">
<polygon fill="white" stroke="#666666" points="322,-67.5 174,-67.5 174,-48.5 322,-48.5 322,-67.5"/>
<text text-anchor="middle" x="248" y="-55.5" font-family="Helvetica,sans-Serif" font-size="10.00">MayaFlux::on_mouse_drag</text>
</a>
</g>
</g>
<!-- Node1&#45;&gt;Node3 -->
<g id="edge2_Node000001_Node000003" class="edge">
<title>Node1&#45;&gt;Node3</title>
<g id="a_edge2_Node000001_Node000003"><a xlink:title=" ">
<path fill="none" stroke="#63b8ff" d="M349.7,-58C340.58,-58 331.29,-58 322.22,-58"/>
<polygon fill="#63b8ff" stroke="#63b8ff" points="349.9,-61.5 359.9,-58 349.9,-54.5 349.9,-61.5"/>
</a>
</g>
</g>
<!-- Node4 -->
<g id="Node000004" class="node">
<title>Node4</title>
<g id="a_Node000004"><a xlink:href="classMayaFlux_1_1Portal_1_1Forma_1_1Context_aa42296d51149bf551f43678912150ef0.html#aa42296d51149bf551f43678912150ef0" target="_top" xlink:title=" ">
<polygon fill="white" stroke="#666666" points="324,-30 172,-30 172,0 324,0 324,-30"/>
<text text-anchor="start" x="180" y="-18" font-family="Helvetica,sans-Serif" font-size="10.00">MayaFlux::Portal::Forma</text>
<text text-anchor="middle" x="248" y="-7" font-family="Helvetica,sans-Serif" font-size="10.00">::Context::register_handlers</text>
</a>
</g>
</g>
<!-- Node1&#45;&gt;Node4 -->
<g id="edge3_Node000001_Node000004" class="edge">
<title>Node1&#45;&gt;Node4</title>
<g id="a_edge3_Node000001_Node000004"><a xlink:title=" ">
<path fill="none" stroke="#63b8ff" d="M354.55,-40.57C340.13,-37.08 325.1,-33.43 311.05,-30.03"/>
<polygon fill="#63b8ff" stroke="#63b8ff" points="353.88,-44.01 364.42,-42.96 355.52,-37.2 353.88,-44.01"/>
</a>
</g>
</g>
<!-- Node5 -->
<g id="Node000005" class="node">
<title>Node5</title>
<g id="a_Node000005"><a xlink:href="classMayaFlux_1_1Portal_1_1Forma_1_1Context_a7287e64dcc62fe5f54a34e133c3b0332.html#a7287e64dcc62fe5f54a34e133c3b0332" target="_top" xlink:title="Construct and immediately register event coroutines.">
<polygon fill="white" stroke="#666666" points="136,-30 0,-30 0,0 136,0 136,-30"/>
<text text-anchor="start" x="8" y="-18" font-family="Helvetica,sans-Serif" font-size="10.00">MayaFlux::Portal::Forma</text>
<text text-anchor="middle" x="68" y="-7" font-family="Helvetica,sans-Serif" font-size="10.00">::Context::Context</text>
</a>
</g>
</g>
<!-- Node4&#45;&gt;Node5 -->
<g id="edge4_Node000004_Node000005" class="edge">
<title>Node4&#45;&gt;Node5</title>
<g id="a_edge4_Node000004_Node000005"><a xlink:title=" ">
<path fill="none" stroke="#63b8ff" d="M161.7,-15C153.09,-15 144.44,-15 136.06,-15"/>
<polygon fill="#63b8ff" stroke="#63b8ff" points="161.77,-18.5 171.77,-15 161.77,-11.5 161.77,-18.5"/>
</a>
</g>
</g>
</g>
</svg>
