<?xml version="1.0" encoding="UTF-8" standalone="no"?>
<!DOCTYPE svg PUBLIC "-//W3C//DTD SVG 1.1//EN"
 "http://www.w3.org/Graphics/SVG/1.1/DTD/svg11.dtd">
<!-- Generated by graphviz version 2.43.0 (0)
 -->
<!-- Title: MayaFlux::route_buffer Pages: 1 -->
<svg width="1097pt" height="105pt"
 viewBox="0.00 0.00 1097.00 105.00" xmlns="http://www.w3.org/2000/svg" xmlns:xlink="http://www.w3.org/1999/xlink">
<g id="graph0" class="graph" transform="scale(1 1) rotate(0) translate(4 101)">
<title>MayaFlux::route_buffer</title>
<!-- Node1 -->
<g id="Node000001" class="node">
<title>Node1</title>
<g id="a_Node000001"><a xlink:title="Routes a buffer from its current channel to a target channel with fade.">
<polygon fill="#999999" stroke="#666666" points="130,-69.5 0,-69.5 0,-50.5 130,-50.5 130,-69.5"/>
<text text-anchor="middle" x="65" y="-57.5" font-family="Helvetica,sans-Serif" font-size="10.00">MayaFlux::route_buffer</text>
</a>
</g>
</g>
<!-- Node2 -->
<g id="Node000002" class="node">
<title>Node2</title>
<g id="a_Node000002"><a xlink:href="namespaceMayaFlux_ab62f030499d58eb3e1d5c43ca3bc230e.html#ab62f030499d58eb3e1d5c43ca3bc230e" target="_top" xlink:title="Gets the buffer manager from the default engine.">
<polygon fill="white" stroke="#666666" points="286,-75 166,-75 166,-45 286,-45 286,-75"/>
<text text-anchor="start" x="174" y="-63" font-family="Helvetica,sans-Serif" font-size="10.00">MayaFlux::get_buffer</text>
<text text-anchor="middle" x="226" y="-52" font-family="Helvetica,sans-Serif" font-size="10.00">_manager</text>
</a>
</g>
</g>
<!-- Node1&#45;&gt;Node2 -->
<g id="edge1_Node000001_Node000002" class="edge">
<title>Node1&#45;&gt;Node2</title>
<g id="a_edge1_Node000001_Node000002"><a xlink:title=" ">
<path fill="none" stroke="#63b8ff" d="M130.21,-60C138.61,-60 147.24,-60 155.71,-60"/>
<polygon fill="#63b8ff" stroke="#63b8ff" points="155.94,-63.5 165.94,-60 155.94,-56.5 155.94,-63.5"/>
</a>
</g>
</g>
<!-- Node3 -->
<g id="Node000003" class="node">
<title>Node3</title>
<g id="a_Node000003"><a xlink:href="classMayaFlux_1_1Core_1_1Engine_ae91ca2d8b17039d5aab98e53258bb777.html#ae91ca2d8b17039d5aab98e53258bb777" target="_top" xlink:title="Gets the buffer manager.">
<polygon fill="white" stroke="#666666" points="454,-97 322,-97 322,-67 454,-67 454,-97"/>
<text text-anchor="start" x="330" y="-85" font-family="Helvetica,sans-Serif" font-size="10.00">MayaFlux::Core::Engine</text>
<text text-anchor="middle" x="388" y="-74" font-family="Helvetica,sans-Serif" font-size="10.00">::get_buffer_manager</text>
</a>
</g>
</g>
<!-- Node2&#45;&gt;Node3 -->
<g id="edge2_Node000002_Node000003" class="edge">
<title>Node2&#45;&gt;Node3</title>
<g id="a_edge2_Node000002_Node000003"><a xlink:title=" ">
<path fill="none" stroke="#63b8ff" d="M286.12,-68.13C294.51,-69.28 303.22,-70.48 311.85,-71.67"/>
<polygon fill="#63b8ff" stroke="#63b8ff" points="311.54,-75.16 321.93,-73.05 312.5,-68.22 311.54,-75.16"/>
</a>
</g>
</g>
<!-- Node4 -->
<g id="Node000004" class="node">
<title>Node4</title>
<g id="a_Node000004"><a xlink:href="namespaceMayaFlux_ac4ab74951370ff0dd899203f3b94c775.html#ac4ab74951370ff0dd899203f3b94c775" target="_top" xlink:title="Gets the default engine instance.">
<polygon fill="white" stroke="#666666" points="452,-48.5 324,-48.5 324,-29.5 452,-29.5 452,-48.5"/>
<text text-anchor="middle" x="388" y="-36.5" font-family="Helvetica,sans-Serif" font-size="10.00">MayaFlux::get_context</text>
</a>
</g>
</g>
<!-- Node2&#45;&gt;Node4 -->
<g id="edge3_Node000002_Node000004" class="edge">
<title>Node2&#45;&gt;Node4</title>
<g id="a_edge3_Node000002_Node000004"><a xlink:title=" ">
<path fill="none" stroke="#63b8ff" d="M286.12,-52.24C295.15,-51.06 304.55,-49.82 313.83,-48.6"/>
<polygon fill="#63b8ff" stroke="#63b8ff" points="314.36,-52.06 323.82,-47.29 313.45,-45.12 314.36,-52.06"/>
</a>
</g>
</g>
<!-- Node5 -->
<g id="Node000005" class="node">
<title>Node5</title>
<g id="a_Node000005"><a xlink:href="namespaceMayaFlux_1_1internal_ac0f0b4b1cae6af4441db0ea022e15583.html#ac0f0b4b1cae6af4441db0ea022e15583" target="_top" xlink:title=" ">
<polygon fill="white" stroke="#666666" points="618,-54 490,-54 490,-24 618,-24 618,-54"/>
<text text-anchor="start" x="498" y="-42" font-family="Helvetica,sans-Serif" font-size="10.00">MayaFlux::internal</text>
<text text-anchor="middle" x="554" y="-31" font-family="Helvetica,sans-Serif" font-size="10.00">::get_or_create_engine</text>
</a>
</g>
</g>
<!-- Node4&#45;&gt;Node5 -->
<g id="edge4_Node000004_Node000005" class="edge">
<title>Node4&#45;&gt;Node5</title>
<g id="a_edge4_Node000004_Node000005"><a xlink:title=" ">
<path fill="none" stroke="#63b8ff" d="M452.41,-39C461.31,-39 470.53,-39 479.6,-39"/>
<polygon fill="#63b8ff" stroke="#63b8ff" points="479.76,-42.5 489.76,-39 479.76,-35.5 479.76,-42.5"/>
</a>
</g>
</g>
<!-- Node6 -->
<g id="Node000006" class="node">
<title>Node6</title>
<g id="a_Node000006"><a xlink:href="namespaceMayaFlux_1_1internal_a3cc5413e05c2f9c9f04372841aa0a5b1.html#a3cc5413e05c2f9c9f04372841aa0a5b1" target="_top" xlink:title=" ">
<polygon fill="white" stroke="#666666" points="762,-54 654,-54 654,-24 762,-24 762,-54"/>
<text text-anchor="start" x="662" y="-42" font-family="Helvetica,sans-Serif" font-size="10.00">MayaFlux::internal</text>
<text text-anchor="middle" x="708" y="-31" font-family="Helvetica,sans-Serif" font-size="10.00">::cleanup_engine</text>
</a>
</g>
</g>
<!-- Node5&#45;&gt;Node6 -->
<g id="edge5_Node000005_Node000006" class="edge">
<title>Node5&#45;&gt;Node6</title>
<g id="a_edge5_Node000005_Node000006"><a xlink:title=" ">
<path fill="none" stroke="#63b8ff" d="M618.14,-39C626.61,-39 635.29,-39 643.76,-39"/>
<polygon fill="#63b8ff" stroke="#63b8ff" points="643.95,-42.5 653.95,-39 643.95,-35.5 643.95,-42.5"/>
</a>
</g>
</g>
<!-- Node7 -->
<g id="Node000007" class="node">
<title>Node7</title>
<g id="a_Node000007"><a xlink:href="namespaceMayaFlux_1_1internal_ac4d6952d58cdfd56964a883d40aa655d.html#ac4d6952d58cdfd56964a883d40aa655d" target="_top" xlink:title=" ">
<polygon fill="white" stroke="#666666" points="943,-78 798,-78 798,-48 943,-48 943,-78"/>
<text text-anchor="start" x="806" y="-66" font-family="Helvetica,sans-Serif" font-size="10.00">MayaFlux::internal</text>
<text text-anchor="middle" x="870.5" y="-55" font-family="Helvetica,sans-Serif" font-size="10.00">::cleanup_persistent_store</text>
</a>
</g>
</g>
<!-- Node6&#45;&gt;Node7 -->
<g id="edge6_Node000006_Node000007" class="edge">
<title>Node6&#45;&gt;Node7</title>
<g id="a_edge6_Node000006_Node000007"><a xlink:title=" ">
<path fill="none" stroke="#63b8ff" d="M762.44,-46.99C770.57,-48.21 779.11,-49.48 787.68,-50.77"/>
<polygon fill="#63b8ff" stroke="#63b8ff" points="787.31,-54.25 797.72,-52.27 788.35,-47.33 787.31,-54.25"/>
</a>
</g>
</g>
<!-- Node9 -->
<g id="Node000009" class="node">
<title>Node9</title>
<g id="a_Node000009"><a xlink:href="classMayaFlux_1_1Journal_1_1Archivist_a82e2d12db8781df4afc43ef4c1fba2be.html#a82e2d12db8781df4afc43ef4c1fba2be" target="_top" xlink:title="Shutdown the logging system.">
<polygon fill="white" stroke="#666666" points="927,-30 814,-30 814,0 927,0 927,-30"/>
<text text-anchor="start" x="822" y="-18" font-family="Helvetica,sans-Serif" font-size="10.00">MayaFlux::Journal::</text>
<text text-anchor="middle" x="870.5" y="-7" font-family="Helvetica,sans-Serif" font-size="10.00">Archivist::shutdown</text>
</a>
</g>
</g>
<!-- Node6&#45;&gt;Node9 -->
<g id="edge8_Node000006_Node000009" class="edge">
<title>Node6&#45;&gt;Node9</title>
<g id="a_edge8_Node000006_Node000009"><a xlink:title=" ">
<path fill="none" stroke="#63b8ff" d="M762.44,-31.01C775.73,-29.02 790.11,-26.87 803.91,-24.81"/>
<polygon fill="#63b8ff" stroke="#63b8ff" points="804.44,-28.27 813.82,-23.33 803.41,-21.34 804.44,-28.27"/>
</a>
</g>
</g>
<!-- Node8 -->
<g id="Node000008" class="node">
<title>Node8</title>
<g id="a_Node000008"><a xlink:href="namespaceMayaFlux_1_1internal_ac26a7a92aa4af34c366aad03b68ea71e.html#ac26a7a92aa4af34c366aad03b68ea71e" target="_top" xlink:title=" ">
<polygon fill="white" stroke="#666666" points="1088,-78 980,-78 980,-48 1088,-48 1088,-78"/>
<text text-anchor="start" x="988" y="-66" font-family="Helvetica,sans-Serif" font-size="10.00">MayaFlux::internal</text>
<text text-anchor="middle" x="1034" y="-55" font-family="Helvetica,sans-Serif" font-size="10.00">::persistent_store</text>
</a>
</g>
</g>
<!-- Node7&#45;&gt;Node8 -->
<g id="edge7_Node000007_Node000008" class="edge">
<title>Node7&#45;&gt;Node8</title>
<g id="a_edge7_Node000007_Node000008"><a xlink:title=" ">
<path fill="none" stroke="#63b8ff" d="M943.28,-63C952.12,-63 961.1,-63 969.8,-63"/>
<polygon fill="#63b8ff" stroke="#63b8ff" points="969.86,-66.5 979.86,-63 969.86,-59.5 969.86,-66.5"/>
</a>
</g>
</g>
<!-- Node10 -->
<g id="Node000010" class="node">
<title>Node10</title>
<g id="a_Node000010"><a xlink:href="classMayaFlux_1_1Journal_1_1Archivist_a8b7829e34d79ec5bbbf02e3d4afbdab9.html#a8b7829e34d79ec5bbbf02e3d4afbdab9" target="_top" xlink:title="Get the singleton instance of the Archivist.">
<polygon fill="white" stroke="#666666" points="1089,-30 979,-30 979,0 1089,0 1089,-30"/>
<text text-anchor="start" x="987" y="-18" font-family="Helvetica,sans-Serif" font-size="10.00">MayaFlux::Journal::</text>
<text text-anchor="middle" x="1034" y="-7" font-family="Helvetica,sans-Serif" font-size="10.00">Archivist::instance</text>
</a>
</g>
</g>
<!-- Node9&#45;&gt;Node10 -->
<g id="edge9_Node000009_Node000010" class="edge">
<title>Node9&#45;&gt;Node10</title>
<g id="a_edge9_Node000009_Node000010"><a xlink:title=" ">
<path fill="none" stroke="#63b8ff" d="M927.08,-15C940.46,-15 954.86,-15 968.6,-15"/>
<polygon fill="#63b8ff" stroke="#63b8ff" points="968.96,-18.5 978.96,-15 968.96,-11.5 968.96,-18.5"/>
</a>
</g>
</g>
</g>
</svg>
