<?xml version="1.0" encoding="UTF-8" standalone="no"?>
<!DOCTYPE svg PUBLIC "-//W3C//DTD SVG 1.1//EN"
 "http://www.w3.org/Graphics/SVG/1.1/DTD/svg11.dtd">
<!-- Generated by graphviz version 2.43.0 (0)
 -->
<!-- Title: MayaFlux::register_buffer Pages: 1 -->
<svg width="1242pt" height="182pt"
 viewBox="0.00 0.00 1242.00 182.00" xmlns="http://www.w3.org/2000/svg" xmlns:xlink="http://www.w3.org/1999/xlink">
<g id="graph0" class="graph" transform="scale(1 1) rotate(0) translate(4 178)">
<title>MayaFlux::register_buffer</title>
<!-- Node1 -->
<g id="Node000001" class="node">
<title>Node1</title>
<g id="a_Node000001"><a xlink:title=" ">
<polygon fill="#999999" stroke="#666666" points="108,-102 0,-102 0,-72 108,-72 108,-102"/>
<text text-anchor="start" x="8" y="-90" font-family="Helvetica,sans-Serif" font-size="10.00">MayaFlux::register</text>
<text text-anchor="middle" x="54" y="-79" font-family="Helvetica,sans-Serif" font-size="10.00">_buffer</text>
</a>
</g>
</g>
<!-- Node2 -->
<g id="Node000002" class="node">
<title>Node2</title>
<g id="a_Node000002"><a xlink:href="namespaceMayaFlux_a8292200a0794717cafb259316c39f8a7.html#a8292200a0794717cafb259316c39f8a7" target="_top" xlink:title="Clones a buffer to multiple channels.">
<polygon fill="white" stroke="#666666" points="275,-174 144,-174 144,-144 275,-144 275,-174"/>
<text text-anchor="start" x="152" y="-162" font-family="Helvetica,sans-Serif" font-size="10.00">MayaFlux::clone_buffer</text>
<text text-anchor="middle" x="209.5" y="-151" font-family="Helvetica,sans-Serif" font-size="10.00">_to_channels</text>
</a>
</g>
</g>
<!-- Node1&#45;&gt;Node2 -->
<g id="edge1_Node000001_Node000002" class="edge">
<title>Node1&#45;&gt;Node2</title>
<g id="a_edge1_Node000001_Node000002"><a xlink:title=" ">
<path fill="none" stroke="#63b8ff" d="M80.61,-102.04C98.14,-112.03 122.09,-125.07 144,-135 147.86,-136.75 151.88,-138.47 155.95,-140.14"/>
<polygon fill="#63b8ff" stroke="#63b8ff" points="154.9,-143.49 165.49,-143.94 157.49,-136.99 154.9,-143.49"/>
</a>
</g>
</g>
<!-- Node12 -->
<g id="Node000012" class="node">
<title>Node12</title>
<g id="a_Node000012"><a xlink:href="namespaceMayaFlux_affda79373ae79a02574a2768948c300e.html#affda79373ae79a02574a2768948c300e" target="_top" xlink:title="Extracts buffer processing token from domain.">
<polygon fill="white" stroke="#666666" points="269.5,-126 149.5,-126 149.5,-96 269.5,-96 269.5,-126"/>
<text text-anchor="start" x="157.5" y="-114" font-family="Helvetica,sans-Serif" font-size="10.00">MayaFlux::get_buffer</text>
<text text-anchor="middle" x="209.5" y="-103" font-family="Helvetica,sans-Serif" font-size="10.00">_token</text>
</a>
</g>
</g>
<!-- Node1&#45;&gt;Node12 -->
<g id="edge11_Node000001_Node000012" class="edge">
<title>Node1&#45;&gt;Node12</title>
<g id="a_edge11_Node000001_Node000012"><a xlink:title=" ">
<path fill="none" stroke="#63b8ff" d="M108.26,-95.33C118.3,-96.9 128.93,-98.56 139.37,-100.19"/>
<polygon fill="#63b8ff" stroke="#63b8ff" points="138.88,-103.66 149.3,-101.74 139.96,-96.74 138.88,-103.66"/>
</a>
</g>
</g>
<!-- Node13 -->
<g id="Node000013" class="node">
<title>Node13</title>
<g id="a_Node000013"><a xlink:href="namespaceMayaFlux_a93ff247bbf5208e7b89bd81b09139b5c.html#a93ff247bbf5208e7b89bd81b09139b5c" target="_top" xlink:title="Registers an AudioBuffer with the default engine&#39;s buffer manager.">
<polygon fill="white" stroke="#666666" points="263.5,-78 155.5,-78 155.5,-48 263.5,-48 263.5,-78"/>
<text text-anchor="start" x="163.5" y="-66" font-family="Helvetica,sans-Serif" font-size="10.00">MayaFlux::register</text>
<text text-anchor="middle" x="209.5" y="-55" font-family="Helvetica,sans-Serif" font-size="10.00">_audio_buffer</text>
</a>
</g>
</g>
<!-- Node1&#45;&gt;Node13 -->
<g id="edge12_Node000001_Node000013" class="edge">
<title>Node1&#45;&gt;Node13</title>
<g id="a_edge12_Node000001_Node000013"><a xlink:title=" ">
<path fill="none" stroke="#63b8ff" d="M108.26,-78.67C120.16,-76.81 132.9,-74.82 145.17,-72.9"/>
<polygon fill="#63b8ff" stroke="#63b8ff" points="146,-76.31 155.34,-71.31 144.92,-69.4 146,-76.31"/>
</a>
</g>
</g>
<!-- Node14 -->
<g id="Node000014" class="node">
<title>Node14</title>
<g id="a_Node000014"><a xlink:href="namespaceMayaFlux_abef255ed51ba80f581c50221db096852.html#abef255ed51ba80f581c50221db096852" target="_top" xlink:title="Registers a VKBuffer with the default engine&#39;s buffer manager.">
<polygon fill="white" stroke="#666666" points="263.5,-30 155.5,-30 155.5,0 263.5,0 263.5,-30"/>
<text text-anchor="start" x="163.5" y="-18" font-family="Helvetica,sans-Serif" font-size="10.00">MayaFlux::register</text>
<text text-anchor="middle" x="209.5" y="-7" font-family="Helvetica,sans-Serif" font-size="10.00">_graphics_buffer</text>
</a>
</g>
</g>
<!-- Node1&#45;&gt;Node14 -->
<g id="edge14_Node000001_Node000014" class="edge">
<title>Node1&#45;&gt;Node14</title>
<g id="a_edge14_Node000001_Node000014"><a xlink:title=" ">
<path fill="none" stroke="#63b8ff" d="M80.61,-71.96C98.14,-61.97 122.09,-48.93 144,-39 147.86,-37.25 151.88,-35.53 155.95,-33.86"/>
<polygon fill="#63b8ff" stroke="#63b8ff" points="157.49,-37.01 165.49,-30.06 154.9,-30.51 157.49,-37.01"/>
</a>
</g>
</g>
<!-- Node3 -->
<g id="Node000003" class="node">
<title>Node3</title>
<g id="a_Node000003"><a xlink:href="namespaceMayaFlux_ab62f030499d58eb3e1d5c43ca3bc230e.html#ab62f030499d58eb3e1d5c43ca3bc230e" target="_top" xlink:title="Gets the buffer manager from the default engine.">
<polygon fill="white" stroke="#666666" points="431,-78 311,-78 311,-48 431,-48 431,-78"/>
<text text-anchor="start" x="319" y="-66" font-family="Helvetica,sans-Serif" font-size="10.00">MayaFlux::get_buffer</text>
<text text-anchor="middle" x="371" y="-55" font-family="Helvetica,sans-Serif" font-size="10.00">_manager</text>
</a>
</g>
</g>
<!-- Node2&#45;&gt;Node3 -->
<g id="edge2_Node000002_Node000003" class="edge">
<title>Node2&#45;&gt;Node3</title>
<g id="a_edge2_Node000002_Node000003"><a xlink:title=" ">
<path fill="none" stroke="#63b8ff" d="M256.01,-143.98C262.52,-141.29 269.03,-138.28 275,-135 300.64,-120.91 326.93,-100.43 345.33,-84.91"/>
<polygon fill="#63b8ff" stroke="#63b8ff" points="347.88,-87.33 353.2,-78.17 343.33,-82.02 347.88,-87.33"/>
</a>
</g>
</g>
<!-- Node4 -->
<g id="Node000004" class="node">
<title>Node4</title>
<g id="a_Node000004"><a xlink:href="classMayaFlux_1_1Core_1_1Engine_ae91ca2d8b17039d5aab98e53258bb777.html#ae91ca2d8b17039d5aab98e53258bb777" target="_top" xlink:title="Gets the buffer manager.">
<polygon fill="white" stroke="#666666" points="599,-100 467,-100 467,-70 599,-70 599,-100"/>
<text text-anchor="start" x="475" y="-88" font-family="Helvetica,sans-Serif" font-size="10.00">MayaFlux::Core::Engine</text>
<text text-anchor="middle" x="533" y="-77" font-family="Helvetica,sans-Serif" font-size="10.00">::get_buffer_manager</text>
</a>
</g>
</g>
<!-- Node3&#45;&gt;Node4 -->
<g id="edge3_Node000003_Node000004" class="edge">
<title>Node3&#45;&gt;Node4</title>
<g id="a_edge3_Node000003_Node000004"><a xlink:title=" ">
<path fill="none" stroke="#63b8ff" d="M431.12,-71.13C439.51,-72.28 448.22,-73.48 456.85,-74.67"/>
<polygon fill="#63b8ff" stroke="#63b8ff" points="456.54,-78.16 466.93,-76.05 457.5,-71.22 456.54,-78.16"/>
</a>
</g>
</g>
<!-- Node5 -->
<g id="Node000005" class="node">
<title>Node5</title>
<g id="a_Node000005"><a xlink:href="namespaceMayaFlux_ac4ab74951370ff0dd899203f3b94c775.html#ac4ab74951370ff0dd899203f3b94c775" target="_top" xlink:title="Gets the default engine instance.">
<polygon fill="white" stroke="#666666" points="597,-51.5 469,-51.5 469,-32.5 597,-32.5 597,-51.5"/>
<text text-anchor="middle" x="533" y="-39.5" font-family="Helvetica,sans-Serif" font-size="10.00">MayaFlux::get_context</text>
</a>
</g>
</g>
<!-- Node3&#45;&gt;Node5 -->
<g id="edge4_Node000003_Node000005" class="edge">
<title>Node3&#45;&gt;Node5</title>
<g id="a_edge4_Node000003_Node000005"><a xlink:title=" ">
<path fill="none" stroke="#63b8ff" d="M431.12,-55.24C440.15,-54.06 449.55,-52.82 458.83,-51.6"/>
<polygon fill="#63b8ff" stroke="#63b8ff" points="459.36,-55.06 468.82,-50.29 458.45,-48.12 459.36,-55.06"/>
</a>
</g>
</g>
<!-- Node6 -->
<g id="Node000006" class="node">
<title>Node6</title>
<g id="a_Node000006"><a xlink:href="namespaceMayaFlux_1_1internal_ac0f0b4b1cae6af4441db0ea022e15583.html#ac0f0b4b1cae6af4441db0ea022e15583" target="_top" xlink:title=" ">
<polygon fill="white" stroke="#666666" points="763,-57 635,-57 635,-27 763,-27 763,-57"/>
<text text-anchor="start" x="643" y="-45" font-family="Helvetica,sans-Serif" font-size="10.00">MayaFlux::internal</text>
<text text-anchor="middle" x="699" y="-34" font-family="Helvetica,sans-Serif" font-size="10.00">::get_or_create_engine</text>
</a>
</g>
</g>
<!-- Node5&#45;&gt;Node6 -->
<g id="edge5_Node000005_Node000006" class="edge">
<title>Node5&#45;&gt;Node6</title>
<g id="a_edge5_Node000005_Node000006"><a xlink:title=" ">
<path fill="none" stroke="#63b8ff" d="M597.41,-42C606.31,-42 615.53,-42 624.6,-42"/>
<polygon fill="#63b8ff" stroke="#63b8ff" points="624.76,-45.5 634.76,-42 624.76,-38.5 624.76,-45.5"/>
</a>
</g>
</g>
<!-- Node7 -->
<g id="Node000007" class="node">
<title>Node7</title>
<g id="a_Node000007"><a xlink:href="namespaceMayaFlux_1_1internal_a3cc5413e05c2f9c9f04372841aa0a5b1.html#a3cc5413e05c2f9c9f04372841aa0a5b1" target="_top" xlink:title=" ">
<polygon fill="white" stroke="#666666" points="907,-57 799,-57 799,-27 907,-27 907,-57"/>
<text text-anchor="start" x="807" y="-45" font-family="Helvetica,sans-Serif" font-size="10.00">MayaFlux::internal</text>
<text text-anchor="middle" x="853" y="-34" font-family="Helvetica,sans-Serif" font-size="10.00">::cleanup_engine</text>
</a>
</g>
</g>
<!-- Node6&#45;&gt;Node7 -->
<g id="edge6_Node000006_Node000007" class="edge">
<title>Node6&#45;&gt;Node7</title>
<g id="a_edge6_Node000006_Node000007"><a xlink:title=" ">
<path fill="none" stroke="#63b8ff" d="M763.14,-42C771.61,-42 780.29,-42 788.76,-42"/>
<polygon fill="#63b8ff" stroke="#63b8ff" points="788.95,-45.5 798.95,-42 788.95,-38.5 788.95,-45.5"/>
</a>
</g>
</g>
<!-- Node8 -->
<g id="Node000008" class="node">
<title>Node8</title>
<g id="a_Node000008"><a xlink:href="namespaceMayaFlux_1_1internal_ac4d6952d58cdfd56964a883d40aa655d.html#ac4d6952d58cdfd56964a883d40aa655d" target="_top" xlink:title=" ">
<polygon fill="white" stroke="#666666" points="1088,-81 943,-81 943,-51 1088,-51 1088,-81"/>
<text text-anchor="start" x="951" y="-69" font-family="Helvetica,sans-Serif" font-size="10.00">MayaFlux::internal</text>
<text text-anchor="middle" x="1015.5" y="-58" font-family="Helvetica,sans-Serif" font-size="10.00">::cleanup_persistent_store</text>
</a>
</g>
</g>
<!-- Node7&#45;&gt;Node8 -->
<g id="edge7_Node000007_Node000008" class="edge">
<title>Node7&#45;&gt;Node8</title>
<g id="a_edge7_Node000007_Node000008"><a xlink:title=" ">
<path fill="none" stroke="#63b8ff" d="M907.44,-49.99C915.57,-51.21 924.11,-52.48 932.68,-53.77"/>
<polygon fill="#63b8ff" stroke="#63b8ff" points="932.31,-57.25 942.72,-55.27 933.35,-50.33 932.31,-57.25"/>
</a>
</g>
</g>
<!-- Node10 -->
<g id="Node000010" class="node">
<title>Node10</title>
<g id="a_Node000010"><a xlink:href="classMayaFlux_1_1Journal_1_1Archivist_a82e2d12db8781df4afc43ef4c1fba2be.html#a82e2d12db8781df4afc43ef4c1fba2be" target="_top" xlink:title="Shutdown the logging system.">
<polygon fill="white" stroke="#666666" points="1072,-33 959,-33 959,-3 1072,-3 1072,-33"/>
<text text-anchor="start" x="967" y="-21" font-family="Helvetica,sans-Serif" font-size="10.00">MayaFlux::Journal::</text>
<text text-anchor="middle" x="1015.5" y="-10" font-family="Helvetica,sans-Serif" font-size="10.00">Archivist::shutdown</text>
</a>
</g>
</g>
<!-- Node7&#45;&gt;Node10 -->
<g id="edge9_Node000007_Node000010" class="edge">
<title>Node7&#45;&gt;Node10</title>
<g id="a_edge9_Node000007_Node000010"><a xlink:title=" ">
<path fill="none" stroke="#63b8ff" d="M907.44,-34.01C920.73,-32.02 935.11,-29.87 948.91,-27.81"/>
<polygon fill="#63b8ff" stroke="#63b8ff" points="949.44,-31.27 958.82,-26.33 948.41,-24.34 949.44,-31.27"/>
</a>
</g>
</g>
<!-- Node9 -->
<g id="Node000009" class="node">
<title>Node9</title>
<g id="a_Node000009"><a xlink:href="namespaceMayaFlux_1_1internal_ac26a7a92aa4af34c366aad03b68ea71e.html#ac26a7a92aa4af34c366aad03b68ea71e" target="_top" xlink:title=" ">
<polygon fill="white" stroke="#666666" points="1233,-81 1125,-81 1125,-51 1233,-51 1233,-81"/>
<text text-anchor="start" x="1133" y="-69" font-family="Helvetica,sans-Serif" font-size="10.00">MayaFlux::internal</text>
<text text-anchor="middle" x="1179" y="-58" font-family="Helvetica,sans-Serif" font-size="10.00">::persistent_store</text>
</a>
</g>
</g>
<!-- Node8&#45;&gt;Node9 -->
<g id="edge8_Node000008_Node000009" class="edge">
<title>Node8&#45;&gt;Node9</title>
<g id="a_edge8_Node000008_Node000009"><a xlink:title=" ">
<path fill="none" stroke="#63b8ff" d="M1088.28,-66C1097.12,-66 1106.1,-66 1114.8,-66"/>
<polygon fill="#63b8ff" stroke="#63b8ff" points="1114.86,-69.5 1124.86,-66 1114.86,-62.5 1114.86,-69.5"/>
</a>
</g>
</g>
<!-- Node11 -->
<g id="Node000011" class="node">
<title>Node11</title>
<g id="a_Node000011"><a xlink:href="classMayaFlux_1_1Journal_1_1Archivist_a8b7829e34d79ec5bbbf02e3d4afbdab9.html#a8b7829e34d79ec5bbbf02e3d4afbdab9" target="_top" xlink:title="Get the singleton instance of the Archivist.">
<polygon fill="white" stroke="#666666" points="1234,-33 1124,-33 1124,-3 1234,-3 1234,-33"/>
<text text-anchor="start" x="1132" y="-21" font-family="Helvetica,sans-Serif" font-size="10.00">MayaFlux::Journal::</text>
<text text-anchor="middle" x="1179" y="-10" font-family="Helvetica,sans-Serif" font-size="10.00">Archivist::instance</text>
</a>
</g>
</g>
<!-- Node10&#45;&gt;Node11 -->
<g id="edge10_Node000010_Node000011" class="edge">
<title>Node10&#45;&gt;Node11</title>
<g id="a_edge10_Node000010_Node000011"><a xlink:title=" ">
<path fill="none" stroke="#63b8ff" d="M1072.08,-18C1085.46,-18 1099.86,-18 1113.6,-18"/>
<polygon fill="#63b8ff" stroke="#63b8ff" points="1113.96,-21.5 1123.96,-18 1113.96,-14.5 1113.96,-21.5"/>
</a>
</g>
</g>
<!-- Node13&#45;&gt;Node3 -->
<g id="edge13_Node000013_Node000003" class="edge">
<title>Node13&#45;&gt;Node3</title>
<g id="a_edge13_Node000013_Node000003"><a xlink:title=" ">
<path fill="none" stroke="#63b8ff" d="M263.61,-63C275.43,-63 288.14,-63 300.51,-63"/>
<polygon fill="#63b8ff" stroke="#63b8ff" points="300.8,-66.5 310.8,-63 300.8,-59.5 300.8,-66.5"/>
</a>
</g>
</g>
<!-- Node14&#45;&gt;Node3 -->
<g id="edge15_Node000014_Node000003" class="edge">
<title>Node14&#45;&gt;Node3</title>
<g id="a_edge15_Node000014_Node000003"><a xlink:title=" ">
<path fill="none" stroke="#63b8ff" d="M260.53,-30.06C276.27,-34.79 293.8,-40.07 310.15,-44.99"/>
<polygon fill="#63b8ff" stroke="#63b8ff" points="309.56,-48.47 320.15,-48 311.58,-41.76 309.56,-48.47"/>
</a>
</g>
</g>
</g>
</svg>
