<?xml version="1.0" encoding="UTF-8" standalone="no"?>
<!DOCTYPE svg PUBLIC "-//W3C//DTD SVG 1.1//EN"
 "http://www.w3.org/Graphics/SVG/1.1/DTD/svg11.dtd">
<!-- Generated by graphviz version 2.43.0 (0)
 -->
<!-- Title: MayaFlux::operator| Pages: 1 -->
<svg width="1393pt" height="182pt"
 viewBox="0.00 0.00 1393.00 182.00" xmlns="http://www.w3.org/2000/svg" xmlns:xlink="http://www.w3.org/1999/xlink">
<g id="graph0" class="graph" transform="scale(1 1) rotate(0) translate(4 178)">
<title>MayaFlux::operator|</title>
<!-- Node1 -->
<g id="Node000001" class="node">
<title>Node1</title>
<g id="a_Node000001"><a xlink:title=" ">
<polygon fill="#999999" stroke="#666666" points="115,-96.5 0,-96.5 0,-77.5 115,-77.5 115,-96.5"/>
<text text-anchor="middle" x="57.5" y="-84.5" font-family="Helvetica,sans-Serif" font-size="10.00">MayaFlux::operator|</text>
</a>
</g>
</g>
<!-- Node2 -->
<g id="Node000002" class="node">
<title>Node2</title>
<g id="a_Node000002"><a xlink:href="namespaceMayaFlux_a7053b2753707ee4f8671524b071d0957.html#a7053b2753707ee4f8671524b071d0957" target="_top" xlink:title=" ">
<polygon fill="white" stroke="#666666" points="259,-102 151,-102 151,-72 259,-72 259,-102"/>
<text text-anchor="start" x="159" y="-90" font-family="Helvetica,sans-Serif" font-size="10.00">MayaFlux::register</text>
<text text-anchor="middle" x="205" y="-79" font-family="Helvetica,sans-Serif" font-size="10.00">_buffer</text>
</a>
</g>
</g>
<!-- Node1&#45;&gt;Node2 -->
<g id="edge1_Node000001_Node000002" class="edge">
<title>Node1&#45;&gt;Node2</title>
<g id="a_edge1_Node000001_Node000002"><a xlink:title=" ">
<path fill="none" stroke="#63b8ff" d="M115.17,-87C123.45,-87 132.03,-87 140.44,-87"/>
<polygon fill="#63b8ff" stroke="#63b8ff" points="140.58,-90.5 150.58,-87 140.58,-83.5 140.58,-90.5"/>
</a>
</g>
</g>
<!-- Node3 -->
<g id="Node000003" class="node">
<title>Node3</title>
<g id="a_Node000003"><a xlink:href="namespaceMayaFlux_a8292200a0794717cafb259316c39f8a7.html#a8292200a0794717cafb259316c39f8a7" target="_top" xlink:title="Clones a buffer to multiple channels.">
<polygon fill="white" stroke="#666666" points="426,-174 295,-174 295,-144 426,-144 426,-174"/>
<text text-anchor="start" x="303" y="-162" font-family="Helvetica,sans-Serif" font-size="10.00">MayaFlux::clone_buffer</text>
<text text-anchor="middle" x="360.5" y="-151" font-family="Helvetica,sans-Serif" font-size="10.00">_to_channels</text>
</a>
</g>
</g>
<!-- Node2&#45;&gt;Node3 -->
<g id="edge2_Node000002_Node000003" class="edge">
<title>Node2&#45;&gt;Node3</title>
<g id="a_edge2_Node000002_Node000003"><a xlink:title=" ">
<path fill="none" stroke="#63b8ff" d="M231.61,-102.04C249.14,-112.03 273.09,-125.07 295,-135 298.86,-136.75 302.88,-138.47 306.95,-140.14"/>
<polygon fill="#63b8ff" stroke="#63b8ff" points="305.9,-143.49 316.49,-143.94 308.49,-136.99 305.9,-143.49"/>
</a>
</g>
</g>
<!-- Node13 -->
<g id="Node000013" class="node">
<title>Node13</title>
<g id="a_Node000013"><a xlink:href="namespaceMayaFlux_affda79373ae79a02574a2768948c300e.html#affda79373ae79a02574a2768948c300e" target="_top" xlink:title="Extracts buffer processing token from domain.">
<polygon fill="white" stroke="#666666" points="420.5,-126 300.5,-126 300.5,-96 420.5,-96 420.5,-126"/>
<text text-anchor="start" x="308.5" y="-114" font-family="Helvetica,sans-Serif" font-size="10.00">MayaFlux::get_buffer</text>
<text text-anchor="middle" x="360.5" y="-103" font-family="Helvetica,sans-Serif" font-size="10.00">_token</text>
</a>
</g>
</g>
<!-- Node2&#45;&gt;Node13 -->
<g id="edge12_Node000002_Node000013" class="edge">
<title>Node2&#45;&gt;Node13</title>
<g id="a_edge12_Node000002_Node000013"><a xlink:title=" ">
<path fill="none" stroke="#63b8ff" d="M259.26,-95.33C269.3,-96.9 279.93,-98.56 290.37,-100.19"/>
<polygon fill="#63b8ff" stroke="#63b8ff" points="289.88,-103.66 300.3,-101.74 290.96,-96.74 289.88,-103.66"/>
</a>
</g>
</g>
<!-- Node14 -->
<g id="Node000014" class="node">
<title>Node14</title>
<g id="a_Node000014"><a xlink:href="namespaceMayaFlux_a93ff247bbf5208e7b89bd81b09139b5c.html#a93ff247bbf5208e7b89bd81b09139b5c" target="_top" xlink:title="Registers an AudioBuffer with the default engine&#39;s buffer manager.">
<polygon fill="white" stroke="#666666" points="414.5,-78 306.5,-78 306.5,-48 414.5,-48 414.5,-78"/>
<text text-anchor="start" x="314.5" y="-66" font-family="Helvetica,sans-Serif" font-size="10.00">MayaFlux::register</text>
<text text-anchor="middle" x="360.5" y="-55" font-family="Helvetica,sans-Serif" font-size="10.00">_audio_buffer</text>
</a>
</g>
</g>
<!-- Node2&#45;&gt;Node14 -->
<g id="edge13_Node000002_Node000014" class="edge">
<title>Node2&#45;&gt;Node14</title>
<g id="a_edge13_Node000002_Node000014"><a xlink:title=" ">
<path fill="none" stroke="#63b8ff" d="M259.26,-78.67C271.16,-76.81 283.9,-74.82 296.17,-72.9"/>
<polygon fill="#63b8ff" stroke="#63b8ff" points="297,-76.31 306.34,-71.31 295.92,-69.4 297,-76.31"/>
</a>
</g>
</g>
<!-- Node15 -->
<g id="Node000015" class="node">
<title>Node15</title>
<g id="a_Node000015"><a xlink:href="namespaceMayaFlux_abef255ed51ba80f581c50221db096852.html#abef255ed51ba80f581c50221db096852" target="_top" xlink:title="Registers a VKBuffer with the default engine&#39;s buffer manager.">
<polygon fill="white" stroke="#666666" points="414.5,-30 306.5,-30 306.5,0 414.5,0 414.5,-30"/>
<text text-anchor="start" x="314.5" y="-18" font-family="Helvetica,sans-Serif" font-size="10.00">MayaFlux::register</text>
<text text-anchor="middle" x="360.5" y="-7" font-family="Helvetica,sans-Serif" font-size="10.00">_graphics_buffer</text>
</a>
</g>
</g>
<!-- Node2&#45;&gt;Node15 -->
<g id="edge15_Node000002_Node000015" class="edge">
<title>Node2&#45;&gt;Node15</title>
<g id="a_edge15_Node000002_Node000015"><a xlink:title=" ">
<path fill="none" stroke="#63b8ff" d="M231.61,-71.96C249.14,-61.97 273.09,-48.93 295,-39 298.86,-37.25 302.88,-35.53 306.95,-33.86"/>
<polygon fill="#63b8ff" stroke="#63b8ff" points="308.49,-37.01 316.49,-30.06 305.9,-30.51 308.49,-37.01"/>
</a>
</g>
</g>
<!-- Node4 -->
<g id="Node000004" class="node">
<title>Node4</title>
<g id="a_Node000004"><a xlink:href="namespaceMayaFlux_ab62f030499d58eb3e1d5c43ca3bc230e.html#ab62f030499d58eb3e1d5c43ca3bc230e" target="_top" xlink:title="Gets the buffer manager from the default engine.">
<polygon fill="white" stroke="#666666" points="582,-78 462,-78 462,-48 582,-48 582,-78"/>
<text text-anchor="start" x="470" y="-66" font-family="Helvetica,sans-Serif" font-size="10.00">MayaFlux::get_buffer</text>
<text text-anchor="middle" x="522" y="-55" font-family="Helvetica,sans-Serif" font-size="10.00">_manager</text>
</a>
</g>
</g>
<!-- Node3&#45;&gt;Node4 -->
<g id="edge3_Node000003_Node000004" class="edge">
<title>Node3&#45;&gt;Node4</title>
<g id="a_edge3_Node000003_Node000004"><a xlink:title=" ">
<path fill="none" stroke="#63b8ff" d="M407.01,-143.98C413.52,-141.29 420.03,-138.28 426,-135 451.64,-120.91 477.93,-100.43 496.33,-84.91"/>
<polygon fill="#63b8ff" stroke="#63b8ff" points="498.88,-87.33 504.2,-78.17 494.33,-82.02 498.88,-87.33"/>
</a>
</g>
</g>
<!-- Node5 -->
<g id="Node000005" class="node">
<title>Node5</title>
<g id="a_Node000005"><a xlink:href="classMayaFlux_1_1Core_1_1Engine_ae91ca2d8b17039d5aab98e53258bb777.html#ae91ca2d8b17039d5aab98e53258bb777" target="_top" xlink:title="Gets the buffer manager.">
<polygon fill="white" stroke="#666666" points="750,-100 618,-100 618,-70 750,-70 750,-100"/>
<text text-anchor="start" x="626" y="-88" font-family="Helvetica,sans-Serif" font-size="10.00">MayaFlux::Core::Engine</text>
<text text-anchor="middle" x="684" y="-77" font-family="Helvetica,sans-Serif" font-size="10.00">::get_buffer_manager</text>
</a>
</g>
</g>
<!-- Node4&#45;&gt;Node5 -->
<g id="edge4_Node000004_Node000005" class="edge">
<title>Node4&#45;&gt;Node5</title>
<g id="a_edge4_Node000004_Node000005"><a xlink:title=" ">
<path fill="none" stroke="#63b8ff" d="M582.12,-71.13C590.51,-72.28 599.22,-73.48 607.85,-74.67"/>
<polygon fill="#63b8ff" stroke="#63b8ff" points="607.54,-78.16 617.93,-76.05 608.5,-71.22 607.54,-78.16"/>
</a>
</g>
</g>
<!-- Node6 -->
<g id="Node000006" class="node">
<title>Node6</title>
<g id="a_Node000006"><a xlink:href="namespaceMayaFlux_ac4ab74951370ff0dd899203f3b94c775.html#ac4ab74951370ff0dd899203f3b94c775" target="_top" xlink:title="Gets the default engine instance.">
<polygon fill="white" stroke="#666666" points="748,-51.5 620,-51.5 620,-32.5 748,-32.5 748,-51.5"/>
<text text-anchor="middle" x="684" y="-39.5" font-family="Helvetica,sans-Serif" font-size="10.00">MayaFlux::get_context</text>
</a>
</g>
</g>
<!-- Node4&#45;&gt;Node6 -->
<g id="edge5_Node000004_Node000006" class="edge">
<title>Node4&#45;&gt;Node6</title>
<g id="a_edge5_Node000004_Node000006"><a xlink:title=" ">
<path fill="none" stroke="#63b8ff" d="M582.12,-55.24C591.15,-54.06 600.55,-52.82 609.83,-51.6"/>
<polygon fill="#63b8ff" stroke="#63b8ff" points="610.36,-55.06 619.82,-50.29 609.45,-48.12 610.36,-55.06"/>
</a>
</g>
</g>
<!-- Node7 -->
<g id="Node000007" class="node">
<title>Node7</title>
<g id="a_Node000007"><a xlink:href="namespaceMayaFlux_1_1internal_ac0f0b4b1cae6af4441db0ea022e15583.html#ac0f0b4b1cae6af4441db0ea022e15583" target="_top" xlink:title=" ">
<polygon fill="white" stroke="#666666" points="914,-57 786,-57 786,-27 914,-27 914,-57"/>
<text text-anchor="start" x="794" y="-45" font-family="Helvetica,sans-Serif" font-size="10.00">MayaFlux::internal</text>
<text text-anchor="middle" x="850" y="-34" font-family="Helvetica,sans-Serif" font-size="10.00">::get_or_create_engine</text>
</a>
</g>
</g>
<!-- Node6&#45;&gt;Node7 -->
<g id="edge6_Node000006_Node000007" class="edge">
<title>Node6&#45;&gt;Node7</title>
<g id="a_edge6_Node000006_Node000007"><a xlink:title=" ">
<path fill="none" stroke="#63b8ff" d="M748.41,-42C757.31,-42 766.53,-42 775.6,-42"/>
<polygon fill="#63b8ff" stroke="#63b8ff" points="775.76,-45.5 785.76,-42 775.76,-38.5 775.76,-45.5"/>
</a>
</g>
</g>
<!-- Node8 -->
<g id="Node000008" class="node">
<title>Node8</title>
<g id="a_Node000008"><a xlink:href="namespaceMayaFlux_1_1internal_a3cc5413e05c2f9c9f04372841aa0a5b1.html#a3cc5413e05c2f9c9f04372841aa0a5b1" target="_top" xlink:title=" ">
<polygon fill="white" stroke="#666666" points="1058,-57 950,-57 950,-27 1058,-27 1058,-57"/>
<text text-anchor="start" x="958" y="-45" font-family="Helvetica,sans-Serif" font-size="10.00">MayaFlux::internal</text>
<text text-anchor="middle" x="1004" y="-34" font-family="Helvetica,sans-Serif" font-size="10.00">::cleanup_engine</text>
</a>
</g>
</g>
<!-- Node7&#45;&gt;Node8 -->
<g id="edge7_Node000007_Node000008" class="edge">
<title>Node7&#45;&gt;Node8</title>
<g id="a_edge7_Node000007_Node000008"><a xlink:title=" ">
<path fill="none" stroke="#63b8ff" d="M914.14,-42C922.61,-42 931.29,-42 939.76,-42"/>
<polygon fill="#63b8ff" stroke="#63b8ff" points="939.95,-45.5 949.95,-42 939.95,-38.5 939.95,-45.5"/>
</a>
</g>
</g>
<!-- Node9 -->
<g id="Node000009" class="node">
<title>Node9</title>
<g id="a_Node000009"><a xlink:href="namespaceMayaFlux_1_1internal_ac4d6952d58cdfd56964a883d40aa655d.html#ac4d6952d58cdfd56964a883d40aa655d" target="_top" xlink:title=" ">
<polygon fill="white" stroke="#666666" points="1239,-81 1094,-81 1094,-51 1239,-51 1239,-81"/>
<text text-anchor="start" x="1102" y="-69" font-family="Helvetica,sans-Serif" font-size="10.00">MayaFlux::internal</text>
<text text-anchor="middle" x="1166.5" y="-58" font-family="Helvetica,sans-Serif" font-size="10.00">::cleanup_persistent_store</text>
</a>
</g>
</g>
<!-- Node8&#45;&gt;Node9 -->
<g id="edge8_Node000008_Node000009" class="edge">
<title>Node8&#45;&gt;Node9</title>
<g id="a_edge8_Node000008_Node000009"><a xlink:title=" ">
<path fill="none" stroke="#63b8ff" d="M1058.44,-49.99C1066.57,-51.21 1075.11,-52.48 1083.68,-53.77"/>
<polygon fill="#63b8ff" stroke="#63b8ff" points="1083.31,-57.25 1093.72,-55.27 1084.35,-50.33 1083.31,-57.25"/>
</a>
</g>
</g>
<!-- Node11 -->
<g id="Node000011" class="node">
<title>Node11</title>
<g id="a_Node000011"><a xlink:href="classMayaFlux_1_1Journal_1_1Archivist_a82e2d12db8781df4afc43ef4c1fba2be.html#a82e2d12db8781df4afc43ef4c1fba2be" target="_top" xlink:title="Shutdown the logging system.">
<polygon fill="white" stroke="#666666" points="1223,-33 1110,-33 1110,-3 1223,-3 1223,-33"/>
<text text-anchor="start" x="1118" y="-21" font-family="Helvetica,sans-Serif" font-size="10.00">MayaFlux::Journal::</text>
<text text-anchor="middle" x="1166.5" y="-10" font-family="Helvetica,sans-Serif" font-size="10.00">Archivist::shutdown</text>
</a>
</g>
</g>
<!-- Node8&#45;&gt;Node11 -->
<g id="edge10_Node000008_Node000011" class="edge">
<title>Node8&#45;&gt;Node11</title>
<g id="a_edge10_Node000008_Node000011"><a xlink:title=" ">
<path fill="none" stroke="#63b8ff" d="M1058.44,-34.01C1071.73,-32.02 1086.11,-29.87 1099.91,-27.81"/>
<polygon fill="#63b8ff" stroke="#63b8ff" points="1100.44,-31.27 1109.82,-26.33 1099.41,-24.34 1100.44,-31.27"/>
</a>
</g>
</g>
<!-- Node10 -->
<g id="Node000010" class="node">
<title>Node10</title>
<g id="a_Node000010"><a xlink:href="namespaceMayaFlux_1_1internal_ac26a7a92aa4af34c366aad03b68ea71e.html#ac26a7a92aa4af34c366aad03b68ea71e" target="_top" xlink:title=" ">
<polygon fill="white" stroke="#666666" points="1384,-81 1276,-81 1276,-51 1384,-51 1384,-81"/>
<text text-anchor="start" x="1284" y="-69" font-family="Helvetica,sans-Serif" font-size="10.00">MayaFlux::internal</text>
<text text-anchor="middle" x="1330" y="-58" font-family="Helvetica,sans-Serif" font-size="10.00">::persistent_store</text>
</a>
</g>
</g>
<!-- Node9&#45;&gt;Node10 -->
<g id="edge9_Node000009_Node000010" class="edge">
<title>Node9&#45;&gt;Node10</title>
<g id="a_edge9_Node000009_Node000010"><a xlink:title=" ">
<path fill="none" stroke="#63b8ff" d="M1239.28,-66C1248.12,-66 1257.1,-66 1265.8,-66"/>
<polygon fill="#63b8ff" stroke="#63b8ff" points="1265.86,-69.5 1275.86,-66 1265.86,-62.5 1265.86,-69.5"/>
</a>
</g>
</g>
<!-- Node12 -->
<g id="Node000012" class="node">
<title>Node12</title>
<g id="a_Node000012"><a xlink:href="classMayaFlux_1_1Journal_1_1Archivist_a8b7829e34d79ec5bbbf02e3d4afbdab9.html#a8b7829e34d79ec5bbbf02e3d4afbdab9" target="_top" xlink:title="Get the singleton instance of the Archivist.">
<polygon fill="white" stroke="#666666" points="1385,-33 1275,-33 1275,-3 1385,-3 1385,-33"/>
<text text-anchor="start" x="1283" y="-21" font-family="Helvetica,sans-Serif" font-size="10.00">MayaFlux::Journal::</text>
<text text-anchor="middle" x="1330" y="-10" font-family="Helvetica,sans-Serif" font-size="10.00">Archivist::instance</text>
</a>
</g>
</g>
<!-- Node11&#45;&gt;Node12 -->
<g id="edge11_Node000011_Node000012" class="edge">
<title>Node11&#45;&gt;Node12</title>
<g id="a_edge11_Node000011_Node000012"><a xlink:title=" ">
<path fill="none" stroke="#63b8ff" d="M1223.08,-18C1236.46,-18 1250.86,-18 1264.6,-18"/>
<polygon fill="#63b8ff" stroke="#63b8ff" points="1264.96,-21.5 1274.96,-18 1264.96,-14.5 1264.96,-21.5"/>
</a>
</g>
</g>
<!-- Node14&#45;&gt;Node4 -->
<g id="edge14_Node000014_Node000004" class="edge">
<title>Node14&#45;&gt;Node4</title>
<g id="a_edge14_Node000014_Node000004"><a xlink:title=" ">
<path fill="none" stroke="#63b8ff" d="M414.61,-63C426.43,-63 439.14,-63 451.51,-63"/>
<polygon fill="#63b8ff" stroke="#63b8ff" points="451.8,-66.5 461.8,-63 451.8,-59.5 451.8,-66.5"/>
</a>
</g>
</g>
<!-- Node15&#45;&gt;Node4 -->
<g id="edge16_Node000015_Node000004" class="edge">
<title>Node15&#45;&gt;Node4</title>
<g id="a_edge16_Node000015_Node000004"><a xlink:title=" ">
<path fill="none" stroke="#63b8ff" d="M411.53,-30.06C427.27,-34.79 444.8,-40.07 461.15,-44.99"/>
<polygon fill="#63b8ff" stroke="#63b8ff" points="460.56,-48.47 471.15,-48 462.58,-41.76 460.56,-48.47"/>
</a>
</g>
</g>
</g>
</svg>
