<?xml version="1.0" encoding="UTF-8" standalone="no"?>
<!DOCTYPE svg PUBLIC "-//W3C//DTD SVG 1.1//EN"
 "http://www.w3.org/Graphics/SVG/1.1/DTD/svg11.dtd">
<!-- Generated by graphviz version 2.43.0 (0)
 -->
<!-- Title: MayaFlux::Buffers::upload_structured_view Pages: 1 -->
<svg width="665pt" height="146pt"
 viewBox="0.00 0.00 665.00 146.00" xmlns="http://www.w3.org/2000/svg" xmlns:xlink="http://www.w3.org/1999/xlink">
<g id="graph0" class="graph" transform="scale(1 1) rotate(0) translate(4 142)">
<title>MayaFlux::Buffers::upload_structured_view</title>
<!-- Node1 -->
<g id="Node000001" class="node">
<title>Node1</title>
<g id="a_Node000001"><a xlink:title="Upload structured data with GLM double&#45;precision types.">
<polygon fill="#999999" stroke="#666666" points="133,-87 0,-87 0,-57 133,-57 133,-87"/>
<text text-anchor="start" x="8" y="-75" font-family="Helvetica,sans-Serif" font-size="10.00">MayaFlux::Buffers::</text>
<text text-anchor="middle" x="66.5" y="-64" font-family="Helvetica,sans-Serif" font-size="10.00">upload_structured_view</text>
</a>
</g>
</g>
<!-- Node2 -->
<g id="Node000002" class="node">
<title>Node2</title>
<g id="a_Node000002"><a xlink:href="classMayaFlux_1_1Kakshya_1_1DataAccess_aba4470fe6bded87bb333cf0f6807592e.html#aba4470fe6bded87bb333cf0f6807592e" target="_top" xlink:title=" ">
<polygon fill="white" stroke="#666666" points="312,-135 169,-135 169,-105 312,-105 312,-135"/>
<text text-anchor="start" x="177" y="-123" font-family="Helvetica,sans-Serif" font-size="10.00">MayaFlux::Kakshya::</text>
<text text-anchor="middle" x="240.5" y="-112" font-family="Helvetica,sans-Serif" font-size="10.00">DataAccess::is_structured</text>
</a>
</g>
</g>
<!-- Node1&#45;&gt;Node2 -->
<g id="edge1_Node000001_Node000002" class="edge">
<title>Node1&#45;&gt;Node2</title>
<g id="a_edge1_Node000001_Node000002"><a xlink:title=" ">
<path fill="none" stroke="#63b8ff" d="M121.45,-87.06C138.74,-91.88 158.05,-97.27 175.96,-102.27"/>
<polygon fill="#63b8ff" stroke="#63b8ff" points="175.17,-105.68 185.74,-105 177.05,-98.94 175.17,-105.68"/>
</a>
</g>
</g>
<!-- Node3 -->
<g id="Node000003" class="node">
<title>Node3</title>
<g id="a_Node000003"><a xlink:href="namespaceMayaFlux_1_1Buffers_ae5e547b4f569572df2c1ad0a3d7a38eb.html#ae5e547b4f569572df2c1ad0a3d7a38eb" target="_top" xlink:title="Upload raw data to GPU buffer (auto&#45;detects host&#45;visible vs device&#45;local)">
<polygon fill="white" stroke="#666666" points="296,-87 185,-87 185,-57 296,-57 296,-87"/>
<text text-anchor="start" x="193" y="-75" font-family="Helvetica,sans-Serif" font-size="10.00">MayaFlux::Buffers::</text>
<text text-anchor="middle" x="240.5" y="-64" font-family="Helvetica,sans-Serif" font-size="10.00">upload_to_gpu</text>
</a>
</g>
</g>
<!-- Node1&#45;&gt;Node3 -->
<g id="edge2_Node000001_Node000003" class="edge">
<title>Node1&#45;&gt;Node3</title>
<g id="a_edge2_Node000001_Node000003"><a xlink:title=" ">
<path fill="none" stroke="#63b8ff" d="M133.02,-72C146.63,-72 160.98,-72 174.57,-72"/>
<polygon fill="#63b8ff" stroke="#63b8ff" points="174.8,-75.5 184.8,-72 174.8,-68.5 174.8,-75.5"/>
</a>
</g>
</g>
<!-- Node10 -->
<g id="Node000010" class="node">
<title>Node10</title>
<g id="a_Node000010"><a xlink:href="classMayaFlux_1_1Kakshya_1_1DataAccess_a9af1792c7a75d3057e58142eeb094ec0.html#a9af1792c7a75d3057e58142eeb094ec0" target="_top" xlink:title="Get explicit typed view of data.">
<polygon fill="white" stroke="#666666" points="300,-39 181,-39 181,-9 300,-9 300,-39"/>
<text text-anchor="start" x="189" y="-27" font-family="Helvetica,sans-Serif" font-size="10.00">MayaFlux::Kakshya::</text>
<text text-anchor="middle" x="240.5" y="-16" font-family="Helvetica,sans-Serif" font-size="10.00">DataAccess::view</text>
</a>
</g>
</g>
<!-- Node1&#45;&gt;Node10 -->
<g id="edge14_Node000001_Node000010" class="edge">
<title>Node1&#45;&gt;Node10</title>
<g id="a_edge14_Node000001_Node000010"><a xlink:title=" ">
<path fill="none" stroke="#63b8ff" d="M121.45,-56.94C138.74,-52.12 158.05,-46.73 175.96,-41.73"/>
<polygon fill="#63b8ff" stroke="#63b8ff" points="177.05,-45.06 185.74,-39 175.17,-38.32 177.05,-45.06"/>
</a>
</g>
</g>
<!-- Node4 -->
<g id="Node000004" class="node">
<title>Node4</title>
<g id="a_Node000004"><a xlink:href="namespaceMayaFlux_1_1Buffers_a64c6abe8842e398d178e4275a4d4b404.html#a64c6abe8842e398d178e4275a4d4b404" target="_top" xlink:title="Create staging buffer for transfers.">
<polygon fill="white" stroke="#666666" points="470,-135 348,-135 348,-105 470,-105 470,-135"/>
<text text-anchor="start" x="356" y="-123" font-family="Helvetica,sans-Serif" font-size="10.00">MayaFlux::Buffers::</text>
<text text-anchor="middle" x="409" y="-112" font-family="Helvetica,sans-Serif" font-size="10.00">create_staging_buffer</text>
</a>
</g>
</g>
<!-- Node3&#45;&gt;Node4 -->
<g id="edge3_Node000003_Node000004" class="edge">
<title>Node3&#45;&gt;Node4</title>
<g id="a_edge3_Node000003_Node000004"><a xlink:title=" ">
<path fill="none" stroke="#63b8ff" d="M293.72,-87.06C310.31,-91.84 328.81,-97.17 346.01,-102.13"/>
<polygon fill="#63b8ff" stroke="#63b8ff" points="345.38,-105.59 355.96,-105 347.32,-98.86 345.38,-105.59"/>
</a>
</g>
</g>
<!-- Node7 -->
<g id="Node000007" class="node">
<title>Node7</title>
<g id="a_Node000007"><a xlink:href="namespaceMayaFlux_1_1Buffers_a31f5983628d43dc3c83257330c321cc6.html#a31f5983628d43dc3c83257330c321cc6" target="_top" xlink:title="Upload data to a device&#45;local buffer using a staging buffer.">
<polygon fill="white" stroke="#666666" points="467,-39 351,-39 351,-9 467,-9 467,-39"/>
<text text-anchor="start" x="359" y="-27" font-family="Helvetica,sans-Serif" font-size="10.00">MayaFlux::Buffers::</text>
<text text-anchor="middle" x="409" y="-16" font-family="Helvetica,sans-Serif" font-size="10.00">upload_device_local</text>
</a>
</g>
</g>
<!-- Node3&#45;&gt;Node7 -->
<g id="edge6_Node000003_Node000007" class="edge">
<title>Node3&#45;&gt;Node7</title>
<g id="a_edge6_Node000003_Node000007"><a xlink:title=" ">
<path fill="none" stroke="#63b8ff" d="M293.72,-56.94C310.31,-52.16 328.81,-46.83 346.01,-41.87"/>
<polygon fill="#63b8ff" stroke="#63b8ff" points="347.32,-45.14 355.96,-39 345.38,-38.41 347.32,-45.14"/>
</a>
</g>
</g>
<!-- Node9 -->
<g id="Node000009" class="node">
<title>Node9</title>
<g id="a_Node000009"><a xlink:href="namespaceMayaFlux_1_1Buffers_a0749e7edaf3b6ec8a02a107a4f5b3a5a.html#a0749e7edaf3b6ec8a02a107a4f5b3a5a" target="_top" xlink:title="Upload data to a host&#45;visible buffer.">
<polygon fill="white" stroke="#666666" points="465.5,-87 352.5,-87 352.5,-57 465.5,-57 465.5,-87"/>
<text text-anchor="start" x="360.5" y="-75" font-family="Helvetica,sans-Serif" font-size="10.00">MayaFlux::Buffers::</text>
<text text-anchor="middle" x="409" y="-64" font-family="Helvetica,sans-Serif" font-size="10.00">upload_host_visible</text>
</a>
</g>
</g>
<!-- Node3&#45;&gt;Node9 -->
<g id="edge10_Node000003_Node000009" class="edge">
<title>Node3&#45;&gt;Node9</title>
<g id="a_edge10_Node000003_Node000009"><a xlink:title=" ">
<path fill="none" stroke="#63b8ff" d="M296.02,-72C310.66,-72 326.65,-72 341.85,-72"/>
<polygon fill="#63b8ff" stroke="#63b8ff" points="342.22,-75.5 352.22,-72 342.22,-68.5 342.22,-75.5"/>
</a>
</g>
</g>
<!-- Node5 -->
<g id="Node000005" class="node">
<title>Node5</title>
<g id="a_Node000005"><a xlink:href="classMayaFlux_1_1Registry_1_1BackendRegistry_a0c7a59c0847791ed0915dcd64e8df783.html#a0c7a59c0847791ed0915dcd64e8df783" target="_top" xlink:title="Query for a backend service.">
<polygon fill="white" stroke="#666666" points="644,-89.5 519,-89.5 519,-48.5 644,-48.5 644,-89.5"/>
<text text-anchor="start" x="527" y="-77.5" font-family="Helvetica,sans-Serif" font-size="10.00">MayaFlux::Registry</text>
<text text-anchor="start" x="527" y="-66.5" font-family="Helvetica,sans-Serif" font-size="10.00">::BackendRegistry::get</text>
<text text-anchor="middle" x="581.5" y="-55.5" font-family="Helvetica,sans-Serif" font-size="10.00">_service</text>
</a>
</g>
</g>
<!-- Node4&#45;&gt;Node5 -->
<g id="edge4_Node000004_Node000005" class="edge">
<title>Node4&#45;&gt;Node5</title>
<g id="a_edge4_Node000004_Node000005"><a xlink:title=" ">
<path fill="none" stroke="#63b8ff" d="M460.23,-104.97C475.59,-100.38 492.78,-95.24 509.25,-90.31"/>
<polygon fill="#63b8ff" stroke="#63b8ff" points="510.27,-93.66 518.85,-87.44 508.26,-86.95 510.27,-93.66"/>
</a>
</g>
</g>
<!-- Node6 -->
<g id="Node000006" class="node">
<title>Node6</title>
<g id="a_Node000006"><a xlink:href="classMayaFlux_1_1Registry_1_1BackendRegistry_aa28c6f5592e5893508bafb62aefcc496.html#aa28c6f5592e5893508bafb62aefcc496" target="_top" xlink:title="Get the global registry instance.">
<polygon fill="white" stroke="#666666" points="657,-138 506,-138 506,-108 657,-108 657,-138"/>
<text text-anchor="start" x="514" y="-126" font-family="Helvetica,sans-Serif" font-size="10.00">MayaFlux::Registry</text>
<text text-anchor="middle" x="581.5" y="-115" font-family="Helvetica,sans-Serif" font-size="10.00">::BackendRegistry::instance</text>
</a>
</g>
</g>
<!-- Node4&#45;&gt;Node6 -->
<g id="edge5_Node000004_Node000006" class="edge">
<title>Node4&#45;&gt;Node6</title>
<g id="a_edge5_Node000004_Node000006"><a xlink:title=" ">
<path fill="none" stroke="#63b8ff" d="M470.11,-121.06C478.45,-121.2 487.14,-121.36 495.82,-121.51"/>
<polygon fill="#63b8ff" stroke="#63b8ff" points="495.93,-125.01 505.99,-121.69 496.05,-118.01 495.93,-125.01"/>
</a>
</g>
</g>
<!-- Node7&#45;&gt;Node5 -->
<g id="edge7_Node000007_Node000005" class="edge">
<title>Node7&#45;&gt;Node5</title>
<g id="a_edge7_Node000007_Node000005"><a xlink:title=" ">
<path fill="none" stroke="#63b8ff" d="M467.25,-39.11C480.56,-42.62 494.9,-46.41 508.75,-50.06"/>
<polygon fill="#63b8ff" stroke="#63b8ff" points="508.16,-53.53 518.72,-52.7 509.95,-46.76 508.16,-53.53"/>
</a>
</g>
</g>
<!-- Node7&#45;&gt;Node6 -->
<g id="edge9_Node000007_Node000006" class="edge">
<title>Node7&#45;&gt;Node6</title>
<g id="a_edge9_Node000007_Node000006"><a xlink:title=" ">
<path fill="none" stroke="#63b8ff" d="M455.78,-39.02C460.82,-41.61 465.69,-44.59 470,-48 491.78,-65.19 483.65,-82.57 506,-99 508.06,-100.51 510.22,-101.94 512.45,-103.27"/>
<polygon fill="#63b8ff" stroke="#63b8ff" points="510.9,-106.41 521.38,-107.99 514.18,-100.22 510.9,-106.41"/>
</a>
</g>
</g>
<!-- Node8 -->
<g id="Node000008" class="node">
<title>Node8</title>
<g id="a_Node000008"><a xlink:href="classMayaFlux_1_1Kakshya_1_1DataAccess_a7893291a314cd16a4086b4af5547be3b.html#a7893291a314cd16a4086b4af5547be3b" target="_top" xlink:title="Get raw buffer info for GPU upload.">
<polygon fill="white" stroke="#666666" points="647,-30 516,-30 516,0 647,0 647,-30"/>
<text text-anchor="start" x="524" y="-18" font-family="Helvetica,sans-Serif" font-size="10.00">MayaFlux::Kakshya::</text>
<text text-anchor="middle" x="581.5" y="-7" font-family="Helvetica,sans-Serif" font-size="10.00">DataAccess::gpu_buffer</text>
</a>
</g>
</g>
<!-- Node7&#45;&gt;Node8 -->
<g id="edge8_Node000007_Node000008" class="edge">
<title>Node7&#45;&gt;Node8</title>
<g id="a_edge8_Node000007_Node000008"><a xlink:title=" ">
<path fill="none" stroke="#63b8ff" d="M467.25,-20.98C479.54,-20.33 492.7,-19.63 505.55,-18.96"/>
<polygon fill="#63b8ff" stroke="#63b8ff" points="505.96,-22.44 515.76,-18.42 505.59,-15.45 505.96,-22.44"/>
</a>
</g>
</g>
<!-- Node9&#45;&gt;Node5 -->
<g id="edge11_Node000009_Node000005" class="edge">
<title>Node9&#45;&gt;Node5</title>
<g id="a_edge11_Node000009_Node000005"><a xlink:title=" ">
<path fill="none" stroke="#63b8ff" d="M465.83,-71.02C479.5,-70.78 494.33,-70.52 508.64,-70.26"/>
<polygon fill="#63b8ff" stroke="#63b8ff" points="509.01,-73.76 518.95,-70.08 508.89,-66.76 509.01,-73.76"/>
</a>
</g>
</g>
<!-- Node9&#45;&gt;Node6 -->
<g id="edge13_Node000009_Node000006" class="edge">
<title>Node9&#45;&gt;Node6</title>
<g id="a_edge13_Node000009_Node000006"><a xlink:title=" ">
<path fill="none" stroke="#63b8ff" d="M460.23,-87.03C479.14,-92.68 500.83,-99.17 520.54,-105.06"/>
<polygon fill="#63b8ff" stroke="#63b8ff" points="519.75,-108.48 530.33,-107.99 521.75,-101.77 519.75,-108.48"/>
</a>
</g>
</g>
<!-- Node9&#45;&gt;Node8 -->
<g id="edge12_Node000009_Node000008" class="edge">
<title>Node9&#45;&gt;Node8</title>
<g id="a_edge12_Node000009_Node000008"><a xlink:title=" ">
<path fill="none" stroke="#63b8ff" d="M453.43,-56.87C469.87,-51.2 488.78,-44.73 506,-39 511.62,-37.13 517.48,-35.2 523.34,-33.29"/>
<polygon fill="#63b8ff" stroke="#63b8ff" points="524.73,-36.52 533.16,-30.1 522.57,-29.86 524.73,-36.52"/>
</a>
</g>
</g>
</g>
</svg>
