<?xml version="1.0" encoding="UTF-8" standalone="no"?>
<!DOCTYPE svg PUBLIC "-//W3C//DTD SVG 1.1//EN"
 "http://www.w3.org/Graphics/SVG/1.1/DTD/svg11.dtd">
<!-- Generated by graphviz version 2.43.0 (0)
 -->
<!-- Title: MayaFlux::Kinesis::generate_box Pages: 1 -->
<svg width="296pt" height="56pt"
 viewBox="0.00 0.00 296.00 56.00" xmlns="http://www.w3.org/2000/svg" xmlns:xlink="http://www.w3.org/1999/xlink">
<g id="graph0" class="graph" transform="scale(1 1) rotate(0) translate(4 52)">
<title>MayaFlux::Kinesis::generate_box</title>
<!-- Node1 -->
<g id="Node000001" class="node">
<title>Node1</title>
<g id="a_Node000001"><a xlink:title="Generate a solid box as an indexed TRIANGLE_LIST mesh.">
<polygon fill="#999999" stroke="#666666" points="112,-30 0,-30 0,0 112,0 112,-30"/>
<text text-anchor="start" x="8" y="-18" font-family="Helvetica,sans-Serif" font-size="10.00">MayaFlux::Kinesis::</text>
<text text-anchor="middle" x="56" y="-7" font-family="Helvetica,sans-Serif" font-size="10.00">generate_box</text>
</a>
</g>
</g>
<!-- Node1&#45;&gt;Node1 -->
<g id="edge1_Node000001_Node000001" class="edge">
<title>Node1&#45;&gt;Node1</title>
<g id="a_edge1_Node000001_Node000001"><a xlink:title=" ">
<path fill="none" stroke="#63b8ff" d="M27.52,-30.28C21.2,-39.41 30.69,-48 56,-48 71.03,-48 80.48,-44.97 84.36,-40.6"/>
<polygon fill="#63b8ff" stroke="#63b8ff" points="87.86,-40.32 84.48,-30.28 80.86,-40.23 87.86,-40.32"/>
</a>
</g>
</g>
<!-- Node2 -->
<g id="Node000002" class="node">
<title>Node2</title>
<g id="a_Node000002"><a xlink:href="classMayaFlux_1_1Kakshya_1_1MeshInsertion_a618b35166b14858aca7b8f8c8ce693c8.html#a618b35166b14858aca7b8f8c8ce693c8" target="_top" xlink:title="Insert a single flat mesh (no submesh tracking).">
<polygon fill="white" stroke="#666666" points="288,-30 148,-30 148,0 288,0 288,-30"/>
<text text-anchor="start" x="156" y="-18" font-family="Helvetica,sans-Serif" font-size="10.00">MayaFlux::Kakshya::</text>
<text text-anchor="middle" x="218" y="-7" font-family="Helvetica,sans-Serif" font-size="10.00">MeshInsertion::insert_flat</text>
</a>
</g>
</g>
<!-- Node1&#45;&gt;Node2 -->
<g id="edge2_Node000001_Node000002" class="edge">
<title>Node1&#45;&gt;Node2</title>
<g id="a_edge2_Node000001_Node000002"><a xlink:title=" ">
<path fill="none" stroke="#63b8ff" d="M112.06,-15C120.38,-15 129.1,-15 137.8,-15"/>
<polygon fill="#63b8ff" stroke="#63b8ff" points="137.98,-18.5 147.98,-15 137.98,-11.5 137.98,-18.5"/>
</a>
</g>
</g>
</g>
</svg>
