<?xml version="1.0" encoding="UTF-8" standalone="no"?>
<!DOCTYPE svg PUBLIC "-//W3C//DTD SVG 1.1//EN"
 "http://www.w3.org/Graphics/SVG/1.1/DTD/svg11.dtd">
<!-- Generated by graphviz version 2.43.0 (0)
 -->
<!-- Title: MayaFlux::Kriya::pattern Pages: 1 -->
<svg width="473pt" height="38pt"
 viewBox="0.00 0.00 473.00 38.00" xmlns="http://www.w3.org/2000/svg" xmlns:xlink="http://www.w3.org/1999/xlink">
<g id="graph0" class="graph" transform="scale(1 1) rotate(0) translate(4 34)">
<title>MayaFlux::Kriya::pattern</title>
<!-- Node1 -->
<g id="Node000001" class="node">
<title>Node1</title>
<g id="a_Node000001"><a xlink:title="Creates a generative algorithm that produces values based on a pattern function.">
<polygon fill="#999999" stroke="#666666" points="465,-24.5 328,-24.5 328,-5.5 465,-5.5 465,-24.5"/>
<text text-anchor="middle" x="396.5" y="-12.5" font-family="Helvetica,sans-Serif" font-size="10.00">MayaFlux::Kriya::pattern</text>
</a>
</g>
</g>
<!-- Node2 -->
<g id="Node000002" class="node">
<title>Node2</title>
<g id="a_Node000002"><a xlink:href="namespaceMayaFlux_a42a25c1b0a46849e6804c5c24153fc50.html#a42a25c1b0a46849e6804c5c24153fc50" target="_top" xlink:title="Schedules a pattern generator that produces values based on a pattern function.">
<polygon fill="white" stroke="#666666" points="292,-24.5 150,-24.5 150,-5.5 292,-5.5 292,-24.5"/>
<text text-anchor="middle" x="221" y="-12.5" font-family="Helvetica,sans-Serif" font-size="10.00">MayaFlux::create_pattern</text>
</a>
</g>
</g>
<!-- Node1&#45;&gt;Node2 -->
<g id="edge1_Node000001_Node000002" class="edge">
<title>Node1&#45;&gt;Node2</title>
<g id="a_edge1_Node000001_Node000002"><a xlink:title=" ">
<path fill="none" stroke="#63b8ff" d="M317.67,-15C309.21,-15 300.62,-15 292.25,-15"/>
<polygon fill="#63b8ff" stroke="#63b8ff" points="317.92,-18.5 327.92,-15 317.92,-11.5 317.92,-18.5"/>
</a>
</g>
</g>
<!-- Node3 -->
<g id="Node000003" class="node">
<title>Node3</title>
<g id="a_Node000003"><a xlink:href="namespaceMayaFlux_a870a8536c64a612c813800c78068a986.html#a870a8536c64a612c813800c78068a986" target="_top" xlink:title="Schedules a pattern generator that produces values based on a pattern function and addes it to the de...">
<polygon fill="white" stroke="#666666" points="114,-30 0,-30 0,0 114,0 114,-30"/>
<text text-anchor="start" x="8" y="-18" font-family="Helvetica,sans-Serif" font-size="10.00">MayaFlux::schedule</text>
<text text-anchor="middle" x="57" y="-7" font-family="Helvetica,sans-Serif" font-size="10.00">_pattern</text>
</a>
</g>
</g>
<!-- Node2&#45;&gt;Node3 -->
<g id="edge2_Node000002_Node000003" class="edge">
<title>Node2&#45;&gt;Node3</title>
<g id="a_edge2_Node000002_Node000003"><a xlink:title=" ">
<path fill="none" stroke="#63b8ff" d="M139.73,-15C131.06,-15 122.37,-15 114.07,-15"/>
<polygon fill="#63b8ff" stroke="#63b8ff" points="139.89,-18.5 149.89,-15 139.89,-11.5 139.89,-18.5"/>
</a>
</g>
</g>
</g>
</svg>
