<?xml version="1.0" encoding="UTF-8" standalone="no"?>
<!DOCTYPE svg PUBLIC "-//W3C//DTD SVG 1.1//EN"
 "http://www.w3.org/Graphics/SVG/1.1/DTD/svg11.dtd">
<!-- Generated by graphviz version 2.43.0 (0)
 -->
<!-- Title: MayaFlux::Yantra::sort_compute_data_extract Pages: 1 -->
<svg width="325pt" height="134pt"
 viewBox="0.00 0.00 325.00 134.00" xmlns="http://www.w3.org/2000/svg" xmlns:xlink="http://www.w3.org/1999/xlink">
<g id="graph0" class="graph" transform="scale(1 1) rotate(0) translate(4 130)">
<title>MayaFlux::Yantra::sort_compute_data_extract</title>
<!-- Node1 -->
<g id="Node000001" class="node">
<title>Node1</title>
<g id="a_Node000001"><a xlink:title="Universal sort function &#45; returns sorted copy.">
<polygon fill="#999999" stroke="#666666" points="317,-78 186,-78 186,-48 317,-48 317,-78"/>
<text text-anchor="start" x="194" y="-66" font-family="Helvetica,sans-Serif" font-size="10.00">MayaFlux::Yantra::sort</text>
<text text-anchor="middle" x="251.5" y="-55" font-family="Helvetica,sans-Serif" font-size="10.00">_compute_data_extract</text>
</a>
</g>
</g>
<!-- Node2 -->
<g id="Node000002" class="node">
<title>Node2</title>
<g id="a_Node000002"><a xlink:href="namespaceMayaFlux_1_1Yantra_a3deb7abab695c99ec7389cc32ef73abc.html#a3deb7abab695c99ec7389cc32ef73abc" target="_top" xlink:title="Convenience function with default algorithm.">
<polygon fill="white" stroke="#666666" points="137.5,-126 12.5,-126 12.5,-96 137.5,-96 137.5,-126"/>
<text text-anchor="start" x="20.5" y="-114" font-family="Helvetica,sans-Serif" font-size="10.00">MayaFlux::Yantra::sort</text>
<text text-anchor="middle" x="75" y="-103" font-family="Helvetica,sans-Serif" font-size="10.00">_compute_data</text>
</a>
</g>
</g>
<!-- Node1&#45;&gt;Node2 -->
<g id="edge1_Node000001_Node000002" class="edge">
<title>Node1&#45;&gt;Node2</title>
<g id="a_edge1_Node000001_Node000002"><a xlink:title=" ">
<path fill="none" stroke="#63b8ff" d="M186.08,-80.72C167.83,-85.74 148.15,-91.15 130.54,-96"/>
<polygon fill="#63b8ff" stroke="#63b8ff" points="187.05,-84.08 195.77,-78.06 185.2,-77.33 187.05,-84.08"/>
</a>
</g>
</g>
<!-- Node3 -->
<g id="Node000003" class="node">
<title>Node3</title>
<g id="a_Node000003"><a xlink:href="classMayaFlux_1_1Yantra_1_1StandardSorter_a4354ccfd82da15a220f84dc53a5676e0.html#a4354ccfd82da15a220f84dc53a5676e0" target="_top" xlink:title="Sort data with copy semantics.">
<polygon fill="white" stroke="#666666" points="150,-78 0,-78 0,-48 150,-48 150,-78"/>
<text text-anchor="start" x="8" y="-66" font-family="Helvetica,sans-Serif" font-size="10.00">MayaFlux::Yantra::Standard</text>
<text text-anchor="middle" x="75" y="-55" font-family="Helvetica,sans-Serif" font-size="10.00">Sorter::sort_data_copy</text>
</a>
</g>
</g>
<!-- Node1&#45;&gt;Node3 -->
<g id="edge2_Node000001_Node000003" class="edge">
<title>Node1&#45;&gt;Node3</title>
<g id="a_edge2_Node000001_Node000003"><a xlink:title=" ">
<path fill="none" stroke="#63b8ff" d="M175.4,-63C167.03,-63 158.5,-63 150.14,-63"/>
<polygon fill="#63b8ff" stroke="#63b8ff" points="175.52,-66.5 185.52,-63 175.52,-59.5 175.52,-66.5"/>
</a>
</g>
</g>
<!-- Node4 -->
<g id="Node000004" class="node">
<title>Node4</title>
<g id="a_Node000004"><a xlink:href="classMayaFlux_1_1Yantra_1_1StandardSorter_a1ec28359434d38d74bfd4a6e9cd0fe49.html#a1ec28359434d38d74bfd4a6e9cd0fe49" target="_top" xlink:title="Partial sorting implementation.">
<polygon fill="white" stroke="#666666" points="150,-30 0,-30 0,0 150,0 150,-30"/>
<text text-anchor="start" x="8" y="-18" font-family="Helvetica,sans-Serif" font-size="10.00">MayaFlux::Yantra::Standard</text>
<text text-anchor="middle" x="75" y="-7" font-family="Helvetica,sans-Serif" font-size="10.00">Sorter::sort_data_partial</text>
</a>
</g>
</g>
<!-- Node1&#45;&gt;Node4 -->
<g id="edge3_Node000001_Node000004" class="edge">
<title>Node1&#45;&gt;Node4</title>
<g id="a_edge3_Node000001_Node000004"><a xlink:title=" ">
<path fill="none" stroke="#63b8ff" d="M186.08,-45.28C167.83,-40.26 148.15,-34.85 130.54,-30"/>
<polygon fill="#63b8ff" stroke="#63b8ff" points="185.2,-48.67 195.77,-47.94 187.05,-41.92 185.2,-48.67"/>
</a>
</g>
</g>
</g>
</svg>
