<?xml version="1.0" encoding="UTF-8" standalone="no"?>
<!DOCTYPE svg PUBLIC "-//W3C//DTD SVG 1.1//EN"
 "http://www.w3.org/Graphics/SVG/1.1/DTD/svg11.dtd">
<!-- Generated by graphviz version 2.43.0 (0)
 -->
<!-- Title: MayaFlux::internal::live_arena_header Pages: 1 -->
<!--zoomable 173 -->

<svg id="main" version="1.1" xmlns="http://www.w3.org/2000/svg" xmlns:xlink="http://www.w3.org/1999/xlink" xml:space="preserve" onload="init(evt)">
<style type="text/css"><![CDATA[
.node, .edge {opacity: 0.7;}
.node.selected, .edge.selected {opacity: 1;}
.edge:hover path { stroke: red; }
.edge:hover polygon { stroke: red; fill: red; }
]]></style>

<defs>
  <circle id="rim" cx="0" cy="0" r="7"/>
  <circle id="rim2" cx="0" cy="0" r="3.5"/>
  <g id="zoomPlus">
    <use xlink:href="#rim" fill="#404040"><set attributeName="fill" to="#808080" begin="zoomplus.mouseover" end="zoomplus.mouseout"/></use>
    <path d="M-4,0h8M0,-4v8" fill="none" stroke="white" stroke-width="1.5" pointer-events="none"/>
  </g>
  <g id="zoomMin">
    <use xlink:href="#rim" fill="#404040"><set attributeName="fill" to="#808080" begin="zoomminus.mouseover" end="zoomminus.mouseout"/></use>
    <path d="M-4,0h8" fill="none" stroke="white" stroke-width="1.5" pointer-events="none"/>
  </g>
  <g id="arrowUp" transform="translate(30 24)">
    <use xlink:href="#rim"/>
    <path pointer-events="none" fill="none" stroke="white" stroke-width="1.5" d="M0,-3.0v7 M-2.5,-0.5L0,-3.0L2.5,-0.5"/>
  </g>
  <g id="arrowRight" transform="rotate(90) translate(36 -43)">
    <use xlink:href="#rim"/>
    <path pointer-events="none" fill="none" stroke="white" stroke-width="1.5" d="M0,-3.0v7 M-2.5,-0.5L0,-3.0L2.5,-0.5"/>
  </g>
  <g id="arrowDown" transform="rotate(180) translate(-30 -48)">
    <use xlink:href="#rim"/>
    <path pointer-events="none" fill="none" stroke="white" stroke-width="1.5" d="M0,-3.0v7 M-2.5,-0.5L0,-3.0L2.5,-0.5"/>
  </g>
  <g id="arrowLeft" transform="rotate(270) translate(-36 17)">
    <use xlink:href="#rim"/>
    <path pointer-events="none" fill="none" stroke="white" stroke-width="1.5" d="M0,-3.0v7 M-2.5,-0.5L0,-3.0L2.5,-0.5"/>
  </g>
  <g id="resetDef">
    <use xlink:href="#rim2" fill="#404040"><set attributeName="fill" to="#808080" begin="reset.mouseover" end="reset.mouseout"/></use>
  </g>
</defs>
<script type="application/ecmascript">
var viewWidth = 627;
var viewHeight = 173;
var sectionId = 'dynsection-0';
</script>
<script type="application/ecmascript" xlink:href="svg.min.js"/>
<svg id="graph" class="graph">
<g id="viewport">
<title>MayaFlux::internal::live_arena_header</title>
<!-- Node1 -->
<g id="Node000001" class="node">
<title>Node1</title>
<g id="a_Node000001"><a xlink:title="Returns a pointer to the header block at the start of arena storage.">
<polygon fill="#999999" stroke="#666666" points="619,-105.5 506,-105.5 506,-75.5 619,-75.5 619,-105.5"/>
<text text-anchor="start" x="514" y="-93.5" font-family="Helvetica,sans-Serif" font-size="10.00">MayaFlux::internal</text>
<text text-anchor="middle" x="562.5" y="-82.5" font-family="Helvetica,sans-Serif" font-size="10.00">::live_arena_header</text>
</a>
</g>
</g>
<!-- Node2 -->
<g id="Node000002" class="node">
<title>Node2</title>
<g id="a_Node000002"><a xlink:href="namespaceMayaFlux_1_1internal_ac198c636ae0efb46000323e05c20824c.html#ac198c636ae0efb46000323e05c20824c" target="_top" xlink:title="Allocates size bytes from the arena with alignment.">
<polygon fill="white" stroke="#666666" points="276,-155.5 168,-155.5 168,-125.5 276,-125.5 276,-155.5"/>
<text text-anchor="start" x="176" y="-143.5" font-family="Helvetica,sans-Serif" font-size="10.00">MayaFlux::internal</text>
<text text-anchor="middle" x="222" y="-132.5" font-family="Helvetica,sans-Serif" font-size="10.00">::live_arena_alloc</text>
</a>
</g>
</g>
<!-- Node1&#45;&gt;Node2 -->
<g id="edge1_Node000001_Node000002" class="edge">
<title>Node1&#45;&gt;Node2</title>
<g id="a_edge1_Node000001_Node000002"><a xlink:title=" ">
<path fill="none" stroke="#63b8ff" d="M537.69,-112.54C520.36,-127.01 495.54,-144.66 470,-152.5 405.56,-172.28 327.26,-163.28 276.34,-153.37"/>
<polygon fill="#63b8ff" stroke="#63b8ff" points="540.28,-114.93 545.57,-105.75 535.71,-109.63 540.28,-114.93"/>
</a>
</g>
</g>
<!-- Node4 -->
<g id="Node000004" class="node">
<title>Node4</title>
<g id="a_Node000004"><a xlink:href="namespaceMayaFlux_a5e6f7f5efd8933733f33f51850222657.html#a5e6f7f5efd8933733f33f51850222657" target="_top" xlink:title="Dumps all live arena entries to stderr.">
<polygon fill="white" stroke="#666666" points="470,-143 315,-143 315,-124 470,-124 470,-143"/>
<text text-anchor="middle" x="392.5" y="-131" font-family="Helvetica,sans-Serif" font-size="10.00">MayaFlux::live_arena_dump</text>
</a>
</g>
</g>
<!-- Node1&#45;&gt;Node4 -->
<g id="edge3_Node000001_Node000004" class="edge">
<title>Node1&#45;&gt;Node4</title>
<g id="a_edge3_Node000001_Node000004"><a xlink:title=" ">
<path fill="none" stroke="#63b8ff" d="M496.07,-107.77C487.31,-110.05 478.44,-112.35 470,-114.5 457.8,-117.61 444.49,-120.94 432.44,-123.93"/>
<polygon fill="#63b8ff" stroke="#63b8ff" points="497.09,-111.12 505.88,-105.21 495.33,-104.35 497.09,-111.12"/>
</a>
</g>
</g>
<!-- Node5 -->
<g id="Node000005" class="node">
<title>Node5</title>
<g id="a_Node000005"><a xlink:href="namespaceMayaFlux_1_1internal_a874455c63042dd543efe24006b6b2a00.html#a874455c63042dd543efe24006b6b2a00" target="_top" xlink:title="Registers an externally owned shared_ptr under key.">
<polygon fill="white" stroke="#666666" points="279,-86.5 165,-86.5 165,-56.5 279,-56.5 279,-86.5"/>
<text text-anchor="start" x="173" y="-74.5" font-family="Helvetica,sans-Serif" font-size="10.00">MayaFlux::internal</text>
<text text-anchor="middle" x="222" y="-63.5" font-family="Helvetica,sans-Serif" font-size="10.00">::live_arena_expose</text>
</a>
</g>
</g>
<!-- Node1&#45;&gt;Node5 -->
<g id="edge4_Node000001_Node000005" class="edge">
<title>Node1&#45;&gt;Node5</title>
<g id="a_edge4_Node000001_Node000005"><a xlink:title=" ">
<path fill="none" stroke="#63b8ff" d="M503.55,-72.92C492.51,-70.25 480.97,-67.92 470,-66.5 404.92,-58.11 329.4,-61.53 279.17,-65.65"/>
<polygon fill="#63b8ff" stroke="#63b8ff" points="502.97,-76.38 513.52,-75.45 504.69,-69.59 502.97,-76.38"/>
</a>
</g>
</g>
<!-- Node8 -->
<g id="Node000008" class="node">
<title>Node8</title>
<g id="a_Node000008"><a xlink:href="namespaceMayaFlux_1_1internal_ac11d625c73518d5edeea37d66f4f1add.html#ac11d625c73518d5edeea37d66f4f1add" target="_top" xlink:title="Locates an existing directory entry by key.">
<polygon fill="white" stroke="#666666" points="446.5,-105.5 338.5,-105.5 338.5,-75.5 446.5,-75.5 446.5,-105.5"/>
<text text-anchor="start" x="346.5" y="-93.5" font-family="Helvetica,sans-Serif" font-size="10.00">MayaFlux::internal</text>
<text text-anchor="middle" x="392.5" y="-82.5" font-family="Helvetica,sans-Serif" font-size="10.00">::live_arena_find</text>
</a>
</g>
</g>
<!-- Node1&#45;&gt;Node8 -->
<g id="edge7_Node000001_Node000008" class="edge">
<title>Node1&#45;&gt;Node8</title>
<g id="a_edge7_Node000001_Node000008"><a xlink:title=" ">
<path fill="none" stroke="#63b8ff" d="M495.14,-90.5C479.04,-90.5 462.03,-90.5 446.64,-90.5"/>
<polygon fill="#63b8ff" stroke="#63b8ff" points="495.56,-94 505.56,-90.5 495.56,-87 495.56,-94"/>
</a>
</g>
</g>
<!-- Node9 -->
<g id="Node000009" class="node">
<title>Node9</title>
<g id="a_Node000009"><a xlink:href="namespaceMayaFlux_a08d29324268998e88e89de586487e418.html#a08d29324268998e88e89de586487e418" target="_top" xlink:title="Internal implementation for live_cast.">
<polygon fill="white" stroke="#666666" points="463,-19 322,-19 322,0 463,0 463,-19"/>
<text text-anchor="middle" x="392.5" y="-7" font-family="Helvetica,sans-Serif" font-size="10.00">MayaFlux::live_cast_impl</text>
</a>
</g>
</g>
<!-- Node1&#45;&gt;Node9 -->
<g id="edge10_Node000001_Node000009" class="edge">
<title>Node1&#45;&gt;Node9</title>
<g id="a_edge10_Node000001_Node000009"><a xlink:title=" ">
<path fill="none" stroke="#63b8ff" d="M531.97,-69.43C514.55,-57.69 491.72,-43.48 470,-33.5 457.48,-27.75 443.2,-22.86 430.4,-19.02"/>
<polygon fill="#63b8ff" stroke="#63b8ff" points="530.32,-72.54 540.55,-75.3 534.28,-66.76 530.32,-72.54"/>
</a>
</g>
</g>
<!-- Node3 -->
<g id="Node000003" class="node">
<title>Node3</title>
<g id="a_Node000003"><a xlink:href="namespaceMayaFlux_a85dab72a57cc4840e446959f4ead11b1.html#a85dab72a57cc4840e446959f4ead11b1" target="_top" xlink:title="Constructs a T in&#45;place inside the live arena and registers it under key.">
<polygon fill="white" stroke="#666666" points="125,-150 4,-150 4,-131 125,-131 125,-150"/>
<text text-anchor="middle" x="64.5" y="-138" font-family="Helvetica,sans-Serif" font-size="10.00">MayaFlux::make_live</text>
</a>
</g>
</g>
<!-- Node2&#45;&gt;Node3 -->
<g id="edge2_Node000002_Node000003" class="edge">
<title>Node2&#45;&gt;Node3</title>
<g id="a_edge2_Node000002_Node000003"><a xlink:title=" ">
<path fill="none" stroke="#63b8ff" d="M157.71,-140.5C146.91,-140.5 135.71,-140.5 125.01,-140.5"/>
<polygon fill="#63b8ff" stroke="#63b8ff" points="157.92,-144 167.92,-140.5 157.92,-137 157.92,-144"/>
</a>
</g>
</g>
<!-- Node6 -->
<g id="Node000006" class="node">
<title>Node6</title>
<g id="a_Node000006"><a xlink:href="namespaceMayaFlux_a134fdf828e5fdf7b5b829b7238b81a34.html#a134fdf828e5fdf7b5b829b7238b81a34" target="_top" xlink:title="Exposes an existing shared_ptr&#45;managed object to the live arena under key.">
<polygon fill="white" stroke="#666666" points="129,-100 0,-100 0,-81 129,-81 129,-100"/>
<text text-anchor="middle" x="64.5" y="-88" font-family="Helvetica,sans-Serif" font-size="10.00">MayaFlux::expose_live</text>
</a>
</g>
</g>
<!-- Node5&#45;&gt;Node6 -->
<g id="edge5_Node000005_Node000006" class="edge">
<title>Node5&#45;&gt;Node6</title>
<g id="a_edge5_Node000005_Node000006"><a xlink:title=" ">
<path fill="none" stroke="#63b8ff" d="M154.68,-79.6C146.24,-80.63 137.61,-81.69 129.21,-82.72"/>
<polygon fill="#63b8ff" stroke="#63b8ff" points="155.36,-83.05 164.86,-78.36 154.51,-76.1 155.36,-83.05"/>
</a>
</g>
</g>
<!-- Node7 -->
<g id="Node000007" class="node">
<title>Node7</title>
<g id="a_Node000007"><a xlink:href="namespaceMayaFlux_ade26929a1c20b6917d14f66308095ccc.html#ade26929a1c20b6917d14f66308095ccc" target="_top" xlink:title="Exposes an existing raw pointer to the live arena under key.">
<polygon fill="white" stroke="#666666" points="129,-63 0,-63 0,-44 129,-44 129,-63"/>
<text text-anchor="middle" x="64.5" y="-51" font-family="Helvetica,sans-Serif" font-size="10.00">MayaFlux::expose_live</text>
</a>
</g>
</g>
<!-- Node5&#45;&gt;Node7 -->
<g id="edge6_Node000005_Node000007" class="edge">
<title>Node5&#45;&gt;Node7</title>
<g id="a_edge6_Node000005_Node000007"><a xlink:title=" ">
<path fill="none" stroke="#63b8ff" d="M154.68,-63.82C146.24,-62.85 137.61,-61.85 129.21,-60.87"/>
<polygon fill="#63b8ff" stroke="#63b8ff" points="154.52,-67.33 164.86,-65 155.33,-60.37 154.52,-67.33"/>
</a>
</g>
</g>
<!-- Node8&#45;&gt;Node2 -->
<g id="edge8_Node000008_Node000002" class="edge">
<title>Node8&#45;&gt;Node2</title>
<g id="a_edge8_Node000008_Node000002"><a xlink:title=" ">
<path fill="none" stroke="#63b8ff" d="M331.29,-108.37C312.47,-113.95 291.91,-120.05 273.81,-125.42"/>
<polygon fill="#63b8ff" stroke="#63b8ff" points="332.35,-111.7 340.94,-105.5 330.36,-104.99 332.35,-111.7"/>
</a>
</g>
</g>
<!-- Node8&#45;&gt;Node5 -->
<g id="edge9_Node000008_Node000005" class="edge">
<title>Node8&#45;&gt;Node5</title>
<g id="a_edge9_Node000008_Node000005"><a xlink:title=" ">
<path fill="none" stroke="#63b8ff" d="M327.85,-83.32C311.84,-81.52 294.78,-79.59 279.17,-77.83"/>
<polygon fill="#63b8ff" stroke="#63b8ff" points="327.86,-86.85 338.19,-84.49 328.64,-79.89 327.86,-86.85"/>
</a>
</g>
</g>
<!-- Node10 -->
<g id="Node000010" class="node">
<title>Node10</title>
<g id="a_Node000010"><a xlink:href="namespaceMayaFlux_a8096eed31bb3e0b19e7a7b65e84f11a2.html#a8096eed31bb3e0b19e7a7b65e84f11a2" target="_top" xlink:title="Retrieves a live&#45;arena object by key as a shared_ptr&lt;T&gt;.">
<polygon fill="white" stroke="#666666" points="279,-19 165,-19 165,0 279,0 279,-19"/>
<text text-anchor="middle" x="222" y="-7" font-family="Helvetica,sans-Serif" font-size="10.00">MayaFlux::live_cast</text>
</a>
</g>
</g>
<!-- Node9&#45;&gt;Node10 -->
<g id="edge11_Node000009_Node000010" class="edge">
<title>Node9&#45;&gt;Node10</title>
<g id="a_edge11_Node000009_Node000010"><a xlink:title=" ">
<path fill="none" stroke="#63b8ff" d="M311.91,-9.5C300.88,-9.5 289.74,-9.5 279.25,-9.5"/>
<polygon fill="#63b8ff" stroke="#63b8ff" points="311.99,-13 321.99,-9.5 311.99,-6 311.99,-13"/>
</a>
</g>
</g>
</g>
</svg>

<g id="navigator" transform="translate(0 0)" fill="#404254">
  <rect fill="#f2f5e9" fill-opacity="0.5" stroke="#606060" stroke-width=".5" x="0" y="0" width="60" height="60"/>
  <use id="zoomplus" xlink:href="#zoomPlus" x="17" y="9" onmousedown="handleZoom(evt,'in')"/>
  <use id="zoomminus" xlink:href="#zoomMin" x="42" y="9" onmousedown="handleZoom(evt,'out')"/>
  <use id="reset" xlink:href="#resetDef" x="30" y="36" onmousedown="handleReset()"/>
   <use id="arrowup" xlink:href="#arrowUp" x="0" y="0" onmousedown="handlePan(0,-1)"/>
  <use id="arrowright" xlink:href="#arrowRight" x="0" y="0" onmousedown="handlePan(1,0)"/>
  <use id="arrowdown" xlink:href="#arrowDown" x="0" y="0" onmousedown="handlePan(0,1)"/>
  <use id="arrowleft" xlink:href="#arrowLeft" x="0" y="0" onmousedown="handlePan(-1,0)"/>
</g>
<svg viewBox="0 0 15 15" width="100%" height="30px" preserveAspectRatio="xMaxYMin meet">
 <g id="arrow_out" transform="scale(0.3 0.3)">
  <a xlink:href="namespaceMayaFlux_1_1internal_a7b0204ba7b00dc8bba221e2cf70d7ff4_a7b0204ba7b00dc8bba221e2cf70d7ff4_icgraph_org.svg" target="_base">
   <rect id="button" ry="5" rx="5" y="6" x="6" height="38" width="38"
        fill="#f2f5e9" fill-opacity="0.5" stroke="#606060" stroke-width="1.0"/>
   <path id="arrow"
     d="M 11.500037,31.436501 C 11.940474,20.09759 22.043105,11.32322 32.158766,21.979434 L 37.068811,17.246167 C 37.068811,17.246167 37.088388,32 37.088388,32 L 22.160133,31.978069 C 22.160133,31.978069 26.997745,27.140456 26.997745,27.140456 C 18.528582,18.264221 13.291696,25.230495 11.500037,31.436501 z"
     style="fill:#404040;"/>
  </a>
 </g>
</svg>

<style type='text/css'>
<![CDATA[
[data-mouse-over-selected='false'] { opacity: 0.7; }
[data-mouse-over-selected='true']  { opacity: 1.0; }
]]>
</style>
<script type="application/ecmascript"><![CDATA[
document.addEventListener('DOMContentLoaded', (event) => {
  highlightEdges();
  highlightAdjacentNodes();
});
]]></script>
</svg>
