<?xml version="1.0" encoding="UTF-8" standalone="no"?>
<!DOCTYPE svg PUBLIC "-//W3C//DTD SVG 1.1//EN"
 "http://www.w3.org/Graphics/SVG/1.1/DTD/svg11.dtd">
<!-- Generated by graphviz version 2.43.0 (0)
 -->
<!-- Title: MayaFlux::on_key_pressed Pages: 1 -->
<!--zoomable 132 -->

<svg id="main" version="1.1" xmlns="http://www.w3.org/2000/svg" xmlns:xlink="http://www.w3.org/1999/xlink" xml:space="preserve" onload="init(evt)">
<style type="text/css"><![CDATA[
.node, .edge {opacity: 0.7;}
.node.selected, .edge.selected {opacity: 1;}
.edge:hover path { stroke: red; }
.edge:hover polygon { stroke: red; fill: red; }
]]></style>

<defs>
  <circle id="rim" cx="0" cy="0" r="7"/>
  <circle id="rim2" cx="0" cy="0" r="3.5"/>
  <g id="zoomPlus">
    <use xlink:href="#rim" fill="#404040"><set attributeName="fill" to="#808080" begin="zoomplus.mouseover" end="zoomplus.mouseout"/></use>
    <path d="M-4,0h8M0,-4v8" fill="none" stroke="white" stroke-width="1.5" pointer-events="none"/>
  </g>
  <g id="zoomMin">
    <use xlink:href="#rim" fill="#404040"><set attributeName="fill" to="#808080" begin="zoomminus.mouseover" end="zoomminus.mouseout"/></use>
    <path d="M-4,0h8" fill="none" stroke="white" stroke-width="1.5" pointer-events="none"/>
  </g>
  <g id="arrowUp" transform="translate(30 24)">
    <use xlink:href="#rim"/>
    <path pointer-events="none" fill="none" stroke="white" stroke-width="1.5" d="M0,-3.0v7 M-2.5,-0.5L0,-3.0L2.5,-0.5"/>
  </g>
  <g id="arrowRight" transform="rotate(90) translate(36 -43)">
    <use xlink:href="#rim"/>
    <path pointer-events="none" fill="none" stroke="white" stroke-width="1.5" d="M0,-3.0v7 M-2.5,-0.5L0,-3.0L2.5,-0.5"/>
  </g>
  <g id="arrowDown" transform="rotate(180) translate(-30 -48)">
    <use xlink:href="#rim"/>
    <path pointer-events="none" fill="none" stroke="white" stroke-width="1.5" d="M0,-3.0v7 M-2.5,-0.5L0,-3.0L2.5,-0.5"/>
  </g>
  <g id="arrowLeft" transform="rotate(270) translate(-36 17)">
    <use xlink:href="#rim"/>
    <path pointer-events="none" fill="none" stroke="white" stroke-width="1.5" d="M0,-3.0v7 M-2.5,-0.5L0,-3.0L2.5,-0.5"/>
  </g>
  <g id="resetDef">
    <use xlink:href="#rim2" fill="#404040"><set attributeName="fill" to="#808080" begin="reset.mouseover" end="reset.mouseout"/></use>
  </g>
</defs>
<script type="application/ecmascript">
var viewWidth = 1115;
var viewHeight = 132;
var sectionId = 'dynsection-0';
</script>
<script type="application/ecmascript" xlink:href="svg.min.js"/>
<svg id="graph" class="graph">
<g id="viewport">
<title>MayaFlux::on_key_pressed</title>
<!-- Node1 -->
<g id="Node000001" class="node">
<title>Node1</title>
<g id="a_Node000001"><a xlink:title="Schedule a key press handler.">
<polygon fill="#999999" stroke="#666666" points="149,-48.5 0,-48.5 0,-29.5 149,-29.5 149,-48.5"/>
<text text-anchor="middle" x="74.5" y="-36.5" font-family="Helvetica,sans-Serif" font-size="10.00">MayaFlux::on_key_pressed</text>
</a>
</g>
</g>
<!-- Node2 -->
<g id="Node000002" class="node">
<title>Node2</title>
<g id="a_Node000002"><a xlink:href="namespaceMayaFlux_a0dfe4501e157cd6e14b62baab5fa9b84.html#a0dfe4501e157cd6e14b62baab5fa9b84" target="_top" xlink:title="Gets the event manager from the default engine.">
<polygon fill="white" stroke="#666666" points="304,-78 185,-78 185,-48 304,-48 304,-78"/>
<text text-anchor="start" x="193" y="-66" font-family="Helvetica,sans-Serif" font-size="10.00">MayaFlux::get_event</text>
<text text-anchor="middle" x="244.5" y="-55" font-family="Helvetica,sans-Serif" font-size="10.00">_manager</text>
</a>
</g>
</g>
<!-- Node1&#45;&gt;Node2 -->
<g id="edge1_Node000001_Node000002" class="edge">
<title>Node1&#45;&gt;Node2</title>
<g id="a_edge1_Node000001_Node000002"><a xlink:title=" ">
<path fill="none" stroke="#63b8ff" d="M142.38,-48.55C153.06,-50.08 164.12,-51.66 174.84,-53.19"/>
<polygon fill="#63b8ff" stroke="#63b8ff" points="174.6,-56.69 184.99,-54.64 175.59,-49.76 174.6,-56.69"/>
</a>
</g>
</g>
<!-- Node11 -->
<g id="Node000011" class="node">
<title>Node11</title>
<g id="a_Node000011"><a xlink:href="namespaceMayaFlux_1_1Kriya_a26ea8275b201cc7cf821b0fbde8d852d.html#a26ea8275b201cc7cf821b0fbde8d852d" target="_top" xlink:title="Creates an Event coroutine that triggers on specific key press.">
<polygon fill="white" stroke="#666666" points="304,-30 185,-30 185,0 304,0 304,-30"/>
<text text-anchor="start" x="193" y="-18" font-family="Helvetica,sans-Serif" font-size="10.00">MayaFlux::Kriya::key</text>
<text text-anchor="middle" x="244.5" y="-7" font-family="Helvetica,sans-Serif" font-size="10.00">_pressed</text>
</a>
</g>
</g>
<!-- Node1&#45;&gt;Node11 -->
<g id="edge10_Node000001_Node000011" class="edge">
<title>Node1&#45;&gt;Node11</title>
<g id="a_edge10_Node000001_Node000011"><a xlink:title=" ">
<path fill="none" stroke="#63b8ff" d="M142.38,-29.45C153.06,-27.92 164.12,-26.34 174.84,-24.81"/>
<polygon fill="#63b8ff" stroke="#63b8ff" points="175.59,-28.24 184.99,-23.36 174.6,-21.31 175.59,-28.24"/>
</a>
</g>
</g>
<!-- Node3 -->
<g id="Node000003" class="node">
<title>Node3</title>
<g id="a_Node000003"><a xlink:href="namespaceMayaFlux_ac4ab74951370ff0dd899203f3b94c775.html#ac4ab74951370ff0dd899203f3b94c775" target="_top" xlink:title="Gets the default engine instance.">
<polygon fill="white" stroke="#666666" points="470,-94.5 342,-94.5 342,-75.5 470,-75.5 470,-94.5"/>
<text text-anchor="middle" x="406" y="-82.5" font-family="Helvetica,sans-Serif" font-size="10.00">MayaFlux::get_context</text>
</a>
</g>
</g>
<!-- Node2&#45;&gt;Node3 -->
<g id="edge2_Node000002_Node000003" class="edge">
<title>Node2&#45;&gt;Node3</title>
<g id="a_edge2_Node000002_Node000003"><a xlink:title=" ">
<path fill="none" stroke="#63b8ff" d="M304.44,-71.13C313.27,-72.35 322.47,-73.62 331.56,-74.87"/>
<polygon fill="#63b8ff" stroke="#63b8ff" points="331.37,-78.38 341.75,-76.28 332.32,-71.44 331.37,-78.38"/>
</a>
</g>
</g>
<!-- Node10 -->
<g id="Node000010" class="node">
<title>Node10</title>
<g id="a_Node000010"><a xlink:href="classMayaFlux_1_1Core_1_1Engine_ab7563eb97d9ca4dc3f7df55db3ebed03.html#ab7563eb97d9ca4dc3f7df55db3ebed03" target="_top" xlink:title="Gets the event manager.">
<polygon fill="white" stroke="#666666" points="472,-57 340,-57 340,-27 472,-27 472,-57"/>
<text text-anchor="start" x="348" y="-45" font-family="Helvetica,sans-Serif" font-size="10.00">MayaFlux::Core::Engine</text>
<text text-anchor="middle" x="406" y="-34" font-family="Helvetica,sans-Serif" font-size="10.00">::get_event_manager</text>
</a>
</g>
</g>
<!-- Node2&#45;&gt;Node10 -->
<g id="edge9_Node000002_Node000010" class="edge">
<title>Node2&#45;&gt;Node10</title>
<g id="a_edge9_Node000002_Node000010"><a xlink:title=" ">
<path fill="none" stroke="#63b8ff" d="M304.44,-55.24C312.73,-54.15 321.35,-53.01 329.89,-51.89"/>
<polygon fill="#63b8ff" stroke="#63b8ff" points="330.4,-55.35 339.86,-50.58 329.49,-48.41 330.4,-55.35"/>
</a>
</g>
</g>
<!-- Node4 -->
<g id="Node000004" class="node">
<title>Node4</title>
<g id="a_Node000004"><a xlink:href="namespaceMayaFlux_1_1internal_ac0f0b4b1cae6af4441db0ea022e15583.html#ac0f0b4b1cae6af4441db0ea022e15583" target="_top" xlink:title=" ">
<polygon fill="white" stroke="#666666" points="636,-100 508,-100 508,-70 636,-70 636,-100"/>
<text text-anchor="start" x="516" y="-88" font-family="Helvetica,sans-Serif" font-size="10.00">MayaFlux::internal</text>
<text text-anchor="middle" x="572" y="-77" font-family="Helvetica,sans-Serif" font-size="10.00">::get_or_create_engine</text>
</a>
</g>
</g>
<!-- Node3&#45;&gt;Node4 -->
<g id="edge3_Node000003_Node000004" class="edge">
<title>Node3&#45;&gt;Node4</title>
<g id="a_edge3_Node000003_Node000004"><a xlink:title=" ">
<path fill="none" stroke="#63b8ff" d="M470.41,-85C479.31,-85 488.53,-85 497.6,-85"/>
<polygon fill="#63b8ff" stroke="#63b8ff" points="497.76,-88.5 507.76,-85 497.76,-81.5 497.76,-88.5"/>
</a>
</g>
</g>
<!-- Node5 -->
<g id="Node000005" class="node">
<title>Node5</title>
<g id="a_Node000005"><a xlink:href="namespaceMayaFlux_1_1internal_a3cc5413e05c2f9c9f04372841aa0a5b1.html#a3cc5413e05c2f9c9f04372841aa0a5b1" target="_top" xlink:title=" ">
<polygon fill="white" stroke="#666666" points="780,-100 672,-100 672,-70 780,-70 780,-100"/>
<text text-anchor="start" x="680" y="-88" font-family="Helvetica,sans-Serif" font-size="10.00">MayaFlux::internal</text>
<text text-anchor="middle" x="726" y="-77" font-family="Helvetica,sans-Serif" font-size="10.00">::cleanup_engine</text>
</a>
</g>
</g>
<!-- Node4&#45;&gt;Node5 -->
<g id="edge4_Node000004_Node000005" class="edge">
<title>Node4&#45;&gt;Node5</title>
<g id="a_edge4_Node000004_Node000005"><a xlink:title=" ">
<path fill="none" stroke="#63b8ff" d="M636.14,-85C644.61,-85 653.29,-85 661.76,-85"/>
<polygon fill="#63b8ff" stroke="#63b8ff" points="661.95,-88.5 671.95,-85 661.95,-81.5 661.95,-88.5"/>
</a>
</g>
</g>
<!-- Node6 -->
<g id="Node000006" class="node">
<title>Node6</title>
<g id="a_Node000006"><a xlink:href="namespaceMayaFlux_1_1internal_ac4d6952d58cdfd56964a883d40aa655d.html#ac4d6952d58cdfd56964a883d40aa655d" target="_top" xlink:title=" ">
<polygon fill="white" stroke="#666666" points="961,-124 816,-124 816,-94 961,-94 961,-124"/>
<text text-anchor="start" x="824" y="-112" font-family="Helvetica,sans-Serif" font-size="10.00">MayaFlux::internal</text>
<text text-anchor="middle" x="888.5" y="-101" font-family="Helvetica,sans-Serif" font-size="10.00">::cleanup_persistent_store</text>
</a>
</g>
</g>
<!-- Node5&#45;&gt;Node6 -->
<g id="edge5_Node000005_Node000006" class="edge">
<title>Node5&#45;&gt;Node6</title>
<g id="a_edge5_Node000005_Node000006"><a xlink:title=" ">
<path fill="none" stroke="#63b8ff" d="M780.44,-92.99C788.57,-94.21 797.11,-95.48 805.68,-96.77"/>
<polygon fill="#63b8ff" stroke="#63b8ff" points="805.31,-100.25 815.72,-98.27 806.35,-93.33 805.31,-100.25"/>
</a>
</g>
</g>
<!-- Node8 -->
<g id="Node000008" class="node">
<title>Node8</title>
<g id="a_Node000008"><a xlink:href="classMayaFlux_1_1Journal_1_1Archivist_a82e2d12db8781df4afc43ef4c1fba2be.html#a82e2d12db8781df4afc43ef4c1fba2be" target="_top" xlink:title="Shutdown the logging system.">
<polygon fill="white" stroke="#666666" points="945,-76 832,-76 832,-46 945,-46 945,-76"/>
<text text-anchor="start" x="840" y="-64" font-family="Helvetica,sans-Serif" font-size="10.00">MayaFlux::Journal::</text>
<text text-anchor="middle" x="888.5" y="-53" font-family="Helvetica,sans-Serif" font-size="10.00">Archivist::shutdown</text>
</a>
</g>
</g>
<!-- Node5&#45;&gt;Node8 -->
<g id="edge7_Node000005_Node000008" class="edge">
<title>Node5&#45;&gt;Node8</title>
<g id="a_edge7_Node000005_Node000008"><a xlink:title=" ">
<path fill="none" stroke="#63b8ff" d="M780.44,-77.01C793.73,-75.02 808.11,-72.87 821.91,-70.81"/>
<polygon fill="#63b8ff" stroke="#63b8ff" points="822.44,-74.27 831.82,-69.33 821.41,-67.34 822.44,-74.27"/>
</a>
</g>
</g>
<!-- Node7 -->
<g id="Node000007" class="node">
<title>Node7</title>
<g id="a_Node000007"><a xlink:href="namespaceMayaFlux_1_1internal_ac26a7a92aa4af34c366aad03b68ea71e.html#ac26a7a92aa4af34c366aad03b68ea71e" target="_top" xlink:title=" ">
<polygon fill="white" stroke="#666666" points="1106,-124 998,-124 998,-94 1106,-94 1106,-124"/>
<text text-anchor="start" x="1006" y="-112" font-family="Helvetica,sans-Serif" font-size="10.00">MayaFlux::internal</text>
<text text-anchor="middle" x="1052" y="-101" font-family="Helvetica,sans-Serif" font-size="10.00">::persistent_store</text>
</a>
</g>
</g>
<!-- Node6&#45;&gt;Node7 -->
<g id="edge6_Node000006_Node000007" class="edge">
<title>Node6&#45;&gt;Node7</title>
<g id="a_edge6_Node000006_Node000007"><a xlink:title=" ">
<path fill="none" stroke="#63b8ff" d="M961.28,-109C970.12,-109 979.1,-109 987.8,-109"/>
<polygon fill="#63b8ff" stroke="#63b8ff" points="987.86,-112.5 997.86,-109 987.86,-105.5 987.86,-112.5"/>
</a>
</g>
</g>
<!-- Node9 -->
<g id="Node000009" class="node">
<title>Node9</title>
<g id="a_Node000009"><a xlink:href="classMayaFlux_1_1Journal_1_1Archivist_a8b7829e34d79ec5bbbf02e3d4afbdab9.html#a8b7829e34d79ec5bbbf02e3d4afbdab9" target="_top" xlink:title="Get the singleton instance of the Archivist.">
<polygon fill="white" stroke="#666666" points="1107,-76 997,-76 997,-46 1107,-46 1107,-76"/>
<text text-anchor="start" x="1005" y="-64" font-family="Helvetica,sans-Serif" font-size="10.00">MayaFlux::Journal::</text>
<text text-anchor="middle" x="1052" y="-53" font-family="Helvetica,sans-Serif" font-size="10.00">Archivist::instance</text>
</a>
</g>
</g>
<!-- Node8&#45;&gt;Node9 -->
<g id="edge8_Node000008_Node000009" class="edge">
<title>Node8&#45;&gt;Node9</title>
<g id="a_edge8_Node000008_Node000009"><a xlink:title=" ">
<path fill="none" stroke="#63b8ff" d="M945.08,-61C958.46,-61 972.86,-61 986.6,-61"/>
<polygon fill="#63b8ff" stroke="#63b8ff" points="986.96,-64.5 996.96,-61 986.96,-57.5 986.96,-64.5"/>
</a>
</g>
</g>
</g>
</svg>

<g id="navigator" transform="translate(0 0)" fill="#404254">
  <rect fill="#f2f5e9" fill-opacity="0.5" stroke="#606060" stroke-width=".5" x="0" y="0" width="60" height="60"/>
  <use id="zoomplus" xlink:href="#zoomPlus" x="17" y="9" onmousedown="handleZoom(evt,'in')"/>
  <use id="zoomminus" xlink:href="#zoomMin" x="42" y="9" onmousedown="handleZoom(evt,'out')"/>
  <use id="reset" xlink:href="#resetDef" x="30" y="36" onmousedown="handleReset()"/>
   <use id="arrowup" xlink:href="#arrowUp" x="0" y="0" onmousedown="handlePan(0,-1)"/>
  <use id="arrowright" xlink:href="#arrowRight" x="0" y="0" onmousedown="handlePan(1,0)"/>
  <use id="arrowdown" xlink:href="#arrowDown" x="0" y="0" onmousedown="handlePan(0,1)"/>
  <use id="arrowleft" xlink:href="#arrowLeft" x="0" y="0" onmousedown="handlePan(-1,0)"/>
</g>
<svg viewBox="0 0 15 15" width="100%" height="30px" preserveAspectRatio="xMaxYMin meet">
 <g id="arrow_out" transform="scale(0.3 0.3)">
  <a xlink:href="namespaceMayaFlux_af9fb24f66b99c0cda04201284a219677_af9fb24f66b99c0cda04201284a219677_cgraph_org.svg" target="_base">
   <rect id="button" ry="5" rx="5" y="6" x="6" height="38" width="38"
        fill="#f2f5e9" fill-opacity="0.5" stroke="#606060" stroke-width="1.0"/>
   <path id="arrow"
     d="M 11.500037,31.436501 C 11.940474,20.09759 22.043105,11.32322 32.158766,21.979434 L 37.068811,17.246167 C 37.068811,17.246167 37.088388,32 37.088388,32 L 22.160133,31.978069 C 22.160133,31.978069 26.997745,27.140456 26.997745,27.140456 C 18.528582,18.264221 13.291696,25.230495 11.500037,31.436501 z"
     style="fill:#404040;"/>
  </a>
 </g>
</svg>

<style type='text/css'>
<![CDATA[
[data-mouse-over-selected='false'] { opacity: 0.7; }
[data-mouse-over-selected='true']  { opacity: 1.0; }
]]>
</style>
<script type="application/ecmascript"><![CDATA[
document.addEventListener('DOMContentLoaded', (event) => {
  highlightEdges();
  highlightAdjacentNodes();
});
]]></script>
</svg>
