<?xml version="1.0" encoding="UTF-8" standalone="no"?>
<!DOCTYPE svg PUBLIC "-//W3C//DTD SVG 1.1//EN"
 "http://www.w3.org/Graphics/SVG/1.1/DTD/svg11.dtd">
<!-- Generated by graphviz version 2.43.0 (0)
 -->
<!-- Title: MayaFlux::Portal::Text::impress Pages: 1 -->
<!--zoomable 230 -->

<svg id="main" version="1.1" xmlns="http://www.w3.org/2000/svg" xmlns:xlink="http://www.w3.org/1999/xlink" xml:space="preserve" onload="init(evt)">
<style type="text/css"><![CDATA[
.node, .edge {opacity: 0.7;}
.node.selected, .edge.selected {opacity: 1;}
.edge:hover path { stroke: red; }
.edge:hover polygon { stroke: red; fill: red; }
]]></style>

<defs>
  <circle id="rim" cx="0" cy="0" r="7"/>
  <circle id="rim2" cx="0" cy="0" r="3.5"/>
  <g id="zoomPlus">
    <use xlink:href="#rim" fill="#404040"><set attributeName="fill" to="#808080" begin="zoomplus.mouseover" end="zoomplus.mouseout"/></use>
    <path d="M-4,0h8M0,-4v8" fill="none" stroke="white" stroke-width="1.5" pointer-events="none"/>
  </g>
  <g id="zoomMin">
    <use xlink:href="#rim" fill="#404040"><set attributeName="fill" to="#808080" begin="zoomminus.mouseover" end="zoomminus.mouseout"/></use>
    <path d="M-4,0h8" fill="none" stroke="white" stroke-width="1.5" pointer-events="none"/>
  </g>
  <g id="arrowUp" transform="translate(30 24)">
    <use xlink:href="#rim"/>
    <path pointer-events="none" fill="none" stroke="white" stroke-width="1.5" d="M0,-3.0v7 M-2.5,-0.5L0,-3.0L2.5,-0.5"/>
  </g>
  <g id="arrowRight" transform="rotate(90) translate(36 -43)">
    <use xlink:href="#rim"/>
    <path pointer-events="none" fill="none" stroke="white" stroke-width="1.5" d="M0,-3.0v7 M-2.5,-0.5L0,-3.0L2.5,-0.5"/>
  </g>
  <g id="arrowDown" transform="rotate(180) translate(-30 -48)">
    <use xlink:href="#rim"/>
    <path pointer-events="none" fill="none" stroke="white" stroke-width="1.5" d="M0,-3.0v7 M-2.5,-0.5L0,-3.0L2.5,-0.5"/>
  </g>
  <g id="arrowLeft" transform="rotate(270) translate(-36 17)">
    <use xlink:href="#rim"/>
    <path pointer-events="none" fill="none" stroke="white" stroke-width="1.5" d="M0,-3.0v7 M-2.5,-0.5L0,-3.0L2.5,-0.5"/>
  </g>
  <g id="resetDef">
    <use xlink:href="#rim2" fill="#404040"><set attributeName="fill" to="#808080" begin="reset.mouseover" end="reset.mouseout"/></use>
  </g>
</defs>
<script type="application/ecmascript">
var viewWidth = 813;
var viewHeight = 230;
var sectionId = 'dynsection-0';
</script>
<script type="application/ecmascript" xlink:href="svg.min.js"/>
<svg id="graph" class="graph">
<g id="viewport">
<title>MayaFlux::Portal::Text::impress</title>
<!-- Node1 -->
<g id="Node000001" class="node">
<title>Node1</title>
<g id="a_Node000001"><a xlink:title="Append a UTF&#45;8 string into an existing TextBuffer at the current cursor.">
<polygon fill="#999999" stroke="#666666" points="125,-152 0,-152 0,-122 125,-122 125,-152"/>
<text text-anchor="start" x="8" y="-140" font-family="Helvetica,sans-Serif" font-size="10.00">MayaFlux::Portal::Text</text>
<text text-anchor="middle" x="62.5" y="-129" font-family="Helvetica,sans-Serif" font-size="10.00">::impress</text>
</a>
</g>
</g>
<!-- Node2 -->
<g id="Node000002" class="node">
<title>Node2</title>
<g id="a_Node000002"><a xlink:href="namespaceMayaFlux_1_1Portal_1_1Text_a522e05c65ba0e3717be6b0eb9641284d.html#a522e05c65ba0e3717be6b0eb9641284d" target="_top" xlink:title="Lay out a UTF&#45;8 string into a sequence of screen&#45;space quads.">
<polygon fill="white" stroke="#666666" points="286,-195 161,-195 161,-165 286,-165 286,-195"/>
<text text-anchor="start" x="169" y="-183" font-family="Helvetica,sans-Serif" font-size="10.00">MayaFlux::Portal::Text</text>
<text text-anchor="middle" x="223.5" y="-172" font-family="Helvetica,sans-Serif" font-size="10.00">::lay_out</text>
</a>
</g>
</g>
<!-- Node1&#45;&gt;Node2 -->
<g id="edge1_Node000001_Node000002" class="edge">
<title>Node1&#45;&gt;Node2</title>
<g id="a_edge1_Node000001_Node000002"><a xlink:title=" ">
<path fill="none" stroke="#63b8ff" d="M119.11,-152.04C131.34,-155.35 144.39,-158.88 156.96,-162.28"/>
<polygon fill="#63b8ff" stroke="#63b8ff" points="156.35,-165.74 166.92,-164.97 158.18,-158.98 156.35,-165.74"/>
</a>
</g>
</g>
<!-- Node6 -->
<g id="Node000006" class="node">
<title>Node6</title>
<g id="a_Node000006"><a xlink:href="classMayaFlux_1_1Portal_1_1Text_1_1GlyphAtlas_abcf654455e02ba66cb60f60dc3aa6880.html#abcf654455e02ba66cb60f60dc3aa6880" target="_top" xlink:title="Line advance in pixels for this atlas&#39;s pixel_size.">
<polygon fill="white" stroke="#666666" points="470.5,-174 334.5,-174 334.5,-144 470.5,-144 470.5,-174"/>
<text text-anchor="start" x="342.5" y="-162" font-family="Helvetica,sans-Serif" font-size="10.00">MayaFlux::Portal::Text</text>
<text text-anchor="middle" x="402.5" y="-151" font-family="Helvetica,sans-Serif" font-size="10.00">::GlyphAtlas::line_height</text>
</a>
</g>
</g>
<!-- Node1&#45;&gt;Node6 -->
<g id="edge7_Node000001_Node000006" class="edge">
<title>Node1&#45;&gt;Node6</title>
<g id="a_edge7_Node000001_Node000006"><a xlink:title=" ">
<path fill="none" stroke="#63b8ff" d="M125.1,-141.01C180.99,-144.65 263.64,-150.03 324,-153.96"/>
<polygon fill="#63b8ff" stroke="#63b8ff" points="324.03,-157.46 334.24,-154.62 324.49,-150.48 324.03,-157.46"/>
</a>
</g>
</g>
<!-- Node7 -->
<g id="Node000007" class="node">
<title>Node7</title>
<g id="a_Node000007"><a xlink:href="namespaceMayaFlux_1_1Portal_1_1Text_a17ac9505e8d9ad50aab019db4abf56f3.html#a17ac9505e8d9ad50aab019db4abf56f3" target="_top" xlink:title="Write glyph quads into a caller&#45;provided RGBA8 pixel buffer.">
<polygon fill="white" stroke="#666666" points="286,-104 161,-104 161,-74 286,-74 286,-104"/>
<text text-anchor="start" x="169" y="-92" font-family="Helvetica,sans-Serif" font-size="10.00">MayaFlux::Portal::Text</text>
<text text-anchor="middle" x="223.5" y="-81" font-family="Helvetica,sans-Serif" font-size="10.00">::rasterize_quads</text>
</a>
</g>
</g>
<!-- Node1&#45;&gt;Node7 -->
<g id="edge8_Node000001_Node000007" class="edge">
<title>Node1&#45;&gt;Node7</title>
<g id="a_edge8_Node000001_Node000007"><a xlink:title=" ">
<path fill="none" stroke="#63b8ff" d="M113.37,-121.94C129.06,-117.21 146.54,-111.93 162.84,-107.01"/>
<polygon fill="#63b8ff" stroke="#63b8ff" points="164.24,-110.24 172.8,-104 162.22,-103.54 164.24,-110.24"/>
</a>
</g>
</g>
<!-- Node3 -->
<g id="Node000003" class="node">
<title>Node3</title>
<g id="a_Node000003"><a xlink:href="classMayaFlux_1_1Portal_1_1Text_1_1GlyphAtlas_acd3a40ac86a5630200940400072dccfa.html#acd3a40ac86a5630200940400072dccfa" target="_top" xlink:title="Return metrics for a glyph, rasterizing it into the atlas if needed.">
<polygon fill="white" stroke="#666666" points="483,-222 322,-222 322,-192 483,-192 483,-222"/>
<text text-anchor="start" x="330" y="-210" font-family="Helvetica,sans-Serif" font-size="10.00">MayaFlux::Portal::Text</text>
<text text-anchor="middle" x="402.5" y="-199" font-family="Helvetica,sans-Serif" font-size="10.00">::GlyphAtlas::get_or_rasterize</text>
</a>
</g>
</g>
<!-- Node2&#45;&gt;Node3 -->
<g id="edge2_Node000002_Node000003" class="edge">
<title>Node2&#45;&gt;Node3</title>
<g id="a_edge2_Node000002_Node000003"><a xlink:title=" ">
<path fill="none" stroke="#63b8ff" d="M286.41,-189.44C294.65,-190.7 303.23,-192.01 311.82,-193.32"/>
<polygon fill="#63b8ff" stroke="#63b8ff" points="311.48,-196.81 321.9,-194.86 312.54,-189.89 311.48,-196.81"/>
</a>
</g>
</g>
<!-- Node2&#45;&gt;Node6 -->
<g id="edge5_Node000002_Node000006" class="edge">
<title>Node2&#45;&gt;Node6</title>
<g id="a_edge5_Node000002_Node000006"><a xlink:title=" ">
<path fill="none" stroke="#63b8ff" d="M286.41,-172.66C298.6,-171.21 311.53,-169.67 324.16,-168.18"/>
<polygon fill="#63b8ff" stroke="#63b8ff" points="324.68,-171.64 334.2,-166.98 323.86,-164.69 324.68,-171.64"/>
</a>
</g>
</g>
<!-- Node4 -->
<g id="Node000004" class="node">
<title>Node4</title>
<g id="a_Node000004"><a xlink:href="classMayaFlux_1_1Portal_1_1Text_1_1GlyphAtlas_acf50eee0b2cefa0a2a03d4de8720e36f.html#acf50eee0b2cefa0a2a03d4de8720e36f" target="_top" xlink:title=" ">
<polygon fill="white" stroke="#666666" points="644,-220 519,-220 519,-190 644,-190 644,-220"/>
<text text-anchor="start" x="527" y="-208" font-family="Helvetica,sans-Serif" font-size="10.00">MayaFlux::Portal::Text</text>
<text text-anchor="middle" x="581.5" y="-197" font-family="Helvetica,sans-Serif" font-size="10.00">::GlyphAtlas::rasterize</text>
</a>
</g>
</g>
<!-- Node3&#45;&gt;Node4 -->
<g id="edge3_Node000003_Node000004" class="edge">
<title>Node3&#45;&gt;Node4</title>
<g id="a_edge3_Node000003_Node000004"><a xlink:title=" ">
<path fill="none" stroke="#63b8ff" d="M483.2,-206.1C491.68,-206 500.27,-205.91 508.65,-205.81"/>
<polygon fill="#63b8ff" stroke="#63b8ff" points="508.79,-209.31 518.75,-205.7 508.71,-202.31 508.79,-209.31"/>
</a>
</g>
</g>
<!-- Node5 -->
<g id="Node000005" class="node">
<title>Node5</title>
<g id="a_Node000005"><a xlink:href="classMayaFlux_1_1Portal_1_1Text_1_1FontFace_accda82c104b9bee41559e89f118f5e5f.html#accda82c104b9bee41559e89f118f5e5f" target="_top" xlink:title="Raw FT_Face handle for use by GlyphAtlas.">
<polygon fill="white" stroke="#666666" points="805,-197 680,-197 680,-167 805,-167 805,-197"/>
<text text-anchor="start" x="688" y="-185" font-family="Helvetica,sans-Serif" font-size="10.00">MayaFlux::Portal::Text</text>
<text text-anchor="middle" x="742.5" y="-174" font-family="Helvetica,sans-Serif" font-size="10.00">::FontFace::get_face</text>
</a>
</g>
</g>
<!-- Node4&#45;&gt;Node5 -->
<g id="edge4_Node000004_Node000005" class="edge">
<title>Node4&#45;&gt;Node5</title>
<g id="a_edge4_Node000004_Node000005"><a xlink:title=" ">
<path fill="none" stroke="#63b8ff" d="M644.43,-196.04C652.67,-194.85 661.18,-193.62 669.58,-192.4"/>
<polygon fill="#63b8ff" stroke="#63b8ff" points="670.34,-195.83 679.74,-190.93 669.34,-188.9 670.34,-195.83"/>
</a>
</g>
</g>
<!-- Node6&#45;&gt;Node5 -->
<g id="edge6_Node000006_Node000005" class="edge">
<title>Node6&#45;&gt;Node5</title>
<g id="a_edge6_Node000006_Node000005"><a xlink:title=" ">
<path fill="none" stroke="#63b8ff" d="M470.68,-163.57C528.16,-167.48 610.7,-173.1 669.52,-177.1"/>
<polygon fill="#63b8ff" stroke="#63b8ff" points="669.64,-180.62 679.85,-177.8 670.11,-173.63 669.64,-180.62"/>
</a>
</g>
</g>
<!-- Node8 -->
<g id="Node000008" class="node">
<title>Node8</title>
<g id="a_Node000008"><a xlink:href="classMayaFlux_1_1Portal_1_1Text_1_1GlyphAtlas_af19455784bf36672a17bfc98d23a9516.html#af19455784bf36672a17bfc98d23a9516" target="_top" xlink:title="Atlas texture dimension (width == height == atlas_size).">
<polygon fill="white" stroke="#666666" points="468,-126 337,-126 337,-96 468,-96 468,-126"/>
<text text-anchor="start" x="345" y="-114" font-family="Helvetica,sans-Serif" font-size="10.00">MayaFlux::Portal::Text</text>
<text text-anchor="middle" x="402.5" y="-103" font-family="Helvetica,sans-Serif" font-size="10.00">::GlyphAtlas::atlas_size</text>
</a>
</g>
</g>
<!-- Node7&#45;&gt;Node8 -->
<g id="edge9_Node000007_Node000008" class="edge">
<title>Node7&#45;&gt;Node8</title>
<g id="a_edge9_Node000007_Node000008"><a xlink:title=" ">
<path fill="none" stroke="#63b8ff" d="M286.41,-96.69C299.43,-98.31 313.31,-100.04 326.75,-101.71"/>
<polygon fill="#63b8ff" stroke="#63b8ff" points="326.57,-105.21 336.93,-102.97 327.43,-98.27 326.57,-105.21"/>
</a>
</g>
</g>
<!-- Node9 -->
<g id="Node000009" class="node">
<title>Node9</title>
<g id="a_Node000009"><a xlink:href="classMayaFlux_1_1Kakshya_1_1TextureContainer_a7e2d3ad1dacc0f2676238095b7526f71.html#a7e2d3ad1dacc0f2676238095b7526f71" target="_top" xlink:title="Read&#45;only byte&#45;level view over the pixel buffer.">
<polygon fill="white" stroke="#666666" points="483,-78 322,-78 322,-48 483,-48 483,-78"/>
<text text-anchor="start" x="330" y="-66" font-family="Helvetica,sans-Serif" font-size="10.00">MayaFlux::Kakshya::</text>
<text text-anchor="middle" x="402.5" y="-55" font-family="Helvetica,sans-Serif" font-size="10.00">TextureContainer::pixel_bytes</text>
</a>
</g>
</g>
<!-- Node7&#45;&gt;Node9 -->
<g id="edge10_Node000007_Node000009" class="edge">
<title>Node7&#45;&gt;Node9</title>
<g id="a_edge10_Node000007_Node000009"><a xlink:title=" ">
<path fill="none" stroke="#63b8ff" d="M286.41,-79.91C294.65,-78.7 303.23,-77.44 311.82,-76.17"/>
<polygon fill="#63b8ff" stroke="#63b8ff" points="312.51,-79.61 321.9,-74.69 311.49,-72.68 312.51,-79.61"/>
</a>
</g>
</g>
<!-- Node10 -->
<g id="Node000010" class="node">
<title>Node10</title>
<g id="a_Node000010"><a xlink:href="classMayaFlux_1_1Portal_1_1Text_1_1GlyphAtlas_aff661f5d52169b1201cbbcc51d20d797.html#aff661f5d52169b1201cbbcc51d20d797" target="_top" xlink:title="The atlas texture as a TextureContainer (R8, atlas_size x atlas_size).">
<polygon fill="white" stroke="#666666" points="465,-30 340,-30 340,0 465,0 465,-30"/>
<text text-anchor="start" x="348" y="-18" font-family="Helvetica,sans-Serif" font-size="10.00">MayaFlux::Portal::Text</text>
<text text-anchor="middle" x="402.5" y="-7" font-family="Helvetica,sans-Serif" font-size="10.00">::GlyphAtlas::texture</text>
</a>
</g>
</g>
<!-- Node7&#45;&gt;Node10 -->
<g id="edge11_Node000007_Node000010" class="edge">
<title>Node7&#45;&gt;Node10</title>
<g id="a_edge11_Node000007_Node000010"><a xlink:title=" ">
<path fill="none" stroke="#63b8ff" d="M250.79,-73.87C270.07,-63.19 297.13,-49.04 322,-39 326.81,-37.06 331.83,-35.19 336.92,-33.41"/>
<polygon fill="#63b8ff" stroke="#63b8ff" points="338.37,-36.62 346.74,-30.11 336.14,-29.98 338.37,-36.62"/>
</a>
</g>
</g>
</g>
</svg>

<g id="navigator" transform="translate(0 0)" fill="#404254">
  <rect fill="#f2f5e9" fill-opacity="0.5" stroke="#606060" stroke-width=".5" x="0" y="0" width="60" height="60"/>
  <use id="zoomplus" xlink:href="#zoomPlus" x="17" y="9" onmousedown="handleZoom(evt,'in')"/>
  <use id="zoomminus" xlink:href="#zoomMin" x="42" y="9" onmousedown="handleZoom(evt,'out')"/>
  <use id="reset" xlink:href="#resetDef" x="30" y="36" onmousedown="handleReset()"/>
   <use id="arrowup" xlink:href="#arrowUp" x="0" y="0" onmousedown="handlePan(0,-1)"/>
  <use id="arrowright" xlink:href="#arrowRight" x="0" y="0" onmousedown="handlePan(1,0)"/>
  <use id="arrowdown" xlink:href="#arrowDown" x="0" y="0" onmousedown="handlePan(0,1)"/>
  <use id="arrowleft" xlink:href="#arrowLeft" x="0" y="0" onmousedown="handlePan(-1,0)"/>
</g>
<svg viewBox="0 0 15 15" width="100%" height="30px" preserveAspectRatio="xMaxYMin meet">
 <g id="arrow_out" transform="scale(0.3 0.3)">
  <a xlink:href="namespaceMayaFlux_1_1Portal_1_1Text_a0d14aca4c095ef9e0dffedca847b2b31_a0d14aca4c095ef9e0dffedca847b2b31_cgraph_org.svg" target="_base">
   <rect id="button" ry="5" rx="5" y="6" x="6" height="38" width="38"
        fill="#f2f5e9" fill-opacity="0.5" stroke="#606060" stroke-width="1.0"/>
   <path id="arrow"
     d="M 11.500037,31.436501 C 11.940474,20.09759 22.043105,11.32322 32.158766,21.979434 L 37.068811,17.246167 C 37.068811,17.246167 37.088388,32 37.088388,32 L 22.160133,31.978069 C 22.160133,31.978069 26.997745,27.140456 26.997745,27.140456 C 18.528582,18.264221 13.291696,25.230495 11.500037,31.436501 z"
     style="fill:#404040;"/>
  </a>
 </g>
</svg>

<style type='text/css'>
<![CDATA[
[data-mouse-over-selected='false'] { opacity: 0.7; }
[data-mouse-over-selected='true']  { opacity: 1.0; }
]]>
</style>
<script type="application/ecmascript"><![CDATA[
document.addEventListener('DOMContentLoaded', (event) => {
  highlightEdges();
  highlightAdjacentNodes();
});
]]></script>
</svg>
