<?xml version="1.0" encoding="UTF-8" standalone="no"?>
<!DOCTYPE svg PUBLIC "-//W3C//DTD SVG 1.1//EN"
 "http://www.w3.org/Graphics/SVG/1.1/DTD/svg11.dtd">
<!-- Generated by graphviz version 2.43.0 (0)
 -->
<!-- Title: MayaFlux::Portal::Forma::row_pixel_dims Pages: 1 -->
<!--zoomable 146 -->

<svg id="main" version="1.1" xmlns="http://www.w3.org/2000/svg" xmlns:xlink="http://www.w3.org/1999/xlink" xml:space="preserve" onload="init(evt)">
<style type="text/css"><![CDATA[
.node, .edge {opacity: 0.7;}
.node.selected, .edge.selected {opacity: 1;}
.edge:hover path { stroke: red; }
.edge:hover polygon { stroke: red; fill: red; }
]]></style>

<defs>
  <circle id="rim" cx="0" cy="0" r="7"/>
  <circle id="rim2" cx="0" cy="0" r="3.5"/>
  <g id="zoomPlus">
    <use xlink:href="#rim" fill="#404040"><set attributeName="fill" to="#808080" begin="zoomplus.mouseover" end="zoomplus.mouseout"/></use>
    <path d="M-4,0h8M0,-4v8" fill="none" stroke="white" stroke-width="1.5" pointer-events="none"/>
  </g>
  <g id="zoomMin">
    <use xlink:href="#rim" fill="#404040"><set attributeName="fill" to="#808080" begin="zoomminus.mouseover" end="zoomminus.mouseout"/></use>
    <path d="M-4,0h8" fill="none" stroke="white" stroke-width="1.5" pointer-events="none"/>
  </g>
  <g id="arrowUp" transform="translate(30 24)">
    <use xlink:href="#rim"/>
    <path pointer-events="none" fill="none" stroke="white" stroke-width="1.5" d="M0,-3.0v7 M-2.5,-0.5L0,-3.0L2.5,-0.5"/>
  </g>
  <g id="arrowRight" transform="rotate(90) translate(36 -43)">
    <use xlink:href="#rim"/>
    <path pointer-events="none" fill="none" stroke="white" stroke-width="1.5" d="M0,-3.0v7 M-2.5,-0.5L0,-3.0L2.5,-0.5"/>
  </g>
  <g id="arrowDown" transform="rotate(180) translate(-30 -48)">
    <use xlink:href="#rim"/>
    <path pointer-events="none" fill="none" stroke="white" stroke-width="1.5" d="M0,-3.0v7 M-2.5,-0.5L0,-3.0L2.5,-0.5"/>
  </g>
  <g id="arrowLeft" transform="rotate(270) translate(-36 17)">
    <use xlink:href="#rim"/>
    <path pointer-events="none" fill="none" stroke="white" stroke-width="1.5" d="M0,-3.0v7 M-2.5,-0.5L0,-3.0L2.5,-0.5"/>
  </g>
  <g id="resetDef">
    <use xlink:href="#rim2" fill="#404040"><set attributeName="fill" to="#808080" begin="reset.mouseover" end="reset.mouseout"/></use>
  </g>
</defs>
<script type="application/ecmascript">
var viewWidth = 504;
var viewHeight = 146;
var sectionId = 'dynsection-0';
</script>
<script type="application/ecmascript" xlink:href="svg.min.js"/>
<svg id="graph" class="graph">
<g id="viewport">
<title>MayaFlux::Portal::Forma::row_pixel_dims</title>
<!-- Node1 -->
<g id="Node000001" class="node">
<title>Node1</title>
<g id="a_Node000001"><a xlink:title="Convert an NDC row rect into integer pixel dimensions.">
<polygon fill="#999999" stroke="#666666" points="136,-54 0,-54 0,-24 136,-24 136,-54"/>
<text text-anchor="start" x="8" y="-42" font-family="Helvetica,sans-Serif" font-size="10.00">MayaFlux::Portal::Forma</text>
<text text-anchor="middle" x="68" y="-31" font-family="Helvetica,sans-Serif" font-size="10.00">::row_pixel_dims</text>
</a>
</g>
</g>
<!-- Node2 -->
<g id="Node000002" class="node">
<title>Node2</title>
<g id="a_Node000002"><a xlink:href="namespaceMayaFlux_1_1Portal_1_1Text_aca3810233bd3fb87c18e8e50300d0b3e.html#aca3810233bd3fb87c18e8e50300d0b3e" target="_top" xlink:title="Return the default GlyphAtlas, or nullptr if set_default_font() has not been called successfully.">
<polygon fill="white" stroke="#666666" points="302.5,-78 177.5,-78 177.5,-48 302.5,-48 302.5,-78"/>
<text text-anchor="start" x="185.5" y="-66" font-family="Helvetica,sans-Serif" font-size="10.00">MayaFlux::Portal::Text</text>
<text text-anchor="middle" x="240" y="-55" font-family="Helvetica,sans-Serif" font-size="10.00">::get_default_atlas</text>
</a>
</g>
</g>
<!-- Node1&#45;&gt;Node2 -->
<g id="edge1_Node000001_Node000002" class="edge">
<title>Node1&#45;&gt;Node2</title>
<g id="a_edge1_Node000001_Node000002"><a xlink:title=" ">
<path fill="none" stroke="#63b8ff" d="M136.19,-48.49C146.35,-49.92 156.87,-51.41 167.13,-52.85"/>
<polygon fill="#63b8ff" stroke="#63b8ff" points="166.88,-56.35 177.27,-54.29 167.86,-49.42 166.88,-56.35"/>
</a>
</g>
</g>
<!-- Node5 -->
<g id="Node000005" class="node">
<title>Node5</title>
<g id="a_Node000005"><a xlink:href="classMayaFlux_1_1Portal_1_1Text_1_1GlyphAtlas_abcf654455e02ba66cb60f60dc3aa6880.html#abcf654455e02ba66cb60f60dc3aa6880" target="_top" xlink:title="Line advance in pixels for this atlas&#39;s pixel_size.">
<polygon fill="white" stroke="#666666" points="308,-30 172,-30 172,0 308,0 308,-30"/>
<text text-anchor="start" x="180" y="-18" font-family="Helvetica,sans-Serif" font-size="10.00">MayaFlux::Portal::Text</text>
<text text-anchor="middle" x="240" y="-7" font-family="Helvetica,sans-Serif" font-size="10.00">::GlyphAtlas::line_height</text>
</a>
</g>
</g>
<!-- Node1&#45;&gt;Node5 -->
<g id="edge4_Node000001_Node000005" class="edge">
<title>Node1&#45;&gt;Node5</title>
<g id="a_edge4_Node000001_Node000005"><a xlink:title=" ">
<path fill="none" stroke="#63b8ff" d="M136.19,-29.51C144.59,-28.33 153.24,-27.11 161.78,-25.9"/>
<polygon fill="#63b8ff" stroke="#63b8ff" points="162.33,-29.36 171.74,-24.5 161.35,-22.43 162.33,-29.36"/>
</a>
</g>
</g>
<!-- Node3 -->
<g id="Node000003" class="node">
<title>Node3</title>
<g id="a_Node000003"><a xlink:href="classMayaFlux_1_1Portal_1_1Text_1_1TypeFaceFoundry_a33297f10cf0efb8394bd219ba56f0f12.html#a33297f10cf0efb8394bd219ba56f0f12" target="_top" xlink:title="Return the default GlyphAtlas, or nullptr if set_default_font() has not been called successfully.">
<polygon fill="white" stroke="#666666" points="483.5,-137.5 356.5,-137.5 356.5,-96.5 483.5,-96.5 483.5,-137.5"/>
<text text-anchor="start" x="364.5" y="-125.5" font-family="Helvetica,sans-Serif" font-size="10.00">MayaFlux::Portal::Text</text>
<text text-anchor="start" x="364.5" y="-114.5" font-family="Helvetica,sans-Serif" font-size="10.00">::TypeFaceFoundry::get</text>
<text text-anchor="middle" x="420" y="-103.5" font-family="Helvetica,sans-Serif" font-size="10.00">_default_glyph_atlas</text>
</a>
</g>
</g>
<!-- Node2&#45;&gt;Node3 -->
<g id="edge2_Node000002_Node000003" class="edge">
<title>Node2&#45;&gt;Node3</title>
<g id="a_edge2_Node000002_Node000003"><a xlink:title=" ">
<path fill="none" stroke="#63b8ff" d="M290.58,-78.04C307.93,-83.3 327.78,-89.33 346.6,-95.03"/>
<polygon fill="#63b8ff" stroke="#63b8ff" points="345.74,-98.43 356.33,-97.99 347.77,-91.73 345.74,-98.43"/>
</a>
</g>
</g>
<!-- Node4 -->
<g id="Node000004" class="node">
<title>Node4</title>
<g id="a_Node000004"><a xlink:href="classMayaFlux_1_1Portal_1_1Text_1_1TypeFaceFoundry_a939375a455bfd4510f6a7a8f506b600d.html#a939375a455bfd4510f6a7a8f506b600d" target="_top" xlink:title=" ">
<polygon fill="white" stroke="#666666" points="496,-78 344,-78 344,-48 496,-48 496,-78"/>
<text text-anchor="start" x="352" y="-66" font-family="Helvetica,sans-Serif" font-size="10.00">MayaFlux::Portal::Text</text>
<text text-anchor="middle" x="420" y="-55" font-family="Helvetica,sans-Serif" font-size="10.00">::TypeFaceFoundry::instance</text>
</a>
</g>
</g>
<!-- Node2&#45;&gt;Node4 -->
<g id="edge3_Node000002_Node000004" class="edge">
<title>Node2&#45;&gt;Node4</title>
<g id="a_edge3_Node000002_Node000004"><a xlink:title=" ">
<path fill="none" stroke="#63b8ff" d="M302.76,-63C312.8,-63 323.36,-63 333.84,-63"/>
<polygon fill="#63b8ff" stroke="#63b8ff" points="333.85,-66.5 343.85,-63 333.85,-59.5 333.85,-66.5"/>
</a>
</g>
</g>
<!-- Node6 -->
<g id="Node000006" class="node">
<title>Node6</title>
<g id="a_Node000006"><a xlink:href="classMayaFlux_1_1Portal_1_1Text_1_1FontFace_accda82c104b9bee41559e89f118f5e5f.html#accda82c104b9bee41559e89f118f5e5f" target="_top" xlink:title="Raw FT_Face handle for use by GlyphAtlas.">
<polygon fill="white" stroke="#666666" points="482.5,-30 357.5,-30 357.5,0 482.5,0 482.5,-30"/>
<text text-anchor="start" x="365.5" y="-18" font-family="Helvetica,sans-Serif" font-size="10.00">MayaFlux::Portal::Text</text>
<text text-anchor="middle" x="420" y="-7" font-family="Helvetica,sans-Serif" font-size="10.00">::FontFace::get_face</text>
</a>
</g>
</g>
<!-- Node5&#45;&gt;Node6 -->
<g id="edge5_Node000005_Node000006" class="edge">
<title>Node5&#45;&gt;Node6</title>
<g id="a_edge5_Node000005_Node000006"><a xlink:title=" ">
<path fill="none" stroke="#63b8ff" d="M308.04,-15C320.79,-15 334.19,-15 347.09,-15"/>
<polygon fill="#63b8ff" stroke="#63b8ff" points="347.3,-18.5 357.3,-15 347.3,-11.5 347.3,-18.5"/>
</a>
</g>
</g>
</g>
</svg>

<g id="navigator" transform="translate(0 0)" fill="#404254">
  <rect fill="#f2f5e9" fill-opacity="0.5" stroke="#606060" stroke-width=".5" x="0" y="0" width="60" height="60"/>
  <use id="zoomplus" xlink:href="#zoomPlus" x="17" y="9" onmousedown="handleZoom(evt,'in')"/>
  <use id="zoomminus" xlink:href="#zoomMin" x="42" y="9" onmousedown="handleZoom(evt,'out')"/>
  <use id="reset" xlink:href="#resetDef" x="30" y="36" onmousedown="handleReset()"/>
   <use id="arrowup" xlink:href="#arrowUp" x="0" y="0" onmousedown="handlePan(0,-1)"/>
  <use id="arrowright" xlink:href="#arrowRight" x="0" y="0" onmousedown="handlePan(1,0)"/>
  <use id="arrowdown" xlink:href="#arrowDown" x="0" y="0" onmousedown="handlePan(0,1)"/>
  <use id="arrowleft" xlink:href="#arrowLeft" x="0" y="0" onmousedown="handlePan(-1,0)"/>
</g>
<svg viewBox="0 0 15 15" width="100%" height="30px" preserveAspectRatio="xMaxYMin meet">
 <g id="arrow_out" transform="scale(0.3 0.3)">
  <a xlink:href="namespaceMayaFlux_1_1Portal_1_1Forma_a5d08d76b958afbb7fccc2ec3d5d4355d_a5d08d76b958afbb7fccc2ec3d5d4355d_cgraph_org.svg" target="_base">
   <rect id="button" ry="5" rx="5" y="6" x="6" height="38" width="38"
        fill="#f2f5e9" fill-opacity="0.5" stroke="#606060" stroke-width="1.0"/>
   <path id="arrow"
     d="M 11.500037,31.436501 C 11.940474,20.09759 22.043105,11.32322 32.158766,21.979434 L 37.068811,17.246167 C 37.068811,17.246167 37.088388,32 37.088388,32 L 22.160133,31.978069 C 22.160133,31.978069 26.997745,27.140456 26.997745,27.140456 C 18.528582,18.264221 13.291696,25.230495 11.500037,31.436501 z"
     style="fill:#404040;"/>
  </a>
 </g>
</svg>

<style type='text/css'>
<![CDATA[
[data-mouse-over-selected='false'] { opacity: 0.7; }
[data-mouse-over-selected='true']  { opacity: 1.0; }
]]>
</style>
<script type="application/ecmascript"><![CDATA[
document.addEventListener('DOMContentLoaded', (event) => {
  highlightEdges();
  highlightAdjacentNodes();
});
]]></script>
</svg>
