<?xml version="1.0" encoding="UTF-8" standalone="no"?>
<!DOCTYPE svg PUBLIC "-//W3C//DTD SVG 1.1//EN"
 "http://www.w3.org/Graphics/SVG/1.1/DTD/svg11.dtd">
<!-- Generated by graphviz version 2.43.0 (0)
 -->
<!-- Title: MayaFlux::Yantra::extract_zero_crossings Pages: 1 -->
<svg width="476pt" height="224pt"
 viewBox="0.00 0.00 476.00 223.50" xmlns="http://www.w3.org/2000/svg" xmlns:xlink="http://www.w3.org/1999/xlink">
<g id="graph0" class="graph" transform="scale(1 1) rotate(0) translate(4 219.5)">
<title>MayaFlux::Yantra::extract_zero_crossings</title>
<!-- Node1 -->
<g id="Node000001" class="node">
<title>Node1</title>
<g id="a_Node000001"><a xlink:title=" ">
<polygon fill="#999999" stroke="#666666" points="141,-134.5 0,-134.5 0,-104.5 141,-104.5 141,-134.5"/>
<text text-anchor="start" x="8" y="-122.5" font-family="Helvetica,sans-Serif" font-size="10.00">MayaFlux::Yantra::extract</text>
<text text-anchor="middle" x="70.5" y="-111.5" font-family="Helvetica,sans-Serif" font-size="10.00">_zero_crossings</text>
</a>
</g>
</g>
<!-- Node2 -->
<g id="Node000002" class="node">
<title>Node2</title>
<g id="a_Node000002"><a xlink:href="namespaceMayaFlux_1_1Kinesis_1_1Discrete_a7cc7dc7848512515fc5b8d6b0f146eb9.html#a7cc7dc7848512515fc5b8d6b0f146eb9" target="_top" xlink:title="Merge overlapping or adjacent half&#45;open intervals.">
<polygon fill="white" stroke="#666666" points="320,-215.5 177,-215.5 177,-185.5 320,-185.5 320,-215.5"/>
<text text-anchor="start" x="185" y="-203.5" font-family="Helvetica,sans-Serif" font-size="10.00">MayaFlux::Kinesis::</text>
<text text-anchor="middle" x="248.5" y="-192.5" font-family="Helvetica,sans-Serif" font-size="10.00">Discrete::merge_intervals</text>
</a>
</g>
</g>
<!-- Node1&#45;&gt;Node2 -->
<g id="edge1_Node000001_Node000002" class="edge">
<title>Node1&#45;&gt;Node2</title>
<g id="a_edge1_Node000001_Node000002"><a xlink:title=" ">
<path fill="none" stroke="#63b8ff" d="M96.49,-134.54C117.5,-146.81 148.57,-164.09 177,-176.5 181.18,-178.32 185.54,-180.1 189.96,-181.81"/>
<polygon fill="#63b8ff" stroke="#63b8ff" points="189.09,-185.22 199.68,-185.43 191.53,-178.66 189.09,-185.22"/>
</a>
</g>
</g>
<!-- Node3 -->
<g id="Node000003" class="node">
<title>Node3</title>
<g id="a_Node000003"><a xlink:href="namespaceMayaFlux_1_1Kinesis_1_1Discrete_ad3a1b135bd81434977f41ef8a6f49e48.html#ad3a1b135bd81434977f41ef8a6f49e48" target="_top" xlink:title="Build [start, end) intervals centred on a set of positions.">
<polygon fill="white" stroke="#666666" points="317.5,-167 179.5,-167 179.5,-126 317.5,-126 317.5,-167"/>
<text text-anchor="start" x="187.5" y="-155" font-family="Helvetica,sans-Serif" font-size="10.00">MayaFlux::Kinesis::</text>
<text text-anchor="start" x="187.5" y="-144" font-family="Helvetica,sans-Serif" font-size="10.00">Discrete::regions_around</text>
<text text-anchor="middle" x="248.5" y="-133" font-family="Helvetica,sans-Serif" font-size="10.00">_positions</text>
</a>
</g>
</g>
<!-- Node1&#45;&gt;Node3 -->
<g id="edge2_Node000001_Node000003" class="edge">
<title>Node1&#45;&gt;Node3</title>
<g id="a_edge2_Node000001_Node000003"><a xlink:title=" ">
<path fill="none" stroke="#63b8ff" d="M141.06,-130.17C150.3,-131.59 159.83,-133.05 169.21,-134.49"/>
<polygon fill="#63b8ff" stroke="#63b8ff" points="168.89,-137.98 179.31,-136.04 169.95,-131.06 168.89,-137.98"/>
</a>
</g>
</g>
<!-- Node4 -->
<g id="Node000004" class="node">
<title>Node4</title>
<g id="a_Node000004"><a xlink:href="namespaceMayaFlux_1_1Kinesis_1_1Discrete_ab478ad739bf1293e463b0b9f254a4208.html#ab478ad739bf1293e463b0b9f254a4208" target="_top" xlink:title="Copy data from a set of half&#45;open intervals into a flat vector.">
<polygon fill="white" stroke="#666666" points="315.5,-107.5 181.5,-107.5 181.5,-77.5 315.5,-77.5 315.5,-107.5"/>
<text text-anchor="start" x="189.5" y="-95.5" font-family="Helvetica,sans-Serif" font-size="10.00">MayaFlux::Kinesis::</text>
<text text-anchor="middle" x="248.5" y="-84.5" font-family="Helvetica,sans-Serif" font-size="10.00">Discrete::slice_intervals</text>
</a>
</g>
</g>
<!-- Node1&#45;&gt;Node4 -->
<g id="edge3_Node000001_Node000004" class="edge">
<title>Node1&#45;&gt;Node4</title>
<g id="a_edge3_Node000001_Node000004"><a xlink:title=" ">
<path fill="none" stroke="#63b8ff" d="M141.06,-108.83C151,-107.3 161.28,-105.73 171.34,-104.18"/>
<polygon fill="#63b8ff" stroke="#63b8ff" points="171.96,-107.63 181.31,-102.65 170.9,-100.71 171.96,-107.63"/>
</a>
</g>
</g>
<!-- Node5 -->
<g id="Node000005" class="node">
<title>Node5</title>
<g id="a_Node000005"><a xlink:href="namespaceMayaFlux_1_1Kinesis_1_1Discrete_a3d8ba0d1f4f438f103ec563b69f9fa00.html#a3d8ba0d1f4f438f103ec563b69f9fa00" target="_top" xlink:title="Sample indices of zero crossings in the full span.">
<polygon fill="white" stroke="#666666" points="313.5,-41 183.5,-41 183.5,0 313.5,0 313.5,-41"/>
<text text-anchor="start" x="191.5" y="-29" font-family="Helvetica,sans-Serif" font-size="10.00">MayaFlux::Kinesis::</text>
<text text-anchor="start" x="191.5" y="-18" font-family="Helvetica,sans-Serif" font-size="10.00">Discrete::zero_crossing</text>
<text text-anchor="middle" x="248.5" y="-7" font-family="Helvetica,sans-Serif" font-size="10.00">_positions</text>
</a>
</g>
</g>
<!-- Node1&#45;&gt;Node5 -->
<g id="edge4_Node000001_Node000005" class="edge">
<title>Node1&#45;&gt;Node5</title>
<g id="a_edge4_Node000001_Node000005"><a xlink:title=" ">
<path fill="none" stroke="#63b8ff" d="M98.23,-104.46C125.74,-88.99 169.12,-64.59 202.04,-46.07"/>
<polygon fill="#63b8ff" stroke="#63b8ff" points="204.02,-48.97 211.02,-41.02 200.59,-42.87 204.02,-48.97"/>
</a>
</g>
</g>
<!-- Node5&#45;&gt;Node5 -->
<g id="edge6_Node000005_Node000005" class="edge">
<title>Node5&#45;&gt;Node5</title>
<g id="a_edge6_Node000005_Node000005"><a xlink:title=" ">
<path fill="none" stroke="#63b8ff" d="M218.73,-41.1C215.48,-50.65 225.4,-59 248.5,-59 262.94,-59 272.23,-55.74 276.37,-50.96"/>
<polygon fill="#63b8ff" stroke="#63b8ff" points="279.82,-51.58 278.27,-41.1 272.94,-50.25 279.82,-51.58"/>
</a>
</g>
</g>
<!-- Node6 -->
<g id="Node000006" class="node">
<title>Node6</title>
<g id="a_Node000006"><a xlink:href="namespaceMayaFlux_1_1Kinesis_a64bfe6458a57047ea3c126b2b27da092.html#a64bfe6458a57047ea3c126b2b27da092" target="_top" xlink:title="Zero output below threshold, pass through above.">
<polygon fill="white" stroke="#666666" points="468,-35.5 356,-35.5 356,-5.5 468,-5.5 468,-35.5"/>
<text text-anchor="start" x="364" y="-23.5" font-family="Helvetica,sans-Serif" font-size="10.00">MayaFlux::Kinesis::</text>
<text text-anchor="middle" x="412" y="-12.5" font-family="Helvetica,sans-Serif" font-size="10.00">threshold</text>
</a>
</g>
</g>
<!-- Node5&#45;&gt;Node6 -->
<g id="edge5_Node000005_Node000006" class="edge">
<title>Node5&#45;&gt;Node6</title>
<g id="a_edge5_Node000005_Node000006"><a xlink:title=" ">
<path fill="none" stroke="#63b8ff" d="M313.79,-20.5C324.22,-20.5 335.02,-20.5 345.48,-20.5"/>
<polygon fill="#63b8ff" stroke="#63b8ff" points="345.78,-24 355.78,-20.5 345.78,-17 345.78,-24"/>
</a>
</g>
</g>
</g>
</svg>
