<?xml version="1.0" encoding="UTF-8" standalone="no"?>
<!DOCTYPE svg PUBLIC "-//W3C//DTD SVG 1.1//EN"
 "http://www.w3.org/Graphics/SVG/1.1/DTD/svg11.dtd">
<!-- Generated by graphviz version 2.43.0 (0)
 -->
<!-- Title: MayaFlux::on_scroll Pages: 1 -->
<svg width="1096pt" height="132pt"
 viewBox="0.00 0.00 1096.00 132.00" xmlns="http://www.w3.org/2000/svg" xmlns:xlink="http://www.w3.org/1999/xlink">
<g id="graph0" class="graph" transform="scale(1 1) rotate(0) translate(4 128)">
<title>MayaFlux::on_scroll</title>
<!-- Node1 -->
<g id="Node000001" class="node">
<title>Node1</title>
<g id="a_Node000001"><a xlink:title="Schedule a mouse scroll handler.">
<polygon fill="#999999" stroke="#666666" points="114,-48.5 0,-48.5 0,-29.5 114,-29.5 114,-48.5"/>
<text text-anchor="middle" x="57" y="-36.5" font-family="Helvetica,sans-Serif" font-size="10.00">MayaFlux::on_scroll</text>
</a>
</g>
</g>
<!-- Node2 -->
<g id="Node000002" class="node">
<title>Node2</title>
<g id="a_Node000002"><a xlink:href="namespaceMayaFlux_a0dfe4501e157cd6e14b62baab5fa9b84.html#a0dfe4501e157cd6e14b62baab5fa9b84" target="_top" xlink:title="Gets the event manager from the default engine.">
<polygon fill="white" stroke="#666666" points="277,-78 158,-78 158,-48 277,-48 277,-78"/>
<text text-anchor="start" x="166" y="-66" font-family="Helvetica,sans-Serif" font-size="10.00">MayaFlux::get_event</text>
<text text-anchor="middle" x="217.5" y="-55" font-family="Helvetica,sans-Serif" font-size="10.00">_manager</text>
</a>
</g>
</g>
<!-- Node1&#45;&gt;Node2 -->
<g id="edge1_Node000001_Node000002" class="edge">
<title>Node1&#45;&gt;Node2</title>
<g id="a_edge1_Node000001_Node000002"><a xlink:title=" ">
<path fill="none" stroke="#63b8ff" d="M114.33,-47.53C125.16,-49.17 136.62,-50.9 147.79,-52.6"/>
<polygon fill="#63b8ff" stroke="#63b8ff" points="147.53,-56.1 157.94,-54.13 148.58,-49.18 147.53,-56.1"/>
</a>
</g>
</g>
<!-- Node11 -->
<g id="Node000011" class="node">
<title>Node11</title>
<g id="a_Node000011"><a xlink:href="namespaceMayaFlux_1_1Kriya_a454b114a833332a3d166874f702a0908.html#a454b114a833332a3d166874f702a0908" target="_top" xlink:title="Creates an Event coroutine that triggers on mouse scroll.">
<polygon fill="white" stroke="#666666" points="285,-30 150,-30 150,0 285,0 285,-30"/>
<text text-anchor="start" x="158" y="-18" font-family="Helvetica,sans-Serif" font-size="10.00">MayaFlux::Kriya::mouse</text>
<text text-anchor="middle" x="217.5" y="-7" font-family="Helvetica,sans-Serif" font-size="10.00">_scrolled</text>
</a>
</g>
</g>
<!-- Node1&#45;&gt;Node11 -->
<g id="edge10_Node000001_Node000011" class="edge">
<title>Node1&#45;&gt;Node11</title>
<g id="a_edge10_Node000001_Node000011"><a xlink:title=" ">
<path fill="none" stroke="#63b8ff" d="M114.33,-30.47C122.58,-29.22 131.19,-27.92 139.76,-26.62"/>
<polygon fill="#63b8ff" stroke="#63b8ff" points="140.42,-30.06 149.79,-25.1 139.37,-23.14 140.42,-30.06"/>
</a>
</g>
</g>
<!-- Node3 -->
<g id="Node000003" class="node">
<title>Node3</title>
<g id="a_Node000003"><a xlink:href="namespaceMayaFlux_ac4ab74951370ff0dd899203f3b94c775.html#ac4ab74951370ff0dd899203f3b94c775" target="_top" xlink:title="Gets the default engine instance.">
<polygon fill="white" stroke="#666666" points="451,-94.5 323,-94.5 323,-75.5 451,-75.5 451,-94.5"/>
<text text-anchor="middle" x="387" y="-82.5" font-family="Helvetica,sans-Serif" font-size="10.00">MayaFlux::get_context</text>
</a>
</g>
</g>
<!-- Node2&#45;&gt;Node3 -->
<g id="edge2_Node000002_Node000003" class="edge">
<title>Node2&#45;&gt;Node3</title>
<g id="a_edge2_Node000002_Node000003"><a xlink:title=" ">
<path fill="none" stroke="#63b8ff" d="M277.08,-70.69C288.65,-72.21 300.93,-73.83 312.91,-75.4"/>
<polygon fill="#63b8ff" stroke="#63b8ff" points="312.52,-78.88 322.89,-76.71 313.43,-71.94 312.52,-78.88"/>
</a>
</g>
</g>
<!-- Node10 -->
<g id="Node000010" class="node">
<title>Node10</title>
<g id="a_Node000010"><a xlink:href="classMayaFlux_1_1Core_1_1Engine_ab7563eb97d9ca4dc3f7df55db3ebed03.html#ab7563eb97d9ca4dc3f7df55db3ebed03" target="_top" xlink:title="Gets the event manager.">
<polygon fill="white" stroke="#666666" points="453,-57 321,-57 321,-27 453,-27 453,-57"/>
<text text-anchor="start" x="329" y="-45" font-family="Helvetica,sans-Serif" font-size="10.00">MayaFlux::Core::Engine</text>
<text text-anchor="middle" x="387" y="-34" font-family="Helvetica,sans-Serif" font-size="10.00">::get_event_manager</text>
</a>
</g>
</g>
<!-- Node2&#45;&gt;Node10 -->
<g id="edge9_Node000002_Node000010" class="edge">
<title>Node2&#45;&gt;Node10</title>
<g id="a_edge9_Node000002_Node000010"><a xlink:title=" ">
<path fill="none" stroke="#63b8ff" d="M277.08,-55.66C287.92,-54.3 299.37,-52.86 310.62,-51.45"/>
<polygon fill="#63b8ff" stroke="#63b8ff" points="311.39,-54.88 320.87,-50.17 310.52,-47.94 311.39,-54.88"/>
</a>
</g>
</g>
<!-- Node4 -->
<g id="Node000004" class="node">
<title>Node4</title>
<g id="a_Node000004"><a xlink:href="namespaceMayaFlux_1_1internal_ac0f0b4b1cae6af4441db0ea022e15583.html#ac0f0b4b1cae6af4441db0ea022e15583" target="_top" xlink:title=" ">
<polygon fill="white" stroke="#666666" points="617,-100 489,-100 489,-70 617,-70 617,-100"/>
<text text-anchor="start" x="497" y="-88" font-family="Helvetica,sans-Serif" font-size="10.00">MayaFlux::internal</text>
<text text-anchor="middle" x="553" y="-77" font-family="Helvetica,sans-Serif" font-size="10.00">::get_or_create_engine</text>
</a>
</g>
</g>
<!-- Node3&#45;&gt;Node4 -->
<g id="edge3_Node000003_Node000004" class="edge">
<title>Node3&#45;&gt;Node4</title>
<g id="a_edge3_Node000003_Node000004"><a xlink:title=" ">
<path fill="none" stroke="#63b8ff" d="M451.41,-85C460.31,-85 469.53,-85 478.6,-85"/>
<polygon fill="#63b8ff" stroke="#63b8ff" points="478.76,-88.5 488.76,-85 478.76,-81.5 478.76,-88.5"/>
</a>
</g>
</g>
<!-- Node5 -->
<g id="Node000005" class="node">
<title>Node5</title>
<g id="a_Node000005"><a xlink:href="namespaceMayaFlux_1_1internal_a3cc5413e05c2f9c9f04372841aa0a5b1.html#a3cc5413e05c2f9c9f04372841aa0a5b1" target="_top" xlink:title=" ">
<polygon fill="white" stroke="#666666" points="761,-100 653,-100 653,-70 761,-70 761,-100"/>
<text text-anchor="start" x="661" y="-88" font-family="Helvetica,sans-Serif" font-size="10.00">MayaFlux::internal</text>
<text text-anchor="middle" x="707" y="-77" font-family="Helvetica,sans-Serif" font-size="10.00">::cleanup_engine</text>
</a>
</g>
</g>
<!-- Node4&#45;&gt;Node5 -->
<g id="edge4_Node000004_Node000005" class="edge">
<title>Node4&#45;&gt;Node5</title>
<g id="a_edge4_Node000004_Node000005"><a xlink:title=" ">
<path fill="none" stroke="#63b8ff" d="M617.14,-85C625.61,-85 634.29,-85 642.76,-85"/>
<polygon fill="#63b8ff" stroke="#63b8ff" points="642.95,-88.5 652.95,-85 642.95,-81.5 642.95,-88.5"/>
</a>
</g>
</g>
<!-- Node6 -->
<g id="Node000006" class="node">
<title>Node6</title>
<g id="a_Node000006"><a xlink:href="namespaceMayaFlux_1_1internal_ac4d6952d58cdfd56964a883d40aa655d.html#ac4d6952d58cdfd56964a883d40aa655d" target="_top" xlink:title=" ">
<polygon fill="white" stroke="#666666" points="942,-124 797,-124 797,-94 942,-94 942,-124"/>
<text text-anchor="start" x="805" y="-112" font-family="Helvetica,sans-Serif" font-size="10.00">MayaFlux::internal</text>
<text text-anchor="middle" x="869.5" y="-101" font-family="Helvetica,sans-Serif" font-size="10.00">::cleanup_persistent_store</text>
</a>
</g>
</g>
<!-- Node5&#45;&gt;Node6 -->
<g id="edge5_Node000005_Node000006" class="edge">
<title>Node5&#45;&gt;Node6</title>
<g id="a_edge5_Node000005_Node000006"><a xlink:title=" ">
<path fill="none" stroke="#63b8ff" d="M761.44,-92.99C769.57,-94.21 778.11,-95.48 786.68,-96.77"/>
<polygon fill="#63b8ff" stroke="#63b8ff" points="786.31,-100.25 796.72,-98.27 787.35,-93.33 786.31,-100.25"/>
</a>
</g>
</g>
<!-- Node8 -->
<g id="Node000008" class="node">
<title>Node8</title>
<g id="a_Node000008"><a xlink:href="classMayaFlux_1_1Journal_1_1Archivist_a82e2d12db8781df4afc43ef4c1fba2be.html#a82e2d12db8781df4afc43ef4c1fba2be" target="_top" xlink:title="Shutdown the logging system.">
<polygon fill="white" stroke="#666666" points="926,-76 813,-76 813,-46 926,-46 926,-76"/>
<text text-anchor="start" x="821" y="-64" font-family="Helvetica,sans-Serif" font-size="10.00">MayaFlux::Journal::</text>
<text text-anchor="middle" x="869.5" y="-53" font-family="Helvetica,sans-Serif" font-size="10.00">Archivist::shutdown</text>
</a>
</g>
</g>
<!-- Node5&#45;&gt;Node8 -->
<g id="edge7_Node000005_Node000008" class="edge">
<title>Node5&#45;&gt;Node8</title>
<g id="a_edge7_Node000005_Node000008"><a xlink:title=" ">
<path fill="none" stroke="#63b8ff" d="M761.44,-77.01C774.73,-75.02 789.11,-72.87 802.91,-70.81"/>
<polygon fill="#63b8ff" stroke="#63b8ff" points="803.44,-74.27 812.82,-69.33 802.41,-67.34 803.44,-74.27"/>
</a>
</g>
</g>
<!-- Node7 -->
<g id="Node000007" class="node">
<title>Node7</title>
<g id="a_Node000007"><a xlink:href="namespaceMayaFlux_1_1internal_ac26a7a92aa4af34c366aad03b68ea71e.html#ac26a7a92aa4af34c366aad03b68ea71e" target="_top" xlink:title=" ">
<polygon fill="white" stroke="#666666" points="1087,-124 979,-124 979,-94 1087,-94 1087,-124"/>
<text text-anchor="start" x="987" y="-112" font-family="Helvetica,sans-Serif" font-size="10.00">MayaFlux::internal</text>
<text text-anchor="middle" x="1033" y="-101" font-family="Helvetica,sans-Serif" font-size="10.00">::persistent_store</text>
</a>
</g>
</g>
<!-- Node6&#45;&gt;Node7 -->
<g id="edge6_Node000006_Node000007" class="edge">
<title>Node6&#45;&gt;Node7</title>
<g id="a_edge6_Node000006_Node000007"><a xlink:title=" ">
<path fill="none" stroke="#63b8ff" d="M942.28,-109C951.12,-109 960.1,-109 968.8,-109"/>
<polygon fill="#63b8ff" stroke="#63b8ff" points="968.86,-112.5 978.86,-109 968.86,-105.5 968.86,-112.5"/>
</a>
</g>
</g>
<!-- Node9 -->
<g id="Node000009" class="node">
<title>Node9</title>
<g id="a_Node000009"><a xlink:href="classMayaFlux_1_1Journal_1_1Archivist_a8b7829e34d79ec5bbbf02e3d4afbdab9.html#a8b7829e34d79ec5bbbf02e3d4afbdab9" target="_top" xlink:title="Get the singleton instance of the Archivist.">
<polygon fill="white" stroke="#666666" points="1088,-76 978,-76 978,-46 1088,-46 1088,-76"/>
<text text-anchor="start" x="986" y="-64" font-family="Helvetica,sans-Serif" font-size="10.00">MayaFlux::Journal::</text>
<text text-anchor="middle" x="1033" y="-53" font-family="Helvetica,sans-Serif" font-size="10.00">Archivist::instance</text>
</a>
</g>
</g>
<!-- Node8&#45;&gt;Node9 -->
<g id="edge8_Node000008_Node000009" class="edge">
<title>Node8&#45;&gt;Node9</title>
<g id="a_edge8_Node000008_Node000009"><a xlink:title=" ">
<path fill="none" stroke="#63b8ff" d="M926.08,-61C939.46,-61 953.86,-61 967.6,-61"/>
<polygon fill="#63b8ff" stroke="#63b8ff" points="967.96,-64.5 977.96,-61 967.96,-57.5 967.96,-64.5"/>
</a>
</g>
</g>
</g>
</svg>
