<?xml version="1.0" encoding="UTF-8" standalone="no"?>
<!DOCTYPE svg PUBLIC "-//W3C//DTD SVG 1.1//EN"
 "http://www.w3.org/Graphics/SVG/1.1/DTD/svg11.dtd">
<!-- Generated by graphviz version 2.43.0 (0)
 -->
<!-- Title: MayaFlux::Yantra::infer_structure Pages: 1 -->
<svg width="988pt" height="532pt"
 viewBox="0.00 0.00 988.00 532.09" xmlns="http://www.w3.org/2000/svg" xmlns:xlink="http://www.w3.org/1999/xlink">
<g id="graph0" class="graph" transform="scale(1 1) rotate(0) translate(4 528.09)">
<title>MayaFlux::Yantra::infer_structure</title>
<!-- Node1 -->
<g id="Node000001" class="node">
<title>Node1</title>
<g id="a_Node000001"><a xlink:title="Infer dimensions and modality from any ComputeData type.">
<polygon fill="#999999" stroke="#666666" points="129,-368 0,-368 0,-338 129,-338 129,-368"/>
<text text-anchor="start" x="8" y="-356" font-family="Helvetica,sans-Serif" font-size="10.00">MayaFlux::Yantra::infer</text>
<text text-anchor="middle" x="64.5" y="-345" font-family="Helvetica,sans-Serif" font-size="10.00">_structure</text>
</a>
</g>
</g>
<!-- Node2 -->
<g id="Node000002" class="node">
<title>Node2</title>
<g id="a_Node000002"><a xlink:href="namespaceMayaFlux_1_1Yantra_a35bfca0f707fb3377c6f26456ed32470.html#a35bfca0f707fb3377c6f26456ed32470" target="_top" xlink:title="Infer structure from SignalSourceContainer.">
<polygon fill="white" stroke="#666666" points="647.5,-497 518.5,-497 518.5,-467 647.5,-467 647.5,-497"/>
<text text-anchor="start" x="526.5" y="-485" font-family="Helvetica,sans-Serif" font-size="10.00">MayaFlux::Yantra::infer</text>
<text text-anchor="middle" x="583" y="-474" font-family="Helvetica,sans-Serif" font-size="10.00">_from_container</text>
</a>
</g>
</g>
<!-- Node1&#45;&gt;Node2 -->
<g id="edge1_Node000001_Node000002" class="edge">
<title>Node1&#45;&gt;Node2</title>
<g id="a_edge1_Node000001_Node000002"><a xlink:title=" ">
<path fill="none" stroke="#63b8ff" d="M73.8,-368.19C88.43,-393.24 121.44,-442.47 165,-463 275.66,-515.17 421.71,-506.79 508.35,-495.04"/>
<polygon fill="#63b8ff" stroke="#63b8ff" points="508.94,-498.49 518.36,-493.63 507.97,-491.56 508.94,-498.49"/>
</a>
</g>
</g>
<!-- Node5 -->
<g id="Node000005" class="node">
<title>Node5</title>
<g id="a_Node000005"><a xlink:href="namespaceMayaFlux_1_1Yantra_a8ce1a57f73a0b4504ea2c23b11bf8878.html#a8ce1a57f73a0b4504ea2c23b11bf8878" target="_top" xlink:title="Infer structure from DataVariant.">
<polygon fill="white" stroke="#666666" points="469,-411 340,-411 340,-381 469,-381 469,-411"/>
<text text-anchor="start" x="348" y="-399" font-family="Helvetica,sans-Serif" font-size="10.00">MayaFlux::Yantra::infer</text>
<text text-anchor="middle" x="404.5" y="-388" font-family="Helvetica,sans-Serif" font-size="10.00">_from_data_variant</text>
</a>
</g>
</g>
<!-- Node1&#45;&gt;Node5 -->
<g id="edge4_Node000001_Node000005" class="edge">
<title>Node1&#45;&gt;Node5</title>
<g id="a_edge4_Node000001_Node000005"><a xlink:title=" ">
<path fill="none" stroke="#63b8ff" d="M120.97,-368.01C135.23,-371.42 150.61,-374.71 165,-377 219.84,-385.74 282.45,-390.54 329.75,-393.12"/>
<polygon fill="#63b8ff" stroke="#63b8ff" points="329.74,-396.62 339.91,-393.65 330.1,-389.63 329.74,-396.62"/>
</a>
</g>
</g>
<!-- Node10 -->
<g id="Node000010" class="node">
<title>Node10</title>
<g id="a_Node000010"><a xlink:href="namespaceMayaFlux_1_1Yantra_a3906f3d1788ed8bf9bea4e1c236bf9aa.html#a3906f3d1788ed8bf9bea4e1c236bf9aa" target="_top" xlink:title="Infer structure from Eigen matrix/vector.">
<polygon fill="white" stroke="#666666" points="647.5,-201 518.5,-201 518.5,-171 647.5,-171 647.5,-201"/>
<text text-anchor="start" x="526.5" y="-189" font-family="Helvetica,sans-Serif" font-size="10.00">MayaFlux::Yantra::infer</text>
<text text-anchor="middle" x="583" y="-178" font-family="Helvetica,sans-Serif" font-size="10.00">_from_eigen</text>
</a>
</g>
</g>
<!-- Node1&#45;&gt;Node10 -->
<g id="edge11_Node000001_Node000010" class="edge">
<title>Node1&#45;&gt;Node10</title>
<g id="a_edge11_Node000001_Node000010"><a xlink:title=" ">
<path fill="none" stroke="#63b8ff" d="M122.06,-337.99C136.02,-334.66 150.99,-331.41 165,-329 234.14,-317.08 422.7,-337.87 479,-296 512.25,-271.27 484.94,-238.52 515,-210 516.12,-208.94 517.29,-207.92 518.5,-206.95"/>
<polygon fill="#63b8ff" stroke="#63b8ff" points="520.74,-209.66 527.05,-201.16 516.81,-203.87 520.74,-209.66"/>
</a>
</g>
</g>
<!-- Node12 -->
<g id="Node000012" class="node">
<title>Node12</title>
<g id="a_Node000012"><a xlink:href="namespaceMayaFlux_1_1Yantra_ab40b463e00cbdbf34a526725f04b2f78.html#ab40b463e00cbdbf34a526725f04b2f78" target="_top" xlink:title="Infer structure from Region (placeholder since regions are markers)">
<polygon fill="white" stroke="#666666" points="469,-287 340,-287 340,-257 469,-257 469,-287"/>
<text text-anchor="start" x="348" y="-275" font-family="Helvetica,sans-Serif" font-size="10.00">MayaFlux::Yantra::infer</text>
<text text-anchor="middle" x="404.5" y="-264" font-family="Helvetica,sans-Serif" font-size="10.00">_from_region</text>
</a>
</g>
</g>
<!-- Node1&#45;&gt;Node12 -->
<g id="edge16_Node000001_Node000012" class="edge">
<title>Node1&#45;&gt;Node12</title>
<g id="a_edge16_Node000001_Node000012"><a xlink:title=" ">
<path fill="none" stroke="#63b8ff" d="M86.02,-337.78C105.34,-324.33 135.62,-305.42 165,-296 218.35,-278.9 281.54,-273.14 329.47,-271.53"/>
<polygon fill="#63b8ff" stroke="#63b8ff" points="329.87,-275.02 339.77,-271.24 329.67,-268.03 329.87,-275.02"/>
</a>
</g>
</g>
<!-- Node18 -->
<g id="Node000018" class="node">
<title>Node18</title>
<g id="a_Node000018"><a xlink:href="namespaceMayaFlux_1_1Yantra_ad02f0b5a9c8eab6145265e09b8708cb3.html#ad02f0b5a9c8eab6145265e09b8708cb3" target="_top" xlink:title="Infer structure from RegionGroup.">
<polygon fill="white" stroke="#666666" points="294,-244 165,-244 165,-214 294,-214 294,-244"/>
<text text-anchor="start" x="173" y="-232" font-family="Helvetica,sans-Serif" font-size="10.00">MayaFlux::Yantra::infer</text>
<text text-anchor="middle" x="229.5" y="-221" font-family="Helvetica,sans-Serif" font-size="10.00">_from_region_group</text>
</a>
</g>
</g>
<!-- Node1&#45;&gt;Node18 -->
<g id="edge28_Node000001_Node000018" class="edge">
<title>Node1&#45;&gt;Node18</title>
<g id="a_edge28_Node000001_Node000018"><a xlink:title=" ">
<path fill="none" stroke="#63b8ff" d="M78.38,-337.87C96.22,-317.64 130.2,-281.57 165,-258 169.95,-254.65 175.35,-251.51 180.84,-248.63"/>
<polygon fill="#63b8ff" stroke="#63b8ff" points="182.71,-251.61 190.11,-244.03 179.6,-245.34 182.71,-251.61"/>
</a>
</g>
</g>
<!-- Node20 -->
<g id="Node000020" class="node">
<title>Node20</title>
<g id="a_Node000020"><a xlink:href="namespaceMayaFlux_1_1Yantra_ae36c08db5d8c73f6cab8feebfa5e58e0.html#ae36c08db5d8c73f6cab8feebfa5e58e0" target="_top" xlink:title="Infer structure from RegionSegments.">
<polygon fill="white" stroke="#666666" points="294,-368 165,-368 165,-338 294,-338 294,-368"/>
<text text-anchor="start" x="173" y="-356" font-family="Helvetica,sans-Serif" font-size="10.00">MayaFlux::Yantra::infer</text>
<text text-anchor="middle" x="229.5" y="-345" font-family="Helvetica,sans-Serif" font-size="10.00">_from_segments</text>
</a>
</g>
</g>
<!-- Node1&#45;&gt;Node20 -->
<g id="edge33_Node000001_Node000020" class="edge">
<title>Node1&#45;&gt;Node20</title>
<g id="a_edge33_Node000001_Node000020"><a xlink:title=" ">
<path fill="none" stroke="#63b8ff" d="M129.45,-353C137.76,-353 146.32,-353 154.77,-353"/>
<polygon fill="#63b8ff" stroke="#63b8ff" points="155,-356.5 165,-353 155,-349.5 155,-356.5"/>
</a>
</g>
</g>
<!-- Node21 -->
<g id="Node000021" class="node">
<title>Node21</title>
<g id="a_Node000021"><a xlink:href="namespaceMayaFlux_1_1Yantra_ac479594582dbe473e5d89c5c771ea3fa.html#ac479594582dbe473e5d89c5c771ea3fa" target="_top" xlink:title="Generic structure inference for unknown types.">
<polygon fill="white" stroke="#666666" points="294,-454 165,-454 165,-424 294,-424 294,-454"/>
<text text-anchor="start" x="173" y="-442" font-family="Helvetica,sans-Serif" font-size="10.00">MayaFlux::Yantra::infer</text>
<text text-anchor="middle" x="229.5" y="-431" font-family="Helvetica,sans-Serif" font-size="10.00">_generic_structure</text>
</a>
</g>
</g>
<!-- Node1&#45;&gt;Node21 -->
<g id="edge36_Node000001_Node000021" class="edge">
<title>Node1&#45;&gt;Node21</title>
<g id="a_edge36_Node000001_Node000021"><a xlink:title=" ">
<path fill="none" stroke="#63b8ff" d="M90.5,-368.17C110.42,-380.05 139.14,-396.72 165,-410 171.23,-413.2 177.88,-416.43 184.45,-419.52"/>
<polygon fill="#63b8ff" stroke="#63b8ff" points="183.41,-422.89 193.95,-423.92 186.35,-416.54 183.41,-422.89"/>
</a>
</g>
</g>
<!-- Node3 -->
<g id="Node000003" class="node">
<title>Node3</title>
<g id="a_Node000003"><a xlink:href="namespaceMayaFlux_1_1Kakshya_a88dd3a8013f6e990f4593616f261bc76.html#a88dd3a8013f6e990f4593616f261bc76" target="_top" xlink:title="Detects data modality from dimension information.">
<polygon fill="white" stroke="#666666" points="822,-518 699,-518 699,-488 822,-488 822,-518"/>
<text text-anchor="start" x="707" y="-506" font-family="Helvetica,sans-Serif" font-size="10.00">MayaFlux::Kakshya::</text>
<text text-anchor="middle" x="760.5" y="-495" font-family="Helvetica,sans-Serif" font-size="10.00">detect_data_modality</text>
</a>
</g>
</g>
<!-- Node2&#45;&gt;Node3 -->
<g id="edge2_Node000002_Node000003" class="edge">
<title>Node2&#45;&gt;Node3</title>
<g id="a_edge2_Node000002_Node000003"><a xlink:title=" ">
<path fill="none" stroke="#63b8ff" d="M647.86,-489.64C661.13,-491.23 675.2,-492.91 688.71,-494.53"/>
<polygon fill="#63b8ff" stroke="#63b8ff" points="688.56,-498.04 698.91,-495.75 689.4,-491.09 688.56,-498.04"/>
</a>
</g>
</g>
<!-- Node4 -->
<g id="Node000004" class="node">
<title>Node4</title>
<g id="a_Node000004"><a xlink:href="structMayaFlux_1_1Kakshya_1_1DataDimension_aab0cac54b47602cb00e2fd99b50839c3.html#aab0cac54b47602cb00e2fd99b50839c3" target="_top" xlink:title="Convenience constructor for a temporal (time) dimension.">
<polygon fill="white" stroke="#666666" points="821,-330 700,-330 700,-300 821,-300 821,-330"/>
<text text-anchor="start" x="708" y="-318" font-family="Helvetica,sans-Serif" font-size="10.00">MayaFlux::Kakshya::</text>
<text text-anchor="middle" x="760.5" y="-307" font-family="Helvetica,sans-Serif" font-size="10.00">DataDimension::time</text>
</a>
</g>
</g>
<!-- Node2&#45;&gt;Node4 -->
<g id="edge3_Node000002_Node000004" class="edge">
<title>Node2&#45;&gt;Node4</title>
<g id="a_edge3_Node000002_Node000004"><a xlink:title=" ">
<path fill="none" stroke="#63b8ff" d="M627.58,-466.9C635.78,-463.04 643.97,-458.42 651,-453 692.79,-420.8 727.67,-369.06 745.88,-338.92"/>
<polygon fill="#63b8ff" stroke="#63b8ff" points="748.9,-340.69 750.99,-330.3 742.88,-337.12 748.9,-340.69"/>
</a>
</g>
</g>
<!-- Node5&#45;&gt;Node3 -->
<g id="edge10_Node000005_Node000003" class="edge">
<title>Node5&#45;&gt;Node3</title>
<g id="a_edge10_Node000005_Node000003"><a xlink:title=" ">
<path fill="none" stroke="#63b8ff" d="M414.67,-411.05C431.09,-436.35 468.22,-486.56 515,-506 570.1,-528.9 638.41,-525.75 688.81,-518.25"/>
<polygon fill="#63b8ff" stroke="#63b8ff" points="689.63,-521.66 698.96,-516.64 688.53,-514.75 689.63,-521.66"/>
</a>
</g>
</g>
<!-- Node6 -->
<g id="Node000006" class="node">
<title>Node6</title>
<g id="a_Node000006"><a xlink:href="namespaceMayaFlux_1_1Kakshya_a35d849b2e199a43e29238fdc3827276b.html#a35d849b2e199a43e29238fdc3827276b" target="_top" xlink:title="Detect data dimensions from a DataVariant.">
<polygon fill="white" stroke="#666666" points="651,-249 515,-249 515,-219 651,-219 651,-249"/>
<text text-anchor="start" x="523" y="-237" font-family="Helvetica,sans-Serif" font-size="10.00">MayaFlux::Kakshya::</text>
<text text-anchor="middle" x="583" y="-226" font-family="Helvetica,sans-Serif" font-size="10.00">detect_data_dimensions</text>
</a>
</g>
</g>
<!-- Node5&#45;&gt;Node6 -->
<g id="edge5_Node000005_Node000006" class="edge">
<title>Node5&#45;&gt;Node6</title>
<g id="a_edge5_Node000005_Node000006"><a xlink:title=" ">
<path fill="none" stroke="#63b8ff" d="M422.16,-380.86C437.08,-367.3 459.53,-346.85 479,-329 506.19,-304.07 537.3,-275.35 558.16,-256.07"/>
<polygon fill="#63b8ff" stroke="#63b8ff" points="560.65,-258.53 565.62,-249.17 555.9,-253.39 560.65,-258.53"/>
</a>
</g>
</g>
<!-- Node6&#45;&gt;Node4 -->
<g id="edge9_Node000006_Node000004" class="edge">
<title>Node6&#45;&gt;Node4</title>
<g id="a_edge9_Node000006_Node000004"><a xlink:title=" ">
<path fill="none" stroke="#63b8ff" d="M623.44,-249.1C632.71,-253.18 642.38,-257.9 651,-263 668.44,-273.33 669.12,-281.45 687,-291 690.29,-292.76 693.74,-294.42 697.26,-295.98"/>
<polygon fill="#63b8ff" stroke="#63b8ff" points="696.15,-299.31 706.73,-299.9 698.83,-292.84 696.15,-299.31"/>
</a>
</g>
</g>
<!-- Node7 -->
<g id="Node000007" class="node">
<title>Node7</title>
<g id="a_Node000007"><a xlink:href="structMayaFlux_1_1Kakshya_1_1DataDimension_a6a1656bc7eafe4add39ec634481345a7.html#a6a1656bc7eafe4add39ec634481345a7" target="_top" xlink:title="Convenience constructor for a frequency dimension.">
<polygon fill="white" stroke="#666666" points="834,-234 687,-234 687,-204 834,-204 834,-234"/>
<text text-anchor="start" x="695" y="-222" font-family="Helvetica,sans-Serif" font-size="10.00">MayaFlux::Kakshya::</text>
<text text-anchor="middle" x="760.5" y="-211" font-family="Helvetica,sans-Serif" font-size="10.00">DataDimension::frequency</text>
</a>
</g>
</g>
<!-- Node6&#45;&gt;Node7 -->
<g id="edge6_Node000006_Node000007" class="edge">
<title>Node6&#45;&gt;Node7</title>
<g id="a_edge6_Node000006_Node000007"><a xlink:title=" ">
<path fill="none" stroke="#63b8ff" d="M651.1,-228.26C659.52,-227.55 668.2,-226.8 676.82,-226.07"/>
<polygon fill="#63b8ff" stroke="#63b8ff" points="677.22,-229.55 686.89,-225.21 676.62,-222.57 677.22,-229.55"/>
</a>
</g>
</g>
<!-- Node8 -->
<g id="Node000008" class="node">
<title>Node8</title>
<g id="a_Node000008"><a xlink:href="structMayaFlux_1_1Kakshya_1_1DataDimension_a57e1909558a284754db05334249f9d0f.html#a57e1909558a284754db05334249f9d0f" target="_top" xlink:title="Create dimension with component grouping.">
<polygon fill="white" stroke="#666666" points="829.5,-282 691.5,-282 691.5,-252 829.5,-252 829.5,-282"/>
<text text-anchor="start" x="699.5" y="-270" font-family="Helvetica,sans-Serif" font-size="10.00">MayaFlux::Kakshya::</text>
<text text-anchor="middle" x="760.5" y="-259" font-family="Helvetica,sans-Serif" font-size="10.00">DataDimension::grouped</text>
</a>
</g>
</g>
<!-- Node6&#45;&gt;Node8 -->
<g id="edge7_Node000006_Node000008" class="edge">
<title>Node6&#45;&gt;Node8</title>
<g id="a_edge7_Node000006_Node000008"><a xlink:title=" ">
<path fill="none" stroke="#63b8ff" d="M651.1,-246.62C660.97,-248.47 671.21,-250.4 681.28,-252.29"/>
<polygon fill="#63b8ff" stroke="#63b8ff" points="680.8,-255.76 691.27,-254.17 682.09,-248.88 680.8,-255.76"/>
</a>
</g>
</g>
<!-- Node9 -->
<g id="Node000009" class="node">
<title>Node9</title>
<g id="a_Node000009"><a xlink:href="structMayaFlux_1_1Kakshya_1_1DataDimension_a54ded63656235da79ab98ef3a576d3d2.html#a54ded63656235da79ab98ef3a576d3d2" target="_top" xlink:title="Convenience constructor for a spatial dimension.">
<polygon fill="white" stroke="#666666" points="826,-186 695,-186 695,-156 826,-156 826,-186"/>
<text text-anchor="start" x="703" y="-174" font-family="Helvetica,sans-Serif" font-size="10.00">MayaFlux::Kakshya::</text>
<text text-anchor="middle" x="760.5" y="-163" font-family="Helvetica,sans-Serif" font-size="10.00">DataDimension::spatial</text>
</a>
</g>
</g>
<!-- Node6&#45;&gt;Node9 -->
<g id="edge8_Node000006_Node000009" class="edge">
<title>Node6&#45;&gt;Node9</title>
<g id="a_edge8_Node000006_Node000009"><a xlink:title=" ">
<path fill="none" stroke="#63b8ff" d="M627.01,-218.96C635.01,-216.06 643.28,-212.99 651,-210 667.16,-203.74 670.76,-201.06 687,-195 692.05,-193.12 697.32,-191.23 702.61,-189.38"/>
<polygon fill="#63b8ff" stroke="#63b8ff" points="703.81,-192.67 712.13,-186.11 701.54,-186.05 703.81,-192.67"/>
</a>
</g>
</g>
<!-- Node10&#45;&gt;Node4 -->
<g id="edge15_Node000010_Node000004" class="edge">
<title>Node10&#45;&gt;Node4</title>
<g id="a_edge15_Node000010_Node000004"><a xlink:title=" ">
<path fill="none" stroke="#63b8ff" d="M638.54,-201.06C643.05,-203.6 647.29,-206.55 651,-210 679.87,-236.8 657.81,-264.55 687,-291 688.32,-292.19 689.7,-293.33 691.12,-294.41"/>
<polygon fill="#63b8ff" stroke="#63b8ff" points="689.49,-297.52 699.8,-299.99 693.28,-291.63 689.49,-297.52"/>
</a>
</g>
</g>
<!-- Node10&#45;&gt;Node7 -->
<g id="edge13_Node000010_Node000007" class="edge">
<title>Node10&#45;&gt;Node7</title>
<g id="a_edge13_Node000010_Node000007"><a xlink:title=" ">
<path fill="none" stroke="#63b8ff" d="M647.86,-198.01C657.24,-199.77 667.02,-201.61 676.71,-203.43"/>
<polygon fill="#63b8ff" stroke="#63b8ff" points="676.3,-206.92 686.77,-205.32 677.59,-200.04 676.3,-206.92"/>
</a>
</g>
</g>
<!-- Node10&#45;&gt;Node9 -->
<g id="edge14_Node000010_Node000009" class="edge">
<title>Node10&#45;&gt;Node9</title>
<g id="a_edge14_Node000010_Node000009"><a xlink:title=" ">
<path fill="none" stroke="#63b8ff" d="M647.86,-180.54C659.8,-179.52 672.38,-178.45 684.63,-177.4"/>
<polygon fill="#63b8ff" stroke="#63b8ff" points="685.14,-180.87 694.81,-176.53 684.55,-173.89 685.14,-180.87"/>
</a>
</g>
</g>
<!-- Node11 -->
<g id="Node000011" class="node">
<title>Node11</title>
<g id="a_Node000011"><a xlink:href="structMayaFlux_1_1Kakshya_1_1DataDimension_afae79b6c7314e95d426e396efe81787a.html#afae79b6c7314e95d426e396efe81787a" target="_top" xlink:title="Convenience constructor for a channel dimension.">
<polygon fill="white" stroke="#666666" points="829,-138 692,-138 692,-108 829,-108 829,-138"/>
<text text-anchor="start" x="700" y="-126" font-family="Helvetica,sans-Serif" font-size="10.00">MayaFlux::Kakshya::</text>
<text text-anchor="middle" x="760.5" y="-115" font-family="Helvetica,sans-Serif" font-size="10.00">DataDimension::channel</text>
</a>
</g>
</g>
<!-- Node10&#45;&gt;Node11 -->
<g id="edge12_Node000010_Node000011" class="edge">
<title>Node10&#45;&gt;Node11</title>
<g id="a_edge12_Node000010_Node000011"><a xlink:title=" ">
<path fill="none" stroke="#63b8ff" d="M627.01,-170.96C635.01,-168.06 643.28,-164.99 651,-162 667.16,-155.74 670.76,-153.06 687,-147 692.05,-145.12 697.32,-143.23 702.61,-141.38"/>
<polygon fill="#63b8ff" stroke="#63b8ff" points="703.81,-144.67 712.13,-138.11 701.54,-138.05 703.81,-144.67"/>
</a>
</g>
</g>
<!-- Node12&#45;&gt;Node2 -->
<g id="edge26_Node000012_Node000002" class="edge">
<title>Node12&#45;&gt;Node2</title>
<g id="a_edge26_Node000012_Node000002"><a xlink:title=" ">
<path fill="none" stroke="#63b8ff" d="M418.19,-287.1C448.71,-323.41 526.36,-415.8 562.7,-459.03"/>
<polygon fill="#63b8ff" stroke="#63b8ff" points="560.07,-461.35 569.18,-466.75 565.43,-456.84 560.07,-461.35"/>
</a>
</g>
</g>
<!-- Node12&#45;&gt;Node4 -->
<g id="edge27_Node000012_Node000004" class="edge">
<title>Node12&#45;&gt;Node4</title>
<g id="a_edge27_Node000012_Node000004"><a xlink:title=" ">
<path fill="none" stroke="#63b8ff" d="M469.07,-283.85C484.1,-286.42 500.09,-288.98 515,-291 573.69,-298.96 640.66,-305.35 689.65,-309.53"/>
<polygon fill="#63b8ff" stroke="#63b8ff" points="689.56,-313.03 699.82,-310.38 690.15,-306.05 689.56,-313.03"/>
</a>
</g>
</g>
<!-- Node13 -->
<g id="Node000013" class="node">
<title>Node13</title>
<g id="a_Node000013"><a xlink:href="structMayaFlux_1_1Kakshya_1_1DataDimension_ac71c3404aadefac0fe97e641021e1eba.html#ac71c3404aadefac0fe97e641021e1eba" target="_top" xlink:title="Create dimension descriptors for a data modality.">
<polygon fill="white" stroke="#666666" points="647.5,-104.5 518.5,-104.5 518.5,-63.5 647.5,-63.5 647.5,-104.5"/>
<text text-anchor="start" x="526.5" y="-92.5" font-family="Helvetica,sans-Serif" font-size="10.00">MayaFlux::Kakshya::</text>
<text text-anchor="start" x="526.5" y="-81.5" font-family="Helvetica,sans-Serif" font-size="10.00">DataDimension::create</text>
<text text-anchor="middle" x="583" y="-70.5" font-family="Helvetica,sans-Serif" font-size="10.00">_dimensions</text>
</a>
</g>
</g>
<!-- Node12&#45;&gt;Node13 -->
<g id="edge17_Node000012_Node000013" class="edge">
<title>Node12&#45;&gt;Node13</title>
<g id="a_edge17_Node000012_Node000013"><a xlink:title=" ">
<path fill="none" stroke="#63b8ff" d="M429.14,-256.87C445.1,-245.61 465.62,-228.96 479,-210 505.27,-172.77 483.8,-147.21 515,-114 516.04,-112.9 517.12,-111.83 518.25,-110.8"/>
<polygon fill="#63b8ff" stroke="#63b8ff" points="520.51,-113.47 526.21,-104.54 516.18,-107.97 520.51,-113.47"/>
</a>
</g>
</g>
<!-- Node17 -->
<g id="Node000017" class="node">
<title>Node17</title>
<g id="a_Node000017"><a xlink:href="structMayaFlux_1_1Kakshya_1_1Region_a86ab8b71d580d67f6c46525eed760bab.html#a86ab8b71d580d67f6c46525eed760bab" target="_top" xlink:title="Get an attribute value by key, with type conversion support.">
<polygon fill="white" stroke="#666666" points="642.5,-153 523.5,-153 523.5,-123 642.5,-123 642.5,-153"/>
<text text-anchor="start" x="531.5" y="-141" font-family="Helvetica,sans-Serif" font-size="10.00">MayaFlux::Kakshya::</text>
<text text-anchor="middle" x="583" y="-130" font-family="Helvetica,sans-Serif" font-size="10.00">Region::get_attribute</text>
</a>
</g>
</g>
<!-- Node12&#45;&gt;Node17 -->
<g id="edge25_Node000012_Node000017" class="edge">
<title>Node12&#45;&gt;Node17</title>
<g id="a_edge25_Node000012_Node000017"><a xlink:title=" ">
<path fill="none" stroke="#63b8ff" d="M425.92,-256.82C441.3,-244.91 462.49,-227.48 479,-210 497.31,-190.61 493.54,-177.83 515,-162 516.86,-160.63 518.8,-159.33 520.81,-158.1"/>
<polygon fill="#63b8ff" stroke="#63b8ff" points="522.83,-160.99 529.95,-153.14 519.49,-154.84 522.83,-160.99"/>
</a>
</g>
</g>
<!-- Node13&#45;&gt;Node4 -->
<g id="edge24_Node000013_Node000004" class="edge">
<title>Node13&#45;&gt;Node4</title>
<g id="a_edge24_Node000013_Node000004"><a xlink:title=" ">
<path fill="none" stroke="#63b8ff" d="M641.35,-104.69C644.93,-107.43 648.21,-110.52 651,-114 701.18,-176.66 633.71,-230.96 687,-291 688.39,-292.56 689.88,-294.02 691.45,-295.39"/>
<polygon fill="#63b8ff" stroke="#63b8ff" points="689.79,-298.5 699.96,-301.46 693.85,-292.8 689.79,-298.5"/>
</a>
</g>
</g>
<!-- Node13&#45;&gt;Node7 -->
<g id="edge20_Node000013_Node000007" class="edge">
<title>Node13&#45;&gt;Node7</title>
<g id="a_edge20_Node000013_Node000007"><a xlink:title=" ">
<path fill="none" stroke="#63b8ff" d="M639.24,-104.54C643.49,-107.34 647.49,-110.48 651,-114 678.82,-141.9 657.81,-168.55 687,-195 688.32,-196.19 689.7,-197.33 691.12,-198.41"/>
<polygon fill="#63b8ff" stroke="#63b8ff" points="689.49,-201.52 699.8,-203.99 693.28,-195.63 689.49,-201.52"/>
</a>
</g>
</g>
<!-- Node13&#45;&gt;Node9 -->
<g id="edge23_Node000013_Node000009" class="edge">
<title>Node13&#45;&gt;Node9</title>
<g id="a_edge23_Node000013_Node000009"><a xlink:title=" ">
<path fill="none" stroke="#63b8ff" d="M634.69,-104.58C640.34,-107.49 645.89,-110.64 651,-114 669.14,-125.92 668.28,-136.01 687,-147 689.86,-148.68 692.85,-150.26 695.92,-151.74"/>
<polygon fill="#63b8ff" stroke="#63b8ff" points="694.76,-155.06 705.32,-155.91 697.6,-148.66 694.76,-155.06"/>
</a>
</g>
</g>
<!-- Node13&#45;&gt;Node11 -->
<g id="edge19_Node000013_Node000011" class="edge">
<title>Node13&#45;&gt;Node11</title>
<g id="a_edge19_Node000013_Node000011"><a xlink:title=" ">
<path fill="none" stroke="#63b8ff" d="M647.86,-98.19C658.92,-100.65 670.54,-103.23 681.92,-105.76"/>
<polygon fill="#63b8ff" stroke="#63b8ff" points="681.33,-109.21 691.85,-107.97 682.85,-102.38 681.33,-109.21"/>
</a>
</g>
</g>
<!-- Node14 -->
<g id="Node000014" class="node">
<title>Node14</title>
<g id="a_Node000014"><a xlink:href="structMayaFlux_1_1Kakshya_1_1DataDimension_aafb5f78e7e3682f8785ef62f77e5d77a.html#aafb5f78e7e3682f8785ef62f77e5d77a" target="_top" xlink:title="Calculate memory strides based on shape and layout.">
<polygon fill="white" stroke="#666666" points="832,-89.5 689,-89.5 689,-48.5 832,-48.5 832,-89.5"/>
<text text-anchor="start" x="697" y="-77.5" font-family="Helvetica,sans-Serif" font-size="10.00">MayaFlux::Kakshya::</text>
<text text-anchor="start" x="697" y="-66.5" font-family="Helvetica,sans-Serif" font-size="10.00">DataDimension::calculate</text>
<text text-anchor="middle" x="760.5" y="-55.5" font-family="Helvetica,sans-Serif" font-size="10.00">_strides</text>
</a>
</g>
</g>
<!-- Node13&#45;&gt;Node14 -->
<g id="edge18_Node000013_Node000014" class="edge">
<title>Node13&#45;&gt;Node14</title>
<g id="a_edge18_Node000013_Node000014"><a xlink:title=" ">
<path fill="none" stroke="#63b8ff" d="M647.86,-78.54C657.85,-77.69 668.3,-76.8 678.61,-75.91"/>
<polygon fill="#63b8ff" stroke="#63b8ff" points="679.2,-79.38 688.87,-75.04 678.61,-72.4 679.2,-79.38"/>
</a>
</g>
</g>
<!-- Node15 -->
<g id="Node000015" class="node">
<title>Node15</title>
<g id="a_Node000015"><a xlink:href="namespaceMayaFlux_1_1Kakshya_aedc3538e77f59c4a4d91df28e181d066.html#aedc3538e77f59c4a4d91df28e181d066" target="_top" xlink:title="Convert DataModality enum to string representation.">
<polygon fill="white" stroke="#666666" points="820,-30 701,-30 701,0 820,0 820,-30"/>
<text text-anchor="start" x="709" y="-18" font-family="Helvetica,sans-Serif" font-size="10.00">MayaFlux::Kakshya::</text>
<text text-anchor="middle" x="760.5" y="-7" font-family="Helvetica,sans-Serif" font-size="10.00">modality_to_string</text>
</a>
</g>
</g>
<!-- Node13&#45;&gt;Node15 -->
<g id="edge21_Node000013_Node000015" class="edge">
<title>Node13&#45;&gt;Node15</title>
<g id="a_edge21_Node000013_Node000015"><a xlink:title=" ">
<path fill="none" stroke="#63b8ff" d="M628.5,-63.49C646.51,-55.47 667.59,-46.43 687,-39 691.83,-37.15 696.87,-35.31 701.94,-33.51"/>
<polygon fill="#63b8ff" stroke="#63b8ff" points="703.4,-36.71 711.7,-30.13 701.11,-30.1 703.4,-36.71"/>
</a>
</g>
</g>
<!-- Node16 -->
<g id="Node000016" class="node">
<title>Node16</title>
<g id="a_Node000016"><a xlink:href="namespaceMayaFlux_1_1Reflect_aad91118cbd25bd9e35a3ced9aa4e6dbd.html#aad91118cbd25bd9e35a3ced9aa4e6dbd" target="_top" xlink:title="Universal enum to string converter using magic_enum (original case)">
<polygon fill="white" stroke="#666666" points="980,-30 870,-30 870,0 980,0 980,-30"/>
<text text-anchor="start" x="878" y="-18" font-family="Helvetica,sans-Serif" font-size="10.00">MayaFlux::Reflect::</text>
<text text-anchor="middle" x="925" y="-7" font-family="Helvetica,sans-Serif" font-size="10.00">enum_to_string</text>
</a>
</g>
</g>
<!-- Node15&#45;&gt;Node16 -->
<g id="edge22_Node000015_Node000016" class="edge">
<title>Node15&#45;&gt;Node16</title>
<g id="a_edge22_Node000015_Node000016"><a xlink:title=" ">
<path fill="none" stroke="#63b8ff" d="M820.17,-15C832.93,-15 846.51,-15 859.49,-15"/>
<polygon fill="#63b8ff" stroke="#63b8ff" points="859.75,-18.5 869.75,-15 859.75,-11.5 859.75,-18.5"/>
</a>
</g>
</g>
<!-- Node18&#45;&gt;Node4 -->
<g id="edge32_Node000018_Node000004" class="edge">
<title>Node18&#45;&gt;Node4</title>
<g id="a_edge32_Node000018_Node000004"><a xlink:title=" ">
<path fill="none" stroke="#63b8ff" d="M294.25,-230.46C344.7,-232.44 416.78,-237.09 479,-248 495.36,-250.87 498.91,-253.89 515,-258 573.77,-273.01 640.9,-288.54 689.93,-299.6"/>
<polygon fill="#63b8ff" stroke="#63b8ff" points="689.27,-303.04 699.79,-301.82 690.81,-296.21 689.27,-303.04"/>
</a>
</g>
</g>
<!-- Node18&#45;&gt;Node12 -->
<g id="edge31_Node000018_Node000012" class="edge">
<title>Node18&#45;&gt;Node12</title>
<g id="a_edge31_Node000018_Node000012"><a xlink:title=" ">
<path fill="none" stroke="#63b8ff" d="M291.01,-244.04C304.57,-247.41 319.08,-251.02 333.01,-254.48"/>
<polygon fill="#63b8ff" stroke="#63b8ff" points="332.48,-257.95 343.03,-256.97 334.17,-251.16 332.48,-257.95"/>
</a>
</g>
</g>
<!-- Node18&#45;&gt;Node13 -->
<g id="edge29_Node000018_Node000013" class="edge">
<title>Node18&#45;&gt;Node13</title>
<g id="a_edge29_Node000018_Node000013"><a xlink:title=" ">
<path fill="none" stroke="#63b8ff" d="M249.3,-213.87C268.59,-198.96 299.94,-176.39 330,-162 387.63,-134.42 457.29,-113.73 508.75,-100.62"/>
<polygon fill="#63b8ff" stroke="#63b8ff" points="509.62,-104.01 518.46,-98.18 507.91,-97.22 509.62,-104.01"/>
</a>
</g>
</g>
<!-- Node19 -->
<g id="Node000019" class="node">
<title>Node19</title>
<g id="a_Node000019"><a xlink:href="namespaceMayaFlux_1_1Kakshya_aa7c10c255af63923f0c0583a7d3a58de.html#aa7c10c255af63923f0c0583a7d3a58de" target="_top" xlink:title="Extract bounds information from region group.">
<polygon fill="white" stroke="#666666" points="479,-201 330,-201 330,-171 479,-171 479,-201"/>
<text text-anchor="start" x="338" y="-189" font-family="Helvetica,sans-Serif" font-size="10.00">MayaFlux::Kakshya::</text>
<text text-anchor="middle" x="404.5" y="-178" font-family="Helvetica,sans-Serif" font-size="10.00">extract_group_bounds_info</text>
</a>
</g>
</g>
<!-- Node18&#45;&gt;Node19 -->
<g id="edge30_Node000018_Node000019" class="edge">
<title>Node18&#45;&gt;Node19</title>
<g id="a_edge30_Node000018_Node000019"><a xlink:title=" ">
<path fill="none" stroke="#63b8ff" d="M291.01,-213.96C304.57,-210.59 319.08,-206.98 333.01,-203.52"/>
<polygon fill="#63b8ff" stroke="#63b8ff" points="334.17,-206.84 343.03,-201.03 332.48,-200.05 334.17,-206.84"/>
</a>
</g>
</g>
<!-- Node20&#45;&gt;Node4 -->
<g id="edge35_Node000020_Node000004" class="edge">
<title>Node20&#45;&gt;Node4</title>
<g id="a_edge35_Node000020_Node000004"><a xlink:title=" ">
<path fill="none" stroke="#63b8ff" d="M294.05,-348.44C393.81,-341.27 586.43,-327.43 689.84,-320"/>
<polygon fill="#63b8ff" stroke="#63b8ff" points="690.15,-323.49 699.87,-319.28 689.65,-316.51 690.15,-323.49"/>
</a>
</g>
</g>
<!-- Node20&#45;&gt;Node12 -->
<g id="edge34_Node000020_Node000012" class="edge">
<title>Node20&#45;&gt;Node12</title>
<g id="a_edge34_Node000020_Node000012"><a xlink:title=" ">
<path fill="none" stroke="#63b8ff" d="M262.63,-337.95C290.71,-324.81 331.62,-305.65 362.14,-291.37"/>
<polygon fill="#63b8ff" stroke="#63b8ff" points="363.67,-294.51 371.24,-287.1 360.7,-288.17 363.67,-294.51"/>
</a>
</g>
</g>
<!-- Node21&#45;&gt;Node4 -->
<g id="edge37_Node000021_Node000004" class="edge">
<title>Node21&#45;&gt;Node4</title>
<g id="a_edge37_Node000021_Node000004"><a xlink:title=" ">
<path fill="none" stroke="#63b8ff" d="M294.03,-439.04C344.67,-437.91 417.1,-433.66 479,-420 567.38,-400.49 665.24,-358.98 718.84,-334.39"/>
<polygon fill="#63b8ff" stroke="#63b8ff" points="720.39,-337.53 728,-330.16 717.46,-331.18 720.39,-337.53"/>
</a>
</g>
</g>
</g>
</svg>
