<?xml version="1.0" encoding="UTF-8" standalone="no"?>
<!DOCTYPE svg PUBLIC "-//W3C//DTD SVG 1.1//EN"
 "http://www.w3.org/Graphics/SVG/1.1/DTD/svg11.dtd">
<!-- Generated by graphviz version 2.43.0 (0)
 -->
<!-- Title: MayaFlux::IO::save_text_buffer Pages: 1 -->
<svg width="821pt" height="182pt"
 viewBox="0.00 0.00 821.00 182.00" xmlns="http://www.w3.org/2000/svg" xmlns:xlink="http://www.w3.org/1999/xlink">
<g id="graph0" class="graph" transform="scale(1 1) rotate(0) translate(4 178)">
<title>MayaFlux::IO::save_text_buffer</title>
<!-- Node1 -->
<g id="Node000001" class="node">
<title>Node1</title>
<g id="a_Node000001"><a xlink:title="Save a TextBuffer&#39;s rendered glyph texture to disk.">
<polygon fill="#999999" stroke="#666666" points="110,-102 0,-102 0,-72 110,-72 110,-102"/>
<text text-anchor="start" x="8" y="-90" font-family="Helvetica,sans-Serif" font-size="10.00">MayaFlux::IO::save</text>
<text text-anchor="middle" x="55" y="-79" font-family="Helvetica,sans-Serif" font-size="10.00">_text_buffer</text>
</a>
</g>
</g>
<!-- Node2 -->
<g id="Node000002" class="node">
<title>Node2</title>
<g id="a_Node000002"><a xlink:href="namespaceMayaFlux_1_1IO_a03a3f24fff1c3b2fc670ee5539f5ca80.html#a03a3f24fff1c3b2fc670ee5539f5ca80" target="_top" xlink:title="Save a TextureBuffer&#39;s current GPU state to disk.">
<polygon fill="white" stroke="#666666" points="256,-102 146,-102 146,-72 256,-72 256,-102"/>
<text text-anchor="start" x="154" y="-90" font-family="Helvetica,sans-Serif" font-size="10.00">MayaFlux::IO::save</text>
<text text-anchor="middle" x="201" y="-79" font-family="Helvetica,sans-Serif" font-size="10.00">_texture_buffer</text>
</a>
</g>
</g>
<!-- Node1&#45;&gt;Node2 -->
<g id="edge1_Node000001_Node000002" class="edge">
<title>Node1&#45;&gt;Node2</title>
<g id="a_edge1_Node000001_Node000002"><a xlink:title=" ">
<path fill="none" stroke="#63b8ff" d="M110.03,-87C118.31,-87 126.94,-87 135.42,-87"/>
<polygon fill="#63b8ff" stroke="#63b8ff" points="135.67,-90.5 145.67,-87 135.67,-83.5 135.67,-90.5"/>
</a>
</g>
</g>
<!-- Node3 -->
<g id="Node000003" class="node">
<title>Node3</title>
<g id="a_Node000003"><a xlink:href="namespaceMayaFlux_1_1IO_a4f12c1b729a3d84c98e799a6af07ab19.html#a4f12c1b729a3d84c98e799a6af07ab19" target="_top" xlink:title="Save a VKImage directly to disk via the ImageWriter registry.">
<polygon fill="white" stroke="#666666" points="402,-102 292,-102 292,-72 402,-72 402,-102"/>
<text text-anchor="start" x="300" y="-90" font-family="Helvetica,sans-Serif" font-size="10.00">MayaFlux::IO::save</text>
<text text-anchor="middle" x="347" y="-79" font-family="Helvetica,sans-Serif" font-size="10.00">_image</text>
</a>
</g>
</g>
<!-- Node2&#45;&gt;Node3 -->
<g id="edge2_Node000002_Node000003" class="edge">
<title>Node2&#45;&gt;Node3</title>
<g id="a_edge2_Node000002_Node000003"><a xlink:title=" ">
<path fill="none" stroke="#63b8ff" d="M256.03,-87C264.31,-87 272.94,-87 281.42,-87"/>
<polygon fill="#63b8ff" stroke="#63b8ff" points="281.67,-90.5 291.67,-87 281.67,-83.5 281.67,-90.5"/>
</a>
</g>
</g>
<!-- Node4 -->
<g id="Node000004" class="node">
<title>Node4</title>
<g id="a_Node000004"><a xlink:href="classMayaFlux_1_1IO_1_1ImageWriterRegistry_a2460e4fa98bf558cbbd92facd212b0a5.html#a2460e4fa98bf558cbbd92facd212b0a5" target="_top" xlink:title=" ">
<polygon fill="white" stroke="#666666" points="586,-150 438,-150 438,-120 586,-120 586,-150"/>
<text text-anchor="start" x="446" y="-138" font-family="Helvetica,sans-Serif" font-size="10.00">MayaFlux::IO::ImageWriter</text>
<text text-anchor="middle" x="512" y="-127" font-family="Helvetica,sans-Serif" font-size="10.00">Registry::create_writer</text>
</a>
</g>
</g>
<!-- Node3&#45;&gt;Node4 -->
<g id="edge3_Node000003_Node000004" class="edge">
<title>Node3&#45;&gt;Node4</title>
<g id="a_edge3_Node000003_Node000004"><a xlink:title=" ">
<path fill="none" stroke="#63b8ff" d="M399.13,-102.06C415.36,-106.84 433.47,-112.17 450.31,-117.13"/>
<polygon fill="#63b8ff" stroke="#63b8ff" points="449.47,-120.53 460.05,-120 451.45,-113.82 449.47,-120.53"/>
</a>
</g>
</g>
<!-- Node5 -->
<g id="Node000005" class="node">
<title>Node5</title>
<g id="a_Node000005"><a xlink:href="namespaceMayaFlux_1_1IO_ae74e134903752924b1f4a6bda9732de8.html#ae74e134903752924b1f4a6bda9732de8" target="_top" xlink:title="Download pixel data from a GPU&#45;resident VKImage into host ImageData.">
<polygon fill="white" stroke="#666666" points="579,-102 445,-102 445,-72 579,-72 579,-102"/>
<text text-anchor="start" x="453" y="-90" font-family="Helvetica,sans-Serif" font-size="10.00">MayaFlux::IO::download</text>
<text text-anchor="middle" x="512" y="-79" font-family="Helvetica,sans-Serif" font-size="10.00">_image</text>
</a>
</g>
</g>
<!-- Node3&#45;&gt;Node5 -->
<g id="edge4_Node000003_Node000005" class="edge">
<title>Node3&#45;&gt;Node5</title>
<g id="a_edge4_Node000003_Node000005"><a xlink:title=" ">
<path fill="none" stroke="#63b8ff" d="M402.28,-87C412.7,-87 423.79,-87 434.76,-87"/>
<polygon fill="#63b8ff" stroke="#63b8ff" points="434.77,-90.5 444.77,-87 434.77,-83.5 434.77,-90.5"/>
</a>
</g>
</g>
<!-- Node10 -->
<g id="Node000010" class="node">
<title>Node10</title>
<g id="a_Node000010"><a xlink:href="classMayaFlux_1_1IO_1_1ImageWriterRegistry_a25caa467f66d3d18650bdffcc77b8125.html#a25caa467f66d3d18650bdffcc77b8125" target="_top" xlink:title=" ">
<polygon fill="white" stroke="#666666" points="586,-54 438,-54 438,-24 586,-24 586,-54"/>
<text text-anchor="start" x="446" y="-42" font-family="Helvetica,sans-Serif" font-size="10.00">MayaFlux::IO::ImageWriter</text>
<text text-anchor="middle" x="512" y="-31" font-family="Helvetica,sans-Serif" font-size="10.00">Registry::instance</text>
</a>
</g>
</g>
<!-- Node3&#45;&gt;Node10 -->
<g id="edge9_Node000003_Node000010" class="edge">
<title>Node3&#45;&gt;Node10</title>
<g id="a_edge9_Node000003_Node000010"><a xlink:title=" ">
<path fill="none" stroke="#63b8ff" d="M399.13,-71.94C415.36,-67.16 433.47,-61.83 450.31,-56.87"/>
<polygon fill="#63b8ff" stroke="#63b8ff" points="451.45,-60.18 460.05,-54 449.47,-53.47 451.45,-60.18"/>
</a>
</g>
</g>
<!-- Node6 -->
<g id="Node000006" class="node">
<title>Node6</title>
<g id="a_Node000006"><a xlink:href="structMayaFlux_1_1IO_1_1ImageData_ae98f576c9d2c433e1a321922f76795da.html#ae98f576c9d2c433e1a321922f76795da" target="_top" xlink:title="Raw data pointer, dispatched on variant.">
<polygon fill="white" stroke="#666666" points="788,-174 647,-174 647,-144 788,-144 788,-174"/>
<text text-anchor="start" x="655" y="-162" font-family="Helvetica,sans-Serif" font-size="10.00">MayaFlux::IO::ImageData</text>
<text text-anchor="middle" x="717.5" y="-151" font-family="Helvetica,sans-Serif" font-size="10.00">::data</text>
</a>
</g>
</g>
<!-- Node5&#45;&gt;Node6 -->
<g id="edge5_Node000005_Node000006" class="edge">
<title>Node5&#45;&gt;Node6</title>
<g id="a_edge5_Node000005_Node000006"><a xlink:title=" ">
<path fill="none" stroke="#63b8ff" d="M564.75,-102.07C572.01,-104.74 579.28,-107.73 586,-111 603.29,-119.41 604.43,-127.19 622,-135 626.93,-137.19 632.1,-139.21 637.37,-141.06"/>
<polygon fill="#63b8ff" stroke="#63b8ff" points="636.34,-144.41 646.93,-144.22 638.54,-137.76 636.34,-144.41"/>
</a>
</g>
</g>
<!-- Node7 -->
<g id="Node000007" class="node">
<title>Node7</title>
<g id="a_Node000007"><a xlink:href="classMayaFlux_1_1Portal_1_1Graphics_1_1TextureLoom_aa0f056b6e351a1ef300e21cb51077dbe.html#aa0f056b6e351a1ef300e21cb51077dbe" target="_top" xlink:title="Convert Vulkan format to Portal ImageFormat.">
<polygon fill="white" stroke="#666666" points="813,-126 622,-126 622,-96 813,-96 813,-126"/>
<text text-anchor="start" x="630" y="-114" font-family="Helvetica,sans-Serif" font-size="10.00">MayaFlux::Portal::Graphics</text>
<text text-anchor="middle" x="717.5" y="-103" font-family="Helvetica,sans-Serif" font-size="10.00">::TextureLoom::from_vulkan_format</text>
</a>
</g>
</g>
<!-- Node5&#45;&gt;Node7 -->
<g id="edge6_Node000005_Node000007" class="edge">
<title>Node5&#45;&gt;Node7</title>
<g id="a_edge6_Node000005_Node000007"><a xlink:title=" ">
<path fill="none" stroke="#63b8ff" d="M579.07,-94.79C589.56,-96.03 600.62,-97.33 611.73,-98.64"/>
<polygon fill="#63b8ff" stroke="#63b8ff" points="611.59,-102.15 621.93,-99.85 612.41,-95.2 611.59,-102.15"/>
</a>
</g>
</g>
<!-- Node8 -->
<g id="Node000008" class="node">
<title>Node8</title>
<g id="a_Node000008"><a xlink:href="classMayaFlux_1_1Portal_1_1Graphics_1_1TextureLoom_a1d702ea8bef8765e8895776bd67b0cc8.html#a1d702ea8bef8765e8895776bd67b0cc8" target="_top" xlink:title="Get the number of color channels for a given format.">
<polygon fill="white" stroke="#666666" points="809,-78 626,-78 626,-48 809,-48 809,-78"/>
<text text-anchor="start" x="634" y="-66" font-family="Helvetica,sans-Serif" font-size="10.00">MayaFlux::Portal::Graphics</text>
<text text-anchor="middle" x="717.5" y="-55" font-family="Helvetica,sans-Serif" font-size="10.00">::TextureLoom::get_channel_count</text>
</a>
</g>
</g>
<!-- Node5&#45;&gt;Node8 -->
<g id="edge7_Node000005_Node000008" class="edge">
<title>Node5&#45;&gt;Node8</title>
<g id="a_edge7_Node000005_Node000008"><a xlink:title=" ">
<path fill="none" stroke="#63b8ff" d="M579.07,-79.21C590.88,-77.81 603.43,-76.33 615.96,-74.86"/>
<polygon fill="#63b8ff" stroke="#63b8ff" points="616.46,-78.32 625.98,-73.68 615.64,-71.37 616.46,-78.32"/>
</a>
</g>
</g>
<!-- Node9 -->
<g id="Node000009" class="node">
<title>Node9</title>
<g id="a_Node000009"><a xlink:href="structMayaFlux_1_1IO_1_1ImageData_a12afd81ebcc2660cfe912a96c5542dfc.html#a12afd81ebcc2660cfe912a96c5542dfc" target="_top" xlink:title="Check that the active variant matches the declared format.">
<polygon fill="white" stroke="#666666" points="788,-30 647,-30 647,0 788,0 788,-30"/>
<text text-anchor="start" x="655" y="-18" font-family="Helvetica,sans-Serif" font-size="10.00">MayaFlux::IO::ImageData</text>
<text text-anchor="middle" x="717.5" y="-7" font-family="Helvetica,sans-Serif" font-size="10.00">::is_consistent</text>
</a>
</g>
</g>
<!-- Node5&#45;&gt;Node9 -->
<g id="edge8_Node000005_Node000009" class="edge">
<title>Node5&#45;&gt;Node9</title>
<g id="a_edge8_Node000005_Node000009"><a xlink:title=" ">
<path fill="none" stroke="#63b8ff" d="M564.75,-71.93C572.01,-69.26 579.28,-66.27 586,-63 603.29,-54.59 604.43,-46.81 622,-39 626.93,-36.81 632.1,-34.79 637.37,-32.94"/>
<polygon fill="#63b8ff" stroke="#63b8ff" points="638.54,-36.24 646.93,-29.78 636.34,-29.59 638.54,-36.24"/>
</a>
</g>
</g>
</g>
</svg>
