<?xml version="1.0" encoding="UTF-8" standalone="no"?>
<!DOCTYPE svg PUBLIC "-//W3C//DTD SVG 1.1//EN"
 "http://www.w3.org/Graphics/SVG/1.1/DTD/svg11.dtd">
<!-- Generated by graphviz version 2.43.0 (0)
 -->
<!-- Title: MayaFlux::Buffers::download_from_gpu Pages: 1 -->
<svg width="478pt" height="242pt"
 viewBox="0.00 0.00 478.00 242.27" xmlns="http://www.w3.org/2000/svg" xmlns:xlink="http://www.w3.org/1999/xlink">

<svg id="main" version="1.1" xmlns="http://www.w3.org/2000/svg" xmlns:xlink="http://www.w3.org/1999/xlink" xml:space="preserve" onload="init(evt)">
<style type="text/css"><![CDATA[
.node, .edge {opacity: 0.7;}
.node.selected, .edge.selected {opacity: 1;}
.edge:hover path { stroke: red; }
.edge:hover polygon { stroke: red; fill: red; }
]]></style>
<script type="application/ecmascript" xlink:href="svg.min.js"/>
<svg id="graph" class="graph">
<g id="graph0" class="graph" transform="scale(1 1) rotate(0) translate(4 238.27)">
<title>MayaFlux::Buffers::download_from_gpu</title>
<!-- Node1 -->
<g id="Node000001" class="node">
<title>Node1</title>
<g id="a_Node000001"><a xlink:title="Download from GPU buffer to raw data (auto&#45;detects host&#45;visible vs device&#45;local)">
<polygon fill="#999999" stroke="#666666" points="116,-140 0,-140 0,-110 116,-110 116,-140"/>
<text text-anchor="start" x="8" y="-128" font-family="Helvetica,sans-Serif" font-size="10.00">MayaFlux::Buffers::</text>
<text text-anchor="middle" x="58" y="-117" font-family="Helvetica,sans-Serif" font-size="10.00">download_from_gpu</text>
</a>
</g>
</g>
<!-- Node2 -->
<g id="Node000002" class="node">
<title>Node2</title>
<g id="a_Node000002"><a xlink:href="namespaceMayaFlux_1_1Buffers_a64c6abe8842e398d178e4275a4d4b404.html#a64c6abe8842e398d178e4275a4d4b404" target="_top" xlink:title="Create staging buffer for transfers.">
<polygon fill="white" stroke="#666666" points="278.5,-212 156.5,-212 156.5,-182 278.5,-182 278.5,-212"/>
<text text-anchor="start" x="164.5" y="-200" font-family="Helvetica,sans-Serif" font-size="10.00">MayaFlux::Buffers::</text>
<text text-anchor="middle" x="217.5" y="-189" font-family="Helvetica,sans-Serif" font-size="10.00">create_staging_buffer</text>
</a>
</g>
</g>
<!-- Node1&#45;&gt;Node2 -->
<g id="edge1_Node000001_Node000002" class="edge">
<title>Node1&#45;&gt;Node2</title>
<g id="a_edge1_Node000001_Node000002"><a xlink:title=" ">
<path fill="none" stroke="#63b8ff" d="M86.25,-140.17C104.57,-150.08 129.4,-163.01 152,-173 156.04,-174.79 160.26,-176.56 164.53,-178.28"/>
<polygon fill="#63b8ff" stroke="#63b8ff" points="163.29,-181.56 173.88,-181.97 165.86,-175.05 163.29,-181.56"/>
</a>
</g>
</g>
<!-- Node3 -->
<g id="Node000003" class="node">
<title>Node3</title>
<g id="a_Node000003"><a xlink:href="classMayaFlux_1_1Registry_1_1BackendRegistry_a0c7a59c0847791ed0915dcd64e8df783.html#a0c7a59c0847791ed0915dcd64e8df783" target="_top" xlink:title="Query for a backend service.">
<polygon fill="white" stroke="#666666" points="457,-206.5 332,-206.5 332,-165.5 457,-165.5 457,-206.5"/>
<text text-anchor="start" x="340" y="-194.5" font-family="Helvetica,sans-Serif" font-size="10.00">MayaFlux::Registry</text>
<text text-anchor="start" x="340" y="-183.5" font-family="Helvetica,sans-Serif" font-size="10.00">::BackendRegistry::get</text>
<text text-anchor="middle" x="394.5" y="-172.5" font-family="Helvetica,sans-Serif" font-size="10.00">_service</text>
</a>
</g>
</g>
<!-- Node1&#45;&gt;Node3 -->
<g id="edge10_Node000001_Node000003" class="edge">
<title>Node1&#45;&gt;Node3</title>
<g id="a_edge10_Node000001_Node000003"><a xlink:title=" ">
<path fill="none" stroke="#63b8ff" d="M68.07,-140.3C82.51,-162.96 113.11,-204.53 152,-221 212.29,-246.53 287.79,-228.48 338.18,-210.17"/>
<polygon fill="#63b8ff" stroke="#63b8ff" points="339.46,-213.42 347.59,-206.63 337,-206.87 339.46,-213.42"/>
</a>
</g>
</g>
<!-- Node4 -->
<g id="Node000004" class="node">
<title>Node4</title>
<g id="a_Node000004"><a xlink:href="classMayaFlux_1_1Registry_1_1BackendRegistry_aa28c6f5592e5893508bafb62aefcc496.html#aa28c6f5592e5893508bafb62aefcc496" target="_top" xlink:title="Get the global registry instance.">
<polygon fill="white" stroke="#666666" points="470,-137 319,-137 319,-107 470,-107 470,-137"/>
<text text-anchor="start" x="327" y="-125" font-family="Helvetica,sans-Serif" font-size="10.00">MayaFlux::Registry</text>
<text text-anchor="middle" x="394.5" y="-114" font-family="Helvetica,sans-Serif" font-size="10.00">::BackendRegistry::instance</text>
</a>
</g>
</g>
<!-- Node1&#45;&gt;Node4 -->
<g id="edge12_Node000001_Node000004" class="edge">
<title>Node1&#45;&gt;Node4</title>
<g id="a_edge12_Node000001_Node000004"><a xlink:title=" ">
<path fill="none" stroke="#63b8ff" d="M80.74,-109.97C98.87,-98.4 125.87,-83.35 152,-77 208.58,-63.26 225.86,-65.81 283,-77 308.38,-81.97 335.3,-92.8 356.21,-102.59"/>
<polygon fill="#63b8ff" stroke="#63b8ff" points="354.83,-105.81 365.36,-106.99 357.87,-99.5 354.83,-105.81"/>
</a>
</g>
</g>
<!-- Node5 -->
<g id="Node000005" class="node">
<title>Node5</title>
<g id="a_Node000005"><a xlink:href="namespaceMayaFlux_1_1Buffers_ad3e1272df9634f271f195e4b46b49da8.html#ad3e1272df9634f271f195e4b46b49da8" target="_top" xlink:title="Download data from a device&#45;local buffer using a staging buffer.">
<polygon fill="white" stroke="#666666" points="282.5,-164 152.5,-164 152.5,-134 282.5,-134 282.5,-164"/>
<text text-anchor="start" x="160.5" y="-152" font-family="Helvetica,sans-Serif" font-size="10.00">MayaFlux::Buffers::</text>
<text text-anchor="middle" x="217.5" y="-141" font-family="Helvetica,sans-Serif" font-size="10.00">download_device_local</text>
</a>
</g>
</g>
<!-- Node1&#45;&gt;Node5 -->
<g id="edge4_Node000001_Node000005" class="edge">
<title>Node1&#45;&gt;Node5</title>
<g id="a_edge4_Node000001_Node000005"><a xlink:title=" ">
<path fill="none" stroke="#63b8ff" d="M116.31,-133.73C124.71,-135.01 133.48,-136.35 142.16,-137.67"/>
<polygon fill="#63b8ff" stroke="#63b8ff" points="141.89,-141.17 152.31,-139.22 142.95,-134.25 141.89,-141.17"/>
</a>
</g>
</g>
<!-- Node6 -->
<g id="Node000006" class="node">
<title>Node6</title>
<g id="a_Node000006"><a xlink:href="namespaceMayaFlux_1_1Buffers_abfc2b0ee2aaa09871e8b027207bf8396.html#abfc2b0ee2aaa09871e8b027207bf8396" target="_top" xlink:title="Download data from a host&#45;visible buffer.">
<polygon fill="white" stroke="#666666" points="281.5,-116 153.5,-116 153.5,-86 281.5,-86 281.5,-116"/>
<text text-anchor="start" x="161.5" y="-104" font-family="Helvetica,sans-Serif" font-size="10.00">MayaFlux::Buffers::</text>
<text text-anchor="middle" x="217.5" y="-93" font-family="Helvetica,sans-Serif" font-size="10.00">download_host_visible</text>
</a>
</g>
</g>
<!-- Node1&#45;&gt;Node6 -->
<g id="edge7_Node000001_Node000006" class="edge">
<title>Node1&#45;&gt;Node6</title>
<g id="a_edge7_Node000001_Node000006"><a xlink:title=" ">
<path fill="none" stroke="#63b8ff" d="M116.31,-116.27C125.06,-114.93 134.2,-113.54 143.24,-112.16"/>
<polygon fill="#63b8ff" stroke="#63b8ff" points="144.02,-115.58 153.38,-110.62 142.97,-108.66 144.02,-115.58"/>
</a>
</g>
</g>
<!-- Node7 -->
<g id="Node000007" class="node">
<title>Node7</title>
<g id="a_Node000007"><a xlink:href="classMayaFlux_1_1Kakshya_1_1DataAccess_a7893291a314cd16a4086b4af5547be3b.html#a7893291a314cd16a4086b4af5547be3b" target="_top" xlink:title="Get raw buffer info for GPU upload.">
<polygon fill="white" stroke="#666666" points="283,-30 152,-30 152,0 283,0 283,-30"/>
<text text-anchor="start" x="160" y="-18" font-family="Helvetica,sans-Serif" font-size="10.00">MayaFlux::Kakshya::</text>
<text text-anchor="middle" x="217.5" y="-7" font-family="Helvetica,sans-Serif" font-size="10.00">DataAccess::gpu_buffer</text>
</a>
</g>
</g>
<!-- Node1&#45;&gt;Node7 -->
<g id="edge11_Node000001_Node000007" class="edge">
<title>Node1&#45;&gt;Node7</title>
<g id="a_edge11_Node000001_Node000007"><a xlink:title=" ">
<path fill="none" stroke="#63b8ff" d="M73.67,-109.74C91.12,-92.22 121.71,-63.4 152,-44 157.29,-40.61 163.05,-37.42 168.87,-34.48"/>
<polygon fill="#63b8ff" stroke="#63b8ff" points="170.52,-37.57 178.01,-30.07 167.48,-31.26 170.52,-37.57"/>
</a>
</g>
</g>
<!-- Node2&#45;&gt;Node3 -->
<g id="edge2_Node000002_Node000003" class="edge">
<title>Node2&#45;&gt;Node3</title>
<g id="a_edge2_Node000002_Node000003"><a xlink:title=" ">
<path fill="none" stroke="#63b8ff" d="M278.73,-193.21C292.57,-192.34 307.42,-191.41 321.7,-190.51"/>
<polygon fill="#63b8ff" stroke="#63b8ff" points="322.21,-193.99 331.97,-189.87 321.77,-187 322.21,-193.99"/>
</a>
</g>
</g>
<!-- Node2&#45;&gt;Node4 -->
<g id="edge3_Node000002_Node000004" class="edge">
<title>Node2&#45;&gt;Node4</title>
<g id="a_edge3_Node000002_Node000004"><a xlink:title=" ">
<path fill="none" stroke="#63b8ff" d="M260.32,-181.97C267.91,-179.09 275.72,-176.03 283,-173 296.29,-167.47 326.74,-153.38 352.32,-141.4"/>
<polygon fill="#63b8ff" stroke="#63b8ff" points="353.91,-144.52 361.48,-137.11 350.94,-138.18 353.91,-144.52"/>
</a>
</g>
</g>
<!-- Node5&#45;&gt;Node3 -->
<g id="edge5_Node000005_Node000003" class="edge">
<title>Node5&#45;&gt;Node3</title>
<g id="a_edge5_Node000005_Node000003"><a xlink:title=" ">
<path fill="none" stroke="#63b8ff" d="M282.67,-162.57C295.5,-165.28 309.04,-168.14 322.1,-170.9"/>
<polygon fill="#63b8ff" stroke="#63b8ff" points="321.45,-174.34 331.96,-172.99 322.9,-167.5 321.45,-174.34"/>
</a>
</g>
</g>
<!-- Node5&#45;&gt;Node4 -->
<g id="edge6_Node000005_Node000004" class="edge">
<title>Node5&#45;&gt;Node4</title>
<g id="a_edge6_Node000005_Node000004"><a xlink:title=" ">
<path fill="none" stroke="#63b8ff" d="M282.67,-139.1C291.25,-137.78 300.14,-136.4 309,-135.04"/>
<polygon fill="#63b8ff" stroke="#63b8ff" points="309.62,-138.48 318.97,-133.5 308.55,-131.57 309.62,-138.48"/>
</a>
</g>
</g>
<!-- Node6&#45;&gt;Node3 -->
<g id="edge8_Node000006_Node000003" class="edge">
<title>Node6&#45;&gt;Node3</title>
<g id="a_edge8_Node000006_Node000003"><a xlink:title=" ">
<path fill="none" stroke="#63b8ff" d="M262.29,-116.13C269.3,-118.89 276.41,-121.88 283,-125 299.74,-132.93 302.84,-136.95 319,-146 327.65,-150.84 336.91,-155.91 345.87,-160.75"/>
<polygon fill="#63b8ff" stroke="#63b8ff" points="344.23,-163.84 354.69,-165.5 347.54,-157.68 344.23,-163.84"/>
</a>
</g>
</g>
<!-- Node6&#45;&gt;Node4 -->
<g id="edge9_Node000006_Node000004" class="edge">
<title>Node6&#45;&gt;Node4</title>
<g id="a_edge9_Node000006_Node000004"><a xlink:title=" ">
<path fill="none" stroke="#63b8ff" d="M281.68,-108.58C290.43,-109.63 299.53,-110.72 308.59,-111.81"/>
<polygon fill="#63b8ff" stroke="#63b8ff" points="308.45,-115.32 318.79,-113.04 309.28,-108.37 308.45,-115.32"/>
</a>
</g>
</g>
</g>
</svg>
</svg>

<style type='text/css'>
<![CDATA[
[data-mouse-over-selected='false'] { opacity: 0.7; }
[data-mouse-over-selected='true']  { opacity: 1.0; }
]]>
</style>
<script type="application/ecmascript"><![CDATA[
document.addEventListener('DOMContentLoaded', (event) => {
  highlightEdges();
  highlightAdjacentNodes();
});
]]></script>
</svg>
