<?xml version="1.0" encoding="UTF-8" standalone="no"?>
<!DOCTYPE svg PUBLIC "-//W3C//DTD SVG 1.1//EN"
 "http://www.w3.org/Graphics/SVG/1.1/DTD/svg11.dtd">
<!-- Generated by graphviz version 2.43.0 (0)
 -->
<!-- Title: MayaFlux::Yantra::generate_compute_data_indices Pages: 1 -->
<svg width="697pt" height="184pt"
 viewBox="0.00 0.00 697.00 183.50" xmlns="http://www.w3.org/2000/svg" xmlns:xlink="http://www.w3.org/1999/xlink">
<g id="graph0" class="graph" transform="scale(1 1) rotate(0) translate(4 179.5)">
<title>MayaFlux::Yantra::generate_compute_data_indices</title>
<!-- Node1 -->
<g id="Node000001" class="node">
<title>Node1</title>
<g id="a_Node000001"><a xlink:title="Generate sort indices for any ComputeData type.">
<polygon fill="#999999" stroke="#666666" points="150,-99 0,-99 0,-69 150,-69 150,-99"/>
<text text-anchor="start" x="8" y="-87" font-family="Helvetica,sans-Serif" font-size="10.00">MayaFlux::Yantra::generate</text>
<text text-anchor="middle" x="75" y="-76" font-family="Helvetica,sans-Serif" font-size="10.00">_compute_data_indices</text>
</a>
</g>
</g>
<!-- Node2 -->
<g id="Node000002" class="node">
<title>Node2</title>
<g id="a_Node000002"><a xlink:href="namespaceMayaFlux_1_1Kinesis_1_1Discrete_a58fb6ebc04ea9849db050e4c38478706.html#a58fb6ebc04ea9849db050e4c38478706" target="_top" xlink:title="Per&#45;channel sort indices.">
<polygon fill="white" stroke="#666666" points="332,-175.5 201,-175.5 201,-134.5 332,-134.5 332,-175.5"/>
<text text-anchor="start" x="209" y="-163.5" font-family="Helvetica,sans-Serif" font-size="10.00">MayaFlux::Kinesis::</text>
<text text-anchor="start" x="209" y="-152.5" font-family="Helvetica,sans-Serif" font-size="10.00">Discrete::channels_sort</text>
<text text-anchor="middle" x="266.5" y="-141.5" font-family="Helvetica,sans-Serif" font-size="10.00">_indices</text>
</a>
</g>
</g>
<!-- Node1&#45;&gt;Node2 -->
<g id="edge1_Node000001_Node000002" class="edge">
<title>Node1&#45;&gt;Node2</title>
<g id="a_edge1_Node000001_Node000002"><a xlink:title=" ">
<path fill="none" stroke="#63b8ff" d="M116.19,-99.06C140.88,-108.31 173.08,-120.37 201.25,-130.93"/>
<polygon fill="#63b8ff" stroke="#63b8ff" points="200.04,-134.21 210.63,-134.44 202.5,-127.66 200.04,-134.21"/>
</a>
</g>
</g>
<!-- Node3 -->
<g id="Node000003" class="node">
<title>Node3</title>
<g id="a_Node000003"><a xlink:href="namespaceMayaFlux_1_1Kinesis_1_1Discrete_ac1acd8498376dc3069021b4f97ace051.html#ac1acd8498376dc3069021b4f97ace051" target="_top" xlink:title="Indices that would sort a span in the given direction.">
<polygon fill="white" stroke="#666666" points="495,-150.5 383,-150.5 383,-109.5 495,-109.5 495,-150.5"/>
<text text-anchor="start" x="391" y="-138.5" font-family="Helvetica,sans-Serif" font-size="10.00">MayaFlux::Kinesis::</text>
<text text-anchor="start" x="391" y="-127.5" font-family="Helvetica,sans-Serif" font-size="10.00">Discrete::span_sort</text>
<text text-anchor="middle" x="439" y="-116.5" font-family="Helvetica,sans-Serif" font-size="10.00">_indices</text>
</a>
</g>
</g>
<!-- Node1&#45;&gt;Node3 -->
<g id="edge6_Node000001_Node000003" class="edge">
<title>Node1&#45;&gt;Node3</title>
<g id="a_edge6_Node000001_Node000003"><a xlink:title=" ">
<path fill="none" stroke="#63b8ff" d="M150.13,-93.42C215.57,-101.74 310.06,-113.74 372.71,-121.7"/>
<polygon fill="#63b8ff" stroke="#63b8ff" points="372.5,-125.21 382.86,-122.99 373.38,-118.26 372.5,-125.21"/>
</a>
</g>
</g>
<!-- Node5 -->
<g id="Node000005" class="node">
<title>Node5</title>
<g id="a_Node000005"><a xlink:href="classMayaFlux_1_1Yantra_1_1OperationHelper_ad367bd6ef37555bb3918e5545cac03bd.html#ad367bd6ef37555bb3918e5545cac03bd" target="_top" xlink:title="extract numeric data from single&#45;variant types">
<polygon fill="white" stroke="#666666" points="347,-78 186,-78 186,-48 347,-48 347,-78"/>
<text text-anchor="start" x="194" y="-66" font-family="Helvetica,sans-Serif" font-size="10.00">MayaFlux::Yantra::Operation</text>
<text text-anchor="middle" x="266.5" y="-55" font-family="Helvetica,sans-Serif" font-size="10.00">Helper::extract_numeric_data</text>
</a>
</g>
</g>
<!-- Node1&#45;&gt;Node5 -->
<g id="edge4_Node000001_Node000005" class="edge">
<title>Node1&#45;&gt;Node5</title>
<g id="a_edge4_Node000001_Node000005"><a xlink:title=" ">
<path fill="none" stroke="#63b8ff" d="M150.08,-75.79C158.51,-74.86 167.17,-73.9 175.78,-72.94"/>
<polygon fill="#63b8ff" stroke="#63b8ff" points="176.28,-76.41 185.84,-71.83 175.51,-69.45 176.28,-76.41"/>
</a>
</g>
</g>
<!-- Node6 -->
<g id="Node000006" class="node">
<title>Node6</title>
<g id="a_Node000006"><a xlink:href="structMayaFlux_1_1Yantra_1_1Datum_aa424632a0bf48cad57dc947c63cf947c.html#aa424632a0bf48cad57dc947c63cf947c" target="_top" xlink:title="Check if processing is needed (for container types)">
<polygon fill="white" stroke="#666666" points="336.5,-30 196.5,-30 196.5,0 336.5,0 336.5,-30"/>
<text text-anchor="start" x="204.5" y="-18" font-family="Helvetica,sans-Serif" font-size="10.00">MayaFlux::Yantra::Datum</text>
<text text-anchor="middle" x="266.5" y="-7" font-family="Helvetica,sans-Serif" font-size="10.00">::needs_processig</text>
</a>
</g>
</g>
<!-- Node1&#45;&gt;Node6 -->
<g id="edge5_Node000001_Node000006" class="edge">
<title>Node1&#45;&gt;Node6</title>
<g id="a_edge5_Node000001_Node000006"><a xlink:title=" ">
<path fill="none" stroke="#63b8ff" d="M110.35,-68.96C131.89,-59.78 160.33,-48.1 186,-39 191.57,-37.02 197.4,-35.07 203.25,-33.17"/>
<polygon fill="#63b8ff" stroke="#63b8ff" points="204.62,-36.41 213.1,-30.05 202.51,-29.74 204.62,-36.41"/>
</a>
</g>
</g>
<!-- Node2&#45;&gt;Node3 -->
<g id="edge2_Node000002_Node000003" class="edge">
<title>Node2&#45;&gt;Node3</title>
<g id="a_edge2_Node000002_Node000003"><a xlink:title=" ">
<path fill="none" stroke="#63b8ff" d="M332.45,-145.48C345.72,-143.53 359.69,-141.48 372.97,-139.54"/>
<polygon fill="#63b8ff" stroke="#63b8ff" points="373.57,-142.98 382.96,-138.07 372.56,-136.06 373.57,-142.98"/>
</a>
</g>
</g>
<!-- Node4 -->
<g id="Node000004" class="node">
<title>Node4</title>
<g id="a_Node000004"><a xlink:href="namespaceMayaFlux_1_1Kinesis_1_1Discrete_aa24f42ad7fac830cc8ebd7d7f8c9c839.html#aa24f42ad7fac830cc8ebd7d7f8c9c839" target="_top" xlink:title="Direction&#45;based comparator for doubles.">
<polygon fill="white" stroke="#666666" points="689,-145 531,-145 531,-115 689,-115 689,-145"/>
<text text-anchor="start" x="539" y="-133" font-family="Helvetica,sans-Serif" font-size="10.00">MayaFlux::Kinesis::</text>
<text text-anchor="middle" x="610" y="-122" font-family="Helvetica,sans-Serif" font-size="10.00">Discrete::double_comparator</text>
</a>
</g>
</g>
<!-- Node3&#45;&gt;Node4 -->
<g id="edge3_Node000003_Node000004" class="edge">
<title>Node3&#45;&gt;Node4</title>
<g id="a_edge3_Node000003_Node000004"><a xlink:title=" ">
<path fill="none" stroke="#63b8ff" d="M495.34,-130C503.5,-130 512.08,-130 520.71,-130"/>
<polygon fill="#63b8ff" stroke="#63b8ff" points="520.85,-133.5 530.85,-130 520.85,-126.5 520.85,-133.5"/>
</a>
</g>
</g>
</g>
</svg>
