<?xml version="1.0" encoding="UTF-8" standalone="no"?>
<!DOCTYPE svg PUBLIC "-//W3C//DTD SVG 1.1//EN"
 "http://www.w3.org/Graphics/SVG/1.1/DTD/svg11.dtd">
<!-- Generated by graphviz version 2.43.0 (0)
 -->
<!-- Title: MayaFlux::Kinesis::Discrete::mean Pages: 1 -->
<!--zoomable 182 -->

<svg id="main" version="1.1" xmlns="http://www.w3.org/2000/svg" xmlns:xlink="http://www.w3.org/1999/xlink" xml:space="preserve" onload="init(evt)">
<style type="text/css"><![CDATA[
.node, .edge {opacity: 0.7;}
.node.selected, .edge.selected {opacity: 1;}
.edge:hover path { stroke: red; }
.edge:hover polygon { stroke: red; fill: red; }
]]></style>

<defs>
  <circle id="rim" cx="0" cy="0" r="7"/>
  <circle id="rim2" cx="0" cy="0" r="3.5"/>
  <g id="zoomPlus">
    <use xlink:href="#rim" fill="#404040"><set attributeName="fill" to="#808080" begin="zoomplus.mouseover" end="zoomplus.mouseout"/></use>
    <path d="M-4,0h8M0,-4v8" fill="none" stroke="white" stroke-width="1.5" pointer-events="none"/>
  </g>
  <g id="zoomMin">
    <use xlink:href="#rim" fill="#404040"><set attributeName="fill" to="#808080" begin="zoomminus.mouseover" end="zoomminus.mouseout"/></use>
    <path d="M-4,0h8" fill="none" stroke="white" stroke-width="1.5" pointer-events="none"/>
  </g>
  <g id="arrowUp" transform="translate(30 24)">
    <use xlink:href="#rim"/>
    <path pointer-events="none" fill="none" stroke="white" stroke-width="1.5" d="M0,-3.0v7 M-2.5,-0.5L0,-3.0L2.5,-0.5"/>
  </g>
  <g id="arrowRight" transform="rotate(90) translate(36 -43)">
    <use xlink:href="#rim"/>
    <path pointer-events="none" fill="none" stroke="white" stroke-width="1.5" d="M0,-3.0v7 M-2.5,-0.5L0,-3.0L2.5,-0.5"/>
  </g>
  <g id="arrowDown" transform="rotate(180) translate(-30 -48)">
    <use xlink:href="#rim"/>
    <path pointer-events="none" fill="none" stroke="white" stroke-width="1.5" d="M0,-3.0v7 M-2.5,-0.5L0,-3.0L2.5,-0.5"/>
  </g>
  <g id="arrowLeft" transform="rotate(270) translate(-36 17)">
    <use xlink:href="#rim"/>
    <path pointer-events="none" fill="none" stroke="white" stroke-width="1.5" d="M0,-3.0v7 M-2.5,-0.5L0,-3.0L2.5,-0.5"/>
  </g>
  <g id="resetDef">
    <use xlink:href="#rim2" fill="#404040"><set attributeName="fill" to="#808080" begin="reset.mouseover" end="reset.mouseout"/></use>
  </g>
</defs>
<script type="application/ecmascript">
var viewWidth = 578;
var viewHeight = 182;
var sectionId = 'dynsection-1';
</script>
<script type="application/ecmascript" xlink:href="svg.min.js"/>
<svg id="graph" class="graph">
<g id="viewport">
<title>MayaFlux::Kinesis::Discrete::mean</title>
<!-- Node1 -->
<g id="Node000001" class="node">
<title>Node1</title>
<g id="a_Node000001"><a xlink:title="Arithmetic mean per window.">
<polygon fill="#999999" stroke="#666666" points="570,-102 458,-102 458,-72 570,-72 570,-102"/>
<text text-anchor="start" x="466" y="-90" font-family="Helvetica,sans-Serif" font-size="10.00">MayaFlux::Kinesis::</text>
<text text-anchor="middle" x="514" y="-79" font-family="Helvetica,sans-Serif" font-size="10.00">Discrete::mean</text>
</a>
</g>
</g>
<!-- Node2 -->
<g id="Node000002" class="node">
<title>Node2</title>
<g id="a_Node000002"><a xlink:href="classMayaFlux_1_1Yantra_1_1StatisticalAnalyzer_ac6b9656bbc2b37d4603de52ef0115d85.html#ac6b9656bbc2b37d4603de52ef0115d85" target="_top" xlink:title="Compute statistical values using span (zero&#45;copy processing)">
<polygon fill="white" stroke="#666666" points="422,-174 223,-174 223,-144 422,-144 422,-174"/>
<text text-anchor="start" x="231" y="-162" font-family="Helvetica,sans-Serif" font-size="10.00">MayaFlux::Yantra::Statistical</text>
<text text-anchor="middle" x="322.5" y="-151" font-family="Helvetica,sans-Serif" font-size="10.00">Analyzer::compute_statistical_values</text>
</a>
</g>
</g>
<!-- Node1&#45;&gt;Node2 -->
<g id="edge1_Node000001_Node000002" class="edge">
<title>Node1&#45;&gt;Node2</title>
<g id="a_edge1_Node000001_Node000002"><a xlink:title=" ">
<path fill="none" stroke="#63b8ff" d="M479.41,-107.27C462.63,-116.73 441.73,-127.52 422,-135 413.19,-138.34 403.77,-141.33 394.36,-143.97"/>
<polygon fill="#63b8ff" stroke="#63b8ff" points="481.35,-110.19 488.28,-102.18 477.87,-104.12 481.35,-110.19"/>
</a>
</g>
</g>
<!-- Node4 -->
<g id="Node000004" class="node">
<title>Node4</title>
<g id="a_Node000004"><a xlink:href="classMayaFlux_1_1Yantra_1_1StatisticalAnalyzer_a853e8c531c62174e89938bf0eae8a7d9.html#a853e8c531c62174e89938bf0eae8a7d9" target="_top" xlink:title="Create comprehensive analysis result.">
<polygon fill="white" stroke="#666666" points="410,-126 235,-126 235,-96 410,-96 410,-126"/>
<text text-anchor="start" x="243" y="-114" font-family="Helvetica,sans-Serif" font-size="10.00">MayaFlux::Yantra::Statistical</text>
<text text-anchor="middle" x="322.5" y="-103" font-family="Helvetica,sans-Serif" font-size="10.00">Analyzer::create_analysis_result</text>
</a>
</g>
</g>
<!-- Node1&#45;&gt;Node4 -->
<g id="edge3_Node000001_Node000004" class="edge">
<title>Node1&#45;&gt;Node4</title>
<g id="a_edge3_Node000001_Node000004"><a xlink:title=" ">
<path fill="none" stroke="#63b8ff" d="M447.9,-95.25C435.72,-96.79 422.82,-98.42 410.12,-100.03"/>
<polygon fill="#63b8ff" stroke="#63b8ff" points="448.45,-98.7 457.93,-93.97 447.57,-91.76 448.45,-98.7"/>
</a>
</g>
</g>
<!-- Node5 -->
<g id="Node000005" class="node">
<title>Node5</title>
<g id="a_Node000005"><a xlink:href="namespaceMayaFlux_1_1Yantra_a599f6157469391d88c0afdcc9c08d1d2.html#a599f6157469391d88c0afdcc9c08d1d2" target="_top" xlink:title=" ">
<polygon fill="white" stroke="#666666" points="393,-78 252,-78 252,-48 393,-48 393,-78"/>
<text text-anchor="start" x="260" y="-66" font-family="Helvetica,sans-Serif" font-size="10.00">MayaFlux::Yantra::extract</text>
<text text-anchor="middle" x="322.5" y="-55" font-family="Helvetica,sans-Serif" font-size="10.00">_above_mean</text>
</a>
</g>
</g>
<!-- Node1&#45;&gt;Node5 -->
<g id="edge5_Node000001_Node000005" class="edge">
<title>Node1&#45;&gt;Node5</title>
<g id="a_edge5_Node000001_Node000005"><a xlink:title=" ">
<path fill="none" stroke="#63b8ff" d="M447.77,-78.74C430.17,-76.51 411.06,-74.09 393.22,-71.83"/>
<polygon fill="#63b8ff" stroke="#63b8ff" points="447.57,-82.24 457.93,-80.03 448.45,-75.3 447.57,-82.24"/>
</a>
</g>
</g>
<!-- Node7 -->
<g id="Node000007" class="node">
<title>Node7</title>
<g id="a_Node000007"><a xlink:href="namespaceMayaFlux_1_1Yantra_a33957cc2e40e2d6acc33295b88af9dee.html#a33957cc2e40e2d6acc33295b88af9dee" target="_top" xlink:title=" ">
<polygon fill="white" stroke="#666666" points="393,-30 252,-30 252,0 393,0 393,-30"/>
<text text-anchor="start" x="260" y="-18" font-family="Helvetica,sans-Serif" font-size="10.00">MayaFlux::Yantra::extract</text>
<text text-anchor="middle" x="322.5" y="-7" font-family="Helvetica,sans-Serif" font-size="10.00">_outliers</text>
</a>
</g>
</g>
<!-- Node1&#45;&gt;Node7 -->
<g id="edge7_Node000001_Node000007" class="edge">
<title>Node1&#45;&gt;Node7</title>
<g id="a_edge7_Node000001_Node000007"><a xlink:title=" ">
<path fill="none" stroke="#63b8ff" d="M479.41,-66.73C462.63,-57.27 441.73,-46.48 422,-39 412.78,-35.51 402.88,-32.39 393.04,-29.66"/>
<polygon fill="#63b8ff" stroke="#63b8ff" points="477.87,-69.88 488.28,-71.82 481.35,-63.81 477.87,-69.88"/>
</a>
</g>
</g>
<!-- Node3 -->
<g id="Node000003" class="node">
<title>Node3</title>
<g id="a_Node000003"><a xlink:href="classMayaFlux_1_1Yantra_1_1StatisticalAnalyzer_ada59b9d30d969a895d8693fc96381700.html#ada59b9d30d969a895d8693fc96381700" target="_top" xlink:title="Core analysis implementation &#45; creates analysis result AND pipeline output.">
<polygon fill="white" stroke="#666666" points="187,-138 0,-138 0,-108 187,-108 187,-138"/>
<text text-anchor="start" x="8" y="-126" font-family="Helvetica,sans-Serif" font-size="10.00">MayaFlux::Yantra::Statistical</text>
<text text-anchor="middle" x="93.5" y="-115" font-family="Helvetica,sans-Serif" font-size="10.00">Analyzer::analyze_implementation</text>
</a>
</g>
</g>
<!-- Node2&#45;&gt;Node3 -->
<g id="edge2_Node000002_Node000003" class="edge">
<title>Node2&#45;&gt;Node3</title>
<g id="a_edge2_Node000002_Node000003"><a xlink:title=" ">
<path fill="none" stroke="#63b8ff" d="M216.97,-142.42C207.02,-140.84 196.98,-139.25 187.15,-137.69"/>
<polygon fill="#63b8ff" stroke="#63b8ff" points="216.45,-145.88 226.88,-143.99 217.55,-138.97 216.45,-145.88"/>
</a>
</g>
</g>
<!-- Node4&#45;&gt;Node3 -->
<g id="edge4_Node000004_Node000003" class="edge">
<title>Node4&#45;&gt;Node3</title>
<g id="a_edge4_Node000004_Node000003"><a xlink:title=" ">
<path fill="none" stroke="#63b8ff" d="M224.44,-116.13C212.12,-116.78 199.53,-117.45 187.28,-118.1"/>
<polygon fill="#63b8ff" stroke="#63b8ff" points="224.91,-119.61 234.71,-115.59 224.54,-112.62 224.91,-119.61"/>
</a>
</g>
</g>
<!-- Node6 -->
<g id="Node000006" class="node">
<title>Node6</title>
<g id="a_Node000006"><a xlink:href="classMayaFlux_1_1Yantra_1_1FeatureExtractor_a6625311b756518d90e3d5ef2e4125e10.html#a6625311b756518d90e3d5ef2e4125e10" target="_top" xlink:title="Core extraction implementation &#45; delegates to ExtractionHelper.">
<polygon fill="white" stroke="#666666" points="186,-66 1,-66 1,-36 186,-36 186,-66"/>
<text text-anchor="start" x="9" y="-54" font-family="Helvetica,sans-Serif" font-size="10.00">MayaFlux::Yantra::Feature</text>
<text text-anchor="middle" x="93.5" y="-43" font-family="Helvetica,sans-Serif" font-size="10.00">Extractor::extract_implementation</text>
</a>
</g>
</g>
<!-- Node5&#45;&gt;Node6 -->
<g id="edge6_Node000005_Node000006" class="edge">
<title>Node5&#45;&gt;Node6</title>
<g id="a_edge6_Node000005_Node000006"><a xlink:title=" ">
<path fill="none" stroke="#63b8ff" d="M241.73,-58.78C223.78,-57.83 204.59,-56.82 186.2,-55.85"/>
<polygon fill="#63b8ff" stroke="#63b8ff" points="241.68,-62.29 251.85,-59.32 242.05,-55.29 241.68,-62.29"/>
</a>
</g>
</g>
<!-- Node7&#45;&gt;Node6 -->
<g id="edge8_Node000007_Node000006" class="edge">
<title>Node7&#45;&gt;Node6</title>
<g id="a_edge8_Node000007_Node000006"><a xlink:title=" ">
<path fill="none" stroke="#63b8ff" d="M241.73,-27.65C223.78,-30.5 204.59,-33.54 186.2,-36.46"/>
<polygon fill="#63b8ff" stroke="#63b8ff" points="242.52,-31.07 251.85,-26.05 241.43,-24.16 242.52,-31.07"/>
</a>
</g>
</g>
</g>
</svg>

<g id="navigator" transform="translate(0 0)" fill="#404254">
  <rect fill="#f2f5e9" fill-opacity="0.5" stroke="#606060" stroke-width=".5" x="0" y="0" width="60" height="60"/>
  <use id="zoomplus" xlink:href="#zoomPlus" x="17" y="9" onmousedown="handleZoom(evt,'in')"/>
  <use id="zoomminus" xlink:href="#zoomMin" x="42" y="9" onmousedown="handleZoom(evt,'out')"/>
  <use id="reset" xlink:href="#resetDef" x="30" y="36" onmousedown="handleReset()"/>
   <use id="arrowup" xlink:href="#arrowUp" x="0" y="0" onmousedown="handlePan(0,-1)"/>
  <use id="arrowright" xlink:href="#arrowRight" x="0" y="0" onmousedown="handlePan(1,0)"/>
  <use id="arrowdown" xlink:href="#arrowDown" x="0" y="0" onmousedown="handlePan(0,1)"/>
  <use id="arrowleft" xlink:href="#arrowLeft" x="0" y="0" onmousedown="handlePan(-1,0)"/>
</g>
<svg viewBox="0 0 15 15" width="100%" height="30px" preserveAspectRatio="xMaxYMin meet">
 <g id="arrow_out" transform="scale(0.3 0.3)">
  <a xlink:href="namespaceMayaFlux_1_1Kinesis_1_1Discrete_af50196710c144f7ee6c4ab9201202438_af50196710c144f7ee6c4ab9201202438_icgraph_org.svg" target="_base">
   <rect id="button" ry="5" rx="5" y="6" x="6" height="38" width="38"
        fill="#f2f5e9" fill-opacity="0.5" stroke="#606060" stroke-width="1.0"/>
   <path id="arrow"
     d="M 11.500037,31.436501 C 11.940474,20.09759 22.043105,11.32322 32.158766,21.979434 L 37.068811,17.246167 C 37.068811,17.246167 37.088388,32 37.088388,32 L 22.160133,31.978069 C 22.160133,31.978069 26.997745,27.140456 26.997745,27.140456 C 18.528582,18.264221 13.291696,25.230495 11.500037,31.436501 z"
     style="fill:#404040;"/>
  </a>
 </g>
</svg>

<style type='text/css'>
<![CDATA[
[data-mouse-over-selected='false'] { opacity: 0.7; }
[data-mouse-over-selected='true']  { opacity: 1.0; }
]]>
</style>
<script type="application/ecmascript"><![CDATA[
document.addEventListener('DOMContentLoaded', (event) => {
  highlightEdges();
  highlightAdjacentNodes();
});
]]></script>
</svg>
