<?xml version="1.0" encoding="UTF-8" standalone="no"?>
<!DOCTYPE svg PUBLIC "-//W3C//DTD SVG 1.1//EN"
 "http://www.w3.org/Graphics/SVG/1.1/DTD/svg11.dtd">
<!-- Generated by graphviz version 2.43.0 (0)
 -->
<!-- Title: MayaFlux::Buffers::upload_device_local Pages: 1 -->
<svg width="311pt" height="146pt"
 viewBox="0.00 0.00 311.00 145.50" xmlns="http://www.w3.org/2000/svg" xmlns:xlink="http://www.w3.org/1999/xlink">
<g id="graph0" class="graph" transform="scale(1 1) rotate(0) translate(4 141.5)">
<title>MayaFlux::Buffers::upload_device_local</title>
<!-- Node1 -->
<g id="Node000001" class="node">
<title>Node1</title>
<g id="a_Node000001"><a xlink:title="Upload data to a device&#45;local buffer using a staging buffer.">
<polygon fill="#999999" stroke="#666666" points="116,-78 0,-78 0,-48 116,-48 116,-78"/>
<text text-anchor="start" x="8" y="-66" font-family="Helvetica,sans-Serif" font-size="10.00">MayaFlux::Buffers::</text>
<text text-anchor="middle" x="58" y="-55" font-family="Helvetica,sans-Serif" font-size="10.00">upload_device_local</text>
</a>
</g>
</g>
<!-- Node2 -->
<g id="Node000002" class="node">
<title>Node2</title>
<g id="a_Node000002"><a xlink:href="classMayaFlux_1_1Registry_1_1BackendRegistry_a0c7a59c0847791ed0915dcd64e8df783.html#a0c7a59c0847791ed0915dcd64e8df783" target="_top" xlink:title="Query for a backend service.">
<polygon fill="white" stroke="#666666" points="290,-137.5 165,-137.5 165,-96.5 290,-96.5 290,-137.5"/>
<text text-anchor="start" x="173" y="-125.5" font-family="Helvetica,sans-Serif" font-size="10.00">MayaFlux::Registry</text>
<text text-anchor="start" x="173" y="-114.5" font-family="Helvetica,sans-Serif" font-size="10.00">::BackendRegistry::get</text>
<text text-anchor="middle" x="227.5" y="-103.5" font-family="Helvetica,sans-Serif" font-size="10.00">_service</text>
</a>
</g>
</g>
<!-- Node1&#45;&gt;Node2 -->
<g id="edge1_Node000001_Node000002" class="edge">
<title>Node1&#45;&gt;Node2</title>
<g id="a_edge1_Node000001_Node000002"><a xlink:title=" ">
<path fill="none" stroke="#63b8ff" d="M105.66,-78.04C120.95,-82.97 138.31,-88.57 155.01,-93.95"/>
<polygon fill="#63b8ff" stroke="#63b8ff" points="154.15,-97.35 164.74,-97.09 156.3,-90.69 154.15,-97.35"/>
</a>
</g>
</g>
<!-- Node3 -->
<g id="Node000003" class="node">
<title>Node3</title>
<g id="a_Node000003"><a xlink:href="classMayaFlux_1_1Kakshya_1_1DataAccess_a7893291a314cd16a4086b4af5547be3b.html#a7893291a314cd16a4086b4af5547be3b" target="_top" xlink:title="Get raw buffer info for GPU upload.">
<polygon fill="white" stroke="#666666" points="293,-78 162,-78 162,-48 293,-48 293,-78"/>
<text text-anchor="start" x="170" y="-66" font-family="Helvetica,sans-Serif" font-size="10.00">MayaFlux::Kakshya::</text>
<text text-anchor="middle" x="227.5" y="-55" font-family="Helvetica,sans-Serif" font-size="10.00">DataAccess::gpu_buffer</text>
</a>
</g>
</g>
<!-- Node1&#45;&gt;Node3 -->
<g id="edge2_Node000001_Node000003" class="edge">
<title>Node1&#45;&gt;Node3</title>
<g id="a_edge2_Node000001_Node000003"><a xlink:title=" ">
<path fill="none" stroke="#63b8ff" d="M116.18,-63C127.54,-63 139.63,-63 151.48,-63"/>
<polygon fill="#63b8ff" stroke="#63b8ff" points="151.81,-66.5 161.81,-63 151.81,-59.5 151.81,-66.5"/>
</a>
</g>
</g>
<!-- Node4 -->
<g id="Node000004" class="node">
<title>Node4</title>
<g id="a_Node000004"><a xlink:href="classMayaFlux_1_1Registry_1_1BackendRegistry_aa28c6f5592e5893508bafb62aefcc496.html#aa28c6f5592e5893508bafb62aefcc496" target="_top" xlink:title="Get the global registry instance.">
<polygon fill="white" stroke="#666666" points="303,-30 152,-30 152,0 303,0 303,-30"/>
<text text-anchor="start" x="160" y="-18" font-family="Helvetica,sans-Serif" font-size="10.00">MayaFlux::Registry</text>
<text text-anchor="middle" x="227.5" y="-7" font-family="Helvetica,sans-Serif" font-size="10.00">::BackendRegistry::instance</text>
</a>
</g>
</g>
<!-- Node1&#45;&gt;Node4 -->
<g id="edge3_Node000001_Node000004" class="edge">
<title>Node1&#45;&gt;Node4</title>
<g id="a_edge3_Node000001_Node000004"><a xlink:title=" ">
<path fill="none" stroke="#63b8ff" d="M111.54,-47.94C128.22,-43.16 146.83,-37.83 164.13,-32.87"/>
<polygon fill="#63b8ff" stroke="#63b8ff" points="165.5,-36.12 174.15,-30 163.57,-29.39 165.5,-36.12"/>
</a>
</g>
</g>
</g>
</svg>
