<?xml version="1.0" encoding="UTF-8" standalone="no"?>
<!DOCTYPE svg PUBLIC "-//W3C//DTD SVG 1.1//EN"
 "http://www.w3.org/Graphics/SVG/1.1/DTD/svg11.dtd">
<!-- Generated by graphviz version 2.43.0 (0)
 -->
<!-- Title: MayaFlux::Kinesis::Discrete::rms Pages: 1 -->
<svg width="518pt" height="86pt"
 viewBox="0.00 0.00 518.00 86.00" xmlns="http://www.w3.org/2000/svg" xmlns:xlink="http://www.w3.org/1999/xlink">
<g id="graph0" class="graph" transform="scale(1 1) rotate(0) translate(4 82)">
<title>MayaFlux::Kinesis::Discrete::rms</title>
<!-- Node1 -->
<g id="Node000001" class="node">
<title>Node1</title>
<g id="a_Node000001"><a xlink:title="RMS energy per window.">
<polygon fill="#999999" stroke="#666666" points="510,-54 398,-54 398,-24 510,-24 510,-54"/>
<text text-anchor="start" x="406" y="-42" font-family="Helvetica,sans-Serif" font-size="10.00">MayaFlux::Kinesis::</text>
<text text-anchor="middle" x="454" y="-31" font-family="Helvetica,sans-Serif" font-size="10.00">Discrete::rms</text>
</a>
</g>
</g>
<!-- Node2 -->
<g id="Node000002" class="node">
<title>Node2</title>
<g id="a_Node000002"><a xlink:href="namespaceMayaFlux_1_1Yantra_a6b2561cf59d7422a997753a425decd3b.html#a6b2561cf59d7422a997753a425decd3b" target="_top" xlink:title=" ">
<polygon fill="white" stroke="#666666" points="362,-78 221,-78 221,-48 362,-48 362,-78"/>
<text text-anchor="start" x="229" y="-66" font-family="Helvetica,sans-Serif" font-size="10.00">MayaFlux::Yantra::extract</text>
<text text-anchor="middle" x="291.5" y="-55" font-family="Helvetica,sans-Serif" font-size="10.00">_high_energy</text>
</a>
</g>
</g>
<!-- Node1&#45;&gt;Node2 -->
<g id="edge1_Node000001_Node000002" class="edge">
<title>Node1&#45;&gt;Node2</title>
<g id="a_edge1_Node000001_Node000002"><a xlink:title=" ">
<path fill="none" stroke="#63b8ff" d="M387.61,-48.78C379.18,-50.04 370.51,-51.33 362.01,-52.61"/>
<polygon fill="#63b8ff" stroke="#63b8ff" points="388.39,-52.2 397.77,-47.26 387.36,-45.28 388.39,-52.2"/>
</a>
</g>
</g>
<!-- Node4 -->
<g id="Node000004" class="node">
<title>Node4</title>
<g id="a_Node000004"><a xlink:href="namespaceMayaFlux_1_1Yantra_ab07fb437503db63bb9d4f60568389029.html#ab07fb437503db63bb9d4f60568389029" target="_top" xlink:title=" ">
<polygon fill="white" stroke="#666666" points="362,-30 221,-30 221,0 362,0 362,-30"/>
<text text-anchor="start" x="229" y="-18" font-family="Helvetica,sans-Serif" font-size="10.00">MayaFlux::Yantra::extract</text>
<text text-anchor="middle" x="291.5" y="-7" font-family="Helvetica,sans-Serif" font-size="10.00">_silence</text>
</a>
</g>
</g>
<!-- Node1&#45;&gt;Node4 -->
<g id="edge3_Node000001_Node000004" class="edge">
<title>Node1&#45;&gt;Node4</title>
<g id="a_edge3_Node000001_Node000004"><a xlink:title=" ">
<path fill="none" stroke="#63b8ff" d="M387.61,-29.22C379.18,-27.96 370.51,-26.67 362.01,-25.39"/>
<polygon fill="#63b8ff" stroke="#63b8ff" points="387.36,-32.72 397.77,-30.74 388.39,-25.8 387.36,-32.72"/>
</a>
</g>
</g>
<!-- Node3 -->
<g id="Node000003" class="node">
<title>Node3</title>
<g id="a_Node000003"><a xlink:href="classMayaFlux_1_1Yantra_1_1FeatureExtractor_a6625311b756518d90e3d5ef2e4125e10.html#a6625311b756518d90e3d5ef2e4125e10" target="_top" xlink:title="Core extraction implementation &#45; delegates to ExtractionHelper.">
<polygon fill="white" stroke="#666666" points="185,-54 0,-54 0,-24 185,-24 185,-54"/>
<text text-anchor="start" x="8" y="-42" font-family="Helvetica,sans-Serif" font-size="10.00">MayaFlux::Yantra::Feature</text>
<text text-anchor="middle" x="92.5" y="-31" font-family="Helvetica,sans-Serif" font-size="10.00">Extractor::extract_implementation</text>
</a>
</g>
</g>
<!-- Node2&#45;&gt;Node3 -->
<g id="edge2_Node000002_Node000003" class="edge">
<title>Node2&#45;&gt;Node3</title>
<g id="a_edge2_Node000002_Node000003"><a xlink:title=" ">
<path fill="none" stroke="#63b8ff" d="M210.66,-53.27C202.28,-52.25 193.72,-51.21 185.22,-50.17"/>
<polygon fill="#63b8ff" stroke="#63b8ff" points="210.42,-56.77 220.77,-54.5 211.26,-49.82 210.42,-56.77"/>
</a>
</g>
</g>
<!-- Node4&#45;&gt;Node3 -->
<g id="edge4_Node000004_Node000003" class="edge">
<title>Node4&#45;&gt;Node3</title>
<g id="a_edge4_Node000004_Node000003"><a xlink:title=" ">
<path fill="none" stroke="#63b8ff" d="M210.66,-24.73C202.28,-25.75 193.72,-26.79 185.22,-27.83"/>
<polygon fill="#63b8ff" stroke="#63b8ff" points="211.26,-28.18 220.77,-23.5 210.42,-21.23 211.26,-28.18"/>
</a>
</g>
</g>
</g>
</svg>
