<?xml version="1.0" encoding="UTF-8" standalone="no"?>
<!DOCTYPE svg PUBLIC "-//W3C//DTD SVG 1.1//EN"
 "http://www.w3.org/Graphics/SVG/1.1/DTD/svg11.dtd">
<!-- Generated by graphviz version 2.43.0 (0)
 -->
<!-- Title: MayaFlux::Kinesis::aspect_ratio Pages: 1 -->
<svg width="287pt" height="64pt"
 viewBox="0.00 0.00 287.00 64.00" xmlns="http://www.w3.org/2000/svg" xmlns:xlink="http://www.w3.org/1999/xlink">
<g id="graph0" class="graph" transform="scale(1 1) rotate(0) translate(4 60)">
<title>MayaFlux::Kinesis::aspect_ratio</title>
<!-- Node1 -->
<g id="Node000001" class="node">
<title>Node1</title>
<g id="a_Node000001"><a xlink:title="Aspect ratio from pixel dimensions.">
<polygon fill="#999999" stroke="#666666" points="279,-42.5 167,-42.5 167,-12.5 279,-12.5 279,-42.5"/>
<text text-anchor="start" x="175" y="-30.5" font-family="Helvetica,sans-Serif" font-size="10.00">MayaFlux::Kinesis::</text>
<text text-anchor="middle" x="223" y="-19.5" font-family="Helvetica,sans-Serif" font-size="10.00">aspect_ratio</text>
</a>
</g>
</g>
<!-- Node2 -->
<g id="Node000002" class="node">
<title>Node2</title>
<g id="a_Node000002"><a xlink:href="namespaceMayaFlux_ae2cc805f3bfc3981d00031be64056e60.html#ae2cc805f3bfc3981d00031be64056e60" target="_top" xlink:title="Get window aspect ratio from window state.">
<polygon fill="white" stroke="#666666" points="131,-56 0,-56 0,-37 131,-37 131,-56"/>
<text text-anchor="middle" x="65.5" y="-44" font-family="Helvetica,sans-Serif" font-size="10.00">MayaFlux::aspect_ratio</text>
</a>
</g>
</g>
<!-- Node1&#45;&gt;Node2 -->
<g id="edge1_Node000001_Node000002" class="edge">
<title>Node1&#45;&gt;Node2</title>
<g id="a_edge1_Node000001_Node000002"><a xlink:title=" ">
<path fill="none" stroke="#63b8ff" d="M156.59,-35.49C148.17,-36.52 139.55,-37.57 131.14,-38.6"/>
<polygon fill="#63b8ff" stroke="#63b8ff" points="157.24,-38.94 166.74,-34.25 156.39,-31.99 157.24,-38.94"/>
</a>
</g>
</g>
<!-- Node3 -->
<g id="Node000003" class="node">
<title>Node3</title>
<g id="a_Node000003"><a xlink:href="namespaceMayaFlux_acbf682c1d526ed73c1fc9018c5b44f8c.html#acbf682c1d526ed73c1fc9018c5b44f8c" target="_top" xlink:title="Get window aspect ratio (width/height)">
<polygon fill="white" stroke="#666666" points="131,-19 0,-19 0,0 131,0 131,-19"/>
<text text-anchor="middle" x="65.5" y="-7" font-family="Helvetica,sans-Serif" font-size="10.00">MayaFlux::aspect_ratio</text>
</a>
</g>
</g>
<!-- Node1&#45;&gt;Node3 -->
<g id="edge2_Node000001_Node000003" class="edge">
<title>Node1&#45;&gt;Node3</title>
<g id="a_edge2_Node000001_Node000003"><a xlink:title=" ">
<path fill="none" stroke="#63b8ff" d="M156.59,-19.93C148.17,-18.95 139.55,-17.96 131.14,-16.98"/>
<polygon fill="#63b8ff" stroke="#63b8ff" points="156.4,-23.43 166.74,-21.1 157.21,-16.48 156.4,-23.43"/>
</a>
</g>
</g>
</g>
</svg>
