<?xml version="1.0" encoding="UTF-8" standalone="no"?>
<!DOCTYPE svg PUBLIC "-//W3C//DTD SVG 1.1//EN"
 "http://www.w3.org/Graphics/SVG/1.1/DTD/svg11.dtd">
<!-- Generated by graphviz version 2.43.0 (0)
 -->
<!-- Title: MayaFlux::Kriya::mouse_scrolled Pages: 1 -->
<!--zoomable 134 -->

<svg id="main" version="1.1" xmlns="http://www.w3.org/2000/svg" xmlns:xlink="http://www.w3.org/1999/xlink" xml:space="preserve" onload="init(evt)">
<style type="text/css"><![CDATA[
.node, .edge {opacity: 0.7;}
.node.selected, .edge.selected {opacity: 1;}
.edge:hover path { stroke: red; }
.edge:hover polygon { stroke: red; fill: red; }
]]></style>

<defs>
  <circle id="rim" cx="0" cy="0" r="7"/>
  <circle id="rim2" cx="0" cy="0" r="3.5"/>
  <g id="zoomPlus">
    <use xlink:href="#rim" fill="#404040"><set attributeName="fill" to="#808080" begin="zoomplus.mouseover" end="zoomplus.mouseout"/></use>
    <path d="M-4,0h8M0,-4v8" fill="none" stroke="white" stroke-width="1.5" pointer-events="none"/>
  </g>
  <g id="zoomMin">
    <use xlink:href="#rim" fill="#404040"><set attributeName="fill" to="#808080" begin="zoomminus.mouseover" end="zoomminus.mouseout"/></use>
    <path d="M-4,0h8" fill="none" stroke="white" stroke-width="1.5" pointer-events="none"/>
  </g>
  <g id="arrowUp" transform="translate(30 24)">
    <use xlink:href="#rim"/>
    <path pointer-events="none" fill="none" stroke="white" stroke-width="1.5" d="M0,-3.0v7 M-2.5,-0.5L0,-3.0L2.5,-0.5"/>
  </g>
  <g id="arrowRight" transform="rotate(90) translate(36 -43)">
    <use xlink:href="#rim"/>
    <path pointer-events="none" fill="none" stroke="white" stroke-width="1.5" d="M0,-3.0v7 M-2.5,-0.5L0,-3.0L2.5,-0.5"/>
  </g>
  <g id="arrowDown" transform="rotate(180) translate(-30 -48)">
    <use xlink:href="#rim"/>
    <path pointer-events="none" fill="none" stroke="white" stroke-width="1.5" d="M0,-3.0v7 M-2.5,-0.5L0,-3.0L2.5,-0.5"/>
  </g>
  <g id="arrowLeft" transform="rotate(270) translate(-36 17)">
    <use xlink:href="#rim"/>
    <path pointer-events="none" fill="none" stroke="white" stroke-width="1.5" d="M0,-3.0v7 M-2.5,-0.5L0,-3.0L2.5,-0.5"/>
  </g>
  <g id="resetDef">
    <use xlink:href="#rim2" fill="#404040"><set attributeName="fill" to="#808080" begin="reset.mouseover" end="reset.mouseout"/></use>
  </g>
</defs>
<script type="application/ecmascript">
var viewWidth = 683;
var viewHeight = 134;
var sectionId = 'dynsection-0';
</script>
<script type="application/ecmascript" xlink:href="svg.min.js"/>
<svg id="graph" class="graph">
<g id="viewport">
<title>MayaFlux::Kriya::mouse_scrolled</title>
<!-- Node1 -->
<g id="Node000001" class="node">
<title>Node1</title>
<g id="a_Node000001"><a xlink:title="Creates an Event coroutine that triggers on mouse scroll.">
<polygon fill="#999999" stroke="#666666" points="675,-54 540,-54 540,-24 675,-24 675,-54"/>
<text text-anchor="start" x="548" y="-42" font-family="Helvetica,sans-Serif" font-size="10.00">MayaFlux::Kriya::mouse</text>
<text text-anchor="middle" x="607.5" y="-31" font-family="Helvetica,sans-Serif" font-size="10.00">_scrolled</text>
</a>
</g>
</g>
<!-- Node2 -->
<g id="Node000002" class="node">
<title>Node2</title>
<g id="a_Node000002"><a xlink:href="namespaceMayaFlux_a07d5520bf6595375c13cc1b166a911a5.html#a07d5520bf6595375c13cc1b166a911a5" target="_top" xlink:title="Schedule a mouse scroll handler.">
<polygon fill="white" stroke="#666666" points="485,-72.5 371,-72.5 371,-53.5 485,-53.5 485,-72.5"/>
<text text-anchor="middle" x="428" y="-60.5" font-family="Helvetica,sans-Serif" font-size="10.00">MayaFlux::on_scroll</text>
</a>
</g>
</g>
<!-- Node1&#45;&gt;Node2 -->
<g id="edge1_Node000001_Node000002" class="edge">
<title>Node1&#45;&gt;Node2</title>
<g id="a_edge1_Node000001_Node000002"><a xlink:title=" ">
<path fill="none" stroke="#63b8ff" d="M529.66,-49.39C514.73,-51.41 499.34,-53.49 485.23,-55.4"/>
<polygon fill="#63b8ff" stroke="#63b8ff" points="530.46,-52.81 539.9,-48 529.52,-45.88 530.46,-52.81"/>
</a>
</g>
</g>
<!-- Node6 -->
<g id="Node000006" class="node">
<title>Node6</title>
<g id="a_Node000006"><a xlink:href="classMayaFlux_1_1Portal_1_1Forma_1_1Context_aa42296d51149bf551f43678912150ef0.html#aa42296d51149bf551f43678912150ef0" target="_top" xlink:title=" ">
<polygon fill="white" stroke="#666666" points="504,-33 352,-33 352,-3 504,-3 504,-33"/>
<text text-anchor="start" x="360" y="-21" font-family="Helvetica,sans-Serif" font-size="10.00">MayaFlux::Portal::Forma</text>
<text text-anchor="middle" x="428" y="-10" font-family="Helvetica,sans-Serif" font-size="10.00">::Context::register_handlers</text>
</a>
</g>
</g>
<!-- Node1&#45;&gt;Node6 -->
<g id="edge5_Node000001_Node000006" class="edge">
<title>Node1&#45;&gt;Node6</title>
<g id="a_edge5_Node000001_Node000006"><a xlink:title=" ">
<path fill="none" stroke="#63b8ff" d="M529.91,-29.94C521.33,-28.92 512.59,-27.89 504.02,-26.88"/>
<polygon fill="#63b8ff" stroke="#63b8ff" points="529.56,-33.42 539.9,-31.12 530.38,-26.47 529.56,-33.42"/>
</a>
</g>
</g>
<!-- Node3 -->
<g id="Node000003" class="node">
<title>Node3</title>
<g id="a_Node000003"><a xlink:href="namespaceMayaFlux_a72f28c8e9fbe5781fe8935356cb359b7.html#a72f28c8e9fbe5781fe8935356cb359b7" target="_top" xlink:title="Bind a navigation preset to a window and render processor.">
<polygon fill="white" stroke="#666666" points="316,-126 176,-126 176,-96 316,-96 316,-126"/>
<text text-anchor="start" x="184" y="-114" font-family="Helvetica,sans-Serif" font-size="10.00">MayaFlux::bind_viewport</text>
<text text-anchor="middle" x="246" y="-103" font-family="Helvetica,sans-Serif" font-size="10.00">_preset</text>
</a>
</g>
</g>
<!-- Node2&#45;&gt;Node3 -->
<g id="edge2_Node000002_Node000003" class="edge">
<title>Node2&#45;&gt;Node3</title>
<g id="a_edge2_Node000002_Node000003"><a xlink:title=" ">
<path fill="none" stroke="#63b8ff" d="M381.23,-75.2C357.59,-81.51 328.52,-89.26 303.49,-95.94"/>
<polygon fill="#63b8ff" stroke="#63b8ff" points="382.25,-78.56 391.01,-72.6 380.44,-71.79 382.25,-78.56"/>
</a>
</g>
</g>
<!-- Node5 -->
<g id="Node000005" class="node">
<title>Node5</title>
<g id="a_Node000005"><a xlink:href="classMayaFlux_1_1Portal_1_1Forma_1_1Context_a2c316ead9a2a49e06c9f9d2026a08dec.html#a2c316ead9a2a49e06c9f9d2026a08dec" target="_top" xlink:title=" ">
<polygon fill="white" stroke="#666666" points="314,-78 178,-78 178,-48 314,-48 314,-78"/>
<text text-anchor="start" x="186" y="-66" font-family="Helvetica,sans-Serif" font-size="10.00">MayaFlux::Portal::Forma</text>
<text text-anchor="middle" x="246" y="-55" font-family="Helvetica,sans-Serif" font-size="10.00">::Context::operator=</text>
</a>
</g>
</g>
<!-- Node2&#45;&gt;Node5 -->
<g id="edge4_Node000002_Node000005" class="edge">
<title>Node2&#45;&gt;Node5</title>
<g id="a_edge4_Node000002_Node000005"><a xlink:title=" ">
<path fill="none" stroke="#63b8ff" d="M360.31,-63C345.29,-63 329.34,-63 314.3,-63"/>
<polygon fill="#63b8ff" stroke="#63b8ff" points="360.54,-66.5 370.54,-63 360.54,-59.5 360.54,-66.5"/>
</a>
</g>
</g>
<!-- Node4 -->
<g id="Node000004" class="node">
<title>Node4</title>
<g id="a_Node000004"><a xlink:href="namespaceMayaFlux_a3dc95653b5e16198d6c5f3ca0c24d646.html#a3dc95653b5e16198d6c5f3ca0c24d646" target="_top" xlink:title="Bind a navigation preset to all RenderProcessors currently registered against a window.">
<polygon fill="white" stroke="#666666" points="140,-126 0,-126 0,-96 140,-96 140,-126"/>
<text text-anchor="start" x="8" y="-114" font-family="Helvetica,sans-Serif" font-size="10.00">MayaFlux::bind_viewport</text>
<text text-anchor="middle" x="70" y="-103" font-family="Helvetica,sans-Serif" font-size="10.00">_preset</text>
</a>
</g>
</g>
<!-- Node3&#45;&gt;Node4 -->
<g id="edge3_Node000003_Node000004" class="edge">
<title>Node3&#45;&gt;Node4</title>
<g id="a_edge3_Node000003_Node000004"><a xlink:title=" ">
<path fill="none" stroke="#63b8ff" d="M165.97,-111C157.38,-111 148.68,-111 140.22,-111"/>
<polygon fill="#63b8ff" stroke="#63b8ff" points="165.98,-114.5 175.98,-111 165.98,-107.5 165.98,-114.5"/>
</a>
</g>
</g>
<!-- Node7 -->
<g id="Node000007" class="node">
<title>Node7</title>
<g id="a_Node000007"><a xlink:href="classMayaFlux_1_1Portal_1_1Forma_1_1Context_a7287e64dcc62fe5f54a34e133c3b0332.html#a7287e64dcc62fe5f54a34e133c3b0332" target="_top" xlink:title="Construct and immediately register event coroutines.">
<polygon fill="white" stroke="#666666" points="314,-30 178,-30 178,0 314,0 314,-30"/>
<text text-anchor="start" x="186" y="-18" font-family="Helvetica,sans-Serif" font-size="10.00">MayaFlux::Portal::Forma</text>
<text text-anchor="middle" x="246" y="-7" font-family="Helvetica,sans-Serif" font-size="10.00">::Context::Context</text>
</a>
</g>
</g>
<!-- Node6&#45;&gt;Node7 -->
<g id="edge6_Node000006_Node000007" class="edge">
<title>Node6&#45;&gt;Node7</title>
<g id="a_edge6_Node000006_Node000007"><a xlink:title=" ">
<path fill="none" stroke="#63b8ff" d="M341.91,-16.58C332.6,-16.43 323.21,-16.27 314.16,-16.12"/>
<polygon fill="#63b8ff" stroke="#63b8ff" points="341.91,-20.08 351.97,-16.75 342.03,-13.08 341.91,-20.08"/>
</a>
</g>
</g>
</g>
</svg>

<g id="navigator" transform="translate(0 0)" fill="#404254">
  <rect fill="#f2f5e9" fill-opacity="0.5" stroke="#606060" stroke-width=".5" x="0" y="0" width="60" height="60"/>
  <use id="zoomplus" xlink:href="#zoomPlus" x="17" y="9" onmousedown="handleZoom(evt,'in')"/>
  <use id="zoomminus" xlink:href="#zoomMin" x="42" y="9" onmousedown="handleZoom(evt,'out')"/>
  <use id="reset" xlink:href="#resetDef" x="30" y="36" onmousedown="handleReset()"/>
   <use id="arrowup" xlink:href="#arrowUp" x="0" y="0" onmousedown="handlePan(0,-1)"/>
  <use id="arrowright" xlink:href="#arrowRight" x="0" y="0" onmousedown="handlePan(1,0)"/>
  <use id="arrowdown" xlink:href="#arrowDown" x="0" y="0" onmousedown="handlePan(0,1)"/>
  <use id="arrowleft" xlink:href="#arrowLeft" x="0" y="0" onmousedown="handlePan(-1,0)"/>
</g>
<svg viewBox="0 0 15 15" width="100%" height="30px" preserveAspectRatio="xMaxYMin meet">
 <g id="arrow_out" transform="scale(0.3 0.3)">
  <a xlink:href="namespaceMayaFlux_1_1Kriya_a454b114a833332a3d166874f702a0908_a454b114a833332a3d166874f702a0908_icgraph_org.svg" target="_base">
   <rect id="button" ry="5" rx="5" y="6" x="6" height="38" width="38"
        fill="#f2f5e9" fill-opacity="0.5" stroke="#606060" stroke-width="1.0"/>
   <path id="arrow"
     d="M 11.500037,31.436501 C 11.940474,20.09759 22.043105,11.32322 32.158766,21.979434 L 37.068811,17.246167 C 37.068811,17.246167 37.088388,32 37.088388,32 L 22.160133,31.978069 C 22.160133,31.978069 26.997745,27.140456 26.997745,27.140456 C 18.528582,18.264221 13.291696,25.230495 11.500037,31.436501 z"
     style="fill:#404040;"/>
  </a>
 </g>
</svg>

<style type='text/css'>
<![CDATA[
[data-mouse-over-selected='false'] { opacity: 0.7; }
[data-mouse-over-selected='true']  { opacity: 1.0; }
]]>
</style>
<script type="application/ecmascript"><![CDATA[
document.addEventListener('DOMContentLoaded', (event) => {
  highlightEdges();
  highlightAdjacentNodes();
});
]]></script>
</svg>
