<?xml version="1.0" encoding="UTF-8" standalone="no"?>
<!DOCTYPE svg PUBLIC "-//W3C//DTD SVG 1.1//EN"
 "http://www.w3.org/Graphics/SVG/1.1/DTD/svg11.dtd">
<!-- Generated by graphviz version 2.43.0 (0)
 -->
<!-- Title: MayaFlux::std_dev Pages: 1 -->
<svg width="315pt" height="153pt"
 viewBox="0.00 0.00 315.00 153.00" xmlns="http://www.w3.org/2000/svg" xmlns:xlink="http://www.w3.org/1999/xlink">
<g id="graph0" class="graph" transform="scale(1 1) rotate(0) translate(4 149)">
<title>MayaFlux::std_dev</title>
<!-- Node1 -->
<g id="Node000001" class="node">
<title>Node1</title>
<g id="a_Node000001"><a xlink:title="Calculate standard deviation of single&#45;channel data.">
<polygon fill="#999999" stroke="#666666" points="307,-62 198,-62 198,-43 307,-43 307,-62"/>
<text text-anchor="middle" x="252.5" y="-50" font-family="Helvetica,sans-Serif" font-size="10.00">MayaFlux::std_dev</text>
</a>
</g>
</g>
<!-- Node2 -->
<g id="Node000002" class="node">
<title>Node2</title>
<g id="a_Node000002"><a xlink:href="namespaceMayaFlux_1_1Kinesis_1_1Discrete_ad655a4c2195b504dd76db2632c886476.html#ad655a4c2195b504dd76db2632c886476" target="_top" xlink:title="Coefficient of variation (std_dev / mean) per window.">
<polygon fill="white" stroke="#666666" points="138,-127 24,-127 24,-86 138,-86 138,-127"/>
<text text-anchor="start" x="32" y="-115" font-family="Helvetica,sans-Serif" font-size="10.00">MayaFlux::Kinesis::</text>
<text text-anchor="start" x="32" y="-104" font-family="Helvetica,sans-Serif" font-size="10.00">Discrete::coefficient</text>
<text text-anchor="middle" x="81" y="-93" font-family="Helvetica,sans-Serif" font-size="10.00">_of_variation</text>
</a>
</g>
</g>
<!-- Node1&#45;&gt;Node2 -->
<g id="edge1_Node000001_Node000002" class="edge">
<title>Node1&#45;&gt;Node2</title>
<g id="a_edge1_Node000001_Node000002"><a xlink:title=" ">
<path fill="none" stroke="#63b8ff" d="M211.96,-65.1C190.05,-72.08 162.45,-80.87 138.33,-88.56"/>
<polygon fill="#63b8ff" stroke="#63b8ff" points="213.12,-68.4 221.59,-62.03 211,-61.73 213.12,-68.4"/>
</a>
</g>
</g>
<!-- Node3 -->
<g id="Node000003" class="node">
<title>Node3</title>
<g id="a_Node000003"><a xlink:href="namespaceMayaFlux_1_1Kinesis_1_1Discrete_aa463d24e121012bdf73cdf5bd6c76c25.html#aa463d24e121012bdf73cdf5bd6c76c25" target="_top" xlink:title="Standard deviation per window.">
<polygon fill="white" stroke="#666666" points="137,-67.5 25,-67.5 25,-37.5 137,-37.5 137,-67.5"/>
<text text-anchor="start" x="33" y="-55.5" font-family="Helvetica,sans-Serif" font-size="10.00">MayaFlux::Kinesis::</text>
<text text-anchor="middle" x="81" y="-44.5" font-family="Helvetica,sans-Serif" font-size="10.00">Discrete::std_dev</text>
</a>
</g>
</g>
<!-- Node1&#45;&gt;Node3 -->
<g id="edge3_Node000001_Node000003" class="edge">
<title>Node1&#45;&gt;Node3</title>
<g id="a_edge3_Node000001_Node000003"><a xlink:title=" ">
<path fill="none" stroke="#63b8ff" d="M187.67,-52.5C171.01,-52.5 153.19,-52.5 137.03,-52.5"/>
<polygon fill="#63b8ff" stroke="#63b8ff" points="187.87,-56 197.87,-52.5 187.87,-49 187.87,-56"/>
</a>
</g>
</g>
<!-- Node4 -->
<g id="Node000004" class="node">
<title>Node4</title>
<g id="a_Node000004"><a xlink:href="namespaceMayaFlux_a16be9d2fb24e6e4c7bad01172d669503.html#a16be9d2fb24e6e4c7bad01172d669503" target="_top" xlink:title="Calculate standard deviation across all channels (mix then analyze)">
<polygon fill="white" stroke="#666666" points="162,-19 0,-19 0,0 162,0 162,-19"/>
<text text-anchor="middle" x="81" y="-7" font-family="Helvetica,sans-Serif" font-size="10.00">MayaFlux::std_dev_combined</text>
</a>
</g>
</g>
<!-- Node1&#45;&gt;Node4 -->
<g id="edge4_Node000001_Node000004" class="edge">
<title>Node1&#45;&gt;Node4</title>
<g id="a_edge4_Node000001_Node000004"><a xlink:title=" ">
<path fill="none" stroke="#63b8ff" d="M206.65,-40.2C192.4,-36.37 176.56,-32.18 162,-28.5 149.41,-25.32 135.66,-22 123.16,-19.04"/>
<polygon fill="#63b8ff" stroke="#63b8ff" points="206.14,-43.69 216.71,-42.92 207.97,-36.93 206.14,-43.69"/>
</a>
</g>
</g>
<!-- Node2&#45;&gt;Node2 -->
<g id="edge2_Node000002_Node000002" class="edge">
<title>Node2&#45;&gt;Node2</title>
<g id="a_edge2_Node000002_Node000002"><a xlink:title=" ">
<path fill="none" stroke="#63b8ff" d="M110.25,-136.96C105.9,-141.74 96.15,-145 81,-145 56.76,-145 46.35,-136.65 49.76,-127.1"/>
<polygon fill="#63b8ff" stroke="#63b8ff" points="113.69,-137.59 112.24,-127.1 106.83,-136.2 113.69,-137.59"/>
</a>
</g>
</g>
</g>
</svg>
