<?xml version="1.0" encoding="UTF-8" standalone="no"?>
<!DOCTYPE svg PUBLIC "-//W3C//DTD SVG 1.1//EN"
 "http://www.w3.org/Graphics/SVG/1.1/DTD/svg11.dtd">
<!-- Generated by graphviz version 2.43.0 (0)
 -->
<!-- Title: MayaFlux::is_configured Pages: 1 -->
<!--zoomable 928 -->

<svg id="main" version="1.1" xmlns="http://www.w3.org/2000/svg" xmlns:xlink="http://www.w3.org/1999/xlink" xml:space="preserve" onload="init(evt)">
<style type="text/css"><![CDATA[
.node, .edge {opacity: 0.7;}
.node.selected, .edge.selected {opacity: 1;}
.edge:hover path { stroke: red; }
.edge:hover polygon { stroke: red; fill: red; }
]]></style>

<defs>
  <circle id="rim" cx="0" cy="0" r="7"/>
  <circle id="rim2" cx="0" cy="0" r="3.5"/>
  <g id="zoomPlus">
    <use xlink:href="#rim" fill="#404040"><set attributeName="fill" to="#808080" begin="zoomplus.mouseover" end="zoomplus.mouseout"/></use>
    <path d="M-4,0h8M0,-4v8" fill="none" stroke="white" stroke-width="1.5" pointer-events="none"/>
  </g>
  <g id="zoomMin">
    <use xlink:href="#rim" fill="#404040"><set attributeName="fill" to="#808080" begin="zoomminus.mouseover" end="zoomminus.mouseout"/></use>
    <path d="M-4,0h8" fill="none" stroke="white" stroke-width="1.5" pointer-events="none"/>
  </g>
  <g id="arrowUp" transform="translate(30 24)">
    <use xlink:href="#rim"/>
    <path pointer-events="none" fill="none" stroke="white" stroke-width="1.5" d="M0,-3.0v7 M-2.5,-0.5L0,-3.0L2.5,-0.5"/>
  </g>
  <g id="arrowRight" transform="rotate(90) translate(36 -43)">
    <use xlink:href="#rim"/>
    <path pointer-events="none" fill="none" stroke="white" stroke-width="1.5" d="M0,-3.0v7 M-2.5,-0.5L0,-3.0L2.5,-0.5"/>
  </g>
  <g id="arrowDown" transform="rotate(180) translate(-30 -48)">
    <use xlink:href="#rim"/>
    <path pointer-events="none" fill="none" stroke="white" stroke-width="1.5" d="M0,-3.0v7 M-2.5,-0.5L0,-3.0L2.5,-0.5"/>
  </g>
  <g id="arrowLeft" transform="rotate(270) translate(-36 17)">
    <use xlink:href="#rim"/>
    <path pointer-events="none" fill="none" stroke="white" stroke-width="1.5" d="M0,-3.0v7 M-2.5,-0.5L0,-3.0L2.5,-0.5"/>
  </g>
  <g id="resetDef">
    <use xlink:href="#rim2" fill="#404040"><set attributeName="fill" to="#808080" begin="reset.mouseover" end="reset.mouseout"/></use>
  </g>
</defs>
<script type="application/ecmascript">
var viewWidth = 902;
var viewHeight = 928;
var sectionId = 'dynsection-1';
</script>
<script type="application/ecmascript" xlink:href="svg.min.js"/>
<svg id="graph" class="graph">
<g id="viewport">
<title>MayaFlux::is_configured</title>
<!-- Node1 -->
<g id="Node000001" class="node">
<title>Node1</title>
<g id="a_Node000001"><a xlink:title="Checks if the default engine has currently accepted all configurations and initialized all managers.">
<polygon fill="#999999" stroke="#666666" points="894,-216.5 759,-216.5 759,-197.5 894,-197.5 894,-216.5"/>
<text text-anchor="middle" x="826.5" y="-204.5" font-family="Helvetica,sans-Serif" font-size="10.00">MayaFlux::is_configured</text>
</a>
</g>
</g>
<!-- Node2 -->
<g id="Node000002" class="node">
<title>Node2</title>
<g id="a_Node000002"><a xlink:href="namespaceMayaFlux_a00a57a9897c04aaa8ba5f11b97659982.html#a00a57a9897c04aaa8ba5f11b97659982" target="_top" xlink:title="Checks if the default engine has currently accepted all configurations and initialized all managers.">
<polygon fill="white" stroke="#666666" points="723,-222 606,-222 606,-192 723,-192 723,-222"/>
<text text-anchor="start" x="614" y="-210" font-family="Helvetica,sans-Serif" font-size="10.00">MayaFlux::is_engine</text>
<text text-anchor="middle" x="664.5" y="-199" font-family="Helvetica,sans-Serif" font-size="10.00">_configured</text>
</a>
</g>
</g>
<!-- Node1&#45;&gt;Node2 -->
<g id="edge1_Node000001_Node000002" class="edge">
<title>Node1&#45;&gt;Node2</title>
<g id="a_edge1_Node000001_Node000002"><a xlink:title=" ">
<path fill="none" stroke="#63b8ff" d="M748.53,-207C739.94,-207 731.3,-207 723.02,-207"/>
<polygon fill="#63b8ff" stroke="#63b8ff" points="748.57,-210.5 758.57,-207 748.57,-203.5 748.57,-210.5"/>
</a>
</g>
</g>
<!-- Node3 -->
<g id="Node000003" class="node">
<title>Node3</title>
<g id="a_Node000003"><a xlink:href="namespaceMayaFlux_1_1Config_a5249afad2e4d9b92e843da6b0d089926.html#a5249afad2e4d9b92e843da6b0d089926" target="_top" xlink:title="Gets the buffer size from the default engine.">
<polygon fill="white" stroke="#666666" points="557,-850 434,-850 434,-820 557,-820 557,-850"/>
<text text-anchor="start" x="442" y="-838" font-family="Helvetica,sans-Serif" font-size="10.00">MayaFlux::Config::get</text>
<text text-anchor="middle" x="495.5" y="-827" font-family="Helvetica,sans-Serif" font-size="10.00">_buffer_size</text>
</a>
</g>
</g>
<!-- Node2&#45;&gt;Node3 -->
<g id="edge2_Node000002_Node000003" class="edge">
<title>Node2&#45;&gt;Node3</title>
<g id="a_edge2_Node000002_Node000003"><a xlink:title=" ">
<path fill="none" stroke="#63b8ff" d="M656.88,-231.89C629.12,-336.29 522.51,-737.19 500.49,-819.99"/>
<polygon fill="#63b8ff" stroke="#63b8ff" points="660.27,-232.78 659.45,-222.21 653.5,-230.98 660.27,-232.78"/>
</a>
</g>
</g>
<!-- Node9 -->
<g id="Node000009" class="node">
<title>Node9</title>
<g id="a_Node000009"><a xlink:href="namespaceMayaFlux_1_1Config_a1df79fdf780d55f831e3eb7e09733fe4.html#a1df79fdf780d55f831e3eb7e09733fe4" target="_top" xlink:title="Gets the graphics configuration from the default engine.">
<polygon fill="white" stroke="#666666" points="562,-174 429,-174 429,-144 562,-144 562,-174"/>
<text text-anchor="start" x="437" y="-162" font-family="Helvetica,sans-Serif" font-size="10.00">MayaFlux::Config::get</text>
<text text-anchor="middle" x="495.5" y="-151" font-family="Helvetica,sans-Serif" font-size="10.00">_global_graphics_config</text>
</a>
</g>
</g>
<!-- Node2&#45;&gt;Node9 -->
<g id="edge8_Node000002_Node000009" class="edge">
<title>Node2&#45;&gt;Node9</title>
<g id="a_edge8_Node000002_Node000009"><a xlink:title=" ">
<path fill="none" stroke="#63b8ff" d="M601.13,-189.07C583.87,-184.11 565.31,-178.78 548.7,-174"/>
<polygon fill="#63b8ff" stroke="#63b8ff" points="600.54,-192.55 611.12,-191.94 602.47,-185.82 600.54,-192.55"/>
</a>
</g>
</g>
<!-- Node12 -->
<g id="Node000012" class="node">
<title>Node12</title>
<g id="a_Node000012"><a xlink:href="namespaceMayaFlux_1_1Config_a39911fc00824ff100a15abac405c045e.html#a39911fc00824ff100a15abac405c045e" target="_top" xlink:title="Gets the input configuration from the default engine.">
<polygon fill="white" stroke="#666666" points="557,-318 434,-318 434,-288 557,-288 557,-318"/>
<text text-anchor="start" x="442" y="-306" font-family="Helvetica,sans-Serif" font-size="10.00">MayaFlux::Config::get</text>
<text text-anchor="middle" x="495.5" y="-295" font-family="Helvetica,sans-Serif" font-size="10.00">_global_input_config</text>
</a>
</g>
</g>
<!-- Node2&#45;&gt;Node12 -->
<g id="edge11_Node000002_Node000012" class="edge">
<title>Node2&#45;&gt;Node12</title>
<g id="a_edge11_Node000002_Node000012"><a xlink:title=" ">
<path fill="none" stroke="#63b8ff" d="M639.78,-228.96C621.76,-244.68 595.76,-265.39 570,-279 563.71,-282.32 556.87,-285.3 549.99,-287.93"/>
<polygon fill="#63b8ff" stroke="#63b8ff" points="642.31,-231.39 647.46,-222.13 637.66,-226.16 642.31,-231.39"/>
</a>
</g>
</g>
<!-- Node13 -->
<g id="Node000013" class="node">
<title>Node13</title>
<g id="a_Node000013"><a xlink:href="namespaceMayaFlux_1_1Config_aedaa376a2d7263a40d700c2a05022516.html#aedaa376a2d7263a40d700c2a05022516" target="_top" xlink:title="Gets the network configuration from the default engine.">
<polygon fill="white" stroke="#666666" points="561,-270 430,-270 430,-240 561,-240 561,-270"/>
<text text-anchor="start" x="438" y="-258" font-family="Helvetica,sans-Serif" font-size="10.00">MayaFlux::Config::get</text>
<text text-anchor="middle" x="495.5" y="-247" font-family="Helvetica,sans-Serif" font-size="10.00">_global_network_config</text>
</a>
</g>
</g>
<!-- Node2&#45;&gt;Node13 -->
<g id="edge13_Node000002_Node000013" class="edge">
<title>Node2&#45;&gt;Node13</title>
<g id="a_edge13_Node000002_Node000013"><a xlink:title=" ">
<path fill="none" stroke="#63b8ff" d="M601.13,-224.93C583.87,-229.89 565.31,-235.22 548.7,-240"/>
<polygon fill="#63b8ff" stroke="#63b8ff" points="602.47,-228.18 611.12,-222.06 600.54,-221.45 602.47,-228.18"/>
</a>
</g>
</g>
<!-- Node14 -->
<g id="Node000014" class="node">
<title>Node14</title>
<g id="a_Node000014"><a xlink:href="namespaceMayaFlux_1_1Config_add02a960f8fdc0d03e7d4c0aa3c2b518.html#add02a960f8fdc0d03e7d4c0aa3c2b518" target="_top" xlink:title="Gets the stream configuration from the default engine.">
<polygon fill="white" stroke="#666666" points="557,-222 434,-222 434,-192 557,-192 557,-222"/>
<text text-anchor="start" x="442" y="-210" font-family="Helvetica,sans-Serif" font-size="10.00">MayaFlux::Config::get</text>
<text text-anchor="middle" x="495.5" y="-199" font-family="Helvetica,sans-Serif" font-size="10.00">_global_stream_info</text>
</a>
</g>
</g>
<!-- Node2&#45;&gt;Node14 -->
<g id="edge15_Node000002_Node000014" class="edge">
<title>Node2&#45;&gt;Node14</title>
<g id="a_edge15_Node000002_Node000014"><a xlink:title=" ">
<path fill="none" stroke="#63b8ff" d="M595.51,-207C582.82,-207 569.63,-207 557.18,-207"/>
<polygon fill="#63b8ff" stroke="#63b8ff" points="595.56,-210.5 605.56,-207 595.56,-203.5 595.56,-210.5"/>
</a>
</g>
</g>
<!-- Node15 -->
<g id="Node000015" class="node">
<title>Node15</title>
<g id="a_Node000015"><a xlink:href="namespaceMayaFlux_acdbad270c14188c6ad690f15435a475c.html#acdbad270c14188c6ad690f15435a475c" target="_top" xlink:title="Retrieves the global IOManager instance for file loading and buffer management.">
<polygon fill="white" stroke="#666666" points="570,-510.5 421,-510.5 421,-491.5 570,-491.5 570,-510.5"/>
<text text-anchor="middle" x="495.5" y="-498.5" font-family="Helvetica,sans-Serif" font-size="10.00">MayaFlux::get_io_manager</text>
</a>
</g>
</g>
<!-- Node2&#45;&gt;Node15 -->
<g id="edge17_Node000002_Node000015" class="edge">
<title>Node2&#45;&gt;Node15</title>
<g id="a_edge17_Node000002_Node000015"><a xlink:title=" ">
<path fill="none" stroke="#63b8ff" d="M649.68,-231.34C614.97,-292.44 525.27,-450.35 502.05,-491.22"/>
<polygon fill="#63b8ff" stroke="#63b8ff" points="652.86,-232.82 654.76,-222.39 646.77,-229.36 652.86,-232.82"/>
</a>
</g>
</g>
<!-- Node34 -->
<g id="Node000034" class="node">
<title>Node34</title>
<g id="a_Node000034"><a xlink:href="namespaceMayaFlux_1_1Config_aea5cc2f1c8447b25797ca248da512ff0.html#aea5cc2f1c8447b25797ca248da512ff0" target="_top" xlink:title="Gets the number of output channels from the default engine.">
<polygon fill="white" stroke="#666666" points="557,-126 434,-126 434,-96 557,-96 557,-126"/>
<text text-anchor="start" x="442" y="-114" font-family="Helvetica,sans-Serif" font-size="10.00">MayaFlux::Config::get</text>
<text text-anchor="middle" x="495.5" y="-103" font-family="Helvetica,sans-Serif" font-size="10.00">_num_out_channels</text>
</a>
</g>
</g>
<!-- Node2&#45;&gt;Node34 -->
<g id="edge38_Node000002_Node000034" class="edge">
<title>Node2&#45;&gt;Node34</title>
<g id="a_edge38_Node000002_Node000034"><a xlink:title=" ">
<path fill="none" stroke="#63b8ff" d="M639.78,-185.04C621.76,-169.32 595.76,-148.61 570,-135 563.71,-131.68 556.87,-128.7 549.99,-126.07"/>
<polygon fill="#63b8ff" stroke="#63b8ff" points="637.66,-187.84 647.46,-191.87 642.31,-182.61 637.66,-187.84"/>
</a>
</g>
</g>
<!-- Node35 -->
<g id="Node000035" class="node">
<title>Node35</title>
<g id="a_Node000035"><a xlink:href="namespaceMayaFlux_1_1Config_ad8c6968db02415b5ba48863063076989.html#ad8c6968db02415b5ba48863063076989" target="_top" xlink:title="Gets the sample rate from the default engine.">
<polygon fill="white" stroke="#666666" points="557,-78 434,-78 434,-48 557,-48 557,-78"/>
<text text-anchor="start" x="442" y="-66" font-family="Helvetica,sans-Serif" font-size="10.00">MayaFlux::Config::get</text>
<text text-anchor="middle" x="495.5" y="-55" font-family="Helvetica,sans-Serif" font-size="10.00">_sample_rate</text>
</a>
</g>
</g>
<!-- Node2&#45;&gt;Node35 -->
<g id="edge39_Node000002_Node000035" class="edge">
<title>Node2&#45;&gt;Node35</title>
<g id="a_edge39_Node000002_Node000035"><a xlink:title=" ">
<path fill="none" stroke="#63b8ff" d="M650.62,-182.9C634.98,-155.84 606.15,-112.39 570,-87 565.17,-83.61 559.82,-80.67 554.29,-78.13"/>
<polygon fill="#63b8ff" stroke="#63b8ff" points="647.64,-184.73 655.59,-191.73 653.74,-181.3 647.64,-184.73"/>
</a>
</g>
</g>
<!-- Node36 -->
<g id="Node000036" class="node">
<title>Node36</title>
<g id="a_Node000036"><a xlink:href="namespaceMayaFlux_1_1Config_a91f6deaba22e2b1e7efb9e6bcdc61628.html#a91f6deaba22e2b1e7efb9e6bcdc61628" target="_top" xlink:title="Sets the node configuration for the default engine.">
<polygon fill="white" stroke="#666666" points="556.5,-30 434.5,-30 434.5,0 556.5,0 556.5,-30"/>
<text text-anchor="start" x="442.5" y="-18" font-family="Helvetica,sans-Serif" font-size="10.00">MayaFlux::Config::set</text>
<text text-anchor="middle" x="495.5" y="-7" font-family="Helvetica,sans-Serif" font-size="10.00">_node_config</text>
</a>
</g>
</g>
<!-- Node2&#45;&gt;Node36 -->
<g id="edge40_Node000002_Node000036" class="edge">
<title>Node2&#45;&gt;Node36</title>
<g id="a_edge40_Node000002_Node000036"><a xlink:title=" ">
<path fill="none" stroke="#63b8ff" d="M655.97,-181.6C643.82,-144.9 616.42,-77.26 570,-39 565.86,-35.59 561.21,-32.65 556.33,-30.13"/>
<polygon fill="#63b8ff" stroke="#63b8ff" points="652.76,-183.04 659.13,-191.51 659.43,-180.92 652.76,-183.04"/>
</a>
</g>
</g>
<!-- Node4 -->
<g id="Node000004" class="node">
<title>Node4</title>
<g id="a_Node000004"><a xlink:href="namespaceMayaFlux_a36c554a7012df7e010ff0b6cea17420f.html#a36c554a7012df7e010ff0b6cea17420f" target="_top" xlink:title="Construct a built SamplingPipeline from an audio file.">
<polygon fill="white" stroke="#666666" points="385,-823.5 239,-823.5 239,-804.5 385,-804.5 385,-823.5"/>
<text text-anchor="middle" x="312" y="-811.5" font-family="Helvetica,sans-Serif" font-size="10.00">MayaFlux::create_sampler</text>
</a>
</g>
</g>
<!-- Node3&#45;&gt;Node4 -->
<g id="edge3_Node000003_Node000004" class="edge">
<title>Node3&#45;&gt;Node4</title>
<g id="a_edge3_Node000003_Node000004"><a xlink:title=" ">
<path fill="none" stroke="#63b8ff" d="M423.81,-826.82C411.16,-825.36 397.97,-823.83 385.28,-822.36"/>
<polygon fill="#63b8ff" stroke="#63b8ff" points="423.47,-830.31 433.81,-827.98 424.28,-823.35 423.47,-830.31"/>
</a>
</g>
</g>
<!-- Node6 -->
<g id="Node000006" class="node">
<title>Node6</title>
<g id="a_Node000006"><a xlink:href="namespaceMayaFlux_a56313717fe4a452b14cd3e82681a916e.html#a56313717fe4a452b14cd3e82681a916e" target="_top" xlink:title="Construct a built SamplingPipeline from an existing DynamicSoundStream.">
<polygon fill="white" stroke="#666666" points="385,-872 239,-872 239,-842 385,-842 385,-872"/>
<text text-anchor="start" x="247" y="-860" font-family="Helvetica,sans-Serif" font-size="10.00">MayaFlux::create_sampler</text>
<text text-anchor="middle" x="312" y="-849" font-family="Helvetica,sans-Serif" font-size="10.00">_from_stream</text>
</a>
</g>
</g>
<!-- Node3&#45;&gt;Node6 -->
<g id="edge5_Node000003_Node000006" class="edge">
<title>Node3&#45;&gt;Node6</title>
<g id="a_edge5_Node000003_Node000006"><a xlink:title=" ">
<path fill="none" stroke="#63b8ff" d="M423.81,-843.57C411.16,-845.1 397.97,-846.7 385.28,-848.24"/>
<polygon fill="#63b8ff" stroke="#63b8ff" points="424.3,-847.03 433.81,-842.36 423.46,-840.09 424.3,-847.03"/>
</a>
</g>
</g>
<!-- Node8 -->
<g id="Node000008" class="node">
<title>Node8</title>
<g id="a_Node000008"><a xlink:href="namespaceMayaFlux_ad01d9cdd4e1687f97a0edca6641e6daa.html#ad01d9cdd4e1687f97a0edca6641e6daa" target="_top" xlink:title="Constructs and initializes per&#45;channel SoundContainerBuffers without registering them.">
<polygon fill="white" stroke="#666666" points="382,-920 242,-920 242,-890 382,-890 382,-920"/>
<text text-anchor="start" x="250" y="-908" font-family="Helvetica,sans-Serif" font-size="10.00">MayaFlux::prepare_audio</text>
<text text-anchor="middle" x="312" y="-897" font-family="Helvetica,sans-Serif" font-size="10.00">_buffers</text>
</a>
</g>
</g>
<!-- Node3&#45;&gt;Node8 -->
<g id="edge7_Node000003_Node000008" class="edge">
<title>Node3&#45;&gt;Node8</title>
<g id="a_edge7_Node000003_Node000008"><a xlink:title=" ">
<path fill="none" stroke="#63b8ff" d="M450.82,-854.25C430.88,-862.8 406.89,-872.77 385,-881 376.98,-884.01 368.4,-887.05 360.04,-889.89"/>
<polygon fill="#63b8ff" stroke="#63b8ff" points="452.45,-857.35 460.25,-850.18 449.68,-850.93 452.45,-857.35"/>
</a>
</g>
</g>
<!-- Node5 -->
<g id="Node000005" class="node">
<title>Node5</title>
<g id="a_Node000005"><a xlink:href="classMayaFlux_1_1Core_1_1BackendResourceManager_a1fe5c96d56ec273270cbd6d95450fd6c.html#a1fe5c96d56ec273270cbd6d95450fd6c" target="_top" xlink:title=" ">
<polygon fill="white" stroke="#666666" points="203,-839 0,-839 0,-809 203,-809 203,-839"/>
<text text-anchor="start" x="8" y="-827" font-family="Helvetica,sans-Serif" font-size="10.00">MayaFlux::Core::BackendResource</text>
<text text-anchor="middle" x="101.5" y="-816" font-family="Helvetica,sans-Serif" font-size="10.00">Manager::~BackendResourceManager</text>
</a>
</g>
</g>
<!-- Node4&#45;&gt;Node5 -->
<g id="edge4_Node000004_Node000005" class="edge">
<title>Node4&#45;&gt;Node5</title>
<g id="a_edge4_Node000004_Node000005"><a xlink:title=" ">
<path fill="none" stroke="#63b8ff" d="M228.82,-817.94C220.42,-818.34 211.82,-818.76 203.24,-819.17"/>
<polygon fill="#63b8ff" stroke="#63b8ff" points="229.13,-821.43 238.95,-817.46 228.8,-814.44 229.13,-821.43"/>
</a>
</g>
</g>
<!-- Node7 -->
<g id="Node000007" class="node">
<title>Node7</title>
<g id="a_Node000007"><a xlink:href="namespaceMayaFlux_a5dca32bb8cd22edc175764aeea406b3a.html#a5dca32bb8cd22edc175764aeea406b3a" target="_top" xlink:title="Construct one built SamplingPipeline per channel from an audio file.">
<polygon fill="white" stroke="#666666" points="177.5,-790.5 25.5,-790.5 25.5,-771.5 177.5,-771.5 177.5,-790.5"/>
<text text-anchor="middle" x="101.5" y="-778.5" font-family="Helvetica,sans-Serif" font-size="10.00">MayaFlux::create_samplers</text>
</a>
</g>
</g>
<!-- Node6&#45;&gt;Node7 -->
<g id="edge6_Node000006_Node000007" class="edge">
<title>Node6&#45;&gt;Node7</title>
<g id="a_edge6_Node000006_Node000007"><a xlink:title=" ">
<path fill="none" stroke="#63b8ff" d="M247.86,-837.72C244.81,-836.24 241.84,-834.67 239,-833 220.29,-821.99 222.41,-809.72 203,-800 195.06,-796.02 186.39,-792.88 177.58,-790.38"/>
<polygon fill="#63b8ff" stroke="#63b8ff" points="246.64,-841.01 257.2,-841.88 249.48,-834.61 246.64,-841.01"/>
</a>
</g>
</g>
<!-- Node10 -->
<g id="Node000010" class="node">
<title>Node10</title>
<g id="a_Node000010"><a xlink:href="namespaceMayaFlux_1_1Config_a926b14a6baa31cfcd77dcb32ca8a2417.html#a926b14a6baa31cfcd77dcb32ca8a2417" target="_top" xlink:title="Load engine configuration from a JSON file, applying any present fields to the pre&#45;Init config struct...">
<polygon fill="white" stroke="#666666" points="376,-198 248,-198 248,-168 376,-168 376,-198"/>
<text text-anchor="start" x="256" y="-186" font-family="Helvetica,sans-Serif" font-size="10.00">MayaFlux::Config::load</text>
<text text-anchor="middle" x="312" y="-175" font-family="Helvetica,sans-Serif" font-size="10.00">_config_from_file</text>
</a>
</g>
</g>
<!-- Node9&#45;&gt;Node10 -->
<g id="edge9_Node000009_Node000010" class="edge">
<title>Node9&#45;&gt;Node10</title>
<g id="a_edge9_Node000009_Node000010"><a xlink:title=" ">
<path fill="none" stroke="#63b8ff" d="M418.73,-169.02C404.51,-170.9 389.78,-172.85 376,-174.67"/>
<polygon fill="#63b8ff" stroke="#63b8ff" points="419.52,-172.45 428.97,-167.66 418.6,-165.51 419.52,-172.45"/>
</a>
</g>
</g>
<!-- Node11 -->
<g id="Node000011" class="node">
<title>Node11</title>
<g id="a_Node000011"><a xlink:href="main_8cpp_a0ddf1224851353fc92bfbff6f499fa97.html#a0ddf1224851353fc92bfbff6f499fa97" target="_top" xlink:title=" ">
<polygon fill="white" stroke="#666666" points="122,-192.5 81,-192.5 81,-173.5 122,-173.5 122,-192.5"/>
<text text-anchor="middle" x="101.5" y="-180.5" font-family="Helvetica,sans-Serif" font-size="10.00">main</text>
</a>
</g>
</g>
<!-- Node10&#45;&gt;Node11 -->
<g id="edge10_Node000010_Node000011" class="edge">
<title>Node10&#45;&gt;Node11</title>
<g id="a_edge10_Node000010_Node000011"><a xlink:title=" ">
<path fill="none" stroke="#63b8ff" d="M237.64,-183C196.69,-183 148.76,-183 122.4,-183"/>
<polygon fill="#63b8ff" stroke="#63b8ff" points="237.88,-186.5 247.88,-183 237.88,-179.5 237.88,-186.5"/>
</a>
</g>
</g>
<!-- Node12&#45;&gt;Node10 -->
<g id="edge12_Node000012_Node000010" class="edge">
<title>Node12&#45;&gt;Node10</title>
<g id="a_edge12_Node000012_Node000010"><a xlink:title=" ">
<path fill="none" stroke="#63b8ff" d="M425.26,-282.36C423.79,-281.29 422.36,-280.17 421,-279 393.9,-255.64 412.03,-230.44 385,-207 381.02,-203.55 376.52,-200.59 371.77,-198.05"/>
<polygon fill="#63b8ff" stroke="#63b8ff" points="423.8,-285.57 434.15,-287.87 427.49,-279.62 423.8,-285.57"/>
</a>
</g>
</g>
<!-- Node13&#45;&gt;Node10 -->
<g id="edge14_Node000013_Node000010" class="edge">
<title>Node13&#45;&gt;Node10</title>
<g id="a_edge14_Node000013_Node000010"><a xlink:title=" ">
<path fill="none" stroke="#63b8ff" d="M432.84,-236.26C428.78,-234.6 424.8,-232.85 421,-231 403.7,-222.6 402.27,-215.45 385,-207 378.37,-203.76 371.2,-200.79 364.03,-198.12"/>
<polygon fill="#63b8ff" stroke="#63b8ff" points="431.81,-239.61 442.4,-239.95 434.33,-233.08 431.81,-239.61"/>
</a>
</g>
</g>
<!-- Node14&#45;&gt;Node10 -->
<g id="edge16_Node000014_Node000010" class="edge">
<title>Node14&#45;&gt;Node10</title>
<g id="a_edge16_Node000014_Node000010"><a xlink:title=" ">
<path fill="none" stroke="#63b8ff" d="M423.65,-197.63C407.97,-195.56 391.46,-193.38 376.12,-191.35"/>
<polygon fill="#63b8ff" stroke="#63b8ff" points="423.44,-201.13 433.81,-198.97 424.36,-194.19 423.44,-201.13"/>
</a>
</g>
</g>
<!-- Node15&#45;&gt;Node4 -->
<g id="edge27_Node000015_Node000004" class="edge">
<title>Node15&#45;&gt;Node4</title>
<g id="a_edge27_Node000015_Node000004"><a xlink:title=" ">
<path fill="none" stroke="#63b8ff" d="M492.76,-520.71C487.13,-572.43 464.87,-713.3 385,-790 378.44,-796.3 370.19,-800.94 361.63,-804.37"/>
<polygon fill="#63b8ff" stroke="#63b8ff" points="496.26,-520.87 493.76,-510.57 489.29,-520.18 496.26,-520.87"/>
</a>
</g>
</g>
<!-- Node15&#45;&gt;Node7 -->
<g id="edge28_Node000015_Node000007" class="edge">
<title>Node15&#45;&gt;Node7</title>
<g id="a_edge28_Node000015_Node000007"><a xlink:title=" ">
<path fill="none" stroke="#63b8ff" d="M492.76,-520.5C487.23,-569.68 465.34,-698.96 385,-757 352.98,-780.13 250.07,-783.69 177.74,-783.13"/>
<polygon fill="#63b8ff" stroke="#63b8ff" points="496.24,-520.84 493.78,-510.54 489.28,-520.13 496.24,-520.84"/>
</a>
</g>
</g>
<!-- Node16 -->
<g id="Node000016" class="node">
<title>Node16</title>
<g id="a_Node000016"><a xlink:href="namespaceMayaFlux_a9406cae5639d13e90301c60223097b5e.html#a9406cae5639d13e90301c60223097b5e" target="_top" xlink:title="Present a native open&#45;file dialog filtered to audio formats and load the chosen file via IOManager::l...">
<polygon fill="white" stroke="#666666" points="380.5,-235.5 243.5,-235.5 243.5,-216.5 380.5,-216.5 380.5,-235.5"/>
<text text-anchor="middle" x="312" y="-223.5" font-family="Helvetica,sans-Serif" font-size="10.00">MayaFlux::choose_audio</text>
</a>
</g>
</g>
<!-- Node15&#45;&gt;Node16 -->
<g id="edge18_Node000015_Node000016" class="edge">
<title>Node15&#45;&gt;Node16</title>
<g id="a_edge18_Node000015_Node000016"><a xlink:title=" ">
<path fill="none" stroke="#63b8ff" d="M486.55,-482.1C461.76,-423.26 387.44,-247.1 385,-245 380.5,-241.11 375.29,-238.01 369.78,-235.53"/>
<polygon fill="#63b8ff" stroke="#63b8ff" points="483.34,-483.51 490.45,-491.37 489.79,-480.79 483.34,-483.51"/>
</a>
</g>
</g>
<!-- Node18 -->
<g id="Node000018" class="node">
<title>Node18</title>
<g id="a_Node000018"><a xlink:href="namespaceMayaFlux_acdbe8e579e7859794f2c83ebc17e6bbc.html#acdbe8e579e7859794f2c83ebc17e6bbc" target="_top" xlink:title="Present a native open&#45;file dialog filtered to image formats and load the chosen file via IOManager::l...">
<polygon fill="white" stroke="#666666" points="382.5,-747.5 241.5,-747.5 241.5,-728.5 382.5,-728.5 382.5,-747.5"/>
<text text-anchor="middle" x="312" y="-735.5" font-family="Helvetica,sans-Serif" font-size="10.00">MayaFlux::choose_image</text>
</a>
</g>
</g>
<!-- Node15&#45;&gt;Node18 -->
<g id="edge20_Node000015_Node000018" class="edge">
<title>Node15&#45;&gt;Node18</title>
<g id="a_edge20_Node000015_Node000018"><a xlink:title=" ">
<path fill="none" stroke="#63b8ff" d="M490.54,-520.46C480.74,-563.45 451.19,-666.9 385,-720 380.78,-723.39 376,-726.15 370.97,-728.39"/>
<polygon fill="#63b8ff" stroke="#63b8ff" points="493.96,-521.2 492.66,-510.68 487.12,-519.71 493.96,-521.2"/>
</a>
</g>
</g>
<!-- Node20 -->
<g id="Node000020" class="node">
<title>Node20</title>
<g id="a_Node000020"><a xlink:href="namespaceMayaFlux_a9340053229a525fee088349a5cf2c366.html#a9340053229a525fee088349a5cf2c366" target="_top" xlink:title="Present a native open&#45;file dialog filtered to 3D model formats and load the chosen file via IOManager...">
<polygon fill="white" stroke="#666666" points="380.5,-710.5 243.5,-710.5 243.5,-691.5 380.5,-691.5 380.5,-710.5"/>
<text text-anchor="middle" x="312" y="-698.5" font-family="Helvetica,sans-Serif" font-size="10.00">MayaFlux::choose_mesh</text>
</a>
</g>
</g>
<!-- Node15&#45;&gt;Node20 -->
<g id="edge22_Node000015_Node000020" class="edge">
<title>Node15&#45;&gt;Node20</title>
<g id="a_edge22_Node000015_Node000020"><a xlink:title=" ">
<path fill="none" stroke="#63b8ff" d="M488.43,-520.45C475.69,-557.99 442.46,-640.48 385,-683 380.44,-686.37 375.33,-689.12 369.97,-691.35"/>
<polygon fill="#63b8ff" stroke="#63b8ff" points="491.83,-521.32 491.61,-510.73 485.18,-519.14 491.83,-521.32"/>
</a>
</g>
</g>
<!-- Node22 -->
<g id="Node000022" class="node">
<title>Node22</title>
<g id="a_Node000022"><a xlink:href="namespaceMayaFlux_a486e8f5ee61e21ddb186eb7e82d5d4a3.html#a486e8f5ee61e21ddb186eb7e82d5d4a3" target="_top" xlink:title="Present a native open&#45;file dialog filtered to 3D model formats and load the chosen file as a MeshNetw...">
<polygon fill="white" stroke="#666666" points="380.5,-636 243.5,-636 243.5,-606 380.5,-606 380.5,-636"/>
<text text-anchor="start" x="251.5" y="-624" font-family="Helvetica,sans-Serif" font-size="10.00">MayaFlux::choose_mesh</text>
<text text-anchor="middle" x="312" y="-613" font-family="Helvetica,sans-Serif" font-size="10.00">_network</text>
</a>
</g>
</g>
<!-- Node15&#45;&gt;Node22 -->
<g id="edge24_Node000015_Node000022" class="edge">
<title>Node15&#45;&gt;Node22</title>
<g id="a_edge24_Node000015_Node000022"><a xlink:title=" ">
<path fill="none" stroke="#63b8ff" d="M479.1,-518.18C459.25,-539.4 422.75,-575.35 385,-597 379.17,-600.34 372.81,-603.31 366.35,-605.91"/>
<polygon fill="#63b8ff" stroke="#63b8ff" points="481.9,-520.31 486.1,-510.58 476.75,-515.57 481.9,-520.31"/>
</a>
</g>
</g>
<!-- Node24 -->
<g id="Node000024" class="node">
<title>Node24</title>
<g id="a_Node000024"><a xlink:href="namespaceMayaFlux_a1d1789231897148a72a4d3589f44bed7.html#a1d1789231897148a72a4d3589f44bed7" target="_top" xlink:title="Present a native open&#45;file dialog filtered to video formats and load the chosen file via IOManager::l...">
<polygon fill="white" stroke="#666666" points="380.5,-673.5 243.5,-673.5 243.5,-654.5 380.5,-654.5 380.5,-673.5"/>
<text text-anchor="middle" x="312" y="-661.5" font-family="Helvetica,sans-Serif" font-size="10.00">MayaFlux::choose_video</text>
</a>
</g>
</g>
<!-- Node15&#45;&gt;Node24 -->
<g id="edge26_Node000015_Node000024" class="edge">
<title>Node15&#45;&gt;Node24</title>
<g id="a_edge26_Node000015_Node000024"><a xlink:title=" ">
<path fill="none" stroke="#63b8ff" d="M485.3,-520.14C469.35,-551.24 433.56,-612.54 385,-645 379.2,-648.88 372.64,-651.97 365.9,-654.43"/>
<polygon fill="#63b8ff" stroke="#63b8ff" points="488.61,-521.35 489.94,-510.84 482.35,-518.22 488.61,-521.35"/>
</a>
</g>
</g>
<!-- Node25 -->
<g id="Node000025" class="node">
<title>Node25</title>
<g id="a_Node000025"><a xlink:href="classMayaFlux_1_1Creator_ad22f7326cc92cfd7fbcb22cc6409de68.html#ad22f7326cc92cfd7fbcb22cc6409de68" target="_top" xlink:title=" ">
<polygon fill="white" stroke="#666666" points="368.5,-588 255.5,-588 255.5,-558 368.5,-558 368.5,-588"/>
<text text-anchor="start" x="263.5" y="-576" font-family="Helvetica,sans-Serif" font-size="10.00">MayaFlux::Creator::</text>
<text text-anchor="middle" x="312" y="-565" font-family="Helvetica,sans-Serif" font-size="10.00">load_image_buffer</text>
</a>
</g>
</g>
<!-- Node15&#45;&gt;Node25 -->
<g id="edge29_Node000015_Node000025" class="edge">
<title>Node15&#45;&gt;Node25</title>
<g id="a_edge29_Node000015_Node000025"><a xlink:title=" ">
<path fill="none" stroke="#63b8ff" d="M465.06,-514.78C443.18,-524.8 412.5,-538.41 385,-549 377.01,-552.08 368.43,-555.14 360.08,-557.99"/>
<polygon fill="#63b8ff" stroke="#63b8ff" points="466.53,-517.96 474.15,-510.59 463.6,-511.6 466.53,-517.96"/>
</a>
</g>
</g>
<!-- Node26 -->
<g id="Node000026" class="node">
<title>Node26</title>
<g id="a_Node000026"><a xlink:href="classMayaFlux_1_1Creator_a77f281127fea250a5f51c7ea96e6a562.html#a77f281127fea250a5f51c7ea96e6a562" target="_top" xlink:title=" ">
<polygon fill="white" stroke="#666666" points="368.5,-540 255.5,-540 255.5,-510 368.5,-510 368.5,-540"/>
<text text-anchor="start" x="263.5" y="-528" font-family="Helvetica,sans-Serif" font-size="10.00">MayaFlux::Creator::</text>
<text text-anchor="middle" x="312" y="-517" font-family="Helvetica,sans-Serif" font-size="10.00">load_mesh_buffers</text>
</a>
</g>
</g>
<!-- Node15&#45;&gt;Node26 -->
<g id="edge30_Node000015_Node000026" class="edge">
<title>Node15&#45;&gt;Node26</title>
<g id="a_edge30_Node000015_Node000026"><a xlink:title=" ">
<path fill="none" stroke="#63b8ff" d="M412.34,-511.86C397.56,-513.82 382.47,-515.81 368.66,-517.64"/>
<polygon fill="#63b8ff" stroke="#63b8ff" points="413.05,-515.3 422.51,-510.52 412.13,-508.36 413.05,-515.3"/>
</a>
</g>
</g>
<!-- Node27 -->
<g id="Node000027" class="node">
<title>Node27</title>
<g id="a_Node000027"><a xlink:href="classMayaFlux_1_1Creator_acbafcab8b5d5edaa62b033dd73d85b93.html#acbafcab8b5d5edaa62b033dd73d85b93" target="_top" xlink:title=" ">
<polygon fill="white" stroke="#666666" points="369.5,-492 254.5,-492 254.5,-462 369.5,-462 369.5,-492"/>
<text text-anchor="start" x="262.5" y="-480" font-family="Helvetica,sans-Serif" font-size="10.00">MayaFlux::Creator::</text>
<text text-anchor="middle" x="312" y="-469" font-family="Helvetica,sans-Serif" font-size="10.00">load_mesh_network</text>
</a>
</g>
</g>
<!-- Node15&#45;&gt;Node27 -->
<g id="edge31_Node000015_Node000027" class="edge">
<title>Node15&#45;&gt;Node27</title>
<g id="a_edge31_Node000015_Node000027"><a xlink:title=" ">
<path fill="none" stroke="#63b8ff" d="M412.51,-490.16C397.98,-488.24 383.14,-486.27 369.51,-484.47"/>
<polygon fill="#63b8ff" stroke="#63b8ff" points="412.13,-493.64 422.51,-491.48 413.05,-486.7 412.13,-493.64"/>
</a>
</g>
</g>
<!-- Node28 -->
<g id="Node000028" class="node">
<title>Node28</title>
<g id="a_Node000028"><a xlink:href="classMayaFlux_1_1Creator_ac3595091dadf34878aad6760080b7bbe.html#ac3595091dadf34878aad6760080b7bbe" target="_top" xlink:title=" ">
<polygon fill="white" stroke="#666666" points="373.5,-444 250.5,-444 250.5,-414 373.5,-414 373.5,-444"/>
<text text-anchor="start" x="258.5" y="-432" font-family="Helvetica,sans-Serif" font-size="10.00">MayaFlux::Creator::</text>
<text text-anchor="middle" x="312" y="-421" font-family="Helvetica,sans-Serif" font-size="10.00">load_sound_container</text>
</a>
</g>
</g>
<!-- Node15&#45;&gt;Node28 -->
<g id="edge32_Node000015_Node000028" class="edge">
<title>Node15&#45;&gt;Node28</title>
<g id="a_edge32_Node000015_Node000028"><a xlink:title=" ">
<path fill="none" stroke="#63b8ff" d="M465.06,-487.22C443.18,-477.2 412.5,-463.59 385,-453 377.01,-449.92 368.43,-446.86 360.08,-444.01"/>
<polygon fill="#63b8ff" stroke="#63b8ff" points="463.6,-490.4 474.15,-491.41 466.53,-484.04 463.6,-490.4"/>
</a>
</g>
</g>
<!-- Node29 -->
<g id="Node000029" class="node">
<title>Node29</title>
<g id="a_Node000029"><a xlink:href="namespaceMayaFlux_a9cc3e2fb1bbb15299ccc77dd059165c4.html#a9cc3e2fb1bbb15299ccc77dd059165c4" target="_top" xlink:title=" ">
<polygon fill="white" stroke="#666666" points="366,-284 258,-284 258,-254 366,-254 366,-284"/>
<text text-anchor="start" x="266" y="-272" font-family="Helvetica,sans-Serif" font-size="10.00">MayaFlux::register</text>
<text text-anchor="middle" x="312" y="-261" font-family="Helvetica,sans-Serif" font-size="10.00">_container</text>
</a>
</g>
</g>
<!-- Node15&#45;&gt;Node29 -->
<g id="edge33_Node000015_Node000029" class="edge">
<title>Node15&#45;&gt;Node29</title>
<g id="a_edge33_Node000015_Node000029"><a xlink:title=" ">
<path fill="none" stroke="#63b8ff" d="M489.41,-481.36C477.84,-440.57 445.76,-346.14 385,-294 379.48,-289.26 373,-285.4 366.24,-282.27"/>
<polygon fill="#63b8ff" stroke="#63b8ff" points="486.07,-482.43 492.08,-491.15 492.82,-480.58 486.07,-482.43"/>
</a>
</g>
</g>
<!-- Node31 -->
<g id="Node000031" class="node">
<title>Node31</title>
<g id="a_Node000031"><a xlink:href="namespaceMayaFlux_ab9750c87f5b8b7f043e16feb0fb22c98.html#ab9750c87f5b8b7f043e16feb0fb22c98" target="_top" xlink:title="Present a native save&#45;file dialog and write container to the chosen path via IOManager::write().">
<polygon fill="white" stroke="#666666" points="375,-395.5 249,-395.5 249,-376.5 375,-376.5 375,-395.5"/>
<text text-anchor="middle" x="312" y="-383.5" font-family="Helvetica,sans-Serif" font-size="10.00">MayaFlux::save_audio</text>
</a>
</g>
</g>
<!-- Node15&#45;&gt;Node31 -->
<g id="edge35_Node000015_Node000031" class="edge">
<title>Node15&#45;&gt;Node31</title>
<g id="a_edge35_Node000015_Node000031"><a xlink:title=" ">
<path fill="none" stroke="#63b8ff" d="M479.62,-483.76C460.06,-462.17 423.62,-425.55 385,-405 377.81,-401.17 369.8,-398.08 361.8,-395.59"/>
<polygon fill="#63b8ff" stroke="#63b8ff" points="477.23,-486.33 486.48,-491.49 482.46,-481.69 477.23,-486.33"/>
</a>
</g>
</g>
<!-- Node32 -->
<g id="Node000032" class="node">
<title>Node32</title>
<g id="a_Node000032"><a xlink:href="namespaceMayaFlux_ae1c8addb2adcbc6f147806d011c178bf.html#ae1c8addb2adcbc6f147806d011c178bf" target="_top" xlink:title="Present a native save&#45;file dialog filtered to image formats and save buffer to the chosen path via IO...">
<polygon fill="white" stroke="#666666" points="377,-358.5 247,-358.5 247,-339.5 377,-339.5 377,-358.5"/>
<text text-anchor="middle" x="312" y="-346.5" font-family="Helvetica,sans-Serif" font-size="10.00">MayaFlux::save_image</text>
</a>
</g>
</g>
<!-- Node15&#45;&gt;Node32 -->
<g id="edge36_Node000015_Node000032" class="edge">
<title>Node15&#45;&gt;Node32</title>
<g id="a_edge36_Node000015_Node000032"><a xlink:title=" ">
<path fill="none" stroke="#63b8ff" d="M484.43,-482.49C467.7,-453.52 431.38,-397.73 385,-368 378.9,-364.09 372.03,-360.99 365.01,-358.52"/>
<polygon fill="#63b8ff" stroke="#63b8ff" points="481.38,-484.21 489.34,-491.21 487.48,-480.78 481.38,-484.21"/>
</a>
</g>
</g>
<!-- Node33 -->
<g id="Node000033" class="node">
<title>Node33</title>
<g id="a_Node000033"><a xlink:href="namespaceMayaFlux_a389dccb14fa37e7dbbdf35d8d2af7fe2.html#a389dccb14fa37e7dbbdf35d8d2af7fe2" target="_top" xlink:title="Present a native save&#45;file dialog filtered to image formats and save buffer to the chosen path via IO...">
<polygon fill="white" stroke="#666666" points="377,-321.5 247,-321.5 247,-302.5 377,-302.5 377,-321.5"/>
<text text-anchor="middle" x="312" y="-309.5" font-family="Helvetica,sans-Serif" font-size="10.00">MayaFlux::save_image</text>
</a>
</g>
</g>
<!-- Node15&#45;&gt;Node33 -->
<g id="edge37_Node000015_Node000033" class="edge">
<title>Node15&#45;&gt;Node33</title>
<g id="a_edge37_Node000015_Node000033"><a xlink:title=" ">
<path fill="none" stroke="#63b8ff" d="M487.45,-481.43C473.58,-445.82 439.31,-370.46 385,-331 379.67,-327.12 373.6,-324.04 367.3,-321.58"/>
<polygon fill="#63b8ff" stroke="#63b8ff" points="484.3,-483 491.09,-491.12 490.85,-480.53 484.3,-483"/>
</a>
</g>
</g>
<!-- Node17 -->
<g id="Node000017" class="node">
<title>Node17</title>
<g id="a_Node000017"><a xlink:href="classMayaFlux_1_1Creator_a0bf7a0fff018d0f46f8ff2e62f2ead3d.html#a0bf7a0fff018d0f46f8ff2e62f2ead3d" target="_top" xlink:title=" ">
<polygon fill="white" stroke="#666666" points="158,-241 45,-241 45,-211 158,-211 158,-241"/>
<text text-anchor="start" x="53" y="-229" font-family="Helvetica,sans-Serif" font-size="10.00">MayaFlux::Creator::</text>
<text text-anchor="middle" x="101.5" y="-218" font-family="Helvetica,sans-Serif" font-size="10.00">read_audio</text>
</a>
</g>
</g>
<!-- Node16&#45;&gt;Node17 -->
<g id="edge19_Node000016_Node000017" class="edge">
<title>Node16&#45;&gt;Node17</title>
<g id="a_edge19_Node000016_Node000017"><a xlink:title=" ">
<path fill="none" stroke="#63b8ff" d="M233.13,-226C208.17,-226 181.05,-226 158.02,-226"/>
<polygon fill="#63b8ff" stroke="#63b8ff" points="233.31,-229.5 243.31,-226 233.31,-222.5 233.31,-229.5"/>
</a>
</g>
</g>
<!-- Node19 -->
<g id="Node000019" class="node">
<title>Node19</title>
<g id="a_Node000019"><a xlink:href="classMayaFlux_1_1Creator_a378ef0f88abe5494665b1b3eabb29e1d.html#a378ef0f88abe5494665b1b3eabb29e1d" target="_top" xlink:title=" ">
<polygon fill="white" stroke="#666666" points="158,-753 45,-753 45,-723 158,-723 158,-753"/>
<text text-anchor="start" x="53" y="-741" font-family="Helvetica,sans-Serif" font-size="10.00">MayaFlux::Creator::</text>
<text text-anchor="middle" x="101.5" y="-730" font-family="Helvetica,sans-Serif" font-size="10.00">read_image</text>
</a>
</g>
</g>
<!-- Node18&#45;&gt;Node19 -->
<g id="edge21_Node000018_Node000019" class="edge">
<title>Node18&#45;&gt;Node19</title>
<g id="a_edge21_Node000018_Node000019"><a xlink:title=" ">
<path fill="none" stroke="#63b8ff" d="M231.01,-738C206.75,-738 180.63,-738 158.32,-738"/>
<polygon fill="#63b8ff" stroke="#63b8ff" points="231.28,-741.5 241.28,-738 231.28,-734.5 231.28,-741.5"/>
</a>
</g>
</g>
<!-- Node21 -->
<g id="Node000021" class="node">
<title>Node21</title>
<g id="a_Node000021"><a xlink:href="classMayaFlux_1_1Creator_a8da68fc8f85e79c5b23268301130b011.html#a8da68fc8f85e79c5b23268301130b011" target="_top" xlink:title=" ">
<polygon fill="white" stroke="#666666" points="158,-705 45,-705 45,-675 158,-675 158,-705"/>
<text text-anchor="start" x="53" y="-693" font-family="Helvetica,sans-Serif" font-size="10.00">MayaFlux::Creator::</text>
<text text-anchor="middle" x="101.5" y="-682" font-family="Helvetica,sans-Serif" font-size="10.00">read_mesh</text>
</a>
</g>
</g>
<!-- Node20&#45;&gt;Node21 -->
<g id="edge23_Node000020_Node000021" class="edge">
<title>Node20&#45;&gt;Node21</title>
<g id="a_edge23_Node000020_Node000021"><a xlink:title=" ">
<path fill="none" stroke="#63b8ff" d="M233.13,-696.89C208.17,-695.57 181.05,-694.14 158.02,-692.93"/>
<polygon fill="#63b8ff" stroke="#63b8ff" points="233.14,-700.4 243.31,-697.43 233.5,-693.41 233.14,-700.4"/>
</a>
</g>
</g>
<!-- Node23 -->
<g id="Node000023" class="node">
<title>Node23</title>
<g id="a_Node000023"><a xlink:href="classMayaFlux_1_1Creator_a916847654e5a7c9035c3e07f4b3b5953.html#a916847654e5a7c9035c3e07f4b3b5953" target="_top" xlink:title=" ">
<polygon fill="white" stroke="#666666" points="159.5,-636 43.5,-636 43.5,-606 159.5,-606 159.5,-636"/>
<text text-anchor="start" x="51.5" y="-624" font-family="Helvetica,sans-Serif" font-size="10.00">MayaFlux::Creator::</text>
<text text-anchor="middle" x="101.5" y="-613" font-family="Helvetica,sans-Serif" font-size="10.00">read_mesh_network</text>
</a>
</g>
</g>
<!-- Node22&#45;&gt;Node23 -->
<g id="edge25_Node000022_Node000023" class="edge">
<title>Node22&#45;&gt;Node23</title>
<g id="a_edge25_Node000022_Node000023"><a xlink:title=" ">
<path fill="none" stroke="#63b8ff" d="M233.03,-621C208.71,-621 182.35,-621 159.72,-621"/>
<polygon fill="#63b8ff" stroke="#63b8ff" points="233.31,-624.5 243.31,-621 233.31,-617.5 233.31,-624.5"/>
</a>
</g>
</g>
<!-- Node30 -->
<g id="Node000030" class="node">
<title>Node30</title>
<g id="a_Node000030"><a xlink:href="namespaceMayaFlux_a7f14af2dfe49baed8dd4aea79974e62a.html#a7f14af2dfe49baed8dd4aea79974e62a" target="_top" xlink:title=" ">
<polygon fill="white" stroke="#666666" points="159,-278.5 44,-278.5 44,-259.5 159,-259.5 159,-278.5"/>
<text text-anchor="middle" x="101.5" y="-266.5" font-family="Helvetica,sans-Serif" font-size="10.00">MayaFlux::operator|</text>
</a>
</g>
</g>
<!-- Node29&#45;&gt;Node30 -->
<g id="edge34_Node000029_Node000030" class="edge">
<title>Node29&#45;&gt;Node30</title>
<g id="a_edge34_Node000029_Node000030"><a xlink:title=" ">
<path fill="none" stroke="#63b8ff" d="M247.7,-269C219.51,-269 186.58,-269 159.21,-269"/>
<polygon fill="#63b8ff" stroke="#63b8ff" points="247.85,-272.5 257.85,-269 247.85,-265.5 247.85,-272.5"/>
</a>
</g>
</g>
</g>
</svg>

<g id="navigator" transform="translate(0 0)" fill="#404254">
  <rect fill="#f2f5e9" fill-opacity="0.5" stroke="#606060" stroke-width=".5" x="0" y="0" width="60" height="60"/>
  <use id="zoomplus" xlink:href="#zoomPlus" x="17" y="9" onmousedown="handleZoom(evt,'in')"/>
  <use id="zoomminus" xlink:href="#zoomMin" x="42" y="9" onmousedown="handleZoom(evt,'out')"/>
  <use id="reset" xlink:href="#resetDef" x="30" y="36" onmousedown="handleReset()"/>
   <use id="arrowup" xlink:href="#arrowUp" x="0" y="0" onmousedown="handlePan(0,-1)"/>
  <use id="arrowright" xlink:href="#arrowRight" x="0" y="0" onmousedown="handlePan(1,0)"/>
  <use id="arrowdown" xlink:href="#arrowDown" x="0" y="0" onmousedown="handlePan(0,1)"/>
  <use id="arrowleft" xlink:href="#arrowLeft" x="0" y="0" onmousedown="handlePan(-1,0)"/>
</g>
<svg viewBox="0 0 15 15" width="100%" height="30px" preserveAspectRatio="xMaxYMin meet">
 <g id="arrow_out" transform="scale(0.3 0.3)">
  <a xlink:href="namespaceMayaFlux_a3fa338038ee2158c0084bf4cd10c0ef2_a3fa338038ee2158c0084bf4cd10c0ef2_icgraph_org.svg" target="_base">
   <rect id="button" ry="5" rx="5" y="6" x="6" height="38" width="38"
        fill="#f2f5e9" fill-opacity="0.5" stroke="#606060" stroke-width="1.0"/>
   <path id="arrow"
     d="M 11.500037,31.436501 C 11.940474,20.09759 22.043105,11.32322 32.158766,21.979434 L 37.068811,17.246167 C 37.068811,17.246167 37.088388,32 37.088388,32 L 22.160133,31.978069 C 22.160133,31.978069 26.997745,27.140456 26.997745,27.140456 C 18.528582,18.264221 13.291696,25.230495 11.500037,31.436501 z"
     style="fill:#404040;"/>
  </a>
 </g>
</svg>

<style type='text/css'>
<![CDATA[
[data-mouse-over-selected='false'] { opacity: 0.7; }
[data-mouse-over-selected='true']  { opacity: 1.0; }
]]>
</style>
<script type="application/ecmascript"><![CDATA[
document.addEventListener('DOMContentLoaded', (event) => {
  highlightEdges();
  highlightAdjacentNodes();
});
]]></script>
</svg>
