<?xml version="1.0" encoding="UTF-8" standalone="no"?>
<!DOCTYPE svg PUBLIC "-//W3C//DTD SVG 1.1//EN"
 "http://www.w3.org/Graphics/SVG/1.1/DTD/svg11.dtd">
<!-- Generated by graphviz version 2.43.0 (0)
 -->
<!-- Title: MayaFlux::Kakshya::as_normalised_float Pages: 1 -->
<svg width="553pt" height="205pt"
 viewBox="0.00 0.00 553.00 204.50" xmlns="http://www.w3.org/2000/svg" xmlns:xlink="http://www.w3.org/1999/xlink">
<g id="graph0" class="graph" transform="scale(1 1) rotate(0) translate(4 200.5)">
<title>MayaFlux::Kakshya::as_normalised_float</title>
<!-- Node1 -->
<g id="Node000001" class="node">
<title>Node1</title>
<g id="a_Node000001"><a xlink:title="Extract a DataVariant holding pixel data as a normalised float span.">
<polygon fill="#999999" stroke="#666666" points="545,-121.5 426,-121.5 426,-91.5 545,-91.5 545,-121.5"/>
<text text-anchor="start" x="434" y="-109.5" font-family="Helvetica,sans-Serif" font-size="10.00">MayaFlux::Kakshya::</text>
<text text-anchor="middle" x="485.5" y="-98.5" font-family="Helvetica,sans-Serif" font-size="10.00">as_normalised_float</text>
</a>
</g>
</g>
<!-- Node2 -->
<g id="Node000002" class="node">
<title>Node2</title>
<g id="a_Node000002"><a xlink:href="classMayaFlux_1_1Yantra_1_1VisionAnalyzer_a6894626eb161191d2811f594d04914bd.html#a6894626eb161191d2811f594d04914bd" target="_top" xlink:title="Pure virtual analysis implementation &#45; derived classes implement this.">
<polygon fill="white" stroke="#666666" points="390,-196.5 203,-196.5 203,-166.5 390,-166.5 390,-196.5"/>
<text text-anchor="start" x="211" y="-184.5" font-family="Helvetica,sans-Serif" font-size="10.00">MayaFlux::Yantra::Vision</text>
<text text-anchor="middle" x="296.5" y="-173.5" font-family="Helvetica,sans-Serif" font-size="10.00">Analyzer::analyze_implementation</text>
</a>
</g>
</g>
<!-- Node1&#45;&gt;Node2 -->
<g id="edge1_Node000001_Node000002" class="edge">
<title>Node1&#45;&gt;Node2</title>
<g id="a_edge1_Node000001_Node000002"><a xlink:title=" ">
<path fill="none" stroke="#63b8ff" d="M451.6,-126.8C433.85,-137.09 411.28,-149.14 390,-157.5 381.66,-160.78 372.73,-163.74 363.81,-166.37"/>
<polygon fill="#63b8ff" stroke="#63b8ff" points="453.57,-129.7 460.41,-121.61 450.02,-123.67 453.57,-129.7"/>
</a>
</g>
</g>
<!-- Node3 -->
<g id="Node000003" class="node">
<title>Node3</title>
<g id="a_Node000003"><a xlink:href="namespaceMayaFlux_1_1Buffers_a5388bfa76cc5244415f1f3a85e936ab0.html#a5388bfa76cc5244415f1f3a85e936ab0" target="_top" xlink:title="Download a VKImage to CPU and return a normalised float span.">
<polygon fill="white" stroke="#666666" points="367,-148.5 226,-148.5 226,-118.5 367,-118.5 367,-148.5"/>
<text text-anchor="start" x="234" y="-136.5" font-family="Helvetica,sans-Serif" font-size="10.00">MayaFlux::Buffers::</text>
<text text-anchor="middle" x="296.5" y="-125.5" font-family="Helvetica,sans-Serif" font-size="10.00">download_and_normalise</text>
</a>
</g>
</g>
<!-- Node1&#45;&gt;Node3 -->
<g id="edge2_Node000001_Node000003" class="edge">
<title>Node1&#45;&gt;Node3</title>
<g id="a_edge2_Node000001_Node000003"><a xlink:title=" ">
<path fill="none" stroke="#63b8ff" d="M415.61,-116.45C399.78,-118.73 382.94,-121.16 367.08,-123.45"/>
<polygon fill="#63b8ff" stroke="#63b8ff" points="416.45,-119.86 425.85,-114.97 415.45,-112.93 416.45,-119.86"/>
</a>
</g>
</g>
<!-- Node5 -->
<g id="Node000005" class="node">
<title>Node5</title>
<g id="a_Node000005"><a xlink:href="classMayaFlux_1_1Kakshya_1_1WindowContainer_ac15d6a35a7deb9165fa2d8ef52655510.html#ac15d6a35a7deb9165fa2d8ef52655510" target="_top" xlink:title="processed_data[frame_index] as a normalised float span.">
<polygon fill="white" stroke="#666666" points="375.5,-100 217.5,-100 217.5,-59 375.5,-59 375.5,-100"/>
<text text-anchor="start" x="225.5" y="-88" font-family="Helvetica,sans-Serif" font-size="10.00">MayaFlux::Kakshya::</text>
<text text-anchor="start" x="225.5" y="-77" font-family="Helvetica,sans-Serif" font-size="10.00">WindowContainer::processed</text>
<text text-anchor="middle" x="296.5" y="-66" font-family="Helvetica,sans-Serif" font-size="10.00">_frame_as_float</text>
</a>
</g>
</g>
<!-- Node1&#45;&gt;Node5 -->
<g id="edge4_Node000001_Node000005" class="edge">
<title>Node1&#45;&gt;Node5</title>
<g id="a_edge4_Node000001_Node000005"><a xlink:title=" ">
<path fill="none" stroke="#63b8ff" d="M415.63,-96.56C402.68,-94.69 389.05,-92.72 375.84,-90.81"/>
<polygon fill="#63b8ff" stroke="#63b8ff" points="415.45,-100.07 425.85,-98.03 416.45,-93.14 415.45,-100.07"/>
</a>
</g>
</g>
<!-- Node6 -->
<g id="Node000006" class="node">
<title>Node6</title>
<g id="a_Node000006"><a xlink:href="classMayaFlux_1_1Kakshya_1_1VideoStreamContainer_a8a10f89d52a123f1476faa9c76c52a25.html#a8a10f89d52a123f1476faa9c76c52a25" target="_top" xlink:title="Processed frame at frame_index as a normalised float span.">
<polygon fill="white" stroke="#666666" points="371.5,-41 221.5,-41 221.5,0 371.5,0 371.5,-41"/>
<text text-anchor="start" x="229.5" y="-29" font-family="Helvetica,sans-Serif" font-size="10.00">MayaFlux::Kakshya::</text>
<text text-anchor="start" x="229.5" y="-18" font-family="Helvetica,sans-Serif" font-size="10.00">VideoStreamContainer</text>
<text text-anchor="middle" x="296.5" y="-7" font-family="Helvetica,sans-Serif" font-size="10.00">::processed_frame_as_float</text>
</a>
</g>
</g>
<!-- Node1&#45;&gt;Node6 -->
<g id="edge5_Node000001_Node000006" class="edge">
<title>Node1&#45;&gt;Node6</title>
<g id="a_edge5_Node000001_Node000006"><a xlink:title=" ">
<path fill="none" stroke="#63b8ff" d="M453.46,-85.74C435.46,-74.3 412.05,-60.46 390,-50.5 382.61,-47.16 374.75,-44.02 366.84,-41.12"/>
<polygon fill="#63b8ff" stroke="#63b8ff" points="452.04,-88.99 462.35,-91.46 455.83,-83.1 452.04,-88.99"/>
</a>
</g>
</g>
<!-- Node4 -->
<g id="Node000004" class="node">
<title>Node4</title>
<g id="a_Node000004"><a xlink:href="classMayaFlux_1_1Buffers_1_1ImageCVProcessor_a03dd11926b797b52ccbdfa37c2b5e4e1.html#a03dd11926b797b52ccbdfa37c2b5e4e1" target="_top" xlink:title="Download the current GPU image, run the VisionSequence, store the result.">
<polygon fill="white" stroke="#666666" points="167,-154 0,-154 0,-113 167,-113 167,-154"/>
<text text-anchor="start" x="8" y="-142" font-family="Helvetica,sans-Serif" font-size="10.00">MayaFlux::Buffers::</text>
<text text-anchor="start" x="8" y="-131" font-family="Helvetica,sans-Serif" font-size="10.00">ImageCVProcessor::processing</text>
<text text-anchor="middle" x="83.5" y="-120" font-family="Helvetica,sans-Serif" font-size="10.00">_function</text>
</a>
</g>
</g>
<!-- Node3&#45;&gt;Node4 -->
<g id="edge3_Node000003_Node000004" class="edge">
<title>Node3&#45;&gt;Node4</title>
<g id="a_edge3_Node000003_Node000004"><a xlink:title=" ">
<path fill="none" stroke="#63b8ff" d="M215.58,-133.5C199.79,-133.5 183.19,-133.5 167.3,-133.5"/>
<polygon fill="#63b8ff" stroke="#63b8ff" points="215.83,-137 225.83,-133.5 215.83,-130 215.83,-137"/>
</a>
</g>
</g>
</g>
</svg>
