<?xml version="1.0" encoding="UTF-8" standalone="no"?>
<!DOCTYPE svg PUBLIC "-//W3C//DTD SVG 1.1//EN"
 "http://www.w3.org/Graphics/SVG/1.1/DTD/svg11.dtd">
<!-- Generated by graphviz version 2.43.0 (0)
 -->
<!-- Title: MayaFlux::create_buffer_pipeline Pages: 1 -->
<!--zoomable 172 -->

<svg id="main" version="1.1" xmlns="http://www.w3.org/2000/svg" xmlns:xlink="http://www.w3.org/1999/xlink" xml:space="preserve" onload="init(evt)">
<style type="text/css"><![CDATA[
.node, .edge {opacity: 0.7;}
.node.selected, .edge.selected {opacity: 1;}
.edge:hover path { stroke: red; }
.edge:hover polygon { stroke: red; fill: red; }
]]></style>

<defs>
  <circle id="rim" cx="0" cy="0" r="7"/>
  <circle id="rim2" cx="0" cy="0" r="3.5"/>
  <g id="zoomPlus">
    <use xlink:href="#rim" fill="#404040"><set attributeName="fill" to="#808080" begin="zoomplus.mouseover" end="zoomplus.mouseout"/></use>
    <path d="M-4,0h8M0,-4v8" fill="none" stroke="white" stroke-width="1.5" pointer-events="none"/>
  </g>
  <g id="zoomMin">
    <use xlink:href="#rim" fill="#404040"><set attributeName="fill" to="#808080" begin="zoomminus.mouseover" end="zoomminus.mouseout"/></use>
    <path d="M-4,0h8" fill="none" stroke="white" stroke-width="1.5" pointer-events="none"/>
  </g>
  <g id="arrowUp" transform="translate(30 24)">
    <use xlink:href="#rim"/>
    <path pointer-events="none" fill="none" stroke="white" stroke-width="1.5" d="M0,-3.0v7 M-2.5,-0.5L0,-3.0L2.5,-0.5"/>
  </g>
  <g id="arrowRight" transform="rotate(90) translate(36 -43)">
    <use xlink:href="#rim"/>
    <path pointer-events="none" fill="none" stroke="white" stroke-width="1.5" d="M0,-3.0v7 M-2.5,-0.5L0,-3.0L2.5,-0.5"/>
  </g>
  <g id="arrowDown" transform="rotate(180) translate(-30 -48)">
    <use xlink:href="#rim"/>
    <path pointer-events="none" fill="none" stroke="white" stroke-width="1.5" d="M0,-3.0v7 M-2.5,-0.5L0,-3.0L2.5,-0.5"/>
  </g>
  <g id="arrowLeft" transform="rotate(270) translate(-36 17)">
    <use xlink:href="#rim"/>
    <path pointer-events="none" fill="none" stroke="white" stroke-width="1.5" d="M0,-3.0v7 M-2.5,-0.5L0,-3.0L2.5,-0.5"/>
  </g>
  <g id="resetDef">
    <use xlink:href="#rim2" fill="#404040"><set attributeName="fill" to="#808080" begin="reset.mouseover" end="reset.mouseout"/></use>
  </g>
</defs>
<script type="application/ecmascript">
var viewWidth = 1152;
var viewHeight = 172;
var sectionId = 'dynsection-0';
</script>
<script type="application/ecmascript" xlink:href="svg.min.js"/>
<svg id="graph" class="graph">
<g id="viewport">
<title>MayaFlux::create_buffer_pipeline</title>
<!-- Node1 -->
<g id="Node000001" class="node">
<title>Node1</title>
<g id="a_Node000001"><a xlink:title="Creates a new buffer pipeline instance.">
<polygon fill="#999999" stroke="#666666" points="135,-94 0,-94 0,-64 135,-64 135,-94"/>
<text text-anchor="start" x="8" y="-82" font-family="Helvetica,sans-Serif" font-size="10.00">MayaFlux::create_buffer</text>
<text text-anchor="middle" x="67.5" y="-71" font-family="Helvetica,sans-Serif" font-size="10.00">_pipeline</text>
</a>
</g>
</g>
<!-- Node2 -->
<g id="Node000002" class="node">
<title>Node2</title>
<g id="a_Node000002"><a xlink:href="classMayaFlux_1_1Kriya_1_1BufferPipeline_ac25f9b515b559110e8fba1964809de0a.html#ac25f9b515b559110e8fba1964809de0a" target="_top" xlink:title=" ">
<polygon fill="white" stroke="#666666" points="341,-164 171,-164 171,-134 341,-134 341,-164"/>
<text text-anchor="start" x="179" y="-152" font-family="Helvetica,sans-Serif" font-size="10.00">MayaFlux::Kriya::BufferPipeline</text>
<text text-anchor="middle" x="256" y="-141" font-family="Helvetica,sans-Serif" font-size="10.00">::create</text>
</a>
</g>
</g>
<!-- Node1&#45;&gt;Node2 -->
<g id="edge1_Node000001_Node000002" class="edge">
<title>Node1&#45;&gt;Node2</title>
<g id="a_edge1_Node000001_Node000002"><a xlink:title=" ">
<path fill="none" stroke="#63b8ff" d="M98.97,-94.06C119.11,-103.67 146.27,-115.97 171,-125 176.57,-127.03 182.39,-129 188.27,-130.89"/>
<polygon fill="#63b8ff" stroke="#63b8ff" points="187.57,-134.34 198.16,-133.96 189.65,-127.65 187.57,-134.34"/>
</a>
</g>
</g>
<!-- Node3 -->
<g id="Node000003" class="node">
<title>Node3</title>
<g id="a_Node000003"><a xlink:href="namespaceMayaFlux_ab62f030499d58eb3e1d5c43ca3bc230e.html#ab62f030499d58eb3e1d5c43ca3bc230e" target="_top" xlink:title="Gets the buffer manager from the default engine.">
<polygon fill="white" stroke="#666666" points="316,-116 196,-116 196,-86 316,-86 316,-116"/>
<text text-anchor="start" x="204" y="-104" font-family="Helvetica,sans-Serif" font-size="10.00">MayaFlux::get_buffer</text>
<text text-anchor="middle" x="256" y="-93" font-family="Helvetica,sans-Serif" font-size="10.00">_manager</text>
</a>
</g>
</g>
<!-- Node1&#45;&gt;Node3 -->
<g id="edge2_Node000001_Node000003" class="edge">
<title>Node1&#45;&gt;Node3</title>
<g id="a_edge2_Node000001_Node000003"><a xlink:title=" ">
<path fill="none" stroke="#63b8ff" d="M135.04,-86.85C151.5,-88.79 169.17,-90.88 185.76,-92.83"/>
<polygon fill="#63b8ff" stroke="#63b8ff" points="185.58,-96.34 195.92,-94.03 186.4,-89.38 185.58,-96.34"/>
</a>
</g>
</g>
<!-- Node5 -->
<g id="Node000005" class="node">
<title>Node5</title>
<g id="a_Node000005"><a xlink:href="namespaceMayaFlux_ac4ab74951370ff0dd899203f3b94c775.html#ac4ab74951370ff0dd899203f3b94c775" target="_top" xlink:title="Gets the default engine instance.">
<polygon fill="white" stroke="#666666" points="507,-67.5 379,-67.5 379,-48.5 507,-48.5 507,-67.5"/>
<text text-anchor="middle" x="443" y="-55.5" font-family="Helvetica,sans-Serif" font-size="10.00">MayaFlux::get_context</text>
</a>
</g>
</g>
<!-- Node1&#45;&gt;Node5 -->
<g id="edge11_Node000001_Node000005" class="edge">
<title>Node1&#45;&gt;Node5</title>
<g id="a_edge11_Node000001_Node000005"><a xlink:title=" ">
<path fill="none" stroke="#63b8ff" d="M135.27,-75.25C200.94,-71.55 300.92,-65.93 368.73,-62.12"/>
<polygon fill="#63b8ff" stroke="#63b8ff" points="369.13,-65.6 378.91,-61.55 368.73,-58.61 369.13,-65.6"/>
</a>
</g>
</g>
<!-- Node12 -->
<g id="Node000012" class="node">
<title>Node12</title>
<g id="a_Node000012"><a xlink:href="namespaceMayaFlux_aebfa66114d29585723a0c38dfe4c75b9.html#aebfa66114d29585723a0c38dfe4c75b9" target="_top" xlink:title="Gets the task scheduler from the default engine.">
<polygon fill="white" stroke="#666666" points="325.5,-29.5 186.5,-29.5 186.5,-10.5 325.5,-10.5 325.5,-29.5"/>
<text text-anchor="middle" x="256" y="-17.5" font-family="Helvetica,sans-Serif" font-size="10.00">MayaFlux::get_scheduler</text>
</a>
</g>
</g>
<!-- Node1&#45;&gt;Node12 -->
<g id="edge12_Node000001_Node000012" class="edge">
<title>Node1&#45;&gt;Node12</title>
<g id="a_edge12_Node000001_Node000012"><a xlink:title=" ">
<path fill="none" stroke="#63b8ff" d="M111.23,-63.87C129.56,-57.52 151.26,-50.19 171,-44 183.68,-40.03 197.51,-35.96 210.23,-32.34"/>
<polygon fill="#63b8ff" stroke="#63b8ff" points="211.47,-35.62 220.14,-29.53 209.57,-28.89 211.47,-35.62"/>
</a>
</g>
</g>
<!-- Node4 -->
<g id="Node000004" class="node">
<title>Node4</title>
<g id="a_Node000004"><a xlink:href="classMayaFlux_1_1Core_1_1Engine_ae91ca2d8b17039d5aab98e53258bb777.html#ae91ca2d8b17039d5aab98e53258bb777" target="_top" xlink:title="Gets the buffer manager.">
<polygon fill="white" stroke="#666666" points="509,-116 377,-116 377,-86 509,-86 509,-116"/>
<text text-anchor="start" x="385" y="-104" font-family="Helvetica,sans-Serif" font-size="10.00">MayaFlux::Core::Engine</text>
<text text-anchor="middle" x="443" y="-93" font-family="Helvetica,sans-Serif" font-size="10.00">::get_buffer_manager</text>
</a>
</g>
</g>
<!-- Node3&#45;&gt;Node4 -->
<g id="edge3_Node000003_Node000004" class="edge">
<title>Node3&#45;&gt;Node4</title>
<g id="a_edge3_Node000003_Node000004"><a xlink:title=" ">
<path fill="none" stroke="#63b8ff" d="M316.04,-101C332.07,-101 349.64,-101 366.44,-101"/>
<polygon fill="#63b8ff" stroke="#63b8ff" points="366.79,-104.5 376.79,-101 366.79,-97.5 366.79,-104.5"/>
</a>
</g>
</g>
<!-- Node3&#45;&gt;Node5 -->
<g id="edge4_Node000003_Node000005" class="edge">
<title>Node3&#45;&gt;Node5</title>
<g id="a_edge4_Node000003_Node000005"><a xlink:title=" ">
<path fill="none" stroke="#63b8ff" d="M316.04,-87.28C340.18,-81.67 367.82,-75.24 391.05,-69.84"/>
<polygon fill="#63b8ff" stroke="#63b8ff" points="392.1,-73.19 401.05,-67.52 390.52,-66.37 392.1,-73.19"/>
</a>
</g>
</g>
<!-- Node6 -->
<g id="Node000006" class="node">
<title>Node6</title>
<g id="a_Node000006"><a xlink:href="namespaceMayaFlux_1_1internal_ac0f0b4b1cae6af4441db0ea022e15583.html#ac0f0b4b1cae6af4441db0ea022e15583" target="_top" xlink:title=" ">
<polygon fill="white" stroke="#666666" points="673,-73 545,-73 545,-43 673,-43 673,-73"/>
<text text-anchor="start" x="553" y="-61" font-family="Helvetica,sans-Serif" font-size="10.00">MayaFlux::internal</text>
<text text-anchor="middle" x="609" y="-50" font-family="Helvetica,sans-Serif" font-size="10.00">::get_or_create_engine</text>
</a>
</g>
</g>
<!-- Node5&#45;&gt;Node6 -->
<g id="edge5_Node000005_Node000006" class="edge">
<title>Node5&#45;&gt;Node6</title>
<g id="a_edge5_Node000005_Node000006"><a xlink:title=" ">
<path fill="none" stroke="#63b8ff" d="M507.41,-58C516.31,-58 525.53,-58 534.6,-58"/>
<polygon fill="#63b8ff" stroke="#63b8ff" points="534.76,-61.5 544.76,-58 534.76,-54.5 534.76,-61.5"/>
</a>
</g>
</g>
<!-- Node7 -->
<g id="Node000007" class="node">
<title>Node7</title>
<g id="a_Node000007"><a xlink:href="namespaceMayaFlux_1_1internal_a3cc5413e05c2f9c9f04372841aa0a5b1.html#a3cc5413e05c2f9c9f04372841aa0a5b1" target="_top" xlink:title=" ">
<polygon fill="white" stroke="#666666" points="817,-73 709,-73 709,-43 817,-43 817,-73"/>
<text text-anchor="start" x="717" y="-61" font-family="Helvetica,sans-Serif" font-size="10.00">MayaFlux::internal</text>
<text text-anchor="middle" x="763" y="-50" font-family="Helvetica,sans-Serif" font-size="10.00">::cleanup_engine</text>
</a>
</g>
</g>
<!-- Node6&#45;&gt;Node7 -->
<g id="edge6_Node000006_Node000007" class="edge">
<title>Node6&#45;&gt;Node7</title>
<g id="a_edge6_Node000006_Node000007"><a xlink:title=" ">
<path fill="none" stroke="#63b8ff" d="M673.14,-58C681.61,-58 690.29,-58 698.76,-58"/>
<polygon fill="#63b8ff" stroke="#63b8ff" points="698.95,-61.5 708.95,-58 698.95,-54.5 698.95,-61.5"/>
</a>
</g>
</g>
<!-- Node8 -->
<g id="Node000008" class="node">
<title>Node8</title>
<g id="a_Node000008"><a xlink:href="namespaceMayaFlux_1_1internal_ac4d6952d58cdfd56964a883d40aa655d.html#ac4d6952d58cdfd56964a883d40aa655d" target="_top" xlink:title=" ">
<polygon fill="white" stroke="#666666" points="998,-97 853,-97 853,-67 998,-67 998,-97"/>
<text text-anchor="start" x="861" y="-85" font-family="Helvetica,sans-Serif" font-size="10.00">MayaFlux::internal</text>
<text text-anchor="middle" x="925.5" y="-74" font-family="Helvetica,sans-Serif" font-size="10.00">::cleanup_persistent_store</text>
</a>
</g>
</g>
<!-- Node7&#45;&gt;Node8 -->
<g id="edge7_Node000007_Node000008" class="edge">
<title>Node7&#45;&gt;Node8</title>
<g id="a_edge7_Node000007_Node000008"><a xlink:title=" ">
<path fill="none" stroke="#63b8ff" d="M817.44,-65.99C825.57,-67.21 834.11,-68.48 842.68,-69.77"/>
<polygon fill="#63b8ff" stroke="#63b8ff" points="842.31,-73.25 852.72,-71.27 843.35,-66.33 842.31,-73.25"/>
</a>
</g>
</g>
<!-- Node10 -->
<g id="Node000010" class="node">
<title>Node10</title>
<g id="a_Node000010"><a xlink:href="classMayaFlux_1_1Journal_1_1Archivist_a82e2d12db8781df4afc43ef4c1fba2be.html#a82e2d12db8781df4afc43ef4c1fba2be" target="_top" xlink:title="Shutdown the logging system.">
<polygon fill="white" stroke="#666666" points="982,-49 869,-49 869,-19 982,-19 982,-49"/>
<text text-anchor="start" x="877" y="-37" font-family="Helvetica,sans-Serif" font-size="10.00">MayaFlux::Journal::</text>
<text text-anchor="middle" x="925.5" y="-26" font-family="Helvetica,sans-Serif" font-size="10.00">Archivist::shutdown</text>
</a>
</g>
</g>
<!-- Node7&#45;&gt;Node10 -->
<g id="edge9_Node000007_Node000010" class="edge">
<title>Node7&#45;&gt;Node10</title>
<g id="a_edge9_Node000007_Node000010"><a xlink:title=" ">
<path fill="none" stroke="#63b8ff" d="M817.44,-50.01C830.73,-48.02 845.11,-45.87 858.91,-43.81"/>
<polygon fill="#63b8ff" stroke="#63b8ff" points="859.44,-47.27 868.82,-42.33 858.41,-40.34 859.44,-47.27"/>
</a>
</g>
</g>
<!-- Node9 -->
<g id="Node000009" class="node">
<title>Node9</title>
<g id="a_Node000009"><a xlink:href="namespaceMayaFlux_1_1internal_ac26a7a92aa4af34c366aad03b68ea71e.html#ac26a7a92aa4af34c366aad03b68ea71e" target="_top" xlink:title=" ">
<polygon fill="white" stroke="#666666" points="1143,-97 1035,-97 1035,-67 1143,-67 1143,-97"/>
<text text-anchor="start" x="1043" y="-85" font-family="Helvetica,sans-Serif" font-size="10.00">MayaFlux::internal</text>
<text text-anchor="middle" x="1089" y="-74" font-family="Helvetica,sans-Serif" font-size="10.00">::persistent_store</text>
</a>
</g>
</g>
<!-- Node8&#45;&gt;Node9 -->
<g id="edge8_Node000008_Node000009" class="edge">
<title>Node8&#45;&gt;Node9</title>
<g id="a_edge8_Node000008_Node000009"><a xlink:title=" ">
<path fill="none" stroke="#63b8ff" d="M998.28,-82C1007.12,-82 1016.1,-82 1024.8,-82"/>
<polygon fill="#63b8ff" stroke="#63b8ff" points="1024.86,-85.5 1034.86,-82 1024.86,-78.5 1024.86,-85.5"/>
</a>
</g>
</g>
<!-- Node11 -->
<g id="Node000011" class="node">
<title>Node11</title>
<g id="a_Node000011"><a xlink:href="classMayaFlux_1_1Journal_1_1Archivist_a8b7829e34d79ec5bbbf02e3d4afbdab9.html#a8b7829e34d79ec5bbbf02e3d4afbdab9" target="_top" xlink:title="Get the singleton instance of the Archivist.">
<polygon fill="white" stroke="#666666" points="1144,-49 1034,-49 1034,-19 1144,-19 1144,-49"/>
<text text-anchor="start" x="1042" y="-37" font-family="Helvetica,sans-Serif" font-size="10.00">MayaFlux::Journal::</text>
<text text-anchor="middle" x="1089" y="-26" font-family="Helvetica,sans-Serif" font-size="10.00">Archivist::instance</text>
</a>
</g>
</g>
<!-- Node10&#45;&gt;Node11 -->
<g id="edge10_Node000010_Node000011" class="edge">
<title>Node10&#45;&gt;Node11</title>
<g id="a_edge10_Node000010_Node000011"><a xlink:title=" ">
<path fill="none" stroke="#63b8ff" d="M982.08,-34C995.46,-34 1009.86,-34 1023.6,-34"/>
<polygon fill="#63b8ff" stroke="#63b8ff" points="1023.96,-37.5 1033.96,-34 1023.96,-30.5 1023.96,-37.5"/>
</a>
</g>
</g>
<!-- Node12&#45;&gt;Node5 -->
<g id="edge13_Node000012_Node000005" class="edge">
<title>Node12&#45;&gt;Node5</title>
<g id="a_edge13_Node000012_Node000005"><a xlink:title=" ">
<path fill="none" stroke="#63b8ff" d="M303.68,-29.59C328.65,-34.72 359.56,-41.07 385.83,-46.46"/>
<polygon fill="#63b8ff" stroke="#63b8ff" points="385.15,-49.9 395.65,-48.48 386.56,-43.04 385.15,-49.9"/>
</a>
</g>
</g>
<!-- Node13 -->
<g id="Node000013" class="node">
<title>Node13</title>
<g id="a_Node000013"><a xlink:href="classMayaFlux_1_1Core_1_1Engine_ae1a29a6547fe253fbb389413040276d2.html#ae1a29a6547fe253fbb389413040276d2" target="_top" xlink:title="Gets the task scheduler.">
<polygon fill="white" stroke="#666666" points="509,-30 377,-30 377,0 509,0 509,-30"/>
<text text-anchor="start" x="385" y="-18" font-family="Helvetica,sans-Serif" font-size="10.00">MayaFlux::Core::Engine</text>
<text text-anchor="middle" x="443" y="-7" font-family="Helvetica,sans-Serif" font-size="10.00">::get_scheduler</text>
</a>
</g>
</g>
<!-- Node12&#45;&gt;Node13 -->
<g id="edge14_Node000012_Node000013" class="edge">
<title>Node12&#45;&gt;Node13</title>
<g id="a_edge14_Node000012_Node000013"><a xlink:title=" ">
<path fill="none" stroke="#63b8ff" d="M325.62,-18.15C338.98,-17.78 353.05,-17.4 366.61,-17.04"/>
<polygon fill="#63b8ff" stroke="#63b8ff" points="366.96,-20.53 376.86,-16.76 366.77,-13.53 366.96,-20.53"/>
</a>
</g>
</g>
</g>
</svg>

<g id="navigator" transform="translate(0 0)" fill="#404254">
  <rect fill="#f2f5e9" fill-opacity="0.5" stroke="#606060" stroke-width=".5" x="0" y="0" width="60" height="60"/>
  <use id="zoomplus" xlink:href="#zoomPlus" x="17" y="9" onmousedown="handleZoom(evt,'in')"/>
  <use id="zoomminus" xlink:href="#zoomMin" x="42" y="9" onmousedown="handleZoom(evt,'out')"/>
  <use id="reset" xlink:href="#resetDef" x="30" y="36" onmousedown="handleReset()"/>
   <use id="arrowup" xlink:href="#arrowUp" x="0" y="0" onmousedown="handlePan(0,-1)"/>
  <use id="arrowright" xlink:href="#arrowRight" x="0" y="0" onmousedown="handlePan(1,0)"/>
  <use id="arrowdown" xlink:href="#arrowDown" x="0" y="0" onmousedown="handlePan(0,1)"/>
  <use id="arrowleft" xlink:href="#arrowLeft" x="0" y="0" onmousedown="handlePan(-1,0)"/>
</g>
<svg viewBox="0 0 15 15" width="100%" height="30px" preserveAspectRatio="xMaxYMin meet">
 <g id="arrow_out" transform="scale(0.3 0.3)">
  <a xlink:href="namespaceMayaFlux_aa1955a73119c9e977f59ab989e74597e_aa1955a73119c9e977f59ab989e74597e_cgraph_org.svg" target="_base">
   <rect id="button" ry="5" rx="5" y="6" x="6" height="38" width="38"
        fill="#f2f5e9" fill-opacity="0.5" stroke="#606060" stroke-width="1.0"/>
   <path id="arrow"
     d="M 11.500037,31.436501 C 11.940474,20.09759 22.043105,11.32322 32.158766,21.979434 L 37.068811,17.246167 C 37.068811,17.246167 37.088388,32 37.088388,32 L 22.160133,31.978069 C 22.160133,31.978069 26.997745,27.140456 26.997745,27.140456 C 18.528582,18.264221 13.291696,25.230495 11.500037,31.436501 z"
     style="fill:#404040;"/>
  </a>
 </g>
</svg>

<style type='text/css'>
<![CDATA[
[data-mouse-over-selected='false'] { opacity: 0.7; }
[data-mouse-over-selected='true']  { opacity: 1.0; }
]]>
</style>
<script type="application/ecmascript"><![CDATA[
document.addEventListener('DOMContentLoaded', (event) => {
  highlightEdges();
  highlightAdjacentNodes();
});
]]></script>
</svg>
