<?xml version="1.0" encoding="UTF-8" standalone="no"?>
<!DOCTYPE svg PUBLIC "-//W3C//DTD SVG 1.1//EN"
 "http://www.w3.org/Graphics/SVG/1.1/DTD/svg11.dtd">
<!-- Generated by graphviz version 2.43.0 (0)
 -->
<!-- Title: MayaFlux::prepare_audio_buffers Pages: 1 -->
<!--zoomable 156 -->

<svg id="main" version="1.1" xmlns="http://www.w3.org/2000/svg" xmlns:xlink="http://www.w3.org/1999/xlink" xml:space="preserve" onload="init(evt)">
<style type="text/css"><![CDATA[
.node, .edge {opacity: 0.7;}
.node.selected, .edge.selected {opacity: 1;}
.edge:hover path { stroke: red; }
.edge:hover polygon { stroke: red; fill: red; }
]]></style>

<defs>
  <circle id="rim" cx="0" cy="0" r="7"/>
  <circle id="rim2" cx="0" cy="0" r="3.5"/>
  <g id="zoomPlus">
    <use xlink:href="#rim" fill="#404040"><set attributeName="fill" to="#808080" begin="zoomplus.mouseover" end="zoomplus.mouseout"/></use>
    <path d="M-4,0h8M0,-4v8" fill="none" stroke="white" stroke-width="1.5" pointer-events="none"/>
  </g>
  <g id="zoomMin">
    <use xlink:href="#rim" fill="#404040"><set attributeName="fill" to="#808080" begin="zoomminus.mouseover" end="zoomminus.mouseout"/></use>
    <path d="M-4,0h8" fill="none" stroke="white" stroke-width="1.5" pointer-events="none"/>
  </g>
  <g id="arrowUp" transform="translate(30 24)">
    <use xlink:href="#rim"/>
    <path pointer-events="none" fill="none" stroke="white" stroke-width="1.5" d="M0,-3.0v7 M-2.5,-0.5L0,-3.0L2.5,-0.5"/>
  </g>
  <g id="arrowRight" transform="rotate(90) translate(36 -43)">
    <use xlink:href="#rim"/>
    <path pointer-events="none" fill="none" stroke="white" stroke-width="1.5" d="M0,-3.0v7 M-2.5,-0.5L0,-3.0L2.5,-0.5"/>
  </g>
  <g id="arrowDown" transform="rotate(180) translate(-30 -48)">
    <use xlink:href="#rim"/>
    <path pointer-events="none" fill="none" stroke="white" stroke-width="1.5" d="M0,-3.0v7 M-2.5,-0.5L0,-3.0L2.5,-0.5"/>
  </g>
  <g id="arrowLeft" transform="rotate(270) translate(-36 17)">
    <use xlink:href="#rim"/>
    <path pointer-events="none" fill="none" stroke="white" stroke-width="1.5" d="M0,-3.0v7 M-2.5,-0.5L0,-3.0L2.5,-0.5"/>
  </g>
  <g id="resetDef">
    <use xlink:href="#rim2" fill="#404040"><set attributeName="fill" to="#808080" begin="reset.mouseover" end="reset.mouseout"/></use>
  </g>
</defs>
<script type="application/ecmascript">
var viewWidth = 1449;
var viewHeight = 156;
var sectionId = 'dynsection-0';
</script>
<script type="application/ecmascript" xlink:href="svg.min.js"/>
<svg id="graph" class="graph">
<g id="viewport">
<title>MayaFlux::prepare_audio_buffers</title>
<!-- Node1 -->
<g id="Node000001" class="node">
<title>Node1</title>
<g id="a_Node000001"><a xlink:title="Constructs and initializes per&#45;channel SoundContainerBuffers without registering them.">
<polygon fill="#999999" stroke="#666666" points="140,-86.5 0,-86.5 0,-56.5 140,-56.5 140,-86.5"/>
<text text-anchor="start" x="8" y="-74.5" font-family="Helvetica,sans-Serif" font-size="10.00">MayaFlux::prepare_audio</text>
<text text-anchor="middle" x="70" y="-63.5" font-family="Helvetica,sans-Serif" font-size="10.00">_buffers</text>
</a>
</g>
</g>
<!-- Node2 -->
<g id="Node000002" class="node">
<title>Node2</title>
<g id="a_Node000002"><a xlink:href="namespaceMayaFlux_1_1Config_a5249afad2e4d9b92e843da6b0d089926.html#a5249afad2e4d9b92e843da6b0d089926" target="_top" xlink:title="Gets the buffer size from the default engine.">
<polygon fill="white" stroke="#666666" points="299,-86.5 176,-86.5 176,-56.5 299,-56.5 299,-86.5"/>
<text text-anchor="start" x="184" y="-74.5" font-family="Helvetica,sans-Serif" font-size="10.00">MayaFlux::Config::get</text>
<text text-anchor="middle" x="237.5" y="-63.5" font-family="Helvetica,sans-Serif" font-size="10.00">_buffer_size</text>
</a>
</g>
</g>
<!-- Node1&#45;&gt;Node2 -->
<g id="edge1_Node000001_Node000002" class="edge">
<title>Node1&#45;&gt;Node2</title>
<g id="a_edge1_Node000001_Node000002"><a xlink:title=" ">
<path fill="none" stroke="#63b8ff" d="M140.23,-71.5C148.67,-71.5 157.3,-71.5 165.76,-71.5"/>
<polygon fill="#63b8ff" stroke="#63b8ff" points="165.97,-75 175.97,-71.5 165.97,-68 165.97,-75"/>
</a>
</g>
</g>
<!-- Node3 -->
<g id="Node000003" class="node">
<title>Node3</title>
<g id="a_Node000003"><a xlink:href="namespaceMayaFlux_ac4ab74951370ff0dd899203f3b94c775.html#ac4ab74951370ff0dd899203f3b94c775" target="_top" xlink:title="Gets the default engine instance.">
<polygon fill="white" stroke="#666666" points="804,-118 676,-118 676,-99 804,-99 804,-118"/>
<text text-anchor="middle" x="740" y="-106" font-family="Helvetica,sans-Serif" font-size="10.00">MayaFlux::get_context</text>
</a>
</g>
</g>
<!-- Node2&#45;&gt;Node3 -->
<g id="edge2_Node000002_Node000003" class="edge">
<title>Node2&#45;&gt;Node3</title>
<g id="a_edge2_Node000002_Node000003"><a xlink:title=" ">
<path fill="none" stroke="#63b8ff" d="M290.44,-86.56C304.76,-90.12 320.38,-93.47 335,-95.5 449.65,-111.42 584.28,-112.22 665.54,-110.78"/>
<polygon fill="#63b8ff" stroke="#63b8ff" points="665.74,-114.27 675.67,-110.58 665.6,-107.28 665.74,-114.27"/>
</a>
</g>
</g>
<!-- Node10 -->
<g id="Node000010" class="node">
<title>Node10</title>
<g id="a_Node000010"><a xlink:href="classMayaFlux_1_1Core_1_1Engine_a02d736c044a7e700855ef3d8587ade79.html#a02d736c044a7e700855ef3d8587ade79" target="_top" xlink:title="Gets the current stream configuration.">
<polygon fill="white" stroke="#666666" points="467,-86.5 335,-86.5 335,-56.5 467,-56.5 467,-86.5"/>
<text text-anchor="start" x="343" y="-74.5" font-family="Helvetica,sans-Serif" font-size="10.00">MayaFlux::Core::Engine</text>
<text text-anchor="middle" x="401" y="-63.5" font-family="Helvetica,sans-Serif" font-size="10.00">::get_stream_info</text>
</a>
</g>
</g>
<!-- Node2&#45;&gt;Node10 -->
<g id="edge9_Node000002_Node000010" class="edge">
<title>Node2&#45;&gt;Node10</title>
<g id="a_edge9_Node000002_Node000010"><a xlink:title=" ">
<path fill="none" stroke="#63b8ff" d="M299.1,-71.5C307.46,-71.5 316.13,-71.5 324.72,-71.5"/>
<polygon fill="#63b8ff" stroke="#63b8ff" points="324.74,-75 334.74,-71.5 324.74,-68 324.74,-75"/>
</a>
</g>
</g>
<!-- Node11 -->
<g id="Node000011" class="node">
<title>Node11</title>
<g id="a_Node000011"><a xlink:href="namespaceMayaFlux_a00a57a9897c04aaa8ba5f11b97659982.html#a00a57a9897c04aaa8ba5f11b97659982" target="_top" xlink:title="Checks if the default engine has currently accepted all configurations and initialized all managers.">
<polygon fill="white" stroke="#666666" points="459.5,-38.5 342.5,-38.5 342.5,-8.5 459.5,-8.5 459.5,-38.5"/>
<text text-anchor="start" x="350.5" y="-26.5" font-family="Helvetica,sans-Serif" font-size="10.00">MayaFlux::is_engine</text>
<text text-anchor="middle" x="401" y="-15.5" font-family="Helvetica,sans-Serif" font-size="10.00">_configured</text>
</a>
</g>
</g>
<!-- Node2&#45;&gt;Node11 -->
<g id="edge10_Node000002_Node000011" class="edge">
<title>Node2&#45;&gt;Node11</title>
<g id="a_edge10_Node000002_Node000011"><a xlink:title=" ">
<path fill="none" stroke="#63b8ff" d="M289.16,-56.44C305.24,-51.66 323.18,-46.33 339.87,-41.37"/>
<polygon fill="#63b8ff" stroke="#63b8ff" points="340.93,-44.71 349.52,-38.5 338.94,-38 340.93,-44.71"/>
</a>
</g>
</g>
<!-- Node4 -->
<g id="Node000004" class="node">
<title>Node4</title>
<g id="a_Node000004"><a xlink:href="namespaceMayaFlux_1_1internal_ac0f0b4b1cae6af4441db0ea022e15583.html#ac0f0b4b1cae6af4441db0ea022e15583" target="_top" xlink:title=" ">
<polygon fill="white" stroke="#666666" points="970,-123.5 842,-123.5 842,-93.5 970,-93.5 970,-123.5"/>
<text text-anchor="start" x="850" y="-111.5" font-family="Helvetica,sans-Serif" font-size="10.00">MayaFlux::internal</text>
<text text-anchor="middle" x="906" y="-100.5" font-family="Helvetica,sans-Serif" font-size="10.00">::get_or_create_engine</text>
</a>
</g>
</g>
<!-- Node3&#45;&gt;Node4 -->
<g id="edge3_Node000003_Node000004" class="edge">
<title>Node3&#45;&gt;Node4</title>
<g id="a_edge3_Node000003_Node000004"><a xlink:title=" ">
<path fill="none" stroke="#63b8ff" d="M804.41,-108.5C813.31,-108.5 822.53,-108.5 831.6,-108.5"/>
<polygon fill="#63b8ff" stroke="#63b8ff" points="831.76,-112 841.76,-108.5 831.76,-105 831.76,-112"/>
</a>
</g>
</g>
<!-- Node5 -->
<g id="Node000005" class="node">
<title>Node5</title>
<g id="a_Node000005"><a xlink:href="namespaceMayaFlux_1_1internal_a3cc5413e05c2f9c9f04372841aa0a5b1.html#a3cc5413e05c2f9c9f04372841aa0a5b1" target="_top" xlink:title=" ">
<polygon fill="white" stroke="#666666" points="1114,-123.5 1006,-123.5 1006,-93.5 1114,-93.5 1114,-123.5"/>
<text text-anchor="start" x="1014" y="-111.5" font-family="Helvetica,sans-Serif" font-size="10.00">MayaFlux::internal</text>
<text text-anchor="middle" x="1060" y="-100.5" font-family="Helvetica,sans-Serif" font-size="10.00">::cleanup_engine</text>
</a>
</g>
</g>
<!-- Node4&#45;&gt;Node5 -->
<g id="edge4_Node000004_Node000005" class="edge">
<title>Node4&#45;&gt;Node5</title>
<g id="a_edge4_Node000004_Node000005"><a xlink:title=" ">
<path fill="none" stroke="#63b8ff" d="M970.14,-108.5C978.61,-108.5 987.29,-108.5 995.76,-108.5"/>
<polygon fill="#63b8ff" stroke="#63b8ff" points="995.95,-112 1005.95,-108.5 995.95,-105 995.95,-112"/>
</a>
</g>
</g>
<!-- Node6 -->
<g id="Node000006" class="node">
<title>Node6</title>
<g id="a_Node000006"><a xlink:href="namespaceMayaFlux_1_1internal_ac4d6952d58cdfd56964a883d40aa655d.html#ac4d6952d58cdfd56964a883d40aa655d" target="_top" xlink:title=" ">
<polygon fill="white" stroke="#666666" points="1295,-147.5 1150,-147.5 1150,-117.5 1295,-117.5 1295,-147.5"/>
<text text-anchor="start" x="1158" y="-135.5" font-family="Helvetica,sans-Serif" font-size="10.00">MayaFlux::internal</text>
<text text-anchor="middle" x="1222.5" y="-124.5" font-family="Helvetica,sans-Serif" font-size="10.00">::cleanup_persistent_store</text>
</a>
</g>
</g>
<!-- Node5&#45;&gt;Node6 -->
<g id="edge5_Node000005_Node000006" class="edge">
<title>Node5&#45;&gt;Node6</title>
<g id="a_edge5_Node000005_Node000006"><a xlink:title=" ">
<path fill="none" stroke="#63b8ff" d="M1114.44,-116.49C1122.57,-117.71 1131.11,-118.98 1139.68,-120.27"/>
<polygon fill="#63b8ff" stroke="#63b8ff" points="1139.31,-123.75 1149.72,-121.77 1140.35,-116.83 1139.31,-123.75"/>
</a>
</g>
</g>
<!-- Node8 -->
<g id="Node000008" class="node">
<title>Node8</title>
<g id="a_Node000008"><a xlink:href="classMayaFlux_1_1Journal_1_1Archivist_a82e2d12db8781df4afc43ef4c1fba2be.html#a82e2d12db8781df4afc43ef4c1fba2be" target="_top" xlink:title="Shutdown the logging system.">
<polygon fill="white" stroke="#666666" points="1279,-99.5 1166,-99.5 1166,-69.5 1279,-69.5 1279,-99.5"/>
<text text-anchor="start" x="1174" y="-87.5" font-family="Helvetica,sans-Serif" font-size="10.00">MayaFlux::Journal::</text>
<text text-anchor="middle" x="1222.5" y="-76.5" font-family="Helvetica,sans-Serif" font-size="10.00">Archivist::shutdown</text>
</a>
</g>
</g>
<!-- Node5&#45;&gt;Node8 -->
<g id="edge7_Node000005_Node000008" class="edge">
<title>Node5&#45;&gt;Node8</title>
<g id="a_edge7_Node000005_Node000008"><a xlink:title=" ">
<path fill="none" stroke="#63b8ff" d="M1114.44,-100.51C1127.73,-98.52 1142.11,-96.37 1155.91,-94.31"/>
<polygon fill="#63b8ff" stroke="#63b8ff" points="1156.44,-97.77 1165.82,-92.83 1155.41,-90.84 1156.44,-97.77"/>
</a>
</g>
</g>
<!-- Node7 -->
<g id="Node000007" class="node">
<title>Node7</title>
<g id="a_Node000007"><a xlink:href="namespaceMayaFlux_1_1internal_ac26a7a92aa4af34c366aad03b68ea71e.html#ac26a7a92aa4af34c366aad03b68ea71e" target="_top" xlink:title=" ">
<polygon fill="white" stroke="#666666" points="1440,-147.5 1332,-147.5 1332,-117.5 1440,-117.5 1440,-147.5"/>
<text text-anchor="start" x="1340" y="-135.5" font-family="Helvetica,sans-Serif" font-size="10.00">MayaFlux::internal</text>
<text text-anchor="middle" x="1386" y="-124.5" font-family="Helvetica,sans-Serif" font-size="10.00">::persistent_store</text>
</a>
</g>
</g>
<!-- Node6&#45;&gt;Node7 -->
<g id="edge6_Node000006_Node000007" class="edge">
<title>Node6&#45;&gt;Node7</title>
<g id="a_edge6_Node000006_Node000007"><a xlink:title=" ">
<path fill="none" stroke="#63b8ff" d="M1295.28,-132.5C1304.12,-132.5 1313.1,-132.5 1321.8,-132.5"/>
<polygon fill="#63b8ff" stroke="#63b8ff" points="1321.86,-136 1331.86,-132.5 1321.86,-129 1321.86,-136"/>
</a>
</g>
</g>
<!-- Node9 -->
<g id="Node000009" class="node">
<title>Node9</title>
<g id="a_Node000009"><a xlink:href="classMayaFlux_1_1Journal_1_1Archivist_a8b7829e34d79ec5bbbf02e3d4afbdab9.html#a8b7829e34d79ec5bbbf02e3d4afbdab9" target="_top" xlink:title="Get the singleton instance of the Archivist.">
<polygon fill="white" stroke="#666666" points="1441,-99.5 1331,-99.5 1331,-69.5 1441,-69.5 1441,-99.5"/>
<text text-anchor="start" x="1339" y="-87.5" font-family="Helvetica,sans-Serif" font-size="10.00">MayaFlux::Journal::</text>
<text text-anchor="middle" x="1386" y="-76.5" font-family="Helvetica,sans-Serif" font-size="10.00">Archivist::instance</text>
</a>
</g>
</g>
<!-- Node8&#45;&gt;Node9 -->
<g id="edge8_Node000008_Node000009" class="edge">
<title>Node8&#45;&gt;Node9</title>
<g id="a_edge8_Node000008_Node000009"><a xlink:title=" ">
<path fill="none" stroke="#63b8ff" d="M1279.08,-84.5C1292.46,-84.5 1306.86,-84.5 1320.6,-84.5"/>
<polygon fill="#63b8ff" stroke="#63b8ff" points="1320.96,-88 1330.96,-84.5 1320.96,-81 1320.96,-88"/>
</a>
</g>
</g>
<!-- Node12 -->
<g id="Node000012" class="node">
<title>Node12</title>
<g id="a_Node000012"><a xlink:href="namespaceMayaFlux_a3fa338038ee2158c0084bf4cd10c0ef2.html#a3fa338038ee2158c0084bf4cd10c0ef2" target="_top" xlink:title="Checks if the default engine has currently accepted all configurations and initialized all managers.">
<polygon fill="white" stroke="#666666" points="638,-40 503,-40 503,-21 638,-21 638,-40"/>
<text text-anchor="middle" x="570.5" y="-28" font-family="Helvetica,sans-Serif" font-size="10.00">MayaFlux::is_configured</text>
</a>
</g>
</g>
<!-- Node11&#45;&gt;Node12 -->
<g id="edge11_Node000011_Node000012" class="edge">
<title>Node11&#45;&gt;Node12</title>
<g id="a_edge11_Node000011_Node000012"><a xlink:title=" ">
<path fill="none" stroke="#63b8ff" d="M459.64,-25.91C470.29,-26.35 481.57,-26.83 492.68,-27.29"/>
<polygon fill="#63b8ff" stroke="#63b8ff" points="492.68,-30.79 502.82,-27.71 492.98,-23.8 492.68,-30.79"/>
</a>
</g>
</g>
<!-- Node12&#45;&gt;Node3 -->
<g id="edge12_Node000012_Node000003" class="edge">
<title>Node12&#45;&gt;Node3</title>
<g id="a_edge12_Node000012_Node000003"><a xlink:title=" ">
<path fill="none" stroke="#63b8ff" d="M592.04,-40.06C621.38,-53.73 675.46,-78.91 709.2,-94.62"/>
<polygon fill="#63b8ff" stroke="#63b8ff" points="708.01,-97.93 718.56,-98.98 710.97,-91.59 708.01,-97.93"/>
</a>
</g>
</g>
<!-- Node13 -->
<g id="Node000013" class="node">
<title>Node13</title>
<g id="a_Node000013"><a xlink:href="classMayaFlux_1_1Core_1_1Engine_a2653ce411a939cf3f1e8285c4d63cd3c.html#a2653ce411a939cf3f1e8285c4d63cd3c" target="_top" xlink:title="Checks if the engine has been initialized and configured.">
<polygon fill="white" stroke="#666666" points="806,-67.5 674,-67.5 674,-37.5 806,-37.5 806,-67.5"/>
<text text-anchor="start" x="682" y="-55.5" font-family="Helvetica,sans-Serif" font-size="10.00">MayaFlux::Core::Engine</text>
<text text-anchor="middle" x="740" y="-44.5" font-family="Helvetica,sans-Serif" font-size="10.00">::is_configured</text>
</a>
</g>
</g>
<!-- Node12&#45;&gt;Node13 -->
<g id="edge13_Node000012_Node000013" class="edge">
<title>Node12&#45;&gt;Node13</title>
<g id="a_edge13_Node000012_Node000013"><a xlink:title=" ">
<path fill="none" stroke="#63b8ff" d="M638.18,-39.26C646.64,-40.37 655.34,-41.51 663.92,-42.64"/>
<polygon fill="#63b8ff" stroke="#63b8ff" points="663.54,-46.12 673.91,-43.95 664.45,-39.18 663.54,-46.12"/>
</a>
</g>
</g>
<!-- Node14 -->
<g id="Node000014" class="node">
<title>Node14</title>
<g id="a_Node000014"><a xlink:href="namespaceMayaFlux_af8d88ab6d6d525a04d706061bd841cdc.html#af8d88ab6d6d525a04d706061bd841cdc" target="_top" xlink:title="Checks if the default engine has been initialized.">
<polygon fill="white" stroke="#666666" points="806,-19 674,-19 674,0 806,0 806,-19"/>
<text text-anchor="middle" x="740" y="-7" font-family="Helvetica,sans-Serif" font-size="10.00">MayaFlux::is_initialized</text>
</a>
</g>
</g>
<!-- Node12&#45;&gt;Node14 -->
<g id="edge14_Node000012_Node000014" class="edge">
<title>Node12&#45;&gt;Node14</title>
<g id="a_edge14_Node000012_Node000014"><a xlink:title=" ">
<path fill="none" stroke="#63b8ff" d="M638.18,-22.14C646.64,-21.08 655.34,-19.99 663.92,-18.91"/>
<polygon fill="#63b8ff" stroke="#63b8ff" points="664.43,-22.38 673.91,-17.66 663.56,-15.43 664.43,-22.38"/>
</a>
</g>
</g>
</g>
</svg>

<g id="navigator" transform="translate(0 0)" fill="#404254">
  <rect fill="#f2f5e9" fill-opacity="0.5" stroke="#606060" stroke-width=".5" x="0" y="0" width="60" height="60"/>
  <use id="zoomplus" xlink:href="#zoomPlus" x="17" y="9" onmousedown="handleZoom(evt,'in')"/>
  <use id="zoomminus" xlink:href="#zoomMin" x="42" y="9" onmousedown="handleZoom(evt,'out')"/>
  <use id="reset" xlink:href="#resetDef" x="30" y="36" onmousedown="handleReset()"/>
   <use id="arrowup" xlink:href="#arrowUp" x="0" y="0" onmousedown="handlePan(0,-1)"/>
  <use id="arrowright" xlink:href="#arrowRight" x="0" y="0" onmousedown="handlePan(1,0)"/>
  <use id="arrowdown" xlink:href="#arrowDown" x="0" y="0" onmousedown="handlePan(0,1)"/>
  <use id="arrowleft" xlink:href="#arrowLeft" x="0" y="0" onmousedown="handlePan(-1,0)"/>
</g>
<svg viewBox="0 0 15 15" width="100%" height="30px" preserveAspectRatio="xMaxYMin meet">
 <g id="arrow_out" transform="scale(0.3 0.3)">
  <a xlink:href="namespaceMayaFlux_ad01d9cdd4e1687f97a0edca6641e6daa_ad01d9cdd4e1687f97a0edca6641e6daa_cgraph_org.svg" target="_base">
   <rect id="button" ry="5" rx="5" y="6" x="6" height="38" width="38"
        fill="#f2f5e9" fill-opacity="0.5" stroke="#606060" stroke-width="1.0"/>
   <path id="arrow"
     d="M 11.500037,31.436501 C 11.940474,20.09759 22.043105,11.32322 32.158766,21.979434 L 37.068811,17.246167 C 37.068811,17.246167 37.088388,32 37.088388,32 L 22.160133,31.978069 C 22.160133,31.978069 26.997745,27.140456 26.997745,27.140456 C 18.528582,18.264221 13.291696,25.230495 11.500037,31.436501 z"
     style="fill:#404040;"/>
  </a>
 </g>
</svg>

<style type='text/css'>
<![CDATA[
[data-mouse-over-selected='false'] { opacity: 0.7; }
[data-mouse-over-selected='true']  { opacity: 1.0; }
]]>
</style>
<script type="application/ecmascript"><![CDATA[
document.addEventListener('DOMContentLoaded', (event) => {
  highlightEdges();
  highlightAdjacentNodes();
});
]]></script>
</svg>
