<?xml version="1.0" encoding="UTF-8" standalone="no"?>
<!DOCTYPE svg PUBLIC "-//W3C//DTD SVG 1.1//EN"
 "http://www.w3.org/Graphics/SVG/1.1/DTD/svg11.dtd">
<!-- Generated by graphviz version 2.43.0 (0)
 -->
<!-- Title: MayaFlux::Kakshya::detect_data_dimensions Pages: 1 -->
<svg width="327pt" height="230pt"
 viewBox="0.00 0.00 327.00 230.00" xmlns="http://www.w3.org/2000/svg" xmlns:xlink="http://www.w3.org/1999/xlink">
<g id="graph0" class="graph" transform="scale(1 1) rotate(0) translate(4 226)">
<title>MayaFlux::Kakshya::detect_data_dimensions</title>
<!-- Node1 -->
<g id="Node000001" class="node">
<title>Node1</title>
<g id="a_Node000001"><a xlink:title=" ">
<polygon fill="#999999" stroke="#666666" points="136,-126 0,-126 0,-96 136,-96 136,-126"/>
<text text-anchor="start" x="8" y="-114" font-family="Helvetica,sans-Serif" font-size="10.00">MayaFlux::Kakshya::</text>
<text text-anchor="middle" x="68" y="-103" font-family="Helvetica,sans-Serif" font-size="10.00">detect_data_dimensions</text>
</a>
</g>
</g>
<!-- Node2 -->
<g id="Node000002" class="node">
<title>Node2</title>
<g id="a_Node000002"><a xlink:href="structMayaFlux_1_1Kakshya_1_1DataDimension_afae79b6c7314e95d426e396efe81787a.html#afae79b6c7314e95d426e396efe81787a" target="_top" xlink:title="Convenience constructor for a channel dimension.">
<polygon fill="white" stroke="#666666" points="314,-222 177,-222 177,-192 314,-192 314,-222"/>
<text text-anchor="start" x="185" y="-210" font-family="Helvetica,sans-Serif" font-size="10.00">MayaFlux::Kakshya::</text>
<text text-anchor="middle" x="245.5" y="-199" font-family="Helvetica,sans-Serif" font-size="10.00">DataDimension::channel</text>
</a>
</g>
</g>
<!-- Node1&#45;&gt;Node2 -->
<g id="edge1_Node000001_Node000002" class="edge">
<title>Node1&#45;&gt;Node2</title>
<g id="a_edge1_Node000001_Node000002"><a xlink:title=" ">
<path fill="none" stroke="#63b8ff" d="M87.32,-126.29C107.15,-142.23 140.21,-167.06 172,-183 175.56,-184.79 179.29,-186.49 183.1,-188.09"/>
<polygon fill="#63b8ff" stroke="#63b8ff" points="182.07,-191.45 192.66,-191.89 184.66,-184.95 182.07,-191.45"/>
</a>
</g>
</g>
<!-- Node3 -->
<g id="Node000003" class="node">
<title>Node3</title>
<g id="a_Node000003"><a xlink:href="structMayaFlux_1_1Kakshya_1_1DataDimension_a6a1656bc7eafe4add39ec634481345a7.html#a6a1656bc7eafe4add39ec634481345a7" target="_top" xlink:title="Convenience constructor for a frequency dimension.">
<polygon fill="white" stroke="#666666" points="319,-174 172,-174 172,-144 319,-144 319,-174"/>
<text text-anchor="start" x="180" y="-162" font-family="Helvetica,sans-Serif" font-size="10.00">MayaFlux::Kakshya::</text>
<text text-anchor="middle" x="245.5" y="-151" font-family="Helvetica,sans-Serif" font-size="10.00">DataDimension::frequency</text>
</a>
</g>
</g>
<!-- Node1&#45;&gt;Node3 -->
<g id="edge2_Node000001_Node000003" class="edge">
<title>Node1&#45;&gt;Node3</title>
<g id="a_edge2_Node000001_Node000003"><a xlink:title=" ">
<path fill="none" stroke="#63b8ff" d="M124.05,-126.06C141.77,-130.9 161.57,-136.32 179.92,-141.34"/>
<polygon fill="#63b8ff" stroke="#63b8ff" points="179.08,-144.74 189.65,-144 180.93,-137.98 179.08,-144.74"/>
</a>
</g>
</g>
<!-- Node4 -->
<g id="Node000004" class="node">
<title>Node4</title>
<g id="a_Node000004"><a xlink:href="structMayaFlux_1_1Kakshya_1_1DataDimension_a57e1909558a284754db05334249f9d0f.html#a57e1909558a284754db05334249f9d0f" target="_top" xlink:title="Create dimension with component grouping.">
<polygon fill="white" stroke="#666666" points="314.5,-126 176.5,-126 176.5,-96 314.5,-96 314.5,-126"/>
<text text-anchor="start" x="184.5" y="-114" font-family="Helvetica,sans-Serif" font-size="10.00">MayaFlux::Kakshya::</text>
<text text-anchor="middle" x="245.5" y="-103" font-family="Helvetica,sans-Serif" font-size="10.00">DataDimension::grouped</text>
</a>
</g>
</g>
<!-- Node1&#45;&gt;Node4 -->
<g id="edge3_Node000001_Node000004" class="edge">
<title>Node1&#45;&gt;Node4</title>
<g id="a_edge3_Node000001_Node000004"><a xlink:title=" ">
<path fill="none" stroke="#63b8ff" d="M136.1,-111C145.87,-111 156,-111 165.97,-111"/>
<polygon fill="#63b8ff" stroke="#63b8ff" points="166.27,-114.5 176.27,-111 166.27,-107.5 166.27,-114.5"/>
</a>
</g>
</g>
<!-- Node5 -->
<g id="Node000005" class="node">
<title>Node5</title>
<g id="a_Node000005"><a xlink:href="structMayaFlux_1_1Kakshya_1_1DataDimension_a54ded63656235da79ab98ef3a576d3d2.html#a54ded63656235da79ab98ef3a576d3d2" target="_top" xlink:title="Convenience constructor for a spatial dimension.">
<polygon fill="white" stroke="#666666" points="311,-78 180,-78 180,-48 311,-48 311,-78"/>
<text text-anchor="start" x="188" y="-66" font-family="Helvetica,sans-Serif" font-size="10.00">MayaFlux::Kakshya::</text>
<text text-anchor="middle" x="245.5" y="-55" font-family="Helvetica,sans-Serif" font-size="10.00">DataDimension::spatial</text>
</a>
</g>
</g>
<!-- Node1&#45;&gt;Node5 -->
<g id="edge4_Node000001_Node000005" class="edge">
<title>Node1&#45;&gt;Node5</title>
<g id="a_edge4_Node000001_Node000005"><a xlink:title=" ">
<path fill="none" stroke="#63b8ff" d="M124.05,-95.94C141.77,-91.1 161.57,-85.68 179.92,-80.66"/>
<polygon fill="#63b8ff" stroke="#63b8ff" points="180.93,-84.02 189.65,-78 179.08,-77.26 180.93,-84.02"/>
</a>
</g>
</g>
<!-- Node6 -->
<g id="Node000006" class="node">
<title>Node6</title>
<g id="a_Node000006"><a xlink:href="structMayaFlux_1_1Kakshya_1_1DataDimension_aab0cac54b47602cb00e2fd99b50839c3.html#aab0cac54b47602cb00e2fd99b50839c3" target="_top" xlink:title="Convenience constructor for a temporal (time) dimension.">
<polygon fill="white" stroke="#666666" points="306,-30 185,-30 185,0 306,0 306,-30"/>
<text text-anchor="start" x="193" y="-18" font-family="Helvetica,sans-Serif" font-size="10.00">MayaFlux::Kakshya::</text>
<text text-anchor="middle" x="245.5" y="-7" font-family="Helvetica,sans-Serif" font-size="10.00">DataDimension::time</text>
</a>
</g>
</g>
<!-- Node1&#45;&gt;Node6 -->
<g id="edge5_Node000001_Node000006" class="edge">
<title>Node1&#45;&gt;Node6</title>
<g id="a_edge5_Node000001_Node000006"><a xlink:title=" ">
<path fill="none" stroke="#63b8ff" d="M87.32,-95.71C107.15,-79.77 140.21,-54.94 172,-39 175.56,-37.21 179.29,-35.51 183.1,-33.91"/>
<polygon fill="#63b8ff" stroke="#63b8ff" points="184.66,-37.05 192.66,-30.11 182.07,-30.55 184.66,-37.05"/>
</a>
</g>
</g>
</g>
</svg>
