<?xml version="1.0" encoding="UTF-8" standalone="no"?>
<!DOCTYPE svg PUBLIC "-//W3C//DTD SVG 1.1//EN"
 "http://www.w3.org/Graphics/SVG/1.1/DTD/svg11.dtd">
<!-- Generated by graphviz version 2.43.0 (0)
 -->
<!-- Title: MayaFlux::Portal::Forma::Plot::plot_tick_labels Pages: 1 -->
<svg width="292pt" height="86pt"
 viewBox="0.00 0.00 292.00 86.00" xmlns="http://www.w3.org/2000/svg" xmlns:xlink="http://www.w3.org/1999/xlink">
<g id="graph0" class="graph" transform="scale(1 1) rotate(0) translate(4 82)">
<title>MayaFlux::Portal::Forma::Plot::plot_tick_labels</title>
<!-- Node1 -->
<g id="Node000001" class="node">
<title>Node1</title>
<g id="a_Node000001"><a xlink:title="Generate construction&#45;free tick label specs.">
<polygon fill="#999999" stroke="#666666" points="136,-54 0,-54 0,-24 136,-24 136,-54"/>
<text text-anchor="start" x="8" y="-42" font-family="Helvetica,sans-Serif" font-size="10.00">MayaFlux::Portal::Forma</text>
<text text-anchor="middle" x="68" y="-31" font-family="Helvetica,sans-Serif" font-size="10.00">::Plot::plot_tick_labels</text>
</a>
</g>
</g>
<!-- Node2 -->
<g id="Node000002" class="node">
<title>Node2</title>
<g id="a_Node000002"><a xlink:href="structMayaFlux_1_1Kinesis_1_1AABB2D_a32bac0d1a4f876c992486eed5dc9fd6f.html#a32bac0d1a4f876c992486eed5dc9fd6f" target="_top" xlink:title=" ">
<polygon fill="white" stroke="#666666" points="284,-78 172,-78 172,-48 284,-48 284,-78"/>
<text text-anchor="start" x="180" y="-66" font-family="Helvetica,sans-Serif" font-size="10.00">MayaFlux::Kinesis::</text>
<text text-anchor="middle" x="228" y="-55" font-family="Helvetica,sans-Serif" font-size="10.00">AABB2D::height</text>
</a>
</g>
</g>
<!-- Node1&#45;&gt;Node2 -->
<g id="edge1_Node000001_Node000002" class="edge">
<title>Node1&#45;&gt;Node2</title>
<g id="a_edge1_Node000001_Node000002"><a xlink:title=" ">
<path fill="none" stroke="#63b8ff" d="M136.01,-49.18C144.59,-50.48 153.37,-51.82 161.92,-53.11"/>
<polygon fill="#63b8ff" stroke="#63b8ff" points="161.42,-56.58 171.83,-54.62 162.47,-49.66 161.42,-56.58"/>
</a>
</g>
</g>
<!-- Node3 -->
<g id="Node000003" class="node">
<title>Node3</title>
<g id="a_Node000003"><a xlink:href="structMayaFlux_1_1Kinesis_1_1AABB2D_ab8e372add789f6bd44fa66a92618456a.html#ab8e372add789f6bd44fa66a92618456a" target="_top" xlink:title=" ">
<polygon fill="white" stroke="#666666" points="284,-30 172,-30 172,0 284,0 284,-30"/>
<text text-anchor="start" x="180" y="-18" font-family="Helvetica,sans-Serif" font-size="10.00">MayaFlux::Kinesis::</text>
<text text-anchor="middle" x="228" y="-7" font-family="Helvetica,sans-Serif" font-size="10.00">AABB2D::width</text>
</a>
</g>
</g>
<!-- Node1&#45;&gt;Node3 -->
<g id="edge2_Node000001_Node000003" class="edge">
<title>Node1&#45;&gt;Node3</title>
<g id="a_edge2_Node000001_Node000003"><a xlink:title=" ">
<path fill="none" stroke="#63b8ff" d="M136.01,-28.82C144.59,-27.52 153.37,-26.18 161.92,-24.89"/>
<polygon fill="#63b8ff" stroke="#63b8ff" points="162.47,-28.34 171.83,-23.38 161.42,-21.42 162.47,-28.34"/>
</a>
</g>
</g>
</g>
</svg>
