<?xml version="1.0" encoding="UTF-8" standalone="no"?>
<!DOCTYPE svg PUBLIC "-//W3C//DTD SVG 1.1//EN"
 "http://www.w3.org/Graphics/SVG/1.1/DTD/svg11.dtd">
<!-- Generated by graphviz version 2.43.0 (0)
 -->
<!-- Title: MayaFlux::Kinesis::snap Pages: 1 -->
<!--zoomable 543 -->

<svg id="main" version="1.1" xmlns="http://www.w3.org/2000/svg" xmlns:xlink="http://www.w3.org/1999/xlink" xml:space="preserve" onload="init(evt)">
<style type="text/css"><![CDATA[
.node, .edge {opacity: 0.7;}
.node.selected, .edge.selected {opacity: 1;}
.edge:hover path { stroke: red; }
.edge:hover polygon { stroke: red; fill: red; }
]]></style>

<defs>
  <circle id="rim" cx="0" cy="0" r="7"/>
  <circle id="rim2" cx="0" cy="0" r="3.5"/>
  <g id="zoomPlus">
    <use xlink:href="#rim" fill="#404040"><set attributeName="fill" to="#808080" begin="zoomplus.mouseover" end="zoomplus.mouseout"/></use>
    <path d="M-4,0h8M0,-4v8" fill="none" stroke="white" stroke-width="1.5" pointer-events="none"/>
  </g>
  <g id="zoomMin">
    <use xlink:href="#rim" fill="#404040"><set attributeName="fill" to="#808080" begin="zoomminus.mouseover" end="zoomminus.mouseout"/></use>
    <path d="M-4,0h8" fill="none" stroke="white" stroke-width="1.5" pointer-events="none"/>
  </g>
  <g id="arrowUp" transform="translate(30 24)">
    <use xlink:href="#rim"/>
    <path pointer-events="none" fill="none" stroke="white" stroke-width="1.5" d="M0,-3.0v7 M-2.5,-0.5L0,-3.0L2.5,-0.5"/>
  </g>
  <g id="arrowRight" transform="rotate(90) translate(36 -43)">
    <use xlink:href="#rim"/>
    <path pointer-events="none" fill="none" stroke="white" stroke-width="1.5" d="M0,-3.0v7 M-2.5,-0.5L0,-3.0L2.5,-0.5"/>
  </g>
  <g id="arrowDown" transform="rotate(180) translate(-30 -48)">
    <use xlink:href="#rim"/>
    <path pointer-events="none" fill="none" stroke="white" stroke-width="1.5" d="M0,-3.0v7 M-2.5,-0.5L0,-3.0L2.5,-0.5"/>
  </g>
  <g id="arrowLeft" transform="rotate(270) translate(-36 17)">
    <use xlink:href="#rim"/>
    <path pointer-events="none" fill="none" stroke="white" stroke-width="1.5" d="M0,-3.0v7 M-2.5,-0.5L0,-3.0L2.5,-0.5"/>
  </g>
  <g id="resetDef">
    <use xlink:href="#rim2" fill="#404040"><set attributeName="fill" to="#808080" begin="reset.mouseover" end="reset.mouseout"/></use>
  </g>
</defs>
<script type="application/ecmascript">
var viewWidth = 479;
var viewHeight = 543;
var sectionId = 'dynsection-0';
</script>
<script type="application/ecmascript" xlink:href="svg.min.js"/>
<svg id="graph" class="graph">
<g id="viewport">
<title>MayaFlux::Kinesis::snap</title>
<!-- Node1 -->
<g id="Node000001" class="node">
<title>Node1</title>
<g id="a_Node000001"><a xlink:title="Round x to the nearest multiple of step.">
<polygon fill="#999999" stroke="#666666" points="471,-265.5 336,-265.5 336,-246.5 471,-246.5 471,-265.5"/>
<text text-anchor="middle" x="403.5" y="-253.5" font-family="Helvetica,sans-Serif" font-size="10.00">MayaFlux::Kinesis::snap</text>
</a>
</g>
</g>
<!-- Node2 -->
<g id="Node000002" class="node">
<title>Node2</title>
<g id="a_Node000002"><a xlink:href="classMayaFlux_1_1Kinesis_1_1SpatialIndex_a6ace47c22e76423776c6e0580878e833.html#a6ace47c22e76423776c6e0580878e833" target="_top" xlink:title="Return all entity ids and positions from the published snapshot.">
<polygon fill="white" stroke="#666666" points="280,-511 168,-511 168,-481 280,-481 280,-511"/>
<text text-anchor="start" x="176" y="-499" font-family="Helvetica,sans-Serif" font-size="10.00">MayaFlux::Kinesis::</text>
<text text-anchor="middle" x="224" y="-488" font-family="Helvetica,sans-Serif" font-size="10.00">SpatialIndex::all</text>
</a>
</g>
</g>
<!-- Node1&#45;&gt;Node2 -->
<g id="edge1_Node000001_Node000002" class="edge">
<title>Node1&#45;&gt;Node2</title>
<g id="a_edge1_Node000001_Node000002"><a xlink:title=" ">
<path fill="none" stroke="#63b8ff" d="M398.66,-275.73C389.42,-317.98 361.95,-417.81 300,-472 294.24,-477.04 287.41,-481.02 280.25,-484.17"/>
<polygon fill="#63b8ff" stroke="#63b8ff" points="402.11,-276.35 400.72,-265.85 395.26,-274.93 402.11,-276.35"/>
</a>
</g>
</g>
<!-- Node5 -->
<g id="Node000005" class="node">
<title>Node5</title>
<g id="a_Node000005"><a xlink:href="classMayaFlux_1_1Kinesis_1_1SpatialIndex_aa874f29313512d3799ba2cf8fbeddc95.html#aa874f29313512d3799ba2cf8fbeddc95" target="_top" xlink:title="Entity count in the published snapshot.">
<polygon fill="white" stroke="#666666" points="280,-463 168,-463 168,-433 280,-433 280,-463"/>
<text text-anchor="start" x="176" y="-451" font-family="Helvetica,sans-Serif" font-size="10.00">MayaFlux::Kinesis::</text>
<text text-anchor="middle" x="224" y="-440" font-family="Helvetica,sans-Serif" font-size="10.00">SpatialIndex::count</text>
</a>
</g>
</g>
<!-- Node1&#45;&gt;Node5 -->
<g id="edge4_Node000001_Node000005" class="edge">
<title>Node1&#45;&gt;Node5</title>
<g id="a_edge4_Node000001_Node000005"><a xlink:title=" ">
<path fill="none" stroke="#63b8ff" d="M396,-275.07C383.18,-309.83 351.36,-383.62 300,-424 294.09,-428.65 287.26,-432.41 280.17,-435.44"/>
<polygon fill="#63b8ff" stroke="#63b8ff" points="399.31,-276.21 399.37,-265.62 392.71,-273.86 399.31,-276.21"/>
</a>
</g>
</g>
<!-- Node6 -->
<g id="Node000006" class="node">
<title>Node6</title>
<g id="a_Node000006"><a xlink:href="classMayaFlux_1_1Kinesis_1_1SpatialIndex_a4b737f998fba3f06f5b535ea0d315a18.html#a4b737f998fba3f06f5b535ea0d315a18" target="_top" xlink:title="Find the k nearest entities to a point.">
<polygon fill="white" stroke="#666666" points="289.5,-415 158.5,-415 158.5,-385 289.5,-385 289.5,-415"/>
<text text-anchor="start" x="166.5" y="-403" font-family="Helvetica,sans-Serif" font-size="10.00">MayaFlux::Kinesis::</text>
<text text-anchor="middle" x="224" y="-392" font-family="Helvetica,sans-Serif" font-size="10.00">SpatialIndex::k_nearest</text>
</a>
</g>
</g>
<!-- Node1&#45;&gt;Node6 -->
<g id="edge5_Node000001_Node000006" class="edge">
<title>Node1&#45;&gt;Node6</title>
<g id="a_edge5_Node000001_Node000006"><a xlink:title=" ">
<path fill="none" stroke="#63b8ff" d="M391.6,-274.27C375.02,-300.51 341.05,-348.71 300,-376 294.88,-379.41 289.24,-382.36 283.42,-384.91"/>
<polygon fill="#63b8ff" stroke="#63b8ff" points="394.63,-276.02 396.89,-265.67 388.67,-272.35 394.63,-276.02"/>
</a>
</g>
</g>
<!-- Node7 -->
<g id="Node000007" class="node">
<title>Node7</title>
<g id="a_Node000007"><a xlink:href="classMayaFlux_1_1Kinesis_1_1SpatialIndex_a4e4e9314ae1573d36aebfe947b6672f3.html#a4e4e9314ae1573d36aebfe947b6672f3" target="_top" xlink:title="Read the position of an entity from the published snapshot.">
<polygon fill="white" stroke="#666666" points="292.5,-367 155.5,-367 155.5,-337 292.5,-337 292.5,-367"/>
<text text-anchor="start" x="163.5" y="-355" font-family="Helvetica,sans-Serif" font-size="10.00">MayaFlux::Kinesis::</text>
<text text-anchor="middle" x="224" y="-344" font-family="Helvetica,sans-Serif" font-size="10.00">SpatialIndex::position_of</text>
</a>
</g>
</g>
<!-- Node1&#45;&gt;Node7 -->
<g id="edge6_Node000001_Node000007" class="edge">
<title>Node1&#45;&gt;Node7</title>
<g id="a_edge6_Node000001_Node000007"><a xlink:title=" ">
<path fill="none" stroke="#63b8ff" d="M383.32,-272.17C363.52,-288.18 331.22,-312.49 300,-328 293.39,-331.28 286.23,-334.25 279.05,-336.89"/>
<polygon fill="#63b8ff" stroke="#63b8ff" points="385.74,-274.71 391.24,-265.66 381.29,-269.3 385.74,-274.71"/>
</a>
</g>
</g>
<!-- Node8 -->
<g id="Node000008" class="node">
<title>Node8</title>
<g id="a_Node000008"><a xlink:href="classMayaFlux_1_1Kinesis_1_1SpatialIndex_a33784d42673c113df1465175d8c698b0.html#a33784d42673c113df1465175d8c698b0" target="_top" xlink:title="Atomically publish the current write&#45;side state as a new read snapshot.">
<polygon fill="white" stroke="#666666" points="283.5,-319 164.5,-319 164.5,-289 283.5,-289 283.5,-319"/>
<text text-anchor="start" x="172.5" y="-307" font-family="Helvetica,sans-Serif" font-size="10.00">MayaFlux::Kinesis::</text>
<text text-anchor="middle" x="224" y="-296" font-family="Helvetica,sans-Serif" font-size="10.00">SpatialIndex::publish</text>
</a>
</g>
</g>
<!-- Node1&#45;&gt;Node8 -->
<g id="edge7_Node000001_Node000008" class="edge">
<title>Node1&#45;&gt;Node8</title>
<g id="a_edge7_Node000001_Node000008"><a xlink:title=" ">
<path fill="none" stroke="#63b8ff" d="M357.06,-268.29C333.79,-274.58 305.28,-282.29 280.7,-288.94"/>
<polygon fill="#63b8ff" stroke="#63b8ff" points="358.27,-271.59 367.01,-265.6 356.44,-264.83 358.27,-271.59"/>
</a>
</g>
</g>
<!-- Node9 -->
<g id="Node000009" class="node">
<title>Node9</title>
<g id="a_Node000009"><a xlink:href="classMayaFlux_1_1Kinesis_1_1SpatialIndex_a31543064dd8df53e10706fb3944350e3.html#a31543064dd8df53e10706fb3944350e3" target="_top" xlink:title=" ">
<polygon fill="white" stroke="#666666" points="295,-271 153,-271 153,-241 295,-241 295,-271"/>
<text text-anchor="start" x="161" y="-259" font-family="Helvetica,sans-Serif" font-size="10.00">MayaFlux::Kinesis::</text>
<text text-anchor="middle" x="224" y="-248" font-family="Helvetica,sans-Serif" font-size="10.00">SpatialIndex::query_brute</text>
</a>
</g>
</g>
<!-- Node1&#45;&gt;Node9 -->
<g id="edge8_Node000001_Node000009" class="edge">
<title>Node1&#45;&gt;Node9</title>
<g id="a_edge8_Node000001_Node000009"><a xlink:title=" ">
<path fill="none" stroke="#63b8ff" d="M325.83,-256C315.66,-256 305.28,-256 295.24,-256"/>
<polygon fill="#63b8ff" stroke="#63b8ff" points="325.9,-259.5 335.9,-256 325.9,-252.5 325.9,-259.5"/>
</a>
</g>
</g>
<!-- Node10 -->
<g id="Node000010" class="node">
<title>Node10</title>
<g id="a_Node000010"><a xlink:href="classMayaFlux_1_1Kinesis_1_1SpatialIndex_a19af590a77916b208fed51c1f52a4fdd.html#a19af590a77916b208fed51c1f52a4fdd" target="_top" xlink:title=" ">
<polygon fill="white" stroke="#666666" points="291.5,-223 156.5,-223 156.5,-193 291.5,-193 291.5,-223"/>
<text text-anchor="start" x="164.5" y="-211" font-family="Helvetica,sans-Serif" font-size="10.00">MayaFlux::Kinesis::</text>
<text text-anchor="middle" x="224" y="-200" font-family="Helvetica,sans-Serif" font-size="10.00">SpatialIndex::query_grid</text>
</a>
</g>
</g>
<!-- Node1&#45;&gt;Node10 -->
<g id="edge9_Node000001_Node000010" class="edge">
<title>Node1&#45;&gt;Node10</title>
<g id="a_edge9_Node000001_Node000010"><a xlink:title=" ">
<path fill="none" stroke="#63b8ff" d="M357.06,-243.71C333.79,-237.42 305.28,-229.71 280.7,-223.06"/>
<polygon fill="#63b8ff" stroke="#63b8ff" points="356.44,-247.17 367.01,-246.4 358.27,-240.41 356.44,-247.17"/>
</a>
</g>
</g>
<!-- Node11 -->
<g id="Node000011" class="node">
<title>Node11</title>
<g id="a_Node000011"><a xlink:href="classMayaFlux_1_1Kinesis_1_1SpatialIndex_a757a00f116b618916dcc70dfdcf469ec.html#a757a00f116b618916dcc70dfdcf469ec" target="_top" xlink:title=" ">
<polygon fill="white" stroke="#666666" points="294.5,-175 153.5,-175 153.5,-145 294.5,-145 294.5,-175"/>
<text text-anchor="start" x="161.5" y="-163" font-family="Helvetica,sans-Serif" font-size="10.00">MayaFlux::Kinesis::</text>
<text text-anchor="middle" x="224" y="-152" font-family="Helvetica,sans-Serif" font-size="10.00">SpatialIndex::rebuild_grid</text>
</a>
</g>
</g>
<!-- Node1&#45;&gt;Node11 -->
<g id="edge10_Node000001_Node000011" class="edge">
<title>Node1&#45;&gt;Node11</title>
<g id="a_edge10_Node000001_Node000011"><a xlink:title=" ">
<path fill="none" stroke="#63b8ff" d="M383.32,-239.83C363.52,-223.82 331.22,-199.51 300,-184 293.39,-180.72 286.23,-177.75 279.05,-175.11"/>
<polygon fill="#63b8ff" stroke="#63b8ff" points="381.29,-242.7 391.24,-246.34 385.74,-237.29 381.29,-242.7"/>
</a>
</g>
</g>
<!-- Node12 -->
<g id="Node000012" class="node">
<title>Node12</title>
<g id="a_Node000012"><a xlink:href="namespaceMayaFlux_1_1Kinesis_a0bf9db051ce492c731acfb9d45ec7ef1.html#a0bf9db051ce492c731acfb9d45ec7ef1" target="_top" xlink:title="Snap x to the nearest multiple of step within [lo, hi].">
<polygon fill="white" stroke="#666666" points="291.5,-126.5 156.5,-126.5 156.5,-107.5 291.5,-107.5 291.5,-126.5"/>
<text text-anchor="middle" x="224" y="-114.5" font-family="Helvetica,sans-Serif" font-size="10.00">MayaFlux::Kinesis::snap</text>
</a>
</g>
</g>
<!-- Node1&#45;&gt;Node12 -->
<g id="edge11_Node000001_Node000012" class="edge">
<title>Node1&#45;&gt;Node12</title>
<g id="a_edge11_Node000001_Node000012"><a xlink:title=" ">
<path fill="none" stroke="#63b8ff" d="M392.05,-237.79C375.84,-211.21 342.07,-162.14 300,-136 293.73,-132.1 286.68,-129 279.5,-126.53"/>
<polygon fill="#63b8ff" stroke="#63b8ff" points="389.1,-239.66 397.21,-246.47 395.12,-236.09 389.1,-239.66"/>
</a>
</g>
</g>
<!-- Node13 -->
<g id="Node000013" class="node">
<title>Node13</title>
<g id="a_Node000013"><a xlink:href="classMayaFlux_1_1Kinesis_1_1SpatialIndex_aacd8af0093aa974e2fb18afe255e133d.html#aacd8af0093aa974e2fb18afe255e133d" target="_top" xlink:title="Find all entities within a radius of a point.">
<polygon fill="white" stroke="#666666" points="280.5,-89.5 167.5,-89.5 167.5,-48.5 280.5,-48.5 280.5,-89.5"/>
<text text-anchor="start" x="175.5" y="-77.5" font-family="Helvetica,sans-Serif" font-size="10.00">MayaFlux::Kinesis::</text>
<text text-anchor="start" x="175.5" y="-66.5" font-family="Helvetica,sans-Serif" font-size="10.00">SpatialIndex::within</text>
<text text-anchor="middle" x="224" y="-55.5" font-family="Helvetica,sans-Serif" font-size="10.00">_radius</text>
</a>
</g>
</g>
<!-- Node1&#45;&gt;Node13 -->
<g id="edge12_Node000001_Node000013" class="edge">
<title>Node1&#45;&gt;Node13</title>
<g id="a_edge12_Node000001_Node000013"><a xlink:title=" ">
<path fill="none" stroke="#63b8ff" d="M394.88,-236.99C380.83,-204.22 347.86,-136.88 300,-98 294.26,-93.34 287.68,-89.36 280.85,-85.99"/>
<polygon fill="#63b8ff" stroke="#63b8ff" points="391.69,-238.45 398.77,-246.34 398.16,-235.76 391.69,-238.45"/>
</a>
</g>
</g>
<!-- Node14 -->
<g id="Node000014" class="node">
<title>Node14</title>
<g id="a_Node000014"><a xlink:href="classMayaFlux_1_1Kinesis_1_1SpatialIndex_ae1988939a5649fbd2b64bf1eace90b75.html#ae1988939a5649fbd2b64bf1eace90b75" target="_top" xlink:title=" ">
<polygon fill="white" stroke="#666666" points="300,-30 148,-30 148,0 300,0 300,-30"/>
<text text-anchor="start" x="156" y="-18" font-family="Helvetica,sans-Serif" font-size="10.00">MayaFlux::Kinesis::</text>
<text text-anchor="middle" x="224" y="-7" font-family="Helvetica,sans-Serif" font-size="10.00">SpatialIndex::~SpatialIndex</text>
</a>
</g>
</g>
<!-- Node1&#45;&gt;Node14 -->
<g id="edge13_Node000001_Node000014" class="edge">
<title>Node1&#45;&gt;Node14</title>
<g id="a_edge13_Node000001_Node000014"><a xlink:title=" ">
<path fill="none" stroke="#63b8ff" d="M398.69,-236.18C389.51,-193.73 362.13,-93.45 300,-39 296.09,-35.58 291.69,-32.64 287.03,-30.12"/>
<polygon fill="#63b8ff" stroke="#63b8ff" points="395.29,-237.02 400.73,-246.11 402.15,-235.61 395.29,-237.02"/>
</a>
</g>
</g>
<!-- Node3 -->
<g id="Node000003" class="node">
<title>Node3</title>
<g id="a_Node000003"><a xlink:href="namespaceMayaFlux_1_1Kinesis_a5a36f26c085444ed8511f50f6159d39b.html#a5a36f26c085444ed8511f50f6159d39b" target="_top" xlink:title="Find the closest entity to a ray within a tolerance radius.">
<polygon fill="white" stroke="#666666" points="112,-535 0,-535 0,-505 112,-505 112,-535"/>
<text text-anchor="start" x="8" y="-523" font-family="Helvetica,sans-Serif" font-size="10.00">MayaFlux::Kinesis::</text>
<text text-anchor="middle" x="56" y="-512" font-family="Helvetica,sans-Serif" font-size="10.00">ray_cast</text>
</a>
</g>
</g>
<!-- Node2&#45;&gt;Node3 -->
<g id="edge2_Node000002_Node000003" class="edge">
<title>Node2&#45;&gt;Node3</title>
<g id="a_edge2_Node000002_Node000003"><a xlink:title=" ">
<path fill="none" stroke="#63b8ff" d="M157.46,-505.47C142.42,-507.65 126.58,-509.94 112.03,-512.04"/>
<polygon fill="#63b8ff" stroke="#63b8ff" points="158.33,-508.89 167.72,-503.99 157.33,-501.96 158.33,-508.89"/>
</a>
</g>
</g>
<!-- Node4 -->
<g id="Node000004" class="node">
<title>Node4</title>
<g id="a_Node000004"><a xlink:href="namespaceMayaFlux_1_1Kinesis_a068b80d919048ce2499a77888bf238c8.html#a068b80d919048ce2499a77888bf238c8" target="_top" xlink:title="Find all entities within tolerance of a ray, sorted by distance.">
<polygon fill="white" stroke="#666666" points="112,-487 0,-487 0,-457 112,-457 112,-487"/>
<text text-anchor="start" x="8" y="-475" font-family="Helvetica,sans-Serif" font-size="10.00">MayaFlux::Kinesis::</text>
<text text-anchor="middle" x="56" y="-464" font-family="Helvetica,sans-Serif" font-size="10.00">ray_cast_all</text>
</a>
</g>
</g>
<!-- Node2&#45;&gt;Node4 -->
<g id="edge3_Node000002_Node000004" class="edge">
<title>Node2&#45;&gt;Node4</title>
<g id="a_edge3_Node000002_Node000004"><a xlink:title=" ">
<path fill="none" stroke="#63b8ff" d="M157.46,-486.53C142.42,-484.35 126.58,-482.06 112.03,-479.96"/>
<polygon fill="#63b8ff" stroke="#63b8ff" points="157.33,-490.04 167.72,-488.01 158.33,-483.11 157.33,-490.04"/>
</a>
</g>
</g>
</g>
</svg>

<g id="navigator" transform="translate(0 0)" fill="#404254">
  <rect fill="#f2f5e9" fill-opacity="0.5" stroke="#606060" stroke-width=".5" x="0" y="0" width="60" height="60"/>
  <use id="zoomplus" xlink:href="#zoomPlus" x="17" y="9" onmousedown="handleZoom(evt,'in')"/>
  <use id="zoomminus" xlink:href="#zoomMin" x="42" y="9" onmousedown="handleZoom(evt,'out')"/>
  <use id="reset" xlink:href="#resetDef" x="30" y="36" onmousedown="handleReset()"/>
   <use id="arrowup" xlink:href="#arrowUp" x="0" y="0" onmousedown="handlePan(0,-1)"/>
  <use id="arrowright" xlink:href="#arrowRight" x="0" y="0" onmousedown="handlePan(1,0)"/>
  <use id="arrowdown" xlink:href="#arrowDown" x="0" y="0" onmousedown="handlePan(0,1)"/>
  <use id="arrowleft" xlink:href="#arrowLeft" x="0" y="0" onmousedown="handlePan(-1,0)"/>
</g>
<svg viewBox="0 0 15 15" width="100%" height="30px" preserveAspectRatio="xMaxYMin meet">
 <g id="arrow_out" transform="scale(0.3 0.3)">
  <a xlink:href="namespaceMayaFlux_1_1Kinesis_a31247312c35641202ffc7008252f088d_a31247312c35641202ffc7008252f088d_icgraph_org.svg" target="_base">
   <rect id="button" ry="5" rx="5" y="6" x="6" height="38" width="38"
        fill="#f2f5e9" fill-opacity="0.5" stroke="#606060" stroke-width="1.0"/>
   <path id="arrow"
     d="M 11.500037,31.436501 C 11.940474,20.09759 22.043105,11.32322 32.158766,21.979434 L 37.068811,17.246167 C 37.068811,17.246167 37.088388,32 37.088388,32 L 22.160133,31.978069 C 22.160133,31.978069 26.997745,27.140456 26.997745,27.140456 C 18.528582,18.264221 13.291696,25.230495 11.500037,31.436501 z"
     style="fill:#404040;"/>
  </a>
 </g>
</svg>

<style type='text/css'>
<![CDATA[
[data-mouse-over-selected='false'] { opacity: 0.7; }
[data-mouse-over-selected='true']  { opacity: 1.0; }
]]>
</style>
<script type="application/ecmascript"><![CDATA[
document.addEventListener('DOMContentLoaded', (event) => {
  highlightEdges();
  highlightAdjacentNodes();
});
]]></script>
</svg>
