<?xml version="1.0" encoding="UTF-8" standalone="no"?>
<!DOCTYPE svg PUBLIC "-//W3C//DTD SVG 1.1//EN"
 "http://www.w3.org/Graphics/SVG/1.1/DTD/svg11.dtd">
<!-- Generated by graphviz version 2.43.0 (0)
 -->
<!-- Title: MayaFlux::Start Pages: 1 -->
<svg width="913pt" height="176pt"
 viewBox="0.00 0.00 913.00 176.00" xmlns="http://www.w3.org/2000/svg" xmlns:xlink="http://www.w3.org/1999/xlink">
<g id="graph0" class="graph" transform="scale(1 1) rotate(0) translate(4 172)">
<title>MayaFlux::Start</title>
<!-- Node1 -->
<g id="Node000001" class="node">
<title>Node1</title>
<g id="a_Node000001"><a xlink:title="Starts audio processing on the default engine.">
<polygon fill="#999999" stroke="#666666" points="94,-93.5 0,-93.5 0,-74.5 94,-74.5 94,-93.5"/>
<text text-anchor="middle" x="47" y="-81.5" font-family="Helvetica,sans-Serif" font-size="10.00">MayaFlux::Start</text>
</a>
</g>
</g>
<!-- Node2 -->
<g id="Node000002" class="node">
<title>Node2</title>
<g id="a_Node000002"><a xlink:href="namespaceMayaFlux_ac4ab74951370ff0dd899203f3b94c775.html#ac4ab74951370ff0dd899203f3b94c775" target="_top" xlink:title="Gets the default engine instance.">
<polygon fill="white" stroke="#666666" points="260,-126.5 132,-126.5 132,-107.5 260,-107.5 260,-126.5"/>
<text text-anchor="middle" x="196" y="-114.5" font-family="Helvetica,sans-Serif" font-size="10.00">MayaFlux::get_context</text>
</a>
</g>
</g>
<!-- Node1&#45;&gt;Node2 -->
<g id="edge1_Node000001_Node000002" class="edge">
<title>Node1&#45;&gt;Node2</title>
<g id="a_edge1_Node000001_Node000002"><a xlink:title=" ">
<path fill="none" stroke="#63b8ff" d="M90.52,-93.54C106.82,-97.2 125.61,-101.42 142.73,-105.27"/>
<polygon fill="#63b8ff" stroke="#63b8ff" points="142.05,-108.7 152.58,-107.48 143.59,-101.87 142.05,-108.7"/>
</a>
</g>
</g>
<!-- Node9 -->
<g id="Node000009" class="node">
<title>Node9</title>
<g id="a_Node000009"><a xlink:href="classMayaFlux_1_1Core_1_1Engine_a780dcd6b2f3da01d574cba6e475e087c.html#a780dcd6b2f3da01d574cba6e475e087c" target="_top" xlink:title="Starts the coordinated processing of all subsystems.">
<polygon fill="white" stroke="#666666" points="262,-78 130,-78 130,-48 262,-48 262,-78"/>
<text text-anchor="start" x="138" y="-66" font-family="Helvetica,sans-Serif" font-size="10.00">MayaFlux::Core::Engine</text>
<text text-anchor="middle" x="196" y="-55" font-family="Helvetica,sans-Serif" font-size="10.00">::Start</text>
</a>
</g>
</g>
<!-- Node1&#45;&gt;Node9 -->
<g id="edge8_Node000001_Node000009" class="edge">
<title>Node1&#45;&gt;Node9</title>
<g id="a_edge8_Node000001_Node000009"><a xlink:title=" ">
<path fill="none" stroke="#63b8ff" d="M94.11,-77.41C102.37,-76.23 111.16,-74.98 119.99,-73.72"/>
<polygon fill="#63b8ff" stroke="#63b8ff" points="120.54,-77.17 129.94,-72.29 119.55,-70.24 120.54,-77.17"/>
</a>
</g>
</g>
<!-- Node3 -->
<g id="Node000003" class="node">
<title>Node3</title>
<g id="a_Node000003"><a xlink:href="namespaceMayaFlux_1_1internal_ac0f0b4b1cae6af4441db0ea022e15583.html#ac0f0b4b1cae6af4441db0ea022e15583" target="_top" xlink:title=" ">
<polygon fill="white" stroke="#666666" points="430,-144 302,-144 302,-114 430,-114 430,-144"/>
<text text-anchor="start" x="310" y="-132" font-family="Helvetica,sans-Serif" font-size="10.00">MayaFlux::internal</text>
<text text-anchor="middle" x="366" y="-121" font-family="Helvetica,sans-Serif" font-size="10.00">::get_or_create_engine</text>
</a>
</g>
</g>
<!-- Node2&#45;&gt;Node3 -->
<g id="edge2_Node000002_Node000003" class="edge">
<title>Node2&#45;&gt;Node3</title>
<g id="a_edge2_Node000002_Node000003"><a xlink:title=" ">
<path fill="none" stroke="#63b8ff" d="M260.03,-121.5C270.41,-122.24 281.23,-123.02 291.83,-123.77"/>
<polygon fill="#63b8ff" stroke="#63b8ff" points="291.67,-127.27 301.89,-124.49 292.17,-120.29 291.67,-127.27"/>
</a>
</g>
</g>
<!-- Node4 -->
<g id="Node000004" class="node">
<title>Node4</title>
<g id="a_Node000004"><a xlink:href="namespaceMayaFlux_1_1internal_a3cc5413e05c2f9c9f04372841aa0a5b1.html#a3cc5413e05c2f9c9f04372841aa0a5b1" target="_top" xlink:title=" ">
<polygon fill="white" stroke="#666666" points="578,-144 470,-144 470,-114 578,-114 578,-144"/>
<text text-anchor="start" x="478" y="-132" font-family="Helvetica,sans-Serif" font-size="10.00">MayaFlux::internal</text>
<text text-anchor="middle" x="524" y="-121" font-family="Helvetica,sans-Serif" font-size="10.00">::cleanup_engine</text>
</a>
</g>
</g>
<!-- Node3&#45;&gt;Node4 -->
<g id="edge3_Node000003_Node000004" class="edge">
<title>Node3&#45;&gt;Node4</title>
<g id="a_edge3_Node000003_Node000004"><a xlink:title=" ">
<path fill="none" stroke="#63b8ff" d="M430,-129C439.79,-129 449.91,-129 459.71,-129"/>
<polygon fill="#63b8ff" stroke="#63b8ff" points="459.77,-132.5 469.77,-129 459.77,-125.5 459.77,-132.5"/>
</a>
</g>
</g>
<!-- Node5 -->
<g id="Node000005" class="node">
<title>Node5</title>
<g id="a_Node000005"><a xlink:href="namespaceMayaFlux_1_1internal_ac4d6952d58cdfd56964a883d40aa655d.html#ac4d6952d58cdfd56964a883d40aa655d" target="_top" xlink:title=" ">
<polygon fill="white" stroke="#666666" points="759,-168 614,-168 614,-138 759,-138 759,-168"/>
<text text-anchor="start" x="622" y="-156" font-family="Helvetica,sans-Serif" font-size="10.00">MayaFlux::internal</text>
<text text-anchor="middle" x="686.5" y="-145" font-family="Helvetica,sans-Serif" font-size="10.00">::cleanup_persistent_store</text>
</a>
</g>
</g>
<!-- Node4&#45;&gt;Node5 -->
<g id="edge4_Node000004_Node000005" class="edge">
<title>Node4&#45;&gt;Node5</title>
<g id="a_edge4_Node000004_Node000005"><a xlink:title=" ">
<path fill="none" stroke="#63b8ff" d="M578.44,-136.99C586.57,-138.21 595.11,-139.48 603.68,-140.77"/>
<polygon fill="#63b8ff" stroke="#63b8ff" points="603.31,-144.25 613.72,-142.27 604.35,-137.33 603.31,-144.25"/>
</a>
</g>
</g>
<!-- Node7 -->
<g id="Node000007" class="node">
<title>Node7</title>
<g id="a_Node000007"><a xlink:href="classMayaFlux_1_1Journal_1_1Archivist_a82e2d12db8781df4afc43ef4c1fba2be.html#a82e2d12db8781df4afc43ef4c1fba2be" target="_top" xlink:title="Shutdown the logging system.">
<polygon fill="white" stroke="#666666" points="743,-120 630,-120 630,-90 743,-90 743,-120"/>
<text text-anchor="start" x="638" y="-108" font-family="Helvetica,sans-Serif" font-size="10.00">MayaFlux::Journal::</text>
<text text-anchor="middle" x="686.5" y="-97" font-family="Helvetica,sans-Serif" font-size="10.00">Archivist::shutdown</text>
</a>
</g>
</g>
<!-- Node4&#45;&gt;Node7 -->
<g id="edge6_Node000004_Node000007" class="edge">
<title>Node4&#45;&gt;Node7</title>
<g id="a_edge6_Node000004_Node000007"><a xlink:title=" ">
<path fill="none" stroke="#63b8ff" d="M578.44,-121.01C591.73,-119.02 606.11,-116.87 619.91,-114.81"/>
<polygon fill="#63b8ff" stroke="#63b8ff" points="620.44,-118.27 629.82,-113.33 619.41,-111.34 620.44,-118.27"/>
</a>
</g>
</g>
<!-- Node6 -->
<g id="Node000006" class="node">
<title>Node6</title>
<g id="a_Node000006"><a xlink:href="namespaceMayaFlux_1_1internal_ac26a7a92aa4af34c366aad03b68ea71e.html#ac26a7a92aa4af34c366aad03b68ea71e" target="_top" xlink:title=" ">
<polygon fill="white" stroke="#666666" points="904,-168 796,-168 796,-138 904,-138 904,-168"/>
<text text-anchor="start" x="804" y="-156" font-family="Helvetica,sans-Serif" font-size="10.00">MayaFlux::internal</text>
<text text-anchor="middle" x="850" y="-145" font-family="Helvetica,sans-Serif" font-size="10.00">::persistent_store</text>
</a>
</g>
</g>
<!-- Node5&#45;&gt;Node6 -->
<g id="edge5_Node000005_Node000006" class="edge">
<title>Node5&#45;&gt;Node6</title>
<g id="a_edge5_Node000005_Node000006"><a xlink:title=" ">
<path fill="none" stroke="#63b8ff" d="M759.28,-153C768.12,-153 777.1,-153 785.8,-153"/>
<polygon fill="#63b8ff" stroke="#63b8ff" points="785.86,-156.5 795.86,-153 785.86,-149.5 785.86,-156.5"/>
</a>
</g>
</g>
<!-- Node8 -->
<g id="Node000008" class="node">
<title>Node8</title>
<g id="a_Node000008"><a xlink:href="classMayaFlux_1_1Journal_1_1Archivist_a8b7829e34d79ec5bbbf02e3d4afbdab9.html#a8b7829e34d79ec5bbbf02e3d4afbdab9" target="_top" xlink:title="Get the singleton instance of the Archivist.">
<polygon fill="white" stroke="#666666" points="905,-120 795,-120 795,-90 905,-90 905,-120"/>
<text text-anchor="start" x="803" y="-108" font-family="Helvetica,sans-Serif" font-size="10.00">MayaFlux::Journal::</text>
<text text-anchor="middle" x="850" y="-97" font-family="Helvetica,sans-Serif" font-size="10.00">Archivist::instance</text>
</a>
</g>
</g>
<!-- Node7&#45;&gt;Node8 -->
<g id="edge7_Node000007_Node000008" class="edge">
<title>Node7&#45;&gt;Node8</title>
<g id="a_edge7_Node000007_Node000008"><a xlink:title=" ">
<path fill="none" stroke="#63b8ff" d="M743.08,-105C756.46,-105 770.86,-105 784.6,-105"/>
<polygon fill="#63b8ff" stroke="#63b8ff" points="784.96,-108.5 794.96,-105 784.96,-101.5 784.96,-108.5"/>
</a>
</g>
</g>
<!-- Node10 -->
<g id="Node000010" class="node">
<title>Node10</title>
<g id="a_Node000010"><a xlink:href="classMayaFlux_1_1Core_1_1Engine_a0044b71bc1b400d9339a6e91312da074.html#a0044b71bc1b400d9339a6e91312da074" target="_top" xlink:title="Initializes all system components and prepares for processing.">
<polygon fill="white" stroke="#666666" points="432,-78 300,-78 300,-48 432,-48 432,-78"/>
<text text-anchor="start" x="308" y="-66" font-family="Helvetica,sans-Serif" font-size="10.00">MayaFlux::Core::Engine</text>
<text text-anchor="middle" x="366" y="-55" font-family="Helvetica,sans-Serif" font-size="10.00">::Init</text>
</a>
</g>
</g>
<!-- Node9&#45;&gt;Node10 -->
<g id="edge9_Node000009_Node000010" class="edge">
<title>Node9&#45;&gt;Node10</title>
<g id="a_edge9_Node000009_Node000010"><a xlink:title=" ">
<path fill="none" stroke="#63b8ff" d="M262.43,-63C271.34,-63 280.53,-63 289.59,-63"/>
<polygon fill="#63b8ff" stroke="#63b8ff" points="289.74,-66.5 299.74,-63 289.74,-59.5 289.74,-66.5"/>
</a>
</g>
</g>
<!-- Node11 -->
<g id="Node000011" class="node">
<title>Node11</title>
<g id="a_Node000011"><a xlink:href="namespaceMayaFlux_1_1Portal_1_1Forma_ae884428847183df6ad7f10994ff55095.html#ae884428847183df6ad7f10994ff55095" target="_top" xlink:title="Store engine&#45;level references for use by all subsequent Forma calls.">
<polygon fill="white" stroke="#666666" points="434,-30 298,-30 298,0 434,0 434,-30"/>
<text text-anchor="start" x="306" y="-18" font-family="Helvetica,sans-Serif" font-size="10.00">MayaFlux::Portal::Forma</text>
<text text-anchor="middle" x="366" y="-7" font-family="Helvetica,sans-Serif" font-size="10.00">::initialize</text>
</a>
</g>
</g>
<!-- Node9&#45;&gt;Node11 -->
<g id="edge11_Node000009_Node000011" class="edge">
<title>Node9&#45;&gt;Node11</title>
<g id="a_edge11_Node000009_Node000011"><a xlink:title=" ">
<path fill="none" stroke="#63b8ff" d="M249.7,-47.94C266.43,-43.16 285.09,-37.83 302.45,-32.87"/>
<polygon fill="#63b8ff" stroke="#63b8ff" points="303.84,-36.11 312.49,-30 301.91,-29.38 303.84,-36.11"/>
</a>
</g>
</g>
<!-- Node10&#45;&gt;Node10 -->
<g id="edge10_Node000010_Node000010" class="edge">
<title>Node10&#45;&gt;Node10</title>
<g id="a_edge10_Node000010_Node000010"><a xlink:title=" ">
<path fill="none" stroke="#63b8ff" d="M338.23,-78.28C332.05,-87.41 341.31,-96 366,-96 380.66,-96 389.88,-92.97 393.66,-88.6"/>
<polygon fill="#63b8ff" stroke="#63b8ff" points="397.16,-88.31 393.77,-78.28 390.16,-88.23 397.16,-88.31"/>
</a>
</g>
</g>
</g>
</svg>
