<?xml version="1.0" encoding="UTF-8" standalone="no"?>
<!DOCTYPE svg PUBLIC "-//W3C//DTD SVG 1.1//EN"
 "http://www.w3.org/Graphics/SVG/1.1/DTD/svg11.dtd">
<!-- Generated by graphviz version 2.43.0 (0)
 -->
<!-- Title: NetworkGeometryProcessor.hpp Pages: 1 -->
<svg width="438pt" height="192pt"
 viewBox="0.00 0.00 438.00 192.00" xmlns="http://www.w3.org/2000/svg" xmlns:xlink="http://www.w3.org/1999/xlink">
<g id="graph0" class="graph" transform="scale(1 1) rotate(0) translate(4 188)">
<title>NetworkGeometryProcessor.hpp</title>
<!-- Node1 -->
<g id="Node000001" class="node">
<title>Node1</title>
<g id="a_Node000001"><a xlink:title=" ">
<polygon fill="#999999" stroke="#666666" points="338.5,-184 164.5,-184 164.5,-165 338.5,-165 338.5,-184"/>
<text text-anchor="middle" x="251.5" y="-172" font-family="Helvetica,sans-Serif" font-size="10.00">NetworkGeometryProcessor.hpp</text>
</a>
</g>
</g>
<!-- Node2 -->
<g id="Node000002" class="node">
<title>Node2</title>
<g id="a_Node000002"><a xlink:href="NetworkGeometryBuffer_8hpp.html" target="_top" xlink:title=" ">
<polygon fill="white" stroke="#666666" points="238.5,-129 82.5,-129 82.5,-110 238.5,-110 238.5,-129"/>
<text text-anchor="middle" x="160.5" y="-117" font-family="Helvetica,sans-Serif" font-size="10.00">NetworkGeometryBuffer.hpp</text>
</a>
</g>
</g>
<!-- Node1&#45;&gt;Node2 -->
<g id="edge1_Node000001_Node000002" class="edge">
<title>Node1&#45;&gt;Node2</title>
<g id="a_edge1_Node000001_Node000002"><a xlink:title=" ">
<path fill="none" stroke="#63b8ff" d="M227.8,-159.7C211.22,-150.04 189.59,-137.44 175.39,-129.17"/>
<polygon fill="#63b8ff" stroke="#63b8ff" points="226.48,-162.98 236.88,-164.98 230,-156.93 226.48,-162.98"/>
</a>
</g>
</g>
<!-- Node6 -->
<g id="Node000006" class="node">
<title>Node6</title>
<g id="a_Node000006"><a xlink:href="NetworkGeometryProcessor_8cpp.html" target="_top" xlink:title=" ">
<polygon fill="white" stroke="#666666" points="430,-129 257,-129 257,-110 430,-110 430,-129"/>
<text text-anchor="middle" x="343.5" y="-117" font-family="Helvetica,sans-Serif" font-size="10.00">NetworkGeometryProcessor.cpp</text>
</a>
</g>
</g>
<!-- Node1&#45;&gt;Node6 -->
<g id="edge5_Node000001_Node000006" class="edge">
<title>Node1&#45;&gt;Node6</title>
<g id="a_edge5_Node000001_Node000006"><a xlink:title=" ">
<path fill="none" stroke="#63b8ff" d="M274.99,-159.97C291.81,-150.28 313.95,-137.52 328.45,-129.17"/>
<polygon fill="#63b8ff" stroke="#63b8ff" points="273.2,-156.96 266.28,-164.98 276.69,-163.03 273.2,-156.96"/>
</a>
</g>
</g>
<!-- Node3 -->
<g id="Node000003" class="node">
<title>Node3</title>
<g id="a_Node000003"><a xlink:href="NetworkGeometryBuffer_8cpp.html" target="_top" xlink:title=" ">
<polygon fill="white" stroke="#666666" points="155,-74 0,-74 0,-55 155,-55 155,-74"/>
<text text-anchor="middle" x="77.5" y="-62" font-family="Helvetica,sans-Serif" font-size="10.00">NetworkGeometryBuffer.cpp</text>
</a>
</g>
</g>
<!-- Node2&#45;&gt;Node3 -->
<g id="edge2_Node000002_Node000003" class="edge">
<title>Node2&#45;&gt;Node3</title>
<g id="a_edge2_Node000002_Node000003"><a xlink:title=" ">
<path fill="none" stroke="#63b8ff" d="M138.46,-104.42C123.39,-94.81 103.91,-82.37 91.08,-74.17"/>
<polygon fill="#63b8ff" stroke="#63b8ff" points="136.85,-107.55 147.16,-109.98 140.62,-101.65 136.85,-107.55"/>
</a>
</g>
</g>
<!-- Node4 -->
<g id="Node000004" class="node">
<title>Node4</title>
<g id="a_Node000004"><a xlink:href="NetworkTextureBuffer_8hpp.html" target="_top" xlink:title=" ">
<polygon fill="white" stroke="#666666" points="316,-74 173,-74 173,-55 316,-55 316,-74"/>
<text text-anchor="middle" x="244.5" y="-62" font-family="Helvetica,sans-Serif" font-size="10.00">NetworkTextureBuffer.hpp</text>
</a>
</g>
</g>
<!-- Node2&#45;&gt;Node4 -->
<g id="edge3_Node000002_Node000004" class="edge">
<title>Node2&#45;&gt;Node4</title>
<g id="a_edge3_Node000002_Node000004"><a xlink:title=" ">
<path fill="none" stroke="#63b8ff" d="M182.81,-104.42C198.05,-94.81 217.77,-82.37 230.76,-74.17"/>
<polygon fill="#63b8ff" stroke="#63b8ff" points="180.59,-101.69 174,-109.98 184.32,-107.61 180.59,-101.69"/>
</a>
</g>
</g>
<!-- Node5 -->
<g id="Node000005" class="node">
<title>Node5</title>
<g id="a_Node000005"><a xlink:href="NetworkTextureBuffer_8cpp.html" target="_top" xlink:title=" ">
<polygon fill="white" stroke="#666666" points="316,-19 173,-19 173,0 316,0 316,-19"/>
<text text-anchor="middle" x="244.5" y="-7" font-family="Helvetica,sans-Serif" font-size="10.00">NetworkTextureBuffer.cpp</text>
</a>
</g>
</g>
<!-- Node4&#45;&gt;Node5 -->
<g id="edge4_Node000004_Node000005" class="edge">
<title>Node4&#45;&gt;Node5</title>
<g id="a_edge4_Node000004_Node000005"><a xlink:title=" ">
<path fill="none" stroke="#63b8ff" d="M244.5,-44.66C244.5,-35.93 244.5,-25.99 244.5,-19.09"/>
<polygon fill="#63b8ff" stroke="#63b8ff" points="241,-44.75 244.5,-54.75 248,-44.75 241,-44.75"/>
</a>
</g>
</g>
</g>
</svg>
