<?xml version="1.0" encoding="UTF-8" standalone="no"?>
<!DOCTYPE svg PUBLIC "-//W3C//DTD SVG 1.1//EN"
 "http://www.w3.org/Graphics/SVG/1.1/DTD/svg11.dtd">
<!-- Generated by graphviz version 2.43.0 (0)
 -->
<!-- Title: NetworkGeometryProcessor.hpp Pages: 1 -->
<svg width="806pt" height="390pt"
 viewBox="0.00 0.00 805.50 390.00" xmlns="http://www.w3.org/2000/svg" xmlns:xlink="http://www.w3.org/1999/xlink">
<g id="graph0" class="graph" transform="scale(1 1) rotate(0) translate(4 386)">
<title>NetworkGeometryProcessor.hpp</title>
<!-- Node1 -->
<g id="Node000001" class="node">
<title>Node1</title>
<g id="a_Node000001"><a xlink:title=" ">
<polygon fill="#999999" stroke="#666666" points="463,-382 289,-382 289,-363 463,-363 463,-382"/>
<text text-anchor="middle" x="376" y="-370" font-family="Helvetica,sans-Serif" font-size="10.00">NetworkGeometryProcessor.hpp</text>
</a>
</g>
</g>
<!-- Node2 -->
<g id="Node000002" class="node">
<title>Node2</title>
<g id="a_Node000002"><a xlink:href="VKBuffer_8hpp.html" target="_top" xlink:title=" ">
<polygon fill="white" stroke="#666666" points="373,-321.5 205,-321.5 205,-302.5 373,-302.5 373,-321.5"/>
<text text-anchor="middle" x="289" y="-309.5" font-family="Helvetica,sans-Serif" font-size="10.00">MayaFlux/Buffers/VKBuffer.hpp</text>
</a>
</g>
</g>
<!-- Node1&#45;&gt;Node2 -->
<g id="edge1_Node000001_Node000002" class="edge">
<title>Node1&#45;&gt;Node2</title>
<g id="a_edge1_Node000001_Node000002"><a xlink:title=" ">
<path fill="none" stroke="#63b8ff" d="M363.16,-362.87C349.28,-353.54 326.93,-338.51 310.39,-327.38"/>
<polygon fill="#63b8ff" stroke="#63b8ff" points="312.14,-324.34 301.89,-321.67 308.24,-330.15 312.14,-324.34"/>
</a>
</g>
</g>
<!-- Node13 -->
<g id="Node000013" class="node">
<title>Node13</title>
<g id="a_Node000013"><a xlink:href="PointNode_8hpp.html" target="_top" xlink:title=" ">
<polygon fill="white" stroke="#666666" points="589,-327 445,-327 445,-297 589,-297 589,-327"/>
<text text-anchor="start" x="453" y="-315" font-family="Helvetica,sans-Serif" font-size="10.00">MayaFlux/Nodes/Graphics</text>
<text text-anchor="middle" x="517" y="-304" font-family="Helvetica,sans-Serif" font-size="10.00">/PointNode.hpp</text>
</a>
</g>
</g>
<!-- Node1&#45;&gt;Node13 -->
<g id="edge14_Node000001_Node000013" class="edge">
<title>Node1&#45;&gt;Node13</title>
<g id="a_edge14_Node000001_Node000013"><a xlink:title=" ">
<path fill="none" stroke="#63b8ff" d="M396.5,-362.99C416.62,-354.65 447.92,-341.66 473.58,-331.02"/>
<polygon fill="#63b8ff" stroke="#63b8ff" points="475.21,-334.13 483.1,-327.06 472.52,-327.66 475.21,-334.13"/>
</a>
</g>
</g>
<!-- Node3 -->
<g id="Node000003" class="node">
<title>Node3</title>
<g id="a_Node000003"><a xlink:href="Buffer_8hpp.html" target="_top" xlink:title=" ">
<polygon fill="white" stroke="#666666" points="322,-255.5 256,-255.5 256,-236.5 322,-236.5 322,-255.5"/>
<text text-anchor="middle" x="289" y="-243.5" font-family="Helvetica,sans-Serif" font-size="10.00">Buffer.hpp</text>
</a>
</g>
</g>
<!-- Node2&#45;&gt;Node3 -->
<g id="edge2_Node000002_Node000003" class="edge">
<title>Node2&#45;&gt;Node3</title>
<g id="a_edge2_Node000002_Node000003"><a xlink:title=" ">
<path fill="none" stroke="#63b8ff" d="M289,-302.37C289,-293.16 289,-278.29 289,-266.27"/>
<polygon fill="#63b8ff" stroke="#63b8ff" points="292.5,-265.91 289,-255.91 285.5,-265.91 292.5,-265.91"/>
</a>
</g>
</g>
<!-- Node4 -->
<g id="Node000004" class="node">
<title>Node4</title>
<g id="a_Node000004"><a xlink:href="BufferProcessor_8hpp.html" target="_top" xlink:title=" ">
<polygon fill="white" stroke="#666666" points="238,-255.5 36,-255.5 36,-236.5 238,-236.5 238,-255.5"/>
<text text-anchor="middle" x="137" y="-243.5" font-family="Helvetica,sans-Serif" font-size="10.00">MayaFlux/Buffers/BufferProcessor.hpp</text>
</a>
</g>
</g>
<!-- Node2&#45;&gt;Node4 -->
<g id="edge3_Node000002_Node000004" class="edge">
<title>Node2&#45;&gt;Node4</title>
<g id="a_edge3_Node000002_Node000004"><a xlink:title=" ">
<path fill="none" stroke="#63b8ff" d="M268.5,-302.37C242.44,-291.39 197.22,-272.36 167.21,-259.72"/>
<polygon fill="#63b8ff" stroke="#63b8ff" points="168.23,-256.35 157.66,-255.7 165.52,-262.81 168.23,-256.35"/>
</a>
</g>
</g>
<!-- Node6 -->
<g id="Node000006" class="node">
<title>Node6</title>
<g id="a_Node000006"><a xlink:href="ProcessingTokens_8hpp.html" target="_top" xlink:title=" ">
<polygon fill="white" stroke="#666666" points="146,-140 0,-140 0,-110 146,-110 146,-140"/>
<text text-anchor="start" x="8" y="-128" font-family="Helvetica,sans-Serif" font-size="10.00">MayaFlux/Core/Processing</text>
<text text-anchor="middle" x="73" y="-117" font-family="Helvetica,sans-Serif" font-size="10.00">Tokens.hpp</text>
</a>
</g>
</g>
<!-- Node2&#45;&gt;Node6 -->
<g id="edge9_Node000002_Node000006" class="edge">
<title>Node2&#45;&gt;Node6</title>
<g id="a_edge9_Node000002_Node000006"><a xlink:title=" ">
<path fill="none" stroke="#63b8ff" d="M204.85,-306.32C137.01,-300.58 49.36,-288.03 27,-261 -0.58,-227.66 30.93,-176.93 53.71,-148.09"/>
<polygon fill="#63b8ff" stroke="#63b8ff" points="56.51,-150.18 60.13,-140.23 51.09,-145.75 56.51,-150.18"/>
</a>
</g>
</g>
<!-- Node10 -->
<g id="Node000010" class="node">
<title>Node10</title>
<g id="a_Node000010"><a xlink:href="ShaderUtils_8hpp.html" target="_top" xlink:title=" ">
<polygon fill="white" stroke="#666666" points="482,-261 340,-261 340,-231 482,-231 482,-261"/>
<text text-anchor="start" x="348" y="-249" font-family="Helvetica,sans-Serif" font-size="10.00">MayaFlux/Portal/Graphics</text>
<text text-anchor="middle" x="411" y="-238" font-family="Helvetica,sans-Serif" font-size="10.00">/ShaderUtils.hpp</text>
</a>
</g>
</g>
<!-- Node2&#45;&gt;Node10 -->
<g id="edge10_Node000002_Node000010" class="edge">
<title>Node2&#45;&gt;Node10</title>
<g id="a_edge10_Node000002_Node000010"><a xlink:title=" ">
<path fill="none" stroke="#63b8ff" d="M305.45,-302.37C323.17,-293.07 351.92,-277.99 374.95,-265.91"/>
<polygon fill="#63b8ff" stroke="#63b8ff" points="376.86,-268.86 384.09,-261.12 373.61,-262.66 376.86,-268.86"/>
</a>
</g>
</g>
<!-- Node5 -->
<g id="Node000005" class="node">
<title>Node5</title>
<g id="a_Node000005"><a xlink:href="BufferUtils_8hpp.html" target="_top" xlink:title=" ">
<polygon fill="white" stroke="#666666" points="181.5,-195 92.5,-195 92.5,-176 181.5,-176 181.5,-195"/>
<text text-anchor="middle" x="137" y="-183" font-family="Helvetica,sans-Serif" font-size="10.00">BufferUtils.hpp</text>
</a>
</g>
</g>
<!-- Node4&#45;&gt;Node5 -->
<g id="edge4_Node000004_Node000005" class="edge">
<title>Node4&#45;&gt;Node5</title>
<g id="a_edge4_Node000004_Node000005"><a xlink:title=" ">
<path fill="none" stroke="#63b8ff" d="M137,-236.37C137,-228.25 137,-215.81 137,-205.39"/>
<polygon fill="#63b8ff" stroke="#63b8ff" points="140.5,-205.17 137,-195.17 133.5,-205.17 140.5,-205.17"/>
</a>
</g>
</g>
<!-- Node5&#45;&gt;Node6 -->
<g id="edge5_Node000005_Node000006" class="edge">
<title>Node5&#45;&gt;Node6</title>
<g id="a_edge5_Node000005_Node000006"><a xlink:title=" ">
<path fill="none" stroke="#63b8ff" d="M127.56,-175.87C119.27,-168.3 106.89,-156.98 96.01,-147.04"/>
<polygon fill="#63b8ff" stroke="#63b8ff" points="98.18,-144.28 88.44,-140.11 93.46,-149.44 98.18,-144.28"/>
</a>
</g>
</g>
<!-- Node7 -->
<g id="Node000007" class="node">
<title>Node7</title>
<g id="a_Node000007"><a xlink:href="VertexLayout_8hpp.html" target="_top" xlink:title=" ">
<polygon fill="white" stroke="#666666" points="450.5,-140 299.5,-140 299.5,-110 450.5,-110 450.5,-140"/>
<text text-anchor="start" x="307.5" y="-128" font-family="Helvetica,sans-Serif" font-size="10.00">MayaFlux/Kakshya/NDData</text>
<text text-anchor="middle" x="375" y="-117" font-family="Helvetica,sans-Serif" font-size="10.00">/VertexLayout.hpp</text>
</a>
</g>
</g>
<!-- Node5&#45;&gt;Node7 -->
<g id="edge6_Node000005_Node000007" class="edge">
<title>Node5&#45;&gt;Node7</title>
<g id="a_edge6_Node000005_Node000007"><a xlink:title=" ">
<path fill="none" stroke="#63b8ff" d="M171.61,-175.99C207.21,-167.24 263.56,-153.39 307.93,-142.48"/>
<polygon fill="#63b8ff" stroke="#63b8ff" points="308.91,-145.85 317.78,-140.06 307.23,-139.05 308.91,-145.85"/>
</a>
</g>
</g>
<!-- Node8 -->
<g id="Node000008" class="node">
<title>Node8</title>
<g id="a_Node000008"><a xlink:href="NDData_8hpp.html" target="_top" xlink:title=" ">
<polygon fill="white" stroke="#666666" points="413,-74 337,-74 337,-55 413,-55 413,-74"/>
<text text-anchor="middle" x="375" y="-62" font-family="Helvetica,sans-Serif" font-size="10.00">NDData.hpp</text>
</a>
</g>
</g>
<!-- Node7&#45;&gt;Node8 -->
<g id="edge7_Node000007_Node000008" class="edge">
<title>Node7&#45;&gt;Node8</title>
<g id="a_edge7_Node000007_Node000008"><a xlink:title=" ">
<path fill="none" stroke="#63b8ff" d="M375,-109.84C375,-102.21 375,-92.7 375,-84.45"/>
<polygon fill="#63b8ff" stroke="#63b8ff" points="378.5,-84.27 375,-74.27 371.5,-84.27 378.5,-84.27"/>
</a>
</g>
</g>
<!-- Node9 -->
<g id="Node000009" class="node">
<title>Node9</title>
<g id="a_Node000009"><a xlink:title=" ">
<polygon fill="#e0e0e0" stroke="#999999" points="414,-19 336,-19 336,0 414,0 414,-19"/>
<text text-anchor="middle" x="375" y="-7" font-family="Helvetica,sans-Serif" font-size="10.00">glm/glm.hpp</text>
</a>
</g>
</g>
<!-- Node8&#45;&gt;Node9 -->
<g id="edge8_Node000008_Node000009" class="edge">
<title>Node8&#45;&gt;Node9</title>
<g id="a_edge8_Node000008_Node000009"><a xlink:title=" ">
<path fill="none" stroke="#63b8ff" d="M375,-54.75C375,-47.8 375,-37.85 375,-29.13"/>
<polygon fill="#63b8ff" stroke="#63b8ff" points="378.5,-29.09 375,-19.09 371.5,-29.09 378.5,-29.09"/>
</a>
</g>
</g>
<!-- Node10&#45;&gt;Node7 -->
<g id="edge13_Node000010_Node000007" class="edge">
<title>Node10&#45;&gt;Node7</title>
<g id="a_edge13_Node000010_Node000007"><a xlink:title=" ">
<path fill="none" stroke="#63b8ff" d="M405.86,-230.63C402.37,-220.68 397.72,-207.09 394,-195 389.42,-180.1 384.77,-163.23 381.21,-149.9"/>
<polygon fill="#63b8ff" stroke="#63b8ff" points="384.55,-148.85 378.62,-140.08 377.78,-150.64 384.55,-148.85"/>
</a>
</g>
</g>
<!-- Node11 -->
<g id="Node000011" class="node">
<title>Node11</title>
<g id="a_Node000011"><a xlink:title=" ">
<polygon fill="#e0e0e0" stroke="#999999" points="346.5,-195 241.5,-195 241.5,-176 346.5,-176 346.5,-195"/>
<text text-anchor="middle" x="294" y="-183" font-family="Helvetica,sans-Serif" font-size="10.00">vulkan/vulkan.hpp</text>
</a>
</g>
</g>
<!-- Node10&#45;&gt;Node11 -->
<g id="edge11_Node000010_Node000011" class="edge">
<title>Node10&#45;&gt;Node11</title>
<g id="a_edge11_Node000010_Node000011"><a xlink:title=" ">
<path fill="none" stroke="#63b8ff" d="M382.98,-230.99C363.98,-221.49 339.03,-209.02 320.39,-199.69"/>
<polygon fill="#63b8ff" stroke="#63b8ff" points="321.79,-196.48 311.28,-195.14 318.66,-202.74 321.79,-196.48"/>
</a>
</g>
</g>
<!-- Node12 -->
<g id="Node000012" class="node">
<title>Node12</title>
<g id="a_Node000012"><a xlink:href="GraphicsUtils_8hpp.html" target="_top" xlink:title=" ">
<polygon fill="white" stroke="#666666" points="506.5,-195 403.5,-195 403.5,-176 506.5,-176 506.5,-195"/>
<text text-anchor="middle" x="455" y="-183" font-family="Helvetica,sans-Serif" font-size="10.00">GraphicsUtils.hpp</text>
</a>
</g>
</g>
<!-- Node10&#45;&gt;Node12 -->
<g id="edge12_Node000010_Node000012" class="edge">
<title>Node10&#45;&gt;Node12</title>
<g id="a_edge12_Node000010_Node000012"><a xlink:title=" ">
<path fill="none" stroke="#63b8ff" d="M421.65,-230.84C427.84,-222.61 435.69,-212.18 442.21,-203.51"/>
<polygon fill="#63b8ff" stroke="#63b8ff" points="445.19,-205.36 448.41,-195.27 439.6,-201.15 445.19,-205.36"/>
</a>
</g>
</g>
<!-- Node14 -->
<g id="Node000014" class="node">
<title>Node14</title>
<g id="a_Node000014"><a xlink:href="GeometryWriterNode_8hpp.html" target="_top" xlink:title=" ">
<polygon fill="white" stroke="#666666" points="642,-255.5 500,-255.5 500,-236.5 642,-236.5 642,-255.5"/>
<text text-anchor="middle" x="571" y="-243.5" font-family="Helvetica,sans-Serif" font-size="10.00">GeometryWriterNode.hpp</text>
</a>
</g>
</g>
<!-- Node13&#45;&gt;Node14 -->
<g id="edge15_Node000013_Node000014" class="edge">
<title>Node13&#45;&gt;Node14</title>
<g id="a_edge15_Node000013_Node000014"><a xlink:title=" ">
<path fill="none" stroke="#63b8ff" d="M528.98,-296.8C537.24,-287.01 548.24,-273.98 556.91,-263.7"/>
<polygon fill="#63b8ff" stroke="#63b8ff" points="559.76,-265.74 563.54,-255.84 554.41,-261.23 559.76,-265.74"/>
</a>
</g>
</g>
<!-- Node14&#45;&gt;Node12 -->
<g id="edge23_Node000014_Node000012" class="edge">
<title>Node14&#45;&gt;Node12</title>
<g id="a_edge23_Node000014_Node000012"><a xlink:title=" ">
<path fill="none" stroke="#63b8ff" d="M553.88,-236.37C534.78,-226.73 503.63,-211.03 481.4,-199.81"/>
<polygon fill="#63b8ff" stroke="#63b8ff" points="482.69,-196.55 472.19,-195.17 479.54,-202.8 482.69,-196.55"/>
</a>
</g>
</g>
<!-- Node15 -->
<g id="Node000015" class="node">
<title>Node15</title>
<g id="a_Node000015"><a xlink:href="GpuSync_8hpp.html" target="_top" xlink:title=" ">
<polygon fill="white" stroke="#666666" points="715,-195 635,-195 635,-176 715,-176 715,-195"/>
<text text-anchor="middle" x="675" y="-183" font-family="Helvetica,sans-Serif" font-size="10.00">GpuSync.hpp</text>
</a>
</g>
</g>
<!-- Node14&#45;&gt;Node15 -->
<g id="edge16_Node000014_Node000015" class="edge">
<title>Node14&#45;&gt;Node15</title>
<g id="a_edge16_Node000014_Node000015"><a xlink:title=" ">
<path fill="none" stroke="#63b8ff" d="M586.35,-236.37C603.32,-226.82 630.9,-211.31 650.79,-200.12"/>
<polygon fill="#63b8ff" stroke="#63b8ff" points="652.59,-203.12 659.59,-195.17 649.16,-197.02 652.59,-203.12"/>
</a>
</g>
</g>
<!-- Node20 -->
<g id="Node000020" class="node">
<title>Node20</title>
<g id="a_Node000020"><a xlink:href="VertexSpec_8hpp.html" target="_top" xlink:title=" ">
<polygon fill="white" stroke="#666666" points="617,-195 525,-195 525,-176 617,-176 617,-195"/>
<text text-anchor="middle" x="571" y="-183" font-family="Helvetica,sans-Serif" font-size="10.00">VertexSpec.hpp</text>
</a>
</g>
</g>
<!-- Node14&#45;&gt;Node20 -->
<g id="edge21_Node000014_Node000020" class="edge">
<title>Node14&#45;&gt;Node20</title>
<g id="a_edge21_Node000014_Node000020"><a xlink:title=" ">
<path fill="none" stroke="#63b8ff" d="M571,-236.37C571,-228.25 571,-215.81 571,-205.39"/>
<polygon fill="#63b8ff" stroke="#63b8ff" points="574.5,-205.17 571,-195.17 567.5,-205.17 574.5,-205.17"/>
</a>
</g>
</g>
<!-- Node16 -->
<g id="Node000016" class="node">
<title>Node16</title>
<g id="a_Node000016"><a xlink:href="Node_8hpp.html" target="_top" xlink:title=" ">
<polygon fill="white" stroke="#666666" points="749,-134.5 601,-134.5 601,-115.5 749,-115.5 749,-134.5"/>
<text text-anchor="middle" x="675" y="-122.5" font-family="Helvetica,sans-Serif" font-size="10.00">MayaFlux/Nodes/Node.hpp</text>
</a>
</g>
</g>
<!-- Node15&#45;&gt;Node16 -->
<g id="edge17_Node000015_Node000016" class="edge">
<title>Node15&#45;&gt;Node16</title>
<g id="a_edge17_Node000015_Node000016"><a xlink:title=" ">
<path fill="none" stroke="#63b8ff" d="M675,-175.87C675,-167.75 675,-155.31 675,-144.89"/>
<polygon fill="#63b8ff" stroke="#63b8ff" points="678.5,-144.67 675,-134.67 671.5,-144.67 678.5,-144.67"/>
</a>
</g>
</g>
<!-- Node17 -->
<g id="Node000017" class="node">
<title>Node17</title>
<g id="a_Node000017"><a xlink:href="GpuContext_8hpp.html" target="_top" xlink:title=" ">
<polygon fill="white" stroke="#666666" points="797.5,-74 702.5,-74 702.5,-55 797.5,-55 797.5,-74"/>
<text text-anchor="middle" x="750" y="-62" font-family="Helvetica,sans-Serif" font-size="10.00">GpuContext.hpp</text>
</a>
</g>
</g>
<!-- Node16&#45;&gt;Node17 -->
<g id="edge18_Node000016_Node000017" class="edge">
<title>Node16&#45;&gt;Node17</title>
<g id="a_edge18_Node000016_Node000017"><a xlink:title=" ">
<path fill="none" stroke="#63b8ff" d="M686.07,-115.37C697.81,-106.21 716.59,-91.56 730.76,-80.51"/>
<polygon fill="#63b8ff" stroke="#63b8ff" points="733.16,-83.08 738.89,-74.17 728.85,-77.56 733.16,-83.08"/>
</a>
</g>
</g>
<!-- Node18 -->
<g id="Node000018" class="node">
<title>Node18</title>
<g id="a_Node000018"><a xlink:href="NodeUtils_8hpp.html" target="_top" xlink:title=" ">
<polygon fill="white" stroke="#666666" points="684,-74 514,-74 514,-55 684,-55 684,-74"/>
<text text-anchor="middle" x="599" y="-62" font-family="Helvetica,sans-Serif" font-size="10.00">MayaFlux/Nodes/NodeUtils.hpp</text>
</a>
</g>
</g>
<!-- Node16&#45;&gt;Node18 -->
<g id="edge19_Node000016_Node000018" class="edge">
<title>Node16&#45;&gt;Node18</title>
<g id="a_edge19_Node000016_Node000018"><a xlink:title=" ">
<path fill="none" stroke="#63b8ff" d="M663.79,-115.37C651.89,-106.21 632.86,-91.56 618.49,-80.51"/>
<polygon fill="#63b8ff" stroke="#63b8ff" points="620.32,-77.49 610.26,-74.17 616.05,-83.04 620.32,-77.49"/>
</a>
</g>
</g>
<!-- Node19 -->
<g id="Node000019" class="node">
<title>Node19</title>
<g id="a_Node000019"><a xlink:href="NodeSpec_8hpp.html" target="_top" xlink:title=" ">
<polygon fill="white" stroke="#666666" points="642,-19 556,-19 556,0 642,0 642,-19"/>
<text text-anchor="middle" x="599" y="-7" font-family="Helvetica,sans-Serif" font-size="10.00">NodeSpec.hpp</text>
</a>
</g>
</g>
<!-- Node18&#45;&gt;Node19 -->
<g id="edge20_Node000018_Node000019" class="edge">
<title>Node18&#45;&gt;Node19</title>
<g id="a_edge20_Node000018_Node000019"><a xlink:title=" ">
<path fill="none" stroke="#63b8ff" d="M599,-54.75C599,-47.8 599,-37.85 599,-29.13"/>
<polygon fill="#63b8ff" stroke="#63b8ff" points="602.5,-29.09 599,-19.09 595.5,-29.09 602.5,-29.09"/>
</a>
</g>
</g>
<!-- Node20&#45;&gt;Node7 -->
<g id="edge22_Node000020_Node000007" class="edge">
<title>Node20&#45;&gt;Node7</title>
<g id="a_edge22_Node000020_Node000007"><a xlink:title=" ">
<path fill="none" stroke="#63b8ff" d="M542.5,-175.99C513.68,-167.39 468.33,-153.86 432.08,-143.04"/>
<polygon fill="#63b8ff" stroke="#63b8ff" points="432.7,-139.57 422.12,-140.06 430.7,-146.28 432.7,-139.57"/>
</a>
</g>
</g>
</g>
</svg>
