<?xml version="1.0" encoding="UTF-8" standalone="no"?>
<!DOCTYPE svg PUBLIC "-//W3C//DTD SVG 1.1//EN"
 "http://www.w3.org/Graphics/SVG/1.1/DTD/svg11.dtd">
<!-- Generated by graphviz version 2.43.0 (0)
 -->
<!-- Title: PhysicsOperator.hpp Pages: 1 -->
<!--zoomable 467 -->

<svg id="main" version="1.1" xmlns="http://www.w3.org/2000/svg" xmlns:xlink="http://www.w3.org/1999/xlink" xml:space="preserve" onload="init(evt)">
<style type="text/css"><![CDATA[
.node, .edge {opacity: 0.7;}
.node.selected, .edge.selected {opacity: 1;}
.edge:hover path { stroke: red; }
.edge:hover polygon { stroke: red; fill: red; }
]]></style>

<defs>
  <circle id="rim" cx="0" cy="0" r="7"/>
  <circle id="rim2" cx="0" cy="0" r="3.5"/>
  <g id="zoomPlus">
    <use xlink:href="#rim" fill="#404040"><set attributeName="fill" to="#808080" begin="zoomplus.mouseover" end="zoomplus.mouseout"/></use>
    <path d="M-4,0h8M0,-4v8" fill="none" stroke="white" stroke-width="1.5" pointer-events="none"/>
  </g>
  <g id="zoomMin">
    <use xlink:href="#rim" fill="#404040"><set attributeName="fill" to="#808080" begin="zoomminus.mouseover" end="zoomminus.mouseout"/></use>
    <path d="M-4,0h8" fill="none" stroke="white" stroke-width="1.5" pointer-events="none"/>
  </g>
  <g id="arrowUp" transform="translate(30 24)">
    <use xlink:href="#rim"/>
    <path pointer-events="none" fill="none" stroke="white" stroke-width="1.5" d="M0,-3.0v7 M-2.5,-0.5L0,-3.0L2.5,-0.5"/>
  </g>
  <g id="arrowRight" transform="rotate(90) translate(36 -43)">
    <use xlink:href="#rim"/>
    <path pointer-events="none" fill="none" stroke="white" stroke-width="1.5" d="M0,-3.0v7 M-2.5,-0.5L0,-3.0L2.5,-0.5"/>
  </g>
  <g id="arrowDown" transform="rotate(180) translate(-30 -48)">
    <use xlink:href="#rim"/>
    <path pointer-events="none" fill="none" stroke="white" stroke-width="1.5" d="M0,-3.0v7 M-2.5,-0.5L0,-3.0L2.5,-0.5"/>
  </g>
  <g id="arrowLeft" transform="rotate(270) translate(-36 17)">
    <use xlink:href="#rim"/>
    <path pointer-events="none" fill="none" stroke="white" stroke-width="1.5" d="M0,-3.0v7 M-2.5,-0.5L0,-3.0L2.5,-0.5"/>
  </g>
  <g id="resetDef">
    <use xlink:href="#rim2" fill="#404040"><set attributeName="fill" to="#808080" begin="reset.mouseover" end="reset.mouseout"/></use>
  </g>
</defs>
<script type="application/ecmascript">
var viewWidth = 771;
var viewHeight = 467;
var sectionId = 'dynsection-0';
</script>
<script type="application/ecmascript" xlink:href="svg.min.js"/>
<svg id="graph" class="graph">
<g id="viewport">
<title>PhysicsOperator.hpp</title>
<!-- Node1 -->
<g id="Node000001" class="node">
<title>Node1</title>
<g id="a_Node000001"><a xlink:title=" ">
<polygon fill="#999999" stroke="#666666" points="507,-459 391,-459 391,-440 507,-440 507,-459"/>
<text text-anchor="middle" x="449" y="-447" font-family="Helvetica,sans-Serif" font-size="10.00">PhysicsOperator.hpp</text>
</a>
</g>
</g>
<!-- Node2 -->
<g id="Node000002" class="node">
<title>Node2</title>
<g id="a_Node000002"><a xlink:href="GraphicsOperator_8hpp.html" target="_top" xlink:title=" ">
<polygon fill="white" stroke="#666666" points="421,-398.5 299,-398.5 299,-379.5 421,-379.5 421,-398.5"/>
<text text-anchor="middle" x="360" y="-386.5" font-family="Helvetica,sans-Serif" font-size="10.00">GraphicsOperator.hpp</text>
</a>
</g>
</g>
<!-- Node1&#45;&gt;Node2 -->
<g id="edge1_Node000001_Node000002" class="edge">
<title>Node1&#45;&gt;Node2</title>
<g id="a_edge1_Node000001_Node000002"><a xlink:title=" ">
<path fill="none" stroke="#63b8ff" d="M435.87,-439.87C421.67,-430.54 398.8,-415.51 381.88,-404.38"/>
<polygon fill="#63b8ff" stroke="#63b8ff" points="383.47,-401.24 373.19,-398.67 379.62,-407.08 383.47,-401.24"/>
</a>
</g>
</g>
<!-- Node8 -->
<g id="Node000008" class="node">
<title>Node8</title>
<g id="a_Node000008"><a xlink:href="PointCollectionNode_8hpp.html" target="_top" xlink:title=" ">
<polygon fill="white" stroke="#666666" points="274,-404 130,-404 130,-374 274,-374 274,-404"/>
<text text-anchor="start" x="138" y="-392" font-family="Helvetica,sans-Serif" font-size="10.00">MayaFlux/Nodes/Graphics</text>
<text text-anchor="middle" x="202" y="-381" font-family="Helvetica,sans-Serif" font-size="10.00">/PointCollectionNode.hpp</text>
</a>
</g>
</g>
<!-- Node1&#45;&gt;Node8 -->
<g id="edge7_Node000001_Node000008" class="edge">
<title>Node1&#45;&gt;Node8</title>
<g id="a_edge7_Node000001_Node000008"><a xlink:title=" ">
<path fill="none" stroke="#63b8ff" d="M413.08,-439.99C376.06,-431.23 317.41,-417.33 271.31,-406.42"/>
<polygon fill="#63b8ff" stroke="#63b8ff" points="271.92,-402.96 261.38,-404.06 270.31,-409.77 271.92,-402.96"/>
</a>
</g>
</g>
<!-- Node18 -->
<g id="Node000018" class="node">
<title>Node18</title>
<g id="a_Node000018"><a xlink:href="Tendency_8hpp.html" target="_top" xlink:title=" ">
<polygon fill="white" stroke="#666666" points="763,-206 611,-206 611,-176 763,-176 763,-206"/>
<text text-anchor="start" x="619" y="-194" font-family="Helvetica,sans-Serif" font-size="10.00">MayaFlux/Kinesis/Tendency</text>
<text text-anchor="middle" x="687" y="-183" font-family="Helvetica,sans-Serif" font-size="10.00">/Tendency.hpp</text>
</a>
</g>
</g>
<!-- Node1&#45;&gt;Node18 -->
<g id="edge18_Node000001_Node000018" class="edge">
<title>Node1&#45;&gt;Node18</title>
<g id="a_edge18_Node000001_Node000018"><a xlink:title=" ">
<path fill="none" stroke="#63b8ff" d="M507.47,-442.36C558.42,-435.79 627.03,-423.57 646,-404 695.79,-352.63 694.13,-260.05 690.06,-216.24"/>
<polygon fill="#63b8ff" stroke="#63b8ff" points="693.53,-215.78 689,-206.2 686.57,-216.52 693.53,-215.78"/>
</a>
</g>
</g>
<!-- Node19 -->
<g id="Node000019" class="node">
<title>Node19</title>
<g id="a_Node000019"><a xlink:href="VertexSampler_8hpp.html" target="_top" xlink:title=" ">
<polygon fill="white" stroke="#666666" points="637,-398.5 439,-398.5 439,-379.5 637,-379.5 637,-398.5"/>
<text text-anchor="middle" x="538" y="-386.5" font-family="Helvetica,sans-Serif" font-size="10.00">MayaFlux/Kinesis/VertexSampler.hpp</text>
</a>
</g>
</g>
<!-- Node1&#45;&gt;Node19 -->
<g id="edge20_Node000001_Node000019" class="edge">
<title>Node1&#45;&gt;Node19</title>
<g id="a_edge20_Node000001_Node000019"><a xlink:title=" ">
<path fill="none" stroke="#63b8ff" d="M462.13,-439.87C476.33,-430.54 499.2,-415.51 516.12,-404.38"/>
<polygon fill="#63b8ff" stroke="#63b8ff" points="518.38,-407.08 524.81,-398.67 514.53,-401.24 518.38,-407.08"/>
</a>
</g>
</g>
<!-- Node3 -->
<g id="Node000003" class="node">
<title>Node3</title>
<g id="a_Node000003"><a xlink:href="VertexLayout_8hpp.html" target="_top" xlink:title=" ">
<polygon fill="white" stroke="#666666" points="592.5,-140 441.5,-140 441.5,-110 592.5,-110 592.5,-140"/>
<text text-anchor="start" x="449.5" y="-128" font-family="Helvetica,sans-Serif" font-size="10.00">MayaFlux/Kakshya/NDData</text>
<text text-anchor="middle" x="517" y="-117" font-family="Helvetica,sans-Serif" font-size="10.00">/VertexLayout.hpp</text>
</a>
</g>
</g>
<!-- Node2&#45;&gt;Node3 -->
<g id="edge2_Node000002_Node000003" class="edge">
<title>Node2&#45;&gt;Node3</title>
<g id="a_edge2_Node000002_Node000003"><a xlink:title=" ">
<path fill="none" stroke="#63b8ff" d="M367.09,-379.33C374.57,-369.76 386.2,-353.64 393,-338 422.51,-270.08 387.91,-235.5 432,-176 441.7,-162.91 455.93,-152.64 469.99,-144.91"/>
<polygon fill="#63b8ff" stroke="#63b8ff" points="471.86,-147.88 479.15,-140.19 468.66,-141.66 471.86,-147.88"/>
</a>
</g>
</g>
<!-- Node7 -->
<g id="Node000007" class="node">
<title>Node7</title>
<g id="a_Node000007"><a xlink:href="NetworkOperator_8hpp.html" target="_top" xlink:title=" ">
<polygon fill="white" stroke="#666666" points="384.5,-332.5 263.5,-332.5 263.5,-313.5 384.5,-313.5 384.5,-332.5"/>
<text text-anchor="middle" x="324" y="-320.5" font-family="Helvetica,sans-Serif" font-size="10.00">NetworkOperator.hpp</text>
</a>
</g>
</g>
<!-- Node2&#45;&gt;Node7 -->
<g id="edge6_Node000002_Node000007" class="edge">
<title>Node2&#45;&gt;Node7</title>
<g id="a_edge6_Node000002_Node000007"><a xlink:title=" ">
<path fill="none" stroke="#63b8ff" d="M355.14,-379.37C349.75,-369.78 340.9,-354.05 334.01,-341.8"/>
<polygon fill="#63b8ff" stroke="#63b8ff" points="336.96,-339.91 329.01,-332.91 330.86,-343.34 336.96,-339.91"/>
</a>
</g>
</g>
<!-- Node4 -->
<g id="Node000004" class="node">
<title>Node4</title>
<g id="a_Node000004"><a xlink:href="NDData_8hpp.html" target="_top" xlink:title=" ">
<polygon fill="white" stroke="#666666" points="575,-74 499,-74 499,-55 575,-55 575,-74"/>
<text text-anchor="middle" x="537" y="-62" font-family="Helvetica,sans-Serif" font-size="10.00">NDData.hpp</text>
</a>
</g>
</g>
<!-- Node3&#45;&gt;Node4 -->
<g id="edge3_Node000003_Node000004" class="edge">
<title>Node3&#45;&gt;Node4</title>
<g id="a_edge3_Node000003_Node000004"><a xlink:title=" ">
<path fill="none" stroke="#63b8ff" d="M521.84,-109.84C524.51,-102.04 527.85,-92.27 530.71,-83.89"/>
<polygon fill="#63b8ff" stroke="#63b8ff" points="534.08,-84.86 534,-74.27 527.46,-82.6 534.08,-84.86"/>
</a>
</g>
</g>
<!-- Node5 -->
<g id="Node000005" class="node">
<title>Node5</title>
<g id="a_Node000005"><a xlink:title=" ">
<polygon fill="#e0e0e0" stroke="#999999" points="706,-19 628,-19 628,0 706,0 706,-19"/>
<text text-anchor="middle" x="667" y="-7" font-family="Helvetica,sans-Serif" font-size="10.00">glm/glm.hpp</text>
</a>
</g>
</g>
<!-- Node4&#45;&gt;Node5 -->
<g id="edge4_Node000004_Node000005" class="edge">
<title>Node4&#45;&gt;Node5</title>
<g id="a_edge4_Node000004_Node000005"><a xlink:title=" ">
<path fill="none" stroke="#63b8ff" d="M557.89,-54.98C579.08,-46.34 612.13,-32.87 636.3,-23.02"/>
<polygon fill="#63b8ff" stroke="#63b8ff" points="637.79,-26.19 645.73,-19.17 635.15,-19.7 637.79,-26.19"/>
</a>
</g>
</g>
<!-- Node6 -->
<g id="Node000006" class="node">
<title>Node6</title>
<g id="a_Node000006"><a xlink:title=" ">
<polygon fill="#e0e0e0" stroke="#999999" points="569.5,-19 504.5,-19 504.5,0 569.5,0 569.5,-19"/>
<text text-anchor="middle" x="537" y="-7" font-family="Helvetica,sans-Serif" font-size="10.00">typeindex</text>
</a>
</g>
</g>
<!-- Node4&#45;&gt;Node6 -->
<g id="edge5_Node000004_Node000006" class="edge">
<title>Node4&#45;&gt;Node6</title>
<g id="a_edge5_Node000004_Node000006"><a xlink:title=" ">
<path fill="none" stroke="#63b8ff" d="M537,-54.75C537,-47.8 537,-37.85 537,-29.13"/>
<polygon fill="#63b8ff" stroke="#63b8ff" points="540.5,-29.09 537,-19.09 533.5,-29.09 540.5,-29.09"/>
</a>
</g>
</g>
<!-- Node9 -->
<g id="Node000009" class="node">
<title>Node9</title>
<g id="a_Node000009"><a xlink:href="GeometryWriterNode_8hpp.html" target="_top" xlink:title=" ">
<polygon fill="white" stroke="#666666" points="245.5,-338 100.5,-338 100.5,-308 245.5,-308 245.5,-338"/>
<text text-anchor="start" x="108.5" y="-326" font-family="Helvetica,sans-Serif" font-size="10.00">MayaFlux/Nodes/Graphics</text>
<text text-anchor="middle" x="173" y="-315" font-family="Helvetica,sans-Serif" font-size="10.00">/GeometryWriterNode.hpp</text>
</a>
</g>
</g>
<!-- Node8&#45;&gt;Node9 -->
<g id="edge8_Node000008_Node000009" class="edge">
<title>Node8&#45;&gt;Node9</title>
<g id="a_edge8_Node000008_Node000009"><a xlink:title=" ">
<path fill="none" stroke="#63b8ff" d="M195.56,-373.8C192.03,-366.01 187.57,-356.16 183.55,-347.28"/>
<polygon fill="#63b8ff" stroke="#63b8ff" points="186.73,-345.83 179.42,-338.16 180.36,-348.72 186.73,-345.83"/>
</a>
</g>
</g>
<!-- Node10 -->
<g id="Node000010" class="node">
<title>Node10</title>
<g id="a_Node000010"><a xlink:href="GpuSync_8hpp.html" target="_top" xlink:title=" ">
<polygon fill="white" stroke="#666666" points="240,-266.5 160,-266.5 160,-247.5 240,-247.5 240,-266.5"/>
<text text-anchor="middle" x="200" y="-254.5" font-family="Helvetica,sans-Serif" font-size="10.00">GpuSync.hpp</text>
</a>
</g>
</g>
<!-- Node9&#45;&gt;Node10 -->
<g id="edge9_Node000009_Node000010" class="edge">
<title>Node9&#45;&gt;Node10</title>
<g id="a_edge9_Node000009_Node000010"><a xlink:title=" ">
<path fill="none" stroke="#63b8ff" d="M178.99,-307.8C182.91,-298.5 188.07,-286.27 192.3,-276.26"/>
<polygon fill="#63b8ff" stroke="#63b8ff" points="195.61,-277.42 196.27,-266.84 189.16,-274.7 195.61,-277.42"/>
</a>
</g>
</g>
<!-- Node15 -->
<g id="Node000015" class="node">
<title>Node15</title>
<g id="a_Node000015"><a xlink:href="VertexSpec_8hpp.html" target="_top" xlink:title=" ">
<polygon fill="white" stroke="#666666" points="380,-266.5 288,-266.5 288,-247.5 380,-247.5 380,-266.5"/>
<text text-anchor="middle" x="334" y="-254.5" font-family="Helvetica,sans-Serif" font-size="10.00">VertexSpec.hpp</text>
</a>
</g>
</g>
<!-- Node9&#45;&gt;Node15 -->
<g id="edge14_Node000009_Node000015" class="edge">
<title>Node9&#45;&gt;Node15</title>
<g id="a_edge14_Node000009_Node000015"><a xlink:title=" ">
<path fill="none" stroke="#63b8ff" d="M208.33,-307.95C236.69,-296.68 276.11,-281.01 303.2,-270.25"/>
<polygon fill="#63b8ff" stroke="#63b8ff" points="304.57,-273.46 312.57,-266.52 301.99,-266.96 304.57,-273.46"/>
</a>
</g>
</g>
<!-- Node17 -->
<g id="Node000017" class="node">
<title>Node17</title>
<g id="a_Node000017"><a xlink:href="GraphicsUtils_8hpp.html" target="_top" xlink:title=" ">
<polygon fill="white" stroke="#666666" points="142,-272 0,-272 0,-242 142,-242 142,-272"/>
<text text-anchor="start" x="8" y="-260" font-family="Helvetica,sans-Serif" font-size="10.00">MayaFlux/Portal/Graphics</text>
<text text-anchor="middle" x="71" y="-249" font-family="Helvetica,sans-Serif" font-size="10.00">/GraphicsUtils.hpp</text>
</a>
</g>
</g>
<!-- Node9&#45;&gt;Node17 -->
<g id="edge17_Node000009_Node000017" class="edge">
<title>Node9&#45;&gt;Node17</title>
<g id="a_edge17_Node000009_Node000017"><a xlink:title=" ">
<path fill="none" stroke="#63b8ff" d="M150.62,-307.95C136.4,-299.03 117.8,-287.36 102.15,-277.54"/>
<polygon fill="#63b8ff" stroke="#63b8ff" points="103.66,-274.36 93.33,-272.01 99.94,-280.29 103.66,-274.36"/>
</a>
</g>
</g>
<!-- Node11 -->
<g id="Node000011" class="node">
<title>Node11</title>
<g id="a_Node000011"><a xlink:href="Node_8hpp.html" target="_top" xlink:title=" ">
<polygon fill="white" stroke="#666666" points="274,-200.5 126,-200.5 126,-181.5 274,-181.5 274,-200.5"/>
<text text-anchor="middle" x="200" y="-188.5" font-family="Helvetica,sans-Serif" font-size="10.00">MayaFlux/Nodes/Node.hpp</text>
</a>
</g>
</g>
<!-- Node10&#45;&gt;Node11 -->
<g id="edge10_Node000010_Node000011" class="edge">
<title>Node10&#45;&gt;Node11</title>
<g id="a_edge10_Node000010_Node000011"><a xlink:title=" ">
<path fill="none" stroke="#63b8ff" d="M200,-247.37C200,-238.16 200,-223.29 200,-211.27"/>
<polygon fill="#63b8ff" stroke="#63b8ff" points="203.5,-210.91 200,-200.91 196.5,-210.91 203.5,-210.91"/>
</a>
</g>
</g>
<!-- Node12 -->
<g id="Node000012" class="node">
<title>Node12</title>
<g id="a_Node000012"><a xlink:href="GpuContext_8hpp.html" target="_top" xlink:title=" ">
<polygon fill="white" stroke="#666666" points="396.5,-134.5 301.5,-134.5 301.5,-115.5 396.5,-115.5 396.5,-134.5"/>
<text text-anchor="middle" x="349" y="-122.5" font-family="Helvetica,sans-Serif" font-size="10.00">GpuContext.hpp</text>
</a>
</g>
</g>
<!-- Node11&#45;&gt;Node12 -->
<g id="edge11_Node000011_Node000012" class="edge">
<title>Node11&#45;&gt;Node12</title>
<g id="a_edge11_Node000011_Node000012"><a xlink:title=" ">
<path fill="none" stroke="#63b8ff" d="M220.09,-181.37C245.64,-170.39 289.96,-151.36 319.39,-138.72"/>
<polygon fill="#63b8ff" stroke="#63b8ff" points="320.94,-141.86 328.75,-134.7 318.18,-135.43 320.94,-141.86"/>
</a>
</g>
</g>
<!-- Node13 -->
<g id="Node000013" class="node">
<title>Node13</title>
<g id="a_Node000013"><a xlink:href="NodeUtils_8hpp.html" target="_top" xlink:title=" ">
<polygon fill="white" stroke="#666666" points="283,-134.5 113,-134.5 113,-115.5 283,-115.5 283,-134.5"/>
<text text-anchor="middle" x="198" y="-122.5" font-family="Helvetica,sans-Serif" font-size="10.00">MayaFlux/Nodes/NodeUtils.hpp</text>
</a>
</g>
</g>
<!-- Node11&#45;&gt;Node13 -->
<g id="edge12_Node000011_Node000013" class="edge">
<title>Node11&#45;&gt;Node13</title>
<g id="a_edge12_Node000011_Node000013"><a xlink:title=" ">
<path fill="none" stroke="#63b8ff" d="M199.73,-181.37C199.44,-172.16 198.98,-157.29 198.6,-145.27"/>
<polygon fill="#63b8ff" stroke="#63b8ff" points="202.09,-144.79 198.28,-134.91 195.09,-145.01 202.09,-144.79"/>
</a>
</g>
</g>
<!-- Node14 -->
<g id="Node000014" class="node">
<title>Node14</title>
<g id="a_Node000014"><a xlink:href="NodeSpec_8hpp.html" target="_top" xlink:title=" ">
<polygon fill="white" stroke="#666666" points="241,-74 155,-74 155,-55 241,-55 241,-74"/>
<text text-anchor="middle" x="198" y="-62" font-family="Helvetica,sans-Serif" font-size="10.00">NodeSpec.hpp</text>
</a>
</g>
</g>
<!-- Node13&#45;&gt;Node14 -->
<g id="edge13_Node000013_Node000014" class="edge">
<title>Node13&#45;&gt;Node14</title>
<g id="a_edge13_Node000013_Node000014"><a xlink:title=" ">
<path fill="none" stroke="#63b8ff" d="M198,-115.37C198,-107.25 198,-94.81 198,-84.39"/>
<polygon fill="#63b8ff" stroke="#63b8ff" points="201.5,-84.17 198,-74.17 194.5,-84.17 201.5,-84.17"/>
</a>
</g>
</g>
<!-- Node16 -->
<g id="Node000016" class="node">
<title>Node16</title>
<g id="a_Node000016"><a xlink:href="VertexFormats_8hpp.html" target="_top" xlink:title=" ">
<polygon fill="white" stroke="#666666" points="592.5,-206 441.5,-206 441.5,-176 592.5,-176 592.5,-206"/>
<text text-anchor="start" x="449.5" y="-194" font-family="Helvetica,sans-Serif" font-size="10.00">MayaFlux/Kakshya/NDData</text>
<text text-anchor="middle" x="517" y="-183" font-family="Helvetica,sans-Serif" font-size="10.00">/VertexFormats.hpp</text>
</a>
</g>
</g>
<!-- Node15&#45;&gt;Node16 -->
<g id="edge15_Node000015_Node000016" class="edge">
<title>Node15&#45;&gt;Node16</title>
<g id="a_edge15_Node000015_Node000016"><a xlink:title=" ">
<path fill="none" stroke="#63b8ff" d="M358.68,-247.37C386.32,-237.7 431.86,-221.77 467.02,-209.48"/>
<polygon fill="#63b8ff" stroke="#63b8ff" points="468.35,-212.72 476.64,-206.12 466.04,-206.11 468.35,-212.72"/>
</a>
</g>
</g>
<!-- Node16&#45;&gt;Node3 -->
<g id="edge16_Node000016_Node000003" class="edge">
<title>Node16&#45;&gt;Node3</title>
<g id="a_edge16_Node000016_Node000003"><a xlink:title=" ">
<path fill="none" stroke="#63b8ff" d="M517,-175.8C517,-168.34 517,-158.99 517,-150.41"/>
<polygon fill="#63b8ff" stroke="#63b8ff" points="520.5,-150.16 517,-140.16 513.5,-150.16 520.5,-150.16"/>
</a>
</g>
</g>
<!-- Node18&#45;&gt;Node5 -->
<g id="edge19_Node000018_Node000005" class="edge">
<title>Node18&#45;&gt;Node5</title>
<g id="a_edge19_Node000018_Node000005"><a xlink:title=" ">
<path fill="none" stroke="#63b8ff" d="M685.43,-175.91C681.86,-143.85 673.12,-65.38 669.09,-29.26"/>
<polygon fill="#63b8ff" stroke="#63b8ff" points="672.55,-28.69 667.96,-19.13 665.59,-29.46 672.55,-28.69"/>
</a>
</g>
</g>
<!-- Node19&#45;&gt;Node16 -->
<g id="edge23_Node000019_Node000016" class="edge">
<title>Node19&#45;&gt;Node16</title>
<g id="a_edge23_Node000019_Node000016"><a xlink:title=" ">
<path fill="none" stroke="#63b8ff" d="M537.07,-379.33C534.03,-350.91 524.28,-259.97 519.58,-216.11"/>
<polygon fill="#63b8ff" stroke="#63b8ff" points="523.05,-215.61 518.5,-206.04 516.09,-216.35 523.05,-215.61"/>
</a>
</g>
</g>
<!-- Node20 -->
<g id="Node000020" class="node">
<title>Node20</title>
<g id="a_Node000020"><a xlink:href="Stochastic_8hpp.html" target="_top" xlink:title=" ">
<polygon fill="white" stroke="#666666" points="633,-332.5 545,-332.5 545,-313.5 633,-313.5 633,-332.5"/>
<text text-anchor="middle" x="589" y="-320.5" font-family="Helvetica,sans-Serif" font-size="10.00">Stochastic.hpp</text>
</a>
</g>
</g>
<!-- Node19&#45;&gt;Node20 -->
<g id="edge21_Node000019_Node000020" class="edge">
<title>Node19&#45;&gt;Node20</title>
<g id="a_edge21_Node000019_Node000020"><a xlink:title=" ">
<path fill="none" stroke="#63b8ff" d="M544.88,-379.37C552.67,-369.59 565.55,-353.42 575.39,-341.08"/>
<polygon fill="#63b8ff" stroke="#63b8ff" points="578.41,-342.91 581.9,-332.91 572.93,-338.54 578.41,-342.91"/>
</a>
</g>
</g>
<!-- Node21 -->
<g id="Node000021" class="node">
<title>Node21</title>
<g id="a_Node000021"><a xlink:title=" ">
<polygon fill="#e0e0e0" stroke="#999999" points="616,-266.5 562,-266.5 562,-247.5 616,-247.5 616,-266.5"/>
<text text-anchor="middle" x="589" y="-254.5" font-family="Helvetica,sans-Serif" font-size="10.00">random</text>
</a>
</g>
</g>
<!-- Node20&#45;&gt;Node21 -->
<g id="edge22_Node000020_Node000021" class="edge">
<title>Node20&#45;&gt;Node21</title>
<g id="a_edge22_Node000020_Node000021"><a xlink:title=" ">
<path fill="none" stroke="#63b8ff" d="M589,-313.37C589,-304.16 589,-289.29 589,-277.27"/>
<polygon fill="#63b8ff" stroke="#63b8ff" points="592.5,-276.91 589,-266.91 585.5,-276.91 592.5,-276.91"/>
</a>
</g>
</g>
</g>
</svg>

<g id="navigator" transform="translate(0 0)" fill="#404254">
  <rect fill="#f2f5e9" fill-opacity="0.5" stroke="#606060" stroke-width=".5" x="0" y="0" width="60" height="60"/>
  <use id="zoomplus" xlink:href="#zoomPlus" x="17" y="9" onmousedown="handleZoom(evt,'in')"/>
  <use id="zoomminus" xlink:href="#zoomMin" x="42" y="9" onmousedown="handleZoom(evt,'out')"/>
  <use id="reset" xlink:href="#resetDef" x="30" y="36" onmousedown="handleReset()"/>
   <use id="arrowup" xlink:href="#arrowUp" x="0" y="0" onmousedown="handlePan(0,-1)"/>
  <use id="arrowright" xlink:href="#arrowRight" x="0" y="0" onmousedown="handlePan(1,0)"/>
  <use id="arrowdown" xlink:href="#arrowDown" x="0" y="0" onmousedown="handlePan(0,1)"/>
  <use id="arrowleft" xlink:href="#arrowLeft" x="0" y="0" onmousedown="handlePan(-1,0)"/>
</g>
<svg viewBox="0 0 15 15" width="100%" height="30px" preserveAspectRatio="xMaxYMin meet">
 <g id="arrow_out" transform="scale(0.3 0.3)">
  <a xlink:href="PhysicsOperator_8hpp__incl_org.svg" target="_base">
   <rect id="button" ry="5" rx="5" y="6" x="6" height="38" width="38"
        fill="#f2f5e9" fill-opacity="0.5" stroke="#606060" stroke-width="1.0"/>
   <path id="arrow"
     d="M 11.500037,31.436501 C 11.940474,20.09759 22.043105,11.32322 32.158766,21.979434 L 37.068811,17.246167 C 37.068811,17.246167 37.088388,32 37.088388,32 L 22.160133,31.978069 C 22.160133,31.978069 26.997745,27.140456 26.997745,27.140456 C 18.528582,18.264221 13.291696,25.230495 11.500037,31.436501 z"
     style="fill:#404040;"/>
  </a>
 </g>
</svg>

<style type='text/css'>
<![CDATA[
[data-mouse-over-selected='false'] { opacity: 0.7; }
[data-mouse-over-selected='true']  { opacity: 1.0; }
]]>
</style>
<script type="application/ecmascript"><![CDATA[
document.addEventListener('DOMContentLoaded', (event) => {
  highlightEdges();
  highlightAdjacentNodes();
});
]]></script>
</svg>
