<?xml version="1.0" encoding="UTF-8" standalone="no"?>
<!DOCTYPE svg PUBLIC "-//W3C//DTD SVG 1.1//EN"
 "http://www.w3.org/Graphics/SVG/1.1/DTD/svg11.dtd">
<!-- Generated by graphviz version 2.43.0 (0)
 -->
<!-- Title: PipewireBackend.cpp Pages: 1 -->
<svg width="597pt" height="269pt"
 viewBox="0.00 0.00 596.50 269.00" xmlns="http://www.w3.org/2000/svg" xmlns:xlink="http://www.w3.org/1999/xlink">
<g id="graph0" class="graph" transform="scale(1 1) rotate(0) translate(4 265)">
<title>PipewireBackend.cpp</title>
<!-- Node1 -->
<g id="Node000001" class="node">
<title>Node1</title>
<g id="a_Node000001"><a xlink:title=" ">
<polygon fill="#999999" stroke="#666666" points="310,-261 190,-261 190,-242 310,-242 310,-261"/>
<text text-anchor="middle" x="250" y="-249" font-family="Helvetica,sans-Serif" font-size="10.00">PipewireBackend.cpp</text>
</a>
</g>
</g>
<!-- Node2 -->
<g id="Node000002" class="node">
<title>Node2</title>
<g id="a_Node000002"><a xlink:href="PipewireBackend_8hpp.html" target="_top" xlink:title=" ">
<polygon fill="white" stroke="#666666" points="229.5,-206 108.5,-206 108.5,-187 229.5,-187 229.5,-206"/>
<text text-anchor="middle" x="169" y="-194" font-family="Helvetica,sans-Serif" font-size="10.00">PipewireBackend.hpp</text>
</a>
</g>
</g>
<!-- Node1&#45;&gt;Node2 -->
<g id="edge1_Node000001_Node000002" class="edge">
<title>Node1&#45;&gt;Node2</title>
<g id="a_edge1_Node000001_Node000002"><a xlink:title=" ">
<path fill="none" stroke="#63b8ff" d="M236.99,-241.98C224.54,-233.84 205.54,-221.41 190.79,-211.76"/>
<polygon fill="#63b8ff" stroke="#63b8ff" points="192.54,-208.72 182.25,-206.17 188.7,-214.57 192.54,-208.72"/>
</a>
</g>
</g>
<!-- Node6 -->
<g id="Node000006" class="node">
<title>Node6</title>
<g id="a_Node000006"><a xlink:href="Archivist_8hpp.html" target="_top" xlink:title=" ">
<polygon fill="white" stroke="#666666" points="445,-206 277,-206 277,-187 445,-187 445,-206"/>
<text text-anchor="middle" x="361" y="-194" font-family="Helvetica,sans-Serif" font-size="10.00">MayaFlux/Journal/Archivist.hpp</text>
</a>
</g>
</g>
<!-- Node1&#45;&gt;Node6 -->
<g id="edge5_Node000001_Node000006" class="edge">
<title>Node1&#45;&gt;Node6</title>
<g id="a_edge5_Node000001_Node000006"><a xlink:title=" ">
<path fill="none" stroke="#63b8ff" d="M267.83,-241.98C285.61,-233.5 313.15,-220.35 333.68,-210.54"/>
<polygon fill="#63b8ff" stroke="#63b8ff" points="335.33,-213.64 342.84,-206.17 332.31,-207.32 335.33,-213.64"/>
</a>
</g>
</g>
<!-- Node3 -->
<g id="Node000003" class="node">
<title>Node3</title>
<g id="a_Node000003"><a xlink:href="AudioBackend_8hpp.html" target="_top" xlink:title=" ">
<polygon fill="white" stroke="#666666" points="163.5,-151 56.5,-151 56.5,-132 163.5,-132 163.5,-151"/>
<text text-anchor="middle" x="110" y="-139" font-family="Helvetica,sans-Serif" font-size="10.00">AudioBackend.hpp</text>
</a>
</g>
</g>
<!-- Node2&#45;&gt;Node3 -->
<g id="edge2_Node000002_Node000003" class="edge">
<title>Node2&#45;&gt;Node3</title>
<g id="a_edge2_Node000002_Node000003"><a xlink:title=" ">
<path fill="none" stroke="#63b8ff" d="M159.52,-186.98C150.8,-179.15 137.66,-167.34 127.1,-157.86"/>
<polygon fill="#63b8ff" stroke="#63b8ff" points="129.43,-155.25 119.65,-151.17 124.75,-160.46 129.43,-155.25"/>
</a>
</g>
</g>
<!-- Node4 -->
<g id="Node000004" class="node">
<title>Node4</title>
<g id="a_Node000004"><a xlink:href="GlobalStreamInfo_8hpp.html" target="_top" xlink:title=" ">
<polygon fill="white" stroke="#666666" points="160,-96 0,-96 0,-66 160,-66 160,-96"/>
<text text-anchor="start" x="8" y="-84" font-family="Helvetica,sans-Serif" font-size="10.00">MayaFlux/Core/GlobalStream</text>
<text text-anchor="middle" x="80" y="-73" font-family="Helvetica,sans-Serif" font-size="10.00">Info.hpp</text>
</a>
</g>
</g>
<!-- Node3&#45;&gt;Node4 -->
<g id="edge3_Node000003_Node000004" class="edge">
<title>Node3&#45;&gt;Node4</title>
<g id="a_edge3_Node000003_Node000004"><a xlink:title=" ">
<path fill="none" stroke="#63b8ff" d="M105.57,-131.87C101.96,-124.81 96.67,-114.5 91.84,-105.08"/>
<polygon fill="#63b8ff" stroke="#63b8ff" points="94.92,-103.42 87.24,-96.11 88.69,-106.61 94.92,-103.42"/>
</a>
</g>
</g>
<!-- Node5 -->
<g id="Node000005" class="node">
<title>Node5</title>
<g id="a_Node000005"><a xlink:href="Mirror_8hpp.html" target="_top" xlink:title=" ">
<polygon fill="white" stroke="#666666" points="137.5,-30 22.5,-30 22.5,0 137.5,0 137.5,-30"/>
<text text-anchor="start" x="30.5" y="-18" font-family="Helvetica,sans-Serif" font-size="10.00">MayaFlux/Transitive</text>
<text text-anchor="middle" x="80" y="-7" font-family="Helvetica,sans-Serif" font-size="10.00">/Reflect/Mirror.hpp</text>
</a>
</g>
</g>
<!-- Node4&#45;&gt;Node5 -->
<g id="edge4_Node000004_Node000005" class="edge">
<title>Node4&#45;&gt;Node5</title>
<g id="a_edge4_Node000004_Node000005"><a xlink:title=" ">
<path fill="none" stroke="#63b8ff" d="M80,-65.8C80,-58.34 80,-48.99 80,-40.41"/>
<polygon fill="#63b8ff" stroke="#63b8ff" points="83.5,-40.16 80,-30.16 76.5,-40.16 83.5,-40.16"/>
</a>
</g>
</g>
<!-- Node7 -->
<g id="Node000007" class="node">
<title>Node7</title>
<g id="a_Node000007"><a xlink:href="JournalEntry_8hpp.html" target="_top" xlink:title=" ">
<polygon fill="white" stroke="#666666" points="408.5,-151 313.5,-151 313.5,-132 408.5,-132 408.5,-151"/>
<text text-anchor="middle" x="361" y="-139" font-family="Helvetica,sans-Serif" font-size="10.00">JournalEntry.hpp</text>
</a>
</g>
</g>
<!-- Node6&#45;&gt;Node7 -->
<g id="edge6_Node000006_Node000007" class="edge">
<title>Node6&#45;&gt;Node7</title>
<g id="a_edge6_Node000006_Node000007"><a xlink:title=" ">
<path fill="none" stroke="#63b8ff" d="M361,-186.75C361,-179.8 361,-169.85 361,-161.13"/>
<polygon fill="#63b8ff" stroke="#63b8ff" points="364.5,-161.09 361,-151.09 357.5,-161.09 364.5,-161.09"/>
</a>
</g>
</g>
<!-- Node12 -->
<g id="Node000012" class="node">
<title>Node12</title>
<g id="a_Node000012"><a xlink:title=" ">
<polygon fill="#e0e0e0" stroke="#999999" points="477,-151 427,-151 427,-132 477,-132 477,-151"/>
<text text-anchor="middle" x="452" y="-139" font-family="Helvetica,sans-Serif" font-size="10.00">format</text>
</a>
</g>
</g>
<!-- Node6&#45;&gt;Node12 -->
<g id="edge11_Node000006_Node000012" class="edge">
<title>Node6&#45;&gt;Node12</title>
<g id="a_edge11_Node000006_Node000012"><a xlink:title=" ">
<path fill="none" stroke="#63b8ff" d="M375.62,-186.98C389.86,-178.69 411.75,-165.94 428.45,-156.22"/>
<polygon fill="#63b8ff" stroke="#63b8ff" points="430.23,-159.23 437.11,-151.17 426.71,-153.18 430.23,-159.23"/>
</a>
</g>
</g>
<!-- Node8 -->
<g id="Node000008" class="node">
<title>Node8</title>
<g id="a_Node000008"><a xlink:href="EnumReflect_8hpp.html" target="_top" xlink:title=" ">
<polygon fill="white" stroke="#666666" points="317.5,-96 178.5,-96 178.5,-66 317.5,-66 317.5,-96"/>
<text text-anchor="start" x="186.5" y="-84" font-family="Helvetica,sans-Serif" font-size="10.00">MayaFlux/Transitive</text>
<text text-anchor="middle" x="248" y="-73" font-family="Helvetica,sans-Serif" font-size="10.00">/Reflect/EnumReflect.hpp</text>
</a>
</g>
</g>
<!-- Node7&#45;&gt;Node8 -->
<g id="edge7_Node000007_Node000008" class="edge">
<title>Node7&#45;&gt;Node8</title>
<g id="a_edge7_Node000007_Node000008"><a xlink:title=" ">
<path fill="none" stroke="#63b8ff" d="M344.33,-131.87C328.57,-123.71 304.4,-111.2 284.21,-100.75"/>
<polygon fill="#63b8ff" stroke="#63b8ff" points="285.75,-97.6 275.26,-96.11 282.54,-103.82 285.75,-97.6"/>
</a>
</g>
</g>
<!-- Node9 -->
<g id="Node000009" class="node">
<title>Node9</title>
<g id="a_Node000009"><a xlink:title=" ">
<polygon fill="#e0e0e0" stroke="#999999" points="386,-90.5 336,-90.5 336,-71.5 386,-71.5 386,-90.5"/>
<text text-anchor="middle" x="361" y="-78.5" font-family="Helvetica,sans-Serif" font-size="10.00">chrono</text>
</a>
</g>
</g>
<!-- Node7&#45;&gt;Node9 -->
<g id="edge8_Node000007_Node000009" class="edge">
<title>Node7&#45;&gt;Node9</title>
<g id="a_edge8_Node000007_Node000009"><a xlink:title=" ">
<path fill="none" stroke="#63b8ff" d="M361,-131.87C361,-123.75 361,-111.31 361,-100.89"/>
<polygon fill="#63b8ff" stroke="#63b8ff" points="364.5,-100.67 361,-90.67 357.5,-100.67 364.5,-100.67"/>
</a>
</g>
</g>
<!-- Node10 -->
<g id="Node000010" class="node">
<title>Node10</title>
<g id="a_Node000010"><a xlink:title=" ">
<polygon fill="#e0e0e0" stroke="#999999" points="497.5,-90.5 404.5,-90.5 404.5,-71.5 497.5,-71.5 497.5,-90.5"/>
<text text-anchor="middle" x="451" y="-78.5" font-family="Helvetica,sans-Serif" font-size="10.00">source_location</text>
</a>
</g>
</g>
<!-- Node7&#45;&gt;Node10 -->
<g id="edge9_Node000007_Node000010" class="edge">
<title>Node7&#45;&gt;Node10</title>
<g id="a_edge9_Node000007_Node000010"><a xlink:title=" ">
<path fill="none" stroke="#63b8ff" d="M374.28,-131.87C388.64,-122.54 411.76,-107.51 428.87,-96.38"/>
<polygon fill="#63b8ff" stroke="#63b8ff" points="431.19,-99.05 437.67,-90.67 427.37,-93.18 431.19,-99.05"/>
</a>
</g>
</g>
<!-- Node11 -->
<g id="Node000011" class="node">
<title>Node11</title>
<g id="a_Node000011"><a xlink:title=" ">
<polygon fill="#e0e0e0" stroke="#999999" points="588.5,-90.5 515.5,-90.5 515.5,-71.5 588.5,-71.5 588.5,-90.5"/>
<text text-anchor="middle" x="552" y="-78.5" font-family="Helvetica,sans-Serif" font-size="10.00">string_view</text>
</a>
</g>
</g>
<!-- Node7&#45;&gt;Node11 -->
<g id="edge10_Node000007_Node000011" class="edge">
<title>Node7&#45;&gt;Node11</title>
<g id="a_edge10_Node000007_Node000011"><a xlink:title=" ">
<path fill="none" stroke="#63b8ff" d="M389.28,-131.93C418.7,-123.01 466.1,-108.6 507,-96 509.55,-95.21 512.18,-94.4 514.83,-93.58"/>
<polygon fill="#63b8ff" stroke="#63b8ff" points="515.89,-96.92 524.4,-90.61 513.81,-90.23 515.89,-96.92"/>
</a>
</g>
</g>
</g>
</svg>
