<?xml version="1.0" encoding="UTF-8" standalone="no"?>
<!DOCTYPE svg PUBLIC "-//W3C//DTD SVG 1.1//EN"
 "http://www.w3.org/Graphics/SVG/1.1/DTD/svg11.dtd">
<!-- Generated by graphviz version 2.43.0 (0)
 -->
<!-- Title: PointCollectionNode.hpp Pages: 1 -->
<!--zoomable 379 -->

<svg id="main" version="1.1" xmlns="http://www.w3.org/2000/svg" xmlns:xlink="http://www.w3.org/1999/xlink" xml:space="preserve" onload="init(evt)">
<style type="text/css"><![CDATA[
.node, .edge {opacity: 0.7;}
.node.selected, .edge.selected {opacity: 1;}
.edge:hover path { stroke: red; }
.edge:hover polygon { stroke: red; fill: red; }
]]></style>

<defs>
  <circle id="rim" cx="0" cy="0" r="7"/>
  <circle id="rim2" cx="0" cy="0" r="3.5"/>
  <g id="zoomPlus">
    <use xlink:href="#rim" fill="#404040"><set attributeName="fill" to="#808080" begin="zoomplus.mouseover" end="zoomplus.mouseout"/></use>
    <path d="M-4,0h8M0,-4v8" fill="none" stroke="white" stroke-width="1.5" pointer-events="none"/>
  </g>
  <g id="zoomMin">
    <use xlink:href="#rim" fill="#404040"><set attributeName="fill" to="#808080" begin="zoomminus.mouseover" end="zoomminus.mouseout"/></use>
    <path d="M-4,0h8" fill="none" stroke="white" stroke-width="1.5" pointer-events="none"/>
  </g>
  <g id="arrowUp" transform="translate(30 24)">
    <use xlink:href="#rim"/>
    <path pointer-events="none" fill="none" stroke="white" stroke-width="1.5" d="M0,-3.0v7 M-2.5,-0.5L0,-3.0L2.5,-0.5"/>
  </g>
  <g id="arrowRight" transform="rotate(90) translate(36 -43)">
    <use xlink:href="#rim"/>
    <path pointer-events="none" fill="none" stroke="white" stroke-width="1.5" d="M0,-3.0v7 M-2.5,-0.5L0,-3.0L2.5,-0.5"/>
  </g>
  <g id="arrowDown" transform="rotate(180) translate(-30 -48)">
    <use xlink:href="#rim"/>
    <path pointer-events="none" fill="none" stroke="white" stroke-width="1.5" d="M0,-3.0v7 M-2.5,-0.5L0,-3.0L2.5,-0.5"/>
  </g>
  <g id="arrowLeft" transform="rotate(270) translate(-36 17)">
    <use xlink:href="#rim"/>
    <path pointer-events="none" fill="none" stroke="white" stroke-width="1.5" d="M0,-3.0v7 M-2.5,-0.5L0,-3.0L2.5,-0.5"/>
  </g>
  <g id="resetDef">
    <use xlink:href="#rim2" fill="#404040"><set attributeName="fill" to="#808080" begin="reset.mouseover" end="reset.mouseout"/></use>
  </g>
</defs>
<script type="application/ecmascript">
var viewWidth = 551;
var viewHeight = 379;
var sectionId = 'dynsection-0';
</script>
<script type="application/ecmascript" xlink:href="svg.min.js"/>
<svg id="graph" class="graph">
<g id="viewport">
<title>PointCollectionNode.hpp</title>
<!-- Node1 -->
<g id="Node000001" class="node">
<title>Node1</title>
<g id="a_Node000001"><a xlink:title=" ">
<polygon fill="#999999" stroke="#666666" points="405,-371 268,-371 268,-352 405,-352 405,-371"/>
<text text-anchor="middle" x="336.5" y="-359" font-family="Helvetica,sans-Serif" font-size="10.00">PointCollectionNode.hpp</text>
</a>
</g>
</g>
<!-- Node2 -->
<g id="Node000002" class="node">
<title>Node2</title>
<g id="a_Node000002"><a xlink:href="PointNode_8hpp.html" target="_top" xlink:title=" ">
<polygon fill="white" stroke="#666666" points="380.5,-316 292.5,-316 292.5,-297 380.5,-297 380.5,-316"/>
<text text-anchor="middle" x="336.5" y="-304" font-family="Helvetica,sans-Serif" font-size="10.00">PointNode.hpp</text>
</a>
</g>
</g>
<!-- Node1&#45;&gt;Node2 -->
<g id="edge1_Node000001_Node000002" class="edge">
<title>Node1&#45;&gt;Node2</title>
<g id="a_edge1_Node000001_Node000002"><a xlink:title=" ">
<path fill="none" stroke="#63b8ff" d="M336.5,-351.75C336.5,-344.8 336.5,-334.85 336.5,-326.13"/>
<polygon fill="#63b8ff" stroke="#63b8ff" points="340,-326.09 336.5,-316.09 333,-326.09 340,-326.09"/>
</a>
</g>
</g>
<!-- Node3 -->
<g id="Node000003" class="node">
<title>Node3</title>
<g id="a_Node000003"><a xlink:href="GeometryWriterNode_8hpp.html" target="_top" xlink:title=" ">
<polygon fill="white" stroke="#666666" points="407.5,-261 265.5,-261 265.5,-242 407.5,-242 407.5,-261"/>
<text text-anchor="middle" x="336.5" y="-249" font-family="Helvetica,sans-Serif" font-size="10.00">GeometryWriterNode.hpp</text>
</a>
</g>
</g>
<!-- Node2&#45;&gt;Node3 -->
<g id="edge2_Node000002_Node000003" class="edge">
<title>Node2&#45;&gt;Node3</title>
<g id="a_edge2_Node000002_Node000003"><a xlink:title=" ">
<path fill="none" stroke="#63b8ff" d="M336.5,-296.75C336.5,-289.8 336.5,-279.85 336.5,-271.13"/>
<polygon fill="#63b8ff" stroke="#63b8ff" points="340,-271.09 336.5,-261.09 333,-271.09 340,-271.09"/>
</a>
</g>
</g>
<!-- Node4 -->
<g id="Node000004" class="node">
<title>Node4</title>
<g id="a_Node000004"><a xlink:href="GpuSync_8hpp.html" target="_top" xlink:title=" ">
<polygon fill="white" stroke="#666666" points="256.5,-200.5 176.5,-200.5 176.5,-181.5 256.5,-181.5 256.5,-200.5"/>
<text text-anchor="middle" x="216.5" y="-188.5" font-family="Helvetica,sans-Serif" font-size="10.00">GpuSync.hpp</text>
</a>
</g>
</g>
<!-- Node3&#45;&gt;Node4 -->
<g id="edge3_Node000003_Node000004" class="edge">
<title>Node3&#45;&gt;Node4</title>
<g id="a_edge3_Node000003_Node000004"><a xlink:title=" ">
<path fill="none" stroke="#63b8ff" d="M319.05,-241.99C299.14,-232.29 266.36,-216.31 243.23,-205.03"/>
<polygon fill="#63b8ff" stroke="#63b8ff" points="244.49,-201.75 233.97,-200.52 241.43,-208.04 244.49,-201.75"/>
</a>
</g>
</g>
<!-- Node9 -->
<g id="Node000009" class="node">
<title>Node9</title>
<g id="a_Node000009"><a xlink:href="VertexSpec_8hpp.html" target="_top" xlink:title=" ">
<polygon fill="white" stroke="#666666" points="382.5,-200.5 290.5,-200.5 290.5,-181.5 382.5,-181.5 382.5,-200.5"/>
<text text-anchor="middle" x="336.5" y="-188.5" font-family="Helvetica,sans-Serif" font-size="10.00">VertexSpec.hpp</text>
</a>
</g>
</g>
<!-- Node3&#45;&gt;Node9 -->
<g id="edge8_Node000003_Node000009" class="edge">
<title>Node3&#45;&gt;Node9</title>
<g id="a_edge8_Node000003_Node000009"><a xlink:title=" ">
<path fill="none" stroke="#63b8ff" d="M336.5,-241.87C336.5,-233.75 336.5,-221.31 336.5,-210.89"/>
<polygon fill="#63b8ff" stroke="#63b8ff" points="340,-210.67 336.5,-200.67 333,-210.67 340,-210.67"/>
</a>
</g>
</g>
<!-- Node13 -->
<g id="Node000013" class="node">
<title>Node13</title>
<g id="a_Node000013"><a xlink:href="GraphicsUtils_8hpp.html" target="_top" xlink:title=" ">
<polygon fill="white" stroke="#666666" points="542.5,-206 400.5,-206 400.5,-176 542.5,-176 542.5,-206"/>
<text text-anchor="start" x="408.5" y="-194" font-family="Helvetica,sans-Serif" font-size="10.00">MayaFlux/Portal/Graphics</text>
<text text-anchor="middle" x="471.5" y="-183" font-family="Helvetica,sans-Serif" font-size="10.00">/GraphicsUtils.hpp</text>
</a>
</g>
</g>
<!-- Node3&#45;&gt;Node13 -->
<g id="edge12_Node000003_Node000013" class="edge">
<title>Node3&#45;&gt;Node13</title>
<g id="a_edge12_Node000003_Node000013"><a xlink:title=" ">
<path fill="none" stroke="#63b8ff" d="M356.13,-241.99C375.3,-233.68 405.1,-220.78 429.6,-210.16"/>
<polygon fill="#63b8ff" stroke="#63b8ff" points="431.26,-213.25 439.04,-206.06 428.48,-206.83 431.26,-213.25"/>
</a>
</g>
</g>
<!-- Node5 -->
<g id="Node000005" class="node">
<title>Node5</title>
<g id="a_Node000005"><a xlink:href="Node_8hpp.html" target="_top" xlink:title=" ">
<polygon fill="white" stroke="#666666" points="258.5,-134.5 110.5,-134.5 110.5,-115.5 258.5,-115.5 258.5,-134.5"/>
<text text-anchor="middle" x="184.5" y="-122.5" font-family="Helvetica,sans-Serif" font-size="10.00">MayaFlux/Nodes/Node.hpp</text>
</a>
</g>
</g>
<!-- Node4&#45;&gt;Node5 -->
<g id="edge4_Node000004_Node000005" class="edge">
<title>Node4&#45;&gt;Node5</title>
<g id="a_edge4_Node000004_Node000005"><a xlink:title=" ">
<path fill="none" stroke="#63b8ff" d="M212.18,-181.37C207.44,-171.88 199.68,-156.36 193.58,-144.16"/>
<polygon fill="#63b8ff" stroke="#63b8ff" points="196.56,-142.28 188.95,-134.91 190.29,-145.41 196.56,-142.28"/>
</a>
</g>
</g>
<!-- Node6 -->
<g id="Node000006" class="node">
<title>Node6</title>
<g id="a_Node000006"><a xlink:href="GpuContext_8hpp.html" target="_top" xlink:title=" ">
<polygon fill="white" stroke="#666666" points="95,-74 0,-74 0,-55 95,-55 95,-74"/>
<text text-anchor="middle" x="47.5" y="-62" font-family="Helvetica,sans-Serif" font-size="10.00">GpuContext.hpp</text>
</a>
</g>
</g>
<!-- Node5&#45;&gt;Node6 -->
<g id="edge5_Node000005_Node000006" class="edge">
<title>Node5&#45;&gt;Node6</title>
<g id="a_edge5_Node000005_Node000006"><a xlink:title=" ">
<path fill="none" stroke="#63b8ff" d="M164.58,-115.49C141.55,-105.66 103.42,-89.38 76.96,-78.08"/>
<polygon fill="#63b8ff" stroke="#63b8ff" points="78.02,-74.72 67.45,-74.02 75.27,-81.16 78.02,-74.72"/>
</a>
</g>
</g>
<!-- Node7 -->
<g id="Node000007" class="node">
<title>Node7</title>
<g id="a_Node000007"><a xlink:href="NodeUtils_8hpp.html" target="_top" xlink:title=" ">
<polygon fill="white" stroke="#666666" points="283.5,-74 113.5,-74 113.5,-55 283.5,-55 283.5,-74"/>
<text text-anchor="middle" x="198.5" y="-62" font-family="Helvetica,sans-Serif" font-size="10.00">MayaFlux/Nodes/NodeUtils.hpp</text>
</a>
</g>
</g>
<!-- Node5&#45;&gt;Node7 -->
<g id="edge6_Node000005_Node000007" class="edge">
<title>Node5&#45;&gt;Node7</title>
<g id="a_edge6_Node000005_Node000007"><a xlink:title=" ">
<path fill="none" stroke="#63b8ff" d="M186.57,-115.37C188.53,-107.16 191.55,-94.54 194.06,-84.05"/>
<polygon fill="#63b8ff" stroke="#63b8ff" points="197.5,-84.71 196.43,-74.17 190.69,-83.08 197.5,-84.71"/>
</a>
</g>
</g>
<!-- Node8 -->
<g id="Node000008" class="node">
<title>Node8</title>
<g id="a_Node000008"><a xlink:href="NodeSpec_8hpp.html" target="_top" xlink:title=" ">
<polygon fill="white" stroke="#666666" points="241.5,-19 155.5,-19 155.5,0 241.5,0 241.5,-19"/>
<text text-anchor="middle" x="198.5" y="-7" font-family="Helvetica,sans-Serif" font-size="10.00">NodeSpec.hpp</text>
</a>
</g>
</g>
<!-- Node7&#45;&gt;Node8 -->
<g id="edge7_Node000007_Node000008" class="edge">
<title>Node7&#45;&gt;Node8</title>
<g id="a_edge7_Node000007_Node000008"><a xlink:title=" ">
<path fill="none" stroke="#63b8ff" d="M198.5,-54.75C198.5,-47.8 198.5,-37.85 198.5,-29.13"/>
<polygon fill="#63b8ff" stroke="#63b8ff" points="202,-29.09 198.5,-19.09 195,-29.09 202,-29.09"/>
</a>
</g>
</g>
<!-- Node10 -->
<g id="Node000010" class="node">
<title>Node10</title>
<g id="a_Node000010"><a xlink:href="VertexLayout_8hpp.html" target="_top" xlink:title=" ">
<polygon fill="white" stroke="#666666" points="428,-140 277,-140 277,-110 428,-110 428,-140"/>
<text text-anchor="start" x="285" y="-128" font-family="Helvetica,sans-Serif" font-size="10.00">MayaFlux/Kakshya/NDData</text>
<text text-anchor="middle" x="352.5" y="-117" font-family="Helvetica,sans-Serif" font-size="10.00">/VertexLayout.hpp</text>
</a>
</g>
</g>
<!-- Node9&#45;&gt;Node10 -->
<g id="edge9_Node000009_Node000010" class="edge">
<title>Node9&#45;&gt;Node10</title>
<g id="a_edge9_Node000009_Node000010"><a xlink:title=" ">
<path fill="none" stroke="#63b8ff" d="M338.66,-181.37C340.65,-173.4 343.7,-161.2 346.43,-150.27"/>
<polygon fill="#63b8ff" stroke="#63b8ff" points="349.88,-150.91 348.91,-140.36 343.09,-149.21 349.88,-150.91"/>
</a>
</g>
</g>
<!-- Node11 -->
<g id="Node000011" class="node">
<title>Node11</title>
<g id="a_Node000011"><a xlink:href="NDData_8hpp.html" target="_top" xlink:title=" ">
<polygon fill="white" stroke="#666666" points="390.5,-74 314.5,-74 314.5,-55 390.5,-55 390.5,-74"/>
<text text-anchor="middle" x="352.5" y="-62" font-family="Helvetica,sans-Serif" font-size="10.00">NDData.hpp</text>
</a>
</g>
</g>
<!-- Node10&#45;&gt;Node11 -->
<g id="edge10_Node000010_Node000011" class="edge">
<title>Node10&#45;&gt;Node11</title>
<g id="a_edge10_Node000010_Node000011"><a xlink:title=" ">
<path fill="none" stroke="#63b8ff" d="M352.5,-109.84C352.5,-102.21 352.5,-92.7 352.5,-84.45"/>
<polygon fill="#63b8ff" stroke="#63b8ff" points="356,-84.27 352.5,-74.27 349,-84.27 356,-84.27"/>
</a>
</g>
</g>
<!-- Node12 -->
<g id="Node000012" class="node">
<title>Node12</title>
<g id="a_Node000012"><a xlink:title=" ">
<polygon fill="#e0e0e0" stroke="#999999" points="391.5,-19 313.5,-19 313.5,0 391.5,0 391.5,-19"/>
<text text-anchor="middle" x="352.5" y="-7" font-family="Helvetica,sans-Serif" font-size="10.00">glm/glm.hpp</text>
</a>
</g>
</g>
<!-- Node11&#45;&gt;Node12 -->
<g id="edge11_Node000011_Node000012" class="edge">
<title>Node11&#45;&gt;Node12</title>
<g id="a_edge11_Node000011_Node000012"><a xlink:title=" ">
<path fill="none" stroke="#63b8ff" d="M352.5,-54.75C352.5,-47.8 352.5,-37.85 352.5,-29.13"/>
<polygon fill="#63b8ff" stroke="#63b8ff" points="356,-29.09 352.5,-19.09 349,-29.09 356,-29.09"/>
</a>
</g>
</g>
</g>
</svg>

<g id="navigator" transform="translate(0 0)" fill="#404254">
  <rect fill="#f2f5e9" fill-opacity="0.5" stroke="#606060" stroke-width=".5" x="0" y="0" width="60" height="60"/>
  <use id="zoomplus" xlink:href="#zoomPlus" x="17" y="9" onmousedown="handleZoom(evt,'in')"/>
  <use id="zoomminus" xlink:href="#zoomMin" x="42" y="9" onmousedown="handleZoom(evt,'out')"/>
  <use id="reset" xlink:href="#resetDef" x="30" y="36" onmousedown="handleReset()"/>
   <use id="arrowup" xlink:href="#arrowUp" x="0" y="0" onmousedown="handlePan(0,-1)"/>
  <use id="arrowright" xlink:href="#arrowRight" x="0" y="0" onmousedown="handlePan(1,0)"/>
  <use id="arrowdown" xlink:href="#arrowDown" x="0" y="0" onmousedown="handlePan(0,1)"/>
  <use id="arrowleft" xlink:href="#arrowLeft" x="0" y="0" onmousedown="handlePan(-1,0)"/>
</g>
<svg viewBox="0 0 15 15" width="100%" height="30px" preserveAspectRatio="xMaxYMin meet">
 <g id="arrow_out" transform="scale(0.3 0.3)">
  <a xlink:href="PointCollectionNode_8hpp__incl_org.svg" target="_base">
   <rect id="button" ry="5" rx="5" y="6" x="6" height="38" width="38"
        fill="#f2f5e9" fill-opacity="0.5" stroke="#606060" stroke-width="1.0"/>
   <path id="arrow"
     d="M 11.500037,31.436501 C 11.940474,20.09759 22.043105,11.32322 32.158766,21.979434 L 37.068811,17.246167 C 37.068811,17.246167 37.088388,32 37.088388,32 L 22.160133,31.978069 C 22.160133,31.978069 26.997745,27.140456 26.997745,27.140456 C 18.528582,18.264221 13.291696,25.230495 11.500037,31.436501 z"
     style="fill:#404040;"/>
  </a>
 </g>
</svg>

<style type='text/css'>
<![CDATA[
[data-mouse-over-selected='false'] { opacity: 0.7; }
[data-mouse-over-selected='true']  { opacity: 1.0; }
]]>
</style>
<script type="application/ecmascript"><![CDATA[
document.addEventListener('DOMContentLoaded', (event) => {
  highlightEdges();
  highlightAdjacentNodes();
});
]]></script>
</svg>
