<?xml version="1.0" encoding="UTF-8" standalone="no"?>
<!DOCTYPE svg PUBLIC "-//W3C//DTD SVG 1.1//EN"
 "http://www.w3.org/Graphics/SVG/1.1/DTD/svg11.dtd">
<!-- Generated by graphviz version 2.43.0 (0)
 -->
<!-- Title: ProcessingArchitecture.hpp Pages: 1 -->
<svg width="1106pt" height="247pt"
 viewBox="0.00 0.00 1106.00 247.00" xmlns="http://www.w3.org/2000/svg" xmlns:xlink="http://www.w3.org/1999/xlink">
<g id="graph0" class="graph" transform="scale(1 1) rotate(0) translate(4 243)">
<title>ProcessingArchitecture.hpp</title>
<!-- Node1 -->
<g id="Node000001" class="node">
<title>Node1</title>
<g id="a_Node000001"><a xlink:title="Unified processing architecture for multimodal subsystem coordination.">
<polygon fill="#999999" stroke="#666666" points="387,-239 238,-239 238,-220 387,-220 387,-239"/>
<text text-anchor="middle" x="312.5" y="-227" font-family="Helvetica,sans-Serif" font-size="10.00">ProcessingArchitecture.hpp</text>
</a>
</g>
</g>
<!-- Node2 -->
<g id="Node000002" class="node">
<title>Node2</title>
<g id="a_Node000002"><a xlink:href="Domain_8cpp.html" target="_top" xlink:title=" ">
<polygon fill="white" stroke="#666666" points="220,-184 145,-184 145,-165 220,-165 220,-184"/>
<text text-anchor="middle" x="182.5" y="-172" font-family="Helvetica,sans-Serif" font-size="10.00">Domain.cpp</text>
</a>
</g>
</g>
<!-- Node1&#45;&gt;Node2 -->
<g id="edge1_Node000001_Node000002" class="edge">
<title>Node1&#45;&gt;Node2</title>
<g id="a_edge1_Node000001_Node000002"><a xlink:title=" ">
<path fill="none" stroke="#63b8ff" d="M282.23,-216.16C258.16,-206.35 225.1,-192.87 203.77,-184.17"/>
<polygon fill="#63b8ff" stroke="#63b8ff" points="281.03,-219.45 291.61,-219.98 283.67,-212.97 281.03,-219.45"/>
</a>
</g>
</g>
<!-- Node3 -->
<g id="Node000003" class="node">
<title>Node3</title>
<g id="a_Node000003"><a xlink:href="ProcessingArchitecture_8cpp.html" target="_top" xlink:title=" ">
<polygon fill="white" stroke="#666666" points="387,-184 238,-184 238,-165 387,-165 387,-184"/>
<text text-anchor="middle" x="312.5" y="-172" font-family="Helvetica,sans-Serif" font-size="10.00">ProcessingArchitecture.cpp</text>
</a>
</g>
</g>
<!-- Node1&#45;&gt;Node3 -->
<g id="edge2_Node000001_Node000003" class="edge">
<title>Node1&#45;&gt;Node3</title>
<g id="a_edge2_Node000001_Node000003"><a xlink:title=" ">
<path fill="none" stroke="#63b8ff" d="M312.5,-209.66C312.5,-200.93 312.5,-190.99 312.5,-184.09"/>
<polygon fill="#63b8ff" stroke="#63b8ff" points="309,-209.75 312.5,-219.75 316,-209.75 309,-209.75"/>
</a>
</g>
</g>
<!-- Node4 -->
<g id="Node000004" class="node">
<title>Node4</title>
<g id="a_Node000004"><a xlink:href="Subsystem_8hpp.html" target="_top" xlink:title=" ">
<polygon fill="white" stroke="#666666" points="497.5,-184 405.5,-184 405.5,-165 497.5,-165 497.5,-184"/>
<text text-anchor="middle" x="451.5" y="-172" font-family="Helvetica,sans-Serif" font-size="10.00">Subsystem.hpp</text>
</a>
</g>
</g>
<!-- Node1&#45;&gt;Node4 -->
<g id="edge3_Node000001_Node000004" class="edge">
<title>Node1&#45;&gt;Node4</title>
<g id="a_edge3_Node000001_Node000004"><a xlink:title=" ">
<path fill="none" stroke="#63b8ff" d="M344.18,-216.42C369.97,-206.59 405.74,-192.95 428.76,-184.17"/>
<polygon fill="#63b8ff" stroke="#63b8ff" points="342.93,-213.15 334.83,-219.98 345.42,-219.69 342.93,-213.15"/>
</a>
</g>
</g>
<!-- Node5 -->
<g id="Node000005" class="node">
<title>Node5</title>
<g id="a_Node000005"><a xlink:href="AudioSubsystem_8hpp.html" target="_top" xlink:title=" ">
<polygon fill="white" stroke="#666666" points="223,-129 104,-129 104,-110 223,-110 223,-129"/>
<text text-anchor="middle" x="163.5" y="-117" font-family="Helvetica,sans-Serif" font-size="10.00">AudioSubsystem.hpp</text>
</a>
</g>
</g>
<!-- Node4&#45;&gt;Node5 -->
<g id="edge4_Node000004_Node000005" class="edge">
<title>Node4&#45;&gt;Node5</title>
<g id="a_edge4_Node000004_Node000005"><a xlink:title=" ">
<path fill="none" stroke="#63b8ff" d="M395.13,-163.13C341.14,-153.19 260.62,-138.37 210.13,-129.08"/>
<polygon fill="#63b8ff" stroke="#63b8ff" points="394.76,-166.62 405.23,-164.98 396.03,-159.73 394.76,-166.62"/>
</a>
</g>
</g>
<!-- Node8 -->
<g id="Node000008" class="node">
<title>Node8</title>
<g id="a_Node000008"><a xlink:href="GraphicsSubsystem_8hpp.html" target="_top" xlink:title=" ">
<polygon fill="white" stroke="#666666" points="375.5,-129 241.5,-129 241.5,-110 375.5,-110 375.5,-129"/>
<text text-anchor="middle" x="308.5" y="-117" font-family="Helvetica,sans-Serif" font-size="10.00">GraphicsSubsystem.hpp</text>
</a>
</g>
</g>
<!-- Node4&#45;&gt;Node8 -->
<g id="edge7_Node000004_Node000008" class="edge">
<title>Node4&#45;&gt;Node8</title>
<g id="a_edge7_Node000004_Node000008"><a xlink:title=" ">
<path fill="none" stroke="#63b8ff" d="M418.91,-161.42C392.38,-151.59 355.57,-137.95 331.89,-129.17"/>
<polygon fill="#63b8ff" stroke="#63b8ff" points="417.93,-164.79 428.52,-164.98 420.36,-158.23 417.93,-164.79"/>
</a>
</g>
</g>
<!-- Node10 -->
<g id="Node000010" class="node">
<title>Node10</title>
<g id="a_Node000010"><a xlink:href="InputSubsystem_8hpp.html" target="_top" xlink:title=" ">
<polygon fill="white" stroke="#666666" points="509.5,-129 393.5,-129 393.5,-110 509.5,-110 509.5,-129"/>
<text text-anchor="middle" x="451.5" y="-117" font-family="Helvetica,sans-Serif" font-size="10.00">InputSubsystem.hpp</text>
</a>
</g>
</g>
<!-- Node4&#45;&gt;Node10 -->
<g id="edge10_Node000004_Node000010" class="edge">
<title>Node4&#45;&gt;Node10</title>
<g id="a_edge10_Node000004_Node000010"><a xlink:title=" ">
<path fill="none" stroke="#63b8ff" d="M451.5,-154.66C451.5,-145.93 451.5,-135.99 451.5,-129.09"/>
<polygon fill="#63b8ff" stroke="#63b8ff" points="448,-154.75 451.5,-164.75 455,-154.75 448,-154.75"/>
</a>
</g>
</g>
<!-- Node13 -->
<g id="Node000013" class="node">
<title>Node13</title>
<g id="a_Node000013"><a xlink:href="NetworkSubsystem_8hpp.html" target="_top" xlink:title=" ">
<polygon fill="white" stroke="#666666" points="813,-129 680,-129 680,-110 813,-110 813,-129"/>
<text text-anchor="middle" x="746.5" y="-117" font-family="Helvetica,sans-Serif" font-size="10.00">NetworkSubsystem.hpp</text>
</a>
</g>
</g>
<!-- Node4&#45;&gt;Node13 -->
<g id="edge14_Node000004_Node000013" class="edge">
<title>Node4&#45;&gt;Node13</title>
<g id="a_edge14_Node000004_Node000013"><a xlink:title=" ">
<path fill="none" stroke="#63b8ff" d="M507.58,-163.42C562.9,-153.49 646.55,-138.46 698.78,-129.07"/>
<polygon fill="#63b8ff" stroke="#63b8ff" points="506.82,-160.01 497.59,-165.22 508.06,-166.9 506.82,-160.01"/>
</a>
</g>
</g>
<!-- Node15 -->
<g id="Node000015" class="node">
<title>Node15</title>
<g id="a_Node000015"><a xlink:href="SubsystemManager_8hpp.html" target="_top" xlink:title=" ">
<polygon fill="white" stroke="#666666" points="661.5,-129 527.5,-129 527.5,-110 661.5,-110 661.5,-129"/>
<text text-anchor="middle" x="594.5" y="-117" font-family="Helvetica,sans-Serif" font-size="10.00">SubsystemManager.hpp</text>
</a>
</g>
</g>
<!-- Node4&#45;&gt;Node15 -->
<g id="edge17_Node000004_Node000015" class="edge">
<title>Node4&#45;&gt;Node15</title>
<g id="a_edge17_Node000004_Node000015"><a xlink:title=" ">
<path fill="none" stroke="#63b8ff" d="M484.09,-161.42C510.62,-151.59 547.43,-137.95 571.11,-129.17"/>
<polygon fill="#63b8ff" stroke="#63b8ff" points="482.64,-158.23 474.48,-164.98 485.07,-164.79 482.64,-158.23"/>
</a>
</g>
</g>
<!-- Node6 -->
<g id="Node000006" class="node">
<title>Node6</title>
<g id="a_Node000006"><a xlink:href="AudioSubsystem_8cpp.html" target="_top" xlink:title=" ">
<polygon fill="white" stroke="#666666" points="119,-74 0,-74 0,-55 119,-55 119,-74"/>
<text text-anchor="middle" x="59.5" y="-62" font-family="Helvetica,sans-Serif" font-size="10.00">AudioSubsystem.cpp</text>
</a>
</g>
</g>
<!-- Node5&#45;&gt;Node6 -->
<g id="edge5_Node000005_Node000006" class="edge">
<title>Node5&#45;&gt;Node6</title>
<g id="a_edge5_Node000005_Node000006"><a xlink:title=" ">
<path fill="none" stroke="#63b8ff" d="M137.73,-105.37C118.63,-95.63 93.13,-82.64 76.51,-74.17"/>
<polygon fill="#63b8ff" stroke="#63b8ff" points="136.29,-108.56 146.79,-109.98 139.47,-102.33 136.29,-108.56"/>
</a>
</g>
</g>
<!-- Node7 -->
<g id="Node000007" class="node">
<title>Node7</title>
<g id="a_Node000007"><a xlink:href="SubsystemManager_8cpp.html" target="_top" xlink:title=" ">
<polygon fill="white" stroke="#666666" points="423,-74 290,-74 290,-55 423,-55 423,-74"/>
<text text-anchor="middle" x="356.5" y="-62" font-family="Helvetica,sans-Serif" font-size="10.00">SubsystemManager.cpp</text>
</a>
</g>
</g>
<!-- Node5&#45;&gt;Node7 -->
<g id="edge6_Node000005_Node000007" class="edge">
<title>Node5&#45;&gt;Node7</title>
<g id="a_edge6_Node000005_Node000007"><a xlink:title=" ">
<path fill="none" stroke="#63b8ff" d="M204.25,-107.31C240.36,-97.39 292.33,-83.12 325.25,-74.08"/>
<polygon fill="#63b8ff" stroke="#63b8ff" points="203.22,-103.96 194.51,-109.98 205.08,-110.71 203.22,-103.96"/>
</a>
</g>
</g>
<!-- Node8&#45;&gt;Node7 -->
<g id="edge9_Node000008_Node000007" class="edge">
<title>Node8&#45;&gt;Node7</title>
<g id="a_edge9_Node000008_Node000007"><a xlink:title=" ">
<path fill="none" stroke="#63b8ff" d="M323.23,-102.24C331.64,-92.95 341.85,-81.68 348.72,-74.09"/>
<polygon fill="#63b8ff" stroke="#63b8ff" points="320.54,-99.99 316.43,-109.75 325.73,-104.69 320.54,-99.99"/>
</a>
</g>
</g>
<!-- Node9 -->
<g id="Node000009" class="node">
<title>Node9</title>
<g id="a_Node000009"><a xlink:href="GraphicsSubsystem_8cpp.html" target="_top" xlink:title=" ">
<polygon fill="white" stroke="#666666" points="271.5,-74 137.5,-74 137.5,-55 271.5,-55 271.5,-74"/>
<text text-anchor="middle" x="204.5" y="-62" font-family="Helvetica,sans-Serif" font-size="10.00">GraphicsSubsystem.cpp</text>
</a>
</g>
</g>
<!-- Node8&#45;&gt;Node9 -->
<g id="edge8_Node000008_Node000009" class="edge">
<title>Node8&#45;&gt;Node9</title>
<g id="a_edge8_Node000008_Node000009"><a xlink:title=" ">
<path fill="none" stroke="#63b8ff" d="M282.73,-105.37C263.63,-95.63 238.13,-82.64 221.51,-74.17"/>
<polygon fill="#63b8ff" stroke="#63b8ff" points="281.29,-108.56 291.79,-109.98 284.47,-102.33 281.29,-108.56"/>
</a>
</g>
</g>
<!-- Node10&#45;&gt;Node7 -->
<g id="edge13_Node000010_Node000007" class="edge">
<title>Node10&#45;&gt;Node7</title>
<g id="a_edge13_Node000010_Node000007"><a xlink:title=" ">
<path fill="none" stroke="#63b8ff" d="M427.24,-104.97C409.87,-95.28 387.01,-82.52 372.04,-74.17"/>
<polygon fill="#63b8ff" stroke="#63b8ff" points="425.8,-108.17 436.24,-109.98 429.21,-102.06 425.8,-108.17"/>
</a>
</g>
</g>
<!-- Node11 -->
<g id="Node000011" class="node">
<title>Node11</title>
<g id="a_Node000011"><a xlink:href="Input_8cpp.html" target="_top" xlink:title=" ">
<polygon fill="white" stroke="#666666" points="381.5,-19 319.5,-19 319.5,0 381.5,0 381.5,-19"/>
<text text-anchor="middle" x="350.5" y="-7" font-family="Helvetica,sans-Serif" font-size="10.00">Input.cpp</text>
</a>
</g>
</g>
<!-- Node10&#45;&gt;Node11 -->
<g id="edge11_Node000010_Node000011" class="edge">
<title>Node10&#45;&gt;Node11</title>
<g id="a_edge11_Node000010_Node000011"><a xlink:title=" ">
<path fill="none" stroke="#63b8ff" d="M449.33,-99.54C446.93,-85.89 441.92,-67.71 431.5,-55 417.36,-37.75 394.69,-26.12 376.93,-19.08"/>
<polygon fill="#63b8ff" stroke="#63b8ff" points="445.91,-100.33 450.8,-109.73 452.84,-99.33 445.91,-100.33"/>
</a>
</g>
</g>
<!-- Node12 -->
<g id="Node000012" class="node">
<title>Node12</title>
<g id="a_Node000012"><a xlink:href="InputSubsystem_8cpp.html" target="_top" xlink:title=" ">
<polygon fill="white" stroke="#666666" points="595.5,-74 479.5,-74 479.5,-55 595.5,-55 595.5,-74"/>
<text text-anchor="middle" x="537.5" y="-62" font-family="Helvetica,sans-Serif" font-size="10.00">InputSubsystem.cpp</text>
</a>
</g>
</g>
<!-- Node10&#45;&gt;Node12 -->
<g id="edge12_Node000010_Node000012" class="edge">
<title>Node10&#45;&gt;Node12</title>
<g id="a_edge12_Node000010_Node000012"><a xlink:title=" ">
<path fill="none" stroke="#63b8ff" d="M473.9,-104.7C489.57,-95.04 510.01,-82.44 523.43,-74.17"/>
<polygon fill="#63b8ff" stroke="#63b8ff" points="471.99,-101.76 465.32,-109.98 475.67,-107.72 471.99,-101.76"/>
</a>
</g>
</g>
<!-- Node13&#45;&gt;Node7 -->
<g id="edge16_Node000013_Node000007" class="edge">
<title>Node13&#45;&gt;Node7</title>
<g id="a_edge16_Node000013_Node000007"><a xlink:title=" ">
<path fill="none" stroke="#63b8ff" d="M673.77,-108.62C600.56,-98.67 488.8,-83.48 419.33,-74.04"/>
<polygon fill="#63b8ff" stroke="#63b8ff" points="673.46,-112.11 683.84,-109.98 674.4,-105.17 673.46,-112.11"/>
</a>
</g>
</g>
<!-- Node14 -->
<g id="Node000014" class="node">
<title>Node14</title>
<g id="a_Node000014"><a xlink:href="NetworkSubsystem_8cpp.html" target="_top" xlink:title=" ">
<polygon fill="white" stroke="#666666" points="835.5,-74 703.5,-74 703.5,-55 835.5,-55 835.5,-74"/>
<text text-anchor="middle" x="769.5" y="-62" font-family="Helvetica,sans-Serif" font-size="10.00">NetworkSubsystem.cpp</text>
</a>
</g>
</g>
<!-- Node13&#45;&gt;Node14 -->
<g id="edge15_Node000013_Node000014" class="edge">
<title>Node13&#45;&gt;Node14</title>
<g id="a_edge15_Node000013_Node000014"><a xlink:title=" ">
<path fill="none" stroke="#63b8ff" d="M754.3,-100.53C758.18,-91.6 762.68,-81.22 765.77,-74.09"/>
<polygon fill="#63b8ff" stroke="#63b8ff" points="751.07,-99.18 750.3,-109.75 757.49,-101.97 751.07,-99.18"/>
</a>
</g>
</g>
<!-- Node15&#45;&gt;Node7 -->
<g id="edge28_Node000015_Node000007" class="edge">
<title>Node15&#45;&gt;Node7</title>
<g id="a_edge28_Node000015_Node000007"><a xlink:title=" ">
<path fill="none" stroke="#63b8ff" d="M546.24,-107.75C501.64,-97.82 436.24,-83.26 395.04,-74.08"/>
<polygon fill="#63b8ff" stroke="#63b8ff" points="545.74,-111.23 556.26,-109.98 547.26,-104.39 545.74,-111.23"/>
</a>
</g>
</g>
<!-- Node16 -->
<g id="Node000016" class="node">
<title>Node16</title>
<g id="a_Node000016"><a xlink:href="Engine_8hpp.html" target="_top" xlink:title=" ">
<polygon fill="white" stroke="#666666" points="685,-74 614,-74 614,-55 685,-55 685,-74"/>
<text text-anchor="middle" x="649.5" y="-62" font-family="Helvetica,sans-Serif" font-size="10.00">Engine.hpp</text>
</a>
</g>
</g>
<!-- Node15&#45;&gt;Node16 -->
<g id="edge18_Node000015_Node000016" class="edge">
<title>Node15&#45;&gt;Node16</title>
<g id="a_edge18_Node000015_Node000016"><a xlink:title=" ">
<path fill="none" stroke="#63b8ff" d="M610.79,-102.8C620.54,-93.41 632.55,-81.83 640.59,-74.09"/>
<polygon fill="#63b8ff" stroke="#63b8ff" points="608.35,-100.29 603.58,-109.75 613.21,-105.33 608.35,-100.29"/>
</a>
</g>
</g>
<!-- Node16&#45;&gt;Node11 -->
<g id="edge25_Node000016_Node000011" class="edge">
<title>Node16&#45;&gt;Node11</title>
<g id="a_edge25_Node000016_Node000011"><a xlink:title=" ">
<path fill="none" stroke="#63b8ff" d="M603.54,-54.86C507.86,-37.96 482.1,-36.43 390.5,-19 387.71,-18.47 384.82,-17.9 381.92,-17.31"/>
<polygon fill="#63b8ff" stroke="#63b8ff" points="603.19,-58.36 613.65,-56.66 604.42,-51.47 603.19,-58.36"/>
</a>
</g>
</g>
<!-- Node17 -->
<g id="Node000017" class="node">
<title>Node17</title>
<g id="a_Node000017"><a xlink:href="Chronie_8cpp.html" target="_top" xlink:title=" ">
<polygon fill="white" stroke="#666666" points="934.5,-19 860.5,-19 860.5,0 934.5,0 934.5,-19"/>
<text text-anchor="middle" x="897.5" y="-7" font-family="Helvetica,sans-Serif" font-size="10.00">Chronie.cpp</text>
</a>
</g>
</g>
<!-- Node16&#45;&gt;Node17 -->
<g id="edge19_Node000016_Node000017" class="edge">
<title>Node16&#45;&gt;Node17</title>
<g id="a_edge19_Node000016_Node000017"><a xlink:title=" ">
<path fill="none" stroke="#63b8ff" d="M695.06,-53.76C742.61,-43.6 816.28,-27.86 860.41,-18.43"/>
<polygon fill="#63b8ff" stroke="#63b8ff" points="694.08,-50.39 685.03,-55.91 695.54,-57.24 694.08,-50.39"/>
</a>
</g>
</g>
<!-- Node18 -->
<g id="Node000018" class="node">
<title>Node18</title>
<g id="a_Node000018"><a xlink:href="Config_8cpp.html" target="_top" xlink:title=" ">
<polygon fill="white" stroke="#666666" points="1020.5,-19 952.5,-19 952.5,0 1020.5,0 1020.5,-19"/>
<text text-anchor="middle" x="986.5" y="-7" font-family="Helvetica,sans-Serif" font-size="10.00">Config.cpp</text>
</a>
</g>
</g>
<!-- Node16&#45;&gt;Node18 -->
<g id="edge20_Node000016_Node000018" class="edge">
<title>Node16&#45;&gt;Node18</title>
<g id="a_edge20_Node000016_Node000018"><a xlink:title=" ">
<path fill="none" stroke="#63b8ff" d="M695.27,-54.94C806.48,-36.67 836.4,-37.31 943.5,-19 946.35,-18.51 949.3,-17.98 952.26,-17.43"/>
<polygon fill="#63b8ff" stroke="#63b8ff" points="694.63,-51.5 685.34,-56.59 695.77,-58.4 694.63,-51.5"/>
</a>
</g>
</g>
<!-- Node19 -->
<g id="Node000019" class="node">
<title>Node19</title>
<g id="a_Node000019"><a xlink:href="Core_8cpp.html" target="_top" xlink:title=" ">
<polygon fill="white" stroke="#666666" points="1098,-19 1039,-19 1039,0 1098,0 1098,-19"/>
<text text-anchor="middle" x="1068.5" y="-7" font-family="Helvetica,sans-Serif" font-size="10.00">Core.cpp</text>
</a>
</g>
</g>
<!-- Node16&#45;&gt;Node19 -->
<g id="edge21_Node000016_Node000019" class="edge">
<title>Node16&#45;&gt;Node19</title>
<g id="a_edge21_Node000016_Node000019"><a xlink:title=" ">
<path fill="none" stroke="#63b8ff" d="M695.3,-55.01C844.36,-33.5 884.86,-42.46 1029.5,-19 1032.51,-18.51 1035.64,-17.94 1038.75,-17.33"/>
<polygon fill="#63b8ff" stroke="#63b8ff" points="694.7,-51.56 685.32,-56.47 695.72,-58.48 694.7,-51.56"/>
</a>
</g>
</g>
<!-- Node20 -->
<g id="Node000020" class="node">
<title>Node20</title>
<g id="a_Node000020"><a xlink:href="Depot_8cpp.html" target="_top" xlink:title=" ">
<polygon fill="white" stroke="#666666" points="465.5,-19 399.5,-19 399.5,0 465.5,0 465.5,-19"/>
<text text-anchor="middle" x="432.5" y="-7" font-family="Helvetica,sans-Serif" font-size="10.00">Depot.cpp</text>
</a>
</g>
</g>
<!-- Node16&#45;&gt;Node20 -->
<g id="edge22_Node000016_Node000020" class="edge">
<title>Node16&#45;&gt;Node20</title>
<g id="a_edge22_Node000016_Node000020"><a xlink:title=" ">
<path fill="none" stroke="#63b8ff" d="M604.8,-52.58C563.38,-42.47 502.7,-27.65 465.5,-18.56"/>
<polygon fill="#63b8ff" stroke="#63b8ff" points="604.09,-56.01 614.64,-54.98 605.75,-49.21 604.09,-56.01"/>
</a>
</g>
</g>
<!-- Node21 -->
<g id="Node000021" class="node">
<title>Node21</title>
<g id="a_Node000021"><a xlink:href="Engine_8cpp.html" target="_top" xlink:title=" ">
<polygon fill="white" stroke="#666666" points="553.5,-19 483.5,-19 483.5,0 553.5,0 553.5,-19"/>
<text text-anchor="middle" x="518.5" y="-7" font-family="Helvetica,sans-Serif" font-size="10.00">Engine.cpp</text>
</a>
</g>
</g>
<!-- Node16&#45;&gt;Node21 -->
<g id="edge23_Node000016_Node000021" class="edge">
<title>Node16&#45;&gt;Node21</title>
<g id="a_edge23_Node000016_Node000021"><a xlink:title=" ">
<path fill="none" stroke="#63b8ff" d="M619,-51.16C594.75,-41.35 561.43,-27.87 539.93,-19.17"/>
<polygon fill="#63b8ff" stroke="#63b8ff" points="617.87,-54.48 628.45,-54.98 620.5,-47.99 617.87,-54.48"/>
</a>
</g>
</g>
<!-- Node22 -->
<g id="Node000022" class="node">
<title>Node22</title>
<g id="a_Node000022"><a xlink:href="Graph_8cpp.html" target="_top" xlink:title=" ">
<polygon fill="white" stroke="#666666" points="637.5,-19 571.5,-19 571.5,0 637.5,0 637.5,-19"/>
<text text-anchor="middle" x="604.5" y="-7" font-family="Helvetica,sans-Serif" font-size="10.00">Graph.cpp</text>
</a>
</g>
</g>
<!-- Node16&#45;&gt;Node22 -->
<g id="edge24_Node000016_Node000022" class="edge">
<title>Node16&#45;&gt;Node22</title>
<g id="a_edge24_Node000016_Node000022"><a xlink:title=" ">
<path fill="none" stroke="#63b8ff" d="M635.45,-46.96C627.61,-37.72 618.17,-26.6 611.79,-19.09"/>
<polygon fill="#63b8ff" stroke="#63b8ff" points="632.93,-49.39 642.07,-54.75 638.26,-44.86 632.93,-49.39"/>
</a>
</g>
</g>
<!-- Node23 -->
<g id="Node000023" class="node">
<title>Node23</title>
<g id="a_Node000023"><a xlink:href="API_2Random_8cpp.html" target="_top" xlink:title=" ">
<polygon fill="white" stroke="#666666" points="733,-19 656,-19 656,0 733,0 733,-19"/>
<text text-anchor="middle" x="694.5" y="-7" font-family="Helvetica,sans-Serif" font-size="10.00">Random.cpp</text>
</a>
</g>
</g>
<!-- Node16&#45;&gt;Node23 -->
<g id="edge26_Node000016_Node000023" class="edge">
<title>Node16&#45;&gt;Node23</title>
<g id="a_edge26_Node000016_Node000023"><a xlink:title=" ">
<path fill="none" stroke="#63b8ff" d="M663.55,-46.96C671.39,-37.72 680.83,-26.6 687.21,-19.09"/>
<polygon fill="#63b8ff" stroke="#63b8ff" points="660.74,-44.86 656.93,-54.75 666.07,-49.39 660.74,-44.86"/>
</a>
</g>
</g>
<!-- Node24 -->
<g id="Node000024" class="node">
<title>Node24</title>
<g id="a_Node000024"><a xlink:href="Windowing_8cpp.html" target="_top" xlink:title=" ">
<polygon fill="white" stroke="#666666" points="842,-19 751,-19 751,0 842,0 842,-19"/>
<text text-anchor="middle" x="796.5" y="-7" font-family="Helvetica,sans-Serif" font-size="10.00">Windowing.cpp</text>
</a>
</g>
</g>
<!-- Node16&#45;&gt;Node24 -->
<g id="edge27_Node000016_Node000024" class="edge">
<title>Node16&#45;&gt;Node24</title>
<g id="a_edge27_Node000016_Node000024"><a xlink:title=" ">
<path fill="none" stroke="#63b8ff" d="M682.64,-51.55C709.94,-41.71 748,-27.98 772.45,-19.17"/>
<polygon fill="#63b8ff" stroke="#63b8ff" points="681.34,-48.3 673.12,-54.98 683.71,-54.89 681.34,-48.3"/>
</a>
</g>
</g>
</g>
</svg>
