<?xml version="1.0" encoding="UTF-8" standalone="no"?>
<!DOCTYPE svg PUBLIC "-//W3C//DTD SVG 1.1//EN"
 "http://www.w3.org/Graphics/SVG/1.1/DTD/svg11.dtd">
<!-- Generated by graphviz version 2.43.0 (0)
 -->
<!-- Title: Promise.hpp Pages: 1 -->
<svg width="1777pt" height="302pt"
 viewBox="0.00 0.00 1776.90 302.00" xmlns="http://www.w3.org/2000/svg" xmlns:xlink="http://www.w3.org/1999/xlink">
<g id="graph0" class="graph" transform="scale(1 1) rotate(0) translate(4 298)">
<title>Promise.hpp</title>
<!-- Node1 -->
<g id="Node000001" class="node">
<title>Node1</title>
<g id="a_Node000001"><a xlink:title=" ">
<polygon fill="#999999" stroke="#666666" points="802.4,-294 725.4,-294 725.4,-275 802.4,-275 802.4,-294"/>
<text text-anchor="middle" x="763.9" y="-282" font-family="Helvetica,sans-Serif" font-size="10.00">Promise.hpp</text>
</a>
</g>
</g>
<!-- Node2 -->
<g id="Node000002" class="node">
<title>Node2</title>
<g id="a_Node000002"><a xlink:href="Event_8hpp.html" target="_top" xlink:title=" ">
<polygon fill="white" stroke="#666666" points="599.4,-239 534.4,-239 534.4,-220 599.4,-220 599.4,-239"/>
<text text-anchor="middle" x="566.9" y="-227" font-family="Helvetica,sans-Serif" font-size="10.00">Event.hpp</text>
</a>
</g>
</g>
<!-- Node1&#45;&gt;Node2 -->
<g id="edge1_Node000001_Node000002" class="edge">
<title>Node1&#45;&gt;Node2</title>
<g id="a_edge1_Node000001_Node000002"><a xlink:title=" ">
<path fill="none" stroke="#63b8ff" d="M722.31,-272.31C685.45,-262.39 632.4,-248.12 598.8,-239.08"/>
<polygon fill="#63b8ff" stroke="#63b8ff" points="721.68,-275.77 732.25,-274.98 723.5,-269.01 721.68,-275.77"/>
</a>
</g>
</g>
<!-- Node15 -->
<g id="Node000015" class="node">
<title>Node15</title>
<g id="a_Node000015"><a xlink:href="GetPromise_8hpp.html" target="_top" xlink:title=" ">
<polygon fill="white" stroke="#666666" points="811.4,-239 716.4,-239 716.4,-220 811.4,-220 811.4,-239"/>
<text text-anchor="middle" x="763.9" y="-227" font-family="Helvetica,sans-Serif" font-size="10.00">GetPromise.hpp</text>
</a>
</g>
</g>
<!-- Node1&#45;&gt;Node15 -->
<g id="edge14_Node000001_Node000015" class="edge">
<title>Node1&#45;&gt;Node15</title>
<g id="a_edge14_Node000001_Node000015"><a xlink:title=" ">
<path fill="none" stroke="#63b8ff" d="M763.9,-264.66C763.9,-255.93 763.9,-245.99 763.9,-239.09"/>
<polygon fill="#63b8ff" stroke="#63b8ff" points="760.4,-264.75 763.9,-274.75 767.4,-264.75 760.4,-264.75"/>
</a>
</g>
</g>
<!-- Node24 -->
<g id="Node000024" class="node">
<title>Node24</title>
<g id="a_Node000024"><a xlink:href="Routine_8hpp.html" target="_top" xlink:title=" ">
<polygon fill="white" stroke="#666666" points="949.4,-239 874.4,-239 874.4,-220 949.4,-220 949.4,-239"/>
<text text-anchor="middle" x="911.9" y="-227" font-family="Helvetica,sans-Serif" font-size="10.00">Routine.hpp</text>
</a>
</g>
</g>
<!-- Node1&#45;&gt;Node24 -->
<g id="edge27_Node000001_Node000024" class="edge">
<title>Node1&#45;&gt;Node24</title>
<g id="a_edge27_Node000001_Node000024"><a xlink:title=" ">
<path fill="none" stroke="#63b8ff" d="M797.27,-271.55C824.75,-261.71 863.07,-247.98 887.69,-239.17"/>
<polygon fill="#63b8ff" stroke="#63b8ff" points="795.91,-268.32 787.68,-274.98 798.27,-274.91 795.91,-268.32"/>
</a>
</g>
</g>
<!-- Node3 -->
<g id="Node000003" class="node">
<title>Node3</title>
<g id="a_Node000003"><a xlink:href="Event_8cpp.html" target="_top" xlink:title=" ">
<polygon fill="white" stroke="#666666" points="322.4,-184 257.4,-184 257.4,-165 322.4,-165 322.4,-184"/>
<text text-anchor="middle" x="289.9" y="-172" font-family="Helvetica,sans-Serif" font-size="10.00">Event.cpp</text>
</a>
</g>
</g>
<!-- Node2&#45;&gt;Node3 -->
<g id="edge2_Node000002_Node000003" class="edge">
<title>Node2&#45;&gt;Node3</title>
<g id="a_edge2_Node000002_Node000003"><a xlink:title=" ">
<path fill="none" stroke="#63b8ff" d="M524.14,-220.68C476.82,-211.96 398.35,-197.35 330.9,-184 328.19,-183.46 325.38,-182.9 322.56,-182.33"/>
<polygon fill="#63b8ff" stroke="#63b8ff" points="523.56,-224.13 534.03,-222.5 524.83,-217.24 523.56,-224.13"/>
</a>
</g>
</g>
<!-- Node4 -->
<g id="Node000004" class="node">
<title>Node4</title>
<g id="a_Node000004"><a xlink:href="EventManager_8hpp.html" target="_top" xlink:title=" ">
<polygon fill="white" stroke="#666666" points="447.4,-184 340.4,-184 340.4,-165 447.4,-165 447.4,-184"/>
<text text-anchor="middle" x="393.9" y="-172" font-family="Helvetica,sans-Serif" font-size="10.00">EventManager.hpp</text>
</a>
</g>
</g>
<!-- Node2&#45;&gt;Node4 -->
<g id="edge3_Node000002_Node000004" class="edge">
<title>Node2&#45;&gt;Node4</title>
<g id="a_edge3_Node000002_Node000004"><a xlink:title=" ">
<path fill="none" stroke="#63b8ff" d="M529.13,-216.93C496.81,-207.03 451.04,-193.01 421.91,-184.08"/>
<polygon fill="#63b8ff" stroke="#63b8ff" points="528.52,-220.4 539.1,-219.98 530.57,-213.71 528.52,-220.4"/>
</a>
</g>
</g>
<!-- Node13 -->
<g id="Node000013" class="node">
<title>Node13</title>
<g id="a_Node000013"><a xlink:href="InputEvents_8cpp.html" target="_top" xlink:title=" ">
<polygon fill="white" stroke="#666666" points="735.4,-184 640.4,-184 640.4,-165 735.4,-165 735.4,-184"/>
<text text-anchor="middle" x="687.9" y="-172" font-family="Helvetica,sans-Serif" font-size="10.00">InputEvents.cpp</text>
</a>
</g>
</g>
<!-- Node2&#45;&gt;Node13 -->
<g id="edge12_Node000002_Node000013" class="edge">
<title>Node2&#45;&gt;Node13</title>
<g id="a_edge12_Node000002_Node000013"><a xlink:title=" ">
<path fill="none" stroke="#63b8ff" d="M595.67,-215.9C618.02,-206.11 648.42,-192.79 668.11,-184.17"/>
<polygon fill="#63b8ff" stroke="#63b8ff" points="594.1,-212.77 586.34,-219.98 596.91,-219.18 594.1,-212.77"/>
</a>
</g>
</g>
<!-- Node14 -->
<g id="Node000014" class="node">
<title>Node14</title>
<g id="a_Node000014"><a xlink:href="NetworkEvents_8cpp.html" target="_top" xlink:title=" ">
<polygon fill="white" stroke="#666666" points="622.4,-184 511.4,-184 511.4,-165 622.4,-165 622.4,-184"/>
<text text-anchor="middle" x="566.9" y="-172" font-family="Helvetica,sans-Serif" font-size="10.00">NetworkEvents.cpp</text>
</a>
</g>
</g>
<!-- Node2&#45;&gt;Node14 -->
<g id="edge13_Node000002_Node000014" class="edge">
<title>Node2&#45;&gt;Node14</title>
<g id="a_edge13_Node000002_Node000014"><a xlink:title=" ">
<path fill="none" stroke="#63b8ff" d="M566.9,-209.66C566.9,-200.93 566.9,-190.99 566.9,-184.09"/>
<polygon fill="#63b8ff" stroke="#63b8ff" points="563.4,-209.75 566.9,-219.75 570.4,-209.75 563.4,-209.75"/>
</a>
</g>
</g>
<!-- Node5 -->
<g id="Node000005" class="node">
<title>Node5</title>
<g id="a_Node000005"><a xlink:href="Chronie_8cpp.html" target="_top" xlink:title=" ">
<polygon fill="white" stroke="#666666" points="684.9,-74 610.9,-74 610.9,-55 684.9,-55 684.9,-74"/>
<text text-anchor="middle" x="647.9" y="-62" font-family="Helvetica,sans-Serif" font-size="10.00">Chronie.cpp</text>
</a>
</g>
</g>
<!-- Node4&#45;&gt;Node5 -->
<g id="edge4_Node000004_Node000005" class="edge">
<title>Node4&#45;&gt;Node5</title>
<g id="a_edge4_Node000004_Node000005"><a xlink:title=" ">
<path fill="none" stroke="#63b8ff" d="M330.28,-165.12C236.25,-156.54 -42.22,-161.57 5.9,-110 47.25,-65.68 479.79,-64.52 610.62,-65.2"/>
<polygon fill="#63b8ff" stroke="#63b8ff" points="329.98,-168.61 340.3,-166.18 330.72,-161.65 329.98,-168.61"/>
</a>
</g>
</g>
<!-- Node6 -->
<g id="Node000006" class="node">
<title>Node6</title>
<g id="a_Node000006"><a xlink:href="Context_8cpp.html" target="_top" xlink:title=" ">
<polygon fill="white" stroke="#666666" points="90.4,-129 15.4,-129 15.4,-110 90.4,-110 90.4,-129"/>
<text text-anchor="middle" x="52.9" y="-117" font-family="Helvetica,sans-Serif" font-size="10.00">Context.cpp</text>
</a>
</g>
</g>
<!-- Node4&#45;&gt;Node6 -->
<g id="edge5_Node000004_Node000006" class="edge">
<title>Node4&#45;&gt;Node6</title>
<g id="a_edge5_Node000004_Node000006"><a xlink:title=" ">
<path fill="none" stroke="#63b8ff" d="M330.21,-164.51C270.39,-155.92 178.45,-142.35 98.9,-129 96.18,-128.54 93.37,-128.06 90.54,-127.56"/>
<polygon fill="#63b8ff" stroke="#63b8ff" points="329.86,-168 340.25,-165.95 330.85,-161.07 329.86,-168"/>
</a>
</g>
</g>
<!-- Node7 -->
<g id="Node000007" class="node">
<title>Node7</title>
<g id="a_Node000007"><a xlink:href="Engine_8cpp.html" target="_top" xlink:title=" ">
<polygon fill="white" stroke="#666666" points="654.9,-129 584.9,-129 584.9,-110 654.9,-110 654.9,-129"/>
<text text-anchor="middle" x="619.9" y="-117" font-family="Helvetica,sans-Serif" font-size="10.00">Engine.cpp</text>
</a>
</g>
</g>
<!-- Node4&#45;&gt;Node7 -->
<g id="edge6_Node000004_Node000007" class="edge">
<title>Node4&#45;&gt;Node7</title>
<g id="a_edge6_Node000004_Node000007"><a xlink:title=" ">
<path fill="none" stroke="#63b8ff" d="M440.12,-162.66C483,-152.61 545.89,-137.86 584.8,-128.73"/>
<polygon fill="#63b8ff" stroke="#63b8ff" points="439.15,-159.29 430.21,-164.98 440.75,-166.11 439.15,-159.29"/>
</a>
</g>
</g>
<!-- Node8 -->
<g id="Node000008" class="node">
<title>Node8</title>
<g id="a_Node000008"><a xlink:href="EventManager_8cpp.html" target="_top" xlink:title=" ">
<polygon fill="white" stroke="#666666" points="215.4,-129 108.4,-129 108.4,-110 215.4,-110 215.4,-129"/>
<text text-anchor="middle" x="161.9" y="-117" font-family="Helvetica,sans-Serif" font-size="10.00">EventManager.cpp</text>
</a>
</g>
</g>
<!-- Node4&#45;&gt;Node8 -->
<g id="edge7_Node000004_Node000008" class="edge">
<title>Node4&#45;&gt;Node8</title>
<g id="a_edge7_Node000004_Node000008"><a xlink:title=" ">
<path fill="none" stroke="#63b8ff" d="M346.86,-162.75C303.38,-152.82 239.63,-138.26 199.47,-129.08"/>
<polygon fill="#63b8ff" stroke="#63b8ff" points="346.1,-166.17 356.63,-164.98 347.66,-159.35 346.1,-166.17"/>
</a>
</g>
</g>
<!-- Node9 -->
<g id="Node000009" class="node">
<title>Node9</title>
<g id="a_Node000009"><a xlink:href="Fabric_8cpp.html" target="_top" xlink:title=" ">
<polygon fill="white" stroke="#666666" points="298.4,-129 233.4,-129 233.4,-110 298.4,-110 298.4,-129"/>
<text text-anchor="middle" x="265.9" y="-117" font-family="Helvetica,sans-Serif" font-size="10.00">Fabric.cpp</text>
</a>
</g>
</g>
<!-- Node4&#45;&gt;Node9 -->
<g id="edge8_Node000004_Node000009" class="edge">
<title>Node4&#45;&gt;Node9</title>
<g id="a_edge8_Node000004_Node000009"><a xlink:title=" ">
<path fill="none" stroke="#63b8ff" d="M363.78,-161.03C340.11,-151.23 307.75,-137.83 286.84,-129.17"/>
<polygon fill="#63b8ff" stroke="#63b8ff" points="362.76,-164.39 373.33,-164.98 365.43,-157.93 362.76,-164.39"/>
</a>
</g>
</g>
<!-- Node10 -->
<g id="Node000010" class="node">
<title>Node10</title>
<g id="a_Node000010"><a xlink:href="Forma_8cpp.html" target="_top" xlink:title=" ">
<polygon fill="white" stroke="#666666" points="470.9,-129 402.9,-129 402.9,-110 470.9,-110 470.9,-129"/>
<text text-anchor="middle" x="436.9" y="-117" font-family="Helvetica,sans-Serif" font-size="10.00">Forma.cpp</text>
</a>
</g>
</g>
<!-- Node4&#45;&gt;Node10 -->
<g id="edge9_Node000004_Node000010" class="edge">
<title>Node4&#45;&gt;Node10</title>
<g id="a_edge9_Node000004_Node000010"><a xlink:title=" ">
<path fill="none" stroke="#63b8ff" d="M407.32,-156.96C414.81,-147.72 423.84,-136.6 429.93,-129.09"/>
<polygon fill="#63b8ff" stroke="#63b8ff" points="404.58,-154.78 401,-164.75 410.02,-159.19 404.58,-154.78"/>
</a>
</g>
</g>
<!-- Node11 -->
<g id="Node000011" class="node">
<title>Node11</title>
<g id="a_Node000011"><a xlink:href="Tapestry_8cpp.html" target="_top" xlink:title=" ">
<polygon fill="white" stroke="#666666" points="566.4,-129 489.4,-129 489.4,-110 566.4,-110 566.4,-129"/>
<text text-anchor="middle" x="527.9" y="-117" font-family="Helvetica,sans-Serif" font-size="10.00">Tapestry.cpp</text>
</a>
</g>
</g>
<!-- Node4&#45;&gt;Node11 -->
<g id="edge10_Node000004_Node000011" class="edge">
<title>Node4&#45;&gt;Node11</title>
<g id="a_edge10_Node000004_Node000011"><a xlink:title=" ">
<path fill="none" stroke="#63b8ff" d="M424.77,-161.29C449.6,-151.47 483.89,-137.91 505.98,-129.17"/>
<polygon fill="#63b8ff" stroke="#63b8ff" points="423.44,-158.05 415.43,-164.98 426.02,-164.56 423.44,-158.05"/>
</a>
</g>
</g>
<!-- Node12 -->
<g id="Node000012" class="node">
<title>Node12</title>
<g id="a_Node000012"><a xlink:href="Wiring_8cpp.html" target="_top" xlink:title=" ">
<polygon fill="white" stroke="#666666" points="384.9,-129 316.9,-129 316.9,-110 384.9,-110 384.9,-129"/>
<text text-anchor="middle" x="350.9" y="-117" font-family="Helvetica,sans-Serif" font-size="10.00">Wiring.cpp</text>
</a>
</g>
</g>
<!-- Node4&#45;&gt;Node12 -->
<g id="edge11_Node000004_Node000012" class="edge">
<title>Node4&#45;&gt;Node12</title>
<g id="a_edge11_Node000004_Node000012"><a xlink:title=" ">
<path fill="none" stroke="#63b8ff" d="M380.48,-156.96C372.99,-147.72 363.96,-136.6 357.87,-129.09"/>
<polygon fill="#63b8ff" stroke="#63b8ff" points="377.78,-159.19 386.8,-164.75 383.22,-154.78 377.78,-159.19"/>
</a>
</g>
</g>
<!-- Node15&#45;&gt;Node12 -->
<g id="edge26_Node000015_Node000012" class="edge">
<title>Node15&#45;&gt;Node12</title>
<g id="a_edge26_Node000015_Node000012"><a xlink:title=" ">
<path fill="none" stroke="#63b8ff" d="M763.26,-209.54C761.69,-195.02 757.05,-175.72 743.9,-165 683.3,-115.59 471.22,-140.59 393.9,-129 391.04,-128.57 388.08,-128.08 385.12,-127.56"/>
<polygon fill="#63b8ff" stroke="#63b8ff" points="759.8,-210.16 763.97,-219.9 766.78,-209.69 759.8,-210.16"/>
</a>
</g>
</g>
<!-- Node15&#45;&gt;Node13 -->
<g id="edge24_Node000015_Node000013" class="edge">
<title>Node15&#45;&gt;Node13</title>
<g id="a_edge24_Node000015_Node000013"><a xlink:title=" ">
<path fill="none" stroke="#63b8ff" d="M743.32,-214.15C729.59,-204.57 711.98,-192.29 700.33,-184.17"/>
<polygon fill="#63b8ff" stroke="#63b8ff" points="741.49,-217.14 751.69,-219.98 745.49,-211.39 741.49,-217.14"/>
</a>
</g>
</g>
<!-- Node15&#45;&gt;Node14 -->
<g id="edge25_Node000015_Node000014" class="edge">
<title>Node15&#45;&gt;Node14</title>
<g id="a_edge25_Node000015_Node000014"><a xlink:title=" ">
<path fill="none" stroke="#63b8ff" d="M722.31,-217.31C685.45,-207.39 632.4,-193.12 598.8,-184.08"/>
<polygon fill="#63b8ff" stroke="#63b8ff" points="721.68,-220.77 732.25,-219.98 723.5,-214.01 721.68,-220.77"/>
</a>
</g>
</g>
<!-- Node16 -->
<g id="Node000016" class="node">
<title>Node16</title>
<g id="a_Node000016"><a xlink:href="Bridge_8cpp.html" target="_top" xlink:title=" ">
<polygon fill="white" stroke="#666666" points="1768.9,-129 1700.9,-129 1700.9,-110 1768.9,-110 1768.9,-129"/>
<text text-anchor="middle" x="1734.9" y="-117" font-family="Helvetica,sans-Serif" font-size="10.00">Bridge.cpp</text>
</a>
</g>
</g>
<!-- Node15&#45;&gt;Node16 -->
<g id="edge15_Node000015_Node000016" class="edge">
<title>Node15&#45;&gt;Node16</title>
<g id="a_edge15_Node000015_Node000016"><a xlink:title=" ">
<path fill="none" stroke="#63b8ff" d="M821.89,-223.43C836.26,-222.24 851.64,-221.02 865.9,-220 999.13,-210.45 1336.88,-218.57 1465.9,-184 1484.14,-179.11 1486.02,-171.06 1503.9,-165 1539.87,-152.8 1645.51,-134.84 1700.6,-125.93"/>
<polygon fill="#63b8ff" stroke="#63b8ff" points="821.3,-219.97 811.62,-224.29 821.88,-226.95 821.3,-219.97"/>
</a>
</g>
</g>
<!-- Node17 -->
<g id="Node000017" class="node">
<title>Node17</title>
<g id="a_Node000017"><a xlink:href="DelayAwaiters_8hpp.html" target="_top" xlink:title=" ">
<polygon fill="white" stroke="#666666" points="1456.4,-184 1347.4,-184 1347.4,-165 1456.4,-165 1456.4,-184"/>
<text text-anchor="middle" x="1401.9" y="-172" font-family="Helvetica,sans-Serif" font-size="10.00">DelayAwaiters.hpp</text>
</a>
</g>
</g>
<!-- Node15&#45;&gt;Node17 -->
<g id="edge16_Node000015_Node000017" class="edge">
<title>Node15&#45;&gt;Node17</title>
<g id="a_edge16_Node000015_Node000017"><a xlink:title=" ">
<path fill="none" stroke="#63b8ff" d="M821.9,-223.66C836.28,-222.47 851.65,-221.19 865.9,-220 1041.77,-205.37 1250.11,-188.09 1347.12,-180.04"/>
<polygon fill="#63b8ff" stroke="#63b8ff" points="821.31,-220.2 811.64,-224.52 821.9,-227.18 821.31,-220.2"/>
</a>
</g>
</g>
<!-- Node17&#45;&gt;Node16 -->
<g id="edge17_Node000017_Node000016" class="edge">
<title>Node17&#45;&gt;Node16</title>
<g id="a_edge17_Node000017_Node000016"><a xlink:title=" ">
<path fill="none" stroke="#63b8ff" d="M1466.68,-163.77C1524.48,-155 1611.41,-141.58 1686.9,-129 1691.41,-128.25 1696.15,-127.44 1700.83,-126.62"/>
<polygon fill="#63b8ff" stroke="#63b8ff" points="1465.95,-160.34 1456.59,-165.3 1467,-167.26 1465.95,-160.34"/>
</a>
</g>
</g>
<!-- Node18 -->
<g id="Node000018" class="node">
<title>Node18</title>
<g id="a_Node000018"><a xlink:href="BufferPipeline_8cpp.html" target="_top" xlink:title=" ">
<polygon fill="white" stroke="#666666" points="948.4,-74 843.4,-74 843.4,-55 948.4,-55 948.4,-74"/>
<text text-anchor="middle" x="895.9" y="-62" font-family="Helvetica,sans-Serif" font-size="10.00">BufferPipeline.cpp</text>
</a>
</g>
</g>
<!-- Node17&#45;&gt;Node18 -->
<g id="edge18_Node000017_Node000018" class="edge">
<title>Node17&#45;&gt;Node18</title>
<g id="a_edge18_Node000017_Node000018"><a xlink:title=" ">
<path fill="none" stroke="#63b8ff" d="M1466.63,-164.22C1526.09,-155.04 1606.38,-140.71 1615.9,-129 1621.23,-122.45 1621.71,-116.13 1615.9,-110 1565.56,-56.83 1030.79,-80.98 957.9,-74 954.87,-73.71 951.76,-73.38 948.63,-73.03"/>
<polygon fill="#63b8ff" stroke="#63b8ff" points="1465.9,-160.79 1456.54,-165.76 1466.96,-167.71 1465.9,-160.79"/>
</a>
</g>
</g>
<!-- Node19 -->
<g id="Node000019" class="node">
<title>Node19</title>
<g id="a_Node000019"><a xlink:href="Chain_8cpp.html" target="_top" xlink:title=" ">
<polygon fill="white" stroke="#666666" points="1308.4,-129 1243.4,-129 1243.4,-110 1308.4,-110 1308.4,-129"/>
<text text-anchor="middle" x="1275.9" y="-117" font-family="Helvetica,sans-Serif" font-size="10.00">Chain.cpp</text>
</a>
</g>
</g>
<!-- Node17&#45;&gt;Node19 -->
<g id="edge19_Node000017_Node000019" class="edge">
<title>Node17&#45;&gt;Node19</title>
<g id="a_edge19_Node000017_Node000019"><a xlink:title=" ">
<path fill="none" stroke="#63b8ff" d="M1372.25,-161.03C1348.95,-151.23 1317.1,-137.83 1296.51,-129.17"/>
<polygon fill="#63b8ff" stroke="#63b8ff" points="1371.08,-164.33 1381.66,-164.98 1373.8,-157.88 1371.08,-164.33"/>
</a>
</g>
</g>
<!-- Node20 -->
<g id="Node000020" class="node">
<title>Node20</title>
<g id="a_Node000020"><a xlink:href="CycleCoordinator_8cpp.html" target="_top" xlink:title=" ">
<polygon fill="white" stroke="#666666" points="1086.9,-74 966.9,-74 966.9,-55 1086.9,-55 1086.9,-74"/>
<text text-anchor="middle" x="1026.9" y="-62" font-family="Helvetica,sans-Serif" font-size="10.00">CycleCoordinator.cpp</text>
</a>
</g>
</g>
<!-- Node17&#45;&gt;Node20 -->
<g id="edge20_Node000017_Node000020" class="edge">
<title>Node17&#45;&gt;Node20</title>
<g id="a_edge20_Node000017_Node000020"><a xlink:title=" ">
<path fill="none" stroke="#63b8ff" d="M1466.72,-163.92C1537.91,-153.09 1643.02,-136.04 1648.9,-129 1654.32,-122.52 1654.65,-116.18 1648.9,-110 1611.14,-69.44 1235.9,-65.29 1087.16,-65.26"/>
<polygon fill="#63b8ff" stroke="#63b8ff" points="1465.85,-160.51 1456.48,-165.47 1466.89,-167.43 1465.85,-160.51"/>
</a>
</g>
</g>
<!-- Node21 -->
<g id="Node000021" class="node">
<title>Node21</title>
<g id="a_Node000021"><a xlink:href="DelayAwaiters_8cpp.html" target="_top" xlink:title=" ">
<polygon fill="white" stroke="#666666" points="1606.9,-129 1498.9,-129 1498.9,-110 1606.9,-110 1606.9,-129"/>
<text text-anchor="middle" x="1552.9" y="-117" font-family="Helvetica,sans-Serif" font-size="10.00">DelayAwaiters.cpp</text>
</a>
</g>
</g>
<!-- Node17&#45;&gt;Node21 -->
<g id="edge21_Node000017_Node000021" class="edge">
<title>Node17&#45;&gt;Node21</title>
<g id="a_edge21_Node000017_Node000021"><a xlink:title=" ">
<path fill="none" stroke="#63b8ff" d="M1435.95,-161.55C1463.99,-151.71 1503.09,-137.98 1528.2,-129.17"/>
<polygon fill="#63b8ff" stroke="#63b8ff" points="1434.44,-158.37 1426.16,-164.98 1436.76,-164.98 1434.44,-158.37"/>
</a>
</g>
</g>
<!-- Node22 -->
<g id="Node000022" class="node">
<title>Node22</title>
<g id="a_Node000022"><a xlink:href="Tasks_8cpp.html" target="_top" xlink:title=" ">
<polygon fill="white" stroke="#666666" points="1390.9,-129 1326.9,-129 1326.9,-110 1390.9,-110 1390.9,-129"/>
<text text-anchor="middle" x="1358.9" y="-117" font-family="Helvetica,sans-Serif" font-size="10.00">Tasks.cpp</text>
</a>
</g>
</g>
<!-- Node17&#45;&gt;Node22 -->
<g id="edge22_Node000017_Node000022" class="edge">
<title>Node17&#45;&gt;Node22</title>
<g id="a_edge22_Node000017_Node000022"><a xlink:title=" ">
<path fill="none" stroke="#63b8ff" d="M1388.48,-156.96C1380.99,-147.72 1371.96,-136.6 1365.87,-129.09"/>
<polygon fill="#63b8ff" stroke="#63b8ff" points="1385.78,-159.19 1394.8,-164.75 1391.22,-154.78 1385.78,-159.19"/>
</a>
</g>
</g>
<!-- Node23 -->
<g id="Node000023" class="node">
<title>Node23</title>
<g id="a_Node000023"><a xlink:href="Timers_8cpp.html" target="_top" xlink:title=" ">
<polygon fill="white" stroke="#666666" points="1480.4,-129 1409.4,-129 1409.4,-110 1480.4,-110 1480.4,-129"/>
<text text-anchor="middle" x="1444.9" y="-117" font-family="Helvetica,sans-Serif" font-size="10.00">Timers.cpp</text>
</a>
</g>
</g>
<!-- Node17&#45;&gt;Node23 -->
<g id="edge23_Node000017_Node000023" class="edge">
<title>Node17&#45;&gt;Node23</title>
<g id="a_edge23_Node000017_Node000023"><a xlink:title=" ">
<path fill="none" stroke="#63b8ff" d="M1415.32,-156.96C1422.81,-147.72 1431.84,-136.6 1437.93,-129.09"/>
<polygon fill="#63b8ff" stroke="#63b8ff" points="1412.58,-154.78 1409,-164.75 1418.02,-159.19 1412.58,-154.78"/>
</a>
</g>
</g>
<!-- Node25 -->
<g id="Node000025" class="node">
<title>Node25</title>
<g id="a_Node000025"><a xlink:href="GraphicsSubsystem_8cpp.html" target="_top" xlink:title=" ">
<polygon fill="white" stroke="#666666" points="1646.9,-184 1512.9,-184 1512.9,-165 1646.9,-165 1646.9,-184"/>
<text text-anchor="middle" x="1579.9" y="-172" font-family="Helvetica,sans-Serif" font-size="10.00">GraphicsSubsystem.cpp</text>
</a>
</g>
</g>
<!-- Node24&#45;&gt;Node25 -->
<g id="edge28_Node000024_Node000025" class="edge">
<title>Node24&#45;&gt;Node25</title>
<g id="a_edge28_Node000024_Node000025"><a xlink:title=" ">
<path fill="none" stroke="#63b8ff" d="M959.81,-225.34C1059.97,-218.63 1298.84,-202.08 1498.9,-184 1503.41,-183.59 1508.05,-183.15 1512.73,-182.7"/>
<polygon fill="#63b8ff" stroke="#63b8ff" points="959.45,-221.86 949.7,-226.01 959.91,-228.84 959.45,-221.86"/>
</a>
</g>
</g>
<!-- Node26 -->
<g id="Node000026" class="node">
<title>Node26</title>
<g id="a_Node000026"><a xlink:href="Routine_8cpp.html" target="_top" xlink:title=" ">
<polygon fill="white" stroke="#666666" points="1738.9,-184 1664.9,-184 1664.9,-165 1738.9,-165 1738.9,-184"/>
<text text-anchor="middle" x="1701.9" y="-172" font-family="Helvetica,sans-Serif" font-size="10.00">Routine.cpp</text>
</a>
</g>
</g>
<!-- Node24&#45;&gt;Node26 -->
<g id="edge29_Node000024_Node000026" class="edge">
<title>Node24&#45;&gt;Node26</title>
<g id="a_edge29_Node000024_Node000026"><a xlink:title=" ">
<path fill="none" stroke="#63b8ff" d="M959.77,-227.67C1078.23,-225.19 1394.37,-215.86 1655.9,-184 1658.8,-183.65 1661.8,-183.22 1664.8,-182.76"/>
<polygon fill="#63b8ff" stroke="#63b8ff" points="959.52,-224.18 949.6,-227.88 959.67,-231.18 959.52,-224.18"/>
</a>
</g>
</g>
<!-- Node27 -->
<g id="Node000027" class="node">
<title>Node27</title>
<g id="a_Node000027"><a xlink:href="Scheduler_8hpp.html" target="_top" xlink:title=" ">
<polygon fill="white" stroke="#666666" points="938.4,-184 853.4,-184 853.4,-165 938.4,-165 938.4,-184"/>
<text text-anchor="middle" x="895.9" y="-172" font-family="Helvetica,sans-Serif" font-size="10.00">Scheduler.hpp</text>
</a>
</g>
</g>
<!-- Node24&#45;&gt;Node27 -->
<g id="edge30_Node000024_Node000027" class="edge">
<title>Node24&#45;&gt;Node27</title>
<g id="a_edge30_Node000024_Node000027"><a xlink:title=" ">
<path fill="none" stroke="#63b8ff" d="M906.3,-209.95C903.64,-201.15 900.6,-191.06 898.49,-184.09"/>
<polygon fill="#63b8ff" stroke="#63b8ff" points="903.02,-211.19 909.26,-219.75 909.72,-209.16 903.02,-211.19"/>
</a>
</g>
</g>
<!-- Node27&#45;&gt;Node5 -->
<g id="edge40_Node000027_Node000005" class="edge">
<title>Node27&#45;&gt;Node5</title>
<g id="a_edge40_Node000027_Node000005"><a xlink:title=" ">
<path fill="none" stroke="#63b8ff" d="M843.21,-170.43C802.15,-166 745.06,-155.21 701.9,-129 678.89,-115.03 660.81,-87.84 652.64,-74.01"/>
<polygon fill="#63b8ff" stroke="#63b8ff" points="842.99,-173.92 853.29,-171.42 843.68,-166.96 842.99,-173.92"/>
</a>
</g>
</g>
<!-- Node27&#45;&gt;Node7 -->
<g id="edge44_Node000027_Node000007" class="edge">
<title>Node27&#45;&gt;Node7</title>
<g id="a_edge44_Node000027_Node000007"><a xlink:title=" ">
<path fill="none" stroke="#63b8ff" d="M843.43,-163.42C788.16,-152.81 702.66,-136.39 655.02,-127.24"/>
<polygon fill="#63b8ff" stroke="#63b8ff" points="842.9,-166.89 853.38,-165.33 844.22,-160.01 842.9,-166.89"/>
</a>
</g>
</g>
<!-- Node27&#45;&gt;Node9 -->
<g id="edge45_Node000027_Node000009" class="edge">
<title>Node27&#45;&gt;Node9</title>
<g id="a_edge45_Node000027_Node000009"><a xlink:title=" ">
<path fill="none" stroke="#63b8ff" d="M843.15,-170.35C718.9,-162.8 410.6,-143.22 307.9,-129 304.95,-128.59 301.9,-128.1 298.85,-127.57"/>
<polygon fill="#63b8ff" stroke="#63b8ff" points="842.99,-173.85 853.18,-170.96 843.41,-166.86 842.99,-173.85"/>
</a>
</g>
</g>
<!-- Node27&#45;&gt;Node10 -->
<g id="edge46_Node000027_Node000010" class="edge">
<title>Node27&#45;&gt;Node10</title>
<g id="a_edge46_Node000027_Node000010"><a xlink:title=" ">
<path fill="none" stroke="#63b8ff" d="M843.01,-169.35C763.81,-162.8 609.79,-148.75 479.9,-129 477.04,-128.57 474.08,-128.07 471.12,-127.55"/>
<polygon fill="#63b8ff" stroke="#63b8ff" points="842.97,-172.86 853.22,-170.19 843.54,-165.89 842.97,-172.86"/>
</a>
</g>
</g>
<!-- Node27&#45;&gt;Node11 -->
<g id="edge49_Node000027_Node000011" class="edge">
<title>Node27&#45;&gt;Node11</title>
<g id="a_edge49_Node000027_Node000011"><a xlink:title=" ">
<path fill="none" stroke="#63b8ff" d="M843.22,-166.78C779.72,-158.55 669.84,-143.84 575.9,-129 572.89,-128.52 569.78,-128.01 566.65,-127.49"/>
<polygon fill="#63b8ff" stroke="#63b8ff" points="843.01,-170.29 853.38,-168.1 843.91,-163.34 843.01,-170.29"/>
</a>
</g>
</g>
<!-- Node27&#45;&gt;Node12 -->
<g id="edge52_Node000027_Node000012" class="edge">
<title>Node27&#45;&gt;Node12</title>
<g id="a_edge52_Node000027_Node000012"><a xlink:title=" ">
<path fill="none" stroke="#63b8ff" d="M842.85,-169.52C732.1,-161.09 479.49,-141.22 393.9,-129 391.04,-128.59 388.08,-128.12 385.11,-127.6"/>
<polygon fill="#63b8ff" stroke="#63b8ff" points="842.88,-173.03 853.11,-170.3 843.41,-166.05 842.88,-173.03"/>
</a>
</g>
</g>
<!-- Node27&#45;&gt;Node16 -->
<g id="edge31_Node000027_Node000016" class="edge">
<title>Node27&#45;&gt;Node16</title>
<g id="a_edge31_Node000027_Node000016"><a xlink:title=" ">
<path fill="none" stroke="#63b8ff" d="M948.8,-170.4C1067.94,-163.4 1366.32,-145.63 1615.9,-129 1644.52,-127.09 1677.01,-124.76 1700.8,-123.02"/>
<polygon fill="#63b8ff" stroke="#63b8ff" points="948.29,-166.93 938.51,-171.01 948.7,-173.92 948.29,-166.93"/>
</a>
</g>
</g>
<!-- Node27&#45;&gt;Node19 -->
<g id="edge39_Node000027_Node000019" class="edge">
<title>Node27&#45;&gt;Node19</title>
<g id="a_edge39_Node000027_Node000019"><a xlink:title=" ">
<path fill="none" stroke="#63b8ff" d="M948.71,-167.69C1015.36,-160.09 1133.46,-145.76 1233.9,-129 1236.98,-128.49 1240.18,-127.91 1243.38,-127.31"/>
<polygon fill="#63b8ff" stroke="#63b8ff" points="948,-164.24 938.46,-168.85 948.79,-171.2 948,-164.24"/>
</a>
</g>
</g>
<!-- Node27&#45;&gt;Node22 -->
<g id="edge50_Node000027_Node000022" class="edge">
<title>Node27&#45;&gt;Node22</title>
<g id="a_edge50_Node000027_Node000022"><a xlink:title=" ">
<path fill="none" stroke="#63b8ff" d="M948.94,-169.61C1029.13,-163.34 1185.89,-149.59 1317.9,-129 1320.77,-128.55 1323.75,-128.04 1326.73,-127.49"/>
<polygon fill="#63b8ff" stroke="#63b8ff" points="948.31,-166.15 938.61,-170.41 948.85,-173.13 948.31,-166.15"/>
</a>
</g>
</g>
<!-- Node27&#45;&gt;Node23 -->
<g id="edge51_Node000027_Node000023" class="edge">
<title>Node27&#45;&gt;Node23</title>
<g id="a_edge51_Node000027_Node000023"><a xlink:title=" ">
<path fill="none" stroke="#63b8ff" d="M948.7,-170.56C1040.68,-165.05 1236.1,-151.64 1399.9,-129 1402.89,-128.59 1405.99,-128.11 1409.09,-127.59"/>
<polygon fill="#63b8ff" stroke="#63b8ff" points="948.32,-167.07 938.54,-171.16 948.73,-174.06 948.32,-167.07"/>
</a>
</g>
</g>
<!-- Node28 -->
<g id="Node000028" class="node">
<title>Node28</title>
<g id="a_Node000028"><a xlink:href="BufferPipeline_8hpp.html" target="_top" xlink:title=" ">
<polygon fill="white" stroke="#666666" points="816.9,-129 710.9,-129 710.9,-110 816.9,-110 816.9,-129"/>
<text text-anchor="middle" x="763.9" y="-117" font-family="Helvetica,sans-Serif" font-size="10.00">BufferPipeline.hpp</text>
</a>
</g>
</g>
<!-- Node27&#45;&gt;Node28 -->
<g id="edge32_Node000027_Node000028" class="edge">
<title>Node27&#45;&gt;Node28</title>
<g id="a_edge32_Node000027_Node000028"><a xlink:title=" ">
<path fill="none" stroke="#63b8ff" d="M865.17,-161.16C840.73,-151.35 807.16,-137.87 785.49,-129.17"/>
<polygon fill="#63b8ff" stroke="#63b8ff" points="864.11,-164.51 874.69,-164.98 866.72,-158.01 864.11,-164.51"/>
</a>
</g>
</g>
<!-- Node32 -->
<g id="Node000032" class="node">
<title>Node32</title>
<g id="a_Node000032"><a xlink:href="CycleCoordinator_8hpp.html" target="_top" xlink:title=" ">
<polygon fill="white" stroke="#666666" points="956.4,-129 835.4,-129 835.4,-110 956.4,-110 956.4,-129"/>
<text text-anchor="middle" x="895.9" y="-117" font-family="Helvetica,sans-Serif" font-size="10.00">CycleCoordinator.hpp</text>
</a>
</g>
</g>
<!-- Node27&#45;&gt;Node32 -->
<g id="edge41_Node000027_Node000032" class="edge">
<title>Node27&#45;&gt;Node32</title>
<g id="a_edge41_Node000027_Node000032"><a xlink:title=" ">
<path fill="none" stroke="#63b8ff" d="M895.9,-154.66C895.9,-145.93 895.9,-135.99 895.9,-129.09"/>
<polygon fill="#63b8ff" stroke="#63b8ff" points="892.4,-154.75 895.9,-164.75 899.4,-154.75 892.4,-154.75"/>
</a>
</g>
</g>
<!-- Node33 -->
<g id="Node000033" class="node">
<title>Node33</title>
<g id="a_Node000033"><a xlink:href="ProcessingArchitecture_8cpp.html" target="_top" xlink:title=" ">
<polygon fill="white" stroke="#666666" points="1123.4,-129 974.4,-129 974.4,-110 1123.4,-110 1123.4,-129"/>
<text text-anchor="middle" x="1048.9" y="-117" font-family="Helvetica,sans-Serif" font-size="10.00">ProcessingArchitecture.cpp</text>
</a>
</g>
</g>
<!-- Node27&#45;&gt;Node33 -->
<g id="edge47_Node000027_Node000033" class="edge">
<title>Node27&#45;&gt;Node33</title>
<g id="a_edge47_Node000027_Node000033"><a xlink:title=" ">
<path fill="none" stroke="#63b8ff" d="M930.05,-161.67C958.58,-151.79 998.59,-137.93 1024.13,-129.08"/>
<polygon fill="#63b8ff" stroke="#63b8ff" points="928.79,-158.4 920.48,-164.98 931.08,-165.02 928.79,-158.4"/>
</a>
</g>
</g>
<!-- Node34 -->
<g id="Node000034" class="node">
<title>Node34</title>
<g id="a_Node000034"><a xlink:href="Scheduler_8cpp.html" target="_top" xlink:title=" ">
<polygon fill="white" stroke="#666666" points="1224.9,-129 1140.9,-129 1140.9,-110 1224.9,-110 1224.9,-129"/>
<text text-anchor="middle" x="1182.9" y="-117" font-family="Helvetica,sans-Serif" font-size="10.00">Scheduler.cpp</text>
</a>
</g>
</g>
<!-- Node27&#45;&gt;Node34 -->
<g id="edge48_Node000027_Node000034" class="edge">
<title>Node27&#45;&gt;Node34</title>
<g id="a_edge48_Node000027_Node000034"><a xlink:title=" ">
<path fill="none" stroke="#63b8ff" d="M948.5,-163.79C1003.7,-153.59 1089.43,-137.76 1140.48,-128.33"/>
<polygon fill="#63b8ff" stroke="#63b8ff" points="947.76,-160.36 938.56,-165.62 949.03,-167.25 947.76,-160.36"/>
</a>
</g>
</g>
<!-- Node28&#45;&gt;Node5 -->
<g id="edge34_Node000028_Node000005" class="edge">
<title>Node28&#45;&gt;Node5</title>
<g id="a_edge34_Node000028_Node000005"><a xlink:title=" ">
<path fill="none" stroke="#63b8ff" d="M736.03,-105.77C714.63,-95.99 685.66,-82.75 666.88,-74.17"/>
<polygon fill="#63b8ff" stroke="#63b8ff" points="734.71,-109.01 745.26,-109.98 737.62,-102.65 734.71,-109.01"/>
</a>
</g>
</g>
<!-- Node28&#45;&gt;Node18 -->
<g id="edge33_Node000028_Node000018" class="edge">
<title>Node28&#45;&gt;Node18</title>
<g id="a_edge33_Node000028_Node000018"><a xlink:title=" ">
<path fill="none" stroke="#63b8ff" d="M794.63,-106.16C819.07,-96.35 852.64,-82.87 874.31,-74.17"/>
<polygon fill="#63b8ff" stroke="#63b8ff" points="793.08,-103.01 785.11,-109.98 795.69,-109.51 793.08,-103.01"/>
</a>
</g>
</g>
<!-- Node28&#45;&gt;Node20 -->
<g id="edge35_Node000028_Node000020" class="edge">
<title>Node28&#45;&gt;Node20</title>
<g id="a_edge35_Node000028_Node000020"><a xlink:title=" ">
<path fill="none" stroke="#63b8ff" d="M815.99,-108C865.29,-98.07 938.4,-83.33 984.31,-74.08"/>
<polygon fill="#63b8ff" stroke="#63b8ff" points="815.27,-104.58 806.16,-109.98 816.65,-111.44 815.27,-104.58"/>
</a>
</g>
</g>
<!-- Node29 -->
<g id="Node000029" class="node">
<title>Node29</title>
<g id="a_Node000029"><a xlink:href="SamplingPipeline_8hpp.html" target="_top" xlink:title=" ">
<polygon fill="white" stroke="#666666" points="824.9,-74 702.9,-74 702.9,-55 824.9,-55 824.9,-74"/>
<text text-anchor="middle" x="763.9" y="-62" font-family="Helvetica,sans-Serif" font-size="10.00">SamplingPipeline.hpp</text>
</a>
</g>
</g>
<!-- Node28&#45;&gt;Node29 -->
<g id="edge36_Node000028_Node000029" class="edge">
<title>Node28&#45;&gt;Node29</title>
<g id="a_edge36_Node000028_Node000029"><a xlink:title=" ">
<path fill="none" stroke="#63b8ff" d="M763.9,-99.66C763.9,-90.93 763.9,-80.99 763.9,-74.09"/>
<polygon fill="#63b8ff" stroke="#63b8ff" points="760.4,-99.75 763.9,-109.75 767.4,-99.75 760.4,-99.75"/>
</a>
</g>
</g>
<!-- Node30 -->
<g id="Node000030" class="node">
<title>Node30</title>
<g id="a_Node000030"><a xlink:href="Rigs_8cpp.html" target="_top" xlink:title=" ">
<polygon fill="white" stroke="#666666" points="738.9,-19 680.9,-19 680.9,0 738.9,0 738.9,-19"/>
<text text-anchor="middle" x="709.9" y="-7" font-family="Helvetica,sans-Serif" font-size="10.00">Rigs.cpp</text>
</a>
</g>
</g>
<!-- Node29&#45;&gt;Node30 -->
<g id="edge37_Node000029_Node000030" class="edge">
<title>Node29&#45;&gt;Node30</title>
<g id="a_edge37_Node000029_Node000030"><a xlink:title=" ">
<path fill="none" stroke="#63b8ff" d="M747.62,-47.52C738.1,-38.18 726.46,-26.75 718.65,-19.09"/>
<polygon fill="#63b8ff" stroke="#63b8ff" points="745.39,-50.24 754.98,-54.75 750.3,-45.25 745.39,-50.24"/>
</a>
</g>
</g>
<!-- Node31 -->
<g id="Node000031" class="node">
<title>Node31</title>
<g id="a_Node000031"><a xlink:href="SamplingPipeline_8cpp.html" target="_top" xlink:title=" ">
<polygon fill="white" stroke="#666666" points="878.9,-19 756.9,-19 756.9,0 878.9,0 878.9,-19"/>
<text text-anchor="middle" x="817.9" y="-7" font-family="Helvetica,sans-Serif" font-size="10.00">SamplingPipeline.cpp</text>
</a>
</g>
</g>
<!-- Node29&#45;&gt;Node31 -->
<g id="edge38_Node000029_Node000031" class="edge">
<title>Node29&#45;&gt;Node31</title>
<g id="a_edge38_Node000029_Node000031"><a xlink:title=" ">
<path fill="none" stroke="#63b8ff" d="M780.18,-47.52C789.7,-38.18 801.34,-26.75 809.15,-19.09"/>
<polygon fill="#63b8ff" stroke="#63b8ff" points="777.5,-45.25 772.82,-54.75 782.41,-50.24 777.5,-45.25"/>
</a>
</g>
</g>
<!-- Node32&#45;&gt;Node18 -->
<g id="edge42_Node000032_Node000018" class="edge">
<title>Node32&#45;&gt;Node18</title>
<g id="a_edge42_Node000032_Node000018"><a xlink:title=" ">
<path fill="none" stroke="#63b8ff" d="M895.9,-99.66C895.9,-90.93 895.9,-80.99 895.9,-74.09"/>
<polygon fill="#63b8ff" stroke="#63b8ff" points="892.4,-99.75 895.9,-109.75 899.4,-99.75 892.4,-99.75"/>
</a>
</g>
</g>
<!-- Node32&#45;&gt;Node20 -->
<g id="edge43_Node000032_Node000020" class="edge">
<title>Node32&#45;&gt;Node20</title>
<g id="a_edge43_Node000032_Node000020"><a xlink:title=" ">
<path fill="none" stroke="#63b8ff" d="M926.4,-106.16C950.65,-96.35 983.97,-82.87 1005.47,-74.17"/>
<polygon fill="#63b8ff" stroke="#63b8ff" points="924.91,-102.99 916.95,-109.98 927.53,-109.48 924.91,-102.99"/>
</a>
</g>
</g>
</g>
</svg>
