<?xml version="1.0" encoding="UTF-8" standalone="no"?>
<!DOCTYPE svg PUBLIC "-//W3C//DTD SVG 1.1//EN"
 "http://www.w3.org/Graphics/SVG/1.1/DTD/svg11.dtd">
<!-- Generated by graphviz version 2.43.0 (0)
 -->
<!-- Title: QueryUtils.hpp Pages: 1 -->
<svg width="767pt" height="753pt"
 viewBox="0.00 0.00 766.50 753.00" xmlns="http://www.w3.org/2000/svg" xmlns:xlink="http://www.w3.org/1999/xlink">
<g id="graph0" class="graph" transform="scale(1 1) rotate(0) translate(4 749)">
<title>QueryUtils.hpp</title>
<!-- Node1 -->
<g id="Node000001" class="node">
<title>Node1</title>
<g id="a_Node000001"><a xlink:title=" ">
<polygon fill="#999999" stroke="#666666" points="530.5,-745 441.5,-745 441.5,-726 530.5,-726 530.5,-745"/>
<text text-anchor="middle" x="486" y="-733" font-family="Helvetica,sans-Serif" font-size="10.00">QueryUtils.hpp</text>
</a>
</g>
</g>
<!-- Node2 -->
<g id="Node000002" class="node">
<title>Node2</title>
<g id="a_Node000002"><a xlink:href="Context_8hpp.html" target="_top" xlink:title=" ">
<polygon fill="white" stroke="#666666" points="158,-558 28,-558 28,-528 158,-528 158,-558"/>
<text text-anchor="start" x="36" y="-546" font-family="Helvetica,sans-Serif" font-size="10.00">MayaFlux/Portal/Forma</text>
<text text-anchor="middle" x="93" y="-535" font-family="Helvetica,sans-Serif" font-size="10.00">/Context.hpp</text>
</a>
</g>
</g>
<!-- Node1&#45;&gt;Node2 -->
<g id="edge1_Node000001_Node000002" class="edge">
<title>Node1&#45;&gt;Node2</title>
<g id="a_edge1_Node000001_Node000002"><a xlink:title=" ">
<path fill="none" stroke="#63b8ff" d="M441.33,-731.48C369.81,-724.42 228.82,-701 142,-624 124.48,-608.46 111.18,-585.14 102.89,-567.68"/>
<polygon fill="#63b8ff" stroke="#63b8ff" points="105.91,-565.85 98.6,-558.18 99.53,-568.74 105.91,-565.85"/>
</a>
</g>
</g>
<!-- Node3 -->
<g id="Node000003" class="node">
<title>Node3</title>
<g id="a_Node000003"><a xlink:href="Layer_8hpp.html" target="_top" xlink:title=" ">
<polygon fill="white" stroke="#666666" points="514,-492 450,-492 450,-473 514,-473 514,-492"/>
<text text-anchor="middle" x="482" y="-480" font-family="Helvetica,sans-Serif" font-size="10.00">Layer.hpp</text>
</a>
</g>
</g>
<!-- Node1&#45;&gt;Node3 -->
<g id="edge23_Node000001_Node000003" class="edge">
<title>Node1&#45;&gt;Node3</title>
<g id="a_edge23_Node000001_Node000003"><a xlink:title=" ">
<path fill="none" stroke="#63b8ff" d="M494.03,-725.92C513.15,-704.41 558.83,-646.17 545,-594 535.39,-557.74 510.8,-520.95 495.33,-500.3"/>
<polygon fill="#63b8ff" stroke="#63b8ff" points="498.01,-498.04 489.15,-492.24 492.46,-502.3 498.01,-498.04"/>
</a>
</g>
</g>
<!-- Node21 -->
<g id="Node000021" class="node">
<title>Node21</title>
<g id="a_Node000021"><a xlink:href="Link_8hpp.html" target="_top" xlink:title=" ">
<polygon fill="white" stroke="#666666" points="723,-690 593,-690 593,-660 723,-660 723,-690"/>
<text text-anchor="start" x="601" y="-678" font-family="Helvetica,sans-Serif" font-size="10.00">MayaFlux/Portal/Forma</text>
<text text-anchor="middle" x="658" y="-667" font-family="Helvetica,sans-Serif" font-size="10.00">/Link.hpp</text>
</a>
</g>
</g>
<!-- Node1&#45;&gt;Node21 -->
<g id="edge24_Node000001_Node000021" class="edge">
<title>Node1&#45;&gt;Node21</title>
<g id="a_edge24_Node000001_Node000021"><a xlink:title=" ">
<path fill="none" stroke="#63b8ff" d="M511.01,-725.99C536.09,-717.46 575.42,-704.09 607.09,-693.32"/>
<polygon fill="#63b8ff" stroke="#63b8ff" points="608.31,-696.6 616.65,-690.06 606.05,-689.97 608.31,-696.6"/>
</a>
</g>
</g>
<!-- Node22 -->
<g id="Node000022" class="node">
<title>Node22</title>
<g id="a_Node000022"><a xlink:href="Collapsible_8hpp.html" target="_top" xlink:title=" ">
<polygon fill="white" stroke="#666666" points="442.5,-690 295.5,-690 295.5,-660 442.5,-660 442.5,-690"/>
<text text-anchor="start" x="303.5" y="-678" font-family="Helvetica,sans-Serif" font-size="10.00">MayaFlux/Portal/Forma</text>
<text text-anchor="middle" x="369" y="-667" font-family="Helvetica,sans-Serif" font-size="10.00">/Primitives/Collapsible.hpp</text>
</a>
</g>
</g>
<!-- Node1&#45;&gt;Node22 -->
<g id="edge25_Node000001_Node000022" class="edge">
<title>Node1&#45;&gt;Node22</title>
<g id="a_edge25_Node000001_Node000022"><a xlink:title=" ">
<path fill="none" stroke="#63b8ff" d="M468.99,-725.99C452.65,-717.82 427.41,-705.2 406.37,-694.69"/>
<polygon fill="#63b8ff" stroke="#63b8ff" points="407.86,-691.52 397.36,-690.18 404.73,-697.78 407.86,-691.52"/>
</a>
</g>
</g>
<!-- Node23 -->
<g id="Node000023" class="node">
<title>Node23</title>
<g id="a_Node000023"><a xlink:href="LayoutCursor_8hpp.html" target="_top" xlink:title=" ">
<polygon fill="white" stroke="#666666" points="536.5,-618.5 435.5,-618.5 435.5,-599.5 536.5,-599.5 536.5,-618.5"/>
<text text-anchor="middle" x="486" y="-606.5" font-family="Helvetica,sans-Serif" font-size="10.00">LayoutCursor.hpp</text>
</a>
</g>
</g>
<!-- Node1&#45;&gt;Node23 -->
<g id="edge43_Node000001_Node000023" class="edge">
<title>Node1&#45;&gt;Node23</title>
<g id="a_edge43_Node000001_Node000023"><a xlink:title=" ">
<path fill="none" stroke="#63b8ff" d="M486,-725.94C486,-706.04 486,-656.26 486,-628.85"/>
<polygon fill="#63b8ff" stroke="#63b8ff" points="489.5,-628.62 486,-618.62 482.5,-628.62 489.5,-628.62"/>
</a>
</g>
</g>
<!-- Node2&#45;&gt;Node3 -->
<g id="edge2_Node000002_Node000003" class="edge">
<title>Node2&#45;&gt;Node3</title>
<g id="a_edge2_Node000002_Node000003"><a xlink:title=" ">
<path fill="none" stroke="#63b8ff" d="M158.09,-533.74C227.95,-524.61 342.09,-508.95 440,-492 440.1,-491.98 440.2,-491.97 440.3,-491.95"/>
<polygon fill="#63b8ff" stroke="#63b8ff" points="440.73,-495.43 449.93,-490.18 439.46,-488.54 440.73,-495.43"/>
</a>
</g>
</g>
<!-- Node20 -->
<g id="Node000020" class="node">
<title>Node20</title>
<g id="a_Node000020"><a xlink:href="Keys_8hpp.html" target="_top" xlink:title=" ">
<polygon fill="white" stroke="#666666" points="155.5,-492 30.5,-492 30.5,-473 155.5,-473 155.5,-492"/>
<text text-anchor="middle" x="93" y="-480" font-family="Helvetica,sans-Serif" font-size="10.00">MayaFlux/IO/Keys.hpp</text>
</a>
</g>
</g>
<!-- Node2&#45;&gt;Node20 -->
<g id="edge22_Node000002_Node000020" class="edge">
<title>Node2&#45;&gt;Node20</title>
<g id="a_edge22_Node000002_Node000020"><a xlink:title=" ">
<path fill="none" stroke="#63b8ff" d="M93,-527.84C93,-520.21 93,-510.7 93,-502.45"/>
<polygon fill="#63b8ff" stroke="#63b8ff" points="96.5,-502.27 93,-492.27 89.5,-502.27 96.5,-502.27"/>
</a>
</g>
</g>
<!-- Node4 -->
<g id="Node000004" class="node">
<title>Node4</title>
<g id="a_Node000004"><a xlink:href="Element_8hpp.html" target="_top" xlink:title=" ">
<polygon fill="white" stroke="#666666" points="510,-437 432,-437 432,-418 510,-418 510,-437"/>
<text text-anchor="middle" x="471" y="-425" font-family="Helvetica,sans-Serif" font-size="10.00">Element.hpp</text>
</a>
</g>
</g>
<!-- Node3&#45;&gt;Node4 -->
<g id="edge3_Node000003_Node000004" class="edge">
<title>Node3&#45;&gt;Node4</title>
<g id="a_edge3_Node000003_Node000004"><a xlink:title=" ">
<path fill="none" stroke="#63b8ff" d="M480.18,-472.75C478.74,-465.8 476.68,-455.85 474.87,-447.13"/>
<polygon fill="#63b8ff" stroke="#63b8ff" points="478.24,-446.17 472.78,-437.09 471.39,-447.59 478.24,-446.17"/>
</a>
</g>
</g>
<!-- Node5 -->
<g id="Node000005" class="node">
<title>Node5</title>
<g id="a_Node000005"><a xlink:href="FormaBuffer_8hpp.html" target="_top" xlink:title=" ">
<polygon fill="white" stroke="#666666" points="461,-382 325,-382 325,-352 461,-352 461,-382"/>
<text text-anchor="start" x="333" y="-370" font-family="Helvetica,sans-Serif" font-size="10.00">MayaFlux/Buffers/Forma</text>
<text text-anchor="middle" x="393" y="-359" font-family="Helvetica,sans-Serif" font-size="10.00">/FormaBuffer.hpp</text>
</a>
</g>
</g>
<!-- Node4&#45;&gt;Node5 -->
<g id="edge4_Node000004_Node000005" class="edge">
<title>Node4&#45;&gt;Node5</title>
<g id="a_edge4_Node000004_Node000005"><a xlink:title=" ">
<path fill="none" stroke="#63b8ff" d="M459.49,-417.87C449.1,-410.08 433.42,-398.32 419.9,-388.17"/>
<polygon fill="#63b8ff" stroke="#63b8ff" points="421.92,-385.31 411.82,-382.11 417.72,-390.91 421.92,-385.31"/>
</a>
</g>
</g>
<!-- Node17 -->
<g id="Node000017" class="node">
<title>Node17</title>
<g id="a_Node000017"><a xlink:href="Bounds_8hpp.html" target="_top" xlink:title=" ">
<polygon fill="white" stroke="#666666" points="673,-382 533,-382 533,-352 673,-352 673,-382"/>
<text text-anchor="start" x="541" y="-370" font-family="Helvetica,sans-Serif" font-size="10.00">MayaFlux/Kinesis/Spatial</text>
<text text-anchor="middle" x="603" y="-359" font-family="Helvetica,sans-Serif" font-size="10.00">/Bounds.hpp</text>
</a>
</g>
</g>
<!-- Node4&#45;&gt;Node17 -->
<g id="edge19_Node000004_Node000017" class="edge">
<title>Node4&#45;&gt;Node17</title>
<g id="a_edge19_Node000004_Node000017"><a xlink:title=" ">
<path fill="none" stroke="#63b8ff" d="M490.19,-417.99C508.94,-409.68 538.07,-396.78 562.03,-386.16"/>
<polygon fill="#63b8ff" stroke="#63b8ff" points="563.54,-389.32 571.27,-382.06 560.7,-382.92 563.54,-389.32"/>
</a>
</g>
</g>
<!-- Node6 -->
<g id="Node000006" class="node">
<title>Node6</title>
<g id="a_Node000006"><a xlink:href="VKBuffer_8hpp.html" target="_top" xlink:title=" ">
<polygon fill="white" stroke="#666666" points="530,-316 362,-316 362,-297 530,-297 530,-316"/>
<text text-anchor="middle" x="446" y="-304" font-family="Helvetica,sans-Serif" font-size="10.00">MayaFlux/Buffers/VKBuffer.hpp</text>
</a>
</g>
</g>
<!-- Node5&#45;&gt;Node6 -->
<g id="edge5_Node000005_Node000006" class="edge">
<title>Node5&#45;&gt;Node6</title>
<g id="a_edge5_Node000005_Node000006"><a xlink:title=" ">
<path fill="none" stroke="#63b8ff" d="M405.83,-351.84C413.52,-343.35 423.33,-332.52 431.33,-323.69"/>
<polygon fill="#63b8ff" stroke="#63b8ff" points="433.94,-326.03 438.06,-316.27 428.75,-321.33 433.94,-326.03"/>
</a>
</g>
</g>
<!-- Node16 -->
<g id="Node000016" class="node">
<title>Node16</title>
<g id="a_Node000016"><a xlink:href="GraphicsUtils_8hpp.html" target="_top" xlink:title=" ">
<polygon fill="white" stroke="#666666" points="275.5,-195 172.5,-195 172.5,-176 275.5,-176 275.5,-195"/>
<text text-anchor="middle" x="224" y="-183" font-family="Helvetica,sans-Serif" font-size="10.00">GraphicsUtils.hpp</text>
</a>
</g>
</g>
<!-- Node5&#45;&gt;Node16 -->
<g id="edge18_Node000005_Node000016" class="edge">
<title>Node5&#45;&gt;Node16</title>
<g id="a_edge18_Node000005_Node000016"><a xlink:title=" ">
<path fill="none" stroke="#63b8ff" d="M360.92,-351.98C326.52,-335.29 272.83,-304.14 243,-261 231.52,-244.39 226.97,-221.39 225.17,-205.36"/>
<polygon fill="#63b8ff" stroke="#63b8ff" points="228.63,-204.77 224.29,-195.11 221.66,-205.37 228.63,-204.77"/>
</a>
</g>
</g>
<!-- Node7 -->
<g id="Node000007" class="node">
<title>Node7</title>
<g id="a_Node000007"><a xlink:href="Buffer_8hpp.html" target="_top" xlink:title=" ">
<polygon fill="white" stroke="#666666" points="698,-255.5 632,-255.5 632,-236.5 698,-236.5 698,-255.5"/>
<text text-anchor="middle" x="665" y="-243.5" font-family="Helvetica,sans-Serif" font-size="10.00">Buffer.hpp</text>
</a>
</g>
</g>
<!-- Node6&#45;&gt;Node7 -->
<g id="edge6_Node000006_Node000007" class="edge">
<title>Node6&#45;&gt;Node7</title>
<g id="a_edge6_Node000006_Node000007"><a xlink:title=" ">
<path fill="none" stroke="#63b8ff" d="M483.51,-296.94C519.49,-288.52 575.25,-274.94 623,-261 625.45,-260.28 627.98,-259.52 630.51,-258.73"/>
<polygon fill="#63b8ff" stroke="#63b8ff" points="631.78,-262 640.22,-255.6 629.63,-255.33 631.78,-262"/>
</a>
</g>
</g>
<!-- Node8 -->
<g id="Node000008" class="node">
<title>Node8</title>
<g id="a_Node000008"><a xlink:href="BufferProcessor_8hpp.html" target="_top" xlink:title=" ">
<polygon fill="white" stroke="#666666" points="614,-255.5 412,-255.5 412,-236.5 614,-236.5 614,-255.5"/>
<text text-anchor="middle" x="513" y="-243.5" font-family="Helvetica,sans-Serif" font-size="10.00">MayaFlux/Buffers/BufferProcessor.hpp</text>
</a>
</g>
</g>
<!-- Node6&#45;&gt;Node8 -->
<g id="edge7_Node000006_Node000008" class="edge">
<title>Node6&#45;&gt;Node8</title>
<g id="a_edge7_Node000006_Node000008"><a xlink:title=" ">
<path fill="none" stroke="#63b8ff" d="M455.89,-296.87C466.28,-287.8 482.84,-273.34 495.45,-262.32"/>
<polygon fill="#63b8ff" stroke="#63b8ff" points="497.84,-264.88 503.07,-255.67 493.24,-259.61 497.84,-264.88"/>
</a>
</g>
</g>
<!-- Node10 -->
<g id="Node000010" class="node">
<title>Node10</title>
<g id="a_Node000010"><a xlink:href="ProcessingTokens_8hpp.html" target="_top" xlink:title=" ">
<polygon fill="white" stroke="#666666" points="692,-140 546,-140 546,-110 692,-110 692,-140"/>
<text text-anchor="start" x="554" y="-128" font-family="Helvetica,sans-Serif" font-size="10.00">MayaFlux/Core/Processing</text>
<text text-anchor="middle" x="619" y="-117" font-family="Helvetica,sans-Serif" font-size="10.00">Tokens.hpp</text>
</a>
</g>
</g>
<!-- Node6&#45;&gt;Node10 -->
<g id="edge13_Node000006_Node000010" class="edge">
<title>Node6&#45;&gt;Node10</title>
<g id="a_edge13_Node000006_Node000010"><a xlink:title=" ">
<path fill="none" stroke="#63b8ff" d="M526.66,-296.99C598.92,-288.53 695.31,-274.85 707,-261 738.74,-223.39 685.32,-173.73 648.78,-146.33"/>
<polygon fill="#63b8ff" stroke="#63b8ff" points="650.51,-143.26 640.37,-140.19 646.38,-148.92 650.51,-143.26"/>
</a>
</g>
</g>
<!-- Node14 -->
<g id="Node000014" class="node">
<title>Node14</title>
<g id="a_Node000014"><a xlink:href="ShaderUtils_8hpp.html" target="_top" xlink:title=" ">
<polygon fill="white" stroke="#666666" points="394,-261 252,-261 252,-231 394,-231 394,-261"/>
<text text-anchor="start" x="260" y="-249" font-family="Helvetica,sans-Serif" font-size="10.00">MayaFlux/Portal/Graphics</text>
<text text-anchor="middle" x="323" y="-238" font-family="Helvetica,sans-Serif" font-size="10.00">/ShaderUtils.hpp</text>
</a>
</g>
</g>
<!-- Node6&#45;&gt;Node14 -->
<g id="edge14_Node000006_Node000014" class="edge">
<title>Node6&#45;&gt;Node14</title>
<g id="a_edge14_Node000006_Node000014"><a xlink:title=" ">
<path fill="none" stroke="#63b8ff" d="M428.11,-296.99C410.86,-288.79 384.16,-276.09 361.99,-265.55"/>
<polygon fill="#63b8ff" stroke="#63b8ff" points="363.34,-262.31 352.81,-261.18 360.34,-268.63 363.34,-262.31"/>
</a>
</g>
</g>
<!-- Node9 -->
<g id="Node000009" class="node">
<title>Node9</title>
<g id="a_Node000009"><a xlink:href="BufferUtils_8hpp.html" target="_top" xlink:title=" ">
<polygon fill="white" stroke="#666666" points="557.5,-195 468.5,-195 468.5,-176 557.5,-176 557.5,-195"/>
<text text-anchor="middle" x="513" y="-183" font-family="Helvetica,sans-Serif" font-size="10.00">BufferUtils.hpp</text>
</a>
</g>
</g>
<!-- Node8&#45;&gt;Node9 -->
<g id="edge8_Node000008_Node000009" class="edge">
<title>Node8&#45;&gt;Node9</title>
<g id="a_edge8_Node000008_Node000009"><a xlink:title=" ">
<path fill="none" stroke="#63b8ff" d="M513,-236.37C513,-228.25 513,-215.81 513,-205.39"/>
<polygon fill="#63b8ff" stroke="#63b8ff" points="516.5,-205.17 513,-195.17 509.5,-205.17 516.5,-205.17"/>
</a>
</g>
</g>
<!-- Node9&#45;&gt;Node10 -->
<g id="edge9_Node000009_Node000010" class="edge">
<title>Node9&#45;&gt;Node10</title>
<g id="a_edge9_Node000009_Node000010"><a xlink:title=" ">
<path fill="none" stroke="#63b8ff" d="M528.64,-175.87C543.29,-167.78 565.69,-155.42 584.52,-145.03"/>
<polygon fill="#63b8ff" stroke="#63b8ff" points="586.36,-148.01 593.42,-140.11 582.98,-141.88 586.36,-148.01"/>
</a>
</g>
</g>
<!-- Node11 -->
<g id="Node000011" class="node">
<title>Node11</title>
<g id="a_Node000011"><a xlink:href="VertexLayout_8hpp.html" target="_top" xlink:title=" ">
<polygon fill="white" stroke="#666666" points="386.5,-140 235.5,-140 235.5,-110 386.5,-110 386.5,-140"/>
<text text-anchor="start" x="243.5" y="-128" font-family="Helvetica,sans-Serif" font-size="10.00">MayaFlux/Kakshya/NDData</text>
<text text-anchor="middle" x="311" y="-117" font-family="Helvetica,sans-Serif" font-size="10.00">/VertexLayout.hpp</text>
</a>
</g>
</g>
<!-- Node9&#45;&gt;Node11 -->
<g id="edge10_Node000009_Node000011" class="edge">
<title>Node9&#45;&gt;Node11</title>
<g id="a_edge10_Node000009_Node000011"><a xlink:title=" ">
<path fill="none" stroke="#63b8ff" d="M483.63,-175.99C453.79,-167.35 406.79,-153.74 369.35,-142.9"/>
<polygon fill="#63b8ff" stroke="#63b8ff" points="370.14,-139.48 359.56,-140.06 368.2,-146.21 370.14,-139.48"/>
</a>
</g>
</g>
<!-- Node12 -->
<g id="Node000012" class="node">
<title>Node12</title>
<g id="a_Node000012"><a xlink:href="NDData_8hpp.html" target="_top" xlink:title=" ">
<polygon fill="white" stroke="#666666" points="349,-74 273,-74 273,-55 349,-55 349,-74"/>
<text text-anchor="middle" x="311" y="-62" font-family="Helvetica,sans-Serif" font-size="10.00">NDData.hpp</text>
</a>
</g>
</g>
<!-- Node11&#45;&gt;Node12 -->
<g id="edge11_Node000011_Node000012" class="edge">
<title>Node11&#45;&gt;Node12</title>
<g id="a_edge11_Node000011_Node000012"><a xlink:title=" ">
<path fill="none" stroke="#63b8ff" d="M311,-109.84C311,-102.21 311,-92.7 311,-84.45"/>
<polygon fill="#63b8ff" stroke="#63b8ff" points="314.5,-84.27 311,-74.27 307.5,-84.27 314.5,-84.27"/>
</a>
</g>
</g>
<!-- Node13 -->
<g id="Node000013" class="node">
<title>Node13</title>
<g id="a_Node000013"><a xlink:title=" ">
<polygon fill="#e0e0e0" stroke="#999999" points="350,-19 272,-19 272,0 350,0 350,-19"/>
<text text-anchor="middle" x="311" y="-7" font-family="Helvetica,sans-Serif" font-size="10.00">glm/glm.hpp</text>
</a>
</g>
</g>
<!-- Node12&#45;&gt;Node13 -->
<g id="edge12_Node000012_Node000013" class="edge">
<title>Node12&#45;&gt;Node13</title>
<g id="a_edge12_Node000012_Node000013"><a xlink:title=" ">
<path fill="none" stroke="#63b8ff" d="M311,-54.75C311,-47.8 311,-37.85 311,-29.13"/>
<polygon fill="#63b8ff" stroke="#63b8ff" points="314.5,-29.09 311,-19.09 307.5,-29.09 314.5,-29.09"/>
</a>
</g>
</g>
<!-- Node14&#45;&gt;Node11 -->
<g id="edge17_Node000014_Node000011" class="edge">
<title>Node14&#45;&gt;Node11</title>
<g id="a_edge17_Node000014_Node000011"><a xlink:title=" ">
<path fill="none" stroke="#63b8ff" d="M321.58,-230.88C319.57,-211.02 315.9,-174.55 313.45,-150.29"/>
<polygon fill="#63b8ff" stroke="#63b8ff" points="316.91,-149.7 312.42,-140.1 309.94,-150.4 316.91,-149.7"/>
</a>
</g>
</g>
<!-- Node15 -->
<g id="Node000015" class="node">
<title>Node15</title>
<g id="a_Node000015"><a xlink:title=" ">
<polygon fill="#e0e0e0" stroke="#999999" points="444.5,-195 339.5,-195 339.5,-176 444.5,-176 444.5,-195"/>
<text text-anchor="middle" x="392" y="-183" font-family="Helvetica,sans-Serif" font-size="10.00">vulkan/vulkan.hpp</text>
</a>
</g>
</g>
<!-- Node14&#45;&gt;Node15 -->
<g id="edge15_Node000014_Node000015" class="edge">
<title>Node14&#45;&gt;Node15</title>
<g id="a_edge15_Node000014_Node000015"><a xlink:title=" ">
<path fill="none" stroke="#63b8ff" d="M339.7,-230.84C350.03,-222.09 363.28,-210.85 373.86,-201.88"/>
<polygon fill="#63b8ff" stroke="#63b8ff" points="376.3,-204.4 381.66,-195.27 371.77,-199.06 376.3,-204.4"/>
</a>
</g>
</g>
<!-- Node14&#45;&gt;Node16 -->
<g id="edge16_Node000014_Node000016" class="edge">
<title>Node14&#45;&gt;Node16</title>
<g id="a_edge16_Node000014_Node000016"><a xlink:title=" ">
<path fill="none" stroke="#63b8ff" d="M299.29,-230.99C283.65,-221.75 263.26,-209.7 247.64,-200.47"/>
<polygon fill="#63b8ff" stroke="#63b8ff" points="249.01,-197.21 238.62,-195.14 245.45,-203.24 249.01,-197.21"/>
</a>
</g>
</g>
<!-- Node18 -->
<g id="Node000018" class="node">
<title>Node18</title>
<g id="a_Node000018"><a xlink:title=" ">
<polygon fill="#e0e0e0" stroke="#999999" points="657.5,-316 548.5,-316 548.5,-297 657.5,-297 657.5,-316"/>
<text text-anchor="middle" x="603" y="-304" font-family="Helvetica,sans-Serif" font-size="10.00">glm/geometric.hpp</text>
</a>
</g>
</g>
<!-- Node17&#45;&gt;Node18 -->
<g id="edge20_Node000017_Node000018" class="edge">
<title>Node17&#45;&gt;Node18</title>
<g id="a_edge20_Node000017_Node000018"><a xlink:title=" ">
<path fill="none" stroke="#63b8ff" d="M603,-351.84C603,-344.21 603,-334.7 603,-326.45"/>
<polygon fill="#63b8ff" stroke="#63b8ff" points="606.5,-326.27 603,-316.27 599.5,-326.27 606.5,-326.27"/>
</a>
</g>
</g>
<!-- Node19 -->
<g id="Node000019" class="node">
<title>Node19</title>
<g id="a_Node000019"><a xlink:title=" ">
<polygon fill="#e0e0e0" stroke="#999999" points="758.5,-316 675.5,-316 675.5,-297 758.5,-297 758.5,-316"/>
<text text-anchor="middle" x="717" y="-304" font-family="Helvetica,sans-Serif" font-size="10.00">glm/vec2.hpp</text>
</a>
</g>
</g>
<!-- Node17&#45;&gt;Node19 -->
<g id="edge21_Node000017_Node000019" class="edge">
<title>Node17&#45;&gt;Node19</title>
<g id="a_edge21_Node000017_Node000019"><a xlink:title=" ">
<path fill="none" stroke="#63b8ff" d="M630.31,-351.99C648.65,-342.58 672.68,-330.24 690.79,-320.95"/>
<polygon fill="#63b8ff" stroke="#63b8ff" points="692.87,-323.82 700.16,-316.14 689.67,-317.59 692.87,-323.82"/>
</a>
</g>
</g>
<!-- Node22&#45;&gt;Node2 -->
<g id="edge34_Node000022_Node000002" class="edge">
<title>Node22&#45;&gt;Node2</title>
<g id="a_edge34_Node000022_Node000002"><a xlink:title=" ">
<path fill="none" stroke="#63b8ff" d="M295.39,-661.2C261.41,-653.44 221.32,-641.54 188,-624 159.12,-608.79 131.18,-583.6 113.16,-565.54"/>
<polygon fill="#63b8ff" stroke="#63b8ff" points="115.57,-563 106.07,-558.29 110.56,-567.89 115.57,-563"/>
</a>
</g>
</g>
<!-- Node22&#45;&gt;Node3 -->
<g id="edge42_Node000022_Node000003" class="edge">
<title>Node22&#45;&gt;Node3</title>
<g id="a_edge42_Node000022_Node000003"><a xlink:title=" ">
<path fill="none" stroke="#63b8ff" d="M377.58,-659.97C388.03,-643.4 406.68,-615.39 426,-594 442.26,-576.01 454.86,-578.99 467,-558 476.89,-540.91 480.34,-518.34 481.5,-502.53"/>
<polygon fill="#63b8ff" stroke="#63b8ff" points="485.01,-502.56 482.01,-492.4 478.02,-502.21 485.01,-502.56"/>
</a>
</g>
</g>
<!-- Node22&#45;&gt;Node11 -->
<g id="edge31_Node000022_Node000011" class="edge">
<title>Node22&#45;&gt;Node11</title>
<g id="a_edge31_Node000022_Node000011"><a xlink:title=" ">
<path fill="none" stroke="#63b8ff" d="M295.21,-663.33C187.53,-645.66 0,-605.98 0,-544 0,-544 0,-544 0,-245 0,-196.54 133.37,-160.52 225.43,-141.43"/>
<polygon fill="#63b8ff" stroke="#63b8ff" points="226.22,-144.84 235.32,-139.41 224.82,-137.98 226.22,-144.84"/>
</a>
</g>
</g>
<!-- Node22&#45;&gt;Node23 -->
<g id="edge26_Node000022_Node000023" class="edge">
<title>Node22&#45;&gt;Node23</title>
<g id="a_edge26_Node000022_Node000023"><a xlink:title=" ">
<path fill="none" stroke="#63b8ff" d="M394.68,-659.95C414.56,-649.08 441.93,-634.11 461.51,-623.4"/>
<polygon fill="#63b8ff" stroke="#63b8ff" points="463.34,-626.39 470.43,-618.52 459.98,-620.25 463.34,-626.39"/>
</a>
</g>
</g>
<!-- Node25 -->
<g id="Node000025" class="node">
<title>Node25</title>
<g id="a_Node000025"><a xlink:href="Bridge_8hpp.html" target="_top" xlink:title=" ">
<polygon fill="white" stroke="#666666" points="458,-558 328,-558 328,-528 458,-528 458,-558"/>
<text text-anchor="start" x="336" y="-546" font-family="Helvetica,sans-Serif" font-size="10.00">MayaFlux/Portal/Forma</text>
<text text-anchor="middle" x="393" y="-535" font-family="Helvetica,sans-Serif" font-size="10.00">/Bridge.hpp</text>
</a>
</g>
</g>
<!-- Node22&#45;&gt;Node25 -->
<g id="edge32_Node000022_Node000025" class="edge">
<title>Node22&#45;&gt;Node25</title>
<g id="a_edge32_Node000022_Node000025"><a xlink:title=" ">
<path fill="none" stroke="#63b8ff" d="M371.61,-659.84C375.67,-637.86 383.54,-595.27 388.51,-568.3"/>
<polygon fill="#63b8ff" stroke="#63b8ff" points="392.02,-568.61 390.39,-558.14 385.13,-567.34 392.02,-568.61"/>
</a>
</g>
</g>
<!-- Node26 -->
<g id="Node000026" class="node">
<title>Node26</title>
<g id="a_Node000026"><a xlink:href="Forma_8hpp.html" target="_top" xlink:title="Factory free functions for the Forma surface system.">
<polygon fill="white" stroke="#666666" points="327,-624 197,-624 197,-594 327,-594 327,-624"/>
<text text-anchor="start" x="205" y="-612" font-family="Helvetica,sans-Serif" font-size="10.00">MayaFlux/Portal/Forma</text>
<text text-anchor="middle" x="262" y="-601" font-family="Helvetica,sans-Serif" font-size="10.00">/Forma.hpp</text>
</a>
</g>
</g>
<!-- Node22&#45;&gt;Node26 -->
<g id="edge35_Node000022_Node000026" class="edge">
<title>Node22&#45;&gt;Node26</title>
<g id="a_edge35_Node000022_Node000026"><a xlink:title=" ">
<path fill="none" stroke="#63b8ff" d="M345.52,-659.95C330.47,-650.95 310.73,-639.14 294.22,-629.27"/>
<polygon fill="#63b8ff" stroke="#63b8ff" points="295.81,-626.14 285.43,-624.01 292.21,-632.15 295.81,-626.14"/>
</a>
</g>
</g>
<!-- Node23&#45;&gt;Node17 -->
<g id="edge30_Node000023_Node000017" class="edge">
<title>Node23&#45;&gt;Node17</title>
<g id="a_edge30_Node000023_Node000017"><a xlink:title=" ">
<path fill="none" stroke="#63b8ff" d="M490.16,-599.46C506.49,-565.96 566.5,-442.87 591.72,-391.14"/>
<polygon fill="#63b8ff" stroke="#63b8ff" points="594.9,-392.59 596.14,-382.07 588.61,-389.53 594.9,-392.59"/>
</a>
</g>
</g>
<!-- Node24 -->
<g id="Node000024" class="node">
<title>Node24</title>
<g id="a_Node000024"><a xlink:href="Mapped_8hpp.html" target="_top" xlink:title=" ">
<polygon fill="white" stroke="#666666" points="431.5,-492 354.5,-492 354.5,-473 431.5,-473 431.5,-492"/>
<text text-anchor="middle" x="393" y="-480" font-family="Helvetica,sans-Serif" font-size="10.00">Mapped.hpp</text>
</a>
</g>
</g>
<!-- Node23&#45;&gt;Node24 -->
<g id="edge27_Node000023_Node000024" class="edge">
<title>Node23&#45;&gt;Node24</title>
<g id="a_edge27_Node000023_Node000024"><a xlink:title=" ">
<path fill="none" stroke="#63b8ff" d="M486.06,-599.4C485.75,-583.71 483.09,-550.01 467,-528 456.77,-514 440.67,-503.57 426.11,-496.34"/>
<polygon fill="#63b8ff" stroke="#63b8ff" points="427.38,-493.07 416.83,-492.04 424.43,-499.42 427.38,-493.07"/>
</a>
</g>
</g>
<!-- Node24&#45;&gt;Node4 -->
<g id="edge29_Node000024_Node000004" class="edge">
<title>Node24&#45;&gt;Node4</title>
<g id="a_edge29_Node000024_Node000004"><a xlink:title=" ">
<path fill="none" stroke="#63b8ff" d="M405.53,-472.98C417.4,-464.92 435.46,-452.65 449.61,-443.03"/>
<polygon fill="#63b8ff" stroke="#63b8ff" points="451.94,-445.69 458.24,-437.17 448,-439.9 451.94,-445.69"/>
</a>
</g>
</g>
<!-- Node24&#45;&gt;Node5 -->
<g id="edge28_Node000024_Node000005" class="edge">
<title>Node24&#45;&gt;Node5</title>
<g id="a_edge28_Node000024_Node000005"><a xlink:title=" ">
<path fill="none" stroke="#63b8ff" d="M393,-472.97C393,-456.08 393,-417.85 393,-392.48"/>
<polygon fill="#63b8ff" stroke="#63b8ff" points="396.5,-392.18 393,-382.18 389.5,-392.18 396.5,-392.18"/>
</a>
</g>
</g>
<!-- Node25&#45;&gt;Node24 -->
<g id="edge33_Node000025_Node000024" class="edge">
<title>Node25&#45;&gt;Node24</title>
<g id="a_edge33_Node000025_Node000024"><a xlink:title=" ">
<path fill="none" stroke="#63b8ff" d="M393,-527.84C393,-520.21 393,-510.7 393,-502.45"/>
<polygon fill="#63b8ff" stroke="#63b8ff" points="396.5,-502.27 393,-492.27 389.5,-502.27 396.5,-502.27"/>
</a>
</g>
</g>
<!-- Node26&#45;&gt;Node2 -->
<g id="edge37_Node000026_Node000002" class="edge">
<title>Node26&#45;&gt;Node2</title>
<g id="a_edge37_Node000026_Node000002"><a xlink:title=" ">
<path fill="none" stroke="#63b8ff" d="M224.91,-593.95C199.82,-584.45 166.47,-571.82 139.59,-561.64"/>
<polygon fill="#63b8ff" stroke="#63b8ff" points="140.59,-558.28 130,-558.01 138.11,-564.83 140.59,-558.28"/>
</a>
</g>
</g>
<!-- Node26&#45;&gt;Node3 -->
<g id="edge38_Node000026_Node000003" class="edge">
<title>Node26&#45;&gt;Node3</title>
<g id="a_edge38_Node000026_Node000003"><a xlink:title=" ">
<path fill="none" stroke="#63b8ff" d="M268.31,-593.86C277.08,-575.83 294.66,-544.98 319,-528 329.04,-521 395.25,-504.22 440.14,-493.38"/>
<polygon fill="#63b8ff" stroke="#63b8ff" points="441.02,-496.77 449.92,-491.03 439.38,-489.96 441.02,-496.77"/>
</a>
</g>
</g>
<!-- Node26&#45;&gt;Node5 -->
<g id="edge40_Node000026_Node000005" class="edge">
<title>Node26&#45;&gt;Node5</title>
<g id="a_edge40_Node000026_Node000005"><a xlink:title=" ">
<path fill="none" stroke="#63b8ff" d="M260.17,-593.89C258.61,-577.48 257.76,-549.86 266,-528 287.7,-470.42 338.32,-417.4 368.69,-389.2"/>
<polygon fill="#63b8ff" stroke="#63b8ff" points="371.28,-391.58 376.31,-382.25 366.57,-386.4 371.28,-391.58"/>
</a>
</g>
</g>
<!-- Node26&#45;&gt;Node16 -->
<g id="edge41_Node000026_Node000016" class="edge">
<title>Node26&#45;&gt;Node16</title>
<g id="a_edge41_Node000026_Node000016"><a xlink:title=" ">
<path fill="none" stroke="#63b8ff" d="M245.88,-593.65C223.57,-572.12 186,-529.08 186,-483.5 186,-483.5 186,-483.5 186,-305.5 186,-268.07 203.27,-227.03 214.52,-204.25"/>
<polygon fill="#63b8ff" stroke="#63b8ff" points="217.74,-205.65 219.19,-195.15 211.51,-202.46 217.74,-205.65"/>
</a>
</g>
</g>
<!-- Node26&#45;&gt;Node24 -->
<g id="edge39_Node000026_Node000024" class="edge">
<title>Node26&#45;&gt;Node24</title>
<g id="a_edge39_Node000026_Node000024"><a xlink:title=" ">
<path fill="none" stroke="#63b8ff" d="M262.66,-593.79C264.2,-576.27 269.29,-546.52 286,-528 301.3,-511.04 324.07,-500.37 344.68,-493.75"/>
<polygon fill="#63b8ff" stroke="#63b8ff" points="345.68,-497.1 354.27,-490.9 343.69,-490.4 345.68,-497.1"/>
</a>
</g>
</g>
<!-- Node26&#45;&gt;Node25 -->
<g id="edge36_Node000026_Node000025" class="edge">
<title>Node26&#45;&gt;Node25</title>
<g id="a_edge36_Node000026_Node000025"><a xlink:title=" ">
<path fill="none" stroke="#63b8ff" d="M290.75,-593.95C309.69,-584.7 334.69,-572.49 355.23,-562.45"/>
<polygon fill="#63b8ff" stroke="#63b8ff" points="356.87,-565.55 364.32,-558.01 353.8,-559.26 356.87,-565.55"/>
</a>
</g>
</g>
</g>
</svg>
