<?xml version="1.0" encoding="UTF-8" standalone="no"?>
<!DOCTYPE svg PUBLIC "-//W3C//DTD SVG 1.1//EN"
 "http://www.w3.org/Graphics/SVG/1.1/DTD/svg11.dtd">
<!-- Generated by graphviz version 2.43.0 (0)
 -->
<!-- Title: RegionUtils.hpp Pages: 1 -->
<svg width="1349pt" height="357pt"
 viewBox="0.00 0.00 1348.50 357.00" xmlns="http://www.w3.org/2000/svg" xmlns:xlink="http://www.w3.org/1999/xlink">
<g id="graph0" class="graph" transform="scale(1 1) rotate(0) translate(4 353)">
<title>RegionUtils.hpp</title>
<!-- Node1 -->
<g id="Node000001" class="node">
<title>Node1</title>
<g id="a_Node000001"><a xlink:title=" ">
<polygon fill="#999999" stroke="#666666" points="637.5,-349 543.5,-349 543.5,-330 637.5,-330 637.5,-349"/>
<text text-anchor="middle" x="590.5" y="-337" font-family="Helvetica,sans-Serif" font-size="10.00">RegionUtils.hpp</text>
</a>
</g>
</g>
<!-- Node2 -->
<g id="Node000002" class="node">
<title>Node2</title>
<g id="a_Node000002"><a xlink:href="ContainerUtils_8cpp.html" target="_top" xlink:title=" ">
<polygon fill="white" stroke="#666666" points="107,-294 0,-294 0,-275 107,-275 107,-294"/>
<text text-anchor="middle" x="53.5" y="-282" font-family="Helvetica,sans-Serif" font-size="10.00">ContainerUtils.cpp</text>
</a>
</g>
</g>
<!-- Node1&#45;&gt;Node2 -->
<g id="edge1_Node000001_Node000002" class="edge">
<title>Node1&#45;&gt;Node2</title>
<g id="a_edge1_Node000001_Node000002"><a xlink:title=" ">
<path fill="none" stroke="#63b8ff" d="M533.17,-333.87C443.96,-326.5 266.58,-311.16 116.5,-294 113.43,-293.65 110.28,-293.27 107.1,-292.88"/>
<polygon fill="#63b8ff" stroke="#63b8ff" points="533.09,-337.38 543.34,-334.71 533.66,-330.4 533.09,-337.38"/>
</a>
</g>
</g>
<!-- Node3 -->
<g id="Node000003" class="node">
<title>Node3</title>
<g id="a_Node000003"><a xlink:href="ContiguousAccessProcessor_8cpp.html" target="_top" xlink:title=" ">
<polygon fill="white" stroke="#666666" points="297.5,-294 125.5,-294 125.5,-275 297.5,-275 297.5,-294"/>
<text text-anchor="middle" x="211.5" y="-282" font-family="Helvetica,sans-Serif" font-size="10.00">ContiguousAccessProcessor.cpp</text>
</a>
</g>
</g>
<!-- Node1&#45;&gt;Node3 -->
<g id="edge2_Node000001_Node000003" class="edge">
<title>Node1&#45;&gt;Node3</title>
<g id="a_edge2_Node000001_Node000003"><a xlink:title=" ">
<path fill="none" stroke="#63b8ff" d="M533.27,-330.5C463.03,-320.67 344.43,-304.09 272.51,-294.03"/>
<polygon fill="#63b8ff" stroke="#63b8ff" points="532.88,-333.98 543.27,-331.89 533.85,-327.04 532.88,-333.98"/>
</a>
</g>
</g>
<!-- Node4 -->
<g id="Node000004" class="node">
<title>Node4</title>
<g id="a_Node000004"><a xlink:href="GranularWorkflow_8hpp.html" target="_top" xlink:title=" ">
<polygon fill="white" stroke="#666666" points="295.5,-239 171.5,-239 171.5,-220 295.5,-220 295.5,-239"/>
<text text-anchor="middle" x="233.5" y="-227" font-family="Helvetica,sans-Serif" font-size="10.00">GranularWorkflow.hpp</text>
</a>
</g>
</g>
<!-- Node1&#45;&gt;Node4 -->
<g id="edge3_Node000001_Node000004" class="edge">
<title>Node1&#45;&gt;Node4</title>
<g id="a_edge3_Node000001_Node000004"><a xlink:title=" ">
<path fill="none" stroke="#63b8ff" d="M533.34,-333.72C482.54,-328.18 406.88,-316.72 344.5,-294 324.47,-286.71 272.05,-254.63 247.09,-239.05"/>
<polygon fill="#63b8ff" stroke="#63b8ff" points="533.16,-337.22 543.47,-334.78 533.89,-330.26 533.16,-337.22"/>
</a>
</g>
</g>
<!-- Node6 -->
<g id="Node000006" class="node">
<title>Node6</title>
<g id="a_Node000006"><a xlink:href="KakshyaUtils_8hpp.html" target="_top" xlink:title=" ">
<polygon fill="white" stroke="#666666" points="455.5,-294 353.5,-294 353.5,-275 455.5,-275 455.5,-294"/>
<text text-anchor="middle" x="404.5" y="-282" font-family="Helvetica,sans-Serif" font-size="10.00">KakshyaUtils.hpp</text>
</a>
</g>
</g>
<!-- Node1&#45;&gt;Node6 -->
<g id="edge5_Node000001_Node000006" class="edge">
<title>Node1&#45;&gt;Node6</title>
<g id="a_edge5_Node000001_Node000006"><a xlink:title=" ">
<path fill="none" stroke="#63b8ff" d="M550.79,-327.18C516,-317.27 466.21,-303.08 434.62,-294.08"/>
<polygon fill="#63b8ff" stroke="#63b8ff" points="550.04,-330.61 560.62,-329.98 551.96,-323.88 550.04,-330.61"/>
</a>
</g>
</g>
<!-- Node23 -->
<g id="Node000023" class="node">
<title>Node23</title>
<g id="a_Node000023"><a xlink:href="RegionUtils_8cpp.html" target="_top" xlink:title=" ">
<polygon fill="white" stroke="#666666" points="567,-294 474,-294 474,-275 567,-275 567,-294"/>
<text text-anchor="middle" x="520.5" y="-282" font-family="Helvetica,sans-Serif" font-size="10.00">RegionUtils.cpp</text>
</a>
</g>
</g>
<!-- Node1&#45;&gt;Node23 -->
<g id="edge27_Node000001_Node000023" class="edge">
<title>Node1&#45;&gt;Node23</title>
<g id="a_edge27_Node000001_Node000023"><a xlink:title=" ">
<path fill="none" stroke="#63b8ff" d="M571.19,-323.88C558.59,-314.34 542.57,-302.21 531.95,-294.17"/>
<polygon fill="#63b8ff" stroke="#63b8ff" points="569.17,-326.74 579.25,-329.98 573.39,-321.16 569.17,-326.74"/>
</a>
</g>
</g>
<!-- Node24 -->
<g id="Node000024" class="node">
<title>Node24</title>
<g id="a_Node000024"><a xlink:href="SpatialRegionProcessor_8cpp.html" target="_top" xlink:title=" ">
<polygon fill="white" stroke="#666666" points="736,-294 585,-294 585,-275 736,-275 736,-294"/>
<text text-anchor="middle" x="660.5" y="-282" font-family="Helvetica,sans-Serif" font-size="10.00">SpatialRegionProcessor.cpp</text>
</a>
</g>
</g>
<!-- Node1&#45;&gt;Node24 -->
<g id="edge28_Node000001_Node000024" class="edge">
<title>Node1&#45;&gt;Node24</title>
<g id="a_edge28_Node000001_Node000024"><a xlink:title=" ">
<path fill="none" stroke="#63b8ff" d="M609.81,-323.88C622.41,-314.34 638.43,-302.21 649.05,-294.17"/>
<polygon fill="#63b8ff" stroke="#63b8ff" points="607.61,-321.16 601.75,-329.98 611.83,-326.74 607.61,-321.16"/>
</a>
</g>
</g>
<!-- Node25 -->
<g id="Node000025" class="node">
<title>Node25</title>
<g id="a_Node000025"><a xlink:href="StructureIntrospection_8cpp.html" target="_top" xlink:title=" ">
<polygon fill="white" stroke="#666666" points="899,-294 754,-294 754,-275 899,-275 899,-294"/>
<text text-anchor="middle" x="826.5" y="-282" font-family="Helvetica,sans-Serif" font-size="10.00">StructureIntrospection.cpp</text>
</a>
</g>
</g>
<!-- Node1&#45;&gt;Node25 -->
<g id="edge29_Node000001_Node000025" class="edge">
<title>Node1&#45;&gt;Node25</title>
<g id="a_edge29_Node000001_Node000025"><a xlink:title=" ">
<path fill="none" stroke="#63b8ff" d="M638.35,-327.75C682.58,-317.82 747.43,-303.26 788.29,-294.08"/>
<polygon fill="#63b8ff" stroke="#63b8ff" points="637.41,-324.38 628.42,-329.98 638.94,-331.21 637.41,-324.38"/>
</a>
</g>
</g>
<!-- Node26 -->
<g id="Node000026" class="node">
<title>Node26</title>
<g id="a_Node000026"><a xlink:href="TextureContainer_8cpp.html" target="_top" xlink:title=" ">
<polygon fill="white" stroke="#666666" points="1036,-294 917,-294 917,-275 1036,-275 1036,-294"/>
<text text-anchor="middle" x="976.5" y="-282" font-family="Helvetica,sans-Serif" font-size="10.00">TextureContainer.cpp</text>
</a>
</g>
</g>
<!-- Node1&#45;&gt;Node26 -->
<g id="edge30_Node000001_Node000026" class="edge">
<title>Node1&#45;&gt;Node26</title>
<g id="a_edge30_Node000001_Node000026"><a xlink:title=" ">
<path fill="none" stroke="#63b8ff" d="M648.11,-330.59C720.33,-320.67 843.52,-303.76 916.74,-293.7"/>
<polygon fill="#63b8ff" stroke="#63b8ff" points="647.26,-327.17 637.83,-332 648.21,-334.11 647.26,-327.17"/>
</a>
</g>
</g>
<!-- Node27 -->
<g id="Node000027" class="node">
<title>Node27</title>
<g id="a_Node000027"><a xlink:href="VideoStreamContainer_8cpp.html" target="_top" xlink:title=" ">
<polygon fill="white" stroke="#666666" points="1200.5,-294 1054.5,-294 1054.5,-275 1200.5,-275 1200.5,-294"/>
<text text-anchor="middle" x="1127.5" y="-282" font-family="Helvetica,sans-Serif" font-size="10.00">VideoStreamContainer.cpp</text>
</a>
</g>
</g>
<!-- Node1&#45;&gt;Node27 -->
<g id="edge31_Node000001_Node000027" class="edge">
<title>Node1&#45;&gt;Node27</title>
<g id="a_edge31_Node000001_Node000027"><a xlink:title=" ">
<path fill="none" stroke="#63b8ff" d="M647.78,-333.01C734.04,-324.71 902.46,-308.41 1045.5,-294 1048.35,-293.71 1051.25,-293.42 1054.18,-293.12"/>
<polygon fill="#63b8ff" stroke="#63b8ff" points="647.29,-329.54 637.67,-333.98 647.96,-336.5 647.29,-329.54"/>
</a>
</g>
</g>
<!-- Node28 -->
<g id="Node000028" class="node">
<title>Node28</title>
<g id="a_Node000028"><a xlink:href="WindowContainer_8cpp.html" target="_top" xlink:title=" ">
<polygon fill="white" stroke="#666666" points="1340.5,-294 1218.5,-294 1218.5,-275 1340.5,-275 1340.5,-294"/>
<text text-anchor="middle" x="1279.5" y="-282" font-family="Helvetica,sans-Serif" font-size="10.00">WindowContainer.cpp</text>
</a>
</g>
</g>
<!-- Node1&#45;&gt;Node28 -->
<g id="edge32_Node000001_Node000028" class="edge">
<title>Node1&#45;&gt;Node28</title>
<g id="a_edge32_Node000001_Node000028"><a xlink:title=" ">
<path fill="none" stroke="#63b8ff" d="M647.69,-335.33C756.98,-329.06 1003.01,-313.95 1209.5,-294 1212.42,-293.72 1215.42,-293.41 1218.44,-293.09"/>
<polygon fill="#63b8ff" stroke="#63b8ff" points="647.33,-331.84 637.55,-335.91 647.73,-338.83 647.33,-331.84"/>
</a>
</g>
</g>
<!-- Node5 -->
<g id="Node000005" class="node">
<title>Node5</title>
<g id="a_Node000005"><a xlink:href="GranularWorkflow_8cpp.html" target="_top" xlink:title=" ">
<polygon fill="white" stroke="#666666" points="264,-184 141,-184 141,-165 264,-165 264,-184"/>
<text text-anchor="middle" x="202.5" y="-172" font-family="Helvetica,sans-Serif" font-size="10.00">GranularWorkflow.cpp</text>
</a>
</g>
</g>
<!-- Node4&#45;&gt;Node5 -->
<g id="edge4_Node000004_Node000005" class="edge">
<title>Node4&#45;&gt;Node5</title>
<g id="a_edge4_Node000004_Node000005"><a xlink:title=" ">
<path fill="none" stroke="#63b8ff" d="M223.32,-211.1C218.03,-202.04 211.78,-191.37 207.52,-184.09"/>
<polygon fill="#63b8ff" stroke="#63b8ff" points="220.31,-212.88 228.38,-219.75 226.35,-209.35 220.31,-212.88"/>
</a>
</g>
</g>
<!-- Node7 -->
<g id="Node000007" class="node">
<title>Node7</title>
<g id="a_Node000007"><a xlink:href="SoundFileContainer_8hpp.html" target="_top" xlink:title=" ">
<polygon fill="white" stroke="#666666" points="636,-239 505,-239 505,-220 636,-220 636,-239"/>
<text text-anchor="middle" x="570.5" y="-227" font-family="Helvetica,sans-Serif" font-size="10.00">SoundFileContainer.hpp</text>
</a>
</g>
</g>
<!-- Node6&#45;&gt;Node7 -->
<g id="edge6_Node000006_Node000007" class="edge">
<title>Node6&#45;&gt;Node7</title>
<g id="a_edge6_Node000006_Node000007"><a xlink:title=" ">
<path fill="none" stroke="#63b8ff" d="M440.75,-271.93C471.75,-262.03 515.67,-248.01 543.62,-239.08"/>
<polygon fill="#63b8ff" stroke="#63b8ff" points="439.63,-268.61 431.17,-274.98 441.76,-275.28 439.63,-268.61"/>
</a>
</g>
</g>
<!-- Node22 -->
<g id="Node000022" class="node">
<title>Node22</title>
<g id="a_Node000022"><a xlink:href="SoundStreamContainer_8cpp.html" target="_top" xlink:title=" ">
<polygon fill="white" stroke="#666666" points="479,-239 330,-239 330,-220 479,-220 479,-239"/>
<text text-anchor="middle" x="404.5" y="-227" font-family="Helvetica,sans-Serif" font-size="10.00">SoundStreamContainer.cpp</text>
</a>
</g>
</g>
<!-- Node6&#45;&gt;Node22 -->
<g id="edge26_Node000006_Node000022" class="edge">
<title>Node6&#45;&gt;Node22</title>
<g id="a_edge26_Node000006_Node000022"><a xlink:title=" ">
<path fill="none" stroke="#63b8ff" d="M404.5,-264.66C404.5,-255.93 404.5,-245.99 404.5,-239.09"/>
<polygon fill="#63b8ff" stroke="#63b8ff" points="401,-264.75 404.5,-274.75 408,-264.75 401,-264.75"/>
</a>
</g>
</g>
<!-- Node7&#45;&gt;Node5 -->
<g id="edge9_Node000007_Node000005" class="edge">
<title>Node7&#45;&gt;Node5</title>
<g id="a_edge9_Node000007_Node000005"><a xlink:title=" ">
<path fill="none" stroke="#63b8ff" d="M501.45,-218.56C432.36,-208.61 327.2,-193.46 261.78,-184.04"/>
<polygon fill="#63b8ff" stroke="#63b8ff" points="500.98,-222.02 511.37,-219.98 501.98,-215.09 500.98,-222.02"/>
</a>
</g>
</g>
<!-- Node8 -->
<g id="Node000008" class="node">
<title>Node8</title>
<g id="a_Node000008"><a xlink:href="Creator_8cpp.html" target="_top" xlink:title=" ">
<polygon fill="white" stroke="#666666" points="688.5,-19 616.5,-19 616.5,0 688.5,0 688.5,-19"/>
<text text-anchor="middle" x="652.5" y="-7" font-family="Helvetica,sans-Serif" font-size="10.00">Creator.cpp</text>
</a>
</g>
</g>
<!-- Node7&#45;&gt;Node8 -->
<g id="edge7_Node000007_Node000008" class="edge">
<title>Node7&#45;&gt;Node8</title>
<g id="a_edge7_Node000007_Node000008"><a xlink:title=" ">
<path fill="none" stroke="#63b8ff" d="M497.95,-218.52C437.25,-209.42 359.06,-195.67 349.5,-184 344.15,-177.47 345.09,-172.2 349.5,-165 408.72,-68.33 549.55,-29.76 616.26,-16.51"/>
<polygon fill="#63b8ff" stroke="#63b8ff" points="497.5,-221.99 507.91,-219.99 498.53,-215.07 497.5,-221.99"/>
</a>
</g>
</g>
<!-- Node9 -->
<g id="Node000009" class="node">
<title>Node9</title>
<g id="a_Node000009"><a xlink:href="Depot_8cpp.html" target="_top" xlink:title=" ">
<polygon fill="white" stroke="#666666" points="1153.5,-19 1087.5,-19 1087.5,0 1153.5,0 1153.5,-19"/>
<text text-anchor="middle" x="1120.5" y="-7" font-family="Helvetica,sans-Serif" font-size="10.00">Depot.cpp</text>
</a>
</g>
</g>
<!-- Node7&#45;&gt;Node9 -->
<g id="edge8_Node000007_Node000009" class="edge">
<title>Node7&#45;&gt;Node9</title>
<g id="a_edge8_Node000007_Node000009"><a xlink:title=" ">
<path fill="none" stroke="#63b8ff" d="M646.29,-226.48C727.79,-222.84 860.61,-212.63 971.5,-184 1033.04,-168.11 1064.57,-179.24 1103.5,-129 1129.47,-95.49 1124.85,-40.14 1121.9,-19.03"/>
<polygon fill="#63b8ff" stroke="#63b8ff" points="645.96,-222.99 636.12,-226.91 646.25,-229.99 645.96,-222.99"/>
</a>
</g>
</g>
<!-- Node10 -->
<g id="Node000010" class="node">
<title>Node10</title>
<g id="a_Node000010"><a xlink:href="IOManager_8cpp.html" target="_top" xlink:title=" ">
<polygon fill="white" stroke="#666666" points="511,-19 422,-19 422,0 511,0 511,-19"/>
<text text-anchor="middle" x="466.5" y="-7" font-family="Helvetica,sans-Serif" font-size="10.00">IOManager.cpp</text>
</a>
</g>
</g>
<!-- Node7&#45;&gt;Node10 -->
<g id="edge10_Node000007_Node000010" class="edge">
<title>Node7&#45;&gt;Node10</title>
<g id="a_edge10_Node000007_Node000010"><a xlink:title=" ">
<path fill="none" stroke="#63b8ff" d="M494.51,-218.51C432.06,-209.52 352.32,-195.92 342.5,-184 292.83,-123.7 409.28,-44.94 451.75,-19.11"/>
<polygon fill="#63b8ff" stroke="#63b8ff" points="494.37,-222.02 504.76,-219.96 495.35,-215.09 494.37,-222.02"/>
</a>
</g>
</g>
<!-- Node11 -->
<g id="Node000011" class="node">
<title>Node11</title>
<g id="a_Node000011"><a xlink:href="SoundContainerBuffer_8cpp.html" target="_top" xlink:title=" ">
<polygon fill="white" stroke="#666666" points="502,-184 359,-184 359,-165 502,-165 502,-184"/>
<text text-anchor="middle" x="430.5" y="-172" font-family="Helvetica,sans-Serif" font-size="10.00">SoundContainerBuffer.cpp</text>
</a>
</g>
</g>
<!-- Node7&#45;&gt;Node11 -->
<g id="edge11_Node000007_Node000011" class="edge">
<title>Node7&#45;&gt;Node11</title>
<g id="a_edge11_Node000007_Node000011"><a xlink:title=" ">
<path fill="none" stroke="#63b8ff" d="M538.59,-216.42C512.62,-206.59 476.58,-192.95 453.4,-184.17"/>
<polygon fill="#63b8ff" stroke="#63b8ff" points="537.42,-219.72 548.01,-219.98 539.89,-213.17 537.42,-219.72"/>
</a>
</g>
</g>
<!-- Node12 -->
<g id="Node000012" class="node">
<title>Node12</title>
<g id="a_Node000012"><a xlink:href="SoundFileBridge_8cpp.html" target="_top" xlink:title=" ">
<polygon fill="white" stroke="#666666" points="636.5,-184 520.5,-184 520.5,-165 636.5,-165 636.5,-184"/>
<text text-anchor="middle" x="578.5" y="-172" font-family="Helvetica,sans-Serif" font-size="10.00">SoundFileBridge.cpp</text>
</a>
</g>
</g>
<!-- Node7&#45;&gt;Node12 -->
<g id="edge12_Node000007_Node000012" class="edge">
<title>Node7&#45;&gt;Node12</title>
<g id="a_edge12_Node000007_Node000012"><a xlink:title=" ">
<path fill="none" stroke="#63b8ff" d="M573.34,-209.66C574.66,-200.93 576.16,-190.99 577.2,-184.09"/>
<polygon fill="#63b8ff" stroke="#63b8ff" points="569.85,-209.34 571.82,-219.75 576.77,-210.38 569.85,-209.34"/>
</a>
</g>
</g>
<!-- Node13 -->
<g id="Node000013" class="node">
<title>Node13</title>
<g id="a_Node000013"><a xlink:href="SoundFileContainer_8cpp.html" target="_top" xlink:title=" ">
<polygon fill="white" stroke="#666666" points="786,-184 655,-184 655,-165 786,-165 786,-184"/>
<text text-anchor="middle" x="720.5" y="-172" font-family="Helvetica,sans-Serif" font-size="10.00">SoundFileContainer.cpp</text>
</a>
</g>
</g>
<!-- Node7&#45;&gt;Node13 -->
<g id="edge13_Node000007_Node000013" class="edge">
<title>Node7&#45;&gt;Node13</title>
<g id="a_edge13_Node000007_Node000013"><a xlink:title=" ">
<path fill="none" stroke="#63b8ff" d="M604.32,-216.55C632.18,-206.71 671.01,-192.98 695.96,-184.17"/>
<polygon fill="#63b8ff" stroke="#63b8ff" points="602.86,-213.35 594.6,-219.98 605.19,-219.95 602.86,-213.35"/>
</a>
</g>
</g>
<!-- Node14 -->
<g id="Node000014" class="node">
<title>Node14</title>
<g id="a_Node000014"><a xlink:href="SoundFileReader_8hpp.html" target="_top" xlink:title=" ">
<polygon fill="white" stroke="#666666" points="962,-184 843,-184 843,-165 962,-165 962,-184"/>
<text text-anchor="middle" x="902.5" y="-172" font-family="Helvetica,sans-Serif" font-size="10.00">SoundFileReader.hpp</text>
</a>
</g>
</g>
<!-- Node7&#45;&gt;Node14 -->
<g id="edge14_Node000007_Node000014" class="edge">
<title>Node7&#45;&gt;Node14</title>
<g id="a_edge14_Node000007_Node000014"><a xlink:title=" ">
<path fill="none" stroke="#63b8ff" d="M633.95,-218.37C696.29,-208.42 790.36,-193.4 849.02,-184.04"/>
<polygon fill="#63b8ff" stroke="#63b8ff" points="633.16,-214.95 623.84,-219.98 634.27,-221.86 633.16,-214.95"/>
</a>
</g>
</g>
<!-- Node21 -->
<g id="Node000021" class="node">
<title>Node21</title>
<g id="a_Node000021"><a xlink:href="VideoFileReader_8cpp.html" target="_top" xlink:title=" ">
<polygon fill="white" stroke="#666666" points="840.5,-74 724.5,-74 724.5,-55 840.5,-55 840.5,-74"/>
<text text-anchor="middle" x="782.5" y="-62" font-family="Helvetica,sans-Serif" font-size="10.00">VideoFileReader.cpp</text>
</a>
</g>
</g>
<!-- Node7&#45;&gt;Node21 -->
<g id="edge25_Node000007_Node000021" class="edge">
<title>Node7&#45;&gt;Node21</title>
<g id="a_edge25_Node000007_Node000021"><a xlink:title=" ">
<path fill="none" stroke="#63b8ff" d="M646.46,-223.62C704.18,-218.14 776.75,-206.82 795.5,-184 822.3,-151.38 798.13,-95.5 787.21,-74.14"/>
<polygon fill="#63b8ff" stroke="#63b8ff" points="645.88,-220.15 636.24,-224.54 646.51,-227.13 645.88,-220.15"/>
</a>
</g>
</g>
<!-- Node15 -->
<g id="Node000015" class="node">
<title>Node15</title>
<g id="a_Node000015"><a xlink:href="SoundFileReader_8cpp.html" target="_top" xlink:title=" ">
<polygon fill="white" stroke="#666666" points="1094.5,-129 976.5,-129 976.5,-110 1094.5,-110 1094.5,-129"/>
<text text-anchor="middle" x="1035.5" y="-117" font-family="Helvetica,sans-Serif" font-size="10.00">SoundFileReader.cpp</text>
</a>
</g>
</g>
<!-- Node14&#45;&gt;Node15 -->
<g id="edge15_Node000014_Node000015" class="edge">
<title>Node14&#45;&gt;Node15</title>
<g id="a_edge15_Node000014_Node000015"><a xlink:title=" ">
<path fill="none" stroke="#63b8ff" d="M933.47,-161.16C958.09,-151.35 991.91,-137.87 1013.74,-129.17"/>
<polygon fill="#63b8ff" stroke="#63b8ff" points="931.86,-158.03 923.87,-164.98 934.45,-164.53 931.86,-158.03"/>
</a>
</g>
</g>
<!-- Node16 -->
<g id="Node000016" class="node">
<title>Node16</title>
<g id="a_Node000016"><a xlink:href="VideoFileReader_8hpp.html" target="_top" xlink:title=" ">
<polygon fill="white" stroke="#666666" points="958.5,-129 842.5,-129 842.5,-110 958.5,-110 958.5,-129"/>
<text text-anchor="middle" x="900.5" y="-117" font-family="Helvetica,sans-Serif" font-size="10.00">VideoFileReader.hpp</text>
</a>
</g>
</g>
<!-- Node14&#45;&gt;Node16 -->
<g id="edge16_Node000014_Node000016" class="edge">
<title>Node14&#45;&gt;Node16</title>
<g id="a_edge16_Node000014_Node000016"><a xlink:title=" ">
<path fill="none" stroke="#63b8ff" d="M901.79,-154.66C901.46,-145.93 901.08,-135.99 900.82,-129.09"/>
<polygon fill="#63b8ff" stroke="#63b8ff" points="898.3,-154.89 902.17,-164.75 905.29,-154.62 898.3,-154.89"/>
</a>
</g>
</g>
<!-- Node17 -->
<g id="Node000017" class="node">
<title>Node17</title>
<g id="a_Node000017"><a xlink:href="IOManager_8hpp.html" target="_top" xlink:title=" ">
<polygon fill="white" stroke="#666666" points="948.5,-74 858.5,-74 858.5,-55 948.5,-55 948.5,-74"/>
<text text-anchor="middle" x="903.5" y="-62" font-family="Helvetica,sans-Serif" font-size="10.00">IOManager.hpp</text>
</a>
</g>
</g>
<!-- Node16&#45;&gt;Node17 -->
<g id="edge17_Node000016_Node000017" class="edge">
<title>Node16&#45;&gt;Node17</title>
<g id="a_edge17_Node000016_Node000017"><a xlink:title=" ">
<path fill="none" stroke="#63b8ff" d="M901.57,-99.66C902.06,-90.93 902.62,-80.99 903.01,-74.09"/>
<polygon fill="#63b8ff" stroke="#63b8ff" points="898.07,-99.57 901,-109.75 905.06,-99.96 898.07,-99.57"/>
</a>
</g>
</g>
<!-- Node16&#45;&gt;Node21 -->
<g id="edge24_Node000016_Node000021" class="edge">
<title>Node16&#45;&gt;Node21</title>
<g id="a_edge24_Node000016_Node000021"><a xlink:title=" ">
<path fill="none" stroke="#63b8ff" d="M872.15,-105.77C850.38,-95.99 820.91,-82.75 801.8,-74.17"/>
<polygon fill="#63b8ff" stroke="#63b8ff" points="870.99,-109.08 881.54,-109.98 873.85,-102.69 870.99,-109.08"/>
</a>
</g>
</g>
<!-- Node17&#45;&gt;Node8 -->
<g id="edge19_Node000017_Node000008" class="edge">
<title>Node17&#45;&gt;Node8</title>
<g id="a_edge19_Node000017_Node000008"><a xlink:title=" ">
<path fill="none" stroke="#63b8ff" d="M853.16,-52.87C804.47,-42.59 731.88,-27.26 688.65,-18.13"/>
<polygon fill="#63b8ff" stroke="#63b8ff" points="852.67,-56.34 863.17,-54.98 854.11,-49.49 852.67,-56.34"/>
</a>
</g>
</g>
<!-- Node17&#45;&gt;Node9 -->
<g id="edge20_Node000017_Node000009" class="edge">
<title>Node17&#45;&gt;Node9</title>
<g id="a_edge20_Node000017_Node000009"><a xlink:title=" ">
<path fill="none" stroke="#63b8ff" d="M948.2,-52.58C989.62,-42.47 1050.3,-27.65 1087.5,-18.56"/>
<polygon fill="#63b8ff" stroke="#63b8ff" points="947.25,-49.21 938.36,-54.98 948.91,-56.01 947.25,-49.21"/>
</a>
</g>
</g>
<!-- Node17&#45;&gt;Node10 -->
<g id="edge22_Node000017_Node000010" class="edge">
<title>Node17&#45;&gt;Node10</title>
<g id="a_edge22_Node000017_Node000010"><a xlink:title=" ">
<path fill="none" stroke="#63b8ff" d="M848.42,-54.9C720,-37.5 580.79,-22.39 511.1,-15.09"/>
<polygon fill="#63b8ff" stroke="#63b8ff" points="848.06,-58.38 858.44,-56.27 849,-51.45 848.06,-58.38"/>
</a>
</g>
</g>
<!-- Node18 -->
<g id="Node000018" class="node">
<title>Node18</title>
<g id="a_Node000018"><a xlink:href="BufferOperation_8cpp.html" target="_top" xlink:title=" ">
<polygon fill="white" stroke="#666666" points="1064.5,-19 950.5,-19 950.5,0 1064.5,0 1064.5,-19"/>
<text text-anchor="middle" x="1007.5" y="-7" font-family="Helvetica,sans-Serif" font-size="10.00">BufferOperation.cpp</text>
</a>
</g>
</g>
<!-- Node17&#45;&gt;Node18 -->
<g id="edge18_Node000017_Node000018" class="edge">
<title>Node17&#45;&gt;Node18</title>
<g id="a_edge18_Node000017_Node000018"><a xlink:title=" ">
<path fill="none" stroke="#63b8ff" d="M929.27,-50.37C948.37,-40.63 973.87,-27.64 990.49,-19.17"/>
<polygon fill="#63b8ff" stroke="#63b8ff" points="927.53,-47.33 920.21,-54.98 930.71,-53.56 927.53,-47.33"/>
</a>
</g>
</g>
<!-- Node19 -->
<g id="Node000019" class="node">
<title>Node19</title>
<g id="a_Node000019"><a xlink:href="Engine_8cpp.html" target="_top" xlink:title=" ">
<polygon fill="white" stroke="#666666" points="856.5,-19 786.5,-19 786.5,0 856.5,0 856.5,-19"/>
<text text-anchor="middle" x="821.5" y="-7" font-family="Helvetica,sans-Serif" font-size="10.00">Engine.cpp</text>
</a>
</g>
</g>
<!-- Node17&#45;&gt;Node19 -->
<g id="edge21_Node000017_Node000019" class="edge">
<title>Node17&#45;&gt;Node19</title>
<g id="a_edge21_Node000017_Node000019"><a xlink:title=" ">
<path fill="none" stroke="#63b8ff" d="M881.72,-49.42C866.84,-39.81 847.59,-27.37 834.91,-19.17"/>
<polygon fill="#63b8ff" stroke="#63b8ff" points="880.03,-52.5 890.33,-54.98 883.83,-46.62 880.03,-52.5"/>
</a>
</g>
</g>
<!-- Node20 -->
<g id="Node000020" class="node">
<title>Node20</title>
<g id="a_Node000020"><a xlink:href="Rigs_8cpp.html" target="_top" xlink:title=" ">
<polygon fill="white" stroke="#666666" points="932.5,-19 874.5,-19 874.5,0 932.5,0 932.5,-19"/>
<text text-anchor="middle" x="903.5" y="-7" font-family="Helvetica,sans-Serif" font-size="10.00">Rigs.cpp</text>
</a>
</g>
</g>
<!-- Node17&#45;&gt;Node20 -->
<g id="edge23_Node000017_Node000020" class="edge">
<title>Node17&#45;&gt;Node20</title>
<g id="a_edge23_Node000017_Node000020"><a xlink:title=" ">
<path fill="none" stroke="#63b8ff" d="M903.5,-44.66C903.5,-35.93 903.5,-25.99 903.5,-19.09"/>
<polygon fill="#63b8ff" stroke="#63b8ff" points="900,-44.75 903.5,-54.75 907,-44.75 900,-44.75"/>
</a>
</g>
</g>
</g>
</svg>
