<?xml version="1.0" encoding="UTF-8" standalone="no"?>
<!DOCTYPE svg PUBLIC "-//W3C//DTD SVG 1.1//EN"
 "http://www.w3.org/Graphics/SVG/1.1/DTD/svg11.dtd">
<!-- Generated by graphviz version 2.43.0 (0)
 -->
<!-- Title: RenderFlow.hpp Pages: 1 -->
<svg width="403pt" height="313pt"
 viewBox="0.00 0.00 403.00 313.00" xmlns="http://www.w3.org/2000/svg" xmlns:xlink="http://www.w3.org/1999/xlink">

<svg id="main" version="1.1" xmlns="http://www.w3.org/2000/svg" xmlns:xlink="http://www.w3.org/1999/xlink" xml:space="preserve" onload="init(evt)">
<style type="text/css"><![CDATA[
.node, .edge {opacity: 0.7;}
.node.selected, .edge.selected {opacity: 1;}
.edge:hover path { stroke: red; }
.edge:hover polygon { stroke: red; fill: red; }
]]></style>
<script type="application/ecmascript" xlink:href="svg.min.js"/>
<svg id="graph" class="graph">
<g id="graph0" class="graph" transform="scale(1 1) rotate(0) translate(4 309)">
<title>RenderFlow.hpp</title>
<!-- Node1 -->
<g id="Node000001" class="node">
<title>Node1</title>
<g id="a_Node000001"><a xlink:title=" ">
<polygon fill="#999999" stroke="#666666" points="222,-305 127,-305 127,-286 222,-286 222,-305"/>
<text text-anchor="middle" x="174.5" y="-293" font-family="Helvetica,sans-Serif" font-size="10.00">RenderFlow.hpp</text>
</a>
</g>
</g>
<!-- Node2 -->
<g id="Node000002" class="node">
<title>Node2</title>
<g id="a_Node000002"><a xlink:href="ShaderFoundry_8hpp.html" target="_top" xlink:title=" ">
<polygon fill="white" stroke="#666666" points="229,-250 120,-250 120,-231 229,-231 229,-250"/>
<text text-anchor="middle" x="174.5" y="-238" font-family="Helvetica,sans-Serif" font-size="10.00">ShaderFoundry.hpp</text>
</a>
</g>
</g>
<!-- Node1&#45;&gt;Node2 -->
<g id="edge1_Node000001_Node000002" class="edge">
<title>Node1&#45;&gt;Node2</title>
<g id="a_edge1_Node000001_Node000002"><a xlink:title=" ">
<path fill="none" stroke="#63b8ff" d="M174.5,-285.75C174.5,-278.8 174.5,-268.85 174.5,-260.13"/>
<polygon fill="#63b8ff" stroke="#63b8ff" points="178,-260.09 174.5,-250.09 171,-260.09 178,-260.09"/>
</a>
</g>
</g>
<!-- Node3 -->
<g id="Node000003" class="node">
<title>Node3</title>
<g id="a_Node000003"><a xlink:href="ShaderUtils_8hpp.html" target="_top" xlink:title=" ">
<polygon fill="white" stroke="#666666" points="221.5,-195 127.5,-195 127.5,-176 221.5,-176 221.5,-195"/>
<text text-anchor="middle" x="174.5" y="-183" font-family="Helvetica,sans-Serif" font-size="10.00">ShaderUtils.hpp</text>
</a>
</g>
</g>
<!-- Node2&#45;&gt;Node3 -->
<g id="edge2_Node000002_Node000003" class="edge">
<title>Node2&#45;&gt;Node3</title>
<g id="a_edge2_Node000002_Node000003"><a xlink:title=" ">
<path fill="none" stroke="#63b8ff" d="M174.5,-230.75C174.5,-223.8 174.5,-213.85 174.5,-205.13"/>
<polygon fill="#63b8ff" stroke="#63b8ff" points="178,-205.09 174.5,-195.09 171,-205.09 178,-205.09"/>
</a>
</g>
</g>
<!-- Node4 -->
<g id="Node000004" class="node">
<title>Node4</title>
<g id="a_Node000004"><a xlink:title=" ">
<polygon fill="#e0e0e0" stroke="#999999" points="105,-134.5 0,-134.5 0,-115.5 105,-115.5 105,-134.5"/>
<text text-anchor="middle" x="52.5" y="-122.5" font-family="Helvetica,sans-Serif" font-size="10.00">vulkan/vulkan.hpp</text>
</a>
</g>
</g>
<!-- Node3&#45;&gt;Node4 -->
<g id="edge3_Node000003_Node000004" class="edge">
<title>Node3&#45;&gt;Node4</title>
<g id="a_edge3_Node000003_Node000004"><a xlink:title=" ">
<path fill="none" stroke="#63b8ff" d="M156.76,-175.99C136.43,-166.25 102.89,-150.16 79.36,-138.88"/>
<polygon fill="#63b8ff" stroke="#63b8ff" points="80.79,-135.68 70.26,-134.52 77.76,-142 80.79,-135.68"/>
</a>
</g>
</g>
<!-- Node5 -->
<g id="Node000005" class="node">
<title>Node5</title>
<g id="a_Node000005"><a xlink:href="GraphicsUtils_8hpp.html" target="_top" xlink:title=" ">
<polygon fill="white" stroke="#666666" points="226,-134.5 123,-134.5 123,-115.5 226,-115.5 226,-134.5"/>
<text text-anchor="middle" x="174.5" y="-122.5" font-family="Helvetica,sans-Serif" font-size="10.00">GraphicsUtils.hpp</text>
</a>
</g>
</g>
<!-- Node3&#45;&gt;Node5 -->
<g id="edge4_Node000003_Node000005" class="edge">
<title>Node3&#45;&gt;Node5</title>
<g id="a_edge4_Node000003_Node000005"><a xlink:title=" ">
<path fill="none" stroke="#63b8ff" d="M174.5,-175.87C174.5,-167.75 174.5,-155.31 174.5,-144.89"/>
<polygon fill="#63b8ff" stroke="#63b8ff" points="178,-144.67 174.5,-134.67 171,-144.67 178,-144.67"/>
</a>
</g>
</g>
<!-- Node6 -->
<g id="Node000006" class="node">
<title>Node6</title>
<g id="a_Node000006"><a xlink:href="VertexLayout_8hpp.html" target="_top" xlink:title=" ">
<polygon fill="white" stroke="#666666" points="395,-140 244,-140 244,-110 395,-110 395,-140"/>
<text text-anchor="start" x="252" y="-128" font-family="Helvetica,sans-Serif" font-size="10.00">MayaFlux/Kakshya/NDData</text>
<text text-anchor="middle" x="319.5" y="-117" font-family="Helvetica,sans-Serif" font-size="10.00">/VertexLayout.hpp</text>
</a>
</g>
</g>
<!-- Node3&#45;&gt;Node6 -->
<g id="edge5_Node000003_Node000006" class="edge">
<title>Node3&#45;&gt;Node6</title>
<g id="a_edge5_Node000003_Node000006"><a xlink:title=" ">
<path fill="none" stroke="#63b8ff" d="M195.58,-175.99C216.36,-167.61 248.74,-154.55 275.2,-143.87"/>
<polygon fill="#63b8ff" stroke="#63b8ff" points="276.68,-147.05 284.64,-140.06 274.06,-140.56 276.68,-147.05"/>
</a>
</g>
</g>
<!-- Node7 -->
<g id="Node000007" class="node">
<title>Node7</title>
<g id="a_Node000007"><a xlink:href="NDData_8hpp.html" target="_top" xlink:title=" ">
<polygon fill="white" stroke="#666666" points="357.5,-74 281.5,-74 281.5,-55 357.5,-55 357.5,-74"/>
<text text-anchor="middle" x="319.5" y="-62" font-family="Helvetica,sans-Serif" font-size="10.00">NDData.hpp</text>
</a>
</g>
</g>
<!-- Node6&#45;&gt;Node7 -->
<g id="edge6_Node000006_Node000007" class="edge">
<title>Node6&#45;&gt;Node7</title>
<g id="a_edge6_Node000006_Node000007"><a xlink:title=" ">
<path fill="none" stroke="#63b8ff" d="M319.5,-109.84C319.5,-102.21 319.5,-92.7 319.5,-84.45"/>
<polygon fill="#63b8ff" stroke="#63b8ff" points="323,-84.27 319.5,-74.27 316,-84.27 323,-84.27"/>
</a>
</g>
</g>
<!-- Node8 -->
<g id="Node000008" class="node">
<title>Node8</title>
<g id="a_Node000008"><a xlink:title=" ">
<polygon fill="#e0e0e0" stroke="#999999" points="358.5,-19 280.5,-19 280.5,0 358.5,0 358.5,-19"/>
<text text-anchor="middle" x="319.5" y="-7" font-family="Helvetica,sans-Serif" font-size="10.00">glm/glm.hpp</text>
</a>
</g>
</g>
<!-- Node7&#45;&gt;Node8 -->
<g id="edge7_Node000007_Node000008" class="edge">
<title>Node7&#45;&gt;Node8</title>
<g id="a_edge7_Node000007_Node000008"><a xlink:title=" ">
<path fill="none" stroke="#63b8ff" d="M319.5,-54.75C319.5,-47.8 319.5,-37.85 319.5,-29.13"/>
<polygon fill="#63b8ff" stroke="#63b8ff" points="323,-29.09 319.5,-19.09 316,-29.09 323,-29.09"/>
</a>
</g>
</g>
</g>
</svg>
</svg>

<style type='text/css'>
<![CDATA[
[data-mouse-over-selected='false'] { opacity: 0.7; }
[data-mouse-over-selected='true']  { opacity: 1.0; }
]]>
</style>
<script type="application/ecmascript"><![CDATA[
document.addEventListener('DOMContentLoaded', (event) => {
  highlightEdges();
  highlightAdjacentNodes();
});
]]></script>
</svg>
