<?xml version="1.0" encoding="UTF-8" standalone="no"?>
<!DOCTYPE svg PUBLIC "-//W3C//DTD SVG 1.1//EN"
 "http://www.w3.org/Graphics/SVG/1.1/DTD/svg11.dtd">
<!-- Generated by graphviz version 2.43.0 (0)
 -->
<!-- Title: RootBuffer.hpp Pages: 1 -->
<svg width="742pt" height="269pt"
 viewBox="0.00 0.00 741.50 269.00" xmlns="http://www.w3.org/2000/svg" xmlns:xlink="http://www.w3.org/1999/xlink">
<g id="graph0" class="graph" transform="scale(1 1) rotate(0) translate(4 265)">
<title>RootBuffer.hpp</title>
<!-- Node1 -->
<g id="Node000001" class="node">
<title>Node1</title>
<g id="a_Node000001"><a xlink:title=" ">
<polygon fill="#999999" stroke="#666666" points="366.5,-261 277.5,-261 277.5,-242 366.5,-242 366.5,-261"/>
<text text-anchor="middle" x="322" y="-249" font-family="Helvetica,sans-Serif" font-size="10.00">RootBuffer.hpp</text>
</a>
</g>
</g>
<!-- Node2 -->
<g id="Node000002" class="node">
<title>Node2</title>
<g id="a_Node000002"><a xlink:href="BufferUtils_8hpp.html" target="_top" xlink:title=" ">
<polygon fill="white" stroke="#666666" points="316,-206 138,-206 138,-187 316,-187 316,-206"/>
<text text-anchor="middle" x="227" y="-194" font-family="Helvetica,sans-Serif" font-size="10.00">MayaFlux/Buffers/BufferUtils.hpp</text>
</a>
</g>
</g>
<!-- Node1&#45;&gt;Node2 -->
<g id="edge1_Node000001_Node000002" class="edge">
<title>Node1&#45;&gt;Node2</title>
<g id="a_edge1_Node000001_Node000002"><a xlink:title=" ">
<path fill="none" stroke="#63b8ff" d="M306.74,-241.98C291.87,-233.69 269.02,-220.94 251.58,-211.22"/>
<polygon fill="#63b8ff" stroke="#63b8ff" points="252.98,-207.99 242.54,-206.17 249.57,-214.1 252.98,-207.99"/>
</a>
</g>
</g>
<!-- Node7 -->
<g id="Node000007" class="node">
<title>Node7</title>
<g id="a_Node000007"><a xlink:href="Archivist_8hpp.html" target="_top" xlink:title=" ">
<polygon fill="white" stroke="#666666" points="502,-206 334,-206 334,-187 502,-187 502,-206"/>
<text text-anchor="middle" x="418" y="-194" font-family="Helvetica,sans-Serif" font-size="10.00">MayaFlux/Journal/Archivist.hpp</text>
</a>
</g>
</g>
<!-- Node1&#45;&gt;Node7 -->
<g id="edge6_Node000001_Node000007" class="edge">
<title>Node1&#45;&gt;Node7</title>
<g id="a_edge6_Node000001_Node000007"><a xlink:title=" ">
<path fill="none" stroke="#63b8ff" d="M337.42,-241.98C352.45,-233.69 375.54,-220.94 393.16,-211.22"/>
<polygon fill="#63b8ff" stroke="#63b8ff" points="395.23,-214.07 402.3,-206.17 391.85,-207.94 395.23,-214.07"/>
</a>
</g>
</g>
<!-- Node3 -->
<g id="Node000003" class="node">
<title>Node3</title>
<g id="a_Node000003"><a xlink:href="ProcessingTokens_8hpp.html" target="_top" xlink:title=" ">
<polygon fill="white" stroke="#666666" points="146,-151 0,-151 0,-121 146,-121 146,-151"/>
<text text-anchor="start" x="8" y="-139" font-family="Helvetica,sans-Serif" font-size="10.00">MayaFlux/Core/Processing</text>
<text text-anchor="middle" x="73" y="-128" font-family="Helvetica,sans-Serif" font-size="10.00">Tokens.hpp</text>
</a>
</g>
</g>
<!-- Node2&#45;&gt;Node3 -->
<g id="edge2_Node000002_Node000003" class="edge">
<title>Node2&#45;&gt;Node3</title>
<g id="a_edge2_Node000002_Node000003"><a xlink:title=" ">
<path fill="none" stroke="#63b8ff" d="M204.61,-186.99C182.44,-178.57 147.85,-165.43 119.69,-154.73"/>
<polygon fill="#63b8ff" stroke="#63b8ff" points="120.61,-151.34 110.02,-151.06 118.13,-157.89 120.61,-151.34"/>
</a>
</g>
</g>
<!-- Node4 -->
<g id="Node000004" class="node">
<title>Node4</title>
<g id="a_Node000004"><a xlink:href="VertexLayout_8hpp.html" target="_top" xlink:title=" ">
<polygon fill="white" stroke="#666666" points="315.5,-151 164.5,-151 164.5,-121 315.5,-121 315.5,-151"/>
<text text-anchor="start" x="172.5" y="-139" font-family="Helvetica,sans-Serif" font-size="10.00">MayaFlux/Kakshya/NDData</text>
<text text-anchor="middle" x="240" y="-128" font-family="Helvetica,sans-Serif" font-size="10.00">/VertexLayout.hpp</text>
</a>
</g>
</g>
<!-- Node2&#45;&gt;Node4 -->
<g id="edge3_Node000002_Node000004" class="edge">
<title>Node2&#45;&gt;Node4</title>
<g id="a_edge3_Node000002_Node000004"><a xlink:title=" ">
<path fill="none" stroke="#63b8ff" d="M228.92,-186.87C230.44,-180.03 232.64,-170.14 234.67,-160.97"/>
<polygon fill="#63b8ff" stroke="#63b8ff" points="238.11,-161.64 236.86,-151.11 231.28,-160.12 238.11,-161.64"/>
</a>
</g>
</g>
<!-- Node5 -->
<g id="Node000005" class="node">
<title>Node5</title>
<g id="a_Node000005"><a xlink:href="NDData_8hpp.html" target="_top" xlink:title=" ">
<polygon fill="white" stroke="#666666" points="278,-79.5 202,-79.5 202,-60.5 278,-60.5 278,-79.5"/>
<text text-anchor="middle" x="240" y="-67.5" font-family="Helvetica,sans-Serif" font-size="10.00">NDData.hpp</text>
</a>
</g>
</g>
<!-- Node4&#45;&gt;Node5 -->
<g id="edge4_Node000004_Node000005" class="edge">
<title>Node4&#45;&gt;Node5</title>
<g id="a_edge4_Node000004_Node000005"><a xlink:title=" ">
<path fill="none" stroke="#63b8ff" d="M240,-120.8C240,-111.7 240,-99.79 240,-89.9"/>
<polygon fill="#63b8ff" stroke="#63b8ff" points="243.5,-89.84 240,-79.84 236.5,-89.84 243.5,-89.84"/>
</a>
</g>
</g>
<!-- Node6 -->
<g id="Node000006" class="node">
<title>Node6</title>
<g id="a_Node000006"><a xlink:title=" ">
<polygon fill="#e0e0e0" stroke="#999999" points="279,-19 201,-19 201,0 279,0 279,-19"/>
<text text-anchor="middle" x="240" y="-7" font-family="Helvetica,sans-Serif" font-size="10.00">glm/glm.hpp</text>
</a>
</g>
</g>
<!-- Node5&#45;&gt;Node6 -->
<g id="edge5_Node000005_Node000006" class="edge">
<title>Node5&#45;&gt;Node6</title>
<g id="a_edge5_Node000005_Node000006"><a xlink:title=" ">
<path fill="none" stroke="#63b8ff" d="M240,-60.37C240,-52.25 240,-39.81 240,-29.39"/>
<polygon fill="#63b8ff" stroke="#63b8ff" points="243.5,-29.17 240,-19.17 236.5,-29.17 243.5,-29.17"/>
</a>
</g>
</g>
<!-- Node8 -->
<g id="Node000008" class="node">
<title>Node8</title>
<g id="a_Node000008"><a xlink:href="Format_8hpp.html" target="_top" xlink:title=" ">
<polygon fill="white" stroke="#666666" points="447,-145.5 375,-145.5 375,-126.5 447,-126.5 447,-145.5"/>
<text text-anchor="middle" x="411" y="-133.5" font-family="Helvetica,sans-Serif" font-size="10.00">Format.hpp</text>
</a>
</g>
</g>
<!-- Node7&#45;&gt;Node8 -->
<g id="edge7_Node000007_Node000008" class="edge">
<title>Node7&#45;&gt;Node8</title>
<g id="a_edge7_Node000007_Node000008"><a xlink:title=" ">
<path fill="none" stroke="#63b8ff" d="M416.97,-186.87C416,-178.75 414.51,-166.31 413.26,-155.89"/>
<polygon fill="#63b8ff" stroke="#63b8ff" points="416.7,-155.18 412.04,-145.67 409.75,-156.01 416.7,-155.18"/>
</a>
</g>
</g>
<!-- Node9 -->
<g id="Node000009" class="node">
<title>Node9</title>
<g id="a_Node000009"><a xlink:href="JournalEntry_8hpp.html" target="_top" xlink:title=" ">
<polygon fill="white" stroke="#666666" points="560.5,-145.5 465.5,-145.5 465.5,-126.5 560.5,-126.5 560.5,-145.5"/>
<text text-anchor="middle" x="513" y="-133.5" font-family="Helvetica,sans-Serif" font-size="10.00">JournalEntry.hpp</text>
</a>
</g>
</g>
<!-- Node7&#45;&gt;Node9 -->
<g id="edge8_Node000007_Node000009" class="edge">
<title>Node7&#45;&gt;Node9</title>
<g id="a_edge8_Node000007_Node000009"><a xlink:title=" ">
<path fill="none" stroke="#63b8ff" d="M432.02,-186.87C447.31,-177.45 472.03,-162.23 490.14,-151.08"/>
<polygon fill="#63b8ff" stroke="#63b8ff" points="492.25,-153.89 498.92,-145.67 488.57,-147.93 492.25,-153.89"/>
</a>
</g>
</g>
<!-- Node10 -->
<g id="Node000010" class="node">
<title>Node10</title>
<g id="a_Node000010"><a xlink:href="EnumReflect_8hpp.html" target="_top" xlink:title=" ">
<polygon fill="white" stroke="#666666" points="462.5,-85 323.5,-85 323.5,-55 462.5,-55 462.5,-85"/>
<text text-anchor="start" x="331.5" y="-73" font-family="Helvetica,sans-Serif" font-size="10.00">MayaFlux/Transitive</text>
<text text-anchor="middle" x="393" y="-62" font-family="Helvetica,sans-Serif" font-size="10.00">/Reflect/EnumReflect.hpp</text>
</a>
</g>
</g>
<!-- Node9&#45;&gt;Node10 -->
<g id="edge9_Node000009_Node000010" class="edge">
<title>Node9&#45;&gt;Node10</title>
<g id="a_edge9_Node000009_Node000010"><a xlink:title=" ">
<path fill="none" stroke="#63b8ff" d="M496.82,-126.37C479.39,-117.07 451.11,-101.99 428.46,-89.91"/>
<polygon fill="#63b8ff" stroke="#63b8ff" points="429.94,-86.73 419.47,-85.12 426.64,-92.91 429.94,-86.73"/>
</a>
</g>
</g>
<!-- Node11 -->
<g id="Node000011" class="node">
<title>Node11</title>
<g id="a_Node000011"><a xlink:title=" ">
<polygon fill="#e0e0e0" stroke="#999999" points="531,-79.5 481,-79.5 481,-60.5 531,-60.5 531,-79.5"/>
<text text-anchor="middle" x="506" y="-67.5" font-family="Helvetica,sans-Serif" font-size="10.00">chrono</text>
</a>
</g>
</g>
<!-- Node9&#45;&gt;Node11 -->
<g id="edge10_Node000009_Node000011" class="edge">
<title>Node9&#45;&gt;Node11</title>
<g id="a_edge10_Node000009_Node000011"><a xlink:title=" ">
<path fill="none" stroke="#63b8ff" d="M512.06,-126.37C511.04,-117.07 509.39,-101.98 508.07,-89.9"/>
<polygon fill="#63b8ff" stroke="#63b8ff" points="511.54,-89.47 506.97,-79.91 504.58,-90.23 511.54,-89.47"/>
</a>
</g>
</g>
<!-- Node12 -->
<g id="Node000012" class="node">
<title>Node12</title>
<g id="a_Node000012"><a xlink:title=" ">
<polygon fill="#e0e0e0" stroke="#999999" points="642.5,-79.5 549.5,-79.5 549.5,-60.5 642.5,-60.5 642.5,-79.5"/>
<text text-anchor="middle" x="596" y="-67.5" font-family="Helvetica,sans-Serif" font-size="10.00">source_location</text>
</a>
</g>
</g>
<!-- Node9&#45;&gt;Node12 -->
<g id="edge11_Node000009_Node000012" class="edge">
<title>Node9&#45;&gt;Node12</title>
<g id="a_edge11_Node000009_Node000012"><a xlink:title=" ">
<path fill="none" stroke="#63b8ff" d="M524.19,-126.37C537.56,-116.06 560.15,-98.65 576.42,-86.09"/>
<polygon fill="#63b8ff" stroke="#63b8ff" points="578.94,-88.58 584.72,-79.7 574.66,-83.03 578.94,-88.58"/>
</a>
</g>
</g>
<!-- Node13 -->
<g id="Node000013" class="node">
<title>Node13</title>
<g id="a_Node000013"><a xlink:title=" ">
<polygon fill="#e0e0e0" stroke="#999999" points="733.5,-79.5 660.5,-79.5 660.5,-60.5 733.5,-60.5 733.5,-79.5"/>
<text text-anchor="middle" x="697" y="-67.5" font-family="Helvetica,sans-Serif" font-size="10.00">string_view</text>
</a>
</g>
</g>
<!-- Node9&#45;&gt;Node13 -->
<g id="edge12_Node000009_Node000013" class="edge">
<title>Node9&#45;&gt;Node13</title>
<g id="a_edge12_Node000009_Node000013"><a xlink:title=" ">
<path fill="none" stroke="#63b8ff" d="M537.82,-126.37C570,-115.17 626.32,-95.58 662.62,-82.96"/>
<polygon fill="#63b8ff" stroke="#63b8ff" points="663.99,-86.19 672.28,-79.6 661.69,-79.58 663.99,-86.19"/>
</a>
</g>
</g>
</g>
</svg>
