<?xml version="1.0" encoding="UTF-8" standalone="no"?>
<!DOCTYPE svg PUBLIC "-//W3C//DTD SVG 1.1//EN"
 "http://www.w3.org/Graphics/SVG/1.1/DTD/svg11.dtd">
<!-- Generated by graphviz version 2.43.0 (0)
 -->
<!-- Title: SamplingPipeline.hpp Pages: 1 -->
<!--zoomable 599 -->

<svg id="main" version="1.1" xmlns="http://www.w3.org/2000/svg" xmlns:xlink="http://www.w3.org/1999/xlink" xml:space="preserve" onload="init(evt)">
<style type="text/css"><![CDATA[
.node, .edge {opacity: 0.7;}
.node.selected, .edge.selected {opacity: 1;}
.edge:hover path { stroke: red; }
.edge:hover polygon { stroke: red; fill: red; }
]]></style>

<defs>
  <circle id="rim" cx="0" cy="0" r="7"/>
  <circle id="rim2" cx="0" cy="0" r="3.5"/>
  <g id="zoomPlus">
    <use xlink:href="#rim" fill="#404040"><set attributeName="fill" to="#808080" begin="zoomplus.mouseover" end="zoomplus.mouseout"/></use>
    <path d="M-4,0h8M0,-4v8" fill="none" stroke="white" stroke-width="1.5" pointer-events="none"/>
  </g>
  <g id="zoomMin">
    <use xlink:href="#rim" fill="#404040"><set attributeName="fill" to="#808080" begin="zoomminus.mouseover" end="zoomminus.mouseout"/></use>
    <path d="M-4,0h8" fill="none" stroke="white" stroke-width="1.5" pointer-events="none"/>
  </g>
  <g id="arrowUp" transform="translate(30 24)">
    <use xlink:href="#rim"/>
    <path pointer-events="none" fill="none" stroke="white" stroke-width="1.5" d="M0,-3.0v7 M-2.5,-0.5L0,-3.0L2.5,-0.5"/>
  </g>
  <g id="arrowRight" transform="rotate(90) translate(36 -43)">
    <use xlink:href="#rim"/>
    <path pointer-events="none" fill="none" stroke="white" stroke-width="1.5" d="M0,-3.0v7 M-2.5,-0.5L0,-3.0L2.5,-0.5"/>
  </g>
  <g id="arrowDown" transform="rotate(180) translate(-30 -48)">
    <use xlink:href="#rim"/>
    <path pointer-events="none" fill="none" stroke="white" stroke-width="1.5" d="M0,-3.0v7 M-2.5,-0.5L0,-3.0L2.5,-0.5"/>
  </g>
  <g id="arrowLeft" transform="rotate(270) translate(-36 17)">
    <use xlink:href="#rim"/>
    <path pointer-events="none" fill="none" stroke="white" stroke-width="1.5" d="M0,-3.0v7 M-2.5,-0.5L0,-3.0L2.5,-0.5"/>
  </g>
  <g id="resetDef">
    <use xlink:href="#rim2" fill="#404040"><set attributeName="fill" to="#808080" begin="reset.mouseover" end="reset.mouseout"/></use>
  </g>
</defs>
<script type="application/ecmascript">
var viewWidth = 1499;
var viewHeight = 599;
var sectionId = 'dynsection-0';
</script>
<script type="application/ecmascript" xlink:href="svg.min.js"/>
<svg id="graph" class="graph">
<g id="viewport">
<title>SamplingPipeline.hpp</title>
<!-- Node1 -->
<g id="Node000001" class="node">
<title>Node1</title>
<g id="a_Node000001"><a xlink:title=" ">
<polygon fill="#999999" stroke="#666666" points="784.29,-591 662.29,-591 662.29,-572 784.29,-572 784.29,-591"/>
<text text-anchor="middle" x="723.29" y="-579" font-family="Helvetica,sans-Serif" font-size="10.00">SamplingPipeline.hpp</text>
</a>
</g>
</g>
<!-- Node2 -->
<g id="Node000002" class="node">
<title>Node2</title>
<g id="a_Node000002"><a xlink:href="BufferPipeline_8hpp.html" target="_top" xlink:title=" ">
<polygon fill="white" stroke="#666666" points="268.29,-530.5 162.29,-530.5 162.29,-511.5 268.29,-511.5 268.29,-530.5"/>
<text text-anchor="middle" x="215.29" y="-518.5" font-family="Helvetica,sans-Serif" font-size="10.00">BufferPipeline.hpp</text>
</a>
</g>
</g>
<!-- Node1&#45;&gt;Node2 -->
<g id="edge1_Node000001_Node000002" class="edge">
<title>Node1&#45;&gt;Node2</title>
<g id="a_edge1_Node000001_Node000002"><a xlink:title=" ">
<path fill="none" stroke="#63b8ff" d="M662.27,-573.47C565.26,-562.3 376.81,-540.6 278.47,-529.28"/>
<polygon fill="#63b8ff" stroke="#63b8ff" points="278.71,-525.78 268.38,-528.11 277.91,-532.73 278.71,-525.78"/>
</a>
</g>
</g>
<!-- Node14 -->
<g id="Node000014" class="node">
<title>Node14</title>
<g id="a_Node000014"><a xlink:href="StreamSliceProcessor_8hpp.html" target="_top" xlink:title=" ">
<polygon fill="white" stroke="#666666" points="712.29,-536 560.29,-536 560.29,-506 712.29,-506 712.29,-536"/>
<text text-anchor="start" x="568.29" y="-524" font-family="Helvetica,sans-Serif" font-size="10.00">MayaFlux/Buffers/Container</text>
<text text-anchor="middle" x="636.29" y="-513" font-family="Helvetica,sans-Serif" font-size="10.00">/StreamSliceProcessor.hpp</text>
</a>
</g>
</g>
<!-- Node1&#45;&gt;Node14 -->
<g id="edge14_Node000001_Node000014" class="edge">
<title>Node1&#45;&gt;Node14</title>
<g id="a_edge14_Node000001_Node000014"><a xlink:title=" ">
<path fill="none" stroke="#63b8ff" d="M710.46,-571.87C698.76,-564 681.05,-552.09 665.87,-541.89"/>
<polygon fill="#63b8ff" stroke="#63b8ff" points="667.54,-538.79 657.29,-536.11 663.63,-544.6 667.54,-538.79"/>
</a>
</g>
</g>
<!-- Node21 -->
<g id="Node000021" class="node">
<title>Node21</title>
<g id="a_Node000021"><a xlink:href="StreamSlice_8hpp.html" target="_top" xlink:title=" ">
<polygon fill="white" stroke="#666666" points="866.29,-470 720.29,-470 720.29,-440 866.29,-440 866.29,-470"/>
<text text-anchor="start" x="728.29" y="-458" font-family="Helvetica,sans-Serif" font-size="10.00">MayaFlux/Kakshya/Source</text>
<text text-anchor="middle" x="793.29" y="-447" font-family="Helvetica,sans-Serif" font-size="10.00">/StreamSlice.hpp</text>
</a>
</g>
</g>
<!-- Node1&#45;&gt;Node21 -->
<g id="edge34_Node000001_Node000021" class="edge">
<title>Node1&#45;&gt;Node21</title>
<g id="a_edge34_Node000001_Node000021"><a xlink:title=" ">
<path fill="none" stroke="#63b8ff" d="M728.11,-571.94C738.76,-552.99 764.66,-506.94 780.41,-478.91"/>
<polygon fill="#63b8ff" stroke="#63b8ff" points="783.48,-480.59 785.33,-470.16 777.38,-477.16 783.48,-480.59"/>
</a>
</g>
</g>
<!-- Node28 -->
<g id="Node000028" class="node">
<title>Node28</title>
<g id="a_Node000028"><a xlink:href="Archivist_8hpp.html" target="_top" xlink:title=" ">
<polygon fill="white" stroke="#666666" points="1347.29,-530.5 1179.29,-530.5 1179.29,-511.5 1347.29,-511.5 1347.29,-530.5"/>
<text text-anchor="middle" x="1263.29" y="-518.5" font-family="Helvetica,sans-Serif" font-size="10.00">MayaFlux/Journal/Archivist.hpp</text>
</a>
</g>
</g>
<!-- Node1&#45;&gt;Node28 -->
<g id="edge35_Node000001_Node000028" class="edge">
<title>Node1&#45;&gt;Node28</title>
<g id="a_edge35_Node000001_Node000028"><a xlink:title=" ">
<path fill="none" stroke="#63b8ff" d="M784.45,-573.87C879.78,-563.55 1064.25,-543.56 1174.32,-531.64"/>
<polygon fill="#63b8ff" stroke="#63b8ff" points="1174.84,-535.1 1184.4,-530.55 1174.08,-528.14 1174.84,-535.1"/>
</a>
</g>
</g>
<!-- Node3 -->
<g id="Node000003" class="node">
<title>Node3</title>
<g id="a_Node000003"><a xlink:href="BufferOperation_8hpp.html" target="_top" xlink:title=" ">
<polygon fill="white" stroke="#666666" points="161.79,-338 46.79,-338 46.79,-319 161.79,-319 161.79,-338"/>
<text text-anchor="middle" x="104.29" y="-326" font-family="Helvetica,sans-Serif" font-size="10.00">BufferOperation.hpp</text>
</a>
</g>
</g>
<!-- Node2&#45;&gt;Node3 -->
<g id="edge2_Node000002_Node000003" class="edge">
<title>Node2&#45;&gt;Node3</title>
<g id="a_edge2_Node000002_Node000003"><a xlink:title=" ">
<path fill="none" stroke="#63b8ff" d="M184.64,-511.41C163.9,-503.94 137.74,-490.95 123.29,-470 97.75,-432.96 99,-377.17 101.8,-348.3"/>
<polygon fill="#63b8ff" stroke="#63b8ff" points="105.32,-348.35 102.98,-338.02 98.36,-347.56 105.32,-348.35"/>
</a>
</g>
</g>
<!-- Node9 -->
<g id="Node000009" class="node">
<title>Node9</title>
<g id="a_Node000009"><a xlink:href="Scheduler_8hpp.html" target="_top" xlink:title=" ">
<polygon fill="white" stroke="#666666" points="297.79,-464.5 132.79,-464.5 132.79,-445.5 297.79,-445.5 297.79,-464.5"/>
<text text-anchor="middle" x="215.29" y="-452.5" font-family="Helvetica,sans-Serif" font-size="10.00">MayaFlux/Vruta/Scheduler.hpp</text>
</a>
</g>
</g>
<!-- Node2&#45;&gt;Node9 -->
<g id="edge8_Node000002_Node000009" class="edge">
<title>Node2&#45;&gt;Node9</title>
<g id="a_edge8_Node000002_Node000009"><a xlink:title=" ">
<path fill="none" stroke="#63b8ff" d="M215.29,-511.37C215.29,-502.16 215.29,-487.29 215.29,-475.27"/>
<polygon fill="#63b8ff" stroke="#63b8ff" points="218.79,-474.91 215.29,-464.91 211.79,-474.91 218.79,-474.91"/>
</a>
</g>
</g>
<!-- Node4 -->
<g id="Node000004" class="node">
<title>Node4</title>
<g id="a_Node000004"><a xlink:href="Capture_8hpp.html" target="_top" xlink:title=" ">
<polygon fill="white" stroke="#666666" points="246.29,-145.5 170.29,-145.5 170.29,-126.5 246.29,-126.5 246.29,-145.5"/>
<text text-anchor="middle" x="208.29" y="-133.5" font-family="Helvetica,sans-Serif" font-size="10.00">Capture.hpp</text>
</a>
</g>
</g>
<!-- Node3&#45;&gt;Node4 -->
<g id="edge3_Node000003_Node000004" class="edge">
<title>Node3&#45;&gt;Node4</title>
<g id="a_edge3_Node000003_Node000004"><a xlink:title=" ">
<path fill="none" stroke="#63b8ff" d="M59.53,-318.92C39.35,-312.58 17.37,-301.67 5.29,-283 -1.95,-271.8 -1.4,-264.53 5.29,-253 39.03,-194.86 114.06,-163.4 162.85,-148.43"/>
<polygon fill="#63b8ff" stroke="#63b8ff" points="163.93,-151.76 172.53,-145.57 161.95,-145.05 163.93,-151.76"/>
</a>
</g>
</g>
<!-- Node7 -->
<g id="Node000007" class="node">
<title>Node7</title>
<g id="a_Node000007"><a xlink:href="BufferSpec_8hpp.html" target="_top" xlink:title=" ">
<polygon fill="white" stroke="#666666" points="193.79,-277.5 14.79,-277.5 14.79,-258.5 193.79,-258.5 193.79,-277.5"/>
<text text-anchor="middle" x="104.29" y="-265.5" font-family="Helvetica,sans-Serif" font-size="10.00">MayaFlux/Buffers/BufferSpec.hpp</text>
</a>
</g>
</g>
<!-- Node3&#45;&gt;Node7 -->
<g id="edge6_Node000003_Node000007" class="edge">
<title>Node3&#45;&gt;Node7</title>
<g id="a_edge6_Node000003_Node000007"><a xlink:title=" ">
<path fill="none" stroke="#63b8ff" d="M104.29,-318.87C104.29,-310.75 104.29,-298.31 104.29,-287.89"/>
<polygon fill="#63b8ff" stroke="#63b8ff" points="107.79,-287.67 104.29,-277.67 100.79,-287.67 107.79,-287.67"/>
</a>
</g>
</g>
<!-- Node8 -->
<g id="Node000008" class="node">
<title>Node8</title>
<g id="a_Node000008"><a xlink:href="ProcessingTokens_8hpp.html" target="_top" xlink:title=" ">
<polygon fill="white" stroke="#666666" points="358.29,-283 212.29,-283 212.29,-253 358.29,-253 358.29,-283"/>
<text text-anchor="start" x="220.29" y="-271" font-family="Helvetica,sans-Serif" font-size="10.00">MayaFlux/Core/Processing</text>
<text text-anchor="middle" x="285.29" y="-260" font-family="Helvetica,sans-Serif" font-size="10.00">Tokens.hpp</text>
</a>
</g>
</g>
<!-- Node3&#45;&gt;Node8 -->
<g id="edge7_Node000003_Node000008" class="edge">
<title>Node3&#45;&gt;Node8</title>
<g id="a_edge7_Node000003_Node000008"><a xlink:title=" ">
<path fill="none" stroke="#63b8ff" d="M130.61,-318.99C157.12,-310.43 198.75,-296.97 232.15,-286.18"/>
<polygon fill="#63b8ff" stroke="#63b8ff" points="233.34,-289.47 241.78,-283.06 231.19,-282.81 233.34,-289.47"/>
</a>
</g>
</g>
<!-- Node5 -->
<g id="Node000005" class="node">
<title>Node5</title>
<g id="a_Node000005"><a xlink:href="NDData_8hpp.html" target="_top" xlink:title=" ">
<polygon fill="white" stroke="#666666" points="627.79,-85 476.79,-85 476.79,-55 627.79,-55 627.79,-85"/>
<text text-anchor="start" x="484.79" y="-73" font-family="Helvetica,sans-Serif" font-size="10.00">MayaFlux/Kakshya/NDData</text>
<text text-anchor="middle" x="552.29" y="-62" font-family="Helvetica,sans-Serif" font-size="10.00">/NDData.hpp</text>
</a>
</g>
</g>
<!-- Node4&#45;&gt;Node5 -->
<g id="edge4_Node000004_Node000005" class="edge">
<title>Node4&#45;&gt;Node5</title>
<g id="a_edge4_Node000004_Node000005"><a xlink:title=" ">
<path fill="none" stroke="#63b8ff" d="M246.42,-127.91C299.19,-118.09 395.96,-100.09 466.56,-86.95"/>
<polygon fill="#63b8ff" stroke="#63b8ff" points="467.59,-90.32 476.78,-85.05 466.31,-83.44 467.59,-90.32"/>
</a>
</g>
</g>
<!-- Node6 -->
<g id="Node000006" class="node">
<title>Node6</title>
<g id="a_Node000006"><a xlink:title=" ">
<polygon fill="#e0e0e0" stroke="#999999" points="591.29,-19 513.29,-19 513.29,0 591.29,0 591.29,-19"/>
<text text-anchor="middle" x="552.29" y="-7" font-family="Helvetica,sans-Serif" font-size="10.00">glm/glm.hpp</text>
</a>
</g>
</g>
<!-- Node5&#45;&gt;Node6 -->
<g id="edge5_Node000005_Node000006" class="edge">
<title>Node5&#45;&gt;Node6</title>
<g id="a_edge5_Node000005_Node000006"><a xlink:title=" ">
<path fill="none" stroke="#63b8ff" d="M552.29,-54.84C552.29,-47.21 552.29,-37.7 552.29,-29.45"/>
<polygon fill="#63b8ff" stroke="#63b8ff" points="555.79,-29.27 552.29,-19.27 548.79,-29.27 555.79,-29.27"/>
</a>
</g>
</g>
<!-- Node10 -->
<g id="Node000010" class="node">
<title>Node10</title>
<g id="a_Node000010"><a xlink:href="Clock_8hpp.html" target="_top" xlink:title=" ">
<polygon fill="white" stroke="#666666" points="330.79,-398.5 265.79,-398.5 265.79,-379.5 330.79,-379.5 330.79,-398.5"/>
<text text-anchor="middle" x="298.29" y="-386.5" font-family="Helvetica,sans-Serif" font-size="10.00">Clock.hpp</text>
</a>
</g>
</g>
<!-- Node9&#45;&gt;Node10 -->
<g id="edge9_Node000009_Node000010" class="edge">
<title>Node9&#45;&gt;Node10</title>
<g id="a_edge9_Node000009_Node000010"><a xlink:title=" ">
<path fill="none" stroke="#63b8ff" d="M226.49,-445.37C239.85,-435.06 262.44,-417.65 278.72,-405.09"/>
<polygon fill="#63b8ff" stroke="#63b8ff" points="281.23,-407.58 287.01,-398.7 276.96,-402.03 281.23,-407.58"/>
</a>
</g>
</g>
<!-- Node11 -->
<g id="Node000011" class="node">
<title>Node11</title>
<g id="a_Node000011"><a xlink:href="Routine_8hpp.html" target="_top" xlink:title=" ">
<polygon fill="white" stroke="#666666" points="247.79,-398.5 172.79,-398.5 172.79,-379.5 247.79,-379.5 247.79,-398.5"/>
<text text-anchor="middle" x="210.29" y="-386.5" font-family="Helvetica,sans-Serif" font-size="10.00">Routine.hpp</text>
</a>
</g>
</g>
<!-- Node9&#45;&gt;Node11 -->
<g id="edge10_Node000009_Node000011" class="edge">
<title>Node9&#45;&gt;Node11</title>
<g id="a_edge10_Node000009_Node000011"><a xlink:title=" ">
<path fill="none" stroke="#63b8ff" d="M214.62,-445.37C213.89,-436.07 212.71,-420.98 211.77,-408.9"/>
<polygon fill="#63b8ff" stroke="#63b8ff" points="215.26,-408.6 210.99,-398.91 208.28,-409.15 215.26,-408.6"/>
</a>
</g>
</g>
<!-- Node12 -->
<g id="Node000012" class="node">
<title>Node12</title>
<g id="a_Node000012"><a xlink:href="Promise_8hpp.html" target="_top" xlink:title=" ">
<polygon fill="white" stroke="#666666" points="309.79,-338 232.79,-338 232.79,-319 309.79,-319 309.79,-338"/>
<text text-anchor="middle" x="271.29" y="-326" font-family="Helvetica,sans-Serif" font-size="10.00">Promise.hpp</text>
</a>
</g>
</g>
<!-- Node11&#45;&gt;Node12 -->
<g id="edge11_Node000011_Node000012" class="edge">
<title>Node11&#45;&gt;Node12</title>
<g id="a_edge11_Node000011_Node000012"><a xlink:title=" ">
<path fill="none" stroke="#63b8ff" d="M219.29,-379.37C228.67,-370.38 243.54,-356.11 254.99,-345.14"/>
<polygon fill="#63b8ff" stroke="#63b8ff" points="257.46,-347.62 262.26,-338.17 252.62,-342.56 257.46,-347.62"/>
</a>
</g>
</g>
<!-- Node12&#45;&gt;Node8 -->
<g id="edge13_Node000012_Node000008" class="edge">
<title>Node12&#45;&gt;Node8</title>
<g id="a_edge13_Node000012_Node000008"><a xlink:title=" ">
<path fill="none" stroke="#63b8ff" d="M273.36,-318.87C275,-312.03 277.36,-302.14 279.56,-292.97"/>
<polygon fill="#63b8ff" stroke="#63b8ff" points="282.99,-293.65 281.92,-283.11 276.18,-292.03 282.99,-293.65"/>
</a>
</g>
</g>
<!-- Node13 -->
<g id="Node000013" class="node">
<title>Node13</title>
<g id="a_Node000013"><a xlink:title=" ">
<polygon fill="#e0e0e0" stroke="#999999" points="438.29,-277.5 376.29,-277.5 376.29,-258.5 438.29,-258.5 438.29,-277.5"/>
<text text-anchor="middle" x="407.29" y="-265.5" font-family="Helvetica,sans-Serif" font-size="10.00">coroutine</text>
</a>
</g>
</g>
<!-- Node12&#45;&gt;Node13 -->
<g id="edge12_Node000012_Node000013" class="edge">
<title>Node12&#45;&gt;Node13</title>
<g id="a_edge12_Node000012_Node000013"><a xlink:title=" ">
<path fill="none" stroke="#63b8ff" d="M291.07,-318.99C313.93,-309.16 351.78,-292.88 378.05,-281.58"/>
<polygon fill="#63b8ff" stroke="#63b8ff" points="379.69,-284.68 387.49,-277.52 376.93,-278.25 379.69,-284.68"/>
</a>
</g>
</g>
<!-- Node15 -->
<g id="Node000015" class="node">
<title>Node15</title>
<g id="a_Node000015"><a xlink:href="BufferProcessor_8hpp.html" target="_top" xlink:title=" ">
<polygon fill="white" stroke="#666666" points="518.29,-464.5 316.29,-464.5 316.29,-445.5 518.29,-445.5 518.29,-464.5"/>
<text text-anchor="middle" x="417.29" y="-452.5" font-family="Helvetica,sans-Serif" font-size="10.00">MayaFlux/Buffers/BufferProcessor.hpp</text>
</a>
</g>
</g>
<!-- Node14&#45;&gt;Node15 -->
<g id="edge15_Node000014_Node000015" class="edge">
<title>Node14&#45;&gt;Node15</title>
<g id="a_edge15_Node000014_Node000015"><a xlink:title=" ">
<path fill="none" stroke="#63b8ff" d="M588.23,-505.95C548.64,-494.38 493.21,-478.18 456.32,-467.41"/>
<polygon fill="#63b8ff" stroke="#63b8ff" points="457.02,-463.96 446.44,-464.52 455.06,-470.68 457.02,-463.96"/>
</a>
</g>
</g>
<!-- Node18 -->
<g id="Node000018" class="node">
<title>Node18</title>
<g id="a_Node000018"><a xlink:href="CursorAccessProcessor_8hpp.html" target="_top" xlink:title=" ">
<polygon fill="white" stroke="#666666" points="701.79,-470 536.79,-470 536.79,-440 701.79,-440 701.79,-470"/>
<text text-anchor="start" x="544.79" y="-458" font-family="Helvetica,sans-Serif" font-size="10.00">MayaFlux/Kakshya/Processors</text>
<text text-anchor="middle" x="619.29" y="-447" font-family="Helvetica,sans-Serif" font-size="10.00">/CursorAccessProcessor.hpp</text>
</a>
</g>
</g>
<!-- Node14&#45;&gt;Node18 -->
<g id="edge20_Node000014_Node000018" class="edge">
<title>Node14&#45;&gt;Node18</title>
<g id="a_edge20_Node000014_Node000018"><a xlink:title=" ">
<path fill="none" stroke="#63b8ff" d="M632.52,-505.8C630.5,-498.17 627.95,-488.57 625.63,-479.84"/>
<polygon fill="#63b8ff" stroke="#63b8ff" points="629.01,-478.93 623.06,-470.16 622.24,-480.73 629.01,-478.93"/>
</a>
</g>
</g>
<!-- Node14&#45;&gt;Node21 -->
<g id="edge24_Node000014_Node000021" class="edge">
<title>Node14&#45;&gt;Node21</title>
<g id="a_edge24_Node000014_Node000021"><a xlink:title=" ">
<path fill="none" stroke="#63b8ff" d="M670.75,-505.95C693.86,-496.53 724.5,-484.04 749.36,-473.91"/>
<polygon fill="#63b8ff" stroke="#63b8ff" points="750.98,-477.03 758.92,-470.01 748.34,-470.55 750.98,-477.03"/>
</a>
</g>
</g>
<!-- Node16 -->
<g id="Node000016" class="node">
<title>Node16</title>
<g id="a_Node000016"><a xlink:href="BufferUtils_8hpp.html" target="_top" xlink:title=" ">
<polygon fill="white" stroke="#666666" points="416.79,-338 327.79,-338 327.79,-319 416.79,-319 416.79,-338"/>
<text text-anchor="middle" x="372.29" y="-326" font-family="Helvetica,sans-Serif" font-size="10.00">BufferUtils.hpp</text>
</a>
</g>
</g>
<!-- Node15&#45;&gt;Node16 -->
<g id="edge16_Node000015_Node000016" class="edge">
<title>Node15&#45;&gt;Node16</title>
<g id="a_edge16_Node000015_Node000016"><a xlink:title=" ">
<path fill="none" stroke="#63b8ff" d="M408,-445.45C398.66,-436.23 384.77,-420.62 378.29,-404 371.31,-386.08 370.41,-363.94 370.88,-348.47"/>
<polygon fill="#63b8ff" stroke="#63b8ff" points="374.39,-348.29 371.43,-338.12 367.4,-347.92 374.39,-348.29"/>
</a>
</g>
</g>
<!-- Node16&#45;&gt;Node8 -->
<g id="edge17_Node000016_Node000008" class="edge">
<title>Node16&#45;&gt;Node8</title>
<g id="a_edge17_Node000016_Node000008"><a xlink:title=" ">
<path fill="none" stroke="#63b8ff" d="M359.46,-318.87C347.76,-311 330.05,-299.09 314.87,-288.89"/>
<polygon fill="#63b8ff" stroke="#63b8ff" points="316.54,-285.79 306.29,-283.11 312.63,-291.6 316.54,-285.79"/>
</a>
</g>
</g>
<!-- Node17 -->
<g id="Node000017" class="node">
<title>Node17</title>
<g id="a_Node000017"><a xlink:href="VertexLayout_8hpp.html" target="_top" xlink:title=" ">
<polygon fill="white" stroke="#666666" points="560.79,-217 409.79,-217 409.79,-187 560.79,-187 560.79,-217"/>
<text text-anchor="start" x="417.79" y="-205" font-family="Helvetica,sans-Serif" font-size="10.00">MayaFlux/Kakshya/NDData</text>
<text text-anchor="middle" x="485.29" y="-194" font-family="Helvetica,sans-Serif" font-size="10.00">/VertexLayout.hpp</text>
</a>
</g>
</g>
<!-- Node16&#45;&gt;Node17 -->
<g id="edge18_Node000016_Node000017" class="edge">
<title>Node16&#45;&gt;Node17</title>
<g id="a_edge18_Node000016_Node000017"><a xlink:title=" ">
<path fill="none" stroke="#63b8ff" d="M393.69,-318.96C410.1,-311.51 432.4,-299.33 447.29,-283 461.97,-266.91 472.03,-244.14 478.1,-227.01"/>
<polygon fill="#63b8ff" stroke="#63b8ff" points="481.54,-227.77 481.37,-217.18 474.89,-225.56 481.54,-227.77"/>
</a>
</g>
</g>
<!-- Node17&#45;&gt;Node5 -->
<g id="edge19_Node000017_Node000005" class="edge">
<title>Node17&#45;&gt;Node5</title>
<g id="a_edge19_Node000017_Node000005"><a xlink:title=" ">
<path fill="none" stroke="#63b8ff" d="M489.54,-186.94C494.74,-170.58 504.37,-143 516.29,-121 521.44,-111.51 528.13,-101.73 534.34,-93.36"/>
<polygon fill="#63b8ff" stroke="#63b8ff" points="537.26,-95.3 540.55,-85.23 531.7,-91.05 537.26,-95.3"/>
</a>
</g>
</g>
<!-- Node19 -->
<g id="Node000019" class="node">
<title>Node19</title>
<g id="a_Node000019"><a xlink:href="DataProcessor_8hpp.html" target="_top" xlink:title=" ">
<polygon fill="white" stroke="#666666" points="590.79,-398.5 387.79,-398.5 387.79,-379.5 590.79,-379.5 590.79,-398.5"/>
<text text-anchor="middle" x="489.29" y="-386.5" font-family="Helvetica,sans-Serif" font-size="10.00">MayaFlux/Kakshya/DataProcessor.hpp</text>
</a>
</g>
</g>
<!-- Node18&#45;&gt;Node19 -->
<g id="edge21_Node000018_Node000019" class="edge">
<title>Node18&#45;&gt;Node19</title>
<g id="a_edge21_Node000018_Node000019"><a xlink:title=" ">
<path fill="none" stroke="#63b8ff" d="M590.77,-439.95C568.37,-428.93 537.43,-413.7 515.62,-402.96"/>
<polygon fill="#63b8ff" stroke="#63b8ff" points="517.11,-399.79 506.59,-398.52 514.02,-406.07 517.11,-399.79"/>
</a>
</g>
</g>
<!-- Node20 -->
<g id="Node000020" class="node">
<title>Node20</title>
<g id="a_Node000020"><a xlink:href="NDimensionalContainer_8hpp.html" target="_top" xlink:title=" ">
<polygon fill="white" stroke="#666666" points="707.29,-151 525.29,-151 525.29,-121 707.29,-121 707.29,-151"/>
<text text-anchor="start" x="533.29" y="-139" font-family="Helvetica,sans-Serif" font-size="10.00">MayaFlux/Kakshya/NDimensional</text>
<text text-anchor="middle" x="616.29" y="-128" font-family="Helvetica,sans-Serif" font-size="10.00">Container.hpp</text>
</a>
</g>
</g>
<!-- Node18&#45;&gt;Node20 -->
<g id="edge22_Node000018_Node000020" class="edge">
<title>Node18&#45;&gt;Node20</title>
<g id="a_edge22_Node000018_Node000020"><a xlink:title=" ">
<path fill="none" stroke="#63b8ff" d="M619.16,-439.97C618.69,-390.57 617.12,-224.31 616.52,-161.39"/>
<polygon fill="#63b8ff" stroke="#63b8ff" points="620.02,-161.19 616.43,-151.23 613.02,-161.26 620.02,-161.19"/>
</a>
</g>
</g>
<!-- Node20&#45;&gt;Node5 -->
<g id="edge23_Node000020_Node000005" class="edge">
<title>Node20&#45;&gt;Node5</title>
<g id="a_edge23_Node000020_Node000005"><a xlink:title=" ">
<path fill="none" stroke="#63b8ff" d="M602.09,-120.8C593.72,-112.43 582.97,-101.68 573.6,-92.31"/>
<polygon fill="#63b8ff" stroke="#63b8ff" points="576,-89.76 566.46,-85.16 571.05,-94.71 576,-89.76"/>
</a>
</g>
</g>
<!-- Node22 -->
<g id="Node000022" class="node">
<title>Node22</title>
<g id="a_Node000022"><a xlink:href="Region_8hpp.html" target="_top" xlink:title=" ">
<polygon fill="white" stroke="#666666" points="1024.29,-217 878.29,-217 878.29,-187 1024.29,-187 1024.29,-217"/>
<text text-anchor="start" x="886.29" y="-205" font-family="Helvetica,sans-Serif" font-size="10.00">MayaFlux/Kakshya/Region</text>
<text text-anchor="middle" x="951.29" y="-194" font-family="Helvetica,sans-Serif" font-size="10.00">/Region.hpp</text>
</a>
</g>
</g>
<!-- Node21&#45;&gt;Node22 -->
<g id="edge25_Node000021_Node000022" class="edge">
<title>Node21&#45;&gt;Node22</title>
<g id="a_edge25_Node000021_Node000022"><a xlink:title=" ">
<path fill="none" stroke="#63b8ff" d="M832.5,-439.97C889.37,-417.17 992.43,-366.1 1033.29,-283 1039.18,-271.04 1039.82,-264.63 1033.29,-253 1025.87,-239.77 1013.36,-229.63 1000.32,-222.05"/>
<polygon fill="#63b8ff" stroke="#63b8ff" points="1001.73,-218.84 991.26,-217.21 998.43,-225.01 1001.73,-218.84"/>
</a>
</g>
</g>
<!-- Node23 -->
<g id="Node000023" class="node">
<title>Node23</title>
<g id="a_Node000023"><a xlink:href="DynamicSoundStream_8hpp.html" target="_top" xlink:title=" ">
<polygon fill="white" stroke="#666666" points="867.79,-404 718.79,-404 718.79,-374 867.79,-374 867.79,-404"/>
<text text-anchor="start" x="726.79" y="-392" font-family="Helvetica,sans-Serif" font-size="10.00">MayaFlux/Kakshya/Source</text>
<text text-anchor="middle" x="793.29" y="-381" font-family="Helvetica,sans-Serif" font-size="10.00">/DynamicSoundStream.hpp</text>
</a>
</g>
</g>
<!-- Node21&#45;&gt;Node23 -->
<g id="edge27_Node000021_Node000023" class="edge">
<title>Node21&#45;&gt;Node23</title>
<g id="a_edge27_Node000021_Node000023"><a xlink:title=" ">
<path fill="none" stroke="#63b8ff" d="M793.29,-439.8C793.29,-432.34 793.29,-422.99 793.29,-414.41"/>
<polygon fill="#63b8ff" stroke="#63b8ff" points="796.79,-414.16 793.29,-404.16 789.79,-414.16 796.79,-414.16"/>
</a>
</g>
</g>
<!-- Node22&#45;&gt;Node5 -->
<g id="edge26_Node000022_Node000005" class="edge">
<title>Node22&#45;&gt;Node5</title>
<g id="a_edge26_Node000022_Node000005"><a xlink:title=" ">
<path fill="none" stroke="#63b8ff" d="M911.09,-186.87C864.4,-170.57 785,-143.16 716.29,-121 681.02,-109.62 641.26,-97.48 609.72,-88.01"/>
<polygon fill="#63b8ff" stroke="#63b8ff" points="610.37,-84.56 599.79,-85.04 608.36,-91.26 610.37,-84.56"/>
</a>
</g>
</g>
<!-- Node24 -->
<g id="Node000024" class="node">
<title>Node24</title>
<g id="a_Node000024"><a xlink:href="SoundStreamContainer_8hpp.html" target="_top" xlink:title=" ">
<polygon fill="white" stroke="#666666" points="867.79,-338 718.79,-338 718.79,-319 867.79,-319 867.79,-338"/>
<text text-anchor="middle" x="793.29" y="-326" font-family="Helvetica,sans-Serif" font-size="10.00">SoundStreamContainer.hpp</text>
</a>
</g>
</g>
<!-- Node23&#45;&gt;Node24 -->
<g id="edge28_Node000023_Node000024" class="edge">
<title>Node23&#45;&gt;Node24</title>
<g id="a_edge28_Node000023_Node000024"><a xlink:title=" ">
<path fill="none" stroke="#63b8ff" d="M793.29,-373.84C793.29,-366.21 793.29,-356.7 793.29,-348.45"/>
<polygon fill="#63b8ff" stroke="#63b8ff" points="796.79,-348.27 793.29,-338.27 789.79,-348.27 796.79,-348.27"/>
</a>
</g>
</g>
<!-- Node25 -->
<g id="Node000025" class="node">
<title>Node25</title>
<g id="a_Node000025"><a xlink:href="RegionGroup_8hpp.html" target="_top" xlink:title=" ">
<polygon fill="white" stroke="#666666" points="1024.29,-283 878.29,-283 878.29,-253 1024.29,-253 1024.29,-283"/>
<text text-anchor="start" x="886.29" y="-271" font-family="Helvetica,sans-Serif" font-size="10.00">MayaFlux/Kakshya/Region</text>
<text text-anchor="middle" x="951.29" y="-260" font-family="Helvetica,sans-Serif" font-size="10.00">/RegionGroup.hpp</text>
</a>
</g>
</g>
<!-- Node24&#45;&gt;Node25 -->
<g id="edge29_Node000024_Node000025" class="edge">
<title>Node24&#45;&gt;Node25</title>
<g id="a_edge29_Node000024_Node000025"><a xlink:title=" ">
<path fill="none" stroke="#63b8ff" d="M816.27,-318.99C839.11,-310.54 874.81,-297.32 903.77,-286.59"/>
<polygon fill="#63b8ff" stroke="#63b8ff" points="905.15,-289.82 913.31,-283.06 902.72,-283.25 905.15,-289.82"/>
</a>
</g>
</g>
<!-- Node26 -->
<g id="Node000026" class="node">
<title>Node26</title>
<g id="a_Node000026"><a xlink:href="StreamContainer_8hpp.html" target="_top" xlink:title=" ">
<polygon fill="white" stroke="#666666" points="859.79,-277.5 644.79,-277.5 644.79,-258.5 859.79,-258.5 859.79,-277.5"/>
<text text-anchor="middle" x="752.29" y="-265.5" font-family="Helvetica,sans-Serif" font-size="10.00">MayaFlux/Kakshya/StreamContainer.hpp</text>
</a>
</g>
</g>
<!-- Node24&#45;&gt;Node26 -->
<g id="edge31_Node000024_Node000026" class="edge">
<title>Node24&#45;&gt;Node26</title>
<g id="a_edge31_Node000024_Node000026"><a xlink:title=" ">
<path fill="none" stroke="#63b8ff" d="M787.24,-318.87C781.19,-310.23 771.71,-296.7 764.15,-285.92"/>
<polygon fill="#63b8ff" stroke="#63b8ff" points="766.97,-283.85 758.37,-277.67 761.24,-287.87 766.97,-283.85"/>
</a>
</g>
</g>
<!-- Node25&#45;&gt;Node22 -->
<g id="edge30_Node000025_Node000022" class="edge">
<title>Node25&#45;&gt;Node22</title>
<g id="a_edge30_Node000025_Node000022"><a xlink:title=" ">
<path fill="none" stroke="#63b8ff" d="M951.29,-252.8C951.29,-245.34 951.29,-235.99 951.29,-227.41"/>
<polygon fill="#63b8ff" stroke="#63b8ff" points="954.79,-227.16 951.29,-217.16 947.79,-227.16 954.79,-227.16"/>
</a>
</g>
</g>
<!-- Node27 -->
<g id="Node000027" class="node">
<title>Node27</title>
<g id="a_Node000027"><a xlink:href="SignalSourceContainer_8hpp.html" target="_top" xlink:title=" ">
<polygon fill="white" stroke="#666666" points="808.79,-211.5 661.79,-211.5 661.79,-192.5 808.79,-192.5 808.79,-211.5"/>
<text text-anchor="middle" x="735.29" y="-199.5" font-family="Helvetica,sans-Serif" font-size="10.00">SignalSourceContainer.hpp</text>
</a>
</g>
</g>
<!-- Node26&#45;&gt;Node27 -->
<g id="edge32_Node000026_Node000027" class="edge">
<title>Node26&#45;&gt;Node27</title>
<g id="a_edge32_Node000026_Node000027"><a xlink:title=" ">
<path fill="none" stroke="#63b8ff" d="M750,-258.37C747.53,-249.07 743.52,-233.98 740.31,-221.9"/>
<polygon fill="#63b8ff" stroke="#63b8ff" points="743.61,-220.67 737.66,-211.91 736.84,-222.47 743.61,-220.67"/>
</a>
</g>
</g>
<!-- Node27&#45;&gt;Node20 -->
<g id="edge33_Node000027_Node000020" class="edge">
<title>Node27&#45;&gt;Node20</title>
<g id="a_edge33_Node000027_Node000020"><a xlink:title=" ">
<path fill="none" stroke="#63b8ff" d="M719.25,-192.37C701.96,-183.07 673.92,-167.99 651.46,-155.91"/>
<polygon fill="#63b8ff" stroke="#63b8ff" points="653.01,-152.77 642.54,-151.12 649.69,-158.93 653.01,-152.77"/>
</a>
</g>
</g>
<!-- Node29 -->
<g id="Node000029" class="node">
<title>Node29</title>
<g id="a_Node000029"><a xlink:href="Format_8hpp.html" target="_top" xlink:title=" ">
<polygon fill="white" stroke="#666666" points="1401.29,-464.5 1329.29,-464.5 1329.29,-445.5 1401.29,-445.5 1401.29,-464.5"/>
<text text-anchor="middle" x="1365.29" y="-452.5" font-family="Helvetica,sans-Serif" font-size="10.00">Format.hpp</text>
</a>
</g>
</g>
<!-- Node28&#45;&gt;Node29 -->
<g id="edge36_Node000028_Node000029" class="edge">
<title>Node28&#45;&gt;Node29</title>
<g id="a_edge36_Node000028_Node000029"><a xlink:title=" ">
<path fill="none" stroke="#63b8ff" d="M1277.05,-511.37C1293.93,-500.78 1322.79,-482.67 1342.89,-470.06"/>
<polygon fill="#63b8ff" stroke="#63b8ff" points="1344.82,-472.98 1351.43,-464.7 1341.1,-467.05 1344.82,-472.98"/>
</a>
</g>
</g>
<!-- Node30 -->
<g id="Node000030" class="node">
<title>Node30</title>
<g id="a_Node000030"><a xlink:href="JournalEntry_8hpp.html" target="_top" xlink:title=" ">
<polygon fill="white" stroke="#666666" points="1310.79,-464.5 1215.79,-464.5 1215.79,-445.5 1310.79,-445.5 1310.79,-464.5"/>
<text text-anchor="middle" x="1263.29" y="-452.5" font-family="Helvetica,sans-Serif" font-size="10.00">JournalEntry.hpp</text>
</a>
</g>
</g>
<!-- Node28&#45;&gt;Node30 -->
<g id="edge37_Node000028_Node000030" class="edge">
<title>Node28&#45;&gt;Node30</title>
<g id="a_edge37_Node000028_Node000030"><a xlink:title=" ">
<path fill="none" stroke="#63b8ff" d="M1263.29,-511.37C1263.29,-502.16 1263.29,-487.29 1263.29,-475.27"/>
<polygon fill="#63b8ff" stroke="#63b8ff" points="1266.79,-474.91 1263.29,-464.91 1259.79,-474.91 1266.79,-474.91"/>
</a>
</g>
</g>
<!-- Node31 -->
<g id="Node000031" class="node">
<title>Node31</title>
<g id="a_Node000031"><a xlink:href="EnumReflect_8hpp.html" target="_top" xlink:title=" ">
<polygon fill="white" stroke="#666666" points="1219.79,-404 1080.79,-404 1080.79,-374 1219.79,-374 1219.79,-404"/>
<text text-anchor="start" x="1088.79" y="-392" font-family="Helvetica,sans-Serif" font-size="10.00">MayaFlux/Transitive</text>
<text text-anchor="middle" x="1150.29" y="-381" font-family="Helvetica,sans-Serif" font-size="10.00">/Reflect/EnumReflect.hpp</text>
</a>
</g>
</g>
<!-- Node30&#45;&gt;Node31 -->
<g id="edge38_Node000030_Node000031" class="edge">
<title>Node30&#45;&gt;Node31</title>
<g id="a_edge38_Node000030_Node000031"><a xlink:title=" ">
<path fill="none" stroke="#63b8ff" d="M1248.05,-445.37C1231.71,-436.11 1205.25,-421.12 1183.97,-409.07"/>
<polygon fill="#63b8ff" stroke="#63b8ff" points="1185.64,-406 1175.22,-404.12 1182.19,-412.09 1185.64,-406"/>
</a>
</g>
</g>
<!-- Node32 -->
<g id="Node000032" class="node">
<title>Node32</title>
<g id="a_Node000032"><a xlink:title=" ">
<polygon fill="#e0e0e0" stroke="#999999" points="1288.29,-398.5 1238.29,-398.5 1238.29,-379.5 1288.29,-379.5 1288.29,-398.5"/>
<text text-anchor="middle" x="1263.29" y="-386.5" font-family="Helvetica,sans-Serif" font-size="10.00">chrono</text>
</a>
</g>
</g>
<!-- Node30&#45;&gt;Node32 -->
<g id="edge39_Node000030_Node000032" class="edge">
<title>Node30&#45;&gt;Node32</title>
<g id="a_edge39_Node000030_Node000032"><a xlink:title=" ">
<path fill="none" stroke="#63b8ff" d="M1263.29,-445.37C1263.29,-436.16 1263.29,-421.29 1263.29,-409.27"/>
<polygon fill="#63b8ff" stroke="#63b8ff" points="1266.79,-408.91 1263.29,-398.91 1259.79,-408.91 1266.79,-408.91"/>
</a>
</g>
</g>
<!-- Node33 -->
<g id="Node000033" class="node">
<title>Node33</title>
<g id="a_Node000033"><a xlink:title=" ">
<polygon fill="#e0e0e0" stroke="#999999" points="1399.79,-398.5 1306.79,-398.5 1306.79,-379.5 1399.79,-379.5 1399.79,-398.5"/>
<text text-anchor="middle" x="1353.29" y="-386.5" font-family="Helvetica,sans-Serif" font-size="10.00">source_location</text>
</a>
</g>
</g>
<!-- Node30&#45;&gt;Node33 -->
<g id="edge40_Node000030_Node000033" class="edge">
<title>Node30&#45;&gt;Node33</title>
<g id="a_edge40_Node000030_Node000033"><a xlink:title=" ">
<path fill="none" stroke="#63b8ff" d="M1275.43,-445.37C1290.06,-434.97 1314.87,-417.32 1332.56,-404.75"/>
<polygon fill="#63b8ff" stroke="#63b8ff" points="1334.94,-407.35 1341.06,-398.7 1330.88,-401.64 1334.94,-407.35"/>
</a>
</g>
</g>
<!-- Node34 -->
<g id="Node000034" class="node">
<title>Node34</title>
<g id="a_Node000034"><a xlink:title=" ">
<polygon fill="#e0e0e0" stroke="#999999" points="1490.79,-398.5 1417.79,-398.5 1417.79,-379.5 1490.79,-379.5 1490.79,-398.5"/>
<text text-anchor="middle" x="1454.29" y="-386.5" font-family="Helvetica,sans-Serif" font-size="10.00">string_view</text>
</a>
</g>
</g>
<!-- Node30&#45;&gt;Node34 -->
<g id="edge41_Node000030_Node000034" class="edge">
<title>Node30&#45;&gt;Node34</title>
<g id="a_edge41_Node000030_Node000034"><a xlink:title=" ">
<path fill="none" stroke="#63b8ff" d="M1289.05,-445.37C1322.61,-434.12 1381.43,-414.42 1419.08,-401.8"/>
<polygon fill="#63b8ff" stroke="#63b8ff" points="1420.27,-405.09 1428.64,-398.6 1418.04,-398.46 1420.27,-405.09"/>
</a>
</g>
</g>
</g>
</svg>

<g id="navigator" transform="translate(0 0)" fill="#404254">
  <rect fill="#f2f5e9" fill-opacity="0.5" stroke="#606060" stroke-width=".5" x="0" y="0" width="60" height="60"/>
  <use id="zoomplus" xlink:href="#zoomPlus" x="17" y="9" onmousedown="handleZoom(evt,'in')"/>
  <use id="zoomminus" xlink:href="#zoomMin" x="42" y="9" onmousedown="handleZoom(evt,'out')"/>
  <use id="reset" xlink:href="#resetDef" x="30" y="36" onmousedown="handleReset()"/>
   <use id="arrowup" xlink:href="#arrowUp" x="0" y="0" onmousedown="handlePan(0,-1)"/>
  <use id="arrowright" xlink:href="#arrowRight" x="0" y="0" onmousedown="handlePan(1,0)"/>
  <use id="arrowdown" xlink:href="#arrowDown" x="0" y="0" onmousedown="handlePan(0,1)"/>
  <use id="arrowleft" xlink:href="#arrowLeft" x="0" y="0" onmousedown="handlePan(-1,0)"/>
</g>
<svg viewBox="0 0 15 15" width="100%" height="30px" preserveAspectRatio="xMaxYMin meet">
 <g id="arrow_out" transform="scale(0.3 0.3)">
  <a xlink:href="SamplingPipeline_8hpp__incl_org.svg" target="_base">
   <rect id="button" ry="5" rx="5" y="6" x="6" height="38" width="38"
        fill="#f2f5e9" fill-opacity="0.5" stroke="#606060" stroke-width="1.0"/>
   <path id="arrow"
     d="M 11.500037,31.436501 C 11.940474,20.09759 22.043105,11.32322 32.158766,21.979434 L 37.068811,17.246167 C 37.068811,17.246167 37.088388,32 37.088388,32 L 22.160133,31.978069 C 22.160133,31.978069 26.997745,27.140456 26.997745,27.140456 C 18.528582,18.264221 13.291696,25.230495 11.500037,31.436501 z"
     style="fill:#404040;"/>
  </a>
 </g>
</svg>

<style type='text/css'>
<![CDATA[
[data-mouse-over-selected='false'] { opacity: 0.7; }
[data-mouse-over-selected='true']  { opacity: 1.0; }
]]>
</style>
<script type="application/ecmascript"><![CDATA[
document.addEventListener('DOMContentLoaded', (event) => {
  highlightEdges();
  highlightAdjacentNodes();
});
]]></script>
</svg>
