<?xml version="1.0" encoding="UTF-8" standalone="no"?>
<!DOCTYPE svg PUBLIC "-//W3C//DTD SVG 1.1//EN"
 "http://www.w3.org/Graphics/SVG/1.1/DTD/svg11.dtd">
<!-- Generated by graphviz version 2.43.0 (0)
 -->
<!-- Title: Scheduler.hpp Pages: 1 -->
<!--zoomable 192 -->

<svg id="main" version="1.1" xmlns="http://www.w3.org/2000/svg" xmlns:xlink="http://www.w3.org/1999/xlink" xml:space="preserve" onload="init(evt)">
<style type="text/css"><![CDATA[
.node, .edge {opacity: 0.7;}
.node.selected, .edge.selected {opacity: 1;}
.edge:hover path { stroke: red; }
.edge:hover polygon { stroke: red; fill: red; }
]]></style>

<defs>
  <circle id="rim" cx="0" cy="0" r="7"/>
  <circle id="rim2" cx="0" cy="0" r="3.5"/>
  <g id="zoomPlus">
    <use xlink:href="#rim" fill="#404040"><set attributeName="fill" to="#808080" begin="zoomplus.mouseover" end="zoomplus.mouseout"/></use>
    <path d="M-4,0h8M0,-4v8" fill="none" stroke="white" stroke-width="1.5" pointer-events="none"/>
  </g>
  <g id="zoomMin">
    <use xlink:href="#rim" fill="#404040"><set attributeName="fill" to="#808080" begin="zoomminus.mouseover" end="zoomminus.mouseout"/></use>
    <path d="M-4,0h8" fill="none" stroke="white" stroke-width="1.5" pointer-events="none"/>
  </g>
  <g id="arrowUp" transform="translate(30 24)">
    <use xlink:href="#rim"/>
    <path pointer-events="none" fill="none" stroke="white" stroke-width="1.5" d="M0,-3.0v7 M-2.5,-0.5L0,-3.0L2.5,-0.5"/>
  </g>
  <g id="arrowRight" transform="rotate(90) translate(36 -43)">
    <use xlink:href="#rim"/>
    <path pointer-events="none" fill="none" stroke="white" stroke-width="1.5" d="M0,-3.0v7 M-2.5,-0.5L0,-3.0L2.5,-0.5"/>
  </g>
  <g id="arrowDown" transform="rotate(180) translate(-30 -48)">
    <use xlink:href="#rim"/>
    <path pointer-events="none" fill="none" stroke="white" stroke-width="1.5" d="M0,-3.0v7 M-2.5,-0.5L0,-3.0L2.5,-0.5"/>
  </g>
  <g id="arrowLeft" transform="rotate(270) translate(-36 17)">
    <use xlink:href="#rim"/>
    <path pointer-events="none" fill="none" stroke="white" stroke-width="1.5" d="M0,-3.0v7 M-2.5,-0.5L0,-3.0L2.5,-0.5"/>
  </g>
  <g id="resetDef">
    <use xlink:href="#rim2" fill="#404040"><set attributeName="fill" to="#808080" begin="reset.mouseover" end="reset.mouseout"/></use>
  </g>
</defs>
<script type="application/ecmascript">
var viewWidth = 1379;
var viewHeight = 192;
var sectionId = 'dynsection-1';
</script>
<script type="application/ecmascript" xlink:href="svg.min.js"/>
<svg id="graph" class="graph">
<g id="viewport">
<title>Scheduler.hpp</title>
<!-- Node1 -->
<g id="Node000001" class="node">
<title>Node1</title>
<g id="a_Node000001"><a xlink:title=" ">
<polygon fill="#999999" stroke="#666666" points="714,-184 629,-184 629,-165 714,-165 714,-184"/>
<text text-anchor="middle" x="671.5" y="-172" font-family="Helvetica,sans-Serif" font-size="10.00">Scheduler.hpp</text>
</a>
</g>
</g>
<!-- Node2 -->
<g id="Node000002" class="node">
<title>Node2</title>
<g id="a_Node000002"><a xlink:href="Bridge_8cpp.html" target="_top" xlink:title=" ">
<polygon fill="white" stroke="#666666" points="104.5,-129 36.5,-129 36.5,-110 104.5,-110 104.5,-129"/>
<text text-anchor="middle" x="70.5" y="-117" font-family="Helvetica,sans-Serif" font-size="10.00">Bridge.cpp</text>
</a>
</g>
</g>
<!-- Node1&#45;&gt;Node2 -->
<g id="edge1_Node000001_Node000002" class="edge">
<title>Node1&#45;&gt;Node2</title>
<g id="a_edge1_Node000001_Node000002"><a xlink:title=" ">
<path fill="none" stroke="#63b8ff" d="M618.9,-171.33C519.69,-166.8 298.29,-154.55 113.5,-129 110.64,-128.6 107.67,-128.14 104.71,-127.63"/>
<polygon fill="#63b8ff" stroke="#63b8ff" points="618.82,-174.83 628.97,-171.79 619.14,-167.84 618.82,-174.83"/>
</a>
</g>
</g>
<!-- Node3 -->
<g id="Node000003" class="node">
<title>Node3</title>
<g id="a_Node000003"><a xlink:href="BufferPipeline_8hpp.html" target="_top" xlink:title=" ">
<polygon fill="white" stroke="#666666" points="368.5,-129 262.5,-129 262.5,-110 368.5,-110 368.5,-129"/>
<text text-anchor="middle" x="315.5" y="-117" font-family="Helvetica,sans-Serif" font-size="10.00">BufferPipeline.hpp</text>
</a>
</g>
</g>
<!-- Node1&#45;&gt;Node3 -->
<g id="edge2_Node000001_Node000003" class="edge">
<title>Node1&#45;&gt;Node3</title>
<g id="a_edge2_Node000001_Node000003"><a xlink:title=" ">
<path fill="none" stroke="#63b8ff" d="M618.96,-165.68C551.75,-155.67 436.01,-138.44 368.55,-128.4"/>
<polygon fill="#63b8ff" stroke="#63b8ff" points="618.51,-169.15 628.91,-167.16 619.54,-162.23 618.51,-169.15"/>
</a>
</g>
</g>
<!-- Node5 -->
<g id="Node000005" class="node">
<title>Node5</title>
<g id="a_Node000005"><a xlink:href="Chronie_8cpp.html" target="_top" xlink:title=" ">
<polygon fill="white" stroke="#666666" points="475.5,-74 401.5,-74 401.5,-55 475.5,-55 475.5,-74"/>
<text text-anchor="middle" x="438.5" y="-62" font-family="Helvetica,sans-Serif" font-size="10.00">Chronie.cpp</text>
</a>
</g>
</g>
<!-- Node1&#45;&gt;Node5 -->
<g id="edge10_Node000001_Node000005" class="edge">
<title>Node1&#45;&gt;Node5</title>
<g id="a_edge10_Node000001_Node000005"><a xlink:title=" ">
<path fill="none" stroke="#63b8ff" d="M618.55,-171.99C551.54,-168.83 441.79,-159.08 416.5,-129 402.84,-112.75 419.72,-87.51 430.62,-74.28"/>
<polygon fill="#63b8ff" stroke="#63b8ff" points="618.77,-175.5 628.91,-172.44 619.08,-168.51 618.77,-175.5"/>
</a>
</g>
</g>
<!-- Node10 -->
<g id="Node000010" class="node">
<title>Node10</title>
<g id="a_Node000010"><a xlink:href="Chain_8cpp.html" target="_top" xlink:title=" ">
<polygon fill="white" stroke="#666666" points="490,-129 425,-129 425,-110 490,-110 490,-129"/>
<text text-anchor="middle" x="457.5" y="-117" font-family="Helvetica,sans-Serif" font-size="10.00">Chain.cpp</text>
</a>
</g>
</g>
<!-- Node1&#45;&gt;Node10 -->
<g id="edge9_Node000001_Node000010" class="edge">
<title>Node1&#45;&gt;Node10</title>
<g id="a_edge9_Node000001_Node000010"><a xlink:title=" ">
<path fill="none" stroke="#63b8ff" d="M627.16,-162.52C586.31,-152.4 526.65,-137.63 490.04,-128.56"/>
<polygon fill="#63b8ff" stroke="#63b8ff" points="626.57,-165.98 637.12,-164.98 628.25,-159.18 626.57,-165.98"/>
</a>
</g>
</g>
<!-- Node11 -->
<g id="Node000011" class="node">
<title>Node11</title>
<g id="a_Node000011"><a xlink:href="CycleCoordinator_8hpp.html" target="_top" xlink:title=" ">
<polygon fill="white" stroke="#666666" points="244,-129 123,-129 123,-110 244,-110 244,-129"/>
<text text-anchor="middle" x="183.5" y="-117" font-family="Helvetica,sans-Serif" font-size="10.00">CycleCoordinator.hpp</text>
</a>
</g>
</g>
<!-- Node1&#45;&gt;Node11 -->
<g id="edge11_Node000001_Node000011" class="edge">
<title>Node1&#45;&gt;Node11</title>
<g id="a_edge11_Node000001_Node000011"><a xlink:title=" ">
<path fill="none" stroke="#63b8ff" d="M618.53,-168.11C539.15,-159.99 384.66,-143.94 253.5,-129 250.46,-128.65 247.34,-128.29 244.2,-127.93"/>
<polygon fill="#63b8ff" stroke="#63b8ff" points="618.45,-171.62 628.75,-169.16 619.16,-164.66 618.45,-171.62"/>
</a>
</g>
</g>
<!-- Node12 -->
<g id="Node000012" class="node">
<title>Node12</title>
<g id="a_Node000012"><a xlink:href="Engine_8cpp.html" target="_top" xlink:title=" ">
<polygon fill="white" stroke="#666666" points="578.5,-129 508.5,-129 508.5,-110 578.5,-110 578.5,-129"/>
<text text-anchor="middle" x="543.5" y="-117" font-family="Helvetica,sans-Serif" font-size="10.00">Engine.cpp</text>
</a>
</g>
</g>
<!-- Node1&#45;&gt;Node12 -->
<g id="edge14_Node000001_Node000012" class="edge">
<title>Node1&#45;&gt;Node12</title>
<g id="a_edge14_Node000001_Node000012"><a xlink:title=" ">
<path fill="none" stroke="#63b8ff" d="M641.38,-161.03C617.71,-151.23 585.35,-137.83 564.44,-129.17"/>
<polygon fill="#63b8ff" stroke="#63b8ff" points="640.36,-164.39 650.93,-164.98 643.03,-157.93 640.36,-164.39"/>
</a>
</g>
</g>
<!-- Node13 -->
<g id="Node000013" class="node">
<title>Node13</title>
<g id="a_Node000013"><a xlink:href="Fabric_8cpp.html" target="_top" xlink:title=" ">
<polygon fill="white" stroke="#666666" points="662,-129 597,-129 597,-110 662,-110 662,-129"/>
<text text-anchor="middle" x="629.5" y="-117" font-family="Helvetica,sans-Serif" font-size="10.00">Fabric.cpp</text>
</a>
</g>
</g>
<!-- Node1&#45;&gt;Node13 -->
<g id="edge15_Node000001_Node000013" class="edge">
<title>Node1&#45;&gt;Node13</title>
<g id="a_edge15_Node000001_Node000013"><a xlink:title=" ">
<path fill="none" stroke="#63b8ff" d="M658.17,-156.67C650.89,-147.5 642.2,-136.52 636.31,-129.09"/>
<polygon fill="#63b8ff" stroke="#63b8ff" points="655.61,-159.08 664.56,-164.75 661.1,-154.74 655.61,-159.08"/>
</a>
</g>
</g>
<!-- Node14 -->
<g id="Node000014" class="node">
<title>Node14</title>
<g id="a_Node000014"><a xlink:href="Forma_8cpp.html" target="_top" xlink:title=" ">
<polygon fill="white" stroke="#666666" points="748.5,-129 680.5,-129 680.5,-110 748.5,-110 748.5,-129"/>
<text text-anchor="middle" x="714.5" y="-117" font-family="Helvetica,sans-Serif" font-size="10.00">Forma.cpp</text>
</a>
</g>
</g>
<!-- Node1&#45;&gt;Node14 -->
<g id="edge16_Node000001_Node000014" class="edge">
<title>Node1&#45;&gt;Node14</title>
<g id="a_edge16_Node000001_Node000014"><a xlink:title=" ">
<path fill="none" stroke="#63b8ff" d="M684.92,-156.96C692.41,-147.72 701.44,-136.6 707.53,-129.09"/>
<polygon fill="#63b8ff" stroke="#63b8ff" points="682.18,-154.78 678.6,-164.75 687.62,-159.19 682.18,-154.78"/>
</a>
</g>
</g>
<!-- Node15 -->
<g id="Node000015" class="node">
<title>Node15</title>
<g id="a_Node000015"><a xlink:href="ProcessingArchitecture_8cpp.html" target="_top" xlink:title=" ">
<polygon fill="white" stroke="#666666" points="915,-129 766,-129 766,-110 915,-110 915,-129"/>
<text text-anchor="middle" x="840.5" y="-117" font-family="Helvetica,sans-Serif" font-size="10.00">ProcessingArchitecture.cpp</text>
</a>
</g>
</g>
<!-- Node1&#45;&gt;Node15 -->
<g id="edge17_Node000001_Node000015" class="edge">
<title>Node1&#45;&gt;Node15</title>
<g id="a_edge17_Node000001_Node000015"><a xlink:title=" ">
<path fill="none" stroke="#63b8ff" d="M708.4,-161.93C739.97,-152.03 784.68,-138.01 813.13,-129.08"/>
<polygon fill="#63b8ff" stroke="#63b8ff" points="707.15,-158.65 698.65,-164.98 709.24,-165.33 707.15,-158.65"/>
</a>
</g>
</g>
<!-- Node16 -->
<g id="Node000016" class="node">
<title>Node16</title>
<g id="a_Node000016"><a xlink:href="Scheduler_8cpp.html" target="_top" xlink:title=" ">
<polygon fill="white" stroke="#666666" points="1016.5,-129 932.5,-129 932.5,-110 1016.5,-110 1016.5,-129"/>
<text text-anchor="middle" x="974.5" y="-117" font-family="Helvetica,sans-Serif" font-size="10.00">Scheduler.cpp</text>
</a>
</g>
</g>
<!-- Node1&#45;&gt;Node16 -->
<g id="edge18_Node000001_Node000016" class="edge">
<title>Node1&#45;&gt;Node16</title>
<g id="a_edge18_Node000001_Node000016"><a xlink:title=" ">
<path fill="none" stroke="#63b8ff" d="M724.16,-164.29C783.28,-153.95 878.04,-137.37 932.44,-127.86"/>
<polygon fill="#63b8ff" stroke="#63b8ff" points="723.52,-160.85 714.27,-166.02 724.72,-167.74 723.52,-160.85"/>
</a>
</g>
</g>
<!-- Node17 -->
<g id="Node000017" class="node">
<title>Node17</title>
<g id="a_Node000017"><a xlink:href="Tapestry_8cpp.html" target="_top" xlink:title=" ">
<polygon fill="white" stroke="#666666" points="1112,-129 1035,-129 1035,-110 1112,-110 1112,-129"/>
<text text-anchor="middle" x="1073.5" y="-117" font-family="Helvetica,sans-Serif" font-size="10.00">Tapestry.cpp</text>
</a>
</g>
</g>
<!-- Node1&#45;&gt;Node17 -->
<g id="edge19_Node000001_Node000017" class="edge">
<title>Node1&#45;&gt;Node17</title>
<g id="a_edge19_Node000001_Node000017"><a xlink:title=" ">
<path fill="none" stroke="#63b8ff" d="M724.32,-167.7C793.6,-159.9 918.89,-145.13 1025.5,-129 1028.51,-128.54 1031.63,-128.05 1034.75,-127.53"/>
<polygon fill="#63b8ff" stroke="#63b8ff" points="723.65,-164.25 714.1,-168.84 724.43,-171.21 723.65,-164.25"/>
</a>
</g>
</g>
<!-- Node18 -->
<g id="Node000018" class="node">
<title>Node18</title>
<g id="a_Node000018"><a xlink:href="Tasks_8cpp.html" target="_top" xlink:title=" ">
<polygon fill="white" stroke="#666666" points="1194.5,-129 1130.5,-129 1130.5,-110 1194.5,-110 1194.5,-129"/>
<text text-anchor="middle" x="1162.5" y="-117" font-family="Helvetica,sans-Serif" font-size="10.00">Tasks.cpp</text>
</a>
</g>
</g>
<!-- Node1&#45;&gt;Node18 -->
<g id="edge20_Node000001_Node000018" class="edge">
<title>Node1&#45;&gt;Node18</title>
<g id="a_edge20_Node000001_Node000018"><a xlink:title=" ">
<path fill="none" stroke="#63b8ff" d="M724.28,-170.1C808.57,-164.26 978.65,-150.81 1121.5,-129 1124.37,-128.56 1127.35,-128.05 1130.33,-127.51"/>
<polygon fill="#63b8ff" stroke="#63b8ff" points="723.92,-166.62 714.19,-170.79 724.4,-173.6 723.92,-166.62"/>
</a>
</g>
</g>
<!-- Node19 -->
<g id="Node000019" class="node">
<title>Node19</title>
<g id="a_Node000019"><a xlink:href="Timers_8cpp.html" target="_top" xlink:title=" ">
<polygon fill="white" stroke="#666666" points="1284,-129 1213,-129 1213,-110 1284,-110 1284,-129"/>
<text text-anchor="middle" x="1248.5" y="-117" font-family="Helvetica,sans-Serif" font-size="10.00">Timers.cpp</text>
</a>
</g>
</g>
<!-- Node1&#45;&gt;Node19 -->
<g id="edge21_Node000001_Node000019" class="edge">
<title>Node1&#45;&gt;Node19</title>
<g id="a_edge21_Node000001_Node000019"><a xlink:title=" ">
<path fill="none" stroke="#63b8ff" d="M724.08,-170.91C819.79,-165.78 1028.72,-152.75 1203.5,-129 1206.49,-128.59 1209.59,-128.12 1212.69,-127.61"/>
<polygon fill="#63b8ff" stroke="#63b8ff" points="723.87,-167.41 714.07,-171.43 724.24,-174.4 723.87,-167.41"/>
</a>
</g>
</g>
<!-- Node20 -->
<g id="Node000020" class="node">
<title>Node20</title>
<g id="a_Node000020"><a xlink:href="Wiring_8cpp.html" target="_top" xlink:title=" ">
<polygon fill="white" stroke="#666666" points="1370.5,-129 1302.5,-129 1302.5,-110 1370.5,-110 1370.5,-129"/>
<text text-anchor="middle" x="1336.5" y="-117" font-family="Helvetica,sans-Serif" font-size="10.00">Wiring.cpp</text>
</a>
</g>
</g>
<!-- Node1&#45;&gt;Node20 -->
<g id="edge22_Node000001_Node000020" class="edge">
<title>Node1&#45;&gt;Node20</title>
<g id="a_edge22_Node000001_Node000020"><a xlink:title=" ">
<path fill="none" stroke="#63b8ff" d="M724.57,-171.92C832.25,-168.22 1083.99,-157.09 1293.5,-129 1296.37,-128.62 1299.33,-128.16 1302.3,-127.66"/>
<polygon fill="#63b8ff" stroke="#63b8ff" points="724.17,-168.43 714.29,-172.26 724.41,-175.42 724.17,-168.43"/>
</a>
</g>
</g>
<!-- Node4 -->
<g id="Node000004" class="node">
<title>Node4</title>
<g id="a_Node000004"><a xlink:href="BufferPipeline_8cpp.html" target="_top" xlink:title=" ">
<polygon fill="white" stroke="#666666" points="105,-74 0,-74 0,-55 105,-55 105,-74"/>
<text text-anchor="middle" x="52.5" y="-62" font-family="Helvetica,sans-Serif" font-size="10.00">BufferPipeline.cpp</text>
</a>
</g>
</g>
<!-- Node3&#45;&gt;Node4 -->
<g id="edge3_Node000003_Node000004" class="edge">
<title>Node3&#45;&gt;Node4</title>
<g id="a_edge3_Node000003_Node000004"><a xlink:title=" ">
<path fill="none" stroke="#63b8ff" d="M263.41,-108C214.11,-98.07 141,-83.33 95.09,-74.08"/>
<polygon fill="#63b8ff" stroke="#63b8ff" points="262.75,-111.44 273.24,-109.98 264.13,-104.58 262.75,-111.44"/>
</a>
</g>
</g>
<!-- Node3&#45;&gt;Node5 -->
<g id="edge4_Node000003_Node000005" class="edge">
<title>Node3&#45;&gt;Node5</title>
<g id="a_edge4_Node000003_Node000005"><a xlink:title=" ">
<path fill="none" stroke="#63b8ff" d="M344.75,-105.9C367.47,-96.11 398.37,-82.79 418.38,-74.17"/>
<polygon fill="#63b8ff" stroke="#63b8ff" points="343.06,-102.81 335.26,-109.98 345.83,-109.24 343.06,-102.81"/>
</a>
</g>
</g>
<!-- Node6 -->
<g id="Node000006" class="node">
<title>Node6</title>
<g id="a_Node000006"><a xlink:href="CycleCoordinator_8cpp.html" target="_top" xlink:title=" ">
<polygon fill="white" stroke="#666666" points="243.5,-74 123.5,-74 123.5,-55 243.5,-55 243.5,-74"/>
<text text-anchor="middle" x="183.5" y="-62" font-family="Helvetica,sans-Serif" font-size="10.00">CycleCoordinator.cpp</text>
</a>
</g>
</g>
<!-- Node3&#45;&gt;Node6 -->
<g id="edge5_Node000003_Node000006" class="edge">
<title>Node3&#45;&gt;Node6</title>
<g id="a_edge5_Node000003_Node000006"><a xlink:title=" ">
<path fill="none" stroke="#63b8ff" d="M284.77,-106.16C260.33,-96.35 226.76,-82.87 205.09,-74.17"/>
<polygon fill="#63b8ff" stroke="#63b8ff" points="283.71,-109.51 294.29,-109.98 286.32,-103.01 283.71,-109.51"/>
</a>
</g>
</g>
<!-- Node7 -->
<g id="Node000007" class="node">
<title>Node7</title>
<g id="a_Node000007"><a xlink:href="SamplingPipeline_8hpp.html" target="_top" xlink:title=" ">
<polygon fill="white" stroke="#666666" points="383.5,-74 261.5,-74 261.5,-55 383.5,-55 383.5,-74"/>
<text text-anchor="middle" x="322.5" y="-62" font-family="Helvetica,sans-Serif" font-size="10.00">SamplingPipeline.hpp</text>
</a>
</g>
</g>
<!-- Node3&#45;&gt;Node7 -->
<g id="edge6_Node000003_Node000007" class="edge">
<title>Node3&#45;&gt;Node7</title>
<g id="a_edge6_Node000003_Node000007"><a xlink:title=" ">
<path fill="none" stroke="#63b8ff" d="M317.99,-99.66C319.14,-90.93 320.45,-80.99 321.37,-74.09"/>
<polygon fill="#63b8ff" stroke="#63b8ff" points="314.5,-99.38 316.66,-109.75 321.44,-100.29 314.5,-99.38"/>
</a>
</g>
</g>
<!-- Node8 -->
<g id="Node000008" class="node">
<title>Node8</title>
<g id="a_Node000008"><a xlink:href="Rigs_8cpp.html" target="_top" xlink:title=" ">
<polygon fill="white" stroke="#666666" points="297.5,-19 239.5,-19 239.5,0 297.5,0 297.5,-19"/>
<text text-anchor="middle" x="268.5" y="-7" font-family="Helvetica,sans-Serif" font-size="10.00">Rigs.cpp</text>
</a>
</g>
</g>
<!-- Node7&#45;&gt;Node8 -->
<g id="edge7_Node000007_Node000008" class="edge">
<title>Node7&#45;&gt;Node8</title>
<g id="a_edge7_Node000007_Node000008"><a xlink:title=" ">
<path fill="none" stroke="#63b8ff" d="M306.22,-47.52C296.7,-38.18 285.06,-26.75 277.25,-19.09"/>
<polygon fill="#63b8ff" stroke="#63b8ff" points="303.99,-50.24 313.58,-54.75 308.9,-45.25 303.99,-50.24"/>
</a>
</g>
</g>
<!-- Node9 -->
<g id="Node000009" class="node">
<title>Node9</title>
<g id="a_Node000009"><a xlink:href="SamplingPipeline_8cpp.html" target="_top" xlink:title=" ">
<polygon fill="white" stroke="#666666" points="437.5,-19 315.5,-19 315.5,0 437.5,0 437.5,-19"/>
<text text-anchor="middle" x="376.5" y="-7" font-family="Helvetica,sans-Serif" font-size="10.00">SamplingPipeline.cpp</text>
</a>
</g>
</g>
<!-- Node7&#45;&gt;Node9 -->
<g id="edge8_Node000007_Node000009" class="edge">
<title>Node7&#45;&gt;Node9</title>
<g id="a_edge8_Node000007_Node000009"><a xlink:title=" ">
<path fill="none" stroke="#63b8ff" d="M338.78,-47.52C348.3,-38.18 359.94,-26.75 367.75,-19.09"/>
<polygon fill="#63b8ff" stroke="#63b8ff" points="336.1,-45.25 331.42,-54.75 341.01,-50.24 336.1,-45.25"/>
</a>
</g>
</g>
<!-- Node11&#45;&gt;Node4 -->
<g id="edge12_Node000011_Node000004" class="edge">
<title>Node11&#45;&gt;Node4</title>
<g id="a_edge12_Node000011_Node000004"><a xlink:title=" ">
<path fill="none" stroke="#63b8ff" d="M153,-106.16C128.75,-96.35 95.43,-82.87 73.93,-74.17"/>
<polygon fill="#63b8ff" stroke="#63b8ff" points="151.87,-109.48 162.45,-109.98 154.5,-102.99 151.87,-109.48"/>
</a>
</g>
</g>
<!-- Node11&#45;&gt;Node6 -->
<g id="edge13_Node000011_Node000006" class="edge">
<title>Node11&#45;&gt;Node6</title>
<g id="a_edge13_Node000011_Node000006"><a xlink:title=" ">
<path fill="none" stroke="#63b8ff" d="M183.5,-99.66C183.5,-90.93 183.5,-80.99 183.5,-74.09"/>
<polygon fill="#63b8ff" stroke="#63b8ff" points="180,-99.75 183.5,-109.75 187,-99.75 180,-99.75"/>
</a>
</g>
</g>
</g>
</svg>

<g id="navigator" transform="translate(0 0)" fill="#404254">
  <rect fill="#f2f5e9" fill-opacity="0.5" stroke="#606060" stroke-width=".5" x="0" y="0" width="60" height="60"/>
  <use id="zoomplus" xlink:href="#zoomPlus" x="17" y="9" onmousedown="handleZoom(evt,'in')"/>
  <use id="zoomminus" xlink:href="#zoomMin" x="42" y="9" onmousedown="handleZoom(evt,'out')"/>
  <use id="reset" xlink:href="#resetDef" x="30" y="36" onmousedown="handleReset()"/>
   <use id="arrowup" xlink:href="#arrowUp" x="0" y="0" onmousedown="handlePan(0,-1)"/>
  <use id="arrowright" xlink:href="#arrowRight" x="0" y="0" onmousedown="handlePan(1,0)"/>
  <use id="arrowdown" xlink:href="#arrowDown" x="0" y="0" onmousedown="handlePan(0,1)"/>
  <use id="arrowleft" xlink:href="#arrowLeft" x="0" y="0" onmousedown="handlePan(-1,0)"/>
</g>
<svg viewBox="0 0 15 15" width="100%" height="30px" preserveAspectRatio="xMaxYMin meet">
 <g id="arrow_out" transform="scale(0.3 0.3)">
  <a xlink:href="Scheduler_8hpp__dep__incl_org.svg" target="_base">
   <rect id="button" ry="5" rx="5" y="6" x="6" height="38" width="38"
        fill="#f2f5e9" fill-opacity="0.5" stroke="#606060" stroke-width="1.0"/>
   <path id="arrow"
     d="M 11.500037,31.436501 C 11.940474,20.09759 22.043105,11.32322 32.158766,21.979434 L 37.068811,17.246167 C 37.068811,17.246167 37.088388,32 37.088388,32 L 22.160133,31.978069 C 22.160133,31.978069 26.997745,27.140456 26.997745,27.140456 C 18.528582,18.264221 13.291696,25.230495 11.500037,31.436501 z"
     style="fill:#404040;"/>
  </a>
 </g>
</svg>

<style type='text/css'>
<![CDATA[
[data-mouse-over-selected='false'] { opacity: 0.7; }
[data-mouse-over-selected='true']  { opacity: 1.0; }
]]>
</style>
<script type="application/ecmascript"><![CDATA[
document.addEventListener('DOMContentLoaded', (event) => {
  highlightEdges();
  highlightAdjacentNodes();
});
]]></script>
</svg>
