<?xml version="1.0" encoding="UTF-8" standalone="no"?>
<!DOCTYPE svg PUBLIC "-//W3C//DTD SVG 1.1//EN"
 "http://www.w3.org/Graphics/SVG/1.1/DTD/svg11.dtd">
<!-- Generated by graphviz version 2.43.0 (0)
 -->
<!-- Title: Sinks.cpp Pages: 1 -->
<svg width="1701pt" height="599pt"
 viewBox="0.00 0.00 1701.00 599.00" xmlns="http://www.w3.org/2000/svg" xmlns:xlink="http://www.w3.org/1999/xlink">
<g id="graph0" class="graph" transform="scale(1 1) rotate(0) translate(4 595)">
<title>Sinks.cpp</title>
<!-- Node1 -->
<g id="Node000001" class="node">
<title>Node1</title>
<g id="a_Node000001"><a xlink:title=" ">
<polygon fill="#999999" stroke="#666666" points="1010.5,-591 947.5,-591 947.5,-572 1010.5,-572 1010.5,-591"/>
<text text-anchor="middle" x="979" y="-579" font-family="Helvetica,sans-Serif" font-size="10.00">Sinks.cpp</text>
</a>
</g>
</g>
<!-- Node2 -->
<g id="Node000002" class="node">
<title>Node2</title>
<g id="a_Node000002"><a xlink:href="Sinks_8hpp.html" target="_top" xlink:title=" ">
<polygon fill="white" stroke="#666666" points="1566,-206 1502,-206 1502,-187 1566,-187 1566,-206"/>
<text text-anchor="middle" x="1534" y="-194" font-family="Helvetica,sans-Serif" font-size="10.00">Sinks.hpp</text>
</a>
</g>
</g>
<!-- Node1&#45;&gt;Node2 -->
<g id="edge1_Node000001_Node000002" class="edge">
<title>Node1&#45;&gt;Node2</title>
<g id="a_edge1_Node000001_Node000002"><a xlink:title=" ">
<path fill="none" stroke="#63b8ff" d="M1010.51,-581.05C1093.27,-581.81 1323.19,-579.5 1508,-536 1595.2,-515.48 1693,-545.58 1693,-456 1693,-456 1693,-456 1693,-322 1693,-261.61 1621.02,-226.12 1573.92,-209.37"/>
<polygon fill="#63b8ff" stroke="#63b8ff" points="1574.88,-205.99 1564.28,-206.07 1572.61,-212.62 1574.88,-205.99"/>
</a>
</g>
</g>
<!-- Node8 -->
<g id="Node000008" class="node">
<title>Node8</title>
<g id="a_Node000008"><a xlink:href="BufferManager_8hpp.html" target="_top" xlink:title=" ">
<polygon fill="white" stroke="#666666" points="520.5,-530.5 323.5,-530.5 323.5,-511.5 520.5,-511.5 520.5,-530.5"/>
<text text-anchor="middle" x="422" y="-518.5" font-family="Helvetica,sans-Serif" font-size="10.00">MayaFlux/Buffers/BufferManager.hpp</text>
</a>
</g>
</g>
<!-- Node1&#45;&gt;Node8 -->
<g id="edge8_Node000001_Node000008" class="edge">
<title>Node1&#45;&gt;Node8</title>
<g id="a_edge8_Node000001_Node000008"><a xlink:title=" ">
<path fill="none" stroke="#63b8ff" d="M947.46,-577.19C864.94,-568.52 640.32,-544.93 513.08,-531.57"/>
<polygon fill="#63b8ff" stroke="#63b8ff" points="513.27,-528.07 502.96,-530.5 512.54,-535.03 513.27,-528.07"/>
</a>
</g>
</g>
<!-- Node23 -->
<g id="Node000023" class="node">
<title>Node23</title>
<g id="a_Node000023"><a xlink:href="BufferProcessingChain_8hpp.html" target="_top" xlink:title=" ">
<polygon fill="white" stroke="#666666" points="303.5,-536 116.5,-536 116.5,-506 303.5,-506 303.5,-536"/>
<text text-anchor="start" x="124.5" y="-524" font-family="Helvetica,sans-Serif" font-size="10.00">MayaFlux/Buffers/BufferProcessing</text>
<text text-anchor="middle" x="210" y="-513" font-family="Helvetica,sans-Serif" font-size="10.00">Chain.hpp</text>
</a>
</g>
</g>
<!-- Node1&#45;&gt;Node23 -->
<g id="edge32_Node000001_Node000023" class="edge">
<title>Node1&#45;&gt;Node23</title>
<g id="a_edge32_Node000001_Node000023"><a xlink:title=" ">
<path fill="none" stroke="#63b8ff" d="M947.44,-579.14C851.86,-574.86 557.21,-560.48 314,-536 313.89,-535.99 313.78,-535.98 313.68,-535.97"/>
<polygon fill="#63b8ff" stroke="#63b8ff" points="313.82,-532.46 303.51,-534.89 313.09,-539.42 313.82,-532.46"/>
</a>
</g>
</g>
<!-- Node24 -->
<g id="Node000024" class="node">
<title>Node24</title>
<g id="a_Node000024"><a xlink:href="GeometryWriteProcessor_8hpp.html" target="_top" xlink:title=" ">
<polygon fill="white" stroke="#666666" points="1209,-404 1047,-404 1047,-374 1209,-374 1209,-404"/>
<text text-anchor="start" x="1055" y="-392" font-family="Helvetica,sans-Serif" font-size="10.00">MayaFlux/Buffers/Geometry</text>
<text text-anchor="middle" x="1128" y="-381" font-family="Helvetica,sans-Serif" font-size="10.00">/GeometryWriteProcessor.hpp</text>
</a>
</g>
</g>
<!-- Node1&#45;&gt;Node24 -->
<g id="edge34_Node000001_Node000024" class="edge">
<title>Node1&#45;&gt;Node24</title>
<g id="a_edge34_Node000001_Node000024"><a xlink:title=" ">
<path fill="none" stroke="#63b8ff" d="M985.79,-571.82C1007.84,-543.63 1077.91,-454.04 1110.73,-412.08"/>
<polygon fill="#63b8ff" stroke="#63b8ff" points="1113.55,-414.15 1116.95,-404.12 1108.04,-409.84 1113.55,-414.15"/>
</a>
</g>
</g>
<!-- Node26 -->
<g id="Node000026" class="node">
<title>Node26</title>
<g id="a_Node000026"><a xlink:href="RenderProcessor_8hpp.html" target="_top" xlink:title=" ">
<polygon fill="white" stroke="#666666" points="923,-536 779,-536 779,-506 923,-506 923,-536"/>
<text text-anchor="start" x="787" y="-524" font-family="Helvetica,sans-Serif" font-size="10.00">MayaFlux/Buffers/Shaders</text>
<text text-anchor="middle" x="851" y="-513" font-family="Helvetica,sans-Serif" font-size="10.00">/RenderProcessor.hpp</text>
</a>
</g>
</g>
<!-- Node1&#45;&gt;Node26 -->
<g id="edge38_Node000001_Node000026" class="edge">
<title>Node1&#45;&gt;Node26</title>
<g id="a_edge38_Node000001_Node000026"><a xlink:title=" ">
<path fill="none" stroke="#63b8ff" d="M960.39,-571.99C942.35,-563.75 914.4,-550.98 891.27,-540.4"/>
<polygon fill="#63b8ff" stroke="#63b8ff" points="892.57,-537.15 882.02,-536.18 889.66,-543.52 892.57,-537.15"/>
</a>
</g>
</g>
<!-- Node33 -->
<g id="Node000033" class="node">
<title>Node33</title>
<g id="a_Node000033"><a xlink:href="AudioWriteProcessor_8hpp.html" target="_top" xlink:title=" ">
<polygon fill="white" stroke="#666666" points="142,-338 0,-338 0,-308 142,-308 142,-338"/>
<text text-anchor="start" x="8" y="-326" font-family="Helvetica,sans-Serif" font-size="10.00">MayaFlux/Buffers/Staging</text>
<text text-anchor="middle" x="71" y="-315" font-family="Helvetica,sans-Serif" font-size="10.00">/AudioWriteProcessor.hpp</text>
</a>
</g>
</g>
<!-- Node1&#45;&gt;Node33 -->
<g id="edge48_Node000001_Node000033" class="edge">
<title>Node1&#45;&gt;Node33</title>
<g id="a_edge48_Node000001_Node000033"><a xlink:title=" ">
<path fill="none" stroke="#63b8ff" d="M947.45,-579.99C794.83,-577.36 139.02,-564.47 107,-536 53.39,-488.33 59.98,-392.78 66.6,-348.09"/>
<polygon fill="#63b8ff" stroke="#63b8ff" points="70.07,-348.55 68.2,-338.12 63.16,-347.44 70.07,-348.55"/>
</a>
</g>
</g>
<!-- Node34 -->
<g id="Node000034" class="node">
<title>Node34</title>
<g id="a_Node000034"><a xlink:href="EigenAccess_8hpp.html" target="_top" xlink:title=" ">
<polygon fill="white" stroke="#666666" points="1499.5,-536 1348.5,-536 1348.5,-506 1499.5,-506 1499.5,-536"/>
<text text-anchor="start" x="1356.5" y="-524" font-family="Helvetica,sans-Serif" font-size="10.00">MayaFlux/Kakshya/NDData</text>
<text text-anchor="middle" x="1424" y="-513" font-family="Helvetica,sans-Serif" font-size="10.00">/EigenAccess.hpp</text>
</a>
</g>
</g>
<!-- Node1&#45;&gt;Node34 -->
<g id="edge51_Node000001_Node000034" class="edge">
<title>Node1&#45;&gt;Node34</title>
<g id="a_edge51_Node000001_Node000034"><a xlink:title=" ">
<path fill="none" stroke="#63b8ff" d="M1010.65,-576.34C1078.12,-567.47 1238.13,-546.44 1338.1,-533.29"/>
<polygon fill="#63b8ff" stroke="#63b8ff" points="1338.73,-536.74 1348.18,-531.97 1337.81,-529.8 1338.73,-536.74"/>
</a>
</g>
</g>
<!-- Node35 -->
<g id="Node000035" class="node">
<title>Node35</title>
<g id="a_Node000035"><a xlink:href="Archivist_8hpp.html" target="_top" xlink:title=" ">
<polygon fill="white" stroke="#666666" points="1363,-464.5 1195,-464.5 1195,-445.5 1363,-445.5 1363,-464.5"/>
<text text-anchor="middle" x="1279" y="-452.5" font-family="Helvetica,sans-Serif" font-size="10.00">MayaFlux/Journal/Archivist.hpp</text>
</a>
</g>
</g>
<!-- Node1&#45;&gt;Node35 -->
<g id="edge62_Node000001_Node000035" class="edge">
<title>Node1&#45;&gt;Node35</title>
<g id="a_edge62_Node000001_Node000035"><a xlink:title=" ">
<path fill="none" stroke="#63b8ff" d="M1005.1,-571.94C1030.56,-563.43 1070.27,-549.68 1104,-536 1157.25,-514.4 1217.95,-485.71 1252.05,-469.2"/>
<polygon fill="#63b8ff" stroke="#63b8ff" points="1253.87,-472.21 1261.34,-464.69 1250.81,-465.92 1253.87,-472.21"/>
</a>
</g>
</g>
<!-- Node3 -->
<g id="Node000003" class="node">
<title>Node3</title>
<g id="a_Node000003"><a xlink:href="InfluenceContext_8hpp.html" target="_top" xlink:title=" ">
<polygon fill="white" stroke="#666666" points="1627,-145.5 1507,-145.5 1507,-126.5 1627,-126.5 1627,-145.5"/>
<text text-anchor="middle" x="1567" y="-133.5" font-family="Helvetica,sans-Serif" font-size="10.00">InfluenceContext.hpp</text>
</a>
</g>
</g>
<!-- Node2&#45;&gt;Node3 -->
<g id="edge2_Node000002_Node000003" class="edge">
<title>Node2&#45;&gt;Node3</title>
<g id="a_edge2_Node000002_Node000003"><a xlink:title=" ">
<path fill="none" stroke="#63b8ff" d="M1538.87,-186.87C1543.65,-178.4 1551.07,-165.24 1557.09,-154.57"/>
<polygon fill="#63b8ff" stroke="#63b8ff" points="1560.25,-156.1 1562.11,-145.67 1554.15,-152.66 1560.25,-156.1"/>
</a>
</g>
</g>
<!-- Node5 -->
<g id="Node000005" class="node">
<title>Node5</title>
<g id="a_Node000005"><a xlink:href="NDData_8hpp.html" target="_top" xlink:title=" ">
<polygon fill="white" stroke="#666666" points="1278.5,-85 1127.5,-85 1127.5,-55 1278.5,-55 1278.5,-85"/>
<text text-anchor="start" x="1135.5" y="-73" font-family="Helvetica,sans-Serif" font-size="10.00">MayaFlux/Kakshya/NDData</text>
<text text-anchor="middle" x="1203" y="-62" font-family="Helvetica,sans-Serif" font-size="10.00">/NDData.hpp</text>
</a>
</g>
</g>
<!-- Node2&#45;&gt;Node5 -->
<g id="edge4_Node000002_Node000005" class="edge">
<title>Node2&#45;&gt;Node5</title>
<g id="a_edge4_Node000002_Node000005"><a xlink:title=" ">
<path fill="none" stroke="#63b8ff" d="M1527.69,-186.97C1515.52,-171.2 1487.17,-137.59 1455,-121 1403.43,-94.42 1339.21,-81.94 1288.5,-76.09"/>
<polygon fill="#63b8ff" stroke="#63b8ff" points="1288.87,-72.61 1278.55,-75.01 1288.11,-79.57 1288.87,-72.61"/>
</a>
</g>
</g>
<!-- Node7 -->
<g id="Node000007" class="node">
<title>Node7</title>
<g id="a_Node000007"><a xlink:href="VertexLayout_8hpp.html" target="_top" xlink:title=" ">
<polygon fill="white" stroke="#666666" points="1061.5,-151 910.5,-151 910.5,-121 1061.5,-121 1061.5,-151"/>
<text text-anchor="start" x="918.5" y="-139" font-family="Helvetica,sans-Serif" font-size="10.00">MayaFlux/Kakshya/NDData</text>
<text text-anchor="middle" x="986" y="-128" font-family="Helvetica,sans-Serif" font-size="10.00">/VertexLayout.hpp</text>
</a>
</g>
</g>
<!-- Node2&#45;&gt;Node7 -->
<g id="edge6_Node000002_Node000007" class="edge">
<title>Node2&#45;&gt;Node7</title>
<g id="a_edge6_Node000002_Node000007"><a xlink:title=" ">
<path fill="none" stroke="#63b8ff" d="M1501.77,-192.06C1418.86,-183.21 1196.09,-159.43 1072.16,-146.2"/>
<polygon fill="#63b8ff" stroke="#63b8ff" points="1072.26,-142.69 1061.95,-145.11 1071.52,-149.65 1072.26,-142.69"/>
</a>
</g>
</g>
<!-- Node4 -->
<g id="Node000004" class="node">
<title>Node4</title>
<g id="a_Node000004"><a xlink:title=" ">
<polygon fill="#e0e0e0" stroke="#999999" points="1608.5,-79.5 1525.5,-79.5 1525.5,-60.5 1608.5,-60.5 1608.5,-79.5"/>
<text text-anchor="middle" x="1567" y="-67.5" font-family="Helvetica,sans-Serif" font-size="10.00">glm/vec3.hpp</text>
</a>
</g>
</g>
<!-- Node3&#45;&gt;Node4 -->
<g id="edge3_Node000003_Node000004" class="edge">
<title>Node3&#45;&gt;Node4</title>
<g id="a_edge3_Node000003_Node000004"><a xlink:title=" ">
<path fill="none" stroke="#63b8ff" d="M1567,-126.37C1567,-117.16 1567,-102.29 1567,-90.27"/>
<polygon fill="#63b8ff" stroke="#63b8ff" points="1570.5,-89.91 1567,-79.91 1563.5,-89.91 1570.5,-89.91"/>
</a>
</g>
</g>
<!-- Node6 -->
<g id="Node000006" class="node">
<title>Node6</title>
<g id="a_Node000006"><a xlink:title=" ">
<polygon fill="#e0e0e0" stroke="#999999" points="1242,-19 1164,-19 1164,0 1242,0 1242,-19"/>
<text text-anchor="middle" x="1203" y="-7" font-family="Helvetica,sans-Serif" font-size="10.00">glm/glm.hpp</text>
</a>
</g>
</g>
<!-- Node5&#45;&gt;Node6 -->
<g id="edge5_Node000005_Node000006" class="edge">
<title>Node5&#45;&gt;Node6</title>
<g id="a_edge5_Node000005_Node000006"><a xlink:title=" ">
<path fill="none" stroke="#63b8ff" d="M1203,-54.84C1203,-47.21 1203,-37.7 1203,-29.45"/>
<polygon fill="#63b8ff" stroke="#63b8ff" points="1206.5,-29.27 1203,-19.27 1199.5,-29.27 1206.5,-29.27"/>
</a>
</g>
</g>
<!-- Node7&#45;&gt;Node5 -->
<g id="edge7_Node000007_Node000005" class="edge">
<title>Node7&#45;&gt;Node5</title>
<g id="a_edge7_Node000007_Node000005"><a xlink:title=" ">
<path fill="none" stroke="#63b8ff" d="M1033.62,-120.95C1066.69,-111.2 1110.92,-98.16 1145.89,-87.84"/>
<polygon fill="#63b8ff" stroke="#63b8ff" points="1146.89,-91.2 1155.49,-85.01 1144.91,-84.48 1146.89,-91.2"/>
</a>
</g>
</g>
<!-- Node9 -->
<g id="Node000009" class="node">
<title>Node9</title>
<g id="a_Node000009"><a xlink:href="BufferSpec_8hpp.html" target="_top" xlink:title=" ">
<polygon fill="white" stroke="#666666" points="327,-464.5 237,-464.5 237,-445.5 327,-445.5 327,-464.5"/>
<text text-anchor="middle" x="282" y="-452.5" font-family="Helvetica,sans-Serif" font-size="10.00">BufferSpec.hpp</text>
</a>
</g>
</g>
<!-- Node8&#45;&gt;Node9 -->
<g id="edge9_Node000008_Node000009" class="edge">
<title>Node8&#45;&gt;Node9</title>
<g id="a_edge9_Node000008_Node000009"><a xlink:title=" ">
<path fill="none" stroke="#63b8ff" d="M403.12,-511.37C379.22,-500.44 337.83,-481.52 310.18,-468.88"/>
<polygon fill="#63b8ff" stroke="#63b8ff" points="311.58,-465.67 301.03,-464.7 308.67,-472.04 311.58,-465.67"/>
</a>
</g>
</g>
<!-- Node10 -->
<g id="Node000010" class="node">
<title>Node10</title>
<g id="a_Node000010"><a xlink:href="TokenUnitManager_8hpp.html" target="_top" xlink:title=" ">
<polygon fill="white" stroke="#666666" points="498.5,-470 345.5,-470 345.5,-440 498.5,-440 498.5,-470"/>
<text text-anchor="start" x="353.5" y="-458" font-family="Helvetica,sans-Serif" font-size="10.00">MayaFlux/Buffers/Managers</text>
<text text-anchor="middle" x="422" y="-447" font-family="Helvetica,sans-Serif" font-size="10.00">/TokenUnitManager.hpp</text>
</a>
</g>
</g>
<!-- Node8&#45;&gt;Node10 -->
<g id="edge10_Node000008_Node000010" class="edge">
<title>Node8&#45;&gt;Node10</title>
<g id="a_edge10_Node000008_Node000010"><a xlink:title=" ">
<path fill="none" stroke="#63b8ff" d="M422,-511.37C422,-503.49 422,-491.45 422,-480.6"/>
<polygon fill="#63b8ff" stroke="#63b8ff" points="425.5,-480.36 422,-470.36 418.5,-480.36 425.5,-480.36"/>
</a>
</g>
</g>
<!-- Node11 -->
<g id="Node000011" class="node">
<title>Node11</title>
<g id="a_Node000011"><a xlink:href="RootAudioBuffer_8hpp.html" target="_top" xlink:title=" ">
<polygon fill="white" stroke="#666666" points="337,-404 209,-404 209,-374 337,-374 337,-404"/>
<text text-anchor="start" x="217" y="-392" font-family="Helvetica,sans-Serif" font-size="10.00">MayaFlux/Buffers/Root</text>
<text text-anchor="middle" x="273" y="-381" font-family="Helvetica,sans-Serif" font-size="10.00">/RootAudioBuffer.hpp</text>
</a>
</g>
</g>
<!-- Node10&#45;&gt;Node11 -->
<g id="edge11_Node000010_Node000011" class="edge">
<title>Node10&#45;&gt;Node11</title>
<g id="a_edge11_Node000010_Node000011"><a xlink:title=" ">
<path fill="none" stroke="#63b8ff" d="M389.3,-439.95C367.47,-430.58 338.55,-418.16 315.01,-408.05"/>
<polygon fill="#63b8ff" stroke="#63b8ff" points="316.19,-404.74 305.62,-404.01 313.43,-411.17 316.19,-404.74"/>
</a>
</g>
</g>
<!-- Node18 -->
<g id="Node000018" class="node">
<title>Node18</title>
<g id="a_Node000018"><a xlink:href="RootGraphicsBuffer_8hpp.html" target="_top" xlink:title=" ">
<polygon fill="white" stroke="#666666" points="489,-404 355,-404 355,-374 489,-374 489,-404"/>
<text text-anchor="start" x="363" y="-392" font-family="Helvetica,sans-Serif" font-size="10.00">MayaFlux/Buffers/Root</text>
<text text-anchor="middle" x="422" y="-381" font-family="Helvetica,sans-Serif" font-size="10.00">/RootGraphicsBuffer.hpp</text>
</a>
</g>
</g>
<!-- Node10&#45;&gt;Node18 -->
<g id="edge21_Node000010_Node000018" class="edge">
<title>Node10&#45;&gt;Node18</title>
<g id="a_edge21_Node000010_Node000018"><a xlink:title=" ">
<path fill="none" stroke="#63b8ff" d="M422,-439.8C422,-432.34 422,-422.99 422,-414.41"/>
<polygon fill="#63b8ff" stroke="#63b8ff" points="425.5,-414.16 422,-404.16 418.5,-414.16 425.5,-414.16"/>
</a>
</g>
</g>
<!-- Node12 -->
<g id="Node000012" class="node">
<title>Node12</title>
<g id="a_Node000012"><a xlink:href="RootBuffer_8hpp.html" target="_top" xlink:title=" ">
<polygon fill="white" stroke="#666666" points="563.5,-332.5 474.5,-332.5 474.5,-313.5 563.5,-313.5 563.5,-332.5"/>
<text text-anchor="middle" x="519" y="-320.5" font-family="Helvetica,sans-Serif" font-size="10.00">RootBuffer.hpp</text>
</a>
</g>
</g>
<!-- Node11&#45;&gt;Node12 -->
<g id="edge12_Node000011_Node000012" class="edge">
<title>Node11&#45;&gt;Node12</title>
<g id="a_edge12_Node000011_Node000012"><a xlink:title=" ">
<path fill="none" stroke="#63b8ff" d="M326.99,-373.95C371.93,-362.26 435.06,-345.84 476.48,-335.06"/>
<polygon fill="#63b8ff" stroke="#63b8ff" points="477.47,-338.42 486.26,-332.52 475.7,-331.65 477.47,-338.42"/>
</a>
</g>
</g>
<!-- Node15 -->
<g id="Node000015" class="node">
<title>Node15</title>
<g id="a_Node000015"><a xlink:href="AudioBuffer_8hpp.html" target="_top" xlink:title=" ">
<polygon fill="white" stroke="#666666" points="456,-332.5 274,-332.5 274,-313.5 456,-313.5 456,-332.5"/>
<text text-anchor="middle" x="365" y="-320.5" font-family="Helvetica,sans-Serif" font-size="10.00">MayaFlux/Buffers/AudioBuffer.hpp</text>
</a>
</g>
</g>
<!-- Node11&#45;&gt;Node15 -->
<g id="edge16_Node000011_Node000015" class="edge">
<title>Node11&#45;&gt;Node15</title>
<g id="a_edge16_Node000011_Node000015"><a xlink:title=" ">
<path fill="none" stroke="#63b8ff" d="M293.42,-373.8C308.55,-363.27 329.1,-348.97 344.3,-338.4"/>
<polygon fill="#63b8ff" stroke="#63b8ff" points="346.34,-341.24 352.55,-332.66 342.35,-335.5 346.34,-341.24"/>
</a>
</g>
</g>
<!-- Node17 -->
<g id="Node000017" class="node">
<title>Node17</title>
<g id="a_Node000017"><a xlink:href="BufferProcessor_8hpp.html" target="_top" xlink:title=" ">
<polygon fill="white" stroke="#666666" points="336,-266.5 134,-266.5 134,-247.5 336,-247.5 336,-266.5"/>
<text text-anchor="middle" x="235" y="-254.5" font-family="Helvetica,sans-Serif" font-size="10.00">MayaFlux/Buffers/BufferProcessor.hpp</text>
</a>
</g>
</g>
<!-- Node11&#45;&gt;Node17 -->
<g id="edge19_Node000011_Node000017" class="edge">
<title>Node11&#45;&gt;Node17</title>
<g id="a_edge19_Node000011_Node000017"><a xlink:title=" ">
<path fill="none" stroke="#63b8ff" d="M256.97,-373.99C247.73,-364.81 236.99,-351.95 232,-338 224.85,-318.01 227.3,-293.39 230.44,-276.79"/>
<polygon fill="#63b8ff" stroke="#63b8ff" points="233.92,-277.24 232.62,-266.73 227.08,-275.76 233.92,-277.24"/>
</a>
</g>
</g>
<!-- Node13 -->
<g id="Node000013" class="node">
<title>Node13</title>
<g id="a_Node000013"><a xlink:href="BufferUtils_8hpp.html" target="_top" xlink:title=" ">
<polygon fill="white" stroke="#666666" points="608,-206 430,-206 430,-187 608,-187 608,-206"/>
<text text-anchor="middle" x="519" y="-194" font-family="Helvetica,sans-Serif" font-size="10.00">MayaFlux/Buffers/BufferUtils.hpp</text>
</a>
</g>
</g>
<!-- Node12&#45;&gt;Node13 -->
<g id="edge13_Node000012_Node000013" class="edge">
<title>Node12&#45;&gt;Node13</title>
<g id="a_edge13_Node000012_Node000013"><a xlink:title=" ">
<path fill="none" stroke="#63b8ff" d="M519,-313.44C519,-293.54 519,-243.76 519,-216.35"/>
<polygon fill="#63b8ff" stroke="#63b8ff" points="522.5,-216.12 519,-206.12 515.5,-216.12 522.5,-216.12"/>
</a>
</g>
</g>
<!-- Node13&#45;&gt;Node7 -->
<g id="edge15_Node000013_Node000007" class="edge">
<title>Node13&#45;&gt;Node7</title>
<g id="a_edge15_Node000013_Node000007"><a xlink:title=" ">
<path fill="none" stroke="#63b8ff" d="M586.91,-186.99C669.81,-176.61 810.09,-159.04 900.33,-147.73"/>
<polygon fill="#63b8ff" stroke="#63b8ff" points="900.78,-151.2 910.26,-146.49 899.9,-144.26 900.78,-151.2"/>
</a>
</g>
</g>
<!-- Node14 -->
<g id="Node000014" class="node">
<title>Node14</title>
<g id="a_Node000014"><a xlink:href="ProcessingTokens_8hpp.html" target="_top" xlink:title=" ">
<polygon fill="white" stroke="#666666" points="592,-151 446,-151 446,-121 592,-121 592,-151"/>
<text text-anchor="start" x="454" y="-139" font-family="Helvetica,sans-Serif" font-size="10.00">MayaFlux/Core/Processing</text>
<text text-anchor="middle" x="519" y="-128" font-family="Helvetica,sans-Serif" font-size="10.00">Tokens.hpp</text>
</a>
</g>
</g>
<!-- Node13&#45;&gt;Node14 -->
<g id="edge14_Node000013_Node000014" class="edge">
<title>Node13&#45;&gt;Node14</title>
<g id="a_edge14_Node000013_Node000014"><a xlink:title=" ">
<path fill="none" stroke="#63b8ff" d="M519,-186.87C519,-180.11 519,-170.35 519,-161.26"/>
<polygon fill="#63b8ff" stroke="#63b8ff" points="522.5,-161.11 519,-151.11 515.5,-161.11 522.5,-161.11"/>
</a>
</g>
</g>
<!-- Node15&#45;&gt;Node14 -->
<g id="edge18_Node000015_Node000014" class="edge">
<title>Node15&#45;&gt;Node14</title>
<g id="a_edge18_Node000015_Node000014"><a xlink:title=" ">
<path fill="none" stroke="#63b8ff" d="M366.45,-313.29C370.74,-290.03 385.35,-225.57 421,-187 433.46,-173.52 450.39,-163.11 466.66,-155.37"/>
<polygon fill="#63b8ff" stroke="#63b8ff" points="468.44,-158.41 476.13,-151.12 465.57,-152.02 468.44,-158.41"/>
</a>
</g>
</g>
<!-- Node16 -->
<g id="Node000016" class="node">
<title>Node16</title>
<g id="a_Node000016"><a xlink:href="Buffer_8hpp.html" target="_top" xlink:title=" ">
<polygon fill="white" stroke="#666666" points="625,-266.5 559,-266.5 559,-247.5 625,-247.5 625,-266.5"/>
<text text-anchor="middle" x="592" y="-254.5" font-family="Helvetica,sans-Serif" font-size="10.00">Buffer.hpp</text>
</a>
</g>
</g>
<!-- Node15&#45;&gt;Node16 -->
<g id="edge17_Node000015_Node000016" class="edge">
<title>Node15&#45;&gt;Node16</title>
<g id="a_edge17_Node000015_Node000016"><a xlink:title=" ">
<path fill="none" stroke="#63b8ff" d="M395.61,-313.37C436,-301.98 507.19,-281.91 551.85,-269.32"/>
<polygon fill="#63b8ff" stroke="#63b8ff" points="552.83,-272.68 561.51,-266.6 550.93,-265.94 552.83,-272.68"/>
</a>
</g>
</g>
<!-- Node17&#45;&gt;Node13 -->
<g id="edge20_Node000017_Node000013" class="edge">
<title>Node17&#45;&gt;Node13</title>
<g id="a_edge20_Node000017_Node000013"><a xlink:title=" ">
<path fill="none" stroke="#63b8ff" d="M276.3,-247.49C326.99,-237.05 412.95,-219.35 467.79,-208.05"/>
<polygon fill="#63b8ff" stroke="#63b8ff" points="468.57,-211.46 477.65,-206.02 467.15,-204.61 468.57,-211.46"/>
</a>
</g>
</g>
<!-- Node18&#45;&gt;Node12 -->
<g id="edge31_Node000018_Node000012" class="edge">
<title>Node18&#45;&gt;Node12</title>
<g id="a_edge31_Node000018_Node000012"><a xlink:title=" ">
<path fill="none" stroke="#63b8ff" d="M443.53,-373.8C459.48,-363.27 481.15,-348.97 497.18,-338.4"/>
<polygon fill="#63b8ff" stroke="#63b8ff" points="499.46,-341.09 505.88,-332.66 495.6,-335.24 499.46,-341.09"/>
</a>
</g>
</g>
<!-- Node18&#45;&gt;Node17 -->
<g id="edge22_Node000018_Node000017" class="edge">
<title>Node18&#45;&gt;Node17</title>
<g id="a_edge22_Node000018_Node000017"><a xlink:title=" ">
<path fill="none" stroke="#63b8ff" d="M359.31,-373.97C321.89,-364.48 278.99,-351.3 265,-338 247.91,-321.75 240.47,-294.82 237.3,-276.75"/>
<polygon fill="#63b8ff" stroke="#63b8ff" points="240.75,-276.2 235.82,-266.82 233.83,-277.23 240.75,-276.2"/>
</a>
</g>
</g>
<!-- Node19 -->
<g id="Node000019" class="node">
<title>Node19</title>
<g id="a_Node000019"><a xlink:href="VKBuffer_8hpp.html" target="_top" xlink:title=" ">
<polygon fill="white" stroke="#666666" points="749,-332.5 581,-332.5 581,-313.5 749,-313.5 749,-332.5"/>
<text text-anchor="middle" x="665" y="-320.5" font-family="Helvetica,sans-Serif" font-size="10.00">MayaFlux/Buffers/VKBuffer.hpp</text>
</a>
</g>
</g>
<!-- Node18&#45;&gt;Node19 -->
<g id="edge23_Node000018_Node000019" class="edge">
<title>Node18&#45;&gt;Node19</title>
<g id="a_edge23_Node000018_Node000019"><a xlink:title=" ">
<path fill="none" stroke="#63b8ff" d="M475.33,-373.95C519.63,-362.29 581.82,-345.91 622.74,-335.13"/>
<polygon fill="#63b8ff" stroke="#63b8ff" points="623.88,-338.45 632.66,-332.52 622.1,-331.68 623.88,-338.45"/>
</a>
</g>
</g>
<!-- Node19&#45;&gt;Node14 -->
<g id="edge26_Node000019_Node000014" class="edge">
<title>Node19&#45;&gt;Node14</title>
<g id="a_edge26_Node000019_Node000014"><a xlink:title=" ">
<path fill="none" stroke="#63b8ff" d="M664.13,-313.31C661.39,-290.08 650.96,-225.7 617,-187 605.1,-173.44 588.64,-163.08 572.6,-155.4"/>
<polygon fill="#63b8ff" stroke="#63b8ff" points="573.8,-152.1 563.25,-151.19 570.93,-158.49 573.8,-152.1"/>
</a>
</g>
</g>
<!-- Node19&#45;&gt;Node16 -->
<g id="edge24_Node000019_Node000016" class="edge">
<title>Node19&#45;&gt;Node16</title>
<g id="a_edge24_Node000019_Node000016"><a xlink:title=" ">
<path fill="none" stroke="#63b8ff" d="M655.15,-313.37C643.57,-303.21 624.12,-286.16 609.86,-273.65"/>
<polygon fill="#63b8ff" stroke="#63b8ff" points="611.98,-270.87 602.16,-266.91 607.37,-276.13 611.98,-270.87"/>
</a>
</g>
</g>
<!-- Node19&#45;&gt;Node17 -->
<g id="edge25_Node000019_Node000017" class="edge">
<title>Node19&#45;&gt;Node17</title>
<g id="a_edge25_Node000019_Node000017"><a xlink:title=" ">
<path fill="none" stroke="#63b8ff" d="M608.45,-313.47C596.42,-311.66 583.79,-309.76 572,-308 478.66,-294.05 370.76,-278.07 302.71,-268"/>
<polygon fill="#63b8ff" stroke="#63b8ff" points="302.95,-264.5 292.55,-266.5 301.93,-271.43 302.95,-264.5"/>
</a>
</g>
</g>
<!-- Node20 -->
<g id="Node000020" class="node">
<title>Node20</title>
<g id="a_Node000020"><a xlink:href="ShaderUtils_8hpp.html" target="_top" xlink:title=" ">
<polygon fill="white" stroke="#666666" points="892,-272 750,-272 750,-242 892,-242 892,-272"/>
<text text-anchor="start" x="758" y="-260" font-family="Helvetica,sans-Serif" font-size="10.00">MayaFlux/Portal/Graphics</text>
<text text-anchor="middle" x="821" y="-249" font-family="Helvetica,sans-Serif" font-size="10.00">/ShaderUtils.hpp</text>
</a>
</g>
</g>
<!-- Node19&#45;&gt;Node20 -->
<g id="edge27_Node000019_Node000020" class="edge">
<title>Node19&#45;&gt;Node20</title>
<g id="a_edge27_Node000019_Node000020"><a xlink:title=" ">
<path fill="none" stroke="#63b8ff" d="M686.04,-313.37C709.3,-303.82 747.43,-288.18 777.24,-275.95"/>
<polygon fill="#63b8ff" stroke="#63b8ff" points="778.67,-279.15 786.59,-272.12 776.01,-272.67 778.67,-279.15"/>
</a>
</g>
</g>
<!-- Node20&#45;&gt;Node7 -->
<g id="edge30_Node000020_Node000007" class="edge">
<title>Node20&#45;&gt;Node7</title>
<g id="a_edge30_Node000020_Node000007"><a xlink:title=" ">
<path fill="none" stroke="#63b8ff" d="M859.14,-241.99C879.76,-233.38 905.03,-221.11 925,-206 942.48,-192.78 958.74,-173.93 970.06,-159.27"/>
<polygon fill="#63b8ff" stroke="#63b8ff" points="972.92,-161.3 976.13,-151.2 967.32,-157.09 972.92,-161.3"/>
</a>
</g>
</g>
<!-- Node21 -->
<g id="Node000021" class="node">
<title>Node21</title>
<g id="a_Node000021"><a xlink:title=" ">
<polygon fill="#e0e0e0" stroke="#999999" points="795.5,-206 690.5,-206 690.5,-187 795.5,-187 795.5,-206"/>
<text text-anchor="middle" x="743" y="-194" font-family="Helvetica,sans-Serif" font-size="10.00">vulkan/vulkan.hpp</text>
</a>
</g>
</g>
<!-- Node20&#45;&gt;Node21 -->
<g id="edge28_Node000020_Node000021" class="edge">
<title>Node20&#45;&gt;Node21</title>
<g id="a_edge28_Node000020_Node000021"><a xlink:title=" ">
<path fill="none" stroke="#63b8ff" d="M802.12,-241.84C790.22,-232.91 774.88,-221.41 762.8,-212.35"/>
<polygon fill="#63b8ff" stroke="#63b8ff" points="764.79,-209.47 754.69,-206.27 760.59,-215.07 764.79,-209.47"/>
</a>
</g>
</g>
<!-- Node22 -->
<g id="Node000022" class="node">
<title>Node22</title>
<g id="a_Node000022"><a xlink:href="GraphicsUtils_8hpp.html" target="_top" xlink:title=" ">
<polygon fill="white" stroke="#666666" points="916.5,-206 813.5,-206 813.5,-187 916.5,-187 916.5,-206"/>
<text text-anchor="middle" x="865" y="-194" font-family="Helvetica,sans-Serif" font-size="10.00">GraphicsUtils.hpp</text>
</a>
</g>
</g>
<!-- Node20&#45;&gt;Node22 -->
<g id="edge29_Node000020_Node000022" class="edge">
<title>Node20&#45;&gt;Node22</title>
<g id="a_edge29_Node000020_Node000022"><a xlink:title=" ">
<path fill="none" stroke="#63b8ff" d="M831.65,-241.84C837.84,-233.61 845.69,-223.18 852.21,-214.51"/>
<polygon fill="#63b8ff" stroke="#63b8ff" points="855.19,-216.36 858.41,-206.27 849.6,-212.15 855.19,-216.36"/>
</a>
</g>
</g>
<!-- Node23&#45;&gt;Node17 -->
<g id="edge33_Node000023_Node000017" class="edge">
<title>Node23&#45;&gt;Node17</title>
<g id="a_edge33_Node000023_Node000017"><a xlink:title=" ">
<path fill="none" stroke="#63b8ff" d="M207.02,-505.83C201.97,-479.65 192.92,-422.01 200,-374 205.25,-338.41 219.11,-298.6 227.73,-276.1"/>
<polygon fill="#63b8ff" stroke="#63b8ff" points="231.08,-277.12 231.48,-266.53 224.57,-274.56 231.08,-277.12"/>
</a>
</g>
</g>
<!-- Node24&#45;&gt;Node19 -->
<g id="edge35_Node000024_Node000019" class="edge">
<title>Node24&#45;&gt;Node19</title>
<g id="a_edge35_Node000024_Node000019"><a xlink:title=" ">
<path fill="none" stroke="#63b8ff" d="M1046.65,-375.38C1043.39,-374.91 1040.17,-374.45 1037,-374 913.2,-356.49 881.82,-355.31 758,-338 749.09,-336.76 739.71,-335.4 730.48,-334.03"/>
<polygon fill="#63b8ff" stroke="#63b8ff" points="730.95,-330.57 720.54,-332.56 729.92,-337.49 730.95,-330.57"/>
</a>
</g>
</g>
<!-- Node25 -->
<g id="Node000025" class="node">
<title>Node25</title>
<g id="a_Node000025"><a xlink:href="VertexAccess_8hpp.html" target="_top" xlink:title=" ">
<polygon fill="white" stroke="#666666" points="1061.5,-272 910.5,-272 910.5,-242 1061.5,-242 1061.5,-272"/>
<text text-anchor="start" x="918.5" y="-260" font-family="Helvetica,sans-Serif" font-size="10.00">MayaFlux/Kakshya/NDData</text>
<text text-anchor="middle" x="986" y="-249" font-family="Helvetica,sans-Serif" font-size="10.00">/VertexAccess.hpp</text>
</a>
</g>
</g>
<!-- Node24&#45;&gt;Node25 -->
<g id="edge36_Node000024_Node000025" class="edge">
<title>Node24&#45;&gt;Node25</title>
<g id="a_edge36_Node000024_Node000025"><a xlink:title=" ">
<path fill="none" stroke="#63b8ff" d="M1047.5,-373.9C1027.12,-366.49 1007.26,-355.21 994,-338 981.98,-322.4 980.78,-299.7 982.12,-282.46"/>
<polygon fill="#63b8ff" stroke="#63b8ff" points="985.65,-282.37 983.28,-272.05 978.7,-281.6 985.65,-282.37"/>
</a>
</g>
</g>
<!-- Node25&#45;&gt;Node7 -->
<g id="edge37_Node000025_Node000007" class="edge">
<title>Node25&#45;&gt;Node7</title>
<g id="a_edge37_Node000025_Node000007"><a xlink:title=" ">
<path fill="none" stroke="#63b8ff" d="M986,-241.88C986,-222.02 986,-185.55 986,-161.29"/>
<polygon fill="#63b8ff" stroke="#63b8ff" points="989.5,-161.1 986,-151.1 982.5,-161.1 989.5,-161.1"/>
</a>
</g>
</g>
<!-- Node27 -->
<g id="Node000027" class="node">
<title>Node27</title>
<g id="a_Node000027"><a xlink:href="ViewTransform_8hpp.html" target="_top" xlink:title=" ">
<polygon fill="white" stroke="#666666" points="1036,-464.5 836,-464.5 836,-445.5 1036,-445.5 1036,-464.5"/>
<text text-anchor="middle" x="936" y="-452.5" font-family="Helvetica,sans-Serif" font-size="10.00">MayaFlux/Kinesis/ViewTransform.hpp</text>
</a>
</g>
</g>
<!-- Node26&#45;&gt;Node27 -->
<g id="edge39_Node000026_Node000027" class="edge">
<title>Node26&#45;&gt;Node27</title>
<g id="a_edge39_Node000026_Node000027"><a xlink:title=" ">
<path fill="none" stroke="#63b8ff" d="M869.86,-505.8C883.64,-495.43 902.26,-481.4 916.24,-470.88"/>
<polygon fill="#63b8ff" stroke="#63b8ff" points="918.37,-473.66 924.25,-464.84 914.16,-468.06 918.37,-473.66"/>
</a>
</g>
</g>
<!-- Node29 -->
<g id="Node000029" class="node">
<title>Node29</title>
<g id="a_Node000029"><a xlink:href="RenderFlow_8hpp.html" target="_top" xlink:title=" ">
<polygon fill="white" stroke="#666666" points="847,-404 705,-404 705,-374 847,-374 847,-404"/>
<text text-anchor="start" x="713" y="-392" font-family="Helvetica,sans-Serif" font-size="10.00">MayaFlux/Portal/Graphics</text>
<text text-anchor="middle" x="776" y="-381" font-family="Helvetica,sans-Serif" font-size="10.00">/RenderFlow.hpp</text>
</a>
</g>
</g>
<!-- Node26&#45;&gt;Node29 -->
<g id="edge41_Node000026_Node000029" class="edge">
<title>Node26&#45;&gt;Node29</title>
<g id="a_edge41_Node000026_Node000029"><a xlink:title=" ">
<path fill="none" stroke="#63b8ff" d="M842.83,-505.84C829.93,-483.47 804.7,-439.74 789.2,-412.88"/>
<polygon fill="#63b8ff" stroke="#63b8ff" points="792.19,-411.06 784.16,-404.14 786.12,-414.55 792.19,-411.06"/>
</a>
</g>
</g>
<!-- Node31 -->
<g id="Node000031" class="node">
<title>Node31</title>
<g id="a_Node000031"><a xlink:href="ShaderProcessor_8hpp.html" target="_top" xlink:title=" ">
<polygon fill="white" stroke="#666666" points="675,-464.5 557,-464.5 557,-445.5 675,-445.5 675,-464.5"/>
<text text-anchor="middle" x="616" y="-452.5" font-family="Helvetica,sans-Serif" font-size="10.00">ShaderProcessor.hpp</text>
</a>
</g>
</g>
<!-- Node26&#45;&gt;Node31 -->
<g id="edge44_Node000026_Node000031" class="edge">
<title>Node26&#45;&gt;Node31</title>
<g id="a_edge44_Node000026_Node000031"><a xlink:title=" ">
<path fill="none" stroke="#63b8ff" d="M799.43,-505.95C756.67,-494.31 696.7,-477.98 657.12,-467.2"/>
<polygon fill="#63b8ff" stroke="#63b8ff" points="657.84,-463.77 647.27,-464.52 656,-470.52 657.84,-463.77"/>
</a>
</g>
</g>
<!-- Node28 -->
<g id="Node000028" class="node">
<title>Node28</title>
<g id="a_Node000028"><a xlink:title=" ">
<polygon fill="#e0e0e0" stroke="#999999" points="1028.5,-398.5 865.5,-398.5 865.5,-379.5 1028.5,-379.5 1028.5,-398.5"/>
<text text-anchor="middle" x="947" y="-386.5" font-family="Helvetica,sans-Serif" font-size="10.00">glm/gtc/matrix_transform.hpp</text>
</a>
</g>
</g>
<!-- Node27&#45;&gt;Node28 -->
<g id="edge40_Node000027_Node000028" class="edge">
<title>Node27&#45;&gt;Node28</title>
<g id="a_edge40_Node000027_Node000028"><a xlink:title=" ">
<path fill="none" stroke="#63b8ff" d="M937.48,-445.37C939.08,-436.07 941.68,-420.98 943.75,-408.9"/>
<polygon fill="#63b8ff" stroke="#63b8ff" points="947.22,-409.35 945.47,-398.91 940.33,-408.17 947.22,-409.35"/>
</a>
</g>
</g>
<!-- Node30 -->
<g id="Node000030" class="node">
<title>Node30</title>
<g id="a_Node000030"><a xlink:href="ShaderFoundry_8hpp.html" target="_top" xlink:title=" ">
<polygon fill="white" stroke="#666666" points="876.5,-332.5 767.5,-332.5 767.5,-313.5 876.5,-313.5 876.5,-332.5"/>
<text text-anchor="middle" x="822" y="-320.5" font-family="Helvetica,sans-Serif" font-size="10.00">ShaderFoundry.hpp</text>
</a>
</g>
</g>
<!-- Node29&#45;&gt;Node30 -->
<g id="edge42_Node000029_Node000030" class="edge">
<title>Node29&#45;&gt;Node30</title>
<g id="a_edge42_Node000029_Node000030"><a xlink:title=" ">
<path fill="none" stroke="#63b8ff" d="M786.21,-373.8C793.17,-364.11 802.42,-351.24 809.77,-341.01"/>
<polygon fill="#63b8ff" stroke="#63b8ff" points="812.65,-343.01 815.64,-332.84 806.96,-338.92 812.65,-343.01"/>
</a>
</g>
</g>
<!-- Node30&#45;&gt;Node20 -->
<g id="edge43_Node000030_Node000020" class="edge">
<title>Node30&#45;&gt;Node20</title>
<g id="a_edge43_Node000030_Node000020"><a xlink:title=" ">
<path fill="none" stroke="#63b8ff" d="M821.87,-313.37C821.74,-305.49 821.55,-293.45 821.38,-282.6"/>
<polygon fill="#63b8ff" stroke="#63b8ff" points="824.88,-282.3 821.22,-272.36 817.88,-282.41 824.88,-282.3"/>
</a>
</g>
</g>
<!-- Node31&#45;&gt;Node19 -->
<g id="edge45_Node000031_Node000019" class="edge">
<title>Node31&#45;&gt;Node19</title>
<g id="a_edge45_Node000031_Node000019"><a xlink:title=" ">
<path fill="none" stroke="#63b8ff" d="M589.64,-445.35C570.99,-437.69 547.35,-424.49 536,-404 529.54,-392.34 528.47,-385 536,-374 549.3,-354.58 571.32,-342.7 593.44,-335.44"/>
<polygon fill="#63b8ff" stroke="#63b8ff" points="594.66,-338.72 603.23,-332.5 592.65,-332.02 594.66,-338.72"/>
</a>
</g>
</g>
<!-- Node32 -->
<g id="Node000032" class="node">
<title>Node32</title>
<g id="a_Node000032"><a xlink:href="ComputePress_8hpp.html" target="_top" xlink:title=" ">
<polygon fill="white" stroke="#666666" points="687,-404 545,-404 545,-374 687,-374 687,-404"/>
<text text-anchor="start" x="553" y="-392" font-family="Helvetica,sans-Serif" font-size="10.00">MayaFlux/Portal/Graphics</text>
<text text-anchor="middle" x="616" y="-381" font-family="Helvetica,sans-Serif" font-size="10.00">/ComputePress.hpp</text>
</a>
</g>
</g>
<!-- Node31&#45;&gt;Node32 -->
<g id="edge46_Node000031_Node000032" class="edge">
<title>Node31&#45;&gt;Node32</title>
<g id="a_edge46_Node000031_Node000032"><a xlink:title=" ">
<path fill="none" stroke="#63b8ff" d="M616,-445.37C616,-437.49 616,-425.45 616,-414.6"/>
<polygon fill="#63b8ff" stroke="#63b8ff" points="619.5,-414.36 616,-404.36 612.5,-414.36 619.5,-414.36"/>
</a>
</g>
</g>
<!-- Node32&#45;&gt;Node30 -->
<g id="edge47_Node000032_Node000030" class="edge">
<title>Node32&#45;&gt;Node30</title>
<g id="a_edge47_Node000032_Node000030"><a xlink:title=" ">
<path fill="none" stroke="#63b8ff" d="M661.21,-373.95C698.29,-362.43 750.15,-346.32 784.84,-335.54"/>
<polygon fill="#63b8ff" stroke="#63b8ff" points="786.07,-338.83 794.58,-332.52 784,-332.14 786.07,-338.83"/>
</a>
</g>
</g>
<!-- Node33&#45;&gt;Node5 -->
<g id="edge50_Node000033_Node000005" class="edge">
<title>Node33&#45;&gt;Node5</title>
<g id="a_edge50_Node000033_Node000005"><a xlink:title=" ">
<path fill="none" stroke="#63b8ff" d="M77.2,-307.93C85.65,-290.26 102.34,-260.08 125,-242 241.25,-149.23 291.78,-153.1 437,-121 564.51,-92.81 945.68,-78.48 1117.43,-73.31"/>
<polygon fill="#63b8ff" stroke="#63b8ff" points="1117.55,-76.81 1127.44,-73.01 1117.34,-69.81 1117.55,-76.81"/>
</a>
</g>
</g>
<!-- Node33&#45;&gt;Node17 -->
<g id="edge49_Node000033_Node000017" class="edge">
<title>Node33&#45;&gt;Node17</title>
<g id="a_edge49_Node000033_Node000017"><a xlink:title=" ">
<path fill="none" stroke="#63b8ff" d="M106.99,-307.95C135.88,-296.68 176.03,-281.01 203.62,-270.25"/>
<polygon fill="#63b8ff" stroke="#63b8ff" points="205.13,-273.41 213.17,-266.52 202.59,-266.89 205.13,-273.41"/>
</a>
</g>
</g>
<!-- Node34&#45;&gt;Node5 -->
<g id="edge52_Node000034_Node000005" class="edge">
<title>Node34&#45;&gt;Node5</title>
<g id="a_edge52_Node000034_Node000005"><a xlink:title=" ">
<path fill="none" stroke="#63b8ff" d="M1426.08,-505.77C1430.62,-473.51 1441,-392.31 1441,-324 1441,-324 1441,-324 1441,-195.5 1441,-124.5 1356.81,-93.91 1288.57,-80.79"/>
<polygon fill="#63b8ff" stroke="#63b8ff" points="1289.1,-77.32 1278.63,-78.97 1287.84,-84.21 1289.1,-77.32"/>
</a>
</g>
</g>
<!-- Node34&#45;&gt;Node35 -->
<g id="edge53_Node000034_Node000035" class="edge">
<title>Node34&#45;&gt;Node35</title>
<g id="a_edge53_Node000034_Node000035"><a xlink:title=" ">
<path fill="none" stroke="#63b8ff" d="M1392.18,-505.95C1366.97,-494.83 1332.07,-479.42 1307.71,-468.67"/>
<polygon fill="#63b8ff" stroke="#63b8ff" points="1308.86,-465.35 1298.3,-464.52 1306.03,-471.76 1308.86,-465.35"/>
</a>
</g>
</g>
<!-- Node42 -->
<g id="Node000042" class="node">
<title>Node42</title>
<g id="a_Node000042"><a xlink:title=" ">
<polygon fill="#e0e0e0" stroke="#999999" points="1529.5,-464.5 1452.5,-464.5 1452.5,-445.5 1529.5,-445.5 1529.5,-464.5"/>
<text text-anchor="middle" x="1491" y="-452.5" font-family="Helvetica,sans-Serif" font-size="10.00">Eigen/Dense</text>
</a>
</g>
</g>
<!-- Node34&#45;&gt;Node42 -->
<g id="edge60_Node000034_Node000042" class="edge">
<title>Node34&#45;&gt;Node42</title>
<g id="a_edge60_Node000034_Node000042"><a xlink:title=" ">
<path fill="none" stroke="#63b8ff" d="M1438.87,-505.8C1449.42,-495.72 1463.58,-482.19 1474.48,-471.78"/>
<polygon fill="#63b8ff" stroke="#63b8ff" points="1476.93,-474.28 1481.74,-464.84 1472.09,-469.22 1476.93,-474.28"/>
</a>
</g>
</g>
<!-- Node43 -->
<g id="Node000043" class="node">
<title>Node43</title>
<g id="a_Node000043"><a xlink:title=" ">
<polygon fill="#e0e0e0" stroke="#999999" points="1664.5,-464.5 1547.5,-464.5 1547.5,-445.5 1664.5,-445.5 1664.5,-464.5"/>
<text text-anchor="middle" x="1606" y="-452.5" font-family="Helvetica,sans-Serif" font-size="10.00">glm/gtc/type_ptr.hpp</text>
</a>
</g>
</g>
<!-- Node34&#45;&gt;Node43 -->
<g id="edge61_Node000034_Node000043" class="edge">
<title>Node34&#45;&gt;Node43</title>
<g id="a_edge61_Node000034_Node000043"><a xlink:title=" ">
<path fill="none" stroke="#63b8ff" d="M1463.94,-505.95C1496.28,-494.58 1541.34,-478.74 1571.98,-467.96"/>
<polygon fill="#63b8ff" stroke="#63b8ff" points="1573.51,-471.14 1581.78,-464.52 1571.18,-464.53 1573.51,-471.14"/>
</a>
</g>
</g>
<!-- Node36 -->
<g id="Node000036" class="node">
<title>Node36</title>
<g id="a_Node000036"><a xlink:href="Format_8hpp.html" target="_top" xlink:title=" ">
<polygon fill="white" stroke="#666666" points="1299,-398.5 1227,-398.5 1227,-379.5 1299,-379.5 1299,-398.5"/>
<text text-anchor="middle" x="1263" y="-386.5" font-family="Helvetica,sans-Serif" font-size="10.00">Format.hpp</text>
</a>
</g>
</g>
<!-- Node35&#45;&gt;Node36 -->
<g id="edge54_Node000035_Node000036" class="edge">
<title>Node35&#45;&gt;Node36</title>
<g id="a_edge54_Node000035_Node000036"><a xlink:title=" ">
<path fill="none" stroke="#63b8ff" d="M1276.84,-445.37C1274.52,-436.07 1270.74,-420.98 1267.72,-408.9"/>
<polygon fill="#63b8ff" stroke="#63b8ff" points="1271.05,-407.76 1265.23,-398.91 1264.26,-409.46 1271.05,-407.76"/>
</a>
</g>
</g>
<!-- Node37 -->
<g id="Node000037" class="node">
<title>Node37</title>
<g id="a_Node000037"><a xlink:href="JournalEntry_8hpp.html" target="_top" xlink:title=" ">
<polygon fill="white" stroke="#666666" points="1412.5,-398.5 1317.5,-398.5 1317.5,-379.5 1412.5,-379.5 1412.5,-398.5"/>
<text text-anchor="middle" x="1365" y="-386.5" font-family="Helvetica,sans-Serif" font-size="10.00">JournalEntry.hpp</text>
</a>
</g>
</g>
<!-- Node35&#45;&gt;Node37 -->
<g id="edge55_Node000035_Node000037" class="edge">
<title>Node35&#45;&gt;Node37</title>
<g id="a_edge55_Node000035_Node000037"><a xlink:title=" ">
<path fill="none" stroke="#63b8ff" d="M1290.6,-445.37C1304.58,-434.97 1328.29,-417.32 1345.18,-404.75"/>
<polygon fill="#63b8ff" stroke="#63b8ff" points="1347.38,-407.48 1353.31,-398.7 1343.2,-401.86 1347.38,-407.48"/>
</a>
</g>
</g>
<!-- Node38 -->
<g id="Node000038" class="node">
<title>Node38</title>
<g id="a_Node000038"><a xlink:href="EnumReflect_8hpp.html" target="_top" xlink:title=" ">
<polygon fill="white" stroke="#666666" points="1344.5,-338 1205.5,-338 1205.5,-308 1344.5,-308 1344.5,-338"/>
<text text-anchor="start" x="1213.5" y="-326" font-family="Helvetica,sans-Serif" font-size="10.00">MayaFlux/Transitive</text>
<text text-anchor="middle" x="1275" y="-315" font-family="Helvetica,sans-Serif" font-size="10.00">/Reflect/EnumReflect.hpp</text>
</a>
</g>
</g>
<!-- Node37&#45;&gt;Node38 -->
<g id="edge56_Node000037_Node000038" class="edge">
<title>Node37&#45;&gt;Node38</title>
<g id="a_edge56_Node000037_Node000038"><a xlink:title=" ">
<path fill="none" stroke="#63b8ff" d="M1352.86,-379.37C1340.2,-370.36 1319.89,-355.92 1303.19,-344.05"/>
<polygon fill="#63b8ff" stroke="#63b8ff" points="1305.03,-341.06 1294.85,-338.12 1300.97,-346.76 1305.03,-341.06"/>
</a>
</g>
</g>
<!-- Node39 -->
<g id="Node000039" class="node">
<title>Node39</title>
<g id="a_Node000039"><a xlink:title=" ">
<polygon fill="#e0e0e0" stroke="#999999" points="1413,-332.5 1363,-332.5 1363,-313.5 1413,-313.5 1413,-332.5"/>
<text text-anchor="middle" x="1388" y="-320.5" font-family="Helvetica,sans-Serif" font-size="10.00">chrono</text>
</a>
</g>
</g>
<!-- Node37&#45;&gt;Node39 -->
<g id="edge57_Node000037_Node000039" class="edge">
<title>Node37&#45;&gt;Node39</title>
<g id="a_edge57_Node000037_Node000039"><a xlink:title=" ">
<path fill="none" stroke="#63b8ff" d="M1368.1,-379.37C1371.48,-369.97 1376.98,-354.67 1381.34,-342.53"/>
<polygon fill="#63b8ff" stroke="#63b8ff" points="1384.71,-343.5 1384.8,-332.91 1378.12,-341.13 1384.71,-343.5"/>
</a>
</g>
</g>
<!-- Node40 -->
<g id="Node000040" class="node">
<title>Node40</title>
<g id="a_Node000040"><a xlink:title=" ">
<polygon fill="#e0e0e0" stroke="#999999" points="1096.5,-332.5 1003.5,-332.5 1003.5,-313.5 1096.5,-313.5 1096.5,-332.5"/>
<text text-anchor="middle" x="1050" y="-320.5" font-family="Helvetica,sans-Serif" font-size="10.00">source_location</text>
</a>
</g>
</g>
<!-- Node37&#45;&gt;Node40 -->
<g id="edge58_Node000037_Node000040" class="edge">
<title>Node37&#45;&gt;Node40</title>
<g id="a_edge58_Node000037_Node000040"><a xlink:title=" ">
<path fill="none" stroke="#63b8ff" d="M1331.93,-379.49C1324.11,-377.58 1315.78,-375.64 1308,-374 1218.35,-355.06 1194.57,-357.31 1105,-338 1100.66,-337.06 1096.14,-336.02 1091.64,-334.94"/>
<polygon fill="#63b8ff" stroke="#63b8ff" points="1092.44,-331.54 1081.9,-332.54 1090.77,-338.33 1092.44,-331.54"/>
</a>
</g>
</g>
<!-- Node41 -->
<g id="Node000041" class="node">
<title>Node41</title>
<g id="a_Node000041"><a xlink:title=" ">
<polygon fill="#e0e0e0" stroke="#999999" points="1187.5,-332.5 1114.5,-332.5 1114.5,-313.5 1187.5,-313.5 1187.5,-332.5"/>
<text text-anchor="middle" x="1151" y="-320.5" font-family="Helvetica,sans-Serif" font-size="10.00">string_view</text>
</a>
</g>
</g>
<!-- Node37&#45;&gt;Node41 -->
<g id="edge59_Node000037_Node000041" class="edge">
<title>Node37&#45;&gt;Node41</title>
<g id="a_edge59_Node000037_Node000041"><a xlink:title=" ">
<path fill="none" stroke="#63b8ff" d="M1335.65,-379.45C1301.92,-369.59 1244.9,-352.84 1196,-338 1193.37,-337.2 1190.67,-336.38 1187.94,-335.54"/>
<polygon fill="#63b8ff" stroke="#63b8ff" points="1188.7,-332.11 1178.11,-332.5 1186.63,-338.8 1188.7,-332.11"/>
</a>
</g>
</g>
</g>
</svg>
