<?xml version="1.0" encoding="UTF-8" standalone="no"?>
<!DOCTYPE svg PUBLIC "-//W3C//DTD SVG 1.1//EN"
 "http://www.w3.org/Graphics/SVG/1.1/DTD/svg11.dtd">
<!-- Generated by graphviz version 2.43.0 (0)
 -->
<!-- Title: SoundStreamContainer.cpp Pages: 1 -->
<svg width="1221pt" height="478pt"
 viewBox="0.00 0.00 1220.50 478.00" xmlns="http://www.w3.org/2000/svg" xmlns:xlink="http://www.w3.org/1999/xlink">
<g id="graph0" class="graph" transform="scale(1 1) rotate(0) translate(4 474)">
<title>SoundStreamContainer.cpp</title>
<!-- Node1 -->
<g id="Node000001" class="node">
<title>Node1</title>
<g id="a_Node000001"><a xlink:title=" ">
<polygon fill="#999999" stroke="#666666" points="752.5,-470 603.5,-470 603.5,-451 752.5,-451 752.5,-470"/>
<text text-anchor="middle" x="678" y="-458" font-family="Helvetica,sans-Serif" font-size="10.00">SoundStreamContainer.cpp</text>
</a>
</g>
</g>
<!-- Node2 -->
<g id="Node000002" class="node">
<title>Node2</title>
<g id="a_Node000002"><a xlink:href="SoundStreamContainer_8hpp.html" target="_top" xlink:title=" ">
<polygon fill="white" stroke="#666666" points="346.5,-343.5 197.5,-343.5 197.5,-324.5 346.5,-324.5 346.5,-343.5"/>
<text text-anchor="middle" x="272" y="-331.5" font-family="Helvetica,sans-Serif" font-size="10.00">SoundStreamContainer.hpp</text>
</a>
</g>
</g>
<!-- Node1&#45;&gt;Node2 -->
<g id="edge1_Node000001_Node000002" class="edge">
<title>Node1&#45;&gt;Node2</title>
<g id="a_edge1_Node000001_Node000002"><a xlink:title=" ">
<path fill="none" stroke="#63b8ff" d="M650.09,-450.94C578.88,-429.1 390.35,-371.29 309.59,-346.53"/>
<polygon fill="#63b8ff" stroke="#63b8ff" points="310.42,-343.12 299.83,-343.53 308.37,-349.81 310.42,-343.12"/>
</a>
</g>
</g>
<!-- Node10 -->
<g id="Node000010" class="node">
<title>Node10</title>
<g id="a_Node000010"><a xlink:href="KakshyaUtils_8hpp.html" target="_top" xlink:title=" ">
<polygon fill="white" stroke="#666666" points="702.5,-415 547.5,-415 547.5,-385 702.5,-385 702.5,-415"/>
<text text-anchor="start" x="555.5" y="-403" font-family="Helvetica,sans-Serif" font-size="10.00">MayaFlux/Kakshya/Kakshya</text>
<text text-anchor="middle" x="625" y="-392" font-family="Helvetica,sans-Serif" font-size="10.00">Utils.hpp</text>
</a>
</g>
</g>
<!-- Node1&#45;&gt;Node10 -->
<g id="edge10_Node000001_Node000010" class="edge">
<title>Node1&#45;&gt;Node10</title>
<g id="a_edge10_Node000001_Node000010"><a xlink:title=" ">
<path fill="none" stroke="#63b8ff" d="M670.18,-450.87C663.45,-443.44 653.46,-432.42 644.59,-422.62"/>
<polygon fill="#63b8ff" stroke="#63b8ff" points="647.1,-420.18 637.79,-415.11 641.91,-424.88 647.1,-420.18"/>
</a>
</g>
</g>
<!-- Node26 -->
<g id="Node000026" class="node">
<title>Node26</title>
<g id="a_Node000026"><a xlink:href="DataAccess_8hpp.html" target="_top" xlink:title=" ">
<polygon fill="white" stroke="#666666" points="1212.5,-349 1061.5,-349 1061.5,-319 1212.5,-319 1212.5,-349"/>
<text text-anchor="start" x="1069.5" y="-337" font-family="Helvetica,sans-Serif" font-size="10.00">MayaFlux/Kakshya/NDData</text>
<text text-anchor="middle" x="1137" y="-326" font-family="Helvetica,sans-Serif" font-size="10.00">/DataAccess.hpp</text>
</a>
</g>
</g>
<!-- Node1&#45;&gt;Node26 -->
<g id="edge33_Node000001_Node000026" class="edge">
<title>Node1&#45;&gt;Node26</title>
<g id="a_edge33_Node000001_Node000026"><a xlink:title=" ">
<path fill="none" stroke="#63b8ff" d="M709.55,-450.94C784.84,-430.52 976.13,-378.64 1075.29,-351.74"/>
<polygon fill="#63b8ff" stroke="#63b8ff" points="1076.43,-355.05 1085.17,-349.06 1074.6,-348.3 1076.43,-355.05"/>
</a>
</g>
</g>
<!-- Node27 -->
<g id="Node000027" class="node">
<title>Node27</title>
<g id="a_Node000027"><a xlink:href="ContiguousAccessProcessor_8hpp.html" target="_top" xlink:title=" ">
<polygon fill="white" stroke="#666666" points="685,-217 509,-217 509,-187 685,-187 685,-217"/>
<text text-anchor="start" x="517" y="-205" font-family="Helvetica,sans-Serif" font-size="10.00">MayaFlux/Kakshya/Processors</text>
<text text-anchor="middle" x="597" y="-194" font-family="Helvetica,sans-Serif" font-size="10.00">/ContiguousAccessProcessor.hpp</text>
</a>
</g>
</g>
<!-- Node1&#45;&gt;Node27 -->
<g id="edge37_Node000001_Node000027" class="edge">
<title>Node1&#45;&gt;Node27</title>
<g id="a_edge37_Node000001_Node000027"><a xlink:title=" ">
<path fill="none" stroke="#63b8ff" d="M686.72,-450.85C694.57,-442.48 705.65,-429.02 711,-415 736.73,-347.54 763.56,-312.73 723,-253 713.22,-238.6 698.57,-228.34 682.68,-221.04"/>
<polygon fill="#63b8ff" stroke="#63b8ff" points="683.79,-217.71 673.21,-217.08 681.08,-224.17 683.79,-217.71"/>
</a>
</g>
</g>
<!-- Node3 -->
<g id="Node000003" class="node">
<title>Node3</title>
<g id="a_Node000003"><a xlink:href="RegionGroup_8hpp.html" target="_top" xlink:title=" ">
<polygon fill="white" stroke="#666666" points="146,-283 0,-283 0,-253 146,-253 146,-283"/>
<text text-anchor="start" x="8" y="-271" font-family="Helvetica,sans-Serif" font-size="10.00">MayaFlux/Kakshya/Region</text>
<text text-anchor="middle" x="73" y="-260" font-family="Helvetica,sans-Serif" font-size="10.00">/RegionGroup.hpp</text>
</a>
</g>
</g>
<!-- Node2&#45;&gt;Node3 -->
<g id="edge2_Node000002_Node000003" class="edge">
<title>Node2&#45;&gt;Node3</title>
<g id="a_edge2_Node000002_Node000003"><a xlink:title=" ">
<path fill="none" stroke="#63b8ff" d="M245.16,-324.37C214.97,-314.66 165.16,-298.64 126.86,-286.32"/>
<polygon fill="#63b8ff" stroke="#63b8ff" points="127.48,-282.85 116.89,-283.12 125.34,-289.51 127.48,-282.85"/>
</a>
</g>
</g>
<!-- Node7 -->
<g id="Node000007" class="node">
<title>Node7</title>
<g id="a_Node000007"><a xlink:href="StreamContainer_8hpp.html" target="_top" xlink:title=" ">
<polygon fill="white" stroke="#666666" points="379.5,-277.5 164.5,-277.5 164.5,-258.5 379.5,-258.5 379.5,-277.5"/>
<text text-anchor="middle" x="272" y="-265.5" font-family="Helvetica,sans-Serif" font-size="10.00">MayaFlux/Kakshya/StreamContainer.hpp</text>
</a>
</g>
</g>
<!-- Node2&#45;&gt;Node7 -->
<g id="edge6_Node000002_Node000007" class="edge">
<title>Node2&#45;&gt;Node7</title>
<g id="a_edge6_Node000002_Node000007"><a xlink:title=" ">
<path fill="none" stroke="#63b8ff" d="M272,-324.37C272,-315.16 272,-300.29 272,-288.27"/>
<polygon fill="#63b8ff" stroke="#63b8ff" points="275.5,-287.91 272,-277.91 268.5,-287.91 275.5,-287.91"/>
</a>
</g>
</g>
<!-- Node4 -->
<g id="Node000004" class="node">
<title>Node4</title>
<g id="a_Node000004"><a xlink:href="Region_8hpp.html" target="_top" xlink:title=" ">
<polygon fill="white" stroke="#666666" points="201.5,-145.5 130.5,-145.5 130.5,-126.5 201.5,-126.5 201.5,-145.5"/>
<text text-anchor="middle" x="166" y="-133.5" font-family="Helvetica,sans-Serif" font-size="10.00">Region.hpp</text>
</a>
</g>
</g>
<!-- Node3&#45;&gt;Node4 -->
<g id="edge3_Node000003_Node000004" class="edge">
<title>Node3&#45;&gt;Node4</title>
<g id="a_edge3_Node000003_Node000004"><a xlink:title=" ">
<path fill="none" stroke="#63b8ff" d="M83.13,-252.84C100.32,-228.81 135.14,-180.13 153.7,-154.19"/>
<polygon fill="#63b8ff" stroke="#63b8ff" points="156.77,-155.92 159.74,-145.75 151.08,-151.84 156.77,-155.92"/>
</a>
</g>
</g>
<!-- Node5 -->
<g id="Node000005" class="node">
<title>Node5</title>
<g id="a_Node000005"><a xlink:href="NDData_8hpp.html" target="_top" xlink:title=" ">
<polygon fill="white" stroke="#666666" points="748.5,-85 597.5,-85 597.5,-55 748.5,-55 748.5,-85"/>
<text text-anchor="start" x="605.5" y="-73" font-family="Helvetica,sans-Serif" font-size="10.00">MayaFlux/Kakshya/NDData</text>
<text text-anchor="middle" x="673" y="-62" font-family="Helvetica,sans-Serif" font-size="10.00">/NDData.hpp</text>
</a>
</g>
</g>
<!-- Node4&#45;&gt;Node5 -->
<g id="edge4_Node000004_Node000005" class="edge">
<title>Node4&#45;&gt;Node5</title>
<g id="a_edge4_Node000004_Node000005"><a xlink:title=" ">
<path fill="none" stroke="#63b8ff" d="M189.97,-126.41C196.41,-124.37 203.41,-122.39 210,-121 339.82,-93.63 493.45,-80.8 587.03,-75.12"/>
<polygon fill="#63b8ff" stroke="#63b8ff" points="587.52,-78.6 597.29,-74.51 587.1,-71.61 587.52,-78.6"/>
</a>
</g>
</g>
<!-- Node6 -->
<g id="Node000006" class="node">
<title>Node6</title>
<g id="a_Node000006"><a xlink:title=" ">
<polygon fill="#e0e0e0" stroke="#999999" points="712,-19 634,-19 634,0 712,0 712,-19"/>
<text text-anchor="middle" x="673" y="-7" font-family="Helvetica,sans-Serif" font-size="10.00">glm/glm.hpp</text>
</a>
</g>
</g>
<!-- Node5&#45;&gt;Node6 -->
<g id="edge5_Node000005_Node000006" class="edge">
<title>Node5&#45;&gt;Node6</title>
<g id="a_edge5_Node000005_Node000006"><a xlink:title=" ">
<path fill="none" stroke="#63b8ff" d="M673,-54.84C673,-47.21 673,-37.7 673,-29.45"/>
<polygon fill="#63b8ff" stroke="#63b8ff" points="676.5,-29.27 673,-19.27 669.5,-29.27 676.5,-29.27"/>
</a>
</g>
</g>
<!-- Node8 -->
<g id="Node000008" class="node">
<title>Node8</title>
<g id="a_Node000008"><a xlink:href="SignalSourceContainer_8hpp.html" target="_top" xlink:title=" ">
<polygon fill="white" stroke="#666666" points="357.5,-211.5 210.5,-211.5 210.5,-192.5 357.5,-192.5 357.5,-211.5"/>
<text text-anchor="middle" x="284" y="-199.5" font-family="Helvetica,sans-Serif" font-size="10.00">SignalSourceContainer.hpp</text>
</a>
</g>
</g>
<!-- Node7&#45;&gt;Node8 -->
<g id="edge7_Node000007_Node000008" class="edge">
<title>Node7&#45;&gt;Node8</title>
<g id="a_edge7_Node000007_Node000008"><a xlink:title=" ">
<path fill="none" stroke="#63b8ff" d="M273.62,-258.37C275.36,-249.07 278.19,-233.98 280.46,-221.9"/>
<polygon fill="#63b8ff" stroke="#63b8ff" points="283.93,-222.38 282.33,-211.91 277.05,-221.09 283.93,-222.38"/>
</a>
</g>
</g>
<!-- Node9 -->
<g id="Node000009" class="node">
<title>Node9</title>
<g id="a_Node000009"><a xlink:href="NDimensionalContainer_8hpp.html" target="_top" xlink:title=" ">
<polygon fill="white" stroke="#666666" points="372.5,-145.5 219.5,-145.5 219.5,-126.5 372.5,-126.5 372.5,-145.5"/>
<text text-anchor="middle" x="296" y="-133.5" font-family="Helvetica,sans-Serif" font-size="10.00">NDimensionalContainer.hpp</text>
</a>
</g>
</g>
<!-- Node8&#45;&gt;Node9 -->
<g id="edge8_Node000008_Node000009" class="edge">
<title>Node8&#45;&gt;Node9</title>
<g id="a_edge8_Node000008_Node000009"><a xlink:title=" ">
<path fill="none" stroke="#63b8ff" d="M285.62,-192.37C287.36,-183.07 290.19,-167.98 292.46,-155.9"/>
<polygon fill="#63b8ff" stroke="#63b8ff" points="295.93,-156.38 294.33,-145.91 289.05,-155.09 295.93,-156.38"/>
</a>
</g>
</g>
<!-- Node9&#45;&gt;Node5 -->
<g id="edge9_Node000009_Node000005" class="edge">
<title>Node9&#45;&gt;Node5</title>
<g id="a_edge9_Node000009_Node000005"><a xlink:title=" ">
<path fill="none" stroke="#63b8ff" d="M346.45,-126.44C407.97,-115.99 512.9,-98.18 587.19,-85.57"/>
<polygon fill="#63b8ff" stroke="#63b8ff" points="588.19,-88.95 597.46,-83.82 587.02,-82.05 588.19,-88.95"/>
</a>
</g>
</g>
<!-- Node11 -->
<g id="Node000011" class="node">
<title>Node11</title>
<g id="a_Node000011"><a xlink:href="ContainerUtils_8hpp.html" target="_top" xlink:title=" ">
<polygon fill="white" stroke="#666666" points="500.5,-343.5 367.5,-343.5 367.5,-324.5 500.5,-324.5 500.5,-343.5"/>
<text text-anchor="middle" x="434" y="-331.5" font-family="Helvetica,sans-Serif" font-size="10.00">Utils/ContainerUtils.hpp</text>
</a>
</g>
</g>
<!-- Node10&#45;&gt;Node11 -->
<g id="edge11_Node000010_Node000011" class="edge">
<title>Node10&#45;&gt;Node11</title>
<g id="a_edge11_Node000010_Node000011"><a xlink:title=" ">
<path fill="none" stroke="#63b8ff" d="M583.08,-384.95C549,-373.53 501.45,-357.6 469.28,-346.82"/>
<polygon fill="#63b8ff" stroke="#63b8ff" points="470.01,-343.38 459.42,-343.52 467.79,-350.01 470.01,-343.38"/>
</a>
</g>
</g>
<!-- Node12 -->
<g id="Node000012" class="node">
<title>Node12</title>
<g id="a_Node000012"><a xlink:href="CoordUtils_8hpp.html" target="_top" xlink:title=" ">
<polygon fill="white" stroke="#666666" points="550,-277.5 436,-277.5 436,-258.5 550,-258.5 550,-277.5"/>
<text text-anchor="middle" x="493" y="-265.5" font-family="Helvetica,sans-Serif" font-size="10.00">Utils/CoordUtils.hpp</text>
</a>
</g>
</g>
<!-- Node10&#45;&gt;Node12 -->
<g id="edge13_Node000010_Node000012" class="edge">
<title>Node10&#45;&gt;Node12</title>
<g id="a_edge13_Node000010_Node000012"><a xlink:title=" ">
<path fill="none" stroke="#63b8ff" d="M602.35,-384.9C588.26,-375.59 570.19,-362.63 556,-349 535.56,-329.36 516.02,-302.95 504.26,-285.95"/>
<polygon fill="#63b8ff" stroke="#63b8ff" points="507.09,-283.88 498.57,-277.57 501.29,-287.81 507.09,-283.88"/>
</a>
</g>
</g>
<!-- Node13 -->
<g id="Node000013" class="node">
<title>Node13</title>
<g id="a_Node000013"><a xlink:href="DataUtils_8hpp.html" target="_top" xlink:title=" ">
<polygon fill="white" stroke="#666666" points="1043.5,-343.5 934.5,-343.5 934.5,-324.5 1043.5,-324.5 1043.5,-343.5"/>
<text text-anchor="middle" x="989" y="-331.5" font-family="Helvetica,sans-Serif" font-size="10.00">Utils/DataUtils.hpp</text>
</a>
</g>
</g>
<!-- Node10&#45;&gt;Node13 -->
<g id="edge15_Node000010_Node000013" class="edge">
<title>Node10&#45;&gt;Node13</title>
<g id="a_edge15_Node000010_Node000013"><a xlink:title=" ">
<path fill="none" stroke="#63b8ff" d="M702.64,-385.35C770.88,-373.35 868.67,-356.16 930.49,-345.29"/>
<polygon fill="#63b8ff" stroke="#63b8ff" points="931.23,-348.71 940.47,-343.53 930.01,-341.82 931.23,-348.71"/>
</a>
</g>
</g>
<!-- Node23 -->
<g id="Node000023" class="node">
<title>Node23</title>
<g id="a_Node000023"><a xlink:href="RegionUtils_8hpp.html" target="_top" xlink:title=" ">
<polygon fill="white" stroke="#666666" points="684.5,-343.5 565.5,-343.5 565.5,-324.5 684.5,-324.5 684.5,-343.5"/>
<text text-anchor="middle" x="625" y="-331.5" font-family="Helvetica,sans-Serif" font-size="10.00">Utils/RegionUtils.hpp</text>
</a>
</g>
</g>
<!-- Node10&#45;&gt;Node23 -->
<g id="edge26_Node000010_Node000023" class="edge">
<title>Node10&#45;&gt;Node23</title>
<g id="a_edge26_Node000010_Node000023"><a xlink:title=" ">
<path fill="none" stroke="#63b8ff" d="M625,-384.8C625,-375.7 625,-363.79 625,-353.9"/>
<polygon fill="#63b8ff" stroke="#63b8ff" points="628.5,-353.84 625,-343.84 621.5,-353.84 628.5,-353.84"/>
</a>
</g>
</g>
<!-- Node11&#45;&gt;Node8 -->
<g id="edge12_Node000011_Node000008" class="edge">
<title>Node11&#45;&gt;Node8</title>
<g id="a_edge12_Node000011_Node000008"><a xlink:title=" ">
<path fill="none" stroke="#63b8ff" d="M431.04,-324.43C425.14,-308.47 410.54,-273.94 388,-253 369.29,-235.62 343.42,-223.15 322.17,-215.01"/>
<polygon fill="#63b8ff" stroke="#63b8ff" points="323.37,-211.72 312.77,-211.57 320.96,-218.3 323.37,-211.72"/>
</a>
</g>
</g>
<!-- Node12&#45;&gt;Node8 -->
<g id="edge14_Node000012_Node000008" class="edge">
<title>Node12&#45;&gt;Node8</title>
<g id="a_edge14_Node000012_Node000008"><a xlink:title=" ">
<path fill="none" stroke="#63b8ff" d="M464.81,-258.37C427.86,-247.05 362.91,-227.16 321.74,-214.56"/>
<polygon fill="#63b8ff" stroke="#63b8ff" points="322.66,-211.18 312.07,-211.6 320.61,-217.87 322.66,-211.18"/>
</a>
</g>
</g>
<!-- Node13&#45;&gt;Node5 -->
<g id="edge16_Node000013_Node000005" class="edge">
<title>Node13&#45;&gt;Node5</title>
<g id="a_edge16_Node000013_Node000005"><a xlink:title=" ">
<path fill="none" stroke="#63b8ff" d="M999.67,-324.37C1009.94,-315.31 1024.79,-300.04 1031,-283 1055.64,-215.35 1078.26,-175.32 1031,-121 996.42,-81.26 853.23,-72.14 758.76,-70.57"/>
<polygon fill="#63b8ff" stroke="#63b8ff" points="758.68,-67.07 748.63,-70.43 758.58,-74.07 758.68,-67.07"/>
</a>
</g>
</g>
<!-- Node14 -->
<g id="Node000014" class="node">
<title>Node14</title>
<g id="a_Node000014"><a xlink:href="Archivist_8hpp.html" target="_top" xlink:title=" ">
<polygon fill="white" stroke="#666666" points="938,-277.5 770,-277.5 770,-258.5 938,-258.5 938,-277.5"/>
<text text-anchor="middle" x="854" y="-265.5" font-family="Helvetica,sans-Serif" font-size="10.00">MayaFlux/Journal/Archivist.hpp</text>
</a>
</g>
</g>
<!-- Node13&#45;&gt;Node14 -->
<g id="edge17_Node000013_Node000014" class="edge">
<title>Node13&#45;&gt;Node14</title>
<g id="a_edge17_Node000013_Node000014"><a xlink:title=" ">
<path fill="none" stroke="#63b8ff" d="M970.79,-324.37C947.85,-313.49 908.19,-294.69 881.53,-282.05"/>
<polygon fill="#63b8ff" stroke="#63b8ff" points="882.88,-278.82 872.35,-277.7 879.89,-285.15 882.88,-278.82"/>
</a>
</g>
</g>
<!-- Node21 -->
<g id="Node000021" class="node">
<title>Node21</title>
<g id="a_Node000021"><a xlink:title=" ">
<polygon fill="#e0e0e0" stroke="#999999" points="1195.5,-277.5 1078.5,-277.5 1078.5,-258.5 1195.5,-258.5 1195.5,-277.5"/>
<text text-anchor="middle" x="1137" y="-265.5" font-family="Helvetica,sans-Serif" font-size="10.00">glm/gtc/type_ptr.hpp</text>
</a>
</g>
</g>
<!-- Node13&#45;&gt;Node21 -->
<g id="edge24_Node000013_Node000021" class="edge">
<title>Node13&#45;&gt;Node21</title>
<g id="a_edge24_Node000013_Node000021"><a xlink:title=" ">
<path fill="none" stroke="#63b8ff" d="M1008.96,-324.37C1034.34,-313.39 1078.36,-294.36 1107.59,-281.72"/>
<polygon fill="#63b8ff" stroke="#63b8ff" points="1109.09,-284.88 1116.88,-277.7 1106.32,-278.46 1109.09,-284.88"/>
</a>
</g>
</g>
<!-- Node22 -->
<g id="Node000022" class="node">
<title>Node22</title>
<g id="a_Node000022"><a xlink:title=" ">
<polygon fill="#e0e0e0" stroke="#999999" points="1021.5,-277.5 956.5,-277.5 956.5,-258.5 1021.5,-258.5 1021.5,-277.5"/>
<text text-anchor="middle" x="989" y="-265.5" font-family="Helvetica,sans-Serif" font-size="10.00">typeindex</text>
</a>
</g>
</g>
<!-- Node13&#45;&gt;Node22 -->
<g id="edge25_Node000013_Node000022" class="edge">
<title>Node13&#45;&gt;Node22</title>
<g id="a_edge25_Node000013_Node000022"><a xlink:title=" ">
<path fill="none" stroke="#63b8ff" d="M989,-324.37C989,-315.16 989,-300.29 989,-288.27"/>
<polygon fill="#63b8ff" stroke="#63b8ff" points="992.5,-287.91 989,-277.91 985.5,-287.91 992.5,-287.91"/>
</a>
</g>
</g>
<!-- Node15 -->
<g id="Node000015" class="node">
<title>Node15</title>
<g id="a_Node000015"><a xlink:href="Format_8hpp.html" target="_top" xlink:title=" ">
<polygon fill="white" stroke="#666666" points="803,-211.5 731,-211.5 731,-192.5 803,-192.5 803,-211.5"/>
<text text-anchor="middle" x="767" y="-199.5" font-family="Helvetica,sans-Serif" font-size="10.00">Format.hpp</text>
</a>
</g>
</g>
<!-- Node14&#45;&gt;Node15 -->
<g id="edge18_Node000014_Node000015" class="edge">
<title>Node14&#45;&gt;Node15</title>
<g id="a_edge18_Node000014_Node000015"><a xlink:title=" ">
<path fill="none" stroke="#63b8ff" d="M842.27,-258.37C828.13,-247.97 804.14,-230.32 787.05,-217.75"/>
<polygon fill="#63b8ff" stroke="#63b8ff" points="788.95,-214.81 778.83,-211.7 784.81,-220.44 788.95,-214.81"/>
</a>
</g>
</g>
<!-- Node16 -->
<g id="Node000016" class="node">
<title>Node16</title>
<g id="a_Node000016"><a xlink:href="JournalEntry_8hpp.html" target="_top" xlink:title=" ">
<polygon fill="white" stroke="#666666" points="916.5,-211.5 821.5,-211.5 821.5,-192.5 916.5,-192.5 916.5,-211.5"/>
<text text-anchor="middle" x="869" y="-199.5" font-family="Helvetica,sans-Serif" font-size="10.00">JournalEntry.hpp</text>
</a>
</g>
</g>
<!-- Node14&#45;&gt;Node16 -->
<g id="edge19_Node000014_Node000016" class="edge">
<title>Node14&#45;&gt;Node16</title>
<g id="a_edge19_Node000014_Node000016"><a xlink:title=" ">
<path fill="none" stroke="#63b8ff" d="M856.02,-258.37C858.2,-249.07 861.74,-233.98 864.57,-221.9"/>
<polygon fill="#63b8ff" stroke="#63b8ff" points="868.04,-222.44 866.91,-211.91 861.22,-220.84 868.04,-222.44"/>
</a>
</g>
</g>
<!-- Node17 -->
<g id="Node000017" class="node">
<title>Node17</title>
<g id="a_Node000017"><a xlink:href="EnumReflect_8hpp.html" target="_top" xlink:title=" ">
<polygon fill="white" stroke="#666666" points="841.5,-151 702.5,-151 702.5,-121 841.5,-121 841.5,-151"/>
<text text-anchor="start" x="710.5" y="-139" font-family="Helvetica,sans-Serif" font-size="10.00">MayaFlux/Transitive</text>
<text text-anchor="middle" x="772" y="-128" font-family="Helvetica,sans-Serif" font-size="10.00">/Reflect/EnumReflect.hpp</text>
</a>
</g>
</g>
<!-- Node16&#45;&gt;Node17 -->
<g id="edge20_Node000016_Node000017" class="edge">
<title>Node16&#45;&gt;Node17</title>
<g id="a_edge20_Node000016_Node000017"><a xlink:title=" ">
<path fill="none" stroke="#63b8ff" d="M855.92,-192.37C842.14,-183.28 819.98,-168.66 801.89,-156.72"/>
<polygon fill="#63b8ff" stroke="#63b8ff" points="803.67,-153.7 793.39,-151.12 799.81,-159.54 803.67,-153.7"/>
</a>
</g>
</g>
<!-- Node18 -->
<g id="Node000018" class="node">
<title>Node18</title>
<g id="a_Node000018"><a xlink:title=" ">
<polygon fill="#e0e0e0" stroke="#999999" points="910,-145.5 860,-145.5 860,-126.5 910,-126.5 910,-145.5"/>
<text text-anchor="middle" x="885" y="-133.5" font-family="Helvetica,sans-Serif" font-size="10.00">chrono</text>
</a>
</g>
</g>
<!-- Node16&#45;&gt;Node18 -->
<g id="edge21_Node000016_Node000018" class="edge">
<title>Node16&#45;&gt;Node18</title>
<g id="a_edge21_Node000016_Node000018"><a xlink:title=" ">
<path fill="none" stroke="#63b8ff" d="M871.16,-192.37C873.48,-183.07 877.26,-167.98 880.28,-155.9"/>
<polygon fill="#63b8ff" stroke="#63b8ff" points="883.74,-156.46 882.77,-145.91 876.95,-154.76 883.74,-156.46"/>
</a>
</g>
</g>
<!-- Node19 -->
<g id="Node000019" class="node">
<title>Node19</title>
<g id="a_Node000019"><a xlink:title=" ">
<polygon fill="#e0e0e0" stroke="#999999" points="1021.5,-145.5 928.5,-145.5 928.5,-126.5 1021.5,-126.5 1021.5,-145.5"/>
<text text-anchor="middle" x="975" y="-133.5" font-family="Helvetica,sans-Serif" font-size="10.00">source_location</text>
</a>
</g>
</g>
<!-- Node16&#45;&gt;Node19 -->
<g id="edge22_Node000016_Node000019" class="edge">
<title>Node16&#45;&gt;Node19</title>
<g id="a_edge22_Node000016_Node000019"><a xlink:title=" ">
<path fill="none" stroke="#63b8ff" d="M883.3,-192.37C900.92,-181.73 931.09,-163.51 951.99,-150.89"/>
<polygon fill="#63b8ff" stroke="#63b8ff" points="953.84,-153.86 960.59,-145.7 950.22,-147.87 953.84,-153.86"/>
</a>
</g>
</g>
<!-- Node20 -->
<g id="Node000020" class="node">
<title>Node20</title>
<g id="a_Node000020"><a xlink:title=" ">
<polygon fill="#e0e0e0" stroke="#999999" points="684.5,-145.5 611.5,-145.5 611.5,-126.5 684.5,-126.5 684.5,-145.5"/>
<text text-anchor="middle" x="648" y="-133.5" font-family="Helvetica,sans-Serif" font-size="10.00">string_view</text>
</a>
</g>
</g>
<!-- Node16&#45;&gt;Node20 -->
<g id="edge23_Node000016_Node000020" class="edge">
<title>Node16&#45;&gt;Node20</title>
<g id="a_edge23_Node000016_Node000020"><a xlink:title=" ">
<path fill="none" stroke="#63b8ff" d="M838.09,-192.47C802.89,-182.7 743.69,-166.08 693,-151 690.37,-150.22 687.66,-149.4 684.93,-148.57"/>
<polygon fill="#63b8ff" stroke="#63b8ff" points="685.68,-145.14 675.09,-145.55 683.63,-151.83 685.68,-145.14"/>
</a>
</g>
</g>
<!-- Node23&#45;&gt;Node3 -->
<g id="edge31_Node000023_Node000003" class="edge">
<title>Node23&#45;&gt;Node3</title>
<g id="a_edge31_Node000023_Node000003"><a xlink:title=" ">
<path fill="none" stroke="#63b8ff" d="M565.42,-325.59C547.31,-323.4 527.35,-321.04 509,-319 355.05,-301.88 313.4,-304.21 156.3,-283.12"/>
<polygon fill="#63b8ff" stroke="#63b8ff" points="156.66,-279.64 146.28,-281.76 155.72,-286.57 156.66,-279.64"/>
</a>
</g>
</g>
<!-- Node23&#45;&gt;Node12 -->
<g id="edge27_Node000023_Node000012" class="edge">
<title>Node23&#45;&gt;Node12</title>
<g id="a_edge27_Node000023_Node000012"><a xlink:title=" ">
<path fill="none" stroke="#63b8ff" d="M607.2,-324.37C584.86,-313.54 546.32,-294.85 520.26,-282.22"/>
<polygon fill="#63b8ff" stroke="#63b8ff" points="521.47,-278.91 510.94,-277.7 518.41,-285.21 521.47,-278.91"/>
</a>
</g>
</g>
<!-- Node23&#45;&gt;Node14 -->
<g id="edge32_Node000023_Node000014" class="edge">
<title>Node23&#45;&gt;Node14</title>
<g id="a_edge32_Node000023_Node000014"><a xlink:title=" ">
<path fill="none" stroke="#63b8ff" d="M655.88,-324.37C696.63,-312.98 768.44,-292.91 813.5,-280.32"/>
<polygon fill="#63b8ff" stroke="#63b8ff" points="814.55,-283.66 823.24,-277.6 812.67,-276.92 814.55,-283.66"/>
</a>
</g>
</g>
<!-- Node24 -->
<g id="Node000024" class="node">
<title>Node24</title>
<g id="a_Node000024"><a xlink:href="OrganizedRegion_8hpp.html" target="_top" xlink:title=" ">
<polygon fill="white" stroke="#666666" points="714,-283 568,-283 568,-253 714,-253 714,-283"/>
<text text-anchor="start" x="576" y="-271" font-family="Helvetica,sans-Serif" font-size="10.00">MayaFlux/Kakshya/Region</text>
<text text-anchor="middle" x="641" y="-260" font-family="Helvetica,sans-Serif" font-size="10.00">/OrganizedRegion.hpp</text>
</a>
</g>
</g>
<!-- Node23&#45;&gt;Node24 -->
<g id="edge28_Node000023_Node000024" class="edge">
<title>Node23&#45;&gt;Node24</title>
<g id="a_edge28_Node000023_Node000024"><a xlink:title=" ">
<path fill="none" stroke="#63b8ff" d="M627.16,-324.37C629.15,-316.4 632.2,-304.2 634.93,-293.27"/>
<polygon fill="#63b8ff" stroke="#63b8ff" points="638.38,-293.91 637.41,-283.36 631.59,-292.21 638.38,-293.91"/>
</a>
</g>
</g>
<!-- Node25 -->
<g id="Node000025" class="node">
<title>Node25</title>
<g id="a_Node000025"><a xlink:href="RegionSegment_8hpp.html" target="_top" xlink:title=" ">
<polygon fill="white" stroke="#666666" points="490.5,-211.5 375.5,-211.5 375.5,-192.5 490.5,-192.5 490.5,-211.5"/>
<text text-anchor="middle" x="433" y="-199.5" font-family="Helvetica,sans-Serif" font-size="10.00">RegionSegment.hpp</text>
</a>
</g>
</g>
<!-- Node24&#45;&gt;Node25 -->
<g id="edge29_Node000024_Node000025" class="edge">
<title>Node24&#45;&gt;Node25</title>
<g id="a_edge29_Node000024_Node000025"><a xlink:title=" ">
<path fill="none" stroke="#63b8ff" d="M595.35,-252.95C557.91,-241.43 505.55,-225.32 470.52,-214.54"/>
<polygon fill="#63b8ff" stroke="#63b8ff" points="471.27,-211.11 460.68,-211.52 469.21,-217.8 471.27,-211.11"/>
</a>
</g>
</g>
<!-- Node25&#45;&gt;Node4 -->
<g id="edge30_Node000025_Node000004" class="edge">
<title>Node25&#45;&gt;Node4</title>
<g id="a_edge30_Node000025_Node000004"><a xlink:title=" ">
<path fill="none" stroke="#63b8ff" d="M393,-192.47C338.58,-180.79 244.09,-160.23 210,-151 207.17,-150.23 204.25,-149.4 201.33,-148.54"/>
<polygon fill="#63b8ff" stroke="#63b8ff" points="202.07,-145.1 191.48,-145.52 200.02,-151.8 202.07,-145.1"/>
</a>
</g>
</g>
<!-- Node26&#45;&gt;Node5 -->
<g id="edge34_Node000026_Node000005" class="edge">
<title>Node26&#45;&gt;Node5</title>
<g id="a_edge34_Node000026_Node000005"><a xlink:title=" ">
<path fill="none" stroke="#63b8ff" d="M1167.46,-318.94C1181.62,-310.66 1197.06,-298.69 1205,-283 1211.02,-271.1 1210.51,-265.14 1205,-253 1168.15,-171.84 1135.23,-157.71 1054,-121 1002.9,-97.91 854.59,-83.58 758.8,-76.47"/>
<polygon fill="#63b8ff" stroke="#63b8ff" points="758.77,-72.96 748.54,-75.72 758.26,-79.94 758.77,-72.96"/>
</a>
</g>
</g>
<!-- Node26&#45;&gt;Node14 -->
<g id="edge36_Node000026_Node000014" class="edge">
<title>Node26&#45;&gt;Node14</title>
<g id="a_edge36_Node000026_Node000014"><a xlink:title=" ">
<path fill="none" stroke="#63b8ff" d="M1074.89,-318.95C1022.75,-307.16 949.34,-290.56 901.71,-279.79"/>
<polygon fill="#63b8ff" stroke="#63b8ff" points="902.19,-276.31 891.66,-277.52 900.64,-283.14 902.19,-276.31"/>
</a>
</g>
</g>
<!-- Node26&#45;&gt;Node21 -->
<g id="edge35_Node000026_Node000021" class="edge">
<title>Node26&#45;&gt;Node21</title>
<g id="a_edge35_Node000026_Node000021"><a xlink:title=" ">
<path fill="none" stroke="#63b8ff" d="M1137,-318.8C1137,-309.7 1137,-297.79 1137,-287.9"/>
<polygon fill="#63b8ff" stroke="#63b8ff" points="1140.5,-287.84 1137,-277.84 1133.5,-287.84 1140.5,-287.84"/>
</a>
</g>
</g>
<!-- Node27&#45;&gt;Node4 -->
<g id="edge40_Node000027_Node000004" class="edge">
<title>Node27&#45;&gt;Node4</title>
<g id="a_edge40_Node000027_Node000004"><a xlink:title=" ">
<path fill="none" stroke="#63b8ff" d="M508.86,-188.33C505.53,-187.88 502.24,-187.43 499,-187 370.7,-169.85 336.43,-178.74 210,-151 206.61,-150.26 203.11,-149.36 199.63,-148.39"/>
<polygon fill="#63b8ff" stroke="#63b8ff" points="200.57,-145.02 189.99,-145.51 198.57,-151.73 200.57,-145.02"/>
</a>
</g>
</g>
<!-- Node27&#45;&gt;Node9 -->
<g id="edge39_Node000027_Node000009" class="edge">
<title>Node27&#45;&gt;Node9</title>
<g id="a_edge39_Node000027_Node000009"><a xlink:title=" ">
<path fill="none" stroke="#63b8ff" d="M530.94,-186.95C475.25,-175.11 396.74,-158.42 346.11,-147.65"/>
<polygon fill="#63b8ff" stroke="#63b8ff" points="346.57,-144.17 336.06,-145.52 345.11,-151.02 346.57,-144.17"/>
</a>
</g>
</g>
<!-- Node28 -->
<g id="Node000028" class="node">
<title>Node28</title>
<g id="a_Node000028"><a xlink:href="DataProcessor_8hpp.html" target="_top" xlink:title=" ">
<polygon fill="white" stroke="#666666" points="593.5,-145.5 390.5,-145.5 390.5,-126.5 593.5,-126.5 593.5,-145.5"/>
<text text-anchor="middle" x="492" y="-133.5" font-family="Helvetica,sans-Serif" font-size="10.00">MayaFlux/Kakshya/DataProcessor.hpp</text>
</a>
</g>
</g>
<!-- Node27&#45;&gt;Node28 -->
<g id="edge38_Node000027_Node000028" class="edge">
<title>Node27&#45;&gt;Node28</title>
<g id="a_edge38_Node000027_Node000028"><a xlink:title=" ">
<path fill="none" stroke="#63b8ff" d="M573.96,-186.95C556.44,-176.27 532.44,-161.65 514.94,-150.98"/>
<polygon fill="#63b8ff" stroke="#63b8ff" points="516.33,-147.73 505.97,-145.52 512.69,-153.71 516.33,-147.73"/>
</a>
</g>
</g>
</g>
</svg>
