<?xml version="1.0" encoding="UTF-8" standalone="no"?>
<!DOCTYPE svg PUBLIC "-//W3C//DTD SVG 1.1//EN"
 "http://www.w3.org/Graphics/SVG/1.1/DTD/svg11.dtd">
<!-- Generated by graphviz version 2.43.0 (0)
 -->
<!-- Title: SoundFileReader.hpp Pages: 1 -->
<svg width="1261pt" height="599pt"
 viewBox="0.00 0.00 1261.06 599.00" xmlns="http://www.w3.org/2000/svg" xmlns:xlink="http://www.w3.org/1999/xlink">
<g id="graph0" class="graph" transform="scale(1 1) rotate(0) translate(4 595)">
<title>SoundFileReader.hpp</title>
<!-- Node1 -->
<g id="Node000001" class="node">
<title>Node1</title>
<g id="a_Node000001"><a xlink:title=" ">
<polygon fill="#999999" stroke="#666666" points="181.06,-591 62.06,-591 62.06,-572 181.06,-572 181.06,-591"/>
<text text-anchor="middle" x="121.56" y="-579" font-family="Helvetica,sans-Serif" font-size="10.00">SoundFileReader.hpp</text>
</a>
</g>
</g>
<!-- Node2 -->
<g id="Node000002" class="node">
<title>Node2</title>
<g id="a_Node000002"><a xlink:href="FileReader_8hpp.html" target="_top" xlink:title=" ">
<polygon fill="white" stroke="#666666" points="134.06,-398.5 45.06,-398.5 45.06,-379.5 134.06,-379.5 134.06,-398.5"/>
<text text-anchor="middle" x="89.56" y="-386.5" font-family="Helvetica,sans-Serif" font-size="10.00">FileReader.hpp</text>
</a>
</g>
</g>
<!-- Node1&#45;&gt;Node2 -->
<g id="edge1_Node000001_Node000002" class="edge">
<title>Node1&#45;&gt;Node2</title>
<g id="a_edge1_Node000001_Node000002"><a xlink:title=" ">
<path fill="none" stroke="#63b8ff" d="M105.79,-571.81C78.71,-555.85 24.39,-518.94 4.56,-470 -0.45,-457.64 -2.06,-451.57 4.56,-440 14.67,-422.32 33.74,-410.27 51.26,-402.44"/>
<polygon fill="#63b8ff" stroke="#63b8ff" points="52.86,-405.57 60.77,-398.52 50.19,-399.1 52.86,-405.57"/>
</a>
</g>
</g>
<!-- Node8 -->
<g id="Node000008" class="node">
<title>Node8</title>
<g id="a_Node000008"><a xlink:href="AudioStreamContext_8hpp.html" target="_top" xlink:title=" ">
<polygon fill="white" stroke="#666666" points="288.06,-530.5 85.06,-530.5 85.06,-511.5 288.06,-511.5 288.06,-530.5"/>
<text text-anchor="middle" x="186.56" y="-518.5" font-family="Helvetica,sans-Serif" font-size="10.00">MayaFlux/IO/AudioStreamContext.hpp</text>
</a>
</g>
</g>
<!-- Node1&#45;&gt;Node8 -->
<g id="edge7_Node000001_Node000008" class="edge">
<title>Node1&#45;&gt;Node8</title>
<g id="a_edge7_Node000001_Node000008"><a xlink:title=" ">
<path fill="none" stroke="#63b8ff" d="M131.15,-571.87C141.14,-562.88 156.99,-548.61 169.19,-537.64"/>
<polygon fill="#63b8ff" stroke="#63b8ff" points="171.84,-539.96 176.93,-530.67 167.16,-534.76 171.84,-539.96"/>
</a>
</g>
</g>
<!-- Node9 -->
<g id="Node000009" class="node">
<title>Node9</title>
<g id="a_Node000009"><a xlink:href="FFmpegDemuxContext_8hpp.html" target="_top" xlink:title=" ">
<polygon fill="white" stroke="#666666" points="165.06,-464.5 14.06,-464.5 14.06,-445.5 165.06,-445.5 165.06,-464.5"/>
<text text-anchor="middle" x="89.56" y="-452.5" font-family="Helvetica,sans-Serif" font-size="10.00">FFmpegDemuxContext.hpp</text>
</a>
</g>
</g>
<!-- Node1&#45;&gt;Node9 -->
<g id="edge10_Node000001_Node000009" class="edge">
<title>Node1&#45;&gt;Node9</title>
<g id="a_edge10_Node000001_Node000009"><a xlink:title=" ">
<path fill="none" stroke="#63b8ff" d="M108.07,-571.75C97.27,-563.87 82.91,-551.21 76.56,-536 68.2,-515.97 74.63,-491.04 81.07,-474.39"/>
<polygon fill="#63b8ff" stroke="#63b8ff" points="84.46,-475.34 85.14,-464.77 78.02,-472.61 84.46,-475.34"/>
</a>
</g>
</g>
<!-- Node10 -->
<g id="Node000010" class="node">
<title>Node10</title>
<g id="a_Node000010"><a xlink:href="SoundFileContainer_8hpp.html" target="_top" xlink:title=" ">
<polygon fill="white" stroke="#666666" points="498.56,-536 352.56,-536 352.56,-506 498.56,-506 498.56,-536"/>
<text text-anchor="start" x="360.56" y="-524" font-family="Helvetica,sans-Serif" font-size="10.00">MayaFlux/Kakshya/Source</text>
<text text-anchor="middle" x="425.56" y="-513" font-family="Helvetica,sans-Serif" font-size="10.00">/SoundFileContainer.hpp</text>
</a>
</g>
</g>
<!-- Node1&#45;&gt;Node10 -->
<g id="edge11_Node000001_Node000010" class="edge">
<title>Node1&#45;&gt;Node10</title>
<g id="a_edge11_Node000001_Node000010"><a xlink:title=" ">
<path fill="none" stroke="#63b8ff" d="M165.77,-571.99C211.98,-563.1 285.59,-548.94 342.68,-537.95"/>
<polygon fill="#63b8ff" stroke="#63b8ff" points="343.61,-541.33 352.77,-536.01 342.29,-534.46 343.61,-541.33"/>
</a>
</g>
</g>
<!-- Node3 -->
<g id="Node000003" class="node">
<title>Node3</title>
<g id="a_Node000003"><a xlink:href="Region_8hpp.html" target="_top" xlink:title=" ">
<polygon fill="white" stroke="#666666" points="598.56,-151 452.56,-151 452.56,-121 598.56,-121 598.56,-151"/>
<text text-anchor="start" x="460.56" y="-139" font-family="Helvetica,sans-Serif" font-size="10.00">MayaFlux/Kakshya/Region</text>
<text text-anchor="middle" x="525.56" y="-128" font-family="Helvetica,sans-Serif" font-size="10.00">/Region.hpp</text>
</a>
</g>
</g>
<!-- Node2&#45;&gt;Node3 -->
<g id="edge2_Node000002_Node000003" class="edge">
<title>Node2&#45;&gt;Node3</title>
<g id="a_edge2_Node000002_Node000003"><a xlink:title=" ">
<path fill="none" stroke="#63b8ff" d="M89.19,-379.41C88.97,-363.42 90.75,-328.83 108.56,-308 194.14,-207.91 347.42,-165.52 442.4,-148.22"/>
<polygon fill="#63b8ff" stroke="#63b8ff" points="443.02,-151.66 452.26,-146.47 441.8,-144.77 443.02,-151.66"/>
</a>
</g>
</g>
<!-- Node7 -->
<g id="Node000007" class="node">
<title>Node7</title>
<g id="a_Node000007"><a xlink:title=" ">
<polygon fill="#e0e0e0" stroke="#999999" points="185.56,-332.5 117.56,-332.5 117.56,-313.5 185.56,-313.5 185.56,-332.5"/>
<text text-anchor="middle" x="151.56" y="-320.5" font-family="Helvetica,sans-Serif" font-size="10.00">filesystem</text>
</a>
</g>
</g>
<!-- Node2&#45;&gt;Node7 -->
<g id="edge6_Node000002_Node000007" class="edge">
<title>Node2&#45;&gt;Node7</title>
<g id="a_edge6_Node000002_Node000007"><a xlink:title=" ">
<path fill="none" stroke="#63b8ff" d="M97.92,-379.37C107.58,-369.4 123.67,-352.79 135.71,-340.36"/>
<polygon fill="#63b8ff" stroke="#63b8ff" points="138.49,-342.52 142.93,-332.91 133.46,-337.65 138.49,-342.52"/>
</a>
</g>
</g>
<!-- Node4 -->
<g id="Node000004" class="node">
<title>Node4</title>
<g id="a_Node000004"><a xlink:href="NDData_8hpp.html" target="_top" xlink:title=" ">
<polygon fill="white" stroke="#666666" points="769.06,-85 618.06,-85 618.06,-55 769.06,-55 769.06,-85"/>
<text text-anchor="start" x="626.06" y="-73" font-family="Helvetica,sans-Serif" font-size="10.00">MayaFlux/Kakshya/NDData</text>
<text text-anchor="middle" x="693.56" y="-62" font-family="Helvetica,sans-Serif" font-size="10.00">/NDData.hpp</text>
</a>
</g>
</g>
<!-- Node3&#45;&gt;Node4 -->
<g id="edge3_Node000003_Node000004" class="edge">
<title>Node3&#45;&gt;Node4</title>
<g id="a_edge3_Node000003_Node000004"><a xlink:title=" ">
<path fill="none" stroke="#63b8ff" d="M562.43,-120.95C587.38,-111.45 620.52,-98.82 647.25,-88.64"/>
<polygon fill="#63b8ff" stroke="#63b8ff" points="648.68,-91.84 656.78,-85.01 646.19,-85.3 648.68,-91.84"/>
</a>
</g>
</g>
<!-- Node5 -->
<g id="Node000005" class="node">
<title>Node5</title>
<g id="a_Node000005"><a xlink:title=" ">
<polygon fill="#e0e0e0" stroke="#999999" points="687.56,-19 609.56,-19 609.56,0 687.56,0 687.56,-19"/>
<text text-anchor="middle" x="648.56" y="-7" font-family="Helvetica,sans-Serif" font-size="10.00">glm/glm.hpp</text>
</a>
</g>
</g>
<!-- Node4&#45;&gt;Node5 -->
<g id="edge4_Node000004_Node000005" class="edge">
<title>Node4&#45;&gt;Node5</title>
<g id="a_edge4_Node000004_Node000005"><a xlink:title=" ">
<path fill="none" stroke="#63b8ff" d="M682.67,-54.84C676.27,-46.52 668.15,-35.96 661.43,-27.23"/>
<polygon fill="#63b8ff" stroke="#63b8ff" points="664.18,-25.06 655.3,-19.27 658.63,-29.33 664.18,-25.06"/>
</a>
</g>
</g>
<!-- Node6 -->
<g id="Node000006" class="node">
<title>Node6</title>
<g id="a_Node000006"><a xlink:title=" ">
<polygon fill="#e0e0e0" stroke="#999999" points="771.06,-19 706.06,-19 706.06,0 771.06,0 771.06,-19"/>
<text text-anchor="middle" x="738.56" y="-7" font-family="Helvetica,sans-Serif" font-size="10.00">typeindex</text>
</a>
</g>
</g>
<!-- Node4&#45;&gt;Node6 -->
<g id="edge5_Node000004_Node000006" class="edge">
<title>Node4&#45;&gt;Node6</title>
<g id="a_edge5_Node000004_Node000006"><a xlink:title=" ">
<path fill="none" stroke="#63b8ff" d="M704.45,-54.84C710.85,-46.52 718.98,-35.96 725.69,-27.23"/>
<polygon fill="#63b8ff" stroke="#63b8ff" points="728.5,-29.33 731.82,-19.27 722.95,-25.06 728.5,-29.33"/>
</a>
</g>
</g>
<!-- Node8&#45;&gt;Node9 -->
<g id="edge8_Node000008_Node000009" class="edge">
<title>Node8&#45;&gt;Node9</title>
<g id="a_edge8_Node000008_Node000009"><a xlink:title=" ">
<path fill="none" stroke="#63b8ff" d="M173.48,-511.37C157.5,-500.82 130.23,-482.84 111.13,-470.23"/>
<polygon fill="#63b8ff" stroke="#63b8ff" points="113.02,-467.28 102.75,-464.7 109.17,-473.13 113.02,-467.28"/>
</a>
</g>
</g>
<!-- Node9&#45;&gt;Node2 -->
<g id="edge9_Node000009_Node000002" class="edge">
<title>Node9&#45;&gt;Node2</title>
<g id="a_edge9_Node000009_Node000002"><a xlink:title=" ">
<path fill="none" stroke="#63b8ff" d="M89.56,-445.37C89.56,-436.16 89.56,-421.29 89.56,-409.27"/>
<polygon fill="#63b8ff" stroke="#63b8ff" points="93.06,-408.91 89.56,-398.91 86.06,-408.91 93.06,-408.91"/>
</a>
</g>
</g>
<!-- Node11 -->
<g id="Node000011" class="node">
<title>Node11</title>
<g id="a_Node000011"><a xlink:href="FileContainer_8hpp.html" target="_top" xlink:title=" ">
<polygon fill="white" stroke="#666666" points="380.06,-464.5 183.06,-464.5 183.06,-445.5 380.06,-445.5 380.06,-464.5"/>
<text text-anchor="middle" x="281.56" y="-452.5" font-family="Helvetica,sans-Serif" font-size="10.00">MayaFlux/Kakshya/FileContainer.hpp</text>
</a>
</g>
</g>
<!-- Node10&#45;&gt;Node11 -->
<g id="edge12_Node000010_Node000011" class="edge">
<title>Node10&#45;&gt;Node11</title>
<g id="a_edge12_Node000010_Node000011"><a xlink:title=" ">
<path fill="none" stroke="#63b8ff" d="M393.96,-505.95C368.93,-494.83 334.27,-479.42 310.08,-468.67"/>
<polygon fill="#63b8ff" stroke="#63b8ff" points="311.29,-465.38 300.73,-464.52 308.44,-471.78 311.29,-465.38"/>
</a>
</g>
</g>
<!-- Node16 -->
<g id="Node000016" class="node">
<title>Node16</title>
<g id="a_Node000016"><a xlink:href="KakshyaUtils_8hpp.html" target="_top" xlink:title=" ">
<polygon fill="white" stroke="#666666" points="720.06,-470 565.06,-470 565.06,-440 720.06,-440 720.06,-470"/>
<text text-anchor="start" x="573.06" y="-458" font-family="Helvetica,sans-Serif" font-size="10.00">MayaFlux/Kakshya/Kakshya</text>
<text text-anchor="middle" x="642.56" y="-447" font-family="Helvetica,sans-Serif" font-size="10.00">Utils.hpp</text>
</a>
</g>
</g>
<!-- Node10&#45;&gt;Node16 -->
<g id="edge19_Node000010_Node000016" class="edge">
<title>Node10&#45;&gt;Node16</title>
<g id="a_edge19_Node000010_Node000016"><a xlink:title=" ">
<path fill="none" stroke="#63b8ff" d="M473.18,-505.95C506.25,-496.2 550.48,-483.16 585.45,-472.84"/>
<polygon fill="#63b8ff" stroke="#63b8ff" points="586.45,-476.2 595.05,-470.01 584.47,-469.48 586.45,-476.2"/>
</a>
</g>
</g>
<!-- Node31 -->
<g id="Node000031" class="node">
<title>Node31</title>
<g id="a_Node000031"><a xlink:href="SoundStreamContainer_8hpp.html" target="_top" xlink:title=" ">
<polygon fill="white" stroke="#666666" points="547.06,-464.5 398.06,-464.5 398.06,-445.5 547.06,-445.5 547.06,-464.5"/>
<text text-anchor="middle" x="472.56" y="-452.5" font-family="Helvetica,sans-Serif" font-size="10.00">SoundStreamContainer.hpp</text>
</a>
</g>
</g>
<!-- Node10&#45;&gt;Node31 -->
<g id="edge41_Node000010_Node000031" class="edge">
<title>Node10&#45;&gt;Node31</title>
<g id="a_edge41_Node000010_Node000031"><a xlink:title=" ">
<path fill="none" stroke="#63b8ff" d="M435.99,-505.8C443.1,-496.11 452.56,-483.24 460.07,-473.01"/>
<polygon fill="#63b8ff" stroke="#63b8ff" points="462.97,-474.98 466.07,-464.84 457.33,-470.83 462.97,-474.98"/>
</a>
</g>
</g>
<!-- Node12 -->
<g id="Node000012" class="node">
<title>Node12</title>
<g id="a_Node000012"><a xlink:href="StreamContainer_8hpp.html" target="_top" xlink:title=" ">
<polygon fill="white" stroke="#666666" points="350.06,-398.5 231.06,-398.5 231.06,-379.5 350.06,-379.5 350.06,-398.5"/>
<text text-anchor="middle" x="290.56" y="-386.5" font-family="Helvetica,sans-Serif" font-size="10.00">StreamContainer.hpp</text>
</a>
</g>
</g>
<!-- Node11&#45;&gt;Node12 -->
<g id="edge13_Node000011_Node000012" class="edge">
<title>Node11&#45;&gt;Node12</title>
<g id="a_edge13_Node000011_Node000012"><a xlink:title=" ">
<path fill="none" stroke="#63b8ff" d="M282.78,-445.37C284.08,-436.07 286.21,-420.98 287.9,-408.9"/>
<polygon fill="#63b8ff" stroke="#63b8ff" points="291.38,-409.3 289.31,-398.91 284.45,-408.32 291.38,-409.3"/>
</a>
</g>
</g>
<!-- Node13 -->
<g id="Node000013" class="node">
<title>Node13</title>
<g id="a_Node000013"><a xlink:href="SignalSourceContainer_8hpp.html" target="_top" xlink:title=" ">
<polygon fill="white" stroke="#666666" points="584.06,-272 437.06,-272 437.06,-253 584.06,-253 584.06,-272"/>
<text text-anchor="middle" x="510.56" y="-260" font-family="Helvetica,sans-Serif" font-size="10.00">SignalSourceContainer.hpp</text>
</a>
</g>
</g>
<!-- Node12&#45;&gt;Node13 -->
<g id="edge14_Node000012_Node000013" class="edge">
<title>Node12&#45;&gt;Node13</title>
<g id="a_edge14_Node000012_Node000013"><a xlink:title=" ">
<path fill="none" stroke="#63b8ff" d="M290,-379.1C289.47,-362.59 290.87,-327.18 310.56,-308 327.36,-291.63 379.92,-280.32 426.94,-273.2"/>
<polygon fill="#63b8ff" stroke="#63b8ff" points="427.49,-276.65 436.88,-271.74 426.48,-269.73 427.49,-276.65"/>
</a>
</g>
</g>
<!-- Node14 -->
<g id="Node000014" class="node">
<title>Node14</title>
<g id="a_Node000014"><a xlink:href="NDimensionalContainer_8hpp.html" target="_top" xlink:title=" ">
<polygon fill="white" stroke="#666666" points="770.06,-145.5 617.06,-145.5 617.06,-126.5 770.06,-126.5 770.06,-145.5"/>
<text text-anchor="middle" x="693.56" y="-133.5" font-family="Helvetica,sans-Serif" font-size="10.00">NDimensionalContainer.hpp</text>
</a>
</g>
</g>
<!-- Node13&#45;&gt;Node14 -->
<g id="edge15_Node000013_Node000014" class="edge">
<title>Node13&#45;&gt;Node14</title>
<g id="a_edge15_Node000013_Node000014"><a xlink:title=" ">
<path fill="none" stroke="#63b8ff" d="M532.92,-252.89C552.36,-244.92 580.9,-232.06 603.56,-217 632.14,-198.01 661.07,-170.48 678.15,-153.17"/>
<polygon fill="#63b8ff" stroke="#63b8ff" points="681.07,-155.19 685.53,-145.58 676.05,-150.31 681.07,-155.19"/>
</a>
</g>
</g>
<!-- Node15 -->
<g id="Node000015" class="node">
<title>Node15</title>
<g id="a_Node000015"><a xlink:href="RegionGroup_8hpp.html" target="_top" xlink:title=" ">
<polygon fill="white" stroke="#666666" points="594.06,-211.5 457.06,-211.5 457.06,-192.5 594.06,-192.5 594.06,-211.5"/>
<text text-anchor="middle" x="525.56" y="-199.5" font-family="Helvetica,sans-Serif" font-size="10.00">Region/RegionGroup.hpp</text>
</a>
</g>
</g>
<!-- Node13&#45;&gt;Node15 -->
<g id="edge17_Node000013_Node000015" class="edge">
<title>Node13&#45;&gt;Node15</title>
<g id="a_edge17_Node000013_Node000015"><a xlink:title=" ">
<path fill="none" stroke="#63b8ff" d="M512.78,-252.87C514.88,-244.66 518.12,-232.04 520.8,-221.55"/>
<polygon fill="#63b8ff" stroke="#63b8ff" points="524.25,-222.22 523.34,-211.67 517.47,-220.48 524.25,-222.22"/>
</a>
</g>
</g>
<!-- Node14&#45;&gt;Node4 -->
<g id="edge16_Node000014_Node000004" class="edge">
<title>Node14&#45;&gt;Node4</title>
<g id="a_edge16_Node000014_Node000004"><a xlink:title=" ">
<path fill="none" stroke="#63b8ff" d="M693.56,-126.37C693.56,-118.49 693.56,-106.45 693.56,-95.6"/>
<polygon fill="#63b8ff" stroke="#63b8ff" points="697.06,-95.36 693.56,-85.36 690.06,-95.36 697.06,-95.36"/>
</a>
</g>
</g>
<!-- Node15&#45;&gt;Node3 -->
<g id="edge18_Node000015_Node000003" class="edge">
<title>Node15&#45;&gt;Node3</title>
<g id="a_edge18_Node000015_Node000003"><a xlink:title=" ">
<path fill="none" stroke="#63b8ff" d="M525.56,-192.37C525.56,-184.49 525.56,-172.45 525.56,-161.6"/>
<polygon fill="#63b8ff" stroke="#63b8ff" points="529.06,-161.36 525.56,-151.36 522.06,-161.36 529.06,-161.36"/>
</a>
</g>
</g>
<!-- Node17 -->
<g id="Node000017" class="node">
<title>Node17</title>
<g id="a_Node000017"><a xlink:href="ContainerUtils_8hpp.html" target="_top" xlink:title=" ">
<polygon fill="white" stroke="#666666" points="452.06,-332.5 319.06,-332.5 319.06,-313.5 452.06,-313.5 452.06,-332.5"/>
<text text-anchor="middle" x="385.56" y="-320.5" font-family="Helvetica,sans-Serif" font-size="10.00">Utils/ContainerUtils.hpp</text>
</a>
</g>
</g>
<!-- Node16&#45;&gt;Node17 -->
<g id="edge20_Node000016_Node000017" class="edge">
<title>Node16&#45;&gt;Node17</title>
<g id="a_edge20_Node000016_Node000017"><a xlink:title=" ">
<path fill="none" stroke="#63b8ff" d="M618.85,-439.94C602.2,-430.01 579.43,-416.32 559.56,-404 538.5,-390.94 534.64,-385.26 512.56,-374 482.74,-358.79 447.17,-345.15 421.26,-335.97"/>
<polygon fill="#63b8ff" stroke="#63b8ff" points="422.09,-332.55 411.5,-332.55 419.78,-339.16 422.09,-332.55"/>
</a>
</g>
</g>
<!-- Node18 -->
<g id="Node000018" class="node">
<title>Node18</title>
<g id="a_Node000018"><a xlink:href="CoordUtils_8hpp.html" target="_top" xlink:title=" ">
<polygon fill="white" stroke="#666666" points="584.56,-332.5 470.56,-332.5 470.56,-313.5 584.56,-313.5 584.56,-332.5"/>
<text text-anchor="middle" x="527.56" y="-320.5" font-family="Helvetica,sans-Serif" font-size="10.00">Utils/CoordUtils.hpp</text>
</a>
</g>
</g>
<!-- Node16&#45;&gt;Node18 -->
<g id="edge22_Node000016_Node000018" class="edge">
<title>Node16&#45;&gt;Node18</title>
<g id="a_edge22_Node000016_Node000018"><a xlink:title=" ">
<path fill="none" stroke="#63b8ff" d="M626.16,-439.74C615.36,-430.06 601.12,-416.74 589.56,-404 570.83,-383.36 551.51,-357.58 539.52,-340.96"/>
<polygon fill="#63b8ff" stroke="#63b8ff" points="542.32,-338.86 533.66,-332.76 536.62,-342.93 542.32,-338.86"/>
</a>
</g>
</g>
<!-- Node19 -->
<g id="Node000019" class="node">
<title>Node19</title>
<g id="a_Node000019"><a xlink:href="DataUtils_8hpp.html" target="_top" xlink:title=" ">
<polygon fill="white" stroke="#666666" points="925.06,-398.5 816.06,-398.5 816.06,-379.5 925.06,-379.5 925.06,-398.5"/>
<text text-anchor="middle" x="870.56" y="-386.5" font-family="Helvetica,sans-Serif" font-size="10.00">Utils/DataUtils.hpp</text>
</a>
</g>
</g>
<!-- Node16&#45;&gt;Node19 -->
<g id="edge24_Node000016_Node000019" class="edge">
<title>Node16&#45;&gt;Node19</title>
<g id="a_edge24_Node000016_Node000019"><a xlink:title=" ">
<path fill="none" stroke="#63b8ff" d="M692.6,-439.95C733.99,-428.34 792.02,-412.05 830.42,-401.27"/>
<polygon fill="#63b8ff" stroke="#63b8ff" points="831.54,-404.59 840.22,-398.52 829.65,-397.85 831.54,-404.59"/>
</a>
</g>
</g>
<!-- Node28 -->
<g id="Node000028" class="node">
<title>Node28</title>
<g id="a_Node000028"><a xlink:href="RegionUtils_8hpp.html" target="_top" xlink:title=" ">
<polygon fill="white" stroke="#666666" points="717.06,-398.5 598.06,-398.5 598.06,-379.5 717.06,-379.5 717.06,-398.5"/>
<text text-anchor="middle" x="657.56" y="-386.5" font-family="Helvetica,sans-Serif" font-size="10.00">Utils/RegionUtils.hpp</text>
</a>
</g>
</g>
<!-- Node16&#45;&gt;Node28 -->
<g id="edge34_Node000016_Node000028" class="edge">
<title>Node16&#45;&gt;Node28</title>
<g id="a_edge34_Node000016_Node000028"><a xlink:title=" ">
<path fill="none" stroke="#63b8ff" d="M645.89,-439.8C648.02,-430.7 650.81,-418.79 653.13,-408.9"/>
<polygon fill="#63b8ff" stroke="#63b8ff" points="656.61,-409.38 655.49,-398.84 649.8,-407.78 656.61,-409.38"/>
</a>
</g>
</g>
<!-- Node17&#45;&gt;Node13 -->
<g id="edge21_Node000017_Node000013" class="edge">
<title>Node17&#45;&gt;Node13</title>
<g id="a_edge21_Node000017_Node000013"><a xlink:title=" ">
<path fill="none" stroke="#63b8ff" d="M403.74,-313.49C424.57,-303.75 458.93,-287.66 483.04,-276.38"/>
<polygon fill="#63b8ff" stroke="#63b8ff" points="484.79,-279.43 492.36,-272.02 481.82,-273.09 484.79,-279.43"/>
</a>
</g>
</g>
<!-- Node18&#45;&gt;Node13 -->
<g id="edge23_Node000018_Node000013" class="edge">
<title>Node18&#45;&gt;Node13</title>
<g id="a_edge23_Node000018_Node000013"><a xlink:title=" ">
<path fill="none" stroke="#63b8ff" d="M525.05,-313.37C522.67,-305.16 519,-292.54 515.95,-282.05"/>
<polygon fill="#63b8ff" stroke="#63b8ff" points="519.23,-280.79 513.08,-272.17 512.51,-282.75 519.23,-280.79"/>
</a>
</g>
</g>
<!-- Node19&#45;&gt;Node4 -->
<g id="edge25_Node000019_Node000004" class="edge">
<title>Node19&#45;&gt;Node4</title>
<g id="a_edge25_Node000019_Node000004"><a xlink:title=" ">
<path fill="none" stroke="#63b8ff" d="M862.6,-379.47C854.21,-370.02 841.16,-354 833.56,-338 818.9,-307.13 814.56,-297.67 814.56,-263.5 814.56,-263.5 814.56,-263.5 814.56,-201 814.56,-162.19 805.39,-149.96 779.56,-121 768.04,-108.08 752.37,-97.62 737.55,-89.67"/>
<polygon fill="#63b8ff" stroke="#63b8ff" points="738.98,-86.47 728.48,-85.04 735.8,-92.7 738.98,-86.47"/>
</a>
</g>
</g>
<!-- Node20 -->
<g id="Node000020" class="node">
<title>Node20</title>
<g id="a_Node000020"><a xlink:href="Archivist_8hpp.html" target="_top" xlink:title=" ">
<polygon fill="white" stroke="#666666" points="1010.56,-332.5 842.56,-332.5 842.56,-313.5 1010.56,-313.5 1010.56,-332.5"/>
<text text-anchor="middle" x="926.56" y="-320.5" font-family="Helvetica,sans-Serif" font-size="10.00">MayaFlux/Journal/Archivist.hpp</text>
</a>
</g>
</g>
<!-- Node19&#45;&gt;Node20 -->
<g id="edge26_Node000019_Node000020" class="edge">
<title>Node19&#45;&gt;Node20</title>
<g id="a_edge26_Node000019_Node000020"><a xlink:title=" ">
<path fill="none" stroke="#63b8ff" d="M878.11,-379.37C886.75,-369.5 901.09,-353.11 911.93,-340.72"/>
<polygon fill="#63b8ff" stroke="#63b8ff" points="914.82,-342.74 918.77,-332.91 909.55,-338.13 914.82,-342.74"/>
</a>
</g>
</g>
<!-- Node27 -->
<g id="Node000027" class="node">
<title>Node27</title>
<g id="a_Node000027"><a xlink:title=" ">
<polygon fill="#e0e0e0" stroke="#999999" points="1146.06,-332.5 1029.06,-332.5 1029.06,-313.5 1146.06,-313.5 1146.06,-332.5"/>
<text text-anchor="middle" x="1087.56" y="-320.5" font-family="Helvetica,sans-Serif" font-size="10.00">glm/gtc/type_ptr.hpp</text>
</a>
</g>
</g>
<!-- Node19&#45;&gt;Node27 -->
<g id="edge33_Node000019_Node000027" class="edge">
<title>Node19&#45;&gt;Node27</title>
<g id="a_edge33_Node000019_Node000027"><a xlink:title=" ">
<path fill="none" stroke="#63b8ff" d="M899.83,-379.37C938.28,-368.03 1005.91,-348.08 1048.65,-335.48"/>
<polygon fill="#63b8ff" stroke="#63b8ff" points="1049.81,-338.78 1058.41,-332.6 1047.83,-332.07 1049.81,-338.78"/>
</a>
</g>
</g>
<!-- Node21 -->
<g id="Node000021" class="node">
<title>Node21</title>
<g id="a_Node000021"><a xlink:href="JournalEntry_8hpp.html" target="_top" xlink:title=" ">
<polygon fill="white" stroke="#666666" points="1023.06,-272 928.06,-272 928.06,-253 1023.06,-253 1023.06,-272"/>
<text text-anchor="middle" x="975.56" y="-260" font-family="Helvetica,sans-Serif" font-size="10.00">JournalEntry.hpp</text>
</a>
</g>
</g>
<!-- Node20&#45;&gt;Node21 -->
<g id="edge27_Node000020_Node000021" class="edge">
<title>Node20&#45;&gt;Node21</title>
<g id="a_edge27_Node000020_Node000021"><a xlink:title=" ">
<path fill="none" stroke="#63b8ff" d="M933.79,-313.37C941.1,-304.64 952.59,-290.93 961.66,-280.09"/>
<polygon fill="#63b8ff" stroke="#63b8ff" points="964.56,-282.08 968.3,-272.17 959.2,-277.59 964.56,-282.08"/>
</a>
</g>
</g>
<!-- Node26 -->
<g id="Node000026" class="node">
<title>Node26</title>
<g id="a_Node000026"><a xlink:title=" ">
<polygon fill="#e0e0e0" stroke="#999999" points="1091.56,-272 1041.56,-272 1041.56,-253 1091.56,-253 1091.56,-272"/>
<text text-anchor="middle" x="1066.56" y="-260" font-family="Helvetica,sans-Serif" font-size="10.00">format</text>
</a>
</g>
</g>
<!-- Node20&#45;&gt;Node26 -->
<g id="edge32_Node000020_Node000026" class="edge">
<title>Node20&#45;&gt;Node26</title>
<g id="a_edge32_Node000020_Node000026"><a xlink:title=" ">
<path fill="none" stroke="#63b8ff" d="M946.92,-313.49C970.56,-303.62 1009.76,-287.23 1036.81,-275.93"/>
<polygon fill="#63b8ff" stroke="#63b8ff" points="1038.3,-279.1 1046.18,-272.02 1035.6,-272.64 1038.3,-279.1"/>
</a>
</g>
</g>
<!-- Node22 -->
<g id="Node000022" class="node">
<title>Node22</title>
<g id="a_Node000022"><a xlink:href="EnumReflect_8hpp.html" target="_top" xlink:title=" ">
<polygon fill="white" stroke="#666666" points="982.06,-217 843.06,-217 843.06,-187 982.06,-187 982.06,-217"/>
<text text-anchor="start" x="851.06" y="-205" font-family="Helvetica,sans-Serif" font-size="10.00">MayaFlux/Transitive</text>
<text text-anchor="middle" x="912.56" y="-194" font-family="Helvetica,sans-Serif" font-size="10.00">/Reflect/EnumReflect.hpp</text>
</a>
</g>
</g>
<!-- Node21&#45;&gt;Node22 -->
<g id="edge28_Node000021_Node000022" class="edge">
<title>Node21&#45;&gt;Node22</title>
<g id="a_edge28_Node000021_Node000022"><a xlink:title=" ">
<path fill="none" stroke="#63b8ff" d="M966.27,-252.87C958.11,-245.3 945.92,-233.98 935.22,-224.04"/>
<polygon fill="#63b8ff" stroke="#63b8ff" points="937.47,-221.35 927.76,-217.11 932.71,-226.48 937.47,-221.35"/>
</a>
</g>
</g>
<!-- Node23 -->
<g id="Node000023" class="node">
<title>Node23</title>
<g id="a_Node000023"><a xlink:title=" ">
<polygon fill="#e0e0e0" stroke="#999999" points="1050.56,-211.5 1000.56,-211.5 1000.56,-192.5 1050.56,-192.5 1050.56,-211.5"/>
<text text-anchor="middle" x="1025.56" y="-199.5" font-family="Helvetica,sans-Serif" font-size="10.00">chrono</text>
</a>
</g>
</g>
<!-- Node21&#45;&gt;Node23 -->
<g id="edge29_Node000021_Node000023" class="edge">
<title>Node21&#45;&gt;Node23</title>
<g id="a_edge29_Node000021_Node000023"><a xlink:title=" ">
<path fill="none" stroke="#63b8ff" d="M982.94,-252.87C990.47,-244.05 1002.35,-230.16 1011.65,-219.27"/>
<polygon fill="#63b8ff" stroke="#63b8ff" points="1014.32,-221.54 1018.15,-211.67 1009,-217 1014.32,-221.54"/>
</a>
</g>
</g>
<!-- Node24 -->
<g id="Node000024" class="node">
<title>Node24</title>
<g id="a_Node000024"><a xlink:title=" ">
<polygon fill="#e0e0e0" stroke="#999999" points="1162.06,-211.5 1069.06,-211.5 1069.06,-192.5 1162.06,-192.5 1162.06,-211.5"/>
<text text-anchor="middle" x="1115.56" y="-199.5" font-family="Helvetica,sans-Serif" font-size="10.00">source_location</text>
</a>
</g>
</g>
<!-- Node21&#45;&gt;Node24 -->
<g id="edge30_Node000021_Node000024" class="edge">
<title>Node21&#45;&gt;Node24</title>
<g id="a_edge30_Node000021_Node000024"><a xlink:title=" ">
<path fill="none" stroke="#63b8ff" d="M995.92,-252.99C1019.56,-243.12 1058.76,-226.73 1085.81,-215.43"/>
<polygon fill="#63b8ff" stroke="#63b8ff" points="1087.3,-218.6 1095.18,-211.52 1084.6,-212.14 1087.3,-218.6"/>
</a>
</g>
</g>
<!-- Node25 -->
<g id="Node000025" class="node">
<title>Node25</title>
<g id="a_Node000025"><a xlink:title=" ">
<polygon fill="#e0e0e0" stroke="#999999" points="1253.06,-211.5 1180.06,-211.5 1180.06,-192.5 1253.06,-192.5 1253.06,-211.5"/>
<text text-anchor="middle" x="1216.56" y="-199.5" font-family="Helvetica,sans-Serif" font-size="10.00">string_view</text>
</a>
</g>
</g>
<!-- Node21&#45;&gt;Node25 -->
<g id="edge31_Node000021_Node000025" class="edge">
<title>Node21&#45;&gt;Node25</title>
<g id="a_edge31_Node000021_Node000025"><a xlink:title=" ">
<path fill="none" stroke="#63b8ff" d="M1017.47,-252.98C1057.32,-244.64 1118.82,-231.17 1171.56,-217 1174.38,-216.24 1177.28,-215.43 1180.19,-214.58"/>
<polygon fill="#63b8ff" stroke="#63b8ff" points="1181.44,-217.86 1190.01,-211.64 1179.43,-211.16 1181.44,-217.86"/>
</a>
</g>
</g>
<!-- Node28&#45;&gt;Node15 -->
<g id="edge39_Node000028_Node000015" class="edge">
<title>Node28&#45;&gt;Node15</title>
<g id="a_edge39_Node000028_Node000015"><a xlink:title=" ">
<path fill="none" stroke="#63b8ff" d="M652.8,-379.23C647.46,-369.31 638.63,-352.62 631.56,-338 613.56,-300.74 619.54,-285.21 593.56,-253 581.72,-238.31 564.58,-225.74 550.47,-216.89"/>
<polygon fill="#63b8ff" stroke="#63b8ff" points="552.1,-213.78 541.73,-211.61 548.48,-219.77 552.1,-213.78"/>
</a>
</g>
</g>
<!-- Node28&#45;&gt;Node18 -->
<g id="edge35_Node000028_Node000018" class="edge">
<title>Node28&#45;&gt;Node18</title>
<g id="a_edge35_Node000028_Node000018"><a xlink:title=" ">
<path fill="none" stroke="#63b8ff" d="M640.03,-379.37C618.03,-368.54 580.08,-349.85 554.41,-337.22"/>
<polygon fill="#63b8ff" stroke="#63b8ff" points="555.75,-333.98 545.23,-332.7 552.66,-340.26 555.75,-333.98"/>
</a>
</g>
</g>
<!-- Node28&#45;&gt;Node20 -->
<g id="edge40_Node000028_Node000020" class="edge">
<title>Node28&#45;&gt;Node20</title>
<g id="a_edge40_Node000028_Node000020"><a xlink:title=" ">
<path fill="none" stroke="#63b8ff" d="M693.56,-379.44C741.98,-367.92 828.1,-347.43 880.98,-334.84"/>
<polygon fill="#63b8ff" stroke="#63b8ff" points="881.86,-338.23 890.78,-332.51 880.24,-331.42 881.86,-338.23"/>
</a>
</g>
</g>
<!-- Node29 -->
<g id="Node000029" class="node">
<title>Node29</title>
<g id="a_Node000029"><a xlink:href="OrganizedRegion_8hpp.html" target="_top" xlink:title=" ">
<polygon fill="white" stroke="#666666" points="786.56,-338 640.56,-338 640.56,-308 786.56,-308 786.56,-338"/>
<text text-anchor="start" x="648.56" y="-326" font-family="Helvetica,sans-Serif" font-size="10.00">MayaFlux/Kakshya/Region</text>
<text text-anchor="middle" x="713.56" y="-315" font-family="Helvetica,sans-Serif" font-size="10.00">/OrganizedRegion.hpp</text>
</a>
</g>
</g>
<!-- Node28&#45;&gt;Node29 -->
<g id="edge36_Node000028_Node000029" class="edge">
<title>Node28&#45;&gt;Node29</title>
<g id="a_edge36_Node000028_Node000029"><a xlink:title=" ">
<path fill="none" stroke="#63b8ff" d="M665.11,-379.37C672.59,-370.83 684.33,-357.41 694.38,-345.92"/>
<polygon fill="#63b8ff" stroke="#63b8ff" points="697.05,-348.19 701,-338.36 691.78,-343.58 697.05,-348.19"/>
</a>
</g>
</g>
<!-- Node30 -->
<g id="Node000030" class="node">
<title>Node30</title>
<g id="a_Node000030"><a xlink:href="RegionSegment_8hpp.html" target="_top" xlink:title=" ">
<polygon fill="white" stroke="#666666" points="764.06,-272 649.06,-272 649.06,-253 764.06,-253 764.06,-272"/>
<text text-anchor="middle" x="706.56" y="-260" font-family="Helvetica,sans-Serif" font-size="10.00">RegionSegment.hpp</text>
</a>
</g>
</g>
<!-- Node29&#45;&gt;Node30 -->
<g id="edge37_Node000029_Node000030" class="edge">
<title>Node29&#45;&gt;Node30</title>
<g id="a_edge37_Node000029_Node000030"><a xlink:title=" ">
<path fill="none" stroke="#63b8ff" d="M711.87,-307.84C710.95,-300.21 709.82,-290.7 708.83,-282.45"/>
<polygon fill="#63b8ff" stroke="#63b8ff" points="712.27,-281.78 707.61,-272.27 705.32,-282.61 712.27,-281.78"/>
</a>
</g>
</g>
<!-- Node30&#45;&gt;Node3 -->
<g id="edge38_Node000030_Node000003" class="edge">
<title>Node30&#45;&gt;Node3</title>
<g id="a_edge38_Node000030_Node000003"><a xlink:title=" ">
<path fill="none" stroke="#63b8ff" d="M694.97,-252.79C676.07,-238.66 637.3,-209.99 603.56,-187 588.37,-176.65 571.2,-165.58 556.84,-156.49"/>
<polygon fill="#63b8ff" stroke="#63b8ff" points="558.63,-153.48 548.31,-151.11 554.9,-159.4 558.63,-153.48"/>
</a>
</g>
</g>
<!-- Node31&#45;&gt;Node12 -->
<g id="edge42_Node000031_Node000012" class="edge">
<title>Node31&#45;&gt;Node12</title>
<g id="a_edge42_Node000031_Node000012"><a xlink:title=" ">
<path fill="none" stroke="#63b8ff" d="M448.02,-445.37C416.18,-434.17 360.47,-414.58 324.57,-401.96"/>
<polygon fill="#63b8ff" stroke="#63b8ff" points="325.6,-398.61 315.01,-398.6 323.28,-405.22 325.6,-398.61"/>
</a>
</g>
</g>
<!-- Node32 -->
<g id="Node000032" class="node">
<title>Node32</title>
<g id="a_Node000032"><a xlink:href="SeqLock_8hpp.html" target="_top" xlink:title=" ">
<polygon fill="white" stroke="#666666" points="503.06,-404 378.06,-404 378.06,-374 503.06,-374 503.06,-404"/>
<text text-anchor="start" x="386.06" y="-392" font-family="Helvetica,sans-Serif" font-size="10.00">MayaFlux/Transitive</text>
<text text-anchor="middle" x="440.56" y="-381" font-family="Helvetica,sans-Serif" font-size="10.00">/Memory/SeqLock.hpp</text>
</a>
</g>
</g>
<!-- Node31&#45;&gt;Node32 -->
<g id="edge43_Node000031_Node000032" class="edge">
<title>Node31&#45;&gt;Node32</title>
<g id="a_edge43_Node000031_Node000032"><a xlink:title=" ">
<path fill="none" stroke="#63b8ff" d="M468.25,-445.37C464.18,-437.24 457.91,-424.69 452.36,-413.59"/>
<polygon fill="#63b8ff" stroke="#63b8ff" points="455.34,-411.74 447.74,-404.36 449.08,-414.87 455.34,-411.74"/>
</a>
</g>
</g>
</g>
</svg>
