<?xml version="1.0" encoding="UTF-8" standalone="no"?>
<!DOCTYPE svg PUBLIC "-//W3C//DTD SVG 1.1//EN"
 "http://www.w3.org/Graphics/SVG/1.1/DTD/svg11.dtd">
<!-- Generated by graphviz version 2.43.0 (0)
 -->
<!-- Title: SoundFileBridge.hpp Pages: 1 -->
<svg width="649pt" height="445pt"
 viewBox="0.00 0.00 648.50 445.00" xmlns="http://www.w3.org/2000/svg" xmlns:xlink="http://www.w3.org/1999/xlink">
<g id="graph0" class="graph" transform="scale(1 1) rotate(0) translate(4 441)">
<title>SoundFileBridge.hpp</title>
<!-- Node1 -->
<g id="Node000001" class="node">
<title>Node1</title>
<g id="a_Node000001"><a xlink:title=" ">
<polygon fill="#999999" stroke="#666666" points="359,-437 243,-437 243,-418 359,-418 359,-437"/>
<text text-anchor="middle" x="301" y="-425" font-family="Helvetica,sans-Serif" font-size="10.00">SoundFileBridge.hpp</text>
</a>
</g>
</g>
<!-- Node2 -->
<g id="Node000002" class="node">
<title>Node2</title>
<g id="a_Node000002"><a xlink:href="SoundContainerBuffer_8hpp.html" target="_top" xlink:title=" ">
<polygon fill="white" stroke="#666666" points="377,-382 225,-382 225,-352 377,-352 377,-382"/>
<text text-anchor="start" x="233" y="-370" font-family="Helvetica,sans-Serif" font-size="10.00">MayaFlux/Buffers/Container</text>
<text text-anchor="middle" x="301" y="-359" font-family="Helvetica,sans-Serif" font-size="10.00">/SoundContainerBuffer.hpp</text>
</a>
</g>
</g>
<!-- Node1&#45;&gt;Node2 -->
<g id="edge1_Node000001_Node000002" class="edge">
<title>Node1&#45;&gt;Node2</title>
<g id="a_edge1_Node000001_Node000002"><a xlink:title=" ">
<path fill="none" stroke="#63b8ff" d="M301,-417.87C301,-411.11 301,-401.35 301,-392.26"/>
<polygon fill="#63b8ff" stroke="#63b8ff" points="304.5,-392.11 301,-382.11 297.5,-392.11 304.5,-392.11"/>
</a>
</g>
</g>
<!-- Node3 -->
<g id="Node000003" class="node">
<title>Node3</title>
<g id="a_Node000003"><a xlink:href="AudioBuffer_8hpp.html" target="_top" xlink:title=" ">
<polygon fill="white" stroke="#666666" points="182,-316 0,-316 0,-297 182,-297 182,-316"/>
<text text-anchor="middle" x="91" y="-304" font-family="Helvetica,sans-Serif" font-size="10.00">MayaFlux/Buffers/AudioBuffer.hpp</text>
</a>
</g>
</g>
<!-- Node2&#45;&gt;Node3 -->
<g id="edge2_Node000002_Node000003" class="edge">
<title>Node2&#45;&gt;Node3</title>
<g id="a_edge2_Node000002_Node000003"><a xlink:title=" ">
<path fill="none" stroke="#63b8ff" d="M250.7,-351.99C214.3,-341.85 165.74,-328.32 131.75,-318.85"/>
<polygon fill="#63b8ff" stroke="#63b8ff" points="132.28,-315.37 121.71,-316.05 130.4,-322.11 132.28,-315.37"/>
</a>
</g>
</g>
<!-- Node6 -->
<g id="Node000006" class="node">
<title>Node6</title>
<g id="a_Node000006"><a xlink:href="BufferProcessor_8hpp.html" target="_top" xlink:title=" ">
<polygon fill="white" stroke="#666666" points="402,-316 200,-316 200,-297 402,-297 402,-316"/>
<text text-anchor="middle" x="301" y="-304" font-family="Helvetica,sans-Serif" font-size="10.00">MayaFlux/Buffers/BufferProcessor.hpp</text>
</a>
</g>
</g>
<!-- Node2&#45;&gt;Node6 -->
<g id="edge5_Node000002_Node000006" class="edge">
<title>Node2&#45;&gt;Node6</title>
<g id="a_edge5_Node000002_Node000006"><a xlink:title=" ">
<path fill="none" stroke="#63b8ff" d="M301,-351.84C301,-344.21 301,-334.7 301,-326.45"/>
<polygon fill="#63b8ff" stroke="#63b8ff" points="304.5,-326.27 301,-316.27 297.5,-326.27 304.5,-326.27"/>
</a>
</g>
</g>
<!-- Node12 -->
<g id="Node000012" class="node">
<title>Node12</title>
<g id="a_Node000012"><a xlink:href="StreamContainer_8hpp.html" target="_top" xlink:title=" ">
<polygon fill="white" stroke="#666666" points="635.5,-316 420.5,-316 420.5,-297 635.5,-297 635.5,-316"/>
<text text-anchor="middle" x="528" y="-304" font-family="Helvetica,sans-Serif" font-size="10.00">MayaFlux/Kakshya/StreamContainer.hpp</text>
</a>
</g>
</g>
<!-- Node2&#45;&gt;Node12 -->
<g id="edge12_Node000002_Node000012" class="edge">
<title>Node2&#45;&gt;Node12</title>
<g id="a_edge12_Node000002_Node000012"><a xlink:title=" ">
<path fill="none" stroke="#63b8ff" d="M355.37,-351.99C395.06,-341.76 448.12,-328.09 484.89,-318.61"/>
<polygon fill="#63b8ff" stroke="#63b8ff" points="486,-321.94 494.81,-316.05 484.25,-315.16 486,-321.94"/>
</a>
</g>
</g>
<!-- Node4 -->
<g id="Node000004" class="node">
<title>Node4</title>
<g id="a_Node000004"><a xlink:href="Buffer_8hpp.html" target="_top" xlink:title=" ">
<polygon fill="white" stroke="#666666" points="124,-261 58,-261 58,-242 124,-242 124,-261"/>
<text text-anchor="middle" x="91" y="-249" font-family="Helvetica,sans-Serif" font-size="10.00">Buffer.hpp</text>
</a>
</g>
</g>
<!-- Node3&#45;&gt;Node4 -->
<g id="edge3_Node000003_Node000004" class="edge">
<title>Node3&#45;&gt;Node4</title>
<g id="a_edge3_Node000003_Node000004"><a xlink:title=" ">
<path fill="none" stroke="#63b8ff" d="M91,-296.75C91,-289.8 91,-279.85 91,-271.13"/>
<polygon fill="#63b8ff" stroke="#63b8ff" points="94.5,-271.09 91,-261.09 87.5,-271.09 94.5,-271.09"/>
</a>
</g>
</g>
<!-- Node5 -->
<g id="Node000005" class="node">
<title>Node5</title>
<g id="a_Node000005"><a xlink:href="ProcessingTokens_8hpp.html" target="_top" xlink:title=" ">
<polygon fill="white" stroke="#666666" points="239,-206 93,-206 93,-176 239,-176 239,-206"/>
<text text-anchor="start" x="101" y="-194" font-family="Helvetica,sans-Serif" font-size="10.00">MayaFlux/Core/Processing</text>
<text text-anchor="middle" x="166" y="-183" font-family="Helvetica,sans-Serif" font-size="10.00">Tokens.hpp</text>
</a>
</g>
</g>
<!-- Node3&#45;&gt;Node5 -->
<g id="edge4_Node000003_Node000005" class="edge">
<title>Node3&#45;&gt;Node5</title>
<g id="a_edge4_Node000003_Node000005"><a xlink:title=" ">
<path fill="none" stroke="#63b8ff" d="M100.93,-296.69C110.08,-288.2 123.62,-274.67 133,-261 142.73,-246.81 151.07,-229.32 156.92,-215.49"/>
<polygon fill="#63b8ff" stroke="#63b8ff" points="160.19,-216.75 160.74,-206.17 153.71,-214.1 160.19,-216.75"/>
</a>
</g>
</g>
<!-- Node7 -->
<g id="Node000007" class="node">
<title>Node7</title>
<g id="a_Node000007"><a xlink:href="BufferUtils_8hpp.html" target="_top" xlink:title=" ">
<polygon fill="white" stroke="#666666" points="325.5,-261 236.5,-261 236.5,-242 325.5,-242 325.5,-261"/>
<text text-anchor="middle" x="281" y="-249" font-family="Helvetica,sans-Serif" font-size="10.00">BufferUtils.hpp</text>
</a>
</g>
</g>
<!-- Node6&#45;&gt;Node7 -->
<g id="edge6_Node000006_Node000007" class="edge">
<title>Node6&#45;&gt;Node7</title>
<g id="a_edge6_Node000006_Node000007"><a xlink:title=" ">
<path fill="none" stroke="#63b8ff" d="M297.7,-296.75C295.02,-289.65 291.15,-279.4 287.81,-270.56"/>
<polygon fill="#63b8ff" stroke="#63b8ff" points="291.05,-269.21 284.24,-261.09 284.5,-271.68 291.05,-269.21"/>
</a>
</g>
</g>
<!-- Node7&#45;&gt;Node5 -->
<g id="edge7_Node000007_Node000005" class="edge">
<title>Node7&#45;&gt;Node5</title>
<g id="a_edge7_Node000007_Node000005"><a xlink:title=" ">
<path fill="none" stroke="#63b8ff" d="M264.03,-241.87C247.99,-233.71 223.4,-221.2 202.85,-210.75"/>
<polygon fill="#63b8ff" stroke="#63b8ff" points="204.25,-207.53 193.75,-206.11 201.07,-213.77 204.25,-207.53"/>
</a>
</g>
</g>
<!-- Node8 -->
<g id="Node000008" class="node">
<title>Node8</title>
<g id="a_Node000008"><a xlink:href="VertexLayout_8hpp.html" target="_top" xlink:title=" ">
<polygon fill="white" stroke="#666666" points="356.5,-140 205.5,-140 205.5,-110 356.5,-110 356.5,-140"/>
<text text-anchor="start" x="213.5" y="-128" font-family="Helvetica,sans-Serif" font-size="10.00">MayaFlux/Kakshya/NDData</text>
<text text-anchor="middle" x="281" y="-117" font-family="Helvetica,sans-Serif" font-size="10.00">/VertexLayout.hpp</text>
</a>
</g>
</g>
<!-- Node7&#45;&gt;Node8 -->
<g id="edge8_Node000007_Node000008" class="edge">
<title>Node7&#45;&gt;Node8</title>
<g id="a_edge8_Node000007_Node000008"><a xlink:title=" ">
<path fill="none" stroke="#63b8ff" d="M281,-241.94C281,-223.32 281,-178.53 281,-150.39"/>
<polygon fill="#63b8ff" stroke="#63b8ff" points="284.5,-150.16 281,-140.16 277.5,-150.16 284.5,-150.16"/>
</a>
</g>
</g>
<!-- Node9 -->
<g id="Node000009" class="node">
<title>Node9</title>
<g id="a_Node000009"><a xlink:href="NDData_8hpp.html" target="_top" xlink:title=" ">
<polygon fill="white" stroke="#666666" points="489,-74 413,-74 413,-55 489,-55 489,-74"/>
<text text-anchor="middle" x="451" y="-62" font-family="Helvetica,sans-Serif" font-size="10.00">NDData.hpp</text>
</a>
</g>
</g>
<!-- Node8&#45;&gt;Node9 -->
<g id="edge9_Node000008_Node000009" class="edge">
<title>Node8&#45;&gt;Node9</title>
<g id="a_edge9_Node000008_Node000009"><a xlink:title=" ">
<path fill="none" stroke="#63b8ff" d="M321.72,-109.99C350.59,-100.05 388.91,-86.86 416.33,-77.43"/>
<polygon fill="#63b8ff" stroke="#63b8ff" points="417.58,-80.7 425.89,-74.14 415.3,-74.08 417.58,-80.7"/>
</a>
</g>
</g>
<!-- Node10 -->
<g id="Node000010" class="node">
<title>Node10</title>
<g id="a_Node000010"><a xlink:title=" ">
<polygon fill="#e0e0e0" stroke="#999999" points="445,-19 367,-19 367,0 445,0 445,-19"/>
<text text-anchor="middle" x="406" y="-7" font-family="Helvetica,sans-Serif" font-size="10.00">glm/glm.hpp</text>
</a>
</g>
</g>
<!-- Node9&#45;&gt;Node10 -->
<g id="edge10_Node000009_Node000010" class="edge">
<title>Node9&#45;&gt;Node10</title>
<g id="a_edge10_Node000009_Node000010"><a xlink:title=" ">
<path fill="none" stroke="#63b8ff" d="M443.57,-54.75C437.15,-47.18 427.69,-36.05 419.88,-26.84"/>
<polygon fill="#63b8ff" stroke="#63b8ff" points="422.43,-24.45 413.29,-19.09 417.1,-28.98 422.43,-24.45"/>
</a>
</g>
</g>
<!-- Node11 -->
<g id="Node000011" class="node">
<title>Node11</title>
<g id="a_Node000011"><a xlink:title=" ">
<polygon fill="#e0e0e0" stroke="#999999" points="528.5,-19 463.5,-19 463.5,0 528.5,0 528.5,-19"/>
<text text-anchor="middle" x="496" y="-7" font-family="Helvetica,sans-Serif" font-size="10.00">typeindex</text>
</a>
</g>
</g>
<!-- Node9&#45;&gt;Node11 -->
<g id="edge11_Node000009_Node000011" class="edge">
<title>Node9&#45;&gt;Node11</title>
<g id="a_edge11_Node000009_Node000011"><a xlink:title=" ">
<path fill="none" stroke="#63b8ff" d="M458.43,-54.75C464.85,-47.18 474.31,-36.05 482.12,-26.84"/>
<polygon fill="#63b8ff" stroke="#63b8ff" points="484.9,-28.98 488.71,-19.09 479.57,-24.45 484.9,-28.98"/>
</a>
</g>
</g>
<!-- Node13 -->
<g id="Node000013" class="node">
<title>Node13</title>
<g id="a_Node000013"><a xlink:href="SignalSourceContainer_8hpp.html" target="_top" xlink:title=" ">
<polygon fill="white" stroke="#666666" points="601.5,-261 454.5,-261 454.5,-242 601.5,-242 601.5,-261"/>
<text text-anchor="middle" x="528" y="-249" font-family="Helvetica,sans-Serif" font-size="10.00">SignalSourceContainer.hpp</text>
</a>
</g>
</g>
<!-- Node12&#45;&gt;Node13 -->
<g id="edge13_Node000012_Node000013" class="edge">
<title>Node12&#45;&gt;Node13</title>
<g id="a_edge13_Node000012_Node000013"><a xlink:title=" ">
<path fill="none" stroke="#63b8ff" d="M528,-296.75C528,-289.8 528,-279.85 528,-271.13"/>
<polygon fill="#63b8ff" stroke="#63b8ff" points="531.5,-271.09 528,-261.09 524.5,-271.09 531.5,-271.09"/>
</a>
</g>
</g>
<!-- Node14 -->
<g id="Node000014" class="node">
<title>Node14</title>
<g id="a_Node000014"><a xlink:href="NDimensionalContainer_8hpp.html" target="_top" xlink:title=" ">
<polygon fill="white" stroke="#666666" points="527.5,-134.5 374.5,-134.5 374.5,-115.5 527.5,-115.5 527.5,-134.5"/>
<text text-anchor="middle" x="451" y="-122.5" font-family="Helvetica,sans-Serif" font-size="10.00">NDimensionalContainer.hpp</text>
</a>
</g>
</g>
<!-- Node13&#45;&gt;Node14 -->
<g id="edge14_Node000013_Node000014" class="edge">
<title>Node13&#45;&gt;Node14</title>
<g id="a_edge14_Node000013_Node000014"><a xlink:title=" ">
<path fill="none" stroke="#63b8ff" d="M521.06,-241.88C514.12,-233.1 503.31,-218.95 495,-206 481.67,-185.23 468.28,-160.13 459.83,-143.66"/>
<polygon fill="#63b8ff" stroke="#63b8ff" points="462.9,-141.96 455.26,-134.63 456.66,-145.13 462.9,-141.96"/>
</a>
</g>
</g>
<!-- Node15 -->
<g id="Node000015" class="node">
<title>Node15</title>
<g id="a_Node000015"><a xlink:href="RegionGroup_8hpp.html" target="_top" xlink:title=" ">
<polygon fill="white" stroke="#666666" points="640.5,-200.5 503.5,-200.5 503.5,-181.5 640.5,-181.5 640.5,-200.5"/>
<text text-anchor="middle" x="572" y="-188.5" font-family="Helvetica,sans-Serif" font-size="10.00">Region/RegionGroup.hpp</text>
</a>
</g>
</g>
<!-- Node13&#45;&gt;Node15 -->
<g id="edge16_Node000013_Node000015" class="edge">
<title>Node13&#45;&gt;Node15</title>
<g id="a_edge16_Node000013_Node000015"><a xlink:title=" ">
<path fill="none" stroke="#63b8ff" d="M534.49,-241.87C540.99,-233.23 551.16,-219.7 559.28,-208.92"/>
<polygon fill="#63b8ff" stroke="#63b8ff" points="562.27,-210.76 565.48,-200.67 556.67,-206.56 562.27,-210.76"/>
</a>
</g>
</g>
<!-- Node14&#45;&gt;Node9 -->
<g id="edge15_Node000014_Node000009" class="edge">
<title>Node14&#45;&gt;Node9</title>
<g id="a_edge15_Node000014_Node000009"><a xlink:title=" ">
<path fill="none" stroke="#63b8ff" d="M451,-115.37C451,-107.25 451,-94.81 451,-84.39"/>
<polygon fill="#63b8ff" stroke="#63b8ff" points="454.5,-84.17 451,-74.17 447.5,-84.17 454.5,-84.17"/>
</a>
</g>
</g>
<!-- Node16 -->
<g id="Node000016" class="node">
<title>Node16</title>
<g id="a_Node000016"><a xlink:href="Region_8hpp.html" target="_top" xlink:title=" ">
<polygon fill="white" stroke="#666666" points="616.5,-134.5 545.5,-134.5 545.5,-115.5 616.5,-115.5 616.5,-134.5"/>
<text text-anchor="middle" x="581" y="-122.5" font-family="Helvetica,sans-Serif" font-size="10.00">Region.hpp</text>
</a>
</g>
</g>
<!-- Node15&#45;&gt;Node16 -->
<g id="edge17_Node000015_Node000016" class="edge">
<title>Node15&#45;&gt;Node16</title>
<g id="a_edge17_Node000015_Node000016"><a xlink:title=" ">
<path fill="none" stroke="#63b8ff" d="M573.21,-181.37C574.52,-172.07 576.64,-156.98 578.34,-144.9"/>
<polygon fill="#63b8ff" stroke="#63b8ff" points="581.82,-145.3 579.75,-134.91 574.89,-144.32 581.82,-145.3"/>
</a>
</g>
</g>
<!-- Node16&#45;&gt;Node9 -->
<g id="edge18_Node000016_Node000009" class="edge">
<title>Node16&#45;&gt;Node9</title>
<g id="a_edge18_Node000016_Node000009"><a xlink:title=" ">
<path fill="none" stroke="#63b8ff" d="M562.1,-115.49C540.34,-105.7 504.38,-89.52 479.29,-78.23"/>
<polygon fill="#63b8ff" stroke="#63b8ff" points="480.48,-74.93 469.93,-74.02 477.61,-81.31 480.48,-74.93"/>
</a>
</g>
</g>
</g>
</svg>
