<?xml version="1.0" encoding="UTF-8" standalone="no"?>
<!DOCTYPE svg PUBLIC "-//W3C//DTD SVG 1.1//EN"
 "http://www.w3.org/Graphics/SVG/1.1/DTD/svg11.dtd">
<!-- Generated by graphviz version 2.43.0 (0)
 -->
<!-- Title: StreamContainer.hpp Pages: 1 -->
<svg width="2303pt" height="412pt"
 viewBox="0.00 0.00 2303.00 412.00" xmlns="http://www.w3.org/2000/svg" xmlns:xlink="http://www.w3.org/1999/xlink">
<g id="graph0" class="graph" transform="scale(1 1) rotate(0) translate(4 408)">
<title>StreamContainer.hpp</title>
<!-- Node1 -->
<g id="Node000001" class="node">
<title>Node1</title>
<g id="a_Node000001"><a xlink:title=" ">
<polygon fill="#999999" stroke="#666666" points="738.5,-404 619.5,-404 619.5,-385 738.5,-385 738.5,-404"/>
<text text-anchor="middle" x="679" y="-392" font-family="Helvetica,sans-Serif" font-size="10.00">StreamContainer.hpp</text>
</a>
</g>
</g>
<!-- Node2 -->
<g id="Node000002" class="node">
<title>Node2</title>
<g id="a_Node000002"><a xlink:href="ContainerUtils_8cpp.html" target="_top" xlink:title=" ">
<polygon fill="white" stroke="#666666" points="232.5,-349 125.5,-349 125.5,-330 232.5,-330 232.5,-349"/>
<text text-anchor="middle" x="179" y="-337" font-family="Helvetica,sans-Serif" font-size="10.00">ContainerUtils.cpp</text>
</a>
</g>
</g>
<!-- Node1&#45;&gt;Node2 -->
<g id="edge1_Node000001_Node000002" class="edge">
<title>Node1&#45;&gt;Node2</title>
<g id="a_edge1_Node000001_Node000002"><a xlink:title=" ">
<path fill="none" stroke="#63b8ff" d="M609,-387.08C522.64,-379 371.36,-364.31 242,-349 238.93,-348.64 235.78,-348.25 232.6,-347.85"/>
<polygon fill="#63b8ff" stroke="#63b8ff" points="608.92,-390.59 619.2,-388.03 609.57,-383.62 608.92,-390.59"/>
</a>
</g>
</g>
<!-- Node3 -->
<g id="Node000003" class="node">
<title>Node3</title>
<g id="a_Node000003"><a xlink:href="ContiguousAccessProcessor_8cpp.html" target="_top" xlink:title=" ">
<polygon fill="white" stroke="#666666" points="423,-349 251,-349 251,-330 423,-330 423,-349"/>
<text text-anchor="middle" x="337" y="-337" font-family="Helvetica,sans-Serif" font-size="10.00">ContiguousAccessProcessor.cpp</text>
</a>
</g>
</g>
<!-- Node1&#45;&gt;Node3 -->
<g id="edge2_Node000001_Node000003" class="edge">
<title>Node1&#45;&gt;Node3</title>
<g id="a_edge2_Node000001_Node000003"><a xlink:title=" ">
<path fill="none" stroke="#63b8ff" d="M614.04,-383.43C549.82,-373.48 452.64,-358.42 392.1,-349.04"/>
<polygon fill="#63b8ff" stroke="#63b8ff" points="613.63,-386.91 624.05,-384.98 614.71,-379.99 613.63,-386.91"/>
</a>
</g>
</g>
<!-- Node4 -->
<g id="Node000004" class="node">
<title>Node4</title>
<g id="a_Node000004"><a xlink:href="FileContainer_8hpp.html" target="_top" xlink:title=" ">
<polygon fill="white" stroke="#666666" points="729.5,-349 628.5,-349 628.5,-330 729.5,-330 729.5,-349"/>
<text text-anchor="middle" x="679" y="-337" font-family="Helvetica,sans-Serif" font-size="10.00">FileContainer.hpp</text>
</a>
</g>
</g>
<!-- Node1&#45;&gt;Node4 -->
<g id="edge3_Node000001_Node000004" class="edge">
<title>Node1&#45;&gt;Node4</title>
<g id="a_edge3_Node000001_Node000004"><a xlink:title=" ">
<path fill="none" stroke="#63b8ff" d="M679,-374.66C679,-365.93 679,-355.99 679,-349.09"/>
<polygon fill="#63b8ff" stroke="#63b8ff" points="675.5,-374.75 679,-384.75 682.5,-374.75 675.5,-374.75"/>
</a>
</g>
</g>
<!-- Node23 -->
<g id="Node000023" class="node">
<title>Node23</title>
<g id="a_Node000023"><a xlink:href="SoundContainerBuffer_8hpp.html" target="_top" xlink:title=" ">
<polygon fill="white" stroke="#666666" points="1308.5,-294 1165.5,-294 1165.5,-275 1308.5,-275 1308.5,-294"/>
<text text-anchor="middle" x="1237" y="-282" font-family="Helvetica,sans-Serif" font-size="10.00">SoundContainerBuffer.hpp</text>
</a>
</g>
</g>
<!-- Node1&#45;&gt;Node23 -->
<g id="edge28_Node000001_Node000023" class="edge">
<title>Node1&#45;&gt;Node23</title>
<g id="a_edge28_Node000001_Node000023"><a xlink:title=" ">
<path fill="none" stroke="#63b8ff" d="M733.15,-383.02C843.29,-361.7 1091.5,-313.66 1192.74,-294.07"/>
<polygon fill="#63b8ff" stroke="#63b8ff" points="732.4,-379.6 723.25,-384.94 733.73,-386.47 732.4,-379.6"/>
</a>
</g>
</g>
<!-- Node25 -->
<g id="Node000025" class="node">
<title>Node25</title>
<g id="a_Node000025"><a xlink:href="SoundStreamContainer_8hpp.html" target="_top" xlink:title=" ">
<polygon fill="white" stroke="#666666" points="1256.5,-349 1107.5,-349 1107.5,-330 1256.5,-330 1256.5,-349"/>
<text text-anchor="middle" x="1182" y="-337" font-family="Helvetica,sans-Serif" font-size="10.00">SoundStreamContainer.hpp</text>
</a>
</g>
</g>
<!-- Node1&#45;&gt;Node25 -->
<g id="edge36_Node000001_Node000025" class="edge">
<title>Node1&#45;&gt;Node25</title>
<g id="a_edge36_Node000001_Node000025"><a xlink:title=" ">
<path fill="none" stroke="#63b8ff" d="M748.68,-386.16C842.97,-376.22 1010.49,-358.57 1107.3,-348.37"/>
<polygon fill="#63b8ff" stroke="#63b8ff" points="748.25,-382.68 738.68,-387.21 748.99,-389.64 748.25,-382.68"/>
</a>
</g>
</g>
<!-- Node37 -->
<g id="Node000037" class="node">
<title>Node37</title>
<g id="a_Node000037"><a xlink:href="VideoContainerBuffer_8hpp.html" target="_top" xlink:title=" ">
<polygon fill="white" stroke="#666666" points="2197.5,-349 2056.5,-349 2056.5,-330 2197.5,-330 2197.5,-349"/>
<text text-anchor="middle" x="2127" y="-337" font-family="Helvetica,sans-Serif" font-size="10.00">VideoContainerBuffer.hpp</text>
</a>
</g>
</g>
<!-- Node1&#45;&gt;Node37 -->
<g id="edge56_Node000001_Node000037" class="edge">
<title>Node1&#45;&gt;Node37</title>
<g id="a_edge56_Node000001_Node000037"><a xlink:title=" ">
<path fill="none" stroke="#63b8ff" d="M749.12,-390.93C994.12,-381.97 1810.39,-352.09 2056.3,-343.09"/>
<polygon fill="#63b8ff" stroke="#63b8ff" points="748.78,-387.44 738.92,-391.31 749.04,-394.44 748.78,-387.44"/>
</a>
</g>
</g>
<!-- Node39 -->
<g id="Node000039" class="node">
<title>Node39</title>
<g id="a_Node000039"><a xlink:href="VideoStreamContainer_8hpp.html" target="_top" xlink:title=" ">
<polygon fill="white" stroke="#666666" points="460.5,-239 313.5,-239 313.5,-220 460.5,-220 460.5,-239"/>
<text text-anchor="middle" x="387" y="-227" font-family="Helvetica,sans-Serif" font-size="10.00">VideoStreamContainer.hpp</text>
</a>
</g>
</g>
<!-- Node1&#45;&gt;Node39 -->
<g id="edge59_Node000001_Node000039" class="edge">
<title>Node1&#45;&gt;Node39</title>
<g id="a_edge59_Node000001_Node000039"><a xlink:title=" ">
<path fill="none" stroke="#63b8ff" d="M654.86,-380.03C596.77,-347.6 450.45,-265.92 402.49,-239.15"/>
<polygon fill="#63b8ff" stroke="#63b8ff" points="653.27,-383.15 663.71,-384.97 656.69,-377.04 653.27,-383.15"/>
</a>
</g>
</g>
<!-- Node5 -->
<g id="Node000005" class="node">
<title>Node5</title>
<g id="a_Node000005"><a xlink:href="SoundFileContainer_8hpp.html" target="_top" xlink:title=" ">
<polygon fill="white" stroke="#666666" points="888.5,-294 757.5,-294 757.5,-275 888.5,-275 888.5,-294"/>
<text text-anchor="middle" x="823" y="-282" font-family="Helvetica,sans-Serif" font-size="10.00">SoundFileContainer.hpp</text>
</a>
</g>
</g>
<!-- Node4&#45;&gt;Node5 -->
<g id="edge4_Node000004_Node000005" class="edge">
<title>Node4&#45;&gt;Node5</title>
<g id="a_edge4_Node000004_Node000005"><a xlink:title=" ">
<path fill="none" stroke="#63b8ff" d="M711.82,-326.42C738.53,-316.59 775.6,-302.95 799.44,-294.17"/>
<polygon fill="#63b8ff" stroke="#63b8ff" points="710.31,-323.25 702.14,-329.98 712.73,-329.82 710.31,-323.25"/>
</a>
</g>
</g>
<!-- Node21 -->
<g id="Node000021" class="node">
<title>Node21</title>
<g id="a_Node000021"><a xlink:href="VideoFileContainer_8hpp.html" target="_top" xlink:title=" ">
<polygon fill="white" stroke="#666666" points="607.5,-184 478.5,-184 478.5,-165 607.5,-165 607.5,-184"/>
<text text-anchor="middle" x="543" y="-172" font-family="Helvetica,sans-Serif" font-size="10.00">VideoFileContainer.hpp</text>
</a>
</g>
</g>
<!-- Node4&#45;&gt;Node21 -->
<g id="edge24_Node000004_Node000021" class="edge">
<title>Node4&#45;&gt;Node21</title>
<g id="a_edge24_Node000004_Node000021"><a xlink:title=" ">
<path fill="none" stroke="#63b8ff" d="M635.6,-326.83C594.52,-313.22 535.21,-286.31 508,-239 496.83,-219.58 518.11,-196.46 532.12,-184.18"/>
<polygon fill="#63b8ff" stroke="#63b8ff" points="634.77,-330.24 645.36,-329.93 636.89,-323.57 634.77,-330.24"/>
</a>
</g>
</g>
<!-- Node6 -->
<g id="Node000006" class="node">
<title>Node6</title>
<g id="a_Node000006"><a xlink:href="Creator_8cpp.html" target="_top" xlink:title=" ">
<polygon fill="white" stroke="#666666" points="1043,-74 971,-74 971,-55 1043,-55 1043,-74"/>
<text text-anchor="middle" x="1007" y="-62" font-family="Helvetica,sans-Serif" font-size="10.00">Creator.cpp</text>
</a>
</g>
</g>
<!-- Node5&#45;&gt;Node6 -->
<g id="edge5_Node000005_Node000006" class="edge">
<title>Node5&#45;&gt;Node6</title>
<g id="a_edge5_Node000005_Node000006"><a xlink:title=" ">
<path fill="none" stroke="#63b8ff" d="M812.51,-265.57C806.19,-252.22 800.8,-233.96 809,-220 819.5,-202.11 957.37,-143.71 972,-129 988.16,-112.76 999.03,-87.51 1003.97,-74.28"/>
<polygon fill="#63b8ff" stroke="#63b8ff" points="809.55,-267.46 817.31,-274.67 815.74,-264.19 809.55,-267.46"/>
</a>
</g>
</g>
<!-- Node7 -->
<g id="Node000007" class="node">
<title>Node7</title>
<g id="a_Node000007"><a xlink:href="Depot_8cpp.html" target="_top" xlink:title=" ">
<polygon fill="white" stroke="#666666" points="827,-74 761,-74 761,-55 827,-55 827,-74"/>
<text text-anchor="middle" x="794" y="-62" font-family="Helvetica,sans-Serif" font-size="10.00">Depot.cpp</text>
</a>
</g>
</g>
<!-- Node5&#45;&gt;Node7 -->
<g id="edge6_Node000005_Node000007" class="edge">
<title>Node5&#45;&gt;Node7</title>
<g id="a_edge6_Node000005_Node000007"><a xlink:title=" ">
<path fill="none" stroke="#63b8ff" d="M791.97,-270.46C776.95,-262.97 759.51,-252.37 747,-239 709.65,-199.09 704.56,-182.2 692,-129 690.06,-120.78 687.37,-117.06 692,-110 707.13,-86.89 737.19,-75.71 760.77,-70.35"/>
<polygon fill="#63b8ff" stroke="#63b8ff" points="790.88,-273.82 801.41,-274.94 793.87,-267.49 790.88,-273.82"/>
</a>
</g>
</g>
<!-- Node8 -->
<g id="Node000008" class="node">
<title>Node8</title>
<g id="a_Node000008"><a xlink:href="GranularWorkflow_8cpp.html" target="_top" xlink:title=" ">
<polygon fill="white" stroke="#666666" points="1246.5,-184 1123.5,-184 1123.5,-165 1246.5,-165 1246.5,-184"/>
<text text-anchor="middle" x="1185" y="-172" font-family="Helvetica,sans-Serif" font-size="10.00">GranularWorkflow.cpp</text>
</a>
</g>
</g>
<!-- Node5&#45;&gt;Node8 -->
<g id="edge7_Node000005_Node000008" class="edge">
<title>Node5&#45;&gt;Node8</title>
<g id="a_edge7_Node000005_Node000008"><a xlink:title=" ">
<path fill="none" stroke="#63b8ff" d="M867.59,-272.43C899.05,-264.22 942.02,-252.2 979,-239 999.06,-231.84 1002.9,-227.06 1023,-220 1065.24,-205.16 1115.07,-192.12 1148.2,-184.05"/>
<polygon fill="#63b8ff" stroke="#63b8ff" points="866.6,-269.07 857.8,-274.96 868.35,-275.85 866.6,-269.07"/>
</a>
</g>
</g>
<!-- Node9 -->
<g id="Node000009" class="node">
<title>Node9</title>
<g id="a_Node000009"><a xlink:href="IOManager_8cpp.html" target="_top" xlink:title=" ">
<polygon fill="white" stroke="#666666" points="1150.5,-74 1061.5,-74 1061.5,-55 1150.5,-55 1150.5,-74"/>
<text text-anchor="middle" x="1106" y="-62" font-family="Helvetica,sans-Serif" font-size="10.00">IOManager.cpp</text>
</a>
</g>
</g>
<!-- Node5&#45;&gt;Node9 -->
<g id="edge8_Node000005_Node000009" class="edge">
<title>Node5&#45;&gt;Node9</title>
<g id="a_edge8_Node000005_Node000009"><a xlink:title=" ">
<path fill="none" stroke="#63b8ff" d="M824.93,-264.64C827.15,-251.03 831.89,-232.87 842,-220 844.25,-217.14 1035.85,-106.11 1091.19,-74.07"/>
<polygon fill="#63b8ff" stroke="#63b8ff" points="821.43,-264.41 823.6,-274.78 828.37,-265.32 821.43,-264.41"/>
</a>
</g>
</g>
<!-- Node10 -->
<g id="Node000010" class="node">
<title>Node10</title>
<g id="a_Node000010"><a xlink:href="SoundContainerBuffer_8cpp.html" target="_top" xlink:title=" ">
<polygon fill="white" stroke="#666666" points="1208.5,-239 1065.5,-239 1065.5,-220 1208.5,-220 1208.5,-239"/>
<text text-anchor="middle" x="1137" y="-227" font-family="Helvetica,sans-Serif" font-size="10.00">SoundContainerBuffer.cpp</text>
</a>
</g>
</g>
<!-- Node5&#45;&gt;Node10 -->
<g id="edge9_Node000005_Node000010" class="edge">
<title>Node5&#45;&gt;Node10</title>
<g id="a_edge9_Node000005_Node000010"><a xlink:title=" ">
<path fill="none" stroke="#63b8ff" d="M883.37,-273.31C942.34,-263.36 1031.05,-248.38 1086.42,-239.04"/>
<polygon fill="#63b8ff" stroke="#63b8ff" points="882.73,-269.87 873.45,-274.98 883.89,-276.77 882.73,-269.87"/>
</a>
</g>
</g>
<!-- Node11 -->
<g id="Node000011" class="node">
<title>Node11</title>
<g id="a_Node000011"><a xlink:href="SoundFileBridge_8cpp.html" target="_top" xlink:title=" ">
<polygon fill="white" stroke="#666666" points="1419,-184 1303,-184 1303,-165 1419,-165 1419,-184"/>
<text text-anchor="middle" x="1361" y="-172" font-family="Helvetica,sans-Serif" font-size="10.00">SoundFileBridge.cpp</text>
</a>
</g>
</g>
<!-- Node5&#45;&gt;Node11 -->
<g id="edge10_Node000005_Node000011" class="edge">
<title>Node5&#45;&gt;Node11</title>
<g id="a_edge10_Node000005_Node000011"><a xlink:title=" ">
<path fill="none" stroke="#63b8ff" d="M882.3,-273.04C920.7,-265.47 971.48,-253.95 1015,-239 1033.99,-232.48 1036.75,-225.73 1056,-220 1101,-206.6 1227.65,-190.66 1302.84,-181.96"/>
<polygon fill="#63b8ff" stroke="#63b8ff" points="881.46,-269.64 872.31,-274.98 882.79,-276.51 881.46,-269.64"/>
</a>
</g>
</g>
<!-- Node12 -->
<g id="Node000012" class="node">
<title>Node12</title>
<g id="a_Node000012"><a xlink:href="SoundFileContainer_8cpp.html" target="_top" xlink:title=" ">
<polygon fill="white" stroke="#666666" points="648.5,-239 517.5,-239 517.5,-220 648.5,-220 648.5,-239"/>
<text text-anchor="middle" x="583" y="-227" font-family="Helvetica,sans-Serif" font-size="10.00">SoundFileContainer.cpp</text>
</a>
</g>
</g>
<!-- Node5&#45;&gt;Node12 -->
<g id="edge11_Node000005_Node000012" class="edge">
<title>Node5&#45;&gt;Node12</title>
<g id="a_edge11_Node000005_Node000012"><a xlink:title=" ">
<path fill="none" stroke="#63b8ff" d="M774.62,-272.82C729.64,-262.88 663.5,-248.28 621.86,-239.08"/>
<polygon fill="#63b8ff" stroke="#63b8ff" points="773.92,-276.25 784.44,-274.98 775.43,-269.41 773.92,-276.25"/>
</a>
</g>
</g>
<!-- Node13 -->
<g id="Node000013" class="node">
<title>Node13</title>
<g id="a_Node000013"><a xlink:href="SoundFileReader_8hpp.html" target="_top" xlink:title=" ">
<polygon fill="white" stroke="#666666" points="970.5,-239 851.5,-239 851.5,-220 970.5,-220 970.5,-239"/>
<text text-anchor="middle" x="911" y="-227" font-family="Helvetica,sans-Serif" font-size="10.00">SoundFileReader.hpp</text>
</a>
</g>
</g>
<!-- Node5&#45;&gt;Node13 -->
<g id="edge12_Node000005_Node000013" class="edge">
<title>Node5&#45;&gt;Node13</title>
<g id="a_edge12_Node000005_Node000013"><a xlink:title=" ">
<path fill="none" stroke="#63b8ff" d="M845.92,-269.7C861.95,-260.04 882.87,-247.44 896.6,-239.17"/>
<polygon fill="#63b8ff" stroke="#63b8ff" points="843.9,-266.83 837.14,-274.98 847.51,-272.82 843.9,-266.83"/>
</a>
</g>
</g>
<!-- Node20 -->
<g id="Node000020" class="node">
<title>Node20</title>
<g id="a_Node000020"><a xlink:href="VideoFileReader_8cpp.html" target="_top" xlink:title=" ">
<polygon fill="white" stroke="#666666" points="817,-129 701,-129 701,-110 817,-110 817,-129"/>
<text text-anchor="middle" x="759" y="-117" font-family="Helvetica,sans-Serif" font-size="10.00">VideoFileReader.cpp</text>
</a>
</g>
</g>
<!-- Node5&#45;&gt;Node20 -->
<g id="edge23_Node000005_Node000020" class="edge">
<title>Node5&#45;&gt;Node20</title>
<g id="a_edge23_Node000005_Node000020"><a xlink:title=" ">
<path fill="none" stroke="#63b8ff" d="M801.1,-269.01C777.71,-251.96 742.34,-221.21 730,-184 723.28,-163.75 739.51,-141.33 750.31,-129.3"/>
<polygon fill="#63b8ff" stroke="#63b8ff" points="799.22,-271.96 809.41,-274.86 803.25,-266.24 799.22,-271.96"/>
</a>
</g>
</g>
<!-- Node14 -->
<g id="Node000014" class="node">
<title>Node14</title>
<g id="a_Node000014"><a xlink:href="SoundFileReader_8cpp.html" target="_top" xlink:title=" ">
<polygon fill="white" stroke="#666666" points="1105,-184 987,-184 987,-165 1105,-165 1105,-184"/>
<text text-anchor="middle" x="1046" y="-172" font-family="Helvetica,sans-Serif" font-size="10.00">SoundFileReader.cpp</text>
</a>
</g>
</g>
<!-- Node13&#45;&gt;Node14 -->
<g id="edge13_Node000013_Node000014" class="edge">
<title>Node13&#45;&gt;Node14</title>
<g id="a_edge13_Node000013_Node000014"><a xlink:title=" ">
<path fill="none" stroke="#63b8ff" d="M942.1,-216.29C967.12,-206.47 1001.66,-192.91 1023.92,-184.17"/>
<polygon fill="#63b8ff" stroke="#63b8ff" points="940.72,-213.07 932.69,-219.98 943.28,-219.59 940.72,-213.07"/>
</a>
</g>
</g>
<!-- Node15 -->
<g id="Node000015" class="node">
<title>Node15</title>
<g id="a_Node000015"><a xlink:href="VideoFileReader_8hpp.html" target="_top" xlink:title=" ">
<polygon fill="white" stroke="#666666" points="855,-184 739,-184 739,-165 855,-165 855,-184"/>
<text text-anchor="middle" x="797" y="-172" font-family="Helvetica,sans-Serif" font-size="10.00">VideoFileReader.hpp</text>
</a>
</g>
</g>
<!-- Node13&#45;&gt;Node15 -->
<g id="edge14_Node000013_Node000015" class="edge">
<title>Node13&#45;&gt;Node15</title>
<g id="a_edge14_Node000013_Node000015"><a xlink:title=" ">
<path fill="none" stroke="#63b8ff" d="M883.61,-215.77C862.58,-205.99 834.11,-192.75 815.65,-184.17"/>
<polygon fill="#63b8ff" stroke="#63b8ff" points="882.14,-218.94 892.68,-219.98 885.09,-212.6 882.14,-218.94"/>
</a>
</g>
</g>
<!-- Node16 -->
<g id="Node000016" class="node">
<title>Node16</title>
<g id="a_Node000016"><a xlink:href="IOManager_8hpp.html" target="_top" xlink:title=" ">
<polygon fill="white" stroke="#666666" points="963,-129 873,-129 873,-110 963,-110 963,-129"/>
<text text-anchor="middle" x="918" y="-117" font-family="Helvetica,sans-Serif" font-size="10.00">IOManager.hpp</text>
</a>
</g>
</g>
<!-- Node15&#45;&gt;Node16 -->
<g id="edge15_Node000015_Node000016" class="edge">
<title>Node15&#45;&gt;Node16</title>
<g id="a_edge15_Node000015_Node000016"><a xlink:title=" ">
<path fill="none" stroke="#63b8ff" d="M825.77,-160.9C848.12,-151.11 878.52,-137.79 898.21,-129.17"/>
<polygon fill="#63b8ff" stroke="#63b8ff" points="824.2,-157.77 816.44,-164.98 827,-164.18 824.2,-157.77"/>
</a>
</g>
</g>
<!-- Node15&#45;&gt;Node20 -->
<g id="edge22_Node000015_Node000020" class="edge">
<title>Node15&#45;&gt;Node20</title>
<g id="a_edge22_Node000015_Node000020"><a xlink:title=" ">
<path fill="none" stroke="#63b8ff" d="M784.73,-156.39C778.19,-147.27 770.43,-136.45 765.16,-129.09"/>
<polygon fill="#63b8ff" stroke="#63b8ff" points="782.05,-158.66 790.73,-164.75 787.74,-154.58 782.05,-158.66"/>
</a>
</g>
</g>
<!-- Node16&#45;&gt;Node6 -->
<g id="edge17_Node000016_Node000006" class="edge">
<title>Node16&#45;&gt;Node6</title>
<g id="a_edge17_Node000016_Node000006"><a xlink:title=" ">
<path fill="none" stroke="#63b8ff" d="M941.18,-104.7C957.39,-95.04 978.55,-82.44 992.44,-74.17"/>
<polygon fill="#63b8ff" stroke="#63b8ff" points="939.1,-101.86 932.3,-109.98 942.68,-107.88 939.1,-101.86"/>
</a>
</g>
</g>
<!-- Node16&#45;&gt;Node7 -->
<g id="edge18_Node000016_Node000007" class="edge">
<title>Node16&#45;&gt;Node7</title>
<g id="a_edge18_Node000016_Node000007"><a xlink:title=" ">
<path fill="none" stroke="#63b8ff" d="M888.82,-106.03C865.89,-96.23 834.55,-82.83 814.29,-74.17"/>
<polygon fill="#63b8ff" stroke="#63b8ff" points="887.51,-109.27 898.08,-109.98 890.26,-102.84 887.51,-109.27"/>
</a>
</g>
</g>
<!-- Node16&#45;&gt;Node9 -->
<g id="edge20_Node000016_Node000009" class="edge">
<title>Node16&#45;&gt;Node9</title>
<g id="a_edge20_Node000016_Node000009"><a xlink:title=" ">
<path fill="none" stroke="#63b8ff" d="M958.14,-107.18C993.3,-97.27 1043.63,-83.08 1075.56,-74.08"/>
<polygon fill="#63b8ff" stroke="#63b8ff" points="956.88,-103.9 948.21,-109.98 958.78,-110.64 956.88,-103.9"/>
</a>
</g>
</g>
<!-- Node17 -->
<g id="Node000017" class="node">
<title>Node17</title>
<g id="a_Node000017"><a xlink:href="BufferOperation_8cpp.html" target="_top" xlink:title=" ">
<polygon fill="white" stroke="#666666" points="1451,-74 1337,-74 1337,-55 1451,-55 1451,-74"/>
<text text-anchor="middle" x="1394" y="-62" font-family="Helvetica,sans-Serif" font-size="10.00">BufferOperation.cpp</text>
</a>
</g>
</g>
<!-- Node16&#45;&gt;Node17 -->
<g id="edge16_Node000016_Node000017" class="edge">
<title>Node16&#45;&gt;Node17</title>
<g id="a_edge16_Node000016_Node000017"><a xlink:title=" ">
<path fill="none" stroke="#63b8ff" d="M973.32,-112.34C1064.25,-102.22 1244.43,-82.15 1336.67,-71.88"/>
<polygon fill="#63b8ff" stroke="#63b8ff" points="972.76,-108.88 963.21,-113.47 973.54,-115.84 972.76,-108.88"/>
</a>
</g>
</g>
<!-- Node18 -->
<g id="Node000018" class="node">
<title>Node18</title>
<g id="a_Node000018"><a xlink:href="Engine_8cpp.html" target="_top" xlink:title=" ">
<polygon fill="white" stroke="#666666" points="953,-74 883,-74 883,-55 953,-55 953,-74"/>
<text text-anchor="middle" x="918" y="-62" font-family="Helvetica,sans-Serif" font-size="10.00">Engine.cpp</text>
</a>
</g>
</g>
<!-- Node16&#45;&gt;Node18 -->
<g id="edge19_Node000016_Node000018" class="edge">
<title>Node16&#45;&gt;Node18</title>
<g id="a_edge19_Node000016_Node000018"><a xlink:title=" ">
<path fill="none" stroke="#63b8ff" d="M918,-99.66C918,-90.93 918,-80.99 918,-74.09"/>
<polygon fill="#63b8ff" stroke="#63b8ff" points="914.5,-99.75 918,-109.75 921.5,-99.75 914.5,-99.75"/>
</a>
</g>
</g>
<!-- Node19 -->
<g id="Node000019" class="node">
<title>Node19</title>
<g id="a_Node000019"><a xlink:href="Rigs_8cpp.html" target="_top" xlink:title=" ">
<polygon fill="white" stroke="#666666" points="1548,-19 1490,-19 1490,0 1548,0 1548,-19"/>
<text text-anchor="middle" x="1519" y="-7" font-family="Helvetica,sans-Serif" font-size="10.00">Rigs.cpp</text>
</a>
</g>
</g>
<!-- Node16&#45;&gt;Node19 -->
<g id="edge21_Node000016_Node000019" class="edge">
<title>Node16&#45;&gt;Node19</title>
<g id="a_edge21_Node000016_Node000019"><a xlink:title=" ">
<path fill="none" stroke="#63b8ff" d="M896.42,-103.89C879.07,-90.41 859.76,-70.25 874,-55 916.46,-9.51 1369.32,-9.44 1489.73,-10.23"/>
<polygon fill="#63b8ff" stroke="#63b8ff" points="894.49,-106.81 904.62,-109.91 898.63,-101.17 894.49,-106.81"/>
</a>
</g>
</g>
<!-- Node21&#45;&gt;Node9 -->
<g id="edge25_Node000021_Node000009" class="edge">
<title>Node21&#45;&gt;Node9</title>
<g id="a_edge25_Node000021_Node000009"><a xlink:title=" ">
<path fill="none" stroke="#63b8ff" d="M567.49,-160.31C596.37,-145.42 646.24,-121.75 692,-110 847.75,-70.02 892.52,-94.51 1052,-74 1055.01,-73.61 1058.11,-73.19 1061.24,-72.75"/>
<polygon fill="#63b8ff" stroke="#63b8ff" points="565.78,-157.26 558.54,-165 569.02,-163.46 565.78,-157.26"/>
</a>
</g>
</g>
<!-- Node21&#45;&gt;Node20 -->
<g id="edge27_Node000021_Node000020" class="edge">
<title>Node21&#45;&gt;Node20</title>
<g id="a_edge27_Node000021_Node000020"><a xlink:title=" ">
<path fill="none" stroke="#63b8ff" d="M587.57,-162.56C628.02,-152.64 686.87,-138.2 724.02,-129.08"/>
<polygon fill="#63b8ff" stroke="#63b8ff" points="586.58,-159.2 577.7,-164.98 588.25,-166 586.58,-159.2"/>
</a>
</g>
</g>
<!-- Node22 -->
<g id="Node000022" class="node">
<title>Node22</title>
<g id="a_Node000022"><a xlink:href="VideoFileContainer_8cpp.html" target="_top" xlink:title=" ">
<polygon fill="white" stroke="#666666" points="607,-129 479,-129 479,-110 607,-110 607,-129"/>
<text text-anchor="middle" x="543" y="-117" font-family="Helvetica,sans-Serif" font-size="10.00">VideoFileContainer.cpp</text>
</a>
</g>
</g>
<!-- Node21&#45;&gt;Node22 -->
<g id="edge26_Node000021_Node000022" class="edge">
<title>Node21&#45;&gt;Node22</title>
<g id="a_edge26_Node000021_Node000022"><a xlink:title=" ">
<path fill="none" stroke="#63b8ff" d="M543,-154.66C543,-145.93 543,-135.99 543,-129.09"/>
<polygon fill="#63b8ff" stroke="#63b8ff" points="539.5,-154.75 543,-164.75 546.5,-154.75 539.5,-154.75"/>
</a>
</g>
</g>
<!-- Node23&#45;&gt;Node7 -->
<g id="edge29_Node000023_Node000007" class="edge">
<title>Node23&#45;&gt;Node7</title>
<g id="a_edge29_Node000023_Node000007"><a xlink:title=" ">
<path fill="none" stroke="#63b8ff" d="M1236.54,-264.73C1235.13,-250.31 1230.76,-231.07 1218,-220 1136.52,-149.33 1081.07,-215.79 978,-184 924.24,-167.42 910.65,-160.44 864,-129 839.24,-112.31 814.3,-87.25 801.96,-74.17"/>
<polygon fill="#63b8ff" stroke="#63b8ff" points="1233.07,-265.22 1237.14,-275 1240.05,-264.81 1233.07,-265.22"/>
</a>
</g>
</g>
<!-- Node23&#45;&gt;Node9 -->
<g id="edge30_Node000023_Node000009" class="edge">
<title>Node23&#45;&gt;Node9</title>
<g id="a_edge30_Node000023_Node000009"><a xlink:title=" ">
<path fill="none" stroke="#63b8ff" d="M1246.34,-265.79C1257.72,-241.58 1273.41,-197.45 1256,-165 1229.77,-116.12 1167.8,-87.19 1132.26,-74.04"/>
<polygon fill="#63b8ff" stroke="#63b8ff" points="1243.15,-264.34 1241.84,-274.86 1249.42,-267.46 1243.15,-264.34"/>
</a>
</g>
</g>
<!-- Node23&#45;&gt;Node10 -->
<g id="edge31_Node000023_Node000010" class="edge">
<title>Node23&#45;&gt;Node10</title>
<g id="a_edge31_Node000023_Node000010"><a xlink:title=" ">
<path fill="none" stroke="#63b8ff" d="M1211.97,-270.23C1193.63,-260.51 1169.26,-247.6 1153.36,-239.17"/>
<polygon fill="#63b8ff" stroke="#63b8ff" points="1210.46,-273.39 1220.93,-274.98 1213.74,-267.21 1210.46,-273.39"/>
</a>
</g>
</g>
<!-- Node23&#45;&gt;Node11 -->
<g id="edge32_Node000023_Node000011" class="edge">
<title>Node23&#45;&gt;Node11</title>
<g id="a_edge32_Node000023_Node000011"><a xlink:title=" ">
<path fill="none" stroke="#63b8ff" d="M1255.11,-268.12C1265.13,-259.58 1277.79,-248.74 1289,-239 1311.4,-219.54 1337.46,-196.44 1351.26,-184.17"/>
<polygon fill="#63b8ff" stroke="#63b8ff" points="1252.75,-265.53 1247.4,-274.68 1257.28,-270.86 1252.75,-265.53"/>
</a>
</g>
</g>
<!-- Node24 -->
<g id="Node000024" class="node">
<title>Node24</title>
<g id="a_Node000024"><a xlink:href="SoundFileBridge_8hpp.html" target="_top" xlink:title=" ">
<polygon fill="white" stroke="#666666" points="1457,-239 1341,-239 1341,-220 1457,-220 1457,-239"/>
<text text-anchor="middle" x="1399" y="-227" font-family="Helvetica,sans-Serif" font-size="10.00">SoundFileBridge.hpp</text>
</a>
</g>
</g>
<!-- Node23&#45;&gt;Node24 -->
<g id="edge33_Node000023_Node000024" class="edge">
<title>Node23&#45;&gt;Node24</title>
<g id="a_edge33_Node000023_Node000024"><a xlink:title=" ">
<path fill="none" stroke="#63b8ff" d="M1272.77,-271.8C1303,-261.91 1345.61,-247.97 1372.77,-239.08"/>
<polygon fill="#63b8ff" stroke="#63b8ff" points="1271.44,-268.55 1263.03,-274.98 1273.62,-275.2 1271.44,-268.55"/>
</a>
</g>
</g>
<!-- Node24&#45;&gt;Node11 -->
<g id="edge35_Node000024_Node000011" class="edge">
<title>Node24&#45;&gt;Node11</title>
<g id="a_edge35_Node000024_Node000011"><a xlink:title=" ">
<path fill="none" stroke="#63b8ff" d="M1386.73,-211.39C1380.19,-202.27 1372.43,-191.45 1367.16,-184.09"/>
<polygon fill="#63b8ff" stroke="#63b8ff" points="1384.05,-213.66 1392.73,-219.75 1389.74,-209.58 1384.05,-213.66"/>
</a>
</g>
</g>
<!-- Node24&#45;&gt;Node17 -->
<g id="edge34_Node000024_Node000017" class="edge">
<title>Node24&#45;&gt;Node17</title>
<g id="a_edge34_Node000024_Node000017"><a xlink:title=" ">
<path fill="none" stroke="#63b8ff" d="M1413.21,-211.78C1419,-203.89 1425.02,-194.02 1428,-184 1440.19,-142.97 1412.58,-93.72 1399.92,-74.14"/>
<polygon fill="#63b8ff" stroke="#63b8ff" points="1410.37,-209.72 1406.94,-219.75 1415.87,-214.05 1410.37,-209.72"/>
</a>
</g>
</g>
<!-- Node25&#45;&gt;Node5 -->
<g id="edge54_Node000025_Node000005" class="edge">
<title>Node25&#45;&gt;Node5</title>
<g id="a_edge54_Node000025_Node000005"><a xlink:title=" ">
<path fill="none" stroke="#63b8ff" d="M1114.23,-328.49C1046.82,-318.54 944.52,-303.44 880.83,-294.04"/>
<polygon fill="#63b8ff" stroke="#63b8ff" points="1113.92,-331.99 1124.32,-329.98 1114.94,-325.06 1113.92,-331.99"/>
</a>
</g>
</g>
<!-- Node26 -->
<g id="Node000026" class="node">
<title>Node26</title>
<g id="a_Node000026"><a xlink:href="DynamicSoundStream_8hpp.html" target="_top" xlink:title=" ">
<polygon fill="white" stroke="#666666" points="1660,-239 1514,-239 1514,-220 1660,-220 1660,-239"/>
<text text-anchor="middle" x="1587" y="-227" font-family="Helvetica,sans-Serif" font-size="10.00">DynamicSoundStream.hpp</text>
</a>
</g>
</g>
<!-- Node25&#45;&gt;Node26 -->
<g id="edge37_Node000025_Node000026" class="edge">
<title>Node25&#45;&gt;Node26</title>
<g id="a_edge37_Node000025_Node000026"><a xlink:title=" ">
<path fill="none" stroke="#63b8ff" d="M1222.07,-327.09C1249.46,-318.88 1286.38,-306.99 1318,-294 1335.46,-286.82 1338.12,-281.06 1356,-275 1408.31,-257.26 1469.83,-245.84 1516.22,-239.02"/>
<polygon fill="#63b8ff" stroke="#63b8ff" points="1221.04,-323.74 1212.44,-329.94 1223.02,-330.46 1221.04,-323.74"/>
</a>
</g>
</g>
<!-- Node36 -->
<g id="Node000036" class="node">
<title>Node36</title>
<g id="a_Node000036"><a xlink:href="SoundStreamContainer_8cpp.html" target="_top" xlink:title=" ">
<polygon fill="white" stroke="#666666" points="1513.5,-294 1364.5,-294 1364.5,-275 1513.5,-275 1513.5,-294"/>
<text text-anchor="middle" x="1439" y="-282" font-family="Helvetica,sans-Serif" font-size="10.00">SoundStreamContainer.cpp</text>
</a>
</g>
</g>
<!-- Node25&#45;&gt;Node36 -->
<g id="edge55_Node000025_Node000036" class="edge">
<title>Node25&#45;&gt;Node36</title>
<g id="a_edge55_Node000025_Node000036"><a xlink:title=" ">
<path fill="none" stroke="#63b8ff" d="M1233.2,-327.94C1281.38,-318.01 1352.62,-303.31 1397.38,-294.08"/>
<polygon fill="#63b8ff" stroke="#63b8ff" points="1232.38,-324.54 1223.29,-329.98 1233.79,-331.39 1232.38,-324.54"/>
</a>
</g>
</g>
<!-- Node26&#45;&gt;Node8 -->
<g id="edge41_Node000026_Node000008" class="edge">
<title>Node26&#45;&gt;Node8</title>
<g id="a_edge41_Node000026_Node000008"><a xlink:title=" ">
<path fill="none" stroke="#63b8ff" d="M1512.36,-218.66C1435.85,-208.57 1318.25,-193.07 1246.79,-183.65"/>
<polygon fill="#63b8ff" stroke="#63b8ff" points="1512.04,-222.15 1522.41,-219.98 1512.96,-215.21 1512.04,-222.15"/>
</a>
</g>
</g>
<!-- Node26&#45;&gt;Node9 -->
<g id="edge42_Node000026_Node000009" class="edge">
<title>Node26&#45;&gt;Node9</title>
<g id="a_edge42_Node000026_Node000009"><a xlink:title=" ">
<path fill="none" stroke="#63b8ff" d="M1555.98,-216.08C1523.94,-203.25 1472.49,-182.69 1428,-165 1366.26,-140.46 1352.32,-130.12 1289,-110 1241.48,-94.9 1185.63,-82 1148.25,-74.04"/>
<polygon fill="#63b8ff" stroke="#63b8ff" points="1555.08,-219.49 1565.66,-219.95 1557.68,-212.99 1555.08,-219.49"/>
</a>
</g>
</g>
<!-- Node26&#45;&gt;Node11 -->
<g id="edge44_Node000026_Node000011" class="edge">
<title>Node26&#45;&gt;Node11</title>
<g id="a_edge44_Node000026_Node000011"><a xlink:title=" ">
<path fill="none" stroke="#63b8ff" d="M1540.91,-217.69C1498.56,-207.76 1436.64,-193.24 1397.6,-184.08"/>
<polygon fill="#63b8ff" stroke="#63b8ff" points="1540.15,-221.11 1550.69,-219.98 1541.75,-214.29 1540.15,-221.11"/>
</a>
</g>
</g>
<!-- Node26&#45;&gt;Node14 -->
<g id="edge45_Node000026_Node000014" class="edge">
<title>Node26&#45;&gt;Node14</title>
<g id="a_edge45_Node000026_Node000014"><a xlink:title=" ">
<path fill="none" stroke="#63b8ff" d="M1503.52,-221.42C1408.95,-213.22 1250.26,-198.92 1114,-184 1111.16,-183.69 1108.26,-183.36 1105.33,-183.02"/>
<polygon fill="#63b8ff" stroke="#63b8ff" points="1503.33,-224.92 1513.6,-222.29 1503.94,-217.95 1503.33,-224.92"/>
</a>
</g>
</g>
<!-- Node27 -->
<g id="Node000027" class="node">
<title>Node27</title>
<g id="a_Node000027"><a xlink:href="BufferPipeline_8cpp.html" target="_top" xlink:title=" ">
<polygon fill="white" stroke="#666666" points="2098.5,-184 1993.5,-184 1993.5,-165 2098.5,-165 2098.5,-184"/>
<text text-anchor="middle" x="2046" y="-172" font-family="Helvetica,sans-Serif" font-size="10.00">BufferPipeline.cpp</text>
</a>
</g>
</g>
<!-- Node26&#45;&gt;Node27 -->
<g id="edge38_Node000026_Node000027" class="edge">
<title>Node26&#45;&gt;Node27</title>
<g id="a_edge38_Node000026_Node000027"><a xlink:title=" ">
<path fill="none" stroke="#63b8ff" d="M1670.15,-219.87C1750.72,-211.34 1876.34,-197.64 1985,-184 1987.76,-183.65 1990.59,-183.29 1993.44,-182.92"/>
<polygon fill="#63b8ff" stroke="#63b8ff" points="1669.64,-216.4 1660.06,-220.93 1670.37,-223.36 1669.64,-216.4"/>
</a>
</g>
</g>
<!-- Node28 -->
<g id="Node000028" class="node">
<title>Node28</title>
<g id="a_Node000028"><a xlink:href="CursorAccessProcessor_8cpp.html" target="_top" xlink:title=" ">
<polygon fill="white" stroke="#666666" points="1661.5,-184 1512.5,-184 1512.5,-165 1661.5,-165 1661.5,-184"/>
<text text-anchor="middle" x="1587" y="-172" font-family="Helvetica,sans-Serif" font-size="10.00">CursorAccessProcessor.cpp</text>
</a>
</g>
</g>
<!-- Node26&#45;&gt;Node28 -->
<g id="edge39_Node000026_Node000028" class="edge">
<title>Node26&#45;&gt;Node28</title>
<g id="a_edge39_Node000026_Node000028"><a xlink:title=" ">
<path fill="none" stroke="#63b8ff" d="M1587,-209.66C1587,-200.93 1587,-190.99 1587,-184.09"/>
<polygon fill="#63b8ff" stroke="#63b8ff" points="1583.5,-209.75 1587,-219.75 1590.5,-209.75 1583.5,-209.75"/>
</a>
</g>
</g>
<!-- Node29 -->
<g id="Node000029" class="node">
<title>Node29</title>
<g id="a_Node000029"><a xlink:href="DynamicSoundStream_8cpp.html" target="_top" xlink:title=" ">
<polygon fill="white" stroke="#666666" points="1826,-184 1680,-184 1680,-165 1826,-165 1826,-184"/>
<text text-anchor="middle" x="1753" y="-172" font-family="Helvetica,sans-Serif" font-size="10.00">DynamicSoundStream.cpp</text>
</a>
</g>
</g>
<!-- Node26&#45;&gt;Node29 -->
<g id="edge40_Node000026_Node000029" class="edge">
<title>Node26&#45;&gt;Node29</title>
<g id="a_edge40_Node000026_Node000029"><a xlink:title=" ">
<path fill="none" stroke="#63b8ff" d="M1623.25,-216.93C1654.25,-207.03 1698.17,-193.01 1726.12,-184.08"/>
<polygon fill="#63b8ff" stroke="#63b8ff" points="1622.13,-213.61 1613.67,-219.98 1624.26,-220.28 1622.13,-213.61"/>
</a>
</g>
</g>
<!-- Node30 -->
<g id="Node000030" class="node">
<title>Node30</title>
<g id="a_Node000030"><a xlink:href="SamplingPipeline_8cpp.html" target="_top" xlink:title=" ">
<polygon fill="white" stroke="#666666" points="2227,-19 2105,-19 2105,0 2227,0 2227,-19"/>
<text text-anchor="middle" x="2166" y="-7" font-family="Helvetica,sans-Serif" font-size="10.00">SamplingPipeline.cpp</text>
</a>
</g>
</g>
<!-- Node26&#45;&gt;Node30 -->
<g id="edge43_Node000026_Node000030" class="edge">
<title>Node26&#45;&gt;Node30</title>
<g id="a_edge43_Node000026_Node000030"><a xlink:title=" ">
<path fill="none" stroke="#63b8ff" d="M1670.23,-228.5C1840.48,-227.71 2216.25,-221.68 2260,-184 2303.63,-146.42 2303.88,-102.95 2272,-55 2259.51,-36.22 2237.4,-25.35 2216.59,-19.06"/>
<polygon fill="#63b8ff" stroke="#63b8ff" points="1670.04,-225 1660.06,-228.54 1670.07,-232 1670.04,-225"/>
</a>
</g>
</g>
<!-- Node31 -->
<g id="Node000031" class="node">
<title>Node31</title>
<g id="a_Node000031"><a xlink:href="SoundStreamWriter_8cpp.html" target="_top" xlink:title=" ">
<polygon fill="white" stroke="#666666" points="1975.5,-184 1844.5,-184 1844.5,-165 1975.5,-165 1975.5,-184"/>
<text text-anchor="middle" x="1910" y="-172" font-family="Helvetica,sans-Serif" font-size="10.00">SoundStreamWriter.cpp</text>
</a>
</g>
</g>
<!-- Node26&#45;&gt;Node31 -->
<g id="edge46_Node000026_Node000031" class="edge">
<title>Node26&#45;&gt;Node31</title>
<g id="a_edge46_Node000026_Node000031"><a xlink:title=" ">
<path fill="none" stroke="#63b8ff" d="M1649.1,-218.31C1709.76,-208.36 1801.02,-193.38 1857.97,-184.04"/>
<polygon fill="#63b8ff" stroke="#63b8ff" points="1648.2,-214.91 1638.9,-219.98 1649.33,-221.82 1648.2,-214.91"/>
</a>
</g>
</g>
<!-- Node32 -->
<g id="Node000032" class="node">
<title>Node32</title>
<g id="a_Node000032"><a xlink:href="StreamSlice_8hpp.html" target="_top" xlink:title=" ">
<polygon fill="white" stroke="#666666" points="2251,-184 2155,-184 2155,-165 2251,-165 2251,-184"/>
<text text-anchor="middle" x="2203" y="-172" font-family="Helvetica,sans-Serif" font-size="10.00">StreamSlice.hpp</text>
</a>
</g>
</g>
<!-- Node26&#45;&gt;Node32 -->
<g id="edge47_Node000026_Node000032" class="edge">
<title>Node26&#45;&gt;Node32</title>
<g id="a_edge47_Node000026_Node000032"><a xlink:title=" ">
<path fill="none" stroke="#63b8ff" d="M1670.36,-221.48C1773.24,-212.8 1953.53,-197.51 2108,-184 2123.18,-182.67 2139.71,-181.2 2154.67,-179.86"/>
<polygon fill="#63b8ff" stroke="#63b8ff" points="1670.02,-218 1660.35,-222.33 1670.61,-224.98 1670.02,-218"/>
</a>
</g>
</g>
<!-- Node33 -->
<g id="Node000033" class="node">
<title>Node33</title>
<g id="a_Node000033"><a xlink:href="SamplingPipeline_8hpp.html" target="_top" xlink:title=" ">
<polygon fill="white" stroke="#666666" points="2103,-74 1981,-74 1981,-55 2103,-55 2103,-74"/>
<text text-anchor="middle" x="2042" y="-62" font-family="Helvetica,sans-Serif" font-size="10.00">SamplingPipeline.hpp</text>
</a>
</g>
</g>
<!-- Node32&#45;&gt;Node33 -->
<g id="edge48_Node000032_Node000033" class="edge">
<title>Node32&#45;&gt;Node33</title>
<g id="a_edge48_Node000032_Node000033"><a xlink:title=" ">
<path fill="none" stroke="#63b8ff" d="M2171.45,-160.98C2153.08,-153.04 2129.9,-141.86 2111,-129 2086.5,-112.34 2061.96,-87.27 2049.82,-74.17"/>
<polygon fill="#63b8ff" stroke="#63b8ff" points="2170.25,-164.28 2180.83,-164.94 2172.97,-157.83 2170.25,-164.28"/>
</a>
</g>
</g>
<!-- Node34 -->
<g id="Node000034" class="node">
<title>Node34</title>
<g id="a_Node000034"><a xlink:href="StreamSliceProcessor_8hpp.html" target="_top" xlink:title=" ">
<polygon fill="white" stroke="#666666" points="2262.5,-129 2119.5,-129 2119.5,-110 2262.5,-110 2262.5,-129"/>
<text text-anchor="middle" x="2191" y="-117" font-family="Helvetica,sans-Serif" font-size="10.00">StreamSliceProcessor.hpp</text>
</a>
</g>
</g>
<!-- Node32&#45;&gt;Node34 -->
<g id="edge51_Node000032_Node000034" class="edge">
<title>Node32&#45;&gt;Node34</title>
<g id="a_edge51_Node000032_Node000034"><a xlink:title=" ">
<path fill="none" stroke="#63b8ff" d="M2198.8,-154.95C2196.81,-146.15 2194.52,-136.06 2192.94,-129.09"/>
<polygon fill="#63b8ff" stroke="#63b8ff" points="2195.4,-155.77 2201.02,-164.75 2202.22,-154.22 2195.4,-155.77"/>
</a>
</g>
</g>
<!-- Node33&#45;&gt;Node19 -->
<g id="edge49_Node000033_Node000019" class="edge">
<title>Node33&#45;&gt;Node19</title>
<g id="a_edge49_Node000033_Node000019"><a xlink:title=" ">
<path fill="none" stroke="#63b8ff" d="M1970.74,-56.28C1854.3,-44.48 1628.15,-21.56 1548.01,-13.44"/>
<polygon fill="#63b8ff" stroke="#63b8ff" points="1970.68,-59.79 1980.98,-57.32 1971.39,-52.83 1970.68,-59.79"/>
</a>
</g>
</g>
<!-- Node33&#45;&gt;Node30 -->
<g id="edge50_Node000033_Node000030" class="edge">
<title>Node33&#45;&gt;Node30</title>
<g id="a_edge50_Node000033_Node000030"><a xlink:title=" ">
<path fill="none" stroke="#63b8ff" d="M2071.18,-51.03C2094.11,-41.23 2125.45,-27.83 2145.71,-19.17"/>
<polygon fill="#63b8ff" stroke="#63b8ff" points="2069.74,-47.84 2061.92,-54.98 2072.49,-54.27 2069.74,-47.84"/>
</a>
</g>
</g>
<!-- Node34&#45;&gt;Node33 -->
<g id="edge52_Node000034_Node000033" class="edge">
<title>Node34&#45;&gt;Node33</title>
<g id="a_edge52_Node000034_Node000033"><a xlink:title=" ">
<path fill="none" stroke="#63b8ff" d="M2157.41,-106.55C2129.74,-96.71 2091.16,-82.98 2066.38,-74.17"/>
<polygon fill="#63b8ff" stroke="#63b8ff" points="2156.47,-109.93 2167.06,-109.98 2158.81,-103.34 2156.47,-109.93"/>
</a>
</g>
</g>
<!-- Node35 -->
<g id="Node000035" class="node">
<title>Node35</title>
<g id="a_Node000035"><a xlink:href="StreamSliceProcessor_8cpp.html" target="_top" xlink:title=" ">
<polygon fill="white" stroke="#666666" points="2263,-74 2121,-74 2121,-55 2263,-55 2263,-74"/>
<text text-anchor="middle" x="2192" y="-62" font-family="Helvetica,sans-Serif" font-size="10.00">StreamSliceProcessor.cpp</text>
</a>
</g>
</g>
<!-- Node34&#45;&gt;Node35 -->
<g id="edge53_Node000034_Node000035" class="edge">
<title>Node34&#45;&gt;Node35</title>
<g id="a_edge53_Node000034_Node000035"><a xlink:title=" ">
<path fill="none" stroke="#63b8ff" d="M2191.36,-99.66C2191.52,-90.93 2191.71,-80.99 2191.84,-74.09"/>
<polygon fill="#63b8ff" stroke="#63b8ff" points="2187.85,-99.68 2191.17,-109.75 2194.85,-99.82 2187.85,-99.68"/>
</a>
</g>
</g>
<!-- Node37&#45;&gt;Node9 -->
<g id="edge57_Node000037_Node000009" class="edge">
<title>Node37&#45;&gt;Node9</title>
<g id="a_edge57_Node000037_Node000009"><a xlink:title=" ">
<path fill="none" stroke="#63b8ff" d="M2131.65,-319.68C2139.24,-283.95 2149.58,-206.17 2108,-165 2073.41,-130.76 1340.4,-80.77 1150.57,-68.37"/>
<polygon fill="#63b8ff" stroke="#63b8ff" points="2128.18,-319.18 2129.35,-329.71 2135,-320.74 2128.18,-319.18"/>
</a>
</g>
</g>
<!-- Node38 -->
<g id="Node000038" class="node">
<title>Node38</title>
<g id="a_Node000038"><a xlink:href="VideoContainerBuffer_8cpp.html" target="_top" xlink:title=" ">
<polygon fill="white" stroke="#666666" points="2295,-294 2155,-294 2155,-275 2295,-275 2295,-294"/>
<text text-anchor="middle" x="2225" y="-282" font-family="Helvetica,sans-Serif" font-size="10.00">VideoContainerBuffer.cpp</text>
</a>
</g>
</g>
<!-- Node37&#45;&gt;Node38 -->
<g id="edge58_Node000037_Node000038" class="edge">
<title>Node37&#45;&gt;Node38</title>
<g id="a_edge58_Node000037_Node000038"><a xlink:title=" ">
<path fill="none" stroke="#63b8ff" d="M2152.03,-324.97C2169.94,-315.28 2193.53,-302.52 2208.97,-294.17"/>
<polygon fill="#63b8ff" stroke="#63b8ff" points="2149.88,-322.15 2142.75,-329.98 2153.21,-328.31 2149.88,-322.15"/>
</a>
</g>
</g>
<!-- Node39&#45;&gt;Node21 -->
<g id="edge65_Node000039_Node000021" class="edge">
<title>Node39&#45;&gt;Node21</title>
<g id="a_edge65_Node000039_Node000021"><a xlink:title=" ">
<path fill="none" stroke="#63b8ff" d="M421.82,-216.67C450.91,-206.79 491.7,-192.93 517.74,-184.08"/>
<polygon fill="#63b8ff" stroke="#63b8ff" points="420.41,-213.45 412.06,-219.98 422.66,-220.08 420.41,-213.45"/>
</a>
</g>
</g>
<!-- Node40 -->
<g id="Node000040" class="node">
<title>Node40</title>
<g id="a_Node000040"><a xlink:href="CameraContainer_8hpp.html" target="_top" xlink:title=" ">
<polygon fill="white" stroke="#666666" points="452,-184 330,-184 330,-165 452,-165 452,-184"/>
<text text-anchor="middle" x="391" y="-172" font-family="Helvetica,sans-Serif" font-size="10.00">CameraContainer.hpp</text>
</a>
</g>
</g>
<!-- Node39&#45;&gt;Node40 -->
<g id="edge60_Node000039_Node000040" class="edge">
<title>Node39&#45;&gt;Node40</title>
<g id="a_edge60_Node000039_Node000040"><a xlink:title=" ">
<path fill="none" stroke="#63b8ff" d="M388.42,-209.66C389.08,-200.93 389.83,-190.99 390.35,-184.09"/>
<polygon fill="#63b8ff" stroke="#63b8ff" points="384.92,-209.51 387.66,-219.75 391.9,-210.04 384.92,-209.51"/>
</a>
</g>
</g>
<!-- Node43 -->
<g id="Node000043" class="node">
<title>Node43</title>
<g id="a_Node000043"><a xlink:href="FrameAccessProcessor_8cpp.html" target="_top" xlink:title=" ">
<polygon fill="white" stroke="#666666" points="312,-184 164,-184 164,-165 312,-165 312,-184"/>
<text text-anchor="middle" x="238" y="-172" font-family="Helvetica,sans-Serif" font-size="10.00">FrameAccessProcessor.cpp</text>
</a>
</g>
</g>
<!-- Node39&#45;&gt;Node43 -->
<g id="edge64_Node000039_Node000043" class="edge">
<title>Node39&#45;&gt;Node43</title>
<g id="a_edge64_Node000039_Node000043"><a xlink:title=" ">
<path fill="none" stroke="#63b8ff" d="M353.41,-216.55C325.74,-206.71 287.16,-192.98 262.38,-184.17"/>
<polygon fill="#63b8ff" stroke="#63b8ff" points="352.47,-219.93 363.06,-219.98 354.81,-213.34 352.47,-219.93"/>
</a>
</g>
</g>
<!-- Node44 -->
<g id="Node000044" class="node">
<title>Node44</title>
<g id="a_Node000044"><a xlink:href="VideoStreamContainer_8cpp.html" target="_top" xlink:title=" ">
<polygon fill="white" stroke="#666666" points="146,-184 0,-184 0,-165 146,-165 146,-184"/>
<text text-anchor="middle" x="73" y="-172" font-family="Helvetica,sans-Serif" font-size="10.00">VideoStreamContainer.cpp</text>
</a>
</g>
</g>
<!-- Node39&#45;&gt;Node44 -->
<g id="edge66_Node000039_Node000044" class="edge">
<title>Node39&#45;&gt;Node44</title>
<g id="a_edge66_Node000039_Node000044"><a xlink:title=" ">
<path fill="none" stroke="#63b8ff" d="M326.63,-218.31C267.66,-208.36 178.95,-193.38 123.58,-184.04"/>
<polygon fill="#63b8ff" stroke="#63b8ff" points="326.11,-221.77 336.55,-219.98 327.27,-214.87 326.11,-221.77"/>
</a>
</g>
</g>
<!-- Node40&#45;&gt;Node9 -->
<g id="edge63_Node000040_Node000009" class="edge">
<title>Node40&#45;&gt;Node9</title>
<g id="a_edge63_Node000040_Node000009"><a xlink:title=" ">
<path fill="none" stroke="#63b8ff" d="M405.3,-157.3C419.87,-142.05 443.97,-120.08 470,-110 590.84,-63.21 923.19,-88.09 1052,-74 1055.02,-73.67 1058.13,-73.29 1061.25,-72.88"/>
<polygon fill="#63b8ff" stroke="#63b8ff" points="402.43,-155.24 398.23,-164.97 407.58,-159.99 402.43,-155.24"/>
</a>
</g>
</g>
<!-- Node41 -->
<g id="Node000041" class="node">
<title>Node41</title>
<g id="a_Node000041"><a xlink:href="CameraContainer_8cpp.html" target="_top" xlink:title=" ">
<polygon fill="white" stroke="#666666" points="423,-129 301,-129 301,-110 423,-110 423,-129"/>
<text text-anchor="middle" x="362" y="-117" font-family="Helvetica,sans-Serif" font-size="10.00">CameraContainer.cpp</text>
</a>
</g>
</g>
<!-- Node40&#45;&gt;Node41 -->
<g id="edge61_Node000040_Node000041" class="edge">
<title>Node40&#45;&gt;Node41</title>
<g id="a_edge61_Node000040_Node000041"><a xlink:title=" ">
<path fill="none" stroke="#63b8ff" d="M381.32,-155.82C376.4,-146.82 370.64,-136.29 366.7,-129.09"/>
<polygon fill="#63b8ff" stroke="#63b8ff" points="378.34,-157.66 386.21,-164.75 384.48,-154.3 378.34,-157.66"/>
</a>
</g>
</g>
<!-- Node42 -->
<g id="Node000042" class="node">
<title>Node42</title>
<g id="a_Node000042"><a xlink:href="CameraReader_8cpp.html" target="_top" xlink:title=" ">
<polygon fill="white" stroke="#666666" points="282.5,-129 173.5,-129 173.5,-110 282.5,-110 282.5,-129"/>
<text text-anchor="middle" x="228" y="-117" font-family="Helvetica,sans-Serif" font-size="10.00">CameraReader.cpp</text>
</a>
</g>
</g>
<!-- Node40&#45;&gt;Node42 -->
<g id="edge62_Node000040_Node000042" class="edge">
<title>Node40&#45;&gt;Node42</title>
<g id="a_edge62_Node000040_Node000042"><a xlink:title=" ">
<path fill="none" stroke="#63b8ff" d="M355.01,-161.8C324.59,-151.91 281.72,-137.97 254.39,-129.08"/>
<polygon fill="#63b8ff" stroke="#63b8ff" points="354.22,-165.22 364.81,-164.98 356.38,-158.56 354.22,-165.22"/>
</a>
</g>
</g>
</g>
</svg>
