<?xml version="1.0" encoding="UTF-8" standalone="no"?>
<!DOCTYPE svg PUBLIC "-//W3C//DTD SVG 1.1//EN"
 "http://www.w3.org/Graphics/SVG/1.1/DTD/svg11.dtd">
<!-- Generated by graphviz version 2.43.0 (0)
 -->
<!-- Title: MayaFlux::Vruta::cross_promise Pages: 1 -->
<svg width="173pt" height="752pt"
 viewBox="0.00 0.00 173.00 752.00" xmlns="http://www.w3.org/2000/svg" xmlns:xlink="http://www.w3.org/1999/xlink">
<g id="graph0" class="graph" transform="scale(1 1) rotate(0) translate(4 748)">
<title>MayaFlux::Vruta::cross_promise</title>
<!-- Node1 -->
<g id="Node000001" class="node">
<title>Node1</title>
<g id="a_Node000001"><a xlink:title="Coroutine promise for routines resumed by more than one clock.">
<polygon fill="#999999" stroke="transparent" points="140.5,-180 7.5,-180 7.5,0 140.5,0 140.5,-180"/>
<text text-anchor="start" x="18.5" y="-168" font-family="Helvetica,sans-Serif" font-size="10.00">MayaFlux::Vruta::cross</text>
<text text-anchor="start" x="51.5" y="-157" font-family="Helvetica,sans-Serif" font-size="10.00">_promise</text>
<text text-anchor="start" x="12" y="-142" font-family="Helvetica,sans-Serif" font-size="10.00">+</text>
<text text-anchor="start" x="25" y="-142" font-family="Helvetica,sans-Serif" font-size="10.00">active_delay_context</text>
<text text-anchor="start" x="12" y="-127" font-family="Helvetica,sans-Serif" font-size="10.00">+</text>
<text text-anchor="start" x="25" y="-127" font-family="Helvetica,sans-Serif" font-size="10.00">frame_delay_amount</text>
<text text-anchor="start" x="12" y="-112" font-family="Helvetica,sans-Serif" font-size="10.00">+</text>
<text text-anchor="start" x="25" y="-112" font-family="Helvetica,sans-Serif" font-size="10.00">frame_satisfied</text>
<text text-anchor="start" x="12" y="-97" font-family="Helvetica,sans-Serif" font-size="10.00">+</text>
<text text-anchor="start" x="25" y="-97" font-family="Helvetica,sans-Serif" font-size="10.00">next_frame</text>
<text text-anchor="start" x="12" y="-82" font-family="Helvetica,sans-Serif" font-size="10.00">+</text>
<text text-anchor="start" x="25" y="-82" font-family="Helvetica,sans-Serif" font-size="10.00">next_sample</text>
<text text-anchor="start" x="12" y="-67" font-family="Helvetica,sans-Serif" font-size="10.00">+</text>
<text text-anchor="start" x="25" y="-67" font-family="Helvetica,sans-Serif" font-size="10.00">processing_token</text>
<text text-anchor="start" x="12" y="-52" font-family="Helvetica,sans-Serif" font-size="10.00">+</text>
<text text-anchor="start" x="25" y="-52" font-family="Helvetica,sans-Serif" font-size="10.00">sample_delay_amount</text>
<text text-anchor="start" x="12" y="-37" font-family="Helvetica,sans-Serif" font-size="10.00">+</text>
<text text-anchor="start" x="25" y="-37" font-family="Helvetica,sans-Serif" font-size="10.00">sample_satisfied</text>
<text text-anchor="start" x="12" y="-22" font-family="Helvetica,sans-Serif" font-size="10.00">+</text>
<text text-anchor="start" x="25" y="-22" font-family="Helvetica,sans-Serif" font-size="10.00">sync_to_clock</text>
<text text-anchor="start" x="12" y="-7" font-family="Helvetica,sans-Serif" font-size="10.00">+</text>
<text text-anchor="start" x="25" y="-7" font-family="Helvetica,sans-Serif" font-size="10.00">get_return_object()</text>
<polygon fill="#666666" stroke="#666666" points="8,-152 8,-152 141,-152 141,-152 8,-152"/>
<polygon fill="#666666" stroke="#666666" points="8,-17 8,-17 23,-17 23,-17 8,-17"/>
<polygon fill="#666666" stroke="#666666" points="23,-17 23,-17 141,-17 141,-17 23,-17"/>
<polygon fill="none" stroke="#666666" points="7.5,0 7.5,-180 140.5,-180 140.5,0 7.5,0"/>
</a>
</g>
</g>
<!-- Node2 -->
<g id="Node000002" class="node">
<title>Node2</title>
<g id="a_Node000002"><a xlink:href="structMayaFlux_1_1Vruta_1_1routine__promise.html" target="_top" xlink:title=" ">
<polygon fill="white" stroke="transparent" points="148,-457 0,-457 0,-217 148,-217 148,-457"/>
<text text-anchor="start" x="7.5" y="-445" font-family="Helvetica,sans-Serif" font-size="10.00">MayaFlux::Vruta::routine</text>
<text text-anchor="start" x="7.5" y="-434" font-family="Helvetica,sans-Serif" font-size="10.00">_promise&lt; CrossRoutine &gt;</text>
<text text-anchor="start" x="4" y="-419" font-family="Helvetica,sans-Serif" font-size="10.00">+</text>
<text text-anchor="start" x="17" y="-419" font-family="Helvetica,sans-Serif" font-size="10.00">auto_resume</text>
<text text-anchor="start" x="4" y="-404" font-family="Helvetica,sans-Serif" font-size="10.00">+</text>
<text text-anchor="start" x="17" y="-404" font-family="Helvetica,sans-Serif" font-size="10.00">delay_amount</text>
<text text-anchor="start" x="4" y="-389" font-family="Helvetica,sans-Serif" font-size="10.00">+</text>
<text text-anchor="start" x="17" y="-389" font-family="Helvetica,sans-Serif" font-size="10.00">processing_token</text>
<text text-anchor="start" x="4" y="-374" font-family="Helvetica,sans-Serif" font-size="10.00">+</text>
<text text-anchor="start" x="17" y="-374" font-family="Helvetica,sans-Serif" font-size="10.00">should_terminate</text>
<text text-anchor="start" x="4" y="-359" font-family="Helvetica,sans-Serif" font-size="10.00">+</text>
<text text-anchor="start" x="17" y="-359" font-family="Helvetica,sans-Serif" font-size="10.00">state</text>
<text text-anchor="start" x="4" y="-344" font-family="Helvetica,sans-Serif" font-size="10.00">+</text>
<text text-anchor="start" x="17" y="-344" font-family="Helvetica,sans-Serif" font-size="10.00">sync_to_clock</text>
<text text-anchor="start" x="4" y="-329" font-family="Helvetica,sans-Serif" font-size="10.00">+</text>
<text text-anchor="start" x="17" y="-329" font-family="Helvetica,sans-Serif" font-size="10.00">domain_mismatch_error()</text>
<text text-anchor="start" x="4" y="-314" font-family="Helvetica,sans-Serif" font-size="10.00">+</text>
<text text-anchor="start" x="17" y="-314" font-family="Helvetica,sans-Serif" font-size="10.00">final_suspend()</text>
<text text-anchor="start" x="4" y="-299" font-family="Helvetica,sans-Serif" font-size="10.00">+</text>
<text text-anchor="start" x="17" y="-299" font-family="Helvetica,sans-Serif" font-size="10.00">get_return_object()</text>
<text text-anchor="start" x="4" y="-284" font-family="Helvetica,sans-Serif" font-size="10.00">+</text>
<text text-anchor="start" x="17" y="-284" font-family="Helvetica,sans-Serif" font-size="10.00">get_state()</text>
<text text-anchor="start" x="4" y="-269" font-family="Helvetica,sans-Serif" font-size="10.00">+</text>
<text text-anchor="start" x="17" y="-269" font-family="Helvetica,sans-Serif" font-size="10.00">initial_suspend()</text>
<text text-anchor="start" x="4" y="-254" font-family="Helvetica,sans-Serif" font-size="10.00">+</text>
<text text-anchor="start" x="17" y="-254" font-family="Helvetica,sans-Serif" font-size="10.00">return_void()</text>
<text text-anchor="start" x="4" y="-239" font-family="Helvetica,sans-Serif" font-size="10.00">+</text>
<text text-anchor="start" x="17" y="-239" font-family="Helvetica,sans-Serif" font-size="10.00">set_state()</text>
<text text-anchor="start" x="4" y="-224" font-family="Helvetica,sans-Serif" font-size="10.00">+</text>
<text text-anchor="start" x="17" y="-224" font-family="Helvetica,sans-Serif" font-size="10.00">unhandled_exception()</text>
<polygon fill="#666666" stroke="#666666" points="0,-429 0,-429 148,-429 148,-429 0,-429"/>
<polygon fill="#666666" stroke="#666666" points="0,-339 0,-339 15,-339 15,-339 0,-339"/>
<polygon fill="#666666" stroke="#666666" points="15,-339 15,-339 148,-339 148,-339 15,-339"/>
<polygon fill="none" stroke="#666666" points="0,-217 0,-457 148,-457 148,-217 0,-217"/>
</a>
</g>
</g>
<!-- Node2&#45;&gt;Node1 -->
<g id="edge1_Node000001_Node000002" class="edge">
<title>Node2&#45;&gt;Node1</title>
<g id="a_edge1_Node000001_Node000002"><a xlink:title=" ">
<path fill="none" stroke="#63b8ff" d="M74,-206.65C74,-197.73 74,-188.85 74,-180.22"/>
<polygon fill="none" stroke="#63b8ff" points="70.5,-206.73 74,-216.73 77.5,-206.73 70.5,-206.73"/>
</a>
</g>
</g>
<!-- Node3 -->
<g id="Node000003" class="node">
<title>Node3</title>
<g id="a_Node000003"><a xlink:href="structMayaFlux_1_1Vruta_1_1routine__promise.html" target="_top" xlink:title="Base coroutine promise type for audio processing tasks.">
<polygon fill="white" stroke="transparent" points="148,-744 0,-744 0,-504 148,-504 148,-744"/>
<text text-anchor="start" x="10" y="-732" font-family="Helvetica,sans-Serif" font-size="10.00">MayaFlux::Vruta::routine</text>
<text text-anchor="start" x="10" y="-721" font-family="Helvetica,sans-Serif" font-size="10.00">_promise&lt; RoutineType &gt;</text>
<text text-anchor="start" x="4" y="-706" font-family="Helvetica,sans-Serif" font-size="10.00">+</text>
<text text-anchor="start" x="17" y="-706" font-family="Helvetica,sans-Serif" font-size="10.00">auto_resume</text>
<text text-anchor="start" x="4" y="-691" font-family="Helvetica,sans-Serif" font-size="10.00">+</text>
<text text-anchor="start" x="17" y="-691" font-family="Helvetica,sans-Serif" font-size="10.00">delay_amount</text>
<text text-anchor="start" x="4" y="-676" font-family="Helvetica,sans-Serif" font-size="10.00">+</text>
<text text-anchor="start" x="17" y="-676" font-family="Helvetica,sans-Serif" font-size="10.00">processing_token</text>
<text text-anchor="start" x="4" y="-661" font-family="Helvetica,sans-Serif" font-size="10.00">+</text>
<text text-anchor="start" x="17" y="-661" font-family="Helvetica,sans-Serif" font-size="10.00">should_terminate</text>
<text text-anchor="start" x="4" y="-646" font-family="Helvetica,sans-Serif" font-size="10.00">+</text>
<text text-anchor="start" x="17" y="-646" font-family="Helvetica,sans-Serif" font-size="10.00">state</text>
<text text-anchor="start" x="4" y="-631" font-family="Helvetica,sans-Serif" font-size="10.00">+</text>
<text text-anchor="start" x="17" y="-631" font-family="Helvetica,sans-Serif" font-size="10.00">sync_to_clock</text>
<text text-anchor="start" x="4" y="-616" font-family="Helvetica,sans-Serif" font-size="10.00">+</text>
<text text-anchor="start" x="17" y="-616" font-family="Helvetica,sans-Serif" font-size="10.00">domain_mismatch_error()</text>
<text text-anchor="start" x="4" y="-601" font-family="Helvetica,sans-Serif" font-size="10.00">+</text>
<text text-anchor="start" x="17" y="-601" font-family="Helvetica,sans-Serif" font-size="10.00">final_suspend()</text>
<text text-anchor="start" x="4" y="-586" font-family="Helvetica,sans-Serif" font-size="10.00">+</text>
<text text-anchor="start" x="17" y="-586" font-family="Helvetica,sans-Serif" font-size="10.00">get_return_object()</text>
<text text-anchor="start" x="4" y="-571" font-family="Helvetica,sans-Serif" font-size="10.00">+</text>
<text text-anchor="start" x="17" y="-571" font-family="Helvetica,sans-Serif" font-size="10.00">get_state()</text>
<text text-anchor="start" x="4" y="-556" font-family="Helvetica,sans-Serif" font-size="10.00">+</text>
<text text-anchor="start" x="17" y="-556" font-family="Helvetica,sans-Serif" font-size="10.00">initial_suspend()</text>
<text text-anchor="start" x="4" y="-541" font-family="Helvetica,sans-Serif" font-size="10.00">+</text>
<text text-anchor="start" x="17" y="-541" font-family="Helvetica,sans-Serif" font-size="10.00">return_void()</text>
<text text-anchor="start" x="4" y="-526" font-family="Helvetica,sans-Serif" font-size="10.00">+</text>
<text text-anchor="start" x="17" y="-526" font-family="Helvetica,sans-Serif" font-size="10.00">set_state()</text>
<text text-anchor="start" x="4" y="-511" font-family="Helvetica,sans-Serif" font-size="10.00">+</text>
<text text-anchor="start" x="17" y="-511" font-family="Helvetica,sans-Serif" font-size="10.00">unhandled_exception()</text>
<polygon fill="#666666" stroke="#666666" points="0,-716 0,-716 148,-716 148,-716 0,-716"/>
<polygon fill="#666666" stroke="#666666" points="0,-626 0,-626 15,-626 15,-626 0,-626"/>
<polygon fill="#666666" stroke="#666666" points="15,-626 15,-626 148,-626 148,-626 15,-626"/>
<polygon fill="none" stroke="#666666" points="0,-504 0,-744 148,-744 148,-504 0,-504"/>
</a>
</g>
</g>
<!-- Node3&#45;&gt;Node2 -->
<g id="edge2_Node000002_Node000003" class="edge">
<title>Node3&#45;&gt;Node2</title>
<g id="a_edge2_Node000002_Node000003"><a xlink:title=" ">
<path fill="none" stroke="orange" d="M74,-493.63C74,-481.49 74,-469.23 74,-457.19"/>
<polygon fill="orange" stroke="orange" points="70.5,-493.79 74,-503.79 77.5,-493.79 70.5,-493.79"/>
</a>
</g>
<text text-anchor="middle" x="119.5" y="-478" font-family="Helvetica,sans-Serif" font-size="10.00" fill="grey"> &lt; CrossRoutine &gt;</text>
</g>
</g>
</svg>
