<?xml version="1.0" encoding="UTF-8" standalone="no"?>
<!DOCTYPE svg PUBLIC "-//W3C//DTD SVG 1.1//EN"
 "http://www.w3.org/Graphics/SVG/1.1/DTD/svg11.dtd">
<!-- Generated by graphviz version 2.43.0 (0)
 -->
<!-- Title: MayaFlux::Nodes::Network::WaveguideNetwork::WaveguideSegment Pages: 1 -->
<!--zoomable 803 -->

<svg id="main" version="1.1" xmlns="http://www.w3.org/2000/svg" xmlns:xlink="http://www.w3.org/1999/xlink" xml:space="preserve" onload="init(evt)">
<style type="text/css"><![CDATA[
.node, .edge {opacity: 0.7;}
.node.selected, .edge.selected {opacity: 1;}
.edge:hover path { stroke: red; }
.edge:hover polygon { stroke: red; fill: red; }
]]></style>

<defs>
  <circle id="rim" cx="0" cy="0" r="7"/>
  <circle id="rim2" cx="0" cy="0" r="3.5"/>
  <g id="zoomPlus">
    <use xlink:href="#rim" fill="#404040"><set attributeName="fill" to="#808080" begin="zoomplus.mouseover" end="zoomplus.mouseout"/></use>
    <path d="M-4,0h8M0,-4v8" fill="none" stroke="white" stroke-width="1.5" pointer-events="none"/>
  </g>
  <g id="zoomMin">
    <use xlink:href="#rim" fill="#404040"><set attributeName="fill" to="#808080" begin="zoomminus.mouseover" end="zoomminus.mouseout"/></use>
    <path d="M-4,0h8" fill="none" stroke="white" stroke-width="1.5" pointer-events="none"/>
  </g>
  <g id="arrowUp" transform="translate(30 24)">
    <use xlink:href="#rim"/>
    <path pointer-events="none" fill="none" stroke="white" stroke-width="1.5" d="M0,-3.0v7 M-2.5,-0.5L0,-3.0L2.5,-0.5"/>
  </g>
  <g id="arrowRight" transform="rotate(90) translate(36 -43)">
    <use xlink:href="#rim"/>
    <path pointer-events="none" fill="none" stroke="white" stroke-width="1.5" d="M0,-3.0v7 M-2.5,-0.5L0,-3.0L2.5,-0.5"/>
  </g>
  <g id="arrowDown" transform="rotate(180) translate(-30 -48)">
    <use xlink:href="#rim"/>
    <path pointer-events="none" fill="none" stroke="white" stroke-width="1.5" d="M0,-3.0v7 M-2.5,-0.5L0,-3.0L2.5,-0.5"/>
  </g>
  <g id="arrowLeft" transform="rotate(270) translate(-36 17)">
    <use xlink:href="#rim"/>
    <path pointer-events="none" fill="none" stroke="white" stroke-width="1.5" d="M0,-3.0v7 M-2.5,-0.5L0,-3.0L2.5,-0.5"/>
  </g>
  <g id="resetDef">
    <use xlink:href="#rim2" fill="#404040"><set attributeName="fill" to="#808080" begin="reset.mouseover" end="reset.mouseout"/></use>
  </g>
</defs>
<script type="application/ecmascript">
var viewWidth = 223;
var viewHeight = 803;
var sectionId = 'dynsection-0';
</script>
<script type="application/ecmascript" xlink:href="svg.min.js"/>
<svg id="graph" class="graph">
<g id="viewport">
<title>MayaFlux::Nodes::Network::WaveguideNetwork::WaveguideSegment</title>
<!-- Node1 -->
<g id="Node000001" class="node">
<title>Node1</title>
<g id="a_Node000001"><a xlink:title="1D delay&#45;line segment supporting both uni&#45; and bidirectional propagation">
<polygon fill="#999999" stroke="transparent" points="215,-150 0,-150 0,0 215,0 215,-150"/>
<text text-anchor="start" x="5.5" y="-138" font-family="Helvetica,sans-Serif" font-size="10.00">MayaFlux::Nodes::Network</text>
<text text-anchor="start" x="5.5" y="-127" font-family="Helvetica,sans-Serif" font-size="10.00">::WaveguideNetwork::WaveguideSegment</text>
<text text-anchor="start" x="26.5" y="-112" font-family="Helvetica,sans-Serif" font-size="10.00">+</text>
<text text-anchor="start" x="61.5" y="-112" font-family="Helvetica,sans-Serif" font-size="10.00">loop_filter</text>
<text text-anchor="start" x="26.5" y="-97" font-family="Helvetica,sans-Serif" font-size="10.00">+</text>
<text text-anchor="start" x="61.5" y="-97" font-family="Helvetica,sans-Serif" font-size="10.00">loop_filter_closed</text>
<text text-anchor="start" x="26.5" y="-82" font-family="Helvetica,sans-Serif" font-size="10.00">+</text>
<text text-anchor="start" x="61.5" y="-82" font-family="Helvetica,sans-Serif" font-size="10.00">loop_filter_open</text>
<text text-anchor="start" x="26.5" y="-67" font-family="Helvetica,sans-Serif" font-size="10.00">+</text>
<text text-anchor="start" x="61.5" y="-67" font-family="Helvetica,sans-Serif" font-size="10.00">loss_factor</text>
<text text-anchor="start" x="26.5" y="-52" font-family="Helvetica,sans-Serif" font-size="10.00">+</text>
<text text-anchor="start" x="61.5" y="-52" font-family="Helvetica,sans-Serif" font-size="10.00">mode</text>
<text text-anchor="start" x="26.5" y="-37" font-family="Helvetica,sans-Serif" font-size="10.00">+</text>
<text text-anchor="start" x="61.5" y="-37" font-family="Helvetica,sans-Serif" font-size="10.00">reflection_closed</text>
<text text-anchor="start" x="26.5" y="-22" font-family="Helvetica,sans-Serif" font-size="10.00">+</text>
<text text-anchor="start" x="61.5" y="-22" font-family="Helvetica,sans-Serif" font-size="10.00">reflection_open</text>
<text text-anchor="start" x="26.5" y="-7" font-family="Helvetica,sans-Serif" font-size="10.00">+</text>
<text text-anchor="start" x="61.5" y="-7" font-family="Helvetica,sans-Serif" font-size="10.00">WaveguideSegment()</text>
<polygon fill="#666666" stroke="#666666" points="0.5,-122 0.5,-122 215.5,-122 215.5,-122 0.5,-122"/>
<polygon fill="#666666" stroke="#666666" points="0.5,-17 0.5,-17 59.5,-17 59.5,-17 0.5,-17"/>
<polygon fill="#666666" stroke="#666666" points="59.5,-17 59.5,-17 215.5,-17 215.5,-17 59.5,-17"/>
<polygon fill="none" stroke="#666666" points="0,0 0,-150 215,-150 215,0 0,0"/>
</a>
</g>
</g>
<!-- Node2 -->
<g id="Node000002" class="node">
<title>Node2</title>
<g id="a_Node000002"><a xlink:href="classMayaFlux_1_1Memory_1_1HistoryBuffer.html" target="_top" xlink:title=" ">
<polygon fill="white" stroke="transparent" points="180.5,-478 34.5,-478 34.5,-208 180.5,-208 180.5,-478"/>
<text text-anchor="start" x="39.5" y="-466" font-family="Helvetica,sans-Serif" font-size="10.00">MayaFlux::Memory::History</text>
<text text-anchor="start" x="65" y="-455" font-family="Helvetica,sans-Serif" font-size="10.00">Buffer&lt; double &gt;</text>
<text text-anchor="start" x="51" y="-440" font-family="Helvetica,sans-Serif" font-size="10.00">&#45;</text>
<text text-anchor="start" x="71.5" y="-440" font-family="Helvetica,sans-Serif" font-size="10.00">m_capacity</text>
<text text-anchor="start" x="51" y="-425" font-family="Helvetica,sans-Serif" font-size="10.00">&#45;</text>
<text text-anchor="start" x="71.5" y="-425" font-family="Helvetica,sans-Serif" font-size="10.00">m_count</text>
<text text-anchor="start" x="51" y="-410" font-family="Helvetica,sans-Serif" font-size="10.00">&#45;</text>
<text text-anchor="start" x="71.5" y="-410" font-family="Helvetica,sans-Serif" font-size="10.00">m_data</text>
<text text-anchor="start" x="51" y="-395" font-family="Helvetica,sans-Serif" font-size="10.00">&#45;</text>
<text text-anchor="start" x="71.5" y="-395" font-family="Helvetica,sans-Serif" font-size="10.00">m_head</text>
<text text-anchor="start" x="51" y="-380" font-family="Helvetica,sans-Serif" font-size="10.00">&#45;</text>
<text text-anchor="start" x="71.5" y="-380" font-family="Helvetica,sans-Serif" font-size="10.00">m_linear_view</text>
<text text-anchor="start" x="48.5" y="-365" font-family="Helvetica,sans-Serif" font-size="10.00">+</text>
<text text-anchor="start" x="71.5" y="-365" font-family="Helvetica,sans-Serif" font-size="10.00">capacity()</text>
<text text-anchor="start" x="48.5" y="-350" font-family="Helvetica,sans-Serif" font-size="10.00">+</text>
<text text-anchor="start" x="71.5" y="-350" font-family="Helvetica,sans-Serif" font-size="10.00">empty()</text>
<text text-anchor="start" x="48.5" y="-335" font-family="Helvetica,sans-Serif" font-size="10.00">+</text>
<text text-anchor="start" x="71.5" y="-335" font-family="Helvetica,sans-Serif" font-size="10.00">HistoryBuffer()</text>
<text text-anchor="start" x="48.5" y="-320" font-family="Helvetica,sans-Serif" font-size="10.00">+</text>
<text text-anchor="start" x="71.5" y="-320" font-family="Helvetica,sans-Serif" font-size="10.00">linearized_view()</text>
<text text-anchor="start" x="48.5" y="-305" font-family="Helvetica,sans-Serif" font-size="10.00">+</text>
<text text-anchor="start" x="71.5" y="-305" font-family="Helvetica,sans-Serif" font-size="10.00">linearized_view()</text>
<text text-anchor="start" x="48.5" y="-290" font-family="Helvetica,sans-Serif" font-size="10.00">+</text>
<text text-anchor="start" x="71.5" y="-290" font-family="Helvetica,sans-Serif" font-size="10.00">newest()</text>
<text text-anchor="start" x="48.5" y="-275" font-family="Helvetica,sans-Serif" font-size="10.00">+</text>
<text text-anchor="start" x="71.5" y="-275" font-family="Helvetica,sans-Serif" font-size="10.00">newest()</text>
<text text-anchor="start" x="48.5" y="-260" font-family="Helvetica,sans-Serif" font-size="10.00">+</text>
<text text-anchor="start" x="71.5" y="-260" font-family="Helvetica,sans-Serif" font-size="10.00">oldest()</text>
<text text-anchor="start" x="48.5" y="-245" font-family="Helvetica,sans-Serif" font-size="10.00">+</text>
<text text-anchor="start" x="71.5" y="-245" font-family="Helvetica,sans-Serif" font-size="10.00">oldest()</text>
<text text-anchor="start" x="48.5" y="-230" font-family="Helvetica,sans-Serif" font-size="10.00">+</text>
<text text-anchor="start" x="71.5" y="-230" font-family="Helvetica,sans-Serif" font-size="10.00">operator[]()</text>
<text text-anchor="start" x="71.5" y="-215" font-family="Helvetica,sans-Serif" font-size="10.00">and 10 more...</text>
<polygon fill="#666666" stroke="#666666" points="34.5,-450 34.5,-450 180.5,-450 180.5,-450 34.5,-450"/>
<polygon fill="#666666" stroke="#666666" points="34.5,-375 34.5,-375 69.5,-375 69.5,-375 34.5,-375"/>
<polygon fill="#666666" stroke="#666666" points="69.5,-375 69.5,-375 180.5,-375 180.5,-375 69.5,-375"/>
<polygon fill="none" stroke="#666666" points="34.5,-208 34.5,-478 180.5,-478 180.5,-208 34.5,-208"/>
</a>
</g>
</g>
<!-- Node2&#45;&gt;Node1 -->
<g id="edge1_Node000001_Node000002" class="edge">
<title>Node2&#45;&gt;Node1</title>
<g id="a_edge1_Node000001_Node000002"><a xlink:title=" ">
<path fill="none" stroke="#63b8ff" d="M107.5,-207.83C107.5,-192.3 107.5,-176.78 107.5,-162.14"/>
<polygon fill="none" stroke="#63b8ff" points="107.5,-162.06 103.5,-156.06 107.5,-150.06 111.5,-156.06 107.5,-162.06"/>
</a>
</g>
<text text-anchor="middle" x="134" y="-182" font-family="Helvetica,sans-Serif" font-size="10.00" fill="grey"> +p_minus</text>
<text text-anchor="middle" x="134" y="-171" font-family="Helvetica,sans-Serif" font-size="10.00" fill="grey">+p_plus</text>
</g>
<!-- Node3 -->
<g id="Node000003" class="node">
<title>Node3</title>
<g id="a_Node000003"><a xlink:href="classMayaFlux_1_1Memory_1_1HistoryBuffer.html" target="_top" xlink:title="History buffer for difference equations and recursive relations.">
<polygon fill="white" stroke="transparent" points="180.5,-795 34.5,-795 34.5,-525 180.5,-525 180.5,-795"/>
<text text-anchor="start" x="39.5" y="-783" font-family="Helvetica,sans-Serif" font-size="10.00">MayaFlux::Memory::History</text>
<text text-anchor="start" x="78.5" y="-772" font-family="Helvetica,sans-Serif" font-size="10.00">Buffer&lt; T &gt;</text>
<text text-anchor="start" x="51" y="-757" font-family="Helvetica,sans-Serif" font-size="10.00">&#45;</text>
<text text-anchor="start" x="71.5" y="-757" font-family="Helvetica,sans-Serif" font-size="10.00">m_capacity</text>
<text text-anchor="start" x="51" y="-742" font-family="Helvetica,sans-Serif" font-size="10.00">&#45;</text>
<text text-anchor="start" x="71.5" y="-742" font-family="Helvetica,sans-Serif" font-size="10.00">m_count</text>
<text text-anchor="start" x="51" y="-727" font-family="Helvetica,sans-Serif" font-size="10.00">&#45;</text>
<text text-anchor="start" x="71.5" y="-727" font-family="Helvetica,sans-Serif" font-size="10.00">m_data</text>
<text text-anchor="start" x="51" y="-712" font-family="Helvetica,sans-Serif" font-size="10.00">&#45;</text>
<text text-anchor="start" x="71.5" y="-712" font-family="Helvetica,sans-Serif" font-size="10.00">m_head</text>
<text text-anchor="start" x="51" y="-697" font-family="Helvetica,sans-Serif" font-size="10.00">&#45;</text>
<text text-anchor="start" x="71.5" y="-697" font-family="Helvetica,sans-Serif" font-size="10.00">m_linear_view</text>
<text text-anchor="start" x="48.5" y="-682" font-family="Helvetica,sans-Serif" font-size="10.00">+</text>
<text text-anchor="start" x="71.5" y="-682" font-family="Helvetica,sans-Serif" font-size="10.00">capacity()</text>
<text text-anchor="start" x="48.5" y="-667" font-family="Helvetica,sans-Serif" font-size="10.00">+</text>
<text text-anchor="start" x="71.5" y="-667" font-family="Helvetica,sans-Serif" font-size="10.00">empty()</text>
<text text-anchor="start" x="48.5" y="-652" font-family="Helvetica,sans-Serif" font-size="10.00">+</text>
<text text-anchor="start" x="71.5" y="-652" font-family="Helvetica,sans-Serif" font-size="10.00">HistoryBuffer()</text>
<text text-anchor="start" x="48.5" y="-637" font-family="Helvetica,sans-Serif" font-size="10.00">+</text>
<text text-anchor="start" x="71.5" y="-637" font-family="Helvetica,sans-Serif" font-size="10.00">linearized_view()</text>
<text text-anchor="start" x="48.5" y="-622" font-family="Helvetica,sans-Serif" font-size="10.00">+</text>
<text text-anchor="start" x="71.5" y="-622" font-family="Helvetica,sans-Serif" font-size="10.00">linearized_view()</text>
<text text-anchor="start" x="48.5" y="-607" font-family="Helvetica,sans-Serif" font-size="10.00">+</text>
<text text-anchor="start" x="71.5" y="-607" font-family="Helvetica,sans-Serif" font-size="10.00">newest()</text>
<text text-anchor="start" x="48.5" y="-592" font-family="Helvetica,sans-Serif" font-size="10.00">+</text>
<text text-anchor="start" x="71.5" y="-592" font-family="Helvetica,sans-Serif" font-size="10.00">newest()</text>
<text text-anchor="start" x="48.5" y="-577" font-family="Helvetica,sans-Serif" font-size="10.00">+</text>
<text text-anchor="start" x="71.5" y="-577" font-family="Helvetica,sans-Serif" font-size="10.00">oldest()</text>
<text text-anchor="start" x="48.5" y="-562" font-family="Helvetica,sans-Serif" font-size="10.00">+</text>
<text text-anchor="start" x="71.5" y="-562" font-family="Helvetica,sans-Serif" font-size="10.00">oldest()</text>
<text text-anchor="start" x="48.5" y="-547" font-family="Helvetica,sans-Serif" font-size="10.00">+</text>
<text text-anchor="start" x="71.5" y="-547" font-family="Helvetica,sans-Serif" font-size="10.00">operator[]()</text>
<text text-anchor="start" x="71.5" y="-532" font-family="Helvetica,sans-Serif" font-size="10.00">and 10 more...</text>
<polygon fill="#666666" stroke="#666666" points="34.5,-767 34.5,-767 180.5,-767 180.5,-767 34.5,-767"/>
<polygon fill="#666666" stroke="#666666" points="34.5,-692 34.5,-692 69.5,-692 69.5,-692 34.5,-692"/>
<polygon fill="#666666" stroke="#666666" points="69.5,-692 69.5,-692 180.5,-692 180.5,-692 69.5,-692"/>
<polygon fill="none" stroke="#666666" points="34.5,-525 34.5,-795 180.5,-795 180.5,-525 34.5,-525"/>
</a>
</g>
</g>
<!-- Node3&#45;&gt;Node2 -->
<g id="edge2_Node000002_Node000003" class="edge">
<title>Node3&#45;&gt;Node2</title>
<g id="a_edge2_Node000002_Node000003"><a xlink:title=" ">
<path fill="none" stroke="orange" d="M107.5,-514.75C107.5,-502.57 107.5,-490.28 107.5,-478.18"/>
<polygon fill="orange" stroke="orange" points="104,-514.95 107.5,-524.95 111,-514.95 104,-514.95"/>
</a>
</g>
<text text-anchor="middle" x="137" y="-499" font-family="Helvetica,sans-Serif" font-size="10.00" fill="grey"> &lt; double &gt;</text>
</g>
</g>
</svg>

<g id="navigator" transform="translate(0 0)" fill="#404254">
  <rect fill="#f2f5e9" fill-opacity="0.5" stroke="#606060" stroke-width=".5" x="0" y="0" width="60" height="60"/>
  <use id="zoomplus" xlink:href="#zoomPlus" x="17" y="9" onmousedown="handleZoom(evt,'in')"/>
  <use id="zoomminus" xlink:href="#zoomMin" x="42" y="9" onmousedown="handleZoom(evt,'out')"/>
  <use id="reset" xlink:href="#resetDef" x="30" y="36" onmousedown="handleReset()"/>
   <use id="arrowup" xlink:href="#arrowUp" x="0" y="0" onmousedown="handlePan(0,-1)"/>
  <use id="arrowright" xlink:href="#arrowRight" x="0" y="0" onmousedown="handlePan(1,0)"/>
  <use id="arrowdown" xlink:href="#arrowDown" x="0" y="0" onmousedown="handlePan(0,1)"/>
  <use id="arrowleft" xlink:href="#arrowLeft" x="0" y="0" onmousedown="handlePan(-1,0)"/>
</g>
<svg viewBox="0 0 15 15" width="100%" height="30px" preserveAspectRatio="xMaxYMin meet">
 <g id="arrow_out" transform="scale(0.3 0.3)">
  <a xlink:href="structMayaFlux_1_1Nodes_1_1Network_1_1WaveguideNetwork_1_1WaveguideSegment__coll__graph_org.svg" target="_base">
   <rect id="button" ry="5" rx="5" y="6" x="6" height="38" width="38"
        fill="#f2f5e9" fill-opacity="0.5" stroke="#606060" stroke-width="1.0"/>
   <path id="arrow"
     d="M 11.500037,31.436501 C 11.940474,20.09759 22.043105,11.32322 32.158766,21.979434 L 37.068811,17.246167 C 37.068811,17.246167 37.088388,32 37.088388,32 L 22.160133,31.978069 C 22.160133,31.978069 26.997745,27.140456 26.997745,27.140456 C 18.528582,18.264221 13.291696,25.230495 11.500037,31.436501 z"
     style="fill:#404040;"/>
  </a>
 </g>
</svg>

<style type='text/css'>
<![CDATA[
[data-mouse-over-selected='false'] { opacity: 0.7; }
[data-mouse-over-selected='true']  { opacity: 1.0; }
]]>
</style>
<script type="application/ecmascript"><![CDATA[
document.addEventListener('DOMContentLoaded', (event) => {
  highlightEdges();
  highlightAdjacentNodes();
});
]]></script>
</svg>
