<?xml version="1.0" encoding="UTF-8" standalone="no"?>
<!DOCTYPE svg PUBLIC "-//W3C//DTD SVG 1.1//EN"
 "http://www.w3.org/Graphics/SVG/1.1/DTD/svg11.dtd">
<!-- Generated by graphviz version 2.43.0 (0)
 -->
<!-- Title: MayaFlux::Kakshya::ContainerDataStructure::get_samples_count_per_channel Pages: 1 -->
<!--zoomable 285 -->

<svg id="main" version="1.1" xmlns="http://www.w3.org/2000/svg" xmlns:xlink="http://www.w3.org/1999/xlink" xml:space="preserve" onload="init(evt)">
<style type="text/css"><![CDATA[
.node, .edge {opacity: 0.7;}
.node.selected, .edge.selected {opacity: 1;}
.edge:hover path { stroke: red; }
.edge:hover polygon { stroke: red; fill: red; }
]]></style>

<defs>
  <circle id="rim" cx="0" cy="0" r="7"/>
  <circle id="rim2" cx="0" cy="0" r="3.5"/>
  <g id="zoomPlus">
    <use xlink:href="#rim" fill="#404040"><set attributeName="fill" to="#808080" begin="zoomplus.mouseover" end="zoomplus.mouseout"/></use>
    <path d="M-4,0h8M0,-4v8" fill="none" stroke="white" stroke-width="1.5" pointer-events="none"/>
  </g>
  <g id="zoomMin">
    <use xlink:href="#rim" fill="#404040"><set attributeName="fill" to="#808080" begin="zoomminus.mouseover" end="zoomminus.mouseout"/></use>
    <path d="M-4,0h8" fill="none" stroke="white" stroke-width="1.5" pointer-events="none"/>
  </g>
  <g id="arrowUp" transform="translate(30 24)">
    <use xlink:href="#rim"/>
    <path pointer-events="none" fill="none" stroke="white" stroke-width="1.5" d="M0,-3.0v7 M-2.5,-0.5L0,-3.0L2.5,-0.5"/>
  </g>
  <g id="arrowRight" transform="rotate(90) translate(36 -43)">
    <use xlink:href="#rim"/>
    <path pointer-events="none" fill="none" stroke="white" stroke-width="1.5" d="M0,-3.0v7 M-2.5,-0.5L0,-3.0L2.5,-0.5"/>
  </g>
  <g id="arrowDown" transform="rotate(180) translate(-30 -48)">
    <use xlink:href="#rim"/>
    <path pointer-events="none" fill="none" stroke="white" stroke-width="1.5" d="M0,-3.0v7 M-2.5,-0.5L0,-3.0L2.5,-0.5"/>
  </g>
  <g id="arrowLeft" transform="rotate(270) translate(-36 17)">
    <use xlink:href="#rim"/>
    <path pointer-events="none" fill="none" stroke="white" stroke-width="1.5" d="M0,-3.0v7 M-2.5,-0.5L0,-3.0L2.5,-0.5"/>
  </g>
  <g id="resetDef">
    <use xlink:href="#rim2" fill="#404040"><set attributeName="fill" to="#808080" begin="reset.mouseover" end="reset.mouseout"/></use>
  </g>
</defs>
<script type="application/ecmascript">
var viewWidth = 889;
var viewHeight = 285;
var sectionId = 'dynsection-0';
</script>
<script type="application/ecmascript" xlink:href="svg.min.js"/>
<svg id="graph" class="graph">
<g id="viewport">
<title>MayaFlux::Kakshya::ContainerDataStructure::get_samples_count_per_channel</title>
<!-- Node1 -->
<g id="Node000001" class="node">
<title>Node1</title>
<g id="a_Node000001"><a xlink:title="Get samples per channel (time dimension only).">
<polygon fill="#999999" stroke="#666666" points="881,-164.5 743,-164.5 743,-112.5 881,-112.5 881,-164.5"/>
<text text-anchor="start" x="751" y="-152.5" font-family="Helvetica,sans-Serif" font-size="10.00">MayaFlux::Kakshya::</text>
<text text-anchor="start" x="751" y="-141.5" font-family="Helvetica,sans-Serif" font-size="10.00">ContainerDataStructure</text>
<text text-anchor="start" x="751" y="-130.5" font-family="Helvetica,sans-Serif" font-size="10.00">::get_samples_count_per</text>
<text text-anchor="middle" x="812" y="-119.5" font-family="Helvetica,sans-Serif" font-size="10.00">_channel</text>
</a>
</g>
</g>
<!-- Node2 -->
<g id="Node000002" class="node">
<title>Node2</title>
<g id="a_Node000002"><a xlink:href="namespaceMayaFlux_1_1Kakshya_a9e04e41aff04a962aa0025fc87719652.html#a9e04e41aff04a962aa0025fc87719652" target="_top" xlink:title="Advance current positions by specified frames per channel, with optional looping.">
<polygon fill="white" stroke="#666666" points="690.5,-255.5 571.5,-255.5 571.5,-225.5 690.5,-225.5 690.5,-255.5"/>
<text text-anchor="start" x="579.5" y="-243.5" font-family="Helvetica,sans-Serif" font-size="10.00">MayaFlux::Kakshya::</text>
<text text-anchor="middle" x="631" y="-232.5" font-family="Helvetica,sans-Serif" font-size="10.00">advance_position</text>
</a>
</g>
</g>
<!-- Node1&#45;&gt;Node2 -->
<g id="edge1_Node000001_Node000002" class="edge">
<title>Node1&#45;&gt;Node2</title>
<g id="a_edge1_Node000001_Node000002"><a xlink:title=" ">
<path fill="none" stroke="#63b8ff" d="M774.03,-171.02C755.01,-186.46 730.86,-204.18 707,-216.5 700.56,-219.82 693.57,-222.8 686.54,-225.43"/>
<polygon fill="#63b8ff" stroke="#63b8ff" points="776.36,-173.63 781.85,-164.57 771.91,-168.23 776.36,-173.63"/>
</a>
</g>
</g>
<!-- Node3 -->
<g id="Node000003" class="node">
<title>Node3</title>
<g id="a_Node000003"><a xlink:href="namespaceMayaFlux_1_1Kakshya_a6b9b1e820df114a20a5384233008e015.html#a6b9b1e820df114a20a5384233008e015" target="_top" xlink:title="Advance current positions by a number of frames, with optional looping.">
<polygon fill="white" stroke="#666666" points="690.5,-207.5 571.5,-207.5 571.5,-177.5 690.5,-177.5 690.5,-207.5"/>
<text text-anchor="start" x="579.5" y="-195.5" font-family="Helvetica,sans-Serif" font-size="10.00">MayaFlux::Kakshya::</text>
<text text-anchor="middle" x="631" y="-184.5" font-family="Helvetica,sans-Serif" font-size="10.00">advance_position</text>
</a>
</g>
</g>
<!-- Node1&#45;&gt;Node3 -->
<g id="edge2_Node000001_Node000003" class="edge">
<title>Node1&#45;&gt;Node3</title>
<g id="a_edge2_Node000001_Node000003"><a xlink:title=" ">
<path fill="none" stroke="#63b8ff" d="M733.23,-161.96C715.82,-167.21 697.82,-172.64 681.9,-177.45"/>
<polygon fill="#63b8ff" stroke="#63b8ff" points="734.25,-165.31 742.82,-159.07 732.23,-158.61 734.25,-165.31"/>
</a>
</g>
</g>
<!-- Node11 -->
<g id="Node000011" class="node">
<title>Node11</title>
<g id="a_Node000011"><a xlink:href="classMayaFlux_1_1Kakshya_1_1CursorAccessProcessor_a13d09e4d738e714908dd081cad01d1b5.html#a13d09e4d738e714908dd081cad01d1b5" target="_top" xlink:title="Extract one block of frames into container processed_data[0].">
<polygon fill="white" stroke="#666666" points="695.5,-159 566.5,-159 566.5,-118 695.5,-118 695.5,-159"/>
<text text-anchor="start" x="574.5" y="-147" font-family="Helvetica,sans-Serif" font-size="10.00">MayaFlux::Kakshya::</text>
<text text-anchor="start" x="574.5" y="-136" font-family="Helvetica,sans-Serif" font-size="10.00">CursorAccessProcessor</text>
<text text-anchor="middle" x="631" y="-125" font-family="Helvetica,sans-Serif" font-size="10.00">::process</text>
</a>
</g>
</g>
<!-- Node1&#45;&gt;Node11 -->
<g id="edge10_Node000001_Node000011" class="edge">
<title>Node1&#45;&gt;Node11</title>
<g id="a_edge10_Node000001_Node000011"><a xlink:title=" ">
<path fill="none" stroke="#63b8ff" d="M732.53,-138.5C720.18,-138.5 707.54,-138.5 695.58,-138.5"/>
<polygon fill="#63b8ff" stroke="#63b8ff" points="732.82,-142 742.82,-138.5 732.82,-135 732.82,-142"/>
</a>
</g>
</g>
<!-- Node12 -->
<g id="Node000012" class="node">
<title>Node12</title>
<g id="a_Node000012"><a xlink:href="classMayaFlux_1_1Kakshya_1_1ContiguousAccessProcessor_aca05ee63009dd88d08bdb79c0fa821c0.html#aca05ee63009dd88d08bdb79c0fa821c0" target="_top" xlink:title="Store dimension and layout metadata from the container.">
<polygon fill="white" stroke="#666666" points="707,-41 555,-41 555,0 707,0 707,-41"/>
<text text-anchor="start" x="563" y="-29" font-family="Helvetica,sans-Serif" font-size="10.00">MayaFlux::Kakshya::</text>
<text text-anchor="start" x="563" y="-18" font-family="Helvetica,sans-Serif" font-size="10.00">ContiguousAccessProcessor</text>
<text text-anchor="middle" x="631" y="-7" font-family="Helvetica,sans-Serif" font-size="10.00">::store_metadata</text>
</a>
</g>
</g>
<!-- Node1&#45;&gt;Node12 -->
<g id="edge11_Node000001_Node000012" class="edge">
<title>Node1&#45;&gt;Node12</title>
<g id="a_edge11_Node000001_Node000012"><a xlink:title=" ">
<path fill="none" stroke="#63b8ff" d="M777.65,-105.45C758.23,-87.5 732.59,-65.89 707,-50.5 701.35,-47.1 695.25,-43.94 689.05,-41.05"/>
<polygon fill="#63b8ff" stroke="#63b8ff" points="775.35,-108.1 785.04,-112.39 780.14,-102.99 775.35,-108.1"/>
</a>
</g>
</g>
<!-- Node15 -->
<g id="Node000015" class="node">
<title>Node15</title>
<g id="a_Node000015"><a xlink:href="classMayaFlux_1_1Kakshya_1_1ContiguousAccessProcessor_a39d753c064f0ccb0764dcb59c65f920e.html#a39d753c064f0ccb0764dcb59c65f920e" target="_top" xlink:title="Validate the container&#39;s structure and output configuration.">
<polygon fill="white" stroke="#666666" points="707,-100 555,-100 555,-59 707,-59 707,-100"/>
<text text-anchor="start" x="563" y="-88" font-family="Helvetica,sans-Serif" font-size="10.00">MayaFlux::Kakshya::</text>
<text text-anchor="start" x="563" y="-77" font-family="Helvetica,sans-Serif" font-size="10.00">ContiguousAccessProcessor</text>
<text text-anchor="middle" x="631" y="-66" font-family="Helvetica,sans-Serif" font-size="10.00">::validate</text>
</a>
</g>
</g>
<!-- Node1&#45;&gt;Node15 -->
<g id="edge14_Node000001_Node000015" class="edge">
<title>Node1&#45;&gt;Node15</title>
<g id="a_edge14_Node000001_Node000015"><a xlink:title=" ">
<path fill="none" stroke="#63b8ff" d="M733.02,-112.8C720.11,-108.54 706.87,-104.18 694.41,-100.07"/>
<polygon fill="#63b8ff" stroke="#63b8ff" points="732.22,-116.22 742.82,-116.03 734.42,-109.57 732.22,-116.22"/>
</a>
</g>
</g>
<!-- Node4 -->
<g id="Node000004" class="node">
<title>Node4</title>
<g id="a_Node000004"><a xlink:href="classMayaFlux_1_1Kakshya_1_1SoundStreamContainer_a57c8173321d14283714748456d5460c7.html#a57c8173321d14283714748456d5460c7" target="_top" xlink:title="Advance the read position by a specified amount.">
<polygon fill="white" stroke="#666666" points="510.5,-277 375.5,-277 375.5,-236 510.5,-236 510.5,-277"/>
<text text-anchor="start" x="383.5" y="-265" font-family="Helvetica,sans-Serif" font-size="10.00">MayaFlux::Kakshya::</text>
<text text-anchor="start" x="383.5" y="-254" font-family="Helvetica,sans-Serif" font-size="10.00">SoundStreamContainer</text>
<text text-anchor="middle" x="443" y="-243" font-family="Helvetica,sans-Serif" font-size="10.00">::advance_read_position</text>
</a>
</g>
</g>
<!-- Node3&#45;&gt;Node4 -->
<g id="edge3_Node000003_Node000004" class="edge">
<title>Node3&#45;&gt;Node4</title>
<g id="a_edge3_Node000003_Node000004"><a xlink:title=" ">
<path fill="none" stroke="#63b8ff" d="M572.16,-210.78C566.36,-212.68 560.56,-214.61 555,-216.5 536.96,-222.63 517.38,-229.59 499.76,-235.96"/>
<polygon fill="#63b8ff" stroke="#63b8ff" points="573.48,-214.03 581.9,-207.61 571.31,-207.37 573.48,-214.03"/>
</a>
</g>
</g>
<!-- Node6 -->
<g id="Node000006" class="node">
<title>Node6</title>
<g id="a_Node000006"><a xlink:href="classMayaFlux_1_1Kakshya_1_1RegionProcessorBase_a20574208db40f323df3cf6ac9178ca79.html#a20574208db40f323df3cf6ac9178ca79" target="_top" xlink:title="Organize container data into structured regions.">
<polygon fill="white" stroke="#666666" points="514.5,-218 371.5,-218 371.5,-177 514.5,-177 514.5,-218"/>
<text text-anchor="start" x="379.5" y="-206" font-family="Helvetica,sans-Serif" font-size="10.00">MayaFlux::Kakshya::</text>
<text text-anchor="start" x="379.5" y="-195" font-family="Helvetica,sans-Serif" font-size="10.00">RegionProcessorBase</text>
<text text-anchor="middle" x="443" y="-184" font-family="Helvetica,sans-Serif" font-size="10.00">::organize_container_data</text>
</a>
</g>
</g>
<!-- Node3&#45;&gt;Node6 -->
<g id="edge5_Node000003_Node000006" class="edge">
<title>Node3&#45;&gt;Node6</title>
<g id="a_edge5_Node000003_Node000006"><a xlink:title=" ">
<path fill="none" stroke="#63b8ff" d="M561.09,-194.35C545.95,-194.76 529.9,-195.19 514.7,-195.6"/>
<polygon fill="#63b8ff" stroke="#63b8ff" points="561.5,-197.84 571.4,-194.08 561.31,-190.85 561.5,-197.84"/>
</a>
</g>
</g>
<!-- Node10 -->
<g id="Node000010" class="node">
<title>Node10</title>
<g id="a_Node000010"><a xlink:href="classMayaFlux_1_1Kakshya_1_1ContiguousAccessProcessor_ad02564095af42029d0276cc1df6370ee.html#ad02564095af42029d0276cc1df6370ee" target="_top" xlink:title="Process the current region or block of data.">
<polygon fill="white" stroke="#666666" points="519,-159 367,-159 367,-118 519,-118 519,-159"/>
<text text-anchor="start" x="375" y="-147" font-family="Helvetica,sans-Serif" font-size="10.00">MayaFlux::Kakshya::</text>
<text text-anchor="start" x="375" y="-136" font-family="Helvetica,sans-Serif" font-size="10.00">ContiguousAccessProcessor</text>
<text text-anchor="middle" x="443" y="-125" font-family="Helvetica,sans-Serif" font-size="10.00">::process</text>
</a>
</g>
</g>
<!-- Node3&#45;&gt;Node10 -->
<g id="edge9_Node000003_Node000010" class="edge">
<title>Node3&#45;&gt;Node10</title>
<g id="a_edge9_Node000003_Node000010"><a xlink:title=" ">
<path fill="none" stroke="#63b8ff" d="M568.28,-174.58C551.1,-169.59 532.3,-164.14 514.65,-159.01"/>
<polygon fill="#63b8ff" stroke="#63b8ff" points="567.61,-178.03 578.19,-177.46 569.56,-171.31 567.61,-178.03"/>
</a>
</g>
</g>
<!-- Node5 -->
<g id="Node000005" class="node">
<title>Node5</title>
<g id="a_Node000005"><a xlink:href="classMayaFlux_1_1Kakshya_1_1SoundStreamContainer_aa439bfd4e77f899c063e07263effaaa3.html#aa439bfd4e77f899c063e07263effaaa3" target="_top" xlink:title="Read data sequentially from the current position.">
<polygon fill="white" stroke="#666666" points="331,-277 202,-277 202,-236 331,-236 331,-277"/>
<text text-anchor="start" x="210" y="-265" font-family="Helvetica,sans-Serif" font-size="10.00">MayaFlux::Kakshya::</text>
<text text-anchor="start" x="210" y="-254" font-family="Helvetica,sans-Serif" font-size="10.00">SoundStreamContainer</text>
<text text-anchor="middle" x="266.5" y="-243" font-family="Helvetica,sans-Serif" font-size="10.00">::read_sequential</text>
</a>
</g>
</g>
<!-- Node4&#45;&gt;Node5 -->
<g id="edge4_Node000004_Node000005" class="edge">
<title>Node4&#45;&gt;Node5</title>
<g id="a_edge4_Node000004_Node000005"><a xlink:title=" ">
<path fill="none" stroke="#63b8ff" d="M364.79,-256.5C353.54,-256.5 342.07,-256.5 331.13,-256.5"/>
<polygon fill="#63b8ff" stroke="#63b8ff" points="365.03,-260 375.03,-256.5 365.03,-253 365.03,-260"/>
</a>
</g>
</g>
<!-- Node7 -->
<g id="Node000007" class="node">
<title>Node7</title>
<g id="a_Node000007"><a xlink:href="classMayaFlux_1_1Kakshya_1_1RegionProcessorBase_adfd4b78cb83865cd035277c9d82a1533.html#adfd4b78cb83865cd035277c9d82a1533" target="_top" xlink:title="Attach this processor to a signal source container.">
<polygon fill="white" stroke="#666666" points="327.5,-218 205.5,-218 205.5,-177 327.5,-177 327.5,-218"/>
<text text-anchor="start" x="213.5" y="-206" font-family="Helvetica,sans-Serif" font-size="10.00">MayaFlux::Kakshya::</text>
<text text-anchor="start" x="213.5" y="-195" font-family="Helvetica,sans-Serif" font-size="10.00">RegionProcessorBase</text>
<text text-anchor="middle" x="266.5" y="-184" font-family="Helvetica,sans-Serif" font-size="10.00">::on_attach</text>
</a>
</g>
</g>
<!-- Node6&#45;&gt;Node7 -->
<g id="edge6_Node000006_Node000007" class="edge">
<title>Node6&#45;&gt;Node7</title>
<g id="a_edge6_Node000006_Node000007"><a xlink:title=" ">
<path fill="none" stroke="#63b8ff" d="M361.03,-197.5C349.81,-197.5 338.45,-197.5 327.69,-197.5"/>
<polygon fill="#63b8ff" stroke="#63b8ff" points="361.28,-201 371.28,-197.5 361.28,-194 361.28,-201"/>
</a>
</g>
</g>
<!-- Node8 -->
<g id="Node000008" class="node">
<title>Node8</title>
<g id="a_Node000008"><a xlink:href="classMayaFlux_1_1Kakshya_1_1SpatialRegionProcessor_ace6bedee64ee435811d8097fdc6c5513.html#ace6bedee64ee435811d8097fdc6c5513" target="_top" xlink:title="Attach to a spatial container.">
<polygon fill="white" stroke="#666666" points="148.5,-248 17.5,-248 17.5,-207 148.5,-207 148.5,-248"/>
<text text-anchor="start" x="25.5" y="-236" font-family="Helvetica,sans-Serif" font-size="10.00">MayaFlux::Kakshya::</text>
<text text-anchor="start" x="25.5" y="-225" font-family="Helvetica,sans-Serif" font-size="10.00">SpatialRegionProcessor</text>
<text text-anchor="middle" x="83" y="-214" font-family="Helvetica,sans-Serif" font-size="10.00">::on_attach</text>
</a>
</g>
</g>
<!-- Node7&#45;&gt;Node8 -->
<g id="edge7_Node000007_Node000008" class="edge">
<title>Node7&#45;&gt;Node8</title>
<g id="a_edge7_Node000007_Node000008"><a xlink:title=" ">
<path fill="none" stroke="#63b8ff" d="M195.37,-209.09C180.01,-211.63 163.83,-214.31 148.7,-216.81"/>
<polygon fill="#63b8ff" stroke="#63b8ff" points="196.02,-212.53 205.32,-207.45 194.88,-205.63 196.02,-212.53"/>
</a>
</g>
</g>
<!-- Node9 -->
<g id="Node000009" class="node">
<title>Node9</title>
<g id="a_Node000009"><a xlink:href="classMayaFlux_1_1Kakshya_1_1RegionOrganizationProcessor_a7675770cf73a3a0b797b8ac9f05e1598.html#a7675770cf73a3a0b797b8ac9f05e1598" target="_top" xlink:title="Construct a region organization processor for a given container.">
<polygon fill="white" stroke="#666666" points="166,-189 0,-189 0,-148 166,-148 166,-189"/>
<text text-anchor="start" x="8" y="-177" font-family="Helvetica,sans-Serif" font-size="10.00">MayaFlux::Kakshya::</text>
<text text-anchor="start" x="8" y="-166" font-family="Helvetica,sans-Serif" font-size="10.00">RegionOrganizationProcessor</text>
<text text-anchor="middle" x="83" y="-155" font-family="Helvetica,sans-Serif" font-size="10.00">::RegionOrganizationProcessor</text>
</a>
</g>
</g>
<!-- Node7&#45;&gt;Node9 -->
<g id="edge8_Node000007_Node000009" class="edge">
<title>Node7&#45;&gt;Node9</title>
<g id="a_edge8_Node000007_Node000009"><a xlink:title=" ">
<path fill="none" stroke="#63b8ff" d="M195.42,-186.3C185.79,-184.76 175.84,-183.17 166.02,-181.61"/>
<polygon fill="#63b8ff" stroke="#63b8ff" points="194.89,-189.76 205.32,-187.88 195.99,-182.85 194.89,-189.76"/>
</a>
</g>
</g>
<!-- Node13 -->
<g id="Node000013" class="node">
<title>Node13</title>
<g id="a_Node000013"><a xlink:href="classMayaFlux_1_1Kakshya_1_1ContiguousAccessProcessor_a659411b73a8e35064a42df40e5743663.html#a659411b73a8e35064a42df40e5743663" target="_top" xlink:title="Attach the processor to a signal source container.">
<polygon fill="white" stroke="#666666" points="519,-41 367,-41 367,0 519,0 519,-41"/>
<text text-anchor="start" x="375" y="-29" font-family="Helvetica,sans-Serif" font-size="10.00">MayaFlux::Kakshya::</text>
<text text-anchor="start" x="375" y="-18" font-family="Helvetica,sans-Serif" font-size="10.00">ContiguousAccessProcessor</text>
<text text-anchor="middle" x="443" y="-7" font-family="Helvetica,sans-Serif" font-size="10.00">::on_attach</text>
</a>
</g>
</g>
<!-- Node12&#45;&gt;Node13 -->
<g id="edge12_Node000012_Node000013" class="edge">
<title>Node12&#45;&gt;Node13</title>
<g id="a_edge12_Node000012_Node000013"><a xlink:title=" ">
<path fill="none" stroke="#63b8ff" d="M544.85,-20.5C536.26,-20.5 527.57,-20.5 519.1,-20.5"/>
<polygon fill="#63b8ff" stroke="#63b8ff" points="544.88,-24 554.88,-20.5 544.88,-17 544.88,-24"/>
</a>
</g>
</g>
<!-- Node14 -->
<g id="Node000014" class="node">
<title>Node14</title>
<g id="a_Node000014"><a xlink:href="classMayaFlux_1_1Kakshya_1_1ContiguousAccessProcessor_a004edfbf41a31559663ef2c48c84a205.html#a004edfbf41a31559663ef2c48c84a205" target="_top" xlink:title="Set the output buffer size (shape) for each processing call.">
<polygon fill="white" stroke="#666666" points="519,-100 367,-100 367,-59 519,-59 519,-100"/>
<text text-anchor="start" x="375" y="-88" font-family="Helvetica,sans-Serif" font-size="10.00">MayaFlux::Kakshya::</text>
<text text-anchor="start" x="375" y="-77" font-family="Helvetica,sans-Serif" font-size="10.00">ContiguousAccessProcessor</text>
<text text-anchor="middle" x="443" y="-66" font-family="Helvetica,sans-Serif" font-size="10.00">::set_output_size</text>
</a>
</g>
</g>
<!-- Node12&#45;&gt;Node14 -->
<g id="edge13_Node000012_Node000014" class="edge">
<title>Node12&#45;&gt;Node14</title>
<g id="a_edge13_Node000012_Node000014"><a xlink:title=" ">
<path fill="none" stroke="#63b8ff" d="M555.24,-44.22C539.89,-49.08 523.84,-54.17 508.88,-58.92"/>
<polygon fill="#63b8ff" stroke="#63b8ff" points="556.73,-47.41 565.21,-41.05 554.62,-40.74 556.73,-47.41"/>
</a>
</g>
</g>
<!-- Node15&#45;&gt;Node13 -->
<g id="edge15_Node000015_Node000013" class="edge">
<title>Node15&#45;&gt;Node13</title>
<g id="a_edge15_Node000015_Node000013"><a xlink:title=" ">
<path fill="none" stroke="#63b8ff" d="M555.24,-55.78C539.89,-50.92 523.84,-45.83 508.88,-41.08"/>
<polygon fill="#63b8ff" stroke="#63b8ff" points="554.62,-59.26 565.21,-58.95 556.73,-52.59 554.62,-59.26"/>
</a>
</g>
</g>
<!-- Node15&#45;&gt;Node14 -->
<g id="edge16_Node000015_Node000014" class="edge">
<title>Node15&#45;&gt;Node14</title>
<g id="a_edge16_Node000015_Node000014"><a xlink:title=" ">
<path fill="none" stroke="#63b8ff" d="M544.85,-79.5C536.26,-79.5 527.57,-79.5 519.1,-79.5"/>
<polygon fill="#63b8ff" stroke="#63b8ff" points="544.88,-83 554.88,-79.5 544.88,-76 544.88,-83"/>
</a>
</g>
</g>
</g>
</svg>

<g id="navigator" transform="translate(0 0)" fill="#404254">
  <rect fill="#f2f5e9" fill-opacity="0.5" stroke="#606060" stroke-width=".5" x="0" y="0" width="60" height="60"/>
  <use id="zoomplus" xlink:href="#zoomPlus" x="17" y="9" onmousedown="handleZoom(evt,'in')"/>
  <use id="zoomminus" xlink:href="#zoomMin" x="42" y="9" onmousedown="handleZoom(evt,'out')"/>
  <use id="reset" xlink:href="#resetDef" x="30" y="36" onmousedown="handleReset()"/>
   <use id="arrowup" xlink:href="#arrowUp" x="0" y="0" onmousedown="handlePan(0,-1)"/>
  <use id="arrowright" xlink:href="#arrowRight" x="0" y="0" onmousedown="handlePan(1,0)"/>
  <use id="arrowdown" xlink:href="#arrowDown" x="0" y="0" onmousedown="handlePan(0,1)"/>
  <use id="arrowleft" xlink:href="#arrowLeft" x="0" y="0" onmousedown="handlePan(-1,0)"/>
</g>
<svg viewBox="0 0 15 15" width="100%" height="30px" preserveAspectRatio="xMaxYMin meet">
 <g id="arrow_out" transform="scale(0.3 0.3)">
  <a xlink:href="structMayaFlux_1_1Kakshya_1_1ContainerDataStructure_a707364e4c5a8e950a981eaf7ff5edff6_a707364e4c5a8e950a981eaf7ff5edff6_icgraph_org.svg" target="_base">
   <rect id="button" ry="5" rx="5" y="6" x="6" height="38" width="38"
        fill="#f2f5e9" fill-opacity="0.5" stroke="#606060" stroke-width="1.0"/>
   <path id="arrow"
     d="M 11.500037,31.436501 C 11.940474,20.09759 22.043105,11.32322 32.158766,21.979434 L 37.068811,17.246167 C 37.068811,17.246167 37.088388,32 37.088388,32 L 22.160133,31.978069 C 22.160133,31.978069 26.997745,27.140456 26.997745,27.140456 C 18.528582,18.264221 13.291696,25.230495 11.500037,31.436501 z"
     style="fill:#404040;"/>
  </a>
 </g>
</svg>

<style type='text/css'>
<![CDATA[
[data-mouse-over-selected='false'] { opacity: 0.7; }
[data-mouse-over-selected='true']  { opacity: 1.0; }
]]>
</style>
<script type="application/ecmascript"><![CDATA[
document.addEventListener('DOMContentLoaded', (event) => {
  highlightEdges();
  highlightAdjacentNodes();
});
]]></script>
</svg>
