<?xml version="1.0" encoding="UTF-8" standalone="no"?>
<!DOCTYPE svg PUBLIC "-//W3C//DTD SVG 1.1//EN"
 "http://www.w3.org/Graphics/SVG/1.1/DTD/svg11.dtd">
<!-- Generated by graphviz version 2.43.0 (0)
 -->
<!-- Title: MayaFlux::Kakshya::StreamSlice::from_region Pages: 1 -->
<svg width="331pt" height="230pt"
 viewBox="0.00 0.00 331.00 230.00" xmlns="http://www.w3.org/2000/svg" xmlns:xlink="http://www.w3.org/1999/xlink">
<g id="graph0" class="graph" transform="scale(1 1) rotate(0) translate(4 226)">
<title>MayaFlux::Kakshya::StreamSlice::from_region</title>
<!-- Node1 -->
<g id="Node000001" class="node">
<title>Node1</title>
<g id="a_Node000001"><a xlink:title="Construct a slice spanning a frame and channel sub&#45;region.">
<polygon fill="#999999" stroke="#666666" points="140,-126 0,-126 0,-96 140,-96 140,-126"/>
<text text-anchor="start" x="8" y="-114" font-family="Helvetica,sans-Serif" font-size="10.00">MayaFlux::Kakshya::</text>
<text text-anchor="middle" x="70" y="-103" font-family="Helvetica,sans-Serif" font-size="10.00">StreamSlice::from_region</text>
</a>
</g>
</g>
<!-- Node2 -->
<g id="Node000002" class="node">
<title>Node2</title>
<g id="a_Node000002"><a xlink:href="structMayaFlux_1_1Kakshya_1_1Region_a182856464b376cd037d3473fa34e67d7.html#a182856464b376cd037d3473fa34e67d7" target="_top" xlink:title="Create a Region representing a span in audio (frames and channels).">
<polygon fill="white" stroke="#666666" points="309,-222 190,-222 190,-192 309,-192 309,-222"/>
<text text-anchor="start" x="198" y="-210" font-family="Helvetica,sans-Serif" font-size="10.00">MayaFlux::Kakshya::</text>
<text text-anchor="middle" x="249.5" y="-199" font-family="Helvetica,sans-Serif" font-size="10.00">Region::audio_span</text>
</a>
</g>
</g>
<!-- Node1&#45;&gt;Node2 -->
<g id="edge1_Node000001_Node000002" class="edge">
<title>Node1&#45;&gt;Node2</title>
<g id="a_edge1_Node000001_Node000002"><a xlink:title=" ">
<path fill="none" stroke="#63b8ff" d="M89.72,-126.26C109.98,-142.18 143.72,-166.99 176,-183 179.74,-184.86 183.66,-186.62 187.66,-188.28"/>
<polygon fill="#63b8ff" stroke="#63b8ff" points="186.48,-191.58 197.07,-191.98 189.04,-185.07 186.48,-191.58"/>
</a>
</g>
</g>
<!-- Node3 -->
<g id="Node000003" class="node">
<title>Node3</title>
<g id="a_Node000003"><a xlink:href="structMayaFlux_1_1Kakshya_1_1StreamSlice_ad68a01daa665b75b00361937f283301b.html#ad68a01daa665b75b00361937f283301b" target="_top" xlink:title=" ">
<polygon fill="white" stroke="#666666" points="321,-174 178,-174 178,-144 321,-144 321,-174"/>
<text text-anchor="start" x="186" y="-162" font-family="Helvetica,sans-Serif" font-size="10.00">MayaFlux::Kakshya::</text>
<text text-anchor="middle" x="249.5" y="-151" font-family="Helvetica,sans-Serif" font-size="10.00">StreamSlice::end_channel</text>
</a>
</g>
</g>
<!-- Node1&#45;&gt;Node3 -->
<g id="edge2_Node000001_Node000003" class="edge">
<title>Node1&#45;&gt;Node3</title>
<g id="a_edge2_Node000001_Node000003"><a xlink:title=" ">
<path fill="none" stroke="#63b8ff" d="M126.68,-126.06C144.6,-130.9 164.63,-136.32 183.18,-141.34"/>
<polygon fill="#63b8ff" stroke="#63b8ff" points="182.46,-144.77 193.02,-144 184.28,-138.01 182.46,-144.77"/>
</a>
</g>
</g>
<!-- Node4 -->
<g id="Node000004" class="node">
<title>Node4</title>
<g id="a_Node000004"><a xlink:href="structMayaFlux_1_1Kakshya_1_1StreamSlice_ab3e621c1437a800e9df55a6a50c98bd9.html#ab3e621c1437a800e9df55a6a50c98bd9" target="_top" xlink:title=" ">
<polygon fill="white" stroke="#666666" points="316.5,-126 182.5,-126 182.5,-96 316.5,-96 316.5,-126"/>
<text text-anchor="start" x="190.5" y="-114" font-family="Helvetica,sans-Serif" font-size="10.00">MayaFlux::Kakshya::</text>
<text text-anchor="middle" x="249.5" y="-103" font-family="Helvetica,sans-Serif" font-size="10.00">StreamSlice::end_frame</text>
</a>
</g>
</g>
<!-- Node1&#45;&gt;Node4 -->
<g id="edge3_Node000001_Node000004" class="edge">
<title>Node1&#45;&gt;Node4</title>
<g id="a_edge3_Node000001_Node000004"><a xlink:title=" ">
<path fill="none" stroke="#63b8ff" d="M140.13,-111C150.68,-111 161.62,-111 172.31,-111"/>
<polygon fill="#63b8ff" stroke="#63b8ff" points="172.46,-114.5 182.46,-111 172.46,-107.5 172.46,-114.5"/>
</a>
</g>
</g>
<!-- Node5 -->
<g id="Node000005" class="node">
<title>Node5</title>
<g id="a_Node000005"><a xlink:href="structMayaFlux_1_1Kakshya_1_1StreamSlice_a1b31b6648933665b1537d04bac1707b4.html#a1b31b6648933665b1537d04bac1707b4" target="_top" xlink:title=" ">
<polygon fill="white" stroke="#666666" points="323,-78 176,-78 176,-48 323,-48 323,-78"/>
<text text-anchor="start" x="184" y="-66" font-family="Helvetica,sans-Serif" font-size="10.00">MayaFlux::Kakshya::</text>
<text text-anchor="middle" x="249.5" y="-55" font-family="Helvetica,sans-Serif" font-size="10.00">StreamSlice::start_channel</text>
</a>
</g>
</g>
<!-- Node1&#45;&gt;Node5 -->
<g id="edge4_Node000001_Node000005" class="edge">
<title>Node1&#45;&gt;Node5</title>
<g id="a_edge4_Node000001_Node000005"><a xlink:title=" ">
<path fill="none" stroke="#63b8ff" d="M126.68,-95.94C144.6,-91.1 164.63,-85.68 183.18,-80.66"/>
<polygon fill="#63b8ff" stroke="#63b8ff" points="184.28,-83.99 193.02,-78 182.46,-77.23 184.28,-83.99"/>
</a>
</g>
</g>
<!-- Node6 -->
<g id="Node000006" class="node">
<title>Node6</title>
<g id="a_Node000006"><a xlink:href="structMayaFlux_1_1Kakshya_1_1StreamSlice_a2882b45899cd4ea7363a62d7cd758d58.html#a2882b45899cd4ea7363a62d7cd758d58" target="_top" xlink:title=" ">
<polygon fill="white" stroke="#666666" points="318.5,-30 180.5,-30 180.5,0 318.5,0 318.5,-30"/>
<text text-anchor="start" x="188.5" y="-18" font-family="Helvetica,sans-Serif" font-size="10.00">MayaFlux::Kakshya::</text>
<text text-anchor="middle" x="249.5" y="-7" font-family="Helvetica,sans-Serif" font-size="10.00">StreamSlice::start_frame</text>
</a>
</g>
</g>
<!-- Node1&#45;&gt;Node6 -->
<g id="edge5_Node000001_Node000006" class="edge">
<title>Node1&#45;&gt;Node6</title>
<g id="a_edge5_Node000001_Node000006"><a xlink:title=" ">
<path fill="none" stroke="#63b8ff" d="M89.72,-95.74C109.98,-79.82 143.72,-55.01 176,-39 179.74,-37.14 183.66,-35.38 187.66,-33.72"/>
<polygon fill="#63b8ff" stroke="#63b8ff" points="189.04,-36.93 197.07,-30.02 186.48,-30.42 189.04,-36.93"/>
</a>
</g>
</g>
</g>
</svg>
