<?xml version="1.0" encoding="UTF-8" standalone="no"?>
<!DOCTYPE svg PUBLIC "-//W3C//DTD SVG 1.1//EN"
 "http://www.w3.org/Graphics/SVG/1.1/DTD/svg11.dtd">
<!-- Generated by graphviz version 2.43.0 (0)
 -->
<!-- Title: MayaFlux::Core::GlobalGraphicsConfig Pages: 1 -->
<svg width="802pt" height="355pt"
 viewBox="0.00 0.00 802.00 355.00" xmlns="http://www.w3.org/2000/svg" xmlns:xlink="http://www.w3.org/1999/xlink">
<g id="graph0" class="graph" transform="scale(1 1) rotate(0) translate(4 351)">
<title>MayaFlux::Core::GlobalGraphicsConfig</title>
<!-- Node1 -->
<g id="Node000001" class="node">
<title>Node1</title>
<g id="a_Node000001"><a xlink:title=" ">
<polygon fill="#999999" stroke="transparent" points="482.5,-90 315.5,-90 315.5,0 482.5,0 482.5,-90"/>
<text text-anchor="start" x="321" y="-78" font-family="Helvetica,sans-Serif" font-size="10.00">MayaFlux::Core::GlobalGraphics</text>
<text text-anchor="start" x="384" y="-67" font-family="Helvetica,sans-Serif" font-size="10.00">Config</text>
<text text-anchor="start" x="331.5" y="-52" font-family="Helvetica,sans-Serif" font-size="10.00">+</text>
<text text-anchor="start" x="356" y="-52" font-family="Helvetica,sans-Serif" font-size="10.00">requested_api</text>
<text text-anchor="start" x="331.5" y="-37" font-family="Helvetica,sans-Serif" font-size="10.00">+</text>
<text text-anchor="start" x="356" y="-37" font-family="Helvetica,sans-Serif" font-size="10.00">target_frame_rate</text>
<text text-anchor="start" x="331.5" y="-22" font-family="Helvetica,sans-Serif" font-size="10.00">+</text>
<text text-anchor="start" x="356" y="-22" font-family="Helvetica,sans-Serif" font-size="10.00">windowing_backend</text>
<text text-anchor="start" x="397.5" y="-7" font-family="Helvetica,sans-Serif" font-size="10.00"> </text>
<polygon fill="#666666" stroke="#666666" points="316,-62 316,-62 483,-62 483,-62 316,-62"/>
<polygon fill="#666666" stroke="#666666" points="316,-17 316,-17 354,-17 354,-17 316,-17"/>
<polygon fill="#666666" stroke="#666666" points="354,-17 354,-17 483,-17 483,-17 354,-17"/>
<polygon fill="none" stroke="#666666" points="315.5,0 315.5,-90 482.5,-90 482.5,0 315.5,0"/>
</a>
</g>
</g>
<!-- Node2 -->
<g id="Node000002" class="node">
<title>Node2</title>
<g id="a_Node000002"><a xlink:href="structMayaFlux_1_1Core_1_1GlfwPreInitConfig.html" target="_top" xlink:title="Configuration hints for GLFW initialization.">
<polygon fill="white" stroke="transparent" points="146,-309.5 0,-309.5 0,-174.5 146,-174.5 146,-309.5"/>
<text text-anchor="start" x="5" y="-297" font-family="Helvetica,sans-Serif" font-size="10.00">MayaFlux::Core::GlfwPreInit</text>
<text text-anchor="start" x="57.5" y="-286" font-family="Helvetica,sans-Serif" font-size="10.00">Config</text>
<text text-anchor="start" x="7" y="-271" font-family="Helvetica,sans-Serif" font-size="10.00">+</text>
<text text-anchor="start" x="23" y="-271" font-family="Helvetica,sans-Serif" font-size="10.00">cocoa_chdir_resources</text>
<text text-anchor="start" x="7" y="-256" font-family="Helvetica,sans-Serif" font-size="10.00">+</text>
<text text-anchor="start" x="23" y="-256" font-family="Helvetica,sans-Serif" font-size="10.00">cocoa_menubar</text>
<text text-anchor="start" x="7" y="-241" font-family="Helvetica,sans-Serif" font-size="10.00">+</text>
<text text-anchor="start" x="23" y="-241" font-family="Helvetica,sans-Serif" font-size="10.00">disable_libdecor</text>
<text text-anchor="start" x="7" y="-226" font-family="Helvetica,sans-Serif" font-size="10.00">+</text>
<text text-anchor="start" x="23" y="-226" font-family="Helvetica,sans-Serif" font-size="10.00">force_x11_on_wayland</text>
<text text-anchor="start" x="7" y="-211" font-family="Helvetica,sans-Serif" font-size="10.00">+</text>
<text text-anchor="start" x="23" y="-211" font-family="Helvetica,sans-Serif" font-size="10.00">headless</text>
<text text-anchor="start" x="7" y="-196" font-family="Helvetica,sans-Serif" font-size="10.00">+</text>
<text text-anchor="start" x="23" y="-196" font-family="Helvetica,sans-Serif" font-size="10.00">platform</text>
<text text-anchor="start" x="71" y="-181" font-family="Helvetica,sans-Serif" font-size="10.00"> </text>
<polygon fill="#666666" stroke="#666666" points="0,-281 0,-281 146,-281 146,-281 0,-281"/>
<polygon fill="#666666" stroke="#666666" points="0,-191 0,-191 21,-191 21,-191 0,-191"/>
<polygon fill="#666666" stroke="#666666" points="21,-191 21,-191 146,-191 146,-191 21,-191"/>
<polygon fill="none" stroke="#666666" points="0,-174.5 0,-309.5 146,-309.5 146,-174.5 0,-174.5"/>
</a>
</g>
</g>
<!-- Node2&#45;&gt;Node1 -->
<g id="edge1_Node000001_Node000002" class="edge">
<title>Node2&#45;&gt;Node1</title>
<g id="a_edge1_Node000001_Node000002"><a xlink:title=" ">
<path fill="none" stroke="#63b8ff" d="M119.22,-174.24C130.07,-161.02 142.23,-147.89 155,-137 197.12,-101.1 254.74,-78.72 303.42,-65.15"/>
<polygon fill="none" stroke="#63b8ff" points="303.67,-65.08 308.43,-59.66 315.26,-61.97 310.5,-67.39 303.67,-65.08"/>
</a>
</g>
<text text-anchor="middle" x="247.5" y="-111" font-family="Helvetica,sans-Serif" font-size="10.00" fill="grey"> +glfw_preinit_config</text>
</g>
<!-- Node3 -->
<g id="Node000003" class="node">
<title>Node3</title>
<g id="a_Node000003"><a xlink:href="structMayaFlux_1_1Core_1_1GraphicsSurfaceInfo.html" target="_top" xlink:title="System&#45;wide configuration for visual stream processing.">
<polygon fill="white" stroke="transparent" points="312,-332 164,-332 164,-152 312,-152 312,-332"/>
<text text-anchor="start" x="175" y="-320" font-family="Helvetica,sans-Serif" font-size="10.00">MayaFlux::Core::Graphics</text>
<text text-anchor="start" x="210" y="-309" font-family="Helvetica,sans-Serif" font-size="10.00">SurfaceInfo</text>
<text text-anchor="start" x="168" y="-294" font-family="Helvetica,sans-Serif" font-size="10.00">+</text>
<text text-anchor="start" x="181" y="-294" font-family="Helvetica,sans-Serif" font-size="10.00">backend_options</text>
<text text-anchor="start" x="168" y="-279" font-family="Helvetica,sans-Serif" font-size="10.00">+</text>
<text text-anchor="start" x="181" y="-279" font-family="Helvetica,sans-Serif" font-size="10.00">color_space</text>
<text text-anchor="start" x="168" y="-264" font-family="Helvetica,sans-Serif" font-size="10.00">+</text>
<text text-anchor="start" x="181" y="-264" font-family="Helvetica,sans-Serif" font-size="10.00">enable_hdr</text>
<text text-anchor="start" x="168" y="-249" font-family="Helvetica,sans-Serif" font-size="10.00">+</text>
<text text-anchor="start" x="181" y="-249" font-family="Helvetica,sans-Serif" font-size="10.00">enable_regions</text>
<text text-anchor="start" x="168" y="-234" font-family="Helvetica,sans-Serif" font-size="10.00">+</text>
<text text-anchor="start" x="181" y="-234" font-family="Helvetica,sans-Serif" font-size="10.00">format</text>
<text text-anchor="start" x="168" y="-219" font-family="Helvetica,sans-Serif" font-size="10.00">+</text>
<text text-anchor="start" x="181" y="-219" font-family="Helvetica,sans-Serif" font-size="10.00">image_count</text>
<text text-anchor="start" x="168" y="-204" font-family="Helvetica,sans-Serif" font-size="10.00">+</text>
<text text-anchor="start" x="181" y="-204" font-family="Helvetica,sans-Serif" font-size="10.00">max_regions_per_window</text>
<text text-anchor="start" x="168" y="-189" font-family="Helvetica,sans-Serif" font-size="10.00">+</text>
<text text-anchor="start" x="181" y="-189" font-family="Helvetica,sans-Serif" font-size="10.00">measure_frame_time</text>
<text text-anchor="start" x="168" y="-174" font-family="Helvetica,sans-Serif" font-size="10.00">+</text>
<text text-anchor="start" x="181" y="-174" font-family="Helvetica,sans-Serif" font-size="10.00">present_mode</text>
<text text-anchor="start" x="236" y="-159" font-family="Helvetica,sans-Serif" font-size="10.00"> </text>
<polygon fill="#666666" stroke="#666666" points="164,-304 164,-304 312,-304 312,-304 164,-304"/>
<polygon fill="#666666" stroke="#666666" points="164,-169 164,-169 179,-169 179,-169 164,-169"/>
<polygon fill="#666666" stroke="#666666" points="179,-169 179,-169 312,-169 312,-169 179,-169"/>
<polygon fill="none" stroke="#666666" points="164,-152 164,-332 312,-332 312,-152 164,-152"/>
</a>
</g>
</g>
<!-- Node3&#45;&gt;Node1 -->
<g id="edge2_Node000001_Node000003" class="edge">
<title>Node3&#45;&gt;Node1</title>
<g id="a_edge2_Node000001_Node000003"><a xlink:title=" ">
<path fill="none" stroke="#63b8ff" d="M289.32,-151.93C299.67,-136.66 311.06,-121.4 323,-108 325.8,-104.85 328.77,-101.73 331.86,-98.67"/>
<polygon fill="none" stroke="#63b8ff" points="332.08,-98.46 333.67,-91.42 340.78,-90.19 339.18,-97.22 332.08,-98.46"/>
</a>
</g>
<text text-anchor="middle" x="359" y="-111" font-family="Helvetica,sans-Serif" font-size="10.00" fill="grey"> +surface_info</text>
</g>
<!-- Node4 -->
<g id="Node000004" class="node">
<title>Node4</title>
<g id="a_Node000004"><a xlink:href="structMayaFlux_1_1Core_1_1GraphicsBackendInfo.html" target="_top" xlink:title="Configuration for graphics API backend (Vulkan/OpenGL/etc.)">
<polygon fill="white" stroke="transparent" points="468,-347 330,-347 330,-137 468,-137 468,-347"/>
<text text-anchor="start" x="336" y="-335" font-family="Helvetica,sans-Serif" font-size="10.00">MayaFlux::Core::Graphics</text>
<text text-anchor="start" x="368.5" y="-324" font-family="Helvetica,sans-Serif" font-size="10.00">BackendInfo</text>
<text text-anchor="start" x="334" y="-309" font-family="Helvetica,sans-Serif" font-size="10.00">+</text>
<text text-anchor="start" x="347" y="-309" font-family="Helvetica,sans-Serif" font-size="10.00">command_pooling</text>
<text text-anchor="start" x="334" y="-294" font-family="Helvetica,sans-Serif" font-size="10.00">+</text>
<text text-anchor="start" x="347" y="-294" font-family="Helvetica,sans-Serif" font-size="10.00">compute_shaders</text>
<text text-anchor="start" x="334" y="-279" font-family="Helvetica,sans-Serif" font-size="10.00">+</text>
<text text-anchor="start" x="347" y="-279" font-family="Helvetica,sans-Serif" font-size="10.00">enable_compute_queue</text>
<text text-anchor="start" x="334" y="-264" font-family="Helvetica,sans-Serif" font-size="10.00">+</text>
<text text-anchor="start" x="347" y="-264" font-family="Helvetica,sans-Serif" font-size="10.00">enable_debug_markers</text>
<text text-anchor="start" x="334" y="-249" font-family="Helvetica,sans-Serif" font-size="10.00">+</text>
<text text-anchor="start" x="347" y="-249" font-family="Helvetica,sans-Serif" font-size="10.00">enable_transfer_queue</text>
<text text-anchor="start" x="334" y="-234" font-family="Helvetica,sans-Serif" font-size="10.00">+</text>
<text text-anchor="start" x="347" y="-234" font-family="Helvetica,sans-Serif" font-size="10.00">enable_validation</text>
<text text-anchor="start" x="334" y="-219" font-family="Helvetica,sans-Serif" font-size="10.00">+</text>
<text text-anchor="start" x="347" y="-219" font-family="Helvetica,sans-Serif" font-size="10.00">fill_mode_non_solid</text>
<text text-anchor="start" x="334" y="-204" font-family="Helvetica,sans-Serif" font-size="10.00">+</text>
<text text-anchor="start" x="347" y="-204" font-family="Helvetica,sans-Serif" font-size="10.00">geometry_shaders</text>
<text text-anchor="start" x="334" y="-189" font-family="Helvetica,sans-Serif" font-size="10.00">+</text>
<text text-anchor="start" x="347" y="-189" font-family="Helvetica,sans-Serif" font-size="10.00">max_frames_in_flight</text>
<text text-anchor="start" x="334" y="-174" font-family="Helvetica,sans-Serif" font-size="10.00">+</text>
<text text-anchor="start" x="347" y="-174" font-family="Helvetica,sans-Serif" font-size="10.00">memory_strategy</text>
<text text-anchor="start" x="347" y="-159" font-family="Helvetica,sans-Serif" font-size="10.00">and 8 more...</text>
<text text-anchor="start" x="397" y="-144" font-family="Helvetica,sans-Serif" font-size="10.00"> </text>
<polygon fill="#666666" stroke="#666666" points="330,-319 330,-319 468,-319 468,-319 330,-319"/>
<polygon fill="#666666" stroke="#666666" points="330,-154 330,-154 345,-154 345,-154 330,-154"/>
<polygon fill="#666666" stroke="#666666" points="345,-154 345,-154 468,-154 468,-154 345,-154"/>
<polygon fill="none" stroke="#666666" points="330,-137 330,-347 468,-347 468,-137 330,-137"/>
</a>
</g>
</g>
<!-- Node4&#45;&gt;Node1 -->
<g id="edge3_Node000001_Node000004" class="edge">
<title>Node4&#45;&gt;Node1</title>
<g id="a_edge3_Node000001_Node000004"><a xlink:title=" ">
<path fill="none" stroke="#63b8ff" d="M399,-136.93C399,-124.93 399,-113.07 399,-102.06"/>
<polygon fill="none" stroke="#63b8ff" points="399,-102.05 395,-96.05 399,-90.05 403,-96.05 399,-102.05"/>
</a>
</g>
<text text-anchor="middle" x="437" y="-111" font-family="Helvetica,sans-Serif" font-size="10.00" fill="grey"> +backend_info</text>
</g>
<!-- Node5 -->
<g id="Node000005" class="node">
<title>Node5</title>
<g id="a_Node000005"><a xlink:href="structMayaFlux_1_1Core_1_1GraphicsResourceLimits.html" target="_top" xlink:title="Resource limits and budgets for graphics subsystem.">
<polygon fill="white" stroke="transparent" points="632,-309.5 486,-309.5 486,-174.5 632,-174.5 632,-309.5"/>
<text text-anchor="start" x="496" y="-297" font-family="Helvetica,sans-Serif" font-size="10.00">MayaFlux::Core::Graphics</text>
<text text-anchor="start" x="521" y="-286" font-family="Helvetica,sans-Serif" font-size="10.00">ResourceLimits</text>
<text text-anchor="start" x="490" y="-271" font-family="Helvetica,sans-Serif" font-size="10.00">+</text>
<text text-anchor="start" x="503" y="-271" font-family="Helvetica,sans-Serif" font-size="10.00">max_compute_buffer_mb</text>
<text text-anchor="start" x="490" y="-256" font-family="Helvetica,sans-Serif" font-size="10.00">+</text>
<text text-anchor="start" x="503" y="-256" font-family="Helvetica,sans-Serif" font-size="10.00">max_descriptor_sets</text>
<text text-anchor="start" x="490" y="-241" font-family="Helvetica,sans-Serif" font-size="10.00">+</text>
<text text-anchor="start" x="503" y="-241" font-family="Helvetica,sans-Serif" font-size="10.00">max_pipelines</text>
<text text-anchor="start" x="490" y="-226" font-family="Helvetica,sans-Serif" font-size="10.00">+</text>
<text text-anchor="start" x="503" y="-226" font-family="Helvetica,sans-Serif" font-size="10.00">max_staging_buffer_mb</text>
<text text-anchor="start" x="490" y="-211" font-family="Helvetica,sans-Serif" font-size="10.00">+</text>
<text text-anchor="start" x="503" y="-211" font-family="Helvetica,sans-Serif" font-size="10.00">max_texture_cache_mb</text>
<text text-anchor="start" x="490" y="-196" font-family="Helvetica,sans-Serif" font-size="10.00">+</text>
<text text-anchor="start" x="503" y="-196" font-family="Helvetica,sans-Serif" font-size="10.00">max_windows</text>
<text text-anchor="start" x="557" y="-181" font-family="Helvetica,sans-Serif" font-size="10.00"> </text>
<polygon fill="#666666" stroke="#666666" points="486,-281 486,-281 632,-281 632,-281 486,-281"/>
<polygon fill="#666666" stroke="#666666" points="486,-191 486,-191 501,-191 501,-191 486,-191"/>
<polygon fill="#666666" stroke="#666666" points="501,-191 501,-191 632,-191 632,-191 501,-191"/>
<polygon fill="none" stroke="#666666" points="486,-174.5 486,-309.5 632,-309.5 632,-174.5 486,-174.5"/>
</a>
</g>
</g>
<!-- Node5&#45;&gt;Node1 -->
<g id="edge4_Node000001_Node000005" class="edge">
<title>Node5&#45;&gt;Node1</title>
<g id="a_edge4_Node000001_Node000005"><a xlink:title=" ">
<path fill="none" stroke="#63b8ff" d="M525.44,-174.45C512.54,-152.1 496.63,-127.84 479,-108 476.09,-104.72 472.98,-101.49 469.74,-98.33"/>
<polygon fill="none" stroke="#63b8ff" points="469.73,-98.32 462.61,-97.17 460.93,-90.15 468.05,-91.3 469.73,-98.32"/>
</a>
</g>
<text text-anchor="middle" x="530.5" y="-111" font-family="Helvetica,sans-Serif" font-size="10.00" fill="grey"> +resource_limits</text>
</g>
<!-- Node6 -->
<g id="Node000006" class="node">
<title>Node6</title>
<g id="a_Node000006"><a xlink:href="structMayaFlux_1_1Core_1_1TextConfig.html" target="_top" xlink:title="Default font configuration for Portal::Text.">
<polygon fill="white" stroke="transparent" points="794,-289 650,-289 650,-195 794,-195 794,-289"/>
<text text-anchor="start" x="655" y="-277" font-family="Helvetica,sans-Serif" font-size="10.00">MayaFlux::Core::TextConfig</text>
<text text-anchor="start" x="672.5" y="-262" font-family="Helvetica,sans-Serif" font-size="10.00">+</text>
<text text-anchor="start" x="704" y="-262" font-family="Helvetica,sans-Serif" font-size="10.00">atlas_size</text>
<text text-anchor="start" x="672.5" y="-247" font-family="Helvetica,sans-Serif" font-size="10.00">+</text>
<text text-anchor="start" x="704" y="-247" font-family="Helvetica,sans-Serif" font-size="10.00">family</text>
<text text-anchor="start" x="672.5" y="-232" font-family="Helvetica,sans-Serif" font-size="10.00">+</text>
<text text-anchor="start" x="704" y="-232" font-family="Helvetica,sans-Serif" font-size="10.00">pixel_size</text>
<text text-anchor="start" x="672.5" y="-217" font-family="Helvetica,sans-Serif" font-size="10.00">+</text>
<text text-anchor="start" x="704" y="-217" font-family="Helvetica,sans-Serif" font-size="10.00">style</text>
<text text-anchor="start" x="720" y="-202" font-family="Helvetica,sans-Serif" font-size="10.00"> </text>
<polygon fill="#666666" stroke="#666666" points="650,-272 650,-272 794,-272 794,-272 650,-272"/>
<polygon fill="#666666" stroke="#666666" points="650,-212 650,-212 702,-212 702,-212 650,-212"/>
<polygon fill="#666666" stroke="#666666" points="702,-212 702,-212 794,-212 794,-212 702,-212"/>
<polygon fill="none" stroke="#666666" points="650,-195 650,-289 794,-289 794,-195 650,-195"/>
</a>
</g>
</g>
<!-- Node6&#45;&gt;Node1 -->
<g id="edge5_Node000001_Node000006" class="edge">
<title>Node6&#45;&gt;Node1</title>
<g id="a_edge5_Node000001_Node000006"><a xlink:title=" ">
<path fill="none" stroke="#63b8ff" d="M693.38,-194.94C679.42,-175.21 661.27,-153.06 641,-137 598.35,-103.19 541.81,-81 494.11,-66.99"/>
<polygon fill="none" stroke="#63b8ff" points="494.05,-66.98 487.18,-69.18 482.5,-63.7 489.37,-61.49 494.05,-66.98"/>
</a>
</g>
<text text-anchor="middle" x="645" y="-111" font-family="Helvetica,sans-Serif" font-size="10.00" fill="grey"> +text_config</text>
</g>
</g>
</svg>
