<?xml version="1.0" encoding="UTF-8" standalone="no"?>
<!DOCTYPE svg PUBLIC "-//W3C//DTD SVG 1.1//EN"
 "http://www.w3.org/Graphics/SVG/1.1/DTD/svg11.dtd">
<!-- Generated by graphviz version 2.43.0 (0)
 -->
<!-- Title: MayaFlux::IO::ImageData::data Pages: 1 -->
<svg width="817pt" height="182pt"
 viewBox="0.00 0.00 817.00 182.00" xmlns="http://www.w3.org/2000/svg" xmlns:xlink="http://www.w3.org/1999/xlink">
<g id="graph0" class="graph" transform="scale(1 1) rotate(0) translate(4 178)">
<title>MayaFlux::IO::ImageData::data</title>
<!-- Node1 -->
<g id="Node000001" class="node">
<title>Node1</title>
<g id="a_Node000001"><a xlink:title="Raw data pointer, dispatched on variant.">
<polygon fill="#999999" stroke="#666666" points="809,-126 668,-126 668,-96 809,-96 809,-126"/>
<text text-anchor="start" x="676" y="-114" font-family="Helvetica,sans-Serif" font-size="10.00">MayaFlux::IO::ImageData</text>
<text text-anchor="middle" x="738.5" y="-103" font-family="Helvetica,sans-Serif" font-size="10.00">::data</text>
</a>
</g>
</g>
<!-- Node2 -->
<g id="Node000002" class="node">
<title>Node2</title>
<g id="a_Node000002"><a xlink:href="namespaceMayaFlux_1_1IO_ae74e134903752924b1f4a6bda9732de8.html#ae74e134903752924b1f4a6bda9732de8" target="_top" xlink:title="Download pixel data from a GPU&#45;resident VKImage into host ImageData.">
<polygon fill="white" stroke="#666666" points="632,-126 498,-126 498,-96 632,-96 632,-126"/>
<text text-anchor="start" x="506" y="-114" font-family="Helvetica,sans-Serif" font-size="10.00">MayaFlux::IO::download</text>
<text text-anchor="middle" x="565" y="-103" font-family="Helvetica,sans-Serif" font-size="10.00">_image</text>
</a>
</g>
</g>
<!-- Node1&#45;&gt;Node2 -->
<g id="edge1_Node000001_Node000002" class="edge">
<title>Node1&#45;&gt;Node2</title>
<g id="a_edge1_Node000001_Node000002"><a xlink:title=" ">
<path fill="none" stroke="#63b8ff" d="M657.73,-111C649.15,-111 640.49,-111 632.09,-111"/>
<polygon fill="#63b8ff" stroke="#63b8ff" points="657.74,-114.5 667.74,-111 657.74,-107.5 657.74,-114.5"/>
</a>
</g>
</g>
<!-- Node3 -->
<g id="Node000003" class="node">
<title>Node3</title>
<g id="a_Node000003"><a xlink:href="namespaceMayaFlux_1_1IO_ab11998b0795fbdc7768a1e58037281cf.html#ab11998b0795fbdc7768a1e58037281cf" target="_top" xlink:title="Download a TextureBuffer&#39;s GPU texture into host ImageData.">
<polygon fill="white" stroke="#666666" points="459,-174 325,-174 325,-144 459,-144 459,-174"/>
<text text-anchor="start" x="333" y="-162" font-family="Helvetica,sans-Serif" font-size="10.00">MayaFlux::IO::download</text>
<text text-anchor="middle" x="392" y="-151" font-family="Helvetica,sans-Serif" font-size="10.00">_texture_buffer</text>
</a>
</g>
</g>
<!-- Node2&#45;&gt;Node3 -->
<g id="edge2_Node000002_Node000003" class="edge">
<title>Node2&#45;&gt;Node3</title>
<g id="a_edge2_Node000002_Node000003"><a xlink:title=" ">
<path fill="none" stroke="#63b8ff" d="M500.63,-128.79C482.81,-133.79 463.62,-139.18 446.45,-144"/>
<polygon fill="#63b8ff" stroke="#63b8ff" points="501.68,-132.13 510.36,-126.06 499.79,-125.39 501.68,-132.13"/>
</a>
</g>
</g>
<!-- Node4 -->
<g id="Node000004" class="node">
<title>Node4</title>
<g id="a_Node000004"><a xlink:href="namespaceMayaFlux_1_1IO_a4f12c1b729a3d84c98e799a6af07ab19.html#a4f12c1b729a3d84c98e799a6af07ab19" target="_top" xlink:title="Save a VKImage directly to disk via the ImageWriter registry.">
<polygon fill="white" stroke="#666666" points="447,-126 337,-126 337,-96 447,-96 447,-126"/>
<text text-anchor="start" x="345" y="-114" font-family="Helvetica,sans-Serif" font-size="10.00">MayaFlux::IO::save</text>
<text text-anchor="middle" x="392" y="-103" font-family="Helvetica,sans-Serif" font-size="10.00">_image</text>
</a>
</g>
</g>
<!-- Node2&#45;&gt;Node4 -->
<g id="edge3_Node000002_Node000004" class="edge">
<title>Node2&#45;&gt;Node4</title>
<g id="a_edge3_Node000002_Node000004"><a xlink:title=" ">
<path fill="none" stroke="#63b8ff" d="M487.53,-111C473.87,-111 459.91,-111 447.04,-111"/>
<polygon fill="#63b8ff" stroke="#63b8ff" points="487.89,-114.5 497.89,-111 487.89,-107.5 487.89,-114.5"/>
</a>
</g>
</g>
<!-- Node7 -->
<g id="Node000007" class="node">
<title>Node7</title>
<g id="a_Node000007"><a xlink:href="classMayaFlux_1_1IO_1_1IOManager_a20c6d4610f26db8604c8d2252a02c3a2.html#a20c6d4610f26db8604c8d2252a02c3a2" target="_top" xlink:title="Save image data to disk asynchronously.">
<polygon fill="white" stroke="#666666" points="462,-78 322,-78 322,-48 462,-48 462,-78"/>
<text text-anchor="start" x="330" y="-66" font-family="Helvetica,sans-Serif" font-size="10.00">MayaFlux::IO::IOManager</text>
<text text-anchor="middle" x="392" y="-55" font-family="Helvetica,sans-Serif" font-size="10.00">::save_image</text>
</a>
</g>
</g>
<!-- Node2&#45;&gt;Node7 -->
<g id="edge6_Node000002_Node000007" class="edge">
<title>Node2&#45;&gt;Node7</title>
<g id="a_edge6_Node000002_Node000007"><a xlink:title=" ">
<path fill="none" stroke="#63b8ff" d="M500.63,-93.21C482.81,-88.21 463.62,-82.82 446.45,-78"/>
<polygon fill="#63b8ff" stroke="#63b8ff" points="499.79,-96.61 510.36,-95.94 501.68,-89.87 499.79,-96.61"/>
</a>
</g>
</g>
<!-- Node5 -->
<g id="Node000005" class="node">
<title>Node5</title>
<g id="a_Node000005"><a xlink:href="namespaceMayaFlux_1_1IO_a03a3f24fff1c3b2fc670ee5539f5ca80.html#a03a3f24fff1c3b2fc670ee5539f5ca80" target="_top" xlink:title="Save a TextureBuffer&#39;s current GPU state to disk.">
<polygon fill="white" stroke="#666666" points="271,-126 161,-126 161,-96 271,-96 271,-126"/>
<text text-anchor="start" x="169" y="-114" font-family="Helvetica,sans-Serif" font-size="10.00">MayaFlux::IO::save</text>
<text text-anchor="middle" x="216" y="-103" font-family="Helvetica,sans-Serif" font-size="10.00">_texture_buffer</text>
</a>
</g>
</g>
<!-- Node4&#45;&gt;Node5 -->
<g id="edge4_Node000004_Node000005" class="edge">
<title>Node4&#45;&gt;Node5</title>
<g id="a_edge4_Node000004_Node000005"><a xlink:title=" ">
<path fill="none" stroke="#63b8ff" d="M326.88,-111C308.54,-111 288.74,-111 271.07,-111"/>
<polygon fill="#63b8ff" stroke="#63b8ff" points="326.9,-114.5 336.9,-111 326.9,-107.5 326.9,-114.5"/>
</a>
</g>
</g>
<!-- Node6 -->
<g id="Node000006" class="node">
<title>Node6</title>
<g id="a_Node000006"><a xlink:href="namespaceMayaFlux_1_1IO_a80678771111a87cd4dadffc367b550d7.html#a80678771111a87cd4dadffc367b550d7" target="_top" xlink:title="Save a TextBuffer&#39;s rendered glyph texture to disk.">
<polygon fill="white" stroke="#666666" points="110,-126 0,-126 0,-96 110,-96 110,-126"/>
<text text-anchor="start" x="8" y="-114" font-family="Helvetica,sans-Serif" font-size="10.00">MayaFlux::IO::save</text>
<text text-anchor="middle" x="55" y="-103" font-family="Helvetica,sans-Serif" font-size="10.00">_text_buffer</text>
</a>
</g>
</g>
<!-- Node5&#45;&gt;Node6 -->
<g id="edge5_Node000005_Node000006" class="edge">
<title>Node5&#45;&gt;Node6</title>
<g id="a_edge5_Node000005_Node000006"><a xlink:title=" ">
<path fill="none" stroke="#63b8ff" d="M150.58,-111C137.12,-111 123.06,-111 110.03,-111"/>
<polygon fill="#63b8ff" stroke="#63b8ff" points="150.73,-114.5 160.73,-111 150.73,-107.5 150.73,-114.5"/>
</a>
</g>
</g>
<!-- Node8 -->
<g id="Node000008" class="node">
<title>Node8</title>
<g id="a_Node000008"><a xlink:href="classMayaFlux_1_1IO_1_1IOManager_ac91dd7d537b2c0090b05d8bd5b74847e.html#ac91dd7d537b2c0090b05d8bd5b74847e" target="_top" xlink:title=" ">
<polygon fill="white" stroke="#666666" points="286,-78 146,-78 146,-48 286,-48 286,-78"/>
<text text-anchor="start" x="154" y="-66" font-family="Helvetica,sans-Serif" font-size="10.00">MayaFlux::IO::IOManager</text>
<text text-anchor="middle" x="216" y="-55" font-family="Helvetica,sans-Serif" font-size="10.00">::save_image</text>
</a>
</g>
</g>
<!-- Node7&#45;&gt;Node8 -->
<g id="edge7_Node000007_Node000008" class="edge">
<title>Node7&#45;&gt;Node8</title>
<g id="a_edge7_Node000007_Node000008"><a xlink:title=" ">
<path fill="none" stroke="#63b8ff" d="M311.97,-63C303.38,-63 294.68,-63 286.22,-63"/>
<polygon fill="#63b8ff" stroke="#63b8ff" points="311.98,-66.5 321.98,-63 311.98,-59.5 311.98,-66.5"/>
</a>
</g>
</g>
<!-- Node9 -->
<g id="Node000009" class="node">
<title>Node9</title>
<g id="a_Node000009"><a xlink:href="classMayaFlux_1_1IO_1_1IOManager_abc5b4f20992fe093fcf290e073a12895.html#abc5b4f20992fe093fcf290e073a12895" target="_top" xlink:title=" ">
<polygon fill="white" stroke="#666666" points="286,-30 146,-30 146,0 286,0 286,-30"/>
<text text-anchor="start" x="154" y="-18" font-family="Helvetica,sans-Serif" font-size="10.00">MayaFlux::IO::IOManager</text>
<text text-anchor="middle" x="216" y="-7" font-family="Helvetica,sans-Serif" font-size="10.00">::save_image</text>
</a>
</g>
</g>
<!-- Node7&#45;&gt;Node9 -->
<g id="edge8_Node000007_Node000009" class="edge">
<title>Node7&#45;&gt;Node9</title>
<g id="a_edge8_Node000007_Node000009"><a xlink:title=" ">
<path fill="none" stroke="#63b8ff" d="M326.77,-45.28C308.57,-40.26 288.94,-34.85 271.38,-30"/>
<polygon fill="#63b8ff" stroke="#63b8ff" points="325.85,-48.66 336.42,-47.94 327.71,-41.91 325.85,-48.66"/>
</a>
</g>
</g>
</g>
</svg>
