<?xml version="1.0" encoding="UTF-8" standalone="no"?>
<!DOCTYPE svg PUBLIC "-//W3C//DTD SVG 1.1//EN"
 "http://www.w3.org/Graphics/SVG/1.1/DTD/svg11.dtd">
<!-- Generated by graphviz version 2.43.0 (0)
 -->
<!-- Title: MayaFlux::Vruta::complex_promise Pages: 1 -->
<svg width="195pt" height="677pt"
 viewBox="0.00 0.00 194.50 677.00" xmlns="http://www.w3.org/2000/svg" xmlns:xlink="http://www.w3.org/1999/xlink">
<g id="graph0" class="graph" transform="scale(1 1) rotate(0) translate(4 673)">
<title>MayaFlux::Vruta::complex_promise</title>
<!-- Node1 -->
<g id="Node000001" class="node">
<title>Node1</title>
<g id="a_Node000001"><a xlink:title="Coroutine promise type for complex processing tasks with multi&#45;rate scheduling.">
<polygon fill="#999999" stroke="transparent" points="149,-105 10,-105 10,0 149,0 149,-105"/>
<text text-anchor="start" x="15.5" y="-92.5" font-family="Helvetica,sans-Serif" font-size="10.00">MayaFlux::Vruta::complex</text>
<text text-anchor="start" x="57" y="-81.5" font-family="Helvetica,sans-Serif" font-size="10.00">_promise</text>
<text text-anchor="start" x="20.5" y="-66.5" font-family="Helvetica,sans-Serif" font-size="10.00">+</text>
<text text-anchor="start" x="39.5" y="-66.5" font-family="Helvetica,sans-Serif" font-size="10.00">next_frame</text>
<text text-anchor="start" x="20.5" y="-51.5" font-family="Helvetica,sans-Serif" font-size="10.00">+</text>
<text text-anchor="start" x="39.5" y="-51.5" font-family="Helvetica,sans-Serif" font-size="10.00">next_sample</text>
<text text-anchor="start" x="20.5" y="-36.5" font-family="Helvetica,sans-Serif" font-size="10.00">+</text>
<text text-anchor="start" x="39.5" y="-36.5" font-family="Helvetica,sans-Serif" font-size="10.00">processing_token</text>
<text text-anchor="start" x="20.5" y="-21.5" font-family="Helvetica,sans-Serif" font-size="10.00">+</text>
<text text-anchor="start" x="39.5" y="-21.5" font-family="Helvetica,sans-Serif" font-size="10.00">sync_to_clock</text>
<text text-anchor="start" x="20.5" y="-6.5" font-family="Helvetica,sans-Serif" font-size="10.00">+</text>
<text text-anchor="start" x="39.5" y="-6.5" font-family="Helvetica,sans-Serif" font-size="10.00">get_return_object()</text>
<polygon fill="#666666" stroke="#666666" points="10.5,-76.5 10.5,-76.5 149.5,-76.5 149.5,-76.5 10.5,-76.5"/>
<polygon fill="#666666" stroke="#666666" points="10.5,-16.5 10.5,-16.5 37.5,-16.5 37.5,-16.5 10.5,-16.5"/>
<polygon fill="#666666" stroke="#666666" points="37.5,-16.5 37.5,-16.5 149.5,-16.5 149.5,-16.5 37.5,-16.5"/>
<polygon fill="none" stroke="#666666" points="10,0 10,-105 149,-105 149,0 10,0"/>
</a>
</g>
</g>
<!-- Node2 -->
<g id="Node000002" class="node">
<title>Node2</title>
<g id="a_Node000002"><a xlink:href="structMayaFlux_1_1Vruta_1_1routine__promise.html" target="_top" xlink:title=" ">
<polygon fill="white" stroke="transparent" points="159,-382 0,-382 0,-142 159,-142 159,-382"/>
<text text-anchor="start" x="5.5" y="-370" font-family="Helvetica,sans-Serif" font-size="10.00">MayaFlux::Vruta::routine</text>
<text text-anchor="start" x="5.5" y="-359" font-family="Helvetica,sans-Serif" font-size="10.00">_promise&lt; ComplexRoutine &gt;</text>
<text text-anchor="start" x="7" y="-344" font-family="Helvetica,sans-Serif" font-size="10.00">+</text>
<text text-anchor="start" x="22.5" y="-344" font-family="Helvetica,sans-Serif" font-size="10.00">auto_resume</text>
<text text-anchor="start" x="7" y="-329" font-family="Helvetica,sans-Serif" font-size="10.00">+</text>
<text text-anchor="start" x="22.5" y="-329" font-family="Helvetica,sans-Serif" font-size="10.00">delay_amount</text>
<text text-anchor="start" x="7" y="-314" font-family="Helvetica,sans-Serif" font-size="10.00">+</text>
<text text-anchor="start" x="22.5" y="-314" font-family="Helvetica,sans-Serif" font-size="10.00">processing_token</text>
<text text-anchor="start" x="7" y="-299" font-family="Helvetica,sans-Serif" font-size="10.00">+</text>
<text text-anchor="start" x="22.5" y="-299" font-family="Helvetica,sans-Serif" font-size="10.00">should_terminate</text>
<text text-anchor="start" x="7" y="-284" font-family="Helvetica,sans-Serif" font-size="10.00">+</text>
<text text-anchor="start" x="22.5" y="-284" font-family="Helvetica,sans-Serif" font-size="10.00">state</text>
<text text-anchor="start" x="7" y="-269" font-family="Helvetica,sans-Serif" font-size="10.00">+</text>
<text text-anchor="start" x="22.5" y="-269" font-family="Helvetica,sans-Serif" font-size="10.00">sync_to_clock</text>
<text text-anchor="start" x="7" y="-254" font-family="Helvetica,sans-Serif" font-size="10.00">+</text>
<text text-anchor="start" x="22.5" y="-254" font-family="Helvetica,sans-Serif" font-size="10.00">domain_mismatch_error()</text>
<text text-anchor="start" x="7" y="-239" font-family="Helvetica,sans-Serif" font-size="10.00">+</text>
<text text-anchor="start" x="22.5" y="-239" font-family="Helvetica,sans-Serif" font-size="10.00">final_suspend()</text>
<text text-anchor="start" x="7" y="-224" font-family="Helvetica,sans-Serif" font-size="10.00">+</text>
<text text-anchor="start" x="22.5" y="-224" font-family="Helvetica,sans-Serif" font-size="10.00">get_return_object()</text>
<text text-anchor="start" x="7" y="-209" font-family="Helvetica,sans-Serif" font-size="10.00">+</text>
<text text-anchor="start" x="22.5" y="-209" font-family="Helvetica,sans-Serif" font-size="10.00">get_state()</text>
<text text-anchor="start" x="7" y="-194" font-family="Helvetica,sans-Serif" font-size="10.00">+</text>
<text text-anchor="start" x="22.5" y="-194" font-family="Helvetica,sans-Serif" font-size="10.00">initial_suspend()</text>
<text text-anchor="start" x="7" y="-179" font-family="Helvetica,sans-Serif" font-size="10.00">+</text>
<text text-anchor="start" x="22.5" y="-179" font-family="Helvetica,sans-Serif" font-size="10.00">return_void()</text>
<text text-anchor="start" x="7" y="-164" font-family="Helvetica,sans-Serif" font-size="10.00">+</text>
<text text-anchor="start" x="22.5" y="-164" font-family="Helvetica,sans-Serif" font-size="10.00">set_state()</text>
<text text-anchor="start" x="7" y="-149" font-family="Helvetica,sans-Serif" font-size="10.00">+</text>
<text text-anchor="start" x="22.5" y="-149" font-family="Helvetica,sans-Serif" font-size="10.00">unhandled_exception()</text>
<polygon fill="#666666" stroke="#666666" points="0.5,-354 0.5,-354 159.5,-354 159.5,-354 0.5,-354"/>
<polygon fill="#666666" stroke="#666666" points="0.5,-264 0.5,-264 20.5,-264 20.5,-264 0.5,-264"/>
<polygon fill="#666666" stroke="#666666" points="20.5,-264 20.5,-264 159.5,-264 159.5,-264 20.5,-264"/>
<polygon fill="none" stroke="#666666" points="0,-142 0,-382 159,-382 159,-142 0,-142"/>
</a>
</g>
</g>
<!-- Node2&#45;&gt;Node1 -->
<g id="edge1_Node000001_Node000002" class="edge">
<title>Node2&#45;&gt;Node1</title>
<g id="a_edge1_Node000001_Node000002"><a xlink:title=" ">
<path fill="none" stroke="#63b8ff" d="M79.5,-131.66C79.5,-122.41 79.5,-113.45 79.5,-105.1"/>
<polygon fill="none" stroke="#63b8ff" points="76,-131.8 79.5,-141.8 83,-131.8 76,-131.8"/>
</a>
</g>
</g>
<!-- Node3 -->
<g id="Node000003" class="node">
<title>Node3</title>
<g id="a_Node000003"><a xlink:href="structMayaFlux_1_1Vruta_1_1routine__promise.html" target="_top" xlink:title="Base coroutine promise type for audio processing tasks.">
<polygon fill="white" stroke="transparent" points="153.5,-669 5.5,-669 5.5,-429 153.5,-429 153.5,-669"/>
<text text-anchor="start" x="15.5" y="-657" font-family="Helvetica,sans-Serif" font-size="10.00">MayaFlux::Vruta::routine</text>
<text text-anchor="start" x="15.5" y="-646" font-family="Helvetica,sans-Serif" font-size="10.00">_promise&lt; RoutineType &gt;</text>
<text text-anchor="start" x="9.5" y="-631" font-family="Helvetica,sans-Serif" font-size="10.00">+</text>
<text text-anchor="start" x="22.5" y="-631" font-family="Helvetica,sans-Serif" font-size="10.00">auto_resume</text>
<text text-anchor="start" x="9.5" y="-616" font-family="Helvetica,sans-Serif" font-size="10.00">+</text>
<text text-anchor="start" x="22.5" y="-616" font-family="Helvetica,sans-Serif" font-size="10.00">delay_amount</text>
<text text-anchor="start" x="9.5" y="-601" font-family="Helvetica,sans-Serif" font-size="10.00">+</text>
<text text-anchor="start" x="22.5" y="-601" font-family="Helvetica,sans-Serif" font-size="10.00">processing_token</text>
<text text-anchor="start" x="9.5" y="-586" font-family="Helvetica,sans-Serif" font-size="10.00">+</text>
<text text-anchor="start" x="22.5" y="-586" font-family="Helvetica,sans-Serif" font-size="10.00">should_terminate</text>
<text text-anchor="start" x="9.5" y="-571" font-family="Helvetica,sans-Serif" font-size="10.00">+</text>
<text text-anchor="start" x="22.5" y="-571" font-family="Helvetica,sans-Serif" font-size="10.00">state</text>
<text text-anchor="start" x="9.5" y="-556" font-family="Helvetica,sans-Serif" font-size="10.00">+</text>
<text text-anchor="start" x="22.5" y="-556" font-family="Helvetica,sans-Serif" font-size="10.00">sync_to_clock</text>
<text text-anchor="start" x="9.5" y="-541" font-family="Helvetica,sans-Serif" font-size="10.00">+</text>
<text text-anchor="start" x="22.5" y="-541" font-family="Helvetica,sans-Serif" font-size="10.00">domain_mismatch_error()</text>
<text text-anchor="start" x="9.5" y="-526" font-family="Helvetica,sans-Serif" font-size="10.00">+</text>
<text text-anchor="start" x="22.5" y="-526" font-family="Helvetica,sans-Serif" font-size="10.00">final_suspend()</text>
<text text-anchor="start" x="9.5" y="-511" font-family="Helvetica,sans-Serif" font-size="10.00">+</text>
<text text-anchor="start" x="22.5" y="-511" font-family="Helvetica,sans-Serif" font-size="10.00">get_return_object()</text>
<text text-anchor="start" x="9.5" y="-496" font-family="Helvetica,sans-Serif" font-size="10.00">+</text>
<text text-anchor="start" x="22.5" y="-496" font-family="Helvetica,sans-Serif" font-size="10.00">get_state()</text>
<text text-anchor="start" x="9.5" y="-481" font-family="Helvetica,sans-Serif" font-size="10.00">+</text>
<text text-anchor="start" x="22.5" y="-481" font-family="Helvetica,sans-Serif" font-size="10.00">initial_suspend()</text>
<text text-anchor="start" x="9.5" y="-466" font-family="Helvetica,sans-Serif" font-size="10.00">+</text>
<text text-anchor="start" x="22.5" y="-466" font-family="Helvetica,sans-Serif" font-size="10.00">return_void()</text>
<text text-anchor="start" x="9.5" y="-451" font-family="Helvetica,sans-Serif" font-size="10.00">+</text>
<text text-anchor="start" x="22.5" y="-451" font-family="Helvetica,sans-Serif" font-size="10.00">set_state()</text>
<text text-anchor="start" x="9.5" y="-436" font-family="Helvetica,sans-Serif" font-size="10.00">+</text>
<text text-anchor="start" x="22.5" y="-436" font-family="Helvetica,sans-Serif" font-size="10.00">unhandled_exception()</text>
<polygon fill="#666666" stroke="#666666" points="5.5,-641 5.5,-641 153.5,-641 153.5,-641 5.5,-641"/>
<polygon fill="#666666" stroke="#666666" points="5.5,-551 5.5,-551 20.5,-551 20.5,-551 5.5,-551"/>
<polygon fill="#666666" stroke="#666666" points="20.5,-551 20.5,-551 153.5,-551 153.5,-551 20.5,-551"/>
<polygon fill="none" stroke="#666666" points="5.5,-429 5.5,-669 153.5,-669 153.5,-429 5.5,-429"/>
</a>
</g>
</g>
<!-- Node3&#45;&gt;Node2 -->
<g id="edge2_Node000002_Node000003" class="edge">
<title>Node3&#45;&gt;Node2</title>
<g id="a_edge2_Node000002_Node000003"><a xlink:title=" ">
<path fill="none" stroke="orange" d="M79.5,-418.63C79.5,-406.49 79.5,-394.23 79.5,-382.19"/>
<polygon fill="orange" stroke="orange" points="76,-418.79 79.5,-428.79 83,-418.79 76,-418.79"/>
</a>
</g>
<text text-anchor="middle" x="133" y="-403" font-family="Helvetica,sans-Serif" font-size="10.00" fill="grey"> &lt; ComplexRoutine &gt;</text>
</g>
</g>
</svg>
