<?xml version="1.0" encoding="UTF-8" standalone="no"?>
<!DOCTYPE svg PUBLIC "-//W3C//DTD SVG 1.1//EN"
 "http://www.w3.org/Graphics/SVG/1.1/DTD/svg11.dtd">
<!-- Generated by graphviz version 2.43.0 (0)
 -->
<!-- Title: MayaFlux::Buffers::RootGraphicsUnit::get_buffer Pages: 1 -->
<svg width="832pt" height="346pt"
 viewBox="0.00 0.00 832.00 346.00" xmlns="http://www.w3.org/2000/svg" xmlns:xlink="http://www.w3.org/1999/xlink">
<g id="graph0" class="graph" transform="scale(1 1) rotate(0) translate(4 342)">
<title>MayaFlux::Buffers::RootGraphicsUnit::get_buffer</title>
<!-- Node1 -->
<g id="Node000001" class="node">
<title>Node1</title>
<g id="a_Node000001"><a xlink:title=" ">
<polygon fill="#999999" stroke="#666666" points="824,-178 700,-178 700,-137 824,-137 824,-178"/>
<text text-anchor="start" x="708" y="-166" font-family="Helvetica,sans-Serif" font-size="10.00">MayaFlux::Buffers::</text>
<text text-anchor="start" x="708" y="-155" font-family="Helvetica,sans-Serif" font-size="10.00">RootGraphicsUnit::get</text>
<text text-anchor="middle" x="762" y="-144" font-family="Helvetica,sans-Serif" font-size="10.00">_buffer</text>
</a>
</g>
</g>
<!-- Node2 -->
<g id="Node000002" class="node">
<title>Node2</title>
<g id="a_Node000002"><a xlink:href="classMayaFlux_1_1Buffers_1_1BufferAccessControl_a692ad57a01be809a544280fd027cc8fe.html#a692ad57a01be809a544280fd027cc8fe" target="_top" xlink:title="Gets all graphics buffers for a token.">
<polygon fill="white" stroke="#666666" points="654.5,-338 530.5,-338 530.5,-297 654.5,-297 654.5,-338"/>
<text text-anchor="start" x="538.5" y="-326" font-family="Helvetica,sans-Serif" font-size="10.00">MayaFlux::Buffers::</text>
<text text-anchor="start" x="538.5" y="-315" font-family="Helvetica,sans-Serif" font-size="10.00">BufferAccessControl</text>
<text text-anchor="middle" x="592.5" y="-304" font-family="Helvetica,sans-Serif" font-size="10.00">::get_graphics_buffers</text>
</a>
</g>
</g>
<!-- Node1&#45;&gt;Node2 -->
<g id="edge1_Node000001_Node000002" class="edge">
<title>Node1&#45;&gt;Node2</title>
<g id="a_edge1_Node000001_Node000002"><a xlink:title=" ">
<path fill="none" stroke="#63b8ff" d="M745.16,-187.04C728.36,-216 699.36,-259.71 664,-287.5 659.61,-290.95 654.76,-294.08 649.72,-296.89"/>
<polygon fill="#63b8ff" stroke="#63b8ff" points="748.29,-188.62 750.19,-178.2 742.2,-185.17 748.29,-188.62"/>
</a>
</g>
</g>
<!-- Node3 -->
<g id="Node000003" class="node">
<title>Node3</title>
<g id="a_Node000003"><a xlink:href="classMayaFlux_1_1Buffers_1_1BufferAccessControl_ae128c7103cff89ef5f7a7786d73f367b.html#ae128c7103cff89ef5f7a7786d73f367b" target="_top" xlink:title="Gets graphics buffers filtered by usage type.">
<polygon fill="white" stroke="#666666" points="654.5,-278.5 530.5,-278.5 530.5,-226.5 654.5,-226.5 654.5,-278.5"/>
<text text-anchor="start" x="538.5" y="-266.5" font-family="Helvetica,sans-Serif" font-size="10.00">MayaFlux::Buffers::</text>
<text text-anchor="start" x="538.5" y="-255.5" font-family="Helvetica,sans-Serif" font-size="10.00">BufferAccessControl</text>
<text text-anchor="start" x="538.5" y="-244.5" font-family="Helvetica,sans-Serif" font-size="10.00">::get_graphics_buffers</text>
<text text-anchor="middle" x="592.5" y="-233.5" font-family="Helvetica,sans-Serif" font-size="10.00">_by_usage</text>
</a>
</g>
</g>
<!-- Node1&#45;&gt;Node3 -->
<g id="edge2_Node000001_Node000003" class="edge">
<title>Node1&#45;&gt;Node3</title>
<g id="a_edge2_Node000001_Node000003"><a xlink:title=" ">
<path fill="none" stroke="#63b8ff" d="M720.44,-183.76C703.25,-194.58 682.86,-207.01 664,-217.5 658.63,-220.49 652.96,-223.51 647.28,-226.45"/>
<polygon fill="#63b8ff" stroke="#63b8ff" points="722.54,-186.57 729.11,-178.26 718.79,-180.66 722.54,-186.57"/>
</a>
</g>
</g>
<!-- Node4 -->
<g id="Node000004" class="node">
<title>Node4</title>
<g id="a_Node000004"><a xlink:href="classMayaFlux_1_1Buffers_1_1BufferAccessControl_a05849650a288b80ac2ec1ededb98a57e.html#a05849650a288b80ac2ec1ededb98a57e" target="_top" xlink:title="Gets the root graphics buffer for a specific token.">
<polygon fill="white" stroke="#666666" points="664,-208 521,-208 521,-167 664,-167 664,-208"/>
<text text-anchor="start" x="529" y="-196" font-family="Helvetica,sans-Serif" font-size="10.00">MayaFlux::Buffers::</text>
<text text-anchor="start" x="529" y="-185" font-family="Helvetica,sans-Serif" font-size="10.00">BufferAccessControl</text>
<text text-anchor="middle" x="592.5" y="-174" font-family="Helvetica,sans-Serif" font-size="10.00">::get_root_graphics_buffer</text>
</a>
</g>
</g>
<!-- Node1&#45;&gt;Node4 -->
<g id="edge3_Node000001_Node000004" class="edge">
<title>Node1&#45;&gt;Node4</title>
<g id="a_edge3_Node000001_Node000004"><a xlink:title=" ">
<path fill="none" stroke="#63b8ff" d="M689.49,-170.31C681.14,-171.8 672.61,-173.33 664.27,-174.83"/>
<polygon fill="#63b8ff" stroke="#63b8ff" points="690.35,-173.71 699.58,-168.5 689.12,-166.82 690.35,-173.71"/>
</a>
</g>
</g>
<!-- Node12 -->
<g id="Node000012" class="node">
<title>Node12</title>
<g id="a_Node000012"><a xlink:href="classMayaFlux_1_1Buffers_1_1BufferAccessControl_a7943b54359b49de76f6d76e11df8b002.html#a7943b54359b49de76f6d76e11df8b002" target="_top" xlink:title="Gets the root graphics buffer for a specific token (const)">
<polygon fill="white" stroke="#666666" points="664,-149 521,-149 521,-108 664,-108 664,-149"/>
<text text-anchor="start" x="529" y="-137" font-family="Helvetica,sans-Serif" font-size="10.00">MayaFlux::Buffers::</text>
<text text-anchor="start" x="529" y="-126" font-family="Helvetica,sans-Serif" font-size="10.00">BufferAccessControl</text>
<text text-anchor="middle" x="592.5" y="-115" font-family="Helvetica,sans-Serif" font-size="10.00">::get_root_graphics_buffer</text>
</a>
</g>
</g>
<!-- Node1&#45;&gt;Node12 -->
<g id="edge11_Node000001_Node000012" class="edge">
<title>Node1&#45;&gt;Node12</title>
<g id="a_edge11_Node000001_Node000012"><a xlink:title=" ">
<path fill="none" stroke="#63b8ff" d="M689.49,-145.12C681.14,-143.67 672.61,-142.2 664.27,-140.75"/>
<polygon fill="#63b8ff" stroke="#63b8ff" points="689.13,-148.61 699.58,-146.87 690.32,-141.71 689.13,-148.61"/>
</a>
</g>
</g>
<!-- Node13 -->
<g id="Node000013" class="node">
<title>Node13</title>
<g id="a_Node000013"><a xlink:href="classMayaFlux_1_1Buffers_1_1BufferAccessControl_af653b66ca482f1608d848644b5472f27.html#af653b66ca482f1608d848644b5472f27" target="_top" xlink:title="Removes a graphics buffer from a token.">
<polygon fill="white" stroke="#666666" points="662.5,-90 522.5,-90 522.5,-49 662.5,-49 662.5,-90"/>
<text text-anchor="start" x="530.5" y="-78" font-family="Helvetica,sans-Serif" font-size="10.00">MayaFlux::Buffers::</text>
<text text-anchor="start" x="530.5" y="-67" font-family="Helvetica,sans-Serif" font-size="10.00">BufferAccessControl</text>
<text text-anchor="middle" x="592.5" y="-56" font-family="Helvetica,sans-Serif" font-size="10.00">::remove_graphics_buffer</text>
</a>
</g>
</g>
<!-- Node1&#45;&gt;Node13 -->
<g id="edge12_Node000001_Node000013" class="edge">
<title>Node1&#45;&gt;Node13</title>
<g id="a_edge12_Node000001_Node000013"><a xlink:title=" ">
<path fill="none" stroke="#63b8ff" d="M720.23,-131.44C703.16,-120.97 682.91,-109.12 664,-99.5 657.72,-96.3 651.01,-93.14 644.33,-90.14"/>
<polygon fill="#63b8ff" stroke="#63b8ff" points="718.5,-134.48 728.85,-136.77 722.19,-128.53 718.5,-134.48"/>
</a>
</g>
</g>
<!-- Node15 -->
<g id="Node000015" class="node">
<title>Node15</title>
<g id="a_Node000015"><a xlink:href="classMayaFlux_1_1Buffers_1_1BufferAccessControl_a2e16fe266c665dec676dcb31768408a7.html#a2e16fe266c665dec676dcb31768408a7" target="_top" xlink:title="Terminates all active Audio and VK buffers.">
<polygon fill="white" stroke="#666666" points="485,-41 340,-41 340,0 485,0 485,-41"/>
<text text-anchor="start" x="348" y="-29" font-family="Helvetica,sans-Serif" font-size="10.00">MayaFlux::Buffers::</text>
<text text-anchor="start" x="348" y="-18" font-family="Helvetica,sans-Serif" font-size="10.00">BufferAccessControl</text>
<text text-anchor="middle" x="412.5" y="-7" font-family="Helvetica,sans-Serif" font-size="10.00">::terminate_active_buffers</text>
</a>
</g>
</g>
<!-- Node1&#45;&gt;Node15 -->
<g id="edge15_Node000001_Node000015" class="edge">
<title>Node1&#45;&gt;Node15</title>
<g id="a_edge15_Node000001_Node000015"><a xlink:title=" ">
<path fill="none" stroke="#63b8ff" d="M745.9,-127.9C729.78,-99.77 701.42,-58.95 664,-39.5 608.85,-10.84 537.48,-8.2 485.04,-11.49"/>
<polygon fill="#63b8ff" stroke="#63b8ff" points="742.98,-129.86 750.89,-136.91 749.1,-126.46 742.98,-129.86"/>
</a>
</g>
</g>
<!-- Node5 -->
<g id="Node000005" class="node">
<title>Node5</title>
<g id="a_Node000005"><a xlink:href="classMayaFlux_1_1Buffers_1_1BufferProcessingControl_a544d0bf5515b1f31ee7f510ec065632d.html#a544d0bf5515b1f31ee7f510ec065632d" target="_top" xlink:title="Adds a processor to the graphics processing chain.">
<polygon fill="white" stroke="#666666" points="482.5,-208 342.5,-208 342.5,-167 482.5,-167 482.5,-208"/>
<text text-anchor="start" x="350.5" y="-196" font-family="Helvetica,sans-Serif" font-size="10.00">MayaFlux::Buffers::</text>
<text text-anchor="start" x="350.5" y="-185" font-family="Helvetica,sans-Serif" font-size="10.00">BufferProcessingControl</text>
<text text-anchor="middle" x="412.5" y="-174" font-family="Helvetica,sans-Serif" font-size="10.00">::add_graphics_processor</text>
</a>
</g>
</g>
<!-- Node4&#45;&gt;Node5 -->
<g id="edge4_Node000004_Node000005" class="edge">
<title>Node4&#45;&gt;Node5</title>
<g id="a_edge4_Node000004_Node000005"><a xlink:title=" ">
<path fill="none" stroke="#63b8ff" d="M510.75,-187.5C501.34,-187.5 491.8,-187.5 482.57,-187.5"/>
<polygon fill="#63b8ff" stroke="#63b8ff" points="510.89,-191 520.89,-187.5 510.89,-184 510.89,-191"/>
</a>
</g>
</g>
<!-- Node6 -->
<g id="Node000006" class="node">
<title>Node6</title>
<g id="a_Node000006"><a xlink:href="classMayaFlux_1_1Buffers_1_1BufferProcessingControl_a6d09426e3ee987c59f62c5e0edde36a8.html#a6d09426e3ee987c59f62c5e0edde36a8" target="_top" xlink:title="Adds a processor to a buffer (dispatches based on buffer/token)">
<polygon fill="white" stroke="#666666" points="304,-237 170,-237 170,-196 304,-196 304,-237"/>
<text text-anchor="start" x="178" y="-225" font-family="Helvetica,sans-Serif" font-size="10.00">MayaFlux::Buffers::</text>
<text text-anchor="start" x="178" y="-214" font-family="Helvetica,sans-Serif" font-size="10.00">BufferProcessingControl</text>
<text text-anchor="middle" x="237" y="-203" font-family="Helvetica,sans-Serif" font-size="10.00">::add_processor</text>
</a>
</g>
</g>
<!-- Node5&#45;&gt;Node6 -->
<g id="edge5_Node000005_Node000006" class="edge">
<title>Node5&#45;&gt;Node6</title>
<g id="a_edge5_Node000005_Node000006"><a xlink:title=" ">
<path fill="none" stroke="#63b8ff" d="M332.55,-200.7C323.01,-202.29 313.34,-203.91 304.01,-205.47"/>
<polygon fill="#63b8ff" stroke="#63b8ff" points="333.14,-204.15 342.43,-199.04 331.99,-197.24 333.14,-204.15"/>
</a>
</g>
</g>
<!-- Node11 -->
<g id="Node000011" class="node">
<title>Node11</title>
<g id="a_Node000011"><a xlink:href="classMayaFlux_1_1Buffers_1_1BufferProcessingControl_ae54ce8efcb9f6c4901ad29135fd5a43d.html#ae54ce8efcb9f6c4901ad29135fd5a43d" target="_top" xlink:title="Adds a processor to all channels in a token (dispatches based on token)">
<polygon fill="white" stroke="#666666" points="304,-178 170,-178 170,-137 304,-137 304,-178"/>
<text text-anchor="start" x="178" y="-166" font-family="Helvetica,sans-Serif" font-size="10.00">MayaFlux::Buffers::</text>
<text text-anchor="start" x="178" y="-155" font-family="Helvetica,sans-Serif" font-size="10.00">BufferProcessingControl</text>
<text text-anchor="middle" x="237" y="-144" font-family="Helvetica,sans-Serif" font-size="10.00">::add_processor</text>
</a>
</g>
</g>
<!-- Node5&#45;&gt;Node11 -->
<g id="edge10_Node000005_Node000011" class="edge">
<title>Node5&#45;&gt;Node11</title>
<g id="a_edge10_Node000005_Node000011"><a xlink:title=" ">
<path fill="none" stroke="#63b8ff" d="M332.55,-173.85C323.01,-172.2 313.34,-170.53 304.01,-168.91"/>
<polygon fill="#63b8ff" stroke="#63b8ff" points="331.98,-177.3 342.43,-175.56 333.17,-170.4 331.98,-177.3"/>
</a>
</g>
</g>
<!-- Node7 -->
<g id="Node000007" class="node">
<title>Node7</title>
<g id="a_Node000007"><a xlink:href="classMayaFlux_1_1Buffers_1_1BufferProcessingControl_ada45c9d290ffd623e1638e884008a374.html#ada45c9d290ffd623e1638e884008a374" target="_top" xlink:title="Creates and attaches a quick processing function to buffer.">
<polygon fill="white" stroke="#666666" points="134,-326 0,-326 0,-285 134,-285 134,-326"/>
<text text-anchor="start" x="8" y="-314" font-family="Helvetica,sans-Serif" font-size="10.00">MayaFlux::Buffers::</text>
<text text-anchor="start" x="8" y="-303" font-family="Helvetica,sans-Serif" font-size="10.00">BufferProcessingControl</text>
<text text-anchor="middle" x="67" y="-292" font-family="Helvetica,sans-Serif" font-size="10.00">::attach_quick_process</text>
</a>
</g>
</g>
<!-- Node6&#45;&gt;Node7 -->
<g id="edge6_Node000006_Node000007" class="edge">
<title>Node6&#45;&gt;Node7</title>
<g id="a_edge6_Node000006_Node000007"><a xlink:title=" ">
<path fill="none" stroke="#63b8ff" d="M194.37,-242.49C176.12,-253.49 154.28,-266.13 134,-276.5 128.43,-279.35 122.52,-282.19 116.61,-284.92"/>
<polygon fill="#63b8ff" stroke="#63b8ff" points="196.29,-245.42 203.02,-237.24 192.65,-239.43 196.29,-245.42"/>
</a>
</g>
</g>
<!-- Node8 -->
<g id="Node000008" class="node">
<title>Node8</title>
<g id="a_Node000008"><a xlink:href="classMayaFlux_1_1Buffers_1_1BufferProcessingControl_a00b86f8ddb04bc67a72ad46bea8ff906.html#a00b86f8ddb04bc67a72ad46bea8ff906" target="_top" xlink:title="Creates and attaches a quick processing function to all channels in a token.">
<polygon fill="white" stroke="#666666" points="134,-267 0,-267 0,-226 134,-226 134,-267"/>
<text text-anchor="start" x="8" y="-255" font-family="Helvetica,sans-Serif" font-size="10.00">MayaFlux::Buffers::</text>
<text text-anchor="start" x="8" y="-244" font-family="Helvetica,sans-Serif" font-size="10.00">BufferProcessingControl</text>
<text text-anchor="middle" x="67" y="-233" font-family="Helvetica,sans-Serif" font-size="10.00">::attach_quick_process</text>
</a>
</g>
</g>
<!-- Node6&#45;&gt;Node8 -->
<g id="edge7_Node000006_Node000008" class="edge">
<title>Node6&#45;&gt;Node8</title>
<g id="a_edge7_Node000006_Node000008"><a xlink:title=" ">
<path fill="none" stroke="#63b8ff" d="M159.68,-230.13C151.17,-231.65 142.56,-233.19 134.19,-234.68"/>
<polygon fill="#63b8ff" stroke="#63b8ff" points="160.37,-233.56 169.6,-228.36 159.14,-226.67 160.37,-233.56"/>
</a>
</g>
</g>
<!-- Node9 -->
<g id="Node000009" class="node">
<title>Node9</title>
<g id="a_Node000009"><a xlink:href="classMayaFlux_1_1Buffers_1_1BufferProcessingControl_abadcb7fe2588520b107bcaeabdcb8dca.html#abadcb7fe2588520b107bcaeabdcb8dca" target="_top" xlink:title=" ">
<polygon fill="white" stroke="#666666" points="134,-208 0,-208 0,-167 134,-167 134,-208"/>
<text text-anchor="start" x="8" y="-196" font-family="Helvetica,sans-Serif" font-size="10.00">MayaFlux::Buffers::</text>
<text text-anchor="start" x="8" y="-185" font-family="Helvetica,sans-Serif" font-size="10.00">BufferProcessingControl</text>
<text text-anchor="middle" x="67" y="-174" font-family="Helvetica,sans-Serif" font-size="10.00">::attach_quick_process</text>
</a>
</g>
</g>
<!-- Node6&#45;&gt;Node9 -->
<g id="edge8_Node000006_Node000009" class="edge">
<title>Node6&#45;&gt;Node9</title>
<g id="a_edge8_Node000006_Node000009"><a xlink:title=" ">
<path fill="none" stroke="#63b8ff" d="M159.68,-203.33C151.17,-201.86 142.56,-200.37 134.19,-198.93"/>
<polygon fill="#63b8ff" stroke="#63b8ff" points="159.15,-206.79 169.6,-205.04 160.34,-199.89 159.15,-206.79"/>
</a>
</g>
</g>
<!-- Node10 -->
<g id="Node000010" class="node">
<title>Node10</title>
<g id="a_Node000010"><a xlink:href="classMayaFlux_1_1Buffers_1_1BufferProcessingControl_a3d64bcce9d1ca99c48657ef2040f6eb6.html#a3d64bcce9d1ca99c48657ef2040f6eb6" target="_top" xlink:title=" ">
<polygon fill="white" stroke="#666666" points="134,-149 0,-149 0,-108 134,-108 134,-149"/>
<text text-anchor="start" x="8" y="-137" font-family="Helvetica,sans-Serif" font-size="10.00">MayaFlux::Buffers::</text>
<text text-anchor="start" x="8" y="-126" font-family="Helvetica,sans-Serif" font-size="10.00">BufferProcessingControl</text>
<text text-anchor="middle" x="67" y="-115" font-family="Helvetica,sans-Serif" font-size="10.00">::attach_quick_process</text>
</a>
</g>
</g>
<!-- Node6&#45;&gt;Node10 -->
<g id="edge9_Node000006_Node000010" class="edge">
<title>Node6&#45;&gt;Node10</title>
<g id="a_edge9_Node000006_Node000010"><a xlink:title=" ">
<path fill="none" stroke="#63b8ff" d="M176.02,-191C173.97,-189.85 171.96,-188.69 170,-187.5 152.44,-176.83 151.49,-169.28 134,-158.5 128.64,-155.2 122.86,-152.04 117.02,-149.1"/>
<polygon fill="#63b8ff" stroke="#63b8ff" points="174.73,-194.27 185.21,-195.83 177.99,-188.08 174.73,-194.27"/>
</a>
</g>
</g>
<!-- Node14 -->
<g id="Node000014" class="node">
<title>Node14</title>
<g id="a_Node000014"><a xlink:href="classMayaFlux_1_1Buffers_1_1BufferAccessControl_ab81d45e72e1fc78068248a7b5693d40d.html#ab81d45e72e1fc78068248a7b5693d40d" target="_top" xlink:title="Removes a buffer from a token (dispatches based on token type)">
<polygon fill="white" stroke="#666666" points="470,-100 355,-100 355,-59 470,-59 470,-100"/>
<text text-anchor="start" x="363" y="-88" font-family="Helvetica,sans-Serif" font-size="10.00">MayaFlux::Buffers::</text>
<text text-anchor="start" x="363" y="-77" font-family="Helvetica,sans-Serif" font-size="10.00">BufferAccessControl</text>
<text text-anchor="middle" x="412.5" y="-66" font-family="Helvetica,sans-Serif" font-size="10.00">::remove_buffer</text>
</a>
</g>
</g>
<!-- Node13&#45;&gt;Node14 -->
<g id="edge13_Node000013_Node000014" class="edge">
<title>Node13&#45;&gt;Node14</title>
<g id="a_edge13_Node000013_Node000014"><a xlink:title=" ">
<path fill="none" stroke="#63b8ff" d="M512.19,-73.96C498.02,-74.75 483.53,-75.57 470.16,-76.32"/>
<polygon fill="#63b8ff" stroke="#63b8ff" points="512.64,-77.44 522.43,-73.38 512.25,-70.45 512.64,-77.44"/>
</a>
</g>
</g>
<!-- Node13&#45;&gt;Node15 -->
<g id="edge14_Node000013_Node000015" class="edge">
<title>Node13&#45;&gt;Node15</title>
<g id="a_edge14_Node000013_Node000015"><a xlink:title=" ">
<path fill="none" stroke="#63b8ff" d="M512.6,-47.78C503.47,-45.27 494.2,-42.72 485.18,-40.23"/>
<polygon fill="#63b8ff" stroke="#63b8ff" points="511.86,-51.21 522.43,-50.49 513.71,-44.46 511.86,-51.21"/>
</a>
</g>
</g>
</g>
</svg>
