<?xml version="1.0" encoding="UTF-8" standalone="no"?>
<!DOCTYPE svg PUBLIC "-//W3C//DTD SVG 1.1//EN"
 "http://www.w3.org/Graphics/SVG/1.1/DTD/svg11.dtd">
<!-- Generated by graphviz version 2.43.0 (0)
 -->
<!-- Title: MayaFlux::Kakshya::DataDimension::create_dimensions Pages: 1 -->
<!--zoomable 939 -->

<svg id="main" version="1.1" xmlns="http://www.w3.org/2000/svg" xmlns:xlink="http://www.w3.org/1999/xlink" xml:space="preserve" onload="init(evt)">
<style type="text/css"><![CDATA[
.node, .edge {opacity: 0.7;}
.node.selected, .edge.selected {opacity: 1;}
.edge:hover path { stroke: red; }
.edge:hover polygon { stroke: red; fill: red; }
]]></style>

<defs>
  <circle id="rim" cx="0" cy="0" r="7"/>
  <circle id="rim2" cx="0" cy="0" r="3.5"/>
  <g id="zoomPlus">
    <use xlink:href="#rim" fill="#404040"><set attributeName="fill" to="#808080" begin="zoomplus.mouseover" end="zoomplus.mouseout"/></use>
    <path d="M-4,0h8M0,-4v8" fill="none" stroke="white" stroke-width="1.5" pointer-events="none"/>
  </g>
  <g id="zoomMin">
    <use xlink:href="#rim" fill="#404040"><set attributeName="fill" to="#808080" begin="zoomminus.mouseover" end="zoomminus.mouseout"/></use>
    <path d="M-4,0h8" fill="none" stroke="white" stroke-width="1.5" pointer-events="none"/>
  </g>
  <g id="arrowUp" transform="translate(30 24)">
    <use xlink:href="#rim"/>
    <path pointer-events="none" fill="none" stroke="white" stroke-width="1.5" d="M0,-3.0v7 M-2.5,-0.5L0,-3.0L2.5,-0.5"/>
  </g>
  <g id="arrowRight" transform="rotate(90) translate(36 -43)">
    <use xlink:href="#rim"/>
    <path pointer-events="none" fill="none" stroke="white" stroke-width="1.5" d="M0,-3.0v7 M-2.5,-0.5L0,-3.0L2.5,-0.5"/>
  </g>
  <g id="arrowDown" transform="rotate(180) translate(-30 -48)">
    <use xlink:href="#rim"/>
    <path pointer-events="none" fill="none" stroke="white" stroke-width="1.5" d="M0,-3.0v7 M-2.5,-0.5L0,-3.0L2.5,-0.5"/>
  </g>
  <g id="arrowLeft" transform="rotate(270) translate(-36 17)">
    <use xlink:href="#rim"/>
    <path pointer-events="none" fill="none" stroke="white" stroke-width="1.5" d="M0,-3.0v7 M-2.5,-0.5L0,-3.0L2.5,-0.5"/>
  </g>
  <g id="resetDef">
    <use xlink:href="#rim2" fill="#404040"><set attributeName="fill" to="#808080" begin="reset.mouseover" end="reset.mouseout"/></use>
  </g>
</defs>
<script type="application/ecmascript">
var viewWidth = 874;
var viewHeight = 939;
var sectionId = 'dynsection-1';
</script>
<script type="application/ecmascript" xlink:href="svg.min.js"/>
<svg id="graph" class="graph">
<g id="viewport">
<title>MayaFlux::Kakshya::DataDimension::create_dimensions</title>
<!-- Node1 -->
<g id="Node000001" class="node">
<title>Node1</title>
<g id="a_Node000001"><a xlink:title="Create dimension descriptors for a data modality.">
<polygon fill="#999999" stroke="#666666" points="866,-580.5 737,-580.5 737,-539.5 866,-539.5 866,-580.5"/>
<text text-anchor="start" x="745" y="-568.5" font-family="Helvetica,sans-Serif" font-size="10.00">MayaFlux::Kakshya::</text>
<text text-anchor="start" x="745" y="-557.5" font-family="Helvetica,sans-Serif" font-size="10.00">DataDimension::create</text>
<text text-anchor="middle" x="801.5" y="-546.5" font-family="Helvetica,sans-Serif" font-size="10.00">_dimensions</text>
</a>
</g>
</g>
<!-- Node2 -->
<g id="Node000002" class="node">
<title>Node2</title>
<g id="a_Node000002"><a xlink:href="namespaceMayaFlux_1_1Yantra_ab40b463e00cbdbf34a526725f04b2f78.html#ab40b463e00cbdbf34a526725f04b2f78" target="_top" xlink:title="Infer structure from Region (placeholder since regions are markers)">
<polygon fill="white" stroke="#666666" points="697.5,-856 568.5,-856 568.5,-826 697.5,-826 697.5,-856"/>
<text text-anchor="start" x="576.5" y="-844" font-family="Helvetica,sans-Serif" font-size="10.00">MayaFlux::Yantra::infer</text>
<text text-anchor="middle" x="633" y="-833" font-family="Helvetica,sans-Serif" font-size="10.00">_from_region</text>
</a>
</g>
</g>
<!-- Node1&#45;&gt;Node2 -->
<g id="edge1_Node000001_Node000002" class="edge">
<title>Node1&#45;&gt;Node2</title>
<g id="a_edge1_Node000001_Node000002"><a xlink:title=" ">
<path fill="none" stroke="#63b8ff" d="M783,-589.54C747.83,-648.89 669.7,-780.75 643.08,-825.67"/>
<polygon fill="#63b8ff" stroke="#63b8ff" points="786.17,-591.05 788.26,-580.66 780.15,-587.48 786.17,-591.05"/>
</a>
</g>
</g>
<!-- Node3 -->
<g id="Node000003" class="node">
<title>Node3</title>
<g id="a_Node000003"><a xlink:href="namespaceMayaFlux_1_1Yantra_ad02f0b5a9c8eab6145265e09b8708cb3.html#ad02f0b5a9c8eab6145265e09b8708cb3" target="_top" xlink:title="Infer structure from RegionGroup.">
<polygon fill="white" stroke="#666666" points="496,-931 367,-931 367,-901 496,-901 496,-931"/>
<text text-anchor="start" x="375" y="-919" font-family="Helvetica,sans-Serif" font-size="10.00">MayaFlux::Yantra::infer</text>
<text text-anchor="middle" x="431.5" y="-908" font-family="Helvetica,sans-Serif" font-size="10.00">_from_region_group</text>
</a>
</g>
</g>
<!-- Node1&#45;&gt;Node3 -->
<g id="edge7_Node000001_Node000003" class="edge">
<title>Node1&#45;&gt;Node3</title>
<g id="a_edge7_Node000001_Node000003"><a xlink:title=" ">
<path fill="none" stroke="#63b8ff" d="M800.14,-591.21C797.63,-653.45 782.66,-793.15 701,-865 644.9,-914.36 556.19,-922.29 496.24,-921.08"/>
<polygon fill="#63b8ff" stroke="#63b8ff" points="803.65,-590.98 800.47,-580.87 796.66,-590.76 803.65,-590.98"/>
</a>
</g>
</g>
<!-- Node6 -->
<g id="Node000006" class="node">
<title>Node6</title>
<g id="a_Node000006"><a xlink:href="classMayaFlux_1_1Kakshya_1_1SoundStreamContainer_a46cf2a36bf81975f79bc304b56edc004.html#a46cf2a36bf81975f79bc304b56edc004" target="_top" xlink:title=" ">
<polygon fill="white" stroke="#666666" points="697.5,-580.5 568.5,-580.5 568.5,-539.5 697.5,-539.5 697.5,-580.5"/>
<text text-anchor="start" x="576.5" y="-568.5" font-family="Helvetica,sans-Serif" font-size="10.00">MayaFlux::Kakshya::</text>
<text text-anchor="start" x="576.5" y="-557.5" font-family="Helvetica,sans-Serif" font-size="10.00">SoundStreamContainer</text>
<text text-anchor="middle" x="633" y="-546.5" font-family="Helvetica,sans-Serif" font-size="10.00">::setup_dimensions</text>
</a>
</g>
</g>
<!-- Node1&#45;&gt;Node6 -->
<g id="edge8_Node000001_Node000006" class="edge">
<title>Node1&#45;&gt;Node6</title>
<g id="a_edge8_Node000001_Node000006"><a xlink:title=" ">
<path fill="none" stroke="#63b8ff" d="M726.33,-560C716.79,-560 707.08,-560 697.73,-560"/>
<polygon fill="#63b8ff" stroke="#63b8ff" points="726.6,-563.5 736.6,-560 726.6,-556.5 726.6,-563.5"/>
</a>
</g>
</g>
<!-- Node18 -->
<g id="Node000018" class="node">
<title>Node18</title>
<g id="a_Node000018"><a xlink:href="classMayaFlux_1_1Kakshya_1_1VideoStreamContainer_af22e8498c72c1244df13b9c0ea14a682.html#af22e8498c72c1244df13b9c0ea14a682" target="_top" xlink:title=" ">
<polygon fill="white" stroke="#666666" points="696.5,-266.5 569.5,-266.5 569.5,-225.5 696.5,-225.5 696.5,-266.5"/>
<text text-anchor="start" x="577.5" y="-254.5" font-family="Helvetica,sans-Serif" font-size="10.00">MayaFlux::Kakshya::</text>
<text text-anchor="start" x="577.5" y="-243.5" font-family="Helvetica,sans-Serif" font-size="10.00">VideoStreamContainer</text>
<text text-anchor="middle" x="633" y="-232.5" font-family="Helvetica,sans-Serif" font-size="10.00">::setup_dimensions</text>
</a>
</g>
</g>
<!-- Node1&#45;&gt;Node18 -->
<g id="edge23_Node000001_Node000018" class="edge">
<title>Node1&#45;&gt;Node18</title>
<g id="a_edge23_Node000001_Node000018"><a xlink:title=" ">
<path fill="none" stroke="#63b8ff" d="M784.78,-530.36C751.31,-467.23 673.71,-320.88 644.96,-266.68"/>
<polygon fill="#63b8ff" stroke="#63b8ff" points="781.8,-532.2 789.58,-539.4 787.98,-528.92 781.8,-532.2"/>
</a>
</g>
</g>
<!-- Node23 -->
<g id="Node000023" class="node">
<title>Node23</title>
<g id="a_Node000023"><a xlink:href="classMayaFlux_1_1Kakshya_1_1WindowContainer_a4f3732dbd3029c2933d6d2f2b3efde3f.html#a4f3732dbd3029c2933d6d2f2b3efde3f" target="_top" xlink:title=" ">
<polygon fill="white" stroke="#666666" points="701,-89.5 565,-89.5 565,-48.5 701,-48.5 701,-89.5"/>
<text text-anchor="start" x="573" y="-77.5" font-family="Helvetica,sans-Serif" font-size="10.00">MayaFlux::Kakshya::</text>
<text text-anchor="start" x="573" y="-66.5" font-family="Helvetica,sans-Serif" font-size="10.00">WindowContainer::setup</text>
<text text-anchor="middle" x="633" y="-55.5" font-family="Helvetica,sans-Serif" font-size="10.00">_dimensions</text>
</a>
</g>
</g>
<!-- Node1&#45;&gt;Node23 -->
<g id="edge28_Node000001_Node000023" class="edge">
<title>Node1&#45;&gt;Node23</title>
<g id="a_edge28_Node000001_Node000023"><a xlink:title=" ">
<path fill="none" stroke="#63b8ff" d="M793.12,-529.11C778.27,-468.44 742.64,-329.76 701,-217 683.81,-170.43 658.59,-117.94 644.5,-89.68"/>
<polygon fill="#63b8ff" stroke="#63b8ff" points="789.8,-530.29 795.56,-539.18 796.6,-528.63 789.8,-530.29"/>
</a>
</g>
</g>
<!-- Node2&#45;&gt;Node3 -->
<g id="edge2_Node000002_Node000003" class="edge">
<title>Node2&#45;&gt;Node3</title>
<g id="a_edge2_Node000002_Node000003"><a xlink:title=" ">
<path fill="none" stroke="#63b8ff" d="M591.71,-860.43C572.89,-869.14 550.04,-879.18 529,-887 515.55,-892 500.82,-896.77 487.01,-900.95"/>
<polygon fill="#63b8ff" stroke="#63b8ff" points="593.3,-863.55 600.88,-856.15 590.34,-857.21 593.3,-863.55"/>
</a>
</g>
</g>
<!-- Node4 -->
<g id="Node000004" class="node">
<title>Node4</title>
<g id="a_Node000004"><a xlink:href="namespaceMayaFlux_1_1Yantra_ae05845067871689b0b43d88e2b97b4f2.html#ae05845067871689b0b43d88e2b97b4f2" target="_top" xlink:title="Infer dimensions and modality from any ComputeData type.">
<polygon fill="white" stroke="#666666" points="297,-888 168,-888 168,-858 297,-858 297,-888"/>
<text text-anchor="start" x="176" y="-876" font-family="Helvetica,sans-Serif" font-size="10.00">MayaFlux::Yantra::infer</text>
<text text-anchor="middle" x="232.5" y="-865" font-family="Helvetica,sans-Serif" font-size="10.00">_structure</text>
</a>
</g>
</g>
<!-- Node2&#45;&gt;Node4 -->
<g id="edge6_Node000002_Node000004" class="edge">
<title>Node2&#45;&gt;Node4</title>
<g id="a_edge6_Node000002_Node000004"><a xlink:title=" ">
<path fill="none" stroke="#63b8ff" d="M558.19,-850.87C548.38,-852.02 538.45,-853.1 529,-854 449.29,-861.59 357.19,-866.97 297.29,-870.03"/>
<polygon fill="#63b8ff" stroke="#63b8ff" points="558.82,-854.32 568.33,-849.66 557.99,-847.37 558.82,-854.32"/>
</a>
</g>
</g>
<!-- Node5 -->
<g id="Node000005" class="node">
<title>Node5</title>
<g id="a_Node000005"><a xlink:href="namespaceMayaFlux_1_1Yantra_ae36c08db5d8c73f6cab8feebfa5e58e0.html#ae36c08db5d8c73f6cab8feebfa5e58e0" target="_top" xlink:title="Infer structure from RegionSegments.">
<polygon fill="white" stroke="#666666" points="496,-845 367,-845 367,-815 496,-815 496,-845"/>
<text text-anchor="start" x="375" y="-833" font-family="Helvetica,sans-Serif" font-size="10.00">MayaFlux::Yantra::infer</text>
<text text-anchor="middle" x="431.5" y="-822" font-family="Helvetica,sans-Serif" font-size="10.00">_from_segments</text>
</a>
</g>
</g>
<!-- Node2&#45;&gt;Node5 -->
<g id="edge4_Node000002_Node000005" class="edge">
<title>Node2&#45;&gt;Node5</title>
<g id="a_edge4_Node000002_Node000005"><a xlink:title=" ">
<path fill="none" stroke="#63b8ff" d="M558.17,-836.93C537.84,-835.81 515.96,-834.6 496.25,-833.52"/>
<polygon fill="#63b8ff" stroke="#63b8ff" points="558.15,-840.43 568.33,-837.49 558.54,-833.44 558.15,-840.43"/>
</a>
</g>
</g>
<!-- Node3&#45;&gt;Node4 -->
<g id="edge3_Node000003_Node000004" class="edge">
<title>Node3&#45;&gt;Node4</title>
<g id="a_edge3_Node000003_Node000004"><a xlink:title=" ">
<path fill="none" stroke="#63b8ff" d="M357.01,-899.96C337.39,-895.68 316.36,-891.09 297.31,-886.93"/>
<polygon fill="#63b8ff" stroke="#63b8ff" points="356.3,-903.39 366.81,-902.1 357.79,-896.55 356.3,-903.39"/>
</a>
</g>
</g>
<!-- Node5&#45;&gt;Node4 -->
<g id="edge5_Node000005_Node000004" class="edge">
<title>Node5&#45;&gt;Node4</title>
<g id="a_edge5_Node000005_Node000004"><a xlink:title=" ">
<path fill="none" stroke="#63b8ff" d="M357.01,-846.04C337.39,-850.32 316.36,-854.91 297.31,-859.07"/>
<polygon fill="#63b8ff" stroke="#63b8ff" points="357.79,-849.45 366.81,-843.9 356.3,-842.61 357.79,-849.45"/>
</a>
</g>
</g>
<!-- Node7 -->
<g id="Node000007" class="node">
<title>Node7</title>
<g id="a_Node000007"><a xlink:href="classMayaFlux_1_1Kakshya_1_1SoundStreamContainer_acf0acc246c4998ac58b260aa13d07dbc.html#acf0acc246c4998ac58b260aa13d07dbc" target="_top" xlink:title="Clear all data in the container.">
<polygon fill="white" stroke="#666666" points="496,-796.5 367,-796.5 367,-755.5 496,-755.5 496,-796.5"/>
<text text-anchor="start" x="375" y="-784.5" font-family="Helvetica,sans-Serif" font-size="10.00">MayaFlux::Kakshya::</text>
<text text-anchor="start" x="375" y="-773.5" font-family="Helvetica,sans-Serif" font-size="10.00">SoundStreamContainer</text>
<text text-anchor="middle" x="431.5" y="-762.5" font-family="Helvetica,sans-Serif" font-size="10.00">::clear</text>
</a>
</g>
</g>
<!-- Node6&#45;&gt;Node7 -->
<g id="edge9_Node000006_Node000007" class="edge">
<title>Node6&#45;&gt;Node7</title>
<g id="a_edge9_Node000006_Node000007"><a xlink:title=" ">
<path fill="none" stroke="#63b8ff" d="M623.31,-590.33C609.89,-631.77 580.16,-705.66 529,-747 519.48,-754.7 507.94,-760.35 496.22,-764.51"/>
<polygon fill="#63b8ff" stroke="#63b8ff" points="626.73,-591.12 626.38,-580.53 620.05,-589.03 626.73,-591.12"/>
</a>
</g>
</g>
<!-- Node8 -->
<g id="Node000008" class="node">
<title>Node8</title>
<g id="a_Node000008"><a xlink:href="classMayaFlux_1_1Kakshya_1_1SoundStreamContainer_a5a5f738d4e843355ce805d7891bf018b.html#a5a5f738d4e843355ce805d7891bf018b" target="_top" xlink:title=" ">
<polygon fill="white" stroke="#666666" points="500,-737.5 363,-737.5 363,-696.5 500,-696.5 500,-737.5"/>
<text text-anchor="start" x="371" y="-725.5" font-family="Helvetica,sans-Serif" font-size="10.00">MayaFlux::Kakshya::</text>
<text text-anchor="start" x="371" y="-714.5" font-family="Helvetica,sans-Serif" font-size="10.00">SoundStreamContainer</text>
<text text-anchor="middle" x="431.5" y="-703.5" font-family="Helvetica,sans-Serif" font-size="10.00">::reorganize_data_layout</text>
</a>
</g>
</g>
<!-- Node6&#45;&gt;Node8 -->
<g id="edge10_Node000006_Node000008" class="edge">
<title>Node6&#45;&gt;Node8</title>
<g id="a_edge10_Node000006_Node000008"><a xlink:title=" ">
<path fill="none" stroke="#63b8ff" d="M614.04,-588.98C595.71,-616.4 564.91,-656.97 529,-682 520.23,-688.11 510.27,-693.29 500.16,-697.62"/>
<polygon fill="#63b8ff" stroke="#63b8ff" points="616.99,-590.86 619.54,-580.58 611.13,-587.03 616.99,-590.86"/>
</a>
</g>
</g>
<!-- Node9 -->
<g id="Node000009" class="node">
<title>Node9</title>
<g id="a_Node000009"><a xlink:href="classMayaFlux_1_1Kakshya_1_1SoundStreamContainer_a08dc4478282e0137fd1bde69318c0578.html#a08dc4478282e0137fd1bde69318c0578" target="_top" xlink:title="Set the memory layout for this container.">
<polygon fill="white" stroke="#666666" points="297,-712.5 168,-712.5 168,-671.5 297,-671.5 297,-712.5"/>
<text text-anchor="start" x="176" y="-700.5" font-family="Helvetica,sans-Serif" font-size="10.00">MayaFlux::Kakshya::</text>
<text text-anchor="start" x="176" y="-689.5" font-family="Helvetica,sans-Serif" font-size="10.00">SoundStreamContainer</text>
<text text-anchor="middle" x="232.5" y="-678.5" font-family="Helvetica,sans-Serif" font-size="10.00">::set_memory_layout</text>
</a>
</g>
</g>
<!-- Node6&#45;&gt;Node9 -->
<g id="edge13_Node000006_Node000009" class="edge">
<title>Node6&#45;&gt;Node9</title>
<g id="a_edge13_Node000006_Node000009"><a xlink:title=" ">
<path fill="none" stroke="#63b8ff" d="M607.74,-588.23C588.53,-608.59 559.88,-634.89 529,-649 488.86,-667.34 371.42,-680.3 297.24,-686.93"/>
<polygon fill="#63b8ff" stroke="#63b8ff" points="610.42,-590.48 614.62,-580.75 605.27,-585.74 610.42,-590.48"/>
</a>
</g>
</g>
<!-- Node10 -->
<g id="Node000010" class="node">
<title>Node10</title>
<g id="a_Node000010"><a xlink:href="classMayaFlux_1_1Kakshya_1_1DynamicSoundStream_aaf9ca90c2eb538f3cd091adcc87bfad2.html#aaf9ca90c2eb538f3cd091adcc87bfad2" target="_top" xlink:title=" ">
<polygon fill="white" stroke="#666666" points="497,-639.5 366,-639.5 366,-598.5 497,-598.5 497,-639.5"/>
<text text-anchor="start" x="374" y="-627.5" font-family="Helvetica,sans-Serif" font-size="10.00">MayaFlux::Kakshya::</text>
<text text-anchor="start" x="374" y="-616.5" font-family="Helvetica,sans-Serif" font-size="10.00">DynamicSoundStream::</text>
<text text-anchor="middle" x="431.5" y="-605.5" font-family="Helvetica,sans-Serif" font-size="10.00">set_all_data</text>
</a>
</g>
</g>
<!-- Node6&#45;&gt;Node10 -->
<g id="edge12_Node000006_Node000010" class="edge">
<title>Node6&#45;&gt;Node10</title>
<g id="a_edge12_Node000006_Node000010"><a xlink:title=" ">
<path fill="none" stroke="#63b8ff" d="M558.6,-581.71C538.5,-587.65 516.86,-594.05 497.28,-599.84"/>
<polygon fill="#63b8ff" stroke="#63b8ff" points="559.73,-585.02 568.33,-578.83 557.75,-578.31 559.73,-585.02"/>
</a>
</g>
</g>
<!-- Node11 -->
<g id="Node000011" class="node">
<title>Node11</title>
<g id="a_Node000011"><a xlink:href="classMayaFlux_1_1Kakshya_1_1SoundFileContainer_a5f41c0cdbca1b0fc16ca4d99360559bd.html#a5f41c0cdbca1b0fc16ca4d99360559bd" target="_top" xlink:title="Set raw data from external source (e.g., file loading)">
<polygon fill="white" stroke="#666666" points="491,-580.5 372,-580.5 372,-539.5 491,-539.5 491,-580.5"/>
<text text-anchor="start" x="380" y="-568.5" font-family="Helvetica,sans-Serif" font-size="10.00">MayaFlux::Kakshya::</text>
<text text-anchor="start" x="380" y="-557.5" font-family="Helvetica,sans-Serif" font-size="10.00">SoundFileContainer::</text>
<text text-anchor="middle" x="431.5" y="-546.5" font-family="Helvetica,sans-Serif" font-size="10.00">set_raw_data</text>
</a>
</g>
</g>
<!-- Node6&#45;&gt;Node11 -->
<g id="edge14_Node000006_Node000011" class="edge">
<title>Node6&#45;&gt;Node11</title>
<g id="a_edge14_Node000006_Node000011"><a xlink:title=" ">
<path fill="none" stroke="#63b8ff" d="M558.31,-560C536.17,-560 512.19,-560 491.17,-560"/>
<polygon fill="#63b8ff" stroke="#63b8ff" points="558.33,-563.5 568.33,-560 558.33,-556.5 558.33,-563.5"/>
</a>
</g>
</g>
<!-- Node12 -->
<g id="Node000012" class="node">
<title>Node12</title>
<g id="a_Node000012"><a xlink:href="classMayaFlux_1_1Kakshya_1_1SoundFileContainer_a2c67b7a8a0a38f6cc9e86a6a93e177cf.html#a2c67b7a8a0a38f6cc9e86a6a93e177cf" target="_top" xlink:title="Setup the container with file parameters.">
<polygon fill="white" stroke="#666666" points="503.5,-521 359.5,-521 359.5,-491 503.5,-491 503.5,-521"/>
<text text-anchor="start" x="367.5" y="-509" font-family="Helvetica,sans-Serif" font-size="10.00">MayaFlux::Kakshya::</text>
<text text-anchor="middle" x="431.5" y="-498" font-family="Helvetica,sans-Serif" font-size="10.00">SoundFileContainer::setup</text>
</a>
</g>
</g>
<!-- Node6&#45;&gt;Node12 -->
<g id="edge15_Node000006_Node000012" class="edge">
<title>Node6&#45;&gt;Node12</title>
<g id="a_edge15_Node000006_Node000012"><a xlink:title=" ">
<path fill="none" stroke="#63b8ff" d="M558.49,-539.1C548.58,-536.34 538.55,-533.58 529,-531 516.8,-527.7 503.72,-524.25 491.24,-521.01"/>
<polygon fill="#63b8ff" stroke="#63b8ff" points="557.75,-542.53 568.32,-541.85 559.63,-535.79 557.75,-542.53"/>
</a>
</g>
</g>
<!-- Node13 -->
<g id="Node000013" class="node">
<title>Node13</title>
<g id="a_Node000013"><a xlink:href="classMayaFlux_1_1Kakshya_1_1SoundStreamContainer_ad74d45be3783db8de103faf36b064293.html#ad74d45be3783db8de103faf36b064293" target="_top" xlink:title="Construct a SoundStreamContainer with specified parameters.">
<polygon fill="white" stroke="#666666" points="499,-472.5 364,-472.5 364,-431.5 499,-431.5 499,-472.5"/>
<text text-anchor="start" x="372" y="-460.5" font-family="Helvetica,sans-Serif" font-size="10.00">MayaFlux::Kakshya::</text>
<text text-anchor="start" x="372" y="-449.5" font-family="Helvetica,sans-Serif" font-size="10.00">SoundStreamContainer</text>
<text text-anchor="middle" x="431.5" y="-438.5" font-family="Helvetica,sans-Serif" font-size="10.00">::SoundStreamContainer</text>
</a>
</g>
</g>
<!-- Node6&#45;&gt;Node13 -->
<g id="edge16_Node000006_Node000013" class="edge">
<title>Node6&#45;&gt;Node13</title>
<g id="a_edge16_Node000006_Node000013"><a xlink:title=" ">
<path fill="none" stroke="#63b8ff" d="M601.77,-532.62C582.18,-516.07 555.48,-495.61 529,-482 519.64,-477.19 509.36,-472.98 499.12,-469.37"/>
<polygon fill="#63b8ff" stroke="#63b8ff" points="599.57,-535.35 609.43,-539.21 604.13,-530.04 599.57,-535.35"/>
</a>
</g>
</g>
<!-- Node14 -->
<g id="Node000014" class="node">
<title>Node14</title>
<g id="a_Node000014"><a xlink:href="classMayaFlux_1_1Kakshya_1_1DynamicSoundStream_acf923de17bc21ae89e1db4cdf7af3406.html#acf923de17bc21ae89e1db4cdf7af3406" target="_top" xlink:title=" ">
<polygon fill="white" stroke="#666666" points="298,-437.5 167,-437.5 167,-396.5 298,-396.5 298,-437.5"/>
<text text-anchor="start" x="175" y="-425.5" font-family="Helvetica,sans-Serif" font-size="10.00">MayaFlux::Kakshya::</text>
<text text-anchor="start" x="175" y="-414.5" font-family="Helvetica,sans-Serif" font-size="10.00">DynamicSoundStream::</text>
<text text-anchor="middle" x="232.5" y="-403.5" font-family="Helvetica,sans-Serif" font-size="10.00">validate</text>
</a>
</g>
</g>
<!-- Node6&#45;&gt;Node14 -->
<g id="edge17_Node000006_Node000014" class="edge">
<title>Node6&#45;&gt;Node14</title>
<g id="a_edge17_Node000006_Node000014"><a xlink:title=" ">
<path fill="none" stroke="#63b8ff" d="M619.35,-530.06C603.59,-497.06 573.24,-445.65 529,-423 456.72,-385.99 360.88,-392.45 298.23,-402.77"/>
<polygon fill="#63b8ff" stroke="#63b8ff" points="616.22,-531.63 623.59,-539.25 622.58,-528.7 616.22,-531.63"/>
</a>
</g>
</g>
<!-- Node16 -->
<g id="Node000016" class="node">
<title>Node16</title>
<g id="a_Node000016"><a xlink:href="classMayaFlux_1_1Kakshya_1_1DynamicSoundStream_a344f9b30afff0cc221faca44b262b9f1.html#a344f9b30afff0cc221faca44b262b9f1" target="_top" xlink:title=" ">
<polygon fill="white" stroke="#666666" points="498.5,-374.5 364.5,-374.5 364.5,-333.5 498.5,-333.5 498.5,-374.5"/>
<text text-anchor="start" x="372.5" y="-362.5" font-family="Helvetica,sans-Serif" font-size="10.00">MayaFlux::Kakshya::</text>
<text text-anchor="start" x="372.5" y="-351.5" font-family="Helvetica,sans-Serif" font-size="10.00">DynamicSoundStream::</text>
<text text-anchor="middle" x="431.5" y="-340.5" font-family="Helvetica,sans-Serif" font-size="10.00">validate_single_channel</text>
</a>
</g>
</g>
<!-- Node6&#45;&gt;Node16 -->
<g id="edge19_Node000006_Node000016" class="edge">
<title>Node6&#45;&gt;Node16</title>
<g id="a_edge19_Node000006_Node000016"><a xlink:title=" ">
<path fill="none" stroke="#63b8ff" d="M621.15,-529.77C606.08,-491.82 575.32,-427.09 529,-389 520.05,-381.64 509.43,-375.76 498.56,-371.09"/>
<polygon fill="#63b8ff" stroke="#63b8ff" points="617.95,-531.19 624.82,-539.26 624.48,-528.67 617.95,-531.19"/>
</a>
</g>
</g>
<!-- Node8&#45;&gt;Node9 -->
<g id="edge11_Node000008_Node000009" class="edge">
<title>Node8&#45;&gt;Node9</title>
<g id="a_edge11_Node000008_Node000009"><a xlink:title=" ">
<path fill="none" stroke="#63b8ff" d="M352.87,-707.15C334.45,-704.81 315,-702.34 297.28,-700.09"/>
<polygon fill="#63b8ff" stroke="#63b8ff" points="352.62,-710.64 362.98,-708.43 353.5,-703.7 352.62,-710.64"/>
</a>
</g>
</g>
<!-- Node15 -->
<g id="Node000015" class="node">
<title>Node15</title>
<g id="a_Node000015"><a xlink:href="classMayaFlux_1_1Kakshya_1_1DynamicSoundStream_adbb6000f53051d841a016bc8f2cafc38.html#adbb6000f53051d841a016bc8f2cafc38" target="_top" xlink:title=" ">
<polygon fill="white" stroke="#666666" points="131,-398.5 0,-398.5 0,-357.5 131,-357.5 131,-398.5"/>
<text text-anchor="start" x="8" y="-386.5" font-family="Helvetica,sans-Serif" font-size="10.00">MayaFlux::Kakshya::</text>
<text text-anchor="start" x="8" y="-375.5" font-family="Helvetica,sans-Serif" font-size="10.00">DynamicSoundStream::</text>
<text text-anchor="middle" x="65.5" y="-364.5" font-family="Helvetica,sans-Serif" font-size="10.00">write_frames</text>
</a>
</g>
</g>
<!-- Node14&#45;&gt;Node15 -->
<g id="edge18_Node000014_Node000015" class="edge">
<title>Node14&#45;&gt;Node15</title>
<g id="a_edge18_Node000014_Node000015"><a xlink:title=" ">
<path fill="none" stroke="#63b8ff" d="M156.76,-399.33C148.18,-397.31 139.48,-395.25 131.05,-393.26"/>
<polygon fill="#63b8ff" stroke="#63b8ff" points="156.22,-402.8 166.76,-401.7 157.83,-395.99 156.22,-402.8"/>
</a>
</g>
</g>
<!-- Node17 -->
<g id="Node000017" class="node">
<title>Node17</title>
<g id="a_Node000017"><a xlink:href="classMayaFlux_1_1Kakshya_1_1DynamicSoundStream_ade208ea2ca4a19384f898cc1a82d7ba2.html#ade208ea2ca4a19384f898cc1a82d7ba2" target="_top" xlink:title="Write audio frame data to the container with automatic capacity management.">
<polygon fill="white" stroke="#666666" points="298,-360.5 167,-360.5 167,-319.5 298,-319.5 298,-360.5"/>
<text text-anchor="start" x="175" y="-348.5" font-family="Helvetica,sans-Serif" font-size="10.00">MayaFlux::Kakshya::</text>
<text text-anchor="start" x="175" y="-337.5" font-family="Helvetica,sans-Serif" font-size="10.00">DynamicSoundStream::</text>
<text text-anchor="middle" x="232.5" y="-326.5" font-family="Helvetica,sans-Serif" font-size="10.00">write_frames</text>
</a>
</g>
</g>
<!-- Node16&#45;&gt;Node17 -->
<g id="edge20_Node000016_Node000017" class="edge">
<title>Node16&#45;&gt;Node17</title>
<g id="a_edge20_Node000016_Node000017"><a xlink:title=" ">
<path fill="none" stroke="#63b8ff" d="M354.2,-348.58C335.68,-347.26 316.05,-345.87 298.13,-344.59"/>
<polygon fill="#63b8ff" stroke="#63b8ff" points="354.13,-352.08 364.35,-349.3 354.63,-345.1 354.13,-352.08"/>
</a>
</g>
</g>
<!-- Node17&#45;&gt;Node15 -->
<g id="edge22_Node000017_Node000015" class="edge">
<title>Node17&#45;&gt;Node15</title>
<g id="a_edge22_Node000017_Node000015"><a xlink:title=" ">
<path fill="none" stroke="#63b8ff" d="M156.76,-357.21C148.18,-359.19 139.48,-361.19 131.05,-363.13"/>
<polygon fill="#63b8ff" stroke="#63b8ff" points="157.8,-360.56 166.76,-354.91 156.23,-353.74 157.8,-360.56"/>
</a>
</g>
</g>
<!-- Node17&#45;&gt;Node17 -->
<g id="edge21_Node000017_Node000017" class="edge">
<title>Node17&#45;&gt;Node17</title>
<g id="a_edge21_Node000017_Node000017"><a xlink:title=" ">
<path fill="none" stroke="#63b8ff" d="M261.06,-370.46C256.81,-375.24 247.29,-378.5 232.5,-378.5 208.83,-378.5 198.66,-370.15 201.99,-360.6"/>
<polygon fill="#63b8ff" stroke="#63b8ff" points="264.5,-371.09 263.01,-360.6 257.64,-369.73 264.5,-371.09"/>
</a>
</g>
</g>
<!-- Node19 -->
<g id="Node000019" class="node">
<title>Node19</title>
<g id="a_Node000019"><a xlink:href="classMayaFlux_1_1Kakshya_1_1CameraContainer_a9e3ec9cdb305962ff63fec2551149e6b.html#a9e3ec9cdb305962ff63fec2551149e6b" target="_top" xlink:title="Construct a CameraContainer with specified resolution.">
<polygon fill="white" stroke="#666666" points="528.5,-315 334.5,-315 334.5,-285 528.5,-285 528.5,-315"/>
<text text-anchor="start" x="342.5" y="-303" font-family="Helvetica,sans-Serif" font-size="10.00">MayaFlux::Kakshya::</text>
<text text-anchor="middle" x="431.5" y="-292" font-family="Helvetica,sans-Serif" font-size="10.00">CameraContainer::CameraContainer</text>
</a>
</g>
</g>
<!-- Node18&#45;&gt;Node19 -->
<g id="edge24_Node000018_Node000019" class="edge">
<title>Node18&#45;&gt;Node19</title>
<g id="a_edge24_Node000018_Node000019"><a xlink:title=" ">
<path fill="none" stroke="#63b8ff" d="M559.69,-267.45C549.41,-270.39 538.95,-273.32 529,-276 517.83,-279.01 505.9,-282.09 494.37,-285"/>
<polygon fill="#63b8ff" stroke="#63b8ff" points="560.83,-270.77 569.47,-264.64 558.89,-264.04 560.83,-270.77"/>
</a>
</g>
</g>
<!-- Node20 -->
<g id="Node000020" class="node">
<title>Node20</title>
<g id="a_Node000020"><a xlink:href="classMayaFlux_1_1Kakshya_1_1VideoStreamContainer_a781d2b3f28836b0fddf6cb48ec60e2a9.html#a781d2b3f28836b0fddf6cb48ec60e2a9" target="_top" xlink:title="Clear all data in the container.">
<polygon fill="white" stroke="#666666" points="495,-266.5 368,-266.5 368,-225.5 495,-225.5 495,-266.5"/>
<text text-anchor="start" x="376" y="-254.5" font-family="Helvetica,sans-Serif" font-size="10.00">MayaFlux::Kakshya::</text>
<text text-anchor="start" x="376" y="-243.5" font-family="Helvetica,sans-Serif" font-size="10.00">VideoStreamContainer</text>
<text text-anchor="middle" x="431.5" y="-232.5" font-family="Helvetica,sans-Serif" font-size="10.00">::clear</text>
</a>
</g>
</g>
<!-- Node18&#45;&gt;Node20 -->
<g id="edge25_Node000018_Node000020" class="edge">
<title>Node18&#45;&gt;Node20</title>
<g id="a_edge25_Node000018_Node000020"><a xlink:title=" ">
<path fill="none" stroke="#63b8ff" d="M559.27,-246C538.27,-246 515.53,-246 495.2,-246"/>
<polygon fill="#63b8ff" stroke="#63b8ff" points="559.42,-249.5 569.42,-246 559.42,-242.5 559.42,-249.5"/>
</a>
</g>
</g>
<!-- Node21 -->
<g id="Node000021" class="node">
<title>Node21</title>
<g id="a_Node000021"><a xlink:href="classMayaFlux_1_1Kakshya_1_1VideoStreamContainer_aa5c16c61c3e6cc0ed20dc12f06b0f32a.html#aa5c16c61c3e6cc0ed20dc12f06b0f32a" target="_top" xlink:title="Allocate m_data[0] as a ring of ring_capacity frames.">
<polygon fill="white" stroke="#666666" points="495,-207.5 368,-207.5 368,-166.5 495,-166.5 495,-207.5"/>
<text text-anchor="start" x="376" y="-195.5" font-family="Helvetica,sans-Serif" font-size="10.00">MayaFlux::Kakshya::</text>
<text text-anchor="start" x="376" y="-184.5" font-family="Helvetica,sans-Serif" font-size="10.00">VideoStreamContainer</text>
<text text-anchor="middle" x="431.5" y="-173.5" font-family="Helvetica,sans-Serif" font-size="10.00">::setup_ring</text>
</a>
</g>
</g>
<!-- Node18&#45;&gt;Node21 -->
<g id="edge26_Node000018_Node000021" class="edge">
<title>Node18&#45;&gt;Node21</title>
<g id="a_edge26_Node000018_Node000021"><a xlink:title=" ">
<path fill="none" stroke="#63b8ff" d="M559.56,-224.58C538.47,-218.34 515.63,-211.58 495.2,-205.54"/>
<polygon fill="#63b8ff" stroke="#63b8ff" points="558.84,-228.01 569.42,-227.49 560.83,-221.3 558.84,-228.01"/>
</a>
</g>
</g>
<!-- Node22 -->
<g id="Node000022" class="node">
<title>Node22</title>
<g id="a_Node000022"><a xlink:href="classMayaFlux_1_1Kakshya_1_1VideoStreamContainer_a81c9426a34fc154e5bd666156032a1da.html#a81c9426a34fc154e5bd666156032a1da" target="_top" xlink:title="Construct a VideoStreamContainer with specified parameters.">
<polygon fill="white" stroke="#666666" points="498,-148.5 365,-148.5 365,-107.5 498,-107.5 498,-148.5"/>
<text text-anchor="start" x="373" y="-136.5" font-family="Helvetica,sans-Serif" font-size="10.00">MayaFlux::Kakshya::</text>
<text text-anchor="start" x="373" y="-125.5" font-family="Helvetica,sans-Serif" font-size="10.00">VideoStreamContainer</text>
<text text-anchor="middle" x="431.5" y="-114.5" font-family="Helvetica,sans-Serif" font-size="10.00">::VideoStreamContainer</text>
</a>
</g>
</g>
<!-- Node18&#45;&gt;Node22 -->
<g id="edge27_Node000018_Node000022" class="edge">
<title>Node18&#45;&gt;Node22</title>
<g id="a_edge27_Node000018_Node000022"><a xlink:title=" ">
<path fill="none" stroke="#63b8ff" d="M605.63,-218.12C586.08,-198.87 557.91,-173.95 529,-158 519.4,-152.7 508.73,-148.2 498.1,-144.43"/>
<polygon fill="#63b8ff" stroke="#63b8ff" points="603.41,-220.84 612.95,-225.45 608.36,-215.9 603.41,-220.84"/>
</a>
</g>
</g>
<!-- Node24 -->
<g id="Node000024" class="node">
<title>Node24</title>
<g id="a_Node000024"><a xlink:href="classMayaFlux_1_1Kakshya_1_1WindowContainer_adc912e0c1f0eca057044a7cfdf00ccf9.html#adc912e0c1f0eca057044a7cfdf00ccf9" target="_top" xlink:title="Reallocate m_data and m_processed_data to match the current window dimensions.">
<polygon fill="white" stroke="#666666" points="502.5,-89.5 360.5,-89.5 360.5,-48.5 502.5,-48.5 502.5,-89.5"/>
<text text-anchor="start" x="368.5" y="-77.5" font-family="Helvetica,sans-Serif" font-size="10.00">MayaFlux::Kakshya::</text>
<text text-anchor="start" x="368.5" y="-66.5" font-family="Helvetica,sans-Serif" font-size="10.00">WindowContainer::handle</text>
<text text-anchor="middle" x="431.5" y="-55.5" font-family="Helvetica,sans-Serif" font-size="10.00">_surface_resize</text>
</a>
</g>
</g>
<!-- Node23&#45;&gt;Node24 -->
<g id="edge29_Node000023_Node000024" class="edge">
<title>Node23&#45;&gt;Node24</title>
<g id="a_edge29_Node000023_Node000024"><a xlink:title=" ">
<path fill="none" stroke="#63b8ff" d="M554.26,-69C537.21,-69 519.26,-69 502.54,-69"/>
<polygon fill="#63b8ff" stroke="#63b8ff" points="554.74,-72.5 564.74,-69 554.74,-65.5 554.74,-72.5"/>
</a>
</g>
</g>
<!-- Node25 -->
<g id="Node000025" class="node">
<title>Node25</title>
<g id="a_Node000025"><a xlink:href="classMayaFlux_1_1Kakshya_1_1WindowContainer_a34919c923894042f1e21d380db8649d3.html#a34919c923894042f1e21d380db8649d3" target="_top" xlink:title="Construct from an existing managed window.">
<polygon fill="white" stroke="#666666" points="529,-30 334,-30 334,0 529,0 529,-30"/>
<text text-anchor="start" x="342" y="-18" font-family="Helvetica,sans-Serif" font-size="10.00">MayaFlux::Kakshya::</text>
<text text-anchor="middle" x="431.5" y="-7" font-family="Helvetica,sans-Serif" font-size="10.00">WindowContainer::WindowContainer</text>
</a>
</g>
</g>
<!-- Node23&#45;&gt;Node25 -->
<g id="edge30_Node000023_Node000025" class="edge">
<title>Node23&#45;&gt;Node25</title>
<g id="a_edge30_Node000023_Node000025"><a xlink:title=" ">
<path fill="none" stroke="#63b8ff" d="M554.96,-46.2C546.22,-43.72 537.43,-41.27 529,-39 517.83,-35.99 505.9,-32.91 494.37,-30"/>
<polygon fill="#63b8ff" stroke="#63b8ff" points="554.21,-49.63 564.79,-49.01 556.14,-42.9 554.21,-49.63"/>
</a>
</g>
</g>
</g>
</svg>

<g id="navigator" transform="translate(0 0)" fill="#404254">
  <rect fill="#f2f5e9" fill-opacity="0.5" stroke="#606060" stroke-width=".5" x="0" y="0" width="60" height="60"/>
  <use id="zoomplus" xlink:href="#zoomPlus" x="17" y="9" onmousedown="handleZoom(evt,'in')"/>
  <use id="zoomminus" xlink:href="#zoomMin" x="42" y="9" onmousedown="handleZoom(evt,'out')"/>
  <use id="reset" xlink:href="#resetDef" x="30" y="36" onmousedown="handleReset()"/>
   <use id="arrowup" xlink:href="#arrowUp" x="0" y="0" onmousedown="handlePan(0,-1)"/>
  <use id="arrowright" xlink:href="#arrowRight" x="0" y="0" onmousedown="handlePan(1,0)"/>
  <use id="arrowdown" xlink:href="#arrowDown" x="0" y="0" onmousedown="handlePan(0,1)"/>
  <use id="arrowleft" xlink:href="#arrowLeft" x="0" y="0" onmousedown="handlePan(-1,0)"/>
</g>
<svg viewBox="0 0 15 15" width="100%" height="30px" preserveAspectRatio="xMaxYMin meet">
 <g id="arrow_out" transform="scale(0.3 0.3)">
  <a xlink:href="structMayaFlux_1_1Kakshya_1_1DataDimension_ac71c3404aadefac0fe97e641021e1eba_ac71c3404aadefac0fe97e641021e1eba_icgraph_org.svg" target="_base">
   <rect id="button" ry="5" rx="5" y="6" x="6" height="38" width="38"
        fill="#f2f5e9" fill-opacity="0.5" stroke="#606060" stroke-width="1.0"/>
   <path id="arrow"
     d="M 11.500037,31.436501 C 11.940474,20.09759 22.043105,11.32322 32.158766,21.979434 L 37.068811,17.246167 C 37.068811,17.246167 37.088388,32 37.088388,32 L 22.160133,31.978069 C 22.160133,31.978069 26.997745,27.140456 26.997745,27.140456 C 18.528582,18.264221 13.291696,25.230495 11.500037,31.436501 z"
     style="fill:#404040;"/>
  </a>
 </g>
</svg>

<style type='text/css'>
<![CDATA[
[data-mouse-over-selected='false'] { opacity: 0.7; }
[data-mouse-over-selected='true']  { opacity: 1.0; }
]]>
</style>
<script type="application/ecmascript"><![CDATA[
document.addEventListener('DOMContentLoaded', (event) => {
  highlightEdges();
  highlightAdjacentNodes();
});
]]></script>
</svg>
