<?xml version="1.0" encoding="UTF-8" standalone="no"?>
<!DOCTYPE svg PUBLIC "-//W3C//DTD SVG 1.1//EN"
 "http://www.w3.org/Graphics/SVG/1.1/DTD/svg11.dtd">
<!-- Generated by graphviz version 2.43.0 (0)
 -->
<!-- Title: MayaFlux::Buffers::RootAudioUnit::get_chain Pages: 1 -->
<svg width="724pt" height="427pt"
 viewBox="0.00 0.00 724.00 426.50" xmlns="http://www.w3.org/2000/svg" xmlns:xlink="http://www.w3.org/1999/xlink">
<g id="graph0" class="graph" transform="scale(1 1) rotate(0) translate(4 422.5)">
<title>MayaFlux::Buffers::RootAudioUnit::get_chain</title>
<!-- Node1 -->
<g id="Node000001" class="node">
<title>Node1</title>
<g id="a_Node000001"><a xlink:title=" ">
<polygon fill="#999999" stroke="#666666" points="716,-194 576,-194 576,-164 716,-164 716,-194"/>
<text text-anchor="start" x="584" y="-182" font-family="Helvetica,sans-Serif" font-size="10.00">MayaFlux::Buffers::</text>
<text text-anchor="middle" x="646" y="-171" font-family="Helvetica,sans-Serif" font-size="10.00">RootAudioUnit::get_chain</text>
</a>
</g>
</g>
<!-- Node2 -->
<g id="Node000002" class="node">
<title>Node2</title>
<g id="a_Node000002"><a xlink:href="classMayaFlux_1_1Buffers_1_1BufferAccessControl_a6be98ac3f4f6e9111f4f13241e5fdefe.html#a6be98ac3f4f6e9111f4f13241e5fdefe" target="_top" xlink:title="Adds an audio buffer to a token and channel.">
<polygon fill="white" stroke="#666666" points="517.5,-353.5 402.5,-353.5 402.5,-312.5 517.5,-312.5 517.5,-353.5"/>
<text text-anchor="start" x="410.5" y="-341.5" font-family="Helvetica,sans-Serif" font-size="10.00">MayaFlux::Buffers::</text>
<text text-anchor="start" x="410.5" y="-330.5" font-family="Helvetica,sans-Serif" font-size="10.00">BufferAccessControl</text>
<text text-anchor="middle" x="460" y="-319.5" font-family="Helvetica,sans-Serif" font-size="10.00">::add_audio_buffer</text>
</a>
</g>
</g>
<!-- Node1&#45;&gt;Node2 -->
<g id="edge1_Node000001_Node000002" class="edge">
<title>Node1&#45;&gt;Node2</title>
<g id="a_edge1_Node000001_Node000002"><a xlink:title=" ">
<path fill="none" stroke="#63b8ff" d="M619.06,-200.71C583.63,-230.37 520.52,-283.18 485.73,-312.3"/>
<polygon fill="#63b8ff" stroke="#63b8ff" points="621.6,-203.15 627.02,-194.05 617.11,-197.78 621.6,-203.15"/>
</a>
</g>
</g>
<!-- Node5 -->
<g id="Node000005" class="node">
<title>Node5</title>
<g id="a_Node000005"><a xlink:href="classMayaFlux_1_1Buffers_1_1BufferProcessingControl_a9eb403000a3a733a1db25bca6e9b9863.html#a9eb403000a3a733a1db25bca6e9b9863" target="_top" xlink:title="Adds a processor to a specific audio buffer.">
<polygon fill="white" stroke="#666666" points="527,-229.5 393,-229.5 393,-188.5 527,-188.5 527,-229.5"/>
<text text-anchor="start" x="401" y="-217.5" font-family="Helvetica,sans-Serif" font-size="10.00">MayaFlux::Buffers::</text>
<text text-anchor="start" x="401" y="-206.5" font-family="Helvetica,sans-Serif" font-size="10.00">BufferProcessingControl</text>
<text text-anchor="middle" x="460" y="-195.5" font-family="Helvetica,sans-Serif" font-size="10.00">::add_audio_processor</text>
</a>
</g>
</g>
<!-- Node1&#45;&gt;Node5 -->
<g id="edge4_Node000001_Node000005" class="edge">
<title>Node1&#45;&gt;Node5</title>
<g id="a_edge4_Node000001_Node000005"><a xlink:title=" ">
<path fill="none" stroke="#63b8ff" d="M565.72,-191.93C552.83,-194.03 539.6,-196.18 527.07,-198.23"/>
<polygon fill="#63b8ff" stroke="#63b8ff" points="566.66,-195.32 575.96,-190.26 565.53,-188.41 566.66,-195.32"/>
</a>
</g>
</g>
<!-- Node12 -->
<g id="Node000012" class="node">
<title>Node12</title>
<g id="a_Node000012"><a xlink:href="classMayaFlux_1_1Buffers_1_1BufferAccessControl_a7405d31c2a0ced5a344617e84e94f6aa.html#a7405d31c2a0ced5a344617e84e94f6aa" target="_top" xlink:title="Gets the processing chain for an audio token and channel.">
<polygon fill="white" stroke="#666666" points="540,-167.5 380,-167.5 380,-126.5 540,-126.5 540,-167.5"/>
<text text-anchor="start" x="388" y="-155.5" font-family="Helvetica,sans-Serif" font-size="10.00">MayaFlux::Buffers::</text>
<text text-anchor="start" x="388" y="-144.5" font-family="Helvetica,sans-Serif" font-size="10.00">BufferAccessControl</text>
<text text-anchor="middle" x="460" y="-133.5" font-family="Helvetica,sans-Serif" font-size="10.00">::get_audio_processing_chain</text>
</a>
</g>
</g>
<!-- Node1&#45;&gt;Node12 -->
<g id="edge11_Node000001_Node000012" class="edge">
<title>Node1&#45;&gt;Node12</title>
<g id="a_edge11_Node000001_Node000012"><a xlink:title=" ">
<path fill="none" stroke="#63b8ff" d="M565.96,-165.25C557.36,-163.76 548.61,-162.24 540.02,-160.74"/>
<polygon fill="#63b8ff" stroke="#63b8ff" points="565.51,-168.73 575.96,-166.99 566.71,-161.83 565.51,-168.73"/>
</a>
</g>
</g>
<!-- Node17 -->
<g id="Node000017" class="node">
<title>Node17</title>
<g id="a_Node000017"><a xlink:href="classMayaFlux_1_1Buffers_1_1BufferProcessingControl_a8ad9c753269c1f1f9edd4177ebfb140e.html#a8ad9c753269c1f1f9edd4177ebfb140e" target="_top" xlink:title="Removes a processor from a specific audio buffer.">
<polygon fill="white" stroke="#666666" points="532.5,-105.5 387.5,-105.5 387.5,-64.5 532.5,-64.5 532.5,-105.5"/>
<text text-anchor="start" x="395.5" y="-93.5" font-family="Helvetica,sans-Serif" font-size="10.00">MayaFlux::Buffers::</text>
<text text-anchor="start" x="395.5" y="-82.5" font-family="Helvetica,sans-Serif" font-size="10.00">BufferProcessingControl</text>
<text text-anchor="middle" x="460" y="-71.5" font-family="Helvetica,sans-Serif" font-size="10.00">::remove_audio_processor</text>
</a>
</g>
</g>
<!-- Node1&#45;&gt;Node17 -->
<g id="edge16_Node000001_Node000017" class="edge">
<title>Node1&#45;&gt;Node17</title>
<g id="a_edge16_Node000001_Node000017"><a xlink:title=" ">
<path fill="none" stroke="#63b8ff" d="M612.29,-158.51C591.87,-146.1 564.84,-130.34 540,-118 531.35,-113.7 522,-109.46 512.86,-105.52"/>
<polygon fill="#63b8ff" stroke="#63b8ff" points="610.53,-161.54 620.89,-163.78 614.19,-155.57 610.53,-161.54"/>
</a>
</g>
</g>
<!-- Node3 -->
<g id="Node000003" class="node">
<title>Node3</title>
<g id="a_Node000003"><a xlink:href="classMayaFlux_1_1Buffers_1_1BufferAccessControl_ae10b17df86560e065378c3dc8ac90c0d.html#ae10b17df86560e065378c3dc8ac90c0d" target="_top" xlink:title="Adds a buffer to a token (dispatches based on token type)">
<polygon fill="white" stroke="#666666" points="316,-418.5 201,-418.5 201,-377.5 316,-377.5 316,-418.5"/>
<text text-anchor="start" x="209" y="-406.5" font-family="Helvetica,sans-Serif" font-size="10.00">MayaFlux::Buffers::</text>
<text text-anchor="start" x="209" y="-395.5" font-family="Helvetica,sans-Serif" font-size="10.00">BufferAccessControl</text>
<text text-anchor="middle" x="258.5" y="-384.5" font-family="Helvetica,sans-Serif" font-size="10.00">::add_buffer</text>
</a>
</g>
</g>
<!-- Node2&#45;&gt;Node3 -->
<g id="edge2_Node000002_Node000003" class="edge">
<title>Node2&#45;&gt;Node3</title>
<g id="a_edge2_Node000002_Node000003"><a xlink:title=" ">
<path fill="none" stroke="#63b8ff" d="M392.69,-354.6C367.94,-362.67 340.09,-371.74 316.28,-379.5"/>
<polygon fill="#63b8ff" stroke="#63b8ff" points="393.94,-357.88 402.36,-351.45 391.77,-351.22 393.94,-357.88"/>
</a>
</g>
</g>
<!-- Node4 -->
<g id="Node000004" class="node">
<title>Node4</title>
<g id="a_Node000004"><a xlink:href="classMayaFlux_1_1Buffers_1_1BufferSupplyMixing_a9ee7968dba43bfa9035781971311b14a.html#a9ee7968dba43bfa9035781971311b14a" target="_top" xlink:title="Clones an audio buffer for each channel in the specified list.">
<polygon fill="white" stroke="#666666" points="322.5,-359 194.5,-359 194.5,-307 322.5,-307 322.5,-359"/>
<text text-anchor="start" x="202.5" y="-347" font-family="Helvetica,sans-Serif" font-size="10.00">MayaFlux::Buffers::</text>
<text text-anchor="start" x="202.5" y="-336" font-family="Helvetica,sans-Serif" font-size="10.00">BufferSupplyMixing::</text>
<text text-anchor="start" x="202.5" y="-325" font-family="Helvetica,sans-Serif" font-size="10.00">clone_audio_buffer_for</text>
<text text-anchor="middle" x="258.5" y="-314" font-family="Helvetica,sans-Serif" font-size="10.00">_channels</text>
</a>
</g>
</g>
<!-- Node2&#45;&gt;Node4 -->
<g id="edge3_Node000002_Node000004" class="edge">
<title>Node2&#45;&gt;Node4</title>
<g id="a_edge3_Node000002_Node000004"><a xlink:title=" ">
<path fill="none" stroke="#63b8ff" d="M392.24,-333C369.76,-333 344.77,-333 322.59,-333"/>
<polygon fill="#63b8ff" stroke="#63b8ff" points="392.36,-336.5 402.36,-333 392.36,-329.5 392.36,-336.5"/>
</a>
</g>
</g>
<!-- Node6 -->
<g id="Node000006" class="node">
<title>Node6</title>
<g id="a_Node000006"><a xlink:href="classMayaFlux_1_1Buffers_1_1BufferProcessingControl_a6d09426e3ee987c59f62c5e0edde36a8.html#a6d09426e3ee987c59f62c5e0edde36a8" target="_top" xlink:title="Adds a processor to a buffer (dispatches based on buffer/token)">
<polygon fill="white" stroke="#666666" points="325.5,-288.5 191.5,-288.5 191.5,-247.5 325.5,-247.5 325.5,-288.5"/>
<text text-anchor="start" x="199.5" y="-276.5" font-family="Helvetica,sans-Serif" font-size="10.00">MayaFlux::Buffers::</text>
<text text-anchor="start" x="199.5" y="-265.5" font-family="Helvetica,sans-Serif" font-size="10.00">BufferProcessingControl</text>
<text text-anchor="middle" x="258.5" y="-254.5" font-family="Helvetica,sans-Serif" font-size="10.00">::add_processor</text>
</a>
</g>
</g>
<!-- Node5&#45;&gt;Node6 -->
<g id="edge5_Node000005_Node000006" class="edge">
<title>Node5&#45;&gt;Node6</title>
<g id="a_edge5_Node000005_Node000006"><a xlink:title=" ">
<path fill="none" stroke="#63b8ff" d="M383.11,-231.44C364.25,-237.02 344.18,-242.96 325.81,-248.39"/>
<polygon fill="#63b8ff" stroke="#63b8ff" points="384.25,-234.76 392.85,-228.56 382.26,-228.04 384.25,-234.76"/>
</a>
</g>
</g>
<!-- Node11 -->
<g id="Node000011" class="node">
<title>Node11</title>
<g id="a_Node000011"><a xlink:href="classMayaFlux_1_1Buffers_1_1BufferProcessingControl_a7d678edca5be1c2bedf271a80f4e5b70.html#a7d678edca5be1c2bedf271a80f4e5b70" target="_top" xlink:title="Connects a node directly to a specific audio buffer.">
<polygon fill="white" stroke="#666666" points="344,-229.5 173,-229.5 173,-188.5 344,-188.5 344,-229.5"/>
<text text-anchor="start" x="181" y="-217.5" font-family="Helvetica,sans-Serif" font-size="10.00">MayaFlux::Buffers::</text>
<text text-anchor="start" x="181" y="-206.5" font-family="Helvetica,sans-Serif" font-size="10.00">BufferProcessingControl</text>
<text text-anchor="middle" x="258.5" y="-195.5" font-family="Helvetica,sans-Serif" font-size="10.00">::connect_node_to_audio_buffer</text>
</a>
</g>
</g>
<!-- Node5&#45;&gt;Node11 -->
<g id="edge10_Node000005_Node000011" class="edge">
<title>Node5&#45;&gt;Node11</title>
<g id="a_edge10_Node000005_Node000011"><a xlink:title=" ">
<path fill="none" stroke="#63b8ff" d="M382.49,-209C370,-209 356.99,-209 344.31,-209"/>
<polygon fill="#63b8ff" stroke="#63b8ff" points="382.85,-212.5 392.85,-209 382.85,-205.5 382.85,-212.5"/>
</a>
</g>
</g>
<!-- Node7 -->
<g id="Node000007" class="node">
<title>Node7</title>
<g id="a_Node000007"><a xlink:href="classMayaFlux_1_1Buffers_1_1BufferProcessingControl_ada45c9d290ffd623e1638e884008a374.html#ada45c9d290ffd623e1638e884008a374" target="_top" xlink:title="Creates and attaches a quick processing function to buffer.">
<polygon fill="white" stroke="#666666" points="135.5,-406.5 1.5,-406.5 1.5,-365.5 135.5,-365.5 135.5,-406.5"/>
<text text-anchor="start" x="9.5" y="-394.5" font-family="Helvetica,sans-Serif" font-size="10.00">MayaFlux::Buffers::</text>
<text text-anchor="start" x="9.5" y="-383.5" font-family="Helvetica,sans-Serif" font-size="10.00">BufferProcessingControl</text>
<text text-anchor="middle" x="68.5" y="-372.5" font-family="Helvetica,sans-Serif" font-size="10.00">::attach_quick_process</text>
</a>
</g>
</g>
<!-- Node6&#45;&gt;Node7 -->
<g id="edge6_Node000006_Node000007" class="edge">
<title>Node6&#45;&gt;Node7</title>
<g id="a_edge6_Node000006_Node000007"><a xlink:title=" ">
<path fill="none" stroke="#63b8ff" d="M182.41,-291.35C179.11,-293.39 175.95,-295.6 173,-298 149.15,-317.36 160.21,-336.88 137,-357 133.43,-360.09 129.49,-362.9 125.35,-365.43"/>
<polygon fill="#63b8ff" stroke="#63b8ff" points="184.39,-294.25 191.43,-286.33 180.99,-288.13 184.39,-294.25"/>
</a>
</g>
</g>
<!-- Node8 -->
<g id="Node000008" class="node">
<title>Node8</title>
<g id="a_Node000008"><a xlink:href="classMayaFlux_1_1Buffers_1_1BufferProcessingControl_a00b86f8ddb04bc67a72ad46bea8ff906.html#a00b86f8ddb04bc67a72ad46bea8ff906" target="_top" xlink:title="Creates and attaches a quick processing function to all channels in a token.">
<polygon fill="white" stroke="#666666" points="135.5,-347.5 1.5,-347.5 1.5,-306.5 135.5,-306.5 135.5,-347.5"/>
<text text-anchor="start" x="9.5" y="-335.5" font-family="Helvetica,sans-Serif" font-size="10.00">MayaFlux::Buffers::</text>
<text text-anchor="start" x="9.5" y="-324.5" font-family="Helvetica,sans-Serif" font-size="10.00">BufferProcessingControl</text>
<text text-anchor="middle" x="68.5" y="-313.5" font-family="Helvetica,sans-Serif" font-size="10.00">::attach_quick_process</text>
</a>
</g>
</g>
<!-- Node6&#45;&gt;Node8 -->
<g id="edge7_Node000006_Node000008" class="edge">
<title>Node6&#45;&gt;Node8</title>
<g id="a_edge7_Node000006_Node000008"><a xlink:title=" ">
<path fill="none" stroke="#63b8ff" d="M182.38,-291.58C166.73,-296.49 150.35,-301.63 135.07,-306.42"/>
<polygon fill="#63b8ff" stroke="#63b8ff" points="183.52,-294.89 192.01,-288.55 181.42,-288.21 183.52,-294.89"/>
</a>
</g>
</g>
<!-- Node9 -->
<g id="Node000009" class="node">
<title>Node9</title>
<g id="a_Node000009"><a xlink:href="classMayaFlux_1_1Buffers_1_1BufferProcessingControl_abadcb7fe2588520b107bcaeabdcb8dca.html#abadcb7fe2588520b107bcaeabdcb8dca" target="_top" xlink:title=" ">
<polygon fill="white" stroke="#666666" points="135.5,-288.5 1.5,-288.5 1.5,-247.5 135.5,-247.5 135.5,-288.5"/>
<text text-anchor="start" x="9.5" y="-276.5" font-family="Helvetica,sans-Serif" font-size="10.00">MayaFlux::Buffers::</text>
<text text-anchor="start" x="9.5" y="-265.5" font-family="Helvetica,sans-Serif" font-size="10.00">BufferProcessingControl</text>
<text text-anchor="middle" x="68.5" y="-254.5" font-family="Helvetica,sans-Serif" font-size="10.00">::attach_quick_process</text>
</a>
</g>
</g>
<!-- Node6&#45;&gt;Node9 -->
<g id="edge8_Node000006_Node000009" class="edge">
<title>Node6&#45;&gt;Node9</title>
<g id="a_edge8_Node000006_Node000009"><a xlink:title=" ">
<path fill="none" stroke="#63b8ff" d="M181.17,-268C166.09,-268 150.38,-268 135.68,-268"/>
<polygon fill="#63b8ff" stroke="#63b8ff" points="181.48,-271.5 191.48,-268 181.48,-264.5 181.48,-271.5"/>
</a>
</g>
</g>
<!-- Node10 -->
<g id="Node000010" class="node">
<title>Node10</title>
<g id="a_Node000010"><a xlink:href="classMayaFlux_1_1Buffers_1_1BufferProcessingControl_a3d64bcce9d1ca99c48657ef2040f6eb6.html#a3d64bcce9d1ca99c48657ef2040f6eb6" target="_top" xlink:title=" ">
<polygon fill="white" stroke="#666666" points="135.5,-229.5 1.5,-229.5 1.5,-188.5 135.5,-188.5 135.5,-229.5"/>
<text text-anchor="start" x="9.5" y="-217.5" font-family="Helvetica,sans-Serif" font-size="10.00">MayaFlux::Buffers::</text>
<text text-anchor="start" x="9.5" y="-206.5" font-family="Helvetica,sans-Serif" font-size="10.00">BufferProcessingControl</text>
<text text-anchor="middle" x="68.5" y="-195.5" font-family="Helvetica,sans-Serif" font-size="10.00">::attach_quick_process</text>
</a>
</g>
</g>
<!-- Node6&#45;&gt;Node10 -->
<g id="edge9_Node000006_Node000010" class="edge">
<title>Node6&#45;&gt;Node10</title>
<g id="a_edge9_Node000006_Node000010"><a xlink:title=" ">
<path fill="none" stroke="#63b8ff" d="M182.38,-244.42C166.73,-239.51 150.35,-234.37 135.07,-229.58"/>
<polygon fill="#63b8ff" stroke="#63b8ff" points="181.42,-247.79 192.01,-247.45 183.52,-241.11 181.42,-247.79"/>
</a>
</g>
</g>
<!-- Node13 -->
<g id="Node000013" class="node">
<title>Node13</title>
<g id="a_Node000013"><a xlink:href="classMayaFlux_1_1Buffers_1_1BufferProcessingControl_a75fb2ef88004296b089443fa9f5a3d43.html#a75fb2ef88004296b089443fa9f5a3d43" target="_top" xlink:title="Adds a processor to a specific audio token and channel.">
<polygon fill="white" stroke="#666666" points="328.5,-170 188.5,-170 188.5,-118 328.5,-118 328.5,-170"/>
<text text-anchor="start" x="196.5" y="-158" font-family="Helvetica,sans-Serif" font-size="10.00">MayaFlux::Buffers::</text>
<text text-anchor="start" x="196.5" y="-147" font-family="Helvetica,sans-Serif" font-size="10.00">BufferProcessingControl</text>
<text text-anchor="start" x="196.5" y="-136" font-family="Helvetica,sans-Serif" font-size="10.00">::add_audio_processor_to</text>
<text text-anchor="middle" x="258.5" y="-125" font-family="Helvetica,sans-Serif" font-size="10.00">_channel</text>
</a>
</g>
</g>
<!-- Node12&#45;&gt;Node13 -->
<g id="edge12_Node000012_Node000013" class="edge">
<title>Node12&#45;&gt;Node13</title>
<g id="a_edge12_Node000012_Node000013"><a xlink:title=" ">
<path fill="none" stroke="#63b8ff" d="M369.84,-145.66C355.99,-145.45 341.86,-145.24 328.54,-145.04"/>
<polygon fill="#63b8ff" stroke="#63b8ff" points="369.81,-149.16 379.87,-145.81 369.92,-142.16 369.81,-149.16"/>
</a>
</g>
</g>
<!-- Node14 -->
<g id="Node000014" class="node">
<title>Node14</title>
<g id="a_Node000014"><a xlink:href="classMayaFlux_1_1Buffers_1_1BufferProcessingControl_a071db42a8b90ab8067b6cf1dca5f5ce7.html#a071db42a8b90ab8067b6cf1dca5f5ce7" target="_top" xlink:title="Adds a processor to a token (dispatches based on token)">
<polygon fill="white" stroke="#666666" points="135.5,-170.5 1.5,-170.5 1.5,-129.5 135.5,-129.5 135.5,-170.5"/>
<text text-anchor="start" x="9.5" y="-158.5" font-family="Helvetica,sans-Serif" font-size="10.00">MayaFlux::Buffers::</text>
<text text-anchor="start" x="9.5" y="-147.5" font-family="Helvetica,sans-Serif" font-size="10.00">BufferProcessingControl</text>
<text text-anchor="middle" x="68.5" y="-136.5" font-family="Helvetica,sans-Serif" font-size="10.00">::add_processor</text>
</a>
</g>
</g>
<!-- Node13&#45;&gt;Node14 -->
<g id="edge13_Node000013_Node000014" class="edge">
<title>Node13&#45;&gt;Node14</title>
<g id="a_edge13_Node000013_Node000014"><a xlink:title=" ">
<path fill="none" stroke="#63b8ff" d="M178.12,-146.53C164.01,-146.98 149.44,-147.45 135.74,-147.89"/>
<polygon fill="#63b8ff" stroke="#63b8ff" points="178.41,-150.03 188.3,-146.21 178.19,-143.03 178.41,-150.03"/>
</a>
</g>
</g>
<!-- Node15 -->
<g id="Node000015" class="node">
<title>Node15</title>
<g id="a_Node000015"><a xlink:href="classMayaFlux_1_1Buffers_1_1BufferProcessingControl_a133b0fe6ce698469812f8cb64960f7fd.html#a133b0fe6ce698469812f8cb64960f7fd" target="_top" xlink:title="Creates and attaches a quick processing function to an audio token/channel.">
<polygon fill="white" stroke="#666666" points="135.5,-111.5 1.5,-111.5 1.5,-70.5 135.5,-70.5 135.5,-111.5"/>
<text text-anchor="start" x="9.5" y="-99.5" font-family="Helvetica,sans-Serif" font-size="10.00">MayaFlux::Buffers::</text>
<text text-anchor="start" x="9.5" y="-88.5" font-family="Helvetica,sans-Serif" font-size="10.00">BufferProcessingControl</text>
<text text-anchor="middle" x="68.5" y="-77.5" font-family="Helvetica,sans-Serif" font-size="10.00">::attach_quick_process</text>
</a>
</g>
</g>
<!-- Node13&#45;&gt;Node15 -->
<g id="edge14_Node000013_Node000015" class="edge">
<title>Node13&#45;&gt;Node15</title>
<g id="a_edge14_Node000013_Node000015"><a xlink:title=" ">
<path fill="none" stroke="#63b8ff" d="M178.53,-121.74C164.29,-117.72 149.58,-113.57 135.74,-109.67"/>
<polygon fill="#63b8ff" stroke="#63b8ff" points="177.72,-125.15 188.3,-124.49 179.62,-118.41 177.72,-125.15"/>
</a>
</g>
</g>
<!-- Node16 -->
<g id="Node000016" class="node">
<title>Node16</title>
<g id="a_Node000016"><a xlink:href="classMayaFlux_1_1Buffers_1_1BufferProcessingControl_a12821895ab2a40d4cb3f094878e46e9d.html#a12821895ab2a40d4cb3f094878e46e9d" target="_top" xlink:title="Connects a node to a specific audio token and channel.">
<polygon fill="white" stroke="#666666" points="137,-52 0,-52 0,0 137,0 137,-52"/>
<text text-anchor="start" x="8" y="-40" font-family="Helvetica,sans-Serif" font-size="10.00">MayaFlux::Buffers::</text>
<text text-anchor="start" x="8" y="-29" font-family="Helvetica,sans-Serif" font-size="10.00">BufferProcessingControl</text>
<text text-anchor="start" x="8" y="-18" font-family="Helvetica,sans-Serif" font-size="10.00">::connect_node_to_audio</text>
<text text-anchor="middle" x="68.5" y="-7" font-family="Helvetica,sans-Serif" font-size="10.00">_channel</text>
</a>
</g>
</g>
<!-- Node13&#45;&gt;Node16 -->
<g id="edge15_Node000013_Node000016" class="edge">
<title>Node13&#45;&gt;Node16</title>
<g id="a_edge15_Node000013_Node000016"><a xlink:title=" ">
<path fill="none" stroke="#63b8ff" d="M179.49,-113.67C177.26,-112.17 175.09,-110.62 173,-109 151.93,-92.65 157.35,-78.24 137,-61 133.27,-57.84 129.21,-54.87 125,-52.09"/>
<polygon fill="#63b8ff" stroke="#63b8ff" points="178.05,-116.89 188.4,-119.13 181.71,-110.92 178.05,-116.89"/>
</a>
</g>
</g>
<!-- Node18 -->
<g id="Node000018" class="node">
<title>Node18</title>
<g id="a_Node000018"><a xlink:href="classMayaFlux_1_1Buffers_1_1BufferProcessingControl_af22ed5f9c5d3af97a0f100ca6b62a3ff.html#af22ed5f9c5d3af97a0f100ca6b62a3ff" target="_top" xlink:title="Removes a processor from a buffer (dispatches based on buffer/token)">
<polygon fill="white" stroke="#666666" points="325.5,-99.5 191.5,-99.5 191.5,-58.5 325.5,-58.5 325.5,-99.5"/>
<text text-anchor="start" x="199.5" y="-87.5" font-family="Helvetica,sans-Serif" font-size="10.00">MayaFlux::Buffers::</text>
<text text-anchor="start" x="199.5" y="-76.5" font-family="Helvetica,sans-Serif" font-size="10.00">BufferProcessingControl</text>
<text text-anchor="middle" x="258.5" y="-65.5" font-family="Helvetica,sans-Serif" font-size="10.00">::remove_processor</text>
</a>
</g>
</g>
<!-- Node17&#45;&gt;Node18 -->
<g id="edge17_Node000017_Node000018" class="edge">
<title>Node17&#45;&gt;Node18</title>
<g id="a_edge17_Node000017_Node000018"><a xlink:title=" ">
<path fill="none" stroke="#63b8ff" d="M377.24,-82.54C360.06,-82.02 342.15,-81.49 325.63,-80.99"/>
<polygon fill="#63b8ff" stroke="#63b8ff" points="377.16,-86.04 387.26,-82.84 377.37,-79.04 377.16,-86.04"/>
</a>
</g>
</g>
</g>
</svg>
