<?xml version="1.0" encoding="UTF-8" standalone="no"?>
<!DOCTYPE svg PUBLIC "-//W3C//DTD SVG 1.1//EN"
 "http://www.w3.org/Graphics/SVG/1.1/DTD/svg11.dtd">
<!-- Generated by graphviz version 2.43.0 (0)
 -->
<!-- Title: MayaFlux::Vruta::routine_promise&lt; RoutineType &gt; Pages: 1 -->
<svg width="830pt" height="752pt"
 viewBox="0.00 0.00 830.00 752.00" xmlns="http://www.w3.org/2000/svg" xmlns:xlink="http://www.w3.org/1999/xlink">
<g id="graph0" class="graph" transform="scale(1 1) rotate(0) translate(4 748)">
<title>MayaFlux::Vruta::routine_promise&lt; RoutineType &gt;</title>
<!-- Node1 -->
<g id="Node000001" class="node">
<title>Node1</title>
<g id="a_Node000001"><a xlink:title="Base coroutine promise type for audio processing tasks.">
<polygon fill="#999999" stroke="transparent" points="480,-744 332,-744 332,-504 480,-504 480,-744"/>
<text text-anchor="start" x="342" y="-732" font-family="Helvetica,sans-Serif" font-size="10.00">MayaFlux::Vruta::routine</text>
<text text-anchor="start" x="342" y="-721" font-family="Helvetica,sans-Serif" font-size="10.00">_promise&lt; RoutineType &gt;</text>
<text text-anchor="start" x="336" y="-706" font-family="Helvetica,sans-Serif" font-size="10.00">+</text>
<text text-anchor="start" x="349" y="-706" font-family="Helvetica,sans-Serif" font-size="10.00">auto_resume</text>
<text text-anchor="start" x="336" y="-691" font-family="Helvetica,sans-Serif" font-size="10.00">+</text>
<text text-anchor="start" x="349" y="-691" font-family="Helvetica,sans-Serif" font-size="10.00">delay_amount</text>
<text text-anchor="start" x="336" y="-676" font-family="Helvetica,sans-Serif" font-size="10.00">+</text>
<text text-anchor="start" x="349" y="-676" font-family="Helvetica,sans-Serif" font-size="10.00">processing_token</text>
<text text-anchor="start" x="336" y="-661" font-family="Helvetica,sans-Serif" font-size="10.00">+</text>
<text text-anchor="start" x="349" y="-661" font-family="Helvetica,sans-Serif" font-size="10.00">should_terminate</text>
<text text-anchor="start" x="336" y="-646" font-family="Helvetica,sans-Serif" font-size="10.00">+</text>
<text text-anchor="start" x="349" y="-646" font-family="Helvetica,sans-Serif" font-size="10.00">state</text>
<text text-anchor="start" x="336" y="-631" font-family="Helvetica,sans-Serif" font-size="10.00">+</text>
<text text-anchor="start" x="349" y="-631" font-family="Helvetica,sans-Serif" font-size="10.00">sync_to_clock</text>
<text text-anchor="start" x="336" y="-616" font-family="Helvetica,sans-Serif" font-size="10.00">+</text>
<text text-anchor="start" x="349" y="-616" font-family="Helvetica,sans-Serif" font-size="10.00">domain_mismatch_error()</text>
<text text-anchor="start" x="336" y="-601" font-family="Helvetica,sans-Serif" font-size="10.00">+</text>
<text text-anchor="start" x="349" y="-601" font-family="Helvetica,sans-Serif" font-size="10.00">final_suspend()</text>
<text text-anchor="start" x="336" y="-586" font-family="Helvetica,sans-Serif" font-size="10.00">+</text>
<text text-anchor="start" x="349" y="-586" font-family="Helvetica,sans-Serif" font-size="10.00">get_return_object()</text>
<text text-anchor="start" x="336" y="-571" font-family="Helvetica,sans-Serif" font-size="10.00">+</text>
<text text-anchor="start" x="349" y="-571" font-family="Helvetica,sans-Serif" font-size="10.00">get_state()</text>
<text text-anchor="start" x="336" y="-556" font-family="Helvetica,sans-Serif" font-size="10.00">+</text>
<text text-anchor="start" x="349" y="-556" font-family="Helvetica,sans-Serif" font-size="10.00">initial_suspend()</text>
<text text-anchor="start" x="336" y="-541" font-family="Helvetica,sans-Serif" font-size="10.00">+</text>
<text text-anchor="start" x="349" y="-541" font-family="Helvetica,sans-Serif" font-size="10.00">return_void()</text>
<text text-anchor="start" x="336" y="-526" font-family="Helvetica,sans-Serif" font-size="10.00">+</text>
<text text-anchor="start" x="349" y="-526" font-family="Helvetica,sans-Serif" font-size="10.00">set_state()</text>
<text text-anchor="start" x="336" y="-511" font-family="Helvetica,sans-Serif" font-size="10.00">+</text>
<text text-anchor="start" x="349" y="-511" font-family="Helvetica,sans-Serif" font-size="10.00">unhandled_exception()</text>
<polygon fill="#666666" stroke="#666666" points="332,-716 332,-716 480,-716 480,-716 332,-716"/>
<polygon fill="#666666" stroke="#666666" points="332,-626 332,-626 347,-626 347,-626 332,-626"/>
<polygon fill="#666666" stroke="#666666" points="347,-626 347,-626 480,-626 480,-626 347,-626"/>
<polygon fill="none" stroke="#666666" points="332,-504 332,-744 480,-744 480,-504 332,-504"/>
</a>
</g>
</g>
<!-- Node2 -->
<g id="Node000002" class="node">
<title>Node2</title>
<g id="a_Node000002"><a xlink:href="structMayaFlux_1_1Vruta_1_1routine__promise.html" target="_top" xlink:title=" ">
<polygon fill="white" stroke="transparent" points="148,-457 0,-457 0,-217 148,-217 148,-457"/>
<text text-anchor="start" x="6" y="-445" font-family="Helvetica,sans-Serif" font-size="10.00">MayaFlux::Vruta::routine</text>
<text text-anchor="start" x="6" y="-434" font-family="Helvetica,sans-Serif" font-size="10.00">_promise&lt; SoundRoutine &gt;</text>
<text text-anchor="start" x="4" y="-419" font-family="Helvetica,sans-Serif" font-size="10.00">+</text>
<text text-anchor="start" x="17" y="-419" font-family="Helvetica,sans-Serif" font-size="10.00">auto_resume</text>
<text text-anchor="start" x="4" y="-404" font-family="Helvetica,sans-Serif" font-size="10.00">+</text>
<text text-anchor="start" x="17" y="-404" font-family="Helvetica,sans-Serif" font-size="10.00">delay_amount</text>
<text text-anchor="start" x="4" y="-389" font-family="Helvetica,sans-Serif" font-size="10.00">+</text>
<text text-anchor="start" x="17" y="-389" font-family="Helvetica,sans-Serif" font-size="10.00">processing_token</text>
<text text-anchor="start" x="4" y="-374" font-family="Helvetica,sans-Serif" font-size="10.00">+</text>
<text text-anchor="start" x="17" y="-374" font-family="Helvetica,sans-Serif" font-size="10.00">should_terminate</text>
<text text-anchor="start" x="4" y="-359" font-family="Helvetica,sans-Serif" font-size="10.00">+</text>
<text text-anchor="start" x="17" y="-359" font-family="Helvetica,sans-Serif" font-size="10.00">state</text>
<text text-anchor="start" x="4" y="-344" font-family="Helvetica,sans-Serif" font-size="10.00">+</text>
<text text-anchor="start" x="17" y="-344" font-family="Helvetica,sans-Serif" font-size="10.00">sync_to_clock</text>
<text text-anchor="start" x="4" y="-329" font-family="Helvetica,sans-Serif" font-size="10.00">+</text>
<text text-anchor="start" x="17" y="-329" font-family="Helvetica,sans-Serif" font-size="10.00">domain_mismatch_error()</text>
<text text-anchor="start" x="4" y="-314" font-family="Helvetica,sans-Serif" font-size="10.00">+</text>
<text text-anchor="start" x="17" y="-314" font-family="Helvetica,sans-Serif" font-size="10.00">final_suspend()</text>
<text text-anchor="start" x="4" y="-299" font-family="Helvetica,sans-Serif" font-size="10.00">+</text>
<text text-anchor="start" x="17" y="-299" font-family="Helvetica,sans-Serif" font-size="10.00">get_return_object()</text>
<text text-anchor="start" x="4" y="-284" font-family="Helvetica,sans-Serif" font-size="10.00">+</text>
<text text-anchor="start" x="17" y="-284" font-family="Helvetica,sans-Serif" font-size="10.00">get_state()</text>
<text text-anchor="start" x="4" y="-269" font-family="Helvetica,sans-Serif" font-size="10.00">+</text>
<text text-anchor="start" x="17" y="-269" font-family="Helvetica,sans-Serif" font-size="10.00">initial_suspend()</text>
<text text-anchor="start" x="4" y="-254" font-family="Helvetica,sans-Serif" font-size="10.00">+</text>
<text text-anchor="start" x="17" y="-254" font-family="Helvetica,sans-Serif" font-size="10.00">return_void()</text>
<text text-anchor="start" x="4" y="-239" font-family="Helvetica,sans-Serif" font-size="10.00">+</text>
<text text-anchor="start" x="17" y="-239" font-family="Helvetica,sans-Serif" font-size="10.00">set_state()</text>
<text text-anchor="start" x="4" y="-224" font-family="Helvetica,sans-Serif" font-size="10.00">+</text>
<text text-anchor="start" x="17" y="-224" font-family="Helvetica,sans-Serif" font-size="10.00">unhandled_exception()</text>
<polygon fill="#666666" stroke="#666666" points="0,-429 0,-429 148,-429 148,-429 0,-429"/>
<polygon fill="#666666" stroke="#666666" points="0,-339 0,-339 15,-339 15,-339 0,-339"/>
<polygon fill="#666666" stroke="#666666" points="15,-339 15,-339 148,-339 148,-339 15,-339"/>
<polygon fill="none" stroke="#666666" points="0,-217 0,-457 148,-457 148,-217 0,-217"/>
</a>
</g>
</g>
<!-- Node1&#45;&gt;Node2 -->
<g id="edge1_Node000001_Node000002" class="edge">
<title>Node1&#45;&gt;Node2</title>
<g id="a_edge1_Node000001_Node000002"><a xlink:title=" ">
<path fill="none" stroke="orange" d="M323.05,-578.38C271.7,-548.3 206.39,-505.36 157,-457 154.03,-454.09 151.1,-451.06 148.21,-447.95"/>
<polygon fill="orange" stroke="orange" points="321.4,-581.47 331.81,-583.47 324.92,-575.42 321.4,-581.47"/>
</a>
</g>
<text text-anchor="middle" x="235" y="-478" font-family="Helvetica,sans-Serif" font-size="10.00" fill="grey"> &lt; SoundRoutine &gt;</text>
</g>
<!-- Node4 -->
<g id="Node000004" class="node">
<title>Node4</title>
<g id="a_Node000004"><a xlink:href="structMayaFlux_1_1Vruta_1_1routine__promise.html" target="_top" xlink:title=" ">
<polygon fill="white" stroke="transparent" points="314,-457 166,-457 166,-217 314,-217 314,-457"/>
<text text-anchor="start" x="176.5" y="-445" font-family="Helvetica,sans-Serif" font-size="10.00">MayaFlux::Vruta::routine</text>
<text text-anchor="start" x="176.5" y="-434" font-family="Helvetica,sans-Serif" font-size="10.00">_promise&lt; FreeRoutine &gt;</text>
<text text-anchor="start" x="170" y="-419" font-family="Helvetica,sans-Serif" font-size="10.00">+</text>
<text text-anchor="start" x="183" y="-419" font-family="Helvetica,sans-Serif" font-size="10.00">auto_resume</text>
<text text-anchor="start" x="170" y="-404" font-family="Helvetica,sans-Serif" font-size="10.00">+</text>
<text text-anchor="start" x="183" y="-404" font-family="Helvetica,sans-Serif" font-size="10.00">delay_amount</text>
<text text-anchor="start" x="170" y="-389" font-family="Helvetica,sans-Serif" font-size="10.00">+</text>
<text text-anchor="start" x="183" y="-389" font-family="Helvetica,sans-Serif" font-size="10.00">processing_token</text>
<text text-anchor="start" x="170" y="-374" font-family="Helvetica,sans-Serif" font-size="10.00">+</text>
<text text-anchor="start" x="183" y="-374" font-family="Helvetica,sans-Serif" font-size="10.00">should_terminate</text>
<text text-anchor="start" x="170" y="-359" font-family="Helvetica,sans-Serif" font-size="10.00">+</text>
<text text-anchor="start" x="183" y="-359" font-family="Helvetica,sans-Serif" font-size="10.00">state</text>
<text text-anchor="start" x="170" y="-344" font-family="Helvetica,sans-Serif" font-size="10.00">+</text>
<text text-anchor="start" x="183" y="-344" font-family="Helvetica,sans-Serif" font-size="10.00">sync_to_clock</text>
<text text-anchor="start" x="170" y="-329" font-family="Helvetica,sans-Serif" font-size="10.00">+</text>
<text text-anchor="start" x="183" y="-329" font-family="Helvetica,sans-Serif" font-size="10.00">domain_mismatch_error()</text>
<text text-anchor="start" x="170" y="-314" font-family="Helvetica,sans-Serif" font-size="10.00">+</text>
<text text-anchor="start" x="183" y="-314" font-family="Helvetica,sans-Serif" font-size="10.00">final_suspend()</text>
<text text-anchor="start" x="170" y="-299" font-family="Helvetica,sans-Serif" font-size="10.00">+</text>
<text text-anchor="start" x="183" y="-299" font-family="Helvetica,sans-Serif" font-size="10.00">get_return_object()</text>
<text text-anchor="start" x="170" y="-284" font-family="Helvetica,sans-Serif" font-size="10.00">+</text>
<text text-anchor="start" x="183" y="-284" font-family="Helvetica,sans-Serif" font-size="10.00">get_state()</text>
<text text-anchor="start" x="170" y="-269" font-family="Helvetica,sans-Serif" font-size="10.00">+</text>
<text text-anchor="start" x="183" y="-269" font-family="Helvetica,sans-Serif" font-size="10.00">initial_suspend()</text>
<text text-anchor="start" x="170" y="-254" font-family="Helvetica,sans-Serif" font-size="10.00">+</text>
<text text-anchor="start" x="183" y="-254" font-family="Helvetica,sans-Serif" font-size="10.00">return_void()</text>
<text text-anchor="start" x="170" y="-239" font-family="Helvetica,sans-Serif" font-size="10.00">+</text>
<text text-anchor="start" x="183" y="-239" font-family="Helvetica,sans-Serif" font-size="10.00">set_state()</text>
<text text-anchor="start" x="170" y="-224" font-family="Helvetica,sans-Serif" font-size="10.00">+</text>
<text text-anchor="start" x="183" y="-224" font-family="Helvetica,sans-Serif" font-size="10.00">unhandled_exception()</text>
<polygon fill="#666666" stroke="#666666" points="166,-429 166,-429 314,-429 314,-429 166,-429"/>
<polygon fill="#666666" stroke="#666666" points="166,-339 166,-339 181,-339 181,-339 166,-339"/>
<polygon fill="#666666" stroke="#666666" points="181,-339 181,-339 314,-339 314,-339 181,-339"/>
<polygon fill="none" stroke="#666666" points="166,-217 166,-457 314,-457 314,-217 166,-217"/>
</a>
</g>
</g>
<!-- Node1&#45;&gt;Node4 -->
<g id="edge3_Node000001_Node000004" class="edge">
<title>Node1&#45;&gt;Node4</title>
<g id="a_edge3_Node000001_Node000004"><a xlink:title=" ">
<path fill="none" stroke="orange" d="M326.35,-501.73C323.15,-496.44 320.02,-491.18 317,-486 311.6,-476.74 306.16,-467.07 300.79,-457.29"/>
<polygon fill="orange" stroke="orange" points="323.59,-503.93 331.79,-510.65 329.57,-500.29 323.59,-503.93"/>
</a>
</g>
<text text-anchor="middle" x="359.5" y="-478" font-family="Helvetica,sans-Serif" font-size="10.00" fill="grey"> &lt; FreeRoutine &gt;</text>
</g>
<!-- Node6 -->
<g id="Node000006" class="node">
<title>Node6</title>
<g id="a_Node000006"><a xlink:href="structMayaFlux_1_1Vruta_1_1routine__promise.html" target="_top" xlink:title=" ">
<polygon fill="white" stroke="transparent" points="480,-457 332,-457 332,-217 480,-217 480,-457"/>
<text text-anchor="start" x="339.5" y="-445" font-family="Helvetica,sans-Serif" font-size="10.00">MayaFlux::Vruta::routine</text>
<text text-anchor="start" x="339.5" y="-434" font-family="Helvetica,sans-Serif" font-size="10.00">_promise&lt; CrossRoutine &gt;</text>
<text text-anchor="start" x="336" y="-419" font-family="Helvetica,sans-Serif" font-size="10.00">+</text>
<text text-anchor="start" x="349" y="-419" font-family="Helvetica,sans-Serif" font-size="10.00">auto_resume</text>
<text text-anchor="start" x="336" y="-404" font-family="Helvetica,sans-Serif" font-size="10.00">+</text>
<text text-anchor="start" x="349" y="-404" font-family="Helvetica,sans-Serif" font-size="10.00">delay_amount</text>
<text text-anchor="start" x="336" y="-389" font-family="Helvetica,sans-Serif" font-size="10.00">+</text>
<text text-anchor="start" x="349" y="-389" font-family="Helvetica,sans-Serif" font-size="10.00">processing_token</text>
<text text-anchor="start" x="336" y="-374" font-family="Helvetica,sans-Serif" font-size="10.00">+</text>
<text text-anchor="start" x="349" y="-374" font-family="Helvetica,sans-Serif" font-size="10.00">should_terminate</text>
<text text-anchor="start" x="336" y="-359" font-family="Helvetica,sans-Serif" font-size="10.00">+</text>
<text text-anchor="start" x="349" y="-359" font-family="Helvetica,sans-Serif" font-size="10.00">state</text>
<text text-anchor="start" x="336" y="-344" font-family="Helvetica,sans-Serif" font-size="10.00">+</text>
<text text-anchor="start" x="349" y="-344" font-family="Helvetica,sans-Serif" font-size="10.00">sync_to_clock</text>
<text text-anchor="start" x="336" y="-329" font-family="Helvetica,sans-Serif" font-size="10.00">+</text>
<text text-anchor="start" x="349" y="-329" font-family="Helvetica,sans-Serif" font-size="10.00">domain_mismatch_error()</text>
<text text-anchor="start" x="336" y="-314" font-family="Helvetica,sans-Serif" font-size="10.00">+</text>
<text text-anchor="start" x="349" y="-314" font-family="Helvetica,sans-Serif" font-size="10.00">final_suspend()</text>
<text text-anchor="start" x="336" y="-299" font-family="Helvetica,sans-Serif" font-size="10.00">+</text>
<text text-anchor="start" x="349" y="-299" font-family="Helvetica,sans-Serif" font-size="10.00">get_return_object()</text>
<text text-anchor="start" x="336" y="-284" font-family="Helvetica,sans-Serif" font-size="10.00">+</text>
<text text-anchor="start" x="349" y="-284" font-family="Helvetica,sans-Serif" font-size="10.00">get_state()</text>
<text text-anchor="start" x="336" y="-269" font-family="Helvetica,sans-Serif" font-size="10.00">+</text>
<text text-anchor="start" x="349" y="-269" font-family="Helvetica,sans-Serif" font-size="10.00">initial_suspend()</text>
<text text-anchor="start" x="336" y="-254" font-family="Helvetica,sans-Serif" font-size="10.00">+</text>
<text text-anchor="start" x="349" y="-254" font-family="Helvetica,sans-Serif" font-size="10.00">return_void()</text>
<text text-anchor="start" x="336" y="-239" font-family="Helvetica,sans-Serif" font-size="10.00">+</text>
<text text-anchor="start" x="349" y="-239" font-family="Helvetica,sans-Serif" font-size="10.00">set_state()</text>
<text text-anchor="start" x="336" y="-224" font-family="Helvetica,sans-Serif" font-size="10.00">+</text>
<text text-anchor="start" x="349" y="-224" font-family="Helvetica,sans-Serif" font-size="10.00">unhandled_exception()</text>
<polygon fill="#666666" stroke="#666666" points="332,-429 332,-429 480,-429 480,-429 332,-429"/>
<polygon fill="#666666" stroke="#666666" points="332,-339 332,-339 347,-339 347,-339 332,-339"/>
<polygon fill="#666666" stroke="#666666" points="347,-339 347,-339 480,-339 480,-339 347,-339"/>
<polygon fill="none" stroke="#666666" points="332,-217 332,-457 480,-457 480,-217 332,-217"/>
</a>
</g>
</g>
<!-- Node1&#45;&gt;Node6 -->
<g id="edge5_Node000001_Node000006" class="edge">
<title>Node1&#45;&gt;Node6</title>
<g id="a_edge5_Node000001_Node000006"><a xlink:title=" ">
<path fill="none" stroke="orange" d="M406,-493.63C406,-481.49 406,-469.23 406,-457.19"/>
<polygon fill="orange" stroke="orange" points="402.5,-493.79 406,-503.79 409.5,-493.79 402.5,-493.79"/>
</a>
</g>
<text text-anchor="middle" x="451.5" y="-478" font-family="Helvetica,sans-Serif" font-size="10.00" fill="grey"> &lt; CrossRoutine &gt;</text>
</g>
<!-- Node8 -->
<g id="Node000008" class="node">
<title>Node8</title>
<g id="a_Node000008"><a xlink:href="structMayaFlux_1_1Vruta_1_1routine__promise.html" target="_top" xlink:title=" ">
<polygon fill="white" stroke="transparent" points="646,-457 498,-457 498,-217 646,-217 646,-457"/>
<text text-anchor="start" x="511.5" y="-445" font-family="Helvetica,sans-Serif" font-size="10.00">MayaFlux::Vruta::routine</text>
<text text-anchor="start" x="524" y="-434" font-family="Helvetica,sans-Serif" font-size="10.00">_promise&lt; Event &gt;</text>
<text text-anchor="start" x="502" y="-419" font-family="Helvetica,sans-Serif" font-size="10.00">+</text>
<text text-anchor="start" x="515" y="-419" font-family="Helvetica,sans-Serif" font-size="10.00">auto_resume</text>
<text text-anchor="start" x="502" y="-404" font-family="Helvetica,sans-Serif" font-size="10.00">+</text>
<text text-anchor="start" x="515" y="-404" font-family="Helvetica,sans-Serif" font-size="10.00">delay_amount</text>
<text text-anchor="start" x="502" y="-389" font-family="Helvetica,sans-Serif" font-size="10.00">+</text>
<text text-anchor="start" x="515" y="-389" font-family="Helvetica,sans-Serif" font-size="10.00">processing_token</text>
<text text-anchor="start" x="502" y="-374" font-family="Helvetica,sans-Serif" font-size="10.00">+</text>
<text text-anchor="start" x="515" y="-374" font-family="Helvetica,sans-Serif" font-size="10.00">should_terminate</text>
<text text-anchor="start" x="502" y="-359" font-family="Helvetica,sans-Serif" font-size="10.00">+</text>
<text text-anchor="start" x="515" y="-359" font-family="Helvetica,sans-Serif" font-size="10.00">state</text>
<text text-anchor="start" x="502" y="-344" font-family="Helvetica,sans-Serif" font-size="10.00">+</text>
<text text-anchor="start" x="515" y="-344" font-family="Helvetica,sans-Serif" font-size="10.00">sync_to_clock</text>
<text text-anchor="start" x="502" y="-329" font-family="Helvetica,sans-Serif" font-size="10.00">+</text>
<text text-anchor="start" x="515" y="-329" font-family="Helvetica,sans-Serif" font-size="10.00">domain_mismatch_error()</text>
<text text-anchor="start" x="502" y="-314" font-family="Helvetica,sans-Serif" font-size="10.00">+</text>
<text text-anchor="start" x="515" y="-314" font-family="Helvetica,sans-Serif" font-size="10.00">final_suspend()</text>
<text text-anchor="start" x="502" y="-299" font-family="Helvetica,sans-Serif" font-size="10.00">+</text>
<text text-anchor="start" x="515" y="-299" font-family="Helvetica,sans-Serif" font-size="10.00">get_return_object()</text>
<text text-anchor="start" x="502" y="-284" font-family="Helvetica,sans-Serif" font-size="10.00">+</text>
<text text-anchor="start" x="515" y="-284" font-family="Helvetica,sans-Serif" font-size="10.00">get_state()</text>
<text text-anchor="start" x="502" y="-269" font-family="Helvetica,sans-Serif" font-size="10.00">+</text>
<text text-anchor="start" x="515" y="-269" font-family="Helvetica,sans-Serif" font-size="10.00">initial_suspend()</text>
<text text-anchor="start" x="502" y="-254" font-family="Helvetica,sans-Serif" font-size="10.00">+</text>
<text text-anchor="start" x="515" y="-254" font-family="Helvetica,sans-Serif" font-size="10.00">return_void()</text>
<text text-anchor="start" x="502" y="-239" font-family="Helvetica,sans-Serif" font-size="10.00">+</text>
<text text-anchor="start" x="515" y="-239" font-family="Helvetica,sans-Serif" font-size="10.00">set_state()</text>
<text text-anchor="start" x="502" y="-224" font-family="Helvetica,sans-Serif" font-size="10.00">+</text>
<text text-anchor="start" x="515" y="-224" font-family="Helvetica,sans-Serif" font-size="10.00">unhandled_exception()</text>
<polygon fill="#666666" stroke="#666666" points="498,-429 498,-429 646,-429 646,-429 498,-429"/>
<polygon fill="#666666" stroke="#666666" points="498,-339 498,-339 513,-339 513,-339 498,-339"/>
<polygon fill="#666666" stroke="#666666" points="513,-339 513,-339 646,-339 646,-339 513,-339"/>
<polygon fill="none" stroke="#666666" points="498,-217 498,-457 646,-457 646,-217 498,-217"/>
</a>
</g>
</g>
<!-- Node1&#45;&gt;Node8 -->
<g id="edge7_Node000001_Node000008" class="edge">
<title>Node1&#45;&gt;Node8</title>
<g id="a_edge7_Node000001_Node000008"><a xlink:title=" ">
<path fill="none" stroke="orange" d="M485.56,-511.32C490.94,-502.85 496.14,-494.35 501,-486 506.37,-476.76 511.7,-467.05 516.87,-457.21"/>
<polygon fill="orange" stroke="orange" points="482.59,-509.47 480.13,-519.78 488.48,-513.26 482.59,-509.47"/>
</a>
</g>
<text text-anchor="middle" x="533" y="-478" font-family="Helvetica,sans-Serif" font-size="10.00" fill="grey"> &lt; Event &gt;</text>
</g>
<!-- Node10 -->
<g id="Node000010" class="node">
<title>Node10</title>
<g id="a_Node000010"><a xlink:href="structMayaFlux_1_1Vruta_1_1routine__promise.html" target="_top" xlink:title=" ">
<polygon fill="white" stroke="transparent" points="822,-457 664,-457 664,-217 822,-217 822,-457"/>
<text text-anchor="start" x="669" y="-445" font-family="Helvetica,sans-Serif" font-size="10.00">MayaFlux::Vruta::routine</text>
<text text-anchor="start" x="669" y="-434" font-family="Helvetica,sans-Serif" font-size="10.00">_promise&lt; GraphicsRoutine &gt;</text>
<text text-anchor="start" x="670.5" y="-419" font-family="Helvetica,sans-Serif" font-size="10.00">+</text>
<text text-anchor="start" x="686" y="-419" font-family="Helvetica,sans-Serif" font-size="10.00">auto_resume</text>
<text text-anchor="start" x="670.5" y="-404" font-family="Helvetica,sans-Serif" font-size="10.00">+</text>
<text text-anchor="start" x="686" y="-404" font-family="Helvetica,sans-Serif" font-size="10.00">delay_amount</text>
<text text-anchor="start" x="670.5" y="-389" font-family="Helvetica,sans-Serif" font-size="10.00">+</text>
<text text-anchor="start" x="686" y="-389" font-family="Helvetica,sans-Serif" font-size="10.00">processing_token</text>
<text text-anchor="start" x="670.5" y="-374" font-family="Helvetica,sans-Serif" font-size="10.00">+</text>
<text text-anchor="start" x="686" y="-374" font-family="Helvetica,sans-Serif" font-size="10.00">should_terminate</text>
<text text-anchor="start" x="670.5" y="-359" font-family="Helvetica,sans-Serif" font-size="10.00">+</text>
<text text-anchor="start" x="686" y="-359" font-family="Helvetica,sans-Serif" font-size="10.00">state</text>
<text text-anchor="start" x="670.5" y="-344" font-family="Helvetica,sans-Serif" font-size="10.00">+</text>
<text text-anchor="start" x="686" y="-344" font-family="Helvetica,sans-Serif" font-size="10.00">sync_to_clock</text>
<text text-anchor="start" x="670.5" y="-329" font-family="Helvetica,sans-Serif" font-size="10.00">+</text>
<text text-anchor="start" x="686" y="-329" font-family="Helvetica,sans-Serif" font-size="10.00">domain_mismatch_error()</text>
<text text-anchor="start" x="670.5" y="-314" font-family="Helvetica,sans-Serif" font-size="10.00">+</text>
<text text-anchor="start" x="686" y="-314" font-family="Helvetica,sans-Serif" font-size="10.00">final_suspend()</text>
<text text-anchor="start" x="670.5" y="-299" font-family="Helvetica,sans-Serif" font-size="10.00">+</text>
<text text-anchor="start" x="686" y="-299" font-family="Helvetica,sans-Serif" font-size="10.00">get_return_object()</text>
<text text-anchor="start" x="670.5" y="-284" font-family="Helvetica,sans-Serif" font-size="10.00">+</text>
<text text-anchor="start" x="686" y="-284" font-family="Helvetica,sans-Serif" font-size="10.00">get_state()</text>
<text text-anchor="start" x="670.5" y="-269" font-family="Helvetica,sans-Serif" font-size="10.00">+</text>
<text text-anchor="start" x="686" y="-269" font-family="Helvetica,sans-Serif" font-size="10.00">initial_suspend()</text>
<text text-anchor="start" x="670.5" y="-254" font-family="Helvetica,sans-Serif" font-size="10.00">+</text>
<text text-anchor="start" x="686" y="-254" font-family="Helvetica,sans-Serif" font-size="10.00">return_void()</text>
<text text-anchor="start" x="670.5" y="-239" font-family="Helvetica,sans-Serif" font-size="10.00">+</text>
<text text-anchor="start" x="686" y="-239" font-family="Helvetica,sans-Serif" font-size="10.00">set_state()</text>
<text text-anchor="start" x="670.5" y="-224" font-family="Helvetica,sans-Serif" font-size="10.00">+</text>
<text text-anchor="start" x="686" y="-224" font-family="Helvetica,sans-Serif" font-size="10.00">unhandled_exception()</text>
<polygon fill="#666666" stroke="#666666" points="664,-429 664,-429 822,-429 822,-429 664,-429"/>
<polygon fill="#666666" stroke="#666666" points="664,-339 664,-339 684,-339 684,-339 664,-339"/>
<polygon fill="#666666" stroke="#666666" points="684,-339 684,-339 822,-339 822,-339 684,-339"/>
<polygon fill="none" stroke="#666666" points="664,-217 664,-457 822,-457 822,-217 664,-217"/>
</a>
</g>
</g>
<!-- Node1&#45;&gt;Node10 -->
<g id="edge9_Node000001_Node000010" class="edge">
<title>Node1&#45;&gt;Node10</title>
<g id="a_edge9_Node000001_Node000010"><a xlink:title=" ">
<path fill="none" stroke="orange" d="M488.77,-577.74C539.89,-547.48 605.03,-504.59 655,-457 657.98,-454.16 660.93,-451.22 663.84,-448.19"/>
<polygon fill="orange" stroke="orange" points="486.89,-574.78 480.04,-582.86 490.44,-580.82 486.89,-574.78"/>
</a>
</g>
<text text-anchor="middle" x="684" y="-478" font-family="Helvetica,sans-Serif" font-size="10.00" fill="grey"> &lt; GraphicsRoutine &gt;</text>
</g>
<!-- Node3 -->
<g id="Node000003" class="node">
<title>Node3</title>
<g id="a_Node000003"><a xlink:href="structMayaFlux_1_1Vruta_1_1audio__promise.html" target="_top" xlink:title="Coroutine promise type for audio processing tasks with sample&#45;accurate timing.">
<polygon fill="white" stroke="transparent" points="137,-150 11,-150 11,-30 137,-30 137,-150"/>
<text text-anchor="start" x="17" y="-138" font-family="Helvetica,sans-Serif" font-size="10.00">MayaFlux::Vruta::audio</text>
<text text-anchor="start" x="51" y="-127" font-family="Helvetica,sans-Serif" font-size="10.00">_promise</text>
<text text-anchor="start" x="15" y="-112" font-family="Helvetica,sans-Serif" font-size="10.00">+</text>
<text text-anchor="start" x="28" y="-112" font-family="Helvetica,sans-Serif" font-size="10.00">active_delay_context</text>
<text text-anchor="start" x="15" y="-97" font-family="Helvetica,sans-Serif" font-size="10.00">+</text>
<text text-anchor="start" x="28" y="-97" font-family="Helvetica,sans-Serif" font-size="10.00">next_buffer_cycle</text>
<text text-anchor="start" x="15" y="-82" font-family="Helvetica,sans-Serif" font-size="10.00">+</text>
<text text-anchor="start" x="28" y="-82" font-family="Helvetica,sans-Serif" font-size="10.00">next_sample</text>
<text text-anchor="start" x="15" y="-67" font-family="Helvetica,sans-Serif" font-size="10.00">+</text>
<text text-anchor="start" x="28" y="-67" font-family="Helvetica,sans-Serif" font-size="10.00">processing_token</text>
<text text-anchor="start" x="15" y="-52" font-family="Helvetica,sans-Serif" font-size="10.00">+</text>
<text text-anchor="start" x="28" y="-52" font-family="Helvetica,sans-Serif" font-size="10.00">sync_to_clock</text>
<text text-anchor="start" x="15" y="-37" font-family="Helvetica,sans-Serif" font-size="10.00">+</text>
<text text-anchor="start" x="28" y="-37" font-family="Helvetica,sans-Serif" font-size="10.00">get_return_object()</text>
<polygon fill="#666666" stroke="#666666" points="11,-122 11,-122 137,-122 137,-122 11,-122"/>
<polygon fill="#666666" stroke="#666666" points="11,-47 11,-47 26,-47 26,-47 11,-47"/>
<polygon fill="#666666" stroke="#666666" points="26,-47 26,-47 137,-47 137,-47 26,-47"/>
<polygon fill="none" stroke="#666666" points="11,-30 11,-150 137,-150 137,-30 11,-30"/>
</a>
</g>
</g>
<!-- Node2&#45;&gt;Node3 -->
<g id="edge2_Node000002_Node000003" class="edge">
<title>Node2&#45;&gt;Node3</title>
<g id="a_edge2_Node000002_Node000003"><a xlink:title=" ">
<path fill="none" stroke="#63b8ff" d="M74,-206.7C74,-186.95 74,-167.42 74,-150.2"/>
<polygon fill="none" stroke="#63b8ff" points="70.5,-206.73 74,-216.73 77.5,-206.73 70.5,-206.73"/>
</a>
</g>
</g>
<!-- Node5 -->
<g id="Node000005" class="node">
<title>Node5</title>
<g id="a_Node000005"><a xlink:href="structMayaFlux_1_1Vruta_1_1conditional__promise.html" target="_top" xlink:title="Coroutine promise for routines suspended on an arbitrary boolean condition.">
<polygon fill="white" stroke="transparent" points="315.5,-135 164.5,-135 164.5,-45 315.5,-45 315.5,-135"/>
<text text-anchor="start" x="170" y="-123" font-family="Helvetica,sans-Serif" font-size="10.00">MayaFlux::Vruta::conditional</text>
<text text-anchor="start" x="217.5" y="-112" font-family="Helvetica,sans-Serif" font-size="10.00">_promise</text>
<text text-anchor="start" x="178" y="-97" font-family="Helvetica,sans-Serif" font-size="10.00">+</text>
<text text-anchor="start" x="200" y="-97" font-family="Helvetica,sans-Serif" font-size="10.00">armed</text>
<text text-anchor="start" x="178" y="-82" font-family="Helvetica,sans-Serif" font-size="10.00">+</text>
<text text-anchor="start" x="200" y="-82" font-family="Helvetica,sans-Serif" font-size="10.00">condition</text>
<text text-anchor="start" x="178" y="-67" font-family="Helvetica,sans-Serif" font-size="10.00">+</text>
<text text-anchor="start" x="200" y="-67" font-family="Helvetica,sans-Serif" font-size="10.00">processing_token</text>
<text text-anchor="start" x="178" y="-52" font-family="Helvetica,sans-Serif" font-size="10.00">+</text>
<text text-anchor="start" x="200" y="-52" font-family="Helvetica,sans-Serif" font-size="10.00">get_return_object()</text>
<polygon fill="#666666" stroke="#666666" points="165,-107 165,-107 316,-107 316,-107 165,-107"/>
<polygon fill="#666666" stroke="#666666" points="165,-62 165,-62 198,-62 198,-62 165,-62"/>
<polygon fill="#666666" stroke="#666666" points="198,-62 198,-62 316,-62 316,-62 198,-62"/>
<polygon fill="none" stroke="#666666" points="164.5,-45 164.5,-135 315.5,-135 315.5,-45 164.5,-45"/>
</a>
</g>
</g>
<!-- Node4&#45;&gt;Node5 -->
<g id="edge4_Node000004_Node000005" class="edge">
<title>Node4&#45;&gt;Node5</title>
<g id="a_edge4_Node000004_Node000005"><a xlink:title=" ">
<path fill="none" stroke="#63b8ff" d="M240,-206.46C240,-180.71 240,-155.37 240,-135.02"/>
<polygon fill="none" stroke="#63b8ff" points="236.5,-206.73 240,-216.73 243.5,-206.73 236.5,-206.73"/>
</a>
</g>
</g>
<!-- Node7 -->
<g id="Node000007" class="node">
<title>Node7</title>
<g id="a_Node000007"><a xlink:href="structMayaFlux_1_1Vruta_1_1cross__promise.html" target="_top" xlink:title="Coroutine promise for routines resumed by more than one clock.">
<polygon fill="white" stroke="transparent" points="472.5,-180 339.5,-180 339.5,0 472.5,0 472.5,-180"/>
<text text-anchor="start" x="350.5" y="-168" font-family="Helvetica,sans-Serif" font-size="10.00">MayaFlux::Vruta::cross</text>
<text text-anchor="start" x="383.5" y="-157" font-family="Helvetica,sans-Serif" font-size="10.00">_promise</text>
<text text-anchor="start" x="344" y="-142" font-family="Helvetica,sans-Serif" font-size="10.00">+</text>
<text text-anchor="start" x="357" y="-142" font-family="Helvetica,sans-Serif" font-size="10.00">active_delay_context</text>
<text text-anchor="start" x="344" y="-127" font-family="Helvetica,sans-Serif" font-size="10.00">+</text>
<text text-anchor="start" x="357" y="-127" font-family="Helvetica,sans-Serif" font-size="10.00">frame_delay_amount</text>
<text text-anchor="start" x="344" y="-112" font-family="Helvetica,sans-Serif" font-size="10.00">+</text>
<text text-anchor="start" x="357" y="-112" font-family="Helvetica,sans-Serif" font-size="10.00">frame_satisfied</text>
<text text-anchor="start" x="344" y="-97" font-family="Helvetica,sans-Serif" font-size="10.00">+</text>
<text text-anchor="start" x="357" y="-97" font-family="Helvetica,sans-Serif" font-size="10.00">next_frame</text>
<text text-anchor="start" x="344" y="-82" font-family="Helvetica,sans-Serif" font-size="10.00">+</text>
<text text-anchor="start" x="357" y="-82" font-family="Helvetica,sans-Serif" font-size="10.00">next_sample</text>
<text text-anchor="start" x="344" y="-67" font-family="Helvetica,sans-Serif" font-size="10.00">+</text>
<text text-anchor="start" x="357" y="-67" font-family="Helvetica,sans-Serif" font-size="10.00">processing_token</text>
<text text-anchor="start" x="344" y="-52" font-family="Helvetica,sans-Serif" font-size="10.00">+</text>
<text text-anchor="start" x="357" y="-52" font-family="Helvetica,sans-Serif" font-size="10.00">sample_delay_amount</text>
<text text-anchor="start" x="344" y="-37" font-family="Helvetica,sans-Serif" font-size="10.00">+</text>
<text text-anchor="start" x="357" y="-37" font-family="Helvetica,sans-Serif" font-size="10.00">sample_satisfied</text>
<text text-anchor="start" x="344" y="-22" font-family="Helvetica,sans-Serif" font-size="10.00">+</text>
<text text-anchor="start" x="357" y="-22" font-family="Helvetica,sans-Serif" font-size="10.00">sync_to_clock</text>
<text text-anchor="start" x="344" y="-7" font-family="Helvetica,sans-Serif" font-size="10.00">+</text>
<text text-anchor="start" x="357" y="-7" font-family="Helvetica,sans-Serif" font-size="10.00">get_return_object()</text>
<polygon fill="#666666" stroke="#666666" points="340,-152 340,-152 473,-152 473,-152 340,-152"/>
<polygon fill="#666666" stroke="#666666" points="340,-17 340,-17 355,-17 355,-17 340,-17"/>
<polygon fill="#666666" stroke="#666666" points="355,-17 355,-17 473,-17 473,-17 355,-17"/>
<polygon fill="none" stroke="#666666" points="339.5,0 339.5,-180 472.5,-180 472.5,0 339.5,0"/>
</a>
</g>
</g>
<!-- Node6&#45;&gt;Node7 -->
<g id="edge6_Node000006_Node000007" class="edge">
<title>Node6&#45;&gt;Node7</title>
<g id="a_edge6_Node000006_Node000007"><a xlink:title=" ">
<path fill="none" stroke="#63b8ff" d="M406,-206.65C406,-197.73 406,-188.85 406,-180.22"/>
<polygon fill="none" stroke="#63b8ff" points="402.5,-206.73 406,-216.73 409.5,-206.73 402.5,-206.73"/>
</a>
</g>
</g>
<!-- Node9 -->
<g id="Node000009" class="node">
<title>Node9</title>
<g id="a_Node000009"><a xlink:href="structMayaFlux_1_1Vruta_1_1event__promise.html" target="_top" xlink:title=" ">
<polygon fill="white" stroke="transparent" points="635,-142.5 509,-142.5 509,-37.5 635,-37.5 635,-142.5"/>
<text text-anchor="start" x="514.5" y="-130" font-family="Helvetica,sans-Serif" font-size="10.00">MayaFlux::Vruta::event</text>
<text text-anchor="start" x="549" y="-119" font-family="Helvetica,sans-Serif" font-size="10.00">_promise</text>
<text text-anchor="start" x="513" y="-104" font-family="Helvetica,sans-Serif" font-size="10.00">+</text>
<text text-anchor="start" x="526" y="-104" font-family="Helvetica,sans-Serif" font-size="10.00">active_delay_context</text>
<text text-anchor="start" x="513" y="-89" font-family="Helvetica,sans-Serif" font-size="10.00">+</text>
<text text-anchor="start" x="526" y="-89" font-family="Helvetica,sans-Serif" font-size="10.00">owned_sources</text>
<text text-anchor="start" x="513" y="-74" font-family="Helvetica,sans-Serif" font-size="10.00">+</text>
<text text-anchor="start" x="526" y="-74" font-family="Helvetica,sans-Serif" font-size="10.00">processing_token</text>
<text text-anchor="start" x="513" y="-59" font-family="Helvetica,sans-Serif" font-size="10.00">+</text>
<text text-anchor="start" x="526" y="-59" font-family="Helvetica,sans-Serif" font-size="10.00">get_return_object()</text>
<text text-anchor="start" x="513" y="-44" font-family="Helvetica,sans-Serif" font-size="10.00">+</text>
<text text-anchor="start" x="526" y="-44" font-family="Helvetica,sans-Serif" font-size="10.00">own()</text>
<polygon fill="#666666" stroke="#666666" points="509,-114 509,-114 635,-114 635,-114 509,-114"/>
<polygon fill="#666666" stroke="#666666" points="509,-69 509,-69 524,-69 524,-69 509,-69"/>
<polygon fill="#666666" stroke="#666666" points="524,-69 524,-69 635,-69 635,-69 524,-69"/>
<polygon fill="none" stroke="#666666" points="509,-37.5 509,-142.5 635,-142.5 635,-37.5 509,-37.5"/>
</a>
</g>
</g>
<!-- Node8&#45;&gt;Node9 -->
<g id="edge8_Node000008_Node000009" class="edge">
<title>Node8&#45;&gt;Node9</title>
<g id="a_edge8_Node000008_Node000009"><a xlink:title=" ">
<path fill="none" stroke="#63b8ff" d="M572,-206.66C572,-184 572,-161.65 572,-142.73"/>
<polygon fill="none" stroke="#63b8ff" points="568.5,-206.73 572,-216.73 575.5,-206.73 568.5,-206.73"/>
</a>
</g>
</g>
<!-- Node11 -->
<g id="Node000011" class="node">
<title>Node11</title>
<g id="a_Node000011"><a xlink:href="structMayaFlux_1_1Vruta_1_1graphics__promise.html" target="_top" xlink:title="Coroutine promise type for graphics processing tasks with frame&#45;accurate timing.">
<polygon fill="white" stroke="transparent" points="812,-150 674,-150 674,-30 812,-30 812,-150"/>
<text text-anchor="start" x="679" y="-138" font-family="Helvetica,sans-Serif" font-size="10.00">MayaFlux::Vruta::graphics</text>
<text text-anchor="start" x="720" y="-127" font-family="Helvetica,sans-Serif" font-size="10.00">_promise</text>
<text text-anchor="start" x="681" y="-112" font-family="Helvetica,sans-Serif" font-size="10.00">+</text>
<text text-anchor="start" x="697" y="-112" font-family="Helvetica,sans-Serif" font-size="10.00">active_delay_context</text>
<text text-anchor="start" x="681" y="-97" font-family="Helvetica,sans-Serif" font-size="10.00">+</text>
<text text-anchor="start" x="697" y="-97" font-family="Helvetica,sans-Serif" font-size="10.00">delay_amount</text>
<text text-anchor="start" x="681" y="-82" font-family="Helvetica,sans-Serif" font-size="10.00">+</text>
<text text-anchor="start" x="697" y="-82" font-family="Helvetica,sans-Serif" font-size="10.00">next_frame</text>
<text text-anchor="start" x="681" y="-67" font-family="Helvetica,sans-Serif" font-size="10.00">+</text>
<text text-anchor="start" x="697" y="-67" font-family="Helvetica,sans-Serif" font-size="10.00">processing_token</text>
<text text-anchor="start" x="681" y="-52" font-family="Helvetica,sans-Serif" font-size="10.00">+</text>
<text text-anchor="start" x="697" y="-52" font-family="Helvetica,sans-Serif" font-size="10.00">sync_to_clock</text>
<text text-anchor="start" x="681" y="-37" font-family="Helvetica,sans-Serif" font-size="10.00">+</text>
<text text-anchor="start" x="697" y="-37" font-family="Helvetica,sans-Serif" font-size="10.00">get_return_object()</text>
<polygon fill="#666666" stroke="#666666" points="674,-122 674,-122 812,-122 812,-122 674,-122"/>
<polygon fill="#666666" stroke="#666666" points="674,-47 674,-47 695,-47 695,-47 674,-47"/>
<polygon fill="#666666" stroke="#666666" points="695,-47 695,-47 812,-47 812,-47 695,-47"/>
<polygon fill="none" stroke="#666666" points="674,-30 674,-150 812,-150 812,-30 674,-30"/>
</a>
</g>
</g>
<!-- Node10&#45;&gt;Node11 -->
<g id="edge10_Node000010_Node000011" class="edge">
<title>Node10&#45;&gt;Node11</title>
<g id="a_edge10_Node000010_Node000011"><a xlink:title=" ">
<path fill="none" stroke="#63b8ff" d="M743,-206.7C743,-186.95 743,-167.42 743,-150.2"/>
<polygon fill="none" stroke="#63b8ff" points="739.5,-206.73 743,-216.73 746.5,-206.73 739.5,-206.73"/>
</a>
</g>
</g>
</g>
</svg>
