<?xml version="1.0" encoding="UTF-8" standalone="no"?>
<!DOCTYPE svg PUBLIC "-//W3C//DTD SVG 1.1//EN"
 "http://www.w3.org/Graphics/SVG/1.1/DTD/svg11.dtd">
<!-- Generated by graphviz version 2.43.0 (0)
 -->
<!-- Title: MayaFlux::Kakshya::Region::set_attribute Pages: 1 -->
<svg width="949pt" height="227pt"
 viewBox="0.00 0.00 949.00 226.50" xmlns="http://www.w3.org/2000/svg" xmlns:xlink="http://www.w3.org/1999/xlink">
<g id="graph0" class="graph" transform="scale(1 1) rotate(0) translate(4 222.5)">
<title>MayaFlux::Kakshya::Region::set_attribute</title>
<!-- Node1 -->
<g id="Node000001" class="node">
<title>Node1</title>
<g id="a_Node000001"><a xlink:title="Set an attribute value by key.">
<polygon fill="#999999" stroke="#666666" points="941,-137.5 822,-137.5 822,-107.5 941,-107.5 941,-137.5"/>
<text text-anchor="start" x="830" y="-125.5" font-family="Helvetica,sans-Serif" font-size="10.00">MayaFlux::Kakshya::</text>
<text text-anchor="middle" x="881.5" y="-114.5" font-family="Helvetica,sans-Serif" font-size="10.00">Region::set_attribute</text>
</a>
</g>
</g>
<!-- Node2 -->
<g id="Node000002" class="node">
<title>Node2</title>
<g id="a_Node000002"><a xlink:href="classMayaFlux_1_1Yantra_1_1Granular_1_1SegmentOp_a0757e5f3164b8094bb48e68bc626a39c.html#a0757e5f3164b8094bb48e68bc626a39c" target="_top" xlink:title=" ">
<polygon fill="white" stroke="#666666" points="786,-218.5 583,-218.5 583,-188.5 786,-188.5 786,-218.5"/>
<text text-anchor="start" x="591" y="-206.5" font-family="Helvetica,sans-Serif" font-size="10.00">MayaFlux::Yantra::Granular</text>
<text text-anchor="middle" x="684.5" y="-195.5" font-family="Helvetica,sans-Serif" font-size="10.00">::SegmentOp::extract_implementation</text>
</a>
</g>
</g>
<!-- Node1&#45;&gt;Node2 -->
<g id="edge1_Node000001_Node000002" class="edge">
<title>Node1&#45;&gt;Node2</title>
<g id="a_edge1_Node000001_Node000002"><a xlink:title=" ">
<path fill="none" stroke="#63b8ff" d="M851.37,-143.3C833.29,-155.37 809.16,-170.02 786,-179.5 777.7,-182.9 768.81,-185.88 759.87,-188.49"/>
<polygon fill="#63b8ff" stroke="#63b8ff" points="853.43,-146.13 859.73,-137.62 849.49,-140.35 853.43,-146.13"/>
</a>
</g>
</g>
<!-- Node3 -->
<g id="Node000003" class="node">
<title>Node3</title>
<g id="a_Node000003"><a xlink:href="structMayaFlux_1_1Kakshya_1_1RegionGroup_adf42d46a861a465e8d191192d947c1a9.html#adf42d46a861a465e8d191192d947c1a9" target="_top" xlink:title="Get the bounding region that contains all regions in the group.">
<polygon fill="white" stroke="#666666" points="760.5,-170 608.5,-170 608.5,-129 760.5,-129 760.5,-170"/>
<text text-anchor="start" x="616.5" y="-158" font-family="Helvetica,sans-Serif" font-size="10.00">MayaFlux::Kakshya::</text>
<text text-anchor="start" x="616.5" y="-147" font-family="Helvetica,sans-Serif" font-size="10.00">RegionGroup::get_bounding</text>
<text text-anchor="middle" x="684.5" y="-136" font-family="Helvetica,sans-Serif" font-size="10.00">_region</text>
</a>
</g>
</g>
<!-- Node1&#45;&gt;Node3 -->
<g id="edge2_Node000001_Node000003" class="edge">
<title>Node1&#45;&gt;Node3</title>
<g id="a_edge2_Node000001_Node000003"><a xlink:title=" ">
<path fill="none" stroke="#63b8ff" d="M811.85,-132.01C795.27,-134.3 777.46,-136.77 760.6,-139.1"/>
<polygon fill="#63b8ff" stroke="#63b8ff" points="812.57,-135.44 821.99,-130.6 811.61,-128.51 812.57,-135.44"/>
</a>
</g>
</g>
<!-- Node4 -->
<g id="Node000004" class="node">
<title>Node4</title>
<g id="a_Node000004"><a xlink:href="structMayaFlux_1_1IO_1_1FileRegion_a3e60dc74e7f6385377e4b66bd154192f.html#a3e60dc74e7f6385377e4b66bd154192f" target="_top" xlink:title="Convert this FileRegion to a Region for use in processing.">
<polygon fill="white" stroke="#666666" points="753.5,-110.5 615.5,-110.5 615.5,-80.5 753.5,-80.5 753.5,-110.5"/>
<text text-anchor="start" x="623.5" y="-98.5" font-family="Helvetica,sans-Serif" font-size="10.00">MayaFlux::IO::FileRegion</text>
<text text-anchor="middle" x="684.5" y="-87.5" font-family="Helvetica,sans-Serif" font-size="10.00">::to_region</text>
</a>
</g>
</g>
<!-- Node1&#45;&gt;Node4 -->
<g id="edge3_Node000001_Node000004" class="edge">
<title>Node1&#45;&gt;Node4</title>
<g id="a_edge3_Node000001_Node000004"><a xlink:title=" ">
<path fill="none" stroke="#63b8ff" d="M811.96,-113.01C793.02,-110.39 772.48,-107.54 753.56,-104.92"/>
<polygon fill="#63b8ff" stroke="#63b8ff" points="811.61,-116.49 821.99,-114.4 812.57,-109.56 811.61,-116.49"/>
</a>
</g>
</g>
<!-- Node5 -->
<g id="Node000005" class="node">
<title>Node5</title>
<g id="a_Node000005"><a xlink:href="structMayaFlux_1_1Kakshya_1_1MeshSubrange_a071a7c376e87b2bff0b57ac03fb9c2c5.html#a071a7c376e87b2bff0b57ac03fb9c2c5" target="_top" xlink:title="Convert this subrange to a Region for use in RegionGroup.">
<polygon fill="white" stroke="#666666" points="754.5,-62.5 614.5,-62.5 614.5,-32.5 754.5,-32.5 754.5,-62.5"/>
<text text-anchor="start" x="622.5" y="-50.5" font-family="Helvetica,sans-Serif" font-size="10.00">MayaFlux::Kakshya::</text>
<text text-anchor="middle" x="684.5" y="-39.5" font-family="Helvetica,sans-Serif" font-size="10.00">MeshSubrange::to_region</text>
</a>
</g>
</g>
<!-- Node1&#45;&gt;Node5 -->
<g id="edge4_Node000001_Node000005" class="edge">
<title>Node1&#45;&gt;Node5</title>
<g id="a_edge4_Node000001_Node000005"><a xlink:title=" ">
<path fill="none" stroke="#63b8ff" d="M848.04,-102.25C830.25,-91.86 807.51,-79.71 786,-71.5 776.03,-67.69 765.26,-64.36 754.61,-61.49"/>
<polygon fill="#63b8ff" stroke="#63b8ff" points="846.47,-105.39 856.85,-107.49 850.04,-99.37 846.47,-105.39"/>
</a>
</g>
</g>
<!-- Node6 -->
<g id="Node000006" class="node">
<title>Node6</title>
<g id="a_Node000006"><a xlink:href="classMayaFlux_1_1IO_1_1ModelReader_a4caf9e31c81e7ac5b07078c38300a6ca.html#a4caf9e31c81e7ac5b07078c38300a6ca" target="_top" xlink:title=" ">
<polygon fill="white" stroke="#666666" points="547,-89.5 395,-89.5 395,-59.5 547,-59.5 547,-89.5"/>
<text text-anchor="start" x="403" y="-77.5" font-family="Helvetica,sans-Serif" font-size="10.00">MayaFlux::IO::ModelReader</text>
<text text-anchor="middle" x="471" y="-66.5" font-family="Helvetica,sans-Serif" font-size="10.00">::extract_single_mesh</text>
</a>
</g>
</g>
<!-- Node5&#45;&gt;Node6 -->
<g id="edge5_Node000005_Node000006" class="edge">
<title>Node5&#45;&gt;Node6</title>
<g id="a_edge5_Node000005_Node000006"><a xlink:title=" ">
<path fill="none" stroke="#63b8ff" d="M604.3,-57.61C585.62,-60 565.75,-62.53 547.25,-64.89"/>
<polygon fill="#63b8ff" stroke="#63b8ff" points="604.77,-61.08 614.25,-56.34 603.88,-54.14 604.77,-61.08"/>
</a>
</g>
</g>
<!-- Node11 -->
<g id="Node000011" class="node">
<title>Node11</title>
<g id="a_Node000011"><a xlink:href="classMayaFlux_1_1Kakshya_1_1MeshInsertion_a264df1d91cfb1f929fb4d7134d2d7602.html#a264df1d91cfb1f929fb4d7134d2d7602" target="_top" xlink:title="Append one submesh batch, accumulating into the shared buffers.">
<polygon fill="white" stroke="#666666" points="530.5,-41 411.5,-41 411.5,0 530.5,0 530.5,-41"/>
<text text-anchor="start" x="419.5" y="-29" font-family="Helvetica,sans-Serif" font-size="10.00">MayaFlux::Kakshya::</text>
<text text-anchor="start" x="419.5" y="-18" font-family="Helvetica,sans-Serif" font-size="10.00">MeshInsertion::insert</text>
<text text-anchor="middle" x="471" y="-7" font-family="Helvetica,sans-Serif" font-size="10.00">_submesh</text>
</a>
</g>
</g>
<!-- Node5&#45;&gt;Node11 -->
<g id="edge10_Node000005_Node000011" class="edge">
<title>Node5&#45;&gt;Node11</title>
<g id="a_edge10_Node000005_Node000011"><a xlink:title=" ">
<path fill="none" stroke="#63b8ff" d="M604.3,-37.39C579.92,-34.28 553.53,-30.91 530.77,-28"/>
<polygon fill="#63b8ff" stroke="#63b8ff" points="603.88,-40.86 614.25,-38.66 604.77,-33.92 603.88,-40.86"/>
</a>
</g>
</g>
<!-- Node7 -->
<g id="Node000007" class="node">
<title>Node7</title>
<g id="a_Node000007"><a xlink:href="classMayaFlux_1_1IO_1_1ModelReader_aa3ce0f7631753b15955e175c1855e7fc.html#aa3ce0f7631753b15955e175c1855e7fc" target="_top" xlink:title="Construct a MeshNetwork from all meshes in the currently loaded scene.">
<polygon fill="white" stroke="#666666" points="349.5,-134.5 197.5,-134.5 197.5,-104.5 349.5,-104.5 349.5,-134.5"/>
<text text-anchor="start" x="205.5" y="-122.5" font-family="Helvetica,sans-Serif" font-size="10.00">MayaFlux::IO::ModelReader</text>
<text text-anchor="middle" x="273.5" y="-111.5" font-family="Helvetica,sans-Serif" font-size="10.00">::create_mesh_network</text>
</a>
</g>
</g>
<!-- Node6&#45;&gt;Node7 -->
<g id="edge6_Node000006_Node000007" class="edge">
<title>Node6&#45;&gt;Node7</title>
<g id="a_edge6_Node000006_Node000007"><a xlink:title=" ">
<path fill="none" stroke="#63b8ff" d="M394.7,-91.83C376.6,-96 357.41,-100.42 339.81,-104.47"/>
<polygon fill="#63b8ff" stroke="#63b8ff" points="395.67,-95.2 404.63,-89.55 394.1,-88.38 395.67,-95.2"/>
</a>
</g>
</g>
<!-- Node8 -->
<g id="Node000008" class="node">
<title>Node8</title>
<g id="a_Node000008"><a xlink:href="classMayaFlux_1_1IO_1_1ModelReader_a5a5995d155657e1b4f55d047efa2e442.html#a5a5995d155657e1b4f55d047efa2e442" target="_top" xlink:title="Load all meshes after open() has already been called.">
<polygon fill="white" stroke="#666666" points="349.5,-86.5 197.5,-86.5 197.5,-56.5 349.5,-56.5 349.5,-86.5"/>
<text text-anchor="start" x="205.5" y="-74.5" font-family="Helvetica,sans-Serif" font-size="10.00">MayaFlux::IO::ModelReader</text>
<text text-anchor="middle" x="273.5" y="-63.5" font-family="Helvetica,sans-Serif" font-size="10.00">::extract_meshes</text>
</a>
</g>
</g>
<!-- Node6&#45;&gt;Node8 -->
<g id="edge7_Node000006_Node000008" class="edge">
<title>Node6&#45;&gt;Node8</title>
<g id="a_edge7_Node000006_Node000008"><a xlink:title=" ">
<path fill="none" stroke="#63b8ff" d="M384.78,-73.19C373.08,-73.01 361.14,-72.83 349.65,-72.65"/>
<polygon fill="#63b8ff" stroke="#63b8ff" points="384.92,-76.69 394.97,-73.35 385.03,-69.7 384.92,-76.69"/>
</a>
</g>
</g>
<!-- Node9 -->
<g id="Node000009" class="node">
<title>Node9</title>
<g id="a_Node000009"><a xlink:href="classMayaFlux_1_1IO_1_1ModelReader_a82f82a404791ba9ad9838a1fc2774f32.html#a82f82a404791ba9ad9838a1fc2774f32" target="_top" xlink:title="Construct one MeshBuffer per mesh in the currently loaded scene.">
<polygon fill="white" stroke="#666666" points="152,-110.5 0,-110.5 0,-80.5 152,-80.5 152,-110.5"/>
<text text-anchor="start" x="8" y="-98.5" font-family="Helvetica,sans-Serif" font-size="10.00">MayaFlux::IO::ModelReader</text>
<text text-anchor="middle" x="76" y="-87.5" font-family="Helvetica,sans-Serif" font-size="10.00">::create_mesh_buffers</text>
</a>
</g>
</g>
<!-- Node8&#45;&gt;Node9 -->
<g id="edge8_Node000008_Node000009" class="edge">
<title>Node8&#45;&gt;Node9</title>
<g id="a_edge8_Node000008_Node000009"><a xlink:title=" ">
<path fill="none" stroke="#63b8ff" d="M187.28,-81.96C175.58,-83.4 163.64,-84.86 152.15,-86.27"/>
<polygon fill="#63b8ff" stroke="#63b8ff" points="187.97,-85.4 197.47,-80.71 187.12,-78.46 187.97,-85.4"/>
</a>
</g>
</g>
<!-- Node10 -->
<g id="Node000010" class="node">
<title>Node10</title>
<g id="a_Node000010"><a xlink:href="classMayaFlux_1_1IO_1_1ModelReader_ad139ba0a544c0712059cc8913bb59bc5.html#ad139ba0a544c0712059cc8913bb59bc5" target="_top" xlink:title="Load all meshes from a file in one call.">
<polygon fill="white" stroke="#666666" points="152,-62.5 0,-62.5 0,-32.5 152,-32.5 152,-62.5"/>
<text text-anchor="start" x="8" y="-50.5" font-family="Helvetica,sans-Serif" font-size="10.00">MayaFlux::IO::ModelReader</text>
<text text-anchor="middle" x="76" y="-39.5" font-family="Helvetica,sans-Serif" font-size="10.00">::load</text>
</a>
</g>
</g>
<!-- Node8&#45;&gt;Node10 -->
<g id="edge9_Node000008_Node000010" class="edge">
<title>Node8&#45;&gt;Node10</title>
<g id="a_edge9_Node000008_Node000010"><a xlink:title=" ">
<path fill="none" stroke="#63b8ff" d="M187.28,-61.04C175.58,-59.6 163.64,-58.14 152.15,-56.73"/>
<polygon fill="#63b8ff" stroke="#63b8ff" points="187.12,-64.54 197.47,-62.29 187.97,-57.6 187.12,-64.54"/>
</a>
</g>
</g>
<!-- Node12 -->
<g id="Node000012" class="node">
<title>Node12</title>
<g id="a_Node000012"><a xlink:href="classMayaFlux_1_1Nodes_1_1Network_1_1MeshNetwork_a6e1bcde40a73d4f6b3324fb646408ff0.html#a6e1bcde40a73d4f6b3324fb646408ff0" target="_top" xlink:title="Every slot&#39;s geometry merged into one MeshData, one submesh per slot.">
<polygon fill="white" stroke="#666666" points="359,-35.5 188,-35.5 188,-5.5 359,-5.5 359,-35.5"/>
<text text-anchor="start" x="196" y="-23.5" font-family="Helvetica,sans-Serif" font-size="10.00">MayaFlux::Nodes::Network</text>
<text text-anchor="middle" x="273.5" y="-12.5" font-family="Helvetica,sans-Serif" font-size="10.00">::MeshNetwork::get_mesh_data</text>
</a>
</g>
</g>
<!-- Node11&#45;&gt;Node12 -->
<g id="edge11_Node000011_Node000012" class="edge">
<title>Node11&#45;&gt;Node12</title>
<g id="a_edge11_Node000011_Node000012"><a xlink:title=" ">
<path fill="none" stroke="#63b8ff" d="M401.14,-20.5C387.56,-20.5 373.16,-20.5 359.13,-20.5"/>
<polygon fill="#63b8ff" stroke="#63b8ff" points="401.34,-24 411.34,-20.5 401.34,-17 401.34,-24"/>
</a>
</g>
</g>
</g>
</svg>
