<?xml version="1.0" encoding="UTF-8" standalone="no"?>
<!DOCTYPE svg PUBLIC "-//W3C//DTD SVG 1.1//EN"
 "http://www.w3.org/Graphics/SVG/1.1/DTD/svg11.dtd">
<!-- Generated by graphviz version 2.43.0 (0)
 -->
<!-- Title: MayaFlux::Kakshya::DataDimension::grouped Pages: 1 -->
<!--zoomable 347 -->

<svg id="main" version="1.1" xmlns="http://www.w3.org/2000/svg" xmlns:xlink="http://www.w3.org/1999/xlink" xml:space="preserve" onload="init(evt)">
<style type="text/css"><![CDATA[
.node, .edge {opacity: 0.7;}
.node.selected, .edge.selected {opacity: 1;}
.edge:hover path { stroke: red; }
.edge:hover polygon { stroke: red; fill: red; }
]]></style>

<defs>
  <circle id="rim" cx="0" cy="0" r="7"/>
  <circle id="rim2" cx="0" cy="0" r="3.5"/>
  <g id="zoomPlus">
    <use xlink:href="#rim" fill="#404040"><set attributeName="fill" to="#808080" begin="zoomplus.mouseover" end="zoomplus.mouseout"/></use>
    <path d="M-4,0h8M0,-4v8" fill="none" stroke="white" stroke-width="1.5" pointer-events="none"/>
  </g>
  <g id="zoomMin">
    <use xlink:href="#rim" fill="#404040"><set attributeName="fill" to="#808080" begin="zoomminus.mouseover" end="zoomminus.mouseout"/></use>
    <path d="M-4,0h8" fill="none" stroke="white" stroke-width="1.5" pointer-events="none"/>
  </g>
  <g id="arrowUp" transform="translate(30 24)">
    <use xlink:href="#rim"/>
    <path pointer-events="none" fill="none" stroke="white" stroke-width="1.5" d="M0,-3.0v7 M-2.5,-0.5L0,-3.0L2.5,-0.5"/>
  </g>
  <g id="arrowRight" transform="rotate(90) translate(36 -43)">
    <use xlink:href="#rim"/>
    <path pointer-events="none" fill="none" stroke="white" stroke-width="1.5" d="M0,-3.0v7 M-2.5,-0.5L0,-3.0L2.5,-0.5"/>
  </g>
  <g id="arrowDown" transform="rotate(180) translate(-30 -48)">
    <use xlink:href="#rim"/>
    <path pointer-events="none" fill="none" stroke="white" stroke-width="1.5" d="M0,-3.0v7 M-2.5,-0.5L0,-3.0L2.5,-0.5"/>
  </g>
  <g id="arrowLeft" transform="rotate(270) translate(-36 17)">
    <use xlink:href="#rim"/>
    <path pointer-events="none" fill="none" stroke="white" stroke-width="1.5" d="M0,-3.0v7 M-2.5,-0.5L0,-3.0L2.5,-0.5"/>
  </g>
  <g id="resetDef">
    <use xlink:href="#rim2" fill="#404040"><set attributeName="fill" to="#808080" begin="reset.mouseover" end="reset.mouseout"/></use>
  </g>
</defs>
<script type="application/ecmascript">
var viewWidth = 667;
var viewHeight = 347;
var sectionId = 'dynsection-0';
</script>
<script type="application/ecmascript" xlink:href="svg.min.js"/>
<svg id="graph" class="graph">
<g id="viewport">
<title>MayaFlux::Kakshya::DataDimension::grouped</title>
<!-- Node1 -->
<g id="Node000001" class="node">
<title>Node1</title>
<g id="a_Node000001"><a xlink:title="Create dimension with component grouping.">
<polygon fill="#999999" stroke="#666666" points="659,-182.5 521,-182.5 521,-152.5 659,-152.5 659,-182.5"/>
<text text-anchor="start" x="529" y="-170.5" font-family="Helvetica,sans-Serif" font-size="10.00">MayaFlux::Kakshya::</text>
<text text-anchor="middle" x="590" y="-159.5" font-family="Helvetica,sans-Serif" font-size="10.00">DataDimension::grouped</text>
</a>
</g>
</g>
<!-- Node2 -->
<g id="Node000002" class="node">
<title>Node2</title>
<g id="a_Node000002"><a xlink:href="namespaceMayaFlux_1_1Kakshya_a35d849b2e199a43e29238fdc3827276b.html#a35d849b2e199a43e29238fdc3827276b" target="_top" xlink:title="Detect data dimensions from a DataVariant.">
<polygon fill="white" stroke="#666666" points="485,-314.5 349,-314.5 349,-284.5 485,-284.5 485,-314.5"/>
<text text-anchor="start" x="357" y="-302.5" font-family="Helvetica,sans-Serif" font-size="10.00">MayaFlux::Kakshya::</text>
<text text-anchor="middle" x="417" y="-291.5" font-family="Helvetica,sans-Serif" font-size="10.00">detect_data_dimensions</text>
</a>
</g>
</g>
<!-- Node1&#45;&gt;Node2 -->
<g id="edge1_Node000001_Node000002" class="edge">
<title>Node1&#45;&gt;Node2</title>
<g id="a_edge1_Node000001_Node000002"><a xlink:title=" ">
<path fill="none" stroke="#63b8ff" d="M571.9,-190.79C553.04,-214.98 520.62,-252.46 485,-275.5 479.81,-278.86 474.1,-281.82 468.25,-284.41"/>
<polygon fill="#63b8ff" stroke="#63b8ff" points="574.92,-192.6 578.21,-182.53 569.36,-188.35 574.92,-192.6"/>
</a>
</g>
</g>
<!-- Node6 -->
<g id="Node000006" class="node">
<title>Node6</title>
<g id="a_Node000006"><a xlink:href="namespaceMayaFlux_1_1Kakshya_a7a4535ac441a3218d801f2dff76b597c.html#a7a4535ac441a3218d801f2dff76b597c" target="_top" xlink:title=" ">
<polygon fill="white" stroke="#666666" points="485,-266.5 349,-266.5 349,-236.5 485,-236.5 485,-266.5"/>
<text text-anchor="start" x="357" y="-254.5" font-family="Helvetica,sans-Serif" font-size="10.00">MayaFlux::Kakshya::</text>
<text text-anchor="middle" x="417" y="-243.5" font-family="Helvetica,sans-Serif" font-size="10.00">detect_data_dimensions</text>
</a>
</g>
</g>
<!-- Node1&#45;&gt;Node6 -->
<g id="edge5_Node000001_Node000006" class="edge">
<title>Node1&#45;&gt;Node6</title>
<g id="a_edge5_Node000001_Node000006"><a xlink:title=" ">
<path fill="none" stroke="#63b8ff" d="M556.03,-187.99C535.92,-200.03 509.47,-215.08 485,-226.5 477.46,-230.02 469.28,-233.41 461.31,-236.49"/>
<polygon fill="#63b8ff" stroke="#63b8ff" points="558.04,-190.87 564.79,-182.7 554.42,-184.88 558.04,-190.87"/>
</a>
</g>
</g>
<!-- Node7 -->
<g id="Node000007" class="node">
<title>Node7</title>
<g id="a_Node000007"><a xlink:href="structMayaFlux_1_1Kakshya_1_1DataDimension_adb2bac98f840e5eadcbd69054b3ae05e.html#adb2bac98f840e5eadcbd69054b3ae05e" target="_top" xlink:title="Create dimension for texture coordinates (vec2)">
<polygon fill="white" stroke="#666666" points="484,-218 350,-218 350,-177 484,-177 484,-218"/>
<text text-anchor="start" x="358" y="-206" font-family="Helvetica,sans-Serif" font-size="10.00">MayaFlux::Kakshya::</text>
<text text-anchor="start" x="358" y="-195" font-family="Helvetica,sans-Serif" font-size="10.00">DataDimension::texture</text>
<text text-anchor="middle" x="417" y="-184" font-family="Helvetica,sans-Serif" font-size="10.00">_coords</text>
</a>
</g>
</g>
<!-- Node1&#45;&gt;Node7 -->
<g id="edge6_Node000001_Node000007" class="edge">
<title>Node1&#45;&gt;Node7</title>
<g id="a_edge6_Node000001_Node000007"><a xlink:title=" ">
<path fill="none" stroke="#63b8ff" d="M510.9,-181.2C501.97,-182.77 492.93,-184.36 484.17,-185.89"/>
<polygon fill="#63b8ff" stroke="#63b8ff" points="511.68,-184.62 520.92,-179.44 510.47,-177.72 511.68,-184.62"/>
</a>
</g>
</g>
<!-- Node8 -->
<g id="Node000008" class="node">
<title>Node8</title>
<g id="a_Node000008"><a xlink:href="structMayaFlux_1_1Kakshya_1_1DataDimension_a45d62499ecfb2b909acc0ffa3f5603cb.html#a45d62499ecfb2b909acc0ffa3f5603cb" target="_top" xlink:title="Create dimension for colors (vec3 or vec4)">
<polygon fill="white" stroke="#666666" points="482,-159 352,-159 352,-118 482,-118 482,-159"/>
<text text-anchor="start" x="360" y="-147" font-family="Helvetica,sans-Serif" font-size="10.00">MayaFlux::Kakshya::</text>
<text text-anchor="start" x="360" y="-136" font-family="Helvetica,sans-Serif" font-size="10.00">DataDimension::vertex</text>
<text text-anchor="middle" x="417" y="-125" font-family="Helvetica,sans-Serif" font-size="10.00">_colors</text>
</a>
</g>
</g>
<!-- Node1&#45;&gt;Node8 -->
<g id="edge7_Node000001_Node000008" class="edge">
<title>Node1&#45;&gt;Node8</title>
<g id="a_edge7_Node000001_Node000008"><a xlink:title=" ">
<path fill="none" stroke="#63b8ff" d="M510.97,-154.27C501.35,-152.64 491.61,-150.98 482.23,-149.39"/>
<polygon fill="#63b8ff" stroke="#63b8ff" points="510.48,-157.73 520.92,-155.96 511.65,-150.83 510.48,-157.73"/>
</a>
</g>
</g>
<!-- Node9 -->
<g id="Node000009" class="node">
<title>Node9</title>
<g id="a_Node000009"><a xlink:href="structMayaFlux_1_1Kakshya_1_1DataDimension_a5a8d6438b133ceeec2753933ff295d43.html#a5a8d6438b133ceeec2753933ff295d43" target="_top" xlink:title="Create dimension for vertex normals (vec3)">
<polygon fill="white" stroke="#666666" points="482,-100 352,-100 352,-59 482,-59 482,-100"/>
<text text-anchor="start" x="360" y="-88" font-family="Helvetica,sans-Serif" font-size="10.00">MayaFlux::Kakshya::</text>
<text text-anchor="start" x="360" y="-77" font-family="Helvetica,sans-Serif" font-size="10.00">DataDimension::vertex</text>
<text text-anchor="middle" x="417" y="-66" font-family="Helvetica,sans-Serif" font-size="10.00">_normals</text>
</a>
</g>
</g>
<!-- Node1&#45;&gt;Node9 -->
<g id="edge8_Node000001_Node000009" class="edge">
<title>Node1&#45;&gt;Node9</title>
<g id="a_edge8_Node000001_Node000009"><a xlink:title=" ">
<path fill="none" stroke="#63b8ff" d="M555.4,-147.22C535.27,-135.38 509.01,-120.46 485,-108.5 479.33,-105.67 473.32,-102.85 467.31,-100.12"/>
<polygon fill="#63b8ff" stroke="#63b8ff" points="553.8,-150.34 564.19,-152.42 557.37,-144.32 553.8,-150.34"/>
</a>
</g>
</g>
<!-- Node10 -->
<g id="Node000010" class="node">
<title>Node10</title>
<g id="a_Node000010"><a xlink:href="structMayaFlux_1_1Kakshya_1_1DataDimension_a2f80e8eb7e0a8cfcb6d46d00a968929d.html#a2f80e8eb7e0a8cfcb6d46d00a968929d" target="_top" xlink:title="Create dimension for vertex positions (vec3)">
<polygon fill="white" stroke="#666666" points="482,-41 352,-41 352,0 482,0 482,-41"/>
<text text-anchor="start" x="360" y="-29" font-family="Helvetica,sans-Serif" font-size="10.00">MayaFlux::Kakshya::</text>
<text text-anchor="start" x="360" y="-18" font-family="Helvetica,sans-Serif" font-size="10.00">DataDimension::vertex</text>
<text text-anchor="middle" x="417" y="-7" font-family="Helvetica,sans-Serif" font-size="10.00">_positions</text>
</a>
</g>
</g>
<!-- Node1&#45;&gt;Node10 -->
<g id="edge9_Node000001_Node000010" class="edge">
<title>Node1&#45;&gt;Node10</title>
<g id="a_edge9_Node000001_Node000010"><a xlink:title=" ">
<path fill="none" stroke="#63b8ff" d="M572.9,-143.64C554.31,-117.6 521.56,-76.07 485,-49.5 480.8,-46.44 476.22,-43.62 471.5,-41.04"/>
<polygon fill="#63b8ff" stroke="#63b8ff" points="570.26,-145.98 578.87,-152.16 576,-141.96 570.26,-145.98"/>
</a>
</g>
</g>
<!-- Node3 -->
<g id="Node000003" class="node">
<title>Node3</title>
<g id="a_Node000003"><a xlink:href="namespaceMayaFlux_1_1Yantra_a8ce1a57f73a0b4504ea2c23b11bf8878.html#a8ce1a57f73a0b4504ea2c23b11bf8878" target="_top" xlink:title="Infer structure from DataVariant.">
<polygon fill="white" stroke="#666666" points="303.5,-338.5 174.5,-338.5 174.5,-308.5 303.5,-308.5 303.5,-338.5"/>
<text text-anchor="start" x="182.5" y="-326.5" font-family="Helvetica,sans-Serif" font-size="10.00">MayaFlux::Yantra::infer</text>
<text text-anchor="middle" x="239" y="-315.5" font-family="Helvetica,sans-Serif" font-size="10.00">_from_data_variant</text>
</a>
</g>
</g>
<!-- Node2&#45;&gt;Node3 -->
<g id="edge2_Node000002_Node000003" class="edge">
<title>Node2&#45;&gt;Node3</title>
<g id="a_edge2_Node000002_Node000003"><a xlink:title=" ">
<path fill="none" stroke="#63b8ff" d="M338.75,-310.03C327.03,-311.63 315.05,-313.27 303.66,-314.82"/>
<polygon fill="#63b8ff" stroke="#63b8ff" points="339.52,-313.46 348.96,-308.64 338.58,-306.53 339.52,-313.46"/>
</a>
</g>
</g>
<!-- Node5 -->
<g id="Node000005" class="node">
<title>Node5</title>
<g id="a_Node000005"><a xlink:href="namespaceMayaFlux_1_1Yantra_aaa85a65374303b1f2486a814c695e37a.html#aaa85a65374303b1f2486a814c695e37a" target="_top" xlink:title="Infer structure from vector of DataVariants (NEW)">
<polygon fill="white" stroke="#666666" points="313,-290.5 165,-290.5 165,-260.5 313,-260.5 313,-290.5"/>
<text text-anchor="start" x="173" y="-278.5" font-family="Helvetica,sans-Serif" font-size="10.00">MayaFlux::Yantra::infer</text>
<text text-anchor="middle" x="239" y="-267.5" font-family="Helvetica,sans-Serif" font-size="10.00">_from_data_variant_vector</text>
</a>
</g>
</g>
<!-- Node2&#45;&gt;Node5 -->
<g id="edge4_Node000002_Node000005" class="edge">
<title>Node2&#45;&gt;Node5</title>
<g id="a_edge4_Node000002_Node000005"><a xlink:title=" ">
<path fill="none" stroke="#63b8ff" d="M338.94,-288.99C330.33,-287.82 321.57,-286.62 313.01,-285.46"/>
<polygon fill="#63b8ff" stroke="#63b8ff" points="338.58,-292.47 348.96,-290.36 339.52,-285.54 338.58,-292.47"/>
</a>
</g>
</g>
<!-- Node4 -->
<g id="Node000004" class="node">
<title>Node4</title>
<g id="a_Node000004"><a xlink:href="namespaceMayaFlux_1_1Yantra_ae05845067871689b0b43d88e2b97b4f2.html#ae05845067871689b0b43d88e2b97b4f2" target="_top" xlink:title="Infer dimensions and modality from any ComputeData type.">
<polygon fill="white" stroke="#666666" points="129,-338.5 0,-338.5 0,-308.5 129,-308.5 129,-338.5"/>
<text text-anchor="start" x="8" y="-326.5" font-family="Helvetica,sans-Serif" font-size="10.00">MayaFlux::Yantra::infer</text>
<text text-anchor="middle" x="64.5" y="-315.5" font-family="Helvetica,sans-Serif" font-size="10.00">_structure</text>
</a>
</g>
</g>
<!-- Node3&#45;&gt;Node4 -->
<g id="edge3_Node000003_Node000004" class="edge">
<title>Node3&#45;&gt;Node4</title>
<g id="a_edge3_Node000003_Node000004"><a xlink:title=" ">
<path fill="none" stroke="#63b8ff" d="M164.15,-323.5C152.54,-323.5 140.63,-323.5 129.27,-323.5"/>
<polygon fill="#63b8ff" stroke="#63b8ff" points="164.26,-327 174.26,-323.5 164.26,-320 164.26,-327"/>
</a>
</g>
</g>
</g>
</svg>

<g id="navigator" transform="translate(0 0)" fill="#404254">
  <rect fill="#f2f5e9" fill-opacity="0.5" stroke="#606060" stroke-width=".5" x="0" y="0" width="60" height="60"/>
  <use id="zoomplus" xlink:href="#zoomPlus" x="17" y="9" onmousedown="handleZoom(evt,'in')"/>
  <use id="zoomminus" xlink:href="#zoomMin" x="42" y="9" onmousedown="handleZoom(evt,'out')"/>
  <use id="reset" xlink:href="#resetDef" x="30" y="36" onmousedown="handleReset()"/>
   <use id="arrowup" xlink:href="#arrowUp" x="0" y="0" onmousedown="handlePan(0,-1)"/>
  <use id="arrowright" xlink:href="#arrowRight" x="0" y="0" onmousedown="handlePan(1,0)"/>
  <use id="arrowdown" xlink:href="#arrowDown" x="0" y="0" onmousedown="handlePan(0,1)"/>
  <use id="arrowleft" xlink:href="#arrowLeft" x="0" y="0" onmousedown="handlePan(-1,0)"/>
</g>
<svg viewBox="0 0 15 15" width="100%" height="30px" preserveAspectRatio="xMaxYMin meet">
 <g id="arrow_out" transform="scale(0.3 0.3)">
  <a xlink:href="structMayaFlux_1_1Kakshya_1_1DataDimension_a57e1909558a284754db05334249f9d0f_a57e1909558a284754db05334249f9d0f_icgraph_org.svg" target="_base">
   <rect id="button" ry="5" rx="5" y="6" x="6" height="38" width="38"
        fill="#f2f5e9" fill-opacity="0.5" stroke="#606060" stroke-width="1.0"/>
   <path id="arrow"
     d="M 11.500037,31.436501 C 11.940474,20.09759 22.043105,11.32322 32.158766,21.979434 L 37.068811,17.246167 C 37.068811,17.246167 37.088388,32 37.088388,32 L 22.160133,31.978069 C 22.160133,31.978069 26.997745,27.140456 26.997745,27.140456 C 18.528582,18.264221 13.291696,25.230495 11.500037,31.436501 z"
     style="fill:#404040;"/>
  </a>
 </g>
</svg>

<style type='text/css'>
<![CDATA[
[data-mouse-over-selected='false'] { opacity: 0.7; }
[data-mouse-over-selected='true']  { opacity: 1.0; }
]]>
</style>
<script type="application/ecmascript"><![CDATA[
document.addEventListener('DOMContentLoaded', (event) => {
  highlightEdges();
  highlightAdjacentNodes();
});
]]></script>
</svg>
