<?xml version="1.0" encoding="UTF-8" standalone="no"?>
<!DOCTYPE svg PUBLIC "-//W3C//DTD SVG 1.1//EN"
 "http://www.w3.org/Graphics/SVG/1.1/DTD/svg11.dtd">
<!-- Generated by graphviz version 2.43.0 (0)
 -->
<!-- Title: StructureIntrospection.cpp Pages: 1 -->
<svg width="868pt" height="467pt"
 viewBox="0.00 0.00 867.50 467.00" xmlns="http://www.w3.org/2000/svg" xmlns:xlink="http://www.w3.org/1999/xlink">
<g id="graph0" class="graph" transform="scale(1 1) rotate(0) translate(4 463)">
<title>StructureIntrospection.cpp</title>
<!-- Node1 -->
<g id="Node000001" class="node">
<title>Node1</title>
<g id="a_Node000001"><a xlink:title=" ">
<polygon fill="#999999" stroke="#666666" points="482,-459 337,-459 337,-440 482,-440 482,-459"/>
<text text-anchor="middle" x="409.5" y="-447" font-family="Helvetica,sans-Serif" font-size="10.00">StructureIntrospection.cpp</text>
</a>
</g>
</g>
<!-- Node2 -->
<g id="Node000002" class="node">
<title>Node2</title>
<g id="a_Node000002"><a xlink:href="StructureIntrospection_8hpp.html" target="_top" xlink:title=" ">
<polygon fill="white" stroke="#666666" points="268.5,-398.5 122.5,-398.5 122.5,-379.5 268.5,-379.5 268.5,-398.5"/>
<text text-anchor="middle" x="195.5" y="-386.5" font-family="Helvetica,sans-Serif" font-size="10.00">StructureIntrospection.hpp</text>
</a>
</g>
</g>
<!-- Node1&#45;&gt;Node2 -->
<g id="edge1_Node000001_Node000002" class="edge">
<title>Node1&#45;&gt;Node2</title>
<g id="a_edge1_Node000001_Node000002"><a xlink:title=" ">
<path fill="none" stroke="#63b8ff" d="M378.38,-439.99C340.9,-429.75 277.82,-412.5 236.43,-401.19"/>
<polygon fill="#63b8ff" stroke="#63b8ff" points="237.22,-397.78 226.65,-398.52 235.38,-404.53 237.22,-397.78"/>
</a>
</g>
</g>
<!-- Node13 -->
<g id="Node000013" class="node">
<title>Node13</title>
<g id="a_Node000013"><a xlink:href="DataUtils_8hpp.html" target="_top" xlink:title=" ">
<polygon fill="white" stroke="#666666" points="729,-404 594,-404 594,-374 729,-374 729,-404"/>
<text text-anchor="start" x="602" y="-392" font-family="Helvetica,sans-Serif" font-size="10.00">MayaFlux/Kakshya/Utils</text>
<text text-anchor="middle" x="661.5" y="-381" font-family="Helvetica,sans-Serif" font-size="10.00">/DataUtils.hpp</text>
</a>
</g>
</g>
<!-- Node1&#45;&gt;Node13 -->
<g id="edge14_Node000001_Node000013" class="edge">
<title>Node1&#45;&gt;Node13</title>
<g id="a_edge14_Node000001_Node000013"><a xlink:title=" ">
<path fill="none" stroke="#63b8ff" d="M446.14,-439.99C483.99,-431.21 544.01,-417.27 591.08,-406.35"/>
<polygon fill="#63b8ff" stroke="#63b8ff" points="591.97,-409.73 600.92,-404.06 590.38,-402.92 591.97,-409.73"/>
</a>
</g>
</g>
<!-- Node22 -->
<g id="Node000022" class="node">
<title>Node22</title>
<g id="a_Node000022"><a xlink:href="RegionUtils_8hpp.html" target="_top" xlink:title=" ">
<polygon fill="white" stroke="#666666" points="477,-404 342,-404 342,-374 477,-374 477,-404"/>
<text text-anchor="start" x="350" y="-392" font-family="Helvetica,sans-Serif" font-size="10.00">MayaFlux/Kakshya/Utils</text>
<text text-anchor="middle" x="409.5" y="-381" font-family="Helvetica,sans-Serif" font-size="10.00">/RegionUtils.hpp</text>
</a>
</g>
</g>
<!-- Node1&#45;&gt;Node22 -->
<g id="edge24_Node000001_Node000022" class="edge">
<title>Node1&#45;&gt;Node22</title>
<g id="a_edge24_Node000001_Node000022"><a xlink:title=" ">
<path fill="none" stroke="#63b8ff" d="M409.5,-439.87C409.5,-433.11 409.5,-423.35 409.5,-414.26"/>
<polygon fill="#63b8ff" stroke="#63b8ff" points="413,-414.11 409.5,-404.11 406,-414.11 413,-414.11"/>
</a>
</g>
</g>
<!-- Node3 -->
<g id="Node000003" class="node">
<title>Node3</title>
<g id="a_Node000003"><a xlink:href="DataSpec_8hpp.html" target="_top" xlink:title=" ">
<polygon fill="white" stroke="#666666" points="164.5,-332.5 80.5,-332.5 80.5,-313.5 164.5,-313.5 164.5,-332.5"/>
<text text-anchor="middle" x="122.5" y="-320.5" font-family="Helvetica,sans-Serif" font-size="10.00">DataSpec.hpp</text>
</a>
</g>
</g>
<!-- Node2&#45;&gt;Node3 -->
<g id="edge2_Node000002_Node000003" class="edge">
<title>Node2&#45;&gt;Node3</title>
<g id="a_edge2_Node000002_Node000003"><a xlink:title=" ">
<path fill="none" stroke="#63b8ff" d="M185.65,-379.37C174.07,-369.21 154.62,-352.16 140.36,-339.65"/>
<polygon fill="#63b8ff" stroke="#63b8ff" points="142.48,-336.87 132.66,-332.91 137.87,-342.13 142.48,-336.87"/>
</a>
</g>
</g>
<!-- Node4 -->
<g id="Node000004" class="node">
<title>Node4</title>
<g id="a_Node000004"><a xlink:title=" ">
<polygon fill="#e0e0e0" stroke="#999999" points="69,-266.5 0,-266.5 0,-247.5 69,-247.5 69,-266.5"/>
<text text-anchor="middle" x="34.5" y="-254.5" font-family="Helvetica,sans-Serif" font-size="10.00">Eigen/Core</text>
</a>
</g>
</g>
<!-- Node3&#45;&gt;Node4 -->
<g id="edge3_Node000003_Node000004" class="edge">
<title>Node3&#45;&gt;Node4</title>
<g id="a_edge3_Node000003_Node000004"><a xlink:title=" ">
<path fill="none" stroke="#63b8ff" d="M110.63,-313.37C96.33,-302.97 72.07,-285.32 54.78,-272.75"/>
<polygon fill="#63b8ff" stroke="#63b8ff" points="56.61,-269.75 46.46,-266.7 52.49,-275.41 56.61,-269.75"/>
</a>
</g>
</g>
<!-- Node5 -->
<g id="Node000005" class="node">
<title>Node5</title>
<g id="a_Node000005"><a xlink:href="RegionSegment_8hpp.html" target="_top" xlink:title=" ">
<polygon fill="white" stroke="#666666" points="233.5,-272 87.5,-272 87.5,-242 233.5,-242 233.5,-272"/>
<text text-anchor="start" x="95.5" y="-260" font-family="Helvetica,sans-Serif" font-size="10.00">MayaFlux/Kakshya/Region</text>
<text text-anchor="middle" x="160.5" y="-249" font-family="Helvetica,sans-Serif" font-size="10.00">/RegionSegment.hpp</text>
</a>
</g>
</g>
<!-- Node3&#45;&gt;Node5 -->
<g id="edge4_Node000003_Node000005" class="edge">
<title>Node3&#45;&gt;Node5</title>
<g id="a_edge4_Node000003_Node000005"><a xlink:title=" ">
<path fill="none" stroke="#63b8ff" d="M127.62,-313.37C132.5,-305.16 140.05,-292.44 146.69,-281.26"/>
<polygon fill="#63b8ff" stroke="#63b8ff" points="149.88,-282.75 151.97,-272.36 143.86,-279.17 149.88,-282.75"/>
</a>
</g>
</g>
<!-- Node10 -->
<g id="Node000010" class="node">
<title>Node10</title>
<g id="a_Node000010"><a xlink:href="SignalSourceContainer_8hpp.html" target="_top" xlink:title=" ">
<polygon fill="white" stroke="#666666" points="427.5,-272 251.5,-272 251.5,-242 427.5,-242 427.5,-272"/>
<text text-anchor="start" x="259.5" y="-260" font-family="Helvetica,sans-Serif" font-size="10.00">MayaFlux/Kakshya/SignalSource</text>
<text text-anchor="middle" x="339.5" y="-249" font-family="Helvetica,sans-Serif" font-size="10.00">Container.hpp</text>
</a>
</g>
</g>
<!-- Node3&#45;&gt;Node10 -->
<g id="edge9_Node000003_Node000010" class="edge">
<title>Node3&#45;&gt;Node10</title>
<g id="a_edge9_Node000003_Node000010"><a xlink:title=" ">
<path fill="none" stroke="#63b8ff" d="M151.77,-313.37C184.97,-303.58 239.93,-287.37 281.83,-275.01"/>
<polygon fill="#63b8ff" stroke="#63b8ff" points="283.04,-278.3 291.64,-272.12 281.06,-271.59 283.04,-278.3"/>
</a>
</g>
</g>
<!-- Node6 -->
<g id="Node000006" class="node">
<title>Node6</title>
<g id="a_Node000006"><a xlink:href="Region_8hpp.html" target="_top" xlink:title=" ">
<polygon fill="white" stroke="#666666" points="303,-140 232,-140 232,-121 303,-121 303,-140"/>
<text text-anchor="middle" x="267.5" y="-128" font-family="Helvetica,sans-Serif" font-size="10.00">Region.hpp</text>
</a>
</g>
</g>
<!-- Node5&#45;&gt;Node6 -->
<g id="edge5_Node000005_Node000006" class="edge">
<title>Node5&#45;&gt;Node6</title>
<g id="a_edge5_Node000005_Node000006"><a xlink:title=" ">
<path fill="none" stroke="#63b8ff" d="M172.77,-241.72C192.81,-218.41 232.41,-172.33 253.51,-147.78"/>
<polygon fill="#63b8ff" stroke="#63b8ff" points="256.27,-149.93 260.13,-140.07 250.96,-145.37 256.27,-149.93"/>
</a>
</g>
</g>
<!-- Node7 -->
<g id="Node000007" class="node">
<title>Node7</title>
<g id="a_Node000007"><a xlink:href="NDData_8hpp.html" target="_top" xlink:title=" ">
<polygon fill="white" stroke="#666666" points="473,-85 322,-85 322,-55 473,-55 473,-85"/>
<text text-anchor="start" x="330" y="-73" font-family="Helvetica,sans-Serif" font-size="10.00">MayaFlux/Kakshya/NDData</text>
<text text-anchor="middle" x="397.5" y="-62" font-family="Helvetica,sans-Serif" font-size="10.00">/NDData.hpp</text>
</a>
</g>
</g>
<!-- Node6&#45;&gt;Node7 -->
<g id="edge6_Node000006_Node000007" class="edge">
<title>Node6&#45;&gt;Node7</title>
<g id="a_edge6_Node000006_Node000007"><a xlink:title=" ">
<path fill="none" stroke="#63b8ff" d="M286.4,-120.99C304.79,-112.72 333.3,-99.89 356.84,-89.3"/>
<polygon fill="#63b8ff" stroke="#63b8ff" points="358.56,-92.36 366.25,-85.06 355.69,-85.98 358.56,-92.36"/>
</a>
</g>
</g>
<!-- Node8 -->
<g id="Node000008" class="node">
<title>Node8</title>
<g id="a_Node000008"><a xlink:title=" ">
<polygon fill="#e0e0e0" stroke="#999999" points="391.5,-19 313.5,-19 313.5,0 391.5,0 391.5,-19"/>
<text text-anchor="middle" x="352.5" y="-7" font-family="Helvetica,sans-Serif" font-size="10.00">glm/glm.hpp</text>
</a>
</g>
</g>
<!-- Node7&#45;&gt;Node8 -->
<g id="edge7_Node000007_Node000008" class="edge">
<title>Node7&#45;&gt;Node8</title>
<g id="a_edge7_Node000007_Node000008"><a xlink:title=" ">
<path fill="none" stroke="#63b8ff" d="M386.61,-54.84C380.21,-46.52 372.08,-35.96 365.37,-27.23"/>
<polygon fill="#63b8ff" stroke="#63b8ff" points="368.11,-25.06 359.24,-19.27 362.57,-29.33 368.11,-25.06"/>
</a>
</g>
</g>
<!-- Node9 -->
<g id="Node000009" class="node">
<title>Node9</title>
<g id="a_Node000009"><a xlink:title=" ">
<polygon fill="#e0e0e0" stroke="#999999" points="475,-19 410,-19 410,0 475,0 475,-19"/>
<text text-anchor="middle" x="442.5" y="-7" font-family="Helvetica,sans-Serif" font-size="10.00">typeindex</text>
</a>
</g>
</g>
<!-- Node7&#45;&gt;Node9 -->
<g id="edge8_Node000007_Node000009" class="edge">
<title>Node7&#45;&gt;Node9</title>
<g id="a_edge8_Node000007_Node000009"><a xlink:title=" ">
<path fill="none" stroke="#63b8ff" d="M408.39,-54.84C414.79,-46.52 422.92,-35.96 429.63,-27.23"/>
<polygon fill="#63b8ff" stroke="#63b8ff" points="432.43,-29.33 435.76,-19.27 426.89,-25.06 432.43,-29.33"/>
</a>
</g>
</g>
<!-- Node11 -->
<g id="Node000011" class="node">
<title>Node11</title>
<g id="a_Node000011"><a xlink:href="NDimensionalContainer_8hpp.html" target="_top" xlink:title=" ">
<polygon fill="white" stroke="#666666" points="474,-140 321,-140 321,-121 474,-121 474,-140"/>
<text text-anchor="middle" x="397.5" y="-128" font-family="Helvetica,sans-Serif" font-size="10.00">NDimensionalContainer.hpp</text>
</a>
</g>
</g>
<!-- Node10&#45;&gt;Node11 -->
<g id="edge10_Node000010_Node000011" class="edge">
<title>Node10&#45;&gt;Node11</title>
<g id="a_edge10_Node000010_Node000011"><a xlink:title=" ">
<path fill="none" stroke="#63b8ff" d="M299.06,-241.91C282.81,-234.02 265.77,-222.4 256.5,-206 249.94,-194.39 248.62,-186.75 256.5,-176 269.59,-158.14 289.88,-147.26 311.02,-140.69"/>
<polygon fill="#63b8ff" stroke="#63b8ff" points="312.08,-144.03 320.77,-137.96 310.2,-137.28 312.08,-144.03"/>
</a>
</g>
</g>
<!-- Node12 -->
<g id="Node000012" class="node">
<title>Node12</title>
<g id="a_Node000012"><a xlink:href="RegionGroup_8hpp.html" target="_top" xlink:title=" ">
<polygon fill="white" stroke="#666666" points="403,-200.5 266,-200.5 266,-181.5 403,-181.5 403,-200.5"/>
<text text-anchor="middle" x="334.5" y="-188.5" font-family="Helvetica,sans-Serif" font-size="10.00">Region/RegionGroup.hpp</text>
</a>
</g>
</g>
<!-- Node10&#45;&gt;Node12 -->
<g id="edge12_Node000010_Node000012" class="edge">
<title>Node10&#45;&gt;Node12</title>
<g id="a_edge12_Node000010_Node000012"><a xlink:title=" ">
<path fill="none" stroke="#63b8ff" d="M338.39,-241.8C337.68,-232.7 336.75,-220.79 335.98,-210.9"/>
<polygon fill="#63b8ff" stroke="#63b8ff" points="339.46,-210.54 335.19,-200.84 332.48,-211.09 339.46,-210.54"/>
</a>
</g>
</g>
<!-- Node11&#45;&gt;Node7 -->
<g id="edge11_Node000011_Node000007" class="edge">
<title>Node11&#45;&gt;Node7</title>
<g id="a_edge11_Node000011_Node000007"><a xlink:title=" ">
<path fill="none" stroke="#63b8ff" d="M397.5,-120.87C397.5,-114.11 397.5,-104.35 397.5,-95.26"/>
<polygon fill="#63b8ff" stroke="#63b8ff" points="401,-95.11 397.5,-85.11 394,-95.11 401,-95.11"/>
</a>
</g>
</g>
<!-- Node12&#45;&gt;Node6 -->
<g id="edge13_Node000012_Node000006" class="edge">
<title>Node12&#45;&gt;Node6</title>
<g id="a_edge13_Node000012_Node000006"><a xlink:title=" ">
<path fill="none" stroke="#63b8ff" d="M324.61,-181.37C314.22,-172.3 297.66,-157.84 285.05,-146.82"/>
<polygon fill="#63b8ff" stroke="#63b8ff" points="287.26,-144.11 277.43,-140.17 282.66,-149.38 287.26,-144.11"/>
</a>
</g>
</g>
<!-- Node13&#45;&gt;Node7 -->
<g id="edge15_Node000013_Node000007" class="edge">
<title>Node13&#45;&gt;Node7</title>
<g id="a_edge15_Node000013_Node000007"><a xlink:title=" ">
<path fill="none" stroke="#63b8ff" d="M729.08,-375.9C756.49,-368.45 787.13,-356.61 810.5,-338 843.12,-312.03 859.5,-299.69 859.5,-258 859.5,-258 859.5,-258 859.5,-190 859.5,-113.16 616.81,-85.19 483.23,-75.62"/>
<polygon fill="#63b8ff" stroke="#63b8ff" points="483.23,-72.11 473.01,-74.91 482.75,-79.09 483.23,-72.11"/>
</a>
</g>
</g>
<!-- Node14 -->
<g id="Node000014" class="node">
<title>Node14</title>
<g id="a_Node000014"><a xlink:href="Archivist_8hpp.html" target="_top" xlink:title=" ">
<polygon fill="white" stroke="#666666" points="665.5,-332.5 497.5,-332.5 497.5,-313.5 665.5,-313.5 665.5,-332.5"/>
<text text-anchor="middle" x="581.5" y="-320.5" font-family="Helvetica,sans-Serif" font-size="10.00">MayaFlux/Journal/Archivist.hpp</text>
</a>
</g>
</g>
<!-- Node13&#45;&gt;Node14 -->
<g id="edge16_Node000013_Node000014" class="edge">
<title>Node13&#45;&gt;Node14</title>
<g id="a_edge16_Node000013_Node000014"><a xlink:title=" ">
<path fill="none" stroke="#63b8ff" d="M643.75,-373.8C630.91,-363.53 613.58,-349.67 600.47,-339.18"/>
<polygon fill="#63b8ff" stroke="#63b8ff" points="602.55,-336.36 592.56,-332.84 598.18,-341.82 602.55,-336.36"/>
</a>
</g>
</g>
<!-- Node21 -->
<g id="Node000021" class="node">
<title>Node21</title>
<g id="a_Node000021"><a xlink:title=" ">
<polygon fill="#e0e0e0" stroke="#999999" points="801,-332.5 684,-332.5 684,-313.5 801,-313.5 801,-332.5"/>
<text text-anchor="middle" x="742.5" y="-320.5" font-family="Helvetica,sans-Serif" font-size="10.00">glm/gtc/type_ptr.hpp</text>
</a>
</g>
</g>
<!-- Node13&#45;&gt;Node21 -->
<g id="edge23_Node000013_Node000021" class="edge">
<title>Node13&#45;&gt;Node21</title>
<g id="a_edge23_Node000013_Node000021"><a xlink:title=" ">
<path fill="none" stroke="#63b8ff" d="M679.48,-373.8C692.48,-363.53 710.01,-349.67 723.29,-339.18"/>
<polygon fill="#63b8ff" stroke="#63b8ff" points="725.63,-341.79 731.31,-332.84 721.29,-336.3 725.63,-341.79"/>
</a>
</g>
</g>
<!-- Node15 -->
<g id="Node000015" class="node">
<title>Node15</title>
<g id="a_Node000015"><a xlink:href="JournalEntry_8hpp.html" target="_top" xlink:title=" ">
<polygon fill="white" stroke="#666666" points="629,-266.5 534,-266.5 534,-247.5 629,-247.5 629,-266.5"/>
<text text-anchor="middle" x="581.5" y="-254.5" font-family="Helvetica,sans-Serif" font-size="10.00">JournalEntry.hpp</text>
</a>
</g>
</g>
<!-- Node14&#45;&gt;Node15 -->
<g id="edge17_Node000014_Node000015" class="edge">
<title>Node14&#45;&gt;Node15</title>
<g id="a_edge17_Node000014_Node000015"><a xlink:title=" ">
<path fill="none" stroke="#63b8ff" d="M581.5,-313.37C581.5,-304.16 581.5,-289.29 581.5,-277.27"/>
<polygon fill="#63b8ff" stroke="#63b8ff" points="585,-276.91 581.5,-266.91 578,-276.91 585,-276.91"/>
</a>
</g>
</g>
<!-- Node20 -->
<g id="Node000020" class="node">
<title>Node20</title>
<g id="a_Node000020"><a xlink:title=" ">
<polygon fill="#e0e0e0" stroke="#999999" points="697.5,-266.5 647.5,-266.5 647.5,-247.5 697.5,-247.5 697.5,-266.5"/>
<text text-anchor="middle" x="672.5" y="-254.5" font-family="Helvetica,sans-Serif" font-size="10.00">format</text>
</a>
</g>
</g>
<!-- Node14&#45;&gt;Node20 -->
<g id="edge22_Node000014_Node000020" class="edge">
<title>Node14&#45;&gt;Node20</title>
<g id="a_edge22_Node000014_Node000020"><a xlink:title=" ">
<path fill="none" stroke="#63b8ff" d="M593.77,-313.37C608.56,-302.97 633.65,-285.32 651.53,-272.75"/>
<polygon fill="#63b8ff" stroke="#63b8ff" points="653.96,-275.31 660.13,-266.7 649.94,-269.59 653.96,-275.31"/>
</a>
</g>
</g>
<!-- Node16 -->
<g id="Node000016" class="node">
<title>Node16</title>
<g id="a_Node000016"><a xlink:href="EnumReflect_8hpp.html" target="_top" xlink:title=" ">
<polygon fill="white" stroke="#666666" points="651,-206 512,-206 512,-176 651,-176 651,-206"/>
<text text-anchor="start" x="520" y="-194" font-family="Helvetica,sans-Serif" font-size="10.00">MayaFlux/Transitive</text>
<text text-anchor="middle" x="581.5" y="-183" font-family="Helvetica,sans-Serif" font-size="10.00">/Reflect/EnumReflect.hpp</text>
</a>
</g>
</g>
<!-- Node15&#45;&gt;Node16 -->
<g id="edge18_Node000015_Node000016" class="edge">
<title>Node15&#45;&gt;Node16</title>
<g id="a_edge18_Node000015_Node000016"><a xlink:title=" ">
<path fill="none" stroke="#63b8ff" d="M581.5,-247.37C581.5,-239.49 581.5,-227.45 581.5,-216.6"/>
<polygon fill="#63b8ff" stroke="#63b8ff" points="585,-216.36 581.5,-206.36 578,-216.36 585,-216.36"/>
</a>
</g>
</g>
<!-- Node17 -->
<g id="Node000017" class="node">
<title>Node17</title>
<g id="a_Node000017"><a xlink:title=" ">
<polygon fill="#e0e0e0" stroke="#999999" points="719.5,-200.5 669.5,-200.5 669.5,-181.5 719.5,-181.5 719.5,-200.5"/>
<text text-anchor="middle" x="694.5" y="-188.5" font-family="Helvetica,sans-Serif" font-size="10.00">chrono</text>
</a>
</g>
</g>
<!-- Node15&#45;&gt;Node17 -->
<g id="edge19_Node000015_Node000017" class="edge">
<title>Node15&#45;&gt;Node17</title>
<g id="a_edge19_Node000015_Node000017"><a xlink:title=" ">
<path fill="none" stroke="#63b8ff" d="M596.74,-247.37C615.61,-236.68 647.98,-218.35 670.27,-205.72"/>
<polygon fill="#63b8ff" stroke="#63b8ff" points="672.16,-208.67 679.14,-200.7 668.71,-202.58 672.16,-208.67"/>
</a>
</g>
</g>
<!-- Node18 -->
<g id="Node000018" class="node">
<title>Node18</title>
<g id="a_Node000018"><a xlink:title=" ">
<polygon fill="#e0e0e0" stroke="#999999" points="831,-200.5 738,-200.5 738,-181.5 831,-181.5 831,-200.5"/>
<text text-anchor="middle" x="784.5" y="-188.5" font-family="Helvetica,sans-Serif" font-size="10.00">source_location</text>
</a>
</g>
</g>
<!-- Node15&#45;&gt;Node18 -->
<g id="edge20_Node000015_Node000018" class="edge">
<title>Node15&#45;&gt;Node18</title>
<g id="a_edge20_Node000015_Node000018"><a xlink:title=" ">
<path fill="none" stroke="#63b8ff" d="M608.88,-247.37C644.69,-236.08 707.59,-216.25 747.59,-203.64"/>
<polygon fill="#63b8ff" stroke="#63b8ff" points="748.75,-206.94 757.23,-200.6 746.64,-200.27 748.75,-206.94"/>
</a>
</g>
</g>
<!-- Node19 -->
<g id="Node000019" class="node">
<title>Node19</title>
<g id="a_Node000019"><a xlink:title=" ">
<polygon fill="#e0e0e0" stroke="#999999" points="494,-200.5 421,-200.5 421,-181.5 494,-181.5 494,-200.5"/>
<text text-anchor="middle" x="457.5" y="-188.5" font-family="Helvetica,sans-Serif" font-size="10.00">string_view</text>
</a>
</g>
</g>
<!-- Node15&#45;&gt;Node19 -->
<g id="edge21_Node000015_Node000019" class="edge">
<title>Node15&#45;&gt;Node19</title>
<g id="a_edge21_Node000015_Node000019"><a xlink:title=" ">
<path fill="none" stroke="#63b8ff" d="M564.78,-247.37C543.88,-236.59 507.91,-218.02 483.43,-205.38"/>
<polygon fill="#63b8ff" stroke="#63b8ff" points="484.85,-202.18 474.35,-200.7 481.64,-208.4 484.85,-202.18"/>
</a>
</g>
</g>
<!-- Node22&#45;&gt;Node12 -->
<g id="edge29_Node000022_Node000012" class="edge">
<title>Node22&#45;&gt;Node12</title>
<g id="a_edge29_Node000022_Node000012"><a xlink:title=" ">
<path fill="none" stroke="#63b8ff" d="M423.61,-373.63C431.73,-364.31 441.17,-351.44 445.5,-338 452.77,-315.45 438.85,-245.26 436.5,-242 423.1,-223.43 400.87,-211.42 380.58,-203.84"/>
<polygon fill="#63b8ff" stroke="#63b8ff" points="381.72,-200.53 371.13,-200.56 379.43,-207.15 381.72,-200.53"/>
</a>
</g>
</g>
<!-- Node22&#45;&gt;Node14 -->
<g id="edge30_Node000022_Node000014" class="edge">
<title>Node22&#45;&gt;Node14</title>
<g id="a_edge30_Node000022_Node000014"><a xlink:title=" ">
<path fill="none" stroke="#63b8ff" d="M447.25,-373.95C477.68,-362.63 520.02,-346.88 548.97,-336.1"/>
<polygon fill="#63b8ff" stroke="#63b8ff" points="550.46,-339.28 558.61,-332.52 548.02,-332.72 550.46,-339.28"/>
</a>
</g>
</g>
<!-- Node23 -->
<g id="Node000023" class="node">
<title>Node23</title>
<g id="a_Node000023"><a xlink:href="CoordUtils_8hpp.html" target="_top" xlink:title=" ">
<polygon fill="white" stroke="#666666" points="436,-332.5 347,-332.5 347,-313.5 436,-313.5 436,-332.5"/>
<text text-anchor="middle" x="391.5" y="-320.5" font-family="Helvetica,sans-Serif" font-size="10.00">CoordUtils.hpp</text>
</a>
</g>
</g>
<!-- Node22&#45;&gt;Node23 -->
<g id="edge25_Node000022_Node000023" class="edge">
<title>Node22&#45;&gt;Node23</title>
<g id="a_edge25_Node000022_Node000023"><a xlink:title=" ">
<path fill="none" stroke="#63b8ff" d="M405.51,-373.8C402.92,-364.6 399.52,-352.53 396.73,-342.58"/>
<polygon fill="#63b8ff" stroke="#63b8ff" points="400.06,-341.52 393.99,-332.84 393.33,-343.42 400.06,-341.52"/>
</a>
</g>
</g>
<!-- Node24 -->
<g id="Node000024" class="node">
<title>Node24</title>
<g id="a_Node000024"><a xlink:href="OrganizedRegion_8hpp.html" target="_top" xlink:title=" ">
<polygon fill="white" stroke="#666666" points="328.5,-338 182.5,-338 182.5,-308 328.5,-308 328.5,-338"/>
<text text-anchor="start" x="190.5" y="-326" font-family="Helvetica,sans-Serif" font-size="10.00">MayaFlux/Kakshya/Region</text>
<text text-anchor="middle" x="255.5" y="-315" font-family="Helvetica,sans-Serif" font-size="10.00">/OrganizedRegion.hpp</text>
</a>
</g>
</g>
<!-- Node22&#45;&gt;Node24 -->
<g id="edge27_Node000022_Node000024" class="edge">
<title>Node22&#45;&gt;Node24</title>
<g id="a_edge27_Node000022_Node000024"><a xlink:title=" ">
<path fill="none" stroke="#63b8ff" d="M375.7,-373.95C353.04,-364.53 322.98,-352.04 298.6,-341.91"/>
<polygon fill="#63b8ff" stroke="#63b8ff" points="299.79,-338.62 289.22,-338.01 297.11,-345.08 299.79,-338.62"/>
</a>
</g>
</g>
<!-- Node23&#45;&gt;Node10 -->
<g id="edge26_Node000023_Node000010" class="edge">
<title>Node23&#45;&gt;Node10</title>
<g id="a_edge26_Node000023_Node000010"><a xlink:title=" ">
<path fill="none" stroke="#63b8ff" d="M384.49,-313.37C377.62,-304.91 366.86,-291.67 357.58,-280.25"/>
<polygon fill="#63b8ff" stroke="#63b8ff" points="360.19,-277.91 351.17,-272.36 354.76,-282.33 360.19,-277.91"/>
</a>
</g>
</g>
<!-- Node24&#45;&gt;Node5 -->
<g id="edge28_Node000024_Node000005" class="edge">
<title>Node24&#45;&gt;Node5</title>
<g id="a_edge28_Node000024_Node000005"><a xlink:title=" ">
<path fill="none" stroke="#63b8ff" d="M234.42,-307.8C221.38,-299.01 204.45,-287.61 190.08,-277.93"/>
<polygon fill="#63b8ff" stroke="#63b8ff" points="191.77,-274.85 181.52,-272.16 187.86,-280.65 191.77,-274.85"/>
</a>
</g>
</g>
</g>
</svg>
