<?xml version="1.0" encoding="UTF-8" standalone="no"?>
<!DOCTYPE svg PUBLIC "-//W3C//DTD SVG 1.1//EN"
 "http://www.w3.org/Graphics/SVG/1.1/DTD/svg11.dtd">
<!-- Generated by graphviz version 2.43.0 (0)
 -->
<!-- Title: SubsystemManager.cpp Pages: 1 -->
<!--zoomable 577 -->

<svg id="main" version="1.1" xmlns="http://www.w3.org/2000/svg" xmlns:xlink="http://www.w3.org/1999/xlink" xml:space="preserve" onload="init(evt)">
<style type="text/css"><![CDATA[
.node, .edge {opacity: 0.7;}
.node.selected, .edge.selected {opacity: 1;}
.edge:hover path { stroke: red; }
.edge:hover polygon { stroke: red; fill: red; }
]]></style>

<defs>
  <circle id="rim" cx="0" cy="0" r="7"/>
  <circle id="rim2" cx="0" cy="0" r="3.5"/>
  <g id="zoomPlus">
    <use xlink:href="#rim" fill="#404040"><set attributeName="fill" to="#808080" begin="zoomplus.mouseover" end="zoomplus.mouseout"/></use>
    <path d="M-4,0h8M0,-4v8" fill="none" stroke="white" stroke-width="1.5" pointer-events="none"/>
  </g>
  <g id="zoomMin">
    <use xlink:href="#rim" fill="#404040"><set attributeName="fill" to="#808080" begin="zoomminus.mouseover" end="zoomminus.mouseout"/></use>
    <path d="M-4,0h8" fill="none" stroke="white" stroke-width="1.5" pointer-events="none"/>
  </g>
  <g id="arrowUp" transform="translate(30 24)">
    <use xlink:href="#rim"/>
    <path pointer-events="none" fill="none" stroke="white" stroke-width="1.5" d="M0,-3.0v7 M-2.5,-0.5L0,-3.0L2.5,-0.5"/>
  </g>
  <g id="arrowRight" transform="rotate(90) translate(36 -43)">
    <use xlink:href="#rim"/>
    <path pointer-events="none" fill="none" stroke="white" stroke-width="1.5" d="M0,-3.0v7 M-2.5,-0.5L0,-3.0L2.5,-0.5"/>
  </g>
  <g id="arrowDown" transform="rotate(180) translate(-30 -48)">
    <use xlink:href="#rim"/>
    <path pointer-events="none" fill="none" stroke="white" stroke-width="1.5" d="M0,-3.0v7 M-2.5,-0.5L0,-3.0L2.5,-0.5"/>
  </g>
  <g id="arrowLeft" transform="rotate(270) translate(-36 17)">
    <use xlink:href="#rim"/>
    <path pointer-events="none" fill="none" stroke="white" stroke-width="1.5" d="M0,-3.0v7 M-2.5,-0.5L0,-3.0L2.5,-0.5"/>
  </g>
  <g id="resetDef">
    <use xlink:href="#rim2" fill="#404040"><set attributeName="fill" to="#808080" begin="reset.mouseover" end="reset.mouseout"/></use>
  </g>
</defs>
<script type="application/ecmascript">
var viewWidth = 2136;
var viewHeight = 577;
var sectionId = 'dynsection-0';
</script>
<script type="application/ecmascript" xlink:href="svg.min.js"/>
<svg id="graph" class="graph">
<g id="viewport">
<title>SubsystemManager.cpp</title>
<!-- Node1 -->
<g id="Node000001" class="node">
<title>Node1</title>
<g id="a_Node000001"><a xlink:title=" ">
<polygon fill="#999999" stroke="#666666" points="1195.76,-569 1062.76,-569 1062.76,-550 1195.76,-550 1195.76,-569"/>
<text text-anchor="middle" x="1129.26" y="-557" font-family="Helvetica,sans-Serif" font-size="10.00">SubsystemManager.cpp</text>
</a>
</g>
</g>
<!-- Node2 -->
<g id="Node000002" class="node">
<title>Node2</title>
<g id="a_Node000002"><a xlink:href="SubsystemManager_8hpp.html" target="_top" xlink:title=" ">
<polygon fill="white" stroke="#666666" points="1109.26,-514 975.26,-514 975.26,-495 1109.26,-495 1109.26,-514"/>
<text text-anchor="middle" x="1042.26" y="-502" font-family="Helvetica,sans-Serif" font-size="10.00">SubsystemManager.hpp</text>
</a>
</g>
</g>
<!-- Node1&#45;&gt;Node2 -->
<g id="edge1_Node000001_Node000002" class="edge">
<title>Node1&#45;&gt;Node2</title>
<g id="a_edge1_Node000001_Node000002"><a xlink:title=" ">
<path fill="none" stroke="#63b8ff" d="M1115.28,-549.98C1101.79,-541.77 1081.12,-529.18 1065.22,-519.49"/>
<polygon fill="#63b8ff" stroke="#63b8ff" points="1066.85,-516.38 1056.49,-514.17 1063.21,-522.36 1066.85,-516.38"/>
</a>
</g>
</g>
<!-- Node6 -->
<g id="Node000006" class="node">
<title>Node6</title>
<g id="a_Node000006"><a xlink:href="BufferManager_8hpp.html" target="_top" xlink:title=" ">
<polygon fill="white" stroke="#666666" points="540.76,-514 343.76,-514 343.76,-495 540.76,-495 540.76,-514"/>
<text text-anchor="middle" x="442.26" y="-502" font-family="Helvetica,sans-Serif" font-size="10.00">MayaFlux/Buffers/BufferManager.hpp</text>
</a>
</g>
</g>
<!-- Node1&#45;&gt;Node6 -->
<g id="edge5_Node000001_Node000006" class="edge">
<title>Node1&#45;&gt;Node6</title>
<g id="a_edge5_Node000001_Node000006"><a xlink:title=" ">
<path fill="none" stroke="#63b8ff" d="M1062.39,-553.4C956.43,-545.31 743.16,-528.99 550.86,-514.05"/>
<polygon fill="#63b8ff" stroke="#63b8ff" points="551.09,-510.55 540.85,-513.27 550.55,-517.53 551.09,-510.55"/>
</a>
</g>
</g>
<!-- Node23 -->
<g id="Node000023" class="node">
<title>Node23</title>
<g id="a_Node000023"><a xlink:href="AudioSubsystem_8hpp.html" target="_top" xlink:title=" ">
<polygon fill="white" stroke="#666666" points="741.26,-514 559.26,-514 559.26,-495 741.26,-495 741.26,-514"/>
<text text-anchor="middle" x="650.26" y="-502" font-family="Helvetica,sans-Serif" font-size="10.00">Subsystems/AudioSubsystem.hpp</text>
</a>
</g>
</g>
<!-- Node1&#45;&gt;Node23 -->
<g id="edge31_Node000001_Node000023" class="edge">
<title>Node1&#45;&gt;Node23</title>
<g id="a_edge31_Node000001_Node000023"><a xlink:title=" ">
<path fill="none" stroke="#63b8ff" d="M1062.66,-551.13C977.83,-541.74 831.05,-525.5 737.4,-515.14"/>
<polygon fill="#63b8ff" stroke="#63b8ff" points="737.71,-511.65 727.38,-514.03 736.94,-518.61 737.71,-511.65"/>
</a>
</g>
</g>
<!-- Node26 -->
<g id="Node000026" class="node">
<title>Node26</title>
<g id="a_Node000026"><a xlink:href="GraphicsSubsystem_8hpp.html" target="_top" xlink:title=" ">
<polygon fill="white" stroke="#666666" points="956.76,-514 759.76,-514 759.76,-495 956.76,-495 956.76,-514"/>
<text text-anchor="middle" x="858.26" y="-502" font-family="Helvetica,sans-Serif" font-size="10.00">Subsystems/GraphicsSubsystem.hpp</text>
</a>
</g>
</g>
<!-- Node1&#45;&gt;Node26 -->
<g id="edge35_Node000001_Node000026" class="edge">
<title>Node1&#45;&gt;Node26</title>
<g id="a_edge35_Node000001_Node000026"><a xlink:title=" ">
<path fill="none" stroke="#63b8ff" d="M1085.72,-549.98C1038.45,-540.74 962.91,-525.97 911.98,-516.01"/>
<polygon fill="#63b8ff" stroke="#63b8ff" points="912.63,-512.57 902.14,-514.08 911.28,-519.44 912.63,-512.57"/>
</a>
</g>
</g>
<!-- Node28 -->
<g id="Node000028" class="node">
<title>Node28</title>
<g id="a_Node000028"><a xlink:href="InputSubsystem_8hpp.html" target="_top" xlink:title=" ">
<polygon fill="white" stroke="#666666" points="1306.76,-514 1127.76,-514 1127.76,-495 1306.76,-495 1306.76,-514"/>
<text text-anchor="middle" x="1217.26" y="-502" font-family="Helvetica,sans-Serif" font-size="10.00">Subsystems/InputSubsystem.hpp</text>
</a>
</g>
</g>
<!-- Node1&#45;&gt;Node28 -->
<g id="edge38_Node000001_Node000028" class="edge">
<title>Node1&#45;&gt;Node28</title>
<g id="a_edge38_Node000001_Node000028"><a xlink:title=" ">
<path fill="none" stroke="#63b8ff" d="M1143.4,-549.98C1157.04,-541.77 1177.95,-529.18 1194.04,-519.49"/>
<polygon fill="#63b8ff" stroke="#63b8ff" points="1196.1,-522.33 1202.86,-514.17 1192.49,-516.33 1196.1,-522.33"/>
</a>
</g>
</g>
<!-- Node30 -->
<g id="Node000030" class="node">
<title>Node30</title>
<g id="a_Node000030"><a xlink:href="GlobalInputConfig_8hpp.html" target="_top" xlink:title=" ">
<polygon fill="white" stroke="#666666" points="1322.76,-393 1173.76,-393 1173.76,-363 1322.76,-363 1322.76,-393"/>
<text text-anchor="start" x="1181.76" y="-381" font-family="Helvetica,sans-Serif" font-size="10.00">MayaFlux/Core/GlobalInput</text>
<text text-anchor="middle" x="1248.26" y="-370" font-family="Helvetica,sans-Serif" font-size="10.00">Config.hpp</text>
</a>
</g>
</g>
<!-- Node1&#45;&gt;Node30 -->
<g id="edge56_Node000001_Node000030" class="edge">
<title>Node1&#45;&gt;Node30</title>
<g id="a_edge56_Node000001_Node000030"><a xlink:title=" ">
<path fill="none" stroke="#63b8ff" d="M1195.92,-551.25C1243.05,-544.58 1300.4,-532.83 1315.26,-514 1326.31,-500 1331.85,-476.14 1306.26,-429 1300.01,-417.5 1290,-407.45 1280.03,-399.44"/>
<polygon fill="#63b8ff" stroke="#63b8ff" points="1281.85,-396.42 1271.75,-393.2 1277.63,-402.01 1281.85,-396.42"/>
</a>
</g>
</g>
<!-- Node32 -->
<g id="Node000032" class="node">
<title>Node32</title>
<g id="a_Node000032"><a xlink:href="NetworkSubsystem_8hpp.html" target="_top" xlink:title=" ">
<polygon fill="white" stroke="#666666" points="1557.76,-514 1362.76,-514 1362.76,-495 1557.76,-495 1557.76,-514"/>
<text text-anchor="middle" x="1460.26" y="-502" font-family="Helvetica,sans-Serif" font-size="10.00">Subsystems/NetworkSubsystem.hpp</text>
</a>
</g>
</g>
<!-- Node1&#45;&gt;Node32 -->
<g id="edge43_Node000001_Node000032" class="edge">
<title>Node1&#45;&gt;Node32</title>
<g id="a_edge43_Node000001_Node000032"><a xlink:title=" ">
<path fill="none" stroke="#63b8ff" d="M1182.44,-549.98C1240.86,-540.63 1334.65,-525.61 1396.85,-515.65"/>
<polygon fill="#63b8ff" stroke="#63b8ff" points="1397.61,-519.08 1406.94,-514.04 1396.51,-512.16 1397.61,-519.08"/>
</a>
</g>
</g>
<!-- Node37 -->
<g id="Node000037" class="node">
<title>Node37</title>
<g id="a_Node000037"><a xlink:href="Archivist_8hpp.html" target="_top" xlink:title=" ">
<polygon fill="white" stroke="#666666" points="1927.26,-514 1759.26,-514 1759.26,-495 1927.26,-495 1927.26,-514"/>
<text text-anchor="middle" x="1843.26" y="-502" font-family="Helvetica,sans-Serif" font-size="10.00">MayaFlux/Journal/Archivist.hpp</text>
</a>
</g>
</g>
<!-- Node1&#45;&gt;Node37 -->
<g id="edge49_Node000001_Node000037" class="edge">
<title>Node1&#45;&gt;Node37</title>
<g id="a_edge49_Node000001_Node000037"><a xlink:title=" ">
<path fill="none" stroke="#63b8ff" d="M1195.79,-553.56C1323.24,-544.1 1602.18,-523.39 1748.85,-512.51"/>
<polygon fill="#63b8ff" stroke="#63b8ff" points="1749.46,-515.97 1759.18,-511.74 1748.94,-508.99 1749.46,-515.97"/>
</a>
</g>
</g>
<!-- Node3 -->
<g id="Node000003" class="node">
<title>Node3</title>
<g id="a_Node000003"><a xlink:href="Subsystem_8hpp.html" target="_top" xlink:title=" ">
<polygon fill="white" stroke="#666666" points="1117.26,-453.5 963.26,-453.5 963.26,-434.5 1117.26,-434.5 1117.26,-453.5"/>
<text text-anchor="middle" x="1040.26" y="-441.5" font-family="Helvetica,sans-Serif" font-size="10.00">Subsystems/Subsystem.hpp</text>
</a>
</g>
</g>
<!-- Node2&#45;&gt;Node3 -->
<g id="edge2_Node000002_Node000003" class="edge">
<title>Node2&#45;&gt;Node3</title>
<g id="a_edge2_Node000002_Node000003"><a xlink:title=" ">
<path fill="none" stroke="#63b8ff" d="M1041.96,-494.87C1041.69,-486.75 1041.26,-474.31 1040.9,-463.89"/>
<polygon fill="#63b8ff" stroke="#63b8ff" points="1044.39,-463.54 1040.56,-453.67 1037.4,-463.78 1044.39,-463.54"/>
</a>
</g>
</g>
<!-- Node4 -->
<g id="Node000004" class="node">
<title>Node4</title>
<g id="a_Node000004"><a xlink:href="ProcessingArchitecture_8hpp.html" target="_top" xlink:title="Unified processing architecture for multimodal subsystem coordination.">
<polygon fill="white" stroke="#666666" points="973.26,-261 827.26,-261 827.26,-231 973.26,-231 973.26,-261"/>
<text text-anchor="start" x="835.26" y="-249" font-family="Helvetica,sans-Serif" font-size="10.00">MayaFlux/Core/Processing</text>
<text text-anchor="middle" x="900.26" y="-238" font-family="Helvetica,sans-Serif" font-size="10.00">Architecture.hpp</text>
</a>
</g>
</g>
<!-- Node3&#45;&gt;Node4 -->
<g id="edge3_Node000003_Node000004" class="edge">
<title>Node3&#45;&gt;Node4</title>
<g id="a_edge3_Node000003_Node000004"><a xlink:title=" ">
<path fill="none" stroke="#63b8ff" d="M1034.06,-434.33C1013.47,-405.49 946.87,-312.26 916.11,-269.19"/>
<polygon fill="#63b8ff" stroke="#63b8ff" points="918.95,-267.14 910.29,-261.04 913.25,-271.21 918.95,-267.14"/>
</a>
</g>
</g>
<!-- Node5 -->
<g id="Node000005" class="node">
<title>Node5</title>
<g id="a_Node000005"><a xlink:href="ProcessingTokens_8hpp.html" target="_top" xlink:title=" ">
<polygon fill="white" stroke="#666666" points="631.26,-140 485.26,-140 485.26,-110 631.26,-110 631.26,-140"/>
<text text-anchor="start" x="493.26" y="-128" font-family="Helvetica,sans-Serif" font-size="10.00">MayaFlux/Core/Processing</text>
<text text-anchor="middle" x="558.26" y="-117" font-family="Helvetica,sans-Serif" font-size="10.00">Tokens.hpp</text>
</a>
</g>
</g>
<!-- Node4&#45;&gt;Node5 -->
<g id="edge4_Node000004_Node000005" class="edge">
<title>Node4&#45;&gt;Node5</title>
<g id="a_edge4_Node000004_Node000005"><a xlink:title=" ">
<path fill="none" stroke="#63b8ff" d="M860.02,-231C797.33,-209.19 676.48,-167.14 608.28,-143.4"/>
<polygon fill="#63b8ff" stroke="#63b8ff" points="609.2,-140.02 598.61,-140.04 606.9,-146.63 609.2,-140.02"/>
</a>
</g>
</g>
<!-- Node7 -->
<g id="Node000007" class="node">
<title>Node7</title>
<g id="a_Node000007"><a xlink:href="BufferSpec_8hpp.html" target="_top" xlink:title=" ">
<polygon fill="white" stroke="#666666" points="369.26,-453.5 279.26,-453.5 279.26,-434.5 369.26,-434.5 369.26,-453.5"/>
<text text-anchor="middle" x="324.26" y="-441.5" font-family="Helvetica,sans-Serif" font-size="10.00">BufferSpec.hpp</text>
</a>
</g>
</g>
<!-- Node6&#45;&gt;Node7 -->
<g id="edge6_Node000006_Node000007" class="edge">
<title>Node6&#45;&gt;Node7</title>
<g id="a_edge6_Node000006_Node000007"><a xlink:title=" ">
<path fill="none" stroke="#63b8ff" d="M425.1,-494.99C405.53,-485.29 373.29,-469.31 350.54,-458.03"/>
<polygon fill="#63b8ff" stroke="#63b8ff" points="351.95,-454.82 341.44,-453.52 348.84,-461.09 351.95,-454.82"/>
</a>
</g>
</g>
<!-- Node8 -->
<g id="Node000008" class="node">
<title>Node8</title>
<g id="a_Node000008"><a xlink:href="TokenUnitManager_8hpp.html" target="_top" xlink:title=" ">
<polygon fill="white" stroke="#666666" points="540.76,-459 387.76,-459 387.76,-429 540.76,-429 540.76,-459"/>
<text text-anchor="start" x="395.76" y="-447" font-family="Helvetica,sans-Serif" font-size="10.00">MayaFlux/Buffers/Managers</text>
<text text-anchor="middle" x="464.26" y="-436" font-family="Helvetica,sans-Serif" font-size="10.00">/TokenUnitManager.hpp</text>
</a>
</g>
</g>
<!-- Node6&#45;&gt;Node8 -->
<g id="edge7_Node000006_Node000008" class="edge">
<title>Node6&#45;&gt;Node8</title>
<g id="a_edge7_Node000006_Node000008"><a xlink:title=" ">
<path fill="none" stroke="#63b8ff" d="M445.5,-494.87C448.1,-487.96 451.88,-477.93 455.36,-468.67"/>
<polygon fill="#63b8ff" stroke="#63b8ff" points="458.71,-469.71 458.95,-459.11 452.15,-467.24 458.71,-469.71"/>
</a>
</g>
</g>
<!-- Node9 -->
<g id="Node000009" class="node">
<title>Node9</title>
<g id="a_Node000009"><a xlink:href="RootAudioBuffer_8hpp.html" target="_top" xlink:title=" ">
<polygon fill="white" stroke="#666666" points="593.26,-393 465.26,-393 465.26,-363 593.26,-363 593.26,-393"/>
<text text-anchor="start" x="473.26" y="-381" font-family="Helvetica,sans-Serif" font-size="10.00">MayaFlux/Buffers/Root</text>
<text text-anchor="middle" x="529.26" y="-370" font-family="Helvetica,sans-Serif" font-size="10.00">/RootAudioBuffer.hpp</text>
</a>
</g>
</g>
<!-- Node8&#45;&gt;Node9 -->
<g id="edge8_Node000008_Node000009" class="edge">
<title>Node8&#45;&gt;Node9</title>
<g id="a_edge8_Node000008_Node000009"><a xlink:title=" ">
<path fill="none" stroke="#63b8ff" d="M478.68,-428.8C487.18,-420.43 498.1,-409.68 507.62,-400.31"/>
<polygon fill="#63b8ff" stroke="#63b8ff" points="510.2,-402.67 514.87,-393.16 505.29,-397.69 510.2,-402.67"/>
</a>
</g>
</g>
<!-- Node18 -->
<g id="Node000018" class="node">
<title>Node18</title>
<g id="a_Node000018"><a xlink:href="RootGraphicsBuffer_8hpp.html" target="_top" xlink:title=" ">
<polygon fill="white" stroke="#666666" points="447.26,-393 313.26,-393 313.26,-363 447.26,-363 447.26,-393"/>
<text text-anchor="start" x="321.26" y="-381" font-family="Helvetica,sans-Serif" font-size="10.00">MayaFlux/Buffers/Root</text>
<text text-anchor="middle" x="380.26" y="-370" font-family="Helvetica,sans-Serif" font-size="10.00">/RootGraphicsBuffer.hpp</text>
</a>
</g>
</g>
<!-- Node8&#45;&gt;Node18 -->
<g id="edge20_Node000008_Node000018" class="edge">
<title>Node8&#45;&gt;Node18</title>
<g id="a_edge20_Node000008_Node000018"><a xlink:title=" ">
<path fill="none" stroke="#63b8ff" d="M445.62,-428.8C434.31,-420.18 419.68,-409.04 407.14,-399.48"/>
<polygon fill="#63b8ff" stroke="#63b8ff" points="408.92,-396.44 398.85,-393.16 404.68,-402.01 408.92,-396.44"/>
</a>
</g>
</g>
<!-- Node10 -->
<g id="Node000010" class="node">
<title>Node10</title>
<g id="a_Node000010"><a xlink:href="RootBuffer_8hpp.html" target="_top" xlink:title=" ">
<polygon fill="white" stroke="#666666" points="500.76,-321.5 411.76,-321.5 411.76,-302.5 500.76,-302.5 500.76,-321.5"/>
<text text-anchor="middle" x="456.26" y="-309.5" font-family="Helvetica,sans-Serif" font-size="10.00">RootBuffer.hpp</text>
</a>
</g>
</g>
<!-- Node9&#45;&gt;Node10 -->
<g id="edge9_Node000009_Node000010" class="edge">
<title>Node9&#45;&gt;Node10</title>
<g id="a_edge9_Node000009_Node000010"><a xlink:title=" ">
<path fill="none" stroke="#63b8ff" d="M513.06,-362.8C501.45,-352.62 485.84,-338.93 473.92,-328.48"/>
<polygon fill="#63b8ff" stroke="#63b8ff" points="476.17,-325.8 466.35,-321.84 471.56,-331.07 476.17,-325.8"/>
</a>
</g>
</g>
<!-- Node15 -->
<g id="Node000015" class="node">
<title>Node15</title>
<g id="a_Node000015"><a xlink:href="AudioBuffer_8hpp.html" target="_top" xlink:title=" ">
<polygon fill="white" stroke="#666666" points="739.26,-321.5 557.26,-321.5 557.26,-302.5 739.26,-302.5 739.26,-321.5"/>
<text text-anchor="middle" x="648.26" y="-309.5" font-family="Helvetica,sans-Serif" font-size="10.00">MayaFlux/Buffers/AudioBuffer.hpp</text>
</a>
</g>
</g>
<!-- Node9&#45;&gt;Node15 -->
<g id="edge15_Node000009_Node000015" class="edge">
<title>Node9&#45;&gt;Node15</title>
<g id="a_edge15_Node000009_Node000015"><a xlink:title=" ">
<path fill="none" stroke="#63b8ff" d="M555.37,-362.95C575.6,-352.08 603.44,-337.11 623.35,-326.4"/>
<polygon fill="#63b8ff" stroke="#63b8ff" points="625.27,-329.34 632.42,-321.52 621.96,-323.17 625.27,-329.34"/>
</a>
</g>
</g>
<!-- Node17 -->
<g id="Node000017" class="node">
<title>Node17</title>
<g id="a_Node000017"><a xlink:href="BufferProcessor_8hpp.html" target="_top" xlink:title=" ">
<polygon fill="white" stroke="#666666" points="500.26,-255.5 298.26,-255.5 298.26,-236.5 500.26,-236.5 500.26,-255.5"/>
<text text-anchor="middle" x="399.26" y="-243.5" font-family="Helvetica,sans-Serif" font-size="10.00">MayaFlux/Buffers/BufferProcessor.hpp</text>
</a>
</g>
</g>
<!-- Node9&#45;&gt;Node17 -->
<g id="edge18_Node000009_Node000017" class="edge">
<title>Node9&#45;&gt;Node17</title>
<g id="a_edge18_Node000009_Node000017"><a xlink:title=" ">
<path fill="none" stroke="#63b8ff" d="M529.3,-362.92C528.63,-345.53 525.02,-315.92 509.26,-297 493.66,-278.27 469.55,-266.24 447.88,-258.69"/>
<polygon fill="#63b8ff" stroke="#63b8ff" points="448.73,-255.29 438.14,-255.53 446.57,-261.94 448.73,-255.29"/>
</a>
</g>
</g>
<!-- Node11 -->
<g id="Node000011" class="node">
<title>Node11</title>
<g id="a_Node000011"><a xlink:href="BufferUtils_8hpp.html" target="_top" xlink:title=" ">
<polygon fill="white" stroke="#666666" points="555.26,-195 377.26,-195 377.26,-176 555.26,-176 555.26,-195"/>
<text text-anchor="middle" x="466.26" y="-183" font-family="Helvetica,sans-Serif" font-size="10.00">MayaFlux/Buffers/BufferUtils.hpp</text>
</a>
</g>
</g>
<!-- Node10&#45;&gt;Node11 -->
<g id="edge10_Node000010_Node000011" class="edge">
<title>Node10&#45;&gt;Node11</title>
<g id="a_edge10_Node000010_Node000011"><a xlink:title=" ">
<path fill="none" stroke="#63b8ff" d="M500.97,-307.66C532.47,-302.71 572.58,-290.56 593.26,-261 600.9,-250.07 600.97,-241.88 593.26,-231 581.98,-215.1 564.56,-204.83 546.2,-198.22"/>
<polygon fill="#63b8ff" stroke="#63b8ff" points="547.13,-194.84 536.54,-195.09 544.97,-201.5 547.13,-194.84"/>
</a>
</g>
</g>
<!-- Node11&#45;&gt;Node5 -->
<g id="edge11_Node000011_Node000005" class="edge">
<title>Node11&#45;&gt;Node5</title>
<g id="a_edge11_Node000011_Node000005"><a xlink:title=" ">
<path fill="none" stroke="#63b8ff" d="M479.83,-175.87C492.32,-167.93 511.28,-155.87 527.44,-145.6"/>
<polygon fill="#63b8ff" stroke="#63b8ff" points="529.5,-148.43 536.06,-140.11 525.74,-142.53 529.5,-148.43"/>
</a>
</g>
</g>
<!-- Node12 -->
<g id="Node000012" class="node">
<title>Node12</title>
<g id="a_Node000012"><a xlink:href="VertexLayout_8hpp.html" target="_top" xlink:title=" ">
<polygon fill="white" stroke="#666666" points="344.76,-140 193.76,-140 193.76,-110 344.76,-110 344.76,-140"/>
<text text-anchor="start" x="201.76" y="-128" font-family="Helvetica,sans-Serif" font-size="10.00">MayaFlux/Kakshya/NDData</text>
<text text-anchor="middle" x="269.26" y="-117" font-family="Helvetica,sans-Serif" font-size="10.00">/VertexLayout.hpp</text>
</a>
</g>
</g>
<!-- Node11&#45;&gt;Node12 -->
<g id="edge12_Node000011_Node000012" class="edge">
<title>Node11&#45;&gt;Node12</title>
<g id="a_edge12_Node000011_Node000012"><a xlink:title=" ">
<path fill="none" stroke="#63b8ff" d="M437.61,-175.99C408.64,-167.39 363.06,-153.86 326.63,-143.04"/>
<polygon fill="#63b8ff" stroke="#63b8ff" points="327.2,-139.56 316.62,-140.06 325.21,-146.27 327.2,-139.56"/>
</a>
</g>
</g>
<!-- Node13 -->
<g id="Node000013" class="node">
<title>Node13</title>
<g id="a_Node000013"><a xlink:href="NDData_8hpp.html" target="_top" xlink:title=" ">
<polygon fill="white" stroke="#666666" points="307.26,-74 231.26,-74 231.26,-55 307.26,-55 307.26,-74"/>
<text text-anchor="middle" x="269.26" y="-62" font-family="Helvetica,sans-Serif" font-size="10.00">NDData.hpp</text>
</a>
</g>
</g>
<!-- Node12&#45;&gt;Node13 -->
<g id="edge13_Node000012_Node000013" class="edge">
<title>Node12&#45;&gt;Node13</title>
<g id="a_edge13_Node000012_Node000013"><a xlink:title=" ">
<path fill="none" stroke="#63b8ff" d="M269.26,-109.84C269.26,-102.21 269.26,-92.7 269.26,-84.45"/>
<polygon fill="#63b8ff" stroke="#63b8ff" points="272.76,-84.27 269.26,-74.27 265.76,-84.27 272.76,-84.27"/>
</a>
</g>
</g>
<!-- Node14 -->
<g id="Node000014" class="node">
<title>Node14</title>
<g id="a_Node000014"><a xlink:title=" ">
<polygon fill="#e0e0e0" stroke="#999999" points="308.26,-19 230.26,-19 230.26,0 308.26,0 308.26,-19"/>
<text text-anchor="middle" x="269.26" y="-7" font-family="Helvetica,sans-Serif" font-size="10.00">glm/glm.hpp</text>
</a>
</g>
</g>
<!-- Node13&#45;&gt;Node14 -->
<g id="edge14_Node000013_Node000014" class="edge">
<title>Node13&#45;&gt;Node14</title>
<g id="a_edge14_Node000013_Node000014"><a xlink:title=" ">
<path fill="none" stroke="#63b8ff" d="M269.26,-54.75C269.26,-47.8 269.26,-37.85 269.26,-29.13"/>
<polygon fill="#63b8ff" stroke="#63b8ff" points="272.76,-29.09 269.26,-19.09 265.76,-29.09 272.76,-29.09"/>
</a>
</g>
</g>
<!-- Node15&#45;&gt;Node5 -->
<g id="edge17_Node000015_Node000005" class="edge">
<title>Node15&#45;&gt;Node5</title>
<g id="a_edge17_Node000015_Node000005"><a xlink:title=" ">
<path fill="none" stroke="#63b8ff" d="M644.09,-302.1C637.14,-287.3 622.74,-256.73 610.26,-231 596.62,-202.88 580.62,-170.68 570,-149.44"/>
<polygon fill="#63b8ff" stroke="#63b8ff" points="573,-147.61 565.4,-140.23 566.74,-150.74 573,-147.61"/>
</a>
</g>
</g>
<!-- Node16 -->
<g id="Node000016" class="node">
<title>Node16</title>
<g id="a_Node000016"><a xlink:href="Buffer_8hpp.html" target="_top" xlink:title=" ">
<polygon fill="white" stroke="#666666" points="584.26,-255.5 518.26,-255.5 518.26,-236.5 584.26,-236.5 584.26,-255.5"/>
<text text-anchor="middle" x="551.26" y="-243.5" font-family="Helvetica,sans-Serif" font-size="10.00">Buffer.hpp</text>
</a>
</g>
</g>
<!-- Node15&#45;&gt;Node16 -->
<g id="edge16_Node000015_Node000016" class="edge">
<title>Node15&#45;&gt;Node16</title>
<g id="a_edge16_Node000015_Node000016"><a xlink:title=" ">
<path fill="none" stroke="#63b8ff" d="M635.18,-302.37C619.19,-291.82 591.93,-273.84 572.83,-261.23"/>
<polygon fill="#63b8ff" stroke="#63b8ff" points="574.72,-258.28 564.44,-255.7 570.86,-264.13 574.72,-258.28"/>
</a>
</g>
</g>
<!-- Node17&#45;&gt;Node11 -->
<g id="edge19_Node000017_Node000011" class="edge">
<title>Node17&#45;&gt;Node11</title>
<g id="a_edge19_Node000017_Node000011"><a xlink:title=" ">
<path fill="none" stroke="#63b8ff" d="M409.14,-236.37C419.54,-227.3 436.09,-212.84 448.71,-201.82"/>
<polygon fill="#63b8ff" stroke="#63b8ff" points="451.1,-204.38 456.33,-195.17 446.5,-199.11 451.1,-204.38"/>
</a>
</g>
</g>
<!-- Node18&#45;&gt;Node10 -->
<g id="edge30_Node000018_Node000010" class="edge">
<title>Node18&#45;&gt;Node10</title>
<g id="a_edge30_Node000018_Node000010"><a xlink:title=" ">
<path fill="none" stroke="#63b8ff" d="M397.13,-362.8C409.21,-352.62 425.47,-338.93 437.88,-328.48"/>
<polygon fill="#63b8ff" stroke="#63b8ff" points="440.36,-330.96 445.76,-321.84 435.85,-325.61 440.36,-330.96"/>
</a>
</g>
</g>
<!-- Node18&#45;&gt;Node17 -->
<g id="edge21_Node000018_Node000017" class="edge">
<title>Node18&#45;&gt;Node17</title>
<g id="a_edge21_Node000018_Node000017"><a xlink:title=" ">
<path fill="none" stroke="#63b8ff" d="M382.33,-362.84C385.76,-339.34 392.64,-292.26 396.49,-265.93"/>
<polygon fill="#63b8ff" stroke="#63b8ff" points="400,-266.15 397.98,-255.75 393.07,-265.14 400,-266.15"/>
</a>
</g>
</g>
<!-- Node19 -->
<g id="Node000019" class="node">
<title>Node19</title>
<g id="a_Node000019"><a xlink:href="VKBuffer_8hpp.html" target="_top" xlink:title=" ">
<polygon fill="white" stroke="#666666" points="355.26,-321.5 187.26,-321.5 187.26,-302.5 355.26,-302.5 355.26,-321.5"/>
<text text-anchor="middle" x="271.26" y="-309.5" font-family="Helvetica,sans-Serif" font-size="10.00">MayaFlux/Buffers/VKBuffer.hpp</text>
</a>
</g>
</g>
<!-- Node18&#45;&gt;Node19 -->
<g id="edge22_Node000018_Node000019" class="edge">
<title>Node18&#45;&gt;Node19</title>
<g id="a_edge22_Node000018_Node000019"><a xlink:title=" ">
<path fill="none" stroke="#63b8ff" d="M356.34,-362.95C337.98,-352.18 312.78,-337.38 294.57,-326.69"/>
<polygon fill="#63b8ff" stroke="#63b8ff" points="296.16,-323.56 285.76,-321.52 292.62,-329.6 296.16,-323.56"/>
</a>
</g>
</g>
<!-- Node19&#45;&gt;Node5 -->
<g id="edge25_Node000019_Node000005" class="edge">
<title>Node19&#45;&gt;Node5</title>
<g id="a_edge25_Node000019_Node000005"><a xlink:title=" ">
<path fill="none" stroke="#63b8ff" d="M271.22,-302.27C271.56,-286.64 274.17,-253.45 289.26,-231 313.13,-195.5 329.42,-193.94 368.26,-176 401.8,-160.51 440.97,-149.17 475,-141.25"/>
<polygon fill="#63b8ff" stroke="#63b8ff" points="475.94,-144.63 484.91,-139.01 474.39,-137.8 475.94,-144.63"/>
</a>
</g>
</g>
<!-- Node19&#45;&gt;Node16 -->
<g id="edge23_Node000019_Node000016" class="edge">
<title>Node19&#45;&gt;Node16</title>
<g id="a_edge23_Node000019_Node000016"><a xlink:title=" ">
<path fill="none" stroke="#63b8ff" d="M319.96,-302.46C368.34,-293.58 444.46,-278.54 509.26,-261 511.88,-260.29 514.58,-259.51 517.28,-258.69"/>
<polygon fill="#63b8ff" stroke="#63b8ff" points="518.5,-261.98 526.97,-255.62 516.38,-255.3 518.5,-261.98"/>
</a>
</g>
</g>
<!-- Node19&#45;&gt;Node17 -->
<g id="edge24_Node000019_Node000017" class="edge">
<title>Node19&#45;&gt;Node17</title>
<g id="a_edge24_Node000019_Node000017"><a xlink:title=" ">
<path fill="none" stroke="#63b8ff" d="M288.52,-302.37C310.18,-291.54 347.55,-272.85 372.83,-260.22"/>
<polygon fill="#63b8ff" stroke="#63b8ff" points="374.48,-263.3 381.86,-255.7 371.35,-257.04 374.48,-263.3"/>
</a>
</g>
</g>
<!-- Node20 -->
<g id="Node000020" class="node">
<title>Node20</title>
<g id="a_Node000020"><a xlink:href="ShaderUtils_8hpp.html" target="_top" xlink:title=" ">
<polygon fill="white" stroke="#666666" points="191.26,-261 49.26,-261 49.26,-231 191.26,-231 191.26,-261"/>
<text text-anchor="start" x="57.26" y="-249" font-family="Helvetica,sans-Serif" font-size="10.00">MayaFlux/Portal/Graphics</text>
<text text-anchor="middle" x="120.26" y="-238" font-family="Helvetica,sans-Serif" font-size="10.00">/ShaderUtils.hpp</text>
</a>
</g>
</g>
<!-- Node19&#45;&gt;Node20 -->
<g id="edge26_Node000019_Node000020" class="edge">
<title>Node19&#45;&gt;Node20</title>
<g id="a_edge26_Node000019_Node000020"><a xlink:title=" ">
<path fill="none" stroke="#63b8ff" d="M250.89,-302.37C228.47,-292.87 191.79,-277.32 162.99,-265.11"/>
<polygon fill="#63b8ff" stroke="#63b8ff" points="164.14,-261.8 153.56,-261.12 161.4,-268.24 164.14,-261.8"/>
</a>
</g>
</g>
<!-- Node20&#45;&gt;Node12 -->
<g id="edge29_Node000020_Node000012" class="edge">
<title>Node20&#45;&gt;Node12</title>
<g id="a_edge29_Node000020_Node000012"><a xlink:title=" ">
<path fill="none" stroke="#63b8ff" d="M59.32,-230.95C22.15,-219.51 -14.54,-201.13 6.26,-176 28.53,-149.1 115.29,-136.55 183.15,-130.77"/>
<polygon fill="#63b8ff" stroke="#63b8ff" points="183.75,-134.24 193.44,-129.94 183.19,-127.26 183.75,-134.24"/>
</a>
</g>
</g>
<!-- Node21 -->
<g id="Node000021" class="node">
<title>Node21</title>
<g id="a_Node000021"><a xlink:title=" ">
<polygon fill="#e0e0e0" stroke="#999999" points="120.76,-195 15.76,-195 15.76,-176 120.76,-176 120.76,-195"/>
<text text-anchor="middle" x="68.26" y="-183" font-family="Helvetica,sans-Serif" font-size="10.00">vulkan/vulkan.hpp</text>
</a>
</g>
</g>
<!-- Node20&#45;&gt;Node21 -->
<g id="edge27_Node000020_Node000021" class="edge">
<title>Node20&#45;&gt;Node21</title>
<g id="a_edge27_Node000020_Node000021"><a xlink:title=" ">
<path fill="none" stroke="#63b8ff" d="M107.67,-230.84C100.2,-222.43 90.69,-211.74 82.89,-202.96"/>
<polygon fill="#63b8ff" stroke="#63b8ff" points="85.31,-200.41 76.05,-195.27 80.08,-205.07 85.31,-200.41"/>
</a>
</g>
</g>
<!-- Node22 -->
<g id="Node000022" class="node">
<title>Node22</title>
<g id="a_Node000022"><a xlink:href="GraphicsUtils_8hpp.html" target="_top" xlink:title=" ">
<polygon fill="white" stroke="#666666" points="241.76,-195 138.76,-195 138.76,-176 241.76,-176 241.76,-195"/>
<text text-anchor="middle" x="190.26" y="-183" font-family="Helvetica,sans-Serif" font-size="10.00">GraphicsUtils.hpp</text>
</a>
</g>
</g>
<!-- Node20&#45;&gt;Node22 -->
<g id="edge28_Node000020_Node000022" class="edge">
<title>Node20&#45;&gt;Node22</title>
<g id="a_edge28_Node000020_Node000022"><a xlink:title=" ">
<path fill="none" stroke="#63b8ff" d="M137.2,-230.84C147.68,-222.09 161.12,-210.85 171.85,-201.88"/>
<polygon fill="#63b8ff" stroke="#63b8ff" points="174.34,-204.36 179.77,-195.27 169.85,-198.99 174.34,-204.36"/>
</a>
</g>
</g>
<!-- Node23&#45;&gt;Node3 -->
<g id="edge32_Node000023_Node000003" class="edge">
<title>Node23&#45;&gt;Node3</title>
<g id="a_edge32_Node000023_Node000003"><a xlink:title=" ">
<path fill="none" stroke="#63b8ff" d="M708.63,-494.97C769.1,-486.1 866.32,-471.75 950.26,-459 958.57,-457.74 967.32,-456.39 975.96,-455.06"/>
<polygon fill="#63b8ff" stroke="#63b8ff" points="976.67,-458.49 986.01,-453.5 975.6,-451.57 976.67,-458.49"/>
</a>
</g>
</g>
<!-- Node24 -->
<g id="Node000024" class="node">
<title>Node24</title>
<g id="a_Node000024"><a xlink:href="AudioBackend_8hpp.html" target="_top" xlink:title=" ">
<polygon fill="white" stroke="#666666" points="738.26,-459 598.26,-459 598.26,-429 738.26,-429 738.26,-459"/>
<text text-anchor="start" x="606.26" y="-447" font-family="Helvetica,sans-Serif" font-size="10.00">MayaFlux/Core/Backends</text>
<text text-anchor="middle" x="668.26" y="-436" font-family="Helvetica,sans-Serif" font-size="10.00">/Audio/AudioBackend.hpp</text>
</a>
</g>
</g>
<!-- Node23&#45;&gt;Node24 -->
<g id="edge33_Node000023_Node000024" class="edge">
<title>Node23&#45;&gt;Node24</title>
<g id="a_edge33_Node000023_Node000024"><a xlink:title=" ">
<path fill="none" stroke="#63b8ff" d="M652.91,-494.87C655.02,-488.03 658.06,-478.14 660.88,-468.97"/>
<polygon fill="#63b8ff" stroke="#63b8ff" points="664.32,-469.7 663.92,-459.11 657.63,-467.64 664.32,-469.7"/>
</a>
</g>
</g>
<!-- Node25 -->
<g id="Node000025" class="node">
<title>Node25</title>
<g id="a_Node000025"><a xlink:href="GlobalStreamInfo_8hpp.html" target="_top" xlink:title=" ">
<polygon fill="white" stroke="#666666" points="771.26,-393 611.26,-393 611.26,-363 771.26,-363 771.26,-393"/>
<text text-anchor="start" x="619.26" y="-381" font-family="Helvetica,sans-Serif" font-size="10.00">MayaFlux/Core/GlobalStream</text>
<text text-anchor="middle" x="691.26" y="-370" font-family="Helvetica,sans-Serif" font-size="10.00">Info.hpp</text>
</a>
</g>
</g>
<!-- Node24&#45;&gt;Node25 -->
<g id="edge34_Node000024_Node000025" class="edge">
<title>Node24&#45;&gt;Node25</title>
<g id="a_edge34_Node000024_Node000025"><a xlink:title=" ">
<path fill="none" stroke="#63b8ff" d="M673.36,-428.8C676.1,-421.17 679.55,-411.57 682.69,-402.84"/>
<polygon fill="#63b8ff" stroke="#63b8ff" points="686.08,-403.76 686.17,-393.16 679.49,-401.39 686.08,-403.76"/>
</a>
</g>
</g>
<!-- Node26&#45;&gt;Node3 -->
<g id="edge37_Node000026_Node000003" class="edge">
<title>Node26&#45;&gt;Node3</title>
<g id="a_edge37_Node000026_Node000003"><a xlink:title=" ">
<path fill="none" stroke="#63b8ff" d="M884.72,-494.99C916.13,-484.9 968.66,-468.01 1003.88,-456.69"/>
<polygon fill="#63b8ff" stroke="#63b8ff" points="1005.31,-459.91 1013.76,-453.52 1003.17,-453.24 1005.31,-459.91"/>
</a>
</g>
</g>
<!-- Node27 -->
<g id="Node000027" class="node">
<title>Node27</title>
<g id="a_Node000027"><a xlink:href="GlobalGraphicsInfo_8hpp.html" target="_top" xlink:title=" ">
<polygon fill="white" stroke="#666666" points="941.76,-459 774.76,-459 774.76,-429 941.76,-429 941.76,-459"/>
<text text-anchor="start" x="782.76" y="-447" font-family="Helvetica,sans-Serif" font-size="10.00">MayaFlux/Core/GlobalGraphics</text>
<text text-anchor="middle" x="858.26" y="-436" font-family="Helvetica,sans-Serif" font-size="10.00">Info.hpp</text>
</a>
</g>
</g>
<!-- Node26&#45;&gt;Node27 -->
<g id="edge36_Node000026_Node000027" class="edge">
<title>Node26&#45;&gt;Node27</title>
<g id="a_edge36_Node000026_Node000027"><a xlink:title=" ">
<path fill="none" stroke="#63b8ff" d="M858.26,-494.87C858.26,-488.11 858.26,-478.35 858.26,-469.26"/>
<polygon fill="#63b8ff" stroke="#63b8ff" points="861.76,-469.11 858.26,-459.11 854.76,-469.11 861.76,-469.11"/>
</a>
</g>
</g>
<!-- Node28&#45;&gt;Node3 -->
<g id="edge42_Node000028_Node000003" class="edge">
<title>Node28&#45;&gt;Node3</title>
<g id="a_edge42_Node000028_Node000003"><a xlink:title=" ">
<path fill="none" stroke="#63b8ff" d="M1191.52,-494.99C1160.98,-484.9 1109.89,-468.01 1075.64,-456.69"/>
<polygon fill="#63b8ff" stroke="#63b8ff" points="1076.62,-453.33 1066.03,-453.52 1074.42,-459.98 1076.62,-453.33"/>
</a>
</g>
</g>
<!-- Node29 -->
<g id="Node000029" class="node">
<title>Node29</title>
<g id="a_Node000029"><a xlink:href="InputBackend_8hpp.html" target="_top" xlink:title=" ">
<polygon fill="white" stroke="#666666" points="1297.26,-459 1157.26,-459 1157.26,-429 1297.26,-429 1297.26,-459"/>
<text text-anchor="start" x="1165.26" y="-447" font-family="Helvetica,sans-Serif" font-size="10.00">MayaFlux/Core/Backends</text>
<text text-anchor="middle" x="1227.26" y="-436" font-family="Helvetica,sans-Serif" font-size="10.00">/Input/InputBackend.hpp</text>
</a>
</g>
</g>
<!-- Node28&#45;&gt;Node29 -->
<g id="edge39_Node000028_Node000029" class="edge">
<title>Node28&#45;&gt;Node29</title>
<g id="a_edge39_Node000028_Node000029"><a xlink:title=" ">
<path fill="none" stroke="#63b8ff" d="M1218.73,-494.87C1219.89,-488.11 1221.56,-478.35 1223.11,-469.26"/>
<polygon fill="#63b8ff" stroke="#63b8ff" points="1226.61,-469.56 1224.85,-459.11 1219.71,-468.38 1226.61,-469.56"/>
</a>
</g>
</g>
<!-- Node29&#45;&gt;Node30 -->
<g id="edge40_Node000029_Node000030" class="edge">
<title>Node29&#45;&gt;Node30</title>
<g id="a_edge40_Node000029_Node000030"><a xlink:title=" ">
<path fill="none" stroke="#63b8ff" d="M1231.92,-428.8C1234.42,-421.17 1237.57,-411.57 1240.43,-402.84"/>
<polygon fill="#63b8ff" stroke="#63b8ff" points="1243.82,-403.76 1243.61,-393.16 1237.17,-401.57 1243.82,-403.76"/>
</a>
</g>
</g>
<!-- Node31 -->
<g id="Node000031" class="node">
<title>Node31</title>
<g id="a_Node000031"><a xlink:href="InputBinding_8hpp.html" target="_top" xlink:title=" ">
<polygon fill="white" stroke="#666666" points="1307.26,-327 1189.26,-327 1189.26,-297 1307.26,-297 1307.26,-327"/>
<text text-anchor="start" x="1197.26" y="-315" font-family="Helvetica,sans-Serif" font-size="10.00">MayaFlux/Core/Input</text>
<text text-anchor="middle" x="1248.26" y="-304" font-family="Helvetica,sans-Serif" font-size="10.00">/InputBinding.hpp</text>
</a>
</g>
</g>
<!-- Node30&#45;&gt;Node31 -->
<g id="edge41_Node000030_Node000031" class="edge">
<title>Node30&#45;&gt;Node31</title>
<g id="a_edge41_Node000030_Node000031"><a xlink:title=" ">
<path fill="none" stroke="#63b8ff" d="M1248.26,-362.8C1248.26,-355.34 1248.26,-345.99 1248.26,-337.41"/>
<polygon fill="#63b8ff" stroke="#63b8ff" points="1251.76,-337.16 1248.26,-327.16 1244.76,-337.16 1251.76,-337.16"/>
</a>
</g>
</g>
<!-- Node32&#45;&gt;Node3 -->
<g id="edge44_Node000032_Node000003" class="edge">
<title>Node32&#45;&gt;Node3</title>
<g id="a_edge44_Node000032_Node000003"><a xlink:title=" ">
<path fill="none" stroke="#63b8ff" d="M1399.19,-494.99C1322.82,-484.36 1192.33,-466.18 1111.5,-454.92"/>
<polygon fill="#63b8ff" stroke="#63b8ff" points="1111.79,-451.43 1101.4,-453.52 1110.83,-458.36 1111.79,-451.43"/>
</a>
</g>
</g>
<!-- Node33 -->
<g id="Node000033" class="node">
<title>Node33</title>
<g id="a_Node000033"><a xlink:href="NetworkBackend_8hpp.html" target="_top" xlink:title=" ">
<polygon fill="white" stroke="#666666" points="1529.76,-459 1362.76,-459 1362.76,-429 1529.76,-429 1529.76,-459"/>
<text text-anchor="start" x="1370.76" y="-447" font-family="Helvetica,sans-Serif" font-size="10.00">MayaFlux/Core/Backends</text>
<text text-anchor="middle" x="1446.26" y="-436" font-family="Helvetica,sans-Serif" font-size="10.00">/Network/NetworkBackend.hpp</text>
</a>
</g>
</g>
<!-- Node32&#45;&gt;Node33 -->
<g id="edge45_Node000032_Node000033" class="edge">
<title>Node32&#45;&gt;Node33</title>
<g id="a_edge45_Node000032_Node000033"><a xlink:title=" ">
<path fill="none" stroke="#63b8ff" d="M1458.19,-494.87C1456.56,-488.03 1454.19,-478.14 1451.99,-468.97"/>
<polygon fill="#63b8ff" stroke="#63b8ff" points="1455.37,-468.03 1449.64,-459.11 1448.56,-469.65 1455.37,-468.03"/>
</a>
</g>
</g>
<!-- Node35 -->
<g id="Node000035" class="node">
<title>Node35</title>
<g id="a_Node000035"><a xlink:title=" ">
<polygon fill="#e0e0e0" stroke="#999999" points="1658.76,-459 1547.76,-459 1547.76,-429 1658.76,-429 1658.76,-459"/>
<text text-anchor="start" x="1555.76" y="-447" font-family="Helvetica,sans-Serif" font-size="10.00">asio/executor_work</text>
<text text-anchor="middle" x="1603.26" y="-436" font-family="Helvetica,sans-Serif" font-size="10.00">_guard.hpp</text>
</a>
</g>
</g>
<!-- Node32&#45;&gt;Node35 -->
<g id="edge47_Node000032_Node000035" class="edge">
<title>Node32&#45;&gt;Node35</title>
<g id="a_edge47_Node000032_Node000035"><a xlink:title=" ">
<path fill="none" stroke="#63b8ff" d="M1481.05,-494.99C1501.54,-486.61 1533.48,-473.55 1559.57,-462.87"/>
<polygon fill="#63b8ff" stroke="#63b8ff" points="1560.95,-466.09 1568.88,-459.06 1558.3,-459.61 1560.95,-466.09"/>
</a>
</g>
</g>
<!-- Node36 -->
<g id="Node000036" class="node">
<title>Node36</title>
<g id="a_Node000036"><a xlink:title=" ">
<polygon fill="#e0e0e0" stroke="#999999" points="1789.26,-453.5 1677.26,-453.5 1677.26,-434.5 1789.26,-434.5 1789.26,-453.5"/>
<text text-anchor="middle" x="1733.26" y="-441.5" font-family="Helvetica,sans-Serif" font-size="10.00">asio/io_context.hpp</text>
</a>
</g>
</g>
<!-- Node32&#45;&gt;Node36 -->
<g id="edge48_Node000032_Node000036" class="edge">
<title>Node32&#45;&gt;Node36</title>
<g id="a_edge48_Node000032_Node000036"><a xlink:title=" ">
<path fill="none" stroke="#63b8ff" d="M1499.96,-494.99C1548.58,-484.57 1630.97,-466.92 1683.71,-455.62"/>
<polygon fill="#63b8ff" stroke="#63b8ff" points="1684.47,-459.03 1693.51,-453.52 1683,-452.19 1684.47,-459.03"/>
</a>
</g>
</g>
<!-- Node34 -->
<g id="Node000034" class="node">
<title>Node34</title>
<g id="a_Node000034"><a xlink:href="GlobalNetworkConfig_8hpp.html" target="_top" xlink:title=" ">
<polygon fill="white" stroke="#666666" points="1529.26,-393 1363.26,-393 1363.26,-363 1529.26,-363 1529.26,-393"/>
<text text-anchor="start" x="1371.26" y="-381" font-family="Helvetica,sans-Serif" font-size="10.00">MayaFlux/Core/GlobalNetwork</text>
<text text-anchor="middle" x="1446.26" y="-370" font-family="Helvetica,sans-Serif" font-size="10.00">Config.hpp</text>
</a>
</g>
</g>
<!-- Node33&#45;&gt;Node34 -->
<g id="edge46_Node000033_Node000034" class="edge">
<title>Node33&#45;&gt;Node34</title>
<g id="a_edge46_Node000033_Node000034"><a xlink:title=" ">
<path fill="none" stroke="#63b8ff" d="M1446.26,-428.8C1446.26,-421.34 1446.26,-411.99 1446.26,-403.41"/>
<polygon fill="#63b8ff" stroke="#63b8ff" points="1449.76,-403.16 1446.26,-393.16 1442.76,-403.16 1449.76,-403.16"/>
</a>
</g>
</g>
<!-- Node38 -->
<g id="Node000038" class="node">
<title>Node38</title>
<g id="a_Node000038"><a xlink:href="Format_8hpp.html" target="_top" xlink:title=" ">
<polygon fill="white" stroke="#666666" points="1879.26,-453.5 1807.26,-453.5 1807.26,-434.5 1879.26,-434.5 1879.26,-453.5"/>
<text text-anchor="middle" x="1843.26" y="-441.5" font-family="Helvetica,sans-Serif" font-size="10.00">Format.hpp</text>
</a>
</g>
</g>
<!-- Node37&#45;&gt;Node38 -->
<g id="edge50_Node000037_Node000038" class="edge">
<title>Node37&#45;&gt;Node38</title>
<g id="a_edge50_Node000037_Node000038"><a xlink:title=" ">
<path fill="none" stroke="#63b8ff" d="M1843.26,-494.87C1843.26,-486.75 1843.26,-474.31 1843.26,-463.89"/>
<polygon fill="#63b8ff" stroke="#63b8ff" points="1846.76,-463.67 1843.26,-453.67 1839.76,-463.67 1846.76,-463.67"/>
</a>
</g>
</g>
<!-- Node39 -->
<g id="Node000039" class="node">
<title>Node39</title>
<g id="a_Node000039"><a xlink:href="JournalEntry_8hpp.html" target="_top" xlink:title=" ">
<polygon fill="white" stroke="#666666" points="1992.76,-453.5 1897.76,-453.5 1897.76,-434.5 1992.76,-434.5 1992.76,-453.5"/>
<text text-anchor="middle" x="1945.26" y="-441.5" font-family="Helvetica,sans-Serif" font-size="10.00">JournalEntry.hpp</text>
</a>
</g>
</g>
<!-- Node37&#45;&gt;Node39 -->
<g id="edge51_Node000037_Node000039" class="edge">
<title>Node37&#45;&gt;Node39</title>
<g id="a_edge51_Node000037_Node000039"><a xlink:title=" ">
<path fill="none" stroke="#63b8ff" d="M1858.31,-494.87C1874.88,-485.36 1901.76,-469.95 1921.25,-458.77"/>
<polygon fill="#63b8ff" stroke="#63b8ff" points="1923.21,-461.68 1930.15,-453.67 1919.73,-455.61 1923.21,-461.68"/>
</a>
</g>
</g>
<!-- Node40 -->
<g id="Node000040" class="node">
<title>Node40</title>
<g id="a_Node000040"><a xlink:href="EnumReflect_8hpp.html" target="_top" xlink:title=" ">
<polygon fill="white" stroke="#666666" points="1856.76,-393 1717.76,-393 1717.76,-363 1856.76,-363 1856.76,-393"/>
<text text-anchor="start" x="1725.76" y="-381" font-family="Helvetica,sans-Serif" font-size="10.00">MayaFlux/Transitive</text>
<text text-anchor="middle" x="1787.26" y="-370" font-family="Helvetica,sans-Serif" font-size="10.00">/Reflect/EnumReflect.hpp</text>
</a>
</g>
</g>
<!-- Node39&#45;&gt;Node40 -->
<g id="edge52_Node000039_Node000040" class="edge">
<title>Node39&#45;&gt;Node40</title>
<g id="a_edge52_Node000039_Node000040"><a xlink:title=" ">
<path fill="none" stroke="#63b8ff" d="M1923.95,-434.37C1900.39,-424.82 1861.77,-409.18 1831.58,-396.95"/>
<polygon fill="#63b8ff" stroke="#63b8ff" points="1832.69,-393.63 1822.11,-393.12 1830.06,-400.11 1832.69,-393.63"/>
</a>
</g>
</g>
<!-- Node41 -->
<g id="Node000041" class="node">
<title>Node41</title>
<g id="a_Node000041"><a xlink:title=" ">
<polygon fill="#e0e0e0" stroke="#999999" points="1925.26,-387.5 1875.26,-387.5 1875.26,-368.5 1925.26,-368.5 1925.26,-387.5"/>
<text text-anchor="middle" x="1900.26" y="-375.5" font-family="Helvetica,sans-Serif" font-size="10.00">chrono</text>
</a>
</g>
</g>
<!-- Node39&#45;&gt;Node41 -->
<g id="edge53_Node000039_Node000041" class="edge">
<title>Node39&#45;&gt;Node41</title>
<g id="a_edge53_Node000039_Node000041"><a xlink:title=" ">
<path fill="none" stroke="#63b8ff" d="M1939.19,-434.37C1932.38,-424.69 1921.17,-408.74 1912.52,-396.44"/>
<polygon fill="#63b8ff" stroke="#63b8ff" points="1915.14,-394.07 1906.52,-387.91 1909.41,-398.1 1915.14,-394.07"/>
</a>
</g>
</g>
<!-- Node42 -->
<g id="Node000042" class="node">
<title>Node42</title>
<g id="a_Node000042"><a xlink:title=" ">
<polygon fill="#e0e0e0" stroke="#999999" points="2036.76,-387.5 1943.76,-387.5 1943.76,-368.5 2036.76,-368.5 2036.76,-387.5"/>
<text text-anchor="middle" x="1990.26" y="-375.5" font-family="Helvetica,sans-Serif" font-size="10.00">source_location</text>
</a>
</g>
</g>
<!-- Node39&#45;&gt;Node42 -->
<g id="edge54_Node000039_Node000042" class="edge">
<title>Node39&#45;&gt;Node42</title>
<g id="a_edge54_Node000039_Node000042"><a xlink:title=" ">
<path fill="none" stroke="#63b8ff" d="M1951.33,-434.37C1958.13,-424.69 1969.35,-408.74 1978,-396.44"/>
<polygon fill="#63b8ff" stroke="#63b8ff" points="1981.11,-398.1 1984,-387.91 1975.38,-394.07 1981.11,-398.1"/>
</a>
</g>
</g>
<!-- Node43 -->
<g id="Node000043" class="node">
<title>Node43</title>
<g id="a_Node000043"><a xlink:title=" ">
<polygon fill="#e0e0e0" stroke="#999999" points="2127.76,-387.5 2054.76,-387.5 2054.76,-368.5 2127.76,-368.5 2127.76,-387.5"/>
<text text-anchor="middle" x="2091.26" y="-375.5" font-family="Helvetica,sans-Serif" font-size="10.00">string_view</text>
</a>
</g>
</g>
<!-- Node39&#45;&gt;Node43 -->
<g id="edge55_Node000039_Node000043" class="edge">
<title>Node39&#45;&gt;Node43</title>
<g id="a_edge55_Node000039_Node000043"><a xlink:title=" ">
<path fill="none" stroke="#63b8ff" d="M1964.95,-434.37C1989.98,-423.39 2033.41,-404.36 2062.24,-391.72"/>
<polygon fill="#63b8ff" stroke="#63b8ff" points="2063.66,-394.92 2071.41,-387.7 2060.85,-388.51 2063.66,-394.92"/>
</a>
</g>
</g>
</g>
</svg>

<g id="navigator" transform="translate(0 0)" fill="#404254">
  <rect fill="#f2f5e9" fill-opacity="0.5" stroke="#606060" stroke-width=".5" x="0" y="0" width="60" height="60"/>
  <use id="zoomplus" xlink:href="#zoomPlus" x="17" y="9" onmousedown="handleZoom(evt,'in')"/>
  <use id="zoomminus" xlink:href="#zoomMin" x="42" y="9" onmousedown="handleZoom(evt,'out')"/>
  <use id="reset" xlink:href="#resetDef" x="30" y="36" onmousedown="handleReset()"/>
   <use id="arrowup" xlink:href="#arrowUp" x="0" y="0" onmousedown="handlePan(0,-1)"/>
  <use id="arrowright" xlink:href="#arrowRight" x="0" y="0" onmousedown="handlePan(1,0)"/>
  <use id="arrowdown" xlink:href="#arrowDown" x="0" y="0" onmousedown="handlePan(0,1)"/>
  <use id="arrowleft" xlink:href="#arrowLeft" x="0" y="0" onmousedown="handlePan(-1,0)"/>
</g>
<svg viewBox="0 0 15 15" width="100%" height="30px" preserveAspectRatio="xMaxYMin meet">
 <g id="arrow_out" transform="scale(0.3 0.3)">
  <a xlink:href="SubsystemManager_8cpp__incl_org.svg" target="_base">
   <rect id="button" ry="5" rx="5" y="6" x="6" height="38" width="38"
        fill="#f2f5e9" fill-opacity="0.5" stroke="#606060" stroke-width="1.0"/>
   <path id="arrow"
     d="M 11.500037,31.436501 C 11.940474,20.09759 22.043105,11.32322 32.158766,21.979434 L 37.068811,17.246167 C 37.068811,17.246167 37.088388,32 37.088388,32 L 22.160133,31.978069 C 22.160133,31.978069 26.997745,27.140456 26.997745,27.140456 C 18.528582,18.264221 13.291696,25.230495 11.500037,31.436501 z"
     style="fill:#404040;"/>
  </a>
 </g>
</svg>

<style type='text/css'>
<![CDATA[
[data-mouse-over-selected='false'] { opacity: 0.7; }
[data-mouse-over-selected='true']  { opacity: 1.0; }
]]>
</style>
<script type="application/ecmascript"><![CDATA[
document.addEventListener('DOMContentLoaded', (event) => {
  highlightEdges();
  highlightAdjacentNodes();
});
]]></script>
</svg>
