<?xml version="1.0" encoding="UTF-8" standalone="no"?>
<!DOCTYPE svg PUBLIC "-//W3C//DTD SVG 1.1//EN"
 "http://www.w3.org/Graphics/SVG/1.1/DTD/svg11.dtd">
<!-- Generated by graphviz version 2.43.0 (0)
 -->
<!-- Title: Tapestry.cpp Pages: 1 -->
<!--zoomable 577 -->

<svg id="main" version="1.1" xmlns="http://www.w3.org/2000/svg" xmlns:xlink="http://www.w3.org/1999/xlink" xml:space="preserve" onload="init(evt)">
<style type="text/css"><![CDATA[
.node, .edge {opacity: 0.7;}
.node.selected, .edge.selected {opacity: 1;}
.edge:hover path { stroke: red; }
.edge:hover polygon { stroke: red; fill: red; }
]]></style>

<defs>
  <circle id="rim" cx="0" cy="0" r="7"/>
  <circle id="rim2" cx="0" cy="0" r="3.5"/>
  <g id="zoomPlus">
    <use xlink:href="#rim" fill="#404040"><set attributeName="fill" to="#808080" begin="zoomplus.mouseover" end="zoomplus.mouseout"/></use>
    <path d="M-4,0h8M0,-4v8" fill="none" stroke="white" stroke-width="1.5" pointer-events="none"/>
  </g>
  <g id="zoomMin">
    <use xlink:href="#rim" fill="#404040"><set attributeName="fill" to="#808080" begin="zoomminus.mouseover" end="zoomminus.mouseout"/></use>
    <path d="M-4,0h8" fill="none" stroke="white" stroke-width="1.5" pointer-events="none"/>
  </g>
  <g id="arrowUp" transform="translate(30 24)">
    <use xlink:href="#rim"/>
    <path pointer-events="none" fill="none" stroke="white" stroke-width="1.5" d="M0,-3.0v7 M-2.5,-0.5L0,-3.0L2.5,-0.5"/>
  </g>
  <g id="arrowRight" transform="rotate(90) translate(36 -43)">
    <use xlink:href="#rim"/>
    <path pointer-events="none" fill="none" stroke="white" stroke-width="1.5" d="M0,-3.0v7 M-2.5,-0.5L0,-3.0L2.5,-0.5"/>
  </g>
  <g id="arrowDown" transform="rotate(180) translate(-30 -48)">
    <use xlink:href="#rim"/>
    <path pointer-events="none" fill="none" stroke="white" stroke-width="1.5" d="M0,-3.0v7 M-2.5,-0.5L0,-3.0L2.5,-0.5"/>
  </g>
  <g id="arrowLeft" transform="rotate(270) translate(-36 17)">
    <use xlink:href="#rim"/>
    <path pointer-events="none" fill="none" stroke="white" stroke-width="1.5" d="M0,-3.0v7 M-2.5,-0.5L0,-3.0L2.5,-0.5"/>
  </g>
  <g id="resetDef">
    <use xlink:href="#rim2" fill="#404040"><set attributeName="fill" to="#808080" begin="reset.mouseover" end="reset.mouseout"/></use>
  </g>
</defs>
<script type="application/ecmascript">
var viewWidth = 1537;
var viewHeight = 577;
var sectionId = 'dynsection-0';
</script>
<script type="application/ecmascript" xlink:href="svg.min.js"/>
<svg id="graph" class="graph">
<g id="viewport">
<title>Tapestry.cpp</title>
<!-- Node1 -->
<g id="Node000001" class="node">
<title>Node1</title>
<g id="a_Node000001"><a xlink:title=" ">
<polygon fill="#999999" stroke="#666666" points="1146,-569 1069,-569 1069,-550 1146,-550 1146,-569"/>
<text text-anchor="middle" x="1107.5" y="-557" font-family="Helvetica,sans-Serif" font-size="10.00">Tapestry.cpp</text>
</a>
</g>
</g>
<!-- Node2 -->
<g id="Node000002" class="node">
<title>Node2</title>
<g id="a_Node000002"><a xlink:href="Tapestry_8hpp.html" target="_top" xlink:title=" ">
<polygon fill="white" stroke="#666666" points="757,-514 680,-514 680,-495 757,-495 757,-514"/>
<text text-anchor="middle" x="718.5" y="-502" font-family="Helvetica,sans-Serif" font-size="10.00">Tapestry.hpp</text>
</a>
</g>
</g>
<!-- Node1&#45;&gt;Node2 -->
<g id="edge1_Node000001_Node000002" class="edge">
<title>Node1&#45;&gt;Node2</title>
<g id="a_edge1_Node000001_Node000002"><a xlink:title=" ">
<path fill="none" stroke="#63b8ff" d="M1068.78,-553.22C997.42,-543.5 845.32,-522.78 767.14,-512.13"/>
<polygon fill="#63b8ff" stroke="#63b8ff" points="767.45,-508.64 757.06,-510.75 766.5,-515.57 767.45,-508.64"/>
</a>
</g>
</g>
<!-- Node30 -->
<g id="Node000030" class="node">
<title>Node30</title>
<g id="a_Node000030"><a xlink:href="Archivist_8hpp.html" target="_top" xlink:title=" ">
<polygon fill="white" stroke="#666666" points="1093.5,-514 925.5,-514 925.5,-495 1093.5,-495 1093.5,-514"/>
<text text-anchor="middle" x="1009.5" y="-502" font-family="Helvetica,sans-Serif" font-size="10.00">MayaFlux/Journal/Archivist.hpp</text>
</a>
</g>
</g>
<!-- Node1&#45;&gt;Node30 -->
<g id="edge40_Node000001_Node000030" class="edge">
<title>Node1&#45;&gt;Node30</title>
<g id="a_edge40_Node000001_Node000030"><a xlink:title=" ">
<path fill="none" stroke="#63b8ff" d="M1091.75,-549.98C1076.27,-541.61 1052.41,-528.7 1034.36,-518.95"/>
<polygon fill="#63b8ff" stroke="#63b8ff" points="1035.99,-515.85 1025.53,-514.17 1032.66,-522.01 1035.99,-515.85"/>
</a>
</g>
</g>
<!-- Node37 -->
<g id="Node000037" class="node">
<title>Node37</title>
<g id="a_Node000037"><a xlink:href="EventManager_8hpp.html" target="_top" xlink:title=" ">
<polygon fill="white" stroke="#666666" points="1299.5,-514 1111.5,-514 1111.5,-495 1299.5,-495 1299.5,-514"/>
<text text-anchor="middle" x="1205.5" y="-502" font-family="Helvetica,sans-Serif" font-size="10.00">MayaFlux/Vruta/EventManager.hpp</text>
</a>
</g>
</g>
<!-- Node1&#45;&gt;Node37 -->
<g id="edge47_Node000001_Node000037" class="edge">
<title>Node1&#45;&gt;Node37</title>
<g id="a_edge47_Node000001_Node000037"><a xlink:title=" ">
<path fill="none" stroke="#63b8ff" d="M1123.25,-549.98C1138.73,-541.61 1162.59,-528.7 1180.64,-518.95"/>
<polygon fill="#63b8ff" stroke="#63b8ff" points="1182.34,-522.01 1189.47,-514.17 1179.01,-515.85 1182.34,-522.01"/>
</a>
</g>
</g>
<!-- Node42 -->
<g id="Node000042" class="node">
<title>Node42</title>
<g id="a_Node000042"><a xlink:href="Scheduler_8hpp.html" target="_top" xlink:title=" ">
<polygon fill="white" stroke="#666666" points="1483,-514 1318,-514 1318,-495 1483,-495 1483,-514"/>
<text text-anchor="middle" x="1400.5" y="-502" font-family="Helvetica,sans-Serif" font-size="10.00">MayaFlux/Vruta/Scheduler.hpp</text>
</a>
</g>
</g>
<!-- Node1&#45;&gt;Node42 -->
<g id="edge52_Node000001_Node000042" class="edge">
<title>Node1&#45;&gt;Node42</title>
<g id="a_edge52_Node000001_Node000042"><a xlink:title=" ">
<path fill="none" stroke="#63b8ff" d="M1146.11,-551.52C1196.46,-542.41 1284.98,-526.4 1343.18,-515.87"/>
<polygon fill="#63b8ff" stroke="#63b8ff" points="1344.1,-519.26 1353.32,-514.03 1342.86,-512.37 1344.1,-519.26"/>
</a>
</g>
</g>
<!-- Node3 -->
<g id="Node000003" class="node">
<title>Node3</title>
<g id="a_Node000003"><a xlink:href="Fabric_8hpp.html" target="_top" xlink:title=" ">
<polygon fill="white" stroke="#666666" points="562.5,-459 496.5,-459 496.5,-440 562.5,-440 562.5,-459"/>
<text text-anchor="middle" x="529.5" y="-447" font-family="Helvetica,sans-Serif" font-size="10.00">Fabric.hpp</text>
</a>
</g>
</g>
<!-- Node2&#45;&gt;Node3 -->
<g id="edge2_Node000002_Node000003" class="edge">
<title>Node2&#45;&gt;Node3</title>
<g id="a_edge2_Node000002_Node000003"><a xlink:title=" ">
<path fill="none" stroke="#63b8ff" d="M688.13,-494.98C656.13,-486.01 605.54,-471.82 570.12,-461.89"/>
<polygon fill="#63b8ff" stroke="#63b8ff" points="570.68,-458.41 560.1,-459.08 568.79,-465.15 570.68,-458.41"/>
</a>
</g>
</g>
<!-- Node4 -->
<g id="Node000004" class="node">
<title>Node4</title>
<g id="a_Node000004"><a xlink:href="Agent_8hpp.html" target="_top" xlink:title=" ">
<polygon fill="white" stroke="#666666" points="386.5,-332.5 320.5,-332.5 320.5,-313.5 386.5,-313.5 386.5,-332.5"/>
<text text-anchor="middle" x="353.5" y="-320.5" font-family="Helvetica,sans-Serif" font-size="10.00">Agent.hpp</text>
</a>
</g>
</g>
<!-- Node3&#45;&gt;Node4 -->
<g id="edge3_Node000003_Node000004" class="edge">
<title>Node3&#45;&gt;Node4</title>
<g id="a_edge3_Node000003_Node000004"><a xlink:title=" ">
<path fill="none" stroke="#63b8ff" d="M517.4,-439.94C487.76,-418.98 411.24,-364.84 374.2,-338.64"/>
<polygon fill="#63b8ff" stroke="#63b8ff" points="375.87,-335.53 365.68,-332.62 371.82,-341.25 375.87,-335.53"/>
</a>
</g>
</g>
<!-- Node18 -->
<g id="Node000018" class="node">
<title>Node18</title>
<g id="a_Node000018"><a xlink:href="Emitter_8hpp.html" target="_top" xlink:title=" ">
<polygon fill="white" stroke="#666666" points="285,-332.5 212,-332.5 212,-313.5 285,-313.5 285,-332.5"/>
<text text-anchor="middle" x="248.5" y="-320.5" font-family="Helvetica,sans-Serif" font-size="10.00">Emitter.hpp</text>
</a>
</g>
</g>
<!-- Node3&#45;&gt;Node18 -->
<g id="edge21_Node000003_Node000018" class="edge">
<title>Node3&#45;&gt;Node18</title>
<g id="a_edge21_Node000003_Node000018"><a xlink:title=" ">
<path fill="none" stroke="#63b8ff" d="M508.09,-439.86C486.41,-431.06 451.99,-416.91 422.5,-404 370.38,-381.19 310.2,-353.13 276.02,-337.03"/>
<polygon fill="#63b8ff" stroke="#63b8ff" points="277.23,-333.73 266.69,-332.63 274.24,-340.06 277.23,-333.73"/>
</a>
</g>
</g>
<!-- Node19 -->
<g id="Node000019" class="node">
<title>Node19</title>
<g id="a_Node000019"><a xlink:href="Sensor_8hpp.html" target="_top" xlink:title=" ">
<polygon fill="white" stroke="#666666" points="521.5,-332.5 451.5,-332.5 451.5,-313.5 521.5,-313.5 521.5,-332.5"/>
<text text-anchor="middle" x="486.5" y="-320.5" font-family="Helvetica,sans-Serif" font-size="10.00">Sensor.hpp</text>
</a>
</g>
</g>
<!-- Node3&#45;&gt;Node19 -->
<g id="edge25_Node000003_Node000019" class="edge">
<title>Node3&#45;&gt;Node19</title>
<g id="a_edge25_Node000003_Node000019"><a xlink:title=" ">
<path fill="none" stroke="#63b8ff" d="M526.54,-439.94C519.61,-419.86 502.17,-369.37 492.76,-342.12"/>
<polygon fill="#63b8ff" stroke="#63b8ff" points="496.05,-340.93 489.48,-332.62 489.43,-343.21 496.05,-340.93"/>
</a>
</g>
</g>
<!-- Node20 -->
<g id="Node000020" class="node">
<title>Node20</title>
<g id="a_Node000020"><a xlink:href="Wiring_8hpp.html" target="_top" xlink:title=" ">
<polygon fill="white" stroke="#666666" points="647,-398.5 578,-398.5 578,-379.5 647,-379.5 647,-398.5"/>
<text text-anchor="middle" x="612.5" y="-386.5" font-family="Helvetica,sans-Serif" font-size="10.00">Wiring.hpp</text>
</a>
</g>
</g>
<!-- Node3&#45;&gt;Node20 -->
<g id="edge27_Node000003_Node000020" class="edge">
<title>Node3&#45;&gt;Node20</title>
<g id="a_edge27_Node000003_Node000020"><a xlink:title=" ">
<path fill="none" stroke="#63b8ff" d="M541.75,-439.87C554.86,-430.62 575.92,-415.78 591.65,-404.69"/>
<polygon fill="#63b8ff" stroke="#63b8ff" points="594.05,-407.29 600.2,-398.67 590.01,-401.57 594.05,-407.29"/>
</a>
</g>
</g>
<!-- Node29 -->
<g id="Node000029" class="node">
<title>Node29</title>
<g id="a_Node000029"><a xlink:href="Chain_8hpp.html" target="_top" xlink:title=" ">
<polygon fill="white" stroke="#666666" points="810,-398.5 665,-398.5 665,-379.5 810,-379.5 810,-398.5"/>
<text text-anchor="middle" x="737.5" y="-386.5" font-family="Helvetica,sans-Serif" font-size="10.00">MayaFlux/Kriya/Chain.hpp</text>
</a>
</g>
</g>
<!-- Node3&#45;&gt;Node29 -->
<g id="edge39_Node000003_Node000029" class="edge">
<title>Node3&#45;&gt;Node29</title>
<g id="a_edge39_Node000003_Node000029"><a xlink:title=" ">
<path fill="none" stroke="#63b8ff" d="M559.74,-439.99C596.1,-429.77 657.23,-412.58 697.47,-401.26"/>
<polygon fill="#63b8ff" stroke="#63b8ff" points="698.54,-404.59 707.22,-398.52 696.64,-397.85 698.54,-404.59"/>
</a>
</g>
</g>
<!-- Node5 -->
<g id="Node000005" class="node">
<title>Node5</title>
<g id="a_Node000005"><a xlink:href="InfluenceContext_8hpp.html" target="_top" xlink:title=" ">
<polygon fill="white" stroke="#666666" points="178.5,-200.5 58.5,-200.5 58.5,-181.5 178.5,-181.5 178.5,-200.5"/>
<text text-anchor="middle" x="118.5" y="-188.5" font-family="Helvetica,sans-Serif" font-size="10.00">InfluenceContext.hpp</text>
</a>
</g>
</g>
<!-- Node4&#45;&gt;Node5 -->
<g id="edge4_Node000004_Node000005" class="edge">
<title>Node4&#45;&gt;Node5</title>
<g id="a_edge4_Node000004_Node000005"><a xlink:title=" ">
<path fill="none" stroke="#63b8ff" d="M320.13,-314.04C266.83,-301.23 167.81,-276.96 161.5,-272 141.59,-256.35 129.74,-228.86 123.67,-210.54"/>
<polygon fill="#63b8ff" stroke="#63b8ff" points="126.95,-209.28 120.68,-200.73 120.25,-211.32 126.95,-209.28"/>
</a>
</g>
</g>
<!-- Node8 -->
<g id="Node000008" class="node">
<title>Node8</title>
<g id="a_Node000008"><a xlink:href="PerceptionContext_8hpp.html" target="_top" xlink:title=" ">
<polygon fill="white" stroke="#666666" points="542.5,-266.5 414.5,-266.5 414.5,-247.5 542.5,-247.5 542.5,-266.5"/>
<text text-anchor="middle" x="478.5" y="-254.5" font-family="Helvetica,sans-Serif" font-size="10.00">PerceptionContext.hpp</text>
</a>
</g>
</g>
<!-- Node4&#45;&gt;Node8 -->
<g id="edge7_Node000004_Node000008" class="edge">
<title>Node4&#45;&gt;Node8</title>
<g id="a_edge7_Node000004_Node000008"><a xlink:title=" ">
<path fill="none" stroke="#63b8ff" d="M370.36,-313.37C391.42,-302.59 427.68,-284.02 452.36,-271.38"/>
<polygon fill="#63b8ff" stroke="#63b8ff" points="454.2,-274.37 461.51,-266.7 451.01,-268.14 454.2,-274.37"/>
</a>
</g>
</g>
<!-- Node14 -->
<g id="Node000014" class="node">
<title>Node14</title>
<g id="a_Node000014"><a xlink:href="VertexSpec_8hpp.html" target="_top" xlink:title=" ">
<polygon fill="white" stroke="#666666" points="396.5,-272 252.5,-272 252.5,-242 396.5,-242 396.5,-272"/>
<text text-anchor="start" x="260.5" y="-260" font-family="Helvetica,sans-Serif" font-size="10.00">MayaFlux/Nodes/Graphics</text>
<text text-anchor="middle" x="324.5" y="-249" font-family="Helvetica,sans-Serif" font-size="10.00">/VertexSpec.hpp</text>
</a>
</g>
</g>
<!-- Node4&#45;&gt;Node14 -->
<g id="edge13_Node000004_Node000014" class="edge">
<title>Node4&#45;&gt;Node14</title>
<g id="a_edge13_Node000004_Node000014"><a xlink:title=" ">
<path fill="none" stroke="#63b8ff" d="M349.59,-313.37C345.91,-305.24 340.22,-292.69 335.19,-281.59"/>
<polygon fill="#63b8ff" stroke="#63b8ff" points="338.32,-280.02 331.01,-272.36 331.95,-282.91 338.32,-280.02"/>
</a>
</g>
</g>
<!-- Node17 -->
<g id="Node000017" class="node">
<title>Node17</title>
<g id="a_Node000017"><a xlink:href="Sinks_8hpp.html" target="_top" xlink:title=" ">
<polygon fill="white" stroke="#666666" points="234.5,-266.5 170.5,-266.5 170.5,-247.5 234.5,-247.5 234.5,-266.5"/>
<text text-anchor="middle" x="202.5" y="-254.5" font-family="Helvetica,sans-Serif" font-size="10.00">Sinks.hpp</text>
</a>
</g>
</g>
<!-- Node4&#45;&gt;Node17 -->
<g id="edge17_Node000004_Node000017" class="edge">
<title>Node4&#45;&gt;Node17</title>
<g id="a_edge17_Node000004_Node000017"><a xlink:title=" ">
<path fill="none" stroke="#63b8ff" d="M333.14,-313.37C307.24,-302.39 262.33,-283.36 232.51,-270.72"/>
<polygon fill="#63b8ff" stroke="#63b8ff" points="233.6,-267.38 223.02,-266.7 230.87,-273.82 233.6,-267.38"/>
</a>
</g>
</g>
<!-- Node6 -->
<g id="Node000006" class="node">
<title>Node6</title>
<g id="a_Node000006"><a xlink:title=" ">
<polygon fill="#e0e0e0" stroke="#999999" points="184,-134.5 101,-134.5 101,-115.5 184,-115.5 184,-134.5"/>
<text text-anchor="middle" x="142.5" y="-122.5" font-family="Helvetica,sans-Serif" font-size="10.00">glm/vec2.hpp</text>
</a>
</g>
</g>
<!-- Node5&#45;&gt;Node6 -->
<g id="edge5_Node000005_Node000006" class="edge">
<title>Node5&#45;&gt;Node6</title>
<g id="a_edge5_Node000005_Node000006"><a xlink:title=" ">
<path fill="none" stroke="#63b8ff" d="M121.74,-181.37C125.26,-171.97 131,-156.67 135.55,-144.53"/>
<polygon fill="#63b8ff" stroke="#63b8ff" points="138.93,-145.5 139.16,-134.91 132.37,-143.04 138.93,-145.5"/>
</a>
</g>
</g>
<!-- Node7 -->
<g id="Node000007" class="node">
<title>Node7</title>
<g id="a_Node000007"><a xlink:title=" ">
<polygon fill="#e0e0e0" stroke="#999999" points="83,-134.5 0,-134.5 0,-115.5 83,-115.5 83,-134.5"/>
<text text-anchor="middle" x="41.5" y="-122.5" font-family="Helvetica,sans-Serif" font-size="10.00">glm/vec3.hpp</text>
</a>
</g>
</g>
<!-- Node5&#45;&gt;Node7 -->
<g id="edge6_Node000005_Node000007" class="edge">
<title>Node5&#45;&gt;Node7</title>
<g id="a_edge6_Node000005_Node000007"><a xlink:title=" ">
<path fill="none" stroke="#63b8ff" d="M108.12,-181.37C95.78,-171.12 74.99,-153.84 59.91,-141.31"/>
<polygon fill="#63b8ff" stroke="#63b8ff" points="62.14,-138.61 52.21,-134.91 57.67,-143.99 62.14,-138.61"/>
</a>
</g>
</g>
<!-- Node9 -->
<g id="Node000009" class="node">
<title>Node9</title>
<g id="a_Node000009"><a xlink:href="SpatialIndex_8hpp.html" target="_top" xlink:title=" ">
<polygon fill="white" stroke="#666666" points="548.5,-206 408.5,-206 408.5,-176 548.5,-176 548.5,-206"/>
<text text-anchor="start" x="416.5" y="-194" font-family="Helvetica,sans-Serif" font-size="10.00">MayaFlux/Kinesis/Spatial</text>
<text text-anchor="middle" x="478.5" y="-183" font-family="Helvetica,sans-Serif" font-size="10.00">/SpatialIndex.hpp</text>
</a>
</g>
</g>
<!-- Node8&#45;&gt;Node9 -->
<g id="edge8_Node000008_Node000009" class="edge">
<title>Node8&#45;&gt;Node9</title>
<g id="a_edge8_Node000008_Node000009"><a xlink:title=" ">
<path fill="none" stroke="#63b8ff" d="M478.5,-247.37C478.5,-239.49 478.5,-227.45 478.5,-216.6"/>
<polygon fill="#63b8ff" stroke="#63b8ff" points="482,-216.36 478.5,-206.36 475,-216.36 482,-216.36"/>
</a>
</g>
</g>
<!-- Node10 -->
<g id="Node000010" class="node">
<title>Node10</title>
<g id="a_Node000010"><a xlink:href="TendencyFactories_8hpp.html" target="_top" xlink:title=" ">
<polygon fill="white" stroke="#666666" points="495.5,-140 343.5,-140 343.5,-110 495.5,-110 495.5,-140"/>
<text text-anchor="start" x="351.5" y="-128" font-family="Helvetica,sans-Serif" font-size="10.00">MayaFlux/Kinesis/Tendency</text>
<text text-anchor="middle" x="419.5" y="-117" font-family="Helvetica,sans-Serif" font-size="10.00">/TendencyFactories.hpp</text>
</a>
</g>
</g>
<!-- Node9&#45;&gt;Node10 -->
<g id="edge9_Node000009_Node000010" class="edge">
<title>Node9&#45;&gt;Node10</title>
<g id="a_edge9_Node000009_Node000010"><a xlink:title=" ">
<path fill="none" stroke="#63b8ff" d="M465.41,-175.8C457.77,-167.51 447.98,-156.89 439.4,-147.59"/>
<polygon fill="#63b8ff" stroke="#63b8ff" points="441.91,-145.14 432.56,-140.16 436.76,-149.89 441.91,-145.14"/>
</a>
</g>
</g>
<!-- Node13 -->
<g id="Node000013" class="node">
<title>Node13</title>
<g id="a_Node000013"><a xlink:title=" ">
<polygon fill="#e0e0e0" stroke="#999999" points="583,-134.5 514,-134.5 514,-115.5 583,-115.5 583,-134.5"/>
<text text-anchor="middle" x="548.5" y="-122.5" font-family="Helvetica,sans-Serif" font-size="10.00">Eigen/Core</text>
</a>
</g>
</g>
<!-- Node9&#45;&gt;Node13 -->
<g id="edge12_Node000009_Node000013" class="edge">
<title>Node9&#45;&gt;Node13</title>
<g id="a_edge12_Node000009_Node000013"><a xlink:title=" ">
<path fill="none" stroke="#63b8ff" d="M494.04,-175.8C505.06,-165.72 519.85,-152.19 531.24,-141.78"/>
<polygon fill="#63b8ff" stroke="#63b8ff" points="533.81,-144.18 538.83,-134.84 529.08,-139.01 533.81,-144.18"/>
</a>
</g>
</g>
<!-- Node11 -->
<g id="Node000011" class="node">
<title>Node11</title>
<g id="a_Node000011"><a xlink:href="Tendency_8hpp.html" target="_top" xlink:title=" ">
<polygon fill="white" stroke="#666666" points="444.5,-74 362.5,-74 362.5,-55 444.5,-55 444.5,-74"/>
<text text-anchor="middle" x="403.5" y="-62" font-family="Helvetica,sans-Serif" font-size="10.00">Tendency.hpp</text>
</a>
</g>
</g>
<!-- Node10&#45;&gt;Node11 -->
<g id="edge10_Node000010_Node000011" class="edge">
<title>Node10&#45;&gt;Node11</title>
<g id="a_edge10_Node000010_Node000011"><a xlink:title=" ">
<path fill="none" stroke="#63b8ff" d="M415.63,-109.84C413.52,-102.13 410.88,-92.49 408.61,-84.17"/>
<polygon fill="#63b8ff" stroke="#63b8ff" points="411.91,-82.99 405.9,-74.27 405.16,-84.84 411.91,-82.99"/>
</a>
</g>
</g>
<!-- Node12 -->
<g id="Node000012" class="node">
<title>Node12</title>
<g id="a_Node000012"><a xlink:title=" ">
<polygon fill="#e0e0e0" stroke="#999999" points="391.5,-19 313.5,-19 313.5,0 391.5,0 391.5,-19"/>
<text text-anchor="middle" x="352.5" y="-7" font-family="Helvetica,sans-Serif" font-size="10.00">glm/glm.hpp</text>
</a>
</g>
</g>
<!-- Node11&#45;&gt;Node12 -->
<g id="edge11_Node000011_Node000012" class="edge">
<title>Node11&#45;&gt;Node12</title>
<g id="a_edge11_Node000011_Node000012"><a xlink:title=" ">
<path fill="none" stroke="#63b8ff" d="M395.08,-54.75C387.73,-47.11 376.87,-35.82 367.96,-26.56"/>
<polygon fill="#63b8ff" stroke="#63b8ff" points="370.22,-23.87 360.76,-19.09 365.18,-28.72 370.22,-23.87"/>
</a>
</g>
</g>
<!-- Node15 -->
<g id="Node000015" class="node">
<title>Node15</title>
<g id="a_Node000015"><a xlink:href="VertexLayout_8hpp.html" target="_top" xlink:title=" ">
<polygon fill="white" stroke="#666666" points="386,-206 235,-206 235,-176 386,-176 386,-206"/>
<text text-anchor="start" x="243" y="-194" font-family="Helvetica,sans-Serif" font-size="10.00">MayaFlux/Kakshya/NDData</text>
<text text-anchor="middle" x="310.5" y="-183" font-family="Helvetica,sans-Serif" font-size="10.00">/VertexLayout.hpp</text>
</a>
</g>
</g>
<!-- Node14&#45;&gt;Node15 -->
<g id="edge14_Node000014_Node000015" class="edge">
<title>Node14&#45;&gt;Node15</title>
<g id="a_edge14_Node000014_Node000015"><a xlink:title=" ">
<path fill="none" stroke="#63b8ff" d="M321.39,-241.8C319.74,-234.26 317.67,-224.78 315.78,-216.13"/>
<polygon fill="#63b8ff" stroke="#63b8ff" points="319.15,-215.19 313.6,-206.16 312.32,-216.68 319.15,-215.19"/>
</a>
</g>
</g>
<!-- Node16 -->
<g id="Node000016" class="node">
<title>Node16</title>
<g id="a_Node000016"><a xlink:href="NDData_8hpp.html" target="_top" xlink:title=" ">
<polygon fill="white" stroke="#666666" points="325.5,-134.5 249.5,-134.5 249.5,-115.5 325.5,-115.5 325.5,-134.5"/>
<text text-anchor="middle" x="287.5" y="-122.5" font-family="Helvetica,sans-Serif" font-size="10.00">NDData.hpp</text>
</a>
</g>
</g>
<!-- Node15&#45;&gt;Node16 -->
<g id="edge15_Node000015_Node000016" class="edge">
<title>Node15&#45;&gt;Node16</title>
<g id="a_edge15_Node000015_Node000016"><a xlink:title=" ">
<path fill="none" stroke="#63b8ff" d="M305.4,-175.8C302.06,-166.5 297.66,-154.27 294.06,-144.26"/>
<polygon fill="#63b8ff" stroke="#63b8ff" points="297.35,-143.07 290.68,-134.84 290.77,-145.44 297.35,-143.07"/>
</a>
</g>
</g>
<!-- Node16&#45;&gt;Node12 -->
<g id="edge16_Node000016_Node000012" class="edge">
<title>Node16&#45;&gt;Node12</title>
<g id="a_edge16_Node000016_Node000012"><a xlink:title=" ">
<path fill="none" stroke="#63b8ff" d="M292.39,-115.47C303.02,-96.9 328.44,-52.51 342.58,-27.82"/>
<polygon fill="#63b8ff" stroke="#63b8ff" points="345.63,-29.55 347.56,-19.13 339.55,-26.07 345.63,-29.55"/>
</a>
</g>
</g>
<!-- Node17&#45;&gt;Node5 -->
<g id="edge18_Node000017_Node000005" class="edge">
<title>Node17&#45;&gt;Node5</title>
<g id="a_edge18_Node000017_Node000005"><a xlink:title=" ">
<path fill="none" stroke="#63b8ff" d="M191.17,-247.37C177.64,-237.06 154.78,-219.65 138.31,-207.09"/>
<polygon fill="#63b8ff" stroke="#63b8ff" points="139.99,-203.98 129.92,-200.7 135.75,-209.54 139.99,-203.98"/>
</a>
</g>
</g>
<!-- Node17&#45;&gt;Node15 -->
<g id="edge20_Node000017_Node000015" class="edge">
<title>Node17&#45;&gt;Node15</title>
<g id="a_edge20_Node000017_Node000015"><a xlink:title=" ">
<path fill="none" stroke="#63b8ff" d="M217.07,-247.37C232.61,-238.16 257.75,-223.26 278.04,-211.24"/>
<polygon fill="#63b8ff" stroke="#63b8ff" points="279.86,-214.22 286.68,-206.12 276.29,-208.2 279.86,-214.22"/>
</a>
</g>
</g>
<!-- Node17&#45;&gt;Node16 -->
<g id="edge19_Node000017_Node000016" class="edge">
<title>Node17&#45;&gt;Node16</title>
<g id="a_edge19_Node000017_Node000016"><a xlink:title=" ">
<path fill="none" stroke="#63b8ff" d="M203.27,-247.35C205,-231.86 210.31,-198.88 225.5,-176 235.26,-161.3 250.68,-148.84 263.71,-140.03"/>
<polygon fill="#63b8ff" stroke="#63b8ff" points="265.73,-142.89 272.24,-134.53 261.94,-137.01 265.73,-142.89"/>
</a>
</g>
</g>
<!-- Node18&#45;&gt;Node5 -->
<g id="edge22_Node000018_Node000005" class="edge">
<title>Node18&#45;&gt;Node5</title>
<g id="a_edge22_Node000018_Node000005"><a xlink:title=" ">
<path fill="none" stroke="#63b8ff" d="M211.84,-316.7C184.42,-310.72 148.38,-298.14 128.5,-272 115.22,-254.54 114.45,-228.49 115.85,-210.9"/>
<polygon fill="#63b8ff" stroke="#63b8ff" points="119.36,-211.06 116.98,-200.74 112.4,-210.29 119.36,-211.06"/>
</a>
</g>
</g>
<!-- Node18&#45;&gt;Node14 -->
<g id="edge24_Node000018_Node000014" class="edge">
<title>Node18&#45;&gt;Node14</title>
<g id="a_edge24_Node000018_Node000014"><a xlink:title=" ">
<path fill="none" stroke="#63b8ff" d="M258.75,-313.37C269.25,-304.53 285.96,-290.45 299.91,-278.71"/>
<polygon fill="#63b8ff" stroke="#63b8ff" points="302.34,-281.23 307.74,-272.12 297.83,-275.88 302.34,-281.23"/>
</a>
</g>
</g>
<!-- Node18&#45;&gt;Node17 -->
<g id="edge23_Node000018_Node000017" class="edge">
<title>Node18&#45;&gt;Node17</title>
<g id="a_edge23_Node000018_Node000017"><a xlink:title=" ">
<path fill="none" stroke="#63b8ff" d="M242.3,-313.37C235.27,-303.59 223.65,-287.42 214.77,-275.08"/>
<polygon fill="#63b8ff" stroke="#63b8ff" points="217.58,-272.98 208.9,-266.91 211.89,-277.07 217.58,-272.98"/>
</a>
</g>
</g>
<!-- Node19&#45;&gt;Node8 -->
<g id="edge26_Node000019_Node000008" class="edge">
<title>Node19&#45;&gt;Node8</title>
<g id="a_edge26_Node000019_Node000008"><a xlink:title=" ">
<path fill="none" stroke="#63b8ff" d="M485.42,-313.37C484.26,-304.07 482.37,-288.98 480.86,-276.9"/>
<polygon fill="#63b8ff" stroke="#63b8ff" points="484.33,-276.39 479.61,-266.91 477.38,-277.26 484.33,-276.39"/>
</a>
</g>
</g>
<!-- Node20&#45;&gt;Node4 -->
<g id="edge28_Node000020_Node000004" class="edge">
<title>Node20&#45;&gt;Node4</title>
<g id="a_edge28_Node000020_Node000004"><a xlink:title=" ">
<path fill="none" stroke="#63b8ff" d="M577.84,-379.44C530.93,-367.84 447.27,-347.17 396.44,-334.61"/>
<polygon fill="#63b8ff" stroke="#63b8ff" points="397.27,-331.21 386.73,-332.21 395.6,-338.01 397.27,-331.21"/>
</a>
</g>
</g>
<!-- Node21 -->
<g id="Node000021" class="node">
<title>Node21</title>
<g id="a_Node000021"><a xlink:href="Keys_8hpp.html" target="_top" xlink:title=" ">
<polygon fill="white" stroke="#666666" points="1469,-266.5 1344,-266.5 1344,-247.5 1469,-247.5 1469,-266.5"/>
<text text-anchor="middle" x="1406.5" y="-254.5" font-family="Helvetica,sans-Serif" font-size="10.00">MayaFlux/IO/Keys.hpp</text>
</a>
</g>
</g>
<!-- Node20&#45;&gt;Node21 -->
<g id="edge29_Node000020_Node000021" class="edge">
<title>Node20&#45;&gt;Node21</title>
<g id="a_edge29_Node000020_Node000021"><a xlink:title=" ">
<path fill="none" stroke="#63b8ff" d="M634.98,-379.49C641.51,-377.34 648.71,-375.29 655.5,-374 786.74,-349.12 1130.68,-385.57 1255.5,-338 1275.61,-330.34 1275.07,-319.11 1293.5,-308 1319.06,-292.59 1350.21,-279.16 1373.33,-270.11"/>
<polygon fill="#63b8ff" stroke="#63b8ff" points="1374.63,-273.37 1382.71,-266.51 1372.12,-266.83 1374.63,-273.37"/>
</a>
</g>
</g>
<!-- Node22 -->
<g id="Node000022" class="node">
<title>Node22</title>
<g id="a_Node000022"><a xlink:href="NetworkSource_8hpp.html" target="_top" xlink:title=" ">
<polygon fill="white" stroke="#666666" points="823.5,-332.5 631.5,-332.5 631.5,-313.5 823.5,-313.5 823.5,-332.5"/>
<text text-anchor="middle" x="727.5" y="-320.5" font-family="Helvetica,sans-Serif" font-size="10.00">MayaFlux/Vruta/NetworkSource.hpp</text>
</a>
</g>
</g>
<!-- Node20&#45;&gt;Node22 -->
<g id="edge30_Node000020_Node000022" class="edge">
<title>Node20&#45;&gt;Node22</title>
<g id="a_edge30_Node000020_Node000022"><a xlink:title=" ">
<path fill="none" stroke="#63b8ff" d="M628.01,-379.37C647.21,-368.68 680.16,-350.35 702.85,-337.72"/>
<polygon fill="#63b8ff" stroke="#63b8ff" points="704.83,-340.62 711.87,-332.7 701.43,-334.5 704.83,-340.62"/>
</a>
</g>
</g>
<!-- Node26 -->
<g id="Node000026" class="node">
<title>Node26</title>
<g id="a_Node000026"><a xlink:href="WindowEventSource_8hpp.html" target="_top" xlink:title=" ">
<polygon fill="white" stroke="#666666" points="1246.5,-338 1082.5,-338 1082.5,-308 1246.5,-308 1246.5,-338"/>
<text text-anchor="start" x="1090.5" y="-326" font-family="Helvetica,sans-Serif" font-size="10.00">MayaFlux/Vruta/WindowEvent</text>
<text text-anchor="middle" x="1164.5" y="-315" font-family="Helvetica,sans-Serif" font-size="10.00">Source.hpp</text>
</a>
</g>
</g>
<!-- Node20&#45;&gt;Node26 -->
<g id="edge34_Node000020_Node000026" class="edge">
<title>Node20&#45;&gt;Node26</title>
<g id="a_edge34_Node000020_Node000026"><a xlink:title=" ">
<path fill="none" stroke="#63b8ff" d="M635.91,-379.36C642.2,-377.32 649.05,-375.35 655.5,-374 799.12,-343.94 969.41,-331.85 1072.1,-327.06"/>
<polygon fill="#63b8ff" stroke="#63b8ff" points="1072.3,-330.56 1082.13,-326.61 1071.98,-323.56 1072.3,-330.56"/>
</a>
</g>
</g>
<!-- Node23 -->
<g id="Node000023" class="node">
<title>Node23</title>
<g id="a_Node000023"><a xlink:href="GlobalNetworkConfig_8hpp.html" target="_top" xlink:title=" ">
<polygon fill="white" stroke="#666666" points="726.5,-272 560.5,-272 560.5,-242 726.5,-242 726.5,-272"/>
<text text-anchor="start" x="568.5" y="-260" font-family="Helvetica,sans-Serif" font-size="10.00">MayaFlux/Core/GlobalNetwork</text>
<text text-anchor="middle" x="643.5" y="-249" font-family="Helvetica,sans-Serif" font-size="10.00">Config.hpp</text>
</a>
</g>
</g>
<!-- Node22&#45;&gt;Node23 -->
<g id="edge31_Node000022_Node000023" class="edge">
<title>Node22&#45;&gt;Node23</title>
<g id="a_edge31_Node000022_Node000023"><a xlink:title=" ">
<path fill="none" stroke="#63b8ff" d="M716.17,-313.37C704.46,-304.44 685.75,-290.19 670.24,-278.38"/>
<polygon fill="#63b8ff" stroke="#63b8ff" points="672.1,-275.39 662.03,-272.12 667.86,-280.96 672.1,-275.39"/>
</a>
</g>
</g>
<!-- Node24 -->
<g id="Node000024" class="node">
<title>Node24</title>
<g id="a_Node000024"><a xlink:href="RingBuffer_8hpp.html" target="_top" xlink:title=" ">
<polygon fill="white" stroke="#666666" points="878.5,-272 744.5,-272 744.5,-242 878.5,-242 878.5,-272"/>
<text text-anchor="start" x="752.5" y="-260" font-family="Helvetica,sans-Serif" font-size="10.00">MayaFlux/Transitive</text>
<text text-anchor="middle" x="811.5" y="-249" font-family="Helvetica,sans-Serif" font-size="10.00">/Memory/RingBuffer.hpp</text>
</a>
</g>
</g>
<!-- Node22&#45;&gt;Node24 -->
<g id="edge32_Node000022_Node000024" class="edge">
<title>Node22&#45;&gt;Node24</title>
<g id="a_edge32_Node000022_Node000024"><a xlink:title=" ">
<path fill="none" stroke="#63b8ff" d="M738.83,-313.37C750.54,-304.44 769.25,-290.19 784.76,-278.38"/>
<polygon fill="#63b8ff" stroke="#63b8ff" points="787.14,-280.96 792.97,-272.12 782.9,-275.39 787.14,-280.96"/>
</a>
</g>
</g>
<!-- Node25 -->
<g id="Node000025" class="node">
<title>Node25</title>
<g id="a_Node000025"><a xlink:href="EventSource_8hpp.html" target="_top" xlink:title=" ">
<polygon fill="white" stroke="#666666" points="1076,-266.5 897,-266.5 897,-247.5 1076,-247.5 1076,-266.5"/>
<text text-anchor="middle" x="986.5" y="-254.5" font-family="Helvetica,sans-Serif" font-size="10.00">MayaFlux/Vruta/EventSource.hpp</text>
</a>
</g>
</g>
<!-- Node22&#45;&gt;Node25 -->
<g id="edge33_Node000022_Node000025" class="edge">
<title>Node22&#45;&gt;Node25</title>
<g id="a_edge33_Node000022_Node000025"><a xlink:title=" ">
<path fill="none" stroke="#63b8ff" d="M762.16,-313.44C808.68,-301.94 891.35,-281.51 942.3,-268.92"/>
<polygon fill="#63b8ff" stroke="#63b8ff" points="943.18,-272.31 952.04,-266.51 941.5,-265.52 943.18,-272.31"/>
</a>
</g>
</g>
<!-- Node26&#45;&gt;Node21 -->
<g id="edge37_Node000026_Node000021" class="edge">
<title>Node26&#45;&gt;Node21</title>
<g id="a_edge37_Node000026_Node000021"><a xlink:title=" ">
<path fill="none" stroke="#63b8ff" d="M1217.61,-307.95C1261.73,-296.29 1323.66,-279.91 1364.41,-269.13"/>
<polygon fill="#63b8ff" stroke="#63b8ff" points="1365.52,-272.46 1374.29,-266.52 1363.73,-265.69 1365.52,-272.46"/>
</a>
</g>
</g>
<!-- Node26&#45;&gt;Node25 -->
<g id="edge35_Node000026_Node000025" class="edge">
<title>Node26&#45;&gt;Node25</title>
<g id="a_edge35_Node000026_Node000025"><a xlink:title=" ">
<path fill="none" stroke="#63b8ff" d="M1125.44,-307.95C1093.81,-296.58 1049.74,-280.74 1019.77,-269.96"/>
<polygon fill="#63b8ff" stroke="#63b8ff" points="1020.78,-266.61 1010.19,-266.52 1018.41,-273.19 1020.78,-266.61"/>
</a>
</g>
</g>
<!-- Node27 -->
<g id="Node000027" class="node">
<title>Node27</title>
<g id="a_Node000027"><a xlink:href="GlobalGraphicsInfo_8hpp.html" target="_top" xlink:title=" ">
<polygon fill="white" stroke="#666666" points="1261,-272 1094,-272 1094,-242 1261,-242 1261,-272"/>
<text text-anchor="start" x="1102" y="-260" font-family="Helvetica,sans-Serif" font-size="10.00">MayaFlux/Core/GlobalGraphics</text>
<text text-anchor="middle" x="1177.5" y="-249" font-family="Helvetica,sans-Serif" font-size="10.00">Info.hpp</text>
</a>
</g>
</g>
<!-- Node26&#45;&gt;Node27 -->
<g id="edge36_Node000026_Node000027" class="edge">
<title>Node26&#45;&gt;Node27</title>
<g id="a_edge36_Node000026_Node000027"><a xlink:title=" ">
<path fill="none" stroke="#63b8ff" d="M1167.39,-307.8C1168.92,-300.26 1170.84,-290.78 1172.6,-282.13"/>
<polygon fill="#63b8ff" stroke="#63b8ff" points="1176.06,-282.66 1174.62,-272.16 1169.2,-281.27 1176.06,-282.66"/>
</a>
</g>
</g>
<!-- Node28 -->
<g id="Node000028" class="node">
<title>Node28</title>
<g id="a_Node000028"><a xlink:title=" ">
<polygon fill="#e0e0e0" stroke="#999999" points="1326,-266.5 1279,-266.5 1279,-247.5 1326,-247.5 1326,-266.5"/>
<text text-anchor="middle" x="1302.5" y="-254.5" font-family="Helvetica,sans-Serif" font-size="10.00">queue</text>
</a>
</g>
</g>
<!-- Node26&#45;&gt;Node28 -->
<g id="edge38_Node000026_Node000028" class="edge">
<title>Node26&#45;&gt;Node28</title>
<g id="a_edge38_Node000026_Node000028"><a xlink:title=" ">
<path fill="none" stroke="#63b8ff" d="M1194.78,-307.95C1218.67,-296.88 1251.7,-281.56 1274.86,-270.82"/>
<polygon fill="#63b8ff" stroke="#63b8ff" points="1276.54,-273.9 1284.13,-266.52 1273.59,-267.55 1276.54,-273.9"/>
</a>
</g>
</g>
<!-- Node31 -->
<g id="Node000031" class="node">
<title>Node31</title>
<g id="a_Node000031"><a xlink:href="Format_8hpp.html" target="_top" xlink:title=" ">
<polygon fill="white" stroke="#666666" points="1002.5,-459 930.5,-459 930.5,-440 1002.5,-440 1002.5,-459"/>
<text text-anchor="middle" x="966.5" y="-447" font-family="Helvetica,sans-Serif" font-size="10.00">Format.hpp</text>
</a>
</g>
</g>
<!-- Node30&#45;&gt;Node31 -->
<g id="edge41_Node000030_Node000031" class="edge">
<title>Node30&#45;&gt;Node31</title>
<g id="a_edge41_Node000030_Node000031"><a xlink:title=" ">
<path fill="none" stroke="#63b8ff" d="M1002.4,-494.75C996.33,-487.26 987.41,-476.28 979.99,-467.13"/>
<polygon fill="#63b8ff" stroke="#63b8ff" points="982.49,-464.65 973.47,-459.09 977.05,-469.06 982.49,-464.65"/>
</a>
</g>
</g>
<!-- Node32 -->
<g id="Node000032" class="node">
<title>Node32</title>
<g id="a_Node000032"><a xlink:href="JournalEntry_8hpp.html" target="_top" xlink:title=" ">
<polygon fill="white" stroke="#666666" points="1116,-459 1021,-459 1021,-440 1116,-440 1116,-459"/>
<text text-anchor="middle" x="1068.5" y="-447" font-family="Helvetica,sans-Serif" font-size="10.00">JournalEntry.hpp</text>
</a>
</g>
</g>
<!-- Node30&#45;&gt;Node32 -->
<g id="edge42_Node000030_Node000032" class="edge">
<title>Node30&#45;&gt;Node32</title>
<g id="a_edge42_Node000030_Node000032"><a xlink:title=" ">
<path fill="none" stroke="#63b8ff" d="M1018.98,-494.98C1027.7,-487.15 1040.84,-475.34 1051.4,-465.86"/>
<polygon fill="#63b8ff" stroke="#63b8ff" points="1053.75,-468.46 1058.85,-459.17 1049.07,-463.25 1053.75,-468.46"/>
</a>
</g>
</g>
<!-- Node33 -->
<g id="Node000033" class="node">
<title>Node33</title>
<g id="a_Node000033"><a xlink:href="EnumReflect_8hpp.html" target="_top" xlink:title=" ">
<polygon fill="white" stroke="#666666" points="1003,-404 864,-404 864,-374 1003,-374 1003,-404"/>
<text text-anchor="start" x="872" y="-392" font-family="Helvetica,sans-Serif" font-size="10.00">MayaFlux/Transitive</text>
<text text-anchor="middle" x="933.5" y="-381" font-family="Helvetica,sans-Serif" font-size="10.00">/Reflect/EnumReflect.hpp</text>
</a>
</g>
</g>
<!-- Node32&#45;&gt;Node33 -->
<g id="edge43_Node000032_Node000033" class="edge">
<title>Node32&#45;&gt;Node33</title>
<g id="a_edge43_Node000032_Node000033"><a xlink:title=" ">
<path fill="none" stroke="#63b8ff" d="M1048.87,-439.99C1029.7,-431.68 999.9,-418.78 975.4,-408.16"/>
<polygon fill="#63b8ff" stroke="#63b8ff" points="976.52,-404.83 965.96,-404.06 973.74,-411.25 976.52,-404.83"/>
</a>
</g>
</g>
<!-- Node34 -->
<g id="Node000034" class="node">
<title>Node34</title>
<g id="a_Node000034"><a xlink:title=" ">
<polygon fill="#e0e0e0" stroke="#999999" points="1071.5,-398.5 1021.5,-398.5 1021.5,-379.5 1071.5,-379.5 1071.5,-398.5"/>
<text text-anchor="middle" x="1046.5" y="-386.5" font-family="Helvetica,sans-Serif" font-size="10.00">chrono</text>
</a>
</g>
</g>
<!-- Node32&#45;&gt;Node34 -->
<g id="edge44_Node000032_Node000034" class="edge">
<title>Node32&#45;&gt;Node34</title>
<g id="a_edge44_Node000032_Node000034"><a xlink:title=" ">
<path fill="none" stroke="#63b8ff" d="M1065.25,-439.87C1062.13,-431.57 1057.32,-418.78 1053.35,-408.22"/>
<polygon fill="#63b8ff" stroke="#63b8ff" points="1056.56,-406.8 1049.76,-398.67 1050,-409.26 1056.56,-406.8"/>
</a>
</g>
</g>
<!-- Node35 -->
<g id="Node000035" class="node">
<title>Node35</title>
<g id="a_Node000035"><a xlink:title=" ">
<polygon fill="#e0e0e0" stroke="#999999" points="1183,-398.5 1090,-398.5 1090,-379.5 1183,-379.5 1183,-398.5"/>
<text text-anchor="middle" x="1136.5" y="-386.5" font-family="Helvetica,sans-Serif" font-size="10.00">source_location</text>
</a>
</g>
</g>
<!-- Node32&#45;&gt;Node35 -->
<g id="edge45_Node000032_Node000035" class="edge">
<title>Node32&#45;&gt;Node35</title>
<g id="a_edge45_Node000032_Node000035"><a xlink:title=" ">
<path fill="none" stroke="#63b8ff" d="M1078.53,-439.87C1089.08,-430.8 1105.89,-416.34 1118.69,-405.32"/>
<polygon fill="#63b8ff" stroke="#63b8ff" points="1121.13,-407.84 1126.43,-398.67 1116.56,-402.54 1121.13,-407.84"/>
</a>
</g>
</g>
<!-- Node36 -->
<g id="Node000036" class="node">
<title>Node36</title>
<g id="a_Node000036"><a xlink:title=" ">
<polygon fill="#e0e0e0" stroke="#999999" points="1274,-398.5 1201,-398.5 1201,-379.5 1274,-379.5 1274,-398.5"/>
<text text-anchor="middle" x="1237.5" y="-386.5" font-family="Helvetica,sans-Serif" font-size="10.00">string_view</text>
</a>
</g>
</g>
<!-- Node32&#45;&gt;Node36 -->
<g id="edge46_Node000032_Node000036" class="edge">
<title>Node32&#45;&gt;Node36</title>
<g id="a_edge46_Node000032_Node000036"><a xlink:title=" ">
<path fill="none" stroke="#63b8ff" d="M1093.07,-439.99C1122.11,-429.94 1170.6,-413.16 1203.3,-401.84"/>
<polygon fill="#63b8ff" stroke="#63b8ff" points="1204.59,-405.1 1212.9,-398.52 1202.3,-398.48 1204.59,-405.1"/>
</a>
</g>
</g>
<!-- Node38 -->
<g id="Node000038" class="node">
<title>Node38</title>
<g id="a_Node000038"><a xlink:href="Event_8hpp.html" target="_top" xlink:title=" ">
<polygon fill="white" stroke="#666666" points="1271,-459 1206,-459 1206,-440 1271,-440 1271,-459"/>
<text text-anchor="middle" x="1238.5" y="-447" font-family="Helvetica,sans-Serif" font-size="10.00">Event.hpp</text>
</a>
</g>
</g>
<!-- Node37&#45;&gt;Node38 -->
<g id="edge48_Node000037_Node000038" class="edge">
<title>Node37&#45;&gt;Node38</title>
<g id="a_edge48_Node000037_Node000038"><a xlink:title=" ">
<path fill="none" stroke="#63b8ff" d="M1210.95,-494.75C1215.51,-487.42 1222.17,-476.73 1227.79,-467.7"/>
<polygon fill="#63b8ff" stroke="#63b8ff" points="1230.84,-469.43 1233.15,-459.09 1224.9,-465.73 1230.84,-469.43"/>
</a>
</g>
</g>
<!-- Node39 -->
<g id="Node000039" class="node">
<title>Node39</title>
<g id="a_Node000039"><a xlink:href="Promise_8hpp.html" target="_top" xlink:title=" ">
<polygon fill="white" stroke="#666666" points="1372,-398.5 1295,-398.5 1295,-379.5 1372,-379.5 1372,-398.5"/>
<text text-anchor="middle" x="1333.5" y="-386.5" font-family="Helvetica,sans-Serif" font-size="10.00">Promise.hpp</text>
</a>
</g>
</g>
<!-- Node38&#45;&gt;Node39 -->
<g id="edge49_Node000038_Node000039" class="edge">
<title>Node38&#45;&gt;Node39</title>
<g id="a_edge49_Node000038_Node000039"><a xlink:title=" ">
<path fill="none" stroke="#63b8ff" d="M1252.52,-439.87C1267.81,-430.45 1292.53,-415.23 1310.64,-404.08"/>
<polygon fill="#63b8ff" stroke="#63b8ff" points="1312.75,-406.89 1319.42,-398.67 1309.07,-400.93 1312.75,-406.89"/>
</a>
</g>
</g>
<!-- Node40 -->
<g id="Node000040" class="node">
<title>Node40</title>
<g id="a_Node000040"><a xlink:title=" ">
<polygon fill="#e0e0e0" stroke="#999999" points="1364.5,-332.5 1302.5,-332.5 1302.5,-313.5 1364.5,-313.5 1364.5,-332.5"/>
<text text-anchor="middle" x="1333.5" y="-320.5" font-family="Helvetica,sans-Serif" font-size="10.00">coroutine</text>
</a>
</g>
</g>
<!-- Node39&#45;&gt;Node40 -->
<g id="edge50_Node000039_Node000040" class="edge">
<title>Node39&#45;&gt;Node40</title>
<g id="a_edge50_Node000039_Node000040"><a xlink:title=" ">
<path fill="none" stroke="#63b8ff" d="M1333.5,-379.37C1333.5,-370.16 1333.5,-355.29 1333.5,-343.27"/>
<polygon fill="#63b8ff" stroke="#63b8ff" points="1337,-342.91 1333.5,-332.91 1330,-342.91 1337,-342.91"/>
</a>
</g>
</g>
<!-- Node41 -->
<g id="Node000041" class="node">
<title>Node41</title>
<g id="a_Node000041"><a xlink:href="ProcessingTokens_8hpp.html" target="_top" xlink:title=" ">
<polygon fill="white" stroke="#666666" points="1528.5,-338 1382.5,-338 1382.5,-308 1528.5,-308 1528.5,-338"/>
<text text-anchor="start" x="1390.5" y="-326" font-family="Helvetica,sans-Serif" font-size="10.00">MayaFlux/Core/Processing</text>
<text text-anchor="middle" x="1455.5" y="-315" font-family="Helvetica,sans-Serif" font-size="10.00">Tokens.hpp</text>
</a>
</g>
</g>
<!-- Node39&#45;&gt;Node41 -->
<g id="edge51_Node000039_Node000041" class="edge">
<title>Node39&#45;&gt;Node41</title>
<g id="a_edge51_Node000039_Node000041"><a xlink:title=" ">
<path fill="none" stroke="#63b8ff" d="M1349.95,-379.37C1367.67,-370.07 1396.42,-354.99 1419.45,-342.91"/>
<polygon fill="#63b8ff" stroke="#63b8ff" points="1421.36,-345.86 1428.59,-338.12 1418.11,-339.66 1421.36,-345.86"/>
</a>
</g>
</g>
<!-- Node43 -->
<g id="Node000043" class="node">
<title>Node43</title>
<g id="a_Node000043"><a xlink:href="Clock_8hpp.html" target="_top" xlink:title=" ">
<polygon fill="white" stroke="#666666" points="1454,-459 1389,-459 1389,-440 1454,-440 1454,-459"/>
<text text-anchor="middle" x="1421.5" y="-447" font-family="Helvetica,sans-Serif" font-size="10.00">Clock.hpp</text>
</a>
</g>
</g>
<!-- Node42&#45;&gt;Node43 -->
<g id="edge53_Node000042_Node000043" class="edge">
<title>Node42&#45;&gt;Node43</title>
<g id="a_edge53_Node000042_Node000043"><a xlink:title=" ">
<path fill="none" stroke="#63b8ff" d="M1403.97,-494.75C1406.78,-487.65 1410.84,-477.4 1414.35,-468.56"/>
<polygon fill="#63b8ff" stroke="#63b8ff" points="1417.67,-469.68 1418.1,-459.09 1411.16,-467.1 1417.67,-469.68"/>
</a>
</g>
</g>
<!-- Node44 -->
<g id="Node000044" class="node">
<title>Node44</title>
<g id="a_Node000044"><a xlink:href="Routine_8hpp.html" target="_top" xlink:title=" ">
<polygon fill="white" stroke="#666666" points="1371,-459 1296,-459 1296,-440 1371,-440 1371,-459"/>
<text text-anchor="middle" x="1333.5" y="-447" font-family="Helvetica,sans-Serif" font-size="10.00">Routine.hpp</text>
</a>
</g>
</g>
<!-- Node42&#45;&gt;Node44 -->
<g id="edge54_Node000042_Node000044" class="edge">
<title>Node42&#45;&gt;Node44</title>
<g id="a_edge54_Node000042_Node000044"><a xlink:title=" ">
<path fill="none" stroke="#63b8ff" d="M1389.74,-494.98C1379.73,-487.07 1364.61,-475.11 1352.57,-465.58"/>
<polygon fill="#63b8ff" stroke="#63b8ff" points="1354.47,-462.63 1344.46,-459.17 1350.13,-468.12 1354.47,-462.63"/>
</a>
</g>
</g>
<!-- Node44&#45;&gt;Node39 -->
<g id="edge55_Node000044_Node000039" class="edge">
<title>Node44&#45;&gt;Node39</title>
<g id="a_edge55_Node000044_Node000039"><a xlink:title=" ">
<path fill="none" stroke="#63b8ff" d="M1333.5,-439.87C1333.5,-431.75 1333.5,-419.31 1333.5,-408.89"/>
<polygon fill="#63b8ff" stroke="#63b8ff" points="1337,-408.67 1333.5,-398.67 1330,-408.67 1337,-408.67"/>
</a>
</g>
</g>
</g>
</svg>

<g id="navigator" transform="translate(0 0)" fill="#404254">
  <rect fill="#f2f5e9" fill-opacity="0.5" stroke="#606060" stroke-width=".5" x="0" y="0" width="60" height="60"/>
  <use id="zoomplus" xlink:href="#zoomPlus" x="17" y="9" onmousedown="handleZoom(evt,'in')"/>
  <use id="zoomminus" xlink:href="#zoomMin" x="42" y="9" onmousedown="handleZoom(evt,'out')"/>
  <use id="reset" xlink:href="#resetDef" x="30" y="36" onmousedown="handleReset()"/>
   <use id="arrowup" xlink:href="#arrowUp" x="0" y="0" onmousedown="handlePan(0,-1)"/>
  <use id="arrowright" xlink:href="#arrowRight" x="0" y="0" onmousedown="handlePan(1,0)"/>
  <use id="arrowdown" xlink:href="#arrowDown" x="0" y="0" onmousedown="handlePan(0,1)"/>
  <use id="arrowleft" xlink:href="#arrowLeft" x="0" y="0" onmousedown="handlePan(-1,0)"/>
</g>
<svg viewBox="0 0 15 15" width="100%" height="30px" preserveAspectRatio="xMaxYMin meet">
 <g id="arrow_out" transform="scale(0.3 0.3)">
  <a xlink:href="Tapestry_8cpp__incl_org.svg" target="_base">
   <rect id="button" ry="5" rx="5" y="6" x="6" height="38" width="38"
        fill="#f2f5e9" fill-opacity="0.5" stroke="#606060" stroke-width="1.0"/>
   <path id="arrow"
     d="M 11.500037,31.436501 C 11.940474,20.09759 22.043105,11.32322 32.158766,21.979434 L 37.068811,17.246167 C 37.068811,17.246167 37.088388,32 37.088388,32 L 22.160133,31.978069 C 22.160133,31.978069 26.997745,27.140456 26.997745,27.140456 C 18.528582,18.264221 13.291696,25.230495 11.500037,31.436501 z"
     style="fill:#404040;"/>
  </a>
 </g>
</svg>

<style type='text/css'>
<![CDATA[
[data-mouse-over-selected='false'] { opacity: 0.7; }
[data-mouse-over-selected='true']  { opacity: 1.0; }
]]>
</style>
<script type="application/ecmascript"><![CDATA[
document.addEventListener('DOMContentLoaded', (event) => {
  highlightEdges();
  highlightAdjacentNodes();
});
]]></script>
</svg>
