<?xml version="1.0" encoding="UTF-8" standalone="no"?>
<!DOCTYPE svg PUBLIC "-//W3C//DTD SVG 1.1//EN"
 "http://www.w3.org/Graphics/SVG/1.1/DTD/svg11.dtd">
<!-- Generated by graphviz version 2.43.0 (0)
 -->
<!-- Title: TextureContainer.hpp Pages: 1 -->
<svg width="850pt" height="247pt"
 viewBox="0.00 0.00 850.00 247.00" xmlns="http://www.w3.org/2000/svg" xmlns:xlink="http://www.w3.org/1999/xlink">
<g id="graph0" class="graph" transform="scale(1 1) rotate(0) translate(4 243)">
<title>TextureContainer.hpp</title>
<!-- Node1 -->
<g id="Node000001" class="node">
<title>Node1</title>
<g id="a_Node000001"><a xlink:title=" ">
<polygon fill="#999999" stroke="#666666" points="621.5,-239 501.5,-239 501.5,-220 621.5,-220 621.5,-239"/>
<text text-anchor="middle" x="561.5" y="-227" font-family="Helvetica,sans-Serif" font-size="10.00">TextureContainer.hpp</text>
</a>
</g>
</g>
<!-- Node2 -->
<g id="Node000002" class="node">
<title>Node2</title>
<g id="a_Node000002"><a xlink:href="GlyphAtlas_8hpp.html" target="_top" xlink:title=" ">
<polygon fill="white" stroke="#666666" points="331,-184 240,-184 240,-165 331,-165 331,-184"/>
<text text-anchor="middle" x="285.5" y="-172" font-family="Helvetica,sans-Serif" font-size="10.00">GlyphAtlas.hpp</text>
</a>
</g>
</g>
<!-- Node1&#45;&gt;Node2 -->
<g id="edge1_Node000001_Node000002" class="edge">
<title>Node1&#45;&gt;Node2</title>
<g id="a_edge1_Node000001_Node000002"><a xlink:title=" ">
<path fill="none" stroke="#63b8ff" d="M507.16,-218.07C455.42,-208.13 378.47,-193.35 330.19,-184.08"/>
<polygon fill="#63b8ff" stroke="#63b8ff" points="506.68,-221.54 517.16,-219.98 508,-214.66 506.68,-221.54"/>
</a>
</g>
</g>
<!-- Node5 -->
<g id="Node000005" class="node">
<title>Node5</title>
<g id="a_Node000005"><a xlink:href="InkPress_8cpp.html" target="_top" xlink:title=" ">
<polygon fill="white" stroke="#666666" points="488.5,-74 410.5,-74 410.5,-55 488.5,-55 488.5,-74"/>
<text text-anchor="middle" x="449.5" y="-62" font-family="Helvetica,sans-Serif" font-size="10.00">InkPress.cpp</text>
</a>
</g>
</g>
<!-- Node1&#45;&gt;Node5 -->
<g id="edge13_Node000001_Node000005" class="edge">
<title>Node1&#45;&gt;Node5</title>
<g id="a_edge13_Node000001_Node000005"><a xlink:title=" ">
<path fill="none" stroke="#63b8ff" d="M552.02,-211.02C547.59,-202.82 542.26,-192.92 537.5,-184 520.01,-151.19 521.27,-139.39 498.5,-110 487.52,-95.83 471.73,-82.41 461.06,-74.08"/>
<polygon fill="#63b8ff" stroke="#63b8ff" points="549.04,-212.85 556.87,-219.98 555.19,-209.52 549.04,-212.85"/>
</a>
</g>
</g>
<!-- Node12 -->
<g id="Node000012" class="node">
<title>Node12</title>
<g id="a_Node000012"><a xlink:href="TextureContainer_8cpp.html" target="_top" xlink:title=" ">
<polygon fill="white" stroke="#666666" points="665,-184 546,-184 546,-165 665,-165 665,-184"/>
<text text-anchor="middle" x="605.5" y="-172" font-family="Helvetica,sans-Serif" font-size="10.00">TextureContainer.cpp</text>
</a>
</g>
</g>
<!-- Node1&#45;&gt;Node12 -->
<g id="edge14_Node000001_Node000012" class="edge">
<title>Node1&#45;&gt;Node12</title>
<g id="a_edge14_Node000001_Node000012"><a xlink:title=" ">
<path fill="none" stroke="#63b8ff" d="M575.23,-211.96C582.9,-202.72 592.13,-191.6 598.37,-184.09"/>
<polygon fill="#63b8ff" stroke="#63b8ff" points="572.46,-209.82 568.77,-219.75 577.85,-214.29 572.46,-209.82"/>
</a>
</g>
</g>
<!-- Node13 -->
<g id="Node000013" class="node">
<title>Node13</title>
<g id="a_Node000013"><a xlink:href="TextureExecutionContext_8hpp.html" target="_top" xlink:title=" ">
<polygon fill="white" stroke="#666666" points="842,-184 683,-184 683,-165 842,-165 842,-184"/>
<text text-anchor="middle" x="762.5" y="-172" font-family="Helvetica,sans-Serif" font-size="10.00">TextureExecutionContext.hpp</text>
</a>
</g>
</g>
<!-- Node1&#45;&gt;Node13 -->
<g id="edge15_Node000001_Node000013" class="edge">
<title>Node1&#45;&gt;Node13</title>
<g id="a_edge15_Node000001_Node000013"><a xlink:title=" ">
<path fill="none" stroke="#63b8ff" d="M603.93,-217.31C641.54,-207.39 695.67,-193.12 729.95,-184.08"/>
<polygon fill="#63b8ff" stroke="#63b8ff" points="602.57,-214.05 593.79,-219.98 604.36,-220.82 602.57,-214.05"/>
</a>
</g>
</g>
<!-- Node3 -->
<g id="Node000003" class="node">
<title>Node3</title>
<g id="a_Node000003"><a xlink:href="GlyphAtlas_8cpp.html" target="_top" xlink:title=" ">
<polygon fill="white" stroke="#666666" points="391.5,-129 301.5,-129 301.5,-110 391.5,-110 391.5,-129"/>
<text text-anchor="middle" x="346.5" y="-117" font-family="Helvetica,sans-Serif" font-size="10.00">GlyphAtlas.cpp</text>
</a>
</g>
</g>
<!-- Node2&#45;&gt;Node3 -->
<g id="edge2_Node000002_Node000003" class="edge">
<title>Node2&#45;&gt;Node3</title>
<g id="a_edge2_Node000002_Node000003"><a xlink:title=" ">
<path fill="none" stroke="#63b8ff" d="M302.97,-158.32C313.84,-148.87 327.44,-137.06 336.52,-129.17"/>
<polygon fill="#63b8ff" stroke="#63b8ff" points="300.55,-155.78 295.3,-164.98 305.15,-161.07 300.55,-155.78"/>
</a>
</g>
</g>
<!-- Node4 -->
<g id="Node000004" class="node">
<title>Node4</title>
<g id="a_Node000004"><a xlink:href="InkPress_8hpp.html" target="_top" xlink:title=" ">
<polygon fill="white" stroke="#666666" points="489,-129 410,-129 410,-110 489,-110 489,-129"/>
<text text-anchor="middle" x="449.5" y="-117" font-family="Helvetica,sans-Serif" font-size="10.00">InkPress.hpp</text>
</a>
</g>
</g>
<!-- Node2&#45;&gt;Node4 -->
<g id="edge3_Node000002_Node000004" class="edge">
<title>Node2&#45;&gt;Node4</title>
<g id="a_edge3_Node000002_Node000004"><a xlink:title=" ">
<path fill="none" stroke="#63b8ff" d="M321.71,-161.8C352.32,-151.91 395.45,-137.97 422.94,-129.08"/>
<polygon fill="#63b8ff" stroke="#63b8ff" points="320.29,-158.58 311.85,-164.98 322.44,-165.24 320.29,-158.58"/>
</a>
</g>
</g>
<!-- Node6 -->
<g id="Node000006" class="node">
<title>Node6</title>
<g id="a_Node000006"><a xlink:href="Text_8cpp.html" target="_top" xlink:title=" ">
<polygon fill="white" stroke="#666666" points="57,-19 0,-19 0,0 57,0 57,-19"/>
<text text-anchor="middle" x="28.5" y="-7" font-family="Helvetica,sans-Serif" font-size="10.00">Text.cpp</text>
</a>
</g>
</g>
<!-- Node2&#45;&gt;Node6 -->
<g id="edge5_Node000002_Node000006" class="edge">
<title>Node2&#45;&gt;Node6</title>
<g id="a_edge5_Node000002_Node000006"><a xlink:title=" ">
<path fill="none" stroke="#63b8ff" d="M229.89,-170.27C167.93,-165.47 73.19,-154.15 48.5,-129 18.54,-98.48 23.74,-40.85 27,-19.1"/>
<polygon fill="#63b8ff" stroke="#63b8ff" points="229.68,-173.76 239.91,-171.01 230.2,-166.78 229.68,-173.76"/>
</a>
</g>
</g>
<!-- Node7 -->
<g id="Node000007" class="node">
<title>Node7</title>
<g id="a_Node000007"><a xlink:href="TypeFaceFoundry_8cpp.html" target="_top" xlink:title=" ">
<polygon fill="white" stroke="#666666" points="283,-129 164,-129 164,-110 283,-110 283,-129"/>
<text text-anchor="middle" x="223.5" y="-117" font-family="Helvetica,sans-Serif" font-size="10.00">TypeFaceFoundry.cpp</text>
</a>
</g>
</g>
<!-- Node2&#45;&gt;Node7 -->
<g id="edge6_Node000002_Node000007" class="edge">
<title>Node2&#45;&gt;Node7</title>
<g id="a_edge6_Node000002_Node000007"><a xlink:title=" ">
<path fill="none" stroke="#63b8ff" d="M267.75,-158.32C256.69,-148.87 242.87,-137.06 233.64,-129.17"/>
<polygon fill="#63b8ff" stroke="#63b8ff" points="265.66,-161.15 275.54,-164.98 270.21,-155.83 265.66,-161.15"/>
</a>
</g>
</g>
<!-- Node8 -->
<g id="Node000008" class="node">
<title>Node8</title>
<g id="a_Node000008"><a xlink:href="TypeSetter_8hpp.html" target="_top" xlink:title=" ">
<polygon fill="white" stroke="#666666" points="146,-129 57,-129 57,-110 146,-110 146,-129"/>
<text text-anchor="middle" x="101.5" y="-117" font-family="Helvetica,sans-Serif" font-size="10.00">TypeSetter.hpp</text>
</a>
</g>
</g>
<!-- Node2&#45;&gt;Node8 -->
<g id="edge7_Node000002_Node000008" class="edge">
<title>Node2&#45;&gt;Node8</title>
<g id="a_edge7_Node000002_Node000008"><a xlink:title=" ">
<path fill="none" stroke="#63b8ff" d="M246.21,-162.18C211.8,-152.27 162.54,-138.08 131.29,-129.08"/>
<polygon fill="#63b8ff" stroke="#63b8ff" points="245.36,-165.58 255.94,-164.98 247.3,-158.85 245.36,-165.58"/>
</a>
</g>
</g>
<!-- Node4&#45;&gt;Node5 -->
<g id="edge4_Node000004_Node000005" class="edge">
<title>Node4&#45;&gt;Node5</title>
<g id="a_edge4_Node000004_Node000005"><a xlink:title=" ">
<path fill="none" stroke="#63b8ff" d="M449.5,-99.66C449.5,-90.93 449.5,-80.99 449.5,-74.09"/>
<polygon fill="#63b8ff" stroke="#63b8ff" points="446,-99.75 449.5,-109.75 453,-99.75 446,-99.75"/>
</a>
</g>
</g>
<!-- Node8&#45;&gt;Node5 -->
<g id="edge8_Node000008_Node000005" class="edge">
<title>Node8&#45;&gt;Node5</title>
<g id="a_edge8_Node000008_Node000005"><a xlink:title=" ">
<path fill="none" stroke="#63b8ff" d="M156.32,-109.88C253.9,-94.84 356.05,-79.48 410.49,-71.33"/>
<polygon fill="#63b8ff" stroke="#63b8ff" points="155.64,-106.45 146.29,-111.43 156.7,-113.36 155.64,-106.45"/>
</a>
</g>
</g>
<!-- Node9 -->
<g id="Node000009" class="node">
<title>Node9</title>
<g id="a_Node000009"><a xlink:href="Text_8hpp.html" target="_top" xlink:title=" ">
<polygon fill="white" stroke="#666666" points="122.5,-74 64.5,-74 64.5,-55 122.5,-55 122.5,-74"/>
<text text-anchor="middle" x="93.5" y="-62" font-family="Helvetica,sans-Serif" font-size="10.00">Text.hpp</text>
</a>
</g>
</g>
<!-- Node8&#45;&gt;Node9 -->
<g id="edge9_Node000008_Node000009" class="edge">
<title>Node8&#45;&gt;Node9</title>
<g id="a_edge9_Node000008_Node000009"><a xlink:title=" ">
<path fill="none" stroke="#63b8ff" d="M98.66,-99.66C97.34,-90.93 95.84,-80.99 94.8,-74.09"/>
<polygon fill="#63b8ff" stroke="#63b8ff" points="95.23,-100.38 100.18,-109.75 102.15,-99.34 95.23,-100.38"/>
</a>
</g>
</g>
<!-- Node11 -->
<g id="Node000011" class="node">
<title>Node11</title>
<g id="a_Node000011"><a xlink:href="TypeSetter_8cpp.html" target="_top" xlink:title=" ">
<polygon fill="white" stroke="#666666" points="228.5,-74 140.5,-74 140.5,-55 228.5,-55 228.5,-74"/>
<text text-anchor="middle" x="184.5" y="-62" font-family="Helvetica,sans-Serif" font-size="10.00">TypeSetter.cpp</text>
</a>
</g>
</g>
<!-- Node8&#45;&gt;Node11 -->
<g id="edge12_Node000008_Node000011" class="edge">
<title>Node8&#45;&gt;Node11</title>
<g id="a_edge12_Node000008_Node000011"><a xlink:title=" ">
<path fill="none" stroke="#63b8ff" d="M123.54,-104.42C138.61,-94.81 158.09,-82.37 170.92,-74.17"/>
<polygon fill="#63b8ff" stroke="#63b8ff" points="121.38,-101.65 114.84,-109.98 125.15,-107.55 121.38,-101.65"/>
</a>
</g>
</g>
<!-- Node9&#45;&gt;Node6 -->
<g id="edge11_Node000009_Node000006" class="edge">
<title>Node9&#45;&gt;Node6</title>
<g id="a_edge11_Node000009_Node000006"><a xlink:title=" ">
<path fill="none" stroke="#63b8ff" d="M75.23,-48.6C63.58,-39.11 48.9,-27.13 39.13,-19.17"/>
<polygon fill="#63b8ff" stroke="#63b8ff" points="73.09,-51.38 83.06,-54.98 77.52,-45.95 73.09,-51.38"/>
</a>
</g>
</g>
<!-- Node10 -->
<g id="Node000010" class="node">
<title>Node10</title>
<g id="a_Node000010"><a xlink:href="GraphicsSubsystem_8cpp.html" target="_top" xlink:title=" ">
<polygon fill="white" stroke="#666666" points="209.5,-19 75.5,-19 75.5,0 209.5,0 209.5,-19"/>
<text text-anchor="middle" x="142.5" y="-7" font-family="Helvetica,sans-Serif" font-size="10.00">GraphicsSubsystem.cpp</text>
</a>
</g>
</g>
<!-- Node9&#45;&gt;Node10 -->
<g id="edge10_Node000009_Node000010" class="edge">
<title>Node9&#45;&gt;Node10</title>
<g id="a_edge10_Node000009_Node000010"><a xlink:title=" ">
<path fill="none" stroke="#63b8ff" d="M108.53,-47.24C117.12,-37.95 127.54,-26.68 134.56,-19.09"/>
<polygon fill="#63b8ff" stroke="#63b8ff" points="105.81,-45.03 101.59,-54.75 110.95,-49.78 105.81,-45.03"/>
</a>
</g>
</g>
</g>
</svg>
