<?xml version="1.0" encoding="UTF-8" standalone="no"?>
<!DOCTYPE svg PUBLIC "-//W3C//DTD SVG 1.1//EN"
 "http://www.w3.org/Graphics/SVG/1.1/DTD/svg11.dtd">
<!-- Generated by graphviz version 2.43.0 (0)
 -->
<!-- Title: TextureProcessor.cpp Pages: 1 -->
<svg width="1485pt" height="533pt"
 viewBox="0.00 0.00 1484.50 533.00" xmlns="http://www.w3.org/2000/svg" xmlns:xlink="http://www.w3.org/1999/xlink">
<g id="graph0" class="graph" transform="scale(1 1) rotate(0) translate(4 529)">
<title>TextureProcessor.cpp</title>
<!-- Node1 -->
<g id="Node000001" class="node">
<title>Node1</title>
<g id="a_Node000001"><a xlink:title=" ">
<polygon fill="#999999" stroke="#666666" points="830,-525 711,-525 711,-506 830,-506 830,-525"/>
<text text-anchor="middle" x="770.5" y="-513" font-family="Helvetica,sans-Serif" font-size="10.00">TextureProcessor.cpp</text>
</a>
</g>
</g>
<!-- Node2 -->
<g id="Node000002" class="node">
<title>Node2</title>
<g id="a_Node000002"><a xlink:href="TextureProcessor_8hpp.html" target="_top" xlink:title=" ">
<polygon fill="white" stroke="#666666" points="874.5,-464.5 754.5,-464.5 754.5,-445.5 874.5,-445.5 874.5,-464.5"/>
<text text-anchor="middle" x="814.5" y="-452.5" font-family="Helvetica,sans-Serif" font-size="10.00">TextureProcessor.hpp</text>
</a>
</g>
</g>
<!-- Node1&#45;&gt;Node2 -->
<g id="edge1_Node000001_Node000002" class="edge">
<title>Node1&#45;&gt;Node2</title>
<g id="a_edge1_Node000001_Node000002"><a xlink:title=" ">
<path fill="none" stroke="#63b8ff" d="M776.99,-505.87C783.49,-497.23 793.66,-483.7 801.78,-472.92"/>
<polygon fill="#63b8ff" stroke="#63b8ff" points="804.77,-474.76 807.98,-464.67 799.17,-470.56 804.77,-474.76"/>
</a>
</g>
</g>
<!-- Node14 -->
<g id="Node000014" class="node">
<title>Node14</title>
<g id="a_Node000014"><a xlink:href="RenderProcessor_8hpp.html" target="_top" xlink:title=" ">
<polygon fill="white" stroke="#666666" points="605.5,-470 461.5,-470 461.5,-440 605.5,-440 605.5,-470"/>
<text text-anchor="start" x="469.5" y="-458" font-family="Helvetica,sans-Serif" font-size="10.00">MayaFlux/Buffers/Shaders</text>
<text text-anchor="middle" x="533.5" y="-447" font-family="Helvetica,sans-Serif" font-size="10.00">/RenderProcessor.hpp</text>
</a>
</g>
</g>
<!-- Node1&#45;&gt;Node14 -->
<g id="edge15_Node000001_Node000014" class="edge">
<title>Node1&#45;&gt;Node14</title>
<g id="a_edge15_Node000001_Node000014"><a xlink:title=" ">
<path fill="none" stroke="#63b8ff" d="M736.04,-505.99C700.59,-497.24 644.47,-483.39 600.28,-472.48"/>
<polygon fill="#63b8ff" stroke="#63b8ff" points="601.03,-469.06 590.48,-470.06 599.35,-475.86 601.03,-469.06"/>
</a>
</g>
</g>
<!-- Node21 -->
<g id="Node000021" class="node">
<title>Node21</title>
<g id="a_Node000021"><a xlink:href="StagingUtils_8hpp.html" target="_top" xlink:title=" ">
<polygon fill="white" stroke="#666666" points="1034.5,-470 892.5,-470 892.5,-440 1034.5,-440 1034.5,-470"/>
<text text-anchor="start" x="900.5" y="-458" font-family="Helvetica,sans-Serif" font-size="10.00">MayaFlux/Buffers/Staging</text>
<text text-anchor="middle" x="963.5" y="-447" font-family="Helvetica,sans-Serif" font-size="10.00">/StagingUtils.hpp</text>
</a>
</g>
</g>
<!-- Node1&#45;&gt;Node21 -->
<g id="edge25_Node000001_Node000021" class="edge">
<title>Node1&#45;&gt;Node21</title>
<g id="a_edge25_Node000001_Node000021"><a xlink:title=" ">
<path fill="none" stroke="#63b8ff" d="M798.56,-505.99C826.95,-497.39 871.6,-483.86 907.29,-473.04"/>
<polygon fill="#63b8ff" stroke="#63b8ff" points="908.55,-476.31 917.1,-470.06 906.51,-469.62 908.55,-476.31"/>
</a>
</g>
</g>
<!-- Node24 -->
<g id="Node000024" class="node">
<title>Node24</title>
<g id="a_Node000024"><a xlink:href="Archivist_8hpp.html" target="_top" xlink:title=" ">
<polygon fill="white" stroke="#666666" points="1334.5,-332.5 1166.5,-332.5 1166.5,-313.5 1334.5,-313.5 1334.5,-332.5"/>
<text text-anchor="middle" x="1250.5" y="-320.5" font-family="Helvetica,sans-Serif" font-size="10.00">MayaFlux/Journal/Archivist.hpp</text>
</a>
</g>
</g>
<!-- Node1&#45;&gt;Node24 -->
<g id="edge54_Node000001_Node000024" class="edge">
<title>Node1&#45;&gt;Node24</title>
<g id="a_edge54_Node000001_Node000024"><a xlink:title=" ">
<path fill="none" stroke="#63b8ff" d="M830.15,-513.9C887.33,-511.26 974.84,-501.73 1043.5,-470 1103.32,-442.35 1101.98,-411.02 1156.5,-374 1177.56,-359.7 1203.17,-346.31 1222.33,-337"/>
<polygon fill="#63b8ff" stroke="#63b8ff" points="1223.93,-340.11 1231.44,-332.64 1220.91,-333.8 1223.93,-340.11"/>
</a>
</g>
</g>
<!-- Node31 -->
<g id="Node000031" class="node">
<title>Node31</title>
<g id="a_Node000031"><a xlink:href="TextureBuffer_8hpp.html" target="_top" xlink:title=" ">
<polygon fill="white" stroke="#666666" points="786.5,-398.5 684.5,-398.5 684.5,-379.5 786.5,-379.5 786.5,-398.5"/>
<text text-anchor="middle" x="735.5" y="-386.5" font-family="Helvetica,sans-Serif" font-size="10.00">TextureBuffer.hpp</text>
</a>
</g>
</g>
<!-- Node1&#45;&gt;Node31 -->
<g id="edge37_Node000001_Node000031" class="edge">
<title>Node1&#45;&gt;Node31</title>
<g id="a_edge37_Node000001_Node000031"><a xlink:title=" ">
<path fill="none" stroke="#63b8ff" d="M764.24,-505.78C758.38,-497.13 749.88,-483.3 745.5,-470 738.88,-449.89 736.59,-425.61 735.83,-409.11"/>
<polygon fill="#63b8ff" stroke="#63b8ff" points="739.31,-408.53 735.5,-398.64 732.31,-408.75 739.31,-408.53"/>
</a>
</g>
</g>
<!-- Node33 -->
<g id="Node000033" class="node">
<title>Node33</title>
<g id="a_Node000033"><a xlink:href="TextureLoom_8hpp.html" target="_top" xlink:title=" ">
<polygon fill="white" stroke="#666666" points="420.5,-206 278.5,-206 278.5,-176 420.5,-176 420.5,-206"/>
<text text-anchor="start" x="286.5" y="-194" font-family="Helvetica,sans-Serif" font-size="10.00">MayaFlux/Portal/Graphics</text>
<text text-anchor="middle" x="349.5" y="-183" font-family="Helvetica,sans-Serif" font-size="10.00">/TextureLoom.hpp</text>
</a>
</g>
</g>
<!-- Node1&#45;&gt;Node33 -->
<g id="edge47_Node000001_Node000033" class="edge">
<title>Node1&#45;&gt;Node33</title>
<g id="a_edge47_Node000001_Node000033"><a xlink:title=" ">
<path fill="none" stroke="#63b8ff" d="M710.92,-514.17C560.35,-512.82 173.37,-505.86 128.5,-470 99.5,-446.82 104.5,-427.12 104.5,-390 104.5,-390 104.5,-390 104.5,-322 104.5,-279.4 221.53,-233.59 293.82,-209.35"/>
<polygon fill="#63b8ff" stroke="#63b8ff" points="295.31,-212.55 303.7,-206.08 293.11,-205.9 295.31,-212.55"/>
</a>
</g>
</g>
<!-- Node34 -->
<g id="Node000034" class="node">
<title>Node34</title>
<g id="a_Node000034"><a xlink:href="TextureAccess_8hpp.html" target="_top" xlink:title=" ">
<polygon fill="white" stroke="#666666" points="151,-140 0,-140 0,-110 151,-110 151,-140"/>
<text text-anchor="start" x="8" y="-128" font-family="Helvetica,sans-Serif" font-size="10.00">MayaFlux/Kakshya/NDData</text>
<text text-anchor="middle" x="75.5" y="-117" font-family="Helvetica,sans-Serif" font-size="10.00">/TextureAccess.hpp</text>
</a>
</g>
</g>
<!-- Node1&#45;&gt;Node34 -->
<g id="edge45_Node000001_Node000034" class="edge">
<title>Node1&#45;&gt;Node34</title>
<g id="a_edge45_Node000001_Node000034"><a xlink:title=" ">
<path fill="none" stroke="#63b8ff" d="M710.87,-513.96C556.59,-512.08 152.88,-503.93 103.5,-470 71.21,-447.81 66.5,-429.17 66.5,-390 66.5,-390 66.5,-390 66.5,-256 66.5,-218.98 70.18,-176.18 72.83,-150.1"/>
<polygon fill="#63b8ff" stroke="#63b8ff" points="76.33,-150.33 73.89,-140.02 69.36,-149.6 76.33,-150.33"/>
</a>
</g>
</g>
<!-- Node35 -->
<g id="Node000035" class="node">
<title>Node35</title>
<g id="a_Node000035"><a xlink:href="BackendRegistry_8hpp.html" target="_top" xlink:title=" ">
<polygon fill="white" stroke="#666666" points="1273.5,-470 1121.5,-470 1121.5,-440 1273.5,-440 1273.5,-470"/>
<text text-anchor="start" x="1129.5" y="-458" font-family="Helvetica,sans-Serif" font-size="10.00">MayaFlux/Registry/Backend</text>
<text text-anchor="middle" x="1197.5" y="-447" font-family="Helvetica,sans-Serif" font-size="10.00">Registry.hpp</text>
</a>
</g>
</g>
<!-- Node1&#45;&gt;Node35 -->
<g id="edge48_Node000001_Node000035" class="edge">
<title>Node1&#45;&gt;Node35</title>
<g id="a_edge48_Node000001_Node000035"><a xlink:title=" ">
<path fill="none" stroke="#63b8ff" d="M830.21,-507.04C897.62,-498.51 1010.53,-483.94 1107.5,-470 1108.78,-469.82 1110.06,-469.63 1111.36,-469.44"/>
<polygon fill="#63b8ff" stroke="#63b8ff" points="1112.03,-472.88 1121.41,-467.96 1111.01,-465.96 1112.03,-472.88"/>
</a>
</g>
</g>
<!-- Node37 -->
<g id="Node000037" class="node">
<title>Node37</title>
<g id="a_Node000037"><a xlink:href="BufferService_8hpp.html" target="_top" xlink:title=" ">
<polygon fill="white" stroke="#666666" points="1439,-470 1292,-470 1292,-440 1439,-440 1439,-470"/>
<text text-anchor="start" x="1300" y="-458" font-family="Helvetica,sans-Serif" font-size="10.00">MayaFlux/Registry/Service</text>
<text text-anchor="middle" x="1365.5" y="-447" font-family="Helvetica,sans-Serif" font-size="10.00">/BufferService.hpp</text>
</a>
</g>
</g>
<!-- Node1&#45;&gt;Node37 -->
<g id="edge50_Node000001_Node000037" class="edge">
<title>Node1&#45;&gt;Node37</title>
<g id="a_edge50_Node000001_Node000037"><a xlink:title=" ">
<path fill="none" stroke="#63b8ff" d="M830.18,-510.88C924,-504.83 1111.9,-491.35 1281.66,-470.03"/>
<polygon fill="#63b8ff" stroke="#63b8ff" points="1282.3,-473.48 1291.78,-468.75 1281.42,-466.54 1282.3,-473.48"/>
</a>
</g>
</g>
<!-- Node38 -->
<g id="Node000038" class="node">
<title>Node38</title>
<g id="a_Node000038"><a xlink:href="VKImage_8hpp.html" target="_top" xlink:title=" ">
<polygon fill="white" stroke="#666666" points="260.5,-206 94.5,-206 94.5,-176 260.5,-176 260.5,-206"/>
<text text-anchor="start" x="102.5" y="-194" font-family="Helvetica,sans-Serif" font-size="10.00">MayaFlux/Core/Backends</text>
<text text-anchor="middle" x="177.5" y="-183" font-family="Helvetica,sans-Serif" font-size="10.00">/Graphics/Vulkan/VKImage.hpp</text>
</a>
</g>
</g>
<!-- Node1&#45;&gt;Node38 -->
<g id="edge51_Node000001_Node000038" class="edge">
<title>Node1&#45;&gt;Node38</title>
<g id="a_edge51_Node000001_Node000038"><a xlink:title=" ">
<path fill="none" stroke="#63b8ff" d="M710.85,-515.21C554.09,-515.46 142.5,-505.18 142.5,-390 142.5,-390 142.5,-390 142.5,-322 142.5,-283.62 156.9,-240.99 167.23,-215.35"/>
<polygon fill="#63b8ff" stroke="#63b8ff" points="170.47,-216.67 171.08,-206.09 164.01,-213.98 170.47,-216.67"/>
</a>
</g>
</g>
<!-- Node3 -->
<g id="Node000003" class="node">
<title>Node3</title>
<g id="a_Node000003"><a xlink:href="VKBuffer_8hpp.html" target="_top" xlink:title=" ">
<polygon fill="white" stroke="#666666" points="830.5,-332.5 662.5,-332.5 662.5,-313.5 830.5,-313.5 830.5,-332.5"/>
<text text-anchor="middle" x="746.5" y="-320.5" font-family="Helvetica,sans-Serif" font-size="10.00">MayaFlux/Buffers/VKBuffer.hpp</text>
</a>
</g>
</g>
<!-- Node2&#45;&gt;Node3 -->
<g id="edge2_Node000002_Node000003" class="edge">
<title>Node2&#45;&gt;Node3</title>
<g id="a_edge2_Node000002_Node000003"><a xlink:title=" ">
<path fill="none" stroke="#63b8ff" d="M813.94,-445.04C812.64,-429.63 808.47,-397.5 795.5,-374 788.09,-360.57 776.07,-348.22 765.79,-339.16"/>
<polygon fill="#63b8ff" stroke="#63b8ff" points="767.94,-336.4 758.04,-332.64 763.44,-341.75 767.94,-336.4"/>
</a>
</g>
</g>
<!-- Node4 -->
<g id="Node000004" class="node">
<title>Node4</title>
<g id="a_Node000004"><a xlink:href="Buffer_8hpp.html" target="_top" xlink:title=" ">
<polygon fill="white" stroke="#666666" points="692.5,-266.5 626.5,-266.5 626.5,-247.5 692.5,-247.5 692.5,-266.5"/>
<text text-anchor="middle" x="659.5" y="-254.5" font-family="Helvetica,sans-Serif" font-size="10.00">Buffer.hpp</text>
</a>
</g>
</g>
<!-- Node3&#45;&gt;Node4 -->
<g id="edge3_Node000003_Node000004" class="edge">
<title>Node3&#45;&gt;Node4</title>
<g id="a_edge3_Node000003_Node000004"><a xlink:title=" ">
<path fill="none" stroke="#63b8ff" d="M734.77,-313.37C720.63,-302.97 696.64,-285.32 679.55,-272.75"/>
<polygon fill="#63b8ff" stroke="#63b8ff" points="681.45,-269.81 671.33,-266.7 677.31,-275.44 681.45,-269.81"/>
</a>
</g>
</g>
<!-- Node5 -->
<g id="Node000005" class="node">
<title>Node5</title>
<g id="a_Node000005"><a xlink:href="BufferProcessor_8hpp.html" target="_top" xlink:title=" ">
<polygon fill="white" stroke="#666666" points="988.5,-266.5 786.5,-266.5 786.5,-247.5 988.5,-247.5 988.5,-266.5"/>
<text text-anchor="middle" x="887.5" y="-254.5" font-family="Helvetica,sans-Serif" font-size="10.00">MayaFlux/Buffers/BufferProcessor.hpp</text>
</a>
</g>
</g>
<!-- Node3&#45;&gt;Node5 -->
<g id="edge4_Node000003_Node000005" class="edge">
<title>Node3&#45;&gt;Node5</title>
<g id="a_edge4_Node000003_Node000005"><a xlink:title=" ">
<path fill="none" stroke="#63b8ff" d="M765.52,-313.37C789.59,-302.44 831.27,-283.52 859.11,-270.88"/>
<polygon fill="#63b8ff" stroke="#63b8ff" points="860.68,-274.02 868.34,-266.7 857.78,-267.65 860.68,-274.02"/>
</a>
</g>
</g>
<!-- Node7 -->
<g id="Node000007" class="node">
<title>Node7</title>
<g id="a_Node000007"><a xlink:href="ProcessingTokens_8hpp.html" target="_top" xlink:title=" ">
<polygon fill="white" stroke="#666666" points="868.5,-140 722.5,-140 722.5,-110 868.5,-110 868.5,-140"/>
<text text-anchor="start" x="730.5" y="-128" font-family="Helvetica,sans-Serif" font-size="10.00">MayaFlux/Core/Processing</text>
<text text-anchor="middle" x="795.5" y="-117" font-family="Helvetica,sans-Serif" font-size="10.00">Tokens.hpp</text>
</a>
</g>
</g>
<!-- Node3&#45;&gt;Node7 -->
<g id="edge10_Node000003_Node000007" class="edge">
<title>Node3&#45;&gt;Node7</title>
<g id="a_edge10_Node000003_Node000007"><a xlink:title=" ">
<path fill="none" stroke="#63b8ff" d="M748.04,-313.36C752.17,-290.65 764.15,-227.49 778.5,-176 780.89,-167.43 783.91,-158.17 786.74,-149.98"/>
<polygon fill="#63b8ff" stroke="#63b8ff" points="790.12,-150.9 790.16,-140.31 783.53,-148.57 790.12,-150.9"/>
</a>
</g>
</g>
<!-- Node11 -->
<g id="Node000011" class="node">
<title>Node11</title>
<g id="a_Node000011"><a xlink:href="ShaderUtils_8hpp.html" target="_top" xlink:title=" ">
<polygon fill="white" stroke="#666666" points="580.5,-206 438.5,-206 438.5,-176 580.5,-176 580.5,-206"/>
<text text-anchor="start" x="446.5" y="-194" font-family="Helvetica,sans-Serif" font-size="10.00">MayaFlux/Portal/Graphics</text>
<text text-anchor="middle" x="509.5" y="-183" font-family="Helvetica,sans-Serif" font-size="10.00">/ShaderUtils.hpp</text>
</a>
</g>
</g>
<!-- Node3&#45;&gt;Node11 -->
<g id="edge11_Node000003_Node000011" class="edge">
<title>Node3&#45;&gt;Node11</title>
<g id="a_edge11_Node000003_Node000011"><a xlink:title=" ">
<path fill="none" stroke="#63b8ff" d="M744.09,-313.26C739.07,-296.71 725.86,-260.77 701.5,-242 669.95,-217.69 627.73,-205.14 590.92,-198.68"/>
<polygon fill="#63b8ff" stroke="#63b8ff" points="591.12,-195.17 580.69,-197.02 590,-202.08 591.12,-195.17"/>
</a>
</g>
</g>
<!-- Node6 -->
<g id="Node000006" class="node">
<title>Node6</title>
<g id="a_Node000006"><a xlink:href="BufferUtils_8hpp.html" target="_top" xlink:title=" ">
<polygon fill="white" stroke="#666666" points="876,-200.5 787,-200.5 787,-181.5 876,-181.5 876,-200.5"/>
<text text-anchor="middle" x="831.5" y="-188.5" font-family="Helvetica,sans-Serif" font-size="10.00">BufferUtils.hpp</text>
</a>
</g>
</g>
<!-- Node5&#45;&gt;Node6 -->
<g id="edge5_Node000005_Node000006" class="edge">
<title>Node5&#45;&gt;Node6</title>
<g id="a_edge5_Node000005_Node000006"><a xlink:title=" ">
<path fill="none" stroke="#63b8ff" d="M879.95,-247.37C871.31,-237.5 856.97,-221.11 846.13,-208.72"/>
<polygon fill="#63b8ff" stroke="#63b8ff" points="848.51,-206.13 839.29,-200.91 843.24,-210.74 848.51,-206.13"/>
</a>
</g>
</g>
<!-- Node6&#45;&gt;Node7 -->
<g id="edge6_Node000006_Node000007" class="edge">
<title>Node6&#45;&gt;Node7</title>
<g id="a_edge6_Node000006_Node000007"><a xlink:title=" ">
<path fill="none" stroke="#63b8ff" d="M826.64,-181.37C822.03,-173.16 814.87,-160.44 808.58,-149.26"/>
<polygon fill="#63b8ff" stroke="#63b8ff" points="811.53,-147.36 803.58,-140.36 805.43,-150.79 811.53,-147.36"/>
</a>
</g>
</g>
<!-- Node8 -->
<g id="Node000008" class="node">
<title>Node8</title>
<g id="a_Node000008"><a xlink:href="VertexLayout_8hpp.html" target="_top" xlink:title=" ">
<polygon fill="white" stroke="#666666" points="667,-140 516,-140 516,-110 667,-110 667,-140"/>
<text text-anchor="start" x="524" y="-128" font-family="Helvetica,sans-Serif" font-size="10.00">MayaFlux/Kakshya/NDData</text>
<text text-anchor="middle" x="591.5" y="-117" font-family="Helvetica,sans-Serif" font-size="10.00">/VertexLayout.hpp</text>
</a>
</g>
</g>
<!-- Node6&#45;&gt;Node8 -->
<g id="edge7_Node000006_Node000008" class="edge">
<title>Node6&#45;&gt;Node8</title>
<g id="a_edge7_Node000006_Node000008"><a xlink:title=" ">
<path fill="none" stroke="#63b8ff" d="M799.13,-181.37C762.1,-171.49 700.59,-155.09 654.11,-142.7"/>
<polygon fill="#63b8ff" stroke="#63b8ff" points="655,-139.31 644.43,-140.12 653.19,-146.07 655,-139.31"/>
</a>
</g>
</g>
<!-- Node9 -->
<g id="Node000009" class="node">
<title>Node9</title>
<g id="a_Node000009"><a xlink:href="NDData_8hpp.html" target="_top" xlink:title=" ">
<polygon fill="white" stroke="#666666" points="391.5,-74 315.5,-74 315.5,-55 391.5,-55 391.5,-74"/>
<text text-anchor="middle" x="353.5" y="-62" font-family="Helvetica,sans-Serif" font-size="10.00">NDData.hpp</text>
</a>
</g>
</g>
<!-- Node8&#45;&gt;Node9 -->
<g id="edge8_Node000008_Node000009" class="edge">
<title>Node8&#45;&gt;Node9</title>
<g id="a_edge8_Node000008_Node000009"><a xlink:title=" ">
<path fill="none" stroke="#63b8ff" d="M534.49,-109.99C492.71,-99.72 436.77,-85.97 398.2,-76.49"/>
<polygon fill="#63b8ff" stroke="#63b8ff" points="398.85,-73.04 388.3,-74.05 397.17,-79.84 398.85,-73.04"/>
</a>
</g>
</g>
<!-- Node10 -->
<g id="Node000010" class="node">
<title>Node10</title>
<g id="a_Node000010"><a xlink:title=" ">
<polygon fill="#e0e0e0" stroke="#999999" points="392.5,-19 314.5,-19 314.5,0 392.5,0 392.5,-19"/>
<text text-anchor="middle" x="353.5" y="-7" font-family="Helvetica,sans-Serif" font-size="10.00">glm/glm.hpp</text>
</a>
</g>
</g>
<!-- Node9&#45;&gt;Node10 -->
<g id="edge9_Node000009_Node000010" class="edge">
<title>Node9&#45;&gt;Node10</title>
<g id="a_edge9_Node000009_Node000010"><a xlink:title=" ">
<path fill="none" stroke="#63b8ff" d="M353.5,-54.75C353.5,-47.8 353.5,-37.85 353.5,-29.13"/>
<polygon fill="#63b8ff" stroke="#63b8ff" points="357,-29.09 353.5,-19.09 350,-29.09 357,-29.09"/>
</a>
</g>
</g>
<!-- Node11&#45;&gt;Node8 -->
<g id="edge14_Node000011_Node000008" class="edge">
<title>Node11&#45;&gt;Node8</title>
<g id="a_edge14_Node000011_Node000008"><a xlink:title=" ">
<path fill="none" stroke="#63b8ff" d="M527.7,-175.8C538.74,-167.18 553.01,-156.04 565.26,-146.48"/>
<polygon fill="#63b8ff" stroke="#63b8ff" points="567.62,-149.08 573.35,-140.16 563.32,-143.56 567.62,-149.08"/>
</a>
</g>
</g>
<!-- Node12 -->
<g id="Node000012" class="node">
<title>Node12</title>
<g id="a_Node000012"><a xlink:title=" ">
<polygon fill="#e0e0e0" stroke="#999999" points="325,-134.5 220,-134.5 220,-115.5 325,-115.5 325,-134.5"/>
<text text-anchor="middle" x="272.5" y="-122.5" font-family="Helvetica,sans-Serif" font-size="10.00">vulkan/vulkan.hpp</text>
</a>
</g>
</g>
<!-- Node11&#45;&gt;Node12 -->
<g id="edge12_Node000011_Node000012" class="edge">
<title>Node11&#45;&gt;Node12</title>
<g id="a_edge12_Node000011_Node000012"><a xlink:title=" ">
<path fill="none" stroke="#63b8ff" d="M457.49,-175.95C414.28,-164.29 353.63,-147.91 313.72,-137.13"/>
<polygon fill="#63b8ff" stroke="#63b8ff" points="314.61,-133.75 304.04,-134.52 312.78,-140.5 314.61,-133.75"/>
</a>
</g>
</g>
<!-- Node13 -->
<g id="Node000013" class="node">
<title>Node13</title>
<g id="a_Node000013"><a xlink:href="GraphicsUtils_8hpp.html" target="_top" xlink:title=" ">
<polygon fill="white" stroke="#666666" points="490,-134.5 387,-134.5 387,-115.5 490,-115.5 490,-134.5"/>
<text text-anchor="middle" x="438.5" y="-122.5" font-family="Helvetica,sans-Serif" font-size="10.00">GraphicsUtils.hpp</text>
</a>
</g>
</g>
<!-- Node11&#45;&gt;Node13 -->
<g id="edge13_Node000011_Node000013" class="edge">
<title>Node11&#45;&gt;Node13</title>
<g id="a_edge13_Node000011_Node000013"><a xlink:title=" ">
<path fill="none" stroke="#63b8ff" d="M493.74,-175.8C482.57,-165.72 467.56,-152.19 456.01,-141.78"/>
<polygon fill="#63b8ff" stroke="#63b8ff" points="458.08,-138.94 448.31,-134.84 453.4,-144.14 458.08,-138.94"/>
</a>
</g>
</g>
<!-- Node15 -->
<g id="Node000015" class="node">
<title>Node15</title>
<g id="a_Node000015"><a xlink:href="ViewTransform_8hpp.html" target="_top" xlink:title=" ">
<polygon fill="white" stroke="#666666" points="370.5,-398.5 170.5,-398.5 170.5,-379.5 370.5,-379.5 370.5,-398.5"/>
<text text-anchor="middle" x="270.5" y="-386.5" font-family="Helvetica,sans-Serif" font-size="10.00">MayaFlux/Kinesis/ViewTransform.hpp</text>
</a>
</g>
</g>
<!-- Node14&#45;&gt;Node15 -->
<g id="edge16_Node000014_Node000015" class="edge">
<title>Node14&#45;&gt;Node15</title>
<g id="a_edge16_Node000014_Node000015"><a xlink:title=" ">
<path fill="none" stroke="#63b8ff" d="M475.78,-439.95C427.53,-428.21 359.67,-411.7 315.4,-400.93"/>
<polygon fill="#63b8ff" stroke="#63b8ff" points="316.04,-397.48 305.5,-398.52 314.39,-404.28 316.04,-397.48"/>
</a>
</g>
</g>
<!-- Node17 -->
<g id="Node000017" class="node">
<title>Node17</title>
<g id="a_Node000017"><a xlink:href="RenderFlow_8hpp.html" target="_top" xlink:title=" ">
<polygon fill="white" stroke="#666666" points="530.5,-404 388.5,-404 388.5,-374 530.5,-374 530.5,-404"/>
<text text-anchor="start" x="396.5" y="-392" font-family="Helvetica,sans-Serif" font-size="10.00">MayaFlux/Portal/Graphics</text>
<text text-anchor="middle" x="459.5" y="-381" font-family="Helvetica,sans-Serif" font-size="10.00">/RenderFlow.hpp</text>
</a>
</g>
</g>
<!-- Node14&#45;&gt;Node17 -->
<g id="edge18_Node000014_Node000017" class="edge">
<title>Node14&#45;&gt;Node17</title>
<g id="a_edge18_Node000014_Node000017"><a xlink:title=" ">
<path fill="none" stroke="#63b8ff" d="M517.08,-439.8C507.21,-431.26 494.48,-420.25 483.5,-410.75"/>
<polygon fill="#63b8ff" stroke="#63b8ff" points="485.73,-408.06 475.88,-404.16 481.15,-413.35 485.73,-408.06"/>
</a>
</g>
</g>
<!-- Node19 -->
<g id="Node000019" class="node">
<title>Node19</title>
<g id="a_Node000019"><a xlink:href="ShaderProcessor_8hpp.html" target="_top" xlink:title=" ">
<polygon fill="white" stroke="#666666" points="666.5,-398.5 548.5,-398.5 548.5,-379.5 666.5,-379.5 666.5,-398.5"/>
<text text-anchor="middle" x="607.5" y="-386.5" font-family="Helvetica,sans-Serif" font-size="10.00">ShaderProcessor.hpp</text>
</a>
</g>
</g>
<!-- Node14&#45;&gt;Node19 -->
<g id="edge21_Node000014_Node000019" class="edge">
<title>Node14&#45;&gt;Node19</title>
<g id="a_edge21_Node000014_Node000019"><a xlink:title=" ">
<path fill="none" stroke="#63b8ff" d="M549.92,-439.8C561.69,-429.62 577.52,-415.93 589.6,-405.48"/>
<polygon fill="#63b8ff" stroke="#63b8ff" points="592,-408.03 597.27,-398.84 587.42,-402.74 592,-408.03"/>
</a>
</g>
</g>
<!-- Node16 -->
<g id="Node000016" class="node">
<title>Node16</title>
<g id="a_Node000016"><a xlink:title=" ">
<polygon fill="#e0e0e0" stroke="#999999" points="334,-332.5 171,-332.5 171,-313.5 334,-313.5 334,-332.5"/>
<text text-anchor="middle" x="252.5" y="-320.5" font-family="Helvetica,sans-Serif" font-size="10.00">glm/gtc/matrix_transform.hpp</text>
</a>
</g>
</g>
<!-- Node15&#45;&gt;Node16 -->
<g id="edge17_Node000015_Node000016" class="edge">
<title>Node15&#45;&gt;Node16</title>
<g id="a_edge17_Node000015_Node000016"><a xlink:title=" ">
<path fill="none" stroke="#63b8ff" d="M268.07,-379.37C265.46,-370.07 261.21,-354.98 257.82,-342.9"/>
<polygon fill="#63b8ff" stroke="#63b8ff" points="261.08,-341.58 255,-332.91 254.34,-343.48 261.08,-341.58"/>
</a>
</g>
</g>
<!-- Node18 -->
<g id="Node000018" class="node">
<title>Node18</title>
<g id="a_Node000018"><a xlink:href="ShaderFoundry_8hpp.html" target="_top" xlink:title=" ">
<polygon fill="white" stroke="#666666" points="408,-266.5 299,-266.5 299,-247.5 408,-247.5 408,-266.5"/>
<text text-anchor="middle" x="353.5" y="-254.5" font-family="Helvetica,sans-Serif" font-size="10.00">ShaderFoundry.hpp</text>
</a>
</g>
</g>
<!-- Node17&#45;&gt;Node18 -->
<g id="edge19_Node000017_Node000018" class="edge">
<title>Node17&#45;&gt;Node18</title>
<g id="a_edge19_Node000017_Node000018"><a xlink:title=" ">
<path fill="none" stroke="#63b8ff" d="M427.76,-373.9C411.95,-365.47 393.67,-353.4 381.5,-338 367.21,-319.91 359.92,-294 356.42,-276.61"/>
<polygon fill="#63b8ff" stroke="#63b8ff" points="359.83,-275.82 354.63,-266.59 352.94,-277.05 359.83,-275.82"/>
</a>
</g>
</g>
<!-- Node18&#45;&gt;Node11 -->
<g id="edge20_Node000018_Node000011" class="edge">
<title>Node18&#45;&gt;Node11</title>
<g id="a_edge20_Node000018_Node000011"><a xlink:title=" ">
<path fill="none" stroke="#63b8ff" d="M374.54,-247.37C397.8,-237.82 435.93,-222.18 465.74,-209.95"/>
<polygon fill="#63b8ff" stroke="#63b8ff" points="467.17,-213.15 475.09,-206.12 464.51,-206.67 467.17,-213.15"/>
</a>
</g>
</g>
<!-- Node19&#45;&gt;Node3 -->
<g id="edge22_Node000019_Node000003" class="edge">
<title>Node19&#45;&gt;Node3</title>
<g id="a_edge22_Node000019_Node000003"><a xlink:title=" ">
<path fill="none" stroke="#63b8ff" d="M626.25,-379.37C649.98,-368.44 691.07,-349.52 718.52,-336.88"/>
<polygon fill="#63b8ff" stroke="#63b8ff" points="719.99,-340.06 727.61,-332.7 717.06,-333.7 719.99,-340.06"/>
</a>
</g>
</g>
<!-- Node20 -->
<g id="Node000020" class="node">
<title>Node20</title>
<g id="a_Node000020"><a xlink:href="ComputePress_8hpp.html" target="_top" xlink:title=" ">
<polygon fill="white" stroke="#666666" points="532.5,-338 390.5,-338 390.5,-308 532.5,-308 532.5,-338"/>
<text text-anchor="start" x="398.5" y="-326" font-family="Helvetica,sans-Serif" font-size="10.00">MayaFlux/Portal/Graphics</text>
<text text-anchor="middle" x="461.5" y="-315" font-family="Helvetica,sans-Serif" font-size="10.00">/ComputePress.hpp</text>
</a>
</g>
</g>
<!-- Node19&#45;&gt;Node20 -->
<g id="edge23_Node000019_Node000020" class="edge">
<title>Node19&#45;&gt;Node20</title>
<g id="a_edge23_Node000019_Node000020"><a xlink:title=" ">
<path fill="none" stroke="#63b8ff" d="M587.81,-379.37C566.23,-369.91 530.97,-354.45 503.18,-342.27"/>
<polygon fill="#63b8ff" stroke="#63b8ff" points="504.27,-338.92 493.7,-338.12 501.45,-345.34 504.27,-338.92"/>
</a>
</g>
</g>
<!-- Node20&#45;&gt;Node18 -->
<g id="edge24_Node000020_Node000018" class="edge">
<title>Node20&#45;&gt;Node18</title>
<g id="a_edge24_Node000020_Node000018"><a xlink:title=" ">
<path fill="none" stroke="#63b8ff" d="M437.8,-307.95C419.61,-297.18 394.64,-282.38 376.6,-271.69"/>
<polygon fill="#63b8ff" stroke="#63b8ff" points="378.26,-268.6 367.87,-266.52 374.69,-274.63 378.26,-268.6"/>
</a>
</g>
</g>
<!-- Node21&#45;&gt;Node3 -->
<g id="edge26_Node000021_Node000003" class="edge">
<title>Node21&#45;&gt;Node3</title>
<g id="a_edge26_Node000021_Node000003"><a xlink:title=" ">
<path fill="none" stroke="#63b8ff" d="M939.86,-439.84C897.89,-414.7 810.87,-362.56 769.42,-337.73"/>
<polygon fill="#63b8ff" stroke="#63b8ff" points="771.21,-334.72 760.83,-332.59 767.61,-340.73 771.21,-334.72"/>
</a>
</g>
</g>
<!-- Node22 -->
<g id="Node000022" class="node">
<title>Node22</title>
<g id="a_Node000022"><a xlink:href="DataAccess_8hpp.html" target="_top" xlink:title=" ">
<polygon fill="white" stroke="#666666" points="1065,-404 914,-404 914,-374 1065,-374 1065,-404"/>
<text text-anchor="start" x="922" y="-392" font-family="Helvetica,sans-Serif" font-size="10.00">MayaFlux/Kakshya/NDData</text>
<text text-anchor="middle" x="989.5" y="-381" font-family="Helvetica,sans-Serif" font-size="10.00">/DataAccess.hpp</text>
</a>
</g>
</g>
<!-- Node21&#45;&gt;Node22 -->
<g id="edge27_Node000021_Node000022" class="edge">
<title>Node21&#45;&gt;Node22</title>
<g id="a_edge27_Node000021_Node000022"><a xlink:title=" ">
<path fill="none" stroke="#63b8ff" d="M969.27,-439.8C972.4,-432.09 976.35,-422.37 979.93,-413.56"/>
<polygon fill="#63b8ff" stroke="#63b8ff" points="983.22,-414.75 983.75,-404.16 976.74,-412.11 983.22,-414.75"/>
</a>
</g>
</g>
<!-- Node22&#45;&gt;Node9 -->
<g id="edge28_Node000022_Node000009" class="edge">
<title>Node22&#45;&gt;Node9</title>
<g id="a_edge28_Node000022_Node000009"><a xlink:title=" ">
<path fill="none" stroke="#63b8ff" d="M994.05,-373.71C1001.79,-346.86 1015.08,-287.46 997.5,-242 968.91,-168.05 948.58,-145.12 877.5,-110 794.65,-69.07 515.18,-65.05 401.85,-65.15"/>
<polygon fill="#63b8ff" stroke="#63b8ff" points="401.72,-61.65 391.73,-65.17 401.74,-68.65 401.72,-61.65"/>
</a>
</g>
</g>
<!-- Node23 -->
<g id="Node000023" class="node">
<title>Node23</title>
<g id="a_Node000023"><a xlink:title=" ">
<polygon fill="#e0e0e0" stroke="#999999" points="1148,-332.5 1031,-332.5 1031,-313.5 1148,-313.5 1148,-332.5"/>
<text text-anchor="middle" x="1089.5" y="-320.5" font-family="Helvetica,sans-Serif" font-size="10.00">glm/gtc/type_ptr.hpp</text>
</a>
</g>
</g>
<!-- Node22&#45;&gt;Node23 -->
<g id="edge29_Node000022_Node000023" class="edge">
<title>Node22&#45;&gt;Node23</title>
<g id="a_edge29_Node000022_Node000023"><a xlink:title=" ">
<path fill="none" stroke="#63b8ff" d="M1011.69,-373.8C1028.3,-363.17 1050.9,-348.7 1067.47,-338.1"/>
<polygon fill="#63b8ff" stroke="#63b8ff" points="1069.44,-341 1075.97,-332.66 1065.66,-335.1 1069.44,-341"/>
</a>
</g>
</g>
<!-- Node22&#45;&gt;Node24 -->
<g id="edge30_Node000022_Node000024" class="edge">
<title>Node22&#45;&gt;Node24</title>
<g id="a_edge30_Node000022_Node000024"><a xlink:title=" ">
<path fill="none" stroke="#63b8ff" d="M1046.78,-373.95C1094.67,-362.21 1162.01,-345.7 1205.94,-334.93"/>
<polygon fill="#63b8ff" stroke="#63b8ff" points="1206.89,-338.3 1215.77,-332.52 1205.22,-331.5 1206.89,-338.3"/>
</a>
</g>
</g>
<!-- Node25 -->
<g id="Node000025" class="node">
<title>Node25</title>
<g id="a_Node000025"><a xlink:href="Format_8hpp.html" target="_top" xlink:title=" ">
<polygon fill="white" stroke="#666666" points="1228.5,-266.5 1156.5,-266.5 1156.5,-247.5 1228.5,-247.5 1228.5,-266.5"/>
<text text-anchor="middle" x="1192.5" y="-254.5" font-family="Helvetica,sans-Serif" font-size="10.00">Format.hpp</text>
</a>
</g>
</g>
<!-- Node24&#45;&gt;Node25 -->
<g id="edge31_Node000024_Node000025" class="edge">
<title>Node24&#45;&gt;Node25</title>
<g id="a_edge31_Node000024_Node000025"><a xlink:title=" ">
<path fill="none" stroke="#63b8ff" d="M1242.68,-313.37C1233.65,-303.4 1218.59,-286.79 1207.33,-274.36"/>
<polygon fill="#63b8ff" stroke="#63b8ff" points="1209.88,-271.96 1200.57,-266.91 1204.69,-276.67 1209.88,-271.96"/>
</a>
</g>
</g>
<!-- Node26 -->
<g id="Node000026" class="node">
<title>Node26</title>
<g id="a_Node000026"><a xlink:href="JournalEntry_8hpp.html" target="_top" xlink:title=" ">
<polygon fill="white" stroke="#666666" points="1342,-266.5 1247,-266.5 1247,-247.5 1342,-247.5 1342,-266.5"/>
<text text-anchor="middle" x="1294.5" y="-254.5" font-family="Helvetica,sans-Serif" font-size="10.00">JournalEntry.hpp</text>
</a>
</g>
</g>
<!-- Node24&#45;&gt;Node26 -->
<g id="edge32_Node000024_Node000026" class="edge">
<title>Node24&#45;&gt;Node26</title>
<g id="a_edge32_Node000024_Node000026"><a xlink:title=" ">
<path fill="none" stroke="#63b8ff" d="M1256.43,-313.37C1263.09,-303.69 1274.06,-287.74 1282.51,-275.44"/>
<polygon fill="#63b8ff" stroke="#63b8ff" points="1285.6,-277.13 1288.38,-266.91 1279.83,-273.16 1285.6,-277.13"/>
</a>
</g>
</g>
<!-- Node27 -->
<g id="Node000027" class="node">
<title>Node27</title>
<g id="a_Node000027"><a xlink:href="EnumReflect_8hpp.html" target="_top" xlink:title=" ">
<polygon fill="white" stroke="#666666" points="1408,-206 1269,-206 1269,-176 1408,-176 1408,-206"/>
<text text-anchor="start" x="1277" y="-194" font-family="Helvetica,sans-Serif" font-size="10.00">MayaFlux/Transitive</text>
<text text-anchor="middle" x="1338.5" y="-183" font-family="Helvetica,sans-Serif" font-size="10.00">/Reflect/EnumReflect.hpp</text>
</a>
</g>
</g>
<!-- Node26&#45;&gt;Node27 -->
<g id="edge33_Node000026_Node000027" class="edge">
<title>Node26&#45;&gt;Node27</title>
<g id="a_edge33_Node000026_Node000027"><a xlink:title=" ">
<path fill="none" stroke="#63b8ff" d="M1300.43,-247.37C1306.13,-239.08 1315,-226.18 1322.74,-214.92"/>
<polygon fill="#63b8ff" stroke="#63b8ff" points="1325.85,-216.58 1328.63,-206.36 1320.08,-212.62 1325.85,-216.58"/>
</a>
</g>
</g>
<!-- Node28 -->
<g id="Node000028" class="node">
<title>Node28</title>
<g id="a_Node000028"><a xlink:title=" ">
<polygon fill="#e0e0e0" stroke="#999999" points="1476.5,-200.5 1426.5,-200.5 1426.5,-181.5 1476.5,-181.5 1476.5,-200.5"/>
<text text-anchor="middle" x="1451.5" y="-188.5" font-family="Helvetica,sans-Serif" font-size="10.00">chrono</text>
</a>
</g>
</g>
<!-- Node26&#45;&gt;Node28 -->
<g id="edge34_Node000026_Node000028" class="edge">
<title>Node26&#45;&gt;Node28</title>
<g id="a_edge34_Node000026_Node000028"><a xlink:title=" ">
<path fill="none" stroke="#63b8ff" d="M1315.84,-247.36C1340.38,-237.41 1381.87,-220.58 1417.5,-206 1418.7,-205.51 1419.92,-205.01 1421.15,-204.51"/>
<polygon fill="#63b8ff" stroke="#63b8ff" points="1422.73,-207.64 1430.65,-200.6 1420.07,-201.17 1422.73,-207.64"/>
</a>
</g>
</g>
<!-- Node29 -->
<g id="Node000029" class="node">
<title>Node29</title>
<g id="a_Node000029"><a xlink:title=" ">
<polygon fill="#e0e0e0" stroke="#999999" points="1160,-200.5 1067,-200.5 1067,-181.5 1160,-181.5 1160,-200.5"/>
<text text-anchor="middle" x="1113.5" y="-188.5" font-family="Helvetica,sans-Serif" font-size="10.00">source_location</text>
</a>
</g>
</g>
<!-- Node26&#45;&gt;Node29 -->
<g id="edge35_Node000026_Node000029" class="edge">
<title>Node26&#45;&gt;Node29</title>
<g id="a_edge35_Node000026_Node000029"><a xlink:title=" ">
<path fill="none" stroke="#63b8ff" d="M1270.09,-247.37C1238.42,-236.17 1183.03,-216.58 1147.32,-203.96"/>
<polygon fill="#63b8ff" stroke="#63b8ff" points="1148.41,-200.63 1137.81,-200.6 1146.07,-207.23 1148.41,-200.63"/>
</a>
</g>
</g>
<!-- Node30 -->
<g id="Node000030" class="node">
<title>Node30</title>
<g id="a_Node000030"><a xlink:title=" ">
<polygon fill="#e0e0e0" stroke="#999999" points="1251,-200.5 1178,-200.5 1178,-181.5 1251,-181.5 1251,-200.5"/>
<text text-anchor="middle" x="1214.5" y="-188.5" font-family="Helvetica,sans-Serif" font-size="10.00">string_view</text>
</a>
</g>
</g>
<!-- Node26&#45;&gt;Node30 -->
<g id="edge36_Node000026_Node000030" class="edge">
<title>Node26&#45;&gt;Node30</title>
<g id="a_edge36_Node000026_Node000030"><a xlink:title=" ">
<path fill="none" stroke="#63b8ff" d="M1283.71,-247.37C1270.83,-237.06 1249.06,-219.65 1233.37,-207.09"/>
<polygon fill="#63b8ff" stroke="#63b8ff" points="1235.37,-204.21 1225.37,-200.7 1231,-209.68 1235.37,-204.21"/>
</a>
</g>
</g>
<!-- Node31&#45;&gt;Node3 -->
<g id="edge38_Node000031_Node000003" class="edge">
<title>Node31&#45;&gt;Node3</title>
<g id="a_edge38_Node000031_Node000003"><a xlink:title=" ">
<path fill="none" stroke="#63b8ff" d="M736.98,-379.37C738.58,-370.07 741.18,-354.98 743.25,-342.9"/>
<polygon fill="#63b8ff" stroke="#63b8ff" points="746.72,-343.35 744.97,-332.91 739.83,-342.17 746.72,-343.35"/>
</a>
</g>
</g>
<!-- Node32 -->
<g id="Node000032" class="node">
<title>Node32</title>
<g id="a_Node000032"><a xlink:href="VertexSpec_8hpp.html" target="_top" xlink:title=" ">
<polygon fill="white" stroke="#666666" points="570.5,-272 426.5,-272 426.5,-242 570.5,-242 570.5,-272"/>
<text text-anchor="start" x="434.5" y="-260" font-family="Helvetica,sans-Serif" font-size="10.00">MayaFlux/Nodes/Graphics</text>
<text text-anchor="middle" x="498.5" y="-249" font-family="Helvetica,sans-Serif" font-size="10.00">/VertexSpec.hpp</text>
</a>
</g>
</g>
<!-- Node31&#45;&gt;Node32 -->
<g id="edge39_Node000031_Node000032" class="edge">
<title>Node31&#45;&gt;Node32</title>
<g id="a_edge39_Node000031_Node000032"><a xlink:title=" ">
<path fill="none" stroke="#63b8ff" d="M704.66,-379.48C666.79,-368.72 605.06,-350.17 584.5,-338 558.17,-322.42 533.17,-297.62 516.98,-279.77"/>
<polygon fill="#63b8ff" stroke="#63b8ff" points="519.44,-277.27 510.19,-272.11 514.2,-281.91 519.44,-277.27"/>
</a>
</g>
</g>
<!-- Node31&#45;&gt;Node33 -->
<g id="edge41_Node000031_Node000033" class="edge">
<title>Node31&#45;&gt;Node33</title>
<g id="a_edge41_Node000031_Node000033"><a xlink:title=" ">
<path fill="none" stroke="#63b8ff" d="M717.27,-379.36C699.75,-370.51 673.12,-355.58 653.5,-338 613.39,-302.04 625.03,-270.8 579.5,-242 566.7,-233.9 491.6,-218.42 430.64,-206.81"/>
<polygon fill="#63b8ff" stroke="#63b8ff" points="431.08,-203.34 420.6,-204.91 429.78,-210.21 431.08,-203.34"/>
</a>
</g>
</g>
<!-- Node32&#45;&gt;Node8 -->
<g id="edge40_Node000032_Node000008" class="edge">
<title>Node32&#45;&gt;Node8</title>
<g id="a_edge40_Node000032_Node000008"><a xlink:title=" ">
<path fill="none" stroke="#63b8ff" d="M544.43,-241.86C561.6,-234.13 579.38,-222.63 589.5,-206 599.57,-189.45 599.26,-167.19 596.9,-150.35"/>
<polygon fill="#63b8ff" stroke="#63b8ff" points="600.29,-149.44 595.13,-140.19 593.39,-150.64 600.29,-149.44"/>
</a>
</g>
</g>
<!-- Node33&#45;&gt;Node9 -->
<g id="edge44_Node000033_Node000009" class="edge">
<title>Node33&#45;&gt;Node9</title>
<g id="a_edge44_Node000033_Node000009"><a xlink:title=" ">
<path fill="none" stroke="#63b8ff" d="M349.96,-175.72C350.68,-153.12 352.1,-109.12 352.9,-84.09"/>
<polygon fill="#63b8ff" stroke="#63b8ff" points="356.4,-84.18 353.22,-74.07 349.41,-83.95 356.4,-84.18"/>
</a>
</g>
</g>
<!-- Node33&#45;&gt;Node12 -->
<g id="edge42_Node000033_Node000012" class="edge">
<title>Node33&#45;&gt;Node12</title>
<g id="a_edge42_Node000033_Node000012"><a xlink:title=" ">
<path fill="none" stroke="#63b8ff" d="M332.41,-175.8C320.17,-165.62 303.7,-151.93 291.12,-141.48"/>
<polygon fill="#63b8ff" stroke="#63b8ff" points="293.07,-138.54 283.14,-134.84 288.59,-143.93 293.07,-138.54"/>
</a>
</g>
</g>
<!-- Node33&#45;&gt;Node13 -->
<g id="edge43_Node000033_Node000013" class="edge">
<title>Node33&#45;&gt;Node13</title>
<g id="a_edge43_Node000033_Node000013"><a xlink:title=" ">
<path fill="none" stroke="#63b8ff" d="M369.25,-175.8C383.76,-165.37 403.4,-151.24 418.06,-140.69"/>
<polygon fill="#63b8ff" stroke="#63b8ff" points="420.38,-143.34 426.46,-134.66 416.3,-137.66 420.38,-143.34"/>
</a>
</g>
</g>
<!-- Node34&#45;&gt;Node9 -->
<g id="edge46_Node000034_Node000009" class="edge">
<title>Node34&#45;&gt;Node9</title>
<g id="a_edge46_Node000034_Node000009"><a xlink:title=" ">
<path fill="none" stroke="#63b8ff" d="M142.09,-109.99C192.41,-99.4 260.31,-85.11 305.43,-75.61"/>
<polygon fill="#63b8ff" stroke="#63b8ff" points="306.2,-79.03 315.26,-73.55 304.75,-72.18 306.2,-79.03"/>
</a>
</g>
</g>
<!-- Node36 -->
<g id="Node000036" class="node">
<title>Node36</title>
<g id="a_Node000036"><a xlink:title=" ">
<polygon fill="#e0e0e0" stroke="#999999" points="1230,-398.5 1165,-398.5 1165,-379.5 1230,-379.5 1230,-398.5"/>
<text text-anchor="middle" x="1197.5" y="-386.5" font-family="Helvetica,sans-Serif" font-size="10.00">typeindex</text>
</a>
</g>
</g>
<!-- Node35&#45;&gt;Node36 -->
<g id="edge49_Node000035_Node000036" class="edge">
<title>Node35&#45;&gt;Node36</title>
<g id="a_edge49_Node000035_Node000036"><a xlink:title=" ">
<path fill="none" stroke="#63b8ff" d="M1197.5,-439.8C1197.5,-430.7 1197.5,-418.79 1197.5,-408.9"/>
<polygon fill="#63b8ff" stroke="#63b8ff" points="1201,-408.84 1197.5,-398.84 1194,-408.84 1201,-408.84"/>
</a>
</g>
</g>
<!-- Node38&#45;&gt;Node9 -->
<g id="edge52_Node000038_Node000009" class="edge">
<title>Node38&#45;&gt;Node9</title>
<g id="a_edge52_Node000038_Node000009"><a xlink:title=" ">
<path fill="none" stroke="#63b8ff" d="M179.61,-175.76C182.99,-157.91 191.32,-127.54 210.5,-110 236.45,-86.28 274.88,-75.2 305.37,-70.03"/>
<polygon fill="#63b8ff" stroke="#63b8ff" points="306.02,-73.47 315.37,-68.49 304.96,-66.55 306.02,-73.47"/>
</a>
</g>
</g>
<!-- Node38&#45;&gt;Node12 -->
<g id="edge53_Node000038_Node000012" class="edge">
<title>Node38&#45;&gt;Node12</title>
<g id="a_edge53_Node000038_Node000012"><a xlink:title=" ">
<path fill="none" stroke="#63b8ff" d="M198.58,-175.8C214.21,-165.27 235.43,-150.97 251.13,-140.4"/>
<polygon fill="#63b8ff" stroke="#63b8ff" points="253.31,-143.15 259.65,-134.66 249.4,-137.34 253.31,-143.15"/>
</a>
</g>
</g>
</g>
</svg>
