<?xml version="1.0" encoding="UTF-8" standalone="no"?>
<!DOCTYPE svg PUBLIC "-//W3C//DTD SVG 1.1//EN"
 "http://www.w3.org/Graphics/SVG/1.1/DTD/svg11.dtd">
<!-- Generated by graphviz version 2.43.0 (0)
 -->
<!-- Title: TokenUnitManager.cpp Pages: 1 -->
<svg width="932pt" height="511pt"
 viewBox="0.00 0.00 932.00 511.00" xmlns="http://www.w3.org/2000/svg" xmlns:xlink="http://www.w3.org/1999/xlink">
<g id="graph0" class="graph" transform="scale(1 1) rotate(0) translate(4 507)">
<title>TokenUnitManager.cpp</title>
<!-- Node1 -->
<g id="Node000001" class="node">
<title>Node1</title>
<g id="a_Node000001"><a xlink:title=" ">
<polygon fill="#999999" stroke="#666666" points="611.5,-503 484.5,-503 484.5,-484 611.5,-484 611.5,-503"/>
<text text-anchor="middle" x="548" y="-491" font-family="Helvetica,sans-Serif" font-size="10.00">TokenUnitManager.cpp</text>
</a>
</g>
</g>
<!-- Node2 -->
<g id="Node000002" class="node">
<title>Node2</title>
<g id="a_Node000002"><a xlink:href="TokenUnitManager_8hpp.html" target="_top" xlink:title=" ">
<polygon fill="white" stroke="#666666" points="436,-442.5 308,-442.5 308,-423.5 436,-423.5 436,-442.5"/>
<text text-anchor="middle" x="372" y="-430.5" font-family="Helvetica,sans-Serif" font-size="10.00">TokenUnitManager.hpp</text>
</a>
</g>
</g>
<!-- Node1&#45;&gt;Node2 -->
<g id="edge1_Node000001_Node000002" class="edge">
<title>Node1&#45;&gt;Node2</title>
<g id="a_edge1_Node000001_Node000002"><a xlink:title=" ">
<path fill="none" stroke="#63b8ff" d="M522.41,-483.99C492.04,-473.9 441.24,-457.01 407.18,-445.69"/>
<polygon fill="#63b8ff" stroke="#63b8ff" points="408.22,-442.35 397.62,-442.52 406.01,-448.99 408.22,-442.35"/>
</a>
</g>
</g>
<!-- Node10 -->
<g id="Node000010" class="node">
<title>Node10</title>
<g id="a_Node000010"><a xlink:href="Archivist_8hpp.html" target="_top" xlink:title=" ">
<polygon fill="white" stroke="#666666" points="785,-255.5 617,-255.5 617,-236.5 785,-236.5 785,-255.5"/>
<text text-anchor="middle" x="701" y="-243.5" font-family="Helvetica,sans-Serif" font-size="10.00">MayaFlux/Journal/Archivist.hpp</text>
</a>
</g>
</g>
<!-- Node1&#45;&gt;Node10 -->
<g id="edge34_Node000001_Node000010" class="edge">
<title>Node1&#45;&gt;Node10</title>
<g id="a_edge34_Node000001_Node000010"><a xlink:title=" ">
<path fill="none" stroke="#63b8ff" d="M588.51,-483.93C609.68,-477.45 634.37,-466.41 650,-448 695.61,-394.28 701.29,-305.19 701.43,-266.23"/>
<polygon fill="#63b8ff" stroke="#63b8ff" points="704.93,-265.81 701.34,-255.85 697.93,-265.88 704.93,-265.81"/>
</a>
</g>
</g>
<!-- Node25 -->
<g id="Node000025" class="node">
<title>Node25</title>
<g id="a_Node000025"><a xlink:href="BufferProcessingChain_8hpp.html" target="_top" xlink:title=" ">
<polygon fill="white" stroke="#666666" points="641.5,-448 454.5,-448 454.5,-418 641.5,-418 641.5,-448"/>
<text text-anchor="start" x="462.5" y="-436" font-family="Helvetica,sans-Serif" font-size="10.00">MayaFlux/Buffers/BufferProcessing</text>
<text text-anchor="middle" x="548" y="-425" font-family="Helvetica,sans-Serif" font-size="10.00">Chain.hpp</text>
</a>
</g>
</g>
<!-- Node1&#45;&gt;Node25 -->
<g id="edge32_Node000001_Node000025" class="edge">
<title>Node1&#45;&gt;Node25</title>
<g id="a_edge32_Node000001_Node000025"><a xlink:title=" ">
<path fill="none" stroke="#63b8ff" d="M548,-483.87C548,-477.11 548,-467.35 548,-458.26"/>
<polygon fill="#63b8ff" stroke="#63b8ff" points="551.5,-458.11 548,-448.11 544.5,-458.11 551.5,-458.11"/>
</a>
</g>
</g>
<!-- Node3 -->
<g id="Node000003" class="node">
<title>Node3</title>
<g id="a_Node000003"><a xlink:href="RootAudioBuffer_8hpp.html" target="_top" xlink:title=" ">
<polygon fill="white" stroke="#666666" points="346,-382 218,-382 218,-352 346,-352 346,-382"/>
<text text-anchor="start" x="226" y="-370" font-family="Helvetica,sans-Serif" font-size="10.00">MayaFlux/Buffers/Root</text>
<text text-anchor="middle" x="282" y="-359" font-family="Helvetica,sans-Serif" font-size="10.00">/RootAudioBuffer.hpp</text>
</a>
</g>
</g>
<!-- Node2&#45;&gt;Node3 -->
<g id="edge2_Node000002_Node000003" class="edge">
<title>Node2&#45;&gt;Node3</title>
<g id="a_edge2_Node000002_Node000003"><a xlink:title=" ">
<path fill="none" stroke="#63b8ff" d="M359.86,-423.37C347.2,-414.36 326.89,-399.92 310.19,-388.05"/>
<polygon fill="#63b8ff" stroke="#63b8ff" points="312.03,-385.06 301.85,-382.12 307.97,-390.76 312.03,-385.06"/>
</a>
</g>
</g>
<!-- Node20 -->
<g id="Node000020" class="node">
<title>Node20</title>
<g id="a_Node000020"><a xlink:href="RootGraphicsBuffer_8hpp.html" target="_top" xlink:title=" ">
<polygon fill="white" stroke="#666666" points="498,-382 364,-382 364,-352 498,-352 498,-382"/>
<text text-anchor="start" x="372" y="-370" font-family="Helvetica,sans-Serif" font-size="10.00">MayaFlux/Buffers/Root</text>
<text text-anchor="middle" x="431" y="-359" font-family="Helvetica,sans-Serif" font-size="10.00">/RootGraphicsBuffer.hpp</text>
</a>
</g>
</g>
<!-- Node2&#45;&gt;Node20 -->
<g id="edge21_Node000002_Node000020" class="edge">
<title>Node2&#45;&gt;Node20</title>
<g id="a_edge21_Node000002_Node000020"><a xlink:title=" ">
<path fill="none" stroke="#63b8ff" d="M379.96,-423.37C387.83,-414.83 400.2,-401.41 410.79,-389.92"/>
<polygon fill="#63b8ff" stroke="#63b8ff" points="413.56,-392.09 417.76,-382.36 408.41,-387.34 413.56,-392.09"/>
</a>
</g>
</g>
<!-- Node4 -->
<g id="Node000004" class="node">
<title>Node4</title>
<g id="a_Node000004"><a xlink:href="RootBuffer_8hpp.html" target="_top" xlink:title=" ">
<polygon fill="white" stroke="#666666" points="643.5,-316 554.5,-316 554.5,-297 643.5,-297 643.5,-316"/>
<text text-anchor="middle" x="599" y="-304" font-family="Helvetica,sans-Serif" font-size="10.00">RootBuffer.hpp</text>
</a>
</g>
</g>
<!-- Node3&#45;&gt;Node4 -->
<g id="edge3_Node000003_Node000004" class="edge">
<title>Node3&#45;&gt;Node4</title>
<g id="a_edge3_Node000003_Node000004"><a xlink:title=" ">
<path fill="none" stroke="#63b8ff" d="M346.09,-353.68C349.1,-353.11 352.08,-352.55 355,-352 420.14,-339.81 495.14,-326.2 544.6,-317.27"/>
<polygon fill="#63b8ff" stroke="#63b8ff" points="545.23,-320.72 554.45,-315.5 543.99,-313.83 545.23,-320.72"/>
</a>
</g>
</g>
<!-- Node17 -->
<g id="Node000017" class="node">
<title>Node17</title>
<g id="a_Node000017"><a xlink:href="AudioBuffer_8hpp.html" target="_top" xlink:title=" ">
<polygon fill="white" stroke="#666666" points="182,-316 0,-316 0,-297 182,-297 182,-316"/>
<text text-anchor="middle" x="91" y="-304" font-family="Helvetica,sans-Serif" font-size="10.00">MayaFlux/Buffers/AudioBuffer.hpp</text>
</a>
</g>
</g>
<!-- Node3&#45;&gt;Node17 -->
<g id="edge16_Node000003_Node000017" class="edge">
<title>Node3&#45;&gt;Node17</title>
<g id="a_edge16_Node000003_Node000017"><a xlink:title=" ">
<path fill="none" stroke="#63b8ff" d="M236.25,-351.99C203.43,-341.94 159.73,-328.55 128.87,-319.1"/>
<polygon fill="#63b8ff" stroke="#63b8ff" points="129.51,-315.64 118.93,-316.05 127.46,-322.33 129.51,-315.64"/>
</a>
</g>
</g>
<!-- Node19 -->
<g id="Node000019" class="node">
<title>Node19</title>
<g id="a_Node000019"><a xlink:href="BufferProcessor_8hpp.html" target="_top" xlink:title=" ">
<polygon fill="white" stroke="#666666" points="561,-255.5 359,-255.5 359,-236.5 561,-236.5 561,-255.5"/>
<text text-anchor="middle" x="460" y="-243.5" font-family="Helvetica,sans-Serif" font-size="10.00">MayaFlux/Buffers/BufferProcessor.hpp</text>
</a>
</g>
</g>
<!-- Node3&#45;&gt;Node19 -->
<g id="edge19_Node000003_Node000019" class="edge">
<title>Node3&#45;&gt;Node19</title>
<g id="a_edge19_Node000003_Node000019"><a xlink:title=" ">
<path fill="none" stroke="#63b8ff" d="M312.88,-351.79C331.93,-342.53 356.54,-329.67 377,-316 401.41,-299.69 427.04,-277.5 443.24,-262.73"/>
<polygon fill="#63b8ff" stroke="#63b8ff" points="445.82,-265.11 450.8,-255.76 441.08,-259.97 445.82,-265.11"/>
</a>
</g>
</g>
<!-- Node5 -->
<g id="Node000005" class="node">
<title>Node5</title>
<g id="a_Node000005"><a xlink:href="BufferUtils_8hpp.html" target="_top" xlink:title=" ">
<polygon fill="white" stroke="#666666" points="576,-195 398,-195 398,-176 576,-176 576,-195"/>
<text text-anchor="middle" x="487" y="-183" font-family="Helvetica,sans-Serif" font-size="10.00">MayaFlux/Buffers/BufferUtils.hpp</text>
</a>
</g>
</g>
<!-- Node4&#45;&gt;Node5 -->
<g id="edge4_Node000004_Node000005" class="edge">
<title>Node4&#45;&gt;Node5</title>
<g id="a_edge4_Node000004_Node000005"><a xlink:title=" ">
<path fill="none" stroke="#63b8ff" d="M597.61,-296.66C594.83,-281.55 587.3,-250.53 570,-231 557.31,-216.68 538.88,-206.15 522.6,-198.94"/>
<polygon fill="#63b8ff" stroke="#63b8ff" points="523.91,-195.69 513.33,-195.08 521.22,-202.15 523.91,-195.69"/>
</a>
</g>
</g>
<!-- Node4&#45;&gt;Node10 -->
<g id="edge9_Node000004_Node000010" class="edge">
<title>Node4&#45;&gt;Node10</title>
<g id="a_edge9_Node000004_Node000010"><a xlink:title=" ">
<path fill="none" stroke="#63b8ff" d="M614.05,-296.87C630.62,-287.36 657.5,-271.95 676.99,-260.77"/>
<polygon fill="#63b8ff" stroke="#63b8ff" points="678.95,-263.68 685.89,-255.67 675.47,-257.61 678.95,-263.68"/>
</a>
</g>
</g>
<!-- Node6 -->
<g id="Node000006" class="node">
<title>Node6</title>
<g id="a_Node000006"><a xlink:href="ProcessingTokens_8hpp.html" target="_top" xlink:title=" ">
<polygon fill="white" stroke="#666666" points="160,-140 14,-140 14,-110 160,-110 160,-140"/>
<text text-anchor="start" x="22" y="-128" font-family="Helvetica,sans-Serif" font-size="10.00">MayaFlux/Core/Processing</text>
<text text-anchor="middle" x="87" y="-117" font-family="Helvetica,sans-Serif" font-size="10.00">Tokens.hpp</text>
</a>
</g>
</g>
<!-- Node5&#45;&gt;Node6 -->
<g id="edge5_Node000005_Node000006" class="edge">
<title>Node5&#45;&gt;Node6</title>
<g id="a_edge5_Node000005_Node000006"><a xlink:title=" ">
<path fill="none" stroke="#63b8ff" d="M428.84,-175.99C360.82,-166.05 247.71,-149.5 170.37,-138.19"/>
<polygon fill="#63b8ff" stroke="#63b8ff" points="170.58,-134.69 160.18,-136.7 169.57,-141.61 170.58,-134.69"/>
</a>
</g>
</g>
<!-- Node7 -->
<g id="Node000007" class="node">
<title>Node7</title>
<g id="a_Node000007"><a xlink:href="VertexLayout_8hpp.html" target="_top" xlink:title=" ">
<polygon fill="white" stroke="#666666" points="462.5,-140 311.5,-140 311.5,-110 462.5,-110 462.5,-140"/>
<text text-anchor="start" x="319.5" y="-128" font-family="Helvetica,sans-Serif" font-size="10.00">MayaFlux/Kakshya/NDData</text>
<text text-anchor="middle" x="387" y="-117" font-family="Helvetica,sans-Serif" font-size="10.00">/VertexLayout.hpp</text>
</a>
</g>
</g>
<!-- Node5&#45;&gt;Node7 -->
<g id="edge6_Node000005_Node000007" class="edge">
<title>Node5&#45;&gt;Node7</title>
<g id="a_edge6_Node000005_Node000007"><a xlink:title=" ">
<path fill="none" stroke="#63b8ff" d="M472.24,-175.87C458.55,-167.86 437.68,-155.65 420.02,-145.31"/>
<polygon fill="#63b8ff" stroke="#63b8ff" points="421.53,-142.14 411.13,-140.11 417.99,-148.19 421.53,-142.14"/>
</a>
</g>
</g>
<!-- Node8 -->
<g id="Node000008" class="node">
<title>Node8</title>
<g id="a_Node000008"><a xlink:href="NDData_8hpp.html" target="_top" xlink:title=" ">
<polygon fill="white" stroke="#666666" points="425,-74 349,-74 349,-55 425,-55 425,-74"/>
<text text-anchor="middle" x="387" y="-62" font-family="Helvetica,sans-Serif" font-size="10.00">NDData.hpp</text>
</a>
</g>
</g>
<!-- Node7&#45;&gt;Node8 -->
<g id="edge7_Node000007_Node000008" class="edge">
<title>Node7&#45;&gt;Node8</title>
<g id="a_edge7_Node000007_Node000008"><a xlink:title=" ">
<path fill="none" stroke="#63b8ff" d="M387,-109.84C387,-102.21 387,-92.7 387,-84.45"/>
<polygon fill="#63b8ff" stroke="#63b8ff" points="390.5,-84.27 387,-74.27 383.5,-84.27 390.5,-84.27"/>
</a>
</g>
</g>
<!-- Node9 -->
<g id="Node000009" class="node">
<title>Node9</title>
<g id="a_Node000009"><a xlink:title=" ">
<polygon fill="#e0e0e0" stroke="#999999" points="426,-19 348,-19 348,0 426,0 426,-19"/>
<text text-anchor="middle" x="387" y="-7" font-family="Helvetica,sans-Serif" font-size="10.00">glm/glm.hpp</text>
</a>
</g>
</g>
<!-- Node8&#45;&gt;Node9 -->
<g id="edge8_Node000008_Node000009" class="edge">
<title>Node8&#45;&gt;Node9</title>
<g id="a_edge8_Node000008_Node000009"><a xlink:title=" ">
<path fill="none" stroke="#63b8ff" d="M387,-54.75C387,-47.8 387,-37.85 387,-29.13"/>
<polygon fill="#63b8ff" stroke="#63b8ff" points="390.5,-29.09 387,-19.09 383.5,-29.09 390.5,-29.09"/>
</a>
</g>
</g>
<!-- Node11 -->
<g id="Node000011" class="node">
<title>Node11</title>
<g id="a_Node000011"><a xlink:href="Format_8hpp.html" target="_top" xlink:title=" ">
<polygon fill="white" stroke="#666666" points="693,-195 621,-195 621,-176 693,-176 693,-195"/>
<text text-anchor="middle" x="657" y="-183" font-family="Helvetica,sans-Serif" font-size="10.00">Format.hpp</text>
</a>
</g>
</g>
<!-- Node10&#45;&gt;Node11 -->
<g id="edge10_Node000010_Node000011" class="edge">
<title>Node10&#45;&gt;Node11</title>
<g id="a_edge10_Node000010_Node000011"><a xlink:title=" ">
<path fill="none" stroke="#63b8ff" d="M694.51,-236.37C688.01,-227.73 677.84,-214.2 669.72,-203.42"/>
<polygon fill="#63b8ff" stroke="#63b8ff" points="672.33,-201.06 663.52,-195.17 666.73,-205.26 672.33,-201.06"/>
</a>
</g>
</g>
<!-- Node12 -->
<g id="Node000012" class="node">
<title>Node12</title>
<g id="a_Node000012"><a xlink:href="JournalEntry_8hpp.html" target="_top" xlink:title=" ">
<polygon fill="white" stroke="#666666" points="806.5,-195 711.5,-195 711.5,-176 806.5,-176 806.5,-195"/>
<text text-anchor="middle" x="759" y="-183" font-family="Helvetica,sans-Serif" font-size="10.00">JournalEntry.hpp</text>
</a>
</g>
</g>
<!-- Node10&#45;&gt;Node12 -->
<g id="edge11_Node000010_Node000012" class="edge">
<title>Node10&#45;&gt;Node12</title>
<g id="a_edge11_Node000010_Node000012"><a xlink:title=" ">
<path fill="none" stroke="#63b8ff" d="M709.56,-236.37C718.38,-227.47 732.34,-213.39 743.18,-202.45"/>
<polygon fill="#63b8ff" stroke="#63b8ff" points="745.85,-204.73 750.41,-195.17 740.88,-199.8 745.85,-204.73"/>
</a>
</g>
</g>
<!-- Node13 -->
<g id="Node000013" class="node">
<title>Node13</title>
<g id="a_Node000013"><a xlink:href="EnumReflect_8hpp.html" target="_top" xlink:title=" ">
<polygon fill="white" stroke="#666666" points="855.5,-140 716.5,-140 716.5,-110 855.5,-110 855.5,-140"/>
<text text-anchor="start" x="724.5" y="-128" font-family="Helvetica,sans-Serif" font-size="10.00">MayaFlux/Transitive</text>
<text text-anchor="middle" x="786" y="-117" font-family="Helvetica,sans-Serif" font-size="10.00">/Reflect/EnumReflect.hpp</text>
</a>
</g>
</g>
<!-- Node12&#45;&gt;Node13 -->
<g id="edge12_Node000012_Node000013" class="edge">
<title>Node12&#45;&gt;Node13</title>
<g id="a_edge12_Node000012_Node000013"><a xlink:title=" ">
<path fill="none" stroke="#63b8ff" d="M762.98,-175.87C766.21,-168.89 770.9,-158.71 775.21,-149.38"/>
<polygon fill="#63b8ff" stroke="#63b8ff" points="778.47,-150.66 779.49,-140.11 772.12,-147.73 778.47,-150.66"/>
</a>
</g>
</g>
<!-- Node14 -->
<g id="Node000014" class="node">
<title>Node14</title>
<g id="a_Node000014"><a xlink:title=" ">
<polygon fill="#e0e0e0" stroke="#999999" points="924,-134.5 874,-134.5 874,-115.5 924,-115.5 924,-134.5"/>
<text text-anchor="middle" x="899" y="-122.5" font-family="Helvetica,sans-Serif" font-size="10.00">chrono</text>
</a>
</g>
</g>
<!-- Node12&#45;&gt;Node14 -->
<g id="edge13_Node000012_Node000014" class="edge">
<title>Node12&#45;&gt;Node14</title>
<g id="a_edge13_Node000012_Node000014"><a xlink:title=" ">
<path fill="none" stroke="#63b8ff" d="M779.36,-175.99C803,-166.12 842.2,-149.73 869.25,-138.43"/>
<polygon fill="#63b8ff" stroke="#63b8ff" points="870.74,-141.6 878.62,-134.52 868.04,-135.14 870.74,-141.6"/>
</a>
</g>
</g>
<!-- Node15 -->
<g id="Node000015" class="node">
<title>Node15</title>
<g id="a_Node000015"><a xlink:title=" ">
<polygon fill="#e0e0e0" stroke="#999999" points="607.5,-134.5 514.5,-134.5 514.5,-115.5 607.5,-115.5 607.5,-134.5"/>
<text text-anchor="middle" x="561" y="-122.5" font-family="Helvetica,sans-Serif" font-size="10.00">source_location</text>
</a>
</g>
</g>
<!-- Node12&#45;&gt;Node15 -->
<g id="edge14_Node000012_Node000015" class="edge">
<title>Node12&#45;&gt;Node15</title>
<g id="a_edge14_Node000012_Node000015"><a xlink:title=" ">
<path fill="none" stroke="#63b8ff" d="M730.21,-175.99C695.75,-165.81 637.91,-148.72 599.6,-137.4"/>
<polygon fill="#63b8ff" stroke="#63b8ff" points="600.41,-133.99 589.83,-134.52 598.42,-140.71 600.41,-133.99"/>
</a>
</g>
</g>
<!-- Node16 -->
<g id="Node000016" class="node">
<title>Node16</title>
<g id="a_Node000016"><a xlink:title=" ">
<polygon fill="#e0e0e0" stroke="#999999" points="698.5,-134.5 625.5,-134.5 625.5,-115.5 698.5,-115.5 698.5,-134.5"/>
<text text-anchor="middle" x="662" y="-122.5" font-family="Helvetica,sans-Serif" font-size="10.00">string_view</text>
</a>
</g>
</g>
<!-- Node12&#45;&gt;Node16 -->
<g id="edge15_Node000012_Node000016" class="edge">
<title>Node12&#45;&gt;Node16</title>
<g id="a_edge15_Node000012_Node000016"><a xlink:title=" ">
<path fill="none" stroke="#63b8ff" d="M744.69,-175.87C729,-166.41 703.6,-151.09 685.09,-139.92"/>
<polygon fill="#63b8ff" stroke="#63b8ff" points="686.74,-136.83 676.37,-134.67 683.13,-142.83 686.74,-136.83"/>
</a>
</g>
</g>
<!-- Node17&#45;&gt;Node6 -->
<g id="edge18_Node000017_Node000006" class="edge">
<title>Node17&#45;&gt;Node6</title>
<g id="a_edge18_Node000017_Node000006"><a xlink:title=" ">
<path fill="none" stroke="#63b8ff" d="M90.81,-296.84C90.22,-270.54 88.45,-190.9 87.54,-150.33"/>
<polygon fill="#63b8ff" stroke="#63b8ff" points="91.04,-150.14 87.32,-140.22 84.04,-150.3 91.04,-150.14"/>
</a>
</g>
</g>
<!-- Node18 -->
<g id="Node000018" class="node">
<title>Node18</title>
<g id="a_Node000018"><a xlink:href="Buffer_8hpp.html" target="_top" xlink:title=" ">
<polygon fill="white" stroke="#666666" points="181,-255.5 115,-255.5 115,-236.5 181,-236.5 181,-255.5"/>
<text text-anchor="middle" x="148" y="-243.5" font-family="Helvetica,sans-Serif" font-size="10.00">Buffer.hpp</text>
</a>
</g>
</g>
<!-- Node17&#45;&gt;Node18 -->
<g id="edge17_Node000017_Node000018" class="edge">
<title>Node17&#45;&gt;Node18</title>
<g id="a_edge17_Node000017_Node000018"><a xlink:title=" ">
<path fill="none" stroke="#63b8ff" d="M99.41,-296.87C108.08,-287.97 121.8,-273.89 132.46,-262.95"/>
<polygon fill="#63b8ff" stroke="#63b8ff" points="135.08,-265.27 139.55,-255.67 130.07,-260.39 135.08,-265.27"/>
</a>
</g>
</g>
<!-- Node19&#45;&gt;Node5 -->
<g id="edge20_Node000019_Node000005" class="edge">
<title>Node19&#45;&gt;Node5</title>
<g id="a_edge20_Node000019_Node000005"><a xlink:title=" ">
<path fill="none" stroke="#63b8ff" d="M463.98,-236.37C467.85,-227.99 473.84,-215.01 478.74,-204.39"/>
<polygon fill="#63b8ff" stroke="#63b8ff" points="481.99,-205.71 483,-195.17 475.63,-202.78 481.99,-205.71"/>
</a>
</g>
</g>
<!-- Node20&#45;&gt;Node4 -->
<g id="edge31_Node000020_Node000004" class="edge">
<title>Node20&#45;&gt;Node4</title>
<g id="a_edge31_Node000020_Node000004"><a xlink:title=" ">
<path fill="none" stroke="#63b8ff" d="M471.24,-351.99C499.77,-342.05 537.65,-328.86 564.73,-319.43"/>
<polygon fill="#63b8ff" stroke="#63b8ff" points="565.9,-322.73 574.19,-316.14 563.6,-316.12 565.9,-322.73"/>
</a>
</g>
</g>
<!-- Node20&#45;&gt;Node19 -->
<g id="edge22_Node000020_Node000019" class="edge">
<title>Node20&#45;&gt;Node19</title>
<g id="a_edge22_Node000020_Node000019"><a xlink:title=" ">
<path fill="none" stroke="#63b8ff" d="M434.44,-351.88C439.67,-330.41 449.64,-289.52 455.46,-265.64"/>
<polygon fill="#63b8ff" stroke="#63b8ff" points="458.91,-266.26 457.88,-255.71 452.11,-264.6 458.91,-266.26"/>
</a>
</g>
</g>
<!-- Node21 -->
<g id="Node000021" class="node">
<title>Node21</title>
<g id="a_Node000021"><a xlink:href="VKBuffer_8hpp.html" target="_top" xlink:title=" ">
<polygon fill="white" stroke="#666666" points="368,-316 200,-316 200,-297 368,-297 368,-316"/>
<text text-anchor="middle" x="284" y="-304" font-family="Helvetica,sans-Serif" font-size="10.00">MayaFlux/Buffers/VKBuffer.hpp</text>
</a>
</g>
</g>
<!-- Node20&#45;&gt;Node21 -->
<g id="edge23_Node000020_Node000021" class="edge">
<title>Node20&#45;&gt;Node21</title>
<g id="a_edge23_Node000020_Node000021"><a xlink:title=" ">
<path fill="none" stroke="#63b8ff" d="M395.79,-351.99C371.26,-342.23 338.85,-329.33 315.24,-319.93"/>
<polygon fill="#63b8ff" stroke="#63b8ff" points="316.29,-316.58 305.71,-316.14 313.71,-323.09 316.29,-316.58"/>
</a>
</g>
</g>
<!-- Node21&#45;&gt;Node6 -->
<g id="edge26_Node000021_Node000006" class="edge">
<title>Node21&#45;&gt;Node6</title>
<g id="a_edge26_Node000021_Node000006"><a xlink:title=" ">
<path fill="none" stroke="#63b8ff" d="M219.01,-296.96C174.62,-289.75 121.18,-277.87 106,-261 78.78,-230.76 79.55,-180.27 82.99,-150.35"/>
<polygon fill="#63b8ff" stroke="#63b8ff" points="86.47,-150.71 84.33,-140.33 79.54,-149.78 86.47,-150.71"/>
</a>
</g>
</g>
<!-- Node21&#45;&gt;Node18 -->
<g id="edge24_Node000021_Node000018" class="edge">
<title>Node21&#45;&gt;Node18</title>
<g id="a_edge24_Node000021_Node000018"><a xlink:title=" ">
<path fill="none" stroke="#63b8ff" d="M264.22,-296.99C241.36,-287.16 203.51,-270.88 177.24,-259.58"/>
<polygon fill="#63b8ff" stroke="#63b8ff" points="178.37,-256.25 167.8,-255.52 175.6,-262.68 178.37,-256.25"/>
</a>
</g>
</g>
<!-- Node21&#45;&gt;Node19 -->
<g id="edge25_Node000021_Node000019" class="edge">
<title>Node21&#45;&gt;Node19</title>
<g id="a_edge25_Node000021_Node000019"><a xlink:title=" ">
<path fill="none" stroke="#63b8ff" d="M309.59,-296.99C339.96,-286.9 390.76,-270.01 424.82,-258.69"/>
<polygon fill="#63b8ff" stroke="#63b8ff" points="425.99,-261.99 434.38,-255.52 423.78,-255.35 425.99,-261.99"/>
</a>
</g>
</g>
<!-- Node22 -->
<g id="Node000022" class="node">
<title>Node22</title>
<g id="a_Node000022"><a xlink:href="ShaderUtils_8hpp.html" target="_top" xlink:title=" ">
<polygon fill="white" stroke="#666666" points="341,-261 199,-261 199,-231 341,-231 341,-261"/>
<text text-anchor="start" x="207" y="-249" font-family="Helvetica,sans-Serif" font-size="10.00">MayaFlux/Portal/Graphics</text>
<text text-anchor="middle" x="270" y="-238" font-family="Helvetica,sans-Serif" font-size="10.00">/ShaderUtils.hpp</text>
</a>
</g>
</g>
<!-- Node21&#45;&gt;Node22 -->
<g id="edge27_Node000021_Node000022" class="edge">
<title>Node21&#45;&gt;Node22</title>
<g id="a_edge27_Node000021_Node000022"><a xlink:title=" ">
<path fill="none" stroke="#63b8ff" d="M281.93,-296.87C280.3,-290.03 277.93,-280.14 275.74,-270.97"/>
<polygon fill="#63b8ff" stroke="#63b8ff" points="279.11,-270.03 273.38,-261.11 272.3,-271.65 279.11,-270.03"/>
</a>
</g>
</g>
<!-- Node22&#45;&gt;Node7 -->
<g id="edge30_Node000022_Node000007" class="edge">
<title>Node22&#45;&gt;Node7</title>
<g id="a_edge30_Node000022_Node000007"><a xlink:title=" ">
<path fill="none" stroke="#63b8ff" d="M300.42,-230.86C316.61,-222.22 336.01,-209.95 350,-195 362.26,-181.9 371.71,-163.97 377.99,-149.67"/>
<polygon fill="#63b8ff" stroke="#63b8ff" points="381.4,-150.6 382,-140.02 374.93,-147.91 381.4,-150.6"/>
</a>
</g>
</g>
<!-- Node23 -->
<g id="Node000023" class="node">
<title>Node23</title>
<g id="a_Node000023"><a xlink:title=" ">
<polygon fill="#e0e0e0" stroke="#999999" points="220.5,-195 115.5,-195 115.5,-176 220.5,-176 220.5,-195"/>
<text text-anchor="middle" x="168" y="-183" font-family="Helvetica,sans-Serif" font-size="10.00">vulkan/vulkan.hpp</text>
</a>
</g>
</g>
<!-- Node22&#45;&gt;Node23 -->
<g id="edge28_Node000022_Node000023" class="edge">
<title>Node22&#45;&gt;Node23</title>
<g id="a_edge28_Node000022_Node000023"><a xlink:title=" ">
<path fill="none" stroke="#63b8ff" d="M245.57,-230.99C229.31,-221.66 208.05,-209.47 191.9,-200.21"/>
<polygon fill="#63b8ff" stroke="#63b8ff" points="193.48,-197.08 183.06,-195.14 190,-203.15 193.48,-197.08"/>
</a>
</g>
</g>
<!-- Node24 -->
<g id="Node000024" class="node">
<title>Node24</title>
<g id="a_Node000024"><a xlink:href="GraphicsUtils_8hpp.html" target="_top" xlink:title=" ">
<polygon fill="white" stroke="#666666" points="341.5,-195 238.5,-195 238.5,-176 341.5,-176 341.5,-195"/>
<text text-anchor="middle" x="290" y="-183" font-family="Helvetica,sans-Serif" font-size="10.00">GraphicsUtils.hpp</text>
</a>
</g>
</g>
<!-- Node22&#45;&gt;Node24 -->
<g id="edge29_Node000022_Node000024" class="edge">
<title>Node22&#45;&gt;Node24</title>
<g id="a_edge29_Node000022_Node000024"><a xlink:title=" ">
<path fill="none" stroke="#63b8ff" d="M274.84,-230.84C277.51,-223.04 280.85,-213.27 283.71,-204.89"/>
<polygon fill="#63b8ff" stroke="#63b8ff" points="287.08,-205.86 287,-195.27 280.46,-203.6 287.08,-205.86"/>
</a>
</g>
</g>
<!-- Node25&#45;&gt;Node19 -->
<g id="edge33_Node000025_Node000019" class="edge">
<title>Node25&#45;&gt;Node19</title>
<g id="a_edge33_Node000025_Node000019"><a xlink:title=" ">
<path fill="none" stroke="#63b8ff" d="M541.24,-417.79C525.42,-384.52 485.99,-301.63 468.54,-264.95"/>
<polygon fill="#63b8ff" stroke="#63b8ff" points="471.51,-263.06 464.06,-255.53 465.19,-266.06 471.51,-263.06"/>
</a>
</g>
</g>
</g>
</svg>
