<?xml version="1.0" encoding="UTF-8" standalone="no"?>
<!DOCTYPE svg PUBLIC "-//W3C//DTD SVG 1.1//EN"
 "http://www.w3.org/Graphics/SVG/1.1/DTD/svg11.dtd">
<!-- Generated by graphviz version 2.43.0 (0)
 -->
<!-- Title: TopologyOperator.cpp Pages: 1 -->
<!--zoomable 456 -->

<svg id="main" version="1.1" xmlns="http://www.w3.org/2000/svg" xmlns:xlink="http://www.w3.org/1999/xlink" xml:space="preserve" onload="init(evt)">
<style type="text/css"><![CDATA[
.node, .edge {opacity: 0.7;}
.node.selected, .edge.selected {opacity: 1;}
.edge:hover path { stroke: red; }
.edge:hover polygon { stroke: red; fill: red; }
]]></style>

<defs>
  <circle id="rim" cx="0" cy="0" r="7"/>
  <circle id="rim2" cx="0" cy="0" r="3.5"/>
  <g id="zoomPlus">
    <use xlink:href="#rim" fill="#404040"><set attributeName="fill" to="#808080" begin="zoomplus.mouseover" end="zoomplus.mouseout"/></use>
    <path d="M-4,0h8M0,-4v8" fill="none" stroke="white" stroke-width="1.5" pointer-events="none"/>
  </g>
  <g id="zoomMin">
    <use xlink:href="#rim" fill="#404040"><set attributeName="fill" to="#808080" begin="zoomminus.mouseover" end="zoomminus.mouseout"/></use>
    <path d="M-4,0h8" fill="none" stroke="white" stroke-width="1.5" pointer-events="none"/>
  </g>
  <g id="arrowUp" transform="translate(30 24)">
    <use xlink:href="#rim"/>
    <path pointer-events="none" fill="none" stroke="white" stroke-width="1.5" d="M0,-3.0v7 M-2.5,-0.5L0,-3.0L2.5,-0.5"/>
  </g>
  <g id="arrowRight" transform="rotate(90) translate(36 -43)">
    <use xlink:href="#rim"/>
    <path pointer-events="none" fill="none" stroke="white" stroke-width="1.5" d="M0,-3.0v7 M-2.5,-0.5L0,-3.0L2.5,-0.5"/>
  </g>
  <g id="arrowDown" transform="rotate(180) translate(-30 -48)">
    <use xlink:href="#rim"/>
    <path pointer-events="none" fill="none" stroke="white" stroke-width="1.5" d="M0,-3.0v7 M-2.5,-0.5L0,-3.0L2.5,-0.5"/>
  </g>
  <g id="arrowLeft" transform="rotate(270) translate(-36 17)">
    <use xlink:href="#rim"/>
    <path pointer-events="none" fill="none" stroke="white" stroke-width="1.5" d="M0,-3.0v7 M-2.5,-0.5L0,-3.0L2.5,-0.5"/>
  </g>
  <g id="resetDef">
    <use xlink:href="#rim2" fill="#404040"><set attributeName="fill" to="#808080" begin="reset.mouseover" end="reset.mouseout"/></use>
  </g>
</defs>
<script type="application/ecmascript">
var viewWidth = 1278;
var viewHeight = 456;
var sectionId = 'dynsection-0';
</script>
<script type="application/ecmascript" xlink:href="svg.min.js"/>
<svg id="graph" class="graph">
<g id="viewport">
<title>TopologyOperator.cpp</title>
<!-- Node1 -->
<g id="Node000001" class="node">
<title>Node1</title>
<g id="a_Node000001"><a xlink:title=" ">
<polygon fill="#999999" stroke="#666666" points="670.5,-448 548.5,-448 548.5,-429 670.5,-429 670.5,-448"/>
<text text-anchor="middle" x="609.5" y="-436" font-family="Helvetica,sans-Serif" font-size="10.00">TopologyOperator.cpp</text>
</a>
</g>
</g>
<!-- Node2 -->
<g id="Node000002" class="node">
<title>Node2</title>
<g id="a_Node000002"><a xlink:href="TopologyOperator_8hpp.html" target="_top" xlink:title=" ">
<polygon fill="white" stroke="#666666" points="589,-393 466,-393 466,-374 589,-374 589,-393"/>
<text text-anchor="middle" x="527.5" y="-381" font-family="Helvetica,sans-Serif" font-size="10.00">TopologyOperator.hpp</text>
</a>
</g>
</g>
<!-- Node1&#45;&gt;Node2 -->
<g id="edge1_Node000001_Node000002" class="edge">
<title>Node1&#45;&gt;Node2</title>
<g id="a_edge1_Node000001_Node000002"><a xlink:title=" ">
<path fill="none" stroke="#63b8ff" d="M596.33,-428.98C583.73,-420.84 564.5,-408.41 549.56,-398.76"/>
<polygon fill="#63b8ff" stroke="#63b8ff" points="551.21,-395.66 540.91,-393.17 547.41,-401.54 551.21,-395.66"/>
</a>
</g>
</g>
<!-- Node21 -->
<g id="Node000021" class="node">
<title>Node21</title>
<g id="a_Node000021"><a xlink:href="Archivist_8hpp.html" target="_top" xlink:title=" ">
<polygon fill="white" stroke="#666666" points="917.5,-393 749.5,-393 749.5,-374 917.5,-374 917.5,-393"/>
<text text-anchor="middle" x="833.5" y="-381" font-family="Helvetica,sans-Serif" font-size="10.00">MayaFlux/Journal/Archivist.hpp</text>
</a>
</g>
</g>
<!-- Node1&#45;&gt;Node21 -->
<g id="edge23_Node000001_Node000021" class="edge">
<title>Node1&#45;&gt;Node21</title>
<g id="a_edge23_Node000001_Node000021"><a xlink:title=" ">
<path fill="none" stroke="#63b8ff" d="M645.49,-428.98C683.99,-419.87 745.19,-405.4 787.24,-395.45"/>
<polygon fill="#63b8ff" stroke="#63b8ff" points="788.3,-398.79 797.23,-393.08 786.69,-391.98 788.3,-398.79"/>
</a>
</g>
</g>
<!-- Node3 -->
<g id="Node000003" class="node">
<title>Node3</title>
<g id="a_Node000003"><a xlink:href="GraphicsOperator_8hpp.html" target="_top" xlink:title=" ">
<polygon fill="white" stroke="#666666" points="210.5,-332.5 88.5,-332.5 88.5,-313.5 210.5,-313.5 210.5,-332.5"/>
<text text-anchor="middle" x="149.5" y="-320.5" font-family="Helvetica,sans-Serif" font-size="10.00">GraphicsOperator.hpp</text>
</a>
</g>
</g>
<!-- Node2&#45;&gt;Node3 -->
<g id="edge2_Node000002_Node000003" class="edge">
<title>Node2&#45;&gt;Node3</title>
<g id="a_edge2_Node000002_Node000003"><a xlink:title=" ">
<path fill="none" stroke="#63b8ff" d="M472.54,-373.99C404.09,-363.4 287.32,-345.33 214.5,-334.06"/>
<polygon fill="#63b8ff" stroke="#63b8ff" points="214.95,-330.59 204.53,-332.52 213.88,-337.5 214.95,-330.59"/>
</a>
</g>
</g>
<!-- Node8 -->
<g id="Node000008" class="node">
<title>Node8</title>
<g id="a_Node000008"><a xlink:href="TopologyGeneratorNode_8hpp.html" target="_top" xlink:title=" ">
<polygon fill="white" stroke="#666666" points="606.5,-338 448.5,-338 448.5,-308 606.5,-308 606.5,-338"/>
<text text-anchor="start" x="456.5" y="-326" font-family="Helvetica,sans-Serif" font-size="10.00">MayaFlux/Nodes/Graphics</text>
<text text-anchor="middle" x="527.5" y="-315" font-family="Helvetica,sans-Serif" font-size="10.00">/TopologyGeneratorNode.hpp</text>
</a>
</g>
</g>
<!-- Node2&#45;&gt;Node8 -->
<g id="edge7_Node000002_Node000008" class="edge">
<title>Node2&#45;&gt;Node8</title>
<g id="a_edge7_Node000002_Node000008"><a xlink:title=" ">
<path fill="none" stroke="#63b8ff" d="M527.5,-373.87C527.5,-367.11 527.5,-357.35 527.5,-348.26"/>
<polygon fill="#63b8ff" stroke="#63b8ff" points="531,-348.11 527.5,-338.11 524,-348.11 531,-348.11"/>
</a>
</g>
</g>
<!-- Node4 -->
<g id="Node000004" class="node">
<title>Node4</title>
<g id="a_Node000004"><a xlink:href="VertexLayout_8hpp.html" target="_top" xlink:title=" ">
<polygon fill="white" stroke="#666666" points="246,-140 95,-140 95,-110 246,-110 246,-140"/>
<text text-anchor="start" x="103" y="-128" font-family="Helvetica,sans-Serif" font-size="10.00">MayaFlux/Kakshya/NDData</text>
<text text-anchor="middle" x="170.5" y="-117" font-family="Helvetica,sans-Serif" font-size="10.00">/VertexLayout.hpp</text>
</a>
</g>
</g>
<!-- Node3&#45;&gt;Node4 -->
<g id="edge3_Node000003_Node000004" class="edge">
<title>Node3&#45;&gt;Node4</title>
<g id="a_edge3_Node000003_Node000004"><a xlink:title=" ">
<path fill="none" stroke="#63b8ff" d="M150.43,-313.33C153.47,-284.91 163.22,-193.97 167.92,-150.11"/>
<polygon fill="#63b8ff" stroke="#63b8ff" points="171.41,-150.35 169,-140.04 164.45,-149.61 171.41,-150.35"/>
</a>
</g>
</g>
<!-- Node7 -->
<g id="Node000007" class="node">
<title>Node7</title>
<g id="a_Node000007"><a xlink:href="NetworkOperator_8hpp.html" target="_top" xlink:title=" ">
<polygon fill="white" stroke="#666666" points="121,-266.5 0,-266.5 0,-247.5 121,-247.5 121,-266.5"/>
<text text-anchor="middle" x="60.5" y="-254.5" font-family="Helvetica,sans-Serif" font-size="10.00">NetworkOperator.hpp</text>
</a>
</g>
</g>
<!-- Node3&#45;&gt;Node7 -->
<g id="edge6_Node000003_Node000007" class="edge">
<title>Node3&#45;&gt;Node7</title>
<g id="a_edge6_Node000003_Node000007"><a xlink:title=" ">
<path fill="none" stroke="#63b8ff" d="M137.5,-313.37C123.03,-302.97 98.49,-285.32 81.01,-272.75"/>
<polygon fill="#63b8ff" stroke="#63b8ff" points="82.76,-269.7 72.6,-266.7 78.67,-275.38 82.76,-269.7"/>
</a>
</g>
</g>
<!-- Node5 -->
<g id="Node000005" class="node">
<title>Node5</title>
<g id="a_Node000005"><a xlink:href="NDData_8hpp.html" target="_top" xlink:title=" ">
<polygon fill="white" stroke="#666666" points="260.5,-74 184.5,-74 184.5,-55 260.5,-55 260.5,-74"/>
<text text-anchor="middle" x="222.5" y="-62" font-family="Helvetica,sans-Serif" font-size="10.00">NDData.hpp</text>
</a>
</g>
</g>
<!-- Node4&#45;&gt;Node5 -->
<g id="edge4_Node000004_Node000005" class="edge">
<title>Node4&#45;&gt;Node5</title>
<g id="a_edge4_Node000004_Node000005"><a xlink:title=" ">
<path fill="none" stroke="#63b8ff" d="M183.09,-109.84C190.56,-101.43 200.06,-90.74 207.87,-81.96"/>
<polygon fill="#63b8ff" stroke="#63b8ff" points="210.68,-84.07 214.71,-74.27 205.45,-79.41 210.68,-84.07"/>
</a>
</g>
</g>
<!-- Node6 -->
<g id="Node000006" class="node">
<title>Node6</title>
<g id="a_Node000006"><a xlink:title=" ">
<polygon fill="#e0e0e0" stroke="#999999" points="261.5,-19 183.5,-19 183.5,0 261.5,0 261.5,-19"/>
<text text-anchor="middle" x="222.5" y="-7" font-family="Helvetica,sans-Serif" font-size="10.00">glm/glm.hpp</text>
</a>
</g>
</g>
<!-- Node5&#45;&gt;Node6 -->
<g id="edge5_Node000005_Node000006" class="edge">
<title>Node5&#45;&gt;Node6</title>
<g id="a_edge5_Node000005_Node000006"><a xlink:title=" ">
<path fill="none" stroke="#63b8ff" d="M222.5,-54.75C222.5,-47.8 222.5,-37.85 222.5,-29.13"/>
<polygon fill="#63b8ff" stroke="#63b8ff" points="226,-29.09 222.5,-19.09 219,-29.09 226,-29.09"/>
</a>
</g>
</g>
<!-- Node9 -->
<g id="Node000009" class="node">
<title>Node9</title>
<g id="a_Node000009"><a xlink:href="GeometryWriterNode_8hpp.html" target="_top" xlink:title=" ">
<polygon fill="white" stroke="#666666" points="841.5,-266.5 699.5,-266.5 699.5,-247.5 841.5,-247.5 841.5,-266.5"/>
<text text-anchor="middle" x="770.5" y="-254.5" font-family="Helvetica,sans-Serif" font-size="10.00">GeometryWriterNode.hpp</text>
</a>
</g>
</g>
<!-- Node8&#45;&gt;Node9 -->
<g id="edge8_Node000008_Node000009" class="edge">
<title>Node8&#45;&gt;Node9</title>
<g id="a_edge8_Node000008_Node000009"><a xlink:title=" ">
<path fill="none" stroke="#63b8ff" d="M580.83,-307.95C625.13,-296.29 687.32,-279.91 728.24,-269.13"/>
<polygon fill="#63b8ff" stroke="#63b8ff" points="729.38,-272.45 738.16,-266.52 727.6,-265.68 729.38,-272.45"/>
</a>
</g>
</g>
<!-- Node17 -->
<g id="Node000017" class="node">
<title>Node17</title>
<g id="a_Node000017"><a xlink:href="RingBuffer_8hpp.html" target="_top" xlink:title=" ">
<polygon fill="white" stroke="#666666" points="523.5,-272 389.5,-272 389.5,-242 523.5,-242 523.5,-272"/>
<text text-anchor="start" x="397.5" y="-260" font-family="Helvetica,sans-Serif" font-size="10.00">MayaFlux/Transitive</text>
<text text-anchor="middle" x="456.5" y="-249" font-family="Helvetica,sans-Serif" font-size="10.00">/Memory/RingBuffer.hpp</text>
</a>
</g>
</g>
<!-- Node8&#45;&gt;Node17 -->
<g id="edge17_Node000008_Node000017" class="edge">
<title>Node8&#45;&gt;Node17</title>
<g id="a_edge17_Node000008_Node000017"><a xlink:title=" ">
<path fill="none" stroke="#63b8ff" d="M511.74,-307.8C502.37,-299.34 490.3,-288.46 479.83,-279.03"/>
<polygon fill="#63b8ff" stroke="#63b8ff" points="481.98,-276.26 472.21,-272.16 477.3,-281.46 481.98,-276.26"/>
</a>
</g>
</g>
<!-- Node18 -->
<g id="Node000018" class="node">
<title>Node18</title>
<g id="a_Node000018"><a xlink:href="MotionCurves_8hpp.html" target="_top" xlink:title=" ">
<polygon fill="white" stroke="#666666" points="371.5,-266.5 177.5,-266.5 177.5,-247.5 371.5,-247.5 371.5,-266.5"/>
<text text-anchor="middle" x="274.5" y="-254.5" font-family="Helvetica,sans-Serif" font-size="10.00">MayaFlux/Kinesis/MotionCurves.hpp</text>
</a>
</g>
</g>
<!-- Node8&#45;&gt;Node18 -->
<g id="edge18_Node000008_Node000018" class="edge">
<title>Node8&#45;&gt;Node18</title>
<g id="a_edge18_Node000008_Node000018"><a xlink:title=" ">
<path fill="none" stroke="#63b8ff" d="M471.98,-307.95C425.65,-296.24 360.55,-279.77 317.96,-268.99"/>
<polygon fill="#63b8ff" stroke="#63b8ff" points="318.72,-265.58 308.17,-266.52 317.01,-272.36 318.72,-265.58"/>
</a>
</g>
</g>
<!-- Node20 -->
<g id="Node000020" class="node">
<title>Node20</title>
<g id="a_Node000020"><a xlink:href="ProximityGraphs_8hpp.html" target="_top" xlink:title=" ">
<polygon fill="white" stroke="#666666" points="681.5,-272 541.5,-272 541.5,-242 681.5,-242 681.5,-272"/>
<text text-anchor="start" x="549.5" y="-260" font-family="Helvetica,sans-Serif" font-size="10.00">MayaFlux/Kinesis/Spatial</text>
<text text-anchor="middle" x="611.5" y="-249" font-family="Helvetica,sans-Serif" font-size="10.00">/ProximityGraphs.hpp</text>
</a>
</g>
</g>
<!-- Node8&#45;&gt;Node20 -->
<g id="edge21_Node000008_Node000020" class="edge">
<title>Node8&#45;&gt;Node20</title>
<g id="a_edge21_Node000008_Node000020"><a xlink:title=" ">
<path fill="none" stroke="#63b8ff" d="M546.14,-307.8C557.45,-299.18 572.08,-288.04 584.62,-278.48"/>
<polygon fill="#63b8ff" stroke="#63b8ff" points="587.08,-281.01 592.91,-272.16 582.83,-275.44 587.08,-281.01"/>
</a>
</g>
</g>
<!-- Node10 -->
<g id="Node000010" class="node">
<title>Node10</title>
<g id="a_Node000010"><a xlink:href="GpuSync_8hpp.html" target="_top" xlink:title=" ">
<polygon fill="white" stroke="#666666" points="862.5,-200.5 782.5,-200.5 782.5,-181.5 862.5,-181.5 862.5,-200.5"/>
<text text-anchor="middle" x="822.5" y="-188.5" font-family="Helvetica,sans-Serif" font-size="10.00">GpuSync.hpp</text>
</a>
</g>
</g>
<!-- Node9&#45;&gt;Node10 -->
<g id="edge9_Node000009_Node000010" class="edge">
<title>Node9&#45;&gt;Node10</title>
<g id="a_edge9_Node000009_Node000010"><a xlink:title=" ">
<path fill="none" stroke="#63b8ff" d="M777.51,-247.37C785.53,-237.5 798.85,-221.11 808.92,-208.72"/>
<polygon fill="#63b8ff" stroke="#63b8ff" points="811.67,-210.87 815.26,-200.91 806.24,-206.46 811.67,-210.87"/>
</a>
</g>
</g>
<!-- Node15 -->
<g id="Node000015" class="node">
<title>Node15</title>
<g id="a_Node000015"><a xlink:href="VertexSpec_8hpp.html" target="_top" xlink:title=" ">
<polygon fill="white" stroke="#666666" points="764.5,-200.5 672.5,-200.5 672.5,-181.5 764.5,-181.5 764.5,-200.5"/>
<text text-anchor="middle" x="718.5" y="-188.5" font-family="Helvetica,sans-Serif" font-size="10.00">VertexSpec.hpp</text>
</a>
</g>
</g>
<!-- Node9&#45;&gt;Node15 -->
<g id="edge14_Node000009_Node000015" class="edge">
<title>Node9&#45;&gt;Node15</title>
<g id="a_edge14_Node000009_Node000015"><a xlink:title=" ">
<path fill="none" stroke="#63b8ff" d="M763.49,-247.37C755.47,-237.5 742.15,-221.11 732.08,-208.72"/>
<polygon fill="#63b8ff" stroke="#63b8ff" points="734.76,-206.46 725.74,-200.91 729.33,-210.87 734.76,-206.46"/>
</a>
</g>
</g>
<!-- Node16 -->
<g id="Node000016" class="node">
<title>Node16</title>
<g id="a_Node000016"><a xlink:href="GraphicsUtils_8hpp.html" target="_top" xlink:title=" ">
<polygon fill="white" stroke="#666666" points="654.5,-206 512.5,-206 512.5,-176 654.5,-176 654.5,-206"/>
<text text-anchor="start" x="520.5" y="-194" font-family="Helvetica,sans-Serif" font-size="10.00">MayaFlux/Portal/Graphics</text>
<text text-anchor="middle" x="583.5" y="-183" font-family="Helvetica,sans-Serif" font-size="10.00">/GraphicsUtils.hpp</text>
</a>
</g>
</g>
<!-- Node9&#45;&gt;Node16 -->
<g id="edge16_Node000009_Node000016" class="edge">
<title>Node9&#45;&gt;Node16</title>
<g id="a_edge16_Node000009_Node000016"><a xlink:title=" ">
<path fill="none" stroke="#63b8ff" d="M745.28,-247.37C717.03,-237.7 670.5,-221.77 634.57,-209.48"/>
<polygon fill="#63b8ff" stroke="#63b8ff" points="635.34,-206.04 624.74,-206.12 633.07,-212.67 635.34,-206.04"/>
</a>
</g>
</g>
<!-- Node11 -->
<g id="Node000011" class="node">
<title>Node11</title>
<g id="a_Node000011"><a xlink:href="Node_8hpp.html" target="_top" xlink:title=" ">
<polygon fill="white" stroke="#666666" points="896.5,-134.5 748.5,-134.5 748.5,-115.5 896.5,-115.5 896.5,-134.5"/>
<text text-anchor="middle" x="822.5" y="-122.5" font-family="Helvetica,sans-Serif" font-size="10.00">MayaFlux/Nodes/Node.hpp</text>
</a>
</g>
</g>
<!-- Node10&#45;&gt;Node11 -->
<g id="edge10_Node000010_Node000011" class="edge">
<title>Node10&#45;&gt;Node11</title>
<g id="a_edge10_Node000010_Node000011"><a xlink:title=" ">
<path fill="none" stroke="#63b8ff" d="M822.5,-181.37C822.5,-172.16 822.5,-157.29 822.5,-145.27"/>
<polygon fill="#63b8ff" stroke="#63b8ff" points="826,-144.91 822.5,-134.91 819,-144.91 826,-144.91"/>
</a>
</g>
</g>
<!-- Node12 -->
<g id="Node000012" class="node">
<title>Node12</title>
<g id="a_Node000012"><a xlink:href="GpuContext_8hpp.html" target="_top" xlink:title=" ">
<polygon fill="white" stroke="#666666" points="945,-74 850,-74 850,-55 945,-55 945,-74"/>
<text text-anchor="middle" x="897.5" y="-62" font-family="Helvetica,sans-Serif" font-size="10.00">GpuContext.hpp</text>
</a>
</g>
</g>
<!-- Node11&#45;&gt;Node12 -->
<g id="edge11_Node000011_Node000012" class="edge">
<title>Node11&#45;&gt;Node12</title>
<g id="a_edge11_Node000011_Node000012"><a xlink:title=" ">
<path fill="none" stroke="#63b8ff" d="M833.57,-115.37C845.31,-106.21 864.09,-91.56 878.26,-80.51"/>
<polygon fill="#63b8ff" stroke="#63b8ff" points="880.66,-83.08 886.39,-74.17 876.35,-77.56 880.66,-83.08"/>
</a>
</g>
</g>
<!-- Node13 -->
<g id="Node000013" class="node">
<title>Node13</title>
<g id="a_Node000013"><a xlink:href="NodeUtils_8hpp.html" target="_top" xlink:title=" ">
<polygon fill="white" stroke="#666666" points="831.5,-74 661.5,-74 661.5,-55 831.5,-55 831.5,-74"/>
<text text-anchor="middle" x="746.5" y="-62" font-family="Helvetica,sans-Serif" font-size="10.00">MayaFlux/Nodes/NodeUtils.hpp</text>
</a>
</g>
</g>
<!-- Node11&#45;&gt;Node13 -->
<g id="edge12_Node000011_Node000013" class="edge">
<title>Node11&#45;&gt;Node13</title>
<g id="a_edge12_Node000011_Node000013"><a xlink:title=" ">
<path fill="none" stroke="#63b8ff" d="M811.29,-115.37C799.39,-106.21 780.36,-91.56 765.99,-80.51"/>
<polygon fill="#63b8ff" stroke="#63b8ff" points="767.82,-77.49 757.76,-74.17 763.55,-83.04 767.82,-77.49"/>
</a>
</g>
</g>
<!-- Node14 -->
<g id="Node000014" class="node">
<title>Node14</title>
<g id="a_Node000014"><a xlink:href="NodeSpec_8hpp.html" target="_top" xlink:title=" ">
<polygon fill="white" stroke="#666666" points="789.5,-19 703.5,-19 703.5,0 789.5,0 789.5,-19"/>
<text text-anchor="middle" x="746.5" y="-7" font-family="Helvetica,sans-Serif" font-size="10.00">NodeSpec.hpp</text>
</a>
</g>
</g>
<!-- Node13&#45;&gt;Node14 -->
<g id="edge13_Node000013_Node000014" class="edge">
<title>Node13&#45;&gt;Node14</title>
<g id="a_edge13_Node000013_Node000014"><a xlink:title=" ">
<path fill="none" stroke="#63b8ff" d="M746.5,-54.75C746.5,-47.8 746.5,-37.85 746.5,-29.13"/>
<polygon fill="#63b8ff" stroke="#63b8ff" points="750,-29.09 746.5,-19.09 743,-29.09 750,-29.09"/>
</a>
</g>
</g>
<!-- Node15&#45;&gt;Node4 -->
<g id="edge15_Node000015_Node000004" class="edge">
<title>Node15&#45;&gt;Node4</title>
<g id="a_edge15_Node000015_Node000004"><a xlink:title=" ">
<path fill="none" stroke="#63b8ff" d="M688.42,-181.49C680.37,-179.45 671.65,-177.44 663.5,-176 521.96,-150.95 355.16,-137.3 256.38,-130.84"/>
<polygon fill="#63b8ff" stroke="#63b8ff" points="256.35,-127.33 246.15,-130.18 255.9,-134.32 256.35,-127.33"/>
</a>
</g>
</g>
<!-- Node18&#45;&gt;Node5 -->
<g id="edge19_Node000018_Node000005" class="edge">
<title>Node18&#45;&gt;Node5</title>
<g id="a_edge19_Node000018_Node000005"><a xlink:title=" ">
<path fill="none" stroke="#63b8ff" d="M274.74,-247.41C275.09,-224.29 274.13,-159.19 254.5,-110 250.46,-99.88 243.63,-89.9 237.31,-81.97"/>
<polygon fill="#63b8ff" stroke="#63b8ff" points="239.93,-79.65 230.81,-74.25 234.58,-84.16 239.93,-79.65"/>
</a>
</g>
</g>
<!-- Node19 -->
<g id="Node000019" class="node">
<title>Node19</title>
<g id="a_Node000019"><a xlink:title=" ">
<polygon fill="#e0e0e0" stroke="#999999" points="463,-200.5 386,-200.5 386,-181.5 463,-181.5 463,-200.5"/>
<text text-anchor="middle" x="424.5" y="-188.5" font-family="Helvetica,sans-Serif" font-size="10.00">Eigen/Dense</text>
</a>
</g>
</g>
<!-- Node18&#45;&gt;Node19 -->
<g id="edge20_Node000018_Node000019" class="edge">
<title>Node18&#45;&gt;Node19</title>
<g id="a_edge20_Node000018_Node000019"><a xlink:title=" ">
<path fill="none" stroke="#63b8ff" d="M294.73,-247.37C320.45,-236.39 365.07,-217.36 394.69,-204.72"/>
<polygon fill="#63b8ff" stroke="#63b8ff" points="396.29,-207.84 404.11,-200.7 393.54,-201.4 396.29,-207.84"/>
</a>
</g>
</g>
<!-- Node20&#45;&gt;Node19 -->
<g id="edge22_Node000020_Node000019" class="edge">
<title>Node20&#45;&gt;Node19</title>
<g id="a_edge22_Node000020_Node000019"><a xlink:title=" ">
<path fill="none" stroke="#63b8ff" d="M570.46,-241.95C537.09,-230.53 490.53,-214.6 459.04,-203.82"/>
<polygon fill="#63b8ff" stroke="#63b8ff" points="459.98,-200.44 449.39,-200.52 457.71,-207.07 459.98,-200.44"/>
</a>
</g>
</g>
<!-- Node22 -->
<g id="Node000022" class="node">
<title>Node22</title>
<g id="a_Node000022"><a xlink:href="Format_8hpp.html" target="_top" xlink:title=" ">
<polygon fill="white" stroke="#666666" points="869.5,-332.5 797.5,-332.5 797.5,-313.5 869.5,-313.5 869.5,-332.5"/>
<text text-anchor="middle" x="833.5" y="-320.5" font-family="Helvetica,sans-Serif" font-size="10.00">Format.hpp</text>
</a>
</g>
</g>
<!-- Node21&#45;&gt;Node22 -->
<g id="edge24_Node000021_Node000022" class="edge">
<title>Node21&#45;&gt;Node22</title>
<g id="a_edge24_Node000021_Node000022"><a xlink:title=" ">
<path fill="none" stroke="#63b8ff" d="M833.5,-373.87C833.5,-365.75 833.5,-353.31 833.5,-342.89"/>
<polygon fill="#63b8ff" stroke="#63b8ff" points="837,-342.67 833.5,-332.67 830,-342.67 837,-342.67"/>
</a>
</g>
</g>
<!-- Node23 -->
<g id="Node000023" class="node">
<title>Node23</title>
<g id="a_Node000023"><a xlink:href="JournalEntry_8hpp.html" target="_top" xlink:title=" ">
<polygon fill="white" stroke="#666666" points="1055,-332.5 960,-332.5 960,-313.5 1055,-313.5 1055,-332.5"/>
<text text-anchor="middle" x="1007.5" y="-320.5" font-family="Helvetica,sans-Serif" font-size="10.00">JournalEntry.hpp</text>
</a>
</g>
</g>
<!-- Node21&#45;&gt;Node23 -->
<g id="edge25_Node000021_Node000023" class="edge">
<title>Node21&#45;&gt;Node23</title>
<g id="a_edge25_Node000021_Node000023"><a xlink:title=" ">
<path fill="none" stroke="#63b8ff" d="M858.8,-373.99C888.7,-363.94 938.62,-347.16 972.28,-335.84"/>
<polygon fill="#63b8ff" stroke="#63b8ff" points="973.81,-339.02 982.17,-332.52 971.57,-332.39 973.81,-339.02"/>
</a>
</g>
</g>
<!-- Node24 -->
<g id="Node000024" class="node">
<title>Node24</title>
<g id="a_Node000024"><a xlink:href="EnumReflect_8hpp.html" target="_top" xlink:title=" ">
<polygon fill="white" stroke="#666666" points="1201,-272 1062,-272 1062,-242 1201,-242 1201,-272"/>
<text text-anchor="start" x="1070" y="-260" font-family="Helvetica,sans-Serif" font-size="10.00">MayaFlux/Transitive</text>
<text text-anchor="middle" x="1131.5" y="-249" font-family="Helvetica,sans-Serif" font-size="10.00">/Reflect/EnumReflect.hpp</text>
</a>
</g>
</g>
<!-- Node23&#45;&gt;Node24 -->
<g id="edge26_Node000023_Node000024" class="edge">
<title>Node23&#45;&gt;Node24</title>
<g id="a_edge26_Node000023_Node000024"><a xlink:title=" ">
<path fill="none" stroke="#63b8ff" d="M1024.22,-313.37C1042.31,-304.03 1071.72,-288.86 1095.17,-276.75"/>
<polygon fill="#63b8ff" stroke="#63b8ff" points="1096.87,-279.81 1104.15,-272.12 1093.66,-273.59 1096.87,-279.81"/>
</a>
</g>
</g>
<!-- Node25 -->
<g id="Node000025" class="node">
<title>Node25</title>
<g id="a_Node000025"><a xlink:title=" ">
<polygon fill="#e0e0e0" stroke="#999999" points="1269.5,-266.5 1219.5,-266.5 1219.5,-247.5 1269.5,-247.5 1269.5,-266.5"/>
<text text-anchor="middle" x="1244.5" y="-254.5" font-family="Helvetica,sans-Serif" font-size="10.00">chrono</text>
</a>
</g>
</g>
<!-- Node23&#45;&gt;Node25 -->
<g id="edge27_Node000023_Node000025" class="edge">
<title>Node23&#45;&gt;Node25</title>
<g id="a_edge27_Node000023_Node000025"><a xlink:title=" ">
<path fill="none" stroke="#63b8ff" d="M1050.01,-313.46C1091.44,-304.69 1155.99,-289.82 1210.5,-272 1212.17,-271.45 1213.87,-270.86 1215.58,-270.25"/>
<polygon fill="#63b8ff" stroke="#63b8ff" points="1217.2,-273.37 1225.27,-266.5 1214.68,-266.84 1217.2,-273.37"/>
</a>
</g>
</g>
<!-- Node26 -->
<g id="Node000026" class="node">
<title>Node26</title>
<g id="a_Node000026"><a xlink:title=" ">
<polygon fill="#e0e0e0" stroke="#999999" points="953,-266.5 860,-266.5 860,-247.5 953,-247.5 953,-266.5"/>
<text text-anchor="middle" x="906.5" y="-254.5" font-family="Helvetica,sans-Serif" font-size="10.00">source_location</text>
</a>
</g>
</g>
<!-- Node23&#45;&gt;Node26 -->
<g id="edge28_Node000023_Node000026" class="edge">
<title>Node23&#45;&gt;Node26</title>
<g id="a_edge28_Node000023_Node000026"><a xlink:title=" ">
<path fill="none" stroke="#63b8ff" d="M993.88,-313.37C977.16,-302.78 948.59,-284.67 928.69,-272.06"/>
<polygon fill="#63b8ff" stroke="#63b8ff" points="930.55,-269.1 920.23,-266.7 926.8,-275.01 930.55,-269.1"/>
</a>
</g>
</g>
<!-- Node27 -->
<g id="Node000027" class="node">
<title>Node27</title>
<g id="a_Node000027"><a xlink:title=" ">
<polygon fill="#e0e0e0" stroke="#999999" points="1044,-266.5 971,-266.5 971,-247.5 1044,-247.5 1044,-266.5"/>
<text text-anchor="middle" x="1007.5" y="-254.5" font-family="Helvetica,sans-Serif" font-size="10.00">string_view</text>
</a>
</g>
</g>
<!-- Node23&#45;&gt;Node27 -->
<g id="edge29_Node000023_Node000027" class="edge">
<title>Node23&#45;&gt;Node27</title>
<g id="a_edge29_Node000023_Node000027"><a xlink:title=" ">
<path fill="none" stroke="#63b8ff" d="M1007.5,-313.37C1007.5,-304.16 1007.5,-289.29 1007.5,-277.27"/>
<polygon fill="#63b8ff" stroke="#63b8ff" points="1011,-276.91 1007.5,-266.91 1004,-276.91 1011,-276.91"/>
</a>
</g>
</g>
</g>
</svg>

<g id="navigator" transform="translate(0 0)" fill="#404254">
  <rect fill="#f2f5e9" fill-opacity="0.5" stroke="#606060" stroke-width=".5" x="0" y="0" width="60" height="60"/>
  <use id="zoomplus" xlink:href="#zoomPlus" x="17" y="9" onmousedown="handleZoom(evt,'in')"/>
  <use id="zoomminus" xlink:href="#zoomMin" x="42" y="9" onmousedown="handleZoom(evt,'out')"/>
  <use id="reset" xlink:href="#resetDef" x="30" y="36" onmousedown="handleReset()"/>
   <use id="arrowup" xlink:href="#arrowUp" x="0" y="0" onmousedown="handlePan(0,-1)"/>
  <use id="arrowright" xlink:href="#arrowRight" x="0" y="0" onmousedown="handlePan(1,0)"/>
  <use id="arrowdown" xlink:href="#arrowDown" x="0" y="0" onmousedown="handlePan(0,1)"/>
  <use id="arrowleft" xlink:href="#arrowLeft" x="0" y="0" onmousedown="handlePan(-1,0)"/>
</g>
<svg viewBox="0 0 15 15" width="100%" height="30px" preserveAspectRatio="xMaxYMin meet">
 <g id="arrow_out" transform="scale(0.3 0.3)">
  <a xlink:href="TopologyOperator_8cpp__incl_org.svg" target="_base">
   <rect id="button" ry="5" rx="5" y="6" x="6" height="38" width="38"
        fill="#f2f5e9" fill-opacity="0.5" stroke="#606060" stroke-width="1.0"/>
   <path id="arrow"
     d="M 11.500037,31.436501 C 11.940474,20.09759 22.043105,11.32322 32.158766,21.979434 L 37.068811,17.246167 C 37.068811,17.246167 37.088388,32 37.088388,32 L 22.160133,31.978069 C 22.160133,31.978069 26.997745,27.140456 26.997745,27.140456 C 18.528582,18.264221 13.291696,25.230495 11.500037,31.436501 z"
     style="fill:#404040;"/>
  </a>
 </g>
</svg>

<style type='text/css'>
<![CDATA[
[data-mouse-over-selected='false'] { opacity: 0.7; }
[data-mouse-over-selected='true']  { opacity: 1.0; }
]]>
</style>
<script type="application/ecmascript"><![CDATA[
document.addEventListener('DOMContentLoaded', (event) => {
  highlightEdges();
  highlightAdjacentNodes();
});
]]></script>
</svg>
