<?xml version="1.0" encoding="UTF-8" standalone="no"?>
<!DOCTYPE svg PUBLIC "-//W3C//DTD SVG 1.1//EN"
 "http://www.w3.org/Graphics/SVG/1.1/DTD/svg11.dtd">
<!-- Generated by graphviz version 2.43.0 (0)
 -->
<!-- Title: UVFieldProcessor.hpp Pages: 1 -->
<svg width="696pt" height="511pt"
 viewBox="0.00 0.00 696.00 511.00" xmlns="http://www.w3.org/2000/svg" xmlns:xlink="http://www.w3.org/1999/xlink">
<g id="graph0" class="graph" transform="scale(1 1) rotate(0) translate(4 507)">
<title>UVFieldProcessor.hpp</title>
<!-- Node1 -->
<g id="Node000001" class="node">
<title>Node1</title>
<g id="a_Node000001"><a xlink:title=" ">
<polygon fill="#999999" stroke="#666666" points="579,-503 457,-503 457,-484 579,-484 579,-503"/>
<text text-anchor="middle" x="518" y="-491" font-family="Helvetica,sans-Serif" font-size="10.00">UVFieldProcessor.hpp</text>
</a>
</g>
</g>
<!-- Node2 -->
<g id="Node000002" class="node">
<title>Node2</title>
<g id="a_Node000002"><a xlink:href="ComputeProcessor_8hpp.html" target="_top" xlink:title=" ">
<polygon fill="white" stroke="#666666" points="487,-448 359,-448 359,-429 487,-429 487,-448"/>
<text text-anchor="middle" x="423" y="-436" font-family="Helvetica,sans-Serif" font-size="10.00">ComputeProcessor.hpp</text>
</a>
</g>
</g>
<!-- Node1&#45;&gt;Node2 -->
<g id="edge1_Node000001_Node000002" class="edge">
<title>Node1&#45;&gt;Node2</title>
<g id="a_edge1_Node000001_Node000002"><a xlink:title=" ">
<path fill="none" stroke="#63b8ff" d="M502.74,-483.98C487.87,-475.69 465.02,-462.94 447.58,-453.22"/>
<polygon fill="#63b8ff" stroke="#63b8ff" points="448.98,-449.99 438.54,-448.17 445.57,-456.1 448.98,-449.99"/>
</a>
</g>
</g>
<!-- Node17 -->
<g id="Node000017" class="node">
<title>Node17</title>
<g id="a_Node000017"><a xlink:href="SamplerForge_8hpp.html" target="_top" xlink:title=" ">
<polygon fill="white" stroke="#666666" points="688,-393 546,-393 546,-363 688,-363 688,-393"/>
<text text-anchor="start" x="554" y="-381" font-family="Helvetica,sans-Serif" font-size="10.00">MayaFlux/Portal/Graphics</text>
<text text-anchor="middle" x="617" y="-370" font-family="Helvetica,sans-Serif" font-size="10.00">/SamplerForge.hpp</text>
</a>
</g>
</g>
<!-- Node1&#45;&gt;Node17 -->
<g id="edge19_Node000001_Node000017" class="edge">
<title>Node1&#45;&gt;Node17</title>
<g id="a_edge19_Node000001_Node000017"><a xlink:title=" ">
<path fill="none" stroke="#63b8ff" d="M525.44,-483.97C540.7,-466.48 575.94,-426.07 597.98,-400.81"/>
<polygon fill="#63b8ff" stroke="#63b8ff" points="600.69,-403.02 604.63,-393.18 595.42,-398.42 600.69,-403.02"/>
</a>
</g>
</g>
<!-- Node18 -->
<g id="Node000018" class="node">
<title>Node18</title>
<g id="a_Node000018"><a xlink:href="TextureLoom_8hpp.html" target="_top" xlink:title=" ">
<polygon fill="white" stroke="#666666" points="589,-206 447,-206 447,-176 589,-176 589,-206"/>
<text text-anchor="start" x="455" y="-194" font-family="Helvetica,sans-Serif" font-size="10.00">MayaFlux/Portal/Graphics</text>
<text text-anchor="middle" x="518" y="-183" font-family="Helvetica,sans-Serif" font-size="10.00">/TextureLoom.hpp</text>
</a>
</g>
</g>
<!-- Node1&#45;&gt;Node18 -->
<g id="edge21_Node000001_Node000018" class="edge">
<title>Node1&#45;&gt;Node18</title>
<g id="a_edge21_Node000001_Node000018"><a xlink:title=" ">
<path fill="none" stroke="#63b8ff" d="M518,-483.96C518,-465.05 518,-418.21 518,-379 518,-379 518,-379 518,-311 518,-278.21 518,-240.35 518,-216.3"/>
<polygon fill="#63b8ff" stroke="#63b8ff" points="521.5,-216.29 518,-206.29 514.5,-216.29 521.5,-216.29"/>
</a>
</g>
</g>
<!-- Node3 -->
<g id="Node000003" class="node">
<title>Node3</title>
<g id="a_Node000003"><a xlink:href="ShaderProcessor_8hpp.html" target="_top" xlink:title=" ">
<polygon fill="white" stroke="#666666" points="478,-387.5 360,-387.5 360,-368.5 478,-368.5 478,-387.5"/>
<text text-anchor="middle" x="419" y="-375.5" font-family="Helvetica,sans-Serif" font-size="10.00">ShaderProcessor.hpp</text>
</a>
</g>
</g>
<!-- Node2&#45;&gt;Node3 -->
<g id="edge2_Node000002_Node000003" class="edge">
<title>Node2&#45;&gt;Node3</title>
<g id="a_edge2_Node000002_Node000003"><a xlink:title=" ">
<path fill="none" stroke="#63b8ff" d="M422.41,-428.87C421.85,-420.75 421,-408.31 420.29,-397.89"/>
<polygon fill="#63b8ff" stroke="#63b8ff" points="423.77,-397.41 419.59,-387.67 416.78,-397.88 423.77,-397.41"/>
</a>
</g>
</g>
<!-- Node4 -->
<g id="Node000004" class="node">
<title>Node4</title>
<g id="a_Node000004"><a xlink:href="VKBuffer_8hpp.html" target="_top" xlink:title=" ">
<polygon fill="white" stroke="#666666" points="307,-321.5 139,-321.5 139,-302.5 307,-302.5 307,-321.5"/>
<text text-anchor="middle" x="223" y="-309.5" font-family="Helvetica,sans-Serif" font-size="10.00">MayaFlux/Buffers/VKBuffer.hpp</text>
</a>
</g>
</g>
<!-- Node3&#45;&gt;Node4 -->
<g id="edge3_Node000003_Node000004" class="edge">
<title>Node3&#45;&gt;Node4</title>
<g id="a_edge3_Node000003_Node000004"><a xlink:title=" ">
<path fill="none" stroke="#63b8ff" d="M392.57,-368.37C358.13,-357.12 297.78,-337.42 259.13,-324.8"/>
<polygon fill="#63b8ff" stroke="#63b8ff" points="259.92,-321.37 249.33,-321.6 257.75,-328.03 259.92,-321.37"/>
</a>
</g>
</g>
<!-- Node15 -->
<g id="Node000015" class="node">
<title>Node15</title>
<g id="a_Node000015"><a xlink:href="ComputePress_8hpp.html" target="_top" xlink:title=" ">
<polygon fill="white" stroke="#666666" points="490,-327 348,-327 348,-297 490,-297 490,-327"/>
<text text-anchor="start" x="356" y="-315" font-family="Helvetica,sans-Serif" font-size="10.00">MayaFlux/Portal/Graphics</text>
<text text-anchor="middle" x="419" y="-304" font-family="Helvetica,sans-Serif" font-size="10.00">/ComputePress.hpp</text>
</a>
</g>
</g>
<!-- Node3&#45;&gt;Node15 -->
<g id="edge16_Node000003_Node000015" class="edge">
<title>Node3&#45;&gt;Node15</title>
<g id="a_edge16_Node000003_Node000015"><a xlink:title=" ">
<path fill="none" stroke="#63b8ff" d="M419,-368.37C419,-360.49 419,-348.45 419,-337.6"/>
<polygon fill="#63b8ff" stroke="#63b8ff" points="422.5,-337.36 419,-327.36 415.5,-337.36 422.5,-337.36"/>
</a>
</g>
</g>
<!-- Node5 -->
<g id="Node000005" class="node">
<title>Node5</title>
<g id="a_Node000005"><a xlink:href="Buffer_8hpp.html" target="_top" xlink:title=" ">
<polygon fill="white" stroke="#666666" points="66,-261 0,-261 0,-242 66,-242 66,-261"/>
<text text-anchor="middle" x="33" y="-249" font-family="Helvetica,sans-Serif" font-size="10.00">Buffer.hpp</text>
</a>
</g>
</g>
<!-- Node4&#45;&gt;Node5 -->
<g id="edge4_Node000004_Node000005" class="edge">
<title>Node4&#45;&gt;Node5</title>
<g id="a_edge4_Node000004_Node000005"><a xlink:title=" ">
<path fill="none" stroke="#63b8ff" d="M195.37,-302.49C162.45,-292.36 107.27,-275.37 70.51,-264.05"/>
<polygon fill="#63b8ff" stroke="#63b8ff" points="71.25,-260.61 60.66,-261.02 69.19,-267.3 71.25,-260.61"/>
</a>
</g>
</g>
<!-- Node6 -->
<g id="Node000006" class="node">
<title>Node6</title>
<g id="a_Node000006"><a xlink:href="BufferProcessor_8hpp.html" target="_top" xlink:title=" ">
<polygon fill="white" stroke="#666666" points="324,-261 122,-261 122,-242 324,-242 324,-261"/>
<text text-anchor="middle" x="223" y="-249" font-family="Helvetica,sans-Serif" font-size="10.00">MayaFlux/Buffers/BufferProcessor.hpp</text>
</a>
</g>
</g>
<!-- Node4&#45;&gt;Node6 -->
<g id="edge5_Node000004_Node000006" class="edge">
<title>Node4&#45;&gt;Node6</title>
<g id="a_edge5_Node000004_Node000006"><a xlink:title=" ">
<path fill="none" stroke="#63b8ff" d="M223,-302.37C223,-294.25 223,-281.81 223,-271.39"/>
<polygon fill="#63b8ff" stroke="#63b8ff" points="226.5,-271.17 223,-261.17 219.5,-271.17 226.5,-271.17"/>
</a>
</g>
</g>
<!-- Node8 -->
<g id="Node000008" class="node">
<title>Node8</title>
<g id="a_Node000008"><a xlink:href="ProcessingTokens_8hpp.html" target="_top" xlink:title=" ">
<polygon fill="white" stroke="#666666" points="175,-140 29,-140 29,-110 175,-110 175,-140"/>
<text text-anchor="start" x="37" y="-128" font-family="Helvetica,sans-Serif" font-size="10.00">MayaFlux/Core/Processing</text>
<text text-anchor="middle" x="102" y="-117" font-family="Helvetica,sans-Serif" font-size="10.00">Tokens.hpp</text>
</a>
</g>
</g>
<!-- Node4&#45;&gt;Node8 -->
<g id="edge11_Node000004_Node000008" class="edge">
<title>Node4&#45;&gt;Node8</title>
<g id="a_edge11_Node000004_Node000008"><a xlink:title=" ">
<path fill="none" stroke="#63b8ff" d="M179.58,-302.47C155.94,-295.47 128.44,-282.97 113,-261 89.98,-228.25 92.71,-179.35 97.13,-150.27"/>
<polygon fill="#63b8ff" stroke="#63b8ff" points="100.62,-150.61 98.85,-140.17 93.72,-149.44 100.62,-150.61"/>
</a>
</g>
</g>
<!-- Node12 -->
<g id="Node000012" class="node">
<title>Node12</title>
<g id="a_Node000012"><a xlink:href="ShaderUtils_8hpp.html" target="_top" xlink:title=" ">
<polygon fill="white" stroke="#666666" points="429,-206 287,-206 287,-176 429,-176 429,-206"/>
<text text-anchor="start" x="295" y="-194" font-family="Helvetica,sans-Serif" font-size="10.00">MayaFlux/Portal/Graphics</text>
<text text-anchor="middle" x="358" y="-183" font-family="Helvetica,sans-Serif" font-size="10.00">/ShaderUtils.hpp</text>
</a>
</g>
</g>
<!-- Node4&#45;&gt;Node12 -->
<g id="edge12_Node000004_Node000012" class="edge">
<title>Node4&#45;&gt;Node12</title>
<g id="a_edge12_Node000004_Node000012"><a xlink:title=" ">
<path fill="none" stroke="#63b8ff" d="M259.05,-302.48C282.92,-295.13 313.35,-282.26 333,-261 344.48,-248.57 350.78,-230.48 354.18,-215.93"/>
<polygon fill="#63b8ff" stroke="#63b8ff" points="357.61,-216.6 356.18,-206.1 350.76,-215.21 357.61,-216.6"/>
</a>
</g>
</g>
<!-- Node7 -->
<g id="Node000007" class="node">
<title>Node7</title>
<g id="a_Node000007"><a xlink:href="BufferUtils_8hpp.html" target="_top" xlink:title=" ">
<polygon fill="white" stroke="#666666" points="267.5,-200.5 178.5,-200.5 178.5,-181.5 267.5,-181.5 267.5,-200.5"/>
<text text-anchor="middle" x="223" y="-188.5" font-family="Helvetica,sans-Serif" font-size="10.00">BufferUtils.hpp</text>
</a>
</g>
</g>
<!-- Node6&#45;&gt;Node7 -->
<g id="edge6_Node000006_Node000007" class="edge">
<title>Node6&#45;&gt;Node7</title>
<g id="a_edge6_Node000006_Node000007"><a xlink:title=" ">
<path fill="none" stroke="#63b8ff" d="M223,-241.87C223,-233.75 223,-221.31 223,-210.89"/>
<polygon fill="#63b8ff" stroke="#63b8ff" points="226.5,-210.67 223,-200.67 219.5,-210.67 226.5,-210.67"/>
</a>
</g>
</g>
<!-- Node7&#45;&gt;Node8 -->
<g id="edge7_Node000007_Node000008" class="edge">
<title>Node7&#45;&gt;Node8</title>
<g id="a_edge7_Node000007_Node000008"><a xlink:title=" ">
<path fill="none" stroke="#63b8ff" d="M206.68,-181.37C189.11,-172.07 160.59,-156.99 137.76,-144.91"/>
<polygon fill="#63b8ff" stroke="#63b8ff" points="139.16,-141.7 128.69,-140.12 135.89,-147.89 139.16,-141.7"/>
</a>
</g>
</g>
<!-- Node9 -->
<g id="Node000009" class="node">
<title>Node9</title>
<g id="a_Node000009"><a xlink:href="VertexLayout_8hpp.html" target="_top" xlink:title=" ">
<polygon fill="white" stroke="#666666" points="360.5,-140 209.5,-140 209.5,-110 360.5,-110 360.5,-140"/>
<text text-anchor="start" x="217.5" y="-128" font-family="Helvetica,sans-Serif" font-size="10.00">MayaFlux/Kakshya/NDData</text>
<text text-anchor="middle" x="285" y="-117" font-family="Helvetica,sans-Serif" font-size="10.00">/VertexLayout.hpp</text>
</a>
</g>
</g>
<!-- Node7&#45;&gt;Node9 -->
<g id="edge8_Node000007_Node000009" class="edge">
<title>Node7&#45;&gt;Node9</title>
<g id="a_edge8_Node000007_Node000009"><a xlink:title=" ">
<path fill="none" stroke="#63b8ff" d="M231.36,-181.37C239.71,-172.75 252.88,-159.15 264.08,-147.59"/>
<polygon fill="#63b8ff" stroke="#63b8ff" points="266.64,-149.98 271.09,-140.36 261.62,-145.11 266.64,-149.98"/>
</a>
</g>
</g>
<!-- Node10 -->
<g id="Node000010" class="node">
<title>Node10</title>
<g id="a_Node000010"><a xlink:href="NDData_8hpp.html" target="_top" xlink:title=" ">
<polygon fill="white" stroke="#666666" points="435,-74 359,-74 359,-55 435,-55 435,-74"/>
<text text-anchor="middle" x="397" y="-62" font-family="Helvetica,sans-Serif" font-size="10.00">NDData.hpp</text>
</a>
</g>
</g>
<!-- Node9&#45;&gt;Node10 -->
<g id="edge9_Node000009_Node000010" class="edge">
<title>Node9&#45;&gt;Node10</title>
<g id="a_edge9_Node000009_Node000010"><a xlink:title=" ">
<path fill="none" stroke="#63b8ff" d="M311.83,-109.99C329.85,-100.58 353.46,-88.24 371.25,-78.95"/>
<polygon fill="#63b8ff" stroke="#63b8ff" points="373.22,-81.87 380.46,-74.14 369.98,-75.67 373.22,-81.87"/>
</a>
</g>
</g>
<!-- Node11 -->
<g id="Node000011" class="node">
<title>Node11</title>
<g id="a_Node000011"><a xlink:title=" ">
<polygon fill="#e0e0e0" stroke="#999999" points="436,-19 358,-19 358,0 436,0 436,-19"/>
<text text-anchor="middle" x="397" y="-7" font-family="Helvetica,sans-Serif" font-size="10.00">glm/glm.hpp</text>
</a>
</g>
</g>
<!-- Node10&#45;&gt;Node11 -->
<g id="edge10_Node000010_Node000011" class="edge">
<title>Node10&#45;&gt;Node11</title>
<g id="a_edge10_Node000010_Node000011"><a xlink:title=" ">
<path fill="none" stroke="#63b8ff" d="M397,-54.75C397,-47.8 397,-37.85 397,-29.13"/>
<polygon fill="#63b8ff" stroke="#63b8ff" points="400.5,-29.09 397,-19.09 393.5,-29.09 400.5,-29.09"/>
</a>
</g>
</g>
<!-- Node12&#45;&gt;Node9 -->
<g id="edge15_Node000012_Node000009" class="edge">
<title>Node12&#45;&gt;Node9</title>
<g id="a_edge15_Node000012_Node000009"><a xlink:title=" ">
<path fill="none" stroke="#63b8ff" d="M341.8,-175.8C332.16,-167.34 319.75,-156.46 308.99,-147.03"/>
<polygon fill="#63b8ff" stroke="#63b8ff" points="310.98,-144.12 301.16,-140.16 306.37,-149.39 310.98,-144.12"/>
</a>
</g>
</g>
<!-- Node13 -->
<g id="Node000013" class="node">
<title>Node13</title>
<g id="a_Node000013"><a xlink:title=" ">
<polygon fill="#e0e0e0" stroke="#999999" points="643.5,-134.5 538.5,-134.5 538.5,-115.5 643.5,-115.5 643.5,-134.5"/>
<text text-anchor="middle" x="591" y="-122.5" font-family="Helvetica,sans-Serif" font-size="10.00">vulkan/vulkan.hpp</text>
</a>
</g>
</g>
<!-- Node12&#45;&gt;Node13 -->
<g id="edge13_Node000012_Node000013" class="edge">
<title>Node12&#45;&gt;Node13</title>
<g id="a_edge13_Node000012_Node000013"><a xlink:title=" ">
<path fill="none" stroke="#63b8ff" d="M409.13,-175.95C451.52,-164.31 510.99,-147.98 550.23,-137.2"/>
<polygon fill="#63b8ff" stroke="#63b8ff" points="551.28,-140.54 559.99,-134.52 549.42,-133.79 551.28,-140.54"/>
</a>
</g>
</g>
<!-- Node14 -->
<g id="Node000014" class="node">
<title>Node14</title>
<g id="a_Node000014"><a xlink:href="GraphicsUtils_8hpp.html" target="_top" xlink:title=" ">
<polygon fill="white" stroke="#666666" points="481.5,-134.5 378.5,-134.5 378.5,-115.5 481.5,-115.5 481.5,-134.5"/>
<text text-anchor="middle" x="430" y="-122.5" font-family="Helvetica,sans-Serif" font-size="10.00">GraphicsUtils.hpp</text>
</a>
</g>
</g>
<!-- Node12&#45;&gt;Node14 -->
<g id="edge14_Node000012_Node000014" class="edge">
<title>Node12&#45;&gt;Node14</title>
<g id="a_edge14_Node000012_Node000014"><a xlink:title=" ">
<path fill="none" stroke="#63b8ff" d="M373.98,-175.8C385.31,-165.72 400.53,-152.19 412.25,-141.78"/>
<polygon fill="#63b8ff" stroke="#63b8ff" points="414.9,-144.1 420.05,-134.84 410.25,-138.87 414.9,-144.1"/>
</a>
</g>
</g>
<!-- Node16 -->
<g id="Node000016" class="node">
<title>Node16</title>
<g id="a_Node000016"><a xlink:href="ShaderFoundry_8hpp.html" target="_top" xlink:title=" ">
<polygon fill="white" stroke="#666666" points="489.5,-261 380.5,-261 380.5,-242 489.5,-242 489.5,-261"/>
<text text-anchor="middle" x="435" y="-249" font-family="Helvetica,sans-Serif" font-size="10.00">ShaderFoundry.hpp</text>
</a>
</g>
</g>
<!-- Node15&#45;&gt;Node16 -->
<g id="edge17_Node000015_Node000016" class="edge">
<title>Node15&#45;&gt;Node16</title>
<g id="a_edge17_Node000015_Node000016"><a xlink:title=" ">
<path fill="none" stroke="#63b8ff" d="M422.87,-296.84C424.98,-289.13 427.62,-279.49 429.89,-271.17"/>
<polygon fill="#63b8ff" stroke="#63b8ff" points="433.34,-271.84 432.6,-261.27 426.59,-269.99 433.34,-271.84"/>
</a>
</g>
</g>
<!-- Node16&#45;&gt;Node12 -->
<g id="edge18_Node000016_Node000012" class="edge">
<title>Node16&#45;&gt;Node12</title>
<g id="a_edge18_Node000016_Node000012"><a xlink:title=" ">
<path fill="none" stroke="#63b8ff" d="M423.64,-241.87C413.38,-234.08 397.9,-222.32 384.55,-212.17"/>
<polygon fill="#63b8ff" stroke="#63b8ff" points="386.66,-209.38 376.58,-206.11 382.42,-214.95 386.66,-209.38"/>
</a>
</g>
</g>
<!-- Node17&#45;&gt;Node13 -->
<g id="edge20_Node000017_Node000013" class="edge">
<title>Node17&#45;&gt;Node13</title>
<g id="a_edge20_Node000017_Node000013"><a xlink:title=" ">
<path fill="none" stroke="#63b8ff" d="M615.88,-362.84C613.24,-329.98 606.2,-245.97 598,-176 596.8,-165.73 595.21,-154.3 593.86,-144.96"/>
<polygon fill="#63b8ff" stroke="#63b8ff" points="597.29,-144.22 592.36,-134.84 590.36,-145.24 597.29,-144.22"/>
</a>
</g>
</g>
<!-- Node18&#45;&gt;Node10 -->
<g id="edge24_Node000018_Node000010" class="edge">
<title>Node18&#45;&gt;Node10</title>
<g id="a_edge24_Node000018_Node000010"><a xlink:title=" ">
<path fill="none" stroke="#63b8ff" d="M516.39,-175.9C513.72,-158.48 506.89,-128.85 490,-110 476.5,-94.93 456.78,-84.49 438.97,-77.53"/>
<polygon fill="#63b8ff" stroke="#63b8ff" points="439.92,-74.15 429.33,-74.02 437.53,-80.73 439.92,-74.15"/>
</a>
</g>
</g>
<!-- Node18&#45;&gt;Node13 -->
<g id="edge22_Node000018_Node000013" class="edge">
<title>Node18&#45;&gt;Node13</title>
<g id="a_edge22_Node000018_Node000013"><a xlink:title=" ">
<path fill="none" stroke="#63b8ff" d="M534.2,-175.8C545.8,-165.62 561.42,-151.93 573.34,-141.48"/>
<polygon fill="#63b8ff" stroke="#63b8ff" points="575.7,-144.07 580.91,-134.84 571.09,-138.8 575.7,-144.07"/>
</a>
</g>
</g>
<!-- Node18&#45;&gt;Node14 -->
<g id="edge23_Node000018_Node000014" class="edge">
<title>Node18&#45;&gt;Node14</title>
<g id="a_edge23_Node000018_Node000014"><a xlink:title=" ">
<path fill="none" stroke="#63b8ff" d="M498.47,-175.8C484.13,-165.37 464.7,-151.24 450.21,-140.69"/>
<polygon fill="#63b8ff" stroke="#63b8ff" points="452.05,-137.71 441.91,-134.66 447.93,-143.37 452.05,-137.71"/>
</a>
</g>
</g>
</g>
</svg>
