<?xml version="1.0" encoding="UTF-8" standalone="no"?>
<!DOCTYPE svg PUBLIC "-//W3C//DTD SVG 1.1//EN"
 "http://www.w3.org/Graphics/SVG/1.1/DTD/svg11.dtd">
<!-- Generated by graphviz version 2.43.0 (0)
 -->
<!-- Title: UVFieldProcessor.cpp Pages: 1 -->
<!--zoomable 566 -->

<svg id="main" version="1.1" xmlns="http://www.w3.org/2000/svg" xmlns:xlink="http://www.w3.org/1999/xlink" xml:space="preserve" onload="init(evt)">
<style type="text/css"><![CDATA[
.node, .edge {opacity: 0.7;}
.node.selected, .edge.selected {opacity: 1;}
.edge:hover path { stroke: red; }
.edge:hover polygon { stroke: red; fill: red; }
]]></style>

<defs>
  <circle id="rim" cx="0" cy="0" r="7"/>
  <circle id="rim2" cx="0" cy="0" r="3.5"/>
  <g id="zoomPlus">
    <use xlink:href="#rim" fill="#404040"><set attributeName="fill" to="#808080" begin="zoomplus.mouseover" end="zoomplus.mouseout"/></use>
    <path d="M-4,0h8M0,-4v8" fill="none" stroke="white" stroke-width="1.5" pointer-events="none"/>
  </g>
  <g id="zoomMin">
    <use xlink:href="#rim" fill="#404040"><set attributeName="fill" to="#808080" begin="zoomminus.mouseover" end="zoomminus.mouseout"/></use>
    <path d="M-4,0h8" fill="none" stroke="white" stroke-width="1.5" pointer-events="none"/>
  </g>
  <g id="arrowUp" transform="translate(30 24)">
    <use xlink:href="#rim"/>
    <path pointer-events="none" fill="none" stroke="white" stroke-width="1.5" d="M0,-3.0v7 M-2.5,-0.5L0,-3.0L2.5,-0.5"/>
  </g>
  <g id="arrowRight" transform="rotate(90) translate(36 -43)">
    <use xlink:href="#rim"/>
    <path pointer-events="none" fill="none" stroke="white" stroke-width="1.5" d="M0,-3.0v7 M-2.5,-0.5L0,-3.0L2.5,-0.5"/>
  </g>
  <g id="arrowDown" transform="rotate(180) translate(-30 -48)">
    <use xlink:href="#rim"/>
    <path pointer-events="none" fill="none" stroke="white" stroke-width="1.5" d="M0,-3.0v7 M-2.5,-0.5L0,-3.0L2.5,-0.5"/>
  </g>
  <g id="arrowLeft" transform="rotate(270) translate(-36 17)">
    <use xlink:href="#rim"/>
    <path pointer-events="none" fill="none" stroke="white" stroke-width="1.5" d="M0,-3.0v7 M-2.5,-0.5L0,-3.0L2.5,-0.5"/>
  </g>
  <g id="resetDef">
    <use xlink:href="#rim2" fill="#404040"><set attributeName="fill" to="#808080" begin="reset.mouseover" end="reset.mouseout"/></use>
  </g>
</defs>
<script type="application/ecmascript">
var viewWidth = 1187;
var viewHeight = 566;
var sectionId = 'dynsection-0';
</script>
<script type="application/ecmascript" xlink:href="svg.min.js"/>
<svg id="graph" class="graph">
<g id="viewport">
<title>UVFieldProcessor.cpp</title>
<!-- Node1 -->
<g id="Node000001" class="node">
<title>Node1</title>
<g id="a_Node000001"><a xlink:title=" ">
<polygon fill="#999999" stroke="#666666" points="593.5,-558 472.5,-558 472.5,-539 593.5,-539 593.5,-558"/>
<text text-anchor="middle" x="533" y="-546" font-family="Helvetica,sans-Serif" font-size="10.00">UVFieldProcessor.cpp</text>
</a>
</g>
</g>
<!-- Node2 -->
<g id="Node000002" class="node">
<title>Node2</title>
<g id="a_Node000002"><a xlink:href="UVFieldProcessor_8hpp.html" target="_top" xlink:title=" ">
<polygon fill="white" stroke="#666666" points="594,-503 472,-503 472,-484 594,-484 594,-503"/>
<text text-anchor="middle" x="533" y="-491" font-family="Helvetica,sans-Serif" font-size="10.00">UVFieldProcessor.hpp</text>
</a>
</g>
</g>
<!-- Node1&#45;&gt;Node2 -->
<g id="edge1_Node000001_Node000002" class="edge">
<title>Node1&#45;&gt;Node2</title>
<g id="a_edge1_Node000001_Node000002"><a xlink:title=" ">
<path fill="none" stroke="#63b8ff" d="M533,-538.75C533,-531.8 533,-521.85 533,-513.13"/>
<polygon fill="#63b8ff" stroke="#63b8ff" points="536.5,-513.09 533,-503.09 529.5,-513.09 536.5,-513.09"/>
</a>
</g>
</g>
<!-- Node5 -->
<g id="Node000005" class="node">
<title>Node5</title>
<g id="a_Node000005"><a xlink:href="VKBuffer_8hpp.html" target="_top" xlink:title=" ">
<polygon fill="white" stroke="#666666" points="307,-321.5 139,-321.5 139,-302.5 307,-302.5 307,-321.5"/>
<text text-anchor="middle" x="223" y="-309.5" font-family="Helvetica,sans-Serif" font-size="10.00">MayaFlux/Buffers/VKBuffer.hpp</text>
</a>
</g>
</g>
<!-- Node1&#45;&gt;Node5 -->
<g id="edge29_Node000001_Node000005" class="edge">
<title>Node1&#45;&gt;Node5</title>
<g id="a_edge29_Node000001_Node000005"><a xlink:title=" ">
<path fill="none" stroke="#63b8ff" d="M472.43,-540.64C418.43,-533.49 344.41,-520.83 321,-503 262.95,-458.8 236.26,-370.44 227,-331.81"/>
<polygon fill="#63b8ff" stroke="#63b8ff" points="230.38,-330.89 224.76,-321.91 223.56,-332.44 230.38,-330.89"/>
</a>
</g>
</g>
<!-- Node17 -->
<g id="Node000017" class="node">
<title>Node17</title>
<g id="a_Node000017"><a xlink:href="ShaderFoundry_8hpp.html" target="_top" xlink:title=" ">
<polygon fill="white" stroke="#666666" points="489.5,-261 380.5,-261 380.5,-242 489.5,-242 489.5,-261"/>
<text text-anchor="middle" x="435" y="-249" font-family="Helvetica,sans-Serif" font-size="10.00">ShaderFoundry.hpp</text>
</a>
</g>
</g>
<!-- Node1&#45;&gt;Node17 -->
<g id="edge37_Node000001_Node000017" class="edge">
<title>Node1&#45;&gt;Node17</title>
<g id="a_edge37_Node000001_Node000017"><a xlink:title=" ">
<path fill="none" stroke="#63b8ff" d="M472.25,-540.12C414.04,-529.25 335,-502.84 335,-439.5 335,-439.5 335,-439.5 335,-377 335,-340.46 331.86,-326.07 354,-297 365.03,-282.52 382.19,-272.13 397.88,-265.06"/>
<polygon fill="#63b8ff" stroke="#63b8ff" points="399.53,-268.16 407.4,-261.07 396.82,-261.71 399.53,-268.16"/>
</a>
</g>
</g>
<!-- Node20 -->
<g id="Node000020" class="node">
<title>Node20</title>
<g id="a_Node000020"><a xlink:href="VKImage_8hpp.html" target="_top" xlink:title=" ">
<polygon fill="white" stroke="#666666" points="820,-206 654,-206 654,-176 820,-176 820,-206"/>
<text text-anchor="start" x="662" y="-194" font-family="Helvetica,sans-Serif" font-size="10.00">MayaFlux/Core/Backends</text>
<text text-anchor="middle" x="737" y="-183" font-family="Helvetica,sans-Serif" font-size="10.00">/Graphics/Vulkan/VKImage.hpp</text>
</a>
</g>
</g>
<!-- Node1&#45;&gt;Node20 -->
<g id="edge26_Node000001_Node000020" class="edge">
<title>Node1&#45;&gt;Node20</title>
<g id="a_edge26_Node000001_Node000020"><a xlink:title=" ">
<path fill="none" stroke="#63b8ff" d="M593.75,-540.12C651.96,-529.25 731,-502.84 731,-439.5 731,-439.5 731,-439.5 731,-311 731,-278.17 733.31,-240.32 735.06,-216.28"/>
<polygon fill="#63b8ff" stroke="#63b8ff" points="738.55,-216.51 735.81,-206.28 731.57,-215.98 738.55,-216.51"/>
</a>
</g>
</g>
<!-- Node21 -->
<g id="Node000021" class="node">
<title>Node21</title>
<g id="a_Node000021"><a xlink:href="Archivist_8hpp.html" target="_top" xlink:title=" ">
<polygon fill="white" stroke="#666666" points="927,-503 759,-503 759,-484 927,-484 927,-503"/>
<text text-anchor="middle" x="843" y="-491" font-family="Helvetica,sans-Serif" font-size="10.00">MayaFlux/Journal/Archivist.hpp</text>
</a>
</g>
</g>
<!-- Node1&#45;&gt;Node21 -->
<g id="edge30_Node000001_Node000021" class="edge">
<title>Node1&#45;&gt;Node21</title>
<g id="a_edge30_Node000001_Node000021"><a xlink:title=" ">
<path fill="none" stroke="#63b8ff" d="M582.81,-538.98C637.3,-529.67 724.63,-514.74 782.89,-504.78"/>
<polygon fill="#63b8ff" stroke="#63b8ff" points="783.79,-508.17 793.06,-503.04 782.61,-501.27 783.79,-508.17"/>
</a>
</g>
</g>
<!-- Node3 -->
<g id="Node000003" class="node">
<title>Node3</title>
<g id="a_Node000003"><a xlink:href="ComputeProcessor_8hpp.html" target="_top" xlink:title=" ">
<polygon fill="white" stroke="#666666" points="502,-448 374,-448 374,-429 502,-429 502,-448"/>
<text text-anchor="middle" x="438" y="-436" font-family="Helvetica,sans-Serif" font-size="10.00">ComputeProcessor.hpp</text>
</a>
</g>
</g>
<!-- Node2&#45;&gt;Node3 -->
<g id="edge2_Node000002_Node000003" class="edge">
<title>Node2&#45;&gt;Node3</title>
<g id="a_edge2_Node000002_Node000003"><a xlink:title=" ">
<path fill="none" stroke="#63b8ff" d="M517.74,-483.98C502.87,-475.69 480.02,-462.94 462.58,-453.22"/>
<polygon fill="#63b8ff" stroke="#63b8ff" points="463.98,-449.99 453.54,-448.17 460.57,-456.1 463.98,-449.99"/>
</a>
</g>
</g>
<!-- Node18 -->
<g id="Node000018" class="node">
<title>Node18</title>
<g id="a_Node000018"><a xlink:href="SamplerForge_8hpp.html" target="_top" xlink:title=" ">
<polygon fill="white" stroke="#666666" points="703,-327 561,-327 561,-297 703,-297 703,-327"/>
<text text-anchor="start" x="569" y="-315" font-family="Helvetica,sans-Serif" font-size="10.00">MayaFlux/Portal/Graphics</text>
<text text-anchor="middle" x="632" y="-304" font-family="Helvetica,sans-Serif" font-size="10.00">/SamplerForge.hpp</text>
</a>
</g>
</g>
<!-- Node2&#45;&gt;Node18 -->
<g id="edge20_Node000002_Node000018" class="edge">
<title>Node2&#45;&gt;Node18</title>
<g id="a_edge20_Node000002_Node000018"><a xlink:title=" ">
<path fill="none" stroke="#63b8ff" d="M537.77,-483.84C552.44,-457.26 597.14,-376.2 619.29,-336.04"/>
<polygon fill="#63b8ff" stroke="#63b8ff" points="622.39,-337.67 624.16,-327.22 616.26,-334.29 622.39,-337.67"/>
</a>
</g>
</g>
<!-- Node19 -->
<g id="Node000019" class="node">
<title>Node19</title>
<g id="a_Node000019"><a xlink:href="TextureLoom_8hpp.html" target="_top" xlink:title=" ">
<polygon fill="white" stroke="#666666" points="598,-206 456,-206 456,-176 598,-176 598,-206"/>
<text text-anchor="start" x="464" y="-194" font-family="Helvetica,sans-Serif" font-size="10.00">MayaFlux/Portal/Graphics</text>
<text text-anchor="middle" x="527" y="-183" font-family="Helvetica,sans-Serif" font-size="10.00">/TextureLoom.hpp</text>
</a>
</g>
</g>
<!-- Node2&#45;&gt;Node19 -->
<g id="edge22_Node000002_Node000019" class="edge">
<title>Node2&#45;&gt;Node19</title>
<g id="a_edge22_Node000002_Node000019"><a xlink:title=" ">
<path fill="none" stroke="#63b8ff" d="M533,-483.96C533,-465.05 533,-418.21 533,-379 533,-379 533,-379 533,-311 533,-278.17 530.69,-240.32 528.94,-216.28"/>
<polygon fill="#63b8ff" stroke="#63b8ff" points="532.43,-215.98 528.19,-206.28 525.45,-216.51 532.43,-215.98"/>
</a>
</g>
</g>
<!-- Node4 -->
<g id="Node000004" class="node">
<title>Node4</title>
<g id="a_Node000004"><a xlink:href="ShaderProcessor_8hpp.html" target="_top" xlink:title=" ">
<polygon fill="white" stroke="#666666" points="493,-387.5 375,-387.5 375,-368.5 493,-368.5 493,-387.5"/>
<text text-anchor="middle" x="434" y="-375.5" font-family="Helvetica,sans-Serif" font-size="10.00">ShaderProcessor.hpp</text>
</a>
</g>
</g>
<!-- Node3&#45;&gt;Node4 -->
<g id="edge3_Node000003_Node000004" class="edge">
<title>Node3&#45;&gt;Node4</title>
<g id="a_edge3_Node000003_Node000004"><a xlink:title=" ">
<path fill="none" stroke="#63b8ff" d="M437.41,-428.87C436.85,-420.75 436,-408.31 435.29,-397.89"/>
<polygon fill="#63b8ff" stroke="#63b8ff" points="438.77,-397.41 434.59,-387.67 431.78,-397.88 438.77,-397.41"/>
</a>
</g>
</g>
<!-- Node4&#45;&gt;Node5 -->
<g id="edge4_Node000004_Node000005" class="edge">
<title>Node4&#45;&gt;Node5</title>
<g id="a_edge4_Node000004_Node000005"><a xlink:title=" ">
<path fill="none" stroke="#63b8ff" d="M405.54,-368.37C368.24,-357.05 302.67,-337.16 261.1,-324.56"/>
<polygon fill="#63b8ff" stroke="#63b8ff" points="261.93,-321.15 251.34,-321.6 259.9,-327.85 261.93,-321.15"/>
</a>
</g>
</g>
<!-- Node16 -->
<g id="Node000016" class="node">
<title>Node16</title>
<g id="a_Node000016"><a xlink:href="ComputePress_8hpp.html" target="_top" xlink:title=" ">
<polygon fill="white" stroke="#666666" points="505,-327 363,-327 363,-297 505,-297 505,-327"/>
<text text-anchor="start" x="371" y="-315" font-family="Helvetica,sans-Serif" font-size="10.00">MayaFlux/Portal/Graphics</text>
<text text-anchor="middle" x="434" y="-304" font-family="Helvetica,sans-Serif" font-size="10.00">/ComputePress.hpp</text>
</a>
</g>
</g>
<!-- Node4&#45;&gt;Node16 -->
<g id="edge17_Node000004_Node000016" class="edge">
<title>Node4&#45;&gt;Node16</title>
<g id="a_edge17_Node000004_Node000016"><a xlink:title=" ">
<path fill="none" stroke="#63b8ff" d="M434,-368.37C434,-360.49 434,-348.45 434,-337.6"/>
<polygon fill="#63b8ff" stroke="#63b8ff" points="437.5,-337.36 434,-327.36 430.5,-337.36 437.5,-337.36"/>
</a>
</g>
</g>
<!-- Node6 -->
<g id="Node000006" class="node">
<title>Node6</title>
<g id="a_Node000006"><a xlink:href="Buffer_8hpp.html" target="_top" xlink:title=" ">
<polygon fill="white" stroke="#666666" points="66,-261 0,-261 0,-242 66,-242 66,-261"/>
<text text-anchor="middle" x="33" y="-249" font-family="Helvetica,sans-Serif" font-size="10.00">Buffer.hpp</text>
</a>
</g>
</g>
<!-- Node5&#45;&gt;Node6 -->
<g id="edge5_Node000005_Node000006" class="edge">
<title>Node5&#45;&gt;Node6</title>
<g id="a_edge5_Node000005_Node000006"><a xlink:title=" ">
<path fill="none" stroke="#63b8ff" d="M195.37,-302.49C162.45,-292.36 107.27,-275.37 70.51,-264.05"/>
<polygon fill="#63b8ff" stroke="#63b8ff" points="71.25,-260.61 60.66,-261.02 69.19,-267.3 71.25,-260.61"/>
</a>
</g>
</g>
<!-- Node7 -->
<g id="Node000007" class="node">
<title>Node7</title>
<g id="a_Node000007"><a xlink:href="BufferProcessor_8hpp.html" target="_top" xlink:title=" ">
<polygon fill="white" stroke="#666666" points="324,-261 122,-261 122,-242 324,-242 324,-261"/>
<text text-anchor="middle" x="223" y="-249" font-family="Helvetica,sans-Serif" font-size="10.00">MayaFlux/Buffers/BufferProcessor.hpp</text>
</a>
</g>
</g>
<!-- Node5&#45;&gt;Node7 -->
<g id="edge6_Node000005_Node000007" class="edge">
<title>Node5&#45;&gt;Node7</title>
<g id="a_edge6_Node000005_Node000007"><a xlink:title=" ">
<path fill="none" stroke="#63b8ff" d="M223,-302.37C223,-294.25 223,-281.81 223,-271.39"/>
<polygon fill="#63b8ff" stroke="#63b8ff" points="226.5,-271.17 223,-261.17 219.5,-271.17 226.5,-271.17"/>
</a>
</g>
</g>
<!-- Node9 -->
<g id="Node000009" class="node">
<title>Node9</title>
<g id="a_Node000009"><a xlink:href="ProcessingTokens_8hpp.html" target="_top" xlink:title=" ">
<polygon fill="white" stroke="#666666" points="181,-140 35,-140 35,-110 181,-110 181,-140"/>
<text text-anchor="start" x="43" y="-128" font-family="Helvetica,sans-Serif" font-size="10.00">MayaFlux/Core/Processing</text>
<text text-anchor="middle" x="108" y="-117" font-family="Helvetica,sans-Serif" font-size="10.00">Tokens.hpp</text>
</a>
</g>
</g>
<!-- Node5&#45;&gt;Node9 -->
<g id="edge12_Node000005_Node000009" class="edge">
<title>Node5&#45;&gt;Node9</title>
<g id="a_edge12_Node000005_Node000009"><a xlink:title=" ">
<path fill="none" stroke="#63b8ff" d="M178.38,-302.48C154.81,-295.51 127.78,-283.04 113,-261 90.76,-227.83 95.89,-179.07 101.82,-150.13"/>
<polygon fill="#63b8ff" stroke="#63b8ff" points="105.3,-150.6 104.08,-140.08 98.47,-149.07 105.3,-150.6"/>
</a>
</g>
</g>
<!-- Node13 -->
<g id="Node000013" class="node">
<title>Node13</title>
<g id="a_Node000013"><a xlink:href="ShaderUtils_8hpp.html" target="_top" xlink:title=" ">
<polygon fill="white" stroke="#666666" points="438,-206 296,-206 296,-176 438,-176 438,-206"/>
<text text-anchor="start" x="304" y="-194" font-family="Helvetica,sans-Serif" font-size="10.00">MayaFlux/Portal/Graphics</text>
<text text-anchor="middle" x="367" y="-183" font-family="Helvetica,sans-Serif" font-size="10.00">/ShaderUtils.hpp</text>
</a>
</g>
</g>
<!-- Node5&#45;&gt;Node13 -->
<g id="edge13_Node000005_Node000013" class="edge">
<title>Node5&#45;&gt;Node13</title>
<g id="a_edge13_Node000005_Node000013"><a xlink:title=" ">
<path fill="none" stroke="#63b8ff" d="M256.04,-302.5C279.88,-294.94 311.54,-281.81 333,-261 345.73,-248.66 354.4,-230.56 359.8,-215.99"/>
<polygon fill="#63b8ff" stroke="#63b8ff" points="363.24,-216.74 363.16,-206.14 356.62,-214.48 363.24,-216.74"/>
</a>
</g>
</g>
<!-- Node8 -->
<g id="Node000008" class="node">
<title>Node8</title>
<g id="a_Node000008"><a xlink:href="BufferUtils_8hpp.html" target="_top" xlink:title=" ">
<polygon fill="white" stroke="#666666" points="267.5,-200.5 178.5,-200.5 178.5,-181.5 267.5,-181.5 267.5,-200.5"/>
<text text-anchor="middle" x="223" y="-188.5" font-family="Helvetica,sans-Serif" font-size="10.00">BufferUtils.hpp</text>
</a>
</g>
</g>
<!-- Node7&#45;&gt;Node8 -->
<g id="edge7_Node000007_Node000008" class="edge">
<title>Node7&#45;&gt;Node8</title>
<g id="a_edge7_Node000007_Node000008"><a xlink:title=" ">
<path fill="none" stroke="#63b8ff" d="M223,-241.87C223,-233.75 223,-221.31 223,-210.89"/>
<polygon fill="#63b8ff" stroke="#63b8ff" points="226.5,-210.67 223,-200.67 219.5,-210.67 226.5,-210.67"/>
</a>
</g>
</g>
<!-- Node8&#45;&gt;Node9 -->
<g id="edge8_Node000008_Node000009" class="edge">
<title>Node8&#45;&gt;Node9</title>
<g id="a_edge8_Node000008_Node000009"><a xlink:title=" ">
<path fill="none" stroke="#63b8ff" d="M207.49,-181.37C190.86,-172.11 163.93,-157.12 142.27,-145.07"/>
<polygon fill="#63b8ff" stroke="#63b8ff" points="143.8,-141.92 133.36,-140.12 140.4,-148.04 143.8,-141.92"/>
</a>
</g>
</g>
<!-- Node10 -->
<g id="Node000010" class="node">
<title>Node10</title>
<g id="a_Node000010"><a xlink:href="VertexLayout_8hpp.html" target="_top" xlink:title=" ">
<polygon fill="white" stroke="#666666" points="382.5,-140 231.5,-140 231.5,-110 382.5,-110 382.5,-140"/>
<text text-anchor="start" x="239.5" y="-128" font-family="Helvetica,sans-Serif" font-size="10.00">MayaFlux/Kakshya/NDData</text>
<text text-anchor="middle" x="307" y="-117" font-family="Helvetica,sans-Serif" font-size="10.00">/VertexLayout.hpp</text>
</a>
</g>
</g>
<!-- Node8&#45;&gt;Node10 -->
<g id="edge9_Node000008_Node000010" class="edge">
<title>Node8&#45;&gt;Node10</title>
<g id="a_edge9_Node000008_Node000010"><a xlink:title=" ">
<path fill="none" stroke="#63b8ff" d="M234.33,-181.37C246.04,-172.44 264.75,-158.19 280.26,-146.38"/>
<polygon fill="#63b8ff" stroke="#63b8ff" points="282.64,-148.96 288.47,-140.12 278.4,-143.39 282.64,-148.96"/>
</a>
</g>
</g>
<!-- Node11 -->
<g id="Node000011" class="node">
<title>Node11</title>
<g id="a_Node000011"><a xlink:href="NDData_8hpp.html" target="_top" xlink:title=" ">
<polygon fill="white" stroke="#666666" points="570,-74 494,-74 494,-55 570,-55 570,-74"/>
<text text-anchor="middle" x="532" y="-62" font-family="Helvetica,sans-Serif" font-size="10.00">NDData.hpp</text>
</a>
</g>
</g>
<!-- Node10&#45;&gt;Node11 -->
<g id="edge10_Node000010_Node000011" class="edge">
<title>Node10&#45;&gt;Node11</title>
<g id="a_edge10_Node000010_Node000011"><a xlink:title=" ">
<path fill="none" stroke="#63b8ff" d="M360.89,-109.99C400.23,-99.76 452.82,-86.09 489.27,-76.61"/>
<polygon fill="#63b8ff" stroke="#63b8ff" points="490.3,-79.96 499.1,-74.05 488.54,-73.18 490.3,-79.96"/>
</a>
</g>
</g>
<!-- Node12 -->
<g id="Node000012" class="node">
<title>Node12</title>
<g id="a_Node000012"><a xlink:title=" ">
<polygon fill="#e0e0e0" stroke="#999999" points="571,-19 493,-19 493,0 571,0 571,-19"/>
<text text-anchor="middle" x="532" y="-7" font-family="Helvetica,sans-Serif" font-size="10.00">glm/glm.hpp</text>
</a>
</g>
</g>
<!-- Node11&#45;&gt;Node12 -->
<g id="edge11_Node000011_Node000012" class="edge">
<title>Node11&#45;&gt;Node12</title>
<g id="a_edge11_Node000011_Node000012"><a xlink:title=" ">
<path fill="none" stroke="#63b8ff" d="M532,-54.75C532,-47.8 532,-37.85 532,-29.13"/>
<polygon fill="#63b8ff" stroke="#63b8ff" points="535.5,-29.09 532,-19.09 528.5,-29.09 535.5,-29.09"/>
</a>
</g>
</g>
<!-- Node13&#45;&gt;Node10 -->
<g id="edge16_Node000013_Node000010" class="edge">
<title>Node13&#45;&gt;Node10</title>
<g id="a_edge16_Node000013_Node000010"><a xlink:title=" ">
<path fill="none" stroke="#63b8ff" d="M353.68,-175.8C345.92,-167.51 335.96,-156.89 327.24,-147.59"/>
<polygon fill="#63b8ff" stroke="#63b8ff" points="329.67,-145.07 320.28,-140.16 324.56,-149.85 329.67,-145.07"/>
</a>
</g>
</g>
<!-- Node14 -->
<g id="Node000014" class="node">
<title>Node14</title>
<g id="a_Node000014"><a xlink:title=" ">
<polygon fill="#e0e0e0" stroke="#999999" points="674.5,-134.5 569.5,-134.5 569.5,-115.5 674.5,-115.5 674.5,-134.5"/>
<text text-anchor="middle" x="622" y="-122.5" font-family="Helvetica,sans-Serif" font-size="10.00">vulkan/vulkan.hpp</text>
</a>
</g>
</g>
<!-- Node13&#45;&gt;Node14 -->
<g id="edge14_Node000013_Node000014" class="edge">
<title>Node13&#45;&gt;Node14</title>
<g id="a_edge14_Node000013_Node000014"><a xlink:title=" ">
<path fill="none" stroke="#63b8ff" d="M422.96,-175.95C469.65,-164.24 535.27,-147.77 578.2,-136.99"/>
<polygon fill="#63b8ff" stroke="#63b8ff" points="579.22,-140.35 588.06,-134.52 577.51,-133.56 579.22,-140.35"/>
</a>
</g>
</g>
<!-- Node15 -->
<g id="Node000015" class="node">
<title>Node15</title>
<g id="a_Node000015"><a xlink:href="GraphicsUtils_8hpp.html" target="_top" xlink:title=" ">
<polygon fill="white" stroke="#666666" points="503.5,-134.5 400.5,-134.5 400.5,-115.5 503.5,-115.5 503.5,-134.5"/>
<text text-anchor="middle" x="452" y="-122.5" font-family="Helvetica,sans-Serif" font-size="10.00">GraphicsUtils.hpp</text>
</a>
</g>
</g>
<!-- Node13&#45;&gt;Node15 -->
<g id="edge15_Node000013_Node000015" class="edge">
<title>Node13&#45;&gt;Node15</title>
<g id="a_edge15_Node000013_Node000015"><a xlink:title=" ">
<path fill="none" stroke="#63b8ff" d="M385.86,-175.8C399.64,-165.43 418.26,-151.4 432.24,-140.88"/>
<polygon fill="#63b8ff" stroke="#63b8ff" points="434.37,-143.66 440.25,-134.84 430.16,-138.06 434.37,-143.66"/>
</a>
</g>
</g>
<!-- Node16&#45;&gt;Node17 -->
<g id="edge18_Node000016_Node000017" class="edge">
<title>Node16&#45;&gt;Node17</title>
<g id="a_edge18_Node000016_Node000017"><a xlink:title=" ">
<path fill="none" stroke="#63b8ff" d="M434.24,-296.84C434.37,-289.21 434.53,-279.7 434.68,-271.45"/>
<polygon fill="#63b8ff" stroke="#63b8ff" points="438.18,-271.32 434.85,-261.27 431.18,-271.2 438.18,-271.32"/>
</a>
</g>
</g>
<!-- Node17&#45;&gt;Node13 -->
<g id="edge19_Node000017_Node000013" class="edge">
<title>Node17&#45;&gt;Node13</title>
<g id="a_edge19_Node000017_Node000013"><a xlink:title=" ">
<path fill="none" stroke="#63b8ff" d="M424.97,-241.87C416.08,-234.22 402.75,-222.76 391.12,-212.75"/>
<polygon fill="#63b8ff" stroke="#63b8ff" points="393.27,-209.98 383.41,-206.11 388.7,-215.29 393.27,-209.98"/>
</a>
</g>
</g>
<!-- Node18&#45;&gt;Node14 -->
<g id="edge21_Node000018_Node000014" class="edge">
<title>Node18&#45;&gt;Node14</title>
<g id="a_edge21_Node000018_Node000014"><a xlink:title=" ">
<path fill="none" stroke="#63b8ff" d="M631.23,-296.79C629.45,-263.81 625.03,-182.05 623.02,-144.9"/>
<polygon fill="#63b8ff" stroke="#63b8ff" points="626.5,-144.33 622.46,-134.53 619.51,-144.7 626.5,-144.33"/>
</a>
</g>
</g>
<!-- Node19&#45;&gt;Node11 -->
<g id="edge25_Node000019_Node000011" class="edge">
<title>Node19&#45;&gt;Node11</title>
<g id="a_edge25_Node000019_Node000011"><a xlink:title=" ">
<path fill="none" stroke="#63b8ff" d="M527.57,-175.72C528.48,-153.12 530.25,-109.12 531.25,-84.09"/>
<polygon fill="#63b8ff" stroke="#63b8ff" points="534.75,-84.2 531.66,-74.07 527.76,-83.92 534.75,-84.2"/>
</a>
</g>
</g>
<!-- Node19&#45;&gt;Node14 -->
<g id="edge23_Node000019_Node000014" class="edge">
<title>Node19&#45;&gt;Node14</title>
<g id="a_edge23_Node000019_Node000014"><a xlink:title=" ">
<path fill="none" stroke="#63b8ff" d="M548.08,-175.8C563.71,-165.27 584.93,-150.97 600.63,-140.4"/>
<polygon fill="#63b8ff" stroke="#63b8ff" points="602.81,-143.15 609.15,-134.66 598.9,-137.34 602.81,-143.15"/>
</a>
</g>
</g>
<!-- Node19&#45;&gt;Node15 -->
<g id="edge24_Node000019_Node000015" class="edge">
<title>Node19&#45;&gt;Node15</title>
<g id="a_edge24_Node000019_Node000015"><a xlink:title=" ">
<path fill="none" stroke="#63b8ff" d="M510.36,-175.8C498.43,-165.62 482.39,-151.93 470.14,-141.48"/>
<polygon fill="#63b8ff" stroke="#63b8ff" points="472.24,-138.67 462.36,-134.84 467.7,-144 472.24,-138.67"/>
</a>
</g>
</g>
<!-- Node20&#45;&gt;Node11 -->
<g id="edge27_Node000020_Node000011" class="edge">
<title>Node20&#45;&gt;Node11</title>
<g id="a_edge27_Node000020_Node000011"><a xlink:title=" ">
<path fill="none" stroke="#63b8ff" d="M731.17,-175.93C723.02,-157.99 706.53,-127.22 683,-110 652.85,-87.93 611.84,-76.74 580.17,-71.11"/>
<polygon fill="#63b8ff" stroke="#63b8ff" points="580.68,-67.65 570.24,-69.47 579.53,-74.55 580.68,-67.65"/>
</a>
</g>
</g>
<!-- Node20&#45;&gt;Node14 -->
<g id="edge28_Node000020_Node000014" class="edge">
<title>Node20&#45;&gt;Node14</title>
<g id="a_edge28_Node000020_Node000014"><a xlink:title=" ">
<path fill="none" stroke="#63b8ff" d="M711.76,-175.95C692.22,-165.08 665.32,-150.11 646.07,-139.4"/>
<polygon fill="#63b8ff" stroke="#63b8ff" points="647.74,-136.32 637.3,-134.52 644.34,-142.44 647.74,-136.32"/>
</a>
</g>
</g>
<!-- Node22 -->
<g id="Node000022" class="node">
<title>Node22</title>
<g id="a_Node000022"><a xlink:href="Format_8hpp.html" target="_top" xlink:title=" ">
<polygon fill="white" stroke="#666666" points="870,-448 798,-448 798,-429 870,-429 870,-448"/>
<text text-anchor="middle" x="834" y="-436" font-family="Helvetica,sans-Serif" font-size="10.00">Format.hpp</text>
</a>
</g>
</g>
<!-- Node21&#45;&gt;Node22 -->
<g id="edge31_Node000021_Node000022" class="edge">
<title>Node21&#45;&gt;Node22</title>
<g id="a_edge31_Node000021_Node000022"><a xlink:title=" ">
<path fill="none" stroke="#63b8ff" d="M841.51,-483.75C840.33,-476.8 838.64,-466.85 837.16,-458.13"/>
<polygon fill="#63b8ff" stroke="#63b8ff" points="840.58,-457.36 835.46,-448.09 833.68,-458.53 840.58,-457.36"/>
</a>
</g>
</g>
<!-- Node23 -->
<g id="Node000023" class="node">
<title>Node23</title>
<g id="a_Node000023"><a xlink:href="JournalEntry_8hpp.html" target="_top" xlink:title=" ">
<polygon fill="white" stroke="#666666" points="983.5,-448 888.5,-448 888.5,-429 983.5,-429 983.5,-448"/>
<text text-anchor="middle" x="936" y="-436" font-family="Helvetica,sans-Serif" font-size="10.00">JournalEntry.hpp</text>
</a>
</g>
</g>
<!-- Node21&#45;&gt;Node23 -->
<g id="edge32_Node000021_Node000023" class="edge">
<title>Node21&#45;&gt;Node23</title>
<g id="a_edge32_Node000021_Node000023"><a xlink:title=" ">
<path fill="none" stroke="#63b8ff" d="M857.94,-483.98C872.5,-475.69 894.87,-462.94 911.93,-453.22"/>
<polygon fill="#63b8ff" stroke="#63b8ff" points="913.83,-456.16 920.79,-448.17 910.36,-450.08 913.83,-456.16"/>
</a>
</g>
</g>
<!-- Node24 -->
<g id="Node000024" class="node">
<title>Node24</title>
<g id="a_Node000024"><a xlink:href="EnumReflect_8hpp.html" target="_top" xlink:title=" ">
<polygon fill="white" stroke="#666666" points="1110.5,-393 971.5,-393 971.5,-363 1110.5,-363 1110.5,-393"/>
<text text-anchor="start" x="979.5" y="-381" font-family="Helvetica,sans-Serif" font-size="10.00">MayaFlux/Transitive</text>
<text text-anchor="middle" x="1041" y="-370" font-family="Helvetica,sans-Serif" font-size="10.00">/Reflect/EnumReflect.hpp</text>
</a>
</g>
</g>
<!-- Node23&#45;&gt;Node24 -->
<g id="edge33_Node000023_Node000024" class="edge">
<title>Node23&#45;&gt;Node24</title>
<g id="a_edge33_Node000023_Node000024"><a xlink:title=" ">
<path fill="none" stroke="#63b8ff" d="M951.49,-428.87C966,-420.78 988.19,-408.42 1006.84,-398.03"/>
<polygon fill="#63b8ff" stroke="#63b8ff" points="1008.63,-401.04 1015.67,-393.11 1005.23,-394.92 1008.63,-401.04"/>
</a>
</g>
</g>
<!-- Node25 -->
<g id="Node000025" class="node">
<title>Node25</title>
<g id="a_Node000025"><a xlink:title=" ">
<polygon fill="#e0e0e0" stroke="#999999" points="1179,-387.5 1129,-387.5 1129,-368.5 1179,-368.5 1179,-387.5"/>
<text text-anchor="middle" x="1154" y="-375.5" font-family="Helvetica,sans-Serif" font-size="10.00">chrono</text>
</a>
</g>
</g>
<!-- Node23&#45;&gt;Node25 -->
<g id="edge34_Node000023_Node000025" class="edge">
<title>Node23&#45;&gt;Node25</title>
<g id="a_edge34_Node000023_Node000025"><a xlink:title=" ">
<path fill="none" stroke="#63b8ff" d="M979.28,-429C1016.9,-421.14 1072.64,-408.38 1120,-393 1121.67,-392.46 1123.37,-391.87 1125.08,-391.25"/>
<polygon fill="#63b8ff" stroke="#63b8ff" points="1126.7,-394.38 1134.77,-387.52 1124.18,-387.85 1126.7,-394.38"/>
</a>
</g>
</g>
<!-- Node26 -->
<g id="Node000026" class="node">
<title>Node26</title>
<g id="a_Node000026"><a xlink:title=" ">
<polygon fill="#e0e0e0" stroke="#999999" points="862.5,-387.5 769.5,-387.5 769.5,-368.5 862.5,-368.5 862.5,-387.5"/>
<text text-anchor="middle" x="816" y="-375.5" font-family="Helvetica,sans-Serif" font-size="10.00">source_location</text>
</a>
</g>
</g>
<!-- Node23&#45;&gt;Node26 -->
<g id="edge35_Node000023_Node000026" class="edge">
<title>Node23&#45;&gt;Node26</title>
<g id="a_edge35_Node000023_Node000026"><a xlink:title=" ">
<path fill="none" stroke="#63b8ff" d="M918.55,-428.99C898.64,-419.29 865.86,-403.31 842.73,-392.03"/>
<polygon fill="#63b8ff" stroke="#63b8ff" points="843.99,-388.75 833.47,-387.52 840.93,-395.04 843.99,-388.75"/>
</a>
</g>
</g>
<!-- Node27 -->
<g id="Node000027" class="node">
<title>Node27</title>
<g id="a_Node000027"><a xlink:title=" ">
<polygon fill="#e0e0e0" stroke="#999999" points="953.5,-387.5 880.5,-387.5 880.5,-368.5 953.5,-368.5 953.5,-387.5"/>
<text text-anchor="middle" x="917" y="-375.5" font-family="Helvetica,sans-Serif" font-size="10.00">string_view</text>
</a>
</g>
</g>
<!-- Node23&#45;&gt;Node27 -->
<g id="edge36_Node000023_Node000027" class="edge">
<title>Node23&#45;&gt;Node27</title>
<g id="a_edge36_Node000023_Node000027"><a xlink:title=" ">
<path fill="none" stroke="#63b8ff" d="M933.2,-428.87C930.5,-420.57 926.35,-407.78 922.92,-397.22"/>
<polygon fill="#63b8ff" stroke="#63b8ff" points="926.23,-396.1 919.82,-387.67 919.58,-398.26 926.23,-396.1"/>
</a>
</g>
</g>
</g>
</svg>

<g id="navigator" transform="translate(0 0)" fill="#404254">
  <rect fill="#f2f5e9" fill-opacity="0.5" stroke="#606060" stroke-width=".5" x="0" y="0" width="60" height="60"/>
  <use id="zoomplus" xlink:href="#zoomPlus" x="17" y="9" onmousedown="handleZoom(evt,'in')"/>
  <use id="zoomminus" xlink:href="#zoomMin" x="42" y="9" onmousedown="handleZoom(evt,'out')"/>
  <use id="reset" xlink:href="#resetDef" x="30" y="36" onmousedown="handleReset()"/>
   <use id="arrowup" xlink:href="#arrowUp" x="0" y="0" onmousedown="handlePan(0,-1)"/>
  <use id="arrowright" xlink:href="#arrowRight" x="0" y="0" onmousedown="handlePan(1,0)"/>
  <use id="arrowdown" xlink:href="#arrowDown" x="0" y="0" onmousedown="handlePan(0,1)"/>
  <use id="arrowleft" xlink:href="#arrowLeft" x="0" y="0" onmousedown="handlePan(-1,0)"/>
</g>
<svg viewBox="0 0 15 15" width="100%" height="30px" preserveAspectRatio="xMaxYMin meet">
 <g id="arrow_out" transform="scale(0.3 0.3)">
  <a xlink:href="UVFieldProcessor_8cpp__incl_org.svg" target="_base">
   <rect id="button" ry="5" rx="5" y="6" x="6" height="38" width="38"
        fill="#f2f5e9" fill-opacity="0.5" stroke="#606060" stroke-width="1.0"/>
   <path id="arrow"
     d="M 11.500037,31.436501 C 11.940474,20.09759 22.043105,11.32322 32.158766,21.979434 L 37.068811,17.246167 C 37.068811,17.246167 37.088388,32 37.088388,32 L 22.160133,31.978069 C 22.160133,31.978069 26.997745,27.140456 26.997745,27.140456 C 18.528582,18.264221 13.291696,25.230495 11.500037,31.436501 z"
     style="fill:#404040;"/>
  </a>
 </g>
</svg>

<style type='text/css'>
<![CDATA[
[data-mouse-over-selected='false'] { opacity: 0.7; }
[data-mouse-over-selected='true']  { opacity: 1.0; }
]]>
</style>
<script type="application/ecmascript"><![CDATA[
document.addEventListener('DOMContentLoaded', (event) => {
  highlightEdges();
  highlightAdjacentNodes();
});
]]></script>
</svg>
