<?xml version="1.0" encoding="UTF-8" standalone="no"?>
<!DOCTYPE svg PUBLIC "-//W3C//DTD SVG 1.1//EN"
 "http://www.w3.org/Graphics/SVG/1.1/DTD/svg11.dtd">
<!-- Generated by graphviz version 2.43.0 (0)
 -->
<!-- Title: VisionOp.hpp Pages: 1 -->
<svg width="522pt" height="192pt"
 viewBox="0.00 0.00 522.00 192.00" xmlns="http://www.w3.org/2000/svg" xmlns:xlink="http://www.w3.org/1999/xlink">
<g id="graph0" class="graph" transform="scale(1 1) rotate(0) translate(4 188)">
<title>VisionOp.hpp</title>
<!-- Node1 -->
<g id="Node000001" class="node">
<title>Node1</title>
<g id="a_Node000001"><a xlink:title="Declarative description of a Kinesis::Vision processing sequence.">
<polygon fill="#999999" stroke="#666666" points="282.5,-184 201.5,-184 201.5,-165 282.5,-165 282.5,-184"/>
<text text-anchor="middle" x="242" y="-172" font-family="Helvetica,sans-Serif" font-size="10.00">VisionOp.hpp</text>
</a>
</g>
</g>
<!-- Node2 -->
<g id="Node000002" class="node">
<title>Node2</title>
<g id="a_Node000002"><a xlink:href="ImageCVProcessor_8hpp.html" target="_top" xlink:title=" ">
<polygon fill="white" stroke="#666666" points="128,-74 0,-74 0,-55 128,-55 128,-74"/>
<text text-anchor="middle" x="64" y="-62" font-family="Helvetica,sans-Serif" font-size="10.00">ImageCVProcessor.hpp</text>
</a>
</g>
</g>
<!-- Node1&#45;&gt;Node2 -->
<g id="edge1_Node000001_Node000002" class="edge">
<title>Node1&#45;&gt;Node2</title>
<g id="a_edge1_Node000001_Node000002"><a xlink:title=" ">
<path fill="none" stroke="#63b8ff" d="M219.07,-159.59C181.79,-136.97 109.12,-92.88 78.33,-74.2"/>
<polygon fill="#63b8ff" stroke="#63b8ff" points="217.37,-162.65 227.73,-164.84 221,-156.66 217.37,-162.65"/>
</a>
</g>
</g>
<!-- Node3 -->
<g id="Node000003" class="node">
<title>Node3</title>
<g id="a_Node000003"><a xlink:href="VisionAnalyzer_8hpp.html" target="_top" xlink:title=" ">
<polygon fill="white" stroke="#666666" points="256,-74 146,-74 146,-55 256,-55 256,-74"/>
<text text-anchor="middle" x="201" y="-62" font-family="Helvetica,sans-Serif" font-size="10.00">VisionAnalyzer.hpp</text>
</a>
</g>
</g>
<!-- Node1&#45;&gt;Node3 -->
<g id="edge2_Node000001_Node000003" class="edge">
<title>Node1&#45;&gt;Node3</title>
<g id="a_edge2_Node000001_Node000003"><a xlink:title=" ">
<path fill="none" stroke="#63b8ff" d="M232.36,-155.73C228.23,-147.71 223.55,-138.02 220,-129 212.5,-109.94 206.24,-86.69 203.13,-74.28"/>
<polygon fill="#63b8ff" stroke="#63b8ff" points="229.4,-157.63 237.17,-164.83 235.59,-154.36 229.4,-157.63"/>
</a>
</g>
</g>
<!-- Node5 -->
<g id="Node000005" class="node">
<title>Node5</title>
<g id="a_Node000005"><a xlink:href="VisionExecutor_8hpp.html" target="_top" xlink:title="Dispatch engine for VisionSequence execution.">
<polygon fill="white" stroke="#666666" points="338.5,-129 229.5,-129 229.5,-110 338.5,-110 338.5,-129"/>
<text text-anchor="middle" x="284" y="-117" font-family="Helvetica,sans-Serif" font-size="10.00">VisionExecutor.hpp</text>
</a>
</g>
</g>
<!-- Node1&#45;&gt;Node5 -->
<g id="edge4_Node000001_Node000005" class="edge">
<title>Node1&#45;&gt;Node5</title>
<g id="a_edge4_Node000001_Node000005"><a xlink:title=" ">
<path fill="none" stroke="#63b8ff" d="M255.33,-156.67C262.61,-147.5 271.3,-136.52 277.19,-129.09"/>
<polygon fill="#63b8ff" stroke="#63b8ff" points="252.4,-154.74 248.94,-164.75 257.89,-159.08 252.4,-154.74"/>
</a>
</g>
</g>
<!-- Node7 -->
<g id="Node000007" class="node">
<title>Node7</title>
<g id="a_Node000007"><a xlink:href="VisionProcessor_8hpp.html" target="_top" xlink:title=" ">
<polygon fill="white" stroke="#666666" points="514,-74 400,-74 400,-55 514,-55 514,-74"/>
<text text-anchor="middle" x="457" y="-62" font-family="Helvetica,sans-Serif" font-size="10.00">VisionProcessor.hpp</text>
</a>
</g>
</g>
<!-- Node1&#45;&gt;Node7 -->
<g id="edge10_Node000001_Node000007" class="edge">
<title>Node1&#45;&gt;Node7</title>
<g id="a_edge10_Node000001_Node000007"><a xlink:title=" ">
<path fill="none" stroke="#63b8ff" d="M273.91,-161.16C294.96,-152.73 322.98,-140.97 347,-129 382.72,-111.2 422.92,-86.83 443.41,-74.07"/>
<polygon fill="#63b8ff" stroke="#63b8ff" points="272.49,-157.96 264.48,-164.9 275.07,-164.47 272.49,-157.96"/>
</a>
</g>
</g>
<!-- Node4 -->
<g id="Node000004" class="node">
<title>Node4</title>
<g id="a_Node000004"><a xlink:href="VisionAnalyzer_8cpp.html" target="_top" xlink:title=" ">
<polygon fill="white" stroke="#666666" points="255.5,-19 146.5,-19 146.5,0 255.5,0 255.5,-19"/>
<text text-anchor="middle" x="201" y="-7" font-family="Helvetica,sans-Serif" font-size="10.00">VisionAnalyzer.cpp</text>
</a>
</g>
</g>
<!-- Node3&#45;&gt;Node4 -->
<g id="edge3_Node000003_Node000004" class="edge">
<title>Node3&#45;&gt;Node4</title>
<g id="a_edge3_Node000003_Node000004"><a xlink:title=" ">
<path fill="none" stroke="#63b8ff" d="M201,-44.66C201,-35.93 201,-25.99 201,-19.09"/>
<polygon fill="#63b8ff" stroke="#63b8ff" points="197.5,-44.75 201,-54.75 204.5,-44.75 197.5,-44.75"/>
</a>
</g>
</g>
<!-- Node5&#45;&gt;Node2 -->
<g id="edge5_Node000005_Node000002" class="edge">
<title>Node5&#45;&gt;Node2</title>
<g id="a_edge5_Node000005_Node000002"><a xlink:title=" ">
<path fill="none" stroke="#63b8ff" d="M238.87,-107.63C197.66,-97.7 137.55,-83.22 99.62,-74.08"/>
<polygon fill="#63b8ff" stroke="#63b8ff" points="238.11,-111.05 248.65,-109.98 239.75,-104.24 238.11,-111.05"/>
</a>
</g>
</g>
<!-- Node5&#45;&gt;Node3 -->
<g id="edge6_Node000005_Node000003" class="edge">
<title>Node5&#45;&gt;Node3</title>
<g id="a_edge6_Node000005_Node000003"><a xlink:title=" ">
<path fill="none" stroke="#63b8ff" d="M261.96,-104.42C246.89,-94.81 227.41,-82.37 214.58,-74.17"/>
<polygon fill="#63b8ff" stroke="#63b8ff" points="260.35,-107.55 270.66,-109.98 264.12,-101.65 260.35,-107.55"/>
</a>
</g>
</g>
<!-- Node6 -->
<g id="Node000006" class="node">
<title>Node6</title>
<g id="a_Node000006"><a xlink:href="VisionExecutor_8cpp.html" target="_top" xlink:title=" ">
<polygon fill="white" stroke="#666666" points="382,-74 274,-74 274,-55 382,-55 382,-74"/>
<text text-anchor="middle" x="328" y="-62" font-family="Helvetica,sans-Serif" font-size="10.00">VisionExecutor.cpp</text>
</a>
</g>
</g>
<!-- Node5&#45;&gt;Node6 -->
<g id="edge7_Node000005_Node000006" class="edge">
<title>Node5&#45;&gt;Node6</title>
<g id="a_edge7_Node000005_Node000006"><a xlink:title=" ">
<path fill="none" stroke="#63b8ff" d="M297.73,-101.96C305.4,-92.72 314.63,-81.6 320.87,-74.09"/>
<polygon fill="#63b8ff" stroke="#63b8ff" points="294.96,-99.82 291.27,-109.75 300.35,-104.29 294.96,-99.82"/>
</a>
</g>
</g>
<!-- Node5&#45;&gt;Node7 -->
<g id="edge8_Node000005_Node000007" class="edge">
<title>Node5&#45;&gt;Node7</title>
<g id="a_edge8_Node000005_Node000007"><a xlink:title=" ">
<path fill="none" stroke="#63b8ff" d="M321.77,-106.93C354.09,-97.03 399.86,-83.01 428.99,-74.08"/>
<polygon fill="#63b8ff" stroke="#63b8ff" points="320.33,-103.71 311.8,-109.98 322.38,-110.4 320.33,-103.71"/>
</a>
</g>
</g>
<!-- Node8 -->
<g id="Node000008" class="node">
<title>Node8</title>
<g id="a_Node000008"><a xlink:href="VisionProcessor_8cpp.html" target="_top" xlink:title=" ">
<polygon fill="white" stroke="#666666" points="513.5,-19 400.5,-19 400.5,0 513.5,0 513.5,-19"/>
<text text-anchor="middle" x="457" y="-7" font-family="Helvetica,sans-Serif" font-size="10.00">VisionProcessor.cpp</text>
</a>
</g>
</g>
<!-- Node7&#45;&gt;Node8 -->
<g id="edge9_Node000007_Node000008" class="edge">
<title>Node7&#45;&gt;Node8</title>
<g id="a_edge9_Node000007_Node000008"><a xlink:title=" ">
<path fill="none" stroke="#63b8ff" d="M457,-44.66C457,-35.93 457,-25.99 457,-19.09"/>
<polygon fill="#63b8ff" stroke="#63b8ff" points="453.5,-44.75 457,-54.75 460.5,-44.75 453.5,-44.75"/>
</a>
</g>
</g>
</g>
</svg>
