<?xml version="1.0" encoding="UTF-8" standalone="no"?>
<!DOCTYPE svg PUBLIC "-//W3C//DTD SVG 1.1//EN"
 "http://www.w3.org/Graphics/SVG/1.1/DTD/svg11.dtd">
<!-- Generated by graphviz version 2.43.0 (0)
 -->
<!-- Title: VKSwapchain.hpp Pages: 1 -->
<svg width="413pt" height="82pt"
 viewBox="0.00 0.00 412.50 82.00" xmlns="http://www.w3.org/2000/svg" xmlns:xlink="http://www.w3.org/1999/xlink">
<g id="graph0" class="graph" transform="scale(1 1) rotate(0) translate(4 78)">
<title>VKSwapchain.hpp</title>
<!-- Node1 -->
<g id="Node000001" class="node">
<title>Node1</title>
<g id="a_Node000001"><a xlink:title=" ">
<polygon fill="#999999" stroke="#666666" points="276.5,-74 172.5,-74 172.5,-55 276.5,-55 276.5,-74"/>
<text text-anchor="middle" x="224.5" y="-62" font-family="Helvetica,sans-Serif" font-size="10.00">VKSwapchain.hpp</text>
</a>
</g>
</g>
<!-- Node2 -->
<g id="Node000002" class="node">
<title>Node2</title>
<g id="a_Node000002"><a xlink:href="BackendWindowHandler_8cpp.html" target="_top" xlink:title=" ">
<polygon fill="white" stroke="#666666" points="155,-19 0,-19 0,0 155,0 155,-19"/>
<text text-anchor="middle" x="77.5" y="-7" font-family="Helvetica,sans-Serif" font-size="10.00">BackendWindowHandler.cpp</text>
</a>
</g>
</g>
<!-- Node1&#45;&gt;Node2 -->
<g id="edge1_Node000001_Node000002" class="edge">
<title>Node1&#45;&gt;Node2</title>
<g id="a_edge1_Node000001_Node000002"><a xlink:title=" ">
<path fill="none" stroke="#63b8ff" d="M191.36,-51.55C164.06,-41.71 126,-27.98 101.55,-19.17"/>
<polygon fill="#63b8ff" stroke="#63b8ff" points="190.29,-54.89 200.88,-54.98 192.66,-48.3 190.29,-54.89"/>
</a>
</g>
</g>
<!-- Node3 -->
<g id="Node000003" class="node">
<title>Node3</title>
<g id="a_Node000003"><a xlink:href="VKSwapchain_8cpp.html" target="_top" xlink:title=" ">
<polygon fill="white" stroke="#666666" points="276,-19 173,-19 173,0 276,0 276,-19"/>
<text text-anchor="middle" x="224.5" y="-7" font-family="Helvetica,sans-Serif" font-size="10.00">VKSwapchain.cpp</text>
</a>
</g>
</g>
<!-- Node1&#45;&gt;Node3 -->
<g id="edge2_Node000001_Node000003" class="edge">
<title>Node1&#45;&gt;Node3</title>
<g id="a_edge2_Node000001_Node000003"><a xlink:title=" ">
<path fill="none" stroke="#63b8ff" d="M224.5,-44.66C224.5,-35.93 224.5,-25.99 224.5,-19.09"/>
<polygon fill="#63b8ff" stroke="#63b8ff" points="221,-44.75 224.5,-54.75 228,-44.75 221,-44.75"/>
</a>
</g>
</g>
<!-- Node4 -->
<g id="Node000004" class="node">
<title>Node4</title>
<g id="a_Node000004"><a xlink:href="VulkanBackend_8cpp.html" target="_top" xlink:title=" ">
<polygon fill="white" stroke="#666666" points="404.5,-19 294.5,-19 294.5,0 404.5,0 404.5,-19"/>
<text text-anchor="middle" x="349.5" y="-7" font-family="Helvetica,sans-Serif" font-size="10.00">VulkanBackend.cpp</text>
</a>
</g>
</g>
<!-- Node1&#45;&gt;Node4 -->
<g id="edge3_Node000001_Node000004" class="edge">
<title>Node1&#45;&gt;Node4</title>
<g id="a_edge3_Node000001_Node000004"><a xlink:title=" ">
<path fill="none" stroke="#63b8ff" d="M253.91,-51.03C277.03,-41.23 308.63,-27.83 329.05,-19.17"/>
<polygon fill="#63b8ff" stroke="#63b8ff" points="252.42,-47.86 244.58,-54.98 255.16,-54.3 252.42,-47.86"/>
</a>
</g>
</g>
</g>
</svg>
