<?xml version="1.0" encoding="UTF-8" standalone="no"?>
<!DOCTYPE svg PUBLIC "-//W3C//DTD SVG 1.1//EN"
 "http://www.w3.org/Graphics/SVG/1.1/DTD/svg11.dtd">
<!-- Generated by graphviz version 2.43.0 (0)
 -->
<!-- Title: VKSwapchain.hpp Pages: 1 -->
<svg width="288pt" height="269pt"
 viewBox="0.00 0.00 288.00 269.00" xmlns="http://www.w3.org/2000/svg" xmlns:xlink="http://www.w3.org/1999/xlink">

<svg id="main" version="1.1" xmlns="http://www.w3.org/2000/svg" xmlns:xlink="http://www.w3.org/1999/xlink" xml:space="preserve" onload="init(evt)">
<style type="text/css"><![CDATA[
.node, .edge {opacity: 0.7;}
.node.selected, .edge.selected {opacity: 1;}
.edge:hover path { stroke: red; }
.edge:hover polygon { stroke: red; fill: red; }
]]></style>
<script type="application/ecmascript" xlink:href="svg.min.js"/>
<svg id="graph" class="graph">
<g id="graph0" class="graph" transform="scale(1 1) rotate(0) translate(4 265)">
<title>VKSwapchain.hpp</title>
<!-- Node1 -->
<g id="Node000001" class="node">
<title>Node1</title>
<g id="a_Node000001"><a xlink:title=" ">
<polygon fill="#999999" stroke="#666666" points="207.5,-261 103.5,-261 103.5,-242 207.5,-242 207.5,-261"/>
<text text-anchor="middle" x="155.5" y="-249" font-family="Helvetica,sans-Serif" font-size="10.00">VKSwapchain.hpp</text>
</a>
</g>
</g>
<!-- Node2 -->
<g id="Node000002" class="node">
<title>Node2</title>
<g id="a_Node000002"><a xlink:href="VKContext_8hpp.html" target="_top" xlink:title=" ">
<polygon fill="white" stroke="#666666" points="200,-206 111,-206 111,-187 200,-187 200,-206"/>
<text text-anchor="middle" x="155.5" y="-194" font-family="Helvetica,sans-Serif" font-size="10.00">VKContext.hpp</text>
</a>
</g>
</g>
<!-- Node1&#45;&gt;Node2 -->
<g id="edge1_Node000001_Node000002" class="edge">
<title>Node1&#45;&gt;Node2</title>
<g id="a_edge1_Node000001_Node000002"><a xlink:title=" ">
<path fill="none" stroke="#63b8ff" d="M155.5,-241.75C155.5,-234.8 155.5,-224.85 155.5,-216.13"/>
<polygon fill="#63b8ff" stroke="#63b8ff" points="159,-216.09 155.5,-206.09 152,-216.09 159,-216.09"/>
</a>
</g>
</g>
<!-- Node3 -->
<g id="Node000003" class="node">
<title>Node3</title>
<g id="a_Node000003"><a xlink:href="GlobalGraphicsInfo_8hpp.html" target="_top" xlink:title=" ">
<polygon fill="white" stroke="#666666" points="167,-151 0,-151 0,-121 167,-121 167,-151"/>
<text text-anchor="start" x="8" y="-139" font-family="Helvetica,sans-Serif" font-size="10.00">MayaFlux/Core/GlobalGraphics</text>
<text text-anchor="middle" x="83.5" y="-128" font-family="Helvetica,sans-Serif" font-size="10.00">Info.hpp</text>
</a>
</g>
</g>
<!-- Node2&#45;&gt;Node3 -->
<g id="edge2_Node000002_Node000003" class="edge">
<title>Node2&#45;&gt;Node3</title>
<g id="a_edge2_Node000002_Node000003"><a xlink:title=" ">
<path fill="none" stroke="#63b8ff" d="M144.88,-186.87C135.38,-179.15 121.08,-167.54 108.68,-157.46"/>
<polygon fill="#63b8ff" stroke="#63b8ff" points="110.84,-154.7 100.87,-151.11 106.43,-160.14 110.84,-154.7"/>
</a>
</g>
</g>
<!-- Node5 -->
<g id="Node000005" class="node">
<title>Node5</title>
<g id="a_Node000005"><a xlink:href="VKDevice_8hpp.html" target="_top" xlink:title=" ">
<polygon fill="white" stroke="#666666" points="270,-145.5 185,-145.5 185,-126.5 270,-126.5 270,-145.5"/>
<text text-anchor="middle" x="227.5" y="-133.5" font-family="Helvetica,sans-Serif" font-size="10.00">VKDevice.hpp</text>
</a>
</g>
</g>
<!-- Node2&#45;&gt;Node5 -->
<g id="edge4_Node000002_Node000005" class="edge">
<title>Node2&#45;&gt;Node5</title>
<g id="a_edge4_Node000002_Node000005"><a xlink:title=" ">
<path fill="none" stroke="#63b8ff" d="M166.12,-186.87C177.4,-177.71 195.42,-163.06 209.03,-152.01"/>
<polygon fill="#63b8ff" stroke="#63b8ff" points="211.28,-154.69 216.83,-145.67 206.86,-149.26 211.28,-154.69"/>
</a>
</g>
</g>
<!-- Node4 -->
<g id="Node000004" class="node">
<title>Node4</title>
<g id="a_Node000004"><a xlink:href="Mirror_8hpp.html" target="_top" xlink:title=" ">
<polygon fill="white" stroke="#666666" points="141,-85 26,-85 26,-55 141,-55 141,-85"/>
<text text-anchor="start" x="34" y="-73" font-family="Helvetica,sans-Serif" font-size="10.00">MayaFlux/Transitive</text>
<text text-anchor="middle" x="83.5" y="-62" font-family="Helvetica,sans-Serif" font-size="10.00">/Reflect/Mirror.hpp</text>
</a>
</g>
</g>
<!-- Node3&#45;&gt;Node4 -->
<g id="edge3_Node000003_Node000004" class="edge">
<title>Node3&#45;&gt;Node4</title>
<g id="a_edge3_Node000003_Node000004"><a xlink:title=" ">
<path fill="none" stroke="#63b8ff" d="M83.5,-120.8C83.5,-113.34 83.5,-103.99 83.5,-95.41"/>
<polygon fill="#63b8ff" stroke="#63b8ff" points="87,-95.16 83.5,-85.16 80,-95.16 87,-95.16"/>
</a>
</g>
</g>
<!-- Node6 -->
<g id="Node000006" class="node">
<title>Node6</title>
<g id="a_Node000006"><a xlink:href="VKInstance_8hpp.html" target="_top" xlink:title=" ">
<polygon fill="white" stroke="#666666" points="273.5,-79.5 181.5,-79.5 181.5,-60.5 273.5,-60.5 273.5,-79.5"/>
<text text-anchor="middle" x="227.5" y="-67.5" font-family="Helvetica,sans-Serif" font-size="10.00">VKInstance.hpp</text>
</a>
</g>
</g>
<!-- Node5&#45;&gt;Node6 -->
<g id="edge5_Node000005_Node000006" class="edge">
<title>Node5&#45;&gt;Node6</title>
<g id="a_edge5_Node000005_Node000006"><a xlink:title=" ">
<path fill="none" stroke="#63b8ff" d="M227.5,-126.37C227.5,-117.16 227.5,-102.29 227.5,-90.27"/>
<polygon fill="#63b8ff" stroke="#63b8ff" points="231,-89.91 227.5,-79.91 224,-89.91 231,-89.91"/>
</a>
</g>
</g>
<!-- Node7 -->
<g id="Node000007" class="node">
<title>Node7</title>
<g id="a_Node000007"><a xlink:title=" ">
<polygon fill="#e0e0e0" stroke="#999999" points="280,-19 175,-19 175,0 280,0 280,-19"/>
<text text-anchor="middle" x="227.5" y="-7" font-family="Helvetica,sans-Serif" font-size="10.00">vulkan/vulkan.hpp</text>
</a>
</g>
</g>
<!-- Node6&#45;&gt;Node7 -->
<g id="edge6_Node000006_Node000007" class="edge">
<title>Node6&#45;&gt;Node7</title>
<g id="a_edge6_Node000006_Node000007"><a xlink:title=" ">
<path fill="none" stroke="#63b8ff" d="M227.5,-60.37C227.5,-52.25 227.5,-39.81 227.5,-29.39"/>
<polygon fill="#63b8ff" stroke="#63b8ff" points="231,-29.17 227.5,-19.17 224,-29.17 231,-29.17"/>
</a>
</g>
</g>
</g>
</svg>
</svg>

<style type='text/css'>
<![CDATA[
[data-mouse-over-selected='false'] { opacity: 0.7; }
[data-mouse-over-selected='true']  { opacity: 1.0; }
]]>
</style>
<script type="application/ecmascript"><![CDATA[
document.addEventListener('DOMContentLoaded', (event) => {
  highlightEdges();
  highlightAdjacentNodes();
});
]]></script>
</svg>
