<?xml version="1.0" encoding="UTF-8" standalone="no"?>
<!DOCTYPE svg PUBLIC "-//W3C//DTD SVG 1.1//EN"
 "http://www.w3.org/Graphics/SVG/1.1/DTD/svg11.dtd">
<!-- Generated by graphviz version 2.43.0 (0)
 -->
<!-- Title: WindowManager.cpp Pages: 1 -->
<svg width="997pt" height="225pt"
 viewBox="0.00 0.00 996.50 225.00" xmlns="http://www.w3.org/2000/svg" xmlns:xlink="http://www.w3.org/1999/xlink">
<g id="graph0" class="graph" transform="scale(1 1) rotate(0) translate(4 221)">
<title>WindowManager.cpp</title>
<!-- Node1 -->
<g id="Node000001" class="node">
<title>Node1</title>
<g id="a_Node000001"><a xlink:title=" ">
<polygon fill="#999999" stroke="#666666" points="496,-217 378,-217 378,-198 496,-198 496,-217"/>
<text text-anchor="middle" x="437" y="-205" font-family="Helvetica,sans-Serif" font-size="10.00">WindowManager.cpp</text>
</a>
</g>
</g>
<!-- Node2 -->
<g id="Node000002" class="node">
<title>Node2</title>
<g id="a_Node000002"><a xlink:href="WindowManager_8hpp.html" target="_top" xlink:title=" ">
<polygon fill="white" stroke="#666666" points="327.5,-156.5 208.5,-156.5 208.5,-137.5 327.5,-137.5 327.5,-156.5"/>
<text text-anchor="middle" x="268" y="-144.5" font-family="Helvetica,sans-Serif" font-size="10.00">WindowManager.hpp</text>
</a>
</g>
</g>
<!-- Node1&#45;&gt;Node2 -->
<g id="edge1_Node000001_Node000002" class="edge">
<title>Node1&#45;&gt;Node2</title>
<g id="a_edge1_Node000001_Node000002"><a xlink:title=" ">
<path fill="none" stroke="#63b8ff" d="M412.43,-197.99C383.39,-187.94 334.9,-171.16 302.2,-159.84"/>
<polygon fill="#63b8ff" stroke="#63b8ff" points="303.2,-156.48 292.6,-156.52 300.91,-163.1 303.2,-156.48"/>
</a>
</g>
</g>
<!-- Node5 -->
<g id="Node000005" class="node">
<title>Node5</title>
<g id="a_Node000005"><a xlink:href="GlfwSingleton_8hpp.html" target="_top" xlink:title=" ">
<polygon fill="white" stroke="#666666" points="190,-162 0,-162 0,-132 190,-132 190,-162"/>
<text text-anchor="start" x="8" y="-150" font-family="Helvetica,sans-Serif" font-size="10.00">MayaFlux/Core/Backends</text>
<text text-anchor="middle" x="95" y="-139" font-family="Helvetica,sans-Serif" font-size="10.00">/Windowing/Glfw/GlfwSingleton.hpp</text>
</a>
</g>
</g>
<!-- Node1&#45;&gt;Node5 -->
<g id="edge5_Node000001_Node000005" class="edge">
<title>Node1&#45;&gt;Node5</title>
<g id="a_edge5_Node000001_Node000005"><a xlink:title=" ">
<path fill="none" stroke="#63b8ff" d="M387.27,-197.99C334.95,-189.04 251.44,-174.76 187.05,-163.75"/>
<polygon fill="#63b8ff" stroke="#63b8ff" points="187.34,-160.24 176.89,-162.01 186.16,-167.14 187.34,-160.24"/>
</a>
</g>
</g>
<!-- Node6 -->
<g id="Node000006" class="node">
<title>Node6</title>
<g id="a_Node000006"><a xlink:href="GlfwWindow_8hpp.html" target="_top" xlink:title=" ">
<polygon fill="white" stroke="#666666" points="528,-162 346,-162 346,-132 528,-132 528,-162"/>
<text text-anchor="start" x="354" y="-150" font-family="Helvetica,sans-Serif" font-size="10.00">MayaFlux/Core/Backends</text>
<text text-anchor="middle" x="437" y="-139" font-family="Helvetica,sans-Serif" font-size="10.00">/Windowing/Glfw/GlfwWindow.hpp</text>
</a>
</g>
</g>
<!-- Node1&#45;&gt;Node6 -->
<g id="edge7_Node000001_Node000006" class="edge">
<title>Node1&#45;&gt;Node6</title>
<g id="a_edge7_Node000001_Node000006"><a xlink:title=" ">
<path fill="none" stroke="#63b8ff" d="M437,-197.87C437,-191.11 437,-181.35 437,-172.26"/>
<polygon fill="#63b8ff" stroke="#63b8ff" points="440.5,-172.11 437,-162.11 433.5,-172.11 440.5,-172.11"/>
</a>
</g>
</g>
<!-- Node11 -->
<g id="Node000011" class="node">
<title>Node11</title>
<g id="a_Node000011"><a xlink:href="Archivist_8hpp.html" target="_top" xlink:title=" ">
<polygon fill="white" stroke="#666666" points="740,-156.5 572,-156.5 572,-137.5 740,-137.5 740,-156.5"/>
<text text-anchor="middle" x="656" y="-144.5" font-family="Helvetica,sans-Serif" font-size="10.00">MayaFlux/Journal/Archivist.hpp</text>
</a>
</g>
</g>
<!-- Node1&#45;&gt;Node11 -->
<g id="edge14_Node000001_Node000011" class="edge">
<title>Node1&#45;&gt;Node11</title>
<g id="a_edge14_Node000001_Node000011"><a xlink:title=" ">
<path fill="none" stroke="#63b8ff" d="M468.84,-197.99C507.28,-187.73 572.03,-170.43 614.39,-159.12"/>
<polygon fill="#63b8ff" stroke="#63b8ff" points="615.36,-162.48 624.12,-156.52 613.55,-155.72 615.36,-162.48"/>
</a>
</g>
</g>
<!-- Node18 -->
<g id="Node000018" class="node">
<title>Node18</title>
<g id="a_Node000018"><a xlink:href="Dispatch_8hpp.html" target="_top" xlink:title=" ">
<polygon fill="white" stroke="#666666" points="880,-162 758,-162 758,-132 880,-132 880,-162"/>
<text text-anchor="start" x="766" y="-150" font-family="Helvetica,sans-Serif" font-size="10.00">MayaFlux/Transitive</text>
<text text-anchor="middle" x="819" y="-139" font-family="Helvetica,sans-Serif" font-size="10.00">/Parallel/Dispatch.hpp</text>
</a>
</g>
</g>
<!-- Node1&#45;&gt;Node18 -->
<g id="edge21_Node000001_Node000018" class="edge">
<title>Node1&#45;&gt;Node18</title>
<g id="a_edge21_Node000001_Node000018"><a xlink:title=" ">
<path fill="none" stroke="#63b8ff" d="M496.1,-199.07C556.81,-191.21 654.28,-177.97 748.02,-162.11"/>
<polygon fill="#63b8ff" stroke="#63b8ff" points="748.68,-165.55 757.95,-160.42 747.51,-158.65 748.68,-165.55"/>
</a>
</g>
</g>
<!-- Node3 -->
<g id="Node000003" class="node">
<title>Node3</title>
<g id="a_Node000003"><a xlink:href="Window_8hpp.html" target="_top" xlink:title=" ">
<polygon fill="white" stroke="#666666" points="328,-96 188,-96 188,-66 328,-66 328,-96"/>
<text text-anchor="start" x="196" y="-84" font-family="Helvetica,sans-Serif" font-size="10.00">MayaFlux/Core/Backends</text>
<text text-anchor="middle" x="258" y="-73" font-family="Helvetica,sans-Serif" font-size="10.00">/Windowing/Window.hpp</text>
</a>
</g>
</g>
<!-- Node2&#45;&gt;Node3 -->
<g id="edge2_Node000002_Node000003" class="edge">
<title>Node2&#45;&gt;Node3</title>
<g id="a_edge2_Node000002_Node000003"><a xlink:title=" ">
<path fill="none" stroke="#63b8ff" d="M266.65,-137.37C265.41,-129.4 263.5,-117.2 261.79,-106.27"/>
<polygon fill="#63b8ff" stroke="#63b8ff" points="265.25,-105.7 260.24,-96.36 258.33,-106.78 265.25,-105.7"/>
</a>
</g>
</g>
<!-- Node4 -->
<g id="Node000004" class="node">
<title>Node4</title>
<g id="a_Node000004"><a xlink:href="GlobalGraphicsInfo_8hpp.html" target="_top" xlink:title=" ">
<polygon fill="white" stroke="#666666" points="312.5,-30 145.5,-30 145.5,0 312.5,0 312.5,-30"/>
<text text-anchor="start" x="153.5" y="-18" font-family="Helvetica,sans-Serif" font-size="10.00">MayaFlux/Core/GlobalGraphics</text>
<text text-anchor="middle" x="229" y="-7" font-family="Helvetica,sans-Serif" font-size="10.00">Info.hpp</text>
</a>
</g>
</g>
<!-- Node2&#45;&gt;Node4 -->
<g id="edge4_Node000002_Node000004" class="edge">
<title>Node2&#45;&gt;Node4</title>
<g id="a_edge4_Node000002_Node000004"><a xlink:title=" ">
<path fill="none" stroke="#63b8ff" d="M236.58,-137.38C216.25,-129.99 191.35,-117.11 179,-96 167.09,-75.65 184.39,-52.89 201.81,-36.87"/>
<polygon fill="#63b8ff" stroke="#63b8ff" points="204.45,-39.21 209.71,-30.01 199.87,-33.92 204.45,-39.21"/>
</a>
</g>
</g>
<!-- Node3&#45;&gt;Node4 -->
<g id="edge3_Node000003_Node000004" class="edge">
<title>Node3&#45;&gt;Node4</title>
<g id="a_edge3_Node000003_Node000004"><a xlink:title=" ">
<path fill="none" stroke="#63b8ff" d="M251.56,-65.8C248.03,-58.01 243.57,-48.16 239.55,-39.28"/>
<polygon fill="#63b8ff" stroke="#63b8ff" points="242.73,-37.83 235.42,-30.16 236.36,-40.72 242.73,-37.83"/>
</a>
</g>
</g>
<!-- Node5&#45;&gt;Node4 -->
<g id="edge6_Node000005_Node000004" class="edge">
<title>Node5&#45;&gt;Node4</title>
<g id="a_edge6_Node000005_Node000004"><a xlink:title=" ">
<path fill="none" stroke="#63b8ff" d="M108.01,-131.78C123.04,-115.5 148.72,-88.23 172,-66 182.37,-56.1 194.23,-45.58 204.44,-36.75"/>
<polygon fill="#63b8ff" stroke="#63b8ff" points="206.9,-39.25 212.21,-30.08 202.34,-33.94 206.9,-39.25"/>
</a>
</g>
</g>
<!-- Node6&#45;&gt;Node3 -->
<g id="edge8_Node000006_Node000003" class="edge">
<title>Node6&#45;&gt;Node3</title>
<g id="a_edge8_Node000006_Node000003"><a xlink:title=" ">
<path fill="none" stroke="#63b8ff" d="M397.72,-131.95C371.02,-122.41 335.51,-109.71 306.97,-99.51"/>
<polygon fill="#63b8ff" stroke="#63b8ff" points="307.79,-96.08 297.19,-96.01 305.43,-102.67 307.79,-96.08"/>
</a>
</g>
</g>
<!-- Node7 -->
<g id="Node000007" class="node">
<title>Node7</title>
<g id="a_Node000007"><a xlink:href="EventSource_8hpp.html" target="_top" xlink:title=" ">
<polygon fill="white" stroke="#666666" points="626.5,-90.5 447.5,-90.5 447.5,-71.5 626.5,-71.5 626.5,-90.5"/>
<text text-anchor="middle" x="537" y="-78.5" font-family="Helvetica,sans-Serif" font-size="10.00">MayaFlux/Vruta/EventSource.hpp</text>
</a>
</g>
</g>
<!-- Node6&#45;&gt;Node7 -->
<g id="edge9_Node000006_Node000007" class="edge">
<title>Node6&#45;&gt;Node7</title>
<g id="a_edge9_Node000006_Node000007"><a xlink:title=" ">
<path fill="none" stroke="#63b8ff" d="M459.19,-131.8C475.8,-121.17 498.4,-106.7 514.97,-96.1"/>
<polygon fill="#63b8ff" stroke="#63b8ff" points="516.94,-99 523.47,-90.66 513.16,-93.1 516.94,-99"/>
</a>
</g>
</g>
<!-- Node10 -->
<g id="Node000010" class="node">
<title>Node10</title>
<g id="a_Node000010"><a xlink:title=" ">
<polygon fill="#e0e0e0" stroke="#999999" points="429.5,-90.5 346.5,-90.5 346.5,-71.5 429.5,-71.5 429.5,-90.5"/>
<text text-anchor="middle" x="388" y="-78.5" font-family="Helvetica,sans-Serif" font-size="10.00">GLFW/glfw3.h</text>
</a>
</g>
</g>
<!-- Node6&#45;&gt;Node10 -->
<g id="edge13_Node000006_Node000010" class="edge">
<title>Node6&#45;&gt;Node10</title>
<g id="a_edge13_Node000006_Node000010"><a xlink:title=" ">
<path fill="none" stroke="#63b8ff" d="M426.13,-131.8C418.71,-122.11 408.86,-109.24 401.02,-99.01"/>
<polygon fill="#63b8ff" stroke="#63b8ff" points="403.63,-96.66 394.77,-90.84 398.07,-100.91 403.63,-96.66"/>
</a>
</g>
</g>
<!-- Node7&#45;&gt;Node4 -->
<g id="edge10_Node000007_Node000004" class="edge">
<title>Node7&#45;&gt;Node4</title>
<g id="a_edge10_Node000007_Node000004"><a xlink:title=" ">
<path fill="none" stroke="#63b8ff" d="M495.78,-71.44C447.49,-61.4 366.45,-44.56 306.33,-32.07"/>
<polygon fill="#63b8ff" stroke="#63b8ff" points="307,-28.63 296.49,-30.02 305.57,-35.49 307,-28.63"/>
</a>
</g>
</g>
<!-- Node8 -->
<g id="Node000008" class="node">
<title>Node8</title>
<g id="a_Node000008"><a xlink:href="Keys_8hpp.html" target="_top" xlink:title=" ">
<polygon fill="white" stroke="#666666" points="560.5,-24.5 435.5,-24.5 435.5,-5.5 560.5,-5.5 560.5,-24.5"/>
<text text-anchor="middle" x="498" y="-12.5" font-family="Helvetica,sans-Serif" font-size="10.00">MayaFlux/IO/Keys.hpp</text>
</a>
</g>
</g>
<!-- Node7&#45;&gt;Node8 -->
<g id="edge11_Node000007_Node000008" class="edge">
<title>Node7&#45;&gt;Node8</title>
<g id="a_edge11_Node000007_Node000008"><a xlink:title=" ">
<path fill="none" stroke="#63b8ff" d="M531.74,-71.37C525.9,-61.78 516.31,-46.05 508.85,-33.8"/>
<polygon fill="#63b8ff" stroke="#63b8ff" points="511.62,-31.62 503.43,-24.91 505.64,-35.27 511.62,-31.62"/>
</a>
</g>
</g>
<!-- Node9 -->
<g id="Node000009" class="node">
<title>Node9</title>
<g id="a_Node000009"><a xlink:title=" ">
<polygon fill="#e0e0e0" stroke="#999999" points="417.5,-24.5 370.5,-24.5 370.5,-5.5 417.5,-5.5 417.5,-24.5"/>
<text text-anchor="middle" x="394" y="-12.5" font-family="Helvetica,sans-Serif" font-size="10.00">queue</text>
</a>
</g>
</g>
<!-- Node7&#45;&gt;Node9 -->
<g id="edge12_Node000007_Node000009" class="edge">
<title>Node7&#45;&gt;Node9</title>
<g id="a_edge12_Node000007_Node000009"><a xlink:title=" ">
<path fill="none" stroke="#63b8ff" d="M517.71,-71.37C493.3,-60.44 451.03,-41.52 422.79,-28.88"/>
<polygon fill="#63b8ff" stroke="#63b8ff" points="423.99,-25.59 413.44,-24.7 421.13,-31.98 423.99,-25.59"/>
</a>
</g>
</g>
<!-- Node12 -->
<g id="Node000012" class="node">
<title>Node12</title>
<g id="a_Node000012"><a xlink:href="Format_8hpp.html" target="_top" xlink:title=" ">
<polygon fill="white" stroke="#666666" points="848,-90.5 776,-90.5 776,-71.5 848,-71.5 848,-90.5"/>
<text text-anchor="middle" x="812" y="-78.5" font-family="Helvetica,sans-Serif" font-size="10.00">Format.hpp</text>
</a>
</g>
</g>
<!-- Node11&#45;&gt;Node12 -->
<g id="edge15_Node000011_Node000012" class="edge">
<title>Node11&#45;&gt;Node12</title>
<g id="a_edge15_Node000011_Node000012"><a xlink:title=" ">
<path fill="none" stroke="#63b8ff" d="M677.04,-137.37C703.98,-126.32 750.86,-107.08 781.66,-94.45"/>
<polygon fill="#63b8ff" stroke="#63b8ff" points="783.12,-97.63 791.05,-90.6 780.47,-91.15 783.12,-97.63"/>
</a>
</g>
</g>
<!-- Node13 -->
<g id="Node000013" class="node">
<title>Node13</title>
<g id="a_Node000013"><a xlink:href="JournalEntry_8hpp.html" target="_top" xlink:title=" ">
<polygon fill="white" stroke="#666666" points="757.5,-90.5 662.5,-90.5 662.5,-71.5 757.5,-71.5 757.5,-90.5"/>
<text text-anchor="middle" x="710" y="-78.5" font-family="Helvetica,sans-Serif" font-size="10.00">JournalEntry.hpp</text>
</a>
</g>
</g>
<!-- Node11&#45;&gt;Node13 -->
<g id="edge16_Node000011_Node000013" class="edge">
<title>Node11&#45;&gt;Node13</title>
<g id="a_edge16_Node000011_Node000013"><a xlink:title=" ">
<path fill="none" stroke="#63b8ff" d="M663.28,-137.37C671.61,-127.5 685.44,-111.11 695.89,-98.72"/>
<polygon fill="#63b8ff" stroke="#63b8ff" points="698.71,-100.81 702.49,-90.91 693.36,-96.29 698.71,-100.81"/>
</a>
</g>
</g>
<!-- Node14 -->
<g id="Node000014" class="node">
<title>Node14</title>
<g id="a_Node000014"><a xlink:href="EnumReflect_8hpp.html" target="_top" xlink:title=" ">
<polygon fill="white" stroke="#666666" points="808.5,-30 669.5,-30 669.5,0 808.5,0 808.5,-30"/>
<text text-anchor="start" x="677.5" y="-18" font-family="Helvetica,sans-Serif" font-size="10.00">MayaFlux/Transitive</text>
<text text-anchor="middle" x="739" y="-7" font-family="Helvetica,sans-Serif" font-size="10.00">/Reflect/EnumReflect.hpp</text>
</a>
</g>
</g>
<!-- Node13&#45;&gt;Node14 -->
<g id="edge17_Node000013_Node000014" class="edge">
<title>Node13&#45;&gt;Node14</title>
<g id="a_edge17_Node000013_Node000014"><a xlink:title=" ">
<path fill="none" stroke="#63b8ff" d="M713.91,-71.37C717.59,-63.24 723.28,-50.69 728.31,-39.59"/>
<polygon fill="#63b8ff" stroke="#63b8ff" points="731.55,-40.91 732.49,-30.36 725.18,-38.02 731.55,-40.91"/>
</a>
</g>
</g>
<!-- Node15 -->
<g id="Node000015" class="node">
<title>Node15</title>
<g id="a_Node000015"><a xlink:title=" ">
<polygon fill="#e0e0e0" stroke="#999999" points="877,-24.5 827,-24.5 827,-5.5 877,-5.5 877,-24.5"/>
<text text-anchor="middle" x="852" y="-12.5" font-family="Helvetica,sans-Serif" font-size="10.00">chrono</text>
</a>
</g>
</g>
<!-- Node13&#45;&gt;Node15 -->
<g id="edge18_Node000013_Node000015" class="edge">
<title>Node13&#45;&gt;Node15</title>
<g id="a_edge18_Node000013_Node000015"><a xlink:title=" ">
<path fill="none" stroke="#63b8ff" d="M729.15,-71.37C753.39,-60.44 795.37,-41.52 823.41,-28.88"/>
<polygon fill="#63b8ff" stroke="#63b8ff" points="825.02,-32 832.7,-24.7 822.14,-25.62 825.02,-32"/>
</a>
</g>
</g>
<!-- Node16 -->
<g id="Node000016" class="node">
<title>Node16</title>
<g id="a_Node000016"><a xlink:title=" ">
<polygon fill="#e0e0e0" stroke="#999999" points="988.5,-24.5 895.5,-24.5 895.5,-5.5 988.5,-5.5 988.5,-24.5"/>
<text text-anchor="middle" x="942" y="-12.5" font-family="Helvetica,sans-Serif" font-size="10.00">source_location</text>
</a>
</g>
</g>
<!-- Node13&#45;&gt;Node16 -->
<g id="edge19_Node000013_Node000016" class="edge">
<title>Node13&#45;&gt;Node16</title>
<g id="a_edge19_Node000013_Node000016"><a xlink:title=" ">
<path fill="none" stroke="#63b8ff" d="M741.29,-71.37C782.57,-59.98 855.32,-39.91 900.97,-27.32"/>
<polygon fill="#63b8ff" stroke="#63b8ff" points="902.13,-30.63 910.84,-24.6 900.27,-23.88 902.13,-30.63"/>
</a>
</g>
</g>
<!-- Node17 -->
<g id="Node000017" class="node">
<title>Node17</title>
<g id="a_Node000017"><a xlink:title=" ">
<polygon fill="#e0e0e0" stroke="#999999" points="651.5,-24.5 578.5,-24.5 578.5,-5.5 651.5,-5.5 651.5,-24.5"/>
<text text-anchor="middle" x="615" y="-12.5" font-family="Helvetica,sans-Serif" font-size="10.00">string_view</text>
</a>
</g>
</g>
<!-- Node13&#45;&gt;Node17 -->
<g id="edge20_Node000013_Node000017" class="edge">
<title>Node13&#45;&gt;Node17</title>
<g id="a_edge20_Node000013_Node000017"><a xlink:title=" ">
<path fill="none" stroke="#63b8ff" d="M697.19,-71.37C681.61,-60.87 655.07,-43 636.38,-30.4"/>
<polygon fill="#63b8ff" stroke="#63b8ff" points="638.16,-27.38 627.91,-24.7 634.25,-33.19 638.16,-27.38"/>
</a>
</g>
</g>
</g>
</svg>
