<?xml version="1.0" encoding="UTF-8" standalone="no"?>
<!DOCTYPE svg PUBLIC "-//W3C//DTD SVG 1.1//EN"
 "http://www.w3.org/Graphics/SVG/1.1/DTD/svg11.dtd">
<!-- Generated by graphviz version 2.43.0 (0)
 -->
<!-- Title: WindowEventSource.hpp Pages: 1 -->
<svg width="500pt" height="159pt"
 viewBox="0.00 0.00 499.50 159.00" xmlns="http://www.w3.org/2000/svg" xmlns:xlink="http://www.w3.org/1999/xlink">

<svg id="main" version="1.1" xmlns="http://www.w3.org/2000/svg" xmlns:xlink="http://www.w3.org/1999/xlink" xml:space="preserve" onload="init(evt)">
<style type="text/css"><![CDATA[
.node, .edge {opacity: 0.7;}
.node.selected, .edge.selected {opacity: 1;}
.edge:hover path { stroke: red; }
.edge:hover polygon { stroke: red; fill: red; }
]]></style>
<script type="application/ecmascript" xlink:href="svg.min.js"/>
<svg id="graph" class="graph">
<g id="graph0" class="graph" transform="scale(1 1) rotate(0) translate(4 155)">
<title>WindowEventSource.hpp</title>
<!-- Node1 -->
<g id="Node000001" class="node">
<title>Node1</title>
<g id="a_Node000001"><a xlink:title=" ">
<polygon fill="#999999" stroke="#666666" points="350.5,-151 213.5,-151 213.5,-132 350.5,-132 350.5,-151"/>
<text text-anchor="middle" x="282" y="-139" font-family="Helvetica,sans-Serif" font-size="10.00">WindowEventSource.hpp</text>
</a>
</g>
</g>
<!-- Node2 -->
<g id="Node000002" class="node">
<title>Node2</title>
<g id="a_Node000002"><a xlink:href="EventSource_8hpp.html" target="_top" xlink:title=" ">
<polygon fill="white" stroke="#666666" points="98,-90.5 0,-90.5 0,-71.5 98,-71.5 98,-90.5"/>
<text text-anchor="middle" x="49" y="-78.5" font-family="Helvetica,sans-Serif" font-size="10.00">EventSource.hpp</text>
</a>
</g>
</g>
<!-- Node1&#45;&gt;Node2 -->
<g id="edge1_Node000001_Node000002" class="edge">
<title>Node1&#45;&gt;Node2</title>
<g id="a_edge1_Node000001_Node000002"><a xlink:title=" ">
<path fill="none" stroke="#63b8ff" d="M248.12,-131.99C207.05,-121.68 137.76,-104.28 92.7,-92.97"/>
<polygon fill="#63b8ff" stroke="#63b8ff" points="93.47,-89.56 82.92,-90.52 91.77,-96.35 93.47,-89.56"/>
</a>
</g>
</g>
<!-- Node3 -->
<g id="Node000003" class="node">
<title>Node3</title>
<g id="a_Node000003"><a xlink:href="GlobalGraphicsInfo_8hpp.html" target="_top" xlink:title=" ">
<polygon fill="white" stroke="#666666" points="283.5,-96 116.5,-96 116.5,-66 283.5,-66 283.5,-96"/>
<text text-anchor="start" x="124.5" y="-84" font-family="Helvetica,sans-Serif" font-size="10.00">MayaFlux/Core/GlobalGraphics</text>
<text text-anchor="middle" x="200" y="-73" font-family="Helvetica,sans-Serif" font-size="10.00">Info.hpp</text>
</a>
</g>
</g>
<!-- Node1&#45;&gt;Node3 -->
<g id="edge2_Node000001_Node000003" class="edge">
<title>Node1&#45;&gt;Node3</title>
<g id="a_edge2_Node000001_Node000003"><a xlink:title=" ">
<path fill="none" stroke="#63b8ff" d="M269.9,-131.87C258.98,-124.08 242.49,-112.32 228.28,-102.17"/>
<polygon fill="#63b8ff" stroke="#63b8ff" points="229.96,-99.07 219.78,-96.11 225.89,-104.77 229.96,-99.07"/>
</a>
</g>
</g>
<!-- Node5 -->
<g id="Node000005" class="node">
<title>Node5</title>
<g id="a_Node000005"><a xlink:href="Keys_8hpp.html" target="_top" xlink:title=" ">
<polygon fill="white" stroke="#666666" points="426.5,-90.5 301.5,-90.5 301.5,-71.5 426.5,-71.5 426.5,-90.5"/>
<text text-anchor="middle" x="364" y="-78.5" font-family="Helvetica,sans-Serif" font-size="10.00">MayaFlux/IO/Keys.hpp</text>
</a>
</g>
</g>
<!-- Node1&#45;&gt;Node5 -->
<g id="edge4_Node000001_Node000005" class="edge">
<title>Node1&#45;&gt;Node5</title>
<g id="a_edge4_Node000001_Node000005"><a xlink:title=" ">
<path fill="none" stroke="#63b8ff" d="M294.1,-131.87C307.06,-122.62 327.86,-107.78 343.4,-96.69"/>
<polygon fill="#63b8ff" stroke="#63b8ff" points="345.74,-99.32 351.85,-90.67 341.68,-93.63 345.74,-99.32"/>
</a>
</g>
</g>
<!-- Node6 -->
<g id="Node000006" class="node">
<title>Node6</title>
<g id="a_Node000006"><a xlink:title=" ">
<polygon fill="#e0e0e0" stroke="#999999" points="491.5,-90.5 444.5,-90.5 444.5,-71.5 491.5,-71.5 491.5,-90.5"/>
<text text-anchor="middle" x="468" y="-78.5" font-family="Helvetica,sans-Serif" font-size="10.00">queue</text>
</a>
</g>
</g>
<!-- Node1&#45;&gt;Node6 -->
<g id="edge5_Node000001_Node000006" class="edge">
<title>Node1&#45;&gt;Node6</title>
<g id="a_edge5_Node000001_Node000006"><a xlink:title=" ">
<path fill="none" stroke="#63b8ff" d="M316.36,-131.95C347.84,-123.8 395.56,-110.62 436,-96 437.39,-95.5 438.81,-94.96 440.23,-94.41"/>
<polygon fill="#63b8ff" stroke="#63b8ff" points="441.65,-97.61 449.55,-90.56 438.97,-91.14 441.65,-97.61"/>
</a>
</g>
</g>
<!-- Node4 -->
<g id="Node000004" class="node">
<title>Node4</title>
<g id="a_Node000004"><a xlink:href="Mirror_8hpp.html" target="_top" xlink:title=" ">
<polygon fill="white" stroke="#666666" points="257.5,-30 142.5,-30 142.5,0 257.5,0 257.5,-30"/>
<text text-anchor="start" x="150.5" y="-18" font-family="Helvetica,sans-Serif" font-size="10.00">MayaFlux/Transitive</text>
<text text-anchor="middle" x="200" y="-7" font-family="Helvetica,sans-Serif" font-size="10.00">/Reflect/Mirror.hpp</text>
</a>
</g>
</g>
<!-- Node3&#45;&gt;Node4 -->
<g id="edge3_Node000003_Node000004" class="edge">
<title>Node3&#45;&gt;Node4</title>
<g id="a_edge3_Node000003_Node000004"><a xlink:title=" ">
<path fill="none" stroke="#63b8ff" d="M200,-65.8C200,-58.34 200,-48.99 200,-40.41"/>
<polygon fill="#63b8ff" stroke="#63b8ff" points="203.5,-40.16 200,-30.16 196.5,-40.16 203.5,-40.16"/>
</a>
</g>
</g>
</g>
</svg>
</svg>

<style type='text/css'>
<![CDATA[
[data-mouse-over-selected='false'] { opacity: 0.7; }
[data-mouse-over-selected='true']  { opacity: 1.0; }
]]>
</style>
<script type="application/ecmascript"><![CDATA[
document.addEventListener('DOMContentLoaded', (event) => {
  highlightEdges();
  highlightAdjacentNodes();
});
]]></script>
</svg>
