<?xml version="1.0" encoding="UTF-8" standalone="no"?>
<!DOCTYPE svg PUBLIC "-//W3C//DTD SVG 1.1//EN"
 "http://www.w3.org/Graphics/SVG/1.1/DTD/svg11.dtd">
<!-- Generated by graphviz version 2.43.0 (0)
 -->
<!-- Title: Wiring.hpp Pages: 1 -->
<!--zoomable 401 -->

<svg id="main" version="1.1" xmlns="http://www.w3.org/2000/svg" xmlns:xlink="http://www.w3.org/1999/xlink" xml:space="preserve" onload="init(evt)">
<style type="text/css"><![CDATA[
.node, .edge {opacity: 0.7;}
.node.selected, .edge.selected {opacity: 1;}
.edge:hover path { stroke: red; }
.edge:hover polygon { stroke: red; fill: red; }
]]></style>

<defs>
  <circle id="rim" cx="0" cy="0" r="7"/>
  <circle id="rim2" cx="0" cy="0" r="3.5"/>
  <g id="zoomPlus">
    <use xlink:href="#rim" fill="#404040"><set attributeName="fill" to="#808080" begin="zoomplus.mouseover" end="zoomplus.mouseout"/></use>
    <path d="M-4,0h8M0,-4v8" fill="none" stroke="white" stroke-width="1.5" pointer-events="none"/>
  </g>
  <g id="zoomMin">
    <use xlink:href="#rim" fill="#404040"><set attributeName="fill" to="#808080" begin="zoomminus.mouseover" end="zoomminus.mouseout"/></use>
    <path d="M-4,0h8" fill="none" stroke="white" stroke-width="1.5" pointer-events="none"/>
  </g>
  <g id="arrowUp" transform="translate(30 24)">
    <use xlink:href="#rim"/>
    <path pointer-events="none" fill="none" stroke="white" stroke-width="1.5" d="M0,-3.0v7 M-2.5,-0.5L0,-3.0L2.5,-0.5"/>
  </g>
  <g id="arrowRight" transform="rotate(90) translate(36 -43)">
    <use xlink:href="#rim"/>
    <path pointer-events="none" fill="none" stroke="white" stroke-width="1.5" d="M0,-3.0v7 M-2.5,-0.5L0,-3.0L2.5,-0.5"/>
  </g>
  <g id="arrowDown" transform="rotate(180) translate(-30 -48)">
    <use xlink:href="#rim"/>
    <path pointer-events="none" fill="none" stroke="white" stroke-width="1.5" d="M0,-3.0v7 M-2.5,-0.5L0,-3.0L2.5,-0.5"/>
  </g>
  <g id="arrowLeft" transform="rotate(270) translate(-36 17)">
    <use xlink:href="#rim"/>
    <path pointer-events="none" fill="none" stroke="white" stroke-width="1.5" d="M0,-3.0v7 M-2.5,-0.5L0,-3.0L2.5,-0.5"/>
  </g>
  <g id="resetDef">
    <use xlink:href="#rim2" fill="#404040"><set attributeName="fill" to="#808080" begin="reset.mouseover" end="reset.mouseout"/></use>
  </g>
</defs>
<script type="application/ecmascript">
var viewWidth = 1356;
var viewHeight = 401;
var sectionId = 'dynsection-0';
</script>
<script type="application/ecmascript" xlink:href="svg.min.js"/>
<svg id="graph" class="graph">
<g id="viewport">
<title>Wiring.hpp</title>
<!-- Node1 -->
<g id="Node000001" class="node">
<title>Node1</title>
<g id="a_Node000001"><a xlink:title=" ">
<polygon fill="#999999" stroke="#666666" points="815,-393 746,-393 746,-374 815,-374 815,-393"/>
<text text-anchor="middle" x="780.5" y="-381" font-family="Helvetica,sans-Serif" font-size="10.00">Wiring.hpp</text>
</a>
</g>
</g>
<!-- Node2 -->
<g id="Node000002" class="node">
<title>Node2</title>
<g id="a_Node000002"><a xlink:href="Agent_8hpp.html" target="_top" xlink:title=" ">
<polygon fill="white" stroke="#666666" points="298.5,-332.5 232.5,-332.5 232.5,-313.5 298.5,-313.5 298.5,-332.5"/>
<text text-anchor="middle" x="265.5" y="-320.5" font-family="Helvetica,sans-Serif" font-size="10.00">Agent.hpp</text>
</a>
</g>
</g>
<!-- Node1&#45;&gt;Node2 -->
<g id="edge1_Node000001_Node000002" class="edge">
<title>Node1&#45;&gt;Node2</title>
<g id="a_edge1_Node000001_Node000002"><a xlink:title=" ">
<path fill="none" stroke="#63b8ff" d="M745.91,-378.57C654.86,-368.23 408.71,-340.27 308.66,-328.9"/>
<polygon fill="#63b8ff" stroke="#63b8ff" points="308.93,-325.41 298.6,-327.76 308.14,-332.37 308.93,-325.41"/>
</a>
</g>
</g>
<!-- Node16 -->
<g id="Node000016" class="node">
<title>Node16</title>
<g id="a_Node000016"><a xlink:href="Keys_8hpp.html" target="_top" xlink:title=" ">
<polygon fill="white" stroke="#666666" points="1098,-266.5 973,-266.5 973,-247.5 1098,-247.5 1098,-266.5"/>
<text text-anchor="middle" x="1035.5" y="-254.5" font-family="Helvetica,sans-Serif" font-size="10.00">MayaFlux/IO/Keys.hpp</text>
</a>
</g>
</g>
<!-- Node1&#45;&gt;Node16 -->
<g id="edge19_Node000001_Node000016" class="edge">
<title>Node1&#45;&gt;Node16</title>
<g id="a_edge19_Node000001_Node000016"><a xlink:title=" ">
<path fill="none" stroke="#63b8ff" d="M798.03,-373.94C841.88,-352.53 956.57,-296.53 1008.85,-271.01"/>
<polygon fill="#63b8ff" stroke="#63b8ff" points="1010.4,-274.15 1017.85,-266.62 1007.33,-267.86 1010.4,-274.15"/>
</a>
</g>
</g>
<!-- Node17 -->
<g id="Node000017" class="node">
<title>Node17</title>
<g id="a_Node000017"><a xlink:href="NetworkSource_8hpp.html" target="_top" xlink:title=" ">
<polygon fill="white" stroke="#666666" points="814.5,-332.5 622.5,-332.5 622.5,-313.5 814.5,-313.5 814.5,-332.5"/>
<text text-anchor="middle" x="718.5" y="-320.5" font-family="Helvetica,sans-Serif" font-size="10.00">MayaFlux/Vruta/NetworkSource.hpp</text>
</a>
</g>
</g>
<!-- Node1&#45;&gt;Node17 -->
<g id="edge20_Node000001_Node000017" class="edge">
<title>Node1&#45;&gt;Node17</title>
<g id="a_edge20_Node000001_Node000017"><a xlink:title=" ">
<path fill="none" stroke="#63b8ff" d="M771.35,-373.87C761.83,-364.88 746.7,-350.61 735.07,-339.64"/>
<polygon fill="#63b8ff" stroke="#63b8ff" points="737.36,-336.98 727.69,-332.67 732.56,-342.08 737.36,-336.98"/>
</a>
</g>
</g>
<!-- Node21 -->
<g id="Node000021" class="node">
<title>Node21</title>
<g id="a_Node000021"><a xlink:href="WindowEventSource_8hpp.html" target="_top" xlink:title=" ">
<polygon fill="white" stroke="#666666" points="1117.5,-338 953.5,-338 953.5,-308 1117.5,-308 1117.5,-338"/>
<text text-anchor="start" x="961.5" y="-326" font-family="Helvetica,sans-Serif" font-size="10.00">MayaFlux/Vruta/WindowEvent</text>
<text text-anchor="middle" x="1035.5" y="-315" font-family="Helvetica,sans-Serif" font-size="10.00">Source.hpp</text>
</a>
</g>
</g>
<!-- Node1&#45;&gt;Node21 -->
<g id="edge24_Node000001_Node000021" class="edge">
<title>Node1&#45;&gt;Node21</title>
<g id="a_edge24_Node000001_Node000021"><a xlink:title=" ">
<path fill="none" stroke="#63b8ff" d="M815.16,-374.55C853.38,-365.78 915.9,-351.44 964.61,-340.26"/>
<polygon fill="#63b8ff" stroke="#63b8ff" points="965.5,-343.65 974.46,-338 963.93,-336.83 965.5,-343.65"/>
</a>
</g>
</g>
<!-- Node3 -->
<g id="Node000003" class="node">
<title>Node3</title>
<g id="a_Node000003"><a xlink:href="InfluenceContext_8hpp.html" target="_top" xlink:title=" ">
<polygon fill="white" stroke="#666666" points="327.5,-200.5 207.5,-200.5 207.5,-181.5 327.5,-181.5 327.5,-200.5"/>
<text text-anchor="middle" x="267.5" y="-188.5" font-family="Helvetica,sans-Serif" font-size="10.00">InfluenceContext.hpp</text>
</a>
</g>
</g>
<!-- Node2&#45;&gt;Node3 -->
<g id="edge2_Node000002_Node000003" class="edge">
<title>Node2&#45;&gt;Node3</title>
<g id="a_edge2_Node000002_Node000003"><a xlink:title=" ">
<path fill="none" stroke="#63b8ff" d="M265.63,-313.47C265.95,-292.82 266.77,-239.72 267.21,-211.04"/>
<polygon fill="#63b8ff" stroke="#63b8ff" points="270.71,-210.78 267.37,-200.73 263.71,-210.68 270.71,-210.78"/>
</a>
</g>
</g>
<!-- Node6 -->
<g id="Node000006" class="node">
<title>Node6</title>
<g id="a_Node000006"><a xlink:href="PerceptionContext_8hpp.html" target="_top" xlink:title=" ">
<polygon fill="white" stroke="#666666" points="421.5,-266.5 293.5,-266.5 293.5,-247.5 421.5,-247.5 421.5,-266.5"/>
<text text-anchor="middle" x="357.5" y="-254.5" font-family="Helvetica,sans-Serif" font-size="10.00">PerceptionContext.hpp</text>
</a>
</g>
</g>
<!-- Node2&#45;&gt;Node6 -->
<g id="edge5_Node000002_Node000006" class="edge">
<title>Node2&#45;&gt;Node6</title>
<g id="a_edge5_Node000002_Node000006"><a xlink:title=" ">
<path fill="none" stroke="#63b8ff" d="M277.91,-313.37C292.86,-302.97 318.22,-285.32 336.3,-272.75"/>
<polygon fill="#63b8ff" stroke="#63b8ff" points="338.78,-275.28 345,-266.7 334.79,-269.54 338.78,-275.28"/>
</a>
</g>
</g>
<!-- Node12 -->
<g id="Node000012" class="node">
<title>Node12</title>
<g id="a_Node000012"><a xlink:href="VertexSpec_8hpp.html" target="_top" xlink:title=" ">
<polygon fill="white" stroke="#666666" points="152.5,-272 8.5,-272 8.5,-242 152.5,-242 152.5,-272"/>
<text text-anchor="start" x="16.5" y="-260" font-family="Helvetica,sans-Serif" font-size="10.00">MayaFlux/Nodes/Graphics</text>
<text text-anchor="middle" x="80.5" y="-249" font-family="Helvetica,sans-Serif" font-size="10.00">/VertexSpec.hpp</text>
</a>
</g>
</g>
<!-- Node2&#45;&gt;Node12 -->
<g id="edge11_Node000002_Node000012" class="edge">
<title>Node2&#45;&gt;Node12</title>
<g id="a_edge11_Node000002_Node000012"><a xlink:title=" ">
<path fill="none" stroke="#63b8ff" d="M240.55,-313.37C212.6,-303.7 166.57,-287.77 131.03,-275.48"/>
<polygon fill="#63b8ff" stroke="#63b8ff" points="131.9,-272.08 121.3,-272.12 129.61,-278.69 131.9,-272.08"/>
</a>
</g>
</g>
<!-- Node15 -->
<g id="Node000015" class="node">
<title>Node15</title>
<g id="a_Node000015"><a xlink:href="Sinks_8hpp.html" target="_top" xlink:title=" ">
<polygon fill="white" stroke="#666666" points="236.5,-266.5 172.5,-266.5 172.5,-247.5 236.5,-247.5 236.5,-266.5"/>
<text text-anchor="middle" x="204.5" y="-254.5" font-family="Helvetica,sans-Serif" font-size="10.00">Sinks.hpp</text>
</a>
</g>
</g>
<!-- Node2&#45;&gt;Node15 -->
<g id="edge15_Node000002_Node000015" class="edge">
<title>Node2&#45;&gt;Node15</title>
<g id="a_edge15_Node000002_Node000015"><a xlink:title=" ">
<path fill="none" stroke="#63b8ff" d="M257.27,-313.37C247.78,-303.4 231.94,-286.79 220.09,-274.36"/>
<polygon fill="#63b8ff" stroke="#63b8ff" points="222.42,-271.73 212.99,-266.91 217.35,-276.56 222.42,-271.73"/>
</a>
</g>
</g>
<!-- Node4 -->
<g id="Node000004" class="node">
<title>Node4</title>
<g id="a_Node000004"><a xlink:title=" ">
<polygon fill="#e0e0e0" stroke="#999999" points="217,-134.5 134,-134.5 134,-115.5 217,-115.5 217,-134.5"/>
<text text-anchor="middle" x="175.5" y="-122.5" font-family="Helvetica,sans-Serif" font-size="10.00">glm/vec2.hpp</text>
</a>
</g>
</g>
<!-- Node3&#45;&gt;Node4 -->
<g id="edge3_Node000003_Node000004" class="edge">
<title>Node3&#45;&gt;Node4</title>
<g id="a_edge3_Node000003_Node000004"><a xlink:title=" ">
<path fill="none" stroke="#63b8ff" d="M255.09,-181.37C240.14,-170.97 214.78,-153.32 196.7,-140.75"/>
<polygon fill="#63b8ff" stroke="#63b8ff" points="198.21,-137.54 188,-134.7 194.22,-143.28 198.21,-137.54"/>
</a>
</g>
</g>
<!-- Node5 -->
<g id="Node000005" class="node">
<title>Node5</title>
<g id="a_Node000005"><a xlink:title=" ">
<polygon fill="#e0e0e0" stroke="#999999" points="318,-134.5 235,-134.5 235,-115.5 318,-115.5 318,-134.5"/>
<text text-anchor="middle" x="276.5" y="-122.5" font-family="Helvetica,sans-Serif" font-size="10.00">glm/vec3.hpp</text>
</a>
</g>
</g>
<!-- Node3&#45;&gt;Node5 -->
<g id="edge4_Node000003_Node000005" class="edge">
<title>Node3&#45;&gt;Node5</title>
<g id="a_edge4_Node000003_Node000005"><a xlink:title=" ">
<path fill="none" stroke="#63b8ff" d="M268.71,-181.37C270.02,-172.07 272.14,-156.98 273.84,-144.9"/>
<polygon fill="#63b8ff" stroke="#63b8ff" points="277.32,-145.3 275.25,-134.91 270.39,-144.32 277.32,-145.3"/>
</a>
</g>
</g>
<!-- Node7 -->
<g id="Node000007" class="node">
<title>Node7</title>
<g id="a_Node000007"><a xlink:href="SpatialIndex_8hpp.html" target="_top" xlink:title=" ">
<polygon fill="white" stroke="#666666" points="485.5,-206 345.5,-206 345.5,-176 485.5,-176 485.5,-206"/>
<text text-anchor="start" x="353.5" y="-194" font-family="Helvetica,sans-Serif" font-size="10.00">MayaFlux/Kinesis/Spatial</text>
<text text-anchor="middle" x="415.5" y="-183" font-family="Helvetica,sans-Serif" font-size="10.00">/SpatialIndex.hpp</text>
</a>
</g>
</g>
<!-- Node6&#45;&gt;Node7 -->
<g id="edge6_Node000006_Node000007" class="edge">
<title>Node6&#45;&gt;Node7</title>
<g id="a_edge6_Node000006_Node000007"><a xlink:title=" ">
<path fill="none" stroke="#63b8ff" d="M365.32,-247.37C373.06,-238.83 385.22,-225.41 395.63,-213.92"/>
<polygon fill="#63b8ff" stroke="#63b8ff" points="398.36,-216.12 402.49,-206.36 393.18,-211.42 398.36,-216.12"/>
</a>
</g>
</g>
<!-- Node8 -->
<g id="Node000008" class="node">
<title>Node8</title>
<g id="a_Node000008"><a xlink:href="TendencyFactories_8hpp.html" target="_top" xlink:title=" ">
<polygon fill="white" stroke="#666666" points="488.5,-140 336.5,-140 336.5,-110 488.5,-110 488.5,-140"/>
<text text-anchor="start" x="344.5" y="-128" font-family="Helvetica,sans-Serif" font-size="10.00">MayaFlux/Kinesis/Tendency</text>
<text text-anchor="middle" x="412.5" y="-117" font-family="Helvetica,sans-Serif" font-size="10.00">/TendencyFactories.hpp</text>
</a>
</g>
</g>
<!-- Node7&#45;&gt;Node8 -->
<g id="edge7_Node000007_Node000008" class="edge">
<title>Node7&#45;&gt;Node8</title>
<g id="a_edge7_Node000007_Node000008"><a xlink:title=" ">
<path fill="none" stroke="#63b8ff" d="M414.83,-175.8C414.48,-168.34 414.05,-158.99 413.64,-150.41"/>
<polygon fill="#63b8ff" stroke="#63b8ff" points="417.13,-149.99 413.16,-140.16 410.14,-150.32 417.13,-149.99"/>
</a>
</g>
</g>
<!-- Node11 -->
<g id="Node000011" class="node">
<title>Node11</title>
<g id="a_Node000011"><a xlink:title=" ">
<polygon fill="#e0e0e0" stroke="#999999" points="576,-134.5 507,-134.5 507,-115.5 576,-115.5 576,-134.5"/>
<text text-anchor="middle" x="541.5" y="-122.5" font-family="Helvetica,sans-Serif" font-size="10.00">Eigen/Core</text>
</a>
</g>
</g>
<!-- Node7&#45;&gt;Node11 -->
<g id="edge10_Node000007_Node000011" class="edge">
<title>Node7&#45;&gt;Node11</title>
<g id="a_edge10_Node000007_Node000011"><a xlink:title=" ">
<path fill="none" stroke="#63b8ff" d="M443.15,-175.95C464.76,-164.98 494.58,-149.83 515.7,-139.11"/>
<polygon fill="#63b8ff" stroke="#63b8ff" points="517.4,-142.17 524.73,-134.52 514.23,-135.93 517.4,-142.17"/>
</a>
</g>
</g>
<!-- Node9 -->
<g id="Node000009" class="node">
<title>Node9</title>
<g id="a_Node000009"><a xlink:href="Tendency_8hpp.html" target="_top" xlink:title=" ">
<polygon fill="white" stroke="#666666" points="386.5,-74 304.5,-74 304.5,-55 386.5,-55 386.5,-74"/>
<text text-anchor="middle" x="345.5" y="-62" font-family="Helvetica,sans-Serif" font-size="10.00">Tendency.hpp</text>
</a>
</g>
</g>
<!-- Node8&#45;&gt;Node9 -->
<g id="edge8_Node000008_Node000009" class="edge">
<title>Node8&#45;&gt;Node9</title>
<g id="a_edge8_Node000008_Node000009"><a xlink:title=" ">
<path fill="none" stroke="#63b8ff" d="M396.28,-109.84C386.26,-101.09 373.39,-89.85 363.12,-80.88"/>
<polygon fill="#63b8ff" stroke="#63b8ff" points="365.37,-78.21 355.54,-74.27 360.77,-83.48 365.37,-78.21"/>
</a>
</g>
</g>
<!-- Node10 -->
<g id="Node000010" class="node">
<title>Node10</title>
<g id="a_Node000010"><a xlink:title=" ">
<polygon fill="#e0e0e0" stroke="#999999" points="283.5,-19 205.5,-19 205.5,0 283.5,0 283.5,-19"/>
<text text-anchor="middle" x="244.5" y="-7" font-family="Helvetica,sans-Serif" font-size="10.00">glm/glm.hpp</text>
</a>
</g>
</g>
<!-- Node9&#45;&gt;Node10 -->
<g id="edge9_Node000009_Node000010" class="edge">
<title>Node9&#45;&gt;Node10</title>
<g id="a_edge9_Node000009_Node000010"><a xlink:title=" ">
<path fill="none" stroke="#63b8ff" d="M329.27,-54.98C313.32,-46.61 288.72,-33.7 270.12,-23.95"/>
<polygon fill="#63b8ff" stroke="#63b8ff" points="271.5,-20.72 261.02,-19.17 268.25,-26.92 271.5,-20.72"/>
</a>
</g>
</g>
<!-- Node13 -->
<g id="Node000013" class="node">
<title>Node13</title>
<g id="a_Node000013"><a xlink:href="VertexLayout_8hpp.html" target="_top" xlink:title=" ">
<polygon fill="white" stroke="#666666" points="151,-206 0,-206 0,-176 151,-176 151,-206"/>
<text text-anchor="start" x="8" y="-194" font-family="Helvetica,sans-Serif" font-size="10.00">MayaFlux/Kakshya/NDData</text>
<text text-anchor="middle" x="75.5" y="-183" font-family="Helvetica,sans-Serif" font-size="10.00">/VertexLayout.hpp</text>
</a>
</g>
</g>
<!-- Node12&#45;&gt;Node13 -->
<g id="edge12_Node000012_Node000013" class="edge">
<title>Node12&#45;&gt;Node13</title>
<g id="a_edge12_Node000012_Node000013"><a xlink:title=" ">
<path fill="none" stroke="#63b8ff" d="M79.39,-241.8C78.81,-234.34 78.08,-224.99 77.41,-216.41"/>
<polygon fill="#63b8ff" stroke="#63b8ff" points="80.87,-215.86 76.61,-206.16 73.9,-216.41 80.87,-215.86"/>
</a>
</g>
</g>
<!-- Node14 -->
<g id="Node000014" class="node">
<title>Node14</title>
<g id="a_Node000014"><a xlink:href="NDData_8hpp.html" target="_top" xlink:title=" ">
<polygon fill="white" stroke="#666666" points="115.5,-134.5 39.5,-134.5 39.5,-115.5 115.5,-115.5 115.5,-134.5"/>
<text text-anchor="middle" x="77.5" y="-122.5" font-family="Helvetica,sans-Serif" font-size="10.00">NDData.hpp</text>
</a>
</g>
</g>
<!-- Node13&#45;&gt;Node14 -->
<g id="edge13_Node000013_Node000014" class="edge">
<title>Node13&#45;&gt;Node14</title>
<g id="a_edge13_Node000013_Node000014"><a xlink:title=" ">
<path fill="none" stroke="#63b8ff" d="M75.94,-175.8C76.23,-166.7 76.6,-154.79 76.91,-144.9"/>
<polygon fill="#63b8ff" stroke="#63b8ff" points="80.41,-144.95 77.22,-134.84 73.41,-144.73 80.41,-144.95"/>
</a>
</g>
</g>
<!-- Node14&#45;&gt;Node10 -->
<g id="edge14_Node000014_Node000010" class="edge">
<title>Node14&#45;&gt;Node10</title>
<g id="a_edge14_Node000014_Node000010"><a xlink:title=" ">
<path fill="none" stroke="#63b8ff" d="M90.05,-115.47C118.46,-96.16 187.95,-48.93 223.22,-24.96"/>
<polygon fill="#63b8ff" stroke="#63b8ff" points="225.5,-27.65 231.8,-19.13 221.56,-21.86 225.5,-27.65"/>
</a>
</g>
</g>
<!-- Node15&#45;&gt;Node3 -->
<g id="edge16_Node000015_Node000003" class="edge">
<title>Node15&#45;&gt;Node3</title>
<g id="a_edge16_Node000015_Node000003"><a xlink:title=" ">
<path fill="none" stroke="#63b8ff" d="M213,-247.37C222.8,-237.4 239.16,-220.79 251.39,-208.36"/>
<polygon fill="#63b8ff" stroke="#63b8ff" points="254.21,-210.49 258.73,-200.91 249.22,-205.58 254.21,-210.49"/>
</a>
</g>
</g>
<!-- Node15&#45;&gt;Node13 -->
<g id="edge18_Node000015_Node000013" class="edge">
<title>Node15&#45;&gt;Node13</title>
<g id="a_edge18_Node000015_Node000013"><a xlink:title=" ">
<path fill="none" stroke="#63b8ff" d="M187.1,-247.37C168.2,-237.99 137.42,-222.72 112.97,-210.59"/>
<polygon fill="#63b8ff" stroke="#63b8ff" points="114.47,-207.42 103.95,-206.12 111.35,-213.7 114.47,-207.42"/>
</a>
</g>
</g>
<!-- Node15&#45;&gt;Node14 -->
<g id="edge17_Node000015_Node000014" class="edge">
<title>Node15&#45;&gt;Node14</title>
<g id="a_edge17_Node000015_Node000014"><a xlink:title=" ">
<path fill="none" stroke="#63b8ff" d="M201.36,-247.38C195.28,-231.65 180.64,-197.9 159.5,-176 144.49,-160.46 123.67,-147.84 106.77,-139.17"/>
<polygon fill="#63b8ff" stroke="#63b8ff" points="107.85,-135.8 97.34,-134.52 104.76,-142.08 107.85,-135.8"/>
</a>
</g>
</g>
<!-- Node18 -->
<g id="Node000018" class="node">
<title>Node18</title>
<g id="a_Node000018"><a xlink:href="GlobalNetworkConfig_8hpp.html" target="_top" xlink:title=" ">
<polygon fill="white" stroke="#666666" points="605.5,-272 439.5,-272 439.5,-242 605.5,-242 605.5,-272"/>
<text text-anchor="start" x="447.5" y="-260" font-family="Helvetica,sans-Serif" font-size="10.00">MayaFlux/Core/GlobalNetwork</text>
<text text-anchor="middle" x="522.5" y="-249" font-family="Helvetica,sans-Serif" font-size="10.00">Config.hpp</text>
</a>
</g>
</g>
<!-- Node17&#45;&gt;Node18 -->
<g id="edge21_Node000017_Node000018" class="edge">
<title>Node17&#45;&gt;Node18</title>
<g id="a_edge21_Node000017_Node000018"><a xlink:title=" ">
<path fill="none" stroke="#63b8ff" d="M692.07,-313.37C662.33,-303.66 613.27,-287.64 575.55,-275.32"/>
<polygon fill="#63b8ff" stroke="#63b8ff" points="576.32,-271.89 565.73,-272.12 574.15,-278.55 576.32,-271.89"/>
</a>
</g>
</g>
<!-- Node19 -->
<g id="Node000019" class="node">
<title>Node19</title>
<g id="a_Node000019"><a xlink:href="RingBuffer_8hpp.html" target="_top" xlink:title=" ">
<polygon fill="white" stroke="#666666" points="757.5,-272 623.5,-272 623.5,-242 757.5,-242 757.5,-272"/>
<text text-anchor="start" x="631.5" y="-260" font-family="Helvetica,sans-Serif" font-size="10.00">MayaFlux/Transitive</text>
<text text-anchor="middle" x="690.5" y="-249" font-family="Helvetica,sans-Serif" font-size="10.00">/Memory/RingBuffer.hpp</text>
</a>
</g>
</g>
<!-- Node17&#45;&gt;Node19 -->
<g id="edge22_Node000017_Node000019" class="edge">
<title>Node17&#45;&gt;Node19</title>
<g id="a_edge22_Node000017_Node000019"><a xlink:title=" ">
<path fill="none" stroke="#63b8ff" d="M714.72,-313.37C711.17,-305.24 705.68,-292.69 700.82,-281.59"/>
<polygon fill="#63b8ff" stroke="#63b8ff" points="704,-280.12 696.78,-272.36 697.58,-282.92 704,-280.12"/>
</a>
</g>
</g>
<!-- Node20 -->
<g id="Node000020" class="node">
<title>Node20</title>
<g id="a_Node000020"><a xlink:href="EventSource_8hpp.html" target="_top" xlink:title=" ">
<polygon fill="white" stroke="#666666" points="955,-266.5 776,-266.5 776,-247.5 955,-247.5 955,-266.5"/>
<text text-anchor="middle" x="865.5" y="-254.5" font-family="Helvetica,sans-Serif" font-size="10.00">MayaFlux/Vruta/EventSource.hpp</text>
</a>
</g>
</g>
<!-- Node17&#45;&gt;Node20 -->
<g id="edge23_Node000017_Node000020" class="edge">
<title>Node17&#45;&gt;Node20</title>
<g id="a_edge23_Node000017_Node000020"><a xlink:title=" ">
<path fill="none" stroke="#63b8ff" d="M738.33,-313.37C763.53,-302.39 807.26,-283.36 836.29,-270.72"/>
<polygon fill="#63b8ff" stroke="#63b8ff" points="837.75,-273.9 845.52,-266.7 834.95,-267.48 837.75,-273.9"/>
</a>
</g>
</g>
<!-- Node21&#45;&gt;Node16 -->
<g id="edge27_Node000021_Node000016" class="edge">
<title>Node21&#45;&gt;Node16</title>
<g id="a_edge27_Node000021_Node000016"><a xlink:title=" ">
<path fill="none" stroke="#63b8ff" d="M1035.5,-307.8C1035.5,-298.7 1035.5,-286.79 1035.5,-276.9"/>
<polygon fill="#63b8ff" stroke="#63b8ff" points="1039,-276.84 1035.5,-266.84 1032,-276.84 1039,-276.84"/>
</a>
</g>
</g>
<!-- Node21&#45;&gt;Node20 -->
<g id="edge25_Node000021_Node000020" class="edge">
<title>Node21&#45;&gt;Node20</title>
<g id="a_edge25_Node000021_Node000020"><a xlink:title=" ">
<path fill="none" stroke="#63b8ff" d="M998.19,-307.95C968.12,-296.63 926.26,-280.88 897.65,-270.1"/>
<polygon fill="#63b8ff" stroke="#63b8ff" points="898.72,-266.77 888.12,-266.52 896.25,-273.32 898.72,-266.77"/>
</a>
</g>
</g>
<!-- Node22 -->
<g id="Node000022" class="node">
<title>Node22</title>
<g id="a_Node000022"><a xlink:href="GlobalGraphicsInfo_8hpp.html" target="_top" xlink:title=" ">
<polygon fill="white" stroke="#666666" points="1283,-272 1116,-272 1116,-242 1283,-242 1283,-272"/>
<text text-anchor="start" x="1124" y="-260" font-family="Helvetica,sans-Serif" font-size="10.00">MayaFlux/Core/GlobalGraphics</text>
<text text-anchor="middle" x="1199.5" y="-249" font-family="Helvetica,sans-Serif" font-size="10.00">Info.hpp</text>
</a>
</g>
</g>
<!-- Node21&#45;&gt;Node22 -->
<g id="edge26_Node000021_Node000022" class="edge">
<title>Node21&#45;&gt;Node22</title>
<g id="a_edge26_Node000021_Node000022"><a xlink:title=" ">
<path fill="none" stroke="#63b8ff" d="M1071.49,-307.95C1095.74,-298.49 1127.92,-285.93 1153.95,-275.78"/>
<polygon fill="#63b8ff" stroke="#63b8ff" points="1155.55,-278.91 1163.59,-272.01 1153.01,-272.39 1155.55,-278.91"/>
</a>
</g>
</g>
<!-- Node23 -->
<g id="Node000023" class="node">
<title>Node23</title>
<g id="a_Node000023"><a xlink:title=" ">
<polygon fill="#e0e0e0" stroke="#999999" points="1348,-266.5 1301,-266.5 1301,-247.5 1348,-247.5 1348,-266.5"/>
<text text-anchor="middle" x="1324.5" y="-254.5" font-family="Helvetica,sans-Serif" font-size="10.00">queue</text>
</a>
</g>
</g>
<!-- Node21&#45;&gt;Node23 -->
<g id="edge28_Node000021_Node000023" class="edge">
<title>Node21&#45;&gt;Node23</title>
<g id="a_edge28_Node000021_Node000023"><a xlink:title=" ">
<path fill="none" stroke="#63b8ff" d="M1117.66,-310.74C1168.68,-302.6 1235.22,-289.86 1292.5,-272 1294.13,-271.49 1295.79,-270.92 1297.46,-270.32"/>
<polygon fill="#63b8ff" stroke="#63b8ff" points="1298.85,-273.53 1306.83,-266.56 1296.24,-267.04 1298.85,-273.53"/>
</a>
</g>
</g>
</g>
</svg>

<g id="navigator" transform="translate(0 0)" fill="#404254">
  <rect fill="#f2f5e9" fill-opacity="0.5" stroke="#606060" stroke-width=".5" x="0" y="0" width="60" height="60"/>
  <use id="zoomplus" xlink:href="#zoomPlus" x="17" y="9" onmousedown="handleZoom(evt,'in')"/>
  <use id="zoomminus" xlink:href="#zoomMin" x="42" y="9" onmousedown="handleZoom(evt,'out')"/>
  <use id="reset" xlink:href="#resetDef" x="30" y="36" onmousedown="handleReset()"/>
   <use id="arrowup" xlink:href="#arrowUp" x="0" y="0" onmousedown="handlePan(0,-1)"/>
  <use id="arrowright" xlink:href="#arrowRight" x="0" y="0" onmousedown="handlePan(1,0)"/>
  <use id="arrowdown" xlink:href="#arrowDown" x="0" y="0" onmousedown="handlePan(0,1)"/>
  <use id="arrowleft" xlink:href="#arrowLeft" x="0" y="0" onmousedown="handlePan(-1,0)"/>
</g>
<svg viewBox="0 0 15 15" width="100%" height="30px" preserveAspectRatio="xMaxYMin meet">
 <g id="arrow_out" transform="scale(0.3 0.3)">
  <a xlink:href="Wiring_8hpp__incl_org.svg" target="_base">
   <rect id="button" ry="5" rx="5" y="6" x="6" height="38" width="38"
        fill="#f2f5e9" fill-opacity="0.5" stroke="#606060" stroke-width="1.0"/>
   <path id="arrow"
     d="M 11.500037,31.436501 C 11.940474,20.09759 22.043105,11.32322 32.158766,21.979434 L 37.068811,17.246167 C 37.068811,17.246167 37.088388,32 37.088388,32 L 22.160133,31.978069 C 22.160133,31.978069 26.997745,27.140456 26.997745,27.140456 C 18.528582,18.264221 13.291696,25.230495 11.500037,31.436501 z"
     style="fill:#404040;"/>
  </a>
 </g>
</svg>

<style type='text/css'>
<![CDATA[
[data-mouse-over-selected='false'] { opacity: 0.7; }
[data-mouse-over-selected='true']  { opacity: 1.0; }
]]>
</style>
<script type="application/ecmascript"><![CDATA[
document.addEventListener('DOMContentLoaded', (event) => {
  highlightEdges();
  highlightAdjacentNodes();
});
]]></script>
</svg>
